<svg width="48" height="48" viewBox="0 0 48 48" fill="none" xmlns="http://www.w3.org/2000/svg">
<path d="M10.9922 22.1537L9.99998 22.1537C8.89541 22.1537 7.99998 23.0492 7.99998 24.1537C7.99998 25.2583 8.89541 26.1537 9.99998 26.1537H10.9922V22.1537Z" fill="#333333"/>
<path d="M12.9922 22.1537V26.1537H29.5524C30.6569 26.1537 31.5524 25.2583 31.5524 24.1537C31.5524 23.0492 30.6569 22.1537 29.5524 22.1537H12.9922Z" fill="#333333"/>
<path fill-rule="evenodd" clip-rule="evenodd" d="M2.49756 24.1518C2.49756 19.7335 6.07928 16.1518 10.4976 16.1518H37.5024C41.9207 16.1518 45.5024 19.7335 45.5024 24.1518C45.5024 28.57 41.9207 32.1518 37.5024 32.1518H10.4976C6.07927 32.1518 2.49756 28.57 2.49756 24.1518ZM40 22.1537C41.1045 22.1537 42 23.0492 42 24.1537C42 25.2583 41.1045 26.1537 40 26.1537C38.8954 26.1537 38 25.2583 38 24.1537C38 23.0492 38.8954 22.1537 40 22.1537ZM37 24.2748C37 23.7225 36.5523 23.2748 36 23.2748C35.4477 23.2748 35 23.7225 35 24.2748C35 24.8271 35.4477 25.2748 36 25.2748C36.5523 25.2748 37 24.8271 37 24.2748ZM5.99998 24.1537C5.99998 26.3629 7.79084 28.1537 9.99998 28.1537H29.5524C31.7615 28.1537 33.5524 26.3629 33.5524 24.1537C33.5524 21.9446 31.7615 20.1537 29.5524 20.1537L9.99998 20.1537C7.79084 20.1537 5.99998 21.9446 5.99998 24.1537Z" fill="#333333"/>
<path d="M9.88688 14.9063C10.9509 14.9063 11.6539 14.5928 12.2524 14.0703C12.3854 13.9563 12.4994 13.7758 12.4994 13.5478C12.4994 13.1773 12.1859 12.8733 11.8154 12.8733C11.6444 12.8733 11.4924 12.9398 11.3784 13.0348C10.9604 13.3673 10.5519 13.5573 9.93438 13.5573C8.79438 13.5573 8.00588 12.6073 8.00588 11.4673V11.4483C8.00588 10.3083 8.81338 9.37732 9.93438 9.37732C10.4569 9.37732 10.8844 9.54832 11.2929 9.85232C11.3974 9.91882 11.5304 9.99482 11.7299 9.99482C12.1289 9.99482 12.4519 9.68132 12.4519 9.28232C12.4519 9.02582 12.3189 8.81682 12.1669 8.70282C11.6159 8.29432 10.9414 8.02832 9.94388 8.02832C7.90138 8.02832 6.47638 9.57682 6.47638 11.4673V11.4863C6.47638 13.3958 7.92988 14.9063 9.88688 14.9063Z" fill="#333333"/>
<path d="M27.3371 14.1151C27.3371 14.5236 27.6601 14.8466 28.0686 14.8466C28.4771 14.8466 28.8001 14.5236 28.8001 14.1151V12.7946H29.9116C31.4031 12.7946 32.6001 11.9966 32.6001 10.4576V10.4386C32.6001 9.08009 31.6406 8.13959 30.0541 8.13959H28.0686C27.6601 8.13959 27.3371 8.46259 27.3371 8.87109V14.1151ZM28.8001 11.4931V9.46009H29.9306C30.6621 9.46009 31.1181 9.81159 31.1181 10.4671V10.4861C31.1181 11.0561 30.6906 11.4931 29.9591 11.4931H28.8001Z" fill="#333333"/>
<path d="M33.6319 14.1246C33.6319 14.5236 33.9549 14.8466 34.3539 14.8466C34.7529 14.8466 35.0759 14.5236 35.0759 14.1246V10.9326H35.6839C36.0164 10.9326 36.2824 10.6761 36.2824 10.3436C36.2824 10.0111 36.0164 9.75459 35.6839 9.75459H35.0569V9.55509C35.0569 9.17509 35.2469 9.00409 35.5794 9.00409H35.7029C36.0259 9.00409 36.2919 8.72859 36.2919 8.40559C36.2919 8.08259 36.0449 7.86409 35.7979 7.82609C35.6364 7.79759 35.4369 7.78809 35.2089 7.78809C34.6959 7.78809 34.3064 7.92109 34.0404 8.18709C33.7744 8.45309 33.6319 8.86159 33.6319 9.42209V9.74509H33.5749C33.2424 9.74509 32.9764 10.0111 32.9764 10.3436C32.9764 10.6761 33.2424 10.9326 33.5749 10.9326H33.6319V14.1246Z" fill="#333333"/>
<path d="M14.3869 39.4317C14.3869 39.8401 14.7099 40.1632 15.1184 40.1632C15.5269 40.1632 15.8499 39.8401 15.8499 39.4317V38.1111H16.9614C18.4529 38.1111 19.6499 37.3131 19.6499 35.7741V35.7551C19.6499 34.3967 18.6904 33.4562 17.1039 33.4562H15.1184C14.7099 33.4562 14.3869 33.7791 14.3869 34.1876V39.4317ZM15.8499 36.8097V34.7766H16.9804C17.7119 34.7766 18.1679 35.1281 18.1679 35.7836V35.8027C18.1679 36.3727 17.7404 36.8097 17.0089 36.8097H15.8499Z" fill="#333333"/>
<path d="M23.3904 39.5836L24.9484 35.9832C24.9769 35.9167 25.0244 35.7647 25.0244 35.6411C25.0244 35.2516 24.7109 34.9571 24.3309 34.9571C23.9509 34.9571 23.7514 35.2041 23.6564 35.4511L22.5449 38.4247L21.4524 35.4701C21.3479 35.1756 21.1389 34.9571 20.7494 34.9571C20.3599 34.9571 20.0464 35.2896 20.0464 35.6316C20.0464 35.7646 20.0844 35.8882 20.1224 35.9832L21.6804 39.5836C21.8419 39.9636 22.1079 40.2106 22.4974 40.2106H22.5734C22.9629 40.2106 23.2289 39.9541 23.3904 39.5836Z" fill="#333333"/>
</svg>
