<svg width="48" height="49" viewBox="0 0 48 49" fill="none" xmlns="http://www.w3.org/2000/svg">
<path fill-rule="evenodd" clip-rule="evenodd" d="M2.49756 18.6519C2.49756 17.5473 3.39299 16.6519 4.49756 16.6519H43.5024C44.607 16.6519 45.5024 17.5473 45.5024 18.6519V30.6519C45.5024 31.7564 44.607 32.6519 43.5024 32.6519H4.49756C3.39299 32.6519 2.49756 31.7564 2.49756 30.6519V18.6519ZM40 22.6538C41.1045 22.6538 42 23.5492 42 24.6538C42 25.7584 41.1045 26.6538 40 26.6538C38.8954 26.6538 38 25.7584 38 24.6538C38 23.5492 38.8954 22.6538 40 22.6538ZM37 24.7749C37 24.2226 36.5523 23.7749 36 23.7749C35.4477 23.7749 35 24.2226 35 24.7749C35 25.3272 35.4477 25.7749 36 25.7749C36.5523 25.7749 37 25.3272 37 24.7749ZM18.8036 22.6538L9.99997 22.6538C8.8954 22.6538 7.99997 23.5492 7.99997 24.6538C7.99997 25.7584 8.8954 26.6538 9.99997 26.6538L18.8036 26.6538V22.6538ZM20.8036 22.6538V26.6538L29.5523 26.6538C30.6569 26.6538 31.5523 25.7584 31.5523 24.6538C31.5523 23.5492 30.6569 22.6538 29.5523 22.6538L20.8036 22.6538ZM5.99997 24.6538C5.99997 26.8629 7.79083 28.6538 9.99997 28.6538L29.5523 28.6538C31.7615 28.6538 33.5523 26.8629 33.5523 24.6538C33.5523 22.4447 31.7615 20.6538 29.5523 20.6538L9.99997 20.6538C7.79083 20.6538 5.99997 22.4447 5.99997 24.6538Z" fill="#333333"/>
<path d="M9.88682 15.4063C10.9508 15.4063 11.6538 15.0928 12.2523 14.5703C12.3853 14.4563 12.4993 14.2758 12.4993 14.0478C12.4993 13.6773 12.1858 13.3733 11.8153 13.3733C11.6443 13.3733 11.4923 13.4398 11.3783 13.5348C10.9603 13.8673 10.5518 14.0573 9.93432 14.0573C8.79432 14.0573 8.00582 13.1073 8.00582 11.9673V11.9483C8.00582 10.8083 8.81332 9.87732 9.93432 9.87732C10.4568 9.87732 10.8843 10.0483 11.2928 10.3523C11.3973 10.4188 11.5303 10.4948 11.7298 10.4948C12.1288 10.4948 12.4518 10.1813 12.4518 9.78232C12.4518 9.52582 12.3188 9.31682 12.1668 9.20282C11.6158 8.79432 10.9413 8.52832 9.94382 8.52832C7.90132 8.52832 6.47632 10.0768 6.47632 11.9673V11.9863C6.47632 13.8958 7.92982 15.4063 9.88682 15.4063Z" fill="#333333"/>
<path d="M27.3372 14.6151C27.3372 15.0236 27.6602 15.3466 28.0687 15.3466C28.4772 15.3466 28.8002 15.0236 28.8002 14.6151V13.2946H29.9117C31.4032 13.2946 32.6002 12.4966 32.6002 10.9576V10.9386C32.6002 9.58009 31.6407 8.63959 30.0542 8.63959H28.0687C27.6602 8.63959 27.3372 8.96259 27.3372 9.37109V14.6151ZM28.8002 11.9931V9.96009H29.9307C30.6622 9.96009 31.1182 10.3116 31.1182 10.9671V10.9861C31.1182 11.5561 30.6907 11.9931 29.9592 11.9931H28.8002Z" fill="#333333"/>
<path d="M33.632 14.6246C33.632 15.0236 33.955 15.3466 34.354 15.3466C34.753 15.3466 35.076 15.0236 35.076 14.6246V11.4326H35.684C36.0165 11.4326 36.2825 11.1761 36.2825 10.8436C36.2825 10.5111 36.0165 10.2546 35.684 10.2546H35.057V10.0551C35.057 9.67509 35.247 9.50409 35.5795 9.50409H35.703C36.026 9.50409 36.292 9.22859 36.292 8.90559C36.292 8.58259 36.045 8.36409 35.798 8.32609C35.6365 8.29759 35.437 8.28809 35.209 8.28809C34.696 8.28809 34.3065 8.42109 34.0405 8.68709C33.7745 8.95309 33.632 9.36159 33.632 9.92209V10.2451H33.575C33.2425 10.2451 32.9765 10.5111 32.9765 10.8436C32.9765 11.1761 33.2425 11.4326 33.575 11.4326H33.632V14.6246Z" fill="#333333"/>
<path d="M14.387 39.9316C14.387 40.3401 14.71 40.6631 15.1185 40.6631C15.527 40.6631 15.85 40.3401 15.85 39.9316V38.6111H16.9615C18.453 38.6111 19.65 37.8131 19.65 36.2741V36.2551C19.65 34.8966 18.6905 33.9561 17.104 33.9561H15.1185C14.71 33.9561 14.387 34.2791 14.387 34.6876V39.9316ZM15.85 37.3096V35.2766H16.9805C17.712 35.2766 18.168 35.6281 18.168 36.2836V36.3026C18.168 36.8726 17.7405 37.3096 17.009 37.3096H15.85Z" fill="#333333"/>
<path d="M23.3904 40.0836L24.9484 36.4831C24.9769 36.4166 25.0244 36.2646 25.0244 36.1411C25.0244 35.7516 24.7109 35.4571 24.3309 35.4571C23.9509 35.4571 23.7514 35.7041 23.6564 35.9511L22.5449 38.9246L21.4524 35.9701C21.3479 35.6756 21.1389 35.4571 20.7494 35.4571C20.3599 35.4571 20.0464 35.7896 20.0464 36.1316C20.0464 36.2646 20.0844 36.3881 20.1224 36.4831L21.6804 40.0836C21.8419 40.4636 22.1079 40.7106 22.4974 40.7106H22.5734C22.9629 40.7106 23.2289 40.4541 23.3904 40.0836Z" fill="#333333"/>
</svg>
