<svg width="48" height="49" viewBox="0 0 48 49" fill="none" xmlns="http://www.w3.org/2000/svg">
<path fill-rule="evenodd" clip-rule="evenodd" d="M2.49756 18.6518C2.49756 17.5472 3.39299 16.6518 4.49756 16.6518H43.5024C44.607 16.6518 45.5024 17.5472 45.5024 18.6518V30.6518C45.5024 31.7563 44.607 32.6518 43.5024 32.6518H4.49756C3.39299 32.6518 2.49756 31.7563 2.49756 30.6518V18.6518ZM40 22.6537C41.1045 22.6537 42 23.5492 42 24.6537C42 25.7583 41.1045 26.6537 40 26.6537C38.8954 26.6537 38 25.7583 38 24.6537C38 23.5492 38.8954 22.6537 40 22.6537ZM37 24.7748C37 24.2225 36.5523 23.7748 36 23.7748C35.4477 23.7748 35 24.2225 35 24.7748C35 25.3271 35.4477 25.7748 36 25.7748C36.5523 25.7748 37 25.3271 37 24.7748ZM18.8036 22.6537H9.99997C8.8954 22.6537 7.99997 23.5492 7.99997 24.6537C7.99997 25.7583 8.8954 26.6537 9.99997 26.6537H18.8036V22.6537ZM20.8036 22.6537V26.6537H29.5523C30.6569 26.6537 31.5523 25.7583 31.5523 24.6537C31.5523 23.5492 30.6569 22.6537 29.5523 22.6537L20.8036 22.6537ZM5.99997 24.6537C5.99997 26.8629 7.79083 28.6537 9.99997 28.6537H29.5523C31.7615 28.6537 33.5523 26.8629 33.5523 24.6537C33.5523 22.4446 31.7615 20.6537 29.5523 20.6537L9.99997 20.6537C7.79083 20.6537 5.99997 22.4446 5.99997 24.6537Z" fill="#333333"/>
<path d="M9.88688 15.4063C10.9509 15.4063 11.6539 15.0928 12.2524 14.5703C12.3854 14.4563 12.4994 14.2758 12.4994 14.0478C12.4994 13.6773 12.1859 13.3733 11.8154 13.3733C11.6444 13.3733 11.4924 13.4398 11.3784 13.5348C10.9604 13.8673 10.5519 14.0573 9.93438 14.0573C8.79438 14.0573 8.00588 13.1073 8.00588 11.9673V11.9483C8.00588 10.8083 8.81338 9.87732 9.93438 9.87732C10.4569 9.87732 10.8844 10.0483 11.2929 10.3523C11.3974 10.4188 11.5304 10.4948 11.7299 10.4948C12.1289 10.4948 12.4519 10.1813 12.4519 9.78232C12.4519 9.52582 12.3189 9.31682 12.1669 9.20282C11.6159 8.79432 10.9414 8.52832 9.94388 8.52832C7.90138 8.52832 6.47638 10.0768 6.47638 11.9673V11.9863C6.47638 13.8958 7.92988 15.4063 9.88688 15.4063Z" fill="#333333"/>
<path d="M27.3371 14.6151C27.3371 15.0236 27.6601 15.3466 28.0686 15.3466C28.4771 15.3466 28.8001 15.0236 28.8001 14.6151V13.2946H29.9116C31.4031 13.2946 32.6001 12.4966 32.6001 10.9576V10.9386C32.6001 9.58009 31.6406 8.63959 30.0541 8.63959H28.0686C27.6601 8.63959 27.3371 8.96259 27.3371 9.37109V14.6151ZM28.8001 11.9931V9.96009H29.9306C30.6621 9.96009 31.1181 10.3116 31.1181 10.9671V10.9861C31.1181 11.5561 30.6906 11.9931 29.9591 11.9931H28.8001Z" fill="#333333"/>
<path d="M33.6319 14.6246C33.6319 15.0236 33.9549 15.3466 34.3539 15.3466C34.7529 15.3466 35.0759 15.0236 35.0759 14.6246V11.4326H35.6839C36.0164 11.4326 36.2824 11.1761 36.2824 10.8436C36.2824 10.5111 36.0164 10.2546 35.6839 10.2546H35.0569V10.0551C35.0569 9.67509 35.2469 9.50409 35.5794 9.50409H35.7029C36.0259 9.50409 36.2919 9.22859 36.2919 8.90559C36.2919 8.58259 36.0449 8.36409 35.7979 8.32609C35.6364 8.29759 35.4369 8.28809 35.2089 8.28809C34.6959 8.28809 34.3064 8.42109 34.0404 8.68709C33.7744 8.95309 33.6319 9.36159 33.6319 9.92209V10.2451H33.5749C33.2424 10.2451 32.9764 10.5111 32.9764 10.8436C32.9764 11.1761 33.2424 11.4326 33.5749 11.4326H33.6319V14.6246Z" fill="#333333"/>
<path d="M14.3869 39.9316C14.3869 40.3401 14.7099 40.6631 15.1184 40.6631C15.5269 40.6631 15.8499 40.3401 15.8499 39.9316V38.6111H16.9614C18.4529 38.6111 19.6499 37.8131 19.6499 36.2741V36.2551C19.6499 34.8966 18.6904 33.9561 17.1039 33.9561H15.1184C14.7099 33.9561 14.3869 34.2791 14.3869 34.6876V39.9316ZM15.8499 37.3096V35.2766H16.9804C17.7119 35.2766 18.1679 35.6281 18.1679 36.2836V36.3026C18.1679 36.8726 17.7404 37.3096 17.0089 37.3096H15.8499Z" fill="#333333"/>
<path d="M23.3904 40.0836L24.9484 36.4831C24.9769 36.4166 25.0244 36.2646 25.0244 36.1411C25.0244 35.7516 24.7109 35.4571 24.3309 35.4571C23.9509 35.4571 23.7514 35.7041 23.6564 35.9511L22.5449 38.9246L21.4524 35.9701C21.3479 35.6756 21.1389 35.4571 20.7494 35.4571C20.3599 35.4571 20.0464 35.7896 20.0464 36.1316C20.0464 36.2646 20.0844 36.3881 20.1224 36.4831L21.6804 40.0836C21.8419 40.4636 22.1079 40.7106 22.4974 40.7106H22.5734C22.9629 40.7106 23.2289 40.4541 23.3904 40.0836Z" fill="#333333"/>
</svg>
