<svg width="48" height="48" viewBox="0 0 48 48" fill="none" xmlns="http://www.w3.org/2000/svg">
<path d="M20.8037 22.1537H26.6074V26.1537H20.8037V22.1537Z" fill="#333333"/>
<path d="M18.8037 22.1537H10C8.89544 22.1537 8.00001 23.0492 8.00001 24.1537C8.00001 25.2583 8.89544 26.1537 10 26.1537H18.8037V22.1537Z" fill="#333333"/>
<path d="M29.5524 26.1537H28.6074V22.1537L29.5524 22.1537C30.657 22.1537 31.5524 23.0492 31.5524 24.1537C31.5524 25.2583 30.657 26.1537 29.5524 26.1537Z" fill="#333333"/>
<path fill-rule="evenodd" clip-rule="evenodd" d="M10.4976 16.1518C6.07931 16.1518 2.49759 19.7335 2.49759 24.1518C2.49759 28.57 6.0793 32.1518 10.4976 32.1518H37.5024C41.9207 32.1518 45.5024 28.57 45.5024 24.1518C45.5024 19.7335 41.9207 16.1518 37.5024 16.1518H10.4976ZM42 24.1537C42 23.0492 41.1046 22.1537 40 22.1537C38.8954 22.1537 38 23.0492 38 24.1537C38 25.2583 38.8954 26.1537 40 26.1537C41.1046 26.1537 42 25.2583 42 24.1537ZM36 23.2748C36.5523 23.2748 37 23.7225 37 24.2748C37 24.8271 36.5523 25.2748 36 25.2748C35.4477 25.2748 35 24.8271 35 24.2748C35 23.7225 35.4477 23.2748 36 23.2748ZM10 28.1537C7.79087 28.1537 6.00001 26.3629 6.00001 24.1537C6.00001 21.9446 7.79087 20.1537 10 20.1537L29.5524 20.1537C31.7615 20.1537 33.5524 21.9446 33.5524 24.1537C33.5524 26.3629 31.7615 28.1537 29.5524 28.1537H10Z" fill="#333333"/>
<path d="M9.88691 14.9063C10.9509 14.9063 11.6539 14.5928 12.2524 14.0703C12.3854 13.9563 12.4994 13.7758 12.4994 13.5478C12.4994 13.1773 12.1859 12.8733 11.8154 12.8733C11.6444 12.8733 11.4924 12.9398 11.3784 13.0348C10.9604 13.3673 10.5519 13.5573 9.93441 13.5573C8.79441 13.5573 8.00591 12.6073 8.00591 11.4673V11.4483C8.00591 10.3083 8.81341 9.37732 9.93441 9.37732C10.4569 9.37732 10.8844 9.54832 11.2929 9.85232C11.3974 9.91882 11.5304 9.99482 11.7299 9.99482C12.1289 9.99482 12.4519 9.68132 12.4519 9.28232C12.4519 9.02582 12.3189 8.81682 12.1669 8.70282C11.6159 8.29432 10.9414 8.02832 9.94391 8.02832C7.90141 8.02832 6.47641 9.57682 6.47641 11.4673V11.4863C6.47641 13.3958 7.92991 14.9063 9.88691 14.9063Z" fill="#333333"/>
<path d="M27.3371 14.1151C27.3371 14.5236 27.6601 14.8466 28.0686 14.8466C28.4771 14.8466 28.8001 14.5236 28.8001 14.1151V12.7946H29.9116C31.4031 12.7946 32.6001 11.9966 32.6001 10.4576V10.4386C32.6001 9.08009 31.6406 8.13959 30.0541 8.13959H28.0686C27.6601 8.13959 27.3371 8.46259 27.3371 8.87109V14.1151ZM28.8001 11.4931V9.46009H29.9306C30.6621 9.46009 31.1181 9.81159 31.1181 10.4671V10.4861C31.1181 11.0561 30.6906 11.4931 29.9591 11.4931H28.8001Z" fill="#333333"/>
<path d="M33.632 14.1246C33.632 14.5236 33.955 14.8466 34.354 14.8466C34.753 14.8466 35.076 14.5236 35.076 14.1246V10.9326H35.684C36.0165 10.9326 36.2825 10.6761 36.2825 10.3436C36.2825 10.0111 36.0165 9.75459 35.684 9.75459H35.057V9.55509C35.057 9.17509 35.247 9.00409 35.5795 9.00409H35.703C36.026 9.00409 36.292 8.72859 36.292 8.40559C36.292 8.08259 36.045 7.86409 35.798 7.82609C35.6365 7.79759 35.437 7.78809 35.209 7.78809C34.696 7.78809 34.3065 7.92109 34.0405 8.18709C33.7745 8.45309 33.632 8.86159 33.632 9.42209V9.74509H33.575C33.2425 9.74509 32.9765 10.0111 32.9765 10.3436C32.9765 10.6761 33.2425 10.9326 33.575 10.9326H33.632V14.1246Z" fill="#333333"/>
<path d="M14.3869 39.4317C14.3869 39.8401 14.7099 40.1632 15.1184 40.1632C15.5269 40.1632 15.8499 39.8401 15.8499 39.4317V38.1111H16.9614C18.4529 38.1111 19.6499 37.3131 19.6499 35.7741V35.7551C19.6499 34.3967 18.6904 33.4562 17.1039 33.4562H15.1184C14.7099 33.4562 14.3869 33.7791 14.3869 34.1876V39.4317ZM15.8499 36.8097V34.7766H16.9804C17.7119 34.7766 18.1679 35.1281 18.1679 35.7836V35.8027C18.1679 36.3727 17.7404 36.8097 17.0089 36.8097H15.8499Z" fill="#333333"/>
<path d="M23.3904 39.5836L24.9484 35.9832C24.9769 35.9167 25.0244 35.7647 25.0244 35.6411C25.0244 35.2516 24.7109 34.9571 24.3309 34.9571C23.9509 34.9571 23.7514 35.2041 23.6564 35.4511L22.5449 38.4247L21.4524 35.4701C21.3479 35.1756 21.1389 34.9571 20.7494 34.9571C20.3599 34.9571 20.0464 35.2896 20.0464 35.6316C20.0464 35.7646 20.0844 35.8881 20.1224 35.9832L21.6804 39.5836C21.8419 39.9636 22.1079 40.2106 22.4974 40.2106H22.5734C22.9629 40.2106 23.2289 39.9541 23.3904 39.5836Z" fill="#333333"/>
</svg>
