<svg width="48" height="48" viewBox="0 0 48 48" fill="none" xmlns="http://www.w3.org/2000/svg">
<path fill-rule="evenodd" clip-rule="evenodd" d="M31 10H29V11H25.5C25.2239 11 25 11.2239 25 11.5C25 11.7761 25.2239 12 25.5 12H34.5C34.7761 12 35 11.7761 35 11.5C35 11.2239 34.7761 11 34.5 11H31V10Z" fill="#333333"/>
<path fill-rule="evenodd" clip-rule="evenodd" d="M28 6C27.4477 6 27 6.44772 27 7V9C27 9.55228 27.4477 10 28 10H32C32.5523 10 33 9.55228 33 9V7C33 6.44772 32.5523 6 32 6H28ZM30 9C30.5523 9 31 8.55228 31 8C31 7.44772 30.5523 7 30 7C29.4477 7 29 7.44772 29 8C29 8.55228 29.4477 9 30 9Z" fill="#333333"/>
<path fill-rule="evenodd" clip-rule="evenodd" d="M22.4948 16.4345C22.1758 16.799 22 17.267 22 17.7515V40C22 40.5523 22.4477 41 23 41H37C37.5523 41 38 40.5523 38 40V17.7515C38 17.267 37.8242 16.799 37.5052 16.4345L34.6798 13.2055C34.5639 13.073 34.5 12.903 34.5 12.7269C34.5 12.3254 34.1746 12 33.7731 12H26.2269C25.8254 12 25.5 12.3254 25.5 12.7269C25.5 12.903 25.4361 13.073 25.3202 13.2055L22.4948 16.4345ZM36 27C36 23.6863 33.3137 21 30 21C26.6863 21 24 23.6863 24 27C24 30.3137 26.6863 33 30 33C33.3137 33 36 30.3137 36 27ZM34.5 27C34.5 24.5147 32.4853 22.5 30 22.5C29.0281 22.5 28.1282 22.8081 27.3926 23.3319L33.6681 29.6074C34.1919 28.8718 34.5 27.9719 34.5 27ZM25.5 27C25.5 26.0281 25.8081 25.1282 26.3319 24.3926L32.6074 30.6681C31.8718 31.1919 30.9719 31.5 30 31.5C27.5147 31.5 25.5 29.4853 25.5 27Z" fill="#333333"/>
<path d="M20 39.5C20 40.3284 19.5 41 16 41C12.5 41 12 40.3284 12 39.5C12 39 13.7909 38 16 38C18.2091 38 20 39 20 39.5Z" fill="#333333"/>
<path d="M14 39.5L13.1382 37.7764C13.0535 37.607 12.8804 37.5 12.691 37.5H11.4415C11.2472 37.5 11.1272 37.288 11.2272 37.1214L12.5 35" stroke="#333333" stroke-width="0.75" stroke-linecap="round" stroke-linejoin="round"/>
<path d="M15.3481 39.3971L15.4635 37.4735C15.4749 37.2845 15.3784 37.1052 15.2144 37.0106L14.5148 36.6066C14.1782 36.4123 14.1823 35.9251 14.5221 35.7364L16.299 34.75" stroke="#333333" stroke-width="0.75" stroke-linecap="round" stroke-linejoin="round"/>
<path d="M16.5 39.8479L18.116 38.3553C18.3253 38.162 18.331 37.8332 18.1286 37.6327L17.2158 36.7288C17.0504 36.5651 17.1788 36.2841 17.4108 36.3019L20 36.5006" stroke="#333333" stroke-width="0.75" stroke-linecap="round" stroke-linejoin="round"/>
<ellipse cx="11.5001" cy="40.0002" rx="1.5" ry="1" transform="rotate(-12.3041 11.5001 40.0002)" fill="#333333"/>
<path d="M11 40C11 40 10.5 40 9 40C7.5 40 7 39 7 39" stroke="#333333" stroke-width="0.5" stroke-linecap="round" stroke-linejoin="round"/>
<path d="M11 40C11 40 10.5 42 9 42C7.5 42 7 41 7 41" stroke="#333333" stroke-width="0.5" stroke-linecap="round" stroke-linejoin="round"/>
<path fill-rule="evenodd" clip-rule="evenodd" d="M7 10.9429H7.31429V11.7925C7.31429 12.3552 7.53783 12.8949 7.93575 13.2928C7.95859 13.3157 7.97143 13.3466 7.97143 13.379V23.621C7.97143 23.6534 7.95859 23.6843 7.93575 23.7072C7.53783 24.1051 7.31429 24.6448 7.31429 25.2075V26.0571H7V30H7.75102H16.7633H17.5143V26.0571H17.2V25.2075C17.2 24.6448 16.9765 24.1051 16.5785 23.7072C16.5557 23.6843 16.5429 23.6534 16.5429 23.621V13.379C16.5429 13.3466 16.5557 13.3157 16.5785 13.2928C16.9765 12.8949 17.2 12.3552 17.2 11.7925V10.9429H17.5143V7H7V10.9429ZM15.2 26.0571V25.2075C15.2 25.1752 15.1872 25.1442 15.1643 25.1214C14.7664 24.7235 14.5429 24.1838 14.5429 23.621V13.379C14.5429 12.8162 14.7664 12.2765 15.1643 11.8786C15.1872 11.8558 15.2 11.8248 15.2 11.7925V10.9429H9.31429V11.7925C9.31429 11.8248 9.32712 11.8558 9.34996 11.8786C9.74788 12.2765 9.97143 12.8162 9.97143 13.379V23.621C9.97143 24.1838 9.74788 24.7235 9.34996 25.1214C9.32712 25.1442 9.31429 25.1752 9.31429 25.2075V26.0571H15.2Z" fill="#333333"/>
</svg>
