<svg width="49" height="48" viewBox="0 0 49 48" fill="none" xmlns="http://www.w3.org/2000/svg">
<path d="M37.7306 23.6946C38.8564 28.4461 35.5384 33.4632 30.075 34.7577C24.6116 36.0522 19.3952 33.0572 18.2694 28.3057C17.1436 23.5542 20.4616 18.5371 25.925 17.2426C31.3884 15.9481 36.6048 18.9431 37.7306 23.6946Z" stroke="#333333" stroke-width="2"/>
<circle cx="32.5" cy="28.5" r="2.5" fill="#333333"/>
<path d="M12.4818 15.7633L12.3316 16.752L13.3404 16.9052L13.4733 15.8936L12.4818 15.7633ZM18.3388 14.5015L17.4901 15.0304L18.0353 15.9053L18.8933 15.3338L18.3388 14.5015ZM23 17L23.9487 17.3162L24 17.1623V17H23ZM21.3737 19.3041L20.7833 18.497L20.6373 18.6039L20.5379 18.7551L21.3737 19.3041ZM17.4007 21.235L17.4943 20.2394L17.4943 20.2394L17.4007 21.235ZM15.3996 29.7835L14.4724 30.1582L14.602 30.4787L14.9018 30.6508L15.3996 29.7835ZM16.1329 34.7283L15.4055 34.042L14.7506 34.7361L15.4134 35.4228L16.1329 34.7283ZM16.4286 38.9091L15.6048 38.3422L15.1769 38.9639L15.6575 39.5459L16.4286 38.9091ZM12.5714 38.9091L13.3425 39.5459L13.8231 38.9639L13.3952 38.3422L12.5714 38.9091ZM12.3905 35.3894L13.2736 35.8586L13.7534 34.9555L12.8398 34.496L12.3905 35.3894ZM10.9441 31.1782L11.8469 31.6083L12.4952 30.2476L10.9895 30.1792L10.9441 31.1782ZM8.49827 26.1547L9.31253 26.7352L9.92951 25.8698L9.02812 25.3066L8.49827 26.1547ZM9.20248 20.426L9.50999 21.3776L10.6564 21.0071L10.0811 19.9485L9.20248 20.426ZM15.6363 12C13.5125 12 11.7598 13.5824 11.4903 15.633L13.4733 15.8936C13.6137 14.8252 14.5294 14 15.6363 14V12ZM19.1875 13.9727C18.4509 12.7904 17.1363 12 15.6363 12V14C16.4172 14 17.1033 14.4096 17.4901 15.0304L19.1875 13.9727ZM20 13C19.1823 13 18.4191 13.2464 17.7844 13.6693L18.8933 15.3338C19.2098 15.1229 19.589 15 20 15V13ZM24 17C24 14.7909 22.2091 13 20 13V15C21.1046 15 22 15.8954 22 17H24ZM21.9641 20.1113C22.9057 19.4225 23.5627 18.4741 23.9487 17.3162L22.0513 16.6838C21.7822 17.4912 21.355 18.0788 20.7833 18.497L21.9641 20.1113ZM17.3072 22.2306C19.9117 22.4754 21.4407 21.0234 22.2095 19.8532L20.5379 18.7551C20.0158 19.5499 19.1111 20.3914 17.4943 20.2394L17.3072 22.2306ZM16.3267 29.4088C16.1856 29.0595 16.0156 28.3694 15.9037 27.4936C15.7938 26.6328 15.7493 25.664 15.8238 24.7764C15.9002 23.8657 16.0932 23.1505 16.3733 22.7098C16.5054 22.5019 16.6392 22.3829 16.7646 22.3162C16.8838 22.2528 17.0507 22.2065 17.3072 22.2306L17.4943 20.2394C16.8895 20.1826 16.3245 20.2849 15.8251 20.5506C15.3321 20.8129 14.9608 21.2036 14.6853 21.6371C14.1501 22.4793 13.9177 23.5739 13.8308 24.6092C13.742 25.6674 13.7964 26.7806 13.9198 27.747C14.0413 28.6984 14.239 29.5806 14.4724 30.1582L16.3267 29.4088ZM18 32.5451C18 30.9908 17.1515 29.6359 15.8973 28.9161L14.9018 30.6508C15.5602 31.0286 16 31.7361 16 32.5451H18ZM16.8602 35.4145C17.5659 34.6666 18 33.6554 18 32.5451H16C16 33.1251 15.775 33.6504 15.4055 34.042L16.8602 35.4145ZM18 37C18 35.8506 17.5752 34.7826 16.8524 34.0337L15.4134 35.4228C15.7526 35.7742 16 36.3336 16 37H18ZM17.2523 39.476C17.7281 38.7848 18 37.9206 18 37H16C16 37.5299 15.843 37.996 15.6048 38.3422L17.2523 39.476ZM18 40.5C18 39.6548 17.6991 38.8771 17.1996 38.2723L15.6575 39.5459C15.872 39.8055 16 40.1365 16 40.5H18ZM14.5 44C16.433 44 18 42.433 18 40.5H16C16 41.3284 15.3284 42 14.5 42V44ZM11 40.5C11 42.433 12.567 44 14.5 44V42C13.6716 42 13 41.3284 13 40.5H11ZM11.8004 38.2723C11.3009 38.8771 11 39.6548 11 40.5H13C13 40.1365 13.128 39.8055 13.3425 39.5459L11.8004 38.2723ZM11 37C11 37.9206 11.2719 38.7848 11.7477 39.476L13.3952 38.3422C13.157 37.996 13 37.5299 13 37H11ZM11.5074 34.9202C11.1819 35.5328 11 36.2468 11 37H13C13 36.5677 13.1046 36.1766 13.2736 35.8586L11.5074 34.9202ZM9.63635 32.5451C9.63635 34.1814 10.5763 35.5963 11.9412 36.2828L12.8398 34.496C12.124 34.136 11.6364 33.3966 11.6364 32.5451H9.63635ZM10.0413 30.7481C9.78138 31.2937 9.63635 31.9038 9.63635 32.5451H11.6364C11.6364 32.2078 11.7122 31.8909 11.8469 31.6083L10.0413 30.7481ZM6.90906 27.9997C6.90906 30.2449 8.67796 32.0763 10.8988 32.1772L10.9895 30.1792C9.83198 30.1267 8.90906 29.1707 8.90906 27.9997H6.90906ZM7.68401 25.5742C7.1962 26.2585 6.90906 27.097 6.90906 27.9997H8.90906C8.90906 27.5268 9.05836 27.0917 9.31253 26.7352L7.68401 25.5742ZM6 23.4543C6 24.9524 6.78852 26.2657 7.96842 27.0028L9.02812 25.3066C8.40857 24.9196 8 24.2342 8 23.4543H6ZM8.89498 19.4745C7.21623 20.017 6 21.5923 6 23.4543H8C8 22.4851 8.63258 21.6611 9.50999 21.3776L8.89498 19.4745ZM7.81818 18.9089C7.81818 19.6291 8.00111 20.3097 8.32385 20.9035L10.0811 19.9485C9.91368 19.6404 9.81818 19.2873 9.81818 18.9089H7.81818ZM12 14.7271C9.69044 14.7271 7.81818 16.5993 7.81818 18.9089H9.81818C9.81818 17.7039 10.795 16.7271 12 16.7271V14.7271ZM12.632 14.7746C12.4253 14.7432 12.2142 14.7271 12 14.7271V16.7271C12.1133 16.7271 12.224 16.7356 12.3316 16.752L12.632 14.7746Z" fill="#333333"/>
<path d="M31.1174 17.3558C31.1174 17.3558 32.4726 10.4368 37.5 9.49983" stroke="#333333" stroke-width="2" stroke-linecap="round" stroke-linejoin="round"/>
<path d="M6 6.5C7.5 10.5 13 10.5 15 6.5C17.5 10.5 21.5 10.5 24 6.5C26 10.5 30.5 10.5 33 6.5C35.5 10.5 39.5 10.5 42 6.5" stroke="#333333" stroke-width="2" stroke-linecap="round" stroke-linejoin="round"/>
</svg>
