<svg width="48" height="48" viewBox="0 0 48 48" fill="none" xmlns="http://www.w3.org/2000/svg">
<path d="M28 35.1795H27V36.1795V41.5335C22.3112 39.679 17.0603 37.414 12.8467 34.2809C8.23977 30.8552 5 26.4905 5 20.5897C5 16.7288 6.57387 13.0206 9.38416 10.2824C12.1953 7.54327 16.0135 6 20 6H28C31.9865 6 35.8047 7.54327 38.6158 10.2824C41.4261 13.0206 43 16.7288 43 20.5897C43 24.4507 41.4261 28.1589 38.6158 30.8971C35.8047 33.6362 31.9865 35.1795 28 35.1795Z" stroke="#333333" stroke-width="2"/>
<path d="M24.072 24.4324C24.768 24.4324 25.272 23.8804 25.368 23.2564L25.44 22.8244C28.056 22.2964 30.168 21.0484 30.168 18.0004V17.9524C30.168 14.7604 27.816 12.9844 24.36 12.9844C22.248 12.9844 20.64 13.6564 19.368 14.7124C18.936 15.0724 18.744 15.5524 18.744 16.0084C18.744 16.9204 19.512 17.6884 20.424 17.6884C20.832 17.6884 21.216 17.5204 21.504 17.3044C22.368 16.6564 23.256 16.3444 24.288 16.3444C25.68 16.3444 26.496 16.9684 26.496 18.0484V18.0964C26.496 19.2724 25.536 19.9204 23.448 20.1844C22.68 20.2804 22.224 20.8324 22.344 21.6244L22.584 23.2564C22.68 23.9044 23.184 24.4324 23.88 24.4324H24.072ZM21.792 28.0564V28.1044C21.792 29.2564 22.68 30.1444 23.88 30.1444C25.08 30.1444 25.968 29.2564 25.968 28.1044V28.0564C25.968 26.9044 25.08 26.0164 23.88 26.0164C22.68 26.0164 21.792 26.9044 21.792 28.0564Z" fill="#333333"/>
</svg>
