<svg width="48" height="48" viewBox="0 0 48 48" fill="none" xmlns="http://www.w3.org/2000/svg">
<path d="M42.5722 21.4678L43.8279 23.3378C44.1418 23.8085 44.0137 24.4382 43.546 24.7562L41.8419 25.882C41.3678 26.1936 40.7336 26.0728 40.4196 25.6021C39.023 23.5222 38.8885 23.1788 37.8506 22.4028L40.4196 31.7014L37.8506 41H34.4936V29.9859H21.0698V41H15.2997V27.3513L11.8401 20.4819L9.39925 22.6827C9.01486 23.0643 8.49593 23.2805 7.95137 23.2805H5.96535C5.19016 23.2805 4.47904 22.8417 4.13309 22.1547L3.21695 20.3356C2.871 19.6487 2.94147 18.8218 3.40915 18.2049L8.18841 11.8889C8.29733 11.7426 8.45749 11.6536 8.59843 11.5454C8.34217 11.4055 8.08591 11.2783 7.87449 11.0684C6.82382 10.0253 6.69569 8.40973 7.4837 7.22668C7.66308 6.95954 8.04747 6.92137 8.27811 7.15035L11.0265 9.87264L13.7044 7.21396C13.9863 6.93409 14.4604 6.97862 14.6782 7.30936C15.6456 8.75955 15.4854 10.7313 14.1977 12.0098L19.3998 17.1745H34.4936C37.7481 17.1745 40.7656 18.7773 42.5722 21.4678Z" stroke="#333333" stroke-width="2" stroke-linecap="round" stroke-linejoin="round"/>
</svg>
