<svg width="48" height="48" viewBox="0 0 48 48" fill="none" xmlns="http://www.w3.org/2000/svg">
<path fill-rule="evenodd" clip-rule="evenodd" d="M18 7H14C11.7909 7 10 8.79086 10 11V39C10 41.2091 11.7909 43 14 43H34C36.2091 43 38 41.2091 38 39V11C38 8.79086 36.2091 7 34 7H30V9H34C35.1046 9 36 9.89543 36 11V39C36 40.1046 35.1046 41 34 41H14C12.8954 41 12 40.1046 12 39V11C12 9.89543 12.8954 9 14 9H18V7Z" fill="#333333"/>
<rect x="18" y="5" width="12" height="6" rx="2" stroke="#333333" stroke-width="2"/>
<line x1="16" y1="21" x2="23" y2="21" stroke="#333333" stroke-width="2" stroke-linecap="round"/>
<path d="M16 16H31.5" stroke="#333333" stroke-width="2" stroke-linecap="round"/>
<path d="M27.696 22C26.777 22 26.0251 22.7385 26.0251 23.641C26.0251 24.5436 26.777 25.2821 27.696 25.2821C28.6151 25.2821 29.367 24.5436 29.367 23.641C29.367 22.7385 28.6151 22 27.696 22Z" fill="#333333"/>
<path d="M25.5898 27.6567H20.8355C20.376 27.6567 20 27.2874 20 26.8361C20 26.3849 20.376 26.0156 20.8355 26.0156H34.1645C34.624 26.0156 35 26.3849 35 26.8361C35 27.2874 34.624 27.6567 34.1645 27.6567H29.4102L32.2948 37.5028C32.2948 37.9541 31.9189 38.3234 31.4593 38.3234C30.1654 38.3234 29.294 34.3506 28.8931 33.4003H26.1069C25.706 34.3506 24.8346 38.3234 23.5407 38.3234C23.0812 38.3234 22.7052 37.9541 22.7052 37.5028L25.5898 27.6567Z" fill="#333333"/>
<mask id="path-7-inside-1" fill="white">
<rect x="15" y="30" width="6" height="6" rx="1"/>
</mask>
<rect x="15" y="30" width="6" height="6" rx="1" stroke="#333333" stroke-width="4" mask="url(#path-7-inside-1)"/>
</svg>
