<svg width="48" height="48" viewBox="0 0 48 48" fill="none" xmlns="http://www.w3.org/2000/svg">
<path d="M17.6952 6.99048L15.2523 10.1571L14.4381 11.2429C12.1761 14.2286 12.1761 18.3905 14.4381 21.3762L19.5047 27.8L24.2095 33.7714L31.4476 43L37.419 38.4762L29.0047 27.7095L24.2095 21.6476L17.6952 13.2333C16.9714 12.3286 16.6095 11.1524 16.6095 10.0667C16.6095 8.98095 16.9714 7.89524 17.6952 6.99048ZM17.6952 6.99048C18.6 5.72381 20.1381 5 21.6761 5H26.9238C27.7381 5 28.4619 5.18095 29.0952 5.54286C29.7285 5.90476 30.3619 6.35714 30.8142 6.99048" stroke="#333333" stroke-width="2" stroke-miterlimit="10"/>
<path d="M19.4143 27.709L11 38.4757L16.9715 42.9995L24.2096 33.7709" stroke="#333333" stroke-width="2" stroke-miterlimit="10"/>
<path d="M29.0047 27.7089L33.9809 21.2851C36.2428 18.2994 36.2428 14.1375 33.9809 11.1518L33.1666 10.0661L30.7238 6.89941C32.1714 8.70894 32.1714 11.3327 30.7238 13.1423L24.2095 21.5566" stroke="#333333" stroke-width="2" stroke-miterlimit="10"/>
<path d="M18.1476 13.8669C19.0524 12.9621 20.3191 12.5098 21.5857 12.5098H26.8334C28.1 12.5098 29.3667 13.0526 30.2715 13.8669" stroke="#333333" stroke-width="2" stroke-miterlimit="10"/>
<path d="M41.6588 32.6989C41.6588 33.4177 41.0762 34.0004 40.3574 34.0004C39.6386 34.0004 39.0559 33.4177 39.0559 32.6989C39.0559 31.9802 39.6386 31.3975 40.3574 31.3975C41.0762 31.3975 41.6588 31.9802 41.6588 32.6989Z" fill="#333333"/>
<path d="M36.7197 23.6071C36.7563 23.1536 36.8193 22.9421 37.0085 22.5659C37.3277 21.9538 37.7304 21.6508 38.251 21.3844C38.6301 21.2046 38.8701 21.1532 39.2921 21.0704C39.892 21.0001 40.2418 20.9757 40.8478 21.0286C42.0334 21.1546 43.025 21.598 43.5972 22.5659C43.9998 23.2736 44.0425 24.0199 43.9795 24.6483C43.921 25.2315 43.7538 25.6793 43.4528 26.0657C43.2494 26.3504 42.9424 26.6656 42.4157 27.0011C42.0004 27.2656 41.6161 27.4622 41.303 27.757C41.187 27.8981 41.0833 28.0051 41.0833 28.2756C41.0833 28.8328 41.0813 29.3104 41.0813 29.8475C41.0813 30.2156 40.7225 30.36 40.3574 30.36C40.0253 30.36 39.6009 30.2847 39.5907 29.8292C39.5805 29.3737 39.5968 28.8261 39.5968 28.2797V27.753C39.6395 27.393 39.8349 27.0647 40.1286 26.7306C40.5545 26.2694 40.978 26.0819 41.3745 25.8094C42.2659 25.2678 42.4646 24.8929 42.4421 24.1216C42.4157 23.2157 41.9173 22.9137 41.3745 22.7184C41.1151 22.5996 39.9973 22.4673 39.2921 22.6615C38.7863 22.8008 38.3974 23.0552 38.2896 23.599C38.2556 23.7703 38.2998 23.8816 38.2672 24.0972C38.1915 24.3681 38.0643 24.5635 37.7609 24.6727C37.5492 24.7489 37.3775 24.732 37.2098 24.6605C36.7665 24.4713 36.6817 24.0772 36.7197 23.6071Z" fill="#333333"/>
</svg>
