<svg width="48" height="48" viewBox="0 0 48 48" fill="none" xmlns="http://www.w3.org/2000/svg">
<path d="M17.6953 6.99048L15.2524 10.1571L14.4381 11.2429C12.1762 14.2286 12.1762 18.3905 14.4381 21.3762L19.5048 27.8L24.2095 33.7714L31.4476 43L37.4191 38.4762L29.0048 27.7095L24.2095 21.6476L17.6953 13.2333C16.9714 12.3286 16.6095 11.1524 16.6095 10.0667C16.6095 8.98095 16.9714 7.89524 17.6953 6.99048ZM17.6953 6.99048C18.6 5.72381 20.1381 5 21.6762 5H26.9238C27.7381 5 28.4619 5.18095 29.0953 5.54286C29.7286 5.90476 30.3619 6.35714 30.8143 6.99048" stroke="#333333" stroke-width="2" stroke-miterlimit="10"/>
<path d="M19.4143 27.709L11 38.4757L16.9714 42.9995L24.2095 33.7709" stroke="#333333" stroke-width="2" stroke-miterlimit="10"/>
<path d="M29.0048 27.7089L33.981 21.2851C36.2429 18.2994 36.2429 14.1375 33.981 11.1518L33.1667 10.0661L30.7239 6.89941C32.1715 8.70894 32.1715 11.3327 30.7239 13.1423L24.2096 21.5566" stroke="#333333" stroke-width="2" stroke-miterlimit="10"/>
<path d="M18.1476 13.8669C19.0523 12.9621 20.319 12.5098 21.5857 12.5098H26.8333C28.1 12.5098 29.3666 13.0526 30.2714 13.8669" stroke="#333333" stroke-width="2" stroke-miterlimit="10"/>
<path d="M44 26H36C35.4477 26 35 26.4477 35 27C35 27.5523 35.4477 28 36 28H44C44.5523 28 45 27.5523 45 27C45 26.4477 44.5523 26 44 26Z" fill="#333333"/>
</svg>
