<svg width="48" height="48" viewBox="0 0 48 48" fill="none" xmlns="http://www.w3.org/2000/svg">
<rect x="12" y="4" width="2" height="8" rx="1" fill="#333333"/>
<rect x="28" y="4" width="2" height="8" rx="1" fill="#333333"/>
<rect x="11" y="22" width="4" height="4" rx="1" stroke="#333333" stroke-width="2"/>
<rect x="19" y="22" width="4" height="4" rx="1" stroke="#333333" stroke-width="2"/>
<rect x="27" y="22" width="4" height="4" rx="1" stroke="#333333" stroke-width="2"/>
<rect x="11" y="30" width="4" height="4" rx="1" stroke="#333333" stroke-width="2"/>
<rect x="19" y="30" width="4" height="4" rx="1" stroke="#333333" stroke-width="2"/>
<path fill-rule="evenodd" clip-rule="evenodd" d="M9 10H33C34.1046 10 35 10.8954 35 12V28C35.6906 28 36.3608 28.0875 37 28.252V12C37 9.79086 35.2091 8 33 8H9C6.79086 8 5 9.79086 5 12V36C5 38.2091 6.79086 40 9 40H28.0703C27.7122 39.381 27.4347 38.7095 27.252 38H9C7.89543 38 7 37.1046 7 36V12C7 10.8954 7.89543 10 9 10Z" fill="#333333"/>
<rect x="14" y="4" width="2" height="8" rx="1" fill="#82FF9D"/>
<rect x="30" y="4" width="2" height="8" rx="1" fill="#82FF9D"/>
<line x1="6" y1="18" x2="36" y2="18" stroke="#333333" stroke-width="2"/>
<circle cx="35" cy="36" r="7" stroke="#333333" stroke-width="2"/>
<path d="M35 32.1787V37L37.8812 39" stroke="#333333" stroke-width="2" stroke-linecap="round"/>
</svg>
