<svg width="48" height="48" viewBox="0 0 48 48" fill="none" xmlns="http://www.w3.org/2000/svg">
<circle cx="24" cy="24" r="19" stroke="#333333" stroke-width="2"/>
<path d="M26.5 35.5C26.5 36.8807 25.3807 38 24 38C22.6193 38 21.5 36.8807 21.5 35.5C21.5 34.1193 22.6193 33 24 33C25.3807 33 26.5 34.1193 26.5 35.5Z" fill="#333333"/>
<path d="M17.0124 18.0363C17.0827 17.1652 17.2038 16.7589 17.5671 16.0363C18.1804 14.8605 18.9538 14.2784 19.9538 13.7667C20.6821 13.4213 21.1432 13.3226 21.9538 13.1635C23.1062 13.0284 23.778 12.9816 24.9421 13.0832C27.2194 13.3253 29.1242 14.177 30.2234 16.0363C30.9968 17.3956 31.0788 18.8292 30.9577 20.0363C30.8453 21.1565 30.5241 22.0167 29.946 22.7589C29.5554 23.3058 28.9655 23.9113 27.9538 24.5558C27.1561 25.064 26.418 25.4415 25.8164 26.0079C25.5937 26.2789 25.3945 26.4844 25.3945 27.004C25.3945 28.0743 25.3906 28.9918 25.3906 30.0235C25.3906 30.7305 24.7014 31.0079 24 31.0079C23.3621 31.0079 22.5469 30.8633 22.5273 29.9883C22.5078 29.1133 22.5391 28.0615 22.5391 27.0118V26.0001C22.6211 25.3087 22.9964 24.678 23.5606 24.0363C24.3787 23.1503 25.1921 22.7902 25.9538 22.2667C27.6661 21.2264 28.0478 20.5062 28.0046 19.0245C27.9538 17.2845 26.9964 16.7043 25.9538 16.3292C25.4556 16.1011 23.3083 15.8468 21.9538 16.2198C20.9821 16.4875 20.2352 16.9762 20.028 18.0206C19.9628 18.3498 20.0476 18.5636 19.9851 18.9777C19.8397 19.498 19.5952 19.8734 19.0124 20.0831C18.6057 20.2295 18.2761 20.1972 17.9538 20.0597C17.1023 19.6964 16.9395 18.9393 17.0124 18.0363Z" fill="#333333"/>
</svg>
