<svg width="48" height="48" viewBox="0 0 48 48" fill="none" xmlns="http://www.w3.org/2000/svg">
<path d="M20.6906 8.90252C22.165 6.36583 25.8569 6.36583 27.3313 8.90252L42.5017 35.0025C43.9731 37.5341 41.9863 41 39.0355 41H8.83339C5.93492 41 4.02218 37.5799 5.52025 35.0025L20.6906 8.90252Z" stroke="#333333" stroke-width="2"/>
<path d="M25.802 35.2171C25.802 36.2123 24.9952 37.0191 24 37.0191C23.0048 37.0191 22.198 36.2123 22.198 35.2171C22.198 34.2218 23.0048 33.415 24 33.415C24.9952 33.415 25.802 34.2218 25.802 35.2171Z" fill="#333333"/>
<path d="M18.9632 22.6293C19.0139 22.0014 19.1012 21.7086 19.3631 21.1877C19.8051 20.3402 20.3626 19.9206 21.0835 19.5518C21.6084 19.3028 21.9408 19.2316 22.5251 19.117C23.3557 19.0196 23.84 18.9858 24.6791 19.0591C26.3206 19.2336 27.6936 19.8476 28.4859 21.1877C29.0434 22.1676 29.1025 23.2009 29.0152 24.071C28.9342 24.8785 28.7027 25.4985 28.286 26.0335C28.0044 26.4277 27.5792 26.8641 26.85 27.3287C26.275 27.695 25.7429 27.9671 25.3093 28.3754C25.1487 28.5707 25.0052 28.7189 25.0052 29.0934C25.0052 29.8649 25.0024 30.5262 25.0024 31.2699C25.0024 31.7795 24.5056 31.9795 24 31.9795C23.5402 31.9795 22.9526 31.8753 22.9385 31.2446C22.9244 30.6139 22.9469 29.8557 22.9469 29.099V28.3698C23.0061 27.8714 23.2766 27.4168 23.6833 26.9542C24.273 26.3156 24.8593 26.056 25.4083 25.6787C26.6426 24.9288 26.9177 24.4097 26.8866 23.3417C26.85 22.0874 26.1599 21.6692 25.4083 21.3989C25.0492 21.2344 23.5014 21.0511 22.5251 21.32C21.8246 21.5129 21.2863 21.8652 21.137 22.6181C21.0899 22.8553 21.151 23.0094 21.106 23.3079C21.0012 23.683 20.825 23.9536 20.4049 24.1047C20.1117 24.2102 19.8741 24.1869 19.6418 24.0878C19.028 23.826 18.9107 23.2803 18.9632 22.6293Z" fill="#333333"/>
</svg>
