<svg width="48" height="48" viewBox="0 0 48 48" fill="none" xmlns="http://www.w3.org/2000/svg">
<path d="M29 26.8182C29 29.7084 26.7335 32 24 32C21.2665 32 19 29.7084 19 26.8182C19 24.4255 20.3529 21.6822 21.8352 19.4306C22.5613 18.3278 23.289 17.3862 23.8355 16.7204C23.8924 16.651 23.9473 16.5847 24 16.5216C24.0527 16.5847 24.1076 16.651 24.1645 16.7204C24.711 17.3862 25.4387 18.3278 26.1648 19.4306C27.6471 21.6822 29 24.4255 29 26.8182Z" stroke="#333333" stroke-width="2"/>
<path fill-rule="evenodd" clip-rule="evenodd" d="M33.8994 14.1005C28.4321 8.63317 19.5678 8.63317 14.1005 14.1005L12.6862 12.6863C18.9346 6.4379 29.0653 6.4379 35.3137 12.6863C38.4248 15.7974 39.9871 19.8731 39.9999 23.9494L39.9999 23.9526L39.9999 27.5855L43.2928 24.2926L44.7071 25.7068L39.7071 30.7068L39 31.4139L38.2928 30.7068L33.2928 25.7068L34.7071 24.2926L37.9999 27.5854L37.9999 23.9557L37.9999 23.9541C37.9883 20.385 36.6217 16.8227 33.8994 14.1005ZM14.1005 33.8995C19.5678 39.3668 28.4321 39.3668 33.8994 33.8995L35.3137 35.3137C29.0653 41.5621 18.9346 41.5621 12.6862 35.3137C9.56307 32.1905 8.00078 28.0954 7.99996 24.0032L7.99995 24.003V20.4139L4.70706 23.7068L3.29285 22.2926L8.29285 17.2926L8.99995 16.5855L9.70706 17.2926L14.7071 22.2926L13.2928 23.7068L9.99996 20.4139L9.99995 24.0028L9.99996 24.003C10.0007 27.5865 11.3674 31.1664 14.1005 33.8995Z" fill="#333333"/>
</svg>
