<svg width="48" height="48" viewBox="0 0 48 48" fill="none" xmlns="http://www.w3.org/2000/svg">
<path d="M12.3933 20.0503L18.0502 14.3934L30.8996 27.2428C32.3946 28.7378 32.3946 31.1617 30.8996 32.6568L30.6567 32.8997C29.1616 34.3947 26.7377 34.3947 25.2427 32.8997L12.3933 20.0503Z" stroke="#333333" stroke-width="2"/>
<rect x="16.908" y="25.272" width="9" height="1" transform="rotate(-45 16.908 25.272)" fill="#333333" stroke="#333333"/>
<rect x="8.85782" y="13.686" width="4" height="7" transform="rotate(-45 8.85782 13.686)" stroke="#333333" stroke-width="2"/>
<rect x="6.73653" y="15.1006" width="9" height="1" rx="0.5" transform="rotate(-45 6.73653 15.1006)" fill="#333333" stroke="#333333"/>
<rect x="32.1923" y="34.8994" width="1" height="5" rx="0.5" transform="rotate(-45 32.1923 34.8994)" fill="#333333" stroke="#333333"/>
<path d="M30.0711 33.4854L31.4853 32.0711L32.8995 33.4854C33.29 33.8759 33.29 34.509 32.8995 34.8996C32.509 35.2901 31.8758 35.2901 31.4853 34.8996L30.0711 33.4854Z" fill="#82FF9D" stroke="#333333" stroke-width="2"/>
<rect x="20.4436" y="28.8076" width="4" height="1" rx="0.5" transform="rotate(-45 20.4436 28.8076)" fill="#333333" stroke="#333333"/>
<rect x="23.272" y="31.6357" width="4" height="1" rx="0.5" transform="rotate(-45 23.272 31.6357)" fill="#333333" stroke="#333333"/>
<rect x="9.56489" y="22.1714" width="15" height="1" rx="0.5" transform="rotate(-45 9.56489 22.1714)" fill="#333333" stroke="#333333"/>
</svg>
