<svg width="48" height="48" viewBox="0 0 48 48" fill="none" xmlns="http://www.w3.org/2000/svg">
<path d="M4.74524 20.6768H8.34524C12.2112 20.6768 15.3452 23.8108 15.3452 27.6768V29.4768H4.74524V20.6768Z" stroke="#333333" stroke-width="2"/>
<circle cx="23.9952" cy="23.7266" r="5.75" stroke="#333333" stroke-width="2"/>
<path d="M35.2452 33.1768H5.54524C4.55113 33.1768 3.74524 33.9826 3.74524 34.9768V34.9768C3.74524 35.9709 4.55113 36.7768 5.54524 36.7768H30.7662" stroke="#333333" stroke-width="2"/>
<path d="M11.1493 36.7836V35.7836H8.76859L10.4352 37.4836L11.1493 36.7836ZM17.0271 36.7836L17.5123 35.9092L17.2859 35.7836H17.0271V36.7836ZM14.4789 13.3836V14.3836H14.8571L15.1406 14.1333L14.4789 13.3836ZM9.60254 13.3836L8.80297 12.783L7.60073 14.3836H9.60254V13.3836ZM24.0039 43.1836C34.4973 43.1836 43.0039 34.677 43.0039 24.1836H41.0039C41.0039 33.5724 33.3927 41.1836 24.0039 41.1836V43.1836ZM10.4352 37.4836C13.8824 41 18.689 43.1836 24.0039 43.1836V41.1836C19.2481 41.1836 14.9499 39.2321 11.8634 36.0835L10.4352 37.4836ZM17.0271 35.7836H11.1493V37.7836H17.0271V35.7836ZM16.5419 37.658C18.7534 38.8852 21.2986 39.5836 24.0039 39.5836V37.5836C21.6467 37.5836 19.4345 36.9758 17.5123 35.9092L16.5419 37.658ZM24.0039 39.5836C32.5091 39.5836 39.4039 32.6888 39.4039 24.1836H37.4039C37.4039 31.5842 31.4045 37.5836 24.0039 37.5836V39.5836ZM39.4039 24.1836C39.4039 15.6784 32.5091 8.78359 24.0039 8.78359V10.7836C31.4045 10.7836 37.4039 16.783 37.4039 24.1836H39.4039ZM24.0039 8.78359C20.0989 8.78359 16.5313 10.2383 13.8172 12.6339L15.1406 14.1333C17.5034 12.0479 20.6048 10.7836 24.0039 10.7836V8.78359ZM9.60254 14.3836H14.4789V12.3836H9.60254V14.3836ZM24.0039 5.18359C17.7871 5.18359 12.2677 8.17037 8.80297 12.783L10.4021 13.9842C13.5053 9.8528 18.4427 7.18359 24.0039 7.18359V5.18359ZM43.0039 24.1836C43.0039 13.6902 34.4973 5.18359 24.0039 5.18359V7.18359C33.3927 7.18359 41.0039 14.7948 41.0039 24.1836H43.0039Z" fill="#333333"/>
</svg>
