<svg width="48" height="48" viewBox="0 0 48 48" fill="none" xmlns="http://www.w3.org/2000/svg">
<circle cx="24" cy="24" r="17" stroke="#333333" stroke-width="2"/>
<path d="M29.4278 32.977C28.3486 31.796 26.3162 31.0001 23.9868 31.0001C21.5527 31.0001 19.4429 31.8691 18.4061 33.1386C17.9589 33.6862 17.5317 35.3447 19.1623 34.9359C23.9085 33.6758 24.3699 33.7222 29.0241 34.9359C30.3013 35.3011 30.0868 33.8629 29.7077 33.2985C29.6284 33.1804 29.5237 33.082 29.4278 32.977Z" fill="#333333" stroke="#333333" stroke-width="2"/>
<path fill-rule="evenodd" clip-rule="evenodd" d="M17.5 28C18.8807 28 20 26.2091 20 24C20 21.7909 18.8807 20 17.5 20C16.1193 20 15 21.7909 15 24C15 26.2091 16.1193 28 17.5 28ZM30.5 28C31.8807 28 33 26.2091 33 24C33 21.7909 31.8807 20 30.5 20C29.1193 20 28 21.7909 28 24C28 26.2091 29.1193 28 30.5 28Z" fill="#333333"/>
<path d="M12.2505 18.3218C14.4628 18.647 19.0436 19.7723 21.2495 21.6786" stroke="#333333" stroke-width="2"/>
<path d="M35.2495 18.3218C33.0372 18.647 28.4564 19.7723 26.2505 21.6786" stroke="#333333" stroke-width="2"/>
</svg>
