<svg width="48" height="48" viewBox="0 0 48 48" fill="none" xmlns="http://www.w3.org/2000/svg">
<g clip-path="url(#clip0)">
<circle cx="24" cy="24" r="17" stroke="#333333" stroke-width="2"/>
<path d="M14.2363 24.4298C16.2601 25.1812 18.4843 24.6906 20.3967 22.8753C20.7294 23.8644 19.8455 25.9462 17.6639 26.2683C15.4823 26.5904 14.0891 25.3415 14.2363 24.4298Z" fill="#333333"/>
<path fill-rule="evenodd" clip-rule="evenodd" d="M14.8071 26.2328C14.1241 25.7953 13.6236 25.0878 13.7427 24.3501C13.7665 24.2024 13.8553 24.0731 13.9845 23.9978C14.1138 23.9225 14.27 23.909 14.4103 23.9611C16.2286 24.6362 18.2566 24.2174 20.0524 22.5126C20.1763 22.3951 20.3515 22.3488 20.5172 22.39C20.6829 22.4312 20.8161 22.554 20.8706 22.7158C21.1023 23.4046 20.8947 24.3341 20.3903 25.0976C19.8683 25.8878 18.9828 26.579 17.7369 26.763C16.5385 26.9399 15.5209 26.6899 14.8071 26.2328ZM15.3464 25.3907C15.8379 25.7054 16.6077 25.9188 17.5908 25.7737C18.5265 25.6355 19.1738 25.1249 19.556 24.5464C19.6811 24.3569 19.7738 24.1673 19.8389 23.9871C18.3331 25.0699 16.6735 25.4691 15.0662 25.1754C15.1433 25.2474 15.2359 25.3199 15.3464 25.3907Z" fill="#333333"/>
<path d="M33.3249 24.4298C31.3011 25.1812 29.0769 24.6906 27.1645 22.8753C26.8317 23.8644 27.7157 25.9462 29.8973 26.2683C32.0789 26.5904 33.4721 25.3415 33.3249 24.4298Z" fill="#333333"/>
<path fill-rule="evenodd" clip-rule="evenodd" d="M32.7541 26.2328C33.4371 25.7953 33.9376 25.0878 33.8185 24.3501C33.7947 24.2024 33.7059 24.0731 33.5766 23.9978C33.4474 23.9225 33.2911 23.909 33.1509 23.9611C31.3326 24.6362 29.3046 24.2174 27.5087 22.5126C27.3849 22.3951 27.2097 22.3488 27.044 22.39C26.8783 22.4312 26.745 22.554 26.6906 22.7158C26.4589 23.4046 26.6665 24.3341 27.1708 25.0976C27.6929 25.8878 28.5784 26.579 29.8243 26.763C31.0227 26.9399 32.0403 26.6899 32.7541 26.2328ZM32.2147 25.3907C31.7233 25.7054 30.9535 25.9188 29.9703 25.7737C29.0347 25.6355 28.3874 25.1249 28.0052 24.5464C27.88 24.3569 27.7874 24.1673 27.7223 23.9871C29.2281 25.0699 30.8877 25.4691 32.495 25.1754C32.4179 25.2474 32.3253 25.3199 32.2147 25.3907Z" fill="#333333"/>
<mask id="path-3-inside-1" fill="white">
<path d="M18.4325 32.8615C19.4999 33.9999 21.5263 35 24.0132 35C26.5 35 28.5 33.9999 29.5938 32.8615C30.6877 31.723 30.4683 30.6554 28.8377 31.0642C24.0915 32.3243 23.6301 32.2778 18.9759 31.0642C17.5466 30.6555 17.3651 31.723 18.4325 32.8615Z"/>
<path fill-rule="evenodd" clip-rule="evenodd" d="M28.9686 32.064C26.6926 32.6669 25.2873 32.9982 23.8678 32.9918C22.5124 32.9857 21.1855 32.6711 19.1238 32.136C19.1362 32.1497 19.1489 32.1635 19.162 32.1775C20.0233 33.0961 21.7768 34 24.0132 34C26.2427 34 27.9775 33.1004 28.8727 32.1686C28.9073 32.1326 28.9392 32.0977 28.9686 32.064ZM31.0869 32.4337C30.9197 32.8276 30.6485 33.2071 30.3149 33.5543C29.0224 34.8995 26.7572 36 24.0132 36C21.2759 36 18.9764 34.9037 17.703 33.5454C17.3774 33.1982 17.1161 32.8245 16.9496 32.4429C16.7899 32.077 16.6786 31.6112 16.7985 31.1374C16.9353 30.5965 17.3335 30.2098 17.8505 30.0547C18.3043 29.9186 18.7916 29.9729 19.2387 30.0993C21.5916 30.7128 22.7389 30.9867 23.8768 30.9918C25.0121 30.997 26.1852 30.7337 28.5811 30.0977L28.5945 30.0941C29.0876 29.9705 29.5915 29.9259 30.0487 30.0445C30.5448 30.1732 30.9954 30.5062 31.1841 31.0603C31.3536 31.5581 31.2482 32.054 31.0869 32.4337Z"/>
</mask>
<path d="M29.5938 32.8615L31.036 34.2472L29.5938 32.8615ZM18.9759 31.0642L18.426 32.9871L18.4486 32.9936L18.4712 32.9995L18.9759 31.0642ZM28.8377 31.0642L28.3513 29.1242L28.3379 29.1276L28.3245 29.1312L28.8377 31.0642ZM23.8678 32.9918L23.8588 34.9918H23.8588L23.8678 32.9918ZM28.9686 32.064L30.476 33.3785L34.7653 28.4596L28.4565 30.1307L28.9686 32.064ZM19.1238 32.136L19.6262 30.2001L13.1569 28.521L17.6406 33.4777L19.1238 32.136ZM19.162 32.1775L20.621 30.8096L20.621 30.8096L19.162 32.1775ZM28.8727 32.1686L27.4306 30.7829L27.4306 30.7829L28.8727 32.1686ZM30.3149 33.5543L31.7571 34.94L30.3149 33.5543ZM31.0869 32.4337L32.9278 33.2155V33.2155L31.0869 32.4337ZM17.703 33.5454L19.162 32.1775L19.162 32.1775L17.703 33.5454ZM16.9496 32.4429L15.1165 33.2428L15.1165 33.2428L16.9496 32.4429ZM16.7985 31.1374L14.8596 30.6468L14.8596 30.6468L16.7985 31.1374ZM17.8505 30.0547L18.4252 31.9703L18.4252 31.9703L17.8505 30.0547ZM19.2387 30.0993L18.6948 32.0239L18.7144 32.0294L18.7341 32.0346L19.2387 30.0993ZM23.8768 30.9918L23.8858 28.9919L23.8768 30.9918ZM28.5811 30.0977L29.0943 32.0307L29.0943 32.0307L28.5811 30.0977ZM28.5945 30.0941L28.1081 28.1542L28.0947 28.1575L28.0813 28.1611L28.5945 30.0941ZM30.0487 30.0445L29.5465 31.9804L29.5465 31.9804L30.0487 30.0445ZM31.1841 31.0603L33.0773 30.4156L33.0773 30.4156L31.1841 31.0603ZM24.0132 33C22.0273 33 20.5467 32.1924 19.8915 31.4935L16.9735 34.2294C18.453 35.8075 21.0254 37 24.0132 37V33ZM28.1517 31.4758C27.455 32.2008 25.9854 33 24.0132 33V37C27.0145 37 29.5449 35.799 31.036 34.2472L28.1517 31.4758ZM19.8915 31.4935C19.7421 31.3341 19.6984 31.2411 19.6992 31.2429C19.7006 31.2463 19.723 31.2974 19.7371 31.393C19.7511 31.4877 19.7613 31.6582 19.7068 31.8733C19.6496 32.0995 19.5271 32.3456 19.3193 32.5565C19.1143 32.7647 18.8889 32.8753 18.7126 32.9282C18.401 33.0216 18.255 32.9382 18.426 32.9871L19.5257 29.1412C18.9821 28.9858 18.2774 28.8826 17.5632 29.0969C16.7304 29.3467 16.0574 29.9895 15.829 30.8921C15.6345 31.6608 15.8245 32.3649 16.033 32.8428C16.2553 33.3522 16.5892 33.8196 16.9735 34.2294L19.8915 31.4935ZM29.3241 33.0041C29.5608 32.9448 29.5114 33.0044 29.2953 32.9484C29.1715 32.9162 28.9786 32.841 28.7824 32.6733C28.5785 32.499 28.4276 32.2722 28.3442 32.0273C28.2646 31.7934 28.2634 31.5953 28.2766 31.4716C28.2897 31.3497 28.3186 31.2776 28.3256 31.2611C28.3367 31.2349 28.3048 31.3164 28.1517 31.4758L31.036 34.2472C31.4298 33.8373 31.7806 33.3585 32.0073 32.8246C32.2221 32.3189 32.4088 31.5546 32.1307 30.7379C31.8143 29.8089 31.0593 29.2736 30.2998 29.0765C29.6182 28.8997 28.9299 28.9792 28.3513 29.1242L29.3241 33.0041ZM28.3245 29.1312C25.9059 29.7733 24.8615 29.9963 23.8813 29.9919C22.8924 29.9874 21.8734 29.7529 19.4805 29.1289L18.4712 32.9995C20.7326 33.5892 22.2714 33.9847 23.8633 33.9918C25.4639 33.999 27.0233 33.6152 29.3509 32.9972L28.3245 29.1312ZM23.8588 34.9918C25.5846 34.9996 27.2409 34.5906 29.4807 33.9974L28.4565 30.1307C26.1442 30.7432 24.9901 30.9969 23.8768 30.9918L23.8588 34.9918ZM18.6213 34.0718C20.6462 34.5974 22.2126 34.9844 23.8588 34.9918L23.8768 30.9918C22.8122 30.9871 21.7249 30.7448 19.6262 30.2001L18.6213 34.0718ZM20.621 30.8096C20.616 30.8042 20.6113 30.7991 20.607 30.7943L17.6406 33.4777C17.661 33.5003 17.6818 33.5228 17.703 33.5454L20.621 30.8096ZM24.0132 32C22.2783 32 21.0705 31.289 20.621 30.8096L17.703 33.5454C18.9761 34.9033 21.2753 36 24.0132 36V32ZM27.4306 30.7829C26.9324 31.3014 25.7279 32 24.0132 32V36C26.7575 36 29.0226 34.8993 30.3149 33.5543L27.4306 30.7829ZM27.4612 30.7496C27.4535 30.7585 27.4434 30.7696 27.4306 30.7829L30.3149 33.5543C30.3713 33.4957 30.4249 33.437 30.476 33.3785L27.4612 30.7496ZM31.7571 34.94C32.211 34.4676 32.6416 33.8894 32.9278 33.2155L29.246 31.652C29.1977 31.7657 29.0861 31.9466 28.8727 32.1686L31.7571 34.94ZM24.0132 38C27.2716 38 30.0672 36.6987 31.7571 34.94L28.8727 32.1686C27.9777 33.1002 26.2429 34 24.0132 34V38ZM16.244 34.9134C17.9298 36.7115 20.7753 38 24.0132 38V34C21.7764 34 20.023 33.0959 19.162 32.1775L16.244 34.9134ZM15.1165 33.2428C15.3946 33.8801 15.801 34.441 16.244 34.9134L19.162 32.1775C18.9538 31.9555 18.8376 31.7689 18.7826 31.6429L15.1165 33.2428ZM14.8596 30.6468C14.5901 31.7118 14.86 32.6549 15.1165 33.2428L18.7826 31.6429C18.7706 31.6154 18.7619 31.5915 18.7561 31.572C18.7502 31.5525 18.7481 31.5411 18.7476 31.5375C18.7471 31.5342 18.7485 31.5413 18.7479 31.5575C18.7473 31.5743 18.7448 31.5987 18.7374 31.628L14.8596 30.6468ZM17.2759 28.139C16.1305 28.4826 15.1803 29.3794 14.8596 30.6468L18.7374 31.628C18.7186 31.7023 18.6746 31.7861 18.6054 31.8563C18.5388 31.9238 18.4708 31.9567 18.4252 31.9703L17.2759 28.139ZM19.7826 28.1747C19.1485 27.9955 18.2386 27.8502 17.2759 28.139L18.4252 31.9703C18.392 31.9803 18.3914 31.9731 18.4417 31.9758C18.4941 31.9785 18.5777 31.9908 18.6948 32.0239L19.7826 28.1747ZM23.8858 28.9919C23.0499 28.9881 22.1636 28.795 19.7433 28.164L18.7341 32.0346C21.0196 32.6305 22.4279 32.9854 23.8678 32.9918L23.8858 28.9919ZM28.0679 28.1646C25.6247 28.8133 24.7103 28.9956 23.8858 28.9919L23.8678 32.9918C25.3139 32.9983 26.7458 32.6542 29.0943 32.0307L28.0679 28.1646ZM28.0813 28.1611L28.0679 28.1646L29.0943 32.0307L29.1077 32.0271L28.0813 28.1611ZM30.5509 28.1086C29.645 27.8735 28.7725 27.9876 28.1081 28.1542L29.0809 32.0341C29.2302 31.9966 29.3462 31.9802 29.4312 31.9761C29.5154 31.9721 29.5491 31.9811 29.5465 31.9804L30.5509 28.1086ZM33.0773 30.4156C32.631 29.105 31.5659 28.3719 30.5509 28.1086L29.5465 31.9804C29.5355 31.9776 29.4925 31.9644 29.436 31.9164C29.3719 31.8619 29.3179 31.7846 29.2908 31.7049L33.0773 30.4156ZM32.9278 33.2155C33.1945 32.5874 33.4648 31.5536 33.0773 30.4156L29.2908 31.7049C29.2797 31.6724 29.274 31.6421 29.2717 31.6175C29.2695 31.5938 29.2708 31.5792 29.2712 31.5758C29.2715 31.5728 29.2711 31.5787 29.2669 31.5936C29.2628 31.6085 29.2561 31.6283 29.246 31.652L32.9278 33.2155Z" fill="#333333" mask="url(#path-3-inside-1)"/>
</g>
<defs>
<clipPath id="clip0">
<rect width="48" height="48" fill="white"/>
</clipPath>
</defs>
</svg>
