<svg width="48" height="48" viewBox="0 0 48 48" fill="none" xmlns="http://www.w3.org/2000/svg">
<circle cx="24" cy="24" r="17" stroke="#333333" stroke-width="2"/>
<path fill-rule="evenodd" clip-rule="evenodd" d="M17.5 26C18.8807 26 20 24.2091 20 22C20 19.7909 18.8807 18 17.5 18C16.1193 18 15 19.7909 15 22C15 24.2091 16.1193 26 17.5 26ZM30.5 26C31.8807 26 33 24.2091 33 22C33 19.7909 31.8807 18 30.5 18C29.1193 18 28 19.7909 28 22C28 24.2091 29.1193 26 30.5 26Z" fill="#333333"/>
<path d="M20.6462 33.7723C23.1343 31.7576 25.0272 30.1245 32.3538 31.7277" stroke="#333333" stroke-width="2" stroke-linecap="round"/>
</svg>
