<svg width="48" height="48" viewBox="0 0 48 48" fill="none" xmlns="http://www.w3.org/2000/svg">
<path fill-rule="evenodd" clip-rule="evenodd" d="M24 40C24.4277 40 24.8515 39.9832 25.2708 39.9503C25.4361 40.6046 25.6961 41.2702 26.0995 41.8789C25.4108 41.9589 24.7102 42 24 42C14.0589 42 6 33.9411 6 24C6 14.0589 14.0589 6 24 6C33.9411 6 42 14.0589 42 24C42 24.586 41.972 25.1655 41.9173 25.7371C41.334 25.3681 40.6666 25.1263 39.9669 25.038C39.9888 24.6948 40 24.3487 40 24C40 15.1634 32.8366 8 24 8C15.1634 8 8 15.1634 8 24C8 32.8366 15.1634 40 24 40Z" fill="#333333"/>
<circle cx="25" cy="30" r="4" fill="#333333" stroke="#333333" stroke-width="2"/>
<path d="M39.203 28.0085C40.162 27.916 40.9156 28.5721 40.993 29.3447C41.0701 30.1137 40.4659 30.897 39.5091 30.9893C38.6793 31.0693 37.6945 30.693 36.8164 30.1827C36.5949 30.054 36.3909 29.923 36.2106 29.8C36.3621 29.6459 36.535 29.4798 36.7252 29.3124C37.4843 28.6449 38.3741 28.0885 39.203 28.0085ZM35.4125 29.1942C35.4123 29.1941 35.4124 29.1941 35.4126 29.1943L35.4125 29.1942Z" fill="#333333" stroke="#333333" stroke-width="2"/>
<path d="M28.0407 37.6845C28.2605 37.7398 28.5042 37.8088 28.7585 37.8939C29.728 38.2185 30.6633 38.7156 31.1474 39.4052C31.7075 40.203 31.5148 41.2342 30.8427 41.7226C30.1824 42.2022 29.1881 42.0604 28.6341 41.2713C28.1477 40.5784 27.9878 39.5095 28.0007 38.4656C28.0042 38.1845 28.0199 37.9197 28.0407 37.6845ZM27.0756 37.4927L27.0765 37.4928L27.0761 37.4927L27.0756 37.4927ZM28.1748 36.7065L28.1748 36.7065L28.1748 36.7065Z" fill="#333333" stroke="#333333" stroke-width="2"/>
<path d="M39.662 35.2767C40.9679 36.035 41.3826 37.6274 40.6986 38.8053C40.0146 39.9831 38.426 40.4121 37.1201 39.6538C36.0172 39.0133 35.18 37.6929 34.6042 36.3751C34.3756 35.8519 34.2008 35.3583 34.0742 34.9583C34.4844 34.87 34.9997 34.7772 35.5674 34.7165C36.9973 34.5634 38.5591 34.6362 39.662 35.2767Z" fill="#333333" stroke="#333333" stroke-width="2"/>
<path d="M21 21L18 19C19.4648 20.6025 19.4997 21.4793 18 23L21 21Z" stroke="#333333" stroke-width="2" stroke-linecap="round" stroke-linejoin="round"/>
<path d="M31 21L34 19C32.5352 20.6025 32.5003 21.4793 34 23L31 21Z" stroke="#333333" stroke-width="2" stroke-linecap="round" stroke-linejoin="round"/>
</svg>
