<svg width="48" height="48" viewBox="0 0 48 48" fill="none" xmlns="http://www.w3.org/2000/svg">
<path fill-rule="evenodd" clip-rule="evenodd" d="M32.3262 8.03733C29.8363 6.73592 27.0041 6 24 6C14.0589 6 6 14.0589 6 24C6 33.9411 14.0589 42 24 42C33.9411 42 42 33.9411 42 24C42 21.7396 41.5833 19.5764 40.8226 17.5832C40.3054 18.0242 39.7151 18.3775 39.0733 18.621C39.6733 20.302 40 22.1129 40 24C40 32.8366 32.8366 40 24 40C15.1634 40 8 32.8366 8 24C8 15.1634 15.1634 8 24 8C26.7224 8 29.2859 8.6799 31.5301 9.87917C31.7471 9.24758 32.0195 8.63045 32.3262 8.03733Z" fill="#333333"/>
<path d="M14.2365 20.4298C16.2602 21.1812 18.4845 20.6906 20.3968 18.8752C20.7296 19.8644 19.8456 21.9462 17.664 22.2683C15.4824 22.5904 14.0893 21.3415 14.2365 20.4298Z" fill="#333333" stroke="#333333" stroke-linejoin="round"/>
<path d="M33.3251 20.4298C31.3013 21.1812 29.077 20.6906 27.1647 18.8752C26.8319 19.8644 27.7159 21.9462 29.8975 22.2683C32.0791 22.5904 33.4723 21.3415 33.3251 20.4298Z" fill="#333333" stroke="#333333" stroke-linejoin="round"/>
<path d="M41 13C41 15.2091 39.2091 17 37 17C34.7909 17 33 15.2091 33 13C33 9.5 37 6 37 6C37 6 41 9.5 41 13Z" fill="#333333"/>
<path d="M18.5 31L15 28" stroke="#333333" stroke-width="2"/>
<mask id="path-6-inside-1" fill="white">
<path fill-rule="evenodd" clip-rule="evenodd" d="M24 27C27.2304 27 30.0305 29.4383 31.4065 33C31.7939 34.0028 30.9866 35 29.9116 35L24.433 35L19.2297 30.494L17.9205 32.0059L21.3779 35L18.0883 35C17.0133 35 16.2061 34.0028 16.5935 33C17.9694 29.4383 20.7695 27 24 27Z"/>
</mask>
<path fill-rule="evenodd" clip-rule="evenodd" d="M24 27C27.2304 27 30.0305 29.4383 31.4065 33C31.7939 34.0028 30.9866 35 29.9116 35L24.433 35L19.2297 30.494L17.9205 32.0059L21.3779 35L18.0883 35C17.0133 35 16.2061 34.0028 16.5935 33C17.9694 29.4383 20.7695 27 24 27Z" fill="#333333"/>
<path d="M31.4065 33L29.5408 33.7207L29.5408 33.7207L31.4065 33ZM29.9116 35V37V35ZM24.433 35L23.1237 36.5119L23.6873 37H24.433L24.433 35ZM19.2297 30.494L20.539 28.9822L19.0271 27.6729L17.7179 29.1848L19.2297 30.494ZM17.9205 32.0059L16.4086 30.6966L15.0993 32.2085L16.6112 33.5178L17.9205 32.0059ZM21.3779 35L21.3778 37L26.7424 37L22.6871 33.4881L21.3779 35ZM18.0883 35L18.0883 33H18.0883V35ZM16.5935 33L18.4591 33.7207L18.4591 33.7207L16.5935 33ZM33.2721 32.2793C31.7096 28.2348 28.3278 25 24 25V29C26.1331 29 28.3514 30.6419 29.5408 33.7207L33.2721 32.2793ZM29.9116 37C32.1327 37 34.2556 34.8251 33.2721 32.2793L29.5408 33.7207C29.5101 33.6411 29.4943 33.5324 29.5132 33.4157C29.5312 33.3047 29.5752 33.2179 29.6213 33.1578C29.7099 33.0424 29.8241 33 29.9116 33V37ZM24.433 37L29.9116 37V33L24.433 33L24.433 37ZM17.9205 32.0059L23.1237 36.5119L25.7422 33.4881L20.539 28.9822L17.9205 32.0059ZM19.4323 33.3152L20.7416 31.8033L17.7179 29.1848L16.4086 30.6966L19.4323 33.3152ZM22.6871 33.4881L19.2297 30.494L16.6112 33.5178L20.0686 36.5119L22.6871 33.4881ZM18.0883 37L21.3778 37L21.3779 33L18.0883 33L18.0883 37ZM14.7279 32.2793C13.7443 34.8251 15.8672 37 18.0883 37V33C18.1759 33 18.29 33.0424 18.3786 33.1578C18.4248 33.2179 18.4687 33.3047 18.4867 33.4157C18.5056 33.5324 18.4898 33.6411 18.4591 33.7207L14.7279 32.2793ZM24 25C19.6722 25 16.2903 28.2348 14.7279 32.2793L18.4591 33.7207C19.6485 30.6419 21.8669 29 24 29V25Z" fill="#333333" mask="url(#path-6-inside-1)"/>
<circle cx="15" cy="28" r="2" fill="#333333"/>
</svg>
