<svg width="48" height="48" viewBox="0 0 48 48" fill="none" xmlns="http://www.w3.org/2000/svg">
<circle cx="24" cy="24" r="17" stroke="#333333" stroke-width="2"/>
<path d="M17.8101 18.823C20.0134 18.9155 21.1478 21.4033 20.8324 22.2713C19.9116 21.7143 18.884 20.4511 17.8101 20.5038C16.7297 20.5567 15.6024 21.9293 14.4898 22.6438C14.3483 21.6097 15.6068 18.7305 17.8101 18.823Z" fill="#333333" stroke="#333333" stroke-linejoin="round"/>
<path d="M30.1055 18.823C27.9022 18.9155 26.7677 21.4033 27.0832 22.2713C28.004 21.7143 29.0315 20.4511 30.1055 20.5038C31.1858 20.5567 32.3131 21.9293 33.4258 22.6438C33.5672 21.6097 32.3088 18.7305 30.1055 18.823Z" fill="#333333" stroke="#333333" stroke-linejoin="round"/>
<mask id="path-4-inside-1" fill="white">
<path fill-rule="evenodd" clip-rule="evenodd" d="M24 37C19.9619 37 16.4618 33.9521 14.7419 29.5C14.7254 29.4572 14.709 29.4143 14.6928 29.3713C14.2445 28.18 15.1998 27 16.4727 27H31.5273C32.8002 27 33.7555 28.18 33.3072 29.3713C33.291 29.4143 33.2747 29.4572 33.2581 29.5C31.5382 33.9521 28.0381 37 24 37ZM30.377 29.0715H31.2759C30.9754 29.8003 30.6273 30.4681 30.2407 31.0715H17.8457H17.7594C17.4238 30.5478 17.1173 29.9756 16.8457 29.3571V29.0715H17.8457H30.377Z"/>
</mask>
<path fill-rule="evenodd" clip-rule="evenodd" d="M24 37C19.9619 37 16.4618 33.9521 14.7419 29.5C14.7254 29.4572 14.709 29.4143 14.6928 29.3713C14.2445 28.18 15.1998 27 16.4727 27H31.5273C32.8002 27 33.7555 28.18 33.3072 29.3713C33.291 29.4143 33.2747 29.4572 33.2581 29.5C31.5382 33.9521 28.0381 37 24 37ZM30.377 29.0715H31.2759C30.9754 29.8003 30.6273 30.4681 30.2407 31.0715H17.8457H17.7594C17.4238 30.5478 17.1173 29.9756 16.8457 29.3571V29.0715H17.8457H30.377Z" fill="#333333"/>
<path d="M14.7419 29.5L12.8763 30.2207L12.8763 30.2207L14.7419 29.5ZM14.6928 29.3713L12.821 30.0757L14.6928 29.3713ZM33.3072 29.3713L31.4354 28.6668V28.6668L33.3072 29.3713ZM33.2581 29.5L35.1237 30.2207V30.2207L33.2581 29.5ZM31.2759 29.0715L33.1249 29.8338L34.2638 27.0715H31.2759V29.0715ZM30.2407 31.0715V33.0715H31.3345L31.9246 32.1506L30.2407 31.0715ZM17.7594 31.0715L16.0755 32.1506L16.6656 33.0715H17.7594V31.0715ZM16.8457 29.3571H14.8457V29.7768L15.0145 30.1611L16.8457 29.3571ZM16.8457 29.0715V27.0715H14.8457V29.0715H16.8457ZM12.8763 30.2207C14.7827 35.1556 18.8646 39 24 39V35C21.0593 35 18.1409 32.7486 16.6075 28.7793L12.8763 30.2207ZM12.821 30.0757C12.8392 30.1242 12.8576 30.1725 12.8763 30.2207L16.6075 28.7793C16.5931 28.7419 16.5788 28.7044 16.5646 28.6668L12.821 30.0757ZM16.4727 25C14.0449 25 11.798 27.3574 12.821 30.0757L16.5646 28.6668C16.5765 28.6983 16.5871 28.7577 16.5755 28.8273C16.5648 28.8914 16.5403 28.9352 16.5218 28.9593C16.4881 29.003 16.4617 29 16.4727 29V25ZM31.5273 25H16.4727V29H31.5273V25ZM35.179 30.0757C36.2021 27.3574 33.9551 25 31.5273 25V29C31.5383 29 31.5119 29.003 31.4782 28.9593C31.4597 28.9352 31.4352 28.8914 31.4245 28.8273C31.4129 28.7577 31.4235 28.6983 31.4354 28.6668L35.179 30.0757ZM35.1237 30.2207C35.1424 30.1725 35.1608 30.1242 35.179 30.0757L31.4354 28.6668C31.4212 28.7044 31.4069 28.7419 31.3925 28.7793L35.1237 30.2207ZM24 39C29.1354 39 33.2173 35.1556 35.1237 30.2207L31.3925 28.7793C29.8591 32.7486 26.9407 35 24 35V39ZM31.2759 27.0715H30.377V31.0715H31.2759V27.0715ZM31.9246 32.1506C32.3787 31.442 32.7811 30.6675 33.1249 29.8338L29.4269 28.3091C29.1696 28.933 28.876 29.4943 28.5568 29.9924L31.9246 32.1506ZM17.8457 33.0715H30.2407V29.0715H17.8457V33.0715ZM17.7594 33.0715H17.8457V29.0715H17.7594V33.0715ZM15.0145 30.1611C15.3261 30.871 15.6814 31.5355 16.0755 32.1506L19.4433 29.9924C19.1663 29.5601 18.9085 29.0802 18.677 28.553L15.0145 30.1611ZM14.8457 29.0715V29.3571H18.8457V29.0715H14.8457ZM17.8457 27.0715H16.8457V31.0715H17.8457V27.0715ZM30.377 27.0715H17.8457V31.0715H30.377V27.0715Z" fill="#333333" mask="url(#path-4-inside-1)"/>
</svg>
