<svg width="48" height="48" viewBox="0 0 48 48" fill="none" xmlns="http://www.w3.org/2000/svg">
<circle cx="24" cy="24" r="17" stroke="#333333" stroke-width="2"/>
<path d="M27 15.5383C28.6371 17.0614 33.5063 19.9707 36.3733 20.5001" stroke="#333333" stroke-width="2"/>
<path d="M21.3733 15.5383C19.7362 17.0614 14.867 19.9707 12 20.5001" stroke="#333333" stroke-width="2"/>
<path d="M21.7766 24.384C18.897 23.4747 15.8076 23.8652 13.2313 25.6722C12.7082 24.6087 13.8279 22.4614 16.8671 22.2465C19.9064 22.0315 21.9306 23.4298 21.7766 24.384Z" fill="#333333" stroke="#333333" stroke-linejoin="round"/>
<path d="M26.2328 24.4418C28.9793 23.5745 31.9259 23.9469 34.3832 25.6704C34.8821 24.6561 33.8142 22.608 30.9154 22.403C28.0166 22.1979 26.0859 23.5317 26.2328 24.4418Z" fill="#333333" stroke="#333333" stroke-linejoin="round"/>
<rect x="20" y="27" width="8" height="10" rx="4" fill="#333333"/>
<path fill-rule="evenodd" clip-rule="evenodd" d="M12.5649 37.9016C9.74089 38.4426 8 39.1831 8 39.9999C8 41.6568 15.1634 42.9999 24 42.9999C32.8366 42.9999 40 41.6568 40 39.9999C40 39.1831 38.2591 38.4426 35.4351 37.9016C32.3258 40.4622 28.3425 41.9999 24 41.9999C19.6575 41.9999 15.6742 40.4622 12.5649 37.9016Z" fill="#333333"/>
<path d="M16.9163 24C14.4663 28.2857 12.9163 34 14.9163 40" stroke="#333333" stroke-width="3" stroke-linecap="round"/>
<path d="M31 24C33.45 28.2857 35 34 33 40" stroke="#333333" stroke-width="3" stroke-linecap="round"/>
</svg>
