<svg width="48" height="48" viewBox="0 0 48 48" fill="none" xmlns="http://www.w3.org/2000/svg">
<circle cx="24" cy="24" r="17" stroke="#333333" stroke-width="2"/>
<mask id="path-2-inside-1" fill="white">
<path fill-rule="evenodd" clip-rule="evenodd" d="M36.0001 26.5761C26.6267 24.5277 21.3743 24.4222 12.0001 26.5761C10.5318 30.8415 10.5829 33.2352 12.0001 37.5C19.5001 43.5 29.0001 43.5 36.5001 37C37.5622 32.9229 37.7063 30.6389 36.0001 26.5761ZM18 30H19H29H30V32H29H19H18V30ZM18 34H19H29H30V36H29H19H18V34Z"/>
</mask>
<path fill-rule="evenodd" clip-rule="evenodd" d="M36.0001 26.5761C26.6267 24.5277 21.3743 24.4222 12.0001 26.5761C10.5318 30.8415 10.5829 33.2352 12.0001 37.5C19.5001 43.5 29.0001 43.5 36.5001 37C37.5622 32.9229 37.7063 30.6389 36.0001 26.5761ZM18 30H19H29H30V32H29H19H18V30ZM18 34H19H29H30V36H29H19H18V34Z" fill="#333333"/>
<path d="M12.0001 26.5761L11.5522 24.6269L10.4703 24.8755L10.109 25.9252L12.0001 26.5761ZM36.0001 26.5761L37.8441 25.8017L37.4419 24.844L36.4271 24.6223L36.0001 26.5761ZM12.0001 37.5L10.1021 38.1307L10.2887 38.6921L10.7507 39.0617L12.0001 37.5ZM36.5001 37L37.81 38.5114L38.279 38.1049L38.4355 37.5042L36.5001 37ZM18 30V28H16V30H18ZM30 30H32V28H30V30ZM30 32V34H32V32H30ZM18 32H16V34H18V32ZM18 34V32H16V34H18ZM30 34H32V32H30V34ZM30 36V38H32V36H30ZM18 36H16V38H18V36ZM12.448 28.5253C17.0472 27.4686 20.542 26.9878 23.9932 27.0002C27.4497 27.0127 30.9516 27.52 35.5731 28.53L36.4271 24.6223C31.6752 23.5838 27.8642 23.0142 24.0076 23.0003C20.1457 22.9863 16.3272 23.5298 11.5522 24.6269L12.448 28.5253ZM13.8981 36.8693C13.2197 34.828 12.9232 33.3925 12.918 32.0306C12.9128 30.6749 13.196 29.2467 13.8912 27.2271L10.109 25.9252C9.33596 28.1709 8.91049 30.0722 8.91805 32.0459C8.92559 34.0134 9.36325 35.9071 10.1021 38.1307L13.8981 36.8693ZM35.1902 35.4886C28.4325 41.3454 20.0095 41.3463 13.2495 35.9383L10.7507 39.0617C18.9907 45.6537 29.5677 45.6546 37.81 38.5114L35.1902 35.4886ZM34.1561 27.3505C34.9469 29.2336 35.2535 30.5708 35.289 31.8387C35.3253 33.1358 35.0838 34.5032 34.5647 36.4958L38.4355 37.5042C38.9785 35.4197 39.3401 33.6065 39.2874 31.7267C39.234 29.8177 38.7595 27.9815 37.8441 25.8017L34.1561 27.3505ZM19 28H18V32H19V28ZM29 28H19V32H29V28ZM30 28H29V32H30V28ZM32 32V30H28V32H32ZM29 34H30V30H29V34ZM19 34H29V30H19V34ZM18 34H19V30H18V34ZM16 30V32H20V30H16ZM19 32H18V36H19V32ZM29 32H19V36H29V32ZM30 32H29V36H30V32ZM32 36V34H28V36H32ZM29 38H30V34H29V38ZM19 38H29V34H19V38ZM18 38H19V34H18V38ZM16 34V36H20V34H16Z" fill="#333333" mask="url(#path-2-inside-1)"/>
<path d="M12.5001 27.5C12.5001 27.5 0.499997 26.5 7.49996 19" stroke="#333333" stroke-width="2" stroke-linecap="round"/>
<path d="M35.3074 27.5C35.3074 27.5 47.3075 26.5 40.3075 19" stroke="#333333" stroke-width="2" stroke-linecap="round"/>
<path d="M17.8101 18.823C20.0134 18.9155 21.1478 21.4033 20.8324 22.2713C19.9116 21.7143 18.884 20.4511 17.8101 20.5038C16.7297 20.5567 15.6024 21.9293 14.4898 22.6438C14.3483 21.6097 15.6068 18.7305 17.8101 18.823Z" fill="#333333" stroke="#333333" stroke-linejoin="round"/>
<path d="M30.1055 18.823C27.9022 18.9155 26.7677 21.4033 27.0832 22.2713C28.004 21.7143 29.0315 20.4511 30.1055 20.5038C31.1858 20.5567 32.3131 21.9293 33.4258 22.6438C33.5672 21.6097 32.3088 18.7305 30.1055 18.823Z" fill="#333333" stroke="#333333" stroke-linejoin="round"/>
</svg>
