<svg width="48" height="48" viewBox="0 0 48 48" fill="none" xmlns="http://www.w3.org/2000/svg">
<circle cx="24" cy="24" r="17" stroke="#333333" stroke-width="2"/>
<path d="M14.2364 20.4298C16.2602 21.1812 18.4845 20.6906 20.3968 18.8752C20.7296 19.8644 19.8456 21.9462 17.664 22.2683C15.4824 22.5904 14.0892 21.3415 14.2364 20.4298Z" fill="#333333" stroke="#333333" stroke-linejoin="round"/>
<path d="M33.325 20.4298C31.3013 21.1812 29.077 20.6906 27.1646 18.8752C26.8319 19.8644 27.7159 21.9462 29.8975 22.2683C32.0791 22.5904 33.4722 21.3415 33.325 20.4298Z" fill="#333333" stroke="#333333" stroke-linejoin="round"/>
<path d="M24 26C27.6175 26 30.7879 28.1842 32.3576 31.4349C32.4207 31.5654 32.4041 31.6761 32.3293 31.78C32.2448 31.8975 32.0811 32 31.8637 32L16.1363 32C15.9189 32 15.7552 31.8975 15.6707 31.78C15.5959 31.6761 15.5793 31.5654 15.6424 31.4349C17.2121 28.1842 20.3825 26 24 26Z" fill="#333333" stroke="#333333" stroke-width="2"/>
</svg>
