<svg width="48" height="48" viewBox="0 0 48 48" fill="none" xmlns="http://www.w3.org/2000/svg">
<path fill-rule="evenodd" clip-rule="evenodd" d="M24 6C14.0589 6 6 14.0589 6 24C6 33.9411 14.0589 42 24 42C33.9411 42 42 33.9411 42 24C42 22.2017 41.7363 20.4649 41.2454 18.8264L39.3293 19.4012C39.7656 20.8577 40 22.4015 40 24C40 32.8366 32.8366 40 24 40C15.1634 40 8 32.8366 8 24C8 15.1634 15.1634 8 24 8V6Z" fill="#333333"/>
<path d="M19.0301 14.8177L21.6986 13.277L21.0075 19.013L24.0095 17.2798" stroke="#333333" stroke-width="2" stroke-linecap="round" stroke-linejoin="round"/>
<path d="M26.7832 9.03514L30.6469 7.99987L27.8531 14.9601L32.1998 13.7954" stroke="#333333" stroke-width="2" stroke-linecap="round" stroke-linejoin="round"/>
<path d="M36.5556 7H41L36 15H41" stroke="#333333" stroke-width="2" stroke-linecap="round" stroke-linejoin="round"/>
<path d="M13.3859 27.0547C15.5351 27.2567 17.5566 26.2071 18.934 23.9587C19.5114 24.8281 19.1964 27.0677 17.1725 27.9435C15.1486 28.8192 13.4797 27.9735 13.3859 27.0547Z" fill="#333333" stroke="#333333" stroke-linejoin="round"/>
<path d="M31.824 22.1144C30.0637 23.364 27.7883 23.4658 25.4712 22.2072C25.4058 23.2488 26.7985 25.0309 28.9891 24.7774C31.1797 24.5238 32.2022 22.957 31.824 22.1144Z" fill="#333333" stroke="#333333" stroke-linejoin="round"/>
<mask id="path-7-inside-1" fill="white">
<path d="M32.4478 31.8551C30.1969 28.7709 26.8611 27.1404 23.7407 27.9765C20.6203 28.8126 18.5468 31.8925 18.1395 35.689C18.0249 36.7579 19.0627 37.5122 20.1011 37.2339L31.5215 34.1738C32.5599 33.8956 33.0815 32.7235 32.4478 31.8551Z"/>
</mask>
<path d="M32.4478 31.8551C30.1969 28.7709 26.8611 27.1404 23.7407 27.9765C20.6203 28.8126 18.5468 31.8925 18.1395 35.689C18.0249 36.7579 19.0627 37.5122 20.1011 37.2339L31.5215 34.1738C32.5599 33.8956 33.0815 32.7235 32.4478 31.8551Z" fill="#333333"/>
<path d="M32.4478 31.8551L30.8322 33.0341L32.4478 31.8551ZM18.1395 35.689L20.1281 35.9023L20.1281 35.9023L18.1395 35.689ZM20.1011 37.2339L19.5834 35.3021L20.1011 37.2339ZM31.5215 34.1738L32.0391 36.1057L31.5215 34.1738ZM24.2584 29.9083C26.3188 29.3562 28.8865 30.368 30.8322 33.0341L34.0633 30.6761C31.5073 27.1738 27.4034 24.9245 23.2231 26.0446L24.2584 29.9083ZM20.1281 35.9023C20.4801 32.6205 22.1979 30.4604 24.2584 29.9083L23.2231 26.0446C19.0427 27.1648 16.6134 31.1646 16.1509 35.4757L20.1281 35.9023ZM20.6187 39.1658L32.0391 36.1057L31.0038 32.242L19.5834 35.3021L20.6187 39.1658ZM16.1509 35.4757C15.8598 38.1893 18.4733 39.7406 20.6187 39.1658L19.5834 35.3021C19.668 35.2794 19.7893 35.2909 19.9047 35.3793C19.9648 35.4255 20.0297 35.498 20.0758 35.6005C20.1243 35.7083 20.1372 35.8175 20.1281 35.9023L16.1509 35.4757ZM30.8322 33.0341C30.782 32.9652 30.7386 32.8642 30.7266 32.7466C30.7153 32.6348 30.7352 32.5395 30.7643 32.4695C30.82 32.3352 30.9193 32.2647 31.0038 32.242L32.0391 36.1057C34.1845 35.5308 35.6722 32.8806 34.0633 30.6761L30.8322 33.0341Z" fill="#333333" mask="url(#path-7-inside-1)"/>
</svg>
