<svg width="48" height="48" viewBox="0 0 48 48" fill="none" xmlns="http://www.w3.org/2000/svg">
<mask id="path-1-inside-1" fill="white">
<path fill-rule="evenodd" clip-rule="evenodd" d="M18.3296 38.9661C12.2919 36.6773 8 30.8399 8 24C8 15.1634 15.1634 8 24 8C32.8366 8 40 15.1634 40 24C40 30.8399 35.7081 36.6773 29.6705 38.9661C29.3143 39.9935 28.6868 40.8941 27.8737 41.5821C35.953 39.8102 42 32.6113 42 24C42 14.0589 33.9411 6 24 6C14.0589 6 6 14.0589 6 24C6 32.6113 12.047 39.8102 20.1263 41.5821C19.3132 40.8941 18.6857 39.9935 18.3296 38.9661ZM30 34.9295C33.2539 33.4606 33.5 31 33.5 31C33.5 31 33.5 29 31.5 29H29C29.5523 29 30 29.4477 30 30V34.9295ZM18 34.8779V30C18 29.4477 18.4477 29 19 29H17C14.5 29 15 31 15 31C15 31 15 33.4037 18 34.8779ZM17.5 26C18.8807 26 20 24.2091 20 22C20 19.7909 18.8807 18 17.5 18C16.1193 18 15 19.7909 15 22C15 24.2091 16.1193 26 17.5 26ZM30.5 26C31.8807 26 33 24.2091 33 22C33 19.7909 31.8807 18 30.5 18C29.1193 18 28 19.7909 28 22C28 24.2091 29.1193 26 30.5 26Z"/>
</mask>
<path fill-rule="evenodd" clip-rule="evenodd" d="M18.3296 38.9661C12.2919 36.6773 8 30.8399 8 24C8 15.1634 15.1634 8 24 8C32.8366 8 40 15.1634 40 24C40 30.8399 35.7081 36.6773 29.6705 38.9661C29.3143 39.9935 28.6868 40.8941 27.8737 41.5821C35.953 39.8102 42 32.6113 42 24C42 14.0589 33.9411 6 24 6C14.0589 6 6 14.0589 6 24C6 32.6113 12.047 39.8102 20.1263 41.5821C19.3132 40.8941 18.6857 39.9935 18.3296 38.9661ZM30 34.9295C33.2539 33.4606 33.5 31 33.5 31C33.5 31 33.5 29 31.5 29H29C29.5523 29 30 29.4477 30 30V34.9295ZM18 34.8779V30C18 29.4477 18.4477 29 19 29H17C14.5 29 15 31 15 31C15 31 15 33.4037 18 34.8779ZM17.5 26C18.8807 26 20 24.2091 20 22C20 19.7909 18.8807 18 17.5 18C16.1193 18 15 19.7909 15 22C15 24.2091 16.1193 26 17.5 26ZM30.5 26C31.8807 26 33 24.2091 33 22C33 19.7909 31.8807 18 30.5 18C29.1193 18 28 19.7909 28 22C28 24.2091 29.1193 26 30.5 26Z" fill="#333333"/>
<path d="M18.3296 38.9661L20.2192 38.311L19.9129 37.4275L19.0385 37.096L18.3296 38.9661ZM29.6705 38.9661L28.9615 37.096L28.0871 37.4275L27.7808 38.311L29.6705 38.9661ZM27.8737 41.5821L26.5817 40.0554L28.3021 43.5357L27.8737 41.5821ZM20.1263 41.5821L19.6979 43.5357L21.4183 40.0554L20.1263 41.5821ZM30 34.9295H28V38.0267L30.8229 36.7524L30 34.9295ZM33.5 31L35.4901 31.199L35.5 31.0998V31H33.5ZM18 34.8779L17.118 36.6729L20 38.0891V34.8779H18ZM15 31H17V30.7538L16.9403 30.5149L15 31ZM6 24C6 31.698 10.8315 38.2626 17.6206 40.8362L19.0385 37.096C13.7524 35.0921 10 29.9817 10 24H6ZM24 6C14.0589 6 6 14.0589 6 24H10C10 16.268 16.268 10 24 10V6ZM42 24C42 14.0589 33.9411 6 24 6V10C31.732 10 38 16.268 38 24H42ZM30.3794 40.8362C37.1685 38.2626 42 31.698 42 24H38C38 29.9817 34.2476 35.0921 28.9615 37.096L30.3794 40.8362ZM27.7808 38.311C27.5443 38.9931 27.1262 39.5946 26.5817 40.0554L29.1656 43.1089C30.2473 42.1935 31.0843 40.9939 31.5601 39.6212L27.7808 38.311ZM28.3021 43.5357C37.2796 41.5668 44 33.5706 44 24H40C40 31.652 34.6264 38.0536 27.4452 39.6286L28.3021 43.5357ZM44 24C44 12.9543 35.0457 4 24 4V8C32.8366 8 40 15.1634 40 24H44ZM24 4C12.9543 4 4 12.9543 4 24H8C8 15.1634 15.1634 8 24 8V4ZM4 24C4 33.5706 10.7204 41.5668 19.6979 43.5357L20.5548 39.6286C13.3736 38.0536 8 31.652 8 24H4ZM21.4183 40.0554C20.8738 39.5946 20.4557 38.9931 20.2192 38.311L16.4399 39.6212C16.9157 40.9939 17.7527 42.1935 18.8344 43.1089L21.4183 40.0554ZM30.8229 36.7524C32.8422 35.8408 34.0262 34.5673 34.6956 33.4254C35.0238 32.8656 35.2172 32.3569 35.3308 31.967C35.3877 31.7718 35.4249 31.6053 35.4492 31.4753C35.4613 31.4102 35.4702 31.354 35.4768 31.3078C35.4801 31.2846 35.4827 31.2639 35.4849 31.2457C35.486 31.2367 35.487 31.2282 35.4878 31.2204C35.4883 31.2165 35.4887 31.2128 35.489 31.2092C35.4892 31.2074 35.4894 31.2057 35.4896 31.204C35.4897 31.2031 35.4898 31.2019 35.4898 31.2015C35.49 31.2002 35.4901 31.199 33.5 31C31.5099 30.801 31.51 30.7998 31.5102 30.7986C31.5102 30.7982 31.5103 30.797 31.5104 30.7962C31.5106 30.7947 31.5107 30.7932 31.5109 30.7917C31.5112 30.7887 31.5115 30.7859 31.5118 30.7832C31.5124 30.7777 31.513 30.7729 31.5135 30.7685C31.5145 30.7597 31.5154 30.753 31.5161 30.7482C31.5175 30.7387 31.5179 30.7368 31.517 30.7419C31.5151 30.7522 31.5076 30.7894 31.4906 30.8479C31.4564 30.9652 31.385 31.1635 31.2448 31.4024C30.9778 31.858 30.4117 32.5493 29.1771 33.1066L30.8229 36.7524ZM33.5 31C35.5 31 35.5 30.999 35.5 30.998C35.5 30.9977 35.5 30.9967 35.5 30.996C35.5 30.9946 35.5 30.9932 35.5 30.9918C35.5 30.9889 35.5 30.9858 35.4999 30.9827C35.4999 30.9763 35.4998 30.9694 35.4997 30.962C35.4994 30.9471 35.499 30.9301 35.4984 30.9109C35.4971 30.8727 35.4949 30.8258 35.491 30.7716C35.4833 30.6637 35.4689 30.5227 35.4415 30.3587C35.3885 30.0402 35.2786 29.585 35.0389 29.1056C34.7952 28.6183 34.3984 28.0702 33.7657 27.6484C33.1204 27.2182 32.35 27 31.5 27V31C31.65 31 31.6296 31.0318 31.5469 30.9766C31.4766 30.9298 31.4548 30.8817 31.4611 30.8944C31.4714 30.915 31.4865 30.9598 31.496 31.0163C31.4999 31.0398 31.5011 31.055 31.5012 31.0566C31.5012 31.057 31.5009 31.0531 31.5006 31.0442C31.5005 31.0397 31.5003 31.0338 31.5002 31.0265C31.5001 31.0229 31.5001 31.0188 31.5001 31.0144C31.5 31.0122 31.5 31.0099 31.5 31.0075C31.5 31.0063 31.5 31.0051 31.5 31.0038C31.5 31.0032 31.5 31.0022 31.5 31.0019C31.5 31.001 31.5 31 33.5 31ZM31.5 27H29V31H31.5V27ZM29 31C28.4477 31 28 30.5523 28 30H32C32 28.3432 30.6569 27 29 27V31ZM28 30V34.9295H32V30H28ZM20 34.8779V30H16V34.8779H20ZM20 30C20 30.5523 19.5523 31 19 31V27C17.3431 27 16 28.3431 16 30H20ZM19 27H17V31H19V27ZM17 27C16.1172 27 15.2882 27.1762 14.5846 27.6092C13.8565 28.0573 13.4199 28.6842 13.1898 29.2978C12.9721 29.8783 12.9479 30.4165 12.9627 30.7708C12.9704 30.9554 12.9896 31.1126 13.0087 31.2314C13.0184 31.2914 13.0282 31.3431 13.037 31.3854C13.0415 31.4067 13.0456 31.4256 13.0495 31.4423C13.0514 31.4506 13.0532 31.4583 13.0549 31.4654C13.0558 31.469 13.0566 31.4724 13.0574 31.4757C13.0578 31.4773 13.0582 31.4789 13.0586 31.4805C13.0588 31.4813 13.0591 31.4824 13.0592 31.4828C13.0594 31.4839 13.0597 31.4851 15 31C16.9403 30.5149 16.9406 30.516 16.9408 30.5171C16.9409 30.5175 16.9412 30.5186 16.9414 30.5193C16.9417 30.5208 16.9421 30.5222 16.9424 30.5236C16.9431 30.5264 16.9438 30.5291 16.9444 30.5317C16.9456 30.5369 16.9468 30.5417 16.9478 30.5463C16.9499 30.5553 16.9516 30.5631 16.953 30.5696C16.9557 30.5827 16.9572 30.5914 16.9581 30.5967C16.9596 30.6061 16.9593 30.6071 16.9592 30.6042C16.9583 30.5835 16.9654 30.6217 16.9352 30.7022C16.8926 30.8158 16.7998 30.9427 16.681 31.0158C16.5868 31.0738 16.6328 31 17 31V27ZM15 31C13 31 13 31.0012 13 31.0025C13 31.0029 13 31.0041 13 31.005C13 31.0067 13 31.0085 13 31.0102C13 31.0138 13.0001 31.0176 13.0001 31.0215C13.0002 31.0293 13.0003 31.0377 13.0005 31.0468C13.0009 31.065 13.0014 31.0857 13.0024 31.1088C13.0043 31.1551 13.0076 31.2113 13.0131 31.2764C13.0242 31.4064 13.0445 31.5733 13.0816 31.7695C13.1555 32.1611 13.2973 32.6766 13.5703 33.2481C14.1305 34.4211 15.1966 35.7288 17.118 36.6729L18.882 33.0829C17.8034 32.5529 17.3695 31.9216 17.1797 31.5242C17.0777 31.3105 17.032 31.1329 17.0122 31.0277C17.0023 30.9755 16.9992 30.9432 16.9986 30.936C16.9983 30.9325 16.9987 30.9355 16.9991 30.9459C16.9993 30.9511 16.9995 30.9581 16.9997 30.9671C16.9998 30.9716 16.9999 30.9766 16.9999 30.982C16.9999 30.9848 17 30.9876 17 30.9906C17 30.9921 17 30.9937 17 30.9952C17 30.996 17 30.9972 17 30.9976C17 30.9988 17 31 15 31ZM18 22C18 22.7897 17.796 23.4097 17.5718 23.7684C17.33 24.1553 17.2519 24 17.5 24V28C19.1288 28 20.3008 26.9492 20.9638 25.8884C21.6444 24.7994 22 23.4194 22 22H18ZM17.5 20C17.2519 20 17.33 19.8447 17.5718 20.2316C17.796 20.5903 18 21.2103 18 22H22C22 20.5806 21.6444 19.2006 20.9638 18.1116C20.3008 17.0508 19.1288 16 17.5 16V20ZM17 22C17 21.2103 17.204 20.5903 17.4282 20.2316C17.67 19.8447 17.7481 20 17.5 20V16C15.8712 16 14.6992 17.0508 14.0362 18.1116C13.3556 19.2006 13 20.5806 13 22H17ZM17.5 24C17.7481 24 17.67 24.1553 17.4282 23.7684C17.204 23.4097 17 22.7897 17 22H13C13 23.4194 13.3556 24.7994 14.0362 25.8884C14.6992 26.9492 15.8712 28 17.5 28V24ZM31 22C31 22.7897 30.796 23.4097 30.5718 23.7684C30.33 24.1553 30.2519 24 30.5 24V28C32.1288 28 33.3008 26.9492 33.9638 25.8884C34.6444 24.7994 35 23.4194 35 22H31ZM30.5 20C30.2519 20 30.33 19.8447 30.5718 20.2316C30.796 20.5903 31 21.2103 31 22H35C35 20.5806 34.6444 19.2006 33.9638 18.1116C33.3008 17.0508 32.1288 16 30.5 16V20ZM30 22C30 21.2103 30.204 20.5903 30.4282 20.2316C30.67 19.8447 30.7481 20 30.5 20V16C28.8712 16 27.6992 17.0508 27.0362 18.1116C26.3556 19.2006 26 20.5806 26 22H30ZM30.5 24C30.7481 24 30.67 24.1553 30.4282 23.7684C30.204 23.4097 30 22.7897 30 22H26C26 23.4194 26.3556 24.7994 27.0362 25.8884C27.6992 26.9492 28.8712 28 30.5 28V24Z" fill="#333333" mask="url(#path-1-inside-1)"/>
<mask id="path-3-inside-2" fill="white">
<path d="M18 30C18 29.4477 18.4477 29 19 29H29C29.5523 29 30 29.4477 30 30V37C30 40.3137 27.3137 43 24 43C20.6863 43 18 40.3137 18 37V30Z"/>
</mask>
<path d="M18 30C18 29.4477 18.4477 29 19 29H29C29.5523 29 30 29.4477 30 30V37C30 40.3137 27.3137 43 24 43C20.6863 43 18 40.3137 18 37V30Z" stroke="#333333" stroke-width="4" mask="url(#path-3-inside-2)"/>
<path d="M24 31V35" stroke="#333333" stroke-width="2" stroke-linecap="round"/>
</svg>
