<svg width="48" height="48" viewBox="0 0 48 48" fill="none" xmlns="http://www.w3.org/2000/svg">
<g opacity="0.4">
<circle cx="24" cy="24" r="8" stroke="#FF0000" stroke-opacity="0.32" stroke-width="0.25"/>
<circle cx="24" cy="24" r="16" stroke="#FF0000" stroke-opacity="0.32" stroke-width="0.25"/>
<circle cx="24" cy="24" r="20" stroke="#FF0000" stroke-opacity="0.32" stroke-width="0.25"/>
<rect x="4" y="4" width="40" height="40" stroke="#FF0000" stroke-opacity="0.32" stroke-width="0.25"/>
<rect x="10" y="4" width="28" height="40" rx="3" stroke="#FF0000" stroke-opacity="0.32" stroke-width="0.25"/>
<rect x="6" y="6" width="36" height="36" rx="3" stroke="#FF0000" stroke-opacity="0.32" stroke-width="0.25"/>
<rect x="44" y="10" width="28" height="40" rx="3" transform="rotate(90 44 10)" stroke="#FF0000" stroke-opacity="0.32" stroke-width="0.25"/>
<line x1="24.125" y1="4" x2="24.125" y2="44" stroke="#FF0000" stroke-opacity="0.32" stroke-width="0.25"/>
<line x1="44" y1="24.125" x2="4" y2="24.125" stroke="#FF0000" stroke-opacity="0.32" stroke-width="0.25"/>
<line x1="44.0884" y1="4.08839" x2="4.08839" y2="44.0884" stroke="#FF0000" stroke-opacity="0.32" stroke-width="0.25"/>
<line x1="43.9116" y1="44.0884" x2="3.91161" y2="4.08839" stroke="#FF0000" stroke-opacity="0.32" stroke-width="0.25"/>
<line x1="44" y1="32.125" x2="4" y2="32.125" stroke="#FF0000" stroke-opacity="0.32" stroke-width="0.25"/>
<line x1="44" y1="16.125" x2="4" y2="16.125" stroke="#FF0000" stroke-opacity="0.32" stroke-width="0.25"/>
<line x1="16.125" y1="4" x2="16.125" y2="44" stroke="#FF0000" stroke-opacity="0.32" stroke-width="0.25"/>
<line x1="32.125" y1="4" x2="32.125" y2="44" stroke="#FF0000" stroke-opacity="0.32" stroke-width="0.25"/>
</g>
<path fill-rule="evenodd" clip-rule="evenodd" d="M33.4771 36.8926C37.4331 33.9797 40 29.2896 40 24C40 15.1634 32.8366 8 24 8C15.1634 8 8 15.1634 8 24C8 29.0885 10.3754 33.6221 14.0777 36.5527L12.9485 38.2089C8.71983 34.9152 6 29.7752 6 24C6 14.0589 14.0589 6 24 6C33.9411 6 42 14.0589 42 24C42 29.9991 39.0653 35.3127 34.5531 38.5835L33.4771 36.8926Z" fill="#333333"/>
<path d="M19 23L16 21C17.4648 22.6025 17.4997 23.4793 16 25L19 23Z" stroke="#333333" stroke-width="2" stroke-linecap="round" stroke-linejoin="round"/>
<path d="M29 23L32 21C30.5352 22.6025 30.5003 23.4793 32 25L29 23Z" stroke="#333333" stroke-width="2" stroke-linecap="round" stroke-linejoin="round"/>
<mask id="path-19-inside-1" fill="white">
<path fill-rule="evenodd" clip-rule="evenodd" d="M30 36.138C31.2447 35.1685 32 33.8949 32 32.5C32 29.4624 28.4183 27 24 27C19.5817 27 16 29.4624 16 32.5C16 33.8949 16.7553 35.1685 18 36.138V33C18 30.5 30 30.5 30 33V36.138Z"/>
</mask>
<path fill-rule="evenodd" clip-rule="evenodd" d="M30 36.138C31.2447 35.1685 32 33.8949 32 32.5C32 29.4624 28.4183 27 24 27C19.5817 27 16 29.4624 16 32.5C16 33.8949 16.7553 35.1685 18 36.138V33C18 30.5 30 30.5 30 33V36.138Z" fill="#333333"/>
<path d="M30 36.138H28V40.231L31.229 37.7158L30 36.138ZM18 36.138L16.771 37.7158L20 40.231V36.138H18ZM30 32.5C30 33.1197 29.6696 33.8602 28.771 34.5602L31.229 37.7158C32.8198 36.4767 34 34.67 34 32.5H30ZM24 29C25.8567 29 27.45 29.5208 28.5238 30.259C29.6064 31.0033 30 31.8294 30 32.5H34C34 30.133 32.6027 28.2091 30.7899 26.9628C28.9682 25.7104 26.5615 25 24 25V29ZM18 32.5C18 31.8294 18.3936 31.0033 19.4762 30.259C20.55 29.5208 22.1433 29 24 29V25C21.4385 25 19.0318 25.7104 17.2101 26.9628C15.3973 28.2091 14 30.133 14 32.5H18ZM19.229 34.5602C18.3304 33.8602 18 33.1197 18 32.5H14C14 34.67 15.1802 36.4767 16.771 37.7158L19.229 34.5602ZM16 33V36.138H20V33H16ZM32 33C32 31.7808 31.2446 30.9792 30.6468 30.5522C30.0477 30.1242 29.326 29.8516 28.6603 29.6667C27.3025 29.2895 25.608 29.125 24 29.125C22.392 29.125 20.6975 29.2896 19.3397 29.6667C18.674 29.8516 17.9523 30.1242 17.3532 30.5522C16.7554 30.9792 16 31.7808 16 33H20C20 33.5942 19.6196 33.8489 19.6781 33.8072C19.7352 33.7664 19.951 33.6484 20.4103 33.5208C21.3025 33.273 22.608 33.125 24 33.125C25.392 33.125 26.6975 33.2729 27.5897 33.5208C28.049 33.6484 28.2648 33.7664 28.3219 33.8071C28.3804 33.8489 28 33.5942 28 33H32ZM32 36.138V33H28V36.138H32Z" fill="#333333" mask="url(#path-19-inside-1)"/>
<path d="M18 36.4013L18.1431 37.391L19 37.2671V36.4013H18ZM30 36.4013H29V37.2671L29.8569 37.391L30 36.4013ZM19 32C19 32.1408 18.9036 32.1315 19.0969 31.9934C19.2895 31.8558 19.6317 31.6992 20.1426 31.5573C21.1512 31.2771 22.554 31.125 24 31.125C25.446 31.125 26.8488 31.2771 27.8574 31.5573C28.3683 31.6992 28.7105 31.8558 28.9031 31.9934C29.0964 32.1315 29 32.1408 29 32H31C31 31.2341 30.5286 30.6966 30.0656 30.3659C29.602 30.0348 29.0067 29.8008 28.3926 29.6302C27.1512 29.2854 25.554 29.125 24 29.125C22.446 29.125 20.8488 29.2854 19.6074 29.6302C18.9933 29.8008 18.398 30.0348 17.9344 30.3659C17.4714 30.6966 17 31.2341 17 32H19ZM19 36.4013V32H17V36.4013H19ZM13 39C13 39.113 12.9349 39.0928 13.1037 38.9403C13.2704 38.7896 13.5715 38.6004 14.0454 38.3994C14.9858 38.0006 16.3914 37.6444 18.1431 37.391L17.8569 35.4116C16.0218 35.677 14.4274 36.0649 13.2645 36.5581C12.6867 36.8032 12.1604 37.097 11.7625 37.4566C11.3667 37.8144 11 38.3318 11 39H13ZM24 41C20.7434 41 17.8287 40.669 15.7573 40.1512C14.7138 39.8903 13.9404 39.5956 13.4518 39.3069C12.8964 38.9785 13 38.8424 13 39H11C11 39.986 11.7752 40.6391 12.4342 41.0286C13.1601 41.4577 14.144 41.8094 15.2722 42.0915C17.5439 42.6594 20.6292 43 24 43V41ZM35 39C35 38.8424 35.1036 38.9785 34.5482 39.3069C34.0596 39.5956 33.2862 39.8903 32.2427 40.1512C30.1713 40.669 27.2566 41 24 41V43C27.3708 43 30.4561 42.6594 32.7278 42.0915C33.856 41.8094 34.8399 41.4577 35.5658 41.0286C36.2248 40.6391 37 39.986 37 39H35ZM29.8569 37.391C31.6086 37.6444 33.0142 38.0006 33.9546 38.3994C34.4285 38.6004 34.7296 38.7896 34.8963 38.9403C35.0651 39.0928 35 39.113 35 39H37C37 38.3318 36.6333 37.8144 36.2375 37.4566C35.8396 37.097 35.3133 36.8032 34.7355 36.5581C33.5726 36.0649 31.9782 35.677 30.1431 35.4116L29.8569 37.391ZM29 32V36.4013H31V32H29Z" fill="#333333"/>
<path d="M22 30V37" stroke="#333333" stroke-width="2" stroke-linecap="round"/>
<path d="M26 30V37" stroke="#333333" stroke-width="2" stroke-linecap="round"/>
</svg>
