<svg width="48" height="48" viewBox="0 0 48 48" fill="none" xmlns="http://www.w3.org/2000/svg">
<ellipse cx="30.5" cy="22" rx="2.5" ry="4" fill="#333333"/>
<circle cx="24" cy="24" r="17" stroke="#333333" stroke-width="2"/>
<path d="M15.2365 22.4298C17.2602 23.1812 19.4845 22.6906 21.3968 20.8752C21.7296 21.8644 20.8456 23.9462 18.664 24.2683C16.4824 24.5904 15.0893 23.3415 15.2365 22.4298Z" fill="#333333" stroke="#333333" stroke-linejoin="round"/>
<circle cx="24" cy="24" r="17" stroke="#333333" stroke-width="2"/>
<path d="M15.2365 22.4298C17.2602 23.1812 19.4845 22.6906 21.3968 20.8752C21.7296 21.8644 20.8456 23.9462 18.664 24.2683C16.4824 24.5904 15.0893 23.3415 15.2365 22.4298Z" fill="#333333" stroke="#333333" stroke-linejoin="round"/>
<path d="M16.0584 30.5354C16.0584 30.5354 20.7159 27.5754 24 31.5001M24 31.5001C27.2841 35.4247 31.9416 32.4647 31.9416 32.4647L24 31.5001Z" stroke="#333333" stroke-width="2" stroke-linecap="round" stroke-linejoin="round"/>
</svg>
