<svg width="48" height="48" viewBox="0 0 48 48" fill="none" xmlns="http://www.w3.org/2000/svg">
<path d="M40.8992 19.5969L37.1832 11.5456C37.4542 11.2998 37.6712 11.0004 37.8205 10.6664C37.9697 10.3323 38.048 9.97092 38.0503 9.60505C38.048 9.01126 37.8438 8.43592 37.4711 7.97366C37.0984 7.5114 36.5794 7.18974 35.9996 7.06161C35.4198 6.93348 34.8137 7.00649 34.2809 7.26865C33.7481 7.5308 33.3204 7.96648 33.0681 8.50402L14.2818 13.2797C13.8184 12.8811 13.2277 12.6614 12.6165 12.6604C12.0862 12.6568 11.5675 12.8154 11.1299 13.1149C10.6922 13.4144 10.3566 13.8405 10.1679 14.3361C9.97926 14.8317 9.94658 15.3732 10.0743 15.8879C10.202 16.4026 10.4839 16.866 10.8824 17.2159L7.07007 25.4736L18.1492 25.4323L14.3506 17.1746C14.7554 16.8117 15.0348 16.3299 15.1489 15.7983L21.934 14.078V35.2177H21.7963L12.6303 38.0667C12.3371 38.1595 12.0808 38.3425 11.8979 38.5897C11.715 38.8368 11.6149 39.1355 11.6118 39.4429V39.5393C11.5999 39.7328 11.629 39.9266 11.6973 40.1081C11.7655 40.2895 11.8713 40.4545 12.0077 40.5923C12.1442 40.73 12.3081 40.8374 12.489 40.9073C12.6698 40.9772 12.8633 41.0082 13.0569 40.9981H34.9261C35.1185 41.008 35.3108 40.9774 35.4906 40.9083C35.6704 40.8392 35.8337 40.7331 35.9699 40.5969C36.1061 40.4606 36.2122 40.2974 36.2814 40.1175C36.3505 39.9377 36.3811 39.7454 36.3712 39.553V39.4429C36.3691 39.1372 36.271 38.8398 36.0907 38.5929C35.9104 38.3459 35.6571 38.1618 35.3665 38.0667L26.2142 35.2177H26.0628V13.1972L33.3847 11.2566L33.6599 11.5456L29.9302 19.6244C30.7538 19.6244 40.1444 19.5969 40.8992 19.5969ZM9.34094 25.4736L12.6165 18.372L15.8466 25.442L9.34094 25.4736ZM35.4904 12.7017L38.6834 19.5831H32.2561L35.4904 12.7017Z" fill="#333333"/>
<path d="M19.0434 26.2178C18.5624 29.3329 15.8696 31.7178 12.6198 31.7178C9.37007 31.7178 6.67731 29.3329 6.19629 26.2178C10.2986 26.2179 11.6082 26.2179 13.5727 26.2178C14.8285 26.2178 16.3519 26.2178 19.0434 26.2178Z" stroke="#333333" stroke-width="2" stroke-linecap="round" stroke-linejoin="round"/>
<path d="M41.4491 20.5137C40.9681 23.6288 38.2754 26.0137 35.0256 26.0137C31.7758 26.0137 29.083 23.6288 28.602 20.5137C32.7043 20.5138 34.0139 20.5138 35.9784 20.5137C37.2342 20.5137 38.7576 20.5137 41.4491 20.5137Z" stroke="#333333" stroke-width="2" stroke-linecap="round" stroke-linejoin="round"/>
</svg>
