<svg width="48" height="48" viewBox="0 0 48 48" fill="none" xmlns="http://www.w3.org/2000/svg">
<path fill-rule="evenodd" clip-rule="evenodd" d="M48 0H0V48H48V0ZM28.1959 8.40002C26.3359 5.19995 21.686 5.19995 19.826 8.40002L4.65568 34.5C2.79572 37.7 5.11346 42 8.8334 42H39.0355C42.7554 42 45.2262 37.7001 43.3662 34.5L28.1959 8.40002ZM22 20C22 18.8954 22.8954 18 24 18C25.1046 18 26 18.8954 26 20V28C26 29.1046 25.1046 30 24 30C22.8954 30 22 29.1046 22 28V20ZM24 32C22.8954 32 22 32.8954 22 34C22 35.1046 22.8954 36 24 36C25.1046 36 26 35.1046 26 34C26 32.8954 25.1046 32 24 32Z" fill="#333333"/>
</svg>
