<svg width="48" height="48" viewBox="0 0 48 48" fill="none" xmlns="http://www.w3.org/2000/svg">
<g clip-path="url(#clip0)">
<path d="M22 20C22 18.8954 22.8954 18 24 18C25.1046 18 26 18.8954 26 20V28C26 29.1046 25.1046 30 24 30C22.8954 30 22 29.1046 22 28V20Z" fill="#333333"/>
<path d="M24 32C22.8954 32 22 32.8954 22 34C22 35.1046 22.8954 36 24 36C25.1046 36 26 35.1046 26 34C26 32.8954 25.1046 32 24 32Z" fill="#333333"/>
<path fill-rule="evenodd" clip-rule="evenodd" d="M48 0H0V48H48V0ZM28.1959 8.4C26.3359 5.2 21.686 5.2 19.826 8.4L4.65568 34.5C2.79571 37.7 5.11346 42 8.83339 42H39.0355C42.7554 42 45.2262 37.7 43.3662 34.5L28.1959 8.4Z" fill="#333333"/>
</g>
<defs>
<clipPath id="clip0">
<rect width="48" height="48" fill="white"/>
</clipPath>
</defs>
</svg>
