<svg width="48" height="48" viewBox="0 0 48 48" fill="none" xmlns="http://www.w3.org/2000/svg">
<path fill-rule="evenodd" clip-rule="evenodd" d="M48 0H0V48H48V0ZM41 24C41 33.3888 33.3888 41 24 41C14.6112 41 7 33.3888 7 24C7 14.6112 14.6112 7 24 7C33.3888 7 41 14.6112 41 24ZM22 24C22 25.1 22.9 26 24 26C25.1 26 26 25.1 26 24V16C26 14.9 25.1 14 24 14C22.9 14 22 14.9 22 16V24ZM26 30C26 28.8954 25.1046 28 24 28C22.8954 28 22 28.8954 22 30C22 31.1046 22.8954 32 24 32C25.1046 32 26 31.1046 26 30Z" fill="#333333"/>
</svg>
