<svg width="48" height="48" viewBox="0 0 48 48" fill="none" xmlns="http://www.w3.org/2000/svg">
<g clip-path="url(#clip0)">
<path fill-rule="evenodd" clip-rule="evenodd" d="M48 0H0V48H48V0ZM24.878 4.55327C24.5096 3.81557 23.457 3.81558 23.0886 4.55328L4.10662 42.5692C3.77464 43.234 4.25814 44.0159 5.00129 44.0159H42.9653C43.7084 44.0159 44.192 43.234 43.86 42.5692L24.878 4.55327ZM24 15C22.3431 15 21 16.3431 21 18V29C21 30.6569 22.3431 32 24 32C25.6569 32 27 30.6569 27 29V18C27 16.3431 25.6569 15 24 15ZM21 36.9663C21 35.3281 22.3281 34 23.9663 34H24.0337C25.6719 34 27 35.3281 27 36.9663C27 38.6045 25.6719 39.9326 24.0337 39.9326H23.9663C22.3281 39.9326 21 38.6045 21 36.9663Z" fill="#333333"/>
</g>
<defs>
<clipPath id="clip0">
<rect width="48" height="48" fill="white"/>
</clipPath>
</defs>
</svg>
