<svg width="48" height="48" viewBox="0 0 48 48" fill="none" xmlns="http://www.w3.org/2000/svg">
<path fill-rule="evenodd" clip-rule="evenodd" d="M48 0H0V48H48V0ZM24 44C35.0457 44 44 35.0457 44 24C44 12.9543 35.0457 4 24 4C12.9543 4 4 12.9543 4 24C4 35.0457 12.9543 44 24 44ZM24 9C22.3431 9 21 10.3431 21 12V28C21 29.6569 22.3431 31 24 31C25.6569 31 27 29.6569 27 28V12C27 10.3431 25.6569 9 24 9ZM21 36C21 34.3431 22.3431 33 24 33C25.6569 33 27 34.3431 27 36C27 37.6569 25.6569 39 24 39C22.3431 39 21 37.6569 21 36Z" fill="#333333"/>
</svg>
