<svg width="48" height="48" viewBox="0 0 48 48" fill="none" xmlns="http://www.w3.org/2000/svg">
<path d="M15 24V26H17V24H15Z" fill="#333333"/>
<path d="M23 24H25V26H23V24Z" fill="#333333"/>
<path d="M31 24V26H33V24H31Z" fill="#333333"/>
<path d="M15 34V32H17V34H15Z" fill="#333333"/>
<path d="M25 32H23V34H25V32Z" fill="#333333"/>
<path d="M31 34V32H33V34H31Z" fill="#333333"/>
<path fill-rule="evenodd" clip-rule="evenodd" d="M10 20V37C10 38.1046 10.8954 39 12 39H36C37.1046 39 38 38.1046 38 37V20H10ZM15 22C13.8954 22 13 22.8954 13 24V26C13 27.1046 13.8954 28 15 28H17C18.1046 28 19 27.1046 19 26V24C19 22.8954 18.1046 22 17 22H15ZM21 24C21 22.8954 21.8954 22 23 22H25C26.1046 22 27 22.8954 27 24V26C27 27.1046 26.1046 28 25 28H23C21.8954 28 21 27.1046 21 26V24ZM31 22C29.8954 22 29 22.8954 29 24V26C29 27.1046 29.8954 28 31 28H33C34.1046 28 35 27.1046 35 26V24C35 22.8954 34.1046 22 33 22H31ZM13 32C13 30.8954 13.8954 30 15 30H17C18.1046 30 19 30.8954 19 32V34C19 35.1046 18.1046 36 17 36H15C13.8954 36 13 35.1046 13 34V32ZM23 30C21.8954 30 21 30.8954 21 32V34C21 35.1046 21.8954 36 23 36H25C26.1046 36 27 35.1046 27 34V32C27 30.8954 26.1046 30 25 30H23ZM29 32C29 30.8954 29.8954 30 31 30H33C34.1046 30 35 30.8954 35 32V34C35 35.1046 34.1046 36 33 36H31C29.8954 36 29 35.1046 29 34V32Z" fill="#333333"/>
<path fill-rule="evenodd" clip-rule="evenodd" d="M0 0H48V48H0V0ZM15 6C15 5.44772 15.4477 5 16 5C16.5523 5 17 5.44772 17 6V12C17 12.5523 17.4477 13 18 13C18.5523 13 19 12.5523 19 12V9H31V6C31 5.44772 31.4477 5 32 5C32.5523 5 33 5.44772 33 6V12C33 12.5523 33.4477 13 34 13C34.5523 13 35 12.5523 35 12V9H36C38.2091 9 40 10.7909 40 13V37C40 39.2091 38.2091 41 36 41H12C9.79086 41 8 39.2091 8 37V13C8 10.7909 9.79086 9 12 9H15V6Z" fill="#333333"/>
</svg>
