<svg width="48" height="48" viewBox="0 0 48 48" fill="none" xmlns="http://www.w3.org/2000/svg">
<path fill-rule="evenodd" clip-rule="evenodd" d="M48 0H0V48H48V0ZM16 4C14.3431 4 13 5.34315 13 7H10C7.79086 7 6 8.79086 6 11V20.9883L13.6326 20.9886L17.0207 14.9653L19.1377 22.375L21.7284 19.0441H27.2175C27.7698 19.0441 28.2175 19.4918 28.2175 20.0441C28.2175 20.5964 27.7698 21.0441 27.2175 21.0441H22.7065L18.2972 26.7133L16.4142 20.1229L14.8023 22.9886L6 22.9883V39C6 41.2091 7.79086 43 10 43H30C32.2091 43 34 41.2091 34 39V11C34 8.79086 32.2091 7 30 7H27C27 5.34315 25.6569 4 24 4H16ZM15 7C15 6.44772 15.4477 6 16 6H24C24.5523 6 25 6.44772 25 7V9C25 9.55228 24.5523 10 24 10H16C15.4477 10 15 9.55228 15 9V7ZM12 30C11.4477 30 11 30.4477 11 31C11 31.5523 11.4477 32 12 32H28C28.5523 32 29 31.5523 29 31C29 30.4477 28.5523 30 28 30H12ZM14 36C14 35.4477 14.4477 35 15 35H25C25.5523 35 26 35.4477 26 36C26 36.5523 25.5523 37 25 37H15C14.4477 37 14 36.5523 14 36ZM43 20H37V38L40 42L43 38V20ZM39 13H41C42.1046 13 43 13.8954 43 15V19H37V15C37 13.8954 37.8954 13 39 13Z" fill="#333333"/>
</svg>
