<svg width="48" height="48" viewBox="0 0 48 48" fill="none" xmlns="http://www.w3.org/2000/svg">
<path fill-rule="evenodd" clip-rule="evenodd" d="M27.1902 13.3946L25.3454 15.4444L29.7433 20.331L28.2567 21.669L24 16.9393L19.7433 21.669L18.2567 20.331L22.6547 15.4444L20.8098 13.3946C19.5834 12.0319 19.6382 9.94762 20.9345 8.65125C21.3515 8.23426 21.9171 8 22.5068 8H25.4932C26.0829 8 26.6485 8.23426 27.0655 8.65125C28.3618 9.94762 28.4167 12.0319 27.1902 13.3946ZM22.3488 10.0655C22.3907 10.0235 22.4475 10 22.5068 10H25.4932C25.5525 10 25.6093 10.0235 25.6513 10.0655C26.1955 10.6097 26.2185 11.4846 25.7036 12.0567L24 13.9496L22.2964 12.0567C21.7815 11.4846 21.8046 10.6097 22.3488 10.0655Z" fill="#333333"/>
<path fill-rule="evenodd" clip-rule="evenodd" d="M48 0H0V48H48V0ZM8.48912 4H39.5109C43.1579 12.7199 45.0092 19.6735 45 26.0571C44.991 32.2955 43.2062 37.9014 39.7449 44H25V32.3848L33.1924 24.1924L31.7782 22.7782L24 30.5563L16.2218 22.7782L14.8076 24.1924L23 32.3848V44H8.25507C4.79383 37.9014 3.00903 32.2955 3.00003 26.0571C2.99083 19.6735 4.84214 12.7199 8.48912 4Z" fill="#333333"/>
</svg>
