<svg width="48" height="48" viewBox="0 0 48 48" fill="none" xmlns="http://www.w3.org/2000/svg">
<path fill-rule="evenodd" clip-rule="evenodd" d="M39.5109 4H8.48912C4.84214 12.7199 2.99083 19.6735 3.00003 26.0571C3.00903 32.2955 4.79383 37.9014 8.25507 44H10.5671H23V32.3848L14.8076 24.1924L16.2218 22.7782L24 30.5563L31.7782 22.7782L33.1924 24.1924L25 32.3848V44H37.4329H39.7449C43.2062 37.9014 44.991 32.2955 45 26.0571C45.0092 19.6735 43.1579 12.7199 39.5109 4ZM22.5068 10C22.4475 10 22.3907 10.0235 22.3488 10.0655C21.8046 10.6097 21.7815 11.4846 22.2964 12.0567L24 13.9496L25.7036 12.0567C26.2185 11.4846 26.1955 10.6097 25.6513 10.0655C25.6093 10.0235 25.5525 10 25.4932 10H22.5068ZM25.3454 15.4444L27.1902 13.3946C28.4167 12.0319 28.3618 9.94762 27.0655 8.65125C26.6485 8.23426 26.0829 8 25.4932 8H22.5068C21.9171 8 21.3515 8.23426 20.9345 8.65125C19.6382 9.94762 19.5834 12.0319 20.8098 13.3946L22.6547 15.4444L18.2567 20.331L19.7433 21.669L24 16.9393L28.2567 21.669L29.7433 20.331L25.3454 15.4444Z" fill="#82FF9D"/>
</svg>
