<svg width="48" height="48" viewBox="0 0 48 48" fill="none" xmlns="http://www.w3.org/2000/svg">
<path fill-rule="evenodd" clip-rule="evenodd" d="M48 0H0V48H48V0ZM18 2H3V9H19C19.5523 9 20 9.44772 20 10V12H25H27H28C28 6.47715 23.5228 2 18 2ZM30 13H18V17H30V13ZM14 35C14 26 24 19 24 19C24 19 34 26 34 35C34 37.6522 32.9464 40.1957 31.0711 42.0711C29.1957 43.9464 26.6522 45 24 45C21.3478 45 18.8043 43.9464 16.9289 42.0711C15.0536 40.1957 14 37.6522 14 35ZM24 26C24 26.5523 23.5523 27 23 27C22.4477 27 22 26.5523 22 26C22 25.4477 22.4477 25 23 25C23.5523 25 24 25.4477 24 26ZM29 30C29 30.5523 28.5523 31 28 31C27.4477 31 27 30.5523 27 30C27 29.4477 27.4477 29 28 29C28.5523 29 29 29.4477 29 30ZM26 40C26.5523 40 27 39.5523 27 39C27 38.4477 26.5523 38 26 38C25.4477 38 25 38.4477 25 39C25 39.5523 25.4477 40 26 40ZM21 33C20.4477 33 20 32.5523 20 32C20 30.3431 21.3431 29 23 29C23.5523 29 24 29.4477 24 30C24 30.5523 23.5523 31 23 31C22.4477 31 22 31.4477 22 32C22 32.5523 21.5523 33 21 33ZM26.2236 33.1021C25.6902 33.245 25.3736 33.7934 25.5165 34.3268C25.6595 34.8603 26.2078 35.1769 26.7413 35.0339C27.2747 34.891 27.8231 35.2076 27.966 35.741C28.1089 36.2745 28.6573 36.5911 29.1907 36.4482C29.7242 36.3052 30.0408 35.7569 29.8979 35.2234C29.469 33.623 27.824 32.6733 26.2236 33.1021ZM23 38C23 38.5523 22.5523 39 22 39C20.3431 39 19 37.6569 19 36C19 35.4477 19.4477 35 20 35C20.5523 35 21 35.4477 21 36C21 36.5523 21.4477 37 22 37C22.5523 37 23 37.4477 23 38Z" fill="#333333"/>
</svg>
