<svg width="48" height="48" viewBox="0 0 48 48" fill="none" xmlns="http://www.w3.org/2000/svg">
<path d="M15 7C15 6.44772 15.4477 6 16 6H24C24.5523 6 25 6.44772 25 7V9C25 9.55228 24.5523 10 24 10H16C15.4477 10 15 9.55228 15 9V7Z" fill="#333333"/>
<path d="M12 27C12 26.4477 12.4477 26 13 26H27C27.5523 26 28 26.4477 28 27C28 27.5523 27.5523 28 27 28H13C12.4477 28 12 27.5523 12 27Z" fill="#333333"/>
<path d="M13 31C12.4477 31 12 31.4477 12 32C12 32.5523 12.4477 33 13 33H27C27.5523 33 28 32.5523 28 32C28 31.4477 27.5523 31 27 31H13Z" fill="#333333"/>
<path d="M12 37C12 36.4477 12.4477 36 13 36H23C23.5523 36 24 36.4477 24 37C24 37.5523 23.5523 38 23 38H13C12.4477 38 12 37.5523 12 37Z" fill="#333333"/>
<path d="M17 15.9995C17 15.4472 16.5523 14.9995 16 14.9995C15.4477 14.9995 15 15.4472 15 15.9995V18H13C12.4477 18 12 18.4477 12 19C12 19.5523 12.4477 20 13 20H15V21.9998C15 22.552 15.4477 22.9998 16 22.9998C16.5523 22.9998 17 22.552 17 21.9998V20H19C19.5523 20 20 19.5523 20 19C20 18.4477 19.5523 18 19 18H17V15.9995Z" fill="#333333"/>
<path fill-rule="evenodd" clip-rule="evenodd" d="M48 0H0V48H48V0ZM16 4C14.3431 4 13 5.34315 13 7H10C7.79086 7 6 8.79086 6 11V39C6 41.2091 7.79086 43 10 43H30C32.2091 43 34 41.2091 34 39V11C34 8.79086 32.2091 7 30 7H27C27 5.34315 25.6569 4 24 4H16ZM41 13C42.1046 13 43 13.8954 43 15V19H37V15C37 13.8954 37.8954 13 39 13H41ZM37 38L40 42L43 38V20H37V38Z" fill="#333333"/>
</svg>
