<svg width="48" height="48" viewBox="0 0 48 48" fill="none" xmlns="http://www.w3.org/2000/svg">
<path d="M19 7C19 6.44772 19.4477 6 20 6H28C28.5523 6 29 6.44772 29 7V9C29 9.55228 28.5523 10 28 10H20C19.4477 10 19 9.55228 19 9V7Z" fill="#333333"/>
<path d="M16 27C16 26.4477 16.4477 26 17 26H31C31.5523 26 32 26.4477 32 27C32 27.5523 31.5523 28 31 28H17C16.4477 28 16 27.5523 16 27Z" fill="#333333"/>
<path d="M17 31C16.4477 31 16 31.4477 16 32C16 32.5523 16.4477 33 17 33H31C31.5523 33 32 32.5523 32 32C32 31.4477 31.5523 31 31 31H17Z" fill="#333333"/>
<path d="M16 37C16 36.4477 16.4477 36 17 36H27C27.5523 36 28 36.4477 28 37C28 37.5523 27.5523 38 27 38H17C16.4477 38 16 37.5523 16 37Z" fill="#333333"/>
<path d="M21 15.9995C21 15.4472 20.5523 14.9995 20 14.9995C19.4477 14.9995 19 15.4472 19 15.9995V18H17C16.4477 18 16 18.4477 16 19C16 19.5523 16.4477 20 17 20H19V21.9998C19 22.552 19.4477 22.9998 20 22.9998C20.5523 22.9998 21 22.552 21 21.9998V20H23C23.5523 20 24 19.5523 24 19C24 18.4477 23.5523 18 23 18H21V15.9995Z" fill="#333333"/>
<path fill-rule="evenodd" clip-rule="evenodd" d="M48 0H0V48H48V0ZM20 4C18.3431 4 17 5.34315 17 7H14C11.7909 7 10 8.79086 10 11V39C10 41.2091 11.7909 43 14 43H34C36.2091 43 38 41.2091 38 39V11C38 8.79086 36.2091 7 34 7H31C31 5.34315 29.6569 4 28 4H20Z" fill="#333333"/>
</svg>
