<svg width="48" height="48" viewBox="0 0 48 48" fill="none" xmlns="http://www.w3.org/2000/svg">
<path fill-rule="evenodd" clip-rule="evenodd" d="M48 0H0V48H48V0ZM24 37.5C34.4934 37.5 43 31.1201 43 23.25C43 15.3799 34.4934 9 24 9C13.5066 9 5 15.3799 5 23.25C5 26.4375 6.39541 29.3806 8.75307 31.7543C7.74857 34.615 6.43203 36.7233 5.65498 37.8239C5.40859 38.1729 5.65681 38.6695 6.08285 38.6383C8.03017 38.4959 12.1776 37.9411 14.9443 35.7804C17.6363 36.8771 20.7211 37.5 24 37.5ZM26 23C26 24.1046 25.1046 25 24 25C22.8954 25 22 24.1046 22 23C22 21.8954 22.8954 21 24 21C25.1046 21 26 21.8954 26 23ZM31 25C32.1046 25 33 24.1046 33 23C33 21.8954 32.1046 21 31 21C29.8954 21 29 21.8954 29 23C29 24.1046 29.8954 25 31 25ZM19 23C19 24.1046 18.1046 25 17 25C15.8954 25 15 24.1046 15 23C15 21.8954 15.8954 21 17 21C18.1046 21 19 21.8954 19 23Z" fill="#333333"/>
</svg>
