<svg width="48" height="48" viewBox="0 0 48 48" fill="none" xmlns="http://www.w3.org/2000/svg">
<path fill-rule="evenodd" clip-rule="evenodd" d="M0 0H48V48H0V0ZM36.0013 37.4155C32.8166 40.2664 28.6107 42 24 42C14.0589 42 6 33.9411 6 24C6 19.3893 7.73359 15.1834 10.5845 11.9987L36.0013 37.4155ZM37.4155 36.0013L11.9987 10.5845C15.1834 7.73359 19.3893 6 24 6C33.9411 6 42 14.0589 42 24C42 28.6107 40.2664 32.8166 37.4155 36.0013ZM44 24C44 35.0457 35.0457 44 24 44C12.9543 44 4 35.0457 4 24C4 12.9543 12.9543 4 24 4C35.0457 4 44 12.9543 44 24ZM34.3603 13.9166C32.9174 12.4736 30.2854 12.7661 28.4817 14.5698C26.678 16.3735 26.3856 19.0054 27.8285 20.4484L27.8514 20.4711L28.2826 24.084C28.3103 24.3163 28.2615 24.5256 28.162 24.6988L29.5958 26.1326C30.0953 25.5462 30.3768 24.7552 30.2685 23.847L29.9717 21.3599C31.2223 21.4243 32.6162 20.8862 33.7072 19.7952C35.5109 17.9915 35.8033 15.3596 34.3603 13.9166ZM19.1403 25.4739C18.9356 24.5857 19.1231 23.781 19.5439 23.1517L21.0677 24.6755C21.0552 24.7858 21.0612 24.9028 21.0892 25.0246L21.8566 28.3531C22.4845 31.0769 19.3741 33.1037 17.136 31.4291L16.4212 30.8943C15.6933 30.3496 14.6751 30.9803 14.8384 31.8746L15.1276 33.4582L13.1601 33.8175L12.871 32.2339C12.381 29.5508 15.4356 27.6589 17.6194 29.2929L18.3342 29.8277C19.0802 30.3859 20.117 29.7103 19.9077 28.8024L19.1403 25.4739Z" fill="#333333"/>
</svg>
