<svg width="48" height="48" viewBox="0 0 48 48" fill="none" xmlns="http://www.w3.org/2000/svg">
<path fill-rule="evenodd" clip-rule="evenodd" d="M0 0H48V48H0V0ZM33.4931 35.6144C30.9073 37.7305 27.6019 39 24 39C15.7157 39 9 32.2843 9 24C9 20.3981 10.2695 17.0927 12.3856 14.5069L33.4931 35.6144ZM35.6144 33.4931L14.5069 12.3856C17.0927 10.2695 20.3981 9 24 9C32.2843 9 39 15.7157 39 24C39 27.6019 37.7305 30.9073 35.6144 33.4931ZM42 24C42 33.9411 33.9411 42 24 42C14.0589 42 6 33.9411 6 24C6 14.0589 14.0589 6 24 6C33.9411 6 42 14.0589 42 24ZM33.258 14.9302C31.9689 13.6411 29.6177 13.9024 28.0064 15.5137C26.4391 17.081 26.1491 19.3483 27.3206 20.6573L27.6535 23.4472C27.679 23.6611 27.6397 23.8555 27.5557 24.0201L28.9963 25.4606C29.4773 24.8779 29.7457 24.1004 29.6394 23.2102L29.4453 21.5835C30.5342 21.6058 31.7312 21.1252 32.6745 20.1818C34.2858 18.5705 34.5471 16.2193 33.258 14.9302ZM19.714 25.958C19.5103 25.0746 19.6947 24.2739 20.1107 23.6461L21.6397 25.1751C21.6295 25.2808 21.6361 25.3926 21.6629 25.5087L22.0991 27.401C22.714 30.0683 19.6682 32.053 17.4766 30.4131C16.794 29.9024 15.8392 30.4937 15.9923 31.3324L16.1815 32.3684L14.2141 32.7277L14.0249 31.6916C13.5451 29.0643 16.5363 27.2117 18.6747 28.8117C19.3743 29.3352 20.3465 28.7017 20.1502 27.8503L19.714 25.958Z" fill="#333333"/>
</svg>
