<svg width="48" height="48" viewBox="0 0 48 48" fill="none" xmlns="http://www.w3.org/2000/svg">
<path fill-rule="evenodd" clip-rule="evenodd" d="M0 0H48V48H0V0ZM12.8103 35.322C12.9033 35.3256 13.0128 35.3278 13.1412 35.3277C14.1824 35.3268 15.1435 35.5764 15.9488 36.139C16.7489 36.6979 17.2291 37.4498 17.5152 38.1689C17.9394 39.235 18.0063 40.4393 18.0165 41.292C18.1875 41.3426 18.4319 41.3995 18.7686 41.4506C20.0652 41.6475 21.8834 41.6512 23.9925 41.6495C26.1016 41.6478 27.9198 41.641 29.2161 41.442C29.5527 41.3903 29.797 41.3331 29.9679 41.2822C29.9767 40.4295 30.0416 39.2251 30.4641 38.1583C30.749 37.4388 31.2279 36.6861 32.0271 36.1258C32.8315 35.5619 33.7922 35.3108 34.8335 35.3099C34.9618 35.3098 35.0713 35.3074 35.1643 35.3037C35.1661 35.1788 35.1655 35.0333 35.1626 34.8614C35.1596 34.6766 35.1534 34.4537 35.1463 34.2019C35.1317 33.6772 35.1136 33.0271 35.1131 32.3356C35.1113 30.1321 35.8676 28.8693 36.4421 27.9102L36.4422 27.9101L36.4425 27.9095C36.5655 27.7042 36.6801 27.5128 36.7772 27.329C37.3002 26.3387 37.9786 24.6482 37.9749 20.1241C37.9714 15.9114 36.2515 12.8604 33.7133 10.8211C31.125 8.74154 27.589 7.64653 23.9646 7.6495C20.3403 7.65247 16.8061 8.75327 14.2212 10.8371C11.6863 12.8805 9.97141 15.9343 9.97488 20.147C9.9786 24.6711 10.6597 26.3605 11.1844 27.3499C11.2818 27.5337 11.3969 27.7252 11.5204 27.9306C12.0964 28.8888 12.8548 30.1503 12.8567 32.3538C12.8572 33.0453 12.8402 33.6954 12.8265 34.2202L12.8264 34.2206L12.8264 34.2215L12.8264 34.2218C12.8198 34.473 12.814 34.6953 12.8112 34.8797C12.8087 35.0516 12.8083 35.1972 12.8103 35.322ZM10.8283 34.1163C10.7599 36.6982 10.7432 37.3297 13.1428 37.3277C16.0146 37.3253 16.0168 40.0385 16.0183 41.8473C16.0198 43.656 19.8916 43.6528 23.9941 43.6495C28.0966 43.6461 31.9685 43.643 31.967 41.8342C31.9655 40.0254 31.9633 37.3123 34.8351 37.3099C37.2347 37.308 37.2169 36.6765 37.1443 34.0947V34.0947V34.0946C37.13 33.5866 37.1136 33.0031 37.1131 32.334C37.1118 30.7238 37.5607 29.9627 38.1033 29.0427C38.9321 27.6374 39.9795 25.8614 39.9749 20.1224C39.9591 0.807713 7.95897 0.833923 7.97488 20.1486C7.9796 25.8876 9.02995 27.6619 9.86108 29.0658C10.4052 29.9849 10.8553 30.7453 10.8567 32.3555C10.8572 33.0246 10.8418 33.6081 10.8283 34.1162L10.8283 34.1163ZM17.7631 32.2272C20.2177 32.2253 22.2057 30.0918 22.2034 27.4619C22.2011 24.832 20.2094 22.7015 17.7548 22.7034C15.3002 22.7053 13.3122 24.8388 13.3145 27.4687C13.3168 30.0986 15.3085 32.2291 17.7631 32.2272ZM34.6474 27.4503C34.6494 30.0802 32.6613 32.2139 30.2067 32.216C27.7521 32.2181 25.7606 30.0879 25.7585 27.4579C25.7564 24.828 27.7446 22.6943 30.1992 22.6922C32.6538 22.6901 34.6453 24.8203 34.6474 27.4503ZM25.3963 38.6483C26.3174 38.6476 26.9894 37.8175 26.9886 36.9229C26.987 34.9258 23.986 33.6495 23.986 33.6495C23.986 33.6495 20.9871 35.0131 20.9886 36.9278C20.9894 37.8222 21.6626 38.6514 22.5838 38.6506C23.223 38.6501 23.697 38.2775 23.9893 37.7493C24.2825 38.2771 24.7571 38.6488 25.3963 38.6483Z" fill="#333333"/>
</svg>
