<svg width="48" height="48" viewBox="0 0 48 48" fill="none" xmlns="http://www.w3.org/2000/svg">
<path fill-rule="evenodd" clip-rule="evenodd" d="M0 0H48V48H0V0ZM16.1898 24.5803C16.2924 24.5871 16.4248 24.5919 16.5939 24.5917C17.4211 24.5911 18.2211 24.7708 18.9158 25.2135C19.6177 25.6607 20.0534 26.2754 20.3143 26.8736C20.6017 27.5325 20.7009 28.2474 20.7348 28.821C21.4539 28.9137 22.5063 28.9184 23.9821 28.9172C25.4579 28.916 26.5102 28.9095 27.2291 28.8156C27.2621 28.242 27.3602 27.527 27.6465 26.8676C27.9064 26.2689 28.3411 25.6536 29.0422 25.2052C29.7362 24.7613 30.5359 24.5803 31.3631 24.5796C31.5322 24.5795 31.6647 24.5745 31.7672 24.5675C31.8058 24.264 31.824 23.8283 31.8235 23.1759C31.8221 21.4222 32.5312 20.3557 32.9598 19.711L32.9599 19.711L32.9602 19.7104C33.0417 19.5879 33.113 19.4806 33.1674 19.3867C33.4834 18.8409 33.973 17.8191 33.9705 14.8205C33.9684 12.2073 32.8151 10.3082 31.0322 9.00145C29.1911 7.65207 26.6294 6.91503 23.964 6.91721C21.2987 6.91939 18.7382 7.66063 16.8994 9.01303C15.1186 10.3227 13.9684 12.2237 13.9705 14.8369C13.973 17.8354 14.4643 18.8565 14.7812 19.4018C14.8358 19.4957 14.9074 19.6031 14.9893 19.7257C15.4189 20.3697 16.1298 21.435 16.1312 23.1887C16.1318 23.8412 16.1507 24.2768 16.1898 24.5803ZM14.1312 23.1904C14.1335 25.975 14.4417 26.5935 16.5955 26.5917C18.7494 26.59 18.7509 28.4463 18.7519 29.6839C18.7529 30.9215 20.9068 30.9197 23.9837 30.9172C27.0606 30.9147 29.2145 30.9129 29.2135 29.6753C29.2124 28.4378 29.2109 26.5814 31.3648 26.5796C33.5186 26.5779 33.8258 25.9588 33.8235 23.1743C33.8226 22.0726 34.1594 21.5518 34.5663 20.9223C35.188 19.9608 35.9737 18.7456 35.9705 14.8189C35.9598 1.60355 11.9596 1.62321 11.9705 14.8385C11.9738 18.7652 12.7614 19.9791 13.3847 20.9397C13.7927 21.5685 14.1303 22.0887 14.1312 23.1904ZM19.9796 23.2277C21.3603 23.2266 22.4787 22.1064 22.4776 20.7257C22.4764 19.345 21.3562 18.2266 19.9755 18.2277C18.5948 18.2288 17.4764 19.3491 17.4776 20.7298C17.4787 22.1105 18.5989 23.2288 19.9796 23.2277ZM30.4776 20.7191C30.4787 22.0998 29.3603 23.22 27.9796 23.2212C26.5989 23.2223 25.4787 22.1039 25.4776 20.7232C25.4764 19.3425 26.5948 18.2223 27.9755 18.2212C29.3562 18.22 30.4764 19.3384 30.4776 20.7191ZM9.37414 33.9292L20.4152 37.4681L9.37996 41.0251L9.99353 42.9287L23.6839 38.5158L37.3815 42.9062L37.992 41.0017L26.9509 37.4627L37.9862 33.9057L37.3726 32.0022L23.6822 36.415L9.9846 32.0246L9.37414 33.9292Z" fill="#333333"/>
</svg>
