<svg width="48" height="48" viewBox="0 0 48 48" fill="none" xmlns="http://www.w3.org/2000/svg">
<path fill-rule="evenodd" clip-rule="evenodd" d="M0 0H48V48H0V0ZM8.05654 23.9707L6.86381 24.7066C5.64456 25.4588 5.58841 27.2114 6.75701 28.0401L22.8484 39.4514C23.5388 39.941 24.4626 39.943 25.1551 39.4564L41.3962 28.0455C42.5744 27.2177 42.5181 25.4536 41.2895 24.7026L39.8479 23.8214L38.0784 25.0838L40.2464 26.409L24.0054 37.82L7.91394 26.4087L9.84308 25.2185L8.05654 23.9707ZM33.4418 22.2497L24.0049 16.4814L14.4796 22.358L12.693 21.1102L22.9547 14.7792C23.596 14.3836 24.4051 14.382 25.0479 14.7749L35.2113 20.9873L33.4418 22.2497ZM7.91394 19.4086L24.0049 9.48131L40.2464 19.409L24.0054 30.8199L7.91394 19.4086ZM6.75702 21.0401C5.58841 20.2113 5.64456 18.4587 6.86381 17.7065L22.9547 7.77919C23.596 7.38359 24.4051 7.38191 25.0479 7.77486L41.2895 17.7025C42.5181 18.4535 42.5744 20.2176 41.3962 21.0454L25.1551 32.4564C24.4626 32.943 23.5388 32.9409 22.8484 32.4514L6.75702 21.0401Z" fill="#333333"/>
</svg>
