<svg width="49" height="48" viewBox="0 0 49 48" fill="none" xmlns="http://www.w3.org/2000/svg">
<g clip-path="url(#clip0)">
<path fill-rule="evenodd" clip-rule="evenodd" d="M0.997803 0H48.9978V48H0.997803V0ZM13.9504 4.33555C12.2936 4.33691 10.9515 5.68116 10.9529 7.33801L10.9734 32.338C10.9747 33.9949 12.319 35.3369 13.9758 35.3355L18.7258 35.3317C18.8114 35.3316 18.8951 35.3229 18.9758 35.3064L18.9816 42.3314L18.9832 44.3314L20.9832 44.3298L28.9832 44.3232L30.9832 44.3216L30.9816 42.3216L30.9758 35.2966C31.0566 35.3129 31.1402 35.3215 31.2258 35.3214L35.9758 35.3175C37.6327 35.3162 38.9747 33.9719 38.9734 32.3151L38.9529 7.31508C38.9515 5.65822 37.6073 4.31618 35.9504 4.31753L13.9504 4.33555ZM33.9537 8.31914L15.9537 8.33388L15.9684 26.3339L33.9684 26.3191L33.9537 8.31914ZM16.9714 29.8331C16.971 29.2808 17.4183 28.8327 17.9706 28.8322L21.9705 28.829C22.5228 28.8285 22.9708 29.2759 22.9713 29.8281C22.9717 30.3804 22.5244 30.8285 21.9721 30.829L17.9722 30.8322C17.42 30.8327 16.9719 30.3853 16.9714 29.8331ZM27.9706 28.8241C27.4183 28.8245 26.971 29.2726 26.9714 29.8249C26.9719 30.3772 27.42 30.8245 27.9722 30.824L31.9721 30.8208C32.5244 30.8203 32.9717 30.3722 32.9713 29.82C32.9708 29.2677 32.5228 28.8203 31.9705 28.8208L27.9706 28.8241ZM24.9652 22.3911C27.2052 22.3893 28.9639 20.7117 28.9621 18.5783C28.9605 16.5974 24.9565 11.7245 24.9565 11.7245C24.9565 11.7245 20.9604 16.4515 20.9621 18.5849C20.9639 20.7182 22.7252 22.393 24.9652 22.3911ZM28.9742 33.3232L20.9742 33.3298L20.9816 42.3298L28.9816 42.3232L28.9742 33.3232ZM24.9799 40.3265C26.0845 40.3256 26.9792 39.4294 26.9783 38.3249C26.9774 37.2203 26.0812 36.3256 24.9767 36.3265C23.8721 36.3274 22.9774 37.2236 22.9783 38.3281C22.9792 39.4327 23.8754 40.3274 24.9799 40.3265Z" fill="#333333"/>
</g>
<defs>
<clipPath id="clip0">
<rect width="48" height="48" fill="white" transform="translate(0.997803)"/>
</clipPath>
</defs>
</svg>
