<svg width="48" height="48" viewBox="0 0 48 48" fill="none" xmlns="http://www.w3.org/2000/svg">
<path fill-rule="evenodd" clip-rule="evenodd" d="M48 0H0V48H48V0ZM43.546 24.7562C44.0137 24.4382 44.1418 23.8085 43.8279 23.3378L42.5722 21.4678C40.7656 18.7773 37.7481 17.1745 34.4936 17.1745H19.3998L14.1977 12.0098C15.4854 10.7313 15.6456 8.75955 14.6782 7.30936C14.4604 6.97862 13.9863 6.93409 13.7044 7.21396L11.0265 9.87264L8.27811 7.15035C8.04747 6.92137 7.66308 6.95954 7.4837 7.22668C6.69569 8.40973 6.82382 10.0253 7.87449 11.0684C8.06343 11.256 8.28819 11.3775 8.51676 11.5011C8.54395 11.5158 8.57119 11.5306 8.59843 11.5454C8.56193 11.5734 8.52414 11.6002 8.48629 11.6269C8.37797 11.7035 8.26912 11.7805 8.18841 11.8889L3.40915 18.2049C2.94147 18.8218 2.871 19.6487 3.21695 20.3356L4.13309 22.1547C4.47904 22.8417 5.19016 23.2805 5.96535 23.2805H7.95137C8.49593 23.2805 9.01486 23.0643 9.39925 22.6827L11.8401 20.4819L15.2997 27.3513V41H20.0698V29.9859H34.4936V41H37.8506L40.4196 31.7014L37.8506 22.4028C38.7313 23.0612 38.9615 23.4083 39.8644 24.7691C40.0255 25.0119 40.2081 25.2871 40.4196 25.6021C40.7336 26.0728 41.3678 26.1936 41.8419 25.882L43.546 24.7562Z" fill="#333333"/>
</svg>
