<svg width="48" height="48" viewBox="0 0 48 48" fill="none" xmlns="http://www.w3.org/2000/svg">
<path fill-rule="evenodd" clip-rule="evenodd" d="M48 0H0V48H48V0ZM22.621 9.04725C20.5234 7.15414 17.6938 6 14.7692 6C8.7345 6 4 10.6778 4 16.6404C4 20.3045 5.6632 23.6688 8.69183 27.3273C11.7264 30.993 16.0777 34.8917 21.3702 39.6334L21.3709 39.6341L24.0013 42L26.6294 39.654L26.6846 39.6046C31.9521 34.875 36.284 30.9855 39.3081 27.33C42.3368 23.6689 44 20.3045 44 16.6404C44 10.6778 39.2655 6 33.2308 6C30.3062 6 27.4766 7.15414 25.379 9.04725C25.028 9.36404 24.6975 9.70151 24.3905 10.0577L24 10.5107L23.6095 10.0577C23.3025 9.70151 22.972 9.36404 22.621 9.04725ZM32 12.8438V26.198C32 28.2071 31.1278 29.6037 29.7127 30.1834C28.3926 30.7241 26.8529 30.4427 25.6624 29.7199C25.2129 29.4469 24.742 29.1058 24.3375 28.6972C24.3373 28.6132 24.3393 28.5712 24.3393 28.5712C24.2951 27.0091 24.5301 25.8514 24.8682 24.9908C25.4508 23.508 26.3897 22.7755 27.0547 22.3322C27.5142 22.0258 27.6384 21.4049 27.332 20.9454C27.0257 20.4859 26.4048 20.3617 25.9453 20.6681C25.1103 21.2247 23.7992 22.2422 23.0067 24.2595C22.612 25.2643 22.359 26.4832 22.3358 27.971C21.4253 28.2224 20.4722 28.2323 19.5428 28.0355C18.6461 27.8456 17.7644 27.4369 17.0959 26.7502C16.4116 26.0471 16 25.1005 16 23.9584C16 22.3146 16.5875 21.1265 17.6358 20.2589C18.6065 19.4554 19.9228 18.9743 21.2546 18.5433C21.5669 18.4422 21.8861 18.342 22.2109 18.24C24.7495 17.443 27.6352 16.537 30.3541 14.2365L32 12.8438ZM24.3375 28.6972C24.3388 29.0967 24.3926 30.4476 24.9701 32.7577C25.1041 33.2935 24.7783 33.8364 24.2425 33.9704C23.7067 34.1043 23.1638 33.7785 23.0299 33.2428C22.5172 31.1922 22.3141 29.4575 22.3355 27.9856C22.7447 27.8853 23.0109 27.7623 23.3497 27.5813C23.3981 27.5554 23.448 27.5283 23.5 27.5C23.6937 27.9482 23.9913 28.3474 24.3375 28.6972Z" fill="#333333"/>
</svg>
