<svg width="48" height="48" viewBox="0 0 48 48" fill="none" xmlns="http://www.w3.org/2000/svg">
<path fill-rule="evenodd" clip-rule="evenodd" d="M48 0H0V48H48V0ZM15.5625 7C10.0359 7 6 12.6409 6 18.7241C6 32.3045 24 41 24 41C24 41 42 31.7444 42 18.7241C42 12.6419 37.9647 7 32.4375 7C28.6022 7 25.7565 9.53111 24 13.1211C22.2434 9.53088 19.3976 7 15.5625 7ZM24.672 28.3615C24.8717 27.8466 24.6161 27.2673 24.1012 27.0676C23.588 26.8687 23.011 27.1218 22.8094 27.6331C23.2008 26.6243 23.7926 25.4424 24.6363 23.9961C24.9146 23.5191 25.5269 23.3579 26.0039 23.6362C26.481 23.9145 26.6421 24.5268 26.3638 25.0039C25.4325 26.6005 24.8762 27.7708 24.558 28.6686C24.5931 28.5695 24.631 28.4672 24.672 28.3615ZM17 24.9585C17 27.8912 20.4287 28.7382 22.7432 27.8071C22.1753 29.3316 22.0827 30.4439 22.2543 31.4841C22.339 31.9968 22.4836 32.4644 22.6237 32.8976L22.6838 33.0828C22.8067 33.4603 22.9253 33.8245 23.0298 34.2425C23.1637 34.7783 23.7067 35.1041 24.2425 34.9701C24.7783 34.8362 25.104 34.2933 24.9701 33.7575C24.8473 33.2664 24.7056 32.8315 24.5831 32.4556L24.5267 32.2823C24.3889 31.8562 24.2859 31.5116 24.2276 31.1585C24.1394 30.6236 24.1418 29.9971 24.4334 29.045C25.9605 30.7919 31 31.2132 31 27.1982V16C28.1178 18.4388 25.039 19.4029 22.5046 20.1966C19.3234 21.1928 17 21.9204 17 24.9585Z" fill="#333333"/>
</svg>
