<svg width="48" height="48" viewBox="0 0 48 48" fill="none" xmlns="http://www.w3.org/2000/svg">
<path fill-rule="evenodd" clip-rule="evenodd" d="M48 0H0V48H48V0ZM16.8971 33.4282C16.5125 31.8131 15.1282 30.4158 14.0444 29.3219C13.6637 28.9376 13.3201 28.5908 13.0699 28.2851C11.4217 26.2678 10.3888 23.8354 10.0901 21.2681C9.79137 18.7008 10.2391 16.1031 11.3815 13.7742C12.524 11.4453 14.3149 9.47995 16.5477 8.10453C18.7806 6.72911 21.3646 5.99959 24.0022 6C26.6398 6.00041 29.2237 6.73075 31.4561 8.10686C33.6885 9.48298 35.4787 11.4489 36.6204 13.7782C37.7621 16.1074 38.209 18.7053 37.9094 21.2725C37.6099 23.8396 36.5762 26.2717 34.9273 28.2885C34.6779 28.5928 34.3359 28.9381 33.9569 29.3207C32.8736 30.4144 31.4886 31.8126 31.1036 33.4282H16.8971ZM31.0003 36.8569V38.5713C31.0003 39.4806 30.6316 40.3527 29.9752 40.9957C29.3188 41.6388 28.4286 42 27.5003 42H20.5004C19.5721 42 18.6819 41.6388 18.0255 40.9957C17.3691 40.3527 17.0004 39.4806 17.0004 38.5713V36.8569H31.0003ZM18 22L25.5 12V19H30L22 29V22H18Z" fill="#333333"/>
</svg>
