<svg width="48" height="48" viewBox="0 0 48 48" fill="none" xmlns="http://www.w3.org/2000/svg">
<path fill-rule="evenodd" clip-rule="evenodd" d="M48 0H0V48H48V0ZM21.3632 39.627L21.3709 39.6343L24.0013 42L26.6836 39.6055C31.9516 34.8755 36.2838 30.9858 39.3081 27.3301C42.3368 23.6689 44 20.3047 44 16.6406C44 10.6777 39.2655 6 33.2308 6C29.8168 6 26.5322 7.57275 24.3905 10.0576L24 10.5107L23.6095 10.0576C21.4678 7.57275 18.1832 6 14.7692 6C8.7345 6 4 10.6777 4 16.6406C4 20.3047 5.66321 23.6689 8.69183 27.3271C11.7249 30.9912 16.0735 34.8877 21.3632 39.627Z" fill="#333333"/>
</svg>
