<svg width="48" height="48" viewBox="0 0 48 48" fill="none" xmlns="http://www.w3.org/2000/svg">
<path fill-rule="evenodd" clip-rule="evenodd" d="M48 0H0V48H48V0ZM24.0013 42L21.3702 39.6333L21.3675 39.6304C16.0763 34.8906 11.7259 30.9927 8.69183 27.3271C8.32219 26.8809 7.97289 26.4385 7.64448 26H18.618L20.1855 22.8647L22.0617 30.3696L26.5207 24H31C31.5523 24 32 23.5522 32 23C32 22.4478 31.5523 22 31 22H25.4793L22.9383 25.6299L20.8145 17.1348L17.382 24H6.28249C4.79354 21.5591 4 19.1714 4 16.6406C4 10.6777 8.7345 6 14.7692 6C18.1832 6 21.4678 7.57275 23.6095 10.0576L24 10.5107L24.3905 10.0576C26.5322 7.57275 29.8168 6 33.2308 6C39.2655 6 44 10.6777 44 16.6406C44 20.3047 42.3368 23.6689 39.3081 27.3301C36.284 30.9854 31.9521 34.875 26.6846 39.6045L24.0013 42Z" fill="#333333"/>
</svg>
