<svg width="48" height="48" viewBox="0 0 48 48" fill="none" xmlns="http://www.w3.org/2000/svg">
<path fill-rule="evenodd" clip-rule="evenodd" d="M48 0H0V48H48V0ZM21.5189 27.9093C21.1327 27.9834 20.7869 28.196 20.5464 28.507L18.9079 30.9363C18.7255 32.1504 18.8549 32.6334 19.5726 33.4169L22.2062 34.7014C22.57 34.8506 22.9758 34.8617 23.3472 34.7329L36.0628 28.8606C37.9543 28.2044 37.4477 26.2437 35.4816 26.6212L21.5189 27.9093ZM6.10881 22C6.55678 17.9303 8.36313 14.2691 11.065 11.4793L11.2929 11.7072L13.4143 13.8285L14.1214 14.5355L15.5356 13.1213L14.8284 12.4142L12.707 10.2929L12.5348 10.1207C15.4086 7.74502 19.0332 6.24437 23 6.02729L23 7L23 10L23 11L25 11L25 10L25 7L25 6.02729C28.9668 6.24436 32.5915 7.74505 35.4653 10.1208L33.2929 12.2928L32.5858 12.9999L33.9999 14.4142L34.7071 13.7072L36.9351 11.4794C39.6369 14.2692 41.4432 17.9303 41.8912 22H41.6843H38.6843H37.6843V24H38.6843H41.6843H42C41.9975 28.3403 40.4579 32.3201 37.894 35.4269L37.4138 34.9467L35.1808 32.7138L34.4737 32.0067L33.0595 33.4209L33.7666 34.128L35.9996 36.361L36.5366 36.8979L36.5239 36.9103L37.9152 38.3471C41.6663 34.7148 44 29.6236 44 23.9892C44 12.949 35.0452 4 24 4C12.9548 4 4 12.949 4 23.9892C4 29.4741 6.21161 34.4446 9.78969 38.0553L11.2103 36.6475C11.204 36.6412 11.1978 36.6349 11.1915 36.6285L11.2567 36.5633L13.4897 34.3303L14.1968 33.6232L12.7825 32.209L12.0754 32.9161L9.86419 35.1274C7.44566 32.0662 6.00246 28.2022 6 24H6.05267H9.05267H10.0527V22H9.05267H6.10881Z" fill="#333333"/>
</svg>
