<svg width="48" height="48" viewBox="0 0 48 48" fill="none" xmlns="http://www.w3.org/2000/svg">
<path d="M31 7.82812L36.1716 13H31V7.82812Z" fill="#333333"/>
<path d="M32.7071 21.293C33.0976 21.6836 33.0976 22.3164 32.7071 22.707L24 31.4141L19.2929 26.707C18.9024 26.3164 18.9024 25.6836 19.2929 25.293C19.6834 24.9023 20.3166 24.9023 20.7071 25.293L24 28.5859L31.2929 21.293C31.6834 20.9023 32.3166 20.9023 32.7071 21.293Z" fill="#333333"/>
<path fill-rule="evenodd" clip-rule="evenodd" d="M48 0H0V48H48V0ZM30 4L40 14V36C40 38.209 38.2091 40 36 40H16C13.7909 40 12 38.209 12 36V8C12 5.79102 13.7909 4 16 4H30ZM10 9C10 8.44727 9.55228 8 9 8C8.44772 8 8 8.44727 8 9V38C8 41.3135 10.6863 44 14 44H35C35.5523 44 36 43.5527 36 43C36 42.4473 35.5523 42 35 42H14C11.7909 42 10 40.209 10 38V9Z" fill="#333333"/>
</svg>
