<svg width="48" height="48" viewBox="0 0 48 48" fill="none" xmlns="http://www.w3.org/2000/svg">
<path d="M31 7.82812L36.1716 13H31V7.82812Z" fill="#333333"/>
<path d="M21.2929 20.293C21.6834 19.9023 22.3166 19.9023 22.7071 20.293L26 23.5859L29.2929 20.293C29.6834 19.9023 30.3166 19.9023 30.7071 20.293C31.0976 20.6836 31.0976 21.3164 30.7071 21.707L27.4142 25L30.7071 28.293C31.0976 28.6836 31.0976 29.3164 30.7071 29.707C30.3166 30.0977 29.6834 30.0977 29.2929 29.707L26 26.4141L22.7071 29.707C22.3166 30.0977 21.6834 30.0977 21.2929 29.707C20.9024 29.3164 20.9024 28.6836 21.2929 28.293L24.5858 25L21.2929 21.707C20.9024 21.3164 20.9024 20.6836 21.2929 20.293Z" fill="#333333"/>
<path fill-rule="evenodd" clip-rule="evenodd" d="M48 0H0V48H48V0ZM40 36C40 38.209 38.2091 40 36 40H16C13.7909 40 12 38.209 12 36V8C12 5.79102 13.7909 4 16 4H30L40 14V36ZM10 9C10 8.44727 9.55228 8 9 8C8.44772 8 8 8.44727 8 9V38C8 41.3135 10.6863 44 14 44H35C35.5523 44 36 43.5527 36 43C36 42.4473 35.5523 42 35 42H14C11.7909 42 10 40.209 10 38V9Z" fill="#333333"/>
</svg>
