<svg width="48" height="48" viewBox="0 0 48 48" fill="none" xmlns="http://www.w3.org/2000/svg">
<path d="M34.1716 15L29 9.82812V15H34.1716Z" fill="#333333"/>
<path fill-rule="evenodd" clip-rule="evenodd" d="M20.5648 16.1748C20.721 16.2812 20.8471 16.4326 20.9231 16.6152L25.9231 28.6152C26.1355 29.125 25.8944 29.7109 25.3846 29.9229C24.8748 30.1357 24.2894 29.8945 24.0769 29.3848L23.0833 27H16.9167L15.9231 29.3848C15.7106 29.8945 15.1252 30.1357 14.6154 29.9229C14.1056 29.7109 13.8645 29.125 14.0769 28.6152L19.0769 16.6152C19.2322 16.2432 19.5963 16 20 16C20.2061 16 20.4018 16.0635 20.5648 16.1748ZM20 19.5996L22.25 25H17.75L20 19.5996Z" fill="#333333"/>
<path d="M14 33C14 32.4473 14.4477 32 15 32H33C33.5523 32 34 32.4473 34 33C34 33.5527 33.5523 34 33 34H15C14.4477 34 14 33.5527 14 33Z" fill="#333333"/>
<path d="M15 36C14.4477 36 14 36.4473 14 37C14 37.5527 14.4477 38 15 38H27C27.5523 38 28 37.5527 28 37C28 36.4473 27.5523 36 27 36H15Z" fill="#333333"/>
<path d="M31 23C31 22.4473 30.5523 22 30 22C29.4477 22 29 22.4473 29 23V25H27C26.4477 25 26 25.4473 26 26C26 26.5527 26.4477 27 27 27H29V29C29 29.5527 29.4477 30 30 30C30.5523 30 31 29.5527 31 29V27H33C33.5523 27 34 26.5527 34 26C34 25.4473 33.5523 25 33 25H31V23Z" fill="#333333"/>
<path fill-rule="evenodd" clip-rule="evenodd" d="M48 0H0V48H48V0ZM34 42C36.2092 42 38 40.209 38 38V16L28 6H14C11.7908 6 10 7.79102 10 10V38C10 40.209 11.7908 42 14 42H34Z" fill="#333333"/>
</svg>
