<svg width="48" height="48" viewBox="0 0 48 48" fill="none" xmlns="http://www.w3.org/2000/svg">
<path fill-rule="evenodd" clip-rule="evenodd" d="M48 0H0V48H48V0ZM43 24C43 34.4934 34.4934 43 24 43C13.5066 43 5 34.4934 5 24C5 13.5066 13.5066 5 24 5C34.4934 5 43 13.5066 43 24ZM45 24C45 35.598 35.598 45 24 45C12.402 45 3 35.598 3 24C3 12.402 12.402 3 24 3C35.598 3 45 12.402 45 24ZM24 31C27.866 31 31 27.866 31 24C31 20.134 27.866 17 24 17C20.134 17 17 20.134 17 24C17 27.866 20.134 31 24 31ZM24 33C28.9706 33 33 28.9706 33 24C33 19.0294 28.9706 15 24 15C19.0294 15 15 19.0294 15 24C15 28.9706 19.0294 33 24 33ZM16 16C17.6569 16 19 14.6569 19 13C19 11.3431 17.6569 10 16 10C14.3431 10 13 11.3431 13 13C13 14.6569 14.3431 16 16 16ZM25 25C25 26.6569 23.6569 28 22 28C20.3431 28 19 26.6569 19 25C19 23.3431 20.3431 22 22 22C23.6569 22 25 23.3431 25 25ZM35 35C36.6569 35 38 33.6569 38 32C38 30.3431 36.6569 29 35 29C33.3431 29 32 30.3431 32 32C32 33.6569 33.3431 35 35 35ZM31 13C31.5523 13 32 12.5523 32 12C32 11.4477 31.5523 11 31 11C30.4477 11 30 11.4477 30 12C30 12.5523 30.4477 13 31 13ZM31 15C32.6569 15 34 13.6569 34 12C34 10.3431 32.6569 9 31 9C29.3431 9 28 10.3431 28 12C28 13.6569 29.3431 15 31 15ZM14 32C14 32.5523 13.5523 33 13 33C12.4477 33 12 32.5523 12 32C12 31.4477 12.4477 31 13 31C13.5523 31 14 31.4477 14 32ZM16 32C16 33.6569 14.6569 35 13 35C11.3431 35 10 33.6569 10 32C10 30.3431 11.3431 29 13 29C14.6569 29 16 30.3431 16 32Z" fill="#333333"/>
</svg>
