<svg width="48" height="48" viewBox="0 0 48 48" fill="none" xmlns="http://www.w3.org/2000/svg">
<path fill-rule="evenodd" clip-rule="evenodd" d="M48 0H0V48H48V0ZM24 44C35.0457 44 44 35.0457 44 24C44 12.9543 35.0457 4 24 4C12.9543 4 4 12.9543 4 24C4 35.0457 12.9543 44 24 44ZM24 37C22.3431 37 21 35.6569 21 34V22C21 20.3431 22.3431 19 24 19C25.6569 19 27 20.3431 27 22V34C27 35.6569 25.6569 37 24 37ZM21 14C21 15.6569 22.3431 17 24 17C25.6569 17 27 15.6569 27 14C27 12.3431 25.6569 11 24 11C22.3431 11 21 12.3431 21 14Z" fill="#333333"/>
</svg>
