<svg width="48" height="48" viewBox="0 0 48 48" fill="none" xmlns="http://www.w3.org/2000/svg">
<g clip-path="url(#clip0)">
<path fill-rule="evenodd" clip-rule="evenodd" d="M33 19C33 25.6274 27.6274 31 21 31C14.3726 31 9 25.6274 9 19C9 12.3726 14.3726 7 21 7C27.6274 7 33 12.3726 33 19ZM16.4177 13.1687C17.3157 12.2705 18.955 11.6352 20.7382 11.5658C22.5112 11.4968 24.2614 11.9935 25.4163 13.1486C25.7091 13.4415 26.184 13.4415 26.4769 13.1487C26.7699 12.8558 26.7699 12.3809 26.477 12.088C24.9392 10.5499 22.7288 9.98724 20.6799 10.067C18.6412 10.1463 16.5972 10.8676 15.3569 12.1081C15.064 12.4011 15.0641 12.8759 15.357 13.1688C15.6499 13.4617 16.1248 13.4616 16.4177 13.1687Z" fill="#333333"/>
<path fill-rule="evenodd" clip-rule="evenodd" d="M48 0H0V48H48V0ZM29.2045 31.5594C26.8468 33.1027 24.0282 34 21 34C12.7157 34 6 27.2843 6 19C6 10.7157 12.7157 4 21 4C29.2843 4 36 10.7157 36 19C36 23.1233 34.3363 26.858 31.6436 29.5695L33.114 29.4062L39.2678 36.8628L35 40.54L28.7988 33.0271L29.2045 31.5594ZM36.1246 41.7577L40.3924 38.0804L41.7191 39.6614C42.4291 40.5076 42.3187 41.7691 41.4726 42.4791L40.2216 43.5288C39.3754 44.2388 38.1139 44.1284 37.4039 43.2823L36.1246 41.7577Z" fill="#333333"/>
</g>
<defs>
<clipPath id="clip0">
<rect width="48" height="48" fill="white"/>
</clipPath>
</defs>
</svg>
