<svg width="48" height="48" viewBox="0 0 48 48" fill="none" xmlns="http://www.w3.org/2000/svg">
<g clip-path="url(#clip0)">
<path fill-rule="evenodd" clip-rule="evenodd" d="M48 0.459961H0V48.46H48V0.459961ZM29.2045 32.0193C26.8468 33.5626 24.0282 34.46 21 34.46C12.7157 34.46 6 27.7442 6 19.46C6 11.1757 12.7157 4.45996 21 4.45996C29.2843 4.45996 36 11.1757 36 19.46C36 23.5833 34.3363 27.318 31.6436 30.0295L33.114 29.8662L39.2678 37.3227L35 41L28.7988 33.487L29.2045 32.0193ZM33 19.46C33 26.0874 27.6274 31.46 21 31.46C14.3726 31.46 9 26.0874 9 19.46C9 12.8325 14.3726 7.45996 21 7.45996C27.6274 7.45996 33 12.8325 33 19.46ZM36.1246 42.2176L40.3924 38.5404L41.7191 40.1214C42.4291 40.9675 42.3187 42.229 41.4726 42.939L40.2216 43.9887C39.3754 44.6987 38.1139 44.5884 37.4039 43.7422L36.1246 42.2176ZM16.4177 13.6287C17.3157 12.7305 18.955 12.0952 20.7382 12.0258C22.5112 11.9568 24.2614 12.4534 25.4163 13.6085C25.7091 13.9014 26.184 13.9015 26.4769 13.6086C26.7699 13.3157 26.7699 12.8409 26.477 12.548C24.9392 11.0098 22.7288 10.4472 20.6799 10.5269C18.6412 10.6062 16.5972 11.3275 15.3569 12.5681C15.064 12.861 15.0641 13.3359 15.357 13.6288C15.6499 13.9216 16.1248 13.9216 16.4177 13.6287Z" fill="#333333"/>
</g>
<defs>
<clipPath id="clip0">
<rect width="48" height="48" fill="white"/>
</clipPath>
</defs>
</svg>
