<svg width="48" height="48" viewBox="0 0 48 48" fill="none" xmlns="http://www.w3.org/2000/svg">
<path fill-rule="evenodd" clip-rule="evenodd" d="M48 0H0V48H48V0ZM11.065 11.4793C8.36313 14.2691 6.55678 17.9303 6.10881 22H9.05267H10.0527V24H9.05267H6.05267H6C6.00246 28.2022 7.44566 32.0662 9.86419 35.1274L12.0754 32.9161L12.7825 32.209L14.1968 33.6232L13.4897 34.3303L11.2567 36.5633L11.1915 36.6285L11.2103 36.6475L9.78969 38.0553C6.21161 34.4446 4 29.4741 4 23.9892C4 12.949 12.9548 4 24 4C35.0452 4 44 12.949 44 23.9892C44 29.6236 41.6663 34.7148 37.9152 38.3471L36.5239 36.9103L36.5366 36.8979L35.9996 36.361L33.7666 34.128L33.0595 33.4209L34.4737 32.0067L35.1808 32.7138L37.4138 34.9467L37.894 35.4269C40.4579 32.3201 41.9975 28.3403 42 24H41.6843H38.6843H37.6843V22H38.6843H41.6843H41.8912C41.4432 17.9303 39.6369 14.2692 36.9351 11.4794L34.7071 13.7072L33.9999 14.4142L32.5858 12.9999L33.2929 12.2928L35.4653 10.1208C32.5915 7.74505 28.9668 6.24436 25 6.02729L25 7L25 10L25 11L23 11L23 10L23 7L23 6.02729C19.0332 6.24437 15.4086 7.74502 12.5348 10.1207L12.707 10.2929L14.8284 12.4142L15.5356 13.1213L14.1214 14.5355L13.4143 13.8285L11.2929 11.7072L11.065 11.4793ZM20.6264 35.7042C20.598 36.0964 20.7139 36.4854 20.9521 36.7983L22.8745 39.0096C24 39.5001 24.5 39.5001 25.4425 39.0096L27.365 36.7983C27.6032 36.4854 27.719 36.0964 27.6907 35.7042L25.3095 21.9021C25.1653 19.9052 23.1402 19.8871 22.996 21.8839L20.6264 35.7042Z" fill="#333333"/>
</svg>
