<svg width="48" height="48" viewBox="0 0 48 48" fill="none" xmlns="http://www.w3.org/2000/svg">
<path fill-rule="evenodd" clip-rule="evenodd" d="M0 0H48V48H0V0ZM21.952 36.7894C21.7138 36.4765 21.598 36.0875 21.6264 35.6953L22.996 22.875C23.1402 20.8782 25.1652 20.8963 25.3095 22.8932L26.6906 35.6953C26.719 36.0875 26.6032 36.4765 26.365 36.7894L25.4425 38.0008C24.7966 38.849 23.5204 38.849 22.8745 38.0008L21.952 36.7894ZM23 9.02926C19.6145 9.22753 16.277 10.4336 13.4754 12.6475L15.5148 14.6867C15.9053 15.0772 15.9053 15.7104 15.5148 16.1009C15.1243 16.4915 14.4911 16.4915 14.1006 16.101L11.9792 13.9797C9.16948 16.7895 7.54869 20.338 7.11734 24.0001H10C10.5523 24.0001 11 24.4478 11 25.0001C11 25.5523 10.5523 26.0001 10 26.0001H7C7.00001 29.7236 8.21575 33.4471 10.6472 36.5242L12.6862 34.4851C13.0768 34.0946 13.7099 34.0945 14.1005 34.4851C14.491 34.8756 14.491 35.5087 14.1005 35.8993L10.565 39.435C3.14501 32.0151 3.14501 19.9849 10.565 12.565C17.9849 5.14501 30.0151 5.14501 37.435 12.565C44.855 19.9849 44.855 32.0151 37.435 39.435L36.1214 38.1214C35.8655 38.1214 35.6095 38.0238 35.4143 37.8285L33.2929 35.7072C32.9024 35.3167 32.9024 34.6835 33.2929 34.293C33.6834 33.9024 34.3166 33.9024 34.7071 34.2929L36.8285 36.4143C36.9551 36.5409 37.0407 36.6931 37.0852 36.8543C39.6951 33.7155 41 29.8578 41 26.0001H38C37.4477 26.0001 37 25.5523 37 25.0001C37 24.4478 37.4477 24.0001 38 24.0001H40.8827C40.4513 20.3378 38.8307 16.7891 36.0208 13.9792C35.9433 13.9016 35.8651 13.825 35.7864 13.7492L33.7071 15.8283C33.3165 16.2188 32.6833 16.2188 32.2928 15.8282C31.9023 15.4377 31.9024 14.8045 32.2929 14.414L34.2626 12.4446C31.5161 10.3598 28.2806 9.22138 25 9.02926L25 12.0001C25 12.5523 24.5523 13.0001 24 13.0001C23.4477 13.0001 23 12.5523 23 12.0001L23 9.02926Z" fill="#333333"/>
</svg>
