<svg width="48" height="48" viewBox="0 0 48 48" fill="none" xmlns="http://www.w3.org/2000/svg">
<path fill-rule="evenodd" clip-rule="evenodd" d="M48 0H0V48H48V0ZM18 30.0001V18.0001L28.4453 11.0366C29.1099 10.5935 30 11.0699 30 11.8686V36.1316C30 36.9303 29.1099 37.4067 28.4453 36.9636L18 30.0001ZM8 21.0001V27.0001C8 28.657 9.34315 30.0001 11 30.0001H16V18.0001H11C9.34315 18.0001 8 19.3432 8 21.0001ZM12 36.0001V32.0001H16V36.0001C16 37.1047 15.1046 38.0001 14 38.0001C12.8954 38.0001 12 37.1047 12 36.0001ZM35 24.0001C35 25.657 33.6569 27.0001 32 27.0001V21.0001C33.6569 21.0001 35 22.3432 35 24.0001ZM42.8321 17.4454C43.1384 17.9049 43.0142 18.5258 42.5547 18.8321L39.5547 20.8321C39.0952 21.1385 38.4743 21.0143 38.1679 20.5548C37.8616 20.0953 37.9858 19.4744 38.4453 19.168L41.4453 17.168C41.9048 16.8617 42.5257 16.9859 42.8321 17.4454ZM38 24.0001C38 23.4478 38.4477 23.0001 39 23.0001H43C43.5523 23.0001 44 23.4478 44 24.0001C44 24.5524 43.5523 25.0001 43 25.0001H39C38.4477 25.0001 38 24.5524 38 24.0001ZM38.1679 27.4454C38.4743 26.9859 39.0952 26.8617 39.5547 27.168L42.5547 29.168C43.0142 29.4744 43.1384 30.0953 42.8321 30.5548C42.5257 31.0143 41.9048 31.1385 41.4453 30.8321L38.4453 28.8321C37.9858 28.5258 37.8616 27.9049 38.1679 27.4454Z" fill="#333333"/>
</svg>
