<svg width="48" height="48" viewBox="0 0 48 48" fill="none" xmlns="http://www.w3.org/2000/svg">
<path fill-rule="evenodd" clip-rule="evenodd" d="M0 0H48V48H0V0ZM8.05655 15.3723C7.85499 15.2182 7.67359 15.0554 7.51733 14.8854C5.9201 13.1474 5.48696 10.7977 6.54988 9.63727C7.07682 9.06199 7.87251 8.88698 8.73558 9.06851C9.29872 9.18695 9.89055 9.45718 10.4551 9.86706C10.7015 9.2293 11.0558 8.68538 11.4837 8.28338C11.9883 7.80939 12.5953 7.53272 13.2485 7.53218C13.9671 7.53159 14.6302 7.86518 15.163 8.42818C15.4839 8.76725 15.7575 9.18953 15.9675 9.67213C16.4337 9.37457 16.912 9.17125 17.3722 9.06884C18.2482 8.87389 19.0583 9.04452 19.5932 9.62655C20.658 10.7852 20.2287 13.1356 18.6344 14.8762C18.4785 15.0464 18.2968 15.2093 18.0952 15.3638C19.1632 15.9041 19.8282 17.0926 19.6082 18.3614L18.5436 24.502C18.4641 24.4806 18.3805 24.4692 18.2942 24.4692L13.5574 24.4731C13.0342 24.4735 12.6104 24.8953 12.6108 25.4151C12.6112 25.9349 13.0357 26.3559 13.5589 26.3555L18.2229 26.3516L16.4206 36.7474C16.1418 38.3555 14.7385 39.531 13.096 39.5323C11.4535 39.5337 10.0484 38.3605 9.76695 36.7529L8.771 31.0637C8.78918 31.0647 8.8075 31.0652 8.82593 31.0652L10.7207 31.0637C11.2439 31.0632 11.6677 30.6415 11.6673 30.1217C11.6668 29.6019 11.2424 29.1809 10.7191 29.1813L8.82439 29.1829C8.69325 29.183 8.56835 29.2096 8.45481 29.2575L7.28863 22.5959L11.6611 22.5923C12.1843 22.5919 12.6081 22.1702 12.6077 21.6504C12.6073 21.1306 12.1828 20.7095 11.6596 20.71L6.95915 20.7138L6.54922 18.3721C6.32721 17.1039 6.98988 15.9146 8.05655 15.3723ZM14.2283 10.4191L15.1139 12.4544L16.9917 11.2558C17.4432 10.9676 17.811 10.8791 18.0251 10.8743C18.126 10.872 18.1757 10.888 18.1884 10.8929L18.1937 10.8951C18.1961 10.8977 18.2339 10.9391 18.2606 11.0684C18.2886 11.2042 18.2982 11.4152 18.2467 11.6971C18.1423 12.2689 17.8133 12.9758 17.233 13.6094C16.9296 13.9406 16.2837 14.3485 15.4199 14.6625C14.6631 14.9377 13.9708 15.057 13.5321 15.0614L13.4865 15.0614C13.445 15.061 13.406 15.0596 13.3698 15.057L13.248 15.0485L13.1261 15.0556C13.0587 15.0595 12.9888 15.0616 12.9168 15.0619L12.8947 15.0619C12.2765 15.0608 11.4995 14.9263 10.7367 14.6596C9.8556 14.3514 9.22069 13.9471 8.91662 13.6162C8.33526 12.9836 8.00517 12.2773 7.89979 11.7056C7.84783 11.4238 7.8571 11.2128 7.88488 11.0769C7.9113 10.9476 7.9488 10.9068 7.95119 10.9042C7.95119 10.9042 7.9531 10.9025 7.96019 10.9C7.97873 10.8935 8.04189 10.8762 8.16429 10.8844C8.42222 10.9018 8.84542 11.0298 9.3372 11.3869L11.3367 12.8385L12.2241 10.5415C12.3999 10.0862 12.6318 9.78011 12.835 9.60676C13.0288 9.44139 13.1684 9.4146 13.2501 9.41453C13.3677 9.41444 13.8417 9.53068 14.2283 10.4191ZM32.6155 15.3101C33.0238 14.985 33.0895 14.3927 32.7624 13.9871C32.4352 13.5814 31.839 13.5161 31.4307 13.8412C30.1861 14.8319 29.668 16.4715 29.542 18.0552C29.4728 18.9259 29.5163 19.8376 29.652 20.7225L29.4402 20.5965C28.5151 20.0461 27.4569 19.7558 26.3786 19.7567C24.5713 19.7582 22.8627 20.5757 21.7348 21.9787L21.6841 22.0417C21.4152 22.3762 21.1826 22.738 20.9902 23.1211L20.8439 23.4125C20.4339 24.2288 20.149 25.1015 19.9988 26.0015L19.9798 26.115C19.4774 29.125 20.3976 32.1972 22.4747 34.4446L23.0118 35.0259C24.2353 36.3496 25.7781 37.3418 27.4947 37.9087C29.8385 38.6827 32.3885 38.619 34.6911 37.737C36.7548 36.9465 38.5305 35.5364 39.7568 33.7056L40.2095 33.0298C41.3661 31.3032 41.9824 29.2751 41.9807 27.2011L41.9804 26.7586C41.9798 26.076 41.8835 25.3969 41.6942 24.7407L41.5776 24.3366C41.1357 22.8047 40.1242 21.497 38.7481 20.6782C36.6519 19.4311 34.0199 19.4954 31.988 20.8436L31.642 21.0732C31.4394 20.1335 31.3572 19.1306 31.4309 18.2034C31.5394 16.8383 31.9665 15.8267 32.6155 15.3101ZM36.9792 26.3436C37.4983 26.2785 37.9722 26.6438 38.0377 27.1595C38.1392 27.9593 38.0283 29.1565 37.4008 30.2922C36.7543 31.4623 35.5852 32.5174 33.679 33.0006C33.1721 33.1291 32.6562 32.825 32.5269 32.3214C32.3975 31.8177 32.7036 31.3052 33.2106 31.1767C34.6091 30.8222 35.3461 30.099 35.7398 29.3865C36.1524 28.6397 36.2156 27.8501 36.1578 27.3951C36.0923 26.8794 36.4601 26.4086 36.9792 26.3436ZM32.5001 18.8105C32.498 16.2115 34.617 14.1029 37.2331 14.1007C37.2353 16.6997 35.1162 18.8084 32.5001 18.8105Z" fill="#333333"/>
</svg>
