<svg width="48" height="48" viewBox="0 0 48 48" fill="none" xmlns="http://www.w3.org/2000/svg">
<path fill-rule="evenodd" clip-rule="evenodd" d="M0 0H48V48H0V0ZM23.5899 20.9132C17.4805 20.9182 12.4737 12.5904 21.6188 7.8655C22.0274 7.65441 22.233 7.1665 22.0099 6.72614C21.7868 6.28579 21.2254 6.22063 20.8334 6.34748C13.7775 8.63078 12.885 14.3401 14.5696 18.1223C14.6776 18.3647 14.7941 18.6013 14.9187 18.8318C14.4739 18.8212 14.0245 18.8391 13.5731 18.8872C9.45302 19.3264 4.95756 22.964 6.5211 30.2189C6.60796 30.622 6.94608 31.0753 7.43931 31.0476C7.93253 31.0198 8.25239 30.5969 8.22957 30.1372C7.67492 18.966 17.9173 21.1682 20.4305 25.1569L20.7636 25.7327C23.8226 31.0211 19.1139 39.5211 10.4495 33.9636C10.0624 33.7154 9.53702 33.7812 9.26722 34.1946C8.99741 34.608 9.22169 35.1268 9.52753 35.4028C15.0329 40.3718 20.4236 38.2901 22.8567 34.94C23.1264 34.5686 23.3683 34.1836 23.5826 33.7881C23.7975 34.1833 24.0401 34.5679 24.3104 34.9388C26.749 38.2849 32.1431 40.3577 37.6403 35.3798C37.9457 35.1033 38.1691 34.5841 37.8986 34.1712C37.6282 33.7582 37.1027 33.6932 36.716 33.9421C28.0607 39.5138 23.3381 31.0215 26.3884 25.7281L26.7206 25.1517C29.2272 21.159 39.466 18.94 38.9296 30.1121C38.9076 30.5718 39.2281 30.9941 39.7214 31.0211C40.2147 31.0481 40.552 30.5942 40.6382 30.191C42.1899 22.9335 37.6885 19.3032 33.5677 18.8708C33.2996 18.8427 33.0323 18.8252 32.7662 18.818C32.8902 18.5876 33.0062 18.3511 33.1136 18.1089C34.7933 14.3212 33.8907 8.60919 26.826 6.3358C26.4335 6.2095 25.8718 6.27563 25.6493 6.71667C25.4267 7.15771 25.633 7.64615 26.0425 7.85621C35.9944 12.9615 28.966 20.7305 24.2552 20.9127L23.5899 20.9132ZM23.8453 22.2811C24.9498 22.2802 25.846 23.1749 25.8469 24.2795C25.8478 25.384 24.9531 26.2802 23.8486 26.2811C22.744 26.282 21.8478 25.3873 21.8469 24.2827C21.846 23.1782 22.7407 22.282 23.8453 22.2811ZM19.5974 17.5401C20.6142 16.7253 22.2412 16.2571 23.9717 16.2557C25.7022 16.2543 27.3299 16.7198 28.348 17.533L29.5961 15.9702C28.1126 14.7854 25.9895 14.254 23.97 14.2557C21.9505 14.2573 19.8283 14.7922 18.3467 15.9794L19.5974 17.5401ZM30.8308 28.1909C31.6948 26.6915 32.1028 25.0484 31.9055 23.7605L33.8825 23.4577C34.1699 25.3344 33.5719 27.4397 32.5636 29.1895C31.5553 30.9392 30.0336 32.5122 28.2657 33.2046L27.5364 31.3423C28.7497 30.8671 29.9667 29.6903 30.8308 28.1909ZM15.8654 23.7736C15.6703 25.0619 16.081 26.7043 16.9474 28.2023C17.8139 29.7002 19.0329 30.8751 20.2469 31.3483L19.5207 33.2117C17.7517 32.5223 16.2274 30.9518 15.2162 29.2037C14.205 27.4556 13.6037 25.3512 13.888 23.4741L15.8654 23.7736Z" fill="#333333"/>
</svg>
