<svg width="48" height="48" viewBox="0 0 48 48" fill="none" xmlns="http://www.w3.org/2000/svg">
<path d="M39.233 14.119C39.3071 14.6663 38.9236 15.17 38.3763 15.2442C37.6312 15.3451 36.893 15.4767 36.1634 15.6382C35.6241 15.7576 35.0902 15.4173 34.9709 14.878C34.8515 14.3388 35.1918 13.8049 35.7311 13.6855C36.5147 13.512 37.3076 13.3706 38.1079 13.2622C38.6551 13.1881 39.1589 13.5717 39.233 14.119Z" fill="#333333"/>
<path d="M32.426 15.6685C32.6331 16.1805 32.386 16.7635 31.874 16.9706C30.4838 17.5331 29.1427 18.2104 27.8649 18.9956C27.3943 19.2847 26.7785 19.1376 26.4894 18.6671C26.2002 18.1965 26.3473 17.5807 26.8179 17.2915C28.1903 16.4482 29.6307 15.7207 31.1239 15.1166C31.6359 14.9094 32.2189 15.1566 32.426 15.6685Z" fill="#333333"/>
<path d="M24.3428 20.2461C24.706 20.6622 24.663 21.2939 24.2469 21.6571C23.6839 22.1484 23.1398 22.6644 22.6164 23.2043C22.093 23.7441 21.594 24.3038 21.1202 24.8816C20.77 25.3087 20.1399 25.3711 19.7129 25.0209C19.2858 24.6708 19.2234 24.0407 19.5736 23.6136C20.0824 22.9929 20.6184 22.3918 21.1806 21.812C21.7428 21.2322 22.3271 20.678 22.9319 20.1502C23.348 19.7871 23.9797 19.83 24.3428 20.2461Z" fill="#333333"/>
<path d="M18.2006 27.2151C18.6799 27.4896 18.8458 28.1006 18.5713 28.5799C17.8259 29.8812 17.1902 31.2425 16.6708 32.6495C16.4795 33.1676 15.9045 33.4325 15.3864 33.2413C14.8682 33.05 14.6033 32.4749 14.7946 31.9568C15.3524 30.4457 16.0352 28.9836 16.8359 27.5858C17.1104 27.1066 17.7214 26.9406 18.2006 27.2151Z" fill="#333333"/>
<path d="M14.6746 35.8093C15.2173 35.912 15.5739 36.4351 15.4712 36.9778C15.3322 37.712 15.2233 38.4539 15.1454 39.2018C15.0882 39.7511 14.5965 40.15 14.0472 40.0928C13.4979 40.0355 13.099 39.5438 13.1562 38.9945C13.2399 38.1913 13.3568 37.3944 13.5061 36.6058C13.6088 36.0632 14.132 35.7065 14.6746 35.8093Z" fill="#333333"/>
<path fill-rule="evenodd" clip-rule="evenodd" d="M48 0H0V48H48V0ZM8.00003 42.0001C6.89546 42.0001 5.99423 41.104 6.05557 40.0011C6.28048 35.9569 7.18664 31.9746 8.74037 28.2235C10.5495 23.8558 13.2013 19.8872 16.5442 16.5443C19.8871 13.2014 23.8557 10.5496 28.2234 8.74048C31.9745 7.18675 35.9568 6.2806 40.0011 6.05569C41.1039 5.99436 42.0001 6.89558 42.0001 8.00015L42 22.0002C42 23.1047 41.1019 23.9887 40.0041 24.1111C38.3256 24.2984 36.6783 24.7214 35.1117 25.3703C32.9279 26.2749 30.9436 27.6008 29.2721 29.2722C27.6007 30.9437 26.2748 32.928 25.3702 35.1118C24.7213 36.6784 24.2983 38.3257 24.111 40.0042C23.9885 41.102 23.1046 42.0002 22 42.0001H8.00003Z" fill="#333333"/>
</svg>
