<svg width="48" height="48" viewBox="0 0 48 48" fill="none" xmlns="http://www.w3.org/2000/svg">
<path fill-rule="evenodd" clip-rule="evenodd" d="M48 0H0V48H48V0ZM7 24C7 14.9469 14.0766 7.54654 23 7.02892V23.5857L11.2927 35.293C8.62226 32.2902 7 28.3346 7 24ZM12.707 36.7072C15.4772 39.1709 19.0584 40.7424 23 40.9711V26.4142L12.707 36.7072ZM41 24C41 28.3346 39.3777 32.2903 36.7072 35.2931L25 23.5859V7.02892C33.9234 7.54654 41 14.9469 41 24ZM25 40.9711C28.9416 40.7424 32.5228 39.1709 35.293 36.7073L25 26.4143V40.9711ZM5 24C5 13.5066 13.5066 5 24 5C34.4934 5 43 13.5066 43 24C43 34.4934 34.4934 43 24 43C13.5066 43 5 34.4934 5 24Z" fill="#333333"/>
</svg>
