<svg width="48" height="48" viewBox="0 0 48 48" fill="none" xmlns="http://www.w3.org/2000/svg">
<path fill-rule="evenodd" clip-rule="evenodd" d="M48 0H0V48H48V0ZM24 12C25.0351 12 25.9784 11.6068 26.6887 10.9616L36.5285 18.0115C36.1923 18.5972 36 19.2761 36 20C36 21.6214 36.9647 23.0175 38.3515 23.6456L34.0242 36.1323C33.6973 36.046 33.354 36 33 36C31.1362 36 29.5701 37.2748 29.126 39L16.874 39C16.4299 37.2748 14.8638 36 13 36C12.967 36 12.9341 36.0004 12.9013 36.0012L9.58264 23.6747C11.0046 23.0614 12 21.647 12 20C12 19.283 11.8114 18.6101 11.481 18.0282L21.3391 10.9867C22.0461 11.617 22.9783 12 24 12ZM28 8C28 8.45092 27.9254 8.88442 27.7878 9.28881L37.9462 16.5668C38.5465 16.2069 39.2491 16 40 16C42.2091 16 44 17.7909 44 20C44 22.091 42.3955 23.8073 40.3506 23.9848L35.7929 37.1365C36.5376 37.863 37 38.8775 37 40C37 42.2091 35.2091 44 33 44C31.1361 44 29.57 42.7252 29.126 41L16.874 41C16.4299 42.7252 14.8638 44 13 44C10.7909 44 9 42.2091 9 40C9 38.5288 9.79427 37.2431 10.9774 36.5483L7.59351 23.9796C5.5753 23.7759 4 22.0719 4 20C4 17.7909 5.79086 16 8 16C8.75818 16 9.4671 16.2109 10.0713 16.5773L20.2246 9.32492C20.0791 8.91026 20 8.46437 20 8C20 5.79086 21.7909 4 24 4C26.2091 4 28 5.79086 28 8Z" fill="#333333"/>
</svg>
