<svg width="48" height="48" viewBox="0 0 48 48" fill="none" xmlns="http://www.w3.org/2000/svg">
<path d="M24 12C24.5523 12 25 12.4477 25 13V22H34C34.5523 22 35 22.4477 35 23C35 23.5523 34.5523 24 34 24H25V33C25 33.5523 24.5523 34 24 34C23.4477 34 23 33.5523 23 33V24H14C13.4477 24 13 23.5523 13 23C13 22.4477 13.4477 22 14 22H23V13C23 12.4477 23.4477 12 24 12Z" fill="#333333"/>
<path fill-rule="evenodd" clip-rule="evenodd" d="M0 0H48V48H0V0ZM44 23C44 34.0457 35.0457 43 24 43C12.9543 43 4 34.0457 4 23C4 11.9543 12.9543 3 24 3C35.0457 3 44 11.9543 44 23Z" fill="#333333"/>
</svg>
