<svg width="48" height="48" viewBox="0 0 48 48" fill="none" xmlns="http://www.w3.org/2000/svg">
<path fill-rule="evenodd" clip-rule="evenodd" d="M48 0H0V48H48V0ZM34.8743 7.08308C37.9149 9.1972 40.0008 12.4839 40.0008 16.8447C40.0008 22.0099 36.6142 25.224 33.195 27.0192C30.8637 28.2432 28.2668 28.9664 26 29.3485V30C26 31.6568 24.6569 33 23 33C21.3432 33 20 31.6568 20 30V26.6777C20 25.0871 21.2415 23.773 22.8296 23.6826C24.9482 23.562 27.996 22.9722 30.4058 21.7069C32.7869 20.4568 34.0008 18.8909 34.0008 16.8447C34.0008 14.6496 33.0491 13.1219 31.4491 12.0093C29.7386 10.82 27.2324 10.0994 24.4175 10.0095C21.6204 9.92011 18.8116 10.4653 16.6394 11.4909C14.4343 12.5319 13.2533 13.8706 12.8937 15.1805C12.455 16.7782 10.8041 17.7178 9.20643 17.2791C7.60871 16.8404 6.66913 15.1895 7.10783 13.5918C8.09817 9.98502 10.9672 7.53373 14.0778 6.06516C17.2212 4.58109 20.9936 3.89703 24.609 4.01251C28.2067 4.12742 31.9442 5.04572 34.8743 7.08308ZM19 39C19 36.7909 20.7909 35 23 35C25.2092 35 27 36.7909 27 39C27 41.2091 25.2092 43 23 43C20.7909 43 19 41.2091 19 39Z" fill="#333333"/>
</svg>
