<svg width="48" height="48" viewBox="0 0 48 48" fill="none" xmlns="http://www.w3.org/2000/svg">
<path fill-rule="evenodd" clip-rule="evenodd" d="M48 0H0V48H48V0ZM24.878 5.5374C24.5096 4.7997 23.457 4.79971 23.0886 5.53741L4.10662 43.5533C3.77464 44.2182 4.25814 45 5.00129 45H42.9653C43.7084 45 44.192 44.2182 43.86 43.5533L24.878 5.5374ZM23.9833 37C22.8787 37 21.9833 37.8954 21.9833 39C21.9833 40.1046 22.8787 41 23.9833 41C25.0878 41 25.9833 40.1046 25.9833 39C25.9833 37.8954 25.0878 37 23.9833 37ZM29.4625 21.5871C30.9753 22.7005 31.9833 24.4165 31.9833 26.6315C31.9833 29.2161 30.4708 30.9779 28.8736 32.0165C27.9569 32.6125 26.942 33.0253 25.9833 33.2811V34C25.9833 35.1046 25.0878 36 23.9833 36C22.8787 36 21.9833 35.1046 21.9833 34V31.6C21.9833 30.5421 22.8071 29.6672 23.863 29.6036C24.629 29.5575 25.7854 29.2533 26.693 28.6631C27.5625 28.0977 27.9833 27.4396 27.9833 26.6315C27.9833 25.7623 27.6412 25.2132 27.0915 24.8086C26.4715 24.3523 25.5098 24.0427 24.3657 24.004C23.2314 23.9657 22.106 24.202 21.2586 24.6255C20.4018 25.0537 20.0277 25.5589 19.9192 25.977C19.6419 27.0462 18.5503 27.6881 17.4811 27.4108C16.4119 27.1334 15.77 26.0419 16.0473 24.9727C16.5389 23.0778 17.9647 21.7999 19.4705 21.0474C20.9855 20.2903 22.7852 19.9483 24.5009 20.0063C26.2068 20.064 28.02 20.5254 29.4625 21.5871Z" fill="#333333"/>
</svg>
