<svg width="48" height="48" viewBox="0 0 48 48" fill="none" xmlns="http://www.w3.org/2000/svg">
<path fill-rule="evenodd" clip-rule="evenodd" d="M48 0H0V48H48V0ZM24 44C35.0457 44 44 35.0457 44 24C44 12.9543 35.0457 4 24 4C12.9543 4 4 12.9543 4 24C4 35.0457 12.9543 44 24 44Z" fill="#333333"/>
<path d="M26.5 35.5C26.5 36.8807 25.3807 38 24 38C22.6193 38 21.5 36.8807 21.5 35.5C21.5 34.1193 22.6193 33 24 33C25.3807 33 26.5 34.1193 26.5 35.5Z" fill="#333333"/>
<path d="M17.0124 18.0362C17.0827 17.1651 17.2038 16.7589 17.5671 16.0362C18.1804 14.8604 18.9538 14.2784 19.9538 13.7667C20.6821 13.4212 21.1432 13.3225 21.9538 13.1634C23.1062 13.0284 23.778 12.9815 24.9421 13.0831C27.2194 13.3253 29.1242 14.177 30.2234 16.0362C30.9968 17.3956 31.0788 18.8292 30.9577 20.0362C30.8453 21.1565 30.5241 22.0167 29.946 22.7589C29.5554 23.3057 28.9655 23.9112 27.9538 24.5557C27.1561 25.0639 26.418 25.4414 25.8164 26.0078C25.5937 26.2788 25.3945 26.4844 25.3945 27.0039C25.3945 28.0742 25.3906 28.9917 25.3906 30.0234C25.3906 30.7305 24.7014 31.0078 24 31.0078C23.3621 31.0078 22.5469 30.8633 22.5273 29.9883C22.5078 29.1133 22.5391 28.0615 22.5391 27.0117V26C22.6211 25.3086 22.9964 24.6779 23.5606 24.0362C24.3787 23.1503 25.1921 22.7901 25.9538 22.2667C27.6661 21.2263 28.0478 20.5062 28.0046 19.0245C27.9538 17.2844 26.9964 16.7043 25.9538 16.3292C25.4556 16.101 23.3083 15.8467 21.9538 16.2198C20.9821 16.4874 20.2352 16.9761 20.028 18.0206C19.9628 18.3497 20.0476 18.5635 19.9851 18.9776C19.8397 19.498 19.5952 19.8734 19.0124 20.0831C18.6057 20.2294 18.2761 20.1971 17.9538 20.0596C17.1023 19.6963 16.9395 18.9393 17.0124 18.0362Z" fill="#333333"/>
</svg>
