<svg width="48" height="48" viewBox="0 0 48 48" fill="none" xmlns="http://www.w3.org/2000/svg">
<rect width="48" height="48" fill="white"/>
<path fill-rule="evenodd" clip-rule="evenodd" d="M0 0H48V48H0V0ZM8 7H20V10H24H25V11V28V29H24H4H3V28V11V10H4H8V7ZM5 12H8V14H5V12ZM20 12V14H23V12H20ZM8 19V16H5V27H11V21H17V27H23V16H20V19H8ZM13 9V12H10V14H13V17H15V14H18V12H15V9H13ZM40 23C40 25.7625 37.7625 28 35 28C32.2375 28 30 25.7625 30 23C30 20.2375 32.2375 18 35 18C37.7625 18 40 20.2375 40 23ZM25 35.3333C25 31.7867 31.6625 30 35 30C38.3375 30 45 31.7867 45 35.3333V41H27H25H14H13V40V33.4142L9.70711 36.7071L8.29289 35.2929L13.2929 30.2929L14 29.5858L14.7071 30.2929L19.7071 35.2929L18.2929 36.7071L15 33.4142V39H25V35.3333Z" fill="#333333"/>
</svg>
