<svg width="48" height="48" viewBox="0 0 48 48" fill="none" xmlns="http://www.w3.org/2000/svg">
<path d="M31.934 17.4814V15.3429C32.9018 15.145 33.7717 14.6189 34.3964 13.8536C35.0211 13.0883 35.3624 12.1308 35.3625 11.1429V6H33.6482V12H31.934V6H30.2197V12H28.5054V6H26.7911V11.1429C26.7912 12.1308 27.1325 13.0883 27.7572 13.8536C28.3819 14.6189 29.2518 15.145 30.2197 15.3429V17.4814H15.6751C14.7761 17.4814 12 19.116 12 22.2919C12 26.5056 14.7761 28.2168 15.6751 28.2168V40.3655C15.6751 41.2645 16.4106 42.0001 17.3097 42.0001C18.2087 42.0001 18.9442 41.2645 18.9442 40.3655V32.1926H22.2134V40.3655C22.2134 41.2645 22.9489 42.0001 23.848 42.0001C24.747 42.0001 25.4825 41.2645 25.4825 40.3655V20.7506H30.2197V41.1773H31.934V20.7506H33.6554C34.5544 20.7506 35.29 20.015 35.29 19.116C35.29 18.217 34.5544 17.4814 33.6554 17.4814H31.934Z" fill="#333333"/>
<path d="M20.5788 9.30859C22.3768 9.30859 23.848 10.7797 23.848 12.5777C23.848 14.3758 22.3768 15.8469 20.5788 15.8469C18.7808 15.8469 17.3097 14.3758 17.3097 12.5777C17.3097 10.7797 18.7808 9.30859 20.5788 9.30859Z" fill="#333333"/>
</svg>
