<svg width="48" height="48" viewBox="0 0 48 48" fill="none" xmlns="http://www.w3.org/2000/svg">
<path fill-rule="evenodd" clip-rule="evenodd" d="M18.7926 18.2844C20.0458 19.7345 21.1298 21.3037 22.0264 22.9659C22.7111 24.0697 23.0807 25.3175 23.1 26.591C23.0621 27.2083 22.9043 27.8142 22.6344 28.3796C22.3037 29.0044 21.867 29.5759 21.3408 30.0721C21.2337 30.1687 21.1069 30.2653 20.9754 30.3656C20.5512 30.6889 20.0769 31.0504 20.0473 31.5726C20.0213 32.0313 20.2162 34.8374 20.3475 36.7273C20.4121 37.656 20.4612 38.3638 20.4612 38.4627H15.8821L15.6881 41.7997C15.6881 42.1181 15.5518 42.4234 15.3093 42.6485C15.0667 42.8736 14.7377 43.0001 14.3946 43.0001C14.0515 43.0001 13.7225 42.8736 13.4799 42.6485C13.2373 42.4234 13.1011 42.1181 13.1011 41.7997L12.92 38.3907H7.86227C8.56191 36.2806 12 27.5 12 27.5C12 27.5 11.3354 26.595 11.122 26.4386L6.46525 21.9095C6.21654 21.7171 6.05463 21.4452 6.01152 21.1473C5.96841 20.8495 6.04723 20.5475 6.23242 20.3011L8.81948 17.036C8.96245 16.8446 9.10882 16.6315 9.2616 16.4091C9.9519 15.4042 10.7731 14.2088 12.0016 13.9631C13.0581 13.772 14.1534 13.9471 15.0802 14.4552C16.5555 15.5143 17.8131 16.8114 18.7926 18.2844ZM10.0911 20.8892L11.8075 18.0083C11.9122 18.4661 12.0256 18.9246 12.1401 19.3871C12.2236 19.7245 12.3078 20.0648 12.3896 20.409C12.4713 20.6877 12.5431 20.9047 12.6051 21.092C12.7886 21.6463 12.8855 21.9391 12.8941 22.7941L10.0911 20.8892Z" fill="#333333"/>
<path d="M20 9C20 11.2091 18.2091 13 16 13C13.7909 13 12 11.2091 12 9C12 6.79086 13.7909 5 16 5C18.2091 5 20 6.79086 20 9Z" fill="#333333"/>
<path fill-rule="evenodd" clip-rule="evenodd" d="M28.8125 15.5625C28.8125 15.0102 29.2602 14.5625 29.8125 14.5625H31.1875C31.7398 14.5625 32.1875 15.0102 32.1875 15.5625V16.9375C32.1875 17.4898 31.7398 17.9375 31.1875 17.9375H29.8125C29.2602 17.9375 28.8125 17.4898 28.8125 16.9375V15.5625ZM30.5 16.2887C30.5132 16.2761 30.5261 16.2632 30.5387 16.25C30.5261 16.2368 30.5132 16.2239 30.5 16.2113C30.4868 16.2239 30.4739 16.2368 30.4613 16.25C30.4739 16.2632 30.4868 16.2761 30.5 16.2887Z" fill="#333333"/>
<path fill-rule="evenodd" clip-rule="evenodd" d="M34.3125 14.5625C33.7602 14.5625 33.3125 15.0102 33.3125 15.5625V16.9375C33.3125 17.4898 33.7602 17.9375 34.3125 17.9375H35.6875C36.2398 17.9375 36.6875 17.4898 36.6875 16.9375V15.5625C36.6875 15.0102 36.2398 14.5625 35.6875 14.5625H34.3125ZM35.0387 16.25C35.0261 16.2632 35.0132 16.2761 35 16.2887C34.9868 16.2761 34.9739 16.2632 34.9613 16.25C34.9739 16.2368 34.9868 16.2239 35 16.2113C35.0132 16.2239 35.0261 16.2368 35.0387 16.25Z" fill="#333333"/>
<path fill-rule="evenodd" clip-rule="evenodd" d="M38.8125 14.5625C38.2602 14.5625 37.8125 15.0102 37.8125 15.5625V16.9375C37.8125 17.4898 38.2602 17.9375 38.8125 17.9375H40.1875C40.7398 17.9375 41.1875 17.4898 41.1875 16.9375V15.5625C41.1875 15.0102 40.7398 14.5625 40.1875 14.5625H38.8125ZM39.5387 16.25C39.5261 16.2632 39.5132 16.2761 39.5 16.2887C39.4868 16.2761 39.4739 16.2632 39.4613 16.25C39.4739 16.2368 39.4868 16.2239 39.5 16.2113C39.5132 16.2239 39.5261 16.2368 39.5387 16.25Z" fill="#333333"/>
<path fill-rule="evenodd" clip-rule="evenodd" d="M29.8125 19.0625C29.2602 19.0625 28.8125 19.5102 28.8125 20.0625V21.4375C28.8125 21.9898 29.2602 22.4375 29.8125 22.4375H31.1875C31.7398 22.4375 32.1875 21.9898 32.1875 21.4375V20.0625C32.1875 19.5102 31.7398 19.0625 31.1875 19.0625H29.8125ZM30.5387 20.75C30.5261 20.7632 30.5132 20.7761 30.5 20.7887C30.4868 20.7761 30.4739 20.7632 30.4613 20.75C30.4739 20.7368 30.4868 20.7239 30.5 20.7113C30.5132 20.7239 30.5261 20.7368 30.5387 20.75Z" fill="#333333"/>
<path fill-rule="evenodd" clip-rule="evenodd" d="M34.3125 19.0625C33.7602 19.0625 33.3125 19.5102 33.3125 20.0625V21.4375C33.3125 21.9898 33.7602 22.4375 34.3125 22.4375H35.6875C36.2398 22.4375 36.6875 21.9898 36.6875 21.4375V20.0625C36.6875 19.5102 36.2398 19.0625 35.6875 19.0625H34.3125ZM35.0387 20.75C35.0261 20.7632 35.0132 20.7761 35 20.7887C34.9868 20.7761 34.9739 20.7632 34.9613 20.75C34.9739 20.7368 34.9868 20.7239 35 20.7113C35.0132 20.7239 35.0261 20.7368 35.0387 20.75Z" fill="#333333"/>
<path fill-rule="evenodd" clip-rule="evenodd" d="M38.8125 19.0625C38.2602 19.0625 37.8125 19.5102 37.8125 20.0625V21.4375C37.8125 21.9898 38.2602 22.4375 38.8125 22.4375H40.1875C40.7398 22.4375 41.1875 21.9898 41.1875 21.4375V20.0625C41.1875 19.5102 40.7398 19.0625 40.1875 19.0625H38.8125ZM39.5387 20.75C39.5261 20.7632 39.5132 20.7761 39.5 20.7887C39.4868 20.7761 39.4739 20.7632 39.4613 20.75C39.4739 20.7368 39.4868 20.7239 39.5 20.7113C39.5132 20.7239 39.5261 20.7368 39.5387 20.75Z" fill="#333333"/>
<path fill-rule="evenodd" clip-rule="evenodd" d="M30.5 5C30.1893 5 29.9375 5.25184 29.9375 5.5625V7.25H28C26.8954 7.25 26 8.14543 26 9.25V23.25C26 24.3546 26.8954 25.25 28 25.25H42C43.1046 25.25 44 24.3546 44 23.25V9.25C44 8.14543 43.1046 7.25 42 7.25H41.1875V8.9375C41.1875 9.24816 40.9357 9.5 40.625 9.5C40.3143 9.5 40.0625 9.24816 40.0625 8.9375V5.5625C40.0625 5.25184 39.8107 5 39.5 5C39.1893 5 38.9375 5.25184 38.9375 5.5625V7.25H32.1875V8.9375C32.1875 9.24816 31.9357 9.5 31.625 9.5C31.3143 9.5 31.0625 9.24816 31.0625 8.9375V5.5625C31.0625 5.25184 30.8107 5 30.5 5ZM28 23.25V13.4375H42V23.25H28Z" fill="#333333"/>
</svg>
