<svg width="48" height="48" viewBox="0 0 48 48" fill="none" xmlns="http://www.w3.org/2000/svg">
<path d="M35.792 24.4161C39.2206 24.4161 42 21.6367 42 18.208C42 14.7795 39.2206 12 35.792 12C32.3634 12 29.5839 14.7795 29.5839 18.208C29.5839 21.6367 32.3634 24.4161 35.792 24.4161Z" fill="#333333"/>
<path d="M38.896 30.0031H36.8421L33.4486 26.605C32.9088 25.7402 32.1567 25.0281 31.2639 24.5361C30.3709 24.0444 29.3671 23.7892 28.3477 23.795H21.8246L22.4457 36.2111H28.0327C28.8612 36.2099 29.6811 36.0422 30.4436 35.7177C31.2058 35.3932 31.8952 34.9186 32.4704 34.3223L33.4276 35.281C33.7204 35.5824 34.0725 35.8197 34.4615 35.9783C34.8507 36.1368 35.2685 36.2131 35.6884 36.2021C35.7244 36.2021 35.7559 36.2111 35.792 36.2111H38.896C39.7193 36.2111 40.5087 35.8841 41.0908 35.302C41.6729 34.7199 42 33.9303 42 33.1071C42 32.2839 41.6729 31.4943 41.0908 30.9122C40.5087 30.3301 39.7193 30.0031 38.896 30.0031Z" fill="#333333"/>
<path d="M15.8086 26.8987L12.7046 30.0027H9.10402C8.28083 30.0027 7.49125 30.3298 6.90915 30.9119C6.32705 31.494 6 32.2836 6 33.1068C6 33.9299 6.32705 34.7195 6.90915 35.3016C7.49125 35.8837 8.28083 36.2108 9.10402 36.2108H13.7548C13.7923 36.2108 13.8238 36.2108 13.8598 36.2018C14.2799 36.2124 14.6976 36.1361 15.0866 35.9775C15.4757 35.8191 15.8277 35.5817 16.1207 35.2806L20.1549 31.2449C20.4405 30.9593 20.6672 30.6201 20.8217 30.2468C20.9764 29.8737 21.0559 29.4736 21.0559 29.0696C21.0559 28.6656 20.9764 28.2656 20.8217 27.8923C20.6672 27.5191 20.4405 27.1799 20.1549 26.8942C19.8692 26.6086 19.5302 26.3819 19.1569 26.2274C18.7836 26.0727 18.3835 25.9932 17.9795 25.9932C17.5755 25.9932 17.1755 26.0727 16.8023 26.2274C16.429 26.3819 16.0898 26.6086 15.8041 26.8942L15.8086 26.8987Z" fill="#333333"/>
</svg>
