<svg width="48" height="48" viewBox="0 0 48 48" fill="none" xmlns="http://www.w3.org/2000/svg">
<path d="M29.2012 11.23C29.2012 14.1184 26.8662 16.46 23.9859 16.46C21.1055 16.46 18.7705 14.1184 18.7705 11.23C18.7705 8.34155 21.1055 6 23.9859 6C26.8662 6 29.2012 8.34155 29.2012 11.23Z" fill="#333333"/>
<path d="M12.2055 15.1388L12.2154 15.1602C13.781 18.5243 15.6053 20.3718 17.7222 21.2943L18.7705 21.7512V25.4998H29.2295V21.7512L30.2778 21.2943C32.3947 20.3718 34.219 18.5243 35.7846 15.1602L35.7945 15.1388L35.8051 15.1177C35.8843 14.9587 36.0105 14.571 35.9993 14.1385C35.9892 13.747 35.8729 13.38 35.5505 13.0567C35.1358 12.6409 34.8031 12.5487 34.5554 12.5334C34.261 12.5153 33.9026 12.5994 33.489 12.8047C33.4787 12.8113 33.4082 12.8562 33.2687 12.9919C33.1112 13.145 32.9267 13.3529 32.6901 13.6361C32.595 13.75 32.4914 13.8764 32.3802 14.0121L32.3796 14.0129C31.9765 14.5048 31.4741 15.1178 30.9151 15.6944C29.4255 17.231 27.2603 18.813 24 18.813C20.7397 18.813 18.5745 17.231 17.0849 15.6944C16.5259 15.1178 16.0235 14.5048 15.6205 14.0129C15.5091 13.877 15.4052 13.7502 15.3099 13.6361C15.0733 13.3529 14.8888 13.145 14.7313 12.9919C14.5918 12.8562 14.5214 12.8116 14.5111 12.805C14.0975 12.5997 13.739 12.5153 13.4446 12.5334C13.1969 12.5487 12.8642 12.6409 12.4495 13.0567C12.1271 13.38 12.0108 13.747 12.0007 14.1385C11.9895 14.571 12.1157 14.9587 12.1949 15.1177L12.2055 15.1388Z" fill="#333333"/>
<path d="M18.7705 28.7244V27.4998H29.2295V28.7244C29.2295 29.3606 28.6329 30.9949 26.8024 31.7779C26.5929 31.8675 26.3574 31.9799 26.1458 32.0808L26.0213 32.1401C25.7612 32.2636 25.5096 32.3804 25.2551 32.484C24.7243 32.7 24.3103 32.8031 24 32.8031C23.6897 32.8031 23.2757 32.7 22.7449 32.484C22.4904 32.3804 22.2388 32.2636 21.9787 32.1401L21.8542 32.0808C21.6426 31.9799 21.4071 31.8675 21.1976 31.7779C19.3671 30.9949 18.7705 29.3606 18.7705 28.7244Z" fill="#333333"/>
<path d="M18.3676 31.3811C18.7753 32.263 19.5416 33.1966 20.7613 33.7869C20.464 34.0355 20.1834 34.3292 19.9265 34.7475C19.4263 35.5624 18.9965 36.569 18.9965 37.5174C18.9965 38.3844 19.3215 39.1303 19.5678 39.6953L19.5858 39.7366C19.8576 40.3609 20.0294 40.781 20.0294 41.2252C20.0294 42.2238 19.2451 42.9996 18.3186 42.9996C17.4551 42.9996 16.7718 42.3704 16.2629 41.1524C15.766 39.963 15.5747 38.4955 15.5747 37.5174C15.5747 34.8686 16.5718 32.9128 18.3676 31.3811Z" fill="#333333"/>
<path d="M29.6324 31.3811C29.2246 32.263 28.4583 33.1966 27.2386 33.7869C27.536 34.0355 27.8166 34.3292 28.0734 34.7475C28.5737 35.5624 29.0035 36.569 29.0035 37.5174C29.0035 38.3844 28.6784 39.1303 28.4322 39.6953L28.4142 39.7366C28.1423 40.3609 27.9705 40.781 27.9705 41.2252C27.9705 42.2238 28.7548 42.9996 29.6814 42.9996C30.5449 42.9996 31.2282 42.3704 31.7371 41.1524C32.234 39.963 32.4253 38.4955 32.4253 37.5174C32.4253 34.8686 31.4281 32.9128 29.6324 31.3811Z" fill="#333333"/>
</svg>
