<svg width="48" height="48" viewBox="0 0 48 48" fill="none" xmlns="http://www.w3.org/2000/svg">
<path fill-rule="evenodd" clip-rule="evenodd" d="M27.0393 34.2634C26.9946 35.0584 26.5057 38.475 26.4124 39.1223H25.0058V44.0111H36.0058V39.1223H34.5964C35.3313 37.9803 36.127 37.1746 36.9303 36.3611C37.7995 35.481 38.6775 34.5918 39.497 33.2582C39.7029 32.923 39.9116 32.6011 40.1139 32.2889C40.8444 31.1618 41.4919 30.1629 41.6286 29.1312C41.8032 27.8139 42.0478 19.8971 41.6591 18.6909C41.2704 17.4848 38.909 16.7678 38.0376 19.4343C37.6075 20.7501 37.4472 22.4499 37.3017 23.9916V23.9916C37.1524 25.5743 37.0189 26.9903 36.6254 27.6529C35.8486 28.9608 33.365 32.2022 33.365 32.2022L35.5317 28.1267C35.5317 28.1267 35.8611 27.563 35.7143 26.4785C35.5676 25.394 34.3368 23.8568 33.7219 25.0472C33.107 26.2377 32.0518 27.3013 32.0518 27.3013L28.3101 31.8031C28.3101 31.8031 27.0888 33.3841 27.0393 34.2634ZM20.9767 34.2635C21.0214 35.0585 21.5103 38.4751 21.6036 39.1223H23.0102V44.0112H12.0102V39.1223H13.4196C12.6847 37.9804 11.889 37.1747 11.0857 36.3612C10.2165 35.4811 9.33849 34.5919 8.51902 33.2583C8.31306 32.9231 8.10439 32.6011 7.90209 32.289L7.90208 32.289C7.17155 31.1619 6.52407 30.163 6.38735 29.1313C6.21278 27.814 5.96818 19.8972 6.3569 18.691C6.74561 17.4849 9.10695 16.7679 9.97843 19.4344C10.4084 20.7502 10.5688 22.45 10.7142 23.9917L10.7142 23.9917C10.8636 25.5744 10.9971 26.9904 11.3906 27.6529C12.1674 28.9609 14.651 32.2023 14.651 32.2023L12.4843 28.1268C12.4843 28.1268 12.1549 27.5631 12.3016 26.4786C12.4484 25.3941 13.6791 23.8569 14.2941 25.0473C14.909 26.2378 15.9642 27.3014 15.9642 27.3014L19.7059 31.8032C19.7059 31.8032 20.9272 33.3842 20.9767 34.2635Z" fill="#333333"/>
<path d="M31.7288 11C33.938 11 35.7288 9.20918 35.7288 7C35.7288 4.79091 33.938 3 31.7288 3C29.5197 3 27.7288 4.79091 27.7288 7C27.7288 9.20918 29.5197 11 31.7288 11Z" fill="#333333"/>
<path d="M33.7027 14.8413H32.3275L30.0553 12.566C29.6939 11.987 29.1903 11.5101 28.5925 11.1808C27.9946 10.8515 27.3225 10.6806 26.6399 10.6845H22.2722L22.6881 18.998H26.429C26.9838 18.9972 27.5327 18.8849 28.0432 18.6676C28.5536 18.4503 29.0152 18.1326 29.4003 17.7333L30.0412 18.3752C30.2373 18.577 30.4731 18.7359 30.7336 18.8421C30.9941 18.9483 31.2739 18.9993 31.5551 18.992C31.5792 18.992 31.6003 18.998 31.6244 18.998H33.7027C34.254 18.998 34.7826 18.779 35.1724 18.3892C35.5621 17.9995 35.7811 17.4708 35.7811 16.9196C35.7811 16.3684 35.5621 15.8397 35.1724 15.45C34.7826 15.0602 34.254 14.8413 33.7027 14.8413Z" fill="#333333"/>
<path d="M18.2441 12.7629L16.1657 14.8413H13.7549C13.2037 14.8413 12.675 15.0603 12.2853 15.4501C11.8955 15.8398 11.6765 16.3685 11.6765 16.9197C11.6765 17.4709 11.8955 17.9996 12.2853 18.3893C12.675 18.7791 13.2037 18.9981 13.7549 18.9981H16.8689C16.894 18.9981 16.9151 18.9981 16.9392 18.992C17.2205 18.9992 17.5002 18.948 17.7606 18.8418C18.0212 18.7358 18.2569 18.5769 18.4531 18.3752L21.1542 15.6731C21.3455 15.4818 21.4973 15.2547 21.6007 15.0048C21.7043 14.7549 21.7576 14.487 21.7576 14.2165C21.7576 13.946 21.7043 13.6782 21.6007 13.4282C21.4973 13.1783 21.3455 12.9512 21.1542 12.7599C20.963 12.5687 20.7359 12.4169 20.486 12.3134C20.2361 12.2099 19.9682 12.1566 19.6977 12.1566C19.4271 12.1566 19.1593 12.2099 18.9094 12.3134C18.6595 12.4169 18.4324 12.5687 18.2411 12.7599L18.2441 12.7629Z" fill="#333333"/>
</svg>
