<svg width="48" height="48" viewBox="0 0 48 48" fill="none" xmlns="http://www.w3.org/2000/svg">
<path d="M35.7208 7C35.7208 9.20918 33.93 11 31.7208 11C29.5117 11 27.7208 9.20918 27.7208 7C27.7208 4.79091 29.5117 3 31.7208 3C33.93 3 35.7208 4.79091 35.7208 7Z" fill="#333333"/>
<path d="M32.3196 14.8414H33.6948C34.2461 14.8414 34.7746 15.0604 35.1644 15.4501C35.5542 15.8399 35.7731 16.3686 35.7731 16.9197C35.7731 17.4709 35.5542 17.9996 35.1644 18.3894C34.7746 18.7791 34.2461 18.9981 33.6948 18.9981H31.6164C31.6044 18.9981 31.5931 18.9966 31.5818 18.9951C31.5704 18.9936 31.5592 18.9921 31.5471 18.9921C31.2659 18.9994 30.9862 18.9484 30.7256 18.8422C30.4651 18.736 30.2294 18.5771 30.0333 18.3753L29.3924 17.7334C29.0072 18.1327 28.5457 18.4504 28.0353 18.6677C27.5248 18.885 26.9758 18.9973 26.421 18.9981H22.6801L22.2643 10.6846H26.6319C27.3145 10.6807 27.9866 10.8516 28.5845 11.1809C29.1823 11.5103 29.6859 11.9871 30.0473 12.5661L32.3196 14.8414Z" fill="#333333"/>
<path d="M18.2361 12.7631L16.1578 14.8414H13.7469C13.1957 14.8414 12.667 15.0604 12.2773 15.4502C11.8875 15.8399 11.6685 16.3686 11.6685 16.9198C11.6685 17.471 11.8875 17.9997 12.2773 18.3894C12.667 18.7792 13.1957 18.9982 13.7469 18.9982H16.8609C16.886 18.9982 16.9071 18.9982 16.9312 18.9921C17.2125 18.9993 17.4922 18.9481 17.7526 18.842C18.0132 18.7359 18.2489 18.577 18.4451 18.3754L21.1462 15.6732C21.3375 15.4819 21.4893 15.2548 21.5928 15.0049C21.6963 14.755 21.7496 14.4871 21.7496 14.2166C21.7496 13.9461 21.6963 13.6783 21.5928 13.4284C21.4893 13.1784 21.3375 12.9513 21.1462 12.7601C20.955 12.5688 20.728 12.417 20.478 12.3135C20.2281 12.21 19.9602 12.1567 19.6897 12.1567C19.4192 12.1567 19.1514 12.21 18.9014 12.3135C18.6515 12.417 18.4244 12.5688 18.2331 12.7601L18.2361 12.7631Z" fill="#333333"/>
<path d="M26.4044 39.1222C26.4977 38.475 26.9866 35.0584 27.0313 34.2634C27.0808 33.3841 28.3021 31.8031 28.3021 31.8031L32.0438 27.3013C32.0438 27.3013 33.099 26.2377 33.7139 25.0472C34.3288 23.8568 35.5596 25.394 35.7064 26.4785C35.8531 27.563 35.5237 28.1267 35.5237 28.1267L33.357 32.2022C33.357 32.2022 35.8406 28.9608 36.6174 27.6528C37.0109 26.9903 37.1444 25.5743 37.2937 23.9916C37.4392 22.45 37.5996 20.7501 38.0296 19.4343C38.901 16.7678 41.2624 17.4848 41.6511 18.6909C42.0398 19.8971 41.7952 27.8139 41.6206 29.1312C41.4839 30.1629 40.8364 31.1618 40.1059 32.2889C39.9036 32.6011 39.6949 32.923 39.489 33.2582C38.6695 34.5918 37.7915 35.481 36.9223 36.3611C36.119 37.1745 35.3233 37.9803 34.5884 39.1222H35.9978L35.9978 44.0111H24.9978V39.1222H26.4044Z" fill="#333333"/>
<path d="M21.5956 39.1223C21.5023 38.4751 21.0134 35.0585 20.9687 34.2635C20.9192 33.3842 19.6979 31.8032 19.6979 31.8032L15.9562 27.3014C15.9562 27.3014 14.901 26.2378 14.2861 25.0473C13.6712 23.8569 12.4404 25.3941 12.2937 26.4786C12.1469 27.5631 12.4763 28.1268 12.4763 28.1268L14.643 32.2023C14.643 32.2023 12.1594 28.9609 11.3826 27.6529C10.9891 26.9904 10.8556 25.5744 10.7062 23.9917C10.5608 22.45 10.4004 20.7502 9.97044 19.4344C9.09896 16.7679 6.73762 17.4849 6.3489 18.691C5.96019 19.8972 6.20478 27.8139 6.37936 29.1313C6.53789 30.3276 7.3741 31.6792 8.23764 33.0749C8.32504 33.2162 8.41272 33.3579 8.5 33.4999C9.28633 34.7796 10.158 35.5644 11.0129 36.334C11.8783 37.1131 12.7265 37.8766 13.4514 39.1223L12.0022 39.1223V44.0112H23.0022V39.1223H21.5956Z" fill="#333333"/>
</svg>
