<svg width="48" height="48" viewBox="0 0 48 48" fill="none" xmlns="http://www.w3.org/2000/svg">
<path d="M33 16C33 20.9725 28.9725 25 24 25C19.0275 25 15 20.9725 15 16C15 11.0275 19.0275 7 24 7C28.9725 7 33 11.0275 33 16Z" fill="#333333"/>
<path d="M18.1254 28.7927C17.8971 28.3283 17.3814 28.0774 16.8786 28.2001C11.4745 29.5183 6 32.2063 6 36.25V43H42V36.25C42 32.2063 36.5255 29.5183 31.1214 28.2001C30.6186 28.0774 30.1029 28.3283 29.8746 28.7927L25.8105 39.0649L25.2149 32.0711C25.173 31.7195 25.4371 31.4379 25.6875 31.1876C26.25 30.6251 26.25 28.3752 25.6875 27.8126C25.5073 27.6323 25.1537 27.683 24.7379 27.7427C24.505 27.7763 24.2524 27.8125 24 27.8125C23.7476 27.8125 23.4953 27.7763 23.2624 27.7429C22.8468 27.6832 22.4927 27.6323 22.3125 27.8126C21.75 28.3751 21.75 30.6251 22.3125 31.1876C22.5612 31.4362 22.8276 31.7097 22.786 32.0589L22.1893 39.0646L18.1254 28.7927Z" fill="#333333"/>
</svg>
