<svg width="48" height="48" viewBox="0 0 48 48" fill="none" xmlns="http://www.w3.org/2000/svg">
<path d="M27.296 19.656C27.6157 19.6518 27.9209 19.5218 28.1455 19.2943C28.3701 19.0667 28.496 18.7598 28.496 18.44C28.4618 18.1436 28.3198 17.8701 28.0971 17.6715C27.8743 17.473 27.5863 17.3633 27.288 17.3633C26.9896 17.3633 26.7016 17.473 26.4788 17.6715C26.2561 17.8701 26.1141 18.1436 26.08 18.44C26.0841 18.7612 26.2135 19.0681 26.4407 19.2953C26.6678 19.5224 26.9747 19.6519 27.296 19.656Z" fill="#333333"/>
<path d="M33.0719 16.3115C32.7522 16.3157 32.447 16.4457 32.2224 16.6733C31.9978 16.9009 31.8719 17.2078 31.8719 17.5275C31.8719 17.8458 31.9984 18.151 32.2234 18.3761C32.4485 18.6011 32.7537 18.7275 33.0719 18.7275C33.3917 18.7276 33.6986 18.6016 33.9262 18.377C34.1538 18.1524 34.2837 17.8472 34.2879 17.5275C34.2838 17.2063 34.1544 16.8994 33.9272 16.6723C33.7001 16.4451 33.3932 16.3157 33.0719 16.3115Z" fill="#333333"/>
<path d="M39.344 13.0798C39.5078 13.0779 39.6696 13.0428 39.8196 12.9768C39.9696 12.9108 40.1047 12.8151 40.2168 12.6956C40.3289 12.576 40.4156 12.435 40.4718 12.2811C40.5281 12.1272 40.5526 11.9634 40.544 11.7998C40.5461 11.6416 40.5165 11.4846 40.457 11.338C40.3975 11.1915 40.3091 11.0583 40.1973 10.9465C40.0854 10.8346 39.9523 10.7463 39.8057 10.6868C39.6592 10.6272 39.5021 10.5976 39.344 10.5998C39.1737 10.5802 39.0011 10.5968 38.8377 10.6485C38.6742 10.7003 38.5236 10.786 38.3956 10.9001C38.2676 11.0141 38.1652 11.154 38.0951 11.3104C38.025 11.4669 37.9887 11.6364 37.9887 11.8078C37.9887 11.9792 38.025 12.1487 38.0951 12.3052C38.1652 12.4616 38.2676 12.6015 38.3956 12.7155C38.5236 12.8296 38.6742 12.9153 38.8377 12.9671C39.0011 13.0188 39.1737 13.0354 39.344 13.0158V13.0798Z" fill="#333333"/>
<path d="M40.096 16.7603C40.0991 16.5192 40.0305 16.2825 39.8988 16.0804C39.7672 15.8784 39.5784 15.72 39.3565 15.6255C39.1346 15.531 38.8896 15.5047 38.6527 15.5498C38.4158 15.5949 38.1976 15.7094 38.0259 15.8788C37.8543 16.0482 37.7369 16.2648 37.6886 16.5011C37.6404 16.7375 37.6635 16.9828 37.7551 17.2059C37.8466 17.429 38.0024 17.6199 38.2028 17.7542C38.4031 17.8886 38.6388 17.9603 38.88 17.9603C39.1997 17.9603 39.5066 17.8344 39.7342 17.6098C39.9618 17.3852 40.0917 17.08 40.096 16.7603Z" fill="#333333"/>
<path d="M44.304 8.3436C44.0749 8.28222 43.8327 8.29013 43.608 8.36635C43.3833 8.44256 43.1863 8.58366 43.0418 8.7718C42.8973 8.95995 42.8118 9.18671 42.7961 9.42342C42.7805 9.66014 42.8353 9.89619 42.9537 10.1017C43.0721 10.3073 43.2488 10.4732 43.4615 10.5783C43.6741 10.6835 43.9132 10.7233 44.1484 10.6927C44.3837 10.6621 44.6046 10.5624 44.7832 10.4063C44.9618 10.2502 45.0902 10.0446 45.152 9.8156C45.1931 9.66327 45.2038 9.50431 45.1835 9.34784C45.1631 9.19137 45.1121 9.04045 45.0333 8.90372C44.9545 8.76699 44.8496 8.64714 44.7244 8.55103C44.5993 8.45492 44.4564 8.38443 44.304 8.3436Z" fill="#333333"/>
<path d="M31.2479 20.2162C31.0956 20.1728 30.9361 20.1604 30.7789 20.1798C30.6217 20.1992 30.4699 20.2499 30.3327 20.329C30.1954 20.408 30.0754 20.5138 29.9798 20.6401C29.8842 20.7664 29.8148 20.9106 29.7759 21.0642C29.7348 21.2165 29.7241 21.3755 29.7445 21.5319C29.7648 21.6884 29.8159 21.8393 29.8946 21.976C29.9734 22.1128 30.0784 22.2326 30.2035 22.3287C30.3287 22.4248 30.4715 22.4953 30.6239 22.5362C30.9337 22.6197 31.2639 22.5774 31.5426 22.4186C31.8213 22.2597 32.0259 21.9972 32.1119 21.6882C32.1528 21.5348 32.1628 21.3748 32.1414 21.2175C32.1201 21.0602 32.0677 20.9087 31.9873 20.7718C31.9069 20.6348 31.8002 20.5152 31.6733 20.4199C31.5464 20.3245 31.4018 20.2553 31.2479 20.2162Z" fill="#333333"/>
<path d="M36.672 20.4556C36.5196 20.4144 36.3607 20.4037 36.2042 20.4241C36.0477 20.4445 35.8968 20.4955 35.7601 20.5743C35.6234 20.653 35.5035 20.758 35.4074 20.8831C35.3113 21.0083 35.2408 21.1511 35.2 21.3036C35.1172 21.6112 35.1601 21.9391 35.3191 22.2152C35.4782 22.4912 35.7403 22.6928 36.048 22.7756C36.3556 22.8583 36.6836 22.8155 36.9596 22.6564C37.2357 22.4974 37.4372 22.2352 37.52 21.9276C37.5611 21.7752 37.5718 21.6163 37.5514 21.4598C37.5311 21.3033 37.4801 21.1524 37.4013 21.0157C37.3225 20.879 37.2176 20.7591 37.0924 20.663C36.9673 20.5669 36.8244 20.4964 36.672 20.4556Z" fill="#333333"/>
<path d="M43.872 18.5836C43.6399 18.519 43.3938 18.5248 43.165 18.6003C42.9362 18.6757 42.735 18.8174 42.5869 19.0075C42.4387 19.1975 42.3504 19.4272 42.3331 19.6675C42.3157 19.9078 42.3701 20.1478 42.4894 20.3571C42.6087 20.5665 42.7875 20.7356 43.0031 20.8432C43.2187 20.9507 43.4613 20.9918 43.7003 20.9612C43.9393 20.9306 44.1638 20.8297 44.3453 20.6713C44.5269 20.513 44.6573 20.3042 44.72 20.0716C44.7635 19.9182 44.7761 19.7577 44.7569 19.5994C44.7377 19.4411 44.6871 19.2882 44.6082 19.1497C44.5292 19.0111 44.4235 18.8897 44.2971 18.7925C44.1707 18.6953 44.0261 18.6243 43.872 18.5836Z" fill="#333333"/>
<path d="M40.512 23.5116C40.2023 23.5978 39.9386 23.8017 39.7772 24.0798C39.6158 24.3578 39.5694 24.6879 39.648 24.9996C39.734 25.3086 39.9387 25.5711 40.2174 25.73C40.4961 25.8888 40.8262 25.9311 41.136 25.8476C41.2884 25.8067 41.4313 25.7363 41.5564 25.6401C41.6816 25.544 41.7865 25.4242 41.8653 25.2875C41.944 25.1507 41.9951 24.9998 42.0154 24.8433C42.0358 24.6869 42.0251 24.5279 41.984 24.3756C41.9012 24.0671 41.7005 23.8036 41.425 23.6419C41.1496 23.4803 40.8216 23.4334 40.512 23.5116Z" fill="#333333"/>
<path d="M29.5679 15.8962C29.8476 15.7881 30.0776 15.5805 30.2135 15.3132C30.3494 15.0459 30.3818 14.7378 30.3044 14.4481C30.2271 14.1584 30.0453 13.9075 29.7942 13.7436C29.5431 13.5797 29.2403 13.5144 28.9439 13.5602C28.6355 13.6429 28.3719 13.8437 28.2103 14.1191C28.0486 14.3945 28.0018 14.7225 28.0799 15.0322C28.1189 15.1878 28.1887 15.334 28.2851 15.4622C28.3815 15.5904 28.5027 15.6979 28.6414 15.7785C28.7802 15.859 28.9336 15.9109 29.0928 15.9311C29.2519 15.9514 29.4135 15.9395 29.5679 15.8962Z" fill="#333333"/>
<path d="M35.648 12.3281C35.5617 12.0185 35.3578 11.7548 35.0798 11.5933C34.8018 11.4319 34.4717 11.3856 34.16 11.4641C33.851 11.5502 33.5884 11.7548 33.4296 12.0335C33.2708 12.3122 33.2285 12.6424 33.312 12.9521C33.3528 13.1046 33.4233 13.2474 33.5194 13.3726C33.6155 13.4977 33.7354 13.6027 33.8721 13.6814C34.0089 13.7602 34.1598 13.8112 34.3162 13.8316C34.4727 13.852 34.6317 13.8413 34.784 13.8001C35.0925 13.7174 35.356 13.5166 35.5177 13.2412C35.6793 12.9658 35.7261 12.6378 35.648 12.3281Z" fill="#333333"/>
<path d="M35.664 8.60006C35.9823 8.51731 36.2546 8.31152 36.4211 8.02797C36.5877 7.74441 36.6348 7.40632 36.552 7.08806C36.4693 6.7698 36.2635 6.49744 35.9799 6.33091C35.6964 6.16438 35.3583 6.11731 35.04 6.20006C34.7315 6.2828 34.468 6.48357 34.3063 6.759C34.1447 7.03442 34.0979 7.3624 34.176 7.67206C34.2077 7.83342 34.2722 7.98655 34.3655 8.12195C34.4588 8.25734 34.579 8.37211 34.7185 8.45913C34.858 8.54615 35.014 8.60356 35.1766 8.6278C35.3393 8.65205 35.5052 8.6426 35.664 8.60006Z" fill="#333333"/>
<path d="M23.072 21.8481H19.696V20.8081H20.8C21.5441 20.8081 22.2579 20.5136 22.7855 19.9889C23.3132 19.4643 23.6117 18.7521 23.616 18.0081V16.1681C23.616 16.2641 24.336 16.1681 24.4 16.1681C24.5949 16.1367 24.7714 16.0344 24.8954 15.8809C25.0195 15.7273 25.0824 15.5332 25.072 15.3361C25.0247 15.0391 24.9273 14.7524 24.784 14.4881L24.4 13.5121C24.128 12.8401 23.856 12.1681 23.6 11.4801C23.6 11.4801 23.44 9.88006 23.296 9.33606C22.8497 7.87273 21.9479 6.59009 20.7219 5.67493C19.4959 4.75977 18.0098 4.25988 16.48 4.24806C14.9996 4.24537 13.5553 4.70525 12.349 5.56343C11.1427 6.42161 10.2346 7.63521 9.7517 9.03464C9.26877 10.4341 9.23511 11.9494 9.65541 13.3689C10.0757 14.7884 10.929 16.0412 12.096 16.9521V21.8481H9.15197C7.35885 21.8433 5.63505 22.5404 4.3493 23.7903C3.06355 25.0401 2.31794 26.7435 2.27197 28.5361V43.8001H30.4V29.5761C30.4319 28.586 30.2671 27.5995 29.9152 26.6736C29.5632 25.7477 29.031 24.9009 28.3494 24.1821C27.6679 23.4633 26.8505 22.8869 25.9446 22.4863C25.0387 22.0856 24.0623 21.8687 23.072 21.8481ZM19.136 17.0481C19.1987 16.8154 19.3291 16.6067 19.5106 16.4483C19.6922 16.2899 19.9167 16.189 20.1556 16.1584C20.3946 16.1278 20.6373 16.1689 20.8529 16.2765C21.0685 16.384 21.2472 16.5532 21.3665 16.7625C21.4858 16.9718 21.5402 17.2119 21.5229 17.4522C21.5055 17.6925 21.4172 17.9222 21.2691 18.1122C21.121 18.3022 20.9197 18.4439 20.6909 18.5194C20.4621 18.5949 20.2161 18.6007 19.984 18.5361C19.6867 18.4368 19.4393 18.2267 19.2932 17.9495C19.1472 17.6722 19.1138 17.3493 19.2 17.0481H19.136ZM15.344 19.8001C15.4067 19.5674 15.5371 19.3587 15.7186 19.2003C15.9002 19.0419 16.1247 18.941 16.3636 18.9104C16.6026 18.8798 16.8453 18.9209 17.0609 19.0285C17.2765 19.136 17.4552 19.3052 17.5745 19.5145C17.6938 19.7238 17.7482 19.9639 17.7309 20.2042C17.7135 20.4445 17.6252 20.6742 17.4771 20.8642C17.329 21.0542 17.1277 21.1959 16.8989 21.2714C16.6701 21.3469 16.4241 21.3527 16.192 21.2881C15.8829 21.202 15.6204 20.9974 15.4616 20.7187C15.3027 20.44 15.2605 20.1098 15.344 19.8001ZM24.608 40.6001C24.5463 40.7046 24.4603 40.7927 24.3572 40.8568C24.2541 40.9209 24.137 40.959 24.016 40.9681C23.8645 40.9649 23.7153 40.9306 23.5777 40.8673C23.4401 40.804 23.3169 40.713 23.216 40.6001L22.688 40.2161C22.1873 39.8885 21.6504 39.62 21.088 39.4161C19.952 38.9361 18.88 38.4881 18.88 37.3201C18.88 37.1761 18.88 36.9841 18.88 36.7761C18.8996 36.4403 18.8996 36.1038 18.88 35.7681C18.8338 35.2661 18.7482 34.7686 18.624 34.2801C18.5153 33.8107 18.4352 33.3351 18.384 32.8561C17.8832 32.7283 17.4285 32.4622 17.072 32.0881C16.678 31.6713 16.3683 31.1824 16.16 30.6481C15.9516 31.1824 15.642 31.6713 15.248 32.0881C14.8948 32.4583 14.4463 32.724 13.952 32.8561C13.902 33.3364 13.8165 33.8124 13.696 34.2801C13.5754 34.7687 13.4951 35.2663 13.456 35.7681C13.456 36.1521 13.456 36.5041 13.456 36.7761C13.456 37.0481 13.456 37.1761 13.456 37.3201C13.456 38.4881 12.384 38.9201 11.264 39.4161C10.702 39.6211 10.1652 39.8895 9.66397 40.2161L9.34397 40.6001C9.13196 40.8151 8.84577 40.941 8.54397 40.9521C8.43173 40.9412 8.32374 40.9036 8.22907 40.8424C8.1344 40.7811 8.05583 40.698 7.99997 40.6001C7.21597 39.4801 7.02397 35.8001 7.99997 32.6001C8.84797 29.7521 11.44 26.9521 13.232 26.9521C13.3582 26.948 13.4838 26.9717 13.5999 27.0215C13.716 27.0712 13.8198 27.1458 13.904 27.2401C14.368 27.7521 14.288 28.8401 14.224 29.9921V30.6321C14.224 30.5521 14.32 30.8401 14.32 31.2241L14.4 31.0001C15.2812 29.62 15.6962 27.9936 15.584 26.3601V25.8321C15.584 25.2561 15.584 24.7761 15.504 24.4401C15.4765 24.2512 15.5251 24.0592 15.6391 23.9062C15.7531 23.7532 15.9232 23.6518 16.112 23.6241C16.165 23.6159 16.2189 23.6159 16.272 23.6241H16.432C16.5248 23.6358 16.6143 23.666 16.6953 23.7128C16.7763 23.7595 16.8472 23.822 16.9038 23.8965C16.9604 23.971 17.0016 24.056 17.025 24.1466C17.0484 24.2371 17.0535 24.3315 17.04 24.4241C17.04 24.7761 17.04 25.2881 17.04 25.8641V26.3121C16.8936 27.9549 17.2868 29.6008 18.16 31.0001C18.2165 31.0618 18.281 31.1156 18.352 31.1601C18.352 30.7921 18.352 30.5041 18.448 30.5841C18.448 30.3761 18.448 30.1681 18.448 29.9441C18.448 28.7921 18.304 27.7041 18.768 27.1921C18.8507 27.0961 18.9542 27.0202 19.0706 26.9703C19.1871 26.9204 19.3134 26.8977 19.44 26.9041C21.232 26.9041 23.824 29.7041 24.672 32.5521C25.6 35.6881 25.376 39.4321 24.608 40.6001Z" fill="#333333"/>
</svg>
