<svg width="48" height="48" viewBox="0 0 48 48" fill="none" xmlns="http://www.w3.org/2000/svg">
<path d="M27.296 19.656C27.6157 19.6518 27.9209 19.5218 28.1455 19.2942C28.3701 19.0667 28.496 18.7598 28.496 18.44C28.4618 18.1436 28.3198 17.8701 28.0971 17.6715C27.8743 17.473 27.5863 17.3633 27.288 17.3633C26.9896 17.3633 26.7016 17.473 26.4788 17.6715C26.2561 17.8701 26.1141 18.1436 26.08 18.44C26.0841 18.7612 26.2135 19.0681 26.4407 19.2953C26.6678 19.5224 26.9747 19.6519 27.296 19.656Z" fill="#333333"/>
<path d="M33.0719 16.312C32.7522 16.3162 32.447 16.4462 32.2224 16.6738C31.9978 16.9014 31.8719 17.2083 31.8719 17.528C31.8719 17.8463 31.9984 18.1515 32.2234 18.3765C32.4485 18.6016 32.7537 18.728 33.0719 18.728C33.3917 18.728 33.6986 18.6021 33.9262 18.3775C34.1538 18.1529 34.2837 17.8477 34.2879 17.528C34.2838 17.2068 34.1544 16.8999 33.9272 16.6727C33.7001 16.4456 33.3932 16.3161 33.0719 16.312Z" fill="#333333"/>
<path d="M39.344 13.08C39.5079 13.0781 39.6697 13.043 39.8197 12.977C39.9697 12.911 40.1047 12.8153 40.2168 12.6958C40.3289 12.5762 40.4157 12.4352 40.4719 12.2813C40.5281 12.1274 40.5527 11.9636 40.544 11.8C40.5462 11.6418 40.5166 11.4848 40.4571 11.3382C40.3975 11.1917 40.3092 11.0585 40.1973 10.9467C40.0855 10.8348 39.9523 10.7465 39.8058 10.687C39.6592 10.6274 39.5022 10.5978 39.344 10.6C39.1737 10.5804 39.0012 10.597 38.8377 10.6487C38.6743 10.7005 38.5236 10.7862 38.3957 10.9003C38.2677 11.0143 38.1653 11.1542 38.0951 11.3106C38.025 11.4671 37.9888 11.6366 37.9888 11.808C37.9888 11.9794 38.025 12.1489 38.0951 12.3054C38.1653 12.4618 38.2677 12.6017 38.3957 12.7157C38.5236 12.8298 38.6743 12.9155 38.8377 12.9673C39.0012 13.019 39.1737 13.0356 39.344 13.016V13.08Z" fill="#333333"/>
<path d="M40.096 16.76C40.0991 16.5189 40.0305 16.2822 39.8988 16.0801C39.7672 15.8781 39.5784 15.7197 39.3565 15.6252C39.1346 15.5307 38.8896 15.5044 38.6527 15.5495C38.4158 15.5946 38.1976 15.7091 38.0259 15.8785C37.8543 16.0479 37.7369 16.2645 37.6886 16.5008C37.6404 16.7371 37.6635 16.9825 37.7551 17.2056C37.8466 17.4287 38.0024 17.6196 38.2028 17.7539C38.4031 17.8883 38.6388 17.96 38.88 17.96C39.1997 17.96 39.5066 17.8341 39.7342 17.6095C39.9618 17.3849 40.0917 17.0797 40.096 16.76Z" fill="#333333"/>
<path d="M44.304 8.344C44.0748 8.28261 43.8326 8.29053 43.6079 8.36674C43.3833 8.44296 43.1863 8.58405 43.0418 8.7722C42.8973 8.96035 42.8118 9.1871 42.7961 9.42382C42.7804 9.66053 42.8352 9.89658 42.9537 10.1021C43.0721 10.3077 43.2488 10.4736 43.4614 10.5787C43.6741 10.6839 43.9131 10.7237 44.1483 10.6931C44.3836 10.6625 44.6045 10.5628 44.7831 10.4067C44.9617 10.2506 45.0901 10.045 45.1519 9.816C45.1931 9.66366 45.2038 9.50471 45.1834 9.34824C45.163 9.19176 45.112 9.04084 45.0332 8.90412C44.9545 8.76739 44.8495 8.64754 44.7244 8.55143C44.5992 8.45531 44.4564 8.38483 44.304 8.344Z" fill="#333333"/>
<path d="M31.2479 20.216C31.0955 20.1726 30.936 20.1603 30.7788 20.1796C30.6216 20.199 30.4699 20.2497 30.3326 20.3288C30.1953 20.4079 30.0753 20.5137 29.9797 20.64C29.8841 20.7663 29.8148 20.9105 29.7759 21.064C29.7347 21.2163 29.724 21.3753 29.7444 21.5318C29.7648 21.6882 29.8158 21.8392 29.8946 21.9759C29.9733 22.1126 30.0783 22.2325 30.2034 22.3286C30.3286 22.4247 30.4715 22.4952 30.6239 22.536C30.9336 22.6195 31.2638 22.5773 31.5425 22.4184C31.8212 22.2596 32.0259 21.9971 32.1119 21.688C32.1528 21.5346 32.1628 21.3746 32.1414 21.2173C32.12 21.06 32.0676 20.9085 31.9872 20.7716C31.9069 20.6347 31.8001 20.5151 31.6732 20.4197C31.5463 20.3244 31.4017 20.2551 31.2479 20.216Z" fill="#333333"/>
<path d="M36.6719 20.456C36.5196 20.4149 36.3606 20.4042 36.2042 20.4245C36.0477 20.4449 35.8968 20.4959 35.76 20.5747C35.6233 20.6535 35.5035 20.7584 35.4073 20.8836C35.3112 21.0087 35.2407 21.1516 35.1999 21.304C35.1172 21.6117 35.16 21.9396 35.3191 22.2156C35.4781 22.4917 35.7403 22.6933 36.0479 22.776C36.3556 22.8588 36.6835 22.8159 36.9595 22.6569C37.2356 22.4978 37.4372 22.2357 37.5199 21.928C37.5611 21.7757 37.5718 21.6167 37.5514 21.4602C37.531 21.3038 37.48 21.1529 37.4012 21.0161C37.3225 20.8794 37.2175 20.7595 37.0924 20.6634C36.9672 20.5673 36.8243 20.4968 36.6719 20.456Z" fill="#333333"/>
<path d="M43.8719 18.584C43.6398 18.5194 43.3938 18.5252 43.165 18.6006C42.9362 18.6761 42.7349 18.8178 42.5868 19.0079C42.4387 19.1979 42.3503 19.4276 42.333 19.6679C42.3156 19.9082 42.3701 20.1482 42.4894 20.3575C42.6086 20.5669 42.7874 20.736 43.003 20.8436C43.2186 20.9511 43.4613 20.9922 43.7002 20.9616C43.9392 20.931 44.1637 20.8301 44.3453 20.6717C44.5268 20.5134 44.6572 20.3046 44.7199 20.072C44.7635 19.9186 44.776 19.7581 44.7568 19.5998C44.7376 19.4415 44.6871 19.2886 44.6081 19.1501C44.5292 19.0115 44.4234 18.8901 44.297 18.7929C44.1706 18.6957 44.0261 18.6247 43.8719 18.584Z" fill="#333333"/>
<path d="M40.512 23.512C40.2023 23.5983 39.9386 23.8022 39.7772 24.0802C39.6158 24.3582 39.5694 24.6883 39.648 25C39.734 25.309 39.9387 25.5716 40.2174 25.7304C40.4961 25.8892 40.8262 25.9315 41.136 25.848C41.2884 25.8072 41.4313 25.7367 41.5564 25.6406C41.6816 25.5445 41.7865 25.4246 41.8653 25.2879C41.944 25.1512 41.9951 25.0002 42.0154 24.8438C42.0358 24.6873 42.0251 24.5283 41.984 24.376C41.9012 24.0675 41.7005 23.804 41.425 23.6423C41.1496 23.4807 40.8216 23.4339 40.512 23.512Z" fill="#333333"/>
<path d="M29.5679 15.896C29.8476 15.7879 30.0776 15.5803 30.2135 15.313C30.3494 15.0457 30.3818 14.7376 30.3044 14.4479C30.2271 14.1582 30.0453 13.9073 29.7942 13.7434C29.5431 13.5795 29.2403 13.5142 28.9439 13.56C28.6355 13.6428 28.3719 13.8435 28.2103 14.119C28.0486 14.3944 28.0018 14.7224 28.0799 15.032C28.1189 15.1876 28.1887 15.3338 28.2851 15.462C28.3815 15.5902 28.5027 15.6978 28.6414 15.7783C28.7802 15.8589 28.9336 15.9108 29.0928 15.931C29.2519 15.9512 29.4135 15.9393 29.5679 15.896Z" fill="#333333"/>
<path d="M35.6479 12.328C35.5617 12.0183 35.3578 11.7546 35.0798 11.5932C34.8018 11.4318 34.4717 11.3854 34.1599 11.464C33.8509 11.55 33.5884 11.7547 33.4295 12.0334C33.2707 12.3121 33.2284 12.6423 33.3119 12.952C33.3528 13.1044 33.4233 13.2473 33.5194 13.3724C33.6155 13.4976 33.7353 13.6025 33.8721 13.6813C34.0088 13.7601 34.1597 13.8111 34.3162 13.8315C34.4727 13.8518 34.6316 13.8411 34.7839 13.8C35.0924 13.7173 35.3559 13.5165 35.5176 13.2411C35.6793 12.9656 35.7261 12.6377 35.6479 12.328Z" fill="#333333"/>
<path d="M35.664 8.6C35.9823 8.51726 36.2546 8.31147 36.4211 8.02791C36.5877 7.74436 36.6348 7.40626 36.552 7.088C36.4693 6.76974 36.2635 6.49739 35.9799 6.33086C35.6964 6.16433 35.3583 6.11726 35.04 6.2C34.7315 6.28274 34.468 6.48352 34.3063 6.75894C34.1447 7.03437 34.0979 7.36234 34.176 7.672C34.2077 7.83337 34.2722 7.9865 34.3655 8.12189C34.4588 8.25729 34.579 8.37206 34.7185 8.45907C34.858 8.54609 35.014 8.60351 35.1766 8.62775C35.3393 8.65199 35.5052 8.64255 35.664 8.6Z" fill="#333333"/>
<path d="M23.072 21.848H19.696V20.808H20.8C21.5441 20.808 22.2579 20.5135 22.7855 19.9889C23.3132 19.4642 23.6117 18.7521 23.616 18.008V16.168C23.616 16.264 24.336 16.168 24.4 16.168C24.5949 16.1367 24.7714 16.0344 24.8954 15.8808C25.0195 15.7272 25.0824 15.5332 25.072 15.336C25.0247 15.0391 24.9273 14.7523 24.784 14.488L24.4 13.512C24.128 12.84 23.856 12.168 23.6 11.48C23.6 11.48 23.44 9.88 23.296 9.336C22.8497 7.87268 21.9479 6.59004 20.7219 5.67488C19.4959 4.75971 18.0098 4.25982 16.48 4.24801C14.9996 4.24532 13.5553 4.7052 12.349 5.56338C11.1427 6.42156 10.2346 7.63516 9.7517 9.03459C9.26877 10.434 9.23511 11.9494 9.65541 13.3689C10.0757 14.7884 10.929 16.0411 12.096 16.952V21.848H9.15197C7.35885 21.8432 5.63505 22.5403 4.3493 23.7902C3.06355 25.0401 2.31794 26.7435 2.27197 28.536V43.8H30.4V29.576C30.4319 28.586 30.2671 27.5995 29.9152 26.6736C29.5632 25.7477 29.031 24.9008 28.3494 24.182C27.6679 23.4633 26.8505 22.8869 25.9446 22.4862C25.0387 22.0856 24.0623 21.8687 23.072 21.848ZM19.136 17.048C19.1987 16.8154 19.3291 16.6066 19.5106 16.4483C19.6922 16.2899 19.9167 16.189 20.1556 16.1584C20.3946 16.1278 20.6373 16.1689 20.8529 16.2764C21.0685 16.384 21.2472 16.5531 21.3665 16.7625C21.4858 16.9718 21.5402 17.2118 21.5229 17.4521C21.5055 17.6924 21.4172 17.9221 21.2691 18.1121C21.121 18.3022 20.9197 18.4439 20.6909 18.5193C20.4621 18.5948 20.2161 18.6006 19.984 18.536C19.6867 18.4368 19.4393 18.2266 19.2932 17.9494C19.1472 17.6722 19.1138 17.3493 19.2 17.048H19.136ZM15.344 19.8C15.4067 19.5674 15.5371 19.3586 15.7186 19.2003C15.9002 19.0419 16.1247 18.941 16.3636 18.9104C16.6026 18.8798 16.8453 18.9209 17.0609 19.0284C17.2765 19.136 17.4552 19.3051 17.5745 19.5145C17.6938 19.7238 17.7482 19.9638 17.7309 20.2041C17.7135 20.4444 17.6252 20.6741 17.4771 20.8641C17.329 21.0542 17.1277 21.1959 16.8989 21.2713C16.6701 21.3468 16.4241 21.3526 16.192 21.288C15.8829 21.202 15.6204 20.9973 15.4616 20.7186C15.3027 20.4399 15.2605 20.1097 15.344 19.8ZM24.608 40.6C24.5463 40.7046 24.4603 40.7927 24.3572 40.8567C24.2541 40.9208 24.137 40.959 24.016 40.968C23.8645 40.9648 23.7153 40.9305 23.5777 40.8672C23.4401 40.8039 23.3169 40.7129 23.216 40.6L22.688 40.216C22.1873 39.8884 21.6504 39.62 21.088 39.416C19.952 38.936 18.88 38.488 18.88 37.32C18.88 37.176 18.88 36.984 18.88 36.776C18.8996 36.4403 18.8996 36.1037 18.88 35.768C18.8338 35.266 18.7482 34.7685 18.624 34.28C18.5153 33.8106 18.4352 33.3351 18.384 32.856C17.8832 32.7283 17.4285 32.4621 17.072 32.088C16.678 31.6713 16.3683 31.1823 16.16 30.648C15.9516 31.1823 15.642 31.6713 15.248 32.088C14.8948 32.4582 14.4463 32.724 13.952 32.856C13.902 33.3364 13.8165 33.8123 13.696 34.28C13.5754 34.7686 13.4951 35.2663 13.456 35.768C13.456 36.152 13.456 36.504 13.456 36.776C13.456 37.048 13.456 37.176 13.456 37.32C13.456 38.488 12.384 38.92 11.264 39.416C10.702 39.621 10.1652 39.8894 9.66397 40.216L9.34397 40.6C9.13196 40.8151 8.84577 40.941 8.54397 40.952C8.43173 40.9412 8.32374 40.9036 8.22907 40.8423C8.1344 40.7811 8.05583 40.6979 7.99997 40.6C7.21597 39.48 7.02397 35.8 7.99997 32.6C8.84797 29.752 11.44 26.952 13.232 26.952C13.3582 26.948 13.4838 26.9717 13.5999 27.0214C13.716 27.0712 13.8198 27.1458 13.904 27.24C14.368 27.752 14.288 28.84 14.224 29.992V30.632C14.224 30.552 14.32 30.84 14.32 31.224L14.4 31C15.2812 29.62 15.6962 27.9935 15.584 26.36V25.832C15.584 25.256 15.584 24.776 15.504 24.44C15.4765 24.2512 15.5251 24.0592 15.6391 23.9062C15.7531 23.7532 15.9232 23.6517 16.112 23.624C16.165 23.6159 16.2189 23.6159 16.272 23.624H16.432C16.5248 23.6358 16.6143 23.6659 16.6953 23.7127C16.7763 23.7595 16.8472 23.8219 16.9038 23.8964C16.9604 23.9709 17.0016 24.0559 17.025 24.1465C17.0484 24.2371 17.0535 24.3314 17.04 24.424C17.04 24.776 17.04 25.288 17.04 25.864V26.312C16.8936 27.9549 17.2868 29.6007 18.16 31C18.2165 31.0617 18.281 31.1156 18.352 31.16C18.352 30.792 18.352 30.504 18.448 30.584C18.448 30.376 18.448 30.168 18.448 29.944C18.448 28.792 18.304 27.704 18.768 27.192C18.8507 27.096 18.9542 27.0201 19.0706 26.9702C19.1871 26.9203 19.3134 26.8977 19.44 26.904C21.232 26.904 23.824 29.704 24.672 32.552C25.6 35.688 25.376 39.432 24.608 40.6Z" fill="#333333"/>
</svg>
