<svg width="48" height="48" viewBox="0 0 48 48" fill="none" xmlns="http://www.w3.org/2000/svg">
<path d="M33.1126 14.0077C32.3136 13.8315 31.5848 13.4221 31.0188 12.8312C30.4528 12.2404 30.0749 11.4948 29.9332 10.6889C29.7914 9.88308 29.8921 9.05329 30.2226 8.30476C30.553 7.55623 31.0983 6.92267 31.7892 6.48441C32.4802 6.04615 33.2857 5.82293 34.1036 5.84305C34.9216 5.86316 35.7152 6.12571 36.3838 6.5974C37.0523 7.06909 37.5658 7.72868 37.859 8.49255C38.1523 9.25642 38.2121 10.0902 38.0309 10.8881C37.9129 11.4159 37.6921 11.9153 37.381 12.3578C37.07 12.8003 36.6748 13.1771 36.2181 13.4668C35.7613 13.7565 35.252 13.9534 34.7191 14.0462C34.1863 14.139 33.6404 14.1259 33.1126 14.0077Z" fill="#333333"/>
<path d="M14.7602 22.1298C14.9265 21.2559 15.2251 20.4124 15.6455 19.6285C15.6455 19.6285 19.004 12.8553 22.489 10.5647C23.7333 9.58414 25.3123 9.13012 26.8874 9.30003C27.3021 9.30193 27.7046 9.4407 28.0324 9.6948C28.3602 9.94889 28.5949 10.3041 28.7001 10.7053C28.7001 10.7053 28.7001 10.7896 28.7001 10.8317L30.0351 16.9726L36.2884 19.3615C36.7014 19.5204 37.0459 19.8186 37.2622 20.2046C37.4786 20.5906 37.5532 21.04 37.4731 21.4752C37.3931 21.9104 37.1635 22.304 36.8239 22.5877C36.4844 22.8715 36.0564 23.0276 35.6139 23.0292C35.3833 23.028 35.1548 22.9852 34.9394 22.9027L27.7024 20.0922C27.4022 19.9781 27.1361 19.7891 26.9295 19.5431C26.7228 19.2972 26.5826 19.0024 26.522 18.687L26.1848 16.9867C25.5555 18.2408 24.8516 19.4562 24.0769 20.6262L31.2717 23.4367C31.7679 23.6525 32.1867 24.014 32.4728 24.4732C32.7589 24.9325 32.8987 25.4678 32.8737 26.0083L34.0822 36.6178C34.1403 36.9359 34.1336 37.2624 34.0625 37.5779C33.9914 37.8933 33.8574 38.1911 33.6684 38.4536C33.4795 38.716 33.2395 38.9376 32.9629 39.105C32.6863 39.2725 32.3788 39.3824 32.0587 39.4282C31.3856 39.4915 30.7145 39.2887 30.1892 38.8632C29.6638 38.4376 29.3261 37.8233 29.2482 37.1518L28.2926 27.821L16.9524 25.2775C16.2562 25.1281 15.6427 24.7201 15.2358 24.1358C14.8289 23.5515 14.6589 22.8346 14.7602 22.1298Z" fill="#333333"/>
<path d="M7.69187 36.8289C10.055 36.5156 12.4003 36.0794 14.718 35.5221C18.1047 35.4237 20.8168 34.8757 22.9246 36.2809C25.0325 37.6861 22.0534 38.8384 24.3298 39.9767C26.6063 41.1149 20.4233 42.2391 17.5847 41.7051C14.7461 41.1711 14.8586 39.6254 10.6569 38.6276C6.45527 37.6299 4.48794 37.2084 7.69187 36.8289Z" fill="#333333"/>
<path d="M19.1445 28.1725C19.229 28.2114 19.3047 28.2671 19.3671 28.3362C19.4294 28.4052 19.4772 28.4862 19.5074 28.5741C19.5376 28.6621 19.5496 28.7553 19.5428 28.8481C19.536 28.9409 19.5105 29.0313 19.4677 29.114L17.5285 33.1611C17.4682 33.2804 17.3757 33.3805 17.2615 33.4501C17.1473 33.5196 17.0158 33.5558 16.8821 33.5545C16.7747 33.5584 16.6682 33.5341 16.573 33.4843C16.4898 33.4438 16.4155 33.3873 16.3542 33.318C16.2929 33.2488 16.2459 33.1681 16.2159 33.0806C16.1858 32.9931 16.1734 32.9006 16.1792 32.8083C16.185 32.716 16.209 32.6258 16.2498 32.5427L18.189 28.4957C18.2735 28.3267 18.4213 28.198 18.6003 28.1375C18.7792 28.077 18.9748 28.0895 19.1445 28.1725Z" fill="#333333"/>
<path d="M16.7557 26.5706C16.842 26.6059 16.9204 26.6581 16.9863 26.7241C17.0523 26.79 17.1044 26.8685 17.1398 26.9548C17.1751 27.0411 17.1928 27.1336 17.192 27.2269C17.1912 27.3201 17.1719 27.4123 17.1351 27.498L14.6619 33.119C14.607 33.2446 14.5166 33.3515 14.4017 33.4264C14.2868 33.5014 14.1526 33.541 14.0154 33.5405C13.9229 33.5616 13.8269 33.5616 13.7344 33.5405C13.6481 33.5054 13.5697 33.4532 13.5042 33.3869C13.4387 33.3206 13.3873 33.2418 13.3531 33.1551C13.3189 33.0683 13.3027 32.9756 13.3055 32.8824C13.3082 32.7893 13.3298 32.6976 13.369 32.6131L15.8282 26.9921C15.8576 26.9009 15.9057 26.8167 15.9695 26.7451C16.0333 26.6735 16.1114 26.616 16.1987 26.5763C16.286 26.5366 16.3807 26.5156 16.4766 26.5146C16.5725 26.5136 16.6675 26.5327 16.7557 26.5706Z" fill="#333333"/>
</svg>
