<svg width="48" height="48" viewBox="0 0 48 48" fill="none" xmlns="http://www.w3.org/2000/svg">
<path d="M33.1126 14.0077C32.3136 13.8315 31.5848 13.4221 31.0188 12.8312C30.4528 12.2404 30.0749 11.4948 29.9332 10.6889C29.7914 9.88308 29.8922 9.05329 30.2226 8.30476C30.553 7.55623 31.0983 6.92267 31.7892 6.48441C32.4802 6.04615 33.2857 5.82293 34.1037 5.84305C34.9216 5.86316 35.7152 6.12571 36.3838 6.5974C37.0524 7.06909 37.5658 7.72868 37.859 8.49255C38.1523 9.25642 38.2121 10.0902 38.0309 10.8881C37.9129 11.4159 37.6921 11.9153 37.3811 12.3578C37.07 12.8003 36.6748 13.1771 36.2181 13.4668C35.7613 13.7565 35.252 13.9534 34.7191 14.0462C34.1863 14.139 33.6404 14.1259 33.1126 14.0077Z" fill="#333333"/>
<path d="M14.7603 22.1294C14.9265 21.2555 15.2251 20.412 15.6455 19.6281C15.6455 19.6281 19.0041 12.8548 22.489 10.5643C23.7333 9.58371 25.3123 9.12969 26.8874 9.2996C27.3021 9.3015 27.7046 9.44028 28.0324 9.69437C28.3602 9.94847 28.5949 10.3037 28.7002 10.7048C28.7002 10.7048 28.7002 10.7891 28.7002 10.8313L30.0351 16.9722L36.2884 19.3611C36.7014 19.5199 37.0459 19.8181 37.2622 20.2041C37.4786 20.5901 37.5532 21.0396 37.4732 21.4748C37.3931 21.91 37.1635 22.3035 36.824 22.5873C36.4844 22.8711 36.0564 23.0272 35.6139 23.0287C35.3833 23.0276 35.1548 22.9848 34.9394 22.9023L27.7024 20.0918C27.4022 19.9777 27.1361 19.7887 26.9295 19.5427C26.7229 19.2968 26.5826 19.002 26.5221 18.6866L26.1848 16.9862C25.5555 18.2404 24.8516 19.4558 24.0769 20.6258L31.2717 23.4362C31.7679 23.6521 32.1867 24.0136 32.4728 24.4728C32.7589 24.932 32.8987 25.4674 32.8737 26.0078L34.0822 36.6173C34.1403 36.9354 34.1336 37.262 34.0625 37.5774C33.9914 37.8929 33.8574 38.1907 33.6684 38.4531C33.4795 38.7155 33.2395 38.9371 32.9629 39.1046C32.6863 39.2721 32.3788 39.382 32.0587 39.4278C31.3856 39.4911 30.7145 39.2882 30.1892 38.8627C29.6638 38.4372 29.3261 37.8229 29.2482 37.1513L28.2926 27.8206L16.9524 25.2771C16.2563 25.1277 15.6428 24.7196 15.2358 24.1354C14.8289 23.5511 14.659 22.8341 14.7603 22.1294Z" fill="#333333"/>
<path d="M7.69189 36.8291C10.055 36.5158 12.4003 36.0796 14.7181 35.5223C18.1047 35.4239 20.8168 34.8759 22.9246 36.2811C25.0325 37.6863 22.0534 38.8386 24.3299 39.9769C26.6063 41.1151 20.4233 42.2393 17.5847 41.7053C14.7462 41.1713 14.8586 39.6256 10.6569 38.6278C6.45528 37.6301 4.48796 37.2086 7.69189 36.8291Z" fill="#333333"/>
<path d="M19.1445 28.1724C19.229 28.2113 19.3047 28.267 19.3671 28.3361C19.4294 28.4051 19.4772 28.4861 19.5074 28.5741C19.5376 28.662 19.5496 28.7552 19.5428 28.848C19.536 28.9408 19.5105 29.0312 19.4677 29.1139L17.5285 33.161C17.4682 33.2803 17.3757 33.3804 17.2615 33.45C17.1473 33.5195 17.0158 33.5557 16.8821 33.5544C16.7747 33.5583 16.6682 33.534 16.573 33.4842C16.4898 33.4437 16.4155 33.3872 16.3542 33.3179C16.2929 33.2487 16.2459 33.168 16.2159 33.0805C16.1858 32.993 16.1734 32.9005 16.1792 32.8082C16.185 32.7159 16.209 32.6257 16.2498 32.5427L18.189 28.4956C18.2735 28.3266 18.4213 28.1979 18.6003 28.1374C18.7792 28.0769 18.9748 28.0894 19.1445 28.1724Z" fill="#333333"/>
<path d="M16.7557 26.5707C16.842 26.606 16.9204 26.6582 16.9864 26.7241C17.0523 26.7901 17.1045 26.8685 17.1398 26.9549C17.1751 27.0412 17.1929 27.1337 17.1921 27.227C17.1912 27.3202 17.1719 27.4124 17.1351 27.4981L14.6619 33.119C14.607 33.2447 14.5166 33.3516 14.4017 33.4265C14.2869 33.5014 14.1526 33.5411 14.0155 33.5406C13.923 33.5617 13.8269 33.5617 13.7344 33.5406C13.6481 33.5055 13.5698 33.4532 13.5042 33.387C13.4387 33.3207 13.3873 33.2418 13.3531 33.1551C13.3189 33.0684 13.3027 32.9757 13.3055 32.8825C13.3082 32.7894 13.3299 32.6977 13.3691 32.6132L15.8282 26.9922C15.8576 26.9009 15.9057 26.8168 15.9695 26.7452C16.0333 26.6735 16.1114 26.6161 16.1987 26.5764C16.286 26.5367 16.3807 26.5157 16.4766 26.5147C16.5725 26.5137 16.6676 26.5328 16.7557 26.5707Z" fill="#333333"/>
</svg>
