<svg width="48" height="48" viewBox="0 0 48 48" fill="none" xmlns="http://www.w3.org/2000/svg">
<path fill-rule="evenodd" clip-rule="evenodd" d="M15.6354 29.9379C15.4505 30.5618 15.4381 31.3078 15.7149 32.199C15.8088 32.1901 15.9039 32.1855 16 32.1855C17.6569 32.1855 19 33.5386 19 35.2078C19 36.8769 17.6569 38.23 16 38.23C14.3431 38.23 13 36.8769 13 35.2078C13 34.3662 13.3415 33.6049 13.8925 33.0569C13.4321 31.7413 13.3829 30.5001 13.7178 29.3697C13.7252 29.3447 13.7328 29.3198 13.7406 29.295C9.54212 30.7971 6 33.1901 6 36.4669V43.0002H42V36.4669C42 33.2195 38.5212 30.8401 34.3723 29.3357C34.5763 29.916 34.6923 30.5337 34.7142 31.1855H34.9412C35.1715 31.1855 35.3947 31.265 35.5732 31.4106L37.632 33.0896C37.8649 33.2795 38 33.5641 38 33.8646V38.23C38 38.7823 37.5523 39.23 37 39.23H34.9412V37.23H36V34.3394L34.5851 33.1855H34.5045C34.4953 33.2249 34.4858 33.2644 34.476 33.304L33.9986 33.1855H32.4149L31 34.3394V37.23H32.0588V39.23H30C29.4477 39.23 29 38.7823 29 38.23V33.8646C29 33.5641 29.1351 33.2795 29.368 33.0896L31.4268 31.4106C31.6053 31.265 31.8285 31.1855 32.0588 31.1855H32.7126C32.6878 30.6732 32.5803 30.2149 32.4114 29.8046C32.2091 29.3133 31.9073 28.8632 31.5142 28.4563C31.3833 28.4225 31.2523 28.3895 31.1214 28.3573C30.6186 28.2338 30.1029 28.4865 29.8746 28.9544L25.8105 28.9544C24.9218 28.9546 24.4694 28.9546 24.0249 28.9545H24.0248H24.0248C23.5637 28.9545 23.1112 28.9545 22.1893 28.9547L18.1254 28.9544C17.8971 28.4865 17.3814 28.2338 16.8786 28.3573C16.7666 28.3849 16.6544 28.413 16.5424 28.4418C16.0993 28.8981 15.7951 29.3992 15.6354 29.9379ZM17 35.2078C17 35.7863 16.5384 36.23 16 36.23C15.4616 36.23 15 35.7863 15 35.2078C15 34.6293 15.4616 34.1855 16 34.1855C16.5384 34.1855 17 34.6293 17 35.2078Z" fill="#333333"/>
<path d="M12 20.1864C12 24.8136 20.3532 26 20.3532 26C20.3532 26 14.6318 17.1017 17.4925 15.5593C20.3532 14.0169 28.1343 11.0508 28.7065 12.1186C33.9701 19.7119 27.2189 26 27.2189 26C27.2189 26 35 25.2881 35 20.1864C35 15.0847 31.3383 8.91525 31.3383 8.91525C31.3383 8.91525 28.7065 5 23.5572 5C18.408 5 16.5771 8.91525 16.5771 8.91525C16.5771 8.91525 12 15.5593 12 20.1864Z" fill="#333333"/>
</svg>
