<svg width="48" height="48" viewBox="0 0 48 48" fill="none" xmlns="http://www.w3.org/2000/svg">
<path d="M32.8086 19.9746C32.5622 20.4539 31.0281 13.992 31.0281 13.992C31.0281 13.992 26.0105 14.8022 20.0218 10.8137C16.8386 10.6268 15.274 19.7253 15.274 19.7253C15.274 19.7253 11.2815 13.0573 17.4321 8.07164C17.5108 8.04564 17.5595 7.81477 17.6311 7.47497C17.903 6.18493 18.5059 3.32491 22.3418 4.14553C22.7232 4.22713 23.1935 4.30337 23.724 4.38938C27.2459 4.96037 33.4203 5.96138 33.8337 11.8108C34.2234 17.3249 33.9094 17.9113 33.0902 19.4409C33.0021 19.6055 32.9081 19.7809 32.8086 19.9746Z" fill="#333333"/>
<path d="M15.7149 31.8728C15.4381 30.9817 15.4505 30.2356 15.6354 29.6118C15.7951 29.073 16.0993 28.572 16.5424 28.1156C16.6544 28.0869 16.7666 28.0587 16.8786 28.0312C17.3814 27.9076 17.8971 28.1604 18.1254 28.6282L22.1893 28.6285C23.1093 28.6283 23.5618 28.6283 24.0219 28.6284H24.0248C24.4692 28.6284 24.9218 28.6284 25.8105 28.6282L29.8746 28.6282C30.1029 28.1604 30.6186 27.9076 31.1214 28.0312C31.2523 28.0633 31.3833 28.0963 31.5142 28.1301C31.9073 28.537 32.2091 28.9872 32.4114 29.4785C32.5803 29.8887 32.6878 30.347 32.7126 30.8594H32.0588C31.8285 30.8594 31.6053 30.9389 31.4268 31.0844L29.368 32.7634C29.1351 32.9533 29 33.2379 29 33.5384V37.9038C29 38.4561 29.4477 38.9038 30 38.9038H32.0588V36.9038H31V34.0132L32.4149 32.8594H33.9986L34.476 32.9778C34.4858 32.9382 34.4953 32.8988 34.5045 32.8594H34.5851L36 34.0132V36.9038H34.9412V38.9038H37C37.5523 38.9038 38 38.4561 38 37.9038V33.5384C38 33.2379 37.8649 32.9533 37.632 32.7634L35.5732 31.0844C35.3947 30.9389 35.1715 30.8594 34.9412 30.8594H34.7142C34.6923 30.2076 34.5763 29.5899 34.3723 29.0095C38.5212 30.5139 42 32.8934 42 36.1407V43H6V36.1407C6 32.864 9.54212 30.4709 13.7406 28.9689C13.7328 28.9937 13.7252 29.0186 13.7178 29.0435C13.3829 30.1739 13.4321 31.4151 13.8925 32.7308C13.3415 33.2787 13 34.04 13 34.8816C13 36.5507 14.3431 37.9038 16 37.9038C17.6569 37.9038 19 36.5507 19 34.8816C19 33.2125 17.6569 31.8594 16 31.8594C15.9039 31.8594 15.8088 31.8639 15.7149 31.8728Z" fill="#333333"/>
<path d="M16 35.9038C16.5384 35.9038 17 35.4601 17 34.8816C17 34.3031 16.5384 33.8594 16 33.8594C15.4616 33.8594 15 34.3031 15 34.8816C15 35.4601 15.4616 35.9038 16 35.9038Z" fill="#333333"/>
</svg>
