<svg width="48" height="48" viewBox="0 0 48 48" fill="none" xmlns="http://www.w3.org/2000/svg">
<path d="M20.3532 26C20.3532 26 12 24.8136 12 20.1864C12 15.5593 16.5771 8.91525 16.5771 8.91525C16.5771 8.91525 18.408 5 23.5572 5C28.7065 5 31.3383 8.91525 31.3383 8.91525C31.3383 8.91525 35 15.0847 35 20.1864C35 25.2881 27.2189 26 27.2189 26C27.2189 26 33.9701 19.7119 28.7065 12.1186C28.1343 11.0508 20.3532 14.0169 17.4925 15.5593C14.6318 17.1017 20.3532 26 20.3532 26Z" fill="#333333"/>
<path d="M15.7149 32.1985C15.4381 31.3074 15.4505 30.5613 15.6354 29.9375C15.7951 29.3987 16.0993 28.8976 16.5424 28.4413C16.6544 28.4125 16.7666 28.3844 16.8786 28.3569C17.3814 28.2333 17.8971 28.4861 18.1254 28.9539L22.1893 28.9542C23.1093 28.954 23.5618 28.954 24.0219 28.954H24.0324C24.4745 28.9541 24.9268 28.9541 25.8105 28.9539L29.8746 28.9539C30.1029 28.4861 30.6186 28.2333 31.1214 28.3569C31.2523 28.389 31.3833 28.422 31.5142 28.4558C31.9073 28.8627 32.2091 29.3129 32.4114 29.8041C32.5803 30.2144 32.6878 30.6727 32.7126 31.1851H32.0588C31.8285 31.1851 31.6053 31.2645 31.4268 31.4101L29.368 33.0891C29.1351 33.279 29 33.5636 29 33.8641V38.2295C29 38.7818 29.4477 39.2295 30 39.2295H32.0588V37.2295H31V34.3389L32.4149 33.1851H33.9986L34.476 33.3035C34.4858 33.2639 34.4953 33.2244 34.5045 33.1851H34.5851L36 34.3389V37.2295H34.9412V39.2295H37C37.5523 39.2295 38 38.7818 38 38.2295V33.8641C38 33.5636 37.8649 33.279 37.632 33.0891L35.5732 31.4101C35.3947 31.2645 35.1715 31.1851 34.9412 31.1851H34.7142C34.6923 30.5333 34.5763 29.9155 34.3723 29.3352C38.5212 30.8396 42 33.2191 42 36.4664V42.9997H6V36.4664C6 33.1897 9.54212 30.7966 13.7406 29.2945C13.7328 29.3193 13.7252 29.3442 13.7178 29.3692C13.3829 30.4996 13.4321 31.7408 13.8925 33.0564C13.3415 33.6044 13 34.3657 13 35.2073C13 36.8764 14.3431 38.2295 16 38.2295C17.6569 38.2295 19 36.8764 19 35.2073C19 33.5382 17.6569 32.1851 16 32.1851C15.9039 32.1851 15.8088 32.1896 15.7149 32.1985Z" fill="#333333"/>
<path d="M16 36.2295C16.5384 36.2295 17 35.7858 17 35.2073C17 34.6288 16.5384 34.1851 16 34.1851C15.4616 34.1851 15 34.6288 15 35.2073C15 35.7858 15.4616 36.2295 16 36.2295Z" fill="#333333"/>
</svg>
