<svg width="48" height="48" viewBox="0 0 48 48" fill="none" xmlns="http://www.w3.org/2000/svg">
<path d="M19.2989 5C21.5534 5 23.398 6.76889 23.398 8.93087C23.398 11.0928 21.5534 12.8617 19.2989 12.8617C17.0444 12.8617 15.1998 11.0928 15.1998 8.93087C15.1998 6.76889 17.0444 5 19.2989 5Z" fill="#333333"/>
<path fill-rule="evenodd" clip-rule="evenodd" d="M25.4475 18.758H35.6953C36.8225 18.758 37.7449 17.8736 37.7449 16.7926C37.7449 15.7116 36.8225 15 35.6953 15H23V19V30H16V19V15H13.1501C12.0229 15 8.54199 16.7926 8.54199 20.6113C8.54199 25.6779 12.0229 27.7355 13.1501 27.7355V42.3432C13.1501 43.4242 14.0724 44.3087 15.1997 44.3087C16.3269 44.3087 17.2492 43.4242 17.2492 42.3432V32.5161H21.3484V42.3432C21.3484 43.4242 22.2707 44.3087 23.3979 44.3087C24.5252 44.3087 25.4475 43.4242 25.4475 42.3432V18.758ZM21 19V15H18V19H21Z" fill="#333333"/>
<rect x="32" y="9" width="2" height="22" rx="1" fill="#333333"/>
<path d="M33 30C30.2386 30 28 32.2386 28 35H38C38 32.2386 35.7614 30 33 30Z" fill="#333333"/>
</svg>
