<svg width="48" height="48" viewBox="0 0 48 48" fill="none" xmlns="http://www.w3.org/2000/svg">
<path fill-rule="evenodd" clip-rule="evenodd" d="M32 5.5V18C32 18.5523 32.4477 19 33 19H44C44.5523 19 45 18.5523 45 18V9.04031C45 8.62106 44.515 8.38797 44.1877 8.64988L40.8123 11.3501C40.485 11.612 40 11.3789 40 10.9597V9.04031C40 8.62106 39.515 8.38797 39.1877 8.64988L35.8123 11.3501C35.485 11.612 35 11.3789 35 10.9597V5.5C35 5.22386 34.7761 5 34.5 5H32.5C32.2239 5 32 5.22386 32 5.5ZM36.4 14C36.1791 14 36 14.1791 36 14.4V15.6C36 15.8209 36.1791 16 36.4 16H37.6C37.8209 16 38 15.8209 38 15.6V14.4C38 14.1791 37.8209 14 37.6 14H36.4ZM41 14.4C41 14.1791 41.1791 14 41.4 14H42.6C42.8209 14 43 14.1791 43 14.4V15.6C43 15.8209 42.8209 16 42.6 16H41.4C41.1791 16 41 15.8209 41 15.6V14.4Z" fill="#333333"/>
<path fill-rule="evenodd" clip-rule="evenodd" d="M22.6364 10.806C21.7986 10.3571 20.8794 10.0389 19.9091 9.91406V11.8104C19.9091 12.3125 19.5021 12.7195 19 12.7195C18.4979 12.7195 18.0909 12.3125 18.0909 11.8104V9.91406C17.1206 10.0389 16.2014 10.3571 15.3636 10.806V13.6286C15.3636 14.1307 14.9566 14.5377 14.4545 14.5377C13.9525 14.5377 13.5455 14.1307 13.5455 13.6286V12.0838C13.0179 12.5549 12.5519 13.0734 12.1612 13.6114L12.1553 13.6214L12.1495 13.6309L12.1457 13.6369L12.1307 13.6614C12.1171 13.6837 12.0966 13.7181 12.0706 13.7632C12.0185 13.8535 11.9448 13.9868 11.8606 14.1541C11.6915 14.49 11.4835 14.9566 11.3235 15.4843C10.9949 16.5684 10.9107 17.7645 11.5628 18.6631C11.7267 18.8889 11.68 19.2017 11.4586 19.3617C11.2371 19.5218 10.9247 19.4685 10.7608 19.2427C10.2118 18.4862 10.0493 17.6275 10.0789 16.8122C9.38891 17.7704 9 18.751 9 19.6055C9 20.6996 9.63744 21.4307 10.728 21.9171C10.7851 26.4368 14.4667 30.0832 19 30.0832C23.5333 30.0832 27.215 26.4368 27.2721 21.9171C28.3626 21.4307 29 20.6996 29 19.6055C29 18.6936 28.5572 17.6382 27.7782 16.6198C27.7612 16.7319 27.7421 16.8415 27.7214 16.9477C27.6015 17.5627 27.4226 18.1081 27.2746 18.4985C27.2004 18.6944 27.1332 18.8529 27.0841 18.9636C27.0595 19.019 27.0394 19.0626 27.0251 19.0929L27.0081 19.1285L27.0032 19.1387L27.0017 19.1417L27.0012 19.1428C27.0011 19.1429 27.0008 19.1435 26.5598 18.9246L27.0012 19.1428C26.8784 19.3901 26.578 19.4918 26.3306 19.369C26.0834 19.2463 25.9824 18.9465 26.1049 18.6993L26.1081 18.6928L26.1205 18.6666C26.1318 18.6427 26.1487 18.6061 26.17 18.5581C26.2127 18.462 26.2726 18.3205 26.3396 18.144C26.4739 17.7896 26.6338 17.3005 26.7398 16.7564C26.8233 16.3281 26.8695 15.8876 26.853 15.4615C26.4187 14.3006 25.5759 13.0851 24.4545 12.0838V13.6286C24.4545 14.1307 24.0475 14.5377 23.5455 14.5377C23.0434 14.5377 22.6364 14.1307 22.6364 13.6286V10.806ZM19 28.0832C15.7662 28.0832 13.1039 25.636 12.764 22.4926C14.4738 22.7916 16.6416 22.8555 19 22.8555C21.3585 22.8555 23.5262 22.7916 25.2361 22.4926C24.8961 25.636 22.2339 28.0832 19 28.0832Z" fill="#333333"/>
<path d="M12.6699 32.0248C13.1168 31.9267 13.5752 32.1274 13.7781 32.4989L17.3905 32.7164L20.6093 32.7167L24.2219 32.4989C24.4248 32.1274 24.8832 31.9267 25.3301 32.0248C30.1338 33.0794 35 35.2297 35 38.4647V44H27V36C27 35.4477 26.5523 35 26 35C25.4477 35 25 35.4477 25 36V44H13V36C13 35.4477 12.5523 35 12 35C11.4477 35 11 35.4477 11 36V44H3V38.4647C3 35.2297 7.8662 33.0794 12.6699 32.0248Z" fill="#333333"/>
</svg>
