<svg width="48" height="48" viewBox="0 0 48 48" fill="none" xmlns="http://www.w3.org/2000/svg">
<path d="M33.1924 24.7061C34.7545 26.2682 37.2871 26.2682 38.8492 24.7061C40.4113 23.144 40.4113 20.6114 38.8492 19.0493C37.2871 17.4872 34.7545 17.4872 33.1924 19.0493C31.6303 20.6114 31.6303 23.144 33.1924 24.7061Z" fill="#333333"/>
<path fill-rule="evenodd" clip-rule="evenodd" d="M38.1421 38.1412C30.3316 45.9516 17.6684 45.9516 9.85786 38.1412C2.04738 30.3307 2.04738 17.6674 9.85786 9.85689C17.6684 2.0464 30.3316 2.0464 38.1421 9.85689C45.9526 17.6674 45.9526 30.3307 38.1421 38.1412ZM36.7279 36.7269C29.6985 43.7564 18.3015 43.7564 11.2721 36.7269C5.27491 30.7298 4.39423 21.5536 8.63003 14.6228L14.3683 12.7784C16.877 11.972 18.7756 15.0813 16.9123 16.9446C14.0705 19.7864 16.0832 24.6455 20.1021 24.6455L21.0127 24.6455C22.3213 24.6455 23.4663 25.5252 23.8035 26.7895L24.2948 28.632C23.8609 28.3808 23.3327 28.2915 22.8078 28.4227L17.151 29.8369C16.0794 30.1048 15.4279 31.1907 15.6958 32.2623C15.9637 33.3339 17.0495 33.9854 18.1211 33.7175L21.8377 32.7883L22.7668 36.5049C23.0096 37.4761 23.933 38.1182 24.928 38.0076C32.261 37.1928 35.5957 32.0073 36.4793 29.651C36.7191 29.0114 36.6159 28.2935 36.2055 27.7473C35.7951 27.2012 35.1344 26.9023 34.4532 26.9547L31.541 27.1787L30.5365 23.1604C30.2686 22.0888 29.1827 21.4373 28.1111 21.7052C27.0395 21.9731 26.388 23.059 26.6559 24.1305L28.0701 29.7874C28.3067 30.7336 29.1913 31.3712 30.1638 31.2964L30.633 31.2603C29.8591 31.9999 28.8586 32.7143 27.5943 33.2432L25.7359 26.2742C25.1653 24.1344 23.2274 22.6455 21.0127 22.6455H20.1021C17.865 22.6455 16.7446 19.9407 18.3265 18.3588C21.6739 15.0114 18.2631 9.42568 13.7563 10.8743L10.7167 11.8513C10.8967 11.6548 11.0818 11.4614 11.2721 11.2711C18.3015 4.24166 29.6985 4.24166 36.7279 11.2711C43.7574 18.3005 43.7574 29.6975 36.7279 36.7269Z" fill="#333333"/>
</svg>
