<svg width="48" height="48" viewBox="0 0 48 48" fill="none" xmlns="http://www.w3.org/2000/svg">
<path d="M36 20C36 26.6274 28.8366 32 20 32C17.2389 32 14.6411 31.4754 12.3741 30.5519C10.1224 32.3105 6.78453 32.8058 5.08289 32.9453C4.65714 32.9802 4.4071 32.4834 4.6499 32.1319C5.31284 31.1723 6.35561 29.4537 7.16049 27.1616C5.17509 25.1626 4 22.6842 4 20C4 13.3726 11.1634 8 20 8C28.8366 8 36 13.3726 36 20Z" fill="#333333"/>
<path d="M38 20.0002C38 26.9957 31.4033 32.7928 22.7843 33.8337C25.0343 35.3074 27.9781 36.2002 31.2 36.2002C33.4089 36.2002 35.4872 35.7806 37.3007 35.0418C39.0109 36.3773 41.5041 36.8021 42.917 36.9372C43.3423 36.9779 43.5953 36.481 43.3579 36.1259C42.8276 35.3325 42.068 34.0278 41.4716 32.3295C43.0599 30.7303 44 28.7476 44 26.6002C44 23.136 41.5534 20.1003 37.8855 18.4121C37.9612 18.9333 38 19.4632 38 20.0002Z" fill="#333333"/>
</svg>
