<svg width="48" height="48" viewBox="0 0 48 48" fill="none" xmlns="http://www.w3.org/2000/svg">
<path fill-rule="evenodd" clip-rule="evenodd" d="M20 32C28.8366 32 36 26.6274 36 20C36 13.3726 28.8366 8 20 8C11.1634 8 4 13.3726 4 20C4 22.6842 5.17509 25.1626 7.16049 27.1616C6.35561 29.4537 5.31284 31.1723 4.6499 32.1319C4.4071 32.4834 4.65714 32.9802 5.08289 32.9453C6.78453 32.8058 10.1224 32.3105 12.3741 30.5519C14.6411 31.4754 17.2389 32 20 32Z" fill="#333333"/>
<path fill-rule="evenodd" clip-rule="evenodd" d="M22.7842 33.8337C31.4032 32.7928 37.9999 26.9957 37.9999 20.0002C37.9999 19.4632 37.961 18.9333 37.8854 18.4121C41.5533 20.1003 43.9999 23.136 43.9999 26.6002C43.9999 28.7476 43.0598 30.7303 41.4715 32.3295C42.0679 34.0278 42.8275 35.3325 43.3578 36.1259C43.5951 36.481 43.3421 36.9779 42.9169 36.9372C41.504 36.8021 39.0107 36.3773 37.3006 35.0418C35.487 35.7806 33.4088 36.2002 31.1999 36.2002C27.978 36.2002 25.0342 35.3074 22.7842 33.8337Z" fill="#333333"/>
</svg>
