<svg width="48" height="48" viewBox="0 0 48 48" fill="none" xmlns="http://www.w3.org/2000/svg">
<path d="M18.4904 18C23.7371 18 27.9904 14.6421 27.9904 10.5C27.9904 6.35786 23.7371 3 18.4904 3C13.2437 3 8.99041 6.35786 8.99041 10.5C8.99041 11.5062 9.24139 12.4661 9.69661 13.3428C8.69115 14.5752 8.4449 16.4411 8.39704 17.6139C8.37962 18.0407 8.89496 18.259 9.23713 18.0033C9.92338 17.4904 11.0133 16.7948 12.4291 16.2753C14.0739 17.3525 16.1864 18 18.4904 18Z" fill="#333333"/>
<path d="M13 32C15.7625 32 18 29.7625 18 27C18 24.2375 15.7625 22 13 22C10.2375 22 8 24.2375 8 27C8 29.7625 10.2375 32 13 32Z" fill="#333333"/>
<path d="M13 34C9.6625 34 3 35.7867 3 39.3333V42H23V39.3333C23 35.7867 16.3375 34 13 34Z" fill="#333333"/>
<path d="M40 27C40 29.7625 37.7625 32 35 32C32.2375 32 30 29.7625 30 27C30 24.2375 32.2375 22 35 22C37.7625 22 40 24.2375 40 27Z" fill="#333333"/>
<path d="M35 34C31.6625 34 25 35.7867 25 39.3333V42H45V39.3333C45 35.7867 38.3375 34 35 34Z" fill="#333333"/>
<path d="M30 10.5C30 13.471 28.3491 16.1235 25.7637 17.8655C27.1395 19.1708 29.1987 20 31.5 20C33.3412 20 35.0275 19.4692 36.3328 18.5885C37.0571 18.8929 37.6472 19.2491 38.0805 19.5521C38.4306 19.7969 38.9462 19.5735 38.9155 19.1475C38.8621 18.4084 38.6977 17.4261 38.2352 16.6427C38.725 15.8453 39 14.9484 39 14C39 10.6863 35.6421 8 31.5 8C30.8635 8 30.2456 8.06343 29.6555 8.18281C29.8805 8.92447 30 9.70071 30 10.5Z" fill="#333333"/>
</svg>
