<svg width="48" height="48" viewBox="0 0 48 48" fill="none" xmlns="http://www.w3.org/2000/svg">
<path d="M43 24C43 34.4934 34.4934 43 24 43C13.5066 43 5 34.4934 5 24C5 13.5066 13.5066 5 24 5C34.4934 5 43 13.5066 43 24ZM17 20.4038L18.8906 21.6642C19.8097 22.2769 21.0514 22.0286 21.6641 21.1095C22.2768 20.1905 22.0285 18.9487 21.1094 18.336L19.2188 17.0756C17.8752 16.1799 16.1248 16.1799 14.7812 17.0756L12.8906 18.336C11.9716 18.9487 11.7232 20.1905 12.3359 21.1095C12.9486 22.0286 14.1904 22.2769 15.1094 21.6642L17 20.4038ZM31.4534 27H16.5466C15.1152 27 14.0942 28.4956 14.753 29.842C16.1171 32.6298 18.7825 37 24 37C29.2175 37 31.8829 32.6298 33.247 29.842C33.9058 28.4956 32.8848 27 31.4534 27ZM29.1094 21.6642L31 20.4038L32.8906 21.6642C33.8096 22.2769 35.0514 22.0286 35.6641 21.1095C36.2768 20.1905 36.0284 18.9487 35.1094 18.336L33.2188 17.0756C31.8752 16.1799 30.1248 16.1799 28.7812 17.0756L26.8906 18.336C25.9715 18.9487 25.7232 20.1905 26.3359 21.1095C26.9486 22.0286 28.1903 22.2769 29.1094 21.6642Z" fill="#333333" stroke="#333333" stroke-width="2"/>
</svg>
