<svg width="48" height="48" viewBox="0 0 48 48" fill="none" xmlns="http://www.w3.org/2000/svg">
<mask id="path-1-inside-1" fill="white">
<path fill-rule="evenodd" clip-rule="evenodd" d="M24 44C35.0457 44 44 35.0457 44 24C44 12.9543 35.0457 4 24 4C12.9543 4 4 12.9543 4 24C4 35.0457 12.9543 44 24 44ZM15.6512 29.4025C15.3323 28.7507 15.8209 28 16.5466 28H31.4534C32.1791 28 32.6677 28.7507 32.3488 29.4025C30.9839 32.1919 28.563 36 24 36C19.437 36 17.0161 32.1919 15.6512 29.4025ZM17.5547 19.5717C17.2188 19.3477 16.7812 19.3477 16.4453 19.5717L14.5547 20.8321C14.0952 21.1384 13.4743 21.0142 13.1679 20.5547C12.8616 20.0952 12.9858 19.4743 13.4453 19.1679L15.3359 17.9075C16.3436 17.2358 17.6564 17.2358 18.6641 17.9075L20.5547 19.1679C21.0142 19.4743 21.1384 20.0952 20.8321 20.5547C20.5257 21.0142 19.9048 21.1384 19.4453 20.8321L17.5547 19.5717ZM30.4453 19.5717C30.7812 19.3477 31.2188 19.3477 31.5547 19.5717L33.4453 20.8321C33.9048 21.1384 34.5257 21.0142 34.8321 20.5547C35.1384 20.0952 35.0142 19.4743 34.5547 19.1679L32.6641 17.9075C31.6564 17.2358 30.3436 17.2358 29.3359 17.9075L27.4453 19.1679C26.9858 19.4743 26.8616 20.0952 27.1679 20.5547C27.4743 21.0142 28.0952 21.1384 28.5547 20.8321L30.4453 19.5717Z"/>
</mask>
<path fill-rule="evenodd" clip-rule="evenodd" d="M24 44C35.0457 44 44 35.0457 44 24C44 12.9543 35.0457 4 24 4C12.9543 4 4 12.9543 4 24C4 35.0457 12.9543 44 24 44ZM15.6512 29.4025C15.3323 28.7507 15.8209 28 16.5466 28H31.4534C32.1791 28 32.6677 28.7507 32.3488 29.4025C30.9839 32.1919 28.563 36 24 36C19.437 36 17.0161 32.1919 15.6512 29.4025ZM17.5547 19.5717C17.2188 19.3477 16.7812 19.3477 16.4453 19.5717L14.5547 20.8321C14.0952 21.1384 13.4743 21.0142 13.1679 20.5547C12.8616 20.0952 12.9858 19.4743 13.4453 19.1679L15.3359 17.9075C16.3436 17.2358 17.6564 17.2358 18.6641 17.9075L20.5547 19.1679C21.0142 19.4743 21.1384 20.0952 20.8321 20.5547C20.5257 21.0142 19.9048 21.1384 19.4453 20.8321L17.5547 19.5717ZM30.4453 19.5717C30.7812 19.3477 31.2188 19.3477 31.5547 19.5717L33.4453 20.8321C33.9048 21.1384 34.5257 21.0142 34.8321 20.5547C35.1384 20.0952 35.0142 19.4743 34.5547 19.1679L32.6641 17.9075C31.6564 17.2358 30.3436 17.2358 29.3359 17.9075L27.4453 19.1679C26.9858 19.4743 26.8616 20.0952 27.1679 20.5547C27.4743 21.0142 28.0952 21.1384 28.5547 20.8321L30.4453 19.5717Z" fill="#333333"/>
<path d="M15.6512 29.4025L13.8547 30.2815L13.8547 30.2815L15.6512 29.4025ZM32.3488 29.4025L34.1453 30.2815L32.3488 29.4025ZM16.4453 19.5717L17.5547 21.2358L17.5547 21.2358L16.4453 19.5717ZM17.5547 19.5717L16.4453 21.2358H16.4453L17.5547 19.5717ZM14.5547 20.8321L13.4453 19.1679L13.4453 19.168L14.5547 20.8321ZM13.1679 20.5547L11.5038 21.6641L11.5038 21.6641L13.1679 20.5547ZM13.4453 19.1679L14.5547 20.8321L13.4453 19.1679ZM15.3359 17.9075L14.2265 16.2434L15.3359 17.9075ZM18.6641 17.9075L17.5547 19.5717H17.5547L18.6641 17.9075ZM20.5547 19.1679L21.6641 17.5038L21.6641 17.5038L20.5547 19.1679ZM20.8321 20.5547L22.4961 21.6641L22.4962 21.6641L20.8321 20.5547ZM19.4453 20.8321L18.3359 22.4962L18.3359 22.4962L19.4453 20.8321ZM31.5547 19.5717L32.6641 17.9075L32.6641 17.9075L31.5547 19.5717ZM30.4453 19.5717L31.5547 21.2358L31.5547 21.2358L30.4453 19.5717ZM33.4453 20.8321L32.3359 22.4962L32.3359 22.4962L33.4453 20.8321ZM34.8321 20.5547L36.4962 21.6641V21.6641L34.8321 20.5547ZM34.5547 19.1679L35.6641 17.5038L35.6641 17.5038L34.5547 19.1679ZM32.6641 17.9075L31.5547 19.5717L32.6641 17.9075ZM29.3359 17.9075L30.4453 19.5717L29.3359 17.9075ZM27.4453 19.1679L26.3359 17.5038L26.3359 17.5038L27.4453 19.1679ZM27.1679 20.5547L25.5038 21.6641L25.5039 21.6641L27.1679 20.5547ZM28.5547 20.8321L29.6641 22.4962L29.6641 22.4962L28.5547 20.8321ZM42 24C42 33.9411 33.9411 42 24 42V46C36.1503 46 46 36.1503 46 24H42ZM24 6C33.9411 6 42 14.0589 42 24H46C46 11.8497 36.1503 2 24 2V6ZM6 24C6 14.0589 14.0589 6 24 6V2C11.8497 2 2 11.8497 2 24H6ZM24 42C14.0589 42 6 33.9411 6 24H2C2 36.1503 11.8497 46 24 46V42ZM16.5466 26C14.4095 26 12.8561 28.2405 13.8547 30.2815L17.4477 28.5235C17.8085 29.2608 17.2323 30 16.5466 30V26ZM31.4534 26H16.5466V30H31.4534V26ZM34.1453 30.2815C35.1439 28.2405 33.5905 26 31.4534 26V30C30.7677 30 30.1915 29.2608 30.5523 28.5235L34.1453 30.2815ZM24 38C29.872 38 32.7819 33.0678 34.1453 30.2815L30.5523 28.5235C29.1859 31.3161 27.254 34 24 34V38ZM13.8547 30.2815C15.2181 33.0678 18.128 38 24 38V34C20.746 34 18.8141 31.3161 17.4477 28.5235L13.8547 30.2815ZM17.5547 21.2358C17.2188 21.4597 16.7812 21.4597 16.4453 21.2358L18.6641 17.9076C17.6564 17.2358 16.3436 17.2358 15.3359 17.9076L17.5547 21.2358ZM15.6641 22.4962L17.5547 21.2358L15.3359 17.9075L13.4453 19.1679L15.6641 22.4962ZM11.5038 21.6641C12.4229 23.0427 14.2855 23.4152 15.6641 22.4961L13.4453 19.168C13.9048 18.8616 14.5257 18.9858 14.832 19.4453L11.5038 21.6641ZM12.3359 17.5038C10.9573 18.4229 10.5848 20.2855 11.5038 21.6641L14.8321 19.4453C15.1384 19.9048 15.0142 20.5257 14.5547 20.8321L12.3359 17.5038ZM14.2265 16.2434L12.3359 17.5038L14.5547 20.8321L16.4453 19.5717L14.2265 16.2434ZM19.7735 16.2434C18.094 15.1238 15.906 15.1238 14.2265 16.2434L16.4453 19.5717C16.7812 19.3477 17.2188 19.3477 17.5547 19.5717L19.7735 16.2434ZM21.6641 17.5038L19.7735 16.2434L17.5547 19.5717L19.4453 20.8321L21.6641 17.5038ZM22.4962 21.6641C23.4152 20.2855 23.0427 18.4229 21.6641 17.5038L19.4453 20.832C18.9858 20.5257 18.8616 19.9048 19.1679 19.4453L22.4962 21.6641ZM18.3359 22.4962C19.7145 23.4152 21.5771 23.0427 22.4961 21.6641L19.168 19.4453C19.4743 18.9858 20.0952 18.8616 20.5547 19.1679L18.3359 22.4962ZM16.4453 21.2358L18.3359 22.4962L20.5547 19.1679L18.6641 17.9075L16.4453 21.2358ZM32.6641 17.9075C31.6564 17.2358 30.3436 17.2357 29.3359 17.9076L31.5547 21.2358C31.2188 21.4597 30.7812 21.4597 30.4453 21.2358L32.6641 17.9075ZM34.5547 19.1679L32.6641 17.9075L30.4453 21.2358L32.3359 22.4962L34.5547 19.1679ZM33.168 19.4453C33.4743 18.9858 34.0952 18.8616 34.5547 19.1679L32.3359 22.4962C33.7145 23.4152 35.5771 23.0427 36.4962 21.6641L33.168 19.4453ZM33.4453 20.832C32.9858 20.5257 32.8616 19.9048 33.1679 19.4453L36.4962 21.6641C37.4152 20.2855 37.0427 18.4229 35.6641 17.5038L33.4453 20.832ZM31.5547 19.5717L33.4453 20.8321L35.6641 17.5038L33.7735 16.2434L31.5547 19.5717ZM30.4453 19.5717C30.7812 19.3477 31.2188 19.3477 31.5547 19.5717L33.7735 16.2434C32.094 15.1238 29.906 15.1238 28.2265 16.2434L30.4453 19.5717ZM28.5547 20.8321L30.4453 19.5717L28.2265 16.2434L26.3359 17.5038L28.5547 20.8321ZM28.8321 19.4453C29.1384 19.9048 29.0142 20.5257 28.5547 20.832L26.3359 17.5038C24.9573 18.4229 24.5848 20.2855 25.5038 21.6641L28.8321 19.4453ZM27.4453 19.1679C27.9048 18.8616 28.5257 18.9858 28.832 19.4453L25.5039 21.6641C26.4229 23.0427 28.2855 23.4152 29.6641 22.4962L27.4453 19.1679ZM29.3359 17.9075L27.4453 19.1679L29.6641 22.4962L31.5547 21.2358L29.3359 17.9075Z" fill="#333333" mask="url(#path-1-inside-1)"/>
</svg>
