<svg width="48" height="48" viewBox="0 0 48 48" fill="none" xmlns="http://www.w3.org/2000/svg">
<path fill-rule="evenodd" clip-rule="evenodd" d="M21 5.03406L20 2.03406H22L21 5.03406ZM19 7.03406L16 8.03406V6.03406L19 7.03406ZM17 4.44812L19.8284 5.86233L18.4142 3.03391L17 4.44812ZM20.9909 6.92415C21.6039 6.36689 22.5526 6.41207 23.1099 7.02506C23.6671 7.63804 23.6219 8.58672 23.009 9.14398L18.6052 13.1474L21.1746 16.0449H22.4546C22.4908 16.0436 22.5272 16.0429 22.5638 16.0429H30.3905C31.2896 16.0429 34.0656 17.6775 34.0656 20.8534C34.0656 25.0671 31.2896 26.7783 30.3905 26.7783V42.9269C30.3905 43.826 29.655 44.5615 28.756 44.5615C27.857 44.5615 27.1214 43.826 27.1214 42.9269V31.7541H22.8522V42.9269C22.8522 43.826 22.1167 44.5615 21.2177 44.5615C20.3187 44.5615 19.5831 43.826 19.5831 42.9269V19.0429C19.5831 18.9418 19.588 18.8418 19.5977 18.7432C19.5184 18.6835 19.4446 18.6156 19.3777 18.5401L15.3777 14.0293C14.8328 13.4148 14.8833 12.4765 15.4909 11.9241L20.9909 6.92415ZM21.1701 12.1577L23.6713 9.88393C24.4774 9.15106 24.6943 8.01201 24.2937 7.06216C24.5229 7.02132 24.759 7 25 7C27.2091 7 29 8.79086 29 11C29 13.2091 27.2091 15 25 15C23.1934 15 21.6666 13.8024 21.1701 12.1577Z" fill="#333333"/>
</svg>
