<svg width="48" height="48" viewBox="0 0 48 48" fill="none" xmlns="http://www.w3.org/2000/svg">
<path d="M33 16.0667C33 21.076 28.9725 25.1333 24 25.1333C19.0275 25.1333 15 21.076 15 16.0667C15 11.0573 19.0275 7 24 7C28.9725 7 33 11.0573 33 16.0667Z" fill="#333333"/>
<path fill-rule="evenodd" clip-rule="evenodd" d="M16.8786 28.3569C17.3814 28.2333 17.8971 28.4861 18.1254 28.9539L22.1893 31.9542C23.103 31.954 23.5557 31.954 24.0125 31.954H24.0248C24.4693 31.9541 24.9218 31.9541 25.8105 31.9539L29.8746 28.9539C30.1029 28.4861 30.6186 28.2333 31.1214 28.3569C36.5255 29.6849 42 32.3928 42 36.4664V42.9997H6V36.4664C6 32.3928 11.4745 29.6849 16.8786 28.3569ZM33 31H31V34H28V36H31V39H33V36H36V34H33V31Z" fill="#333333"/>
</svg>
