<svg width="48" height="48" viewBox="0 0 48 48" fill="none" xmlns="http://www.w3.org/2000/svg">
<path d="M11 13C13.2091 13 15 11.2091 15 9C15 6.79086 13.2091 5 11 5C8.79086 5 7 6.79086 7 9C7 11.2091 8.79086 13 11 13Z" fill="#333333"/>
<path fill-rule="evenodd" clip-rule="evenodd" d="M31 21V23H33V21H34C36.2091 21 38 19.2091 38 17C38 14.7909 36.2091 13 34 13H33V9H34C35.1046 9 36 9.89543 36 11H38C38 8.79086 36.2091 7 34 7H33V5H31V7H30C27.7909 7 26 8.79086 26 11C26 13.2091 27.7909 15 30 15H31V19H30C28.8954 19 28 18.1046 28 17H26C26 19.2091 27.7909 21 30 21H31ZM33 19H34C35.1046 19 36 18.1046 36 17C36 15.8954 35.1046 15 34 15H33V19ZM31 9H30C28.8954 9 28 9.89543 28 11C28 12.1046 28.8954 13 30 13H31V9Z" fill="#333333"/>
<path fill-rule="evenodd" clip-rule="evenodd" d="M20 36C20 34.3431 21.3431 33 23 33V27H25V28L39 28V27H41V33C42.6569 33 44 34.3431 44 36V44H42V41H22V44H20V36ZM39 30H36V33H39V30ZM34 30L30 30V33H34V30ZM28 30H25V33H28V30ZM23 35C22.4477 35 22 35.4477 22 36V39H42V36C42 35.4477 41.5523 35 41 35H23Z" fill="#333333"/>
<path d="M6.45906 28H7.00003L7.88283 42.1248C7.94871 43.1788 8.82281 44 9.87893 44H12.1211C13.1773 44 14.0514 43.1788 14.1172 42.1248L15 28H15.541C17.3666 28 18.769 26.383 18.5109 24.5757L17.368 16.5757C17.1569 15.0978 15.8911 14 14.3981 14H7.60192C6.10897 14 4.8432 15.0978 4.63207 16.5757L3.48921 24.5757C3.23103 26.383 4.63341 28 6.45906 28Z" fill="#333333"/>
</svg>
