<svg width="48" height="48" viewBox="0 0 48 48" fill="none" xmlns="http://www.w3.org/2000/svg">
<path d="M37 11V11C37 9.34315 35.6569 8 34 8H30C28.3431 8 27 9.34315 27 11V11C27 12.6569 28.3431 14 30 14H34C35.6569 14 37 15.3431 37 17V17C37 18.6569 35.6569 20 34 20H30C28.3431 20 27 18.6569 27 17V17" stroke="#333333" stroke-width="2"/>
<path d="M32 5L32 23" stroke="#333333" stroke-width="2"/>
<path d="M21 36C21 34.8954 21.8954 34 23 34H41C42.1046 34 43 34.8954 43 36V40H21V36Z" stroke="#333333" stroke-width="2"/>
<path d="M21 40L21 44" stroke="#333333" stroke-width="2"/>
<path d="M43 40L43 44" stroke="#333333" stroke-width="2"/>
<path d="M40 27L40 33" stroke="#333333" stroke-width="2"/>
<path d="M29 29L29 33" stroke="#333333" stroke-width="2"/>
<path d="M35 29L35 33" stroke="#333333" stroke-width="2"/>
<path d="M24 27L24 33" stroke="#333333" stroke-width="2"/>
<path d="M24 29L40 29" stroke="#333333" stroke-width="2"/>
<path fill-rule="evenodd" clip-rule="evenodd" d="M11 13C13.2091 13 15 11.2091 15 9C15 6.79086 13.2091 5 11 5C8.79086 5 7 6.79086 7 9C7 11.2091 8.79086 13 11 13Z" fill="#333333"/>
<path fill-rule="evenodd" clip-rule="evenodd" d="M7.00003 28H6.45906C4.63341 28 3.23103 26.383 3.48921 24.5757L4.63207 16.5757C4.8432 15.0978 6.10897 14 7.60192 14H14.3981C15.8911 14 17.1569 15.0978 17.368 16.5757L18.5109 24.5757C18.769 26.383 17.3666 28 15.541 28H15L14.1172 42.1248C14.0514 43.1788 13.1773 44 12.1211 44H9.87893C8.82281 44 7.94871 43.1788 7.88283 42.1248L7.00003 28Z" fill="#333333"/>
</svg>
