<svg width="48" height="48" viewBox="0 0 48 48" fill="none" xmlns="http://www.w3.org/2000/svg">
<path d="M43 4C43 3.44772 42.5523 3 42 3C41.4477 3 41 3.44772 41 4V6C41 6.55228 41.4477 7 42 7C42.5523 7 43 6.55228 43 6V4Z" fill="#333333"/>
<path d="M38.7071 5.29289C38.3166 4.90237 37.6834 4.90237 37.2929 5.29289C36.9024 5.68342 36.9024 6.31658 37.2929 6.70711L38.2929 7.70711C38.6834 8.09763 39.3166 8.09763 39.7071 7.70711C40.0976 7.31658 40.0976 6.68342 39.7071 6.29289L38.7071 5.29289Z" fill="#333333"/>
<path d="M46.7071 5.29289C46.3166 4.90237 45.6834 4.90237 45.2929 5.29289L44.2929 6.29289C43.9024 6.68342 43.9024 7.31658 44.2929 7.70711C44.6834 8.09763 45.3166 8.09763 45.7071 7.70711L46.7071 6.70711C47.0976 6.31658 47.0976 5.68342 46.7071 5.29289Z" fill="#333333"/>
<path fill-rule="evenodd" clip-rule="evenodd" d="M39.008 10.7799C35.343 6.62257 29.9778 4 24 4C12.9543 4 4 12.9543 4 24C4 35.0457 12.9543 44 24 44C33.0019 44 40.6147 38.0528 43.1237 29.8732C45.3441 29.3633 47 27.375 47 25C47 23.3642 46.2144 21.9118 45 20.9996V11C45 9.34315 43.6569 8 42 8C40.4172 8 39.1206 9.22581 39.008 10.7799ZM43 11V14H41V11C41 10.4477 41.4477 10 42 10C42.5523 10 43 10.4477 43 11ZM41 21.9987V16H43V21.9987L43.7988 22.5988C44.532 23.1495 45 24.0198 45 25C45 26.6569 43.6569 28 42 28C40.3431 28 39 26.6569 39 25C39 24.0198 39.468 23.1495 40.2012 22.5988L41 21.9987ZM21 8C21 8.55228 20.5523 9 20 9C19.4477 9 19 8.55228 19 8C19 7.44772 19.4477 7 20 7C20.5523 7 21 7.44772 21 8ZM26 13C26.5523 13 27 12.5523 27 12C27 11.4477 26.5523 11 26 11C25.4477 11 25 11.4477 25 12C25 12.5523 25.4477 13 26 13ZM23 14C23 14.5523 22.5523 15 22 15C21.4477 15 21 14.5523 21 14C21 13.4477 21.4477 13 22 13C22.5523 13 23 13.4477 23 14ZM18.5547 19.8322C19.0143 19.5258 19.1384 18.9049 18.8321 18.4454C18.5257 17.9859 17.9049 17.8617 17.4453 18.1681C16.0091 19.1255 15.0887 19.5831 13.6838 20.0514C13.1599 20.2261 12.8767 20.7924 13.0513 21.3163C13.226 21.8403 13.7923 22.1234 14.3163 21.9488C15.9114 21.4171 16.9909 20.8747 18.5547 19.8322ZM15.6286 34.9285C16.1386 35.1325 16.717 34.8869 16.9251 34.3797L16.9303 34.368C16.9371 34.353 16.9503 34.3249 16.9706 34.2855C17.0111 34.2066 17.0798 34.0832 17.1821 33.9297C17.3867 33.6227 17.7245 33.198 18.2402 32.7682C19.2558 31.9219 21.0278 31 24 31C26.9723 31 28.7443 31.9219 29.7598 32.7682C30.2756 33.198 30.6133 33.6227 30.818 33.9297C30.9203 34.0832 30.9889 34.2066 31.0295 34.2855C31.0497 34.3249 31.0629 34.353 31.0697 34.368L31.0749 34.3798C31.283 34.8869 31.8614 35.1325 32.3714 34.9285C32.8842 34.7234 33.1336 34.1414 32.9285 33.6286L32 34C32.9285 33.6286 32.928 33.6273 32.928 33.6273L32.9274 33.6259L32.9262 33.6229L32.9232 33.6156L32.9153 33.5968L32.9059 33.5749L32.8913 33.5422C32.8715 33.4986 32.844 33.4408 32.8081 33.3708C32.7361 33.2309 32.6298 33.0418 32.4821 32.8203C32.1867 32.3773 31.7245 31.802 31.0402 31.2318C29.6558 30.0781 27.4278 29 24 29C20.5723 29 18.3443 30.0781 16.9598 31.2318C16.2756 31.802 15.8133 32.3773 15.518 32.8203C15.3703 33.0418 15.2639 33.2309 15.192 33.3708C15.156 33.4408 15.1285 33.4986 15.1088 33.5422C15.0989 33.564 15.0909 33.5823 15.0847 33.5968L15.0768 33.6156L15.0739 33.6229L15.0726 33.6259L15.0721 33.6273C15.0721 33.6273 15.0715 33.6286 15.9972 33.9989L15.0715 33.6286C14.8664 34.1414 15.1158 34.7234 15.6286 34.9285ZM29.1679 18.4454C28.8616 18.9049 28.9857 19.5258 29.4453 19.8322C31.0091 20.8747 32.0886 21.4171 33.6837 21.9488C34.2077 22.1234 34.774 21.8403 34.9487 21.3163C35.1233 20.7924 34.8401 20.2261 34.3162 20.0514C32.9113 19.5831 31.9909 19.1255 30.5547 18.1681C30.0951 17.8617 29.4743 17.9859 29.1679 18.4454ZM8 30C8.55228 30 9 29.5523 9 29C9 28.4477 8.55228 28 8 28C7.44772 28 7 28.4477 7 29C7 29.5523 7.44772 30 8 30ZM31 13C31 13.5523 30.5523 14 30 14C29.4477 14 29 13.5523 29 13C29 12.4477 29.4477 12 30 12C30.5523 12 31 12.4477 31 13ZM34 13C34.5523 13 35 12.5523 35 12C35 11.4477 34.5523 11 34 11C33.4477 11 33 11.4477 33 12C33 12.5523 33.4477 13 34 13ZM13 14C13.5523 14 14 13.5523 14 13C14 12.4477 13.5523 12 13 12C12.4477 12 12 12.4477 12 13C12 13.5523 12.4477 14 13 14ZM30 8C30 8.55228 29.5523 9 29 9C28.4477 9 28 8.55228 28 8C28 7.44772 28.4477 7 29 7C29.5523 7 30 7.44772 30 8ZM36 18C36.5523 18 37 17.5523 37 17C37 16.4477 36.5523 16 36 16C35.4477 16 35 16.4477 35 17C35 17.5523 35.4477 18 36 18ZM19 12C19 12.5523 18.5523 13 18 13C17.4477 13 17 12.5523 17 12C17 11.4477 17.4477 11 18 11C18.5523 11 19 11.4477 19 12ZM24 10C24.5523 10 25 9.55228 25 9C25 8.44772 24.5523 8 24 8C23.4477 8 23 8.44772 23 9C23 9.55228 23.4477 10 24 10ZM35 28C35 28.5523 34.5523 29 34 29C33.4477 29 33 28.5523 33 28C33 27.4477 33.4477 27 34 27C34.5523 27 35 27.4477 35 28ZM10 24C10 24.5523 9.55228 25 9 25C8.44772 25 8 24.5523 8 24C8 23.4477 8.44772 23 9 23C9.55228 23 10 23.4477 10 24ZM38 33C38.5523 33 39 32.5523 39 32C39 31.4477 38.5523 31 38 31C37.4477 31 37 31.4477 37 32C37 32.5523 37.4477 33 38 33ZM10 34C10.5523 34 11 33.5523 11 33C11 32.4477 10.5523 32 10 32C9.44772 32 9 32.4477 9 33C9 33.5523 9.44772 34 10 34ZM14 27C14 27.5523 13.5523 28 13 28C12.4477 28 12 27.5523 12 27C12 26.4477 12.4477 26 13 26C13.5523 26 14 26.4477 14 27Z" fill="#333333"/>
</svg>
