<svg width="48" height="48" viewBox="0 0 48 48" fill="none" xmlns="http://www.w3.org/2000/svg">
<path d="M39.7063 24.8972C38.5795 22.4892 38.9361 19.5352 38.879 17.0152C38.8206 14.595 38.053 12.2425 36.6681 10.2392C35.1515 8.33216 33.1627 6.83803 30.8911 5.89916C28.0086 4.58612 24.8684 3.90761 21.6906 3.91115C17.5292 3.91115 13.5382 5.53365 10.5957 8.42172C7.65312 11.3098 6 15.2269 6 19.3112C6 24.2252 9.83707 30.0633 13.4887 32.8773V41.5713C14.0321 42.711 14.918 43.66 16.0273 44.2907C17.1366 44.9214 18.4161 45.2036 19.6936 45.0993C24.5435 45.0993 25.3993 42.2993 25.3993 42.2993V38.7853C25.3993 38.7853 38.2371 42.1033 38.2371 31.7013C38.2371 31.7013 41.6177 31.1693 41.9601 29.2373C42.3024 27.3053 40.3482 26.1992 39.7063 24.8972ZM19.9504 41.8233H16.2274V39.8353H19.9504V41.8233ZM19.9504 37.5113H16.2274V35.5373H19.9504V37.5113ZM19.9504 33.2273H16.2274V31.6873C16.2274 31.5333 16.2274 31.3933 16.2274 31.2393H19.9504V33.2273ZM28.4376 19.1152C27.7693 19.563 26.9788 19.8026 26.1696 19.8026C25.3604 19.8026 24.5699 19.563 23.9016 19.1152C23.4323 19.6033 22.857 19.9814 22.2184 20.2212C21.5369 20.5509 20.9632 21.0615 20.5623 21.6949C20.1614 22.3284 19.9494 23.0595 19.9504 23.8052V28.0053H16.0991C15.9906 27.1055 15.6781 26.241 15.1844 25.4754C14.6907 24.7098 14.0284 24.0625 13.2462 23.5812C12.5674 23.2949 11.9813 22.8317 11.5514 22.242C11.1215 21.6522 10.8641 20.9582 10.807 20.2352C10.1005 19.5011 9.70741 18.5291 9.7087 17.5192C9.70329 16.6485 9.99448 15.8009 10.536 15.1112C10.4364 14.7699 10.3883 14.4162 10.3934 14.0612C10.392 13.2123 10.6685 12.3853 11.1821 11.7023C11.6957 11.0192 12.4193 10.5162 13.2462 10.2672C13.5629 9.56832 14.0789 8.97437 14.7319 8.55701C15.385 8.13965 16.1471 7.91673 16.9264 7.91516C17.2482 7.9171 17.5688 7.95468 17.8821 8.02716C18.5451 7.42095 19.3965 7.05127 20.2995 6.97763C21.2025 6.90399 22.1045 7.13066 22.8603 7.62116C23.7422 7.16485 24.7642 7.0425 25.732 7.27739C26.6998 7.51228 27.5459 8.08803 28.1095 8.89517H28.3948C29.3159 8.89309 30.2099 9.2002 30.9286 9.76554C31.6474 10.3309 32.1475 11.1204 32.346 12.0032C33.2156 12.3737 33.9291 13.0262 34.3671 13.8513C34.8052 14.6764 34.9412 15.6242 34.7524 16.536C34.5635 17.4477 34.0614 18.2682 33.3299 18.8601C32.5985 19.4519 31.6821 19.7792 30.7341 19.7872C29.917 19.7965 29.1162 19.5622 28.4376 19.1152ZM34.5855 26.1152C34.1708 26.1152 33.7654 25.9945 33.4205 25.7684C33.0757 25.5423 32.807 25.2209 32.6483 24.8448C32.4896 24.4688 32.448 24.055 32.5289 23.6557C32.6098 23.2565 32.8095 22.8898 33.1028 22.602C33.396 22.3142 33.7697 22.1182 34.1764 22.0388C34.5832 21.9594 35.0048 22.0001 35.3879 22.1559C35.7711 22.3116 36.0985 22.5754 36.3289 22.9139C36.5593 23.2523 36.6823 23.6502 36.6823 24.0572C36.6643 24.5813 36.4432 25.0788 36.0641 25.4483C35.6851 25.8178 35.1766 26.0313 34.6425 26.0452L34.5855 26.1152Z" fill="#333333"/>
</svg>
