<svg width="48" height="48" viewBox="0 0 48 48" fill="none" xmlns="http://www.w3.org/2000/svg">
<path fill-rule="evenodd" clip-rule="evenodd" d="M21.0979 10.5H23C23 8.01472 20.9853 6 18.5 6C16.0147 6 14 8.01472 14 10.5H16.0597C15.5917 11.0659 15.3097 11.7905 15.3097 12.5777C15.3097 14.3758 16.7808 15.8469 18.5788 15.8469C20.3769 15.8469 21.848 14.3758 21.848 12.5777C21.848 11.7905 21.566 11.0659 21.0979 10.5ZM20 8.5C20 9.32843 19.3284 10 18.5 10C17.6716 10 17 9.32843 17 8.5C17 7.67157 17.6716 7 18.5 7C19.3284 7 20 7.67157 20 8.5Z" fill="#333333"/>
<path d="M32 17.5183V13.8923C33.9083 13.9739 35.8103 14.3431 38 15C38 13.4887 35.3923 12.2383 32 12.0304V11C31.342 11.0002 31.0813 11.0001 30.7776 11.0001L30 11V12.0304C26.6077 12.2383 24 13.4887 24 15C26.256 14.3847 28.1755 14.0218 30 13.9113V17.4815H13.6751C12.7761 17.4815 10 19.116 10 22.2919C10 26.5056 12.7761 28.2168 13.6751 28.2168V40.3655C13.6751 41.2645 14.4106 42.0001 15.3097 42.0001C16.2087 42.0001 16.9442 41.2645 16.9442 40.3655V32.1926H20.2134V40.3655C20.2134 41.2645 20.9489 42.0001 21.848 42.0001C22.747 42.0001 23.4825 41.2645 23.4825 40.3655V20.7506H30V41H32V20.7138C32.735 20.5545 33.29 19.8969 33.29 19.116C33.29 18.3352 32.735 17.6776 32 17.5183Z" fill="#333333"/>
</svg>
