<svg width="48" height="48" viewBox="0 0 48 48" fill="none" xmlns="http://www.w3.org/2000/svg">
<path fill-rule="evenodd" clip-rule="evenodd" d="M29.2741 22.961C30.3691 22.961 31.4387 22.6629 32.3431 22.1056C33.2613 22.6619 34.3449 22.9535 35.4506 22.9419L38.9631 21.788C39.9529 21.0515 40.6324 20.0304 40.8879 18.8956C41.1433 17.7609 40.9593 16.5814 40.3666 15.5545C39.7738 14.5276 38.8083 13.7156 37.6317 13.2544C37.3631 12.1558 36.6863 11.1732 35.7138 10.4696L32.2852 9.38643H31.8991C31.1365 8.38192 29.9916 7.66539 28.682 7.37306L21.3311 7C20.1092 7.09165 18.957 7.55172 18.0599 8.30617C17.636 8.21596 17.2022 8.1692 16.7667 8.16679C15.7122 8.16874 14.6809 8.44617 13.7973 8.96558C12.9136 9.48499 12.2154 10.2242 11.7869 11.0939L8.99387 12.88C8.29887 13.7301 7.92474 14.7592 7.92658 15.8157C7.9197 16.2575 7.98474 16.6977 8.11959 17.1224C7.38681 17.9808 6.99279 19.0356 7.0001 20.1193C6.99836 21.3761 7.53023 22.5858 8.48632 23.4994C8.56348 24.3993 8.91178 25.2629 9.49354 25.9969C10.0753 26.7309 10.8684 27.3072 11.7869 27.6636C12.8453 28.2626 13.7414 29.0681 14.4095 30.021C15.0775 30.9738 15.5005 32.0497 15.6472 33.1695H18.1591V25.8815L15.7219 23.7151L14.0707 25.3662C13.6802 25.7567 13.047 25.7567 12.6565 25.3662C12.266 24.9757 12.266 24.3425 12.6565 23.952L14.6041 22.0044L14.0145 18.7617L11.371 17.4399C10.877 17.1929 10.6768 16.5922 10.9238 16.0982C11.1707 15.6043 11.7714 15.404 12.2654 15.651L14.8504 16.9435L18.0551 14.9041L17.0637 12.2602C16.8697 11.7431 17.1318 11.1667 17.6489 10.9728C18.166 10.7788 18.7424 11.0408 18.9363 11.558L19.9972 14.3869H21.2456L21.8318 13.2144L20.9445 11.1439C20.7269 10.6363 20.9621 10.0484 21.4697 9.83085C21.9773 9.6133 22.5652 9.84845 22.7828 10.3561L23.5509 12.1484L26.611 12.7048C26.623 12.6942 26.6354 12.6838 26.648 12.6737L28.5799 11.1282C29.0111 10.7832 29.6404 10.8531 29.9854 11.2844C30.3304 11.7157 30.2605 12.345 29.8292 12.69L28.4822 13.7676L30.0275 15.7545L30.6283 14.5528C30.7977 14.214 31.144 14 31.5227 14H33.8409C34.3932 14 34.8409 14.4477 34.8409 15C34.8409 15.5523 34.3932 16 33.8409 16H32.1408L31.792 16.6976L33.6715 17.1153C33.7513 17.133 33.8286 17.1605 33.9018 17.197L35.4472 17.9698C35.9412 18.2168 36.1414 18.8174 35.8944 19.3114C35.6474 19.8054 35.0468 20.0056 34.5528 19.7586L33.1174 19.041L29.7603 18.2949C29.5332 18.2445 29.3308 18.1164 29.1879 17.9327L26.7179 14.757L23.6837 14.2053C23.6316 14.2512 23.5741 14.2921 23.5116 14.327L22.8636 15.623V16.3182H24.1818C24.3371 16.3182 24.4902 16.3543 24.629 16.4238L27.7199 17.9692C28.2139 18.2162 28.4141 18.8169 28.1672 19.3109C27.9202 19.8048 27.3195 20.0051 26.8255 19.7581L23.9457 18.3182H22.8636V20.0233C22.8636 20.5756 22.4159 21.0233 21.8636 21.0233C21.3113 21.0233 20.8636 20.5756 20.8636 20.0233V16.3869H19.4503L16.0132 18.5741L16.604 21.8232L19.8234 24.685C20.0369 24.8747 20.1591 25.1467 20.1591 25.4324V33.1695H22.8586V27.9424C22.8573 27.0143 23.1441 26.1045 23.6866 25.3161C24.229 24.5277 25.0054 23.8923 25.9276 23.482C26.4462 23.3029 26.5738 23.0618 26.7301 22.7663C26.8343 22.5695 26.9513 22.3485 27.2052 22.1056C27.4257 22.2415 27.5966 22.3619 27.7448 22.4664L27.7448 22.4665L27.7449 22.4665L27.7449 22.4666C28.2045 22.7906 28.4462 22.961 29.2741 22.961ZM22.8586 37.6684H15.8209V35.7518V35.1943H22.8586V37.6684ZM22.8586 42H15.8209V39.5433H22.8586V42Z" fill="#333333"/>
</svg>
