<svg width="48" height="48" viewBox="0 0 48 48" fill="none" xmlns="http://www.w3.org/2000/svg">
<path fill-rule="evenodd" clip-rule="evenodd" d="M16.8786 28.3578C18.6048 27.9336 22.007 31.762 23.5343 33.4806L23.5345 33.4808C23.7192 33.6886 23.8764 33.8656 24 34.0004C24.1782 33.8182 24.4239 33.55 24.719 33.2278L24.719 33.2278C26.362 31.4343 29.537 27.9685 31.1214 28.3578C36.5255 29.6858 42 32.3937 42 36.4673V43.0007H6V36.4673C6 32.3937 11.4745 29.6858 16.8786 28.3578ZM34 35H36V37H34V39H32V37H30V35H32V33H34V35Z" fill="#333333"/>
<path fill-rule="evenodd" clip-rule="evenodd" d="M16.6087 4.38947C18.4727 3.8024 21.4654 3 24 3C26.5346 3 29.5273 3.8024 31.3912 4.38947C33.0421 4.90943 33.7937 6.7084 33.178 8.24763L30.9285 14.8714C30.7265 15.3763 30.1581 15.6273 29.6489 15.4363C25.8753 14.0212 22.1247 14.0212 18.3511 15.4363C17.8419 15.6273 17.2735 15.3763 17.0715 14.8714L14.822 8.24763C14.2063 6.7084 14.9579 4.90943 16.6087 4.38947ZM25 8H27V10H25V12H23V10H21V8H23V6H25V8Z" fill="#333333"/>
<path d="M29.2916 13C30.9525 14.4659 32 16.6106 32 19C32 23.4183 28.4183 27 24 27C19.5817 27 16 23.4183 16 19C16 16.6106 17.0475 14.4659 18.7084 13" stroke="#333333" stroke-width="2" stroke-linejoin="round"/>
</svg>
