<svg width="48" height="48" viewBox="0 0 48 48" fill="none" xmlns="http://www.w3.org/2000/svg">
<path fill-rule="evenodd" clip-rule="evenodd" d="M16.6087 4.38947C18.4727 3.8024 21.4654 3 24 3C26.5346 3 29.5273 3.8024 31.3912 4.38947C33.0421 4.90943 33.7937 6.7084 33.178 8.24763L31.3098 13.7486C32.3729 15.2262 33 17.0402 33 19C33 23.9705 28.9706 28 24 28C19.0294 28 15 23.9705 15 19C15 17.0402 15.6271 15.2262 16.6902 13.7486L14.822 8.24763C14.2063 6.7084 14.9579 4.90943 16.6087 4.38947ZM17.9372 15.4983C17.3409 16.5284 17 17.7241 17 19C17 22.866 20.134 26 24 26C27.866 26 31 22.866 31 19C31 17.7241 30.6591 16.5284 30.0628 15.4983C29.926 15.5069 29.7853 15.4875 29.6489 15.4363C25.8753 14.0212 22.1247 14.0212 18.3511 15.4363C18.2147 15.4875 18.074 15.5069 17.9372 15.4983ZM25 8H27V10H25V12H23V10H21V8H23V6H25V8Z" fill="#333333"/>
<path fill-rule="evenodd" clip-rule="evenodd" d="M16.8786 28.3578C18.6048 27.9336 22.007 31.762 23.5343 33.4806C23.719 33.6884 23.8764 33.8656 24 34.0004C24.1782 33.8182 24.4239 33.55 24.719 33.2278C26.3619 31.4344 29.537 27.9685 31.1214 28.3578C36.5255 29.6858 42 32.3937 42 36.4673V43.0007H6V36.4673C6 32.3937 11.4745 29.6858 16.8786 28.3578ZM34 35H36V37H34V39H32V37H30V35H32V33H34V35Z" fill="#333333"/>
</svg>
