<svg width="48" height="48" viewBox="0 0 48 48" fill="none" xmlns="http://www.w3.org/2000/svg">
<path fill-rule="evenodd" clip-rule="evenodd" d="M13.457 11.6388C13.5349 11.76 13.6124 11.8803 13.6884 12H34.3907C35.1742 10.8143 36 9.55508 36 8.09677C36 7.29597 35.4797 6.62166 34.791 6.08848C32.231 4.10662 24 3 24 3C24 3 15.769 4.10661 13.209 6.08848C12.5203 6.62166 12 7.29597 12 8.09677C12 9.37587 12.7488 10.5389 13.457 11.6388ZM24 6C24.6667 6.66667 26.5 7.33333 26.5 7.33333C26.5 7.33333 26 11 24 11C22 11 21.5 7.33333 21.5 7.33333C21.5 7.33333 23.3333 6.66667 24 6Z" fill="#333333"/>
<path fill-rule="evenodd" clip-rule="evenodd" d="M14.0214 14.4106C14.0668 14.1728 14.2845 14 14.5386 14H33.4614C33.7155 14 33.9332 14.1728 33.9786 14.4106L33.9788 14.4118L33.9791 14.413L33.9796 14.4159L33.9808 14.4227L33.9837 14.4409C33.9858 14.455 33.9882 14.4731 33.9905 14.4948C33.9951 14.5383 33.9993 14.5967 33.9999 14.6678C34.0011 14.8101 33.988 15.0048 33.9341 15.2341C33.8293 15.6801 33.5737 16.2423 33 16.7943V18C33 22.9706 28.9706 27 24 27C19.0294 27 15 22.9706 15 18V16.7943C14.4263 16.2423 14.1707 15.6801 14.0659 15.2341C14.012 15.0048 13.9989 14.8101 14.0001 14.6678C14.0007 14.5967 14.0049 14.5383 14.0095 14.4948C14.0118 14.4731 14.0142 14.455 14.0163 14.4409L14.0192 14.4227L14.0204 14.4159L14.0209 14.413L14.0212 14.4118L14.0214 14.4106ZM24 19C27.2811 19 29.501 18.5937 31 18.006C30.9968 21.8692 27.864 25 24 25C20.136 25 17.0032 21.8692 17 18.006C18.499 18.5937 20.7189 19 24 19Z" fill="#333333"/>
<path fill-rule="evenodd" clip-rule="evenodd" d="M18.1254 29.6279C18.1254 29.6279 17.3814 28.9073 16.8786 29.0308C11.4745 30.3589 6 33.0668 6 37.1404V43.9997H42V37.1404C42 33.0668 36.5255 30.3589 31.1214 29.0308C30.6186 28.9073 29.8746 29.6279 29.8746 29.6279C29.8746 29.6279 24.2271 32.9997 23.5474 32.9996C23.5329 32.9996 18.1254 29.6279 18.1254 29.6279ZM13 37C12.4477 37 12 37.4477 12 38C12 38.5523 12.4477 39 13 39H18C18.5523 39 19 38.5523 19 38C19 37.4477 18.5523 37 18 37H13ZM32.2367 35.9749L32.8026 34.1503C32.8647 33.9499 33.1353 33.9499 33.1975 34.1503L33.7633 35.9749C33.7911 36.0645 33.8709 36.1252 33.9608 36.1252H35.792C35.9931 36.1252 36.0768 36.3949 35.914 36.5187L34.4326 37.6464C34.3598 37.7019 34.3293 37.8 34.3571 37.8896L34.923 39.7143C34.9852 39.9146 34.7662 40.0813 34.6035 39.9575L33.1221 38.8297C33.0493 38.7744 32.9508 38.7744 32.878 38.8297L31.3965 39.9575C31.2338 40.0813 31.0148 39.9146 31.077 39.7143L31.6429 37.8896C31.6707 37.8 31.6403 37.7019 31.5675 37.6464L30.086 36.5187C29.9232 36.3949 30.0069 36.1252 30.208 36.1252H32.0392C32.1291 36.1252 32.2089 36.0645 32.2367 35.9749Z" fill="#333333"/>
</svg>
