<svg width="48" height="48" viewBox="0 0 48 48" fill="none" xmlns="http://www.w3.org/2000/svg">
<path d="M16 21C19.8675 21 23 17.8675 23 14C23 10.1325 19.8675 7 16 7C12.1325 7 9 10.1325 9 14C9 17.8675 12.1325 21 16 21Z" fill="#333333"/>
<path d="M16 23C11.6613 23 3 25.144 3 29.4V35H29V29.4C29 25.144 20.3387 23 16 23Z" fill="#333333"/>
<path d="M40 18C40 20.7625 37.7625 23 35 23C32.2375 23 30 20.7625 30 18C30 15.2375 32.2375 13 35 13C37.7625 13 40 15.2375 40 18Z" fill="#333333"/>
<path d="M31 29.4V35H45V30.3333C45 26.7867 38.3375 25 35 25C33.584 25 31.5696 25.3216 29.7194 25.9627C30.4684 26.8885 31 28.0363 31 29.4Z" fill="#333333"/>
</svg>
