<svg width="49" height="49" viewBox="0 0 49 49" fill="none" xmlns="http://www.w3.org/2000/svg">
<path d="M33.5 16.9133C33.5 21.9227 29.4725 25.98 24.5 25.98C19.5275 25.98 15.5 21.9227 15.5 16.9133C15.5 11.904 19.5275 7.84668 24.5 7.84668C29.4725 7.84668 33.5 11.904 33.5 16.9133Z" fill="#333333"/>
<path d="M18.6254 29.7991C18.3971 29.3313 17.8814 29.0785 17.3786 29.2021C11.9745 30.5301 6.5 33.238 6.5 37.3116V41.845H42.5V37.3116C42.5 33.238 37.0255 30.5301 31.6214 29.2021C31.1186 29.0785 30.6029 29.3313 30.3746 29.7991L26.3105 32.7991C25.4219 32.7993 24.9694 32.7993 24.5249 32.7993C24.0638 32.7992 23.6113 32.7992 22.6893 32.7994L18.6254 29.7991Z" fill="#333333"/>
</svg>
