<svg width="48" height="48" viewBox="0 0 48 48" fill="none" xmlns="http://www.w3.org/2000/svg">
<path d="M19.5 11.9111C21.7091 11.9111 23.5 10.1203 23.5 7.91113C23.5 5.70199 21.7091 3.91113 19.5 3.91113C17.2909 3.91113 15.5 5.70199 15.5 7.91113C15.5 10.1203 17.2909 11.9111 19.5 11.9111Z" fill="#333333"/>
<path d="M17.0638 13.4199C17.0272 13.4199 16.9908 13.4206 16.9545 13.4219H9.14288V8.91159H7.42859V13.4219H5.5C4.67157 13.4219 4 14.0934 4 14.9219C4 15.7503 4.67157 16.4219 5.5 16.4219H7.42859V34.746C6.4607 34.9439 5.59086 35.4699 4.96613 36.2352C4.3414 37.0005 4.00012 37.9581 4 38.946V44.0889H5.71429V38.0888H7.42859V44.0889H9.14288V38.0888H10.8572V44.0889H12.5715V38.946C12.5713 37.9581 12.2301 37.0005 11.6053 36.2352C10.9806 35.4699 10.1108 34.9439 9.14288 34.746V16.4219H14.0831V42.304C14.0831 43.203 14.8186 43.9385 15.7177 43.9385C16.6167 43.9385 17.3522 43.203 17.3522 42.304V30.1311H21.6214V42.304C21.6214 43.203 22.3569 43.9385 23.256 43.9385C24.155 43.9385 24.8905 43.203 24.8905 42.304V24.1553C25.7895 24.1553 28.5656 22.4441 28.5656 18.2304C28.5656 15.0545 25.7895 13.4199 24.8905 13.4199H17.0638Z" fill="#333333"/>
<path fill-rule="evenodd" clip-rule="evenodd" d="M37.6235 14.2182C37.259 13.9281 36.7414 13.9278 36.3769 14.2179L36.3755 14.219L36.3731 14.2209L36.3661 14.2266L36.3437 14.2448C36.3252 14.26 36.2997 14.2811 36.2681 14.3079C36.205 14.3613 36.1173 14.4373 36.0131 14.5324C35.8062 14.7214 35.5276 14.9919 35.246 15.3152C34.9669 15.6355 34.6669 16.0281 34.4326 16.4622C34.2022 16.8888 34 17.4201 34 18C34 18.58 34.2022 19.1113 34.4326 19.5379C34.6669 19.972 34.9669 20.3646 35.246 20.6849C35.5217 21.0014 35.7945 21.2673 36 21.4557V23.2294C35.7686 22.9189 35.4733 22.6181 35.0981 22.4015C34.5958 22.1115 34.0346 22.021 33.5499 22.0071C33.0568 21.9931 32.5668 22.0566 32.1499 22.1381C31.7291 22.2203 31.3556 22.3263 31.0884 22.411C30.954 22.4537 30.8443 22.4916 30.7665 22.5196C30.7275 22.5336 30.6964 22.5451 30.674 22.5535L30.6471 22.5638L30.6387 22.5671L30.6347 22.5686C30.2012 22.7392 29.942 23.1869 30.011 23.6477C30.011 23.6474 30.011 23.6477 31 23.4995L30.011 23.6477L30.0113 23.6498L30.0118 23.6529L30.0132 23.6618L30.0178 23.6903C30.0216 23.7139 30.0272 23.7466 30.0346 23.7873C30.0493 23.8687 30.0712 23.9826 30.1015 24.1204C30.1618 24.3941 30.2567 24.7706 30.3959 25.1761C30.5338 25.5779 30.7238 26.034 30.9825 26.454C31.2368 26.8669 31.5958 27.3076 32.0981 27.5976C32.6003 27.8876 33.1615 27.9781 33.6462 27.9919C34.1393 28.006 34.6293 27.9425 35.0462 27.861C35.4131 27.7893 35.7441 27.6995 36 27.6215V30.2294C35.7686 29.9189 35.4733 29.6181 35.0981 29.4015C34.5958 29.1115 34.0346 29.021 33.5499 29.0071C33.0568 28.9931 32.5668 29.0566 32.1499 29.1381C31.7291 29.2203 31.3556 29.3263 31.0884 29.411C30.954 29.4537 30.8443 29.4916 30.7665 29.5196C30.7275 29.5336 30.6964 29.5451 30.674 29.5535L30.6471 29.5638L30.6387 29.5671L30.6347 29.5686C30.2012 29.7392 29.942 30.1869 30.011 30.6477C30.011 30.6474 30.011 30.6477 31 30.4995L30.011 30.6477L30.0113 30.6498L30.0118 30.6529L30.0132 30.6618L30.0178 30.6903C30.0216 30.7139 30.0272 30.7466 30.0346 30.7873C30.0493 30.8687 30.0712 30.9826 30.1015 31.1204C30.1618 31.3941 30.2567 31.7706 30.3959 32.1761C30.5338 32.578 30.7238 33.034 30.9825 33.454C31.2368 33.8669 31.5958 34.3076 32.0981 34.5976C32.6003 34.8876 33.1615 34.9781 33.6462 34.9919C34.1393 35.006 34.6293 34.9425 35.0462 34.861C35.4131 34.7893 35.7441 34.6995 36 34.6215V37.2294C35.7686 36.9189 35.4733 36.6181 35.0981 36.4015C34.5958 36.1115 34.0346 36.021 33.5499 36.0071C33.0568 35.9931 32.5668 36.0566 32.1499 36.1381C31.7291 36.2203 31.3556 36.3263 31.0884 36.411C30.954 36.4537 30.8443 36.4916 30.7665 36.5196C30.7275 36.5336 30.6964 36.5451 30.674 36.5535L30.6471 36.5638L30.6387 36.5671L30.6358 36.5682L30.6347 36.5686C30.2012 36.7392 29.942 37.1869 30.011 37.6477L30.0113 37.6498L30.0118 37.6529L30.0132 37.6618L30.0178 37.6903C30.0216 37.7139 30.0272 37.7466 30.0346 37.7873C30.0493 37.8687 30.0712 37.9826 30.1015 38.1204C30.1618 38.3941 30.2567 38.7706 30.3959 39.1761C30.5338 39.5779 30.7238 40.034 30.9825 40.454C31.2368 40.8669 31.5958 41.3076 32.0981 41.5976C32.6003 41.8876 33.1615 41.9781 33.6462 41.9919C34.1393 42.006 34.6293 41.9425 35.0462 41.861C35.4131 41.7893 35.7441 41.6995 36 41.6215V43.9999C36 44.5522 36.4477 44.9999 37 44.9999C37.5523 44.9999 38 44.5522 38 43.9999V41.5596C38.0281 41.5688 38.0576 41.5783 38.0884 41.5881C38.3556 41.6728 38.7291 41.7788 39.1499 41.8611C39.5668 41.9425 40.0568 42.006 40.5499 41.992C41.0346 41.9782 41.5958 41.8876 42.0981 41.5977C42.6003 41.3077 42.9593 40.8669 43.2136 40.4541C43.4723 40.0341 43.6623 39.578 43.8002 39.1762C43.9394 38.7706 44.0343 38.3941 44.0946 38.1204C44.1249 37.9827 44.1469 37.8687 44.1615 37.7874C44.1689 37.7466 44.1745 37.7139 44.1783 37.6903L44.1829 37.6618L44.1843 37.6529L44.1848 37.6499L44.185 37.6487C44.254 37.1879 43.9954 36.7395 43.5619 36.5689L43.5603 36.5683L43.5574 36.5671L43.549 36.5639L43.5221 36.5536C43.4997 36.5452 43.4686 36.5336 43.4296 36.5196C43.3518 36.4917 43.2421 36.4537 43.1077 36.4111C42.8405 36.3264 42.467 36.2204 42.0462 36.1381C41.6293 36.0566 41.1393 35.9931 40.6462 36.0072C40.1615 36.021 39.6003 36.1115 39.0981 36.4015C38.6072 36.6849 38.2532 37.1123 38 37.5169V34.5596C38.0281 34.5688 38.0576 34.5783 38.0884 34.5881C38.3556 34.6728 38.7291 34.7788 39.1499 34.8611C39.5668 34.9425 40.0568 35.006 40.5499 34.992C41.0346 34.9782 41.5958 34.8876 42.0981 34.5977C42.6003 34.3077 42.9593 33.8669 43.2136 33.4541C43.4723 33.0341 43.6623 32.578 43.8002 32.1762C43.9394 31.7706 44.0343 31.3941 44.0946 31.1204C44.1249 30.9827 44.1469 30.8687 44.1615 30.7874C44.1689 30.7466 44.1745 30.7139 44.1783 30.6903L44.1829 30.6618L44.1843 30.6529L44.1848 30.6499L44.185 30.6487C44.254 30.1879 43.9954 29.7395 43.5619 29.5689L43.5574 29.5671L43.549 29.5639L43.5221 29.5536C43.4997 29.5452 43.4686 29.5336 43.4296 29.5196C43.3518 29.4917 43.2421 29.4537 43.1077 29.4111C42.8405 29.3264 42.467 29.2204 42.0462 29.1381C41.6293 29.0566 41.1393 28.9931 40.6462 29.0072C40.1615 29.021 39.6003 29.1116 39.0981 29.4015C38.6072 29.6849 38.2532 30.1123 38 30.5169V27.5596C38.0281 27.5688 38.0576 27.5783 38.0884 27.5881C38.3556 27.6728 38.7291 27.7788 39.1499 27.8611C39.5668 27.9425 40.0568 28.006 40.5499 27.992C41.0346 27.9782 41.5958 27.8876 42.0981 27.5977C42.6003 27.3077 42.9593 26.8669 43.2136 26.4541C43.4723 26.0341 43.6623 25.578 43.8002 25.1762C43.9394 24.7706 44.0343 24.3941 44.0946 24.1204C44.1249 23.9827 44.1469 23.8687 44.1615 23.7874C44.1689 23.7466 44.1745 23.7139 44.1783 23.6903L44.1829 23.6618L44.1843 23.6529L44.1848 23.6499L44.185 23.6487C44.254 23.1879 43.9954 22.7395 43.5619 22.5689L43.5574 22.5671L43.549 22.5639L43.5221 22.5536C43.4997 22.5452 43.4686 22.5336 43.4296 22.5196C43.3518 22.4917 43.2421 22.4537 43.1077 22.4111C42.8405 22.3264 42.467 22.2204 42.0462 22.1381C41.6293 22.0566 41.1393 21.9931 40.6462 22.0072C40.1615 22.021 39.6003 22.1116 39.0981 22.4015C38.6072 22.6849 38.2532 23.1123 38 23.5169V21.4557C38.2055 21.2673 38.4783 21.0014 38.754 20.6849C39.0331 20.3646 39.333 19.972 39.5674 19.5379C39.7978 19.1113 40 18.58 40 18C40 17.4201 39.7978 16.8888 39.5674 16.4622C39.333 16.0281 39.0331 15.6355 38.754 15.3152C38.4724 14.9919 38.1938 14.7214 37.9869 14.5324C37.8827 14.4373 37.795 14.3613 37.7319 14.3079C37.7003 14.2811 37.6748 14.26 37.6563 14.2448L37.6339 14.2266L37.6269 14.2209L37.6245 14.219L37.6235 14.2182ZM37 15C36.3772 14.2176 36.377 14.2178 36.3769 14.2179L37 15ZM37 15L37.6235 14.2182C37.6233 14.2181 37.6227 14.2176 37 15ZM44.185 23.6487C44.185 23.6484 44.1851 23.6477 43.1961 23.4996L44.185 23.6487ZM43.1961 23.4996C43.5623 22.569 43.5621 22.569 43.5619 22.5689L43.1961 23.4996ZM43.5619 29.5689L43.1961 30.4996C43.5623 29.569 43.5621 29.569 43.5619 29.5689ZM43.1961 30.4996L44.185 30.6487C44.185 30.6484 44.1851 30.6477 43.1961 30.4996ZM43.5619 36.5689L43.1961 37.4996C43.5623 36.569 43.5621 36.569 43.5619 36.5689ZM43.1961 37.4996L44.185 37.6487C44.185 37.6484 44.1851 37.6477 43.1961 37.4996ZM30.6347 36.5686C30.6345 36.5687 30.6338 36.569 31 37.4995L30.6347 36.5686ZM30.6347 29.5686C30.6345 29.5687 30.6338 29.569 31 30.4995L30.6347 29.5686ZM30.6347 22.5686C30.6345 22.5687 30.6338 22.569 31 23.4995L30.6347 22.5686Z" fill="#333333"/>
</svg>
