<svg width="48" height="48" viewBox="0 0 48 48" fill="none" xmlns="http://www.w3.org/2000/svg">
<path d="M28.9754 9.98365C28.3197 10.6247 27.4276 10.9901 26.4935 11C25.5606 10.9901 24.6698 10.6243 24.0162 9.98287C23.3626 9.34142 22.9996 8.47654 23.0065 7.57768C22.9774 7.11839 23.0462 6.65821 23.2086 6.22549C23.371 5.79276 23.6236 5.39663 23.9508 5.06149C24.2781 4.72634 24.6731 4.45928 25.1115 4.27673C25.5499 4.09417 26.0224 4 26.5 4C26.9776 4 27.4501 4.09417 27.8885 4.27673C28.3269 4.45928 28.7219 4.72634 29.0492 5.06149C29.3764 5.39663 29.629 5.79276 29.7914 6.22549C29.9538 6.65821 30.0226 7.11839 29.9935 7.57768C29.997 8.4777 29.631 9.34255 28.9754 9.98365Z" fill="#333333"/>
<path fill-rule="evenodd" clip-rule="evenodd" d="M28.773 16.6149C30.0378 18.2216 31.1317 19.9604 32.0366 21.8021C32.7276 23.0252 33.1006 24.4078 33.1201 25.8189C33.0818 26.5029 32.9226 27.1743 32.6502 27.8007C32.3165 28.4931 31.8757 29.1263 31.3447 29.6761C31.2365 29.7832 31.1085 29.8903 30.9757 30.0014C30.5477 30.3597 30.0692 30.7601 30.0393 31.3386C30.0131 31.847 30.2098 34.9565 30.3423 37.0507C30.4074 38.0797 30.457 38.8636 30.457 38.9732H25.8358L25.64 42.6707C25.64 43.0235 25.5025 43.3618 25.2577 43.6112C25.0129 43.8607 24.6808 44.0008 24.3346 44.0008C23.9884 44.0008 23.6563 43.8607 23.4115 43.6112C23.1667 43.3618 23.0292 43.0235 23.0292 42.6707L22.8464 38.8934H17.7422C17.7525 38.8594 17.9329 38.3349 18.2187 37.5047C19.3855 34.1142 22.3075 25.6236 22.5592 24.6085C22.3301 24.7624 22.0592 24.8389 21.785 24.8269C21.5108 24.815 21.2473 24.7153 21.0319 24.542L16.3323 20.6317C16.0813 20.4185 15.9179 20.1171 15.8744 19.7871C15.8309 19.4571 15.9105 19.1225 16.0973 18.8494L18.7082 15.2316C18.8525 15.0195 19.0003 14.7833 19.1546 14.5367C19.8512 13.4232 20.6798 12.0989 21.9196 11.8267C22.9858 11.615 24.0912 11.809 25.0265 12.372C26.5154 13.5455 27.7845 14.9827 28.773 16.6149ZM21.7237 16.309L18.9823 19.5011L22.6636 22.5204C22.7198 22.5836 22.7721 22.6502 22.8203 22.7199C22.8087 21.4526 22.6376 20.192 22.3112 18.9691C22.2286 18.5876 22.1437 18.2108 22.0593 17.8367C21.9438 17.324 21.8294 16.8165 21.7237 16.309Z" fill="#333333"/>
</svg>
