<svg width="48" height="48" viewBox="0 0 48 48" fill="none" xmlns="http://www.w3.org/2000/svg">
<path fill-rule="evenodd" clip-rule="evenodd" d="M34 14.4142L35.2929 15.7071L36.7071 14.2928L32.7071 10.2928L31.2929 11.7071L32.5858 13L29.5 16.0857L26.7071 13.2928L25.2929 14.7071L26.5858 16L20.7071 21.8786C19.7517 22.834 19.5754 24.2735 20.1783 25.4076L17.4695 28.1163L15.4098 25.5813L9.3843 31.9612L12.3034 34.5154C13.3971 35.4724 14.8011 36 16.2544 36H31C31 37.1045 31.8954 38 33 38H35.5C35.5 38 34 37 34 35V30H37V31C37 31.5522 37.4477 32 38 32H39V29C39 27.8954 38.1046 27 37 27H34L31 30H19.9519C19.9118 30 19.8719 29.9987 19.8321 29.9964L17.8284 32H16.4142L21.5925 26.8218C22.7265 27.4245 24.166 27.2482 25.1213 26.2928L31 20.4142L32.2929 21.7071L33.7071 20.2928L30.9142 17.5L34 14.4142ZM29.5858 19L28 17.4142L25.9142 19.5L27.5 21.0857L29.5858 19Z" fill="#333333"/>
<path d="M40 28V33H38C36.4 33 36 31.6666 36 31H35V35C35 36.5 36.5 38 38 38H41.0001C42.1047 38 43 37.1045 43 36V30C43 28.8954 42.1046 28 41 28H40Z" fill="#333333"/>
<path d="M14.1376 24.0155L7.87806 30.6433L6 29V14L14.1376 24.0155Z" fill="#333333"/>
</svg>
