<svg width="48" height="48" viewBox="0 0 48 48" fill="none" xmlns="http://www.w3.org/2000/svg">
<path fill-rule="evenodd" clip-rule="evenodd" d="M13.6884 12C13.6124 11.8803 13.5349 11.76 13.457 11.6388C12.7488 10.5389 12 9.37587 12 8.09677C12 7.29597 12.5203 6.62166 13.209 6.08848C15.769 4.10661 24 3 24 3C24 3 32.231 4.10662 34.791 6.08848C35.4797 6.62166 36 7.29597 36 8.09677C36 9.55508 35.1742 10.8143 34.3907 12H13.6884ZM22 8C22 6.89543 22.8954 6 24 6C25.1046 6 26 6.89543 26 8C26 9.10457 25.1046 10 24 10C22.8954 10 22 9.10457 22 8Z" fill="#333333"/>
<path fill-rule="evenodd" clip-rule="evenodd" d="M15 16.7943V18C15 22.9706 19.0294 27 24 27C28.9706 27 33 22.9706 33 18V16.7943C33.5737 16.2423 33.8293 15.6801 33.9341 15.2341C33.988 15.0048 34.0011 14.8101 33.9999 14.6678C33.9993 14.5967 33.9951 14.5383 33.9905 14.4948C33.9882 14.4731 33.9858 14.455 33.9837 14.4409L33.9808 14.4227L33.9796 14.4159L33.9791 14.413L33.9788 14.4118L33.9786 14.4106C33.9332 14.1728 33.7155 14 33.4614 14H14.5386C14.2845 14 14.0668 14.1728 14.0214 14.4106L14.0212 14.4118L14.0209 14.413L14.0204 14.4159L14.0192 14.4227L14.0163 14.4409C14.0142 14.455 14.0118 14.4731 14.0095 14.4948C14.0049 14.5383 14.0007 14.5967 14.0001 14.6678C13.9989 14.8101 14.012 15.0048 14.0659 15.2341C14.1707 15.6801 14.4263 16.2423 15 16.7943ZM17 18.006C17.0032 21.8692 20.136 25 24 25C27.864 25 30.9968 21.8692 31 18.006C29.501 18.5937 27.2811 19 24 19C20.7189 19 18.499 18.5937 17 18.006Z" fill="#333333"/>
<path fill-rule="evenodd" clip-rule="evenodd" d="M26.5 30C26.5 29.4477 26.0523 29 25.5 29H22.5C21.9477 29 21.5 29.4477 21.5 30V31.5858C21.5 31.851 21.6054 32.1054 21.7929 32.2929L22.5 33L21.5769 36.2308L17.1479 31.169C17.0589 31.168 16.9685 31.178 16.8786 31.1999C11.4745 32.5182 6 35.2061 6 39.2498V44H42V39.2498C42 35.2061 36.5255 32.5182 31.1214 31.1999C31.0315 31.178 30.9411 31.168 30.8521 31.169L26.4306 36.2222L25.5 32.5L25.9472 32.2764C26.286 32.107 26.5 31.7607 26.5 31.382V30ZM35 37.3333C35 37.3333 33.6667 36.6667 33 36C32.3333 36.6667 31 37.3333 31 37.3333C31 37.3333 31.6983 40 33 40C34.3017 40 35 37.3333 35 37.3333Z" fill="#333333"/>
</svg>
