<svg width="48" height="48" viewBox="0 0 48 48" fill="none" xmlns="http://www.w3.org/2000/svg">
<path fill-rule="evenodd" clip-rule="evenodd" d="M22.9672 11.4997C25.1764 11.4997 26.9673 9.70804 26.9673 7.4979C26.9673 5.28776 25.1764 3.49609 22.9672 3.49609C20.758 3.49609 18.9671 5.28776 18.9671 7.4979C18.9671 9.70804 20.758 11.4997 22.9672 11.4997ZM20.531 12.5054C20.4976 12.5054 20.4643 12.5059 20.4311 12.507L20.4079 12.5068H18.4672C17.8972 12.5068 17.3765 12.8298 17.1233 13.3404L13.6561 20.3326C13.3922 20.8649 13.4673 21.5028 13.8476 21.9593L18.8476 27.9593C19.378 28.5957 20.3238 28.6817 20.9602 28.1513C21.5967 27.621 21.6826 26.6751 21.1523 26.0387L16.7781 20.7896L17.5503 19.2322V20.1548L21.9205 25.399C22.0945 25.6078 22.2286 25.8365 22.3239 26.076C22.5412 26.0259 22.7675 25.9995 23 25.9995C24.6568 25.9995 26 27.3426 26 28.9995C26 29.8778 25.6226 30.6679 25.0211 31.2165H25.0886V42.8685C25.0886 43.7675 25.8242 44.503 26.7232 44.503C27.6222 44.503 28.3578 43.7675 28.3578 42.8685V23.2407C29.2568 23.2407 32.0329 21.5295 32.0329 17.3158C32.0329 14.1399 29.2568 12.5054 28.3578 12.5054H20.531ZM20.9789 31.2165C20.494 30.7742 20.1547 30.175 20.0414 29.4992C19.3116 29.5109 18.5831 29.2044 18.0794 28.6L17.5503 27.9651V42.8685C17.5503 43.7675 18.2859 44.503 19.1849 44.503C20.0839 44.503 20.8195 43.7675 20.8195 42.8685V31.2165H20.9789ZM21.0199 29.2827C21.1574 30.2531 21.9915 30.9995 23 30.9995C24.1045 30.9995 25 30.1041 25 28.9995C25 27.8949 24.1045 26.9995 23 26.9995C22.827 26.9995 22.6592 27.0214 22.4992 27.0627C22.4814 27.757 22.1759 28.4405 21.6004 28.9201C21.4199 29.0705 21.2244 29.1912 21.0199 29.2827Z" fill="#333333"/>
</svg>
