<svg width="48" height="48" viewBox="0 0 48 48" fill="none" xmlns="http://www.w3.org/2000/svg">
<path fill-rule="evenodd" clip-rule="evenodd" d="M19.6568 8.71967C19.6568 6.1046 21.826 4 24.4443 4C27.0626 4 29.2318 6.10461 29.2318 8.71967C29.2318 10.7117 27.9732 12.4075 26.2161 13.1025H39.1062C40.683 13.1025 42 14.3702 42 15.9623C42 17.5545 40.683 18.8221 39.1062 18.8221H29.6648L30.0099 20C32.2145 20.0053 34 21.7942 34 24C34 25.4106 33.2699 26.6506 32.1669 27.3628L35.8683 39.9967V40.1402C35.8683 41.7323 34.5512 43 32.9745 43C31.7127 43 30.7778 42.0524 30.1357 41.1311C29.4545 40.1536 28.87 38.8715 28.3743 37.5887C27.8743 36.295 27.4421 34.9397 27.0831 33.7919L26.9654 33.4151C26.77 32.7891 26.6038 32.2566 26.4625 31.841H24.8295C24.9404 32.2078 25 32.597 25 33C25 35.2091 23.2091 37 21 37C20.6196 37 20.2515 36.9469 19.9029 36.8477C19.813 37.0957 19.7206 37.3433 19.6257 37.5887C19.13 38.8715 18.5455 40.1536 17.8643 41.1311C17.2222 42.0524 16.2873 43 15.0255 43C13.4488 43 12.1318 41.7323 12.1318 40.1402V39.9967L18.3352 18.8221H16.8347C16.1103 19.5497 15.1078 20 14 20C12.8922 20 11.8897 19.5497 11.1653 18.8221H8.89375C7.31702 18.8221 6 17.5545 6 15.9623C6 14.3702 7.31702 13.1025 8.89375 13.1025H11.2424C11.96 12.4193 12.931 12 14 12C15.069 12 16.04 12.4193 16.7576 13.1025H22.6726C20.9155 12.4075 19.6568 10.7117 19.6568 8.71967ZM23.454 29.841C22.7765 29.3139 21.9249 29 21 29C18.7909 29 17 30.7909 17 33C17 34.094 17.4392 35.0854 18.1508 35.8075C18.0253 36.1634 17.8952 36.5186 17.7602 36.8678C17.2819 38.1055 16.7659 39.2093 16.2235 39.9876C15.642 40.8219 15.2301 41 15.0255 41C14.5624 41 14.1988 40.6603 14.1401 40.2552L21.0052 16.8221H17.9154C17.9709 16.5568 18 16.2818 18 16C18 15.6914 17.9651 15.391 17.8989 15.1025H39.1062C39.6126 15.1025 40 15.5087 40 15.9623C40 16.416 39.6126 16.8221 39.1062 16.8221H26.9948L28.0708 20.4951C26.8363 21.1761 26 22.4904 26 24C26 26.2091 27.7909 28 30 28C30.0897 28 30.1787 27.997 30.267 27.9912L33.8599 40.2552C33.8012 40.6603 33.4376 41 32.9745 41C32.7699 41 32.358 40.8219 31.7765 39.9876C31.2341 39.2093 30.7181 38.1055 30.2398 36.8678C29.7658 35.6411 29.3505 34.3412 28.9919 33.1948L28.8694 32.8024C28.5706 31.8438 28.3006 30.9776 28.079 30.4523L27.8211 29.841H23.454ZM10.1011 15.1025H8.89375C8.38736 15.1025 8 15.5087 8 15.9623C8 16.416 8.38736 16.8221 8.89375 16.8221H10.0846C10.0291 16.5568 10 16.2818 10 16C10 15.6914 10.0349 15.391 10.1011 15.1025ZM24.4443 6C22.8964 6 21.6568 7.2431 21.6568 8.71967C21.6568 10.1962 22.8964 11.4393 24.4443 11.4393C25.9923 11.4393 27.2318 10.1962 27.2318 8.71967C27.2318 7.2431 25.9923 6 24.4443 6Z" fill="#333333"/>
<path d="M10.9517 12.1025C13.0377 9.60741 15.826 7.71972 19.0127 6.74328C19.3803 5.76022 20.0137 4.90705 20.8223 4.26453C15.6985 5.12724 11.271 8.04085 8.41314 12.132C8.57095 12.1125 8.73138 12.1025 8.89375 12.1025H10.9517Z" fill="#333333"/>
<path d="M7.35899 19.508C6.6598 19.2091 6.06122 18.7123 5.64197 18.0845C5.22323 19.6524 5 21.3001 5 23C5 28.8498 7.64365 34.0821 11.8014 37.5674L12.4223 35.4482C9.08653 32.3443 7 27.9158 7 23C7 21.8031 7.12369 20.6351 7.35899 19.508Z" fill="#333333"/>
<path d="M19.4132 39.374L18.8904 40.6131C18.8628 40.8376 18.8158 41.0556 18.7513 41.2657C20.4183 41.7439 22.1793 42 24 42C25.8207 42 27.5817 41.7439 29.2487 41.2657C29.1842 41.0556 29.1372 40.8376 29.1096 40.6131L28.5868 39.374C27.1277 39.7819 25.5893 40 24 40C22.4107 40 20.8723 39.7819 19.4132 39.374Z" fill="#333333"/>
<path d="M35.5777 35.4482L36.1986 37.5674C40.3563 34.0821 43 28.8498 43 23C43 21.3001 42.7768 19.6524 42.358 18.0845C41.9388 18.7123 41.3402 19.2091 40.641 19.508C40.8763 20.6351 41 21.8031 41 23C41 27.9158 38.9135 32.3443 35.5777 35.4482Z" fill="#333333"/>
<path d="M37.0483 12.1025H39.1062C39.2686 12.1025 39.429 12.1125 39.5869 12.132C36.948 8.35433 32.9708 5.58067 28.3429 4.49858C29.1073 5.18755 29.6869 6.07673 29.9917 7.08596C32.76 8.12876 35.1845 9.87318 37.0483 12.1025Z" fill="#333333"/>
</svg>
