<svg width="48" height="48" viewBox="0 0 48 48" fill="none" xmlns="http://www.w3.org/2000/svg">
<path fill-rule="evenodd" clip-rule="evenodd" d="M10.9517 12.1025C13.0377 9.60741 15.826 7.71972 19.0127 6.74328C19.3803 5.76022 20.0137 4.90705 20.8223 4.26453C15.6985 5.12724 11.271 8.04085 8.41314 12.132C8.57095 12.1125 8.73138 12.1025 8.89375 12.1025H10.9517ZM7.35899 19.508C6.6598 19.2091 6.06122 18.7123 5.64197 18.0845C5.22323 19.6524 5 21.3001 5 23C5 28.8498 7.64365 34.0821 11.8014 37.5674L12.4223 35.4482C9.08653 32.3443 7 27.9158 7 23C7 21.8031 7.12369 20.6351 7.35899 19.508ZM19.4132 39.374L18.8904 40.6131C18.8628 40.8376 18.8158 41.0556 18.7513 41.2657C20.4183 41.7439 22.1793 42 24 42C25.8207 42 27.5817 41.7439 29.2487 41.2657C29.1842 41.0556 29.1372 40.8376 29.1096 40.6131L28.5868 39.374C27.1277 39.7819 25.5893 40 24 40C22.4107 40 20.8723 39.7819 19.4132 39.374ZM35.5777 35.4482L36.1986 37.5674C40.3563 34.0821 43 28.8498 43 23C43 21.3001 42.7768 19.6524 42.358 18.0845C41.9388 18.7123 41.3402 19.2091 40.641 19.508C40.8763 20.6351 41 21.8031 41 23C41 27.9158 38.9135 32.3443 35.5777 35.4482ZM37.0483 12.1025H39.1062C39.2686 12.1025 39.429 12.1125 39.5869 12.132C36.948 8.35433 32.9708 5.58067 28.3429 4.49858C29.1073 5.18755 29.6869 6.07673 29.9917 7.08596C32.76 8.12876 35.1845 9.87318 37.0483 12.1025Z" fill="#333333"/>
<path d="M24.4443 5C22.3612 5 20.6568 6.67385 20.6568 8.71967C20.6568 10.7655 22.3612 12.4393 24.4443 12.4393C26.5275 12.4393 28.2318 10.7655 28.2318 8.71967C28.2318 6.67385 26.5275 5 24.4443 5Z" stroke="#333333" stroke-width="2"/>
<circle cx="14" cy="16" r="4" fill="#333333"/>
<circle cx="30" cy="24" r="4" fill="#333333"/>
<circle cx="21" cy="33" r="4" fill="#333333"/>
</svg>
