<svg width="48" height="48" viewBox="0 0 48 48" fill="none" xmlns="http://www.w3.org/2000/svg">
<path fill-rule="evenodd" clip-rule="evenodd" d="M18.75 14.25C20.868 14.955 21.822 17.4885 22.2405 20.2845L22.5 20.1861V9H25.5V20.2172L25.761 20.286C26.1795 17.4885 27.1335 14.9565 29.2515 14.25C33.7515 12.75 39.0015 20.25 39.0015 31.5V32.154C38.994 37.5 38.7765 37.5 33.0015 37.5C27.0015 37.5 25.5015 33 25.5015 28.5C25.5015 28.181 25.493 27.7855 25.4832 27.3317L25.4832 27.3306L25.4832 27.3304C25.4611 26.3099 25.4328 24.9943 25.4805 23.589L24.8253 22.5H23.2028L22.521 23.5875C22.5687 24.9926 22.5404 26.3079 22.5184 27.3289C22.5085 27.7837 22.5 28.1801 22.5 28.5C22.5 33 21 37.5 15 37.5C12 37.5 10.5 37.5 9.75 36.75C9 36 9 34.5 9 31.5C9 20.25 14.25 12.75 18.75 14.25ZM31.855 18.8859C31.855 19.6696 31.2196 20.3049 30.4359 20.3049C29.6522 20.3049 29.0168 19.6696 29.0168 18.8859C29.0168 18.1021 29.6522 17.4668 30.4359 17.4668C31.2196 17.4668 31.855 18.1021 31.855 18.8859ZM30.2243 29.8362C31.008 29.8362 31.6433 29.2009 31.6433 28.4171C31.6433 27.6334 31.008 26.998 30.2243 26.998C29.4405 26.998 28.8052 27.6334 28.8052 28.4171C28.8052 29.2009 29.4405 29.8362 30.2243 29.8362ZM35.6433 28.4171C35.6433 29.2009 35.008 29.8362 34.2243 29.8362C33.4405 29.8362 32.8052 29.2009 32.8052 28.4171C32.8052 27.6334 33.4405 26.998 34.2243 26.998C35.008 26.998 35.6433 27.6334 35.6433 28.4171ZM31.9033 26.0474C33.1515 26.0474 34.1633 25.0355 34.1633 23.7874C34.1633 22.5392 33.1515 21.5273 31.9033 21.5273C30.6552 21.5273 29.6433 22.5392 29.6433 23.7874C29.6433 25.0355 30.6552 26.0474 31.9033 26.0474Z" fill="#333333"/>
</svg>
