<svg width="48" height="48" viewBox="0 0 48 48" fill="none" xmlns="http://www.w3.org/2000/svg">
<path fill-rule="evenodd" clip-rule="evenodd" d="M36.8751 12C36.8751 12.5523 37.3228 13 37.8751 13C38.4273 13 38.8751 12.5523 38.8751 12V8C38.8751 7.44772 38.4273 7 37.8751 7H33.8751C33.3228 7 32.8751 7.44772 32.8751 8C32.8751 8.55228 33.3228 9 33.8751 9H35.4532L32.8634 11.5735L31.4602 10.1703C31.0697 9.77982 30.4365 9.77982 30.046 10.1703C29.6555 10.5609 29.6555 11.194 30.046 11.5846L31.4447 12.9833L29.2873 15.1272C27.7082 13.7576 25.6474 12.9287 23.3931 12.9287C21.2669 12.9287 19.313 13.666 17.773 14.8988L12.4141 9.53992H14.0001C14.5523 9.53992 15.0001 9.0922 15.0001 8.53992C15.0001 7.98763 14.5523 7.53992 14.0001 7.53992H10.0001C9.44778 7.53992 9.00006 7.98763 9.00006 8.53992V12.5399C9.00006 13.0922 9.44778 13.5399 10.0001 13.5399C10.5523 13.5399 11.0001 13.0922 11.0001 12.5399V10.9543L16.3592 16.3135C15.1288 17.8527 14.3931 19.8048 14.3931 21.9287C14.3931 26.5613 17.8931 30.3763 22.3931 30.8738V35.9299H20.3931C19.8408 35.9299 19.3931 36.3776 19.3931 36.9299C19.3931 37.4822 19.8408 37.9299 20.3931 37.9299H22.3931V39.9299C22.3931 40.4822 22.8408 40.9299 23.3931 40.9299C23.9454 40.9299 24.3931 40.4822 24.3931 39.9299V37.9299H26.3931C26.9454 37.9299 27.3931 37.4822 27.3931 36.9299C27.3931 36.3776 26.9454 35.9299 26.3931 35.9299H24.3931V30.8738C28.893 30.3763 32.3931 26.5613 32.3931 21.9287C32.3931 19.9334 31.7438 18.0898 30.645 16.5976L32.859 14.3975L34.2886 15.8272C34.6791 16.2177 35.3123 16.2177 35.7028 15.8272C36.0934 15.4367 36.0934 14.8035 35.7028 14.413L34.2776 12.9878L36.8751 10.4066V12ZM23.3931 14.9287C19.5271 14.9287 16.3931 18.0627 16.3931 21.9287C16.3931 25.7947 19.5271 28.9287 23.3931 28.9287C27.2591 28.9287 30.3931 25.7947 30.3931 21.9287C30.3931 18.0627 27.2591 14.9287 23.3931 14.9287Z" fill="#333333"/>
</svg>
