<svg width="48" height="48" viewBox="0 0 48 48" fill="none" xmlns="http://www.w3.org/2000/svg">
<path d="M31.7112 8C29.9132 8 28.4421 9.47112 28.4421 11.2691C28.4421 13.0672 29.9132 14.5383 31.7112 14.5383C33.5092 14.5383 34.9803 13.0672 34.9803 11.2691C34.9803 9.47112 33.5092 8 31.7112 8Z" fill="#333333"/>
<path d="M18.6346 19.443H26.8074V39.0579C26.8074 39.9569 27.543 40.6924 28.442 40.6924C29.341 40.6924 30.0766 39.9569 30.0766 39.0579V30.885H33.3457V39.0579C33.3457 39.9569 34.0813 40.6924 34.9803 40.6924C35.8793 40.6924 36.6149 39.9569 36.6149 39.0579V26.9092C37.5139 26.9092 40.29 25.198 40.29 20.9843C40.29 17.8084 37.5139 16.1738 36.6149 16.1738H18.6346C17.7356 16.1738 17 16.9094 17 17.8084C17 18.7074 17.7356 19.443 18.6346 19.443Z" fill="#333333"/>
<path fill-rule="evenodd" clip-rule="evenodd" d="M14 26C12.8954 26 12 26.8954 12 28V30H10C8.89543 30 8 30.8954 8 32V38C8 39.1046 8.89543 40 10 40H21C22.1046 40 23 39.1046 23 38V32C23 30.8954 22.1046 30 21 30H19V28C19 26.8954 18.1046 26 17 26H14ZM17 30V28H14V30H17ZM13 33C13 32.4477 12.5523 32 12 32C11.4477 32 11 32.4477 11 33V37C11 37.5523 11.4477 38 12 38C12.5523 38 13 37.5523 13 37V33ZM20 33C20 32.4477 19.5523 32 19 32C18.4477 32 18 32.4477 18 33V37C18 37.5523 18.4477 38 19 38C19.5523 38 20 37.5523 20 37V33Z" fill="#333333"/>
</svg>
