<svg width="48" height="48" viewBox="0 0 48 48" fill="none" xmlns="http://www.w3.org/2000/svg">
<path fill-rule="evenodd" clip-rule="evenodd" d="M13.7943 11H34.2494C34.3213 10.8165 34.3989 10.6002 34.4762 10.3526L34.4883 10.3139C34.758 9.45061 35 8.67596 35 7.09677C35 6.29597 34.4797 5.62166 33.7909 5.08848C33.0932 4.54829 32.1402 4.08579 31.0787 3.7088C28.9529 2.95383 26.2719 2.5 24 2.5C21.7281 2.5 19.0471 2.95383 16.9213 3.7088C15.8598 4.08579 14.9068 4.54829 14.209 5.08848C13.5203 5.62166 13 6.29597 13 7.09677C13 8.56283 13.2451 9.33549 13.4971 10.1295C13.5204 10.2032 13.5441 10.2779 13.5674 10.3525C13.6448 10.6001 13.7224 10.8164 13.7943 11ZM20 8C20 7.44772 20.4477 7 21 7H27C27.5523 7 28 7.44772 28 8C28 8.55228 27.5523 9 27 9H21C20.4477 9 20 8.55228 20 8Z" fill="#333333"/>
<path fill-rule="evenodd" clip-rule="evenodd" d="M15 15.7943V17C15 21.9706 19.0294 26 24 26C28.9705 26 33 21.9706 33 17V15.7943C33.5737 15.2423 33.8292 14.6801 33.934 14.2341C33.9879 14.0048 34.0011 13.8101 33.9999 13.6678C33.9993 13.5967 33.9951 13.5383 33.9905 13.4948C33.9882 13.4731 33.9858 13.455 33.9837 13.4409L33.9808 13.4227L33.9796 13.4159L33.979 13.413L33.9788 13.4118L33.9786 13.4106C33.9331 13.1728 33.7155 13 33.4614 13H14.5385C14.2845 13 14.0668 13.1728 14.0214 13.4106L14.0212 13.4118L14.0209 13.413L14.0204 13.4159L14.0192 13.4227L14.0163 13.4409C14.0142 13.455 14.0118 13.4731 14.0095 13.4948C14.0049 13.5383 14.0007 13.5967 14.0001 13.6678C13.9988 13.8101 14.012 14.0048 14.0659 14.2341C14.1707 14.6801 14.4263 15.2423 15 15.7943ZM17 17.006C17.0032 20.8692 20.136 24 24 24C27.864 24 30.9967 20.8692 31 17.006C29.501 17.5937 27.281 18 24 18C20.7189 18 18.499 17.5937 17 17.006Z" fill="#333333"/>
<path fill-rule="evenodd" clip-rule="evenodd" d="M24 29C20.0171 29 16.5287 31.1168 14.5982 34.2867L13.0693 33.877C12.0024 33.5911 10.9057 34.2243 10.6199 35.2912L9.58457 39.1549C9.29869 40.2219 9.93186 41.3185 10.9988 41.6044L12.9306 42.1221C13.0256 42.1475 13.1207 42.1657 13.2155 42.1769C13.4541 43.3648 13.8841 44.4842 14.4722 45.5007L16.2034 44.4993C15.6481 43.5392 15.2649 42.4671 15.0965 41.324C15.1659 41.2231 15.2266 41.1148 15.2773 41H21.1707C21.5825 42.1652 22.6938 43 24 43C25.3062 43 26.4174 42.1652 26.8293 41H32.7223C32.773 41.1151 32.8338 41.2235 32.9033 41.3246C32.7349 42.4675 32.3518 43.5394 31.7965 44.4993L33.5278 45.5007C34.1157 44.4844 34.5456 43.3653 34.7842 42.1777C34.8791 42.1665 34.9743 42.1483 35.0693 42.1229L37.0012 41.6052C38.0681 41.3193 38.7013 40.2227 38.4154 39.1557L37.3801 35.292C37.0942 34.2251 35.9976 33.5919 34.9306 33.8778L33.4022 34.2874C31.4718 31.1171 27.9831 29 24 29ZM21.1707 39H15.8377L16.4154 36.8441C16.5499 36.3422 16.481 35.8336 16.2592 35.406C17.6671 33.0387 20.1302 31.3722 23 31.0549V37.1707C22.1476 37.472 21.472 38.1476 21.1707 39ZM31.741 35.4064C30.3331 33.0389 27.8699 31.3722 25 31.0549V37.1707C25.8524 37.472 26.528 38.1476 26.8293 39H32.162L31.5846 36.8449C31.45 36.3428 31.519 35.8341 31.741 35.4064Z" fill="#333333"/>
</svg>
