<svg width="48" height="48" viewBox="0 0 48 48" fill="none" xmlns="http://www.w3.org/2000/svg">
<path d="M34 40C34 34.4772 29.5228 30 24 30M34 40H24M34 40C34 41.8214 33.513 43.5291 32.6622 45M14 40C14 34.4772 18.4772 30 24 30M14 40H24M14 40C14 41.8214 14.487 43.5291 15.3378 45M24 30V40" stroke="#333333" stroke-width="2"/>
<circle cx="24" cy="40" r="3" fill="#333333"/>
<rect x="31.067" y="34.9131" width="6" height="8" rx="2" transform="rotate(-15 31.067 34.9131)" fill="#333333"/>
<rect x="11.1375" y="33.3594" width="6" height="8" rx="2" transform="rotate(15 11.1375 33.3594)" fill="#333333"/>
<path d="M32 14V17C32 21.4183 28.4183 25 24 25C19.5817 25 16 21.4183 16 17V14" stroke="#333333" stroke-width="2" stroke-linejoin="round"/>
<path fill-rule="evenodd" clip-rule="evenodd" d="M13.7943 11H34.2494C34.3213 10.8165 34.3989 10.6002 34.4762 10.3526L34.4883 10.3139C34.758 9.45061 35 8.67596 35 7.09677C35 6.29597 34.4797 5.62166 33.791 5.08848C33.0932 4.54829 32.1402 4.08579 31.0787 3.7088C28.9529 2.95383 26.2719 2.5 24 2.5C21.7281 2.5 19.0471 2.95383 16.9213 3.7088C15.8598 4.08579 14.9068 4.54829 14.209 5.08848C13.5203 5.62166 13 6.29597 13 7.09677C13 8.56283 13.2452 9.33549 13.4971 10.1295L13.4971 10.1295C13.5206 10.2035 13.5441 10.2776 13.5675 10.3525C13.6448 10.6001 13.7224 10.8164 13.7943 11ZM20 8C20 7.44772 20.4477 7 21 7H27C27.5523 7 28 7.44772 28 8C28 8.55228 27.5523 9 27 9H21C20.4477 9 20 8.55228 20 8Z" fill="#333333"/>
<path fill-rule="evenodd" clip-rule="evenodd" d="M14.0214 13.4106C14.0668 13.1728 14.2845 13 14.5386 13H33.4614C33.7155 13 33.9332 13.1728 33.9786 13.4106L33.9788 13.4118L33.9791 13.413L33.9796 13.4159L33.9808 13.4227L33.9837 13.4409C33.9858 13.455 33.9882 13.4731 33.9905 13.4948C33.9951 13.5383 33.9993 13.5967 33.9999 13.6678C34.0011 13.8101 33.988 14.0048 33.9341 14.2341C33.8251 14.6976 33.5533 15.2868 32.9308 15.8594C31.6967 16.9946 29.1612 18 24 18C18.8388 18 16.3033 16.9946 15.0692 15.8594C14.4467 15.2868 14.1749 14.6976 14.0659 14.2341C14.012 14.0048 13.9989 13.8101 14.0001 13.6678C14.0007 13.5967 14.0049 13.5383 14.0095 13.4948C14.0118 13.4731 14.0142 13.455 14.0163 13.4409L14.0192 13.4227L14.0204 13.4159L14.0209 13.413L14.0212 13.4118L14.0214 13.4106Z" fill="#333333"/>
</svg>
