<svg width="48" height="48" viewBox="0 0 48 48" fill="none" xmlns="http://www.w3.org/2000/svg">
<path d="M24.2508 16.8547C23.5171 16.4927 22.9074 15.9209 22.499 15.2119C22.0906 14.5029 21.9019 13.6885 21.9569 12.8722C22.0119 12.0558 22.308 11.2741 22.8078 10.6263C23.3076 9.97845 23.9885 9.4936 24.7642 9.23321C25.5398 8.97282 26.3754 8.94861 27.1648 9.16367C27.9543 9.37873 28.6621 9.82336 29.1985 10.4412C29.735 11.059 30.0759 11.8222 30.178 12.634C30.2802 13.4459 30.139 14.2697 29.7723 15.0012C29.5316 15.4855 29.1977 15.9177 28.7899 16.273C28.3821 16.6283 27.9083 16.8998 27.3956 17.0719C26.8828 17.244 26.3412 17.3134 25.8016 17.2762C25.262 17.2389 24.7351 17.0957 24.2508 16.8547Z" fill="#333333"/>
<path d="M4.48916 20.3541C4.85954 19.5453 5.35103 18.7976 5.9467 18.1369C5.9467 18.1369 10.8269 12.3628 14.7584 10.9717C16.201 10.317 17.8427 10.2536 19.3316 10.7951C19.7338 10.8961 20.0915 11.127 20.349 11.4521C20.6066 11.7772 20.7496 12.1782 20.7559 12.5929C20.7559 12.5929 20.7357 12.6748 20.7256 12.7157L20.554 18.9976L26.055 22.8121C26.418 23.065 26.6812 23.4369 26.799 23.8635C26.9168 24.29 26.8819 24.7443 26.7001 25.1477C26.5184 25.5512 26.2013 25.8784 25.8038 26.0728C25.4063 26.2671 24.9533 26.3165 24.5233 26.2122C24.2996 26.156 24.088 26.0597 23.8986 25.9281L17.5432 21.4692C17.2789 21.2867 17.0657 21.0395 16.9239 20.7513C16.7821 20.4631 16.7164 20.1434 16.733 19.8226L16.8119 18.0909C15.9011 19.1583 14.9271 20.1702 13.8952 21.1211L20.2096 25.5699C20.6398 25.8981 20.9601 26.3492 21.1281 26.8635C21.2961 27.3778 21.3039 27.931 21.1504 28.4499L19.7878 39.0407C19.7682 39.3635 19.6837 39.6789 19.5392 39.9682C19.3948 40.2576 19.1934 40.5147 18.9472 40.7244C18.7011 40.934 18.4151 41.0918 18.1065 41.1883C17.7978 41.2848 17.4729 41.318 17.1512 41.286C16.4825 41.1866 15.8793 40.8292 15.4709 40.2904C15.0625 39.7517 14.8814 39.0744 14.9663 38.4037L16.2689 29.115L5.86536 23.9346C5.22509 23.6231 4.72691 23.0802 4.47147 22.4156C4.21602 21.751 4.22234 21.0142 4.48916 20.3541Z" fill="#333333"/>
<ellipse cx="32" cy="39" rx="8" ry="2" fill="#333333"/>
<circle cx="29" cy="20" r="1" fill="#333333"/>
<circle cx="30.5" cy="26.5" r="1.5" fill="#333333"/>
<circle cx="34" cy="29" r="1" fill="#333333"/>
<circle cx="30" cy="33" r="1" fill="#333333"/>
<circle cx="35.5" cy="36.5" r="1.5" fill="#333333"/>
</svg>
