<svg width="48" height="48" viewBox="0 0 48 48" fill="none" xmlns="http://www.w3.org/2000/svg">
<path d="M22.499 15.2118C22.9074 15.9208 23.5171 16.4926 24.2508 16.8546C24.7351 17.0956 25.262 17.2388 25.8016 17.2761C26.3412 17.3133 26.8828 17.2439 27.3956 17.0718C27.9083 16.8997 28.3821 16.6282 28.7899 16.2729C29.1977 15.9176 29.5316 15.4854 29.7723 15.0011C30.139 14.2696 30.2802 13.4458 30.178 12.6339C30.0759 11.8221 29.735 11.0589 29.1985 10.4411C28.6621 9.82325 27.9543 9.37862 27.1648 9.16357C26.3754 8.94851 25.5398 8.97271 24.7642 9.2331C23.9885 9.4935 23.3076 9.97835 22.8078 10.6262C22.308 11.274 22.0119 12.0557 21.9569 12.8721C21.9019 13.6884 22.0906 14.5027 22.499 15.2118Z" fill="#333333"/>
<path d="M5.94667 18.1369C5.351 18.7976 4.85951 19.5452 4.48914 20.3541C4.22232 21.0142 4.21599 21.751 4.47144 22.4156C4.72689 23.0802 5.22507 23.6231 5.86533 23.9345L16.2688 29.115L14.9663 38.4037C14.8814 39.0744 15.0625 39.7516 15.4709 40.2904C15.8793 40.8292 16.4824 41.1865 17.1511 41.286C17.4729 41.318 17.7978 41.2848 18.1064 41.1883C18.4151 41.0918 18.701 40.934 18.9472 40.7243C19.1934 40.5147 19.3947 40.2575 19.5392 39.9682C19.6836 39.6789 19.7682 39.3634 19.7878 39.0407L21.1504 28.4499C21.3039 27.931 21.2961 27.3778 21.128 26.8635C20.96 26.3492 20.6397 25.8981 20.2096 25.5699L13.8952 21.1211C14.9271 20.1702 15.901 19.1583 16.8119 18.0909L16.7329 19.8225C16.7163 20.1433 16.7821 20.4631 16.9239 20.7513C17.0657 21.0395 17.2789 21.2866 17.5432 21.4692L23.8986 25.9281C24.088 26.0597 24.2996 26.1559 24.5233 26.2121C24.9533 26.3164 25.4063 26.2671 25.8038 26.0727C26.2013 25.8784 26.5183 25.5511 26.7001 25.1477C26.8818 24.7442 26.9168 24.29 26.799 23.8634C26.6812 23.4369 26.418 23.065 26.0549 22.812L20.554 18.9976L20.7256 12.7157L20.7558 12.5929C20.7495 12.1782 20.6065 11.7772 20.349 11.4521C20.0914 11.127 19.7338 10.896 19.3315 10.795C17.8427 10.2536 16.201 10.317 14.7583 10.9717C10.8269 12.3628 5.94667 18.1369 5.94667 18.1369Z" fill="#333333"/>
<path d="M40 38.9999C40 40.1045 36.4183 40.9999 32 40.9999C27.5817 40.9999 24 40.1045 24 38.9999C24 37.8953 27.5817 36.9999 32 36.9999C32.7312 36.9999 33.4394 37.0244 34.1123 37.0704C34.0399 36.8945 34 36.7019 34 36.4999C34 35.6715 34.6716 34.9999 35.5 34.9999C36.3284 34.9999 37 35.6715 37 36.4999C37 36.8303 36.8932 37.1357 36.7122 37.3835C38.7052 37.7473 40 38.3358 40 38.9999Z" fill="#333333"/>
<path d="M29 20.9999C29.5523 20.9999 30 20.5522 30 19.9999C30 19.4476 29.5523 18.9999 29 18.9999C28.4477 18.9999 28 19.4476 28 19.9999C28 20.5522 28.4477 20.9999 29 20.9999Z" fill="#333333"/>
<path d="M32 26.4999C32 27.3283 31.3284 27.9999 30.5 27.9999C29.6716 27.9999 29 27.3283 29 26.4999C29 25.6715 29.6716 24.9999 30.5 24.9999C31.3284 24.9999 32 25.6715 32 26.4999Z" fill="#333333"/>
<path d="M34 29.9999C34.5523 29.9999 35 29.5522 35 28.9999C35 28.4476 34.5523 27.9999 34 27.9999C33.4477 27.9999 33 28.4476 33 28.9999C33 29.5522 33.4477 29.9999 34 29.9999Z" fill="#333333"/>
<path d="M31 32.9999C31 33.5522 30.5523 33.9999 30 33.9999C29.4477 33.9999 29 33.5522 29 32.9999C29 32.4476 29.4477 31.9999 30 31.9999C30.5523 31.9999 31 32.4476 31 32.9999Z" fill="#333333"/>
</svg>
