<svg width="48" height="48" viewBox="0 0 48 48" fill="none" xmlns="http://www.w3.org/2000/svg">
<path fill-rule="evenodd" clip-rule="evenodd" d="M12 26.0001H6V39.5001H12V37.1605C12.9708 37.127 13.9816 37.1009 14.4118 37.1179C16.4692 37.1992 18.0055 37.6784 19.5589 38.1629C21.0081 38.6149 22.4722 39.0716 24.3879 39.214C24.8694 39.2498 25.338 39.296 25.7923 39.3408C27.4327 39.5026 28.8866 39.646 30.0886 39.214C31.6234 38.6624 40.3936 34.4702 41.4899 33.367C42.5862 32.2638 42.038 29.2852 38.6396 29.8368C36.9626 30.1089 35.0188 30.8915 33.2559 31.6012C31.446 32.3298 29.8268 32.9816 28.8827 32.9257C27.019 32.8154 22.0857 31.9328 22.0857 31.9328L27.75 32.0001C27.75 32.0001 28.5502 32.0418 29.6501 31.2709C30.75 30.5001 31.733 28.2923 30.0886 28.2923C28.4442 28.2923 26.6901 27.7407 26.6901 27.7407L19.6739 26.1962C19.6739 26.1962 17.2621 25.7549 16.2755 26.1962C15.6495 26.4762 13.4929 27.2447 12 27.7691V26.0001Z" fill="#333333"/>
<path d="M27 18.5001C27 19.9001 25.9 21.0001 24.5 21.0001C23.1 21.0001 22 19.9001 22 18.5001C22 17.1001 24.5 14.0001 24.5 14.0001C24.5 14.0001 27 17.2001 27 18.5001Z" fill="#333333"/>
<path fill-rule="evenodd" clip-rule="evenodd" d="M24.894 13.6923L24.5 14.0001L24.1108 13.6862L24.5062 13.1959L24.894 13.6923ZM24.4947 14.826C24.2661 15.1313 23.9665 15.5458 23.6677 15.9999C23.3613 16.4656 23.0621 16.9636 22.8413 17.423C22.612 17.8998 22.5 18.2696 22.5 18.5001C22.5 19.6239 23.3761 20.5001 24.5 20.5001C25.6239 20.5001 26.5 19.6239 26.5 18.5001C26.5 18.2985 26.3914 17.9444 26.1596 17.4669C25.9379 17.0103 25.6377 16.5078 25.3307 16.0349C25.028 15.5689 24.7246 15.1405 24.4947 14.826ZM24.5 14.0001C24.1108 13.6862 24.1108 13.6861 24.1108 13.6862L24.1084 13.6891L24.1025 13.6965L24.0804 13.7242C24.0613 13.7483 24.0336 13.7833 23.9986 13.8282C23.9285 13.9179 23.8288 14.0471 23.7094 14.2063C23.4709 14.5243 23.1521 14.9642 22.8323 15.4503C22.5137 15.9346 22.1879 16.4741 21.94 16.9897C21.7005 17.4879 21.5 18.0306 21.5 18.5001C21.5 20.1762 22.8239 21.5001 24.5 21.5001C26.1761 21.5001 27.5 20.1762 27.5 18.5001C27.5 18.0516 27.2961 17.5182 27.0592 17.0302C26.8121 16.5211 26.4873 15.9799 26.1693 15.4903C25.8503 14.9989 25.5321 14.5503 25.2941 14.2251C25.175 14.0623 25.0756 13.9298 25.0057 13.8378C24.9707 13.7917 24.9431 13.7557 24.9241 13.7311L24.9022 13.7027L24.8963 13.6952L24.8947 13.6931C24.8947 13.6931 24.894 13.6923 24.5 14.0001Z" fill="#333333"/>
<path d="M39 15.5001C39 18.0001 37 20.0001 34.5 20.0001C32 20.0001 30 18.0001 30 15.5001C30 13.0001 34.5 7.00008 34.5 7.00008C34.5 7.00008 39 13.0001 39 15.5001Z" fill="#333333"/>
<path fill-rule="evenodd" clip-rule="evenodd" d="M34.9 6.70008L34.5 7.00008L34.1 6.70008L34.5 6.16675L34.9 6.70008ZM34.5 7.84914C34.413 7.97056 34.3143 8.10962 34.2062 8.26373C33.7879 8.86027 33.2309 9.68028 32.6748 10.5763C32.1176 11.4739 31.5669 12.4389 31.1571 13.3268C30.7386 14.2336 30.5 14.992 30.5 15.5001C30.5 17.7239 32.2761 19.5001 34.5 19.5001C36.7239 19.5001 38.5 17.7239 38.5 15.5001C38.5 14.992 38.2614 14.2336 37.8429 13.3268C37.4331 12.4389 36.8824 11.4739 36.3252 10.5763C35.7691 9.68028 35.2121 8.86027 34.7938 8.26373C34.6857 8.10962 34.587 7.97056 34.5 7.84914ZM34.5 7.00008C34.1 6.70008 34.1001 6.7 34.1 6.70008L34.0963 6.70507L34.0861 6.71866L34.0475 6.77072C34.0138 6.81621 33.9648 6.88288 33.9025 6.96841C33.7779 7.13945 33.6004 7.38603 33.3875 7.68956C32.9621 8.29615 32.3941 9.13238 31.8252 10.0489C31.2574 10.9637 30.6831 11.9675 30.2491 12.9077C29.8239 13.829 29.5 14.7582 29.5 15.5001C29.5 18.2762 31.7239 20.5001 34.5 20.5001C37.2761 20.5001 39.5 18.2762 39.5 15.5001C39.5 14.7582 39.1761 13.829 38.7509 12.9077C38.3169 11.9675 37.7426 10.9637 37.1748 10.0489C36.6059 9.13238 36.0379 8.29615 35.6125 7.68956C35.3996 7.38603 35.2221 7.13945 35.0975 6.96841C35.0352 6.88288 34.9862 6.81621 34.9525 6.77072L34.9139 6.71866L34.9037 6.70507L34.9 6.70008C34.8999 6.7 34.9 6.70008 34.5 7.00008Z" fill="#333333"/>
</svg>
