<svg width="48" height="48" viewBox="0 0 48 48" fill="none" xmlns="http://www.w3.org/2000/svg">
<path d="M43 5H23C21.8954 5 21 5.89543 21 7V11H43V5Z" fill="#333333"/>
<path d="M12 28H6V41.5H12V39.1604C12.9708 39.127 13.9816 39.1008 14.4118 39.1178C16.4692 39.1991 18.0055 39.6783 19.5589 40.1628C21.0081 40.6148 22.4722 41.0715 24.3879 41.2139C24.8688 41.2496 25.3367 41.2958 25.7905 41.3405L25.7915 41.3406C27.4319 41.5024 28.8866 41.6459 30.0886 41.2139C31.6234 40.6623 40.3936 36.4701 41.4899 35.3669C42.5862 34.2637 42.038 31.2851 38.6396 31.8367C36.9626 32.1089 35.0188 32.8914 33.2559 33.6011C31.446 34.3297 29.8268 34.9815 28.8827 34.9256C27.019 34.8153 22.0857 33.9328 22.0857 33.9328L27.75 34C27.75 34 28.5502 34.0417 29.6501 33.2709C30.75 32.5 31.733 30.2922 30.0886 30.2922C28.4442 30.2922 26.6901 29.7406 26.6901 29.7406L19.6739 28.1961C19.6739 28.1961 17.2621 27.7548 16.2755 28.1961C15.6495 28.4761 13.4929 29.2446 12 29.769V28Z" fill="#333333"/>
<path d="M22 13C21.4477 13 21 13.4477 21 14C21 14.5523 21.4477 15 22 15H28C28.5523 15 29 14.5523 29 14C29 13.4477 28.5523 13 28 13H22Z" fill="#333333"/>
<path d="M25 17.1719C25.5523 17.1719 26 17.6196 26 18.1719V20.1719C26 20.7242 25.5523 21.1719 25 21.1719C24.4477 21.1719 24 20.7242 24 20.1719V18.1719C24 17.6196 24.4477 17.1719 25 17.1719Z" fill="#333333"/>
<path d="M29.1213 17.2928C28.7308 16.9023 28.0976 16.9023 27.7071 17.2928C27.3166 17.6833 27.3166 18.3165 27.7071 18.707L29.1213 20.1212C29.5118 20.5118 30.145 20.5118 30.5355 20.1212C30.9261 19.7307 30.9261 19.0975 30.5355 18.707L29.1213 17.2928Z" fill="#333333"/>
<path d="M19.2929 20.2928C18.9024 19.9023 18.9024 19.2691 19.2929 18.8786L20.7071 17.4644C21.0976 17.0738 21.7308 17.0738 22.1213 17.4644C22.5118 17.8549 22.5118 18.4881 22.1213 18.8786L20.7071 20.2928C20.3166 20.6833 19.6834 20.6833 19.2929 20.2928Z" fill="#333333"/>
<path d="M26 23.1719C26 22.6196 25.5523 22.1719 25 22.1719C24.4477 22.1719 24 22.6196 24 23.1719V25.1719C24 25.7242 24.4477 26.1719 25 26.1719C25.5523 26.1719 26 25.7242 26 25.1719V23.1719Z" fill="#333333"/>
<path d="M31.2071 20.7928C31.5976 20.4023 32.2308 20.4023 32.6213 20.7928L34.0355 22.207C34.4261 22.5975 34.4261 23.2307 34.0355 23.6212C33.645 24.0118 33.0118 24.0118 32.6213 23.6212L31.2071 22.207C30.8166 21.8165 30.8166 21.1833 31.2071 20.7928Z" fill="#333333"/>
<path d="M15.7929 22.1286C15.4024 22.5191 15.4024 23.1523 15.7929 23.5428C16.1834 23.9333 16.8166 23.9333 17.2071 23.5428L18.6213 22.1286C19.0118 21.7381 19.0118 21.1049 18.6213 20.7144C18.2308 20.3238 17.5976 20.3238 17.2071 20.7144L15.7929 22.1286Z" fill="#333333"/>
</svg>
