<svg width="48" height="48" viewBox="0 0 48 48" fill="none" xmlns="http://www.w3.org/2000/svg">
<path d="M16.6864 20.7207L17.3494 21.4692L16.6864 20.7207ZM32.6484 20.078L31.9854 20.8265L32.6484 20.078ZM30.4718 18.7926L30.9803 17.9315L30.5781 17.694L30.1378 17.85L30.4718 18.7926ZM26.4813 22.0061L25.9806 22.8717L26.7042 23.2903L27.2445 22.6523L26.4813 22.0061ZM33.6866 18.4769L33.2535 19.3782L34.2734 19.8684L34.6344 18.7959L33.6866 18.4769ZM35.0001 15.3208L35.9478 15.6397L36.2575 14.7195L35.3468 14.3828L35.0001 15.3208ZM23.5075 20.3706L22.5285 20.1669L22.3691 20.933L23.0744 21.2719L23.5075 20.3706ZM26.4627 21.9487L25.9631 22.8149L26.8071 23.3016L27.3157 22.4706L26.4627 21.9487ZM23.5074 20.0549L23.2986 21.0328C23.8219 21.1446 24.3405 20.8246 24.4752 20.3066L23.5074 20.0549ZM19.2388 19.4237H18.2388C18.2388 19.8081 18.4591 20.1585 18.8056 20.325L19.2388 19.4237ZM19.5 17L20.1344 17.773C20.5281 17.45 20.6161 16.8826 20.3388 16.4555L19.5 17ZM18 14.6895L17.4329 13.8658C16.9867 14.173 16.8663 14.7796 17.1613 15.234L18 14.6895ZM21.2089 12.4802L22.0116 11.8837C21.6905 11.4517 21.0852 11.3513 20.6418 11.6565L21.2089 12.4802ZM22.8507 14.6895L22.0481 15.2859C22.2402 15.5444 22.545 15.6946 22.8671 15.6893C23.1891 15.6841 23.4889 15.524 23.6724 15.2594L22.8507 14.6895ZM23.5074 13.7426L24.3291 14.3125C24.4452 14.1452 24.5074 13.9463 24.5074 13.7426H23.5074ZM23.5074 11.5333V10.5333C22.9552 10.5333 22.5074 10.981 22.5074 11.5333H23.5074ZM27.5 11.5333H28.5C28.5 10.981 28.0523 10.5333 27.5 10.5333V11.5333ZM27.5 13.362H26.5C26.5 13.7056 26.6764 14.0251 26.9672 14.2082L27.5 13.362ZM28.7612 14.6895V15.6895C29.1333 15.6895 29.4746 15.4829 29.6472 15.1532C29.8197 14.8235 29.795 14.4253 29.5829 14.1195L28.7612 14.6895ZM15.5 21.5001L14.6616 22.045C14.8131 22.2782 15.0549 22.4377 15.3288 22.4853C15.6028 22.5329 15.8842 22.4643 16.1055 22.2959L15.5 21.5001ZM12.5 19.6L11.5174 19.4142C11.4672 19.6796 11.5265 19.954 11.6818 20.175C11.8371 20.396 12.0751 20.5447 12.3418 20.5875L12.5 19.6ZM13.6567 15.6365L13.9394 14.6773C13.5911 14.5747 13.2144 14.6689 12.9555 14.9236L13.6567 15.6365ZM18.8667 19.6L19.2381 20.5285C19.662 20.359 19.9172 19.9238 19.8583 19.4711L18.8667 19.6ZM24.8041 27.1912L23.8408 26.9228L23.7459 27.2636L23.8863 27.5883L24.8041 27.1912ZM25.3285 25.3086L26.2919 25.5769L25.3285 25.3086ZM9 7H39V5H9V7ZM41 9V39H43V9H41ZM39 41H9V43H39V41ZM7 39V9H5V39H7ZM9 41C7.89543 41 7 40.1046 7 39H5C5 41.2091 6.79086 43 9 43V41ZM41 39C41 40.1046 40.1046 41 39 41V43C41.2091 43 43 41.2091 43 39H41ZM39 7C40.1046 7 41 7.89543 41 9H43C43 6.79086 41.2091 5 39 5V7ZM9 5C6.79086 5 5 6.79086 5 9H7C7 7.89543 7.89543 7 9 7V5ZM16.0233 19.9721C14.4804 21.3389 13.9109 23.2018 13.9751 25.1126C14.0387 27.0037 14.7179 28.9886 15.7248 30.7725C16.7345 32.5613 18.1084 34.2103 19.6358 35.4225C21.149 36.6236 22.9056 37.467 24.6674 37.467V35.467C23.527 35.467 22.2 34.9044 20.8791 33.856C19.5723 32.8188 18.3614 31.3747 17.4665 29.7894C16.5689 28.199 16.0238 26.5285 15.974 25.0454C15.9248 23.582 16.3529 22.352 17.3494 21.4692L16.0233 19.9721ZM24.6674 37.467C26.4234 37.467 28.2226 36.6291 29.7906 35.4233C31.3746 34.2052 32.8211 32.5383 33.8812 30.7049C35.9515 27.1243 36.7739 22.3964 33.3115 19.3294L31.9854 20.8265C34.3388 22.9112 34.0729 26.3778 32.1498 29.7038C31.2132 31.3236 29.9367 32.788 28.5714 33.8379C27.1901 34.9001 25.8136 35.467 24.6674 35.467V37.467ZM33.3115 19.3294C32.8695 18.9379 32.5211 18.732 32.1478 18.5431C31.7918 18.3629 31.4872 18.2309 30.9803 17.9315L29.9633 19.6536C30.5447 19.997 30.9657 20.1863 31.2445 20.3275C31.5061 20.4599 31.7018 20.5753 31.9854 20.8265L33.3115 19.3294ZM30.1378 17.85C29.0191 18.2464 27.8917 19.1799 27.1122 19.911C26.7055 20.2924 26.3599 20.6514 26.1159 20.915C25.9936 21.0472 25.896 21.1562 25.8281 21.2332C25.7942 21.2717 25.7676 21.3022 25.7491 21.3237C25.7398 21.3345 25.7326 21.3429 25.7274 21.349C25.7248 21.352 25.7227 21.3545 25.7211 21.3563C25.7204 21.3572 25.7197 21.358 25.7192 21.3586C25.719 21.3589 25.7187 21.3591 25.7185 21.3594C25.7185 21.3595 25.7183 21.3596 25.7183 21.3597C25.7182 21.3598 25.7181 21.3599 26.4813 22.0061C27.2445 22.6523 27.2444 22.6524 27.2443 22.6525C27.2443 22.6525 27.2442 22.6526 27.2442 22.6526C27.2441 22.6527 27.2441 22.6527 27.2441 22.6527C27.2441 22.6526 27.2443 22.6525 27.2446 22.6521C27.2451 22.6515 27.2462 22.6502 27.2478 22.6484C27.2509 22.6447 27.2561 22.6387 27.2632 22.6304C27.2774 22.6139 27.2994 22.5886 27.3286 22.5556C27.3868 22.4894 27.4735 22.3926 27.5836 22.2737C27.8044 22.0352 28.1163 21.7113 28.4804 21.3697C29.2428 20.6547 30.1106 19.9815 30.8058 19.7351L30.1378 17.85ZM26.4813 22.0061C26.982 21.1405 26.9817 21.1403 26.9815 21.1402C26.9814 21.1401 26.9811 21.14 26.9808 21.1398C26.9804 21.1395 26.9798 21.1392 26.9791 21.1388C26.9777 21.138 26.9759 21.137 26.9737 21.1357C26.9693 21.1332 26.9633 21.1297 26.9556 21.1254C26.9404 21.1167 26.9187 21.1045 26.8909 21.089C26.8354 21.0581 26.7556 21.0142 26.654 20.96C26.451 20.8516 26.1604 20.7015 25.8031 20.5305C25.0912 20.1899 24.1018 19.7605 23.0057 19.4157C21.9172 19.0734 20.6767 18.7994 19.4754 18.8036C18.2733 18.8078 17.016 19.0928 16.0233 19.9721L17.3494 21.4692C17.8525 21.0236 18.5674 20.8068 19.4824 20.8036C20.3981 20.8004 21.4193 21.0134 22.4056 21.3236C23.3843 21.6314 24.2826 22.0202 24.9399 22.3347C25.2672 22.4912 25.5314 22.6278 25.7121 22.7243C25.8024 22.7725 25.8717 22.8106 25.9173 22.8361C25.9401 22.8488 25.957 22.8583 25.9677 22.8644C25.973 22.8674 25.9768 22.8695 25.9789 22.8708C25.98 22.8714 25.9807 22.8718 25.981 22.8719C25.9811 22.872 25.9811 22.872 25.9811 22.872C25.981 22.872 25.9809 22.8719 25.9809 22.8719C25.9807 22.8718 25.9806 22.8717 26.4813 22.0061ZM34.6344 18.7959C34.8197 18.2451 35.0233 17.8068 35.2497 17.3214C35.4748 16.8386 35.7227 16.3085 35.9478 15.6397L34.0523 15.0018C33.8669 15.5525 33.6634 15.9908 33.437 16.4762C33.2119 16.959 32.964 17.4891 32.7389 18.1579L34.6344 18.7959ZM35.3468 14.3828C30.7883 12.6976 27.6125 13.5841 25.5381 15.2998C23.5475 16.9461 22.7234 19.2299 22.5285 20.1669L24.4865 20.5743C24.6199 19.9332 25.2734 18.114 26.8127 16.8409C28.2682 15.6372 30.6745 14.7878 34.6533 16.2587L35.3468 14.3828ZM23.0744 21.2719C23.7068 21.5759 24.4271 21.9602 24.9962 22.2728C25.2793 22.4283 25.5219 22.5643 25.6935 22.6613C25.7793 22.7098 25.8472 22.7485 25.8934 22.7749C25.9165 22.7882 25.9342 22.7983 25.946 22.8051C25.9519 22.8084 25.9563 22.811 25.9592 22.8126C25.9606 22.8135 25.9617 22.8141 25.9623 22.8145C25.9627 22.8146 25.9629 22.8148 25.963 22.8149C25.9631 22.8149 25.9631 22.8149 25.9632 22.8149C25.9632 22.8149 25.9632 22.8149 25.9632 22.8149C25.9632 22.8149 25.9631 22.8149 26.4627 21.9487C26.9623 21.0824 26.9623 21.0824 26.9622 21.0823C26.9622 21.0823 26.9622 21.0823 26.9621 21.0823C26.9621 21.0822 26.9619 21.0822 26.9618 21.0821C26.9615 21.0819 26.9612 21.0817 26.9607 21.0815C26.9598 21.0809 26.9585 21.0802 26.9568 21.0792C26.9533 21.0772 26.9484 21.0744 26.9419 21.0707C26.929 21.0632 26.9102 21.0524 26.8858 21.0385C26.8371 21.0107 26.7665 20.9705 26.6779 20.9203C26.5006 20.8201 26.2507 20.68 25.9591 20.5198C25.3789 20.2012 24.6217 19.7966 23.9406 19.4693L23.0744 21.2719ZM26.4627 21.9487C27.3157 22.4706 27.3155 22.4709 27.3154 22.4712C27.3153 22.4712 27.3152 22.4714 27.3151 22.4716C27.315 22.4718 27.3149 22.4719 27.3149 22.472C27.3148 22.4721 27.3149 22.4719 27.3152 22.4714C27.3158 22.4704 27.3172 22.4682 27.3193 22.4648C27.3236 22.4579 27.331 22.4463 27.3413 22.4303C27.3619 22.3983 27.3943 22.3489 27.4378 22.285C27.525 22.1571 27.656 21.9726 27.8257 21.7551C28.1679 21.3166 28.6538 20.7616 29.2407 20.268C30.4446 19.2554 31.8184 18.6885 33.2535 19.3782L34.1198 17.5756C31.6146 16.3716 29.3764 17.5405 27.9534 18.7373C27.2269 19.3483 26.6457 20.0163 26.249 20.5247C26.0493 20.7806 25.893 21.0005 25.7852 21.1586C25.7313 21.2377 25.6893 21.3017 25.6598 21.3474C25.6451 21.3702 25.6336 21.3885 25.6252 21.4019C25.621 21.4085 25.6176 21.414 25.615 21.4181C25.6138 21.4202 25.6127 21.4219 25.6118 21.4234C25.6114 21.4241 25.611 21.4247 25.6106 21.4253C25.6105 21.4255 25.6103 21.4259 25.6102 21.426C25.61 21.4263 25.6098 21.4267 26.4627 21.9487ZM23.7163 19.077C22.1518 18.7428 21.3397 18.7393 20.7574 18.7393C20.4767 18.7393 20.3462 18.7369 20.2127 18.7141C20.0947 18.694 19.9382 18.6503 19.6719 18.5224L18.8056 20.325C19.196 20.5126 19.5321 20.6268 19.8758 20.6856C20.2041 20.7417 20.5046 20.7393 20.7574 20.7393C21.2423 20.7393 21.9079 20.7358 23.2986 21.0328L23.7163 19.077ZM20.2388 19.4237C20.2388 18.3484 20.3031 17.8159 20.3503 17.5776C20.3737 17.4595 20.3876 17.4416 20.3717 17.4772C20.363 17.4966 20.3431 17.537 20.3073 17.588C20.2891 17.6139 20.2662 17.6435 20.2378 17.6748C20.2235 17.6905 20.2079 17.7067 20.1907 17.7231C20.1821 17.7314 20.1731 17.7397 20.1637 17.748C20.159 17.7522 20.1542 17.7563 20.1493 17.7605C20.1469 17.7626 20.1444 17.7647 20.1419 17.7668C20.1407 17.7678 20.1388 17.7694 20.1382 17.7699C20.1363 17.7715 20.1344 17.773 19.5 17C18.8656 16.227 18.8637 16.2285 18.8618 16.2301C18.8612 16.2306 18.8593 16.2322 18.8581 16.2333C18.8555 16.2354 18.8531 16.2375 18.8506 16.2396C18.8456 16.2438 18.8407 16.2481 18.8359 16.2523C18.8263 16.2609 18.8169 16.2695 18.8078 16.2782C18.7897 16.2956 18.7725 16.3133 18.7564 16.3311C18.7241 16.3667 18.6956 16.403 18.6703 16.439C18.6202 16.5104 18.5799 16.5849 18.5467 16.6589C18.4818 16.8037 18.4304 16.9774 18.3884 17.1891C18.305 17.6103 18.2388 18.2896 18.2388 19.4237H20.2388ZM20.3388 16.4555L18.8388 14.1449L17.1613 15.234L18.6613 17.5445L20.3388 16.4555ZM18.5671 15.5131L21.776 13.3038L20.6418 11.6565L17.4329 13.8658L18.5671 15.5131ZM20.4063 13.0766L22.0481 15.2859L23.6534 14.093L22.0116 11.8837L20.4063 13.0766ZM23.6724 15.2594L24.3291 14.3125L22.6857 13.1727L22.029 14.1195L23.6724 15.2594ZM24.5074 13.7426V11.5333H22.5074V13.7426H24.5074ZM23.5074 12.5333H27.5V10.5333H23.5074V12.5333ZM26.5 11.5333V13.362H28.5V11.5333H26.5ZM27.5 13.362C26.9672 14.2082 26.9669 14.208 26.9666 14.2079C26.9666 14.2078 26.9663 14.2077 26.9661 14.2076C26.9658 14.2074 26.9655 14.2072 26.9652 14.207C26.9646 14.2066 26.964 14.2062 26.9634 14.2058C26.9623 14.2051 26.9613 14.2045 26.9605 14.204C26.9589 14.2029 26.9578 14.2022 26.9572 14.2019C26.9561 14.2011 26.9572 14.2018 26.9604 14.204C26.9666 14.2083 26.981 14.2184 27.0026 14.2347C27.0457 14.2672 27.1172 14.3241 27.209 14.4082C27.3926 14.5763 27.6574 14.8527 27.9395 15.2594L29.5829 14.1195C29.2082 13.5794 28.8424 13.192 28.5596 12.9331C28.4182 12.8037 28.2976 12.7063 28.2069 12.6379C28.1615 12.6037 28.1235 12.5766 28.0942 12.5564C28.0795 12.5463 28.0669 12.5379 28.0567 12.5312C28.0515 12.5278 28.047 12.5248 28.043 12.5223C28.041 12.521 28.0392 12.5198 28.0375 12.5187C28.0366 12.5182 28.0358 12.5177 28.0351 12.5172C28.0347 12.5169 28.0343 12.5167 28.0339 12.5165C28.0337 12.5164 28.0335 12.5162 28.0334 12.5161C28.0331 12.516 28.0329 12.5158 27.5 13.362ZM28.7612 13.6895C27.3574 13.6895 25.9602 14.6501 24.9205 15.7327C23.8435 16.8542 22.9198 18.3415 22.5396 19.8032L24.4752 20.3066C24.7518 19.2434 25.4699 18.048 26.363 17.118C27.2935 16.1491 28.1948 15.6895 28.7612 15.6895V13.6895ZM15.5 21.5001C16.3384 20.9551 16.3382 20.9547 16.338 20.9544C16.3379 20.9543 16.3377 20.954 16.3376 20.9537C16.3373 20.9532 16.3369 20.9527 16.3366 20.9522C16.3359 20.9512 16.3351 20.95 16.3343 20.9488C16.3327 20.9463 16.3307 20.9434 16.3286 20.9401C16.3242 20.9336 16.3188 20.9255 16.3122 20.916C16.2992 20.897 16.2818 20.8723 16.2602 20.8426C16.2169 20.7832 16.1561 20.7033 16.0779 20.609C15.922 20.4212 15.6936 20.172 15.3929 19.912C14.7943 19.3944 13.8786 18.8081 12.6582 18.6126L12.3418 20.5875C13.0916 20.7076 13.6758 21.0713 14.0847 21.4249C14.2877 21.6003 14.4399 21.767 14.5387 21.8861C14.5878 21.9453 14.6229 21.9917 14.6436 22.0202C14.654 22.0344 14.6607 22.044 14.6637 22.0484C14.6652 22.0506 14.6658 22.0514 14.6654 22.0509C14.6652 22.0507 14.6648 22.05 14.6642 22.0491C14.6639 22.0486 14.6635 22.048 14.663 22.0473C14.6628 22.047 14.6626 22.0466 14.6623 22.0463C14.6622 22.0461 14.662 22.0458 14.662 22.0457C14.6618 22.0454 14.6616 22.045 15.5 21.5001ZM13.4826 19.7859C13.805 18.0815 14.0815 17.1502 14.2619 16.6649C14.3517 16.4235 14.4132 16.3049 14.4373 16.2624C14.4491 16.2418 14.4498 16.243 14.4381 16.2589C14.4321 16.267 14.4226 16.2792 14.4095 16.2945C14.4029 16.3022 14.3953 16.3107 14.3868 16.3199C14.3825 16.3245 14.3779 16.3293 14.3731 16.3342C14.3707 16.3367 14.3683 16.3392 14.3657 16.3417C14.3645 16.343 14.3632 16.3443 14.3619 16.3456C14.3612 16.3462 14.3602 16.3472 14.3599 16.3475C14.3589 16.3485 14.3579 16.3495 13.6567 15.6365C12.9555 14.9236 12.9545 14.9246 12.9535 14.9255C12.9532 14.9259 12.9522 14.9269 12.9515 14.9275C12.9502 14.9289 12.9489 14.9302 12.9475 14.9315C12.9449 14.9342 12.9422 14.9369 12.9396 14.9396C12.9343 14.945 12.929 14.9506 12.9238 14.9562C12.9133 14.9675 12.9028 14.9791 12.8924 14.9913C12.8716 15.0155 12.8508 15.0416 12.8298 15.07C12.7882 15.1263 12.7447 15.1931 12.6993 15.2728C12.6092 15.4311 12.5046 15.6524 12.3873 15.9678C12.1536 16.5964 11.8517 17.6468 11.5174 19.4142L13.4826 19.7859ZM13.6567 15.6365C13.374 16.5957 13.3738 16.5957 13.3737 16.5956C13.3736 16.5956 13.3735 16.5956 13.3734 16.5956C13.3733 16.5955 13.3732 16.5955 13.3732 16.5955C13.3732 16.5955 13.3735 16.5956 13.3741 16.5958C13.3753 16.5961 13.3776 16.5968 13.381 16.5978C13.3878 16.5999 13.3991 16.6033 13.4144 16.6081C13.4452 16.6177 13.4924 16.6326 13.5537 16.6529C13.6765 16.6934 13.8553 16.7549 14.0721 16.8366C14.5082 17.0008 15.0859 17.2422 15.6666 17.5531C16.2534 17.8672 16.8055 18.2324 17.2169 18.6325C17.6327 19.0367 17.8329 19.4054 17.875 19.729L19.8583 19.4711C19.7362 18.5323 19.2032 17.7742 18.6112 17.1986C18.015 16.6188 17.2851 16.151 16.6105 15.7898C15.9298 15.4254 15.2666 15.1493 14.7771 14.965C14.5311 14.8723 14.326 14.8017 14.1805 14.7537C14.1078 14.7296 14.0497 14.7112 14.0088 14.6985C13.9883 14.6921 13.9721 14.6872 13.9605 14.6836C13.9546 14.6819 13.9499 14.6805 13.9464 14.6794C13.9447 14.6789 13.9432 14.6784 13.942 14.6781C13.9414 14.6779 13.9409 14.6778 13.9405 14.6776C13.9403 14.6776 13.94 14.6775 13.9399 14.6775C13.9396 14.6774 13.9394 14.6773 13.6567 15.6365ZM18.4953 18.6716C17.5043 19.068 16.6074 19.5755 15.9653 19.9774C15.6422 20.1796 15.3786 20.3582 15.1943 20.4874C15.102 20.5521 15.0293 20.6046 14.9786 20.6418C14.9532 20.6603 14.9333 20.6751 14.9192 20.6856C14.9121 20.6909 14.9065 20.6951 14.9024 20.6982C14.9003 20.6998 14.8986 20.7011 14.8973 20.7021C14.8966 20.7026 14.8961 20.703 14.8956 20.7034C14.8954 20.7035 14.8952 20.7037 14.895 20.7039C14.8949 20.7039 14.8948 20.704 14.8947 20.7041C14.8946 20.7041 14.8945 20.7042 15.5 21.5001C16.1055 22.2959 16.1054 22.296 16.1053 22.296C16.1053 22.2961 16.1052 22.2961 16.1052 22.2962C16.1051 22.2962 16.105 22.2963 16.1049 22.2963C16.1049 22.2964 16.1048 22.2964 16.1049 22.2963C16.1051 22.2962 16.1056 22.2958 16.1065 22.2951C16.1083 22.2938 16.1115 22.2914 16.1161 22.2879C16.1254 22.281 16.1402 22.27 16.1604 22.2552C16.2007 22.2257 16.2621 22.1813 16.3422 22.1252C16.5026 22.0127 16.737 21.8538 17.0264 21.6727C17.6093 21.3079 18.3957 20.8655 19.2381 20.5285L18.4953 18.6716ZM23.8863 27.5883L24.7289 29.5355L26.5644 28.7413L25.7219 26.7941L23.8863 27.5883ZM24.649 29.2065L24.8369 31.9603L26.8322 31.8242L26.6443 29.0704L24.649 29.2065ZM25.7619 30.1318L28.6183 29.8002L28.3877 27.8135L25.5313 28.1451L25.7619 30.1318ZM25.3012 21.6802L24.3652 25.0402L26.2919 25.5769L27.2278 22.2169L25.3012 21.6802ZM24.3652 25.0402L23.8408 26.9228L25.7674 27.4595L26.2919 25.5769L24.3652 25.0402ZM24.9165 24.3974L21.9954 25.7184L22.8196 27.5407L25.7406 26.2197L24.9165 24.3974ZM22.6368 25.6562L19.7263 24.9705L19.2677 26.9172L22.1782 27.6029L22.6368 25.6562ZM21.4776 26.2617L20.4851 28.7706L22.3448 29.5063L23.3374 26.9974L21.4776 26.2617Z" fill="#333333"/>
</svg>
