<svg width="48" height="48" viewBox="0 0 48 48" fill="none" xmlns="http://www.w3.org/2000/svg">
<path d="M17.7057 14.2402C21.5366 14.2371 21.4888 19.0773 21.4642 21.5627C21.4623 21.7523 21.4606 21.9288 21.4607 22.0877C21.4611 22.5952 21.4838 23.1943 21.5087 23.8488C21.6239 26.8864 21.7845 31.1178 19.9702 32.9302C17.7229 35.1751 13.2256 36.3003 10.9749 34.4329C8.72425 32.5656 12.4578 14.2445 17.7057 14.2402Z" fill="#333333"/>
<path d="M26.4899 21.56C26.4612 19.0746 26.4054 14.2345 30.2364 14.2314C35.4843 14.2271 39.2478 32.542 37.0002 34.413C34.7526 36.284 30.2535 35.1662 28.0025 32.925C26.1852 31.1156 26.3388 26.8839 26.4491 23.8462C26.4729 23.1917 26.4947 22.5925 26.4943 22.085C26.4941 21.9259 26.4921 21.7498 26.4899 21.56Z" fill="#333333"/>
<path fill-rule="evenodd" clip-rule="evenodd" d="M23.0147 5.99996L9 5.99996C7.34315 5.99996 6 7.34311 6 8.99996V39C6 40.6568 7.34315 42 9 42H39C40.6569 42 42 40.6568 42 39V8.99996C42 7.34311 40.6569 5.99996 39 5.99996L24.9677 5.99996C24.9677 5.99996 24.9677 5.99955 23.9912 5.9999C23.0147 5.99955 23.0147 5.99996 23.0147 5.99996ZM23.9912 22.0446C24.089 22.1338 24.1912 22.2141 24.2967 22.286C24.6293 22.5127 24.9575 22.6305 25.2006 22.6925C25.3235 22.7238 25.4292 22.742 25.5095 22.7527C25.5498 22.7581 25.5842 22.7616 25.6116 22.7639C25.6151 22.7642 25.6184 22.7645 25.6216 22.7647C25.6313 22.7655 25.64 22.7661 25.6478 22.7666L25.6619 22.7674L25.6679 22.7677L25.6719 22.7679C25.6719 22.7679 25.6732 22.7679 25.7151 21.7688C25.757 20.7697 25.7582 20.7697 25.7582 20.7697L25.7594 20.7698L25.7617 20.7699L25.7659 20.7701L25.7726 20.7705L25.7802 20.771L25.7737 20.7702C25.7604 20.7684 25.7325 20.764 25.695 20.7545C25.6175 20.7347 25.5181 20.6979 25.4233 20.6333C25.2874 20.5407 25.0056 20.2958 25.0063 19.5104C25.0074 18.4162 25.0094 15.0386 25.0113 11.9347L25.0135 7.99996H39C39.5523 7.99996 40 8.44768 40 8.99996V39C40 39.5522 39.5523 40 39 40H9C8.44772 40 8 39.5522 8 39V8.99996C8 8.44768 8.44772 7.99996 9 7.99996H22.9688L22.9711 11.9347C22.9729 15.0386 22.975 18.4162 22.976 19.5104C22.9767 20.2958 22.6949 20.5407 22.5591 20.6333C22.4643 20.6979 22.3649 20.7347 22.2873 20.7545C22.2499 20.764 22.2219 20.7684 22.2086 20.7702L22.2022 20.771L22.2097 20.7705L22.2165 20.7701L22.2206 20.7699L22.2229 20.7698L22.2241 20.7697C22.2241 20.7697 22.2254 20.7697 22.2672 21.7688C22.3091 22.7679 22.3104 22.7679 22.3104 22.7679L22.3145 22.7677L22.3205 22.7674L22.3346 22.7666C22.3449 22.766 22.357 22.7651 22.3707 22.7639C22.3982 22.7616 22.4326 22.7581 22.4729 22.7527C22.5531 22.742 22.6588 22.7238 22.7817 22.6925C23.0249 22.6305 23.353 22.5127 23.6857 22.286C23.7911 22.2141 23.8934 22.1338 23.9912 22.0446Z" fill="#333333"/>
</svg>
