<svg width="48" height="48" viewBox="0 0 48 48" fill="none" xmlns="http://www.w3.org/2000/svg">
<path fill-rule="evenodd" clip-rule="evenodd" d="M48 0H0V48H48V0ZM24.0472 4C24.1422 4.10615 24.2 4.24633 24.2 4.4C24.2 4.73137 23.9314 5 23.6 5C23.2686 5 23 4.73137 23 4.4C23 4.24633 23.0578 4.10615 23.1528 4H16C13.7909 4 12 5.79086 12 8V40C12 42.2091 13.7909 44 16 44H23.6H32C34.2091 44 36 42.2091 36 40V8C36 5.79086 34.2091 4 32 4H24.0472ZM23.6 44C23.2686 44 23 43.7314 23 43.4C23 43.0686 23.2686 42.8 23.6 42.8C23.9314 42.8 24.2 43.0686 24.2 43.4C24.2 43.7314 23.9314 44 23.6 44ZM24.2 7.4C24.2 7.06863 23.9314 6.8 23.6 6.8C23.2686 6.8 23 7.06863 23 7.4C23 7.73137 23.2686 8 23.6 8C23.9314 8 24.2 7.73137 24.2 7.4ZM23.6 9.8C23.9314 9.8 24.2 10.0686 24.2 10.4C24.2 10.7314 23.9314 11 23.6 11C23.2686 11 23 10.7314 23 10.4C23 10.0686 23.2686 9.8 23.6 9.8ZM24.2 13.4C24.2 13.0686 23.9314 12.8 23.6 12.8C23.2686 12.8 23 13.0686 23 13.4C23 13.7314 23.2686 14 23.6 14C23.9314 14 24.2 13.7314 24.2 13.4ZM23.6 15.8C23.9314 15.8 24.2 16.0686 24.2 16.4C24.2 16.7314 23.9314 17 23.6 17C23.2686 17 23 16.7314 23 16.4C23 16.0686 23.2686 15.8 23.6 15.8ZM24.2 19.4C24.2 19.0686 23.9314 18.8 23.6 18.8C23.2686 18.8 23 19.0686 23 19.4C23 19.7314 23.2686 20 23.6 20C23.9314 20 24.2 19.7314 24.2 19.4ZM23.6 21.8C23.9314 21.8 24.2 22.0686 24.2 22.4C24.2 22.7314 23.9314 23 23.6 23C23.2686 23 23 22.7314 23 22.4C23 22.0686 23.2686 21.8 23.6 21.8ZM24.2 25.4C24.2 25.0686 23.9314 24.8 23.6 24.8C23.2686 24.8 23 25.0686 23 25.4C23 25.7314 23.2686 26 23.6 26C23.9314 26 24.2 25.7314 24.2 25.4ZM23.6 27.8C23.9314 27.8 24.2 28.0686 24.2 28.4C24.2 28.7314 23.9314 29 23.6 29C23.2686 29 23 28.7314 23 28.4C23 28.0686 23.2686 27.8 23.6 27.8ZM24.2 31.4C24.2 31.0686 23.9314 30.8 23.6 30.8C23.2686 30.8 23 31.0686 23 31.4C23 31.7314 23.2686 32 23.6 32C23.9314 32 24.2 31.7314 24.2 31.4ZM23.6 33.8C23.9314 33.8 24.2 34.0686 24.2 34.4C24.2 34.7314 23.9314 35 23.6 35C23.2686 35 23 34.7314 23 34.4C23 34.0686 23.2686 33.8 23.6 33.8ZM24.2 37.4C24.2 37.0686 23.9314 36.8 23.6 36.8C23.2686 36.8 23 37.0686 23 37.4C23 37.7314 23.2686 38 23.6 38C23.9314 38 24.2 37.7314 24.2 37.4ZM23.6 39.8C23.9314 39.8 24.2 40.0686 24.2 40.4C24.2 40.7314 23.9314 41 23.6 41C23.2686 41 23 40.7314 23 40.4C23 40.0686 23.2686 39.8 23.6 39.8ZM17.5 10C18.3284 10 19 9.32843 19 8.5C19 7.67157 18.3284 7 17.5 7C16.6716 7 16 7.67157 16 8.5C16 9.32843 16.6716 10 17.5 10ZM17.5 15C18.3284 15 19 14.3284 19 13.5C19 12.6716 18.3284 12 17.5 12C16.6716 12 16 12.6716 16 13.5C16 14.3284 16.6716 15 17.5 15ZM19 18.5C19 19.3284 18.3284 20 17.5 20C16.6716 20 16 19.3284 16 18.5C16 17.6716 16.6716 17 17.5 17C18.3284 17 19 17.6716 19 18.5ZM17.5 25C18.3284 25 19 24.3284 19 23.5C19 22.6716 18.3284 22 17.5 22C16.6716 22 16 22.6716 16 23.5C16 24.3284 16.6716 25 17.5 25ZM19 28.5C19 29.3284 18.3284 30 17.5 30C16.6716 30 16 29.3284 16 28.5C16 27.6716 16.6716 27 17.5 27C18.3284 27 19 27.6716 19 28.5ZM17.5 35C18.3284 35 19 34.3284 19 33.5C19 32.6716 18.3284 32 17.5 32C16.6716 32 16 32.6716 16 33.5C16 34.3284 16.6716 35 17.5 35ZM19 38.5C19 39.3284 18.3284 40 17.5 40C16.6716 40 16 39.3284 16 38.5C16 37.6716 16.6716 37 17.5 37C18.3284 37 19 37.6716 19 38.5ZM29.5 10C30.3284 10 31 9.32843 31 8.5C31 7.67157 30.3284 7 29.5 7C28.6716 7 28 7.67157 28 8.5C28 9.32843 28.6716 10 29.5 10ZM31 13.5C31 14.3284 30.3284 15 29.5 15C28.6716 15 28 14.3284 28 13.5C28 12.6716 28.6716 12 29.5 12C30.3284 12 31 12.6716 31 13.5ZM29.5 20C30.3284 20 31 19.3284 31 18.5C31 17.6716 30.3284 17 29.5 17C28.6716 17 28 17.6716 28 18.5C28 19.3284 28.6716 20 29.5 20ZM31 23.5C31 24.3284 30.3284 25 29.5 25C28.6716 25 28 24.3284 28 23.5C28 22.6716 28.6716 22 29.5 22C30.3284 22 31 22.6716 31 23.5ZM29.5 30C30.3284 30 31 29.3284 31 28.5C31 27.6716 30.3284 27 29.5 27C28.6716 27 28 27.6716 28 28.5C28 29.3284 28.6716 30 29.5 30ZM31 33.5C31 34.3284 30.3284 35 29.5 35C28.6716 35 28 34.3284 28 33.5C28 32.6716 28.6716 32 29.5 32C30.3284 32 31 32.6716 31 33.5ZM29.5 40C30.3284 40 31 39.3284 31 38.5C31 37.6716 30.3284 37 29.5 37C28.6716 37 28 37.6716 28 38.5C28 39.3284 28.6716 40 29.5 40Z" fill="#333333"/>
</svg>
