<svg width="48" height="48" viewBox="0 0 48 48" fill="none" xmlns="http://www.w3.org/2000/svg">
<path fill-rule="evenodd" clip-rule="evenodd" d="M48 0H0V48H48V0ZM16 4C13.7909 4 12 5.79086 12 8V23C12.5523 23 13 23.4477 13 24C13 24.5523 12.5523 25 12 25V40C12 42.2091 13.7909 44 16 44H32C34.2091 44 36 42.2091 36 40V25C35.4477 25 35 24.5523 35 24C35 23.4477 35.4477 23 36 23V8C36 5.79086 34.2091 4 32 4H16ZM15 25C15.5523 25 16 24.5523 16 24C16 23.4477 15.5523 23 15 23C14.4477 23 14 23.4477 14 24C14 24.5523 14.4477 25 15 25ZM19 24C19 24.5523 18.5523 25 18 25C17.4477 25 17 24.5523 17 24C17 23.4477 17.4477 23 18 23C18.5523 23 19 23.4477 19 24ZM21 25C21.5523 25 22 24.5523 22 24C22 23.4477 21.5523 23 21 23C20.4477 23 20 23.4477 20 24C20 24.5523 20.4477 25 21 25ZM25 24C25 24.5523 24.5523 25 24 25C23.4477 25 23 24.5523 23 24C23 23.4477 23.4477 23 24 23C24.5523 23 25 23.4477 25 24ZM27 25C27.5523 25 28 24.5523 28 24C28 23.4477 27.5523 23 27 23C26.4477 23 26 23.4477 26 24C26 24.5523 26.4477 25 27 25ZM31 24C31 24.5523 30.5523 25 30 25C29.4477 25 29 24.5523 29 24C29 23.4477 29.4477 23 30 23C30.5523 23 31 23.4477 31 24ZM33 25C33.5523 25 34 24.5523 34 24C34 23.4477 33.5523 23 33 23C32.4477 23 32 23.4477 32 24C32 24.5523 32.4477 25 33 25ZM19.1789 8.8357C18.7173 8.3741 17.9689 8.3741 17.5073 8.8357L15.8358 10.5073C15.3742 10.9689 15.3742 11.7172 15.8358 12.1788C16.2973 12.6404 17.0457 12.6404 17.5073 12.1788L19.1789 10.5073C19.6405 10.0457 19.6405 9.29729 19.1789 8.8357ZM23.5122 8.8357C23.0506 8.3741 22.3022 8.3741 21.8406 8.8357L20.1691 10.5073C19.7075 10.9689 19.7075 11.7172 20.1691 12.1788C20.6307 12.6404 21.379 12.6404 21.8406 12.1788L23.5122 10.5073C23.9738 10.0457 23.9738 9.29729 23.5122 8.8357ZM26.174 8.8357C26.6356 8.3741 27.384 8.3741 27.8456 8.8357C28.3072 9.29729 28.3072 10.0457 27.8456 10.5073L26.174 12.1788C25.7124 12.6404 24.964 12.6404 24.5024 12.1788C24.0409 11.7172 24.0409 10.9689 24.5024 10.5073L26.174 8.8357ZM32.1789 8.8357C31.7173 8.3741 30.9689 8.3741 30.5073 8.8357L28.8358 10.5073C28.3742 10.9689 28.3742 11.7172 28.8358 12.1788C29.2973 12.6404 30.0457 12.6404 30.5073 12.1788L32.1789 10.5073C32.6405 10.0457 32.6405 9.29729 32.1789 8.8357ZM17.5073 14.8357C17.9689 14.3741 18.7173 14.3741 19.1789 14.8357C19.6405 15.2973 19.6405 16.0457 19.1789 16.5073L17.5073 18.1788C17.0457 18.6404 16.2973 18.6404 15.8358 18.1788C15.3742 17.7172 15.3742 16.9689 15.8358 16.5073L17.5073 14.8357ZM23.5122 14.8357C23.0506 14.3741 22.3022 14.3741 21.8406 14.8357L20.1691 16.5073C19.7075 16.9689 19.7075 17.7172 20.1691 18.1788C20.6307 18.6404 21.379 18.6404 21.8406 18.1788L23.5122 16.5073C23.9738 16.0457 23.9738 15.2973 23.5122 14.8357ZM26.174 14.8357C26.6356 14.3741 27.384 14.3741 27.8456 14.8357C28.3072 15.2973 28.3072 16.0457 27.8456 16.5073L26.174 18.1788C25.7124 18.6404 24.964 18.6404 24.5024 18.1788C24.0409 17.7172 24.0409 16.9689 24.5024 16.5073L26.174 14.8357ZM32.1789 14.8357C31.7173 14.3741 30.9689 14.3741 30.5073 14.8357L28.8358 16.5073C28.3742 16.9689 28.3742 17.7172 28.8358 18.1788C29.2973 18.6404 30.0457 18.6404 30.5073 18.1788L32.1789 16.5073C32.6405 16.0457 32.6405 15.2973 32.1789 14.8357ZM17.5073 29.8357C17.9689 29.3741 18.7173 29.3741 19.1789 29.8357C19.6405 30.2973 19.6405 31.0457 19.1789 31.5073L17.5073 33.1788C17.0457 33.6404 16.2973 33.6404 15.8358 33.1788C15.3742 32.7172 15.3742 31.9689 15.8358 31.5073L17.5073 29.8357ZM23.5122 29.8357C23.0506 29.3741 22.3022 29.3741 21.8406 29.8357L20.1691 31.5073C19.7075 31.9689 19.7075 32.7172 20.1691 33.1788C20.6307 33.6404 21.379 33.6404 21.8406 33.1788L23.5122 31.5073C23.9738 31.0457 23.9738 30.2973 23.5122 29.8357ZM26.174 29.8357C26.6356 29.3741 27.384 29.3741 27.8456 29.8357C28.3072 30.2973 28.3072 31.0457 27.8456 31.5073L26.174 33.1788C25.7124 33.6404 24.964 33.6404 24.5024 33.1788C24.0409 32.7172 24.0409 31.9689 24.5024 31.5073L26.174 29.8357ZM32.1789 29.8357C31.7173 29.3741 30.9689 29.3741 30.5073 29.8357L28.8358 31.5073C28.3742 31.9689 28.3742 32.7172 28.8358 33.1788C29.2973 33.6404 30.0457 33.6404 30.5073 33.1788L32.1789 31.5073C32.6405 31.0457 32.6405 30.2973 32.1789 29.8357ZM17.5073 35.8357C17.9689 35.3741 18.7173 35.3741 19.1789 35.8357C19.6405 36.2973 19.6405 37.0457 19.1789 37.5073L17.5073 39.1788C17.0457 39.6404 16.2973 39.6404 15.8358 39.1788C15.3742 38.7172 15.3742 37.9689 15.8358 37.5073L17.5073 35.8357ZM23.5122 35.8357C23.0506 35.3741 22.3022 35.3741 21.8406 35.8357L20.1691 37.5073C19.7075 37.9689 19.7075 38.7172 20.1691 39.1788C20.6307 39.6404 21.379 39.6404 21.8406 39.1788L23.5122 37.5073C23.9738 37.0457 23.9738 36.2973 23.5122 35.8357ZM26.174 35.8357C26.6356 35.3741 27.384 35.3741 27.8456 35.8357C28.3072 36.2973 28.3072 37.0457 27.8456 37.5073L26.174 39.1788C25.7124 39.6404 24.964 39.6404 24.5024 39.1788C24.0409 38.7172 24.0409 37.9689 24.5024 37.5073L26.174 35.8357ZM32.1789 35.8357C31.7173 35.3741 30.9689 35.3741 30.5073 35.8357L28.8358 37.5073C28.3742 37.9689 28.3742 38.7172 28.8358 39.1788C29.2973 39.6404 30.0457 39.6404 30.5073 39.1788L32.1789 37.5073C32.6405 37.0457 32.6405 36.2973 32.1789 35.8357Z" fill="#333333"/>
</svg>
