<svg width="48" height="48" viewBox="0 0 48 48" fill="none" xmlns="http://www.w3.org/2000/svg">
<path fill-rule="evenodd" clip-rule="evenodd" d="M48 0H0V48H48V0ZM40.1285 17.6678C39.9565 17.9068 39.6129 17.9223 39.4047 17.7141L28.9159 7.22532C28.7077 7.01714 28.7232 6.67353 28.9622 6.50148C32.0886 4.25004 36.4743 4.53059 39.2869 7.34315C42.0994 10.1557 42.38 14.5414 40.1285 17.6678ZM27.1314 8.33224C27.3035 8.09331 27.6471 8.0778 27.8553 8.28599L38.344 18.7747C38.5522 18.9829 38.5367 19.3265 38.2978 19.4986C35.1714 21.75 30.7857 21.4694 27.9732 18.6569C25.1606 15.8443 24.88 11.4586 27.1314 8.33224ZM35.8692 33.7094L29.374 37.4594C29.5121 37.6985 29.4302 38.0043 29.191 38.1424L21.8298 42.3924C18.96 44.0492 15.2905 43.066 13.6336 40.1962C11.9768 37.3265 12.96 33.6569 15.8298 32.0001L23.191 27.7501C23.4302 27.612 23.736 27.6939 23.874 27.9331L30.3692 24.1831C32.9998 22.6643 36.3636 23.5656 37.8824 26.1962C39.4011 28.8268 38.4998 32.1906 35.8692 33.7094ZM24.874 29.6651L31.3692 25.9151C33.0432 24.9486 35.1838 25.5222 36.1503 27.1962C37.1168 28.8703 36.5432 31.0108 34.8692 31.9773L28.374 35.7273L24.874 29.6651ZM16.2326 33.8602L19.9767 31.7207C20.3364 31.5152 20.7945 31.6402 21 31.9998C21.2055 32.3595 21.0806 32.8176 20.7209 33.0231L16.9768 35.1626C16.0505 35.6919 15.6456 36.8026 15.9523 37.7949C16.0339 38.0587 15.9568 38.3638 15.7171 38.5008C15.2376 38.7748 14.6113 38.6079 14.4725 38.0734C14.0573 36.4751 14.7264 34.721 16.2326 33.8602ZM13.2458 9.46127C14.0886 8.04497 16.1865 8.1987 16.8139 9.72271L21.72 21.641C22.286 23.0158 21.2073 24.5056 19.7245 24.3969L8.22742 23.5545C6.74463 23.4459 5.89456 21.8148 6.65485 20.5371L13.2458 9.46127Z" fill="#333333"/>
</svg>
