<svg width="48" height="48" viewBox="0 0 48 48" fill="none" xmlns="http://www.w3.org/2000/svg">
<path d="M48 48H0V0H48V48ZM38.574 17.385L10.045 31.833C11.7765 34.9203 14.483 37.3463 17.7406 38.7311C20.9983 40.1159 24.6232 40.3813 28.0478 39.4858C31.4724 38.5903 34.5033 36.5844 36.6661 33.7822C38.8289 30.98 40.0014 27.5397 40 24C40.0056 21.7181 39.5192 19.4619 38.574 17.385ZM24 8C21.494 8.00209 19.0234 8.59231 16.7871 9.72321C14.5508 10.8541 12.6111 12.4941 11.1241 14.5112C9.63706 16.5284 8.64424 18.8664 8.22548 21.3372C7.80671 23.8079 7.9737 26.3425 8.713 28.737L24.413 20.78L36.828 14.43C35.3604 12.4711 33.4667 10.8714 31.29 9.752C29.0353 8.59285 26.5352 7.99201 24 8Z" fill="#333333"/>
</svg>
