<svg width="48" height="48" viewBox="0 0 48 48" fill="none" xmlns="http://www.w3.org/2000/svg">
<path fill-rule="evenodd" clip-rule="evenodd" d="M0 0H48V48H0V0ZM34.5 39.9999C32.8131 39.9982 31.157 39.5483 29.7011 38.6963C28.2451 37.8443 27.0418 36.6208 26.214 35.1509L43.153 26.5729C43.7142 27.8059 44.0032 29.1453 44 30.4999C43.9971 33.0186 42.9953 35.4333 41.2144 37.2142C39.4334 38.9952 37.0187 39.997 34.5 39.9999ZM25.423 33.3139C25.1415 32.4025 24.9989 31.4539 25 30.4999C25.0029 27.9813 26.0047 25.5666 27.7857 23.7856C29.5666 22.0047 31.9813 21.0028 34.5 20.9999C36.0045 20.9954 37.4881 21.3521 38.8261 22.0399C40.1184 22.7048 41.2427 23.6547 42.114 24.8179L34.743 28.5879L25.424 33.3129L25.423 33.3139ZM14.5371 26.743C17.0351 26.4215 19.3037 25.1223 20.8451 23.1303C21.4189 22.3891 21.8799 21.567 22.213 20.6907L4.13714 14.9064C3.66029 16.7121 3.72689 18.6184 4.32866 20.3863C4.93042 22.1543 6.04056 23.7053 7.51997 24.8451C9.51546 26.3819 12.039 27.0645 14.5371 26.743ZM22.5681 19.5335L22.6983 18.9001C22.6589 19.1198 22.6149 19.3322 22.5681 19.5335ZM22.7164 18.7652L22.7196 18.7662L22.7157 18.7696C22.716 18.7681 22.7162 18.7666 22.7164 18.7652ZM14.7784 16.2199L22.7164 18.7652C22.9723 17.0884 22.775 15.3736 22.1451 13.7986C21.5146 12.2222 20.4737 10.8434 19.1303 9.80518C17.1348 8.2684 14.6113 7.58584 12.1132 7.90731C9.61516 8.22878 7.34657 9.52803 5.80518 11.52C5.43797 11.9952 5.11626 12.504 4.84433 13.0396L14.7784 16.2199Z" fill="#333333"/>
</svg>
