<svg width="48" height="48" viewBox="0 0 48 48" fill="none" xmlns="http://www.w3.org/2000/svg">
<path fill-rule="evenodd" clip-rule="evenodd" d="M0 0H48V48H0V0ZM13.5 23C11.8131 22.9983 10.157 22.5484 8.70106 21.6964C7.24515 20.8444 6.04176 19.6209 5.214 18.151L22.153 9.57304C22.7142 10.806 23.0032 12.1454 23 13.5C22.9971 16.0187 21.9953 18.4334 20.2144 20.2143C18.4334 21.9953 16.0187 22.9971 13.5 23ZM4.42298 16.314C4.1415 15.4026 3.99893 14.454 4.00001 13.5C4.00292 10.9814 5.00469 8.56671 6.78565 6.78574C8.56662 5.00478 10.9813 4.00295 13.5 4.00004C15.0045 3.99553 16.4881 4.35219 17.8261 5.04004C19.1184 5.70487 20.2427 6.65481 21.114 7.81804L13.743 11.588L4.42396 16.313L4.42298 16.314ZM29.7011 42.6964C31.157 43.5484 32.8131 43.9983 34.5 44C37.0187 43.9971 39.4334 42.9953 41.2144 41.2143C42.9953 39.4334 43.9971 37.0187 44 34.5C44.0032 33.1454 43.7142 31.806 43.153 30.573L26.214 39.151C27.0418 40.6209 28.2451 41.8444 29.7011 42.6964ZM25 34.5C24.9989 35.454 25.1415 36.4026 25.423 37.314L25.424 37.313L34.743 32.588L42.114 28.818C41.2427 27.6548 40.1184 26.7049 38.8261 26.04C37.4881 25.3522 36.0045 24.9955 34.5 25C31.9813 25.003 29.5666 26.0048 27.7857 27.7857C26.0047 29.5667 25.0029 31.9814 25 34.5ZM34.5 23C31.9813 22.9971 29.5666 21.9953 27.7856 20.2143C26.0047 18.4334 25.0029 16.0187 25 13.5C24.9982 11.6325 25.5476 9.80593 26.5793 8.24924C27.6111 6.69255 29.0794 5.47496 30.8001 4.74904L37.267 22.592C36.3698 22.8638 35.4374 23.0013 34.5 23ZM38.4 22.166L38.981 21.882C38.783 21.985 38.588 22.08 38.4 22.166ZM39.1 21.817L39.0988 21.8139C40.5825 20.9918 41.8194 19.7878 42.6812 18.3267C43.5437 16.8644 43.9991 15.1978 44 13.5C43.9971 10.9814 42.9953 8.56671 41.2144 6.78574C39.4334 5.00478 37.0187 4.00295 34.5 4.00004C33.8994 3.9998 33.3 4.05605 32.71 4.16804L36.2629 13.975L39.0988 21.8139L39.095 21.816L39.1 21.817ZM6.78565 41.2143C8.56661 42.9953 10.9813 43.9971 13.5 44C14.4374 44.0013 15.3698 43.8638 16.267 43.592L9.80005 25.749C8.07935 26.475 6.61109 27.6926 5.57935 29.2492C4.54761 30.8059 3.99821 32.6325 4 34.5C4.00292 37.0187 5.00468 39.4334 6.78565 41.2143ZM17.4 43.166L17.981 42.882C17.783 42.985 17.588 43.08 17.4 43.166ZM18.0988 42.8139L18.1 42.817L18.095 42.816C18.0963 42.8153 18.0976 42.8146 18.0988 42.8139ZM15.2629 34.975L18.0988 42.8139C19.5825 41.9918 20.8194 40.7878 21.6812 39.3267C22.5437 37.8644 22.9991 36.1978 23 34.5C22.9971 31.9814 21.9953 29.5667 20.2144 27.7857C18.4334 26.0048 16.0187 25.003 13.5 25C12.8994 24.9998 12.3 25.056 11.71 25.168L15.2629 34.975Z" fill="#333333"/>
</svg>
