<svg width="48" height="48" viewBox="0 0 48 48" fill="none" xmlns="http://www.w3.org/2000/svg">
<g clip-path="url(#clip0)">
<path d="M47.4996 47.4997H0.5V0.5H47.4996V47.4997ZM43.3927 29.8903L42.9272 30.126L25.9883 38.7048L25.5225 38.9408L25.7784 39.396C27.5492 42.5443 30.8909 44.5001 34.4996 44.5001C40.0139 44.5001 44.5 40.0143 44.5 34.5006C44.5 33.059 44.2001 31.6677 43.6084 30.3653L43.3927 29.8903ZM10.0859 25.0829L9.60046 25.2886C5.89429 26.8594 3.49951 30.4754 3.49951 34.5006C3.49951 40.0143 7.98572 44.5001 13.5 44.5001C14.4912 44.5001 15.4697 44.3553 16.4084 44.0699L16.9126 43.9165L16.733 43.4211L10.2656 25.5786L10.0859 25.0829ZM17.4731 42.5708L17.1785 42.7147L17.6001 43.6213C17.6722 43.5894 17.7446 43.5561 17.8173 43.5217L17.8226 43.5368L18.1647 43.3477C18.1812 43.339 18.1976 43.3303 18.2141 43.3214L18.2136 43.3206L18.3354 43.2533C21.5212 41.4918 23.5004 38.138 23.5004 34.5006C23.5004 28.9864 19.0142 24.5002 13.5 24.5002C12.8651 24.5002 12.2312 24.5598 11.616 24.6774L11.0403 24.7874L11.2396 25.3386L14.7865 35.1441L17.4731 42.5708ZM34.4996 24.5002C28.9855 24.5002 24.4993 28.9864 24.4993 34.5006C24.4993 35.5094 24.649 36.505 24.9446 37.46L25.1198 38.0261L25.6483 37.7582L34.9688 33.0341L42.3422 29.2632L42.8699 28.9933L42.5149 28.5186C41.6036 27.2999 40.407 26.2888 39.0542 25.5948C37.6354 24.8684 36.1031 24.5002 34.4996 24.5002ZM23.6515 3.45331L23.1073 3.50155C20.6289 3.72127 18.3319 4.85469 16.6394 6.69304C14.9373 8.54294 13.9999 10.9472 13.9999 13.4631C13.9999 15.9784 14.9373 18.3824 16.6393 20.2322C18.3302 22.0698 20.627 23.203 23.1064 23.4229L23.6506 23.4711V22.9248L23.6515 3.99962V3.45331ZM24.6514 3.46796V4.032V22.8924V23.4563L25.2113 23.3888C30.2216 22.7844 33.9998 18.5173 33.9998 13.4631C33.9998 8.40882 30.2216 4.14092 25.2113 3.53561L24.6514 3.46796Z" fill="#333333"/>
<path d="M46.9996 46.9997V1H1V46.9997H46.9996ZM24.8317 38.7326L24.8173 38.74L24.4669 37.6078C24.1671 36.639 24.0101 35.6306 23.9998 34.6086C23.9639 38.0976 22.1952 41.3267 19.3143 43.243L19.3385 43.2874L18.4498 43.7624C18.434 43.7709 18.4181 43.7793 18.4022 43.7877L17.5518 44.2579L17.5475 44.246L16.554 44.5482C15.568 44.8481 14.5405 45.0001 13.5 45.0001C7.70996 45.0001 2.99951 40.29 2.99951 34.5006C2.99951 30.2742 5.51392 26.4776 9.40527 24.8283L10.3748 24.4174L10.3707 24.4063L11.5221 24.1863C12.1682 24.0628 12.8336 24.0002 13.5 24.0002C19.2539 24.0002 23.9417 28.6519 23.9999 34.3923C24.058 28.6519 28.7457 24.0002 34.4996 24.0002C36.1832 24.0002 37.7921 24.3869 39.2823 25.15C40.7025 25.8785 41.9589 26.9398 42.9154 28.2192L43.6252 29.1686L42.5698 29.7083L35.1948 33.4801L31.0176 35.5973L42.7014 29.68L43.6322 29.2086L44.0637 30.1585C44.6849 31.5263 45 32.9872 45 34.5006C45 40.29 40.2896 45.0001 34.4996 45.0001C30.7106 45.0001 27.2018 42.9467 25.3427 39.6411L24.8317 38.7326ZM24.1514 6.67143L24.1506 22.9248V24.0174L23.0623 23.9209C20.4585 23.69 18.0468 22.5002 16.2714 20.5707C14.4841 18.6284 13.4999 16.1042 13.4999 13.4631C13.4999 10.8215 14.4841 8.29694 16.2715 6.35437C18.0486 4.42426 20.4606 3.23424 23.0632 3.00351L24.1514 2.90704V2.90391L25.2714 3.03922C30.5323 3.67484 34.4998 8.15613 34.4998 13.4631C34.4998 18.77 30.5323 23.2506 25.2711 23.8852L24.1514 24.0203V22.8924V6.67143ZM47.9996 48.0007V47.9997H0V0H47.9996V47.9997V48.0007ZM43.1532 30.5721V30.5721L26.2142 39.1509C27.8962 42.1415 31.0709 44.0001 34.4996 44.0001C39.7382 44.0001 44 39.7386 44 34.5006C44 33.1308 43.7151 31.8091 43.1532 30.5721ZM9.79553 25.749C6.27466 27.2413 3.99951 30.6765 3.99951 34.5006C3.99951 39.7386 8.26147 44.0001 13.5 44.0001C14.4419 44.0001 15.3715 43.8626 16.2629 43.5915L9.79553 25.749ZM17.9784 42.8805L17.3978 43.164C17.582 43.0826 17.7777 42.9878 17.9784 42.8805L17.9779 42.8796L17.9784 42.8805ZM13.5 25.0002C12.8965 25.0002 12.2942 25.0568 11.7098 25.1685L15.2567 34.974L18.0935 42.8157C21.1196 41.1426 23.0004 37.9566 23.0004 34.5006C23.0004 29.2621 18.7385 25.0002 13.5 25.0002ZM34.4996 25.0002C29.2611 25.0002 24.9993 29.2621 24.9993 34.5006C24.9993 35.4593 25.1416 36.4052 25.4222 37.3122L34.7427 32.5881L42.1145 28.818C41.2493 27.6608 40.1122 26.6996 38.8259 26.0397C37.4788 25.3499 36.0232 25.0002 34.4996 25.0002ZM23.1515 3.9996C20.7972 4.20831 18.6152 5.28513 17.0072 7.0317C15.3904 8.78889 14.4999 11.0729 14.4999 13.4631C14.4999 15.8527 15.3904 18.1364 17.0072 19.8936C18.6136 21.6394 20.7954 22.7159 23.1506 22.9248L23.1515 3.9996ZM25.1514 4.032V22.8924C29.9103 22.3184 33.4998 18.2651 33.4998 13.4631C33.4998 8.6615 29.9108 4.60701 25.1514 4.032Z" fill="#333333"/>
</g>
<defs>
<clipPath id="clip0">
<rect width="48" height="48" fill="white"/>
</clipPath>
</defs>
</svg>
