<svg width="48" height="48" viewBox="0 0 48 48" fill="none" xmlns="http://www.w3.org/2000/svg">
<path d="M48 48H0V0H48V48ZM43.8057 30.0159L43.3303 30.2566L26.0308 39.018L25.5551 39.2589L25.8165 39.7238C27.6249 42.9392 31.0377 44.9366 34.7233 44.9366C40.355 44.9366 44.9365 40.3553 44.9365 34.7242C44.9365 33.252 44.6302 31.8311 44.0259 30.5009L43.8057 30.0159ZM9.78997 25.1061L9.29416 25.3162C5.5091 26.9204 3.06335 30.6133 3.06335 34.7242C3.06335 40.3553 7.64505 44.9366 13.2767 44.9366C14.289 44.9366 15.2884 44.7887 16.2471 44.4972L16.7619 44.3406L16.5785 43.8346L9.97348 25.6124L9.78997 25.1061ZM17.3344 42.9662L17.0335 43.1132L17.4641 44.039C17.5377 44.0065 17.6117 43.9725 17.6859 43.9373L17.6913 43.9527L18.0407 43.7596C18.0575 43.7508 18.0743 43.7418 18.0911 43.7328L18.0907 43.7319L18.2151 43.6632C21.4687 41.8642 23.4899 38.439 23.4899 34.7242C23.4899 29.0926 18.9082 24.511 13.2767 24.511C12.6283 24.511 11.9809 24.5719 11.3526 24.692L10.7646 24.8043L10.9682 25.3672L14.5906 35.3814L17.3344 42.9662ZM34.7233 24.511C29.0918 24.511 24.5101 29.0926 24.5101 34.7242C24.5101 35.7545 24.663 36.7713 24.9649 37.7466L25.1438 38.3247L25.6836 38.0511L35.2024 33.2265L42.7328 29.3753L43.2717 29.0997L42.9092 28.6149C41.9785 27.3702 40.7564 26.3377 39.3748 25.6289C37.9258 24.8871 36.3609 24.511 34.7233 24.511ZM23.6443 3.01617L23.0885 3.06543C20.5573 3.28983 18.2115 4.44737 16.4829 6.32485C14.7445 8.21412 13.7872 10.6696 13.7872 13.239C13.7872 15.8078 14.7445 18.263 16.4828 20.1521C18.2097 22.0289 20.5553 23.1861 23.0876 23.4107L23.6434 23.46V22.9021L23.6443 3.57411V3.01617ZM24.6654 3.03113V3.60717V22.869V23.4449L25.2373 23.3759C30.3542 22.7587 34.2128 18.4008 34.2128 13.239C34.2128 8.07714 30.3542 3.71841 25.2373 3.10022L24.6654 3.03113Z" fill="#333333"/>
</svg>
