<svg width="48" height="48" viewBox="0 0 48 48" fill="none" xmlns="http://www.w3.org/2000/svg">
<path d="M6 29.1845C6 28.3313 6.54135 27.5719 7.34802 27.2938L11.348 25.9145C12.6468 25.4666 14 26.4314 14 27.8052V39C14 40.1046 13.1046 41 12 41H8C6.89543 41 6 40.1046 6 39V29.1845Z" fill="#333333"/>
<path d="M42 29.1845C42 28.3313 41.4586 27.5719 40.652 27.2938L36.652 25.9145C35.3532 25.4666 34 26.4314 34 27.8052V39C34 40.1046 34.8954 41 36 41H40C41.1046 41 42 40.1046 42 39V29.1845Z" fill="#333333"/>
<path fill-rule="evenodd" clip-rule="evenodd" d="M17.0223 18.9098C16.391 19.2636 16 19.9308 16 20.6546V38.9999C16 40.1045 16.8954 40.9999 18 40.9999H21V32.9999C21 31.343 22.3431 29.9999 24 29.9999C25.6569 29.9999 27 31.343 27 32.9999V40.9999H30C31.1046 40.9999 32 40.1045 32 38.9999V20.6545C32 19.9308 31.609 19.2636 30.9777 18.9098L24.9777 15.5477C24.3703 15.2074 23.6297 15.2074 23.0223 15.5477L17.0223 18.9098Z" fill="#333333"/>
<rect x="23" y="7" width="2" height="9" fill="#333333"/>
<rect x="19.5" y="12.5" width="2" height="9" transform="rotate(-90 19.5 12.5)" fill="#333333"/>
</svg>
