<svg width="48" height="48" viewBox="0 0 48 48" fill="none" xmlns="http://www.w3.org/2000/svg">
<path d="M6 29.1845C6 28.3313 6.54135 27.5719 7.34802 27.2938L11.348 25.9145C12.6468 25.4666 14 26.4314 14 27.8052V39C14 40.1046 13.1046 41 12 41H8C6.89543 41 6 40.1046 6 39V29.1845Z" fill="#333333"/>
<path d="M42 29.1845C42 28.3313 41.4586 27.5719 40.652 27.2938L36.652 25.9145C35.3532 25.4666 34 26.4314 34 27.8052V39C34 40.1046 34.8954 41 36 41H40C41.1046 41 42 40.1046 42 39V29.1845Z" fill="#333333"/>
<path d="M17.0223 18.9099C16.391 19.2637 16 19.9309 16 20.6547V39C16 40.1046 16.8954 41 18 41H21V33C21 31.3431 22.3431 30 24 30C25.6569 30 27 31.3431 27 33V41H30C31.1046 41 32 40.1046 32 39V20.6547C32 19.9309 31.609 19.2637 30.9777 18.9099L24.9777 15.5478C24.3703 15.2075 23.6297 15.2075 23.0223 15.5478L17.0223 18.9099Z" fill="#333333"/>
<path d="M23 7H25V16H23V7Z" fill="#333333"/>
<path d="M19.5 12.5V10.5H28.5V12.5H19.5Z" fill="#333333"/>
</svg>
