<svg width="48" height="48" viewBox="0 0 48 48" fill="none" xmlns="http://www.w3.org/2000/svg">
<path d="M6 29.1845C6 28.3313 6.54135 27.5719 7.34802 27.2938L11.348 25.9145C12.6468 25.4666 14 26.4314 14 27.8052V39C14 40.1046 13.1046 41 12 41H8C6.89543 41 6 40.1046 6 39V29.1845Z" fill="#333333"/>
<path d="M42 29.1845C42 28.3313 41.4586 27.5719 40.652 27.2938L36.652 25.9145C35.3532 25.4666 34 26.4314 34 27.8052V39C34 40.1046 34.8954 41 36 41H40C41.1046 41 42 40.1046 42 39V29.1845Z" fill="#333333"/>
<path fill-rule="evenodd" clip-rule="evenodd" d="M17.0223 18.9103C16.391 19.2641 16 19.9313 16 20.655V39.0004C16 40.105 16.8954 41.0004 18 41.0004H21V33.0004C21 31.3435 22.3431 30.0004 24 30.0004C25.6569 30.0004 27 31.3435 27 33.0004V41.0004H30C31.1046 41.0004 32 40.105 32 39.0004V20.655C32 19.9313 31.609 19.2641 30.9777 18.9103L24.9777 15.5482C24.3703 15.2079 23.6297 15.2079 23.0223 15.5482L17.0223 18.9103Z" fill="#333333"/>
<rect x="23" y="7" width="2" height="9" fill="#333333"/>
<rect x="19.5" y="12.5" width="2" height="9" transform="rotate(-90 19.5 12.5)" fill="#333333"/>
</svg>
