<svg width="48" height="48" viewBox="0 0 48 48" fill="none" xmlns="http://www.w3.org/2000/svg">
<path d="M24 18C24 24.6274 19.9706 30 15 30C10.0294 30 6 24.6274 6 18C6 11.3726 10.0294 6 15 6C19.9706 6 24 11.3726 24 18Z" fill="#333333"/>
<path d="M14 26H16V38H14V26Z" fill="#333333"/>
<path d="M31 26H33V38H31V26Z" fill="#333333"/>
<path fill-rule="evenodd" clip-rule="evenodd" d="M37.847 16.3522C37.9471 15.9176 38 15.465 38 15C38 11.6863 35.3137 9 32 9C28.6863 9 26 11.6863 26 15C26 15.465 26.0529 15.9176 26.153 16.3522C24.3058 17.0869 23 18.891 23 21C23 21.4948 23.0719 21.9727 23.2057 22.424C21.8976 23.0817 21 24.436 21 26C21 28.2091 22.7909 30 25 30H39C41.2091 30 43 28.2091 43 26C43 24.436 42.1024 23.0817 40.7943 22.424C40.9281 21.9727 41 21.4948 41 21C41 18.891 39.6942 17.0869 37.847 16.3522Z" fill="#333333"/>
<path d="M7 38.5C7 37.1193 8.11929 36 9.5 36H38.5C39.8807 36 41 37.1193 41 38.5C41 39.8807 39.8807 41 38.5 41H9.5C8.11929 41 7 39.8807 7 38.5Z" fill="#333333"/>
</svg>
