<svg width="48" height="48" viewBox="0 0 48 48" fill="none" xmlns="http://www.w3.org/2000/svg">
<path fill-rule="evenodd" clip-rule="evenodd" d="M10 25.5207L8.70833 26.8168C8.31848 27.208 7.68531 27.2091 7.29412 26.8192C6.90292 26.4294 6.90182 25.7962 7.29167 25.405L21.9306 10.7155C23.103 9.53902 25.0081 9.53901 26.1805 10.7155L40.8195 25.405C41.2093 25.7962 41.2082 26.4294 40.817 26.8192C40.4258 27.2091 39.7927 27.208 39.4028 26.8168L38 25.4091V37.9994C38 39.104 37.1046 39.9994 36 39.9994H29C27.8954 39.9994 27 39.104 27 37.9994V29.2587H21V37.9994C21 39.104 20.1046 39.9994 19 39.9994H12C10.8954 39.9994 10 39.104 10 37.9994V25.5207Z" fill="#333333"/>
</svg>
