<svg width="48" height="48" viewBox="0 0 48 48" fill="none" xmlns="http://www.w3.org/2000/svg">
<path fill-rule="evenodd" clip-rule="evenodd" d="M10 25.5208L8.70833 26.8169C8.31848 27.2081 7.68531 27.2092 7.29412 26.8194C6.90292 26.4295 6.90182 25.7964 7.29167 25.4052L21.9306 10.7156C23.103 9.53914 25.0081 9.53914 26.1805 10.7156L40.8195 25.4052C41.2093 25.7964 41.2082 26.4295 40.817 26.8194C40.4258 27.2092 39.7927 27.2081 39.4028 26.8169L38 25.4093V37.9995C38 39.1041 37.1046 39.9995 36 39.9995H29C27.8954 39.9995 27 39.1041 27 37.9995V29.2588H21V37.9995C21 39.1041 20.1046 39.9995 19 39.9995H12C10.8954 39.9995 10 39.1041 10 37.9995V25.5208Z" fill="#333333"/>
</svg>
