<svg width="48" height="48" viewBox="0 0 48 48" fill="none" xmlns="http://www.w3.org/2000/svg">
<path fill-rule="evenodd" clip-rule="evenodd" d="M10 25.5205L8.70833 26.8167C8.31848 27.2079 7.68531 27.209 7.29412 26.8191C6.90292 26.4293 6.90182 25.7961 7.29167 25.4049L21.9306 10.7154C23.103 9.53889 25.0081 9.53889 26.1805 10.7154L40.8195 25.4049C41.2093 25.7961 41.2082 26.4293 40.817 26.8191C40.4258 27.209 39.7927 27.2079 39.4028 26.8167L38 25.409V37.9993C38 39.1039 37.1046 39.9993 36 39.9993H29C27.8954 39.9993 27 39.1039 27 37.9993V29.2586H21V37.9993C21 39.1039 20.1046 39.9993 19 39.9993H12C10.8954 39.9993 10 39.1039 10 37.9993V25.5205Z" fill="#333333"/>
</svg>
