<svg width="48" height="48" viewBox="0 0 48 48" fill="none" xmlns="http://www.w3.org/2000/svg">
<path d="M22.5787 8.43566C23.3613 7.64511 24.6387 7.64511 25.4213 8.43566L41.1512 24.3245C41.6469 24.8251 41.627 25.5273 40.9746 25.7932C39.2895 26.48 34.9446 27.5 24 27.5C13.0554 27.5 8.71046 26.48 7.02537 25.7932C6.373 25.5273 6.35313 24.8251 6.84876 24.3245L22.5787 8.43566Z" fill="#333333"/>
<path d="M23.083 3.99655C23.0383 3.46009 23.4617 3 24 3C24.5383 3 24.9617 3.46009 24.9169 3.99655L24.5415 8.50173C24.518 8.78337 24.2826 9 24 9C23.7174 9 23.4819 8.78337 23.4585 8.50173L23.083 3.99655Z" fill="#333333"/>
<path d="M25.9576 4.27565C26.1871 3.78871 26.7838 3.60194 27.25 3.87109C27.7162 4.14025 27.8528 4.75037 27.5458 5.1926L24.9681 8.90649C24.807 9.13866 24.4947 9.20855 24.25 9.06725C24.0052 8.92594 23.9097 8.62061 24.0302 8.36497L25.9576 4.27565Z" fill="#333333"/>
<path d="M22.0424 4.27565C21.8129 3.78871 21.2162 3.60194 20.75 3.87109C20.2838 4.14025 20.1472 4.75037 20.4542 5.1926L23.0319 8.90649C23.193 9.13866 23.5052 9.20855 23.75 9.06725C23.9947 8.92594 24.0903 8.62061 23.9698 8.36497L22.0424 4.27565Z" fill="#333333"/>
<path fill-rule="evenodd" clip-rule="evenodd" d="M11 28.8528C11 28.5476 11.2707 28.3136 11.5732 28.3542C14.3551 28.7271 18.3239 28.9984 24 28.9984C29.6761 28.9984 33.6449 28.7271 36.4268 28.3542C36.7293 28.3136 37 28.5476 37 28.8528V41.9992C37 42.887 33.24 43.6397 28.0362 43.9009C27.4704 43.9293 27 43.4752 27 42.9087V38.0004C27 36.3436 25.6569 35.0004 24 35.0004C22.3431 35.0004 21 36.3436 21 38.0004V42.9087C21 43.4752 20.5296 43.9293 19.9638 43.9009C14.76 43.6397 11 42.887 11 41.9992V28.8528Z" fill="#333333"/>
</svg>
