<svg width="48" height="48" viewBox="0 0 48 48" fill="none" xmlns="http://www.w3.org/2000/svg">
<path d="M22.5787 6.43471C23.3613 5.64416 24.6387 5.64416 25.4213 6.43471L30.5175 11.5824C30.4953 11.6342 30.477 11.6879 30.4627 11.7426C30.2151 12.6941 29.5087 13.2502 28.8711 13.2502C28.2335 13.2502 27.5271 12.6941 27.2795 11.7426C27.1751 11.3417 26.851 11 26.4355 11C26.0201 11 25.696 11.3417 25.5916 11.7426C25.344 12.6941 24.6376 13.2502 24 13.2502C23.3624 13.2502 22.656 12.6941 22.4084 11.7426C22.304 11.3417 21.9799 11 21.5645 11C21.1491 11 20.8249 11.3417 20.7206 11.7426C20.4729 12.6941 19.7665 13.2502 19.1289 13.2502C18.4913 13.2502 17.7849 12.6941 17.5373 11.7426C17.523 11.6879 17.5047 11.6342 17.4825 11.5824L22.5787 6.43471Z" fill="#333333"/>
<path d="M31.3066 13.4227C31.8525 14.1926 32.6667 14.7189 33.6525 14.749L35.974 17.094C35.735 17.2241 35.5599 17.4742 35.4945 17.7542C35.2519 18.792 34.5259 19.3998 33.8714 19.3998C33.2169 19.3998 32.4909 18.792 32.2483 17.7542C32.1527 17.345 31.8228 16.9996 31.4015 16.9996C30.9803 16.9996 30.6504 17.345 30.5548 17.7542C30.3122 18.792 29.5862 19.3998 28.9317 19.3998C28.2772 19.3998 27.5512 18.792 27.3086 17.7542C27.213 17.345 26.8831 16.9996 26.4619 16.9996C26.0406 16.9996 25.7107 17.345 25.6151 17.7542C25.3725 18.792 24.6465 19.3998 23.992 19.3998C23.3375 19.3998 22.6115 18.792 22.3689 17.7542C22.2733 17.345 21.9434 16.9996 21.5222 16.9996C21.1009 16.9996 20.771 17.345 20.6754 17.7542C20.4328 18.792 19.7068 19.3998 19.0523 19.3998C18.3978 19.3998 17.6718 18.792 17.4292 17.7542C17.3336 17.345 17.0037 16.9996 16.5825 16.9996C16.1612 16.9996 15.8313 17.345 15.7357 17.7542C15.4931 18.792 14.7671 19.3998 14.1126 19.3998C13.4581 19.3998 12.7321 18.792 12.4895 17.7542C12.425 17.4783 12.254 17.2313 12.0203 17.0998L14.3475 14.749C15.3333 14.7189 16.1475 14.1926 16.6934 13.4227C17.2557 14.2159 18.1028 14.7504 19.1289 14.7504C20.155 14.7504 21.0021 14.2159 21.5645 13.4227C22.1268 14.2159 22.9739 14.7504 24 14.7504C25.0261 14.7504 25.8732 14.2159 26.4355 13.4227C26.9979 14.2159 27.845 14.7504 28.8711 14.7504C29.8972 14.7504 30.7443 14.2159 31.3066 13.4227Z" fill="#333333"/>
<path d="M38.8111 21C39.1235 21 39.4195 20.9486 39.6962 20.8538L41.1512 22.3235C41.6469 22.8242 41.627 23.5264 40.9746 23.7923C39.2895 24.4791 34.9446 25.499 24 25.499C13.0554 25.499 8.71046 24.4791 7.02537 23.7923C6.373 23.5264 6.35313 22.8242 6.84876 22.3235L8.29975 20.8579C8.57306 20.9501 8.86504 21 9.17292 21C10.2135 21 11.0725 20.4298 11.6428 19.5838C12.2131 20.4298 13.072 21 14.1126 21C15.1532 21 16.0122 20.4298 16.5825 19.5838C17.1528 20.4298 18.0117 21 19.0523 21C20.0929 21 20.9519 20.4298 21.5222 19.5838C22.0925 20.4298 22.9514 21 23.992 21C25.0326 21 25.8916 20.4298 26.4619 19.5838C27.0321 20.4298 27.8911 21 28.9317 21C29.9723 21 30.8313 20.4298 31.4015 19.5838C31.9718 20.4298 32.8308 21 33.8714 21C34.912 21 35.7709 20.4298 36.3412 19.5838C36.9115 20.4298 37.7705 21 38.8111 21Z" fill="#333333"/>
<path d="M11.5732 26.3542C11.2707 26.3136 11 26.5476 11 26.8528V39.9992C11 40.887 14.76 41.6397 19.9638 41.9009C20.5296 41.9293 21 41.4752 21 40.9087V36.0004C21 34.3436 22.3431 33.0004 24 33.0004C25.6569 33.0004 27 34.3436 27 36.0004V40.9087C27 41.4752 27.4704 41.9293 28.0362 41.9009C33.24 41.6397 37 40.887 37 39.9992V26.8528C37 26.5476 36.7293 26.3136 36.4268 26.3542C33.6449 26.7271 29.6761 26.9984 24 26.9984C18.3239 26.9984 14.3551 26.7271 11.5732 26.3542Z" fill="#333333"/>
</svg>
