<svg width="48" height="48" viewBox="0 0 48 48" fill="none" xmlns="http://www.w3.org/2000/svg">
<path d="M22.0264 22.9659C21.1298 21.3037 20.0458 19.7345 18.7926 18.2844C17.8131 16.8114 16.5555 15.5143 15.0802 14.4552C14.1534 13.9471 13.0581 13.772 12.0016 13.9631C10.5011 14.2632 9.60853 15.9797 8.81948 17.036L6.23242 20.301C6.04723 20.5475 5.96841 20.8495 6.01152 21.1473C6.05463 21.4452 6.21654 21.7171 6.46525 21.9095L11.122 26.4386C11.3354 26.595 12 27.5 12 27.5C12 27.5 8.56191 36.2806 7.86227 38.3907H12.92L13.1011 41.7997C13.1011 42.1181 13.2373 42.4234 13.4799 42.6485C13.7225 42.8736 14.0515 43.0001 14.3946 43.0001C14.7377 43.0001 15.0667 42.8736 15.3093 42.6485C15.5518 42.4234 15.6881 42.1181 15.6881 41.7997L15.8821 38.4627H20.4612C20.4612 38.1626 20.0085 32.2568 20.0473 31.5726C20.0861 30.8883 20.8881 30.4802 21.3408 30.0721C21.867 29.5759 22.3037 29.0044 22.6344 28.3796C22.9043 27.8142 23.0621 27.2083 23.1 26.591C23.0807 25.3175 22.7111 24.0697 22.0264 22.9659ZM10.0911 20.8892L11.8075 18.0083C11.9886 18.8006 12.1956 19.5928 12.3896 20.4091C12.7131 21.5128 12.8826 21.6504 12.8941 22.7941C11 21.5 10.9387 21.4414 10.0911 20.8892Z" stroke="#333333" stroke-width="2" stroke-linecap="round" stroke-linejoin="round"/>
<circle cx="16.5" cy="8.5" r="3.5" stroke="#333333" stroke-width="2"/>
<rect x="29.9375" y="5" width="1.125" height="4.5" rx="0.5625" fill="#333333"/>
<rect x="38.9375" y="5" width="1.125" height="4.5" rx="0.5625" fill="#333333"/>
<mask id="path-5-inside-1" fill="white">
<rect x="28.8125" y="14.5625" width="3.375" height="3.375" rx="1"/>
</mask>
<rect x="28.8125" y="14.5625" width="3.375" height="3.375" rx="1" stroke="#333333" stroke-width="3.375" mask="url(#path-5-inside-1)"/>
<mask id="path-6-inside-2" fill="white">
<rect x="33.3125" y="14.5625" width="3.375" height="3.375" rx="1"/>
</mask>
<rect x="33.3125" y="14.5625" width="3.375" height="3.375" rx="1" stroke="#333333" stroke-width="3.375" mask="url(#path-6-inside-2)"/>
<mask id="path-7-inside-3" fill="white">
<rect x="37.8125" y="14.5625" width="3.375" height="3.375" rx="1"/>
</mask>
<rect x="37.8125" y="14.5625" width="3.375" height="3.375" rx="1" stroke="#333333" stroke-width="3.375" mask="url(#path-7-inside-3)"/>
<mask id="path-8-inside-4" fill="white">
<rect x="28.8125" y="19.0625" width="3.375" height="3.375" rx="1"/>
</mask>
<rect x="28.8125" y="19.0625" width="3.375" height="3.375" rx="1" stroke="#333333" stroke-width="3.375" mask="url(#path-8-inside-4)"/>
<mask id="path-9-inside-5" fill="white">
<rect x="33.3125" y="19.0625" width="3.375" height="3.375" rx="1"/>
</mask>
<rect x="33.3125" y="19.0625" width="3.375" height="3.375" rx="1" stroke="#333333" stroke-width="3.375" mask="url(#path-9-inside-5)"/>
<mask id="path-10-inside-6" fill="white">
<rect x="37.8125" y="19.0625" width="3.375" height="3.375" rx="1"/>
</mask>
<rect x="37.8125" y="19.0625" width="3.375" height="3.375" rx="1" stroke="#333333" stroke-width="3.375" mask="url(#path-10-inside-6)"/>
<rect x="27" y="8.25" width="16" height="16" rx="1" stroke="#333333" stroke-width="2"/>
<path d="M27 9.25C27 8.69772 27.4477 8.25 28 8.25H42C42.5523 8.25 43 8.69771 43 9.25V11.4375C43 11.9898 42.5523 12.4375 42 12.4375H28C27.4477 12.4375 27 11.9898 27 11.4375V9.25Z" fill="#333333" stroke="#333333" stroke-width="2"/>
<rect x="31.0625" y="5" width="1.125" height="4.5" rx="0.5625" fill="#82FF9D"/>
<rect x="40.0625" y="5" width="1.125" height="4.5" rx="0.5625" fill="#82FF9D"/>
<line x1="26.5625" y1="12.4375" x2="43.4375" y2="12.4375" stroke="#333333" stroke-width="2"/>
</svg>
