<svg width="48" height="48" viewBox="0 0 48 48" fill="none" xmlns="http://www.w3.org/2000/svg">
<path d="M36.8467 30.5562L37.0761 30.7859H37.4006H39.5437C40.1953 30.7859 40.8199 31.0447 41.2807 31.5054C41.7412 31.9659 42 32.5907 42 33.2421C42 33.8935 41.7412 34.5183 41.2807 34.979C40.8199 35.4396 40.1953 35.6984 39.5437 35.6984H36.3376C36.3278 35.6971 36.3146 35.6956 36.3008 35.6942C36.2744 35.6917 36.2387 35.689 36.1967 35.689V35.6887L36.1765 35.6893C35.8462 35.6978 35.5178 35.638 35.2119 35.5132C34.906 35.3886 34.6292 35.202 34.3989 34.9651V34.9649L34.3916 34.9574L33.3928 33.9571L32.8292 33.3927L32.2755 33.9668C31.7481 34.5135 31.1161 34.9485 30.4171 35.246C29.7186 35.5434 28.9673 35.6971 28.208 35.6984C28.2077 35.6984 28.2073 35.6984 28.2069 35.6984H23.1227L22.553 24.3079H28.5368H28.5413C29.4714 24.3026 30.3874 24.5353 31.202 24.9842C32.0167 25.4328 32.703 26.0827 33.1955 26.8718L33.2427 26.9473L33.3056 27.0104L36.8467 30.5562ZM16.006 27.3177L16.1328 27.1907C16.3283 27.0223 16.5497 26.8858 16.7887 26.7867C17.0834 26.6647 17.399 26.6019 17.7177 26.6019C18.0366 26.6019 18.3522 26.6647 18.6467 26.7867C18.9413 26.9088 19.2088 27.0876 19.4343 27.313C19.6597 27.5383 19.8385 27.806 19.9604 28.1004C20.0824 28.3949 20.1451 28.7107 20.1451 29.0294C20.1451 29.3481 20.0824 29.6639 19.9604 29.9584C19.8385 30.2528 19.6597 30.5205 19.4343 30.746H19.4341L15.2245 34.9571L15.2171 34.9646C14.9867 35.2015 14.7098 35.3881 14.4037 35.5129C14.0977 35.6375 13.7691 35.6976 13.4387 35.6893L13.3323 35.6865L13.285 35.6984H8.45625C7.80485 35.6984 7.18007 35.4396 6.7195 34.979C6.25878 34.5183 6 33.8935 6 33.2421C6 32.5907 6.25878 31.9659 6.7195 31.5054C7.18007 31.0447 7.80485 30.7859 8.45625 30.7859H12.2134H12.5376L12.767 30.5567L16.006 27.3177ZM42 17.6953C42 20.8406 39.4501 23.3905 36.3047 23.3905C33.1594 23.3905 30.6095 20.8406 30.6095 17.6953C30.6095 14.5499 33.1594 12 36.3047 12C39.4501 12 42 14.5499 42 17.6953Z" stroke="#333333" stroke-width="2"/>
</svg>
