<svg width="48" height="48" viewBox="0 0 48 48" fill="none" xmlns="http://www.w3.org/2000/svg">
<path d="M19.752 20.4179L20.584 20.9726L20.584 20.9726L19.752 20.4179ZM15.752 26.4179L16.584 26.9726H16.584L15.752 26.4179ZM18.2481 28.0821L19.0802 28.6368H19.0802L18.2481 28.0821ZM19.5 26.2042H20.5V22.9014L18.668 25.6495L19.5 26.2042ZM22.5 30.25V29.25H21.5V30.25H22.5ZM25.5 30.25H26.5V29.25H25.5V30.25ZM28.5 26.2042L29.3321 25.6495L27.5 22.9014V26.2042H28.5ZM29.752 28.0821L28.9199 28.6368L29.752 28.0821ZM32.2481 26.4179L33.0802 25.8632L32.2481 26.4179ZM28.2481 20.4179L27.4161 20.9726L27.4161 20.9726L28.2481 20.4179ZM26.5 14.75C26.5 16.1307 25.3807 17.25 24 17.25V19.25C26.4853 19.25 28.5 17.2353 28.5 14.75H26.5ZM24 12.25C25.3807 12.25 26.5 13.3693 26.5 14.75H28.5C28.5 12.2647 26.4853 10.25 24 10.25V12.25ZM21.5 14.75C21.5 13.3693 22.6193 12.25 24 12.25V10.25C21.5148 10.25 19.5 12.2647 19.5 14.75H21.5ZM24 17.25C22.6193 17.25 21.5 16.1307 21.5 14.75H19.5C19.5 17.2353 21.5148 19.25 24 19.25V17.25ZM20.584 20.9726C20.6767 20.8336 20.8329 20.75 21 20.75V18.75C20.1642 18.75 19.3836 19.1678 18.9199 19.8633L20.584 20.9726ZM16.584 26.9726L20.584 20.9726L18.9199 19.8632L14.9199 25.8632L16.584 26.9726ZM16.7227 27.666C16.4929 27.5128 16.4308 27.2024 16.584 26.9726L14.9199 25.8632C14.154 27.0121 14.4645 28.5642 15.6133 29.3301L16.7227 27.666ZM17.4161 27.5273C17.2629 27.7571 16.9525 27.8192 16.7227 27.666L15.6133 29.3301C16.7621 30.096 18.3143 29.7856 19.0802 28.6368L17.4161 27.5273ZM18.668 25.6495L17.4161 27.5273L19.0802 28.6368L20.3321 26.7589L18.668 25.6495ZM20.5 35.25V26.2042H18.5V35.25H20.5ZM21 35.75C20.7239 35.75 20.5 35.5261 20.5 35.25H18.5C18.5 36.6307 19.6193 37.75 21 37.75V35.75ZM21.5 35.25C21.5 35.5261 21.2762 35.75 21 35.75V37.75C22.3807 37.75 23.5 36.6307 23.5 35.25H21.5ZM21.5 30.25V35.25H23.5V30.25H21.5ZM25.5 29.25H22.5V31.25H25.5V29.25ZM26.5 35.25V30.25H24.5V35.25H26.5ZM27 35.75C26.7239 35.75 26.5 35.5261 26.5 35.25H24.5C24.5 36.6307 25.6193 37.75 27 37.75V35.75ZM27.5 35.25C27.5 35.5261 27.2762 35.75 27 35.75V37.75C28.3808 37.75 29.5 36.6307 29.5 35.25H27.5ZM27.5 26.2042V35.25H29.5V26.2042H27.5ZM30.584 27.5273L29.3321 25.6495L27.668 26.7589L28.9199 28.6368L30.584 27.5273ZM31.2774 27.666C31.0476 27.8192 30.7372 27.7571 30.584 27.5273L28.9199 28.6368C29.6858 29.7856 31.238 30.096 32.3868 29.3301L31.2774 27.666ZM31.4161 26.9726C31.5692 27.2024 31.5072 27.5128 31.2774 27.666L32.3868 29.3301C33.5356 28.5642 33.846 27.0121 33.0802 25.8632L31.4161 26.9726ZM27.4161 20.9726L31.4161 26.9726L33.0802 25.8632L29.0802 19.8632L27.4161 20.9726ZM27 20.75C27.1672 20.75 27.3233 20.8336 27.4161 20.9726L29.0802 19.8633C28.6165 19.1678 27.8359 18.75 27 18.75V20.75ZM21 20.75H27V18.75H21V20.75Z" fill="#333333"/>
</svg>
