<svg width="48" height="48" viewBox="0 0 48 48" fill="none" xmlns="http://www.w3.org/2000/svg">
<path fill-rule="evenodd" clip-rule="evenodd" d="M34.5224 5.1582C34.2462 5.1582 34.0224 5.38206 34.0224 5.6582V7.00043H35.0224V5.6582C35.0224 5.38206 34.7985 5.1582 34.5224 5.1582ZM35.0224 9.00043H34.0224V10.5002V10.9998L33.623 11.2998C33.2564 11.5752 33.0224 12.0103 33.0224 12.5004C33.0224 13.3289 33.694 14.0004 34.5224 14.0004C35.3508 14.0004 36.0224 13.3289 36.0224 12.5004C36.0224 12.0103 35.7884 11.5752 35.4218 11.2998L35.0224 10.9998V10.5002V9.00043ZM32.0224 5.6582C32.0224 4.27749 33.1417 3.1582 34.5224 3.1582C35.9031 3.1582 37.0224 4.27749 37.0224 5.6582V10.051C37.6399 10.6814 38.0224 11.5464 38.0224 12.5004C38.0224 14.4334 36.4554 16.0004 34.5224 16.0004C32.5894 16.0004 31.0224 14.4334 31.0224 12.5004C31.0224 11.5464 31.4049 10.6814 32.0224 10.051V5.6582ZM21.4246 9.00043C21.4246 7.34357 22.7678 6.00043 24.4246 6.00043C26.0815 6.00043 27.4246 7.34357 27.4246 9.00043C27.4246 10.6573 26.0815 12.0004 24.4246 12.0004C22.7678 12.0004 21.4246 10.6573 21.4246 9.00043ZM24.4246 4.00043C21.6632 4.00043 19.4246 6.239 19.4246 9.00043C19.4246 10.9795 20.5745 12.6901 22.2426 13.5004H22.0805C20.0688 13.5004 18.253 14.7061 17.4723 16.5601L15.0435 22.3286C14.5589 23.4796 14.8194 24.8094 15.7024 25.6924C16.3587 26.3487 17.2602 26.66 18.1506 26.5798V26.6106V26.6469V26.6832V26.7197V26.7562V26.7929V26.8296V26.8665V26.9034V26.9404V26.9776V27.0148V27.0521V27.0895V27.1269V27.1645V27.2022V27.2399V27.2778V27.3157V27.3537V27.3918V27.4299V27.4682V27.5065V27.5449V27.5834V27.622V27.6606V27.6993V27.7381V27.777V27.816V27.855V27.8941V27.9333V27.9725V28.0119V28.0512V28.0907V28.1302V28.1698V28.2095V28.2492V28.289V28.3289V28.3688V28.4088V28.4489V28.489V28.5292V28.5694V28.6097V28.6501V28.6905V28.731V28.7715V28.8121V28.8527V28.8934V28.9342V28.975V29.0159V29.0568V29.0977V29.1388V29.1798V29.2209V29.2621V29.3033V29.3446V29.3858V29.4272V29.4686V29.51V29.5515V29.593V29.6346V29.6761V29.7178V29.7595V29.8012V29.8429V29.8847V29.9265V29.9684V30.0103V30.0522V30.0942V30.1361V30.1782V30.2202V30.2623V30.3044V30.3465V30.3887V30.4309V30.4731V30.5153V30.5576V30.5999V30.6422V30.6845V30.7269V30.7693V30.8117V30.8541V30.8965V30.9389V30.9814V31.0239V31.0664V31.1089V31.1514V31.194V31.2365V31.2791V31.3216V31.3642V31.4068V31.4494V31.492V31.5346V31.5772V31.6199V31.6625V31.7051V31.7477V31.7904V31.833V31.8757V31.9183V31.9609V32.0036V32.0462V32.0888V32.1314V32.1741V32.2167V32.2593V32.3019V32.3445V32.3871V32.4296V32.4722V32.5148V32.5573V32.5998V32.6423V32.6848V32.7273V32.7698V32.8123V32.8547V32.8971V32.9395V32.9819V33.0243V33.0666V33.1089V33.1512V33.1935V33.2358V33.278V33.3202V33.3624V33.4045V33.4466V33.4887V33.5308V33.5728V33.6148V33.6568V33.6987V33.7406V33.7825V33.8244V33.8662V33.9079V33.9497V33.9913V34.033V34.0746V34.1162V34.1577V34.1992V34.2407V34.2821V34.3234V34.3648V34.406V34.4473V34.4884V34.5296V34.5707V34.6117V34.6527V34.6936V34.7345V34.7753V34.8161V34.8568V34.8975V34.9381V34.9787V35.0192V35.0596V35.1V35.1404V35.1806V35.2208V35.261V35.3011V35.3411V35.381V35.4209V35.4608V35.5005V35.5402V35.5799V35.6194V35.6589V35.6983V35.7377V35.777V35.8162V35.8553V35.8944V35.9334V35.9723V36.0111V36.0499V36.0886V36.1272V36.1657V36.2042V36.2425V36.2808V36.319V36.3571V36.3952V36.4331V36.471V36.5088V36.5465V36.5841V36.6216V36.6591V36.6964V36.7337V36.7708V36.8079V36.8449V36.8818V36.9185V36.9552V36.9918V37.0283V37.0648V37.1011V37.1373V37.1734V37.2094V37.2453V37.2811V37.3168V37.3524V37.3879V37.4233V37.4586V37.4938V37.5289V37.5638V37.5987V37.6334V37.6681V37.7026V37.737V37.7713V37.8055V37.8396V37.8736V37.9074V37.9411V37.9748V38.0083V38.0416V38.0749V38.108V38.1411V38.174V38.2067V38.2394V38.2719V38.3043V38.3366V38.3687V38.4008V38.4327V38.4644V38.4961V38.5276V38.5589V38.5902V38.6213V38.6523V38.6831V38.7139V38.7444V38.7749V38.8052V38.8353V38.8654V38.8953V38.925V38.9546V38.9841V39.0134V39.0426V39.0716V39.1005V39.1293V39.1579V39.1864V39.2147V39.2428V39.2708V39.2987V39.3264V39.354V39.3814V39.4086V39.4357V39.4627V39.4895V39.5161V39.5426V39.5689V39.5951V39.6211V39.6469V39.6726V39.6981V39.7235V39.7487V39.7737V39.7986V39.8233V39.8479V39.8722V39.8964V39.9205V39.9444V39.9681V39.9916V40.0149V40.0381V40.0611V40.084V40.1067V40.1291V40.1515V40.1736V40.1956V40.2173V40.2389V40.2604V40.2816V40.3027V40.3236V40.3443V40.3648V40.3851V40.4053V40.4252V40.445V40.4646V40.484V40.5032V40.5222V40.5411V40.5597V40.5781V40.5964V40.6145V40.6323V40.65V40.6675V40.6848V40.7019V40.7187V40.7354V40.7519V40.7682V40.7843V40.8002V40.8159V40.8313V40.8466V40.8617V40.8766V40.8912V40.9057V40.9199V40.934V40.9478V40.9614V40.9748V40.988V41.001V41.0138V41.0263V41.0387V41.0508V41.0627V41.0744V41.0859V41.0971V41.1082V41.119V41.1296V41.1399V41.1501V41.16V41.1697V41.1792V41.1885V41.1975V41.2063V41.2149V41.2232V41.2313V41.2392V41.2469V41.2543V41.2615V41.2685V41.2752V41.2817V41.2879V41.294V41.2998V41.3053V41.3106V41.3157V41.3205V41.3251V41.3294V41.3335V41.3374V41.341V41.3444V41.3475V41.3504V41.3531V41.3554V41.3576V41.3595V41.3611V41.3625V41.3636V41.3645V41.3652V41.3656C18.1506 41.3656 18.1506 41.3657 19.1506 41.3657H18.1506C18.1506 42.817 19.3338 44.0003 20.7851 44.0003C22.2364 44.0003 23.4197 42.817 23.4197 41.3657V31.1928H25.4295V41.3657C25.4295 42.817 26.6128 44.0003 28.0641 44.0003C29.5154 44.0003 30.6987 42.817 30.6987 41.3657H29.6987C30.6987 41.3657 30.6987 41.3656 30.6987 41.3656V41.3652V41.3647V41.3639V41.3628V41.3616V41.3601V41.3584V41.3565V41.3544V41.352V41.3494V41.3466V41.3436V41.3403V41.3369V41.3332V41.3293V41.3252V41.3208V41.3163V41.3115V41.3065V41.3013V41.2959V41.2903V41.2845V41.2784V41.2721V41.2657V41.259V41.2521V41.245V41.2377V41.2302V41.2225V41.2145V41.2064V41.1981V41.1895V41.1808V41.1718V41.1627V41.1533V41.1437V41.134V41.124V41.1139V41.1035V41.0929V41.0822V41.0712V41.0601V41.0487V41.0372V41.0255V41.0135V41.0014V40.9891V40.9766V40.9639V40.951V40.9379V40.9246V40.9112V40.8975V40.8837V40.8696V40.8554V40.841V40.8264V40.8116V40.7967V40.7815V40.7662V40.7507V40.735V40.7192V40.7031V40.6869V40.6704V40.6539V40.6371V40.6201V40.603V40.5857V40.5682V40.5506V40.5327V40.5147V40.4966V40.4782V40.4597V40.441V40.4221V40.4031V40.3839V40.3645V40.3449V40.3252V40.3054V40.2853V40.2651V40.2447V40.2242V40.2034V40.1826V40.1615V40.1403V40.119V40.0974V40.0757V40.0539V40.0319V40.0097V39.9874V39.9649V39.9423V39.9195V39.8965V39.8734V39.8502V39.8267V39.8032V39.7794V39.7556V39.7315V39.7073V39.683V39.6585V39.6339V39.6091V39.5842V39.5591V39.5339V39.5085V39.483V39.4573V39.4315V39.4056V39.3795V39.3533V39.3269V39.3004V39.2737V39.2469V39.22V39.1929V39.1657V39.1383V39.1108V39.0832V39.0554V39.0275V38.9995V38.9713V38.943V38.9146V38.886V38.8573V38.8284V38.7995V38.7704V38.7412V38.7118V38.6823V38.6527V38.623V38.5931V38.5631V38.533V38.5028V38.4724V38.4419V38.4113V38.3806V38.3497V38.3188V38.2877V38.2564V38.2251V38.1937V38.1621V38.1304V38.0986V38.0667V38.0346V38.0025V37.9702V37.9378V37.9053V37.8727V37.84V37.8072V37.7743V37.7412V37.7081V37.6748V37.6414V37.6079V37.5743V37.5406V37.5068V37.4729V37.4389V37.4048V37.3706V37.3363V37.3018V37.2673V37.2327V37.1979V37.1631V37.1282V37.0932V37.058V37.0228V36.9875V36.9521V36.9166V36.881V36.8453V36.8095V36.7736V36.7376V36.7015V36.6654V36.6291V36.5928V36.5564V36.5198V36.4832V36.4465V36.4097V36.3729V36.3359V36.2989V36.2617V36.2245V36.1872V36.1499V36.1124V36.0749V36.0372V35.9995V35.9618V35.9239V35.886V35.8479V35.8099V35.7717V35.7334V35.6951V35.6567V35.6182V35.5797V35.5411V35.5024V35.4636V35.4248V35.3859V35.3469V35.3078V35.2687V35.2296V35.1903V35.151V35.1116V35.0721V35.0326V34.9931V34.9534V34.9137V34.8739V34.8341V34.7942V34.7542V34.7142V34.6742V34.634V34.5938V34.5536V34.5133V34.4729V34.4325V34.392V34.3515V34.3109V34.2702V34.2296V34.1888V34.148V34.1072V34.0663V34.0253V33.9843V33.9433V33.9022V33.861V33.8198V33.7786V33.7373V33.696V33.6546V33.6132V33.5717V33.5302V33.4887V33.4471V33.4055V33.3638V33.3221V33.2803V33.2386V33.1967V33.1549V33.113V33.071V33.0291V32.9871V32.945V32.9029V32.8608V32.8187V32.7765V32.7343V32.6921V32.6498V32.6075V32.5652V32.5229V32.4805V32.4381V32.3956V32.3532V32.3107V32.2682V32.2257V32.1831V32.1405V32.0979V32.0553V32.0127V31.97V31.9273V31.8846V31.8419V31.7992V31.7564V31.7136V31.6708V31.628V31.5852V31.5424V31.4995V31.4567V31.4138V31.3709V31.328V31.2851V31.2422V31.1993V31.1563V31.1134V31.0704V31.0275V30.9845V30.9416V30.8986V30.8556V30.8126V30.7696V30.7266V30.6836V30.6406V30.5976V30.5546V30.5117V30.4687V30.4257V30.3827V30.3397V30.2967V30.2537V30.2107V30.1678V30.1248V30.0818V30.0389V29.9959V29.953V29.9101V29.8671V29.8242V29.7813V29.7384V29.6956V29.6527V29.6098V29.567V29.5242V29.4814V29.4386V29.3958V29.353V29.3103V29.2676V29.2249V29.1822V29.1395V29.0969V29.0542V29.0116V28.969V28.9265V28.8839V28.8414V28.7989V28.7565V28.714V28.6716V28.6292V28.5869V28.5445V28.5022V28.4599V28.4177V28.3755V28.3333V28.2911V28.249V28.2069V28.1649V28.1229V28.0809V28.0389V27.997V27.9552V27.9133V27.8715V27.8298V27.788V27.7463V27.7047V27.6631V27.6215V27.58V27.5385V27.4971V27.4557V27.4144V27.3731V27.3318V27.2906V27.2495V27.2083V27.1673V27.1263V27.0853V27.0444V27.0035V26.9627V26.9219V26.8812V26.8406V26.7999V26.7594V26.7189V26.6785V26.6381V26.5977V26.5925C31.5878 26.6672 32.4855 26.3537 33.1399 25.6994C34.0271 24.8121 34.2889 23.476 33.802 22.3196L31.3769 16.5601C30.5962 14.7061 28.7804 13.5004 26.7687 13.5004H26.6067C28.2748 12.6901 29.4246 10.9795 29.4246 9.00043C29.4246 6.239 27.186 4.00043 24.4246 4.00043ZM29.6987 41.3657H28.6987C28.6987 41.7124 28.4108 42.0003 28.0641 42.0003C27.7174 42.0003 27.4295 41.7124 27.4295 41.3657V30.1928V29.1928H26.4295H22.4197H21.4197V30.1928V41.3657C21.4197 41.7124 21.1319 42.0003 20.7851 42.0003C20.4384 42.0003 20.1506 41.7124 20.1506 41.3657H19.1506C20.1506 41.3657 20.1506 41.3656 20.1506 41.3656V41.3652V41.3645V41.3636V41.3625V41.3611V41.3595V41.3576V41.3554V41.3531V41.3504V41.3475V41.3444V41.341V41.3374V41.3335V41.3294V41.3251V41.3205V41.3157V41.3106V41.3053V41.2998V41.294V41.2879V41.2817V41.2752V41.2685V41.2615V41.2543V41.2469V41.2392V41.2313V41.2232V41.2149V41.2063V41.1975V41.1885V41.1792V41.1697V41.16V41.1501V41.1399V41.1296V41.119V41.1082V41.0971V41.0859V41.0744V41.0627V41.0508V41.0387V41.0263V41.0138V41.001V40.988V40.9748V40.9614V40.9478V40.934V40.9199V40.9057V40.8912V40.8766V40.8617V40.8466V40.8313V40.8159V40.8002V40.7843V40.7682V40.7519V40.7354V40.7187V40.7019V40.6848V40.6675V40.65V40.6323V40.6145V40.5964V40.5781V40.5597V40.5411V40.5222V40.5032V40.484V40.4646V40.445V40.4252V40.4053V40.3851V40.3648V40.3443V40.3236V40.3027V40.2816V40.2604V40.2389V40.2173V40.1956V40.1736V40.1515V40.1291V40.1067V40.084V40.0611V40.0381V40.0149V39.9916V39.9681V39.9444V39.9205V39.8964V39.8722V39.8479V39.8233V39.7986V39.7737V39.7487V39.7235V39.6981V39.6726V39.6469V39.6211V39.5951V39.5689V39.5426V39.5161V39.4895V39.4627V39.4357V39.4086V39.3814V39.354V39.3264V39.2987V39.2708V39.2428V39.2147V39.1864V39.1579V39.1293V39.1005V39.0716V39.0426V39.0134V38.9841V38.9546V38.925V38.8953V38.8654V38.8353V38.8052V38.7749V38.7444V38.7139V38.6831V38.6523V38.6213V38.5902V38.5589V38.5276V38.4961V38.4644V38.4327V38.4008V38.3687V38.3366V38.3043V38.2719V38.2394V38.2067V38.174V38.1411V38.108V38.0749V38.0416V38.0083V37.9748V37.9411V37.9074V37.8736V37.8396V37.8055V37.7713V37.737V37.7026V37.6681V37.6334V37.5987V37.5638V37.5289V37.4938V37.4586V37.4233V37.3879V37.3524V37.3168V37.2811V37.2453V37.2094V37.1734V37.1373V37.1011V37.0648V37.0283V36.9918V36.9552V36.9185V36.8818V36.8449V36.8079V36.7708V36.7337V36.6964V36.6591V36.6216V36.5841V36.5465V36.5088V36.471V36.4331V36.3952V36.3571V36.319V36.2808V36.2425V36.2042V36.1657V36.1272V36.0886V36.0499V36.0111V35.9723V35.9334V35.8944V35.8553V35.8162V35.777V35.7377V35.6983V35.6589V35.6194V35.5799V35.5402V35.5005V35.4608V35.4209V35.381V35.3411V35.3011V35.261V35.2208V35.1806V35.1404V35.1V35.0596V35.0192V34.9787V34.9381V34.8975V34.8568V34.8161V34.7753V34.7345V34.6936V34.6527V34.6117V34.5707V34.5296V34.4884V34.4473V34.406V34.3648V34.3234V34.2821V34.2407V34.1992V34.1577V34.1162V34.0746V34.033V33.9913V33.9497V33.9079V33.8662V33.8244V33.7825V33.7406V33.6987V33.6568V33.6148V33.5728V33.5308V33.4887V33.4466V33.4045V33.3624V33.3202V33.278V33.2358V33.1935V33.1512V33.1089V33.0666V33.0243V32.9819V32.9395V32.8971V32.8547V32.8123V32.7698V32.7273V32.6848V32.6423V32.5998V32.5573V32.5148V32.4722V32.4296V32.3871V32.3445V32.3019V32.2593V32.2167V32.1741V32.1314V32.0888V32.0462V32.0036V31.9609V31.9183V31.8757V31.833V31.7904V31.7477V31.7051V31.6625V31.6199V31.5772V31.5346V31.492V31.4494V31.4068V31.3642V31.3216V31.2791V31.2365V31.194V31.1514V31.1089V31.0664V31.0239V30.9814V30.9389V30.8965V30.8541V30.8117V30.7693V30.7269V30.6845V30.6422V30.5999V30.5576V30.5153V30.4731V30.4309V30.3887V30.3465V30.3044V30.2623V30.2202V30.1782V30.1361V30.0942V30.0522V30.0103V29.9684V29.9265V29.8847V29.8429V29.8012V29.7595V29.7178V29.6761V29.6346V29.593V29.5515V29.51V29.4686V29.4272V29.3858V29.3446V29.3033V29.2621V29.2209V29.1798V29.1388V29.0977V29.0568V29.0159V28.975V28.9342V28.8934V28.8527V28.8121V28.7715V28.731V28.6905V28.6501V28.6097V28.5694V28.5292V28.489V28.4489V28.4088V28.3688V28.3289V28.289V28.2492V28.2095V28.1698V28.1302V28.0907V28.0512V28.0119V27.9725V27.9333V27.8941V27.855V27.816V27.777V27.7381V27.6993V27.6606V27.622V27.5834V27.5449V27.5065V27.4682V27.4299V27.3918V27.3537V27.3157V27.2778V27.2399V27.2022V27.1645V27.1269V27.0895V27.0521V27.0148V26.9776V26.9404V26.9034V26.8665V26.8296V26.7929V26.7562V26.7197V26.6832V26.6469V26.6106V26.5744V26.5384V26.5024V26.4665V26.4308V26.3951V26.3596V26.3241V26.2888V26.2535V26.2184V26.1834V26.1485V26.1136V26.0789V26.0444V26.0099V25.9755V25.9413V25.9071V25.8731V25.8598L24.3104 23.969L28.6987 25.8957V25.9214V25.9607V26V26.0394V26.0789V26.1184V26.158V26.1977V26.2374V26.2772V26.3171V26.357V26.397V26.437V26.4771V26.5173V26.5575V26.5977V26.6381V26.6785V26.7189V26.7594V26.7999V26.8406V26.8812V26.9219V26.9627V27.0035V27.0444V27.0853V27.1263V27.1673V27.2083V27.2495V27.2906V27.3318V27.3731V27.4144V27.4557V27.4971V27.5385V27.58V27.6215V27.6631V27.7047V27.7463V27.788V27.8298V27.8715V27.9133V27.9552V27.997V28.0389V28.0809V28.1229V28.1649V28.2069V28.249V28.2911V28.3333V28.3755V28.4177V28.4599V28.5022V28.5445V28.5869V28.6292V28.6716V28.714V28.7565V28.7989V28.8414V28.8839V28.9265V28.969V29.0116V29.0542V29.0969V29.1395V29.1822V29.2249V29.2676V29.3103V29.353V29.3958V29.4386V29.4814V29.5242V29.567V29.6098V29.6527V29.6956V29.7384V29.7813V29.8242V29.8671V29.9101V29.953V29.9959V30.0389V30.0818V30.1248V30.1678V30.2107V30.2537V30.2967V30.3397V30.3827V30.4257V30.4687V30.5117V30.5546V30.5976V30.6406V30.6836V30.7266V30.7696V30.8126V30.8556V30.8986V30.9416V30.9845V31.0275V31.0704V31.1134V31.1563V31.1993V31.2422V31.2851V31.328V31.3709V31.4138V31.4567V31.4995V31.5424V31.5852V31.628V31.6708V31.7136V31.7564V31.7992V31.8419V31.8846V31.9273V31.97V32.0127V32.0553V32.0979V32.1405V32.1831V32.2257V32.2682V32.3107V32.3532V32.3956V32.4381V32.4805V32.5229V32.5652V32.6075V32.6498V32.6921V32.7343V32.7765V32.8187V32.8608V32.9029V32.945V32.9871V33.0291V33.071V33.113V33.1549V33.1967V33.2386V33.2803V33.3221V33.3638V33.4055V33.4471V33.4887V33.5302V33.5717V33.6132V33.6546V33.696V33.7373V33.7786V33.8198V33.861V33.9022V33.9433V33.9843V34.0253V34.0663V34.1072V34.148V34.1888V34.2296V34.2702V34.3109V34.3515V34.392V34.4325V34.4729V34.5133V34.5536V34.5938V34.634V34.6742V34.7142V34.7542V34.7942V34.8341V34.8739V34.9137V34.9534V34.9931V35.0326V35.0721V35.1116V35.151V35.1903V35.2296V35.2687V35.3078V35.3469V35.3859V35.4248V35.4636V35.5024V35.5411V35.5797V35.6182V35.6567V35.6951V35.7334V35.7717V35.8099V35.8479V35.886V35.9239V35.9618V35.9995V36.0372V36.0749V36.1124V36.1499V36.1872V36.2245V36.2617V36.2989V36.3359V36.3729V36.4097V36.4465V36.4832V36.5198V36.5564V36.5928V36.6291V36.6654V36.7015V36.7376V36.7736V36.8095V36.8453V36.881V36.9166V36.9521V36.9875V37.0228V37.058V37.0932V37.1282V37.1631V37.1979V37.2327V37.2673V37.3018V37.3363V37.3706V37.4048V37.4389V37.4729V37.5068V37.5406V37.5743V37.6079V37.6414V37.6748V37.7081V37.7412V37.7743V37.8072V37.84V37.8727V37.9053V37.9378V37.9702V38.0025V38.0346V38.0667V38.0986V38.1304V38.1621V38.1937V38.2251V38.2564V38.2877V38.3188V38.3497V38.3806V38.4113V38.4419V38.4724V38.5028V38.533V38.5631V38.5931V38.623V38.6527V38.6823V38.7118V38.7412V38.7704V38.7995V38.8284V38.8573V38.886V38.9146V38.943V38.9713V38.9995V39.0275V39.0554V39.0832V39.1108V39.1383V39.1657V39.1929V39.22V39.2469V39.2737V39.3004V39.3269V39.3533V39.3795V39.4056V39.4315V39.4573V39.483V39.5085V39.5339V39.5591V39.5842V39.6091V39.6339V39.6585V39.683V39.7073V39.7315V39.7556V39.7794V39.8032V39.8267V39.8502V39.8734V39.8965V39.9195V39.9423V39.9649V39.9874V40.0097V40.0319V40.0539V40.0757V40.0974V40.119V40.1403V40.1615V40.1826V40.2034V40.2242V40.2447V40.2651V40.2853V40.3054V40.3252V40.3449V40.3645V40.3839V40.4031V40.4221V40.441V40.4597V40.4782V40.4966V40.5147V40.5327V40.5506V40.5682V40.5857V40.603V40.6201V40.6371V40.6539V40.6704V40.6869V40.7031V40.7192V40.735V40.7507V40.7662V40.7815V40.7967V40.8116V40.8264V40.841V40.8554V40.8696V40.8837V40.8975V40.9112V40.9246V40.9379V40.951V40.9639V40.9766V40.9891V41.0014V41.0135V41.0255V41.0372V41.0487V41.0601V41.0712V41.0822V41.0929V41.1035V41.1139V41.124V41.134V41.1437V41.1533V41.1627V41.1718V41.1808V41.1895V41.1981V41.2064V41.2145V41.2225V41.2302V41.2377V41.245V41.2521V41.259V41.2657V41.2721V41.2784V41.2845V41.2903V41.2959V41.3013V41.3065V41.3115V41.3163V41.3208V41.3252V41.3293V41.3332V41.3369V41.3403V41.3436V41.3466V41.3494V41.352V41.3544V41.3565V41.3584V41.3601V41.3616V41.3628V41.3639V41.3647V41.3652V41.3656C28.6987 41.3656 28.6987 41.3657 29.6987 41.3657ZM36.9635 18.9535C39.4747 21.4647 39.4747 25.5362 36.9635 28.0475L38.3777 29.4617C41.67 26.1694 41.67 20.8316 38.3777 17.5393L36.9635 18.9535ZM11.8818 28.0434C9.37273 25.5343 9.37273 21.4663 11.8818 18.9573L10.4676 17.5431C7.17747 20.8332 7.17747 26.1675 10.4676 29.4576L11.8818 28.0434ZM13.9888 21.0644C12.6434 22.4098 12.6434 24.5911 13.9888 25.9365L12.5746 27.3507C10.4481 25.2243 10.4481 21.7766 12.5746 19.6502L13.9888 21.0644ZM34.8525 21.0644C36.1979 22.4098 36.1979 24.5911 34.8525 25.9365L36.2667 27.3507C38.3932 25.2243 38.3932 21.7766 36.2667 19.6502L34.8525 21.0644ZM22.0805 15.5004C20.8735 15.5004 19.784 16.2238 19.3156 17.3363L16.8868 23.1048C16.7177 23.5063 16.8086 23.9702 17.1166 24.2782C17.4325 24.5941 17.9111 24.6809 18.3177 24.496L26.0117 20.9988C26.5486 20.7547 26.7595 20.102 26.4669 19.5899C26.2091 19.1388 25.6492 18.9597 25.1774 19.1774L20.3437 21.4084L19.5056 19.5925L24.3393 17.3615C25.753 16.709 27.4309 17.2458 28.2034 18.5976C29.0802 20.1321 28.4482 22.0882 26.8393 22.8195L26.7548 22.8579L30.5212 24.5116C30.931 24.6915 31.4092 24.6016 31.7257 24.2851C32.0379 23.9729 32.13 23.5027 31.9587 23.0958L29.5336 17.3363C29.0652 16.2238 27.9757 15.5004 26.7687 15.5004H22.0805Z" fill="#333333"/>
</svg>
