<svg width="48" height="48" viewBox="0 0 48 48" fill="none" xmlns="http://www.w3.org/2000/svg">
<path d="M22.187 42.9998L17.8293 29.0918C17.7265 28.8826 17.5 28.7787 17.2884 28.8303C14.9162 29.4089 12.5592 30.2818 10.808 31.4317C9.04534 32.5891 8 33.9535 8 35.5V43H39V35.5C39 33.9535 37.9547 32.5891 36.192 31.4317C34.4408 30.2818 32.0838 29.4089 29.7116 28.8303C29.5 28.7787 29.2735 28.8826 29.1707 29.0918L24.813 43M31 16.5C31 20.6439 27.6439 24 23.5 24C19.3561 24 16 20.6439 16 16.5C16 12.3561 19.3561 9 23.5 9C27.6439 9 31 12.3561 31 16.5Z" stroke="#333333" stroke-width="2"/>
<path d="M20.5 27.5H26.5L25.5 30.5H21.5L20.5 27.5Z" fill="#333333"/>
<path d="M21.5 38.5L22.5 29H24.5L26 38.5L25 42.5H22.5L21.5 38.5Z" fill="#333333"/>
</svg>
