<svg width="48" height="48" viewBox="0 0 48 48" fill="none" xmlns="http://www.w3.org/2000/svg">
<path d="M27.296 19.656C27.6157 19.6518 27.9209 19.5218 28.1455 19.2943C28.3701 19.0667 28.496 18.7598 28.496 18.44C28.4618 18.1436 28.3198 17.8701 28.0971 17.6715C27.8743 17.473 27.5863 17.3633 27.288 17.3633C26.9896 17.3633 26.7016 17.473 26.4788 17.6715C26.2561 17.8701 26.1141 18.1436 26.08 18.44C26.0841 18.7612 26.2135 19.0681 26.4407 19.2953C26.6678 19.5224 26.9747 19.6519 27.296 19.656Z" fill="#333333"/>
<path d="M33.0719 16.3115C32.7522 16.3157 32.447 16.4457 32.2224 16.6733C31.9978 16.9009 31.8719 17.2078 31.8719 17.5275C31.8719 17.8458 31.9984 18.151 32.2234 18.3761C32.4485 18.6011 32.7537 18.7275 33.0719 18.7275C33.3917 18.7276 33.6986 18.6016 33.9262 18.377C34.1538 18.1524 34.2837 17.8472 34.2879 17.5275C34.2838 17.2063 34.1544 16.8994 33.9272 16.6723C33.7001 16.4451 33.3932 16.3157 33.0719 16.3115Z" fill="#333333"/>
<path d="M39.344 13.0798C39.5078 13.0779 39.6696 13.0428 39.8196 12.9768C39.9696 12.9108 40.1047 12.8151 40.2168 12.6956C40.3289 12.576 40.4156 12.435 40.4718 12.2811C40.5281 12.1272 40.5526 11.9634 40.544 11.7998C40.5461 11.6416 40.5165 11.4846 40.457 11.338C40.3975 11.1915 40.3091 11.0583 40.1973 10.9465C40.0854 10.8346 39.9523 10.7463 39.8057 10.6868C39.6592 10.6272 39.5021 10.5976 39.344 10.5998C39.1737 10.5802 39.0011 10.5968 38.8377 10.6485C38.6742 10.7003 38.5236 10.786 38.3956 10.9001C38.2676 11.0141 38.1652 11.154 38.0951 11.3104C38.025 11.4669 37.9887 11.6364 37.9887 11.8078C37.9887 11.9792 38.025 12.1487 38.0951 12.3052C38.1652 12.4616 38.2676 12.6015 38.3956 12.7155C38.5236 12.8296 38.6742 12.9153 38.8377 12.9671C39.0011 13.0188 39.1737 13.0354 39.344 13.0158V13.0798Z" fill="#333333"/>
<path d="M40.096 16.7603C40.0991 16.5192 40.0305 16.2825 39.8988 16.0804C39.7672 15.8784 39.5784 15.72 39.3565 15.6255C39.1346 15.531 38.8896 15.5047 38.6527 15.5498C38.4158 15.5949 38.1976 15.7094 38.0259 15.8788C37.8543 16.0482 37.7369 16.2648 37.6886 16.5011C37.6404 16.7375 37.6635 16.9828 37.7551 17.2059C37.8466 17.429 38.0024 17.6199 38.2028 17.7542C38.4031 17.8886 38.6388 17.9603 38.88 17.9603C39.1997 17.9603 39.5066 17.8344 39.7342 17.6098C39.9618 17.3852 40.0917 17.08 40.096 16.7603Z" fill="#333333"/>
<path d="M44.304 8.3436C44.0749 8.28222 43.8327 8.29013 43.608 8.36635C43.3833 8.44256 43.1863 8.58366 43.0418 8.7718C42.8973 8.95995 42.8118 9.18671 42.7961 9.42342C42.7805 9.66014 42.8353 9.89619 42.9537 10.1017C43.0721 10.3073 43.2488 10.4732 43.4615 10.5783C43.6741 10.6835 43.9132 10.7233 44.1484 10.6927C44.3837 10.6621 44.6046 10.5624 44.7832 10.4063C44.9618 10.2502 45.0902 10.0446 45.152 9.8156C45.1931 9.66327 45.2038 9.50431 45.1835 9.34784C45.1631 9.19137 45.1121 9.04045 45.0333 8.90372C44.9545 8.76699 44.8496 8.64714 44.7244 8.55103C44.5993 8.45492 44.4564 8.38443 44.304 8.3436Z" fill="#333333"/>
<path d="M31.2479 20.2162C31.0956 20.1728 30.9361 20.1604 30.7789 20.1798C30.6217 20.1992 30.4699 20.2499 30.3327 20.329C30.1954 20.408 30.0754 20.5138 29.9798 20.6401C29.8842 20.7664 29.8148 20.9106 29.7759 21.0642C29.7348 21.2165 29.7241 21.3755 29.7445 21.5319C29.7648 21.6884 29.8159 21.8393 29.8946 21.976C29.9734 22.1128 30.0784 22.2326 30.2035 22.3287C30.3287 22.4248 30.4715 22.4953 30.6239 22.5362C30.9337 22.6197 31.2639 22.5774 31.5426 22.4186C31.8213 22.2597 32.0259 21.9972 32.1119 21.6882C32.1528 21.5348 32.1628 21.3748 32.1414 21.2175C32.1201 21.0602 32.0677 20.9087 31.9873 20.7718C31.9069 20.6348 31.8002 20.5152 31.6733 20.4199C31.5464 20.3245 31.4018 20.2553 31.2479 20.2162Z" fill="#333333"/>
<path d="M36.672 20.4556C36.5196 20.4144 36.3607 20.4037 36.2042 20.4241C36.0477 20.4445 35.8968 20.4955 35.7601 20.5743C35.6234 20.653 35.5035 20.758 35.4074 20.8831C35.3113 21.0083 35.2408 21.1511 35.2 21.3036C35.1172 21.6112 35.1601 21.9391 35.3191 22.2152C35.4782 22.4912 35.7403 22.6928 36.048 22.7756C36.3556 22.8583 36.6836 22.8155 36.9596 22.6564C37.2357 22.4974 37.4372 22.2352 37.52 21.9276C37.5611 21.7752 37.5718 21.6163 37.5514 21.4598C37.5311 21.3033 37.4801 21.1524 37.4013 21.0157C37.3225 20.879 37.2176 20.7591 37.0924 20.663C36.9673 20.5669 36.8244 20.4964 36.672 20.4556Z" fill="#333333"/>
<path d="M43.872 18.5836C43.6399 18.519 43.3938 18.5248 43.165 18.6003C42.9362 18.6757 42.735 18.8174 42.5869 19.0075C42.4387 19.1975 42.3504 19.4272 42.3331 19.6675C42.3157 19.9078 42.3701 20.1478 42.4894 20.3571C42.6087 20.5665 42.7875 20.7356 43.0031 20.8432C43.2187 20.9507 43.4613 20.9918 43.7003 20.9612C43.9393 20.9306 44.1638 20.8297 44.3453 20.6713C44.5269 20.513 44.6573 20.3042 44.72 20.0716C44.7635 19.9182 44.7761 19.7577 44.7569 19.5994C44.7377 19.4411 44.6871 19.2882 44.6082 19.1497C44.5292 19.0111 44.4235 18.8897 44.2971 18.7925C44.1707 18.6953 44.0261 18.6243 43.872 18.5836Z" fill="#333333"/>
<path d="M40.512 23.5116C40.2023 23.5978 39.9386 23.8017 39.7772 24.0798C39.6158 24.3578 39.5694 24.6879 39.648 24.9996C39.734 25.3086 39.9387 25.5711 40.2174 25.73C40.4961 25.8888 40.8262 25.9311 41.136 25.8476C41.2884 25.8067 41.4313 25.7363 41.5564 25.6401C41.6816 25.544 41.7865 25.4242 41.8653 25.2875C41.944 25.1507 41.9951 24.9998 42.0154 24.8433C42.0358 24.6869 42.0251 24.5279 41.984 24.3756C41.9012 24.0671 41.7005 23.8036 41.425 23.6419C41.1496 23.4803 40.8216 23.4334 40.512 23.5116Z" fill="#333333"/>
<path d="M29.5679 15.8962C29.8476 15.7881 30.0776 15.5805 30.2135 15.3132C30.3494 15.0459 30.3818 14.7378 30.3044 14.4481C30.2271 14.1584 30.0453 13.9075 29.7942 13.7436C29.5431 13.5797 29.2403 13.5144 28.9439 13.5602C28.6355 13.6429 28.3719 13.8437 28.2103 14.1191C28.0486 14.3945 28.0018 14.7225 28.0799 15.0322C28.1189 15.1878 28.1887 15.334 28.2851 15.4622C28.3815 15.5904 28.5027 15.6979 28.6414 15.7785C28.7802 15.859 28.9336 15.9109 29.0928 15.9311C29.2519 15.9514 29.4135 15.9395 29.5679 15.8962Z" fill="#333333"/>
<path d="M19.5679 17.8962C19.8476 17.7881 20.0776 17.5805 20.2135 17.3132C20.3494 17.0459 20.3818 16.7378 20.3044 16.4481C20.2271 16.1584 20.0453 15.9075 19.7942 15.7436C19.5431 15.5797 19.2403 15.5144 18.9439 15.5602C18.6355 15.6429 18.3719 15.8437 18.2103 16.1191C18.0486 16.3945 18.0018 16.7225 18.0799 17.0322C18.1189 17.1878 18.1887 17.334 18.2851 17.4622C18.3815 17.5904 18.5027 17.6979 18.6414 17.7785C18.7802 17.859 18.9336 17.9109 19.0928 17.9311C19.2519 17.9514 19.4135 17.9395 19.5679 17.8962Z" fill="#333333"/>
<path d="M16.5679 19.8962C16.8476 19.7881 17.0776 19.5805 17.2135 19.3132C17.3494 19.0459 17.3818 18.7378 17.3044 18.4481C17.2271 18.1584 17.0453 17.9075 16.7942 17.7436C16.5431 17.5797 16.2403 17.5144 15.9439 17.5602C15.6355 17.6429 15.3719 17.8437 15.2103 18.1191C15.0486 18.3945 15.0018 18.7225 15.0799 19.0322C15.1189 19.1878 15.1887 19.334 15.2851 19.4622C15.3815 19.5904 15.5027 19.6979 15.6414 19.7785C15.7802 19.859 15.9336 19.9109 16.0928 19.9311C16.2519 19.9514 16.4135 19.9395 16.5679 19.8962Z" fill="#333333"/>
<path d="M35.648 12.3281C35.5617 12.0185 35.3578 11.7548 35.0798 11.5933C34.8018 11.4319 34.4717 11.3856 34.16 11.4641C33.851 11.5502 33.5884 11.7548 33.4296 12.0335C33.2708 12.3122 33.2285 12.6424 33.312 12.9521C33.3528 13.1046 33.4233 13.2474 33.5194 13.3726C33.6155 13.4977 33.7354 13.6027 33.8721 13.6814C34.0089 13.7602 34.1598 13.8112 34.3162 13.8316C34.4727 13.852 34.6317 13.8413 34.784 13.8001C35.0925 13.7174 35.356 13.5166 35.5177 13.2412C35.6793 12.9658 35.7261 12.6378 35.648 12.3281Z" fill="#333333"/>
<path d="M35.664 8.60006C35.9823 8.51731 36.2546 8.31152 36.4211 8.02797C36.5877 7.74441 36.6348 7.40632 36.552 7.08806C36.4693 6.7698 36.2635 6.49744 35.9799 6.33091C35.6964 6.16438 35.3583 6.11731 35.04 6.20006C34.7315 6.2828 34.468 6.48357 34.3063 6.759C34.1447 7.03442 34.0979 7.3624 34.176 7.67206C34.2077 7.83342 34.2722 7.98655 34.3655 8.12195C34.4588 8.25734 34.579 8.37211 34.7185 8.45913C34.858 8.54615 35.014 8.60356 35.1766 8.6278C35.3393 8.65205 35.5052 8.6426 35.664 8.60006Z" fill="#333333"/>
<path d="M18.696 21.8481C18.696 22.4003 19.1437 22.8481 19.696 22.8481H23.0612C23.9158 22.8672 24.7582 23.055 25.5401 23.4008C26.325 23.748 27.0333 24.2474 27.6238 24.8702C28.2143 25.493 28.6755 26.2267 28.9804 27.029C29.2854 27.8312 29.4282 28.686 29.4005 29.5438C29.4001 29.5545 29.4 29.5653 29.4 29.5761V42.8001H3.27197V28.5494C3.31434 27.0225 3.95084 25.5722 5.04633 24.5073C6.14476 23.4395 7.61742 22.844 9.14931 22.8481H9.15197H12.096C12.6483 22.8481 13.096 22.4003 13.096 21.8481V16.9521C13.096 16.6441 12.9541 16.3533 12.7113 16.1638C11.7086 15.3811 10.9754 14.3047 10.6143 13.085C10.2531 11.8653 10.2821 10.5633 10.697 9.36086C11.1119 8.15841 11.8922 7.11565 12.9287 6.37827C13.9644 5.64147 15.2042 5.24636 16.4752 5.24805C17.791 5.25885 19.0692 5.6891 20.1237 6.47628C21.1735 7.25993 21.9472 8.35661 22.3334 9.60803C22.3842 9.81052 22.4511 10.2631 22.5096 10.735C22.5378 10.9628 22.5617 11.1746 22.5786 11.3298C22.587 11.4072 22.5937 11.4702 22.5982 11.5136L22.6033 11.5633L22.6046 11.5758L22.6049 11.5788L22.6049 11.5795L22.6049 11.5796C22.6049 11.5796 22.6049 11.5796 22.6049 11.5796C22.6135 11.6648 22.6329 11.7485 22.6627 11.8288C22.9237 12.5301 23.2002 13.2131 23.4705 13.8811L23.4712 13.8828L23.8534 14.8542C23.8683 14.892 23.8855 14.9289 23.9049 14.9647C23.9458 15.0402 23.9808 15.1188 24.0095 15.1995C23.9794 15.202 23.9494 15.2042 23.9203 15.2061C23.9116 15.2066 23.9033 15.2071 23.8953 15.2076C23.8066 15.1819 23.7129 15.1681 23.616 15.1681C23.0637 15.1681 22.616 15.6158 22.616 16.1681V18.0048C22.6126 18.4838 22.4202 18.942 22.0805 19.2798C21.7402 19.6182 21.2798 19.8081 20.8 19.8081H19.696C19.1437 19.8081 18.696 20.2558 18.696 20.8081V21.8481Z" stroke="#333333" stroke-width="2" stroke-linejoin="round"/>
<path d="M24.2422 40.0562C24.3453 39.9921 24.4314 39.904 24.493 39.7995C25.261 38.6315 25.485 34.8875 24.557 31.7515C23.709 28.9035 21.117 26.1035 19.325 26.1035C19.1985 26.0971 19.0722 26.1198 18.9557 26.1697C18.8392 26.2196 18.7357 26.2955 18.653 26.3915C18.189 26.9035 18.333 27.9915 18.333 29.1435V29.7835C18.237 29.7035 18.237 29.9915 18.237 30.3595V30.3595C18.1661 30.315 18.1015 30.2612 18.045 30.1995C17.1719 28.8002 16.7787 27.1544 16.925 25.5115V25.0635V23.6235C16.9385 23.5309 16.9335 23.4366 16.9101 23.346C16.8867 23.2554 16.8455 23.1704 16.7889 23.0959C16.7323 23.0214 16.6614 22.959 16.5804 22.9122C16.4994 22.8654 16.4098 22.8353 16.317 22.8235H16.157C16.104 22.8154 16.0501 22.8154 15.997 22.8235C15.8083 22.8512 15.6382 22.9527 15.5242 23.1057C15.4102 23.2587 15.3616 23.4507 15.389 23.6395C15.469 23.9755 15.469 24.4555 15.469 25.0315V25.5595C15.5812 27.193 15.1662 28.8194 14.285 30.1995L14.205 30.4235C14.205 30.0395 14.109 29.7515 14.109 29.8315V29.1915C14.173 28.0395 14.253 26.9515 13.789 26.4395C13.7049 26.3453 13.6011 26.2707 13.485 26.2209C13.3689 26.1711 13.2433 26.1474 13.117 26.1515C11.325 26.1515 8.73304 28.9515 7.88504 31.7995C6.90904 34.9995 7.10104 38.6795 7.88504 39.7995C7.94089 39.8974 8.01946 39.9805 8.11413 40.0418C8.2088 40.103 8.3168 40.1407 8.42904 40.1515C8.73084 40.1405 9.01702 40.0145 9.22904 39.7995L9.54904 39.4155C10.0502 39.0889 10.587 38.8205 11.149 38.6155C12.269 38.1195 13.341 37.6875 13.341 36.5195V35.9755V34.9675C13.3802 34.4657 13.4605 33.9681 13.581 33.4795C13.7015 33.0118 13.7871 32.5358 13.837 32.0555C14.3314 31.9234 14.7798 31.6577 15.133 31.2875C15.527 30.8708 15.8367 30.3818 16.045 29.8475C16.2534 30.3818 16.563 30.8708 16.957 31.2875C17.3136 31.6616 17.7683 31.9277 18.269 32.0555C18.3202 32.5346 18.4004 33.0101 18.509 33.4795C18.6333 33.968 18.7189 34.4655 18.765 34.9675C18.7846 35.3032 18.7846 35.6398 18.765 35.9755V36.5195C18.765 37.6826 19.828 38.1317 20.9587 38.6094L20.973 38.6155C21.5355 38.8194 22.0724 39.0879 22.573 39.4155L23.101 39.7995C23.202 39.9124 23.3251 40.0034 23.4628 40.0667C23.6004 40.13 23.7496 40.1643 23.901 40.1675C24.0221 40.1585 24.1392 40.1203 24.2422 40.0562Z" fill="#333333"/>
</svg>
