<svg width="48" height="48" viewBox="0 0 48 48" fill="none" xmlns="http://www.w3.org/2000/svg">
<mask id="path-1-inside-1" fill="white">
<path fill-rule="evenodd" clip-rule="evenodd" d="M41.9999 8C40.3431 8 38.9999 9.34315 38.9999 11V21.3727C37.9128 22.2695 37.2222 23.6114 37.2222 25.1111C37.2222 27.8112 39.4607 30 42.2222 30C44.9836 30 47.2222 27.8112 47.2222 25.1111C47.2222 23.4161 46.3399 21.9225 44.9999 21.0455V11C44.9999 9.34315 43.6568 8 41.9999 8Z"/>
</mask>
<path d="M38.9999 21.3727L40.2726 22.9155L40.9999 22.3155V21.3727H38.9999ZM44.9999 21.0455H42.9999V22.1268L43.9047 22.7189L44.9999 21.0455ZM40.9999 11C40.9999 10.4477 41.4477 10 41.9999 10V6C39.2385 6 36.9999 8.23858 36.9999 11H40.9999ZM40.9999 21.3727V11H36.9999V21.3727H40.9999ZM39.2222 25.1111C39.2222 24.2427 39.619 23.4547 40.2726 22.9155L37.7273 19.8298C36.2065 21.0843 35.2222 22.9802 35.2222 25.1111H39.2222ZM42.2222 28C40.5227 28 39.2222 26.6645 39.2222 25.1111H35.2222C35.2222 28.9579 38.3988 32 42.2222 32V28ZM45.2222 25.1111C45.2222 26.6645 43.9216 28 42.2222 28V32C46.0456 32 49.2222 28.9579 49.2222 25.1111H45.2222ZM43.9047 22.7189C44.7152 23.2494 45.2222 24.1317 45.2222 25.1111H49.2222C49.2222 22.7005 47.9646 20.5956 46.0952 19.372L43.9047 22.7189ZM42.9999 11V21.0455H46.9999V11H42.9999ZM41.9999 10C42.5522 10 42.9999 10.4477 42.9999 11H46.9999C46.9999 8.23858 44.7614 6 41.9999 6V10Z" fill="#333333" mask="url(#path-1-inside-1)"/>
<rect x="40.4814" y="14.5186" width="3.25926" height="13.8519" fill="#333333"/>
<circle cx="42.037" cy="25.0371" r="4" fill="#333333"/>
<path d="M16 34C16 34 17.6 30 24 30C30.4 30 32 34 32 34" stroke="#333333" stroke-width="2" stroke-linecap="round" stroke-linejoin="round"/>
<path fill-rule="evenodd" clip-rule="evenodd" d="M41.0161 29.8846C38.578 36.936 31.8804 42 24 42C14.0589 42 6 33.9411 6 24C6 14.0589 14.0589 6 24 6C30.2609 6 35.7752 9.19653 39 14.0466V11C39 10.926 39.0027 10.8526 39.008 10.7799C35.343 6.62257 29.9778 4 24 4C12.9543 4 4 12.9543 4 24C4 35.0457 12.9543 44 24 44C32.9904 44 40.5954 38.0679 43.1142 29.9043C42.7906 29.9671 42.4561 30 42.1136 30C41.7369 30 41.3697 29.9602 41.0161 29.8846Z" fill="#333333"/>
<path d="M14 21C15.5 20.5 16.5 20 18 19" stroke="#333333" stroke-width="2" stroke-linecap="round"/>
<path d="M34 21C32.5 20.5 31.5 20 30 19" stroke="#333333" stroke-width="2" stroke-linecap="round"/>
<path d="M39 7L38 6" stroke="#333333" stroke-width="2" stroke-linecap="round"/>
<path d="M42 6V4" stroke="#333333" stroke-width="2" stroke-linecap="round"/>
<path d="M45 7L46 6" stroke="#333333" stroke-width="2" stroke-linecap="round"/>
<path d="M20 31L11 27" stroke="#333333" stroke-width="2"/>
<circle cx="11.0749" cy="27.0745" r="2" transform="rotate(-2.18873 11.0749 27.0745)" fill="#333333"/>
</svg>
