<svg width="48" height="48" viewBox="0 0 48 48" fill="none" xmlns="http://www.w3.org/2000/svg">
<path d="M37 11V11C37 9.34315 35.6569 8 34 8H30C28.3431 8 27 9.34315 27 11V11C27 12.6569 28.3431 14 30 14H34C35.6569 14 37 15.3431 37 17V17C37 18.6569 35.6569 20 34 20H30C28.3431 20 27 18.6569 27 17V17" stroke="#333333" stroke-width="2"/>
<path d="M32 5L32 23" stroke="#333333" stroke-width="2"/>
<path d="M21 36C21 34.8954 21.8954 34 23 34H41C42.1046 34 43 34.8954 43 36V40H21V36Z" stroke="#333333" stroke-width="2"/>
<path d="M21 40L21 44" stroke="#333333" stroke-width="2"/>
<path d="M43 40L43 44" stroke="#333333" stroke-width="2"/>
<path d="M40 27L40 33" stroke="#333333" stroke-width="2"/>
<path d="M29 29L29 33" stroke="#333333" stroke-width="2"/>
<path d="M35 29L35 33" stroke="#333333" stroke-width="2"/>
<path d="M24 27L24 33" stroke="#333333" stroke-width="2"/>
<path d="M24 29L40 29" stroke="#333333" stroke-width="2"/>
<mask id="path-11-inside-1" fill="white">
<path fill-rule="evenodd" clip-rule="evenodd" d="M11 11C12.1046 11 13 10.1046 13 9C13 7.89543 12.1046 7 11 7C9.89543 7 9 7.89543 9 9C9 10.1046 9.89543 11 11 11ZM11 13C13.2091 13 15 11.2091 15 9C15 6.79086 13.2091 5 11 5C8.79086 5 7 6.79086 7 9C7 11.2091 8.79086 13 11 13Z"/>
</mask>
<path fill-rule="evenodd" clip-rule="evenodd" d="M11 11C12.1046 11 13 10.1046 13 9C13 7.89543 12.1046 7 11 7C9.89543 7 9 7.89543 9 9C9 10.1046 9.89543 11 11 11ZM11 13C13.2091 13 15 11.2091 15 9C15 6.79086 13.2091 5 11 5C8.79086 5 7 6.79086 7 9C7 11.2091 8.79086 13 11 13Z" fill="#333333"/>
<path d="M11 9V13C13.2091 13 15 11.2091 15 9H11ZM11 9H15C15 6.79086 13.2091 5 11 5V9ZM11 9V5C8.79086 5 7 6.79086 7 9H11ZM11 9H7C7 11.2091 8.79086 13 11 13V9ZM13 9C13 10.1046 12.1046 11 11 11V15C14.3137 15 17 12.3137 17 9H13ZM11 7C12.1046 7 13 7.89543 13 9H17C17 5.68629 14.3137 3 11 3V7ZM9 9C9 7.89543 9.89543 7 11 7V3C7.68629 3 5 5.68629 5 9H9ZM11 11C9.89543 11 9 10.1046 9 9H5C5 12.3137 7.68629 15 11 15V11Z" fill="#333333" mask="url(#path-11-inside-1)"/>
<mask id="path-13-inside-2" fill="white">
<path fill-rule="evenodd" clip-rule="evenodd" d="M13.1211 26H15.541C16.1496 26 16.617 25.461 16.531 24.8586L15.3881 16.8586C15.3177 16.3659 14.8958 16 14.3981 16H7.60192C7.10426 16 6.68235 16.3659 6.61197 16.8586L5.46911 24.8586C5.38305 25.461 5.85051 26 6.45906 26H8.87893L9.87893 42H12.1211L13.1211 26ZM7.00003 28H6.45906C4.63341 28 3.23103 26.383 3.48921 24.5757L4.63207 16.5757C4.8432 15.0978 6.10897 14 7.60192 14H14.3981C15.8911 14 17.1569 15.0978 17.368 16.5757L18.5109 24.5757C18.769 26.383 17.3666 28 15.541 28H15L14.1172 42.1248C14.0514 43.1788 13.1773 44 12.1211 44H9.87893C8.82281 44 7.94871 43.1788 7.88283 42.1248L7.00003 28Z"/>
</mask>
<path fill-rule="evenodd" clip-rule="evenodd" d="M13.1211 26H15.541C16.1496 26 16.617 25.461 16.531 24.8586L15.3881 16.8586C15.3177 16.3659 14.8958 16 14.3981 16H7.60192C7.10426 16 6.68235 16.3659 6.61197 16.8586L5.46911 24.8586C5.38305 25.461 5.85051 26 6.45906 26H8.87893L9.87893 42H12.1211L13.1211 26ZM7.00003 28H6.45906C4.63341 28 3.23103 26.383 3.48921 24.5757L4.63207 16.5757C4.8432 15.0978 6.10897 14 7.60192 14H14.3981C15.8911 14 17.1569 15.0978 17.368 16.5757L18.5109 24.5757C18.769 26.383 17.3666 28 15.541 28H15L14.1172 42.1248C14.0514 43.1788 13.1773 44 12.1211 44H9.87893C8.82281 44 7.94871 43.1788 7.88283 42.1248L7.00003 28Z" fill="#333333"/>
<path d="M13.1211 26V24H11.2422L11.125 25.8752L13.1211 26ZM16.531 24.8586L18.5109 24.5757L16.531 24.8586ZM15.3881 16.8586L13.4082 17.1414V17.1414L15.3881 16.8586ZM6.61197 16.8586L8.59187 17.1414V17.1414L6.61197 16.8586ZM5.46911 24.8586L3.48921 24.5757H3.48921L5.46911 24.8586ZM8.87893 26L10.875 25.8752L10.7578 24H8.87893V26ZM9.87893 42L7.88283 42.1248L8.00003 44H9.87893V42ZM12.1211 42V44H14L14.1172 42.1248L12.1211 42ZM7.00003 28L8.99614 27.8752L8.87893 26H7.00003V28ZM3.48921 24.5757L1.50931 24.2929L3.48921 24.5757ZM4.63207 16.5757L6.61197 16.8586L4.63207 16.5757ZM17.368 16.5757L15.3881 16.8586V16.8586L17.368 16.5757ZM18.5109 24.5757L20.4907 24.2929L18.5109 24.5757ZM15 28V26H13.1211L13.0039 27.8752L15 28ZM14.1172 42.1248L16.1133 42.2495V42.2495L14.1172 42.1248ZM7.88283 42.1248L9.87893 42L7.88283 42.1248ZM14.5511 25.1414C14.465 24.539 14.9325 24 15.541 24V28C17.3667 28 18.769 26.383 18.5109 24.5757L14.5511 25.1414ZM13.4082 17.1414L14.5511 25.1414L18.5109 24.5757L17.368 16.5757L13.4082 17.1414ZM14.3981 18C13.9005 18 13.4786 17.6341 13.4082 17.1414L17.368 16.5757C17.1569 15.0978 15.8911 14 14.3981 14V18ZM7.60192 18H14.3981V14H7.60192V18ZM8.59187 17.1414C8.52149 17.6341 8.09956 18 7.60192 18V14C6.10896 14 4.8432 15.0978 4.63207 16.5757L8.59187 17.1414ZM7.44901 25.1414L8.59187 17.1414L4.63207 16.5757L3.48921 24.5757L7.44901 25.1414ZM6.45906 24C7.06761 24 7.53507 24.539 7.44901 25.1414L3.48921 24.5757C3.23103 26.383 4.63341 28 6.45906 28V24ZM12.1211 40H9.87893V44H12.1211V40ZM6.45906 30H7.00003V26H6.45906V30ZM1.50931 24.2929C1.079 27.3051 3.41631 30 6.45906 30V26C5.85051 26 5.38305 25.461 5.46911 24.8586L1.50931 24.2929ZM2.65217 16.2929L1.50931 24.2929L5.46911 24.8586L6.61197 16.8586L2.65217 16.2929ZM7.60192 12C5.11367 12 3.00406 13.8296 2.65217 16.2929L6.61197 16.8586C6.68235 16.3659 7.10426 16 7.60192 16V12ZM14.3981 12H7.60192V16H14.3981V12ZM19.3479 16.2929C18.996 13.8296 16.8864 12 14.3981 12V16C14.8958 16 15.3177 16.3659 15.3881 16.8586L19.3479 16.2929ZM20.4907 24.2929L19.3479 16.2929L15.3881 16.8586L16.531 24.8586L20.4907 24.2929ZM15.541 30C18.5837 30 20.9211 27.3051 20.4907 24.2929L16.531 24.8586C16.617 25.461 16.1496 26 15.541 26V30ZM15 30H15.541V26H15V30ZM16.1133 42.2495L16.9961 28.1248L13.0039 27.8752L12.1211 42L16.1133 42.2495ZM12.1211 46C14.2334 46 15.9816 44.3577 16.1133 42.2495L12.1211 42V42V46ZM9.87893 46H12.1211V42H9.87893V46ZM5.88672 42.2495C6.01848 44.3577 7.76668 46 9.87893 46V42L5.88672 42.2495ZM5.00393 28.1248L5.88672 42.2495L9.87893 42L8.99614 27.8752L5.00393 28.1248ZM15.541 24H13.1211V28H15.541V24ZM8.87893 24H6.45906V28H8.87893V24ZM11.875 41.8752L10.875 25.8752L6.88283 26.1248L7.88283 42.1248L11.875 41.8752ZM11.125 25.8752L10.125 41.8752L14.1172 42.1248L15.1172 26.1248L11.125 25.8752Z" fill="#333333" mask="url(#path-13-inside-2)"/>
</svg>
