<svg width="48" height="48" viewBox="0 0 48 48" fill="none" xmlns="http://www.w3.org/2000/svg">
<mask id="path-1-inside-1" fill="white">
<path fill-rule="evenodd" clip-rule="evenodd" d="M41.7778 8C40.1209 8 38.7778 9.34315 38.7778 11V21.3727C37.6906 22.2695 37 23.6114 37 25.1111C37 27.8112 39.2386 30 42 30C44.7614 30 47 27.8112 47 25.1111C47 23.4161 46.1178 21.9225 44.7778 21.0455V11C44.7778 9.34315 43.4346 8 41.7778 8Z"/>
</mask>
<path d="M38.7778 21.3727L40.0504 22.9155L40.7778 22.3155V21.3727H38.7778ZM44.7778 21.0455H42.7778V22.1268L43.6825 22.7189L44.7778 21.0455ZM40.7778 11C40.7778 10.4477 41.2255 10 41.7778 10V6C39.0164 6 36.7778 8.23858 36.7778 11H40.7778ZM40.7778 21.3727V11H36.7778V21.3727H40.7778ZM39 25.1111C39 24.2427 39.3968 23.4547 40.0504 22.9155L37.5051 19.8298C35.9844 21.0843 35 22.9802 35 25.1111H39ZM42 28C40.3005 28 39 26.6645 39 25.1111H35C35 28.9579 38.1766 32 42 32V28ZM45 25.1111C45 26.6645 43.6995 28 42 28V32C45.8234 32 49 28.9579 49 25.1111H45ZM43.6825 22.7189C44.4931 23.2494 45 24.1317 45 25.1111H49C49 22.7005 47.7425 20.5956 45.873 19.372L43.6825 22.7189ZM42.7778 11V21.0455H46.7778V11H42.7778ZM41.7778 10C42.3301 10 42.7778 10.4477 42.7778 11H46.7778C46.7778 8.23858 44.5392 6 41.7778 6V10Z" fill="#333333" mask="url(#path-1-inside-1)"/>
<rect x="40.2593" y="14.5186" width="3.25926" height="13.8519" fill="#333333"/>
<circle cx="41.8148" cy="25.0371" r="4" fill="#333333"/>
<path d="M16 34C16 34 17.6 30 24 30C30.4 30 32 34 32 34" stroke="#333333" stroke-width="2" stroke-linecap="round" stroke-linejoin="round"/>
<path d="M14 21C15.5 20.5 16.5 20 18 19" stroke="#333333" stroke-width="2" stroke-linecap="round"/>
<path d="M34 21C32.5 20.5 31.5 20 30 19" stroke="#333333" stroke-width="2" stroke-linecap="round"/>
<circle cx="10" cy="29" r="1" fill="#333333"/>
<circle cx="13" cy="26" r="1" fill="#333333"/>
<circle cx="22" cy="14" r="1" fill="#333333"/>
<circle cx="26" cy="12" r="1" fill="#333333"/>
<circle cx="30" cy="13" r="1" fill="#333333"/>
<circle cx="34" cy="12" r="1" fill="#333333"/>
<circle cx="20" cy="9" r="1" fill="#333333"/>
<circle cx="13" cy="13" r="1" fill="#333333"/>
<circle cx="29" cy="9" r="1" fill="#333333"/>
<circle cx="12" cy="32" r="1" fill="#333333"/>
<circle cx="36" cy="17" r="1" fill="#333333"/>
<circle cx="18" cy="12" r="1" fill="#333333"/>
<circle cx="24" cy="9" r="1" fill="#333333"/>
<circle cx="35" cy="28" r="1" fill="#333333"/>
<circle cx="39" cy="23" r="1" fill="#333333"/>
<circle cx="38" cy="31" r="1" fill="#333333"/>
<circle cx="9" cy="24" r="1" fill="#333333"/>
<path d="M39 7L38 6" stroke="#333333" stroke-width="2" stroke-linecap="round"/>
<path d="M42 6V4" stroke="#333333" stroke-width="2" stroke-linecap="round"/>
<path d="M45 7L46 6" stroke="#333333" stroke-width="2" stroke-linecap="round"/>
<path fill-rule="evenodd" clip-rule="evenodd" d="M41.0094 29.9041C38.5656 36.9453 31.8731 42 24 42C14.0589 42 6 33.9411 6 24C6 14.0589 14.0589 6 24 6C30.1194 6 35.5255 9.05362 38.7778 13.7202V11C38.7778 10.8501 38.7888 10.7027 38.81 10.5587C35.1512 6.52975 29.871 4 24 4C12.9543 4 4 12.9543 4 24C4 35.0457 12.9543 44 24 44C33.0007 44 40.6128 38.0543 43.1228 29.8762C42.7619 29.9572 42.3861 30 42 30C41.6608 30 41.3296 29.967 41.0094 29.9041Z" fill="#333333"/>
</svg>
