<svg width="49" height="49" viewBox="0 0 49 49" fill="none" xmlns="http://www.w3.org/2000/svg">
<path d="M32.5 16.9133C32.5 21.3774 28.9133 24.98 24.5 24.98C20.0867 24.98 16.5 21.3774 16.5 16.9133C16.5 12.4493 20.0867 8.84668 24.5 8.84668C28.9133 8.84668 32.5 12.4493 32.5 16.9133Z" stroke="#333333" stroke-width="2"/>
<path d="M17.6172 30.1732L17.3786 29.2021L17.6172 30.1732ZM17.6172 30.1732C17.6441 30.1666 17.6963 30.1754 17.7266 30.2376L17.8342 30.458L18.0314 30.6036L22.0954 33.6039L22.3603 33.7995L22.6895 33.7994C23.6137 33.7992 24.0647 33.7992 24.5243 33.7993C24.9676 33.7993 25.419 33.7993 26.3107 33.7991L26.6397 33.7991L26.9044 33.6037L30.9685 30.6037L31.1658 30.458L31.2734 30.2376C31.3037 30.1754 31.3559 30.1666 31.3827 30.1732L31.3827 30.1732C34.0249 30.8225 36.6231 31.7963 38.5355 33.0613C40.4694 34.3405 41.5 35.7726 41.5 37.3116V39.845C41.5 40.3972 41.0523 40.845 40.5 40.845H8.5C7.94772 40.845 7.5 40.3972 7.5 39.845V37.3116C7.5 35.7726 8.53062 34.3405 10.4645 33.0613C12.3769 31.7963 14.9751 30.8225 17.6172 30.1732Z" stroke="#333333" stroke-width="2"/>
</svg>
