<svg width="48" height="48" viewBox="0 0 48 48" fill="none" xmlns="http://www.w3.org/2000/svg">
<path d="M29.9946 7.02554L29.9924 7.05906L29.9926 7.09266C29.9955 7.84511 29.6899 8.57584 29.1299 9.12346C28.571 9.6699 27.8039 9.98862 26.9926 9.99993C26.1832 9.98862 25.4182 9.6699 24.8619 9.12388C24.3043 8.57668 24.0016 7.84695 24.0074 7.0965L24.0077 7.06098L24.0054 7.02554C23.9811 6.64227 24.0384 6.25763 24.1746 5.89478C24.3108 5.53183 24.5237 5.19696 24.8021 4.91177C25.0807 4.62648 25.4191 4.39701 25.7975 4.23942C26.176 4.08181 26.5854 4 27 4C27.4146 4 27.824 4.08181 28.2025 4.23942C28.5809 4.39701 28.9193 4.62648 29.1979 4.91177C29.4763 5.19696 29.6892 5.53183 29.8254 5.89478C29.9616 6.25763 30.0189 6.64227 29.9946 7.02554Z" stroke="#333333" stroke-width="2"/>
<path fill-rule="evenodd" clip-rule="evenodd" d="M25.5693 10.9396C24.3747 10.2204 22.9602 9.97154 21.5949 10.2426L21.5851 10.2446L21.5752 10.2468C20.43 10.4982 19.6122 11.3175 19.0296 12.0694C18.7294 12.4568 18.4624 12.8655 18.2272 13.2375C18.1569 13.3488 18.0906 13.4547 18.0272 13.5561L18.0271 13.5563L18.027 13.5564L18.027 13.5564C17.8722 13.8038 17.7345 14.0239 17.5969 14.2268L14.8625 18.0158L14.8552 18.0259L14.8481 18.0363C14.5117 18.5279 14.3701 19.1273 14.4478 19.7168C14.5255 20.3064 14.818 20.849 15.2729 21.2354L15.2728 21.2355L15.2806 21.242L20.2176 25.3499L20.224 25.3552L20.2304 25.3604C20.4774 25.5591 20.7603 25.7051 21.0618 25.7913C20.5667 27.308 19.725 29.7939 18.8823 32.2606C18.19 34.2874 17.5012 36.2895 17.0331 37.6502C16.6848 38.6626 16.4587 39.3199 16.444 39.3684L16.0547 40.6575H17.4013H21.8106L21.9555 43.653C21.9625 44.273 22.2072 44.8697 22.6434 45.3141C23.0866 45.7657 23.6917 46.0229 24.3268 46.0229C24.9618 46.0229 25.5669 45.7657 26.0101 45.3141C26.4457 44.8703 26.6903 44.2747 26.6979 43.6556L26.8523 40.7413H30.7585H31.7585V39.7413C31.7585 39.5935 31.7 38.6688 31.6271 37.5166L31.627 37.5156L31.627 37.5153C31.5935 36.9862 31.557 36.4091 31.5217 35.8373C31.4644 34.9071 31.4085 33.9664 31.3695 33.2097C31.3289 32.4201 31.3114 31.9068 31.3183 31.7727C31.3199 31.7427 31.3344 31.6479 31.5479 31.4344C31.6512 31.331 31.7715 31.2286 31.922 31.1026L31.9525 31.0771C32.0844 30.9668 32.2497 30.8286 32.3945 30.6853L32.4025 30.6773L32.4103 30.6692C33.0426 30.0146 33.5667 29.2613 33.9632 28.4386L33.9717 28.4211L33.9794 28.4032C34.313 27.6363 34.5077 26.8149 34.5545 25.9785L34.5565 25.9436L34.556 25.9087C34.5332 24.2681 34.1019 22.6596 33.3013 21.2336L33.0373 20.7056L33.0358 20.7026C32.055 18.707 31.1487 17.3832 29.8126 15.6827C28.7171 13.888 27.3154 12.3057 25.6726 11.011L25.6232 10.9721L25.5693 10.9396ZM20.6106 13.2944C21.1046 12.6568 21.5526 12.3028 21.9952 12.2022C22.8473 12.0357 23.7302 12.1843 24.4861 12.6225C25.9332 13.773 27.1688 15.1778 28.1341 16.7716L28.1658 16.824L28.2036 16.8721C29.5035 18.5234 30.3315 19.7339 31.2422 21.5876L31.2422 21.5876L31.2453 21.5938L31.5234 22.15L31.5347 22.1727L31.5472 22.1947C32.1844 23.3227 32.5317 24.5977 32.5556 25.9009C32.519 26.4833 32.3827 27.0543 32.153 27.5879C31.8513 28.2093 31.4553 28.7773 30.9801 29.2711C30.8979 29.3515 30.794 29.4386 30.6407 29.5669L30.6406 29.567L30.6405 29.5671L30.6381 29.5691C30.4929 29.6907 30.308 29.8459 30.1337 30.0202C29.7918 30.3621 29.3606 30.9031 29.321 31.6695C29.3073 31.9336 29.3344 32.5783 29.3722 33.3125C29.4117 34.0798 29.4681 35.0288 29.5255 35.9604C29.5647 36.5952 29.6045 37.2242 29.6399 37.7834L29.64 37.7855L29.64 37.7856L29.6861 38.5155L29.7002 38.7413H25.9038H24.9554L24.9052 39.6884L24.6995 43.5727L24.6981 43.5992V43.6256C24.6981 43.737 24.6545 43.84 24.5828 43.9132C24.5116 43.9857 24.4192 44.0229 24.3268 44.0229C24.2344 44.0229 24.1419 43.9857 24.0707 43.9132C23.999 43.84 23.9554 43.737 23.9554 43.6256V43.6015L23.9542 43.5773L23.7622 39.6091L23.7162 38.6575H22.7634H18.8016L19.1145 37.7481C19.5658 36.4362 20.1661 34.6897 20.775 32.9071C21.8048 29.8923 22.8861 26.6981 23.2893 25.3864C23.2918 25.3748 23.2946 25.3631 23.2978 25.3513C23.4657 24.7296 23.698 23.6227 23.7344 22.5381C23.7122 21.1713 23.5239 19.8123 23.1735 18.4921C23.084 18.0791 22.9954 17.6863 22.9085 17.3009C22.7895 16.7736 22.6738 16.2604 22.563 15.7284L22.1489 13.7395L20.8254 15.2807L17.9455 18.6341L17.279 19.4101L18.07 20.0588L21.8566 23.1644C21.9898 23.2217 22.0831 23.3542 22.0831 23.5084C22.0831 23.6669 21.9847 23.8023 21.8456 23.8569C21.8288 23.8652 21.8155 23.8697 21.8047 23.8726C21.7899 23.8766 21.7684 23.8807 21.736 23.8817C21.7271 23.8824 21.718 23.8827 21.7088 23.8827C21.5959 23.8827 21.4946 23.8327 21.4259 23.7535L16.565 19.7088C16.4939 19.6473 16.4441 19.5578 16.4306 19.4553C16.4173 19.3545 16.441 19.2539 16.4939 19.1729L19.227 15.3856L19.2351 15.3744L19.2429 15.363C19.4062 15.1229 19.5772 14.8496 19.7428 14.585L19.7428 14.585L19.7429 14.5848C19.8021 14.4902 19.8605 14.3968 19.9177 14.3063C20.1449 13.947 20.3708 13.6038 20.6106 13.2944ZM21.235 18.9846C21.3512 19.4202 21.4475 19.8607 21.5235 20.3046L20.1292 19.1611L21.0387 18.1021C21.102 18.3842 21.1644 18.664 21.2238 18.9383L21.2288 18.9616L21.235 18.9846Z" fill="#333333"/>
</svg>
