<svg width="48" height="48" viewBox="0 0 48 48" fill="none" xmlns="http://www.w3.org/2000/svg">
<path d="M23 23V12C23 10.8954 23.8954 10 25 10V10C26.1046 10 27 10.8954 27 12V26.7127C27 27.6509 28.1755 28.0726 28.7719 27.3484L32.4158 22.9236C33.2649 21.8926 34.8176 21.8176 35.7621 22.7621V22.7621C36.491 23.491 36.635 24.6205 36.1124 25.509L29.9516 35.9822C28.1229 39.0911 24.7854 41 21.1785 41V41C15.5571 41 11 36.4429 11 30.8215V28V17C11 15.8954 11.8954 15 13 15V15C14.1046 15 15 15.8954 15 17V25V12C15 10.8954 15.8954 10 17 10V10C18.1046 10 19 10.8954 19 12V23V9C19 7.89543 19.8954 7 21 7V7C22.1046 7 23 7.89543 23 9V23Z" stroke="#333333" stroke-width="2"/>
</svg>
