<svg width="48" height="48" viewBox="0 0 48 48" fill="none" xmlns="http://www.w3.org/2000/svg">
<path d="M17.1479 31.169L17.9005 30.5105C17.7133 30.2966 17.4439 30.1724 17.1596 30.1691L17.1479 31.169ZM16.8786 31.1999L16.6417 30.2284L16.6417 30.2284L16.8786 31.1999ZM6 44H5C5 44.5523 5.44772 45 6 45V44ZM42 44V45C42.5523 45 43 44.5523 43 44H42ZM31.1214 31.1999L31.3583 30.2284L31.3583 30.2284L31.1214 31.1999ZM30.8521 31.169L30.8404 30.1691C30.5561 30.1724 30.2867 30.2966 30.0995 30.5105L30.8521 31.169ZM24 39L23.2474 39.6585C23.4373 39.8755 23.7116 40 24 40C24.2884 40 24.5627 39.8755 24.7526 39.6585L24 39ZM17.1596 30.1691C16.9877 30.1671 16.8138 30.1864 16.6417 30.2284L17.1156 32.1714C17.1233 32.1695 17.1301 32.1689 17.1361 32.169L17.1596 30.1691ZM16.6417 30.2284C13.8802 30.902 11.0395 31.9383 8.86388 33.3669C6.71103 34.7805 5 36.7267 5 39.2498H7C7 37.7293 8.0262 36.3096 9.96164 35.0387C11.8743 33.7828 14.473 32.816 17.1156 32.1714L16.6417 30.2284ZM5 39.2498V44H7V39.2498H5ZM6 45H42V43H6V45ZM43 44V39.2498H41V44H43ZM43 39.2498C43 36.7267 41.289 34.7805 39.1361 33.3669C36.9605 31.9383 34.1198 30.902 31.3583 30.2284L30.8844 32.1714C33.527 32.816 36.1257 33.7828 38.0384 35.0387C39.9738 36.3096 41 37.7293 41 39.2498H43ZM31.3583 30.2284C31.1862 30.1864 31.0123 30.1671 30.8404 30.1691L30.8639 32.169C30.8699 32.1689 30.8767 32.1695 30.8844 32.1714L31.3583 30.2284ZM30.0995 30.5105L23.2474 38.3415L24.7526 39.6585L31.6047 31.8275L30.0995 30.5105ZM24.7526 38.3415L17.9005 30.5105L16.3953 31.8275L23.2474 39.6585L24.7526 38.3415Z" fill="#333333"/>
<path d="M36 37C36 37 34 36 33 35C32 36 30 37 30 37C30 37 31.0474 41 33 41C34.9526 41 36 37 36 37Z" fill="#333333"/>
<path d="M26.5 36.5L25.5 31.5L25.9472 31.2764C26.286 31.107 26.5 30.7607 26.5 30.382V29C26.5 28.4477 26.0523 28 25.5 28H22.5C21.9477 28 21.5 28.4477 21.5 29V30.5858C21.5 30.851 21.6054 31.1054 21.7929 31.2929L22.5 32L21.5 36.5" stroke="#333333" stroke-width="2" stroke-linejoin="round"/>
<path d="M32 15V17C32 21.4183 28.4183 25 24 25C19.5817 25 16 21.4183 16 17V15" stroke="#333333" stroke-width="2" stroke-linejoin="round"/>
<path d="M33 13C33 13 35 11.1939 35 8.09677C35 5.77419 24 4 24 4C24 4 13 5.77419 13 8.09677C13 11.1935 15 13 15 13M33 13H15M33 13C33 13 33.727 17 24 17C14.273 17 15 13 15 13" stroke="#333333" stroke-width="2"/>
<circle cx="24" cy="9" r="2" fill="#333333"/>
</svg>
