<svg width="48" height="48" viewBox="0 0 48 48" fill="none" xmlns="http://www.w3.org/2000/svg">
<path d="M19.9672 12.5068C19.3973 12.5068 18.8766 12.8298 18.6234 13.3405L15.1562 20.3326C14.8922 20.8649 14.9673 21.5029 15.3477 21.9593L20.3477 27.9593C20.878 28.5957 21.8239 28.6817 22.4603 28.1514C23.0967 27.621 23.1827 26.6752 22.6524 26.0387L18.2781 20.7897" stroke="#333333" stroke-width="2" stroke-linejoin="round"/>
<path d="M20 12.5059C20 12.5059 18.3952 12.5059 29.8579 12.5059C30.7569 12.5059 33.533 14.1404 33.533 17.3163C33.533 21.53 30.7569 23.2412 29.8579 23.2412V15.775V42.869C29.8579 43.768 29.1223 44.5035 28.2233 44.5035C27.3243 44.5035 26.5887 43.768 26.5887 42.869V31.217M22.3196 31.217V42.869C22.3196 43.768 21.584 44.5035 20.685 44.5035C19.786 44.5035 19.0504 43.768 19.0504 42.869V26.5" stroke="#333333" stroke-width="2"/>
<ellipse cx="24.4672" cy="7.4979" rx="4.00008" ry="4.00181" stroke="#333333" stroke-width="2"/>
<path fill-rule="evenodd" clip-rule="evenodd" d="M21.5 28C22.3284 28 23 27.3284 23 26.5C23 26.1059 22.848 25.7472 22.5994 25.4795C23.1648 25.1737 23.8121 25 24.5001 25C26.7092 25 28.5001 26.7909 28.5001 29C28.5001 31.2091 26.7092 33 24.5001 33C22.2909 33 20.5001 31.2091 20.5001 29C20.5001 28.5692 20.5682 28.1542 20.6942 27.7654C20.927 27.9139 21.2034 28 21.5 28ZM26.5001 29C26.5001 30.1046 25.6046 31 24.5001 31C23.3955 31 22.5001 30.1046 22.5001 29C22.5001 27.8954 23.3955 27 24.5001 27C25.6046 27 26.5001 27.8954 26.5001 29Z" fill="#333333"/>
</svg>
