<svg width="48" height="48" viewBox="0 0 48 48" fill="none" xmlns="http://www.w3.org/2000/svg">
<path d="M31.7112 8C29.9132 8 28.442 9.47112 28.442 11.2691C28.442 13.0672 29.9132 14.5383 31.7112 14.5383C33.5092 14.5383 34.9803 13.0672 34.9803 11.2691C34.9803 9.47112 33.5092 8 31.7112 8Z" stroke="#333333" stroke-width="2"/>
<path d="M18.6346 19.443H26.8075V39.0579C26.8075 39.9569 27.5431 40.6924 28.4421 40.6924C29.3411 40.6924 30.0767 39.9569 30.0767 39.0579V30.885H33.3458V39.0579C33.3458 39.9569 34.0814 40.6924 34.9804 40.6924C35.8794 40.6924 36.615 39.9569 36.615 39.0579V19.443V26.9092C37.514 26.9092 40.29 25.198 40.29 20.9843C40.29 17.8084 37.514 16.1738 36.615 16.1738H18.6346C17.7356 16.1738 17.0001 16.9094 17.0001 17.8084C17.0001 18.7074 17.7356 19.443 18.6346 19.443Z" stroke="#333333" stroke-width="2"/>
<rect x="8" y="30.5" width="15" height="10" rx="2" stroke="#333333" stroke-width="2"/>
<path d="M12 31.5V39.5" stroke="#333333" stroke-width="2"/>
<path d="M19 31.5V39.5" stroke="#333333" stroke-width="2"/>
<path d="M13 30.5L13 28C13 27.4477 13.4477 27 14 27H17C17.5523 27 18 27.4477 18 28V30.5" stroke="#333333" stroke-width="2"/>
</svg>
