<svg width="48" height="48" viewBox="0 0 48 48" fill="none" xmlns="http://www.w3.org/2000/svg">
<circle cx="24" cy="40" r="3" fill="#333333"/>
<rect x="31.067" y="34.9131" width="6" height="8" rx="2" transform="rotate(-15 31.067 34.9131)" stroke="#333333" stroke-width="2"/>
<rect x="11.1375" y="33.3594" width="6" height="8" rx="2" transform="rotate(15 11.1375 33.3594)" stroke="#333333" stroke-width="2"/>
<path fill-rule="evenodd" clip-rule="evenodd" d="M15.8378 39H23V31.0549C20.1303 31.3722 17.6672 33.0387 16.2592 35.406C16.0095 34.9247 15.5662 34.546 15.0012 34.3947L14.5983 34.2867C16.5287 31.1168 20.0172 29 24 29C27.9832 29 31.4718 31.1171 33.4022 34.2874L32.9988 34.3954C32.434 34.5468 31.9908 34.9253 31.7411 35.4064C30.3331 33.0389 27.8699 31.3722 25 31.0549V39H32.1621L32.6199 40.7086C32.647 40.8098 32.6814 40.9071 32.7223 41H24H15.2773C15.3185 40.9068 15.353 40.8093 15.3802 40.7078L15.8378 39ZM15.0966 41.324C14.6828 41.9256 13.9602 42.2651 13.2156 42.1769C13.4542 43.3648 13.8842 44.4842 14.4722 45.5007L16.2034 44.4993C15.6481 43.5392 15.2649 42.4671 15.0966 41.324ZM31.7966 44.4993C32.3518 43.5394 32.7349 42.4675 32.9033 41.3246C33.3171 41.9262 34.0397 42.2658 34.7843 42.1777C34.5457 43.3653 34.1157 44.4844 33.5278 45.5007L31.7966 44.4993Z" fill="#333333"/>
<path d="M32 14V17C32 21.4183 28.4183 25 24 25C19.5817 25 16 21.4183 16 17V14" stroke="#333333" stroke-width="2" stroke-linejoin="round"/>
<path d="M33 12C33 12 34 10.1939 34 7.09677C34 4.77419 28.2203 3 24 3C19.7797 3 14 4.77419 14 7.09677C14 10.1935 15 12 15 12M33 12H15M33 12C33 12 33.727 16 24 16C14.273 16 15 12 15 12" stroke="#333333" stroke-width="2"/>
<rect x="20" y="7" width="8" height="2" rx="1" fill="#333333"/>
</svg>
