<svg width="48" height="48" viewBox="0 0 48 48" fill="none" xmlns="http://www.w3.org/2000/svg">
<g clip-path="url(#clip0)">
<path d="M24.9946 16.4994L24.9946 16.4994C24.4632 16.1797 24.0387 15.7093 23.775 15.1481C23.5112 14.5868 23.4201 13.9598 23.5131 13.3466C23.6061 12.7335 23.8791 12.1618 24.2975 11.704C24.7158 11.2461 25.2607 10.9229 25.863 10.7751M24.9946 16.4994L25.863 10.7751M24.9946 16.4994L24.9975 16.5012C25.3476 16.7135 25.7362 16.8548 26.141 16.9169L25.9928 17.8824L26.141 16.9169C26.5457 16.979 26.9588 16.9607 27.3565 16.8632C27.7542 16.7656 28.1288 16.5906 28.4589 16.3483C28.789 16.1059 29.068 15.8008 29.2802 15.4506L29.2802 15.4506L29.2819 15.4477C29.605 14.9183 29.7637 14.3049 29.7377 13.6853C29.7118 13.0657 29.5024 12.4677 29.1362 11.9672C28.77 11.4667 28.2634 11.0862 27.6807 10.874C27.0979 10.6618 26.4653 10.6274 25.863 10.7751M24.9946 16.4994L25.6248 9.80391L25.863 10.7751" stroke="#333333" stroke-width="2"/>
<mask id="path-2-inside-1" fill="white">
<path d="M4.4945 19.199C4.9309 18.4238 5.4829 17.7196 6.13149 17.1108C6.13149 17.1108 11.4752 11.7629 15.5088 10.7037C17.0009 10.1713 18.6423 10.2447 20.0809 10.9082C20.4733 11.0423 20.8105 11.3023 21.0401 11.6476C21.2697 11.993 21.3789 12.4046 21.3506 12.8183C21.3506 12.8183 21.3237 12.8982 21.3103 12.9382L21.8833 18.5553L27.0477 22.8143C27.3885 23.0966 27.6198 23.4891 27.7017 23.924C27.7836 24.3588 27.711 24.8086 27.4963 25.1955C27.2816 25.5824 25.6716 26.5109 25.2593 26.6715C24.847 26.8321 24.3915 26.8436 23.9717 26.7039C23.7535 26.6292 23.5506 26.5157 23.3728 26.3688L17.4105 21.3966C17.1623 21.1926 16.9704 20.9286 16.8531 20.6296C16.7357 20.3306 16.6968 20.0065 16.7401 19.6882L16.9628 17.9691C15.9663 18.957 14.9115 19.8843 13.8041 20.7461L20.6741 26.0239C21.0755 26.3868 21.3571 26.863 21.4818 27.3895C21.6064 27.916 21.5681 28.4679 21.3721 28.9722L19.1329 39.4129C19.0865 39.7329 18.9759 40.0402 18.8079 40.3165C18.6399 40.5928 18.4179 40.8323 18.1551 41.0208C17.8923 41.2092 17.5942 41.3426 17.2786 41.4131C16.963 41.4836 16.6365 41.4897 16.3185 41.431C15.6604 41.2762 14.1413 40.5509 13.7792 39.98C13.4171 39.4092 13.2929 38.7192 13.4333 38.0579L14.4308 29.9522L4.4945 23.924C3.88238 23.5603 3.69926 22.6836 3.5 22C3.30074 21.3164 4.17368 19.8346 4.4945 19.199Z"/>
</mask>
<path d="M4.4945 19.199L2.70904 18.2978C2.72265 18.2708 2.73687 18.2442 2.75169 18.2179L4.4945 19.199ZM6.13149 17.1108L7.54626 18.5245C7.53119 18.5395 7.51588 18.5544 7.50033 18.569L6.13149 17.1108ZM15.5088 10.7037L16.181 12.5874C16.127 12.6067 16.0722 12.6236 16.0168 12.6382L15.5088 10.7037ZM20.0809 10.9082L19.4341 12.8008C19.3692 12.7786 19.3055 12.7531 19.2432 12.7244L20.0809 10.9082ZM21.3506 12.8183L23.346 12.9545C23.3343 13.1254 23.3008 13.294 23.2461 13.4564L21.3506 12.8183ZM21.3103 12.9382L19.3206 13.1412C19.2916 12.8573 19.3238 12.5706 19.4148 12.3002L21.3103 12.9382ZM21.8833 18.5553L20.6108 20.0983C20.2047 19.7634 19.947 19.282 19.8936 18.7583L21.8833 18.5553ZM27.0477 22.8143L28.3202 21.2713L28.3237 21.2742L27.0477 22.8143ZM23.9717 26.7039L23.3402 28.6016C23.335 28.5998 23.3298 28.5981 23.3245 28.5963L23.9717 26.7039ZM23.3728 26.3688L22.0988 27.9106L22.0918 27.9048L23.3728 26.3688ZM17.4105 21.3966L18.6802 19.8513C18.684 19.8544 18.6877 19.8575 18.6914 19.8606L17.4105 21.3966ZM16.7401 19.6882L18.7235 19.9452L18.7219 19.9574L16.7401 19.6882ZM16.9628 17.9691L15.5548 16.5488C16.1616 15.9472 17.0836 15.7976 17.8495 16.1764C18.6154 16.5552 19.0561 17.3788 18.9463 18.2261L16.9628 17.9691ZM13.8041 20.7461L12.5856 22.3321C12.0946 21.9549 11.806 21.3715 11.8041 20.7523C11.8022 20.1331 12.0872 19.5479 12.5758 19.1676L13.8041 20.7461ZM20.6741 26.0239L21.8926 24.4379C21.9349 24.4704 21.9758 24.5045 22.0154 24.5403L20.6741 26.0239ZM21.3721 28.9722L19.4165 28.5528C19.4388 28.4487 19.4694 28.3465 19.508 28.2473L21.3721 28.9722ZM19.1329 39.4129L17.1536 39.1258C17.16 39.0814 17.1679 39.0373 17.1773 38.9935L19.1329 39.4129ZM16.3185 41.431L15.9554 43.3977C15.9237 43.3919 15.8921 43.3853 15.8607 43.3779L16.3185 41.431ZM13.4333 38.0579L15.4184 38.3021C15.4113 38.3596 15.4017 38.4167 15.3897 38.4733L13.4333 38.0579ZM14.4308 29.9522L15.4682 28.2423C16.1411 28.6505 16.512 29.4153 16.4159 30.1965L14.4308 29.9522ZM4.4945 23.924L5.51605 22.2045C5.52134 22.2077 5.52662 22.2108 5.53189 22.214L4.4945 23.924ZM2.75169 18.2179C3.28778 17.2656 3.96589 16.4006 4.76264 15.6526L7.50033 18.569C6.99991 19.0387 6.57402 19.582 6.23732 20.1801L2.75169 18.2179ZM6.13149 17.1108C4.71672 15.6971 4.71693 15.6969 4.71717 15.6967C4.71727 15.6966 4.71753 15.6963 4.71774 15.6961C4.71816 15.6957 4.71866 15.6952 4.71924 15.6946C4.72041 15.6934 4.72191 15.692 4.72373 15.6901C4.72736 15.6865 4.73229 15.6816 4.73849 15.6755C4.75088 15.6632 4.76835 15.6459 4.79069 15.624C4.83536 15.5801 4.89957 15.5174 4.98166 15.4383C5.14576 15.2803 5.38182 15.0563 5.67673 14.7855C6.26517 14.2452 7.09478 13.512 8.05959 12.7416C9.91083 11.2633 12.5409 9.41526 15.0009 8.76931L16.0168 12.6382C14.4432 13.0513 12.3846 14.4068 10.5555 15.8673C9.68021 16.5663 8.92179 17.2363 8.38222 17.7317C8.11313 17.9789 7.9002 18.181 7.75631 18.3195C7.6844 18.3888 7.62985 18.442 7.59428 18.477C7.5765 18.4945 7.56347 18.5074 7.55539 18.5154C7.55136 18.5194 7.54856 18.5222 7.54703 18.5237C7.54626 18.5244 7.54581 18.5249 7.54568 18.525C7.54562 18.5251 7.54563 18.5251 7.54573 18.525C7.54578 18.5249 7.54591 18.5248 7.54593 18.5248C7.54608 18.5246 7.54626 18.5245 6.13149 17.1108ZM14.8367 8.82007C16.8215 8.11183 19.0048 8.20948 20.9185 9.09209L19.2432 12.7244C18.2797 12.28 17.1804 12.2308 16.181 12.5874L14.8367 8.82007ZM20.7276 9.01568C21.5369 9.29223 22.2322 9.82822 22.7057 10.5404L19.3746 12.7548C19.3888 12.7763 19.4098 12.7925 19.4341 12.8008L20.7276 9.01568ZM22.7057 10.5404C23.1791 11.2527 23.4042 12.1013 23.346 12.9545L19.3553 12.6821C19.3535 12.7078 19.3603 12.7334 19.3746 12.7548L22.7057 10.5404ZM21.3506 12.8183C23.2461 13.4564 23.2461 13.4564 23.2461 13.4564C23.2461 13.4564 23.2461 13.4564 23.2461 13.4564C23.2461 13.4564 23.2461 13.4564 23.2461 13.4564C23.2461 13.4564 23.2461 13.4564 23.2461 13.4564C23.2461 13.4564 23.2461 13.4564 23.2461 13.4564C23.2461 13.4564 23.2461 13.4564 23.2461 13.4564C23.2461 13.4564 23.2461 13.4564 23.2461 13.4564C23.2461 13.4564 23.2461 13.4564 23.2461 13.4564C23.2461 13.4564 23.2461 13.4564 23.2461 13.4564C23.2461 13.4564 23.2461 13.4564 23.2461 13.4564C23.2461 13.4564 23.2461 13.4565 23.2461 13.4565C23.2461 13.4565 23.2461 13.4565 23.2461 13.4565C23.2461 13.4565 23.2461 13.4565 23.2461 13.4565C23.2461 13.4565 23.2461 13.4565 23.2461 13.4565C23.2461 13.4565 23.2461 13.4565 23.2461 13.4566C23.246 13.4566 23.246 13.4566 23.246 13.4566C23.246 13.4566 23.246 13.4566 23.246 13.4566C23.246 13.4566 23.246 13.4566 23.246 13.4566C23.246 13.4567 23.246 13.4567 23.246 13.4567C23.246 13.4567 23.246 13.4567 23.246 13.4567C23.246 13.4567 23.246 13.4567 23.246 13.4567C23.246 13.4568 23.246 13.4568 23.246 13.4568C23.246 13.4568 23.246 13.4568 23.246 13.4568C23.246 13.4568 23.246 13.4569 23.2459 13.4569C23.2459 13.4569 23.2459 13.4569 23.2459 13.4569C23.2459 13.4569 23.2459 13.4569 23.2459 13.457C23.2459 13.457 23.2459 13.457 23.2459 13.457C23.2459 13.457 23.2459 13.457 23.2459 13.457C23.2459 13.4571 23.2459 13.4571 23.2459 13.4571C23.2459 13.4571 23.2459 13.4571 23.2459 13.4571C23.2458 13.4572 23.2458 13.4572 23.2458 13.4572C23.2458 13.4572 23.2458 13.4572 23.2458 13.4573C23.2458 13.4573 23.2458 13.4573 23.2458 13.4573C23.2458 13.4573 23.2458 13.4574 23.2458 13.4574C23.2458 13.4574 23.2458 13.4574 23.2458 13.4574C23.2457 13.4575 23.2457 13.4575 23.2457 13.4575C23.2457 13.4575 23.2457 13.4575 23.2457 13.4576C23.2457 13.4576 23.2457 13.4576 23.2457 13.4576C23.2457 13.4576 23.2457 13.4577 23.2457 13.4577C23.2457 13.4577 23.2457 13.4577 23.2456 13.4578C23.2456 13.4578 23.2456 13.4578 23.2456 13.4578C23.2456 13.4578 23.2456 13.4579 23.2456 13.4579C23.2456 13.4579 23.2456 13.4579 23.2456 13.458C23.2456 13.458 23.2456 13.458 23.2455 13.458C23.2455 13.4581 23.2455 13.4581 23.2455 13.4581C23.2455 13.4581 23.2455 13.4582 23.2455 13.4582C23.2455 13.4582 23.2455 13.4583 23.2455 13.4583C23.2455 13.4583 23.2455 13.4583 23.2454 13.4584C23.2454 13.4584 23.2454 13.4584 23.2454 13.4584C23.2454 13.4585 23.2454 13.4585 23.2454 13.4585C23.2454 13.4586 23.2454 13.4586 23.2454 13.4586C23.2453 13.4586 23.2453 13.4587 23.2453 13.4587C23.2453 13.4587 23.2453 13.4588 23.2453 13.4588C23.2453 13.4588 23.2453 13.4588 23.2453 13.4589C23.2453 13.4589 23.2452 13.4589 23.2452 13.459C23.2452 13.459 23.2452 13.459 23.2452 13.4591C23.2452 13.4591 23.2452 13.4591 23.2452 13.4592C23.2452 13.4592 23.2452 13.4592 23.2451 13.4593C23.2451 13.4593 23.2451 13.4593 23.2451 13.4594C23.2451 13.4594 23.2451 13.4594 23.2451 13.4594C23.2451 13.4595 23.2451 13.4595 23.245 13.4596C23.245 13.4596 23.245 13.4596 23.245 13.4597C23.245 13.4597 23.245 13.4597 23.245 13.4598C23.245 13.4598 23.2449 13.4598 23.2449 13.4599C23.2449 13.4599 23.2449 13.4599 23.2449 13.46C23.2449 13.46 23.2449 13.46 23.2449 13.4601C23.2449 13.4601 23.2448 13.4601 23.2448 13.4602C23.2448 13.4602 23.2448 13.4603 23.2448 13.4603C23.2448 13.4603 23.2448 13.4604 23.2448 13.4604C23.2447 13.4604 23.2447 13.4605 23.2447 13.4605C23.2447 13.4606 23.2447 13.4606 23.2447 13.4606C23.2447 13.4607 23.2446 13.4607 23.2446 13.4608C23.2446 13.4608 23.2446 13.4608 23.2446 13.4609C23.2446 13.4609 23.2446 13.461 23.2446 13.461C23.2445 13.461 23.2445 13.4611 23.2445 13.4611C23.2445 13.4612 23.2445 13.4612 23.2445 13.4612C23.2445 13.4613 23.2444 13.4613 23.2444 13.4614C23.2444 13.4614 23.2444 13.4614 23.2444 13.4615C23.2444 13.4615 23.2444 13.4616 23.2443 13.4616C23.2443 13.4617 23.2443 13.4617 23.2443 13.4617C23.2443 13.4618 23.2443 13.4618 23.2443 13.4619C23.2442 13.4619 23.2442 13.462 23.2442 13.462C23.2442 13.4621 23.2442 13.4621 23.2442 13.4621C23.2442 13.4622 23.2441 13.4622 23.2441 13.4623C23.2441 13.4623 23.2441 13.4624 23.2441 13.4624C23.2441 13.4625 23.2441 13.4625 23.244 13.4625C23.244 13.4626 23.244 13.4626 23.244 13.4627C23.244 13.4627 23.244 13.4628 23.2439 13.4628C23.2439 13.4629 23.2439 13.4629 23.2439 13.463C23.2439 13.463 23.2439 13.4631 23.2438 13.4631C23.2438 13.4632 23.2438 13.4632 23.2438 13.4633C23.2438 13.4633 23.2438 13.4633 23.2437 13.4634C23.2437 13.4634 23.2437 13.4635 23.2437 13.4635C23.2437 13.4636 23.2437 13.4636 23.2436 13.4637C23.2436 13.4637 23.2436 13.4638 23.2436 13.4638C23.2436 13.4639 23.2436 13.4639 23.2435 13.464C23.2435 13.464 23.2435 13.4641 23.2435 13.4641C23.2435 13.4642 23.2435 13.4642 23.2434 13.4643C23.2434 13.4643 23.2434 13.4644 23.2434 13.4644C23.2434 13.4645 23.2434 13.4646 23.2433 13.4646C23.2433 13.4647 23.2433 13.4647 23.2433 13.4648C23.2433 13.4648 23.2433 13.4649 23.2432 13.4649C23.2432 13.465 23.2432 13.465 23.2432 13.4651C23.2432 13.4651 23.2431 13.4652 23.2431 13.4652C23.2431 13.4653 23.2431 13.4653 23.2431 13.4654C23.2431 13.4655 23.243 13.4655 23.243 13.4656C23.243 13.4656 23.243 13.4657 23.243 13.4657C23.2429 13.4658 23.2429 13.4658 23.2429 13.4659C23.2429 13.4659 23.2429 13.466 23.2429 13.4661C23.2428 13.4661 23.2428 13.4662 23.2428 13.4662C23.2428 13.4663 23.2428 13.4663 23.2427 13.4664C23.2427 13.4665 23.2427 13.4665 23.2427 13.4666C23.2427 13.4666 23.2426 13.4667 23.2426 13.4667C23.2426 13.4668 23.2426 13.4669 23.2426 13.4669C23.2425 13.467 23.2425 13.467 23.2425 13.4671C23.2425 13.4671 23.2425 13.4672 23.2424 13.4673C23.2424 13.4673 23.2424 13.4674 23.2424 13.4674C23.2424 13.4675 23.2423 13.4676 23.2423 13.4676C23.2423 13.4677 23.2423 13.4677 23.2423 13.4678C23.2422 13.4679 23.2422 13.4679 23.2422 13.468C23.2422 13.468 23.2422 13.4681 23.2421 13.4682C23.2421 13.4682 23.2421 13.4683 23.2421 13.4683C23.2421 13.4684 23.242 13.4685 23.242 13.4685C23.242 13.4686 23.242 13.4686 23.242 13.4687C23.2419 13.4688 23.2419 13.4688 23.2419 13.4689C23.2419 13.469 23.2419 13.469 23.2418 13.4691C23.2418 13.4691 23.2418 13.4692 23.2418 13.4693C23.2417 13.4693 23.2417 13.4694 23.2417 13.4695C23.2417 13.4695 23.2417 13.4696 23.2416 13.4697C23.2416 13.4697 23.2416 13.4698 23.2416 13.4698C23.2416 13.4699 23.2415 13.47 23.2415 13.47C23.2415 13.4701 23.2415 13.4702 23.2414 13.4702C23.2414 13.4703 23.2414 13.4704 23.2414 13.4704C23.2414 13.4705 23.2413 13.4706 23.2413 13.4706C23.2413 13.4707 23.2413 13.4708 23.2412 13.4708C23.2412 13.4709 23.2412 13.471 23.2412 13.471C23.2412 13.4711 23.2411 13.4712 23.2411 13.4712C23.2411 13.4713 23.2411 13.4714 23.241 13.4714C23.241 13.4715 23.241 13.4716 23.241 13.4716C23.241 13.4717 23.2409 13.4718 23.2409 13.4718C23.2409 13.4719 23.2409 13.472 23.2408 13.472C23.2408 13.4721 23.2408 13.4722 23.2408 13.4722C23.2408 13.4723 23.2407 13.4724 23.2407 13.4724C23.2407 13.4725 23.2407 13.4726 23.2406 13.4726C23.2406 13.4727 23.2406 13.4728 23.2406 13.4729C23.2405 13.4729 23.2405 13.473 23.2405 13.4731C23.2405 13.4731 23.2404 13.4732 23.2404 13.4733C23.2404 13.4733 23.2404 13.4734 23.2404 13.4735C23.2403 13.4736 23.2403 13.4736 23.2403 13.4737C23.2403 13.4738 23.2402 13.4738 23.2402 13.4739C23.2402 13.474 23.2402 13.4741 23.2401 13.4741C23.2401 13.4742 23.2401 13.4743 23.2401 13.4743C23.24 13.4744 23.24 13.4745 23.24 13.4746C23.24 13.4746 23.2399 13.4747 23.2399 13.4748C23.2399 13.4748 23.2399 13.4749 23.2398 13.475C23.2398 13.4751 23.2398 13.4751 23.2398 13.4752C23.2397 13.4753 23.2397 13.4754 23.2397 13.4754C23.2397 13.4755 23.2396 13.4756 23.2396 13.4757C23.2396 13.4757 23.2396 13.4758 23.2395 13.4759C23.2395 13.476 23.2395 13.476 23.2395 13.4761C23.2394 13.4762 23.2394 13.4763 23.2394 13.4763C23.2394 13.4764 23.2393 13.4765 23.2393 13.4766C23.2393 13.4766 23.2393 13.4767 23.2392 13.4768C23.2392 13.4769 23.2392 13.4769 23.2392 13.477C23.2391 13.4771 23.2391 13.4772 23.2391 13.4772C23.2391 13.4773 23.239 13.4774 23.239 13.4775C23.239 13.4775 23.239 13.4776 23.2389 13.4777C23.2389 13.4778 23.2389 13.4778 23.2389 13.4779C23.2388 13.478 23.2388 13.4781 23.2388 13.4782C23.2388 13.4782 23.2387 13.4783 23.2387 13.4784C23.2387 13.4785 23.2386 13.4785 23.2386 13.4786C23.2386 13.4787 23.2386 13.4788 23.2385 13.4789C23.2385 13.4789 23.2385 13.479 23.2385 13.4791C23.2384 13.4792 23.2384 13.4793 23.2384 13.4793C23.2384 13.4794 23.2383 13.4795 23.2383 13.4796C23.2383 13.4796 23.2383 13.4797 23.2382 13.4798C23.2382 13.4799 23.2382 13.48 23.2381 13.48C23.2381 13.4801 23.2381 13.4802 23.2381 13.4803C23.238 13.4804 23.238 13.4804 23.238 13.4805C23.238 13.4806 23.2379 13.4807 23.2379 13.4808C23.2379 13.4809 23.2378 13.4809 23.2378 13.481C23.2378 13.4811 23.2378 13.4812 23.2377 13.4813C23.2377 13.4813 23.2377 13.4814 23.2377 13.4815C23.2376 13.4816 23.2376 13.4817 23.2376 13.4817C23.2375 13.4818 23.2375 13.4819 23.2375 13.482C23.2375 13.4821 23.2374 13.4822 23.2374 13.4822C23.2374 13.4823 23.2373 13.4824 23.2373 13.4825C23.2373 13.4826 23.2373 13.4827 23.2372 13.4827C23.2372 13.4828 23.2372 13.4829 23.2372 13.483C23.2371 13.4831 23.2371 13.4832 23.2371 13.4832C23.237 13.4833 23.237 13.4834 23.237 13.4835C23.237 13.4836 23.2369 13.4837 23.2369 13.4837C23.2369 13.4838 23.2368 13.4839 23.2368 13.484C23.2368 13.4841 23.2368 13.4842 23.2367 13.4842C23.2367 13.4843 23.2367 13.4844 23.2366 13.4845C23.2366 13.4846 23.2366 13.4847 23.2366 13.4848C23.2365 13.4848 23.2365 13.4849 23.2365 13.485C23.2364 13.4851 23.2364 13.4852 23.2364 13.4853C23.2364 13.4854 23.2363 13.4854 23.2363 13.4855C23.2363 13.4856 23.2362 13.4857 23.2362 13.4858C23.2362 13.4859 23.2362 13.486 23.2361 13.486C23.2361 13.4861 23.2361 13.4862 23.236 13.4863C23.236 13.4864 23.236 13.4865 23.236 13.4866C23.2359 13.4867 23.2359 13.4867 23.2359 13.4868C23.2358 13.4869 23.2358 13.487 23.2358 13.4871C23.2357 13.4872 23.2357 13.4873 23.2357 13.4874C23.2357 13.4874 23.2356 13.4875 23.2356 13.4876C23.2356 13.4877 23.2355 13.4878 23.2355 13.4879C23.2355 13.488 23.2354 13.4881 23.2354 13.4881C23.2354 13.4882 23.2354 13.4883 23.2353 13.4884C23.2353 13.4885 23.2353 13.4886 23.2352 13.4887C23.2352 13.4888 23.2352 13.4889 23.2351 13.4889C23.2351 13.489 23.2351 13.4891 23.2351 13.4892C23.235 13.4893 23.235 13.4894 23.235 13.4895C23.2349 13.4896 23.2349 13.4897 23.2349 13.4897C23.2348 13.4898 23.2348 13.4899 23.2348 13.49C23.2348 13.4901 23.2347 13.4902 23.2347 13.4903C23.2347 13.4904 23.2346 13.4905 23.2346 13.4906C23.2346 13.4906 23.2345 13.4907 23.2345 13.4908C23.2345 13.4909 23.2345 13.491 23.2344 13.4911C23.2344 13.4912 23.2344 13.4913 23.2343 13.4914C23.2343 13.4915 23.2343 13.4916 23.2342 13.4916C23.2342 13.4917 23.2342 13.4918 23.2341 13.4919C23.2341 13.492 23.2341 13.4921 23.2341 13.4922C23.234 13.4923 23.234 13.4924 23.234 13.4925C23.2339 13.4926 23.2339 13.4927 23.2339 13.4927C23.2338 13.4928 23.2338 13.4929 23.2338 13.493C23.2337 13.4931 23.2337 13.4932 23.2337 13.4933C23.2337 13.4934 23.2336 13.4935 23.2336 13.4936C23.2336 13.4937 23.2335 13.4938 23.2335 13.4939C23.2335 13.494 23.2334 13.494 23.2334 13.4941C23.2334 13.4942 23.2333 13.4943 23.2333 13.4944C23.2333 13.4945 23.2332 13.4946 23.2332 13.4947C23.2332 13.4948 23.2331 13.4949 23.2331 13.495C23.2331 13.4951 23.2331 13.4952 23.233 13.4953C23.233 13.4954 23.233 13.4955 23.2329 13.4955C23.2329 13.4956 23.2329 13.4957 23.2328 13.4958C23.2328 13.4959 23.2328 13.496 23.2327 13.4961C23.2327 13.4962 23.2327 13.4963 23.2326 13.4964C23.2326 13.4965 23.2326 13.4966 23.2325 13.4967C23.2325 13.4968 23.2325 13.4969 23.2324 13.497C23.2324 13.4971 23.2324 13.4972 23.2324 13.4972C23.2323 13.4973 23.2323 13.4974 23.2323 13.4975C23.2322 13.4976 23.2322 13.4977 23.2322 13.4978C23.2321 13.4979 23.2321 13.498 23.2321 13.4981C23.232 13.4982 23.232 13.4983 23.232 13.4984C23.2319 13.4985 23.2319 13.4986 23.2319 13.4987C23.2318 13.4988 23.2318 13.4989 23.2318 13.499C23.2317 13.4991 23.2317 13.4992 23.2317 13.4993C23.2316 13.4994 23.2316 13.4995 23.2316 13.4996C23.2315 13.4996 23.2315 13.4997 23.2315 13.4998C23.2314 13.4999 23.2314 13.5 23.2314 13.5001C23.2314 13.5002 23.2313 13.5003 23.2313 13.5004C23.2313 13.5005 23.2312 13.5006 23.2312 13.5007C23.2312 13.5008 23.2311 13.5009 23.2311 13.501C23.2311 13.5011 23.231 13.5012 23.231 13.5013C23.231 13.5014 23.2309 13.5015 23.2309 13.5016C23.2309 13.5017 23.2308 13.5018 23.2308 13.5019C23.2308 13.502 23.2307 13.5021 23.2307 13.5022C23.2307 13.5023 23.2306 13.5024 23.2306 13.5025C23.2306 13.5026 23.2305 13.5027 23.2305 13.5028C23.2305 13.5029 23.2304 13.503 23.2304 13.5031C23.2304 13.5032 23.2303 13.5033 23.2303 13.5034C23.2303 13.5035 23.2302 13.5036 23.2302 13.5037C23.2302 13.5038 23.2301 13.5039 23.2301 13.504C23.2301 13.504 23.23 13.5041 23.23 13.5042C23.23 13.5043 23.2299 13.5044 23.2299 13.5045C23.2299 13.5046 23.2298 13.5047 23.2298 13.5048C23.2298 13.5049 23.2297 13.505 23.2297 13.5051C23.2297 13.5052 23.2296 13.5053 23.2296 13.5054C23.2296 13.5055 23.2295 13.5056 23.2295 13.5057C23.2295 13.5058 23.2294 13.5059 23.2294 13.506C23.2294 13.5061 23.2293 13.5062 23.2293 13.5063C23.2293 13.5064 23.2292 13.5065 23.2292 13.5066C23.2292 13.5067 23.2291 13.5068 23.2291 13.5069C23.2291 13.507 23.229 13.5071 23.229 13.5072C23.229 13.5073 23.2289 13.5074 23.2289 13.5075C23.2289 13.5076 23.2288 13.5077 23.2288 13.5078C23.2288 13.5079 23.2287 13.508 23.2287 13.5081C23.2287 13.5082 23.2286 13.5083 23.2286 13.5084C23.2286 13.5085 23.2285 13.5086 23.2285 13.5087C23.2285 13.5088 23.2284 13.5089 23.2284 13.509C23.2283 13.5091 23.2283 13.5092 23.2283 13.5093C23.2282 13.5095 23.2282 13.5096 23.2282 13.5097C23.2281 13.5098 23.2281 13.5099 23.2281 13.51C23.228 13.5101 23.228 13.5102 23.228 13.5103C23.2279 13.5104 23.2279 13.5105 23.2279 13.5106C23.2278 13.5107 23.2278 13.5108 23.2278 13.5109C23.2277 13.511 23.2277 13.5111 23.2277 13.5112C23.2276 13.5113 23.2276 13.5114 23.2276 13.5115C23.2275 13.5116 23.2275 13.5117 23.2275 13.5118C23.2274 13.5119 23.2274 13.512 23.2274 13.5121C23.2273 13.5122 23.2273 13.5123 23.2273 13.5124C23.2272 13.5125 23.2272 13.5126 23.2272 13.5127C23.2271 13.5128 23.2271 13.5129 23.227 13.513C23.227 13.5131 23.227 13.5132 23.2269 13.5133C23.2269 13.5134 23.2269 13.5135 23.2268 13.5136C23.2268 13.5137 23.2268 13.5138 23.2267 13.5139C23.2267 13.514 23.2267 13.5141 23.2266 13.5142C23.2266 13.5143 23.2266 13.5144 23.2265 13.5145C23.2265 13.5146 23.2265 13.5147 23.2264 13.5148C23.2264 13.515 23.2264 13.5151 23.2263 13.5152C23.2263 13.5153 23.2263 13.5154 23.2262 13.5155C23.2262 13.5156 23.2262 13.5157 23.2261 13.5158C23.2261 13.5159 23.226 13.516 23.226 13.5161C23.226 13.5162 23.2259 13.5163 23.2259 13.5164C23.2259 13.5165 23.2258 13.5166 23.2258 13.5167C23.2258 13.5168 23.2257 13.5169 23.2257 13.517C23.2257 13.5171 23.2256 13.5172 23.2256 13.5173C23.2256 13.5174 23.2255 13.5175 23.2255 13.5176C23.2255 13.5177 23.2254 13.5178 23.2254 13.5179C23.2254 13.518 23.2253 13.5181 23.2253 13.5182C23.2253 13.5183 23.2252 13.5185 23.2252 13.5186C23.2251 13.5187 23.2251 13.5188 23.2251 13.5189C23.225 13.519 23.225 13.5191 23.225 13.5192C23.2249 13.5193 23.2249 13.5194 23.2249 13.5195C23.2248 13.5196 23.2248 13.5197 23.2248 13.5198C23.2247 13.5199 23.2247 13.52 23.2247 13.5201C23.2246 13.5202 23.2246 13.5203 23.2246 13.5204C23.2245 13.5205 23.2245 13.5206 23.2245 13.5207C23.2244 13.5208 23.2244 13.5209 23.2243 13.521C23.2243 13.5211 23.2243 13.5212 23.2242 13.5214C23.2242 13.5215 23.2242 13.5216 23.2241 13.5217C23.2241 13.5218 23.2241 13.5219 23.224 13.522C23.224 13.5221 23.224 13.5222 23.2239 13.5223C23.2239 13.5224 23.2239 13.5225 23.2238 13.5226C23.2238 13.5227 23.2238 13.5228 23.2237 13.5229C23.2237 13.523 23.2236 13.5231 23.2236 13.5232C23.2236 13.5233 23.2235 13.5234 23.2235 13.5235C23.2235 13.5236 23.2234 13.5237 23.2234 13.5238C23.2234 13.5239 23.2233 13.5241 23.2233 13.5242C23.2233 13.5243 23.2232 13.5244 23.2232 13.5245C23.2232 13.5246 23.2231 13.5247 23.2231 13.5248C23.2231 13.5249 23.223 13.525 23.223 13.5251C23.2229 13.5252 23.2229 13.5253 23.2229 13.5254C23.2228 13.5255 23.2228 13.5256 23.2228 13.5257C23.2227 13.5258 23.2227 13.5259 23.2227 13.526C23.2226 13.5261 23.2226 13.5262 23.2226 13.5263C23.2225 13.5264 23.2225 13.5265 23.2225 13.5267C23.2224 13.5268 23.2224 13.5269 23.2224 13.527C23.2223 13.5271 23.2223 13.5272 23.2222 13.5273C23.2222 13.5274 23.2222 13.5275 23.2221 13.5276C23.2221 13.5277 23.2221 13.5278 23.222 13.5279C23.222 13.528 23.222 13.5281 23.2219 13.5282C23.2219 13.5283 23.2219 13.5284 23.2218 13.5285C23.2218 13.5286 23.2218 13.5287 23.2217 13.5288C23.2217 13.5289 23.2217 13.529 23.2216 13.5291C23.2216 13.5293 23.2215 13.5294 23.2215 13.5295C23.2215 13.5296 23.2214 13.5297 23.2214 13.5298C23.2214 13.5299 23.2213 13.53 23.2213 13.5301C23.2213 13.5302 23.2212 13.5303 23.2212 13.5304C23.2212 13.5305 23.2211 13.5306 23.2211 13.5307C23.2211 13.5308 23.221 13.5309 23.221 13.531C23.221 13.5311 23.2209 13.5312 23.2209 13.5313C23.2208 13.5314 23.2208 13.5315 23.2208 13.5316C23.2207 13.5317 23.2207 13.5319 23.2207 13.532C23.2206 13.5321 23.2206 13.5322 23.2206 13.5323C23.2205 13.5324 23.2205 13.5325 23.2205 13.5326C23.2204 13.5327 23.2204 13.5328 23.2204 13.5329C23.2203 13.533 23.2203 13.5331 23.2203 13.5332C23.2202 13.5333 23.2202 13.5334 23.2201 13.5335C23.2201 13.5336 23.2201 13.5337 23.22 13.5338C23.22 13.5339 23.22 13.534 23.2199 13.5341C23.2199 13.5342 23.2199 13.5343 23.2198 13.5344C23.2198 13.5345 23.2198 13.5347 23.2197 13.5348C23.2197 13.5349 23.2197 13.535 23.2196 13.5351C23.2196 13.5352 23.2196 13.5353 23.2195 13.5354C23.2195 13.5355 23.2195 13.5356 23.2194 13.5357C23.2194 13.5358 23.2193 13.5359 23.2193 13.536C23.2193 13.5361 23.2192 13.5362 23.2192 13.5363C23.2192 13.5364 23.2191 13.5365 23.2191 13.5366C23.2191 13.5367 23.219 13.5368 23.219 13.5369C23.219 13.537 23.2189 13.5371 23.2189 13.5372C23.2189 13.5373 23.2188 13.5374 23.2188 13.5375C23.2188 13.5376 23.2187 13.5378 23.2187 13.5379C23.2187 13.538 23.2186 13.5381 23.2186 13.5382C23.2185 13.5383 23.2185 13.5384 23.2185 13.5385C23.2184 13.5386 23.2184 13.5387 23.2184 13.5388C23.2183 13.5389 23.2183 13.539 23.2183 13.5391C23.2182 13.5392 23.2182 13.5393 23.2182 13.5394C23.2181 13.5395 23.2181 13.5396 23.2181 13.5397C23.218 13.5398 23.218 13.5399 23.218 13.54C23.2179 13.5401 23.2179 13.5402 23.2179 13.5403C23.2178 13.5404 23.2178 13.5405 23.2178 13.5406C23.2177 13.5407 23.2177 13.5408 23.2176 13.5409C23.2176 13.541 23.2176 13.5411 23.2175 13.5412C23.2175 13.5413 23.2175 13.5414 23.2174 13.5415C23.2174 13.5417 23.2174 13.5418 23.2173 13.5419C23.2173 13.542 23.2173 13.5421 23.2172 13.5422C23.2172 13.5423 23.2172 13.5424 23.2171 13.5425C23.2171 13.5426 23.2171 13.5427 23.217 13.5428C23.217 13.5429 23.217 13.543 23.2169 13.5431C23.2169 13.5432 23.2169 13.5433 23.2168 13.5434C23.2168 13.5435 23.2168 13.5436 23.2167 13.5437C23.2167 13.5438 23.2167 13.5439 23.2166 13.544C23.2166 13.5441 23.2166 13.5442 23.2165 13.5443C23.2165 13.5444 23.2164 13.5445 23.2164 13.5446C23.2164 13.5447 23.2163 13.5448 23.2163 13.5449C23.2163 13.545 23.2162 13.5451 23.2162 13.5452C23.2162 13.5453 23.2161 13.5454 23.2161 13.5455C23.2161 13.5456 23.216 13.5457 23.216 13.5458C23.216 13.5459 23.2159 13.546 23.2159 13.5461C23.2159 13.5462 23.2158 13.5463 23.2158 13.5464C23.2158 13.5465 23.2157 13.5466 23.2157 13.5467C23.2157 13.5468 23.2156 13.5469 23.2156 13.547C23.2156 13.5471 23.2155 13.5472 23.2155 13.5473C23.2155 13.5474 23.2154 13.5475 23.2154 13.5476C23.2154 13.5477 23.2153 13.5478 23.2153 13.5479C23.2153 13.548 23.2152 13.5481 23.2152 13.5482C23.2152 13.5483 23.2151 13.5484 23.2151 13.5485C23.2151 13.5486 23.215 13.5487 23.215 13.5488C23.215 13.5489 23.2149 13.549 23.2149 13.5491C23.2149 13.5492 23.2148 13.5493 23.2148 13.5494C23.2148 13.5495 23.2147 13.5496 23.2147 13.5497C23.2147 13.5498 23.2146 13.5499 23.2146 13.55C23.2146 13.5501 23.2145 13.5502 23.2145 13.5503C23.2145 13.5504 23.2144 13.5505 23.2144 13.5506C23.2144 13.5507 23.2143 13.5508 23.2143 13.5509C23.2143 13.551 23.2142 13.5511 23.2142 13.5512C23.2142 13.5513 23.2141 13.5514 23.2141 13.5515C23.2141 13.5516 23.214 13.5517 23.214 13.5518C23.214 13.5519 23.2139 13.552 23.2139 13.5521C23.2139 13.5522 23.2138 13.5523 23.2138 13.5524C23.2138 13.5525 23.2137 13.5526 23.2137 13.5527C23.2137 13.5528 23.2136 13.5529 23.2136 13.553C23.2136 13.5531 23.2135 13.5532 23.2135 13.5533C23.2135 13.5534 23.2134 13.5535 23.2134 13.5536C23.2134 13.5537 23.2133 13.5538 23.2133 13.5539C23.2133 13.5539 23.2132 13.554 23.2132 13.5541C23.2132 13.5542 23.2131 13.5543 23.2131 13.5544C23.2131 13.5545 23.213 13.5546 23.213 13.5547C23.213 13.5548 23.2129 13.5549 23.2129 13.555C23.2129 13.5551 23.2128 13.5552 23.2128 13.5553C23.2128 13.5554 23.2127 13.5555 23.2127 13.5556C23.2127 13.5557 23.2126 13.5558 23.2126 13.5559C23.2126 13.556 23.2126 13.5561 23.2125 13.5562C23.2125 13.5563 23.2125 13.5564 23.2124 13.5565C23.2124 13.5566 23.2124 13.5567 23.2123 13.5567C23.2123 13.5568 23.2123 13.5569 23.2122 13.557C23.2122 13.5571 23.2122 13.5572 23.2121 13.5573C23.2121 13.5574 23.2121 13.5575 23.212 13.5576C23.212 13.5577 23.212 13.5578 23.2119 13.5579C23.2119 13.558 23.2119 13.5581 23.2118 13.5582C23.2118 13.5583 23.2118 13.5584 23.2118 13.5585C23.2117 13.5586 23.2117 13.5586 23.2117 13.5587C23.2116 13.5588 23.2116 13.5589 23.2116 13.559C23.2115 13.5591 23.2115 13.5592 23.2115 13.5593C23.2114 13.5594 23.2114 13.5595 23.2114 13.5596C23.2113 13.5597 23.2113 13.5598 23.2113 13.5599C23.2112 13.56 23.2112 13.5601 23.2112 13.5602C23.2111 13.5602 23.2111 13.5603 23.2111 13.5604C23.2111 13.5605 23.211 13.5606 23.211 13.5607C23.211 13.5608 23.2109 13.5609 23.2109 13.561C23.2109 13.5611 23.2108 13.5612 23.2108 13.5613C23.2108 13.5614 23.2107 13.5615 23.2107 13.5615C23.2107 13.5616 23.2106 13.5617 23.2106 13.5618C23.2106 13.5619 23.2106 13.562 23.2105 13.5621C23.2105 13.5622 23.2105 13.5623 23.2104 13.5624C23.2104 13.5625 23.2104 13.5626 23.2103 13.5627C23.2103 13.5627 23.2103 13.5628 23.2102 13.5629C23.2102 13.563 23.2102 13.5631 23.2102 13.5632C23.2101 13.5633 23.2101 13.5634 23.2101 13.5635C23.21 13.5636 23.21 13.5637 23.21 13.5637C23.2099 13.5638 23.2099 13.5639 23.2099 13.564C23.2098 13.5641 23.2098 13.5642 23.2098 13.5643C23.2098 13.5644 23.2097 13.5645 23.2097 13.5646C23.2097 13.5647 23.2096 13.5647 23.2096 13.5648C23.2096 13.5649 23.2095 13.565 23.2095 13.5651C23.2095 13.5652 23.2095 13.5653 23.2094 13.5654C23.2094 13.5655 23.2094 13.5656 23.2093 13.5656C23.2093 13.5657 23.2093 13.5658 23.2092 13.5659C23.2092 13.566 23.2092 13.5661 23.2092 13.5662C23.2091 13.5663 23.2091 13.5664 23.2091 13.5664C23.209 13.5665 23.209 13.5666 23.209 13.5667C23.2089 13.5668 23.2089 13.5669 23.2089 13.567C23.2089 13.5671 23.2088 13.5671 23.2088 13.5672C23.2088 13.5673 23.2087 13.5674 23.2087 13.5675C23.2087 13.5676 23.2086 13.5677 23.2086 13.5678C23.2086 13.5678 23.2086 13.5679 23.2085 13.568C23.2085 13.5681 23.2085 13.5682 23.2084 13.5683C23.2084 13.5684 23.2084 13.5685 23.2084 13.5685C23.2083 13.5686 23.2083 13.5687 23.2083 13.5688C23.2082 13.5689 23.2082 13.569 23.2082 13.5691C23.2082 13.5691 23.2081 13.5692 23.2081 13.5693C23.2081 13.5694 23.208 13.5695 23.208 13.5696C23.208 13.5697 23.208 13.5697 23.2079 13.5698C23.2079 13.5699 23.2079 13.57 23.2078 13.5701C23.2078 13.5702 23.2078 13.5703 23.2078 13.5703C23.2077 13.5704 23.2077 13.5705 23.2077 13.5706C23.2076 13.5707 23.2076 13.5708 23.2076 13.5709C23.2076 13.5709 23.2075 13.571 23.2075 13.5711C23.2075 13.5712 23.2074 13.5713 23.2074 13.5714C23.2074 13.5714 23.2074 13.5715 23.2073 13.5716C23.2073 13.5717 23.2073 13.5718 23.2072 13.5719C23.2072 13.5719 23.2072 13.572 23.2072 13.5721C23.2071 13.5722 23.2071 13.5723 23.2071 13.5724C23.207 13.5724 23.207 13.5725 23.207 13.5726C23.207 13.5727 23.2069 13.5728 23.2069 13.5728C23.2069 13.5729 23.2069 13.573 23.2068 13.5731C23.2068 13.5732 23.2068 13.5733 23.2067 13.5733C23.2067 13.5734 23.2067 13.5735 23.2067 13.5736C23.2066 13.5737 23.2066 13.5737 23.2066 13.5738C23.2066 13.5739 23.2065 13.574 23.2065 13.5741C23.2065 13.5742 23.2064 13.5742 23.2064 13.5743C23.2064 13.5744 23.2064 13.5745 23.2063 13.5746C23.2063 13.5746 23.2063 13.5747 23.2063 13.5748C23.2062 13.5749 23.2062 13.575 23.2062 13.575C23.2061 13.5751 23.2061 13.5752 23.2061 13.5753C23.2061 13.5753 23.206 13.5754 23.206 13.5755C23.206 13.5756 23.206 13.5757 23.2059 13.5757C23.2059 13.5758 23.2059 13.5759 23.2059 13.576C23.2058 13.5761 23.2058 13.5761 23.2058 13.5762L19.4148 12.3002C19.4148 12.3001 19.4148 12.3 19.4148 12.2999C19.4149 12.2999 19.4149 12.2998 19.4149 12.2997C19.415 12.2996 19.415 12.2995 19.415 12.2995C19.415 12.2994 19.4151 12.2993 19.4151 12.2992C19.4151 12.2992 19.4151 12.2991 19.4152 12.299C19.4152 12.2989 19.4152 12.2988 19.4152 12.2988C19.4153 12.2987 19.4153 12.2986 19.4153 12.2985C19.4154 12.2984 19.4154 12.2984 19.4154 12.2983C19.4154 12.2982 19.4155 12.2981 19.4155 12.298C19.4155 12.298 19.4155 12.2979 19.4156 12.2978C19.4156 12.2977 19.4156 12.2976 19.4157 12.2975C19.4157 12.2975 19.4157 12.2974 19.4157 12.2973C19.4158 12.2972 19.4158 12.2971 19.4158 12.2971C19.4158 12.297 19.4159 12.2969 19.4159 12.2968C19.4159 12.2967 19.416 12.2966 19.416 12.2966C19.416 12.2965 19.416 12.2964 19.4161 12.2963C19.4161 12.2962 19.4161 12.2962 19.4162 12.2961C19.4162 12.296 19.4162 12.2959 19.4162 12.2958C19.4163 12.2957 19.4163 12.2957 19.4163 12.2956C19.4163 12.2955 19.4164 12.2954 19.4164 12.2953C19.4164 12.2952 19.4165 12.2952 19.4165 12.2951C19.4165 12.295 19.4165 12.2949 19.4166 12.2948C19.4166 12.2947 19.4166 12.2946 19.4167 12.2946C19.4167 12.2945 19.4167 12.2944 19.4167 12.2943C19.4168 12.2942 19.4168 12.2941 19.4168 12.2941C19.4169 12.294 19.4169 12.2939 19.4169 12.2938C19.4169 12.2937 19.417 12.2936 19.417 12.2935C19.417 12.2935 19.4171 12.2934 19.4171 12.2933C19.4171 12.2932 19.4171 12.2931 19.4172 12.293C19.4172 12.2929 19.4172 12.2929 19.4173 12.2928C19.4173 12.2927 19.4173 12.2926 19.4174 12.2925C19.4174 12.2924 19.4174 12.2923 19.4174 12.2922C19.4175 12.2922 19.4175 12.2921 19.4175 12.292C19.4176 12.2919 19.4176 12.2918 19.4176 12.2917C19.4176 12.2916 19.4177 12.2915 19.4177 12.2915C19.4177 12.2914 19.4178 12.2913 19.4178 12.2912C19.4178 12.2911 19.4178 12.291 19.4179 12.2909C19.4179 12.2908 19.4179 12.2908 19.418 12.2907C19.418 12.2906 19.418 12.2905 19.4181 12.2904C19.4181 12.2903 19.4181 12.2902 19.4181 12.2901C19.4182 12.29 19.4182 12.29 19.4182 12.2899C19.4183 12.2898 19.4183 12.2897 19.4183 12.2896C19.4184 12.2895 19.4184 12.2894 19.4184 12.2893C19.4184 12.2892 19.4185 12.2892 19.4185 12.2891C19.4185 12.289 19.4186 12.2889 19.4186 12.2888C19.4186 12.2887 19.4187 12.2886 19.4187 12.2885C19.4187 12.2884 19.4188 12.2883 19.4188 12.2883C19.4188 12.2882 19.4188 12.2881 19.4189 12.288C19.4189 12.2879 19.4189 12.2878 19.419 12.2877C19.419 12.2876 19.419 12.2875 19.4191 12.2874C19.4191 12.2873 19.4191 12.2873 19.4191 12.2872C19.4192 12.2871 19.4192 12.287 19.4192 12.2869C19.4193 12.2868 19.4193 12.2867 19.4193 12.2866C19.4194 12.2865 19.4194 12.2864 19.4194 12.2863C19.4195 12.2862 19.4195 12.2862 19.4195 12.2861C19.4195 12.286 19.4196 12.2859 19.4196 12.2858C19.4196 12.2857 19.4197 12.2856 19.4197 12.2855C19.4197 12.2854 19.4198 12.2853 19.4198 12.2852C19.4198 12.2851 19.4199 12.285 19.4199 12.285C19.4199 12.2849 19.42 12.2848 19.42 12.2847C19.42 12.2846 19.42 12.2845 19.4201 12.2844C19.4201 12.2843 19.4201 12.2842 19.4202 12.2841C19.4202 12.284 19.4202 12.2839 19.4203 12.2838C19.4203 12.2837 19.4203 12.2836 19.4204 12.2836C19.4204 12.2835 19.4204 12.2834 19.4205 12.2833C19.4205 12.2832 19.4205 12.2831 19.4206 12.283C19.4206 12.2829 19.4206 12.2828 19.4206 12.2827C19.4207 12.2826 19.4207 12.2825 19.4207 12.2824C19.4208 12.2823 19.4208 12.2822 19.4208 12.2821C19.4209 12.282 19.4209 12.2819 19.4209 12.2819C19.421 12.2818 19.421 12.2817 19.421 12.2816C19.4211 12.2815 19.4211 12.2814 19.4211 12.2813C19.4212 12.2812 19.4212 12.2811 19.4212 12.281C19.4213 12.2809 19.4213 12.2808 19.4213 12.2807C19.4214 12.2806 19.4214 12.2805 19.4214 12.2804C19.4214 12.2803 19.4215 12.2802 19.4215 12.2801C19.4215 12.28 19.4216 12.2799 19.4216 12.2798C19.4216 12.2797 19.4217 12.2797 19.4217 12.2796C19.4217 12.2795 19.4218 12.2794 19.4218 12.2793C19.4218 12.2792 19.4219 12.2791 19.4219 12.279C19.4219 12.2789 19.422 12.2788 19.422 12.2787C19.422 12.2786 19.4221 12.2785 19.4221 12.2784C19.4221 12.2783 19.4222 12.2782 19.4222 12.2781C19.4222 12.278 19.4223 12.2779 19.4223 12.2778C19.4223 12.2777 19.4224 12.2776 19.4224 12.2775C19.4224 12.2774 19.4225 12.2773 19.4225 12.2772C19.4225 12.2771 19.4226 12.277 19.4226 12.2769C19.4226 12.2768 19.4227 12.2767 19.4227 12.2766C19.4227 12.2765 19.4228 12.2764 19.4228 12.2763C19.4228 12.2762 19.4229 12.2762 19.4229 12.2761C19.4229 12.276 19.423 12.2759 19.423 12.2758C19.423 12.2757 19.4231 12.2756 19.4231 12.2755C19.4231 12.2754 19.4232 12.2753 19.4232 12.2752C19.4232 12.2751 19.4233 12.275 19.4233 12.2749C19.4233 12.2748 19.4234 12.2747 19.4234 12.2746C19.4234 12.2745 19.4235 12.2744 19.4235 12.2743C19.4235 12.2742 19.4236 12.2741 19.4236 12.274C19.4236 12.2739 19.4237 12.2738 19.4237 12.2737C19.4237 12.2736 19.4238 12.2735 19.4238 12.2734C19.4238 12.2733 19.4239 12.2732 19.4239 12.2731C19.4239 12.273 19.424 12.2729 19.424 12.2728C19.424 12.2727 19.4241 12.2726 19.4241 12.2725C19.4241 12.2724 19.4242 12.2723 19.4242 12.2722C19.4242 12.2721 19.4243 12.272 19.4243 12.2719C19.4243 12.2718 19.4244 12.2717 19.4244 12.2716C19.4244 12.2715 19.4245 12.2714 19.4245 12.2713C19.4245 12.2712 19.4246 12.2711 19.4246 12.271C19.4246 12.2709 19.4247 12.2708 19.4247 12.2707C19.4247 12.2706 19.4248 12.2705 19.4248 12.2704C19.4248 12.2703 19.4249 12.2702 19.4249 12.2701C19.4249 12.27 19.425 12.2699 19.425 12.2698C19.425 12.2697 19.4251 12.2696 19.4251 12.2695C19.4251 12.2694 19.4252 12.2693 19.4252 12.2692C19.4252 12.2691 19.4253 12.269 19.4253 12.2689C19.4253 12.2688 19.4254 12.2687 19.4254 12.2686C19.4254 12.2685 19.4255 12.2684 19.4255 12.2683C19.4255 12.2682 19.4256 12.2681 19.4256 12.268C19.4256 12.2679 19.4257 12.2678 19.4257 12.2677C19.4258 12.2676 19.4258 12.2674 19.4258 12.2673C19.4259 12.2672 19.4259 12.2671 19.4259 12.267C19.426 12.2669 19.426 12.2668 19.426 12.2667C19.4261 12.2666 19.4261 12.2665 19.4261 12.2664C19.4262 12.2663 19.4262 12.2662 19.4262 12.2661C19.4263 12.266 19.4263 12.2659 19.4263 12.2658C19.4264 12.2657 19.4264 12.2656 19.4264 12.2655C19.4265 12.2654 19.4265 12.2653 19.4265 12.2652C19.4266 12.2651 19.4266 12.265 19.4266 12.2649C19.4267 12.2648 19.4267 12.2647 19.4267 12.2646C19.4268 12.2645 19.4268 12.2644 19.4268 12.2643C19.4269 12.2642 19.4269 12.2641 19.427 12.264C19.427 12.2639 19.427 12.2638 19.4271 12.2637C19.4271 12.2636 19.4271 12.2635 19.4272 12.2634C19.4272 12.2633 19.4272 12.2632 19.4273 12.2631C19.4273 12.2629 19.4273 12.2628 19.4274 12.2627C19.4274 12.2626 19.4274 12.2625 19.4275 12.2624C19.4275 12.2623 19.4275 12.2622 19.4276 12.2621C19.4276 12.262 19.4276 12.2619 19.4277 12.2618C19.4277 12.2617 19.4277 12.2616 19.4278 12.2615C19.4278 12.2614 19.4279 12.2613 19.4279 12.2612C19.4279 12.2611 19.428 12.261 19.428 12.2609C19.428 12.2608 19.4281 12.2607 19.4281 12.2606C19.4281 12.2605 19.4282 12.2604 19.4282 12.2603C19.4282 12.2602 19.4283 12.2601 19.4283 12.26C19.4283 12.2599 19.4284 12.2598 19.4284 12.2596C19.4284 12.2595 19.4285 12.2594 19.4285 12.2593C19.4285 12.2592 19.4286 12.2591 19.4286 12.259C19.4287 12.2589 19.4287 12.2588 19.4287 12.2587C19.4288 12.2586 19.4288 12.2585 19.4288 12.2584C19.4289 12.2583 19.4289 12.2582 19.4289 12.2581C19.429 12.258 19.429 12.2579 19.429 12.2578C19.4291 12.2577 19.4291 12.2576 19.4291 12.2575C19.4292 12.2574 19.4292 12.2573 19.4292 12.2572C19.4293 12.2571 19.4293 12.257 19.4294 12.2569C19.4294 12.2567 19.4294 12.2566 19.4295 12.2565C19.4295 12.2564 19.4295 12.2563 19.4296 12.2562C19.4296 12.2561 19.4296 12.256 19.4297 12.2559C19.4297 12.2558 19.4297 12.2557 19.4298 12.2556C19.4298 12.2555 19.4298 12.2554 19.4299 12.2553C19.4299 12.2552 19.4299 12.2551 19.43 12.255C19.43 12.2549 19.4301 12.2548 19.4301 12.2547C19.4301 12.2546 19.4302 12.2545 19.4302 12.2544C19.4302 12.2543 19.4303 12.2542 19.4303 12.254C19.4303 12.2539 19.4304 12.2538 19.4304 12.2537C19.4304 12.2536 19.4305 12.2535 19.4305 12.2534C19.4305 12.2533 19.4306 12.2532 19.4306 12.2531C19.4306 12.253 19.4307 12.2529 19.4307 12.2528C19.4308 12.2527 19.4308 12.2526 19.4308 12.2525C19.4309 12.2524 19.4309 12.2523 19.4309 12.2522C19.431 12.2521 19.431 12.252 19.431 12.2519C19.4311 12.2518 19.4311 12.2517 19.4311 12.2516C19.4312 12.2514 19.4312 12.2513 19.4312 12.2512C19.4313 12.2511 19.4313 12.251 19.4313 12.2509C19.4314 12.2508 19.4314 12.2507 19.4315 12.2506C19.4315 12.2505 19.4315 12.2504 19.4316 12.2503C19.4316 12.2502 19.4316 12.2501 19.4317 12.25C19.4317 12.2499 19.4317 12.2498 19.4318 12.2497C19.4318 12.2496 19.4318 12.2495 19.4319 12.2494C19.4319 12.2493 19.4319 12.2492 19.432 12.2491C19.432 12.2489 19.432 12.2488 19.4321 12.2487C19.4321 12.2486 19.4322 12.2485 19.4322 12.2484C19.4322 12.2483 19.4323 12.2482 19.4323 12.2481C19.4323 12.248 19.4324 12.2479 19.4324 12.2478C19.4324 12.2477 19.4325 12.2476 19.4325 12.2475C19.4325 12.2474 19.4326 12.2473 19.4326 12.2472C19.4326 12.2471 19.4327 12.247 19.4327 12.2469C19.4327 12.2468 19.4328 12.2467 19.4328 12.2466C19.4329 12.2465 19.4329 12.2464 19.4329 12.2462C19.433 12.2461 19.433 12.246 19.433 12.2459C19.4331 12.2458 19.4331 12.2457 19.4331 12.2456C19.4332 12.2455 19.4332 12.2454 19.4332 12.2453C19.4333 12.2452 19.4333 12.2451 19.4333 12.245C19.4334 12.2449 19.4334 12.2448 19.4334 12.2447C19.4335 12.2446 19.4335 12.2445 19.4335 12.2444C19.4336 12.2443 19.4336 12.2442 19.4337 12.2441C19.4337 12.244 19.4337 12.2439 19.4338 12.2438C19.4338 12.2437 19.4338 12.2436 19.4339 12.2434C19.4339 12.2433 19.4339 12.2432 19.434 12.2431C19.434 12.243 19.434 12.2429 19.4341 12.2428C19.4341 12.2427 19.4341 12.2426 19.4342 12.2425C19.4342 12.2424 19.4342 12.2423 19.4343 12.2422C19.4343 12.2421 19.4343 12.242 19.4344 12.2419C19.4344 12.2418 19.4345 12.2417 19.4345 12.2416C19.4345 12.2415 19.4346 12.2414 19.4346 12.2413C19.4346 12.2412 19.4347 12.2411 19.4347 12.241C19.4347 12.2409 19.4348 12.2408 19.4348 12.2407C19.4348 12.2406 19.4349 12.2405 19.4349 12.2404C19.4349 12.2402 19.435 12.2401 19.435 12.24C19.435 12.2399 19.4351 12.2398 19.4351 12.2397C19.4351 12.2396 19.4352 12.2395 19.4352 12.2394C19.4353 12.2393 19.4353 12.2392 19.4353 12.2391C19.4354 12.239 19.4354 12.2389 19.4354 12.2388C19.4355 12.2387 19.4355 12.2386 19.4355 12.2385C19.4356 12.2384 19.4356 12.2383 19.4356 12.2382C19.4357 12.2381 19.4357 12.238 19.4357 12.2379C19.4358 12.2378 19.4358 12.2377 19.4358 12.2376C19.4359 12.2375 19.4359 12.2374 19.4359 12.2373C19.436 12.2372 19.436 12.2371 19.436 12.237C19.4361 12.2369 19.4361 12.2368 19.4361 12.2367C19.4362 12.2366 19.4362 12.2365 19.4362 12.2364C19.4363 12.2363 19.4363 12.2362 19.4364 12.2361C19.4364 12.2359 19.4364 12.2358 19.4365 12.2357C19.4365 12.2356 19.4365 12.2355 19.4366 12.2354C19.4366 12.2353 19.4366 12.2352 19.4367 12.2351C19.4367 12.235 19.4367 12.2349 19.4368 12.2348C19.4368 12.2347 19.4368 12.2346 19.4369 12.2345C19.4369 12.2344 19.4369 12.2343 19.437 12.2342C19.437 12.2341 19.437 12.234 19.4371 12.2339C19.4371 12.2338 19.4371 12.2337 19.4372 12.2336C19.4372 12.2335 19.4372 12.2334 19.4373 12.2333C19.4373 12.2332 19.4373 12.2331 19.4374 12.233C19.4374 12.2329 19.4374 12.2328 19.4375 12.2327C19.4375 12.2326 19.4375 12.2325 19.4376 12.2324C19.4376 12.2323 19.4376 12.2322 19.4377 12.2321C19.4377 12.232 19.4377 12.2319 19.4378 12.2318C19.4378 12.2317 19.4379 12.2316 19.4379 12.2315C19.4379 12.2314 19.438 12.2313 19.438 12.2312C19.438 12.2311 19.4381 12.231 19.4381 12.2309C19.4381 12.2308 19.4382 12.2307 19.4382 12.2306C19.4382 12.2305 19.4383 12.2304 19.4383 12.2303C19.4383 12.2302 19.4384 12.2301 19.4384 12.23C19.4384 12.2299 19.4385 12.2298 19.4385 12.2297C19.4385 12.2296 19.4386 12.2295 19.4386 12.2294C19.4386 12.2293 19.4387 12.2292 19.4387 12.2291C19.4387 12.229 19.4388 12.2289 19.4388 12.2288C19.4388 12.2287 19.4389 12.2286 19.4389 12.2285C19.4389 12.2284 19.439 12.2283 19.439 12.2282C19.439 12.2281 19.4391 12.228 19.4391 12.2279C19.4391 12.2278 19.4392 12.2277 19.4392 12.2276C19.4392 12.2275 19.4393 12.2274 19.4393 12.2273C19.4393 12.2272 19.4394 12.2271 19.4394 12.227C19.4394 12.2269 19.4395 12.2268 19.4395 12.2267C19.4395 12.2266 19.4396 12.2265 19.4396 12.2264C19.4396 12.2263 19.4397 12.2262 19.4397 12.2261C19.4397 12.226 19.4398 12.2259 19.4398 12.2258C19.4398 12.2257 19.4399 12.2257 19.4399 12.2256C19.4399 12.2255 19.44 12.2254 19.44 12.2253C19.44 12.2252 19.4401 12.2251 19.4401 12.225C19.4401 12.2249 19.4401 12.2248 19.4402 12.2247C19.4402 12.2246 19.4402 12.2245 19.4403 12.2244C19.4403 12.2243 19.4403 12.2242 19.4404 12.2241C19.4404 12.224 19.4404 12.2239 19.4405 12.2238C19.4405 12.2237 19.4405 12.2236 19.4406 12.2235C19.4406 12.2234 19.4406 12.2233 19.4407 12.2232C19.4407 12.2231 19.4407 12.223 19.4408 12.2229C19.4408 12.2228 19.4408 12.2227 19.4409 12.2226C19.4409 12.2226 19.4409 12.2225 19.441 12.2224C19.441 12.2223 19.441 12.2222 19.4411 12.2221C19.4411 12.222 19.4411 12.2219 19.4412 12.2218C19.4412 12.2217 19.4412 12.2216 19.4413 12.2215C19.4413 12.2214 19.4413 12.2213 19.4413 12.2212C19.4414 12.2211 19.4414 12.221 19.4414 12.2209C19.4415 12.2208 19.4415 12.2207 19.4415 12.2206C19.4416 12.2205 19.4416 12.2205 19.4416 12.2204C19.4417 12.2203 19.4417 12.2202 19.4417 12.2201C19.4418 12.22 19.4418 12.2199 19.4418 12.2198C19.4419 12.2197 19.4419 12.2196 19.4419 12.2195C19.442 12.2194 19.442 12.2193 19.442 12.2192C19.442 12.2191 19.4421 12.219 19.4421 12.2189C19.4421 12.2188 19.4422 12.2188 19.4422 12.2187C19.4422 12.2186 19.4423 12.2185 19.4423 12.2184C19.4423 12.2183 19.4424 12.2182 19.4424 12.2181C19.4424 12.218 19.4425 12.2179 19.4425 12.2178C19.4425 12.2177 19.4426 12.2176 19.4426 12.2175C19.4426 12.2175 19.4426 12.2174 19.4427 12.2173C19.4427 12.2172 19.4427 12.2171 19.4428 12.217C19.4428 12.2169 19.4428 12.2168 19.4429 12.2167C19.4429 12.2166 19.4429 12.2165 19.443 12.2164C19.443 12.2163 19.443 12.2163 19.443 12.2162C19.4431 12.2161 19.4431 12.216 19.4431 12.2159C19.4432 12.2158 19.4432 12.2157 19.4432 12.2156C19.4433 12.2155 19.4433 12.2154 19.4433 12.2153C19.4434 12.2152 19.4434 12.2152 19.4434 12.2151C19.4434 12.215 19.4435 12.2149 19.4435 12.2148C19.4435 12.2147 19.4436 12.2146 19.4436 12.2145C19.4436 12.2144 19.4437 12.2143 19.4437 12.2142C19.4437 12.2142 19.4438 12.2141 19.4438 12.214C19.4438 12.2139 19.4438 12.2138 19.4439 12.2137C19.4439 12.2136 19.4439 12.2135 19.444 12.2134C19.444 12.2134 19.444 12.2133 19.4441 12.2132C19.4441 12.2131 19.4441 12.213 19.4441 12.2129C19.4442 12.2128 19.4442 12.2127 19.4442 12.2126C19.4443 12.2125 19.4443 12.2125 19.4443 12.2124C19.4444 12.2123 19.4444 12.2122 19.4444 12.2121C19.4444 12.212 19.4445 12.2119 19.4445 12.2118C19.4445 12.2118 19.4446 12.2117 19.4446 12.2116C19.4446 12.2115 19.4446 12.2114 19.4447 12.2113C19.4447 12.2112 19.4447 12.2111 19.4448 12.211C19.4448 12.211 19.4448 12.2109 19.4449 12.2108C19.4449 12.2107 19.4449 12.2106 19.4449 12.2105C19.445 12.2104 19.445 12.2104 19.445 12.2103C19.4451 12.2102 19.4451 12.2101 19.4451 12.21C19.4451 12.2099 19.4452 12.2098 19.4452 12.2097C19.4452 12.2097 19.4453 12.2096 19.4453 12.2095C19.4453 12.2094 19.4454 12.2093 19.4454 12.2092C19.4454 12.2091 19.4454 12.2091 19.4455 12.209C19.4455 12.2089 19.4455 12.2088 19.4456 12.2087C19.4456 12.2086 19.4456 12.2085 19.4456 12.2085C19.4457 12.2084 19.4457 12.2083 19.4457 12.2082C19.4458 12.2081 19.4458 12.208 19.4458 12.208C19.4458 12.2079 19.4459 12.2078 19.4459 12.2077C19.4459 12.2076 19.446 12.2075 19.446 12.2075C19.446 12.2074 19.446 12.2073 19.4461 12.2072C19.4461 12.2071 19.4461 12.207 19.4461 12.2069C19.4462 12.2069 19.4462 12.2068 19.4462 12.2067C19.4463 12.2066 19.4463 12.2065 19.4463 12.2065C19.4463 12.2064 19.4464 12.2063 19.4464 12.2062C19.4464 12.2061 19.4465 12.206 19.4465 12.206C19.4465 12.2059 19.4465 12.2058 19.4466 12.2057C19.4466 12.2056 19.4466 12.2055 19.4466 12.2055C19.4467 12.2054 19.4467 12.2053 19.4467 12.2052C19.4468 12.2051 19.4468 12.2051 19.4468 12.205C19.4468 12.2049 19.4469 12.2048 19.4469 12.2047C19.4469 12.2047 19.4469 12.2046 19.447 12.2045C19.447 12.2044 19.447 12.2043 19.4471 12.2043C19.4471 12.2042 19.4471 12.2041 19.4471 12.204C19.4472 12.2039 19.4472 12.2039 19.4472 12.2038C19.4472 12.2037 19.4473 12.2036 19.4473 12.2035C19.4473 12.2035 19.4474 12.2034 19.4474 12.2033C19.4474 12.2032 19.4474 12.2031 19.4475 12.2031C19.4475 12.203 19.4475 12.2029 19.4475 12.2028C19.4476 12.2027 19.4476 12.2027 19.4476 12.2026C19.4476 12.2025 19.4477 12.2024 19.4477 12.2024C19.4477 12.2023 19.4477 12.2022 19.4478 12.2021C19.4478 12.202 19.4478 12.202 19.4479 12.2019C19.4479 12.2018 19.4479 12.2017 19.4479 12.2017C19.448 12.2016 19.448 12.2015 19.448 12.2014C19.448 12.2014 19.4481 12.2013 19.4481 12.2012C19.4481 12.2011 19.4481 12.201 19.4482 12.201C19.4482 12.2009 19.4482 12.2008 19.4482 12.2007C19.4483 12.2007 19.4483 12.2006 19.4483 12.2005C19.4483 12.2004 19.4484 12.2004 19.4484 12.2003C19.4484 12.2002 19.4484 12.2001 19.4485 12.2001C19.4485 12.2 19.4485 12.1999 19.4485 12.1998C19.4486 12.1998 19.4486 12.1997 19.4486 12.1996C19.4486 12.1995 19.4487 12.1995 19.4487 12.1994C19.4487 12.1993 19.4487 12.1993 19.4488 12.1992C19.4488 12.1991 19.4488 12.199 19.4488 12.199C19.4489 12.1989 19.4489 12.1988 19.4489 12.1987C19.4489 12.1987 19.449 12.1986 19.449 12.1985C19.449 12.1984 19.449 12.1984 19.4491 12.1983C19.4491 12.1982 19.4491 12.1982 19.4491 12.1981C19.4492 12.198 19.4492 12.1979 19.4492 12.1979C19.4492 12.1978 19.4493 12.1977 19.4493 12.1977C19.4493 12.1976 19.4493 12.1975 19.4493 12.1974C19.4494 12.1974 19.4494 12.1973 19.4494 12.1972C19.4494 12.1972 19.4495 12.1971 19.4495 12.197C19.4495 12.197 19.4495 12.1969 19.4496 12.1968C19.4496 12.1967 19.4496 12.1967 19.4496 12.1966C19.4497 12.1965 19.4497 12.1965 19.4497 12.1964C19.4497 12.1963 19.4497 12.1963 19.4498 12.1962C19.4498 12.1961 19.4498 12.1961 19.4498 12.196C19.4499 12.1959 19.4499 12.1959 19.4499 12.1958C19.4499 12.1957 19.45 12.1957 19.45 12.1956C19.45 12.1955 19.45 12.1954 19.45 12.1954C19.4501 12.1953 19.4501 12.1952 19.4501 12.1952C19.4501 12.1951 19.4502 12.195 19.4502 12.195C19.4502 12.1949 19.4502 12.1948 19.4502 12.1948C19.4503 12.1947 19.4503 12.1946 19.4503 12.1946C19.4503 12.1945 19.4504 12.1945 19.4504 12.1944C19.4504 12.1943 19.4504 12.1943 19.4504 12.1942C19.4505 12.1941 19.4505 12.1941 19.4505 12.194C19.4505 12.1939 19.4506 12.1939 19.4506 12.1938C19.4506 12.1937 19.4506 12.1937 19.4506 12.1936C19.4507 12.1935 19.4507 12.1935 19.4507 12.1934C19.4507 12.1934 19.4507 12.1933 19.4508 12.1932C19.4508 12.1932 19.4508 12.1931 19.4508 12.193C19.4508 12.193 19.4509 12.1929 19.4509 12.1929C19.4509 12.1928 19.4509 12.1927 19.451 12.1927C19.451 12.1926 19.451 12.1925 19.451 12.1925C19.451 12.1924 19.4511 12.1924 19.4511 12.1923C19.4511 12.1922 19.4511 12.1922 19.4511 12.1921C19.4512 12.1921 19.4512 12.192 19.4512 12.1919C19.4512 12.1919 19.4512 12.1918 19.4513 12.1918C19.4513 12.1917 19.4513 12.1916 19.4513 12.1916C19.4513 12.1915 19.4514 12.1915 19.4514 12.1914C19.4514 12.1913 19.4514 12.1913 19.4514 12.1912C19.4515 12.1912 19.4515 12.1911 19.4515 12.191C19.4515 12.191 19.4515 12.1909 19.4516 12.1909C19.4516 12.1908 19.4516 12.1908 19.4516 12.1907C19.4516 12.1906 19.4517 12.1906 19.4517 12.1905C19.4517 12.1905 19.4517 12.1904 19.4517 12.1904C19.4518 12.1903 19.4518 12.1902 19.4518 12.1902C19.4518 12.1901 19.4518 12.1901 19.4518 12.19C19.4519 12.19 19.4519 12.1899 19.4519 12.1899C19.4519 12.1898 19.4519 12.1897 19.452 12.1897C19.452 12.1896 19.452 12.1896 19.452 12.1895C19.452 12.1895 19.4521 12.1894 19.4521 12.1894C19.4521 12.1893 19.4521 12.1893 19.4521 12.1892C19.4521 12.1891 19.4522 12.1891 19.4522 12.189C19.4522 12.189 19.4522 12.1889 19.4522 12.1889C19.4522 12.1888 19.4523 12.1888 19.4523 12.1887C19.4523 12.1887 19.4523 12.1886 19.4523 12.1886C19.4524 12.1885 19.4524 12.1885 19.4524 12.1884C19.4524 12.1884 19.4524 12.1883 19.4524 12.1883C19.4525 12.1882 19.4525 12.1882 19.4525 12.1881C19.4525 12.1881 19.4525 12.188 19.4525 12.188C19.4526 12.1879 19.4526 12.1878 19.4526 12.1878C19.4526 12.1878 19.4526 12.1877 19.4526 12.1877C19.4527 12.1876 19.4527 12.1876 19.4527 12.1875C19.4527 12.1875 19.4527 12.1874 19.4527 12.1874C19.4528 12.1873 19.4528 12.1873 19.4528 12.1872C19.4528 12.1872 19.4528 12.1871 19.4528 12.1871C19.4529 12.187 19.4529 12.187 19.4529 12.1869C19.4529 12.1869 19.4529 12.1868 19.4529 12.1868C19.453 12.1867 19.453 12.1867 19.453 12.1866C19.453 12.1866 19.453 12.1866 19.453 12.1865C19.453 12.1865 19.4531 12.1864 19.4531 12.1864C19.4531 12.1863 19.4531 12.1863 19.4531 12.1862C19.4531 12.1862 19.4532 12.1861 19.4532 12.1861C19.4532 12.1861 19.4532 12.186 19.4532 12.186C19.4532 12.1859 19.4532 12.1859 19.4533 12.1858C19.4533 12.1858 19.4533 12.1858 19.4533 12.1857C19.4533 12.1857 19.4533 12.1856 19.4533 12.1856C19.4534 12.1855 19.4534 12.1855 19.4534 12.1855C19.4534 12.1854 19.4534 12.1854 19.4534 12.1853C19.4534 12.1853 19.4535 12.1852 19.4535 12.1852C19.4535 12.1852 19.4535 12.1851 19.4535 12.1851C19.4535 12.185 19.4535 12.185 19.4536 12.185C19.4536 12.1849 19.4536 12.1849 19.4536 12.1848C19.4536 12.1848 19.4536 12.1848 19.4536 12.1847C19.4536 12.1847 19.4537 12.1846 19.4537 12.1846C19.4537 12.1846 19.4537 12.1845 19.4537 12.1845C19.4537 12.1844 19.4537 12.1844 19.4537 12.1844C19.4538 12.1843 19.4538 12.1843 19.4538 12.1843C19.4538 12.1842 19.4538 12.1842 19.4538 12.1841C19.4538 12.1841 19.4538 12.1841 19.4539 12.184C19.4539 12.184 19.4539 12.184 19.4539 12.1839C19.4539 12.1839 19.4539 12.1839 19.4539 12.1838C19.4539 12.1838 19.454 12.1838 19.454 12.1837C19.454 12.1837 19.454 12.1836 19.454 12.1836C19.454 12.1836 19.454 12.1835 19.454 12.1835C19.454 12.1835 19.4541 12.1834 19.4541 12.1834C19.4541 12.1834 19.4541 12.1833 19.4541 12.1833C19.4541 12.1833 19.4541 12.1832 19.4541 12.1832C19.4541 12.1832 19.4542 12.1832 19.4542 12.1831C19.4542 12.1831 19.4542 12.1831 19.4542 12.183C19.4542 12.183 19.4542 12.183 19.4542 12.1829C19.4542 12.1829 19.4543 12.1829 19.4543 12.1828C19.4543 12.1828 19.4543 12.1828 19.4543 12.1827C19.4543 12.1827 19.4543 12.1827 19.4543 12.1827C19.4543 12.1826 19.4543 12.1826 19.4544 12.1826C19.4544 12.1825 19.4544 12.1825 19.4544 12.1825C19.4544 12.1825 19.4544 12.1824 19.4544 12.1824C19.4544 12.1824 19.4544 12.1823 19.4544 12.1823C19.4544 12.1823 19.4545 12.1823 19.4545 12.1822C19.4545 12.1822 19.4545 12.1822 19.4545 12.1822C19.4545 12.1821 19.4545 12.1821 19.4545 12.1821C19.4545 12.1821 19.4545 12.182 19.4545 12.182C19.4546 12.182 19.4546 12.182 19.4546 12.1819C19.4546 12.1819 19.4546 12.1819 19.4546 12.1819C19.4546 12.1818 19.4546 12.1818 19.4546 12.1818C19.4546 12.1818 19.4546 12.1817 19.4546 12.1817C19.4546 12.1817 19.4547 12.1817 19.4547 12.1817C19.4547 12.1816 19.4547 12.1816 19.4547 12.1816C19.4547 12.1816 19.4547 12.1815 19.4547 12.1815C19.4547 12.1815 19.4547 12.1815 19.4547 12.1815C19.4547 12.1814 19.4547 12.1814 19.4547 12.1814C19.4548 12.1814 19.4548 12.1814 19.4548 12.1813C19.4548 12.1813 19.4548 12.1813 19.4548 12.1813C19.4548 12.1813 19.4548 12.1812 19.4548 12.1812C19.4548 12.1812 19.4548 12.1812 19.4548 12.1812C19.4548 12.1811 19.4548 12.1811 19.4548 12.1811C19.4549 12.1811 19.4549 12.1811 19.4549 12.1811C19.4549 12.181 19.4549 12.181 19.4549 12.181C19.4549 12.181 19.4549 12.181 19.4549 12.181C19.4549 12.1809 19.4549 12.1809 19.4549 12.1809C19.4549 12.1809 19.4549 12.1809 19.4549 12.1809C19.4549 12.1809 19.4549 12.1808 19.4549 12.1808C19.4549 12.1808 19.455 12.1808 19.455 12.1808C19.455 12.1808 19.455 12.1808 19.455 12.1807C19.455 12.1807 19.455 12.1807 19.455 12.1807C19.455 12.1807 19.455 12.1807 19.455 12.1807C19.455 12.1807 19.455 12.1806 19.455 12.1806C19.455 12.1806 19.455 12.1806 19.455 12.1806C19.455 12.1806 19.455 12.1806 19.455 12.1806C19.455 12.1806 19.455 12.1806 19.455 12.1805C19.455 12.1805 19.455 12.1805 19.455 12.1805C19.455 12.1805 19.4551 12.1805 19.4551 12.1805C19.4551 12.1805 19.4551 12.1805 19.4551 12.1805C19.4551 12.1805 19.4551 12.1804 19.4551 12.1804C19.4551 12.1804 19.4551 12.1804 19.4551 12.1804C19.4551 12.1804 19.4551 12.1804 19.4551 12.1804C19.4551 12.1804 19.4551 12.1804 19.4551 12.1804C19.4551 12.1804 19.4551 12.1804 19.4551 12.1804C19.4551 12.1804 19.4551 12.1804 19.4551 12.1804C19.4551 12.1804 19.4551 12.1803 19.4551 12.1803C19.4551 12.1803 19.4551 12.1803 19.4551 12.1803C19.4551 12.1803 19.4551 12.1803 19.4551 12.1803C19.4551 12.1803 19.4551 12.1803 19.4551 12.1803C19.4551 12.1803 19.4551 12.1803 19.4551 12.1803C19.4551 12.1803 19.4551 12.1803 19.4551 12.1803C19.4551 12.1803 19.4551 12.1803 21.3506 12.8183ZM23.2999 12.7352L23.8729 18.3524L19.8936 18.7583L19.3206 13.1412L23.2999 12.7352ZM23.1557 17.0123L28.3202 21.2713L25.7753 24.3573L20.6108 20.0983L23.1557 17.0123ZM28.3237 21.2742C29.0237 21.8541 29.4989 22.6605 29.6672 23.5537L25.7363 24.2942C25.7407 24.3178 25.7533 24.3391 25.7718 24.3544L28.3237 21.2742ZM29.6672 23.5537C29.8354 24.447 29.6861 25.371 29.2451 26.1659L25.7474 24.2252C25.7358 24.2462 25.7318 24.2706 25.7363 24.2942L29.6672 23.5537ZM29.2451 26.1659C29.0719 26.478 28.8514 26.6998 28.7402 26.8065C28.6036 26.9375 28.4598 27.0552 28.3319 27.1533C28.0746 27.3508 27.7818 27.5457 27.512 27.7143C27.0161 28.0243 26.3771 28.3825 25.9854 28.5351L24.5333 24.8079C24.5083 24.8177 24.5902 24.7833 24.7956 24.6714C24.9735 24.5744 25.1858 24.4512 25.3919 24.3224C25.6029 24.1905 25.7786 24.0707 25.8964 23.9802C25.9561 23.9344 25.9765 23.9148 25.9707 23.9204C25.9669 23.924 25.9441 23.9459 25.9112 23.9849C25.882 24.0196 25.8162 24.1013 25.7474 24.2252L29.2451 26.1659ZM25.9854 28.5351C25.1384 28.8651 24.2027 28.8886 23.3402 28.6016L24.6032 24.8062C24.5804 24.7986 24.5557 24.7992 24.5333 24.8079L25.9854 28.5351ZM23.3245 28.5963C22.8779 28.4436 22.4627 28.2113 22.0988 27.9106L24.6467 24.8271C24.6384 24.8202 24.629 24.8149 24.6188 24.8115L23.3245 28.5963ZM22.0918 27.9048L16.1296 22.9325L18.6914 19.8606L24.6537 24.8329L22.0918 27.9048ZM16.1408 22.9418C15.629 22.5213 15.2333 21.9768 14.9913 21.3602L18.7148 19.8989C18.7075 19.8804 18.6956 19.864 18.6802 19.8513L16.1408 22.9418ZM14.9913 21.3602C14.7493 20.7436 14.6691 20.0753 14.7583 19.4189L18.7219 19.9574C18.7245 19.9376 18.7221 19.9175 18.7148 19.8989L14.9913 21.3602ZM14.7566 19.4311L14.9794 17.7121L18.9463 18.2261L18.7235 19.9452L14.7566 19.4311ZM18.3709 19.3894C17.3177 20.4336 16.2028 21.4137 15.0323 22.3245L12.5758 19.1676C13.6202 18.355 14.615 17.4804 15.5548 16.5488L18.3709 19.3894ZM15.0225 19.1601L21.8926 24.4379L19.4557 27.6099L12.5856 22.3321L15.0225 19.1601ZM22.0154 24.5403C22.7174 25.1749 23.21 26.0079 23.428 26.9288L19.5356 27.8502C19.5043 27.7181 19.4336 27.5986 19.3329 27.5075L22.0154 24.5403ZM23.428 26.9288C23.646 27.8497 23.5791 28.815 23.2361 29.697L19.508 28.2473C19.5572 28.1208 19.5668 27.9823 19.5356 27.8502L23.428 26.9288ZM23.3276 29.3916L21.0884 39.8323L17.1773 38.9935L19.4165 28.5528L23.3276 29.3916ZM21.1122 39.7C21.0271 40.2863 20.8246 40.8495 20.5168 41.3557L17.0991 39.2773C17.1273 39.231 17.1458 39.1795 17.1536 39.1258L21.1122 39.7ZM20.5168 41.3557C20.2089 41.8619 19.802 42.3008 19.3206 42.6461L16.9896 39.3954C17.0337 39.3638 17.0709 39.3237 17.0991 39.2773L20.5168 41.3557ZM19.3206 42.6461C18.8391 42.9913 18.2928 43.2359 17.7146 43.365L16.8426 39.4612C16.8956 39.4494 16.9456 39.427 16.9896 39.3954L19.3206 42.6461ZM17.7146 43.365C17.1364 43.4942 16.538 43.5053 15.9554 43.3977L16.6816 39.4642C16.735 39.4741 16.7897 39.473 16.8426 39.4612L17.7146 43.365ZM15.8607 43.3779C15.2972 43.2454 14.5814 42.9398 13.9927 42.6241C13.6819 42.4575 13.3497 42.2579 13.0464 42.0334C12.7788 41.8354 12.3796 41.5073 12.0903 41.0514L15.468 38.9087C15.4327 38.8529 15.4022 38.8147 15.3845 38.794C15.3664 38.7727 15.3551 38.7617 15.3541 38.7608C15.3539 38.7606 15.375 38.7805 15.426 38.8182C15.53 38.8952 15.6865 38.9936 15.883 39.099C16.0754 39.2022 16.2761 39.2959 16.4539 39.3688C16.542 39.405 16.618 39.4333 16.6788 39.454C16.7088 39.4642 16.7328 39.4717 16.7506 39.477C16.7689 39.4823 16.7771 39.4843 16.7763 39.4841L15.8607 43.3779ZM12.0903 41.0514C11.4481 40.0389 11.2279 38.8152 11.477 37.6424L15.3897 38.4733C15.3579 38.6231 15.386 38.7794 15.468 38.9087L12.0903 41.0514ZM11.4483 37.8136L12.4458 29.7079L16.4159 30.1965L15.4184 38.3021L11.4483 37.8136ZM13.3934 31.6621L3.45712 25.6339L5.53189 22.214L15.4682 28.2423L13.3934 31.6621ZM3.47295 25.6434C2.62895 25.1419 2.21404 24.3691 1.99878 23.8571C1.79267 23.367 1.64494 22.7828 1.57991 22.5597L5.42009 21.4403C5.44859 21.5381 5.47673 21.6391 5.50052 21.7239C5.52563 21.8134 5.54782 21.8919 5.5703 21.9674C5.61603 22.1211 5.65293 22.2279 5.68608 22.3067C5.76522 22.4949 5.74793 22.3423 5.51605 22.2045L3.47295 25.6434ZM1.57991 22.5597C1.38322 21.8849 1.49611 21.2519 1.5815 20.8963C1.67901 20.4903 1.82994 20.1009 1.96892 19.7822C2.23018 19.183 2.61049 18.4931 2.70904 18.2978L6.27996 20.1002C6.05769 20.5406 5.84112 20.9094 5.63552 21.3809C5.54107 21.5975 5.49108 21.7464 5.47092 21.8304C5.46158 21.8693 5.46734 21.8593 5.46981 21.8106C5.47206 21.7662 5.47497 21.6286 5.42009 21.4403L1.57991 22.5597Z" fill="#333333" mask="url(#path-2-inside-1)"/>
<ellipse cx="32" cy="39" rx="8" ry="2" stroke="#333333" stroke-width="2"/>
<circle cx="29" cy="20" r="1" fill="#333333"/>
<circle cx="30.5" cy="26.5" r="1.5" fill="#333333"/>
<circle cx="34" cy="29" r="1" fill="#333333"/>
<circle cx="30" cy="33" r="1" fill="#333333"/>
<circle cx="35.5" cy="32.5" r="1.5" fill="#333333"/>
</g>
<defs>
<clipPath id="clip0">
<rect width="48" height="48" fill="white"/>
</clipPath>
</defs>
</svg>
