<svg width="48" height="48" viewBox="0 0 48 48" fill="none" xmlns="http://www.w3.org/2000/svg">
<path d="M19.0001 18.3898H20.0001C20.0001 17.91 19.6593 17.4978 19.1881 17.4077C18.7168 17.3175 18.2479 17.5747 18.0708 18.0206L19.0001 18.3898ZM16.3766 24.9932L17.3059 25.3625L16.3766 24.9932ZM19.0001 24.4706H18.0001C18.0001 24.4781 18.0002 24.4856 18.0004 24.493L19.0001 24.4706ZM19.0008 24.5V25.5C19.2699 25.5 19.5276 25.3915 19.7158 25.1991C19.9039 25.0067 20.0066 24.7466 20.0005 24.4775L19.0008 24.5ZM19 24.5V23.5C18.5976 23.5 18.2345 23.7411 18.0783 24.1119L19 24.5ZM15.5844 32.6119L14.6628 32.2239L14.6628 32.2239L15.5844 32.6119ZM19.0978 34H20.0978C20.0978 33.4477 19.6501 33 19.0978 33V34ZM22.4572 34V33C21.9049 33 21.4572 33.4477 21.4572 34H22.4572ZM25.5401 34H26.5401C26.5401 33.4477 26.0924 33 25.5401 33V34ZM28.8995 34V33C28.3472 33 27.8995 33.4477 27.8995 34H28.8995ZM32.4155 32.6119L31.4939 33L32.4155 32.6119ZM29.0001 24.5003L28.0004 24.4749C27.9968 24.6167 28.0234 24.7576 28.0785 24.8884L29.0001 24.5003ZM29.0001 24.5L29.9998 24.5254C30 24.5169 30.0001 24.5085 30.0001 24.5H29.0001ZM29.0001 18.6639L29.9185 18.2683C29.7308 17.8326 29.2628 17.5887 28.7981 17.6845C28.3335 17.7804 28.0001 18.1895 28.0001 18.6639H29.0001ZM31.6403 24.7933L32.5587 24.3977L31.6403 24.7933ZM33.9398 25.7083L34.3354 26.6267H34.3354L33.9398 25.7083ZM34.8548 23.4087L35.7732 23.0131L34.8548 23.4087ZM31.518 15.6621L32.4364 15.2665V15.2665L31.518 15.6621ZM16.2889 15.7346L15.3596 15.3654V15.3654L16.2889 15.7346ZM13.1239 23.7009L12.1945 23.3317H12.1945L13.1239 23.7009ZM14.1041 25.9734L14.4733 25.0441H14.4733L14.1041 25.9734ZM18.0708 18.0206L15.4472 24.624L17.3059 25.3625L19.9294 18.7591L18.0708 18.0206ZM20.0001 24.4706V18.3898H18.0001V24.4706H20.0001ZM20.0005 24.4775L19.9999 24.4481L18.0004 24.493L18.001 24.5225L20.0005 24.4775ZM19 25.5H19.0008V23.5H19V25.5ZM16.5061 33L19.9216 24.8881L18.0783 24.1119L14.6628 32.2239L16.5061 33ZM16.5061 33L16.5061 33L14.6628 32.2239C14.1077 33.5422 15.0757 35 16.5061 35V33ZM19.0978 33H16.5061V35H19.0978V33ZM20.0978 41.2555V34H18.0978V41.2555H20.0978ZM20.7775 42.0002C20.4414 42.0002 20.0978 41.699 20.0978 41.2555H18.0978C18.0978 42.7313 19.2659 44.0002 20.7775 44.0002V42.0002ZM21.4572 41.2555C21.4572 41.699 21.1136 42.0002 20.7775 42.0002V44.0002C22.2891 44.0002 23.4572 42.7313 23.4572 41.2555H21.4572ZM21.4572 34V41.2555H23.4572V34H21.4572ZM25.5401 33H22.4572V35H25.5401V33ZM26.5401 41.2555V34H24.5401V41.2555H26.5401ZM27.2198 42.0002C26.8837 42.0002 26.5401 41.699 26.5401 41.2555H24.5401C24.5401 42.7313 25.7082 44.0002 27.2198 44.0002V42.0002ZM27.8995 41.2555C27.8995 41.699 27.5559 42.0002 27.2198 42.0002V44.0002C28.7314 44.0002 29.8995 42.7313 29.8995 41.2555H27.8995ZM27.8995 34V41.2555H29.8995V34H27.8995ZM31.4939 33H28.8995V35H31.4939V33ZM31.4939 33V33V35C32.9243 35 33.8922 33.5422 33.3372 32.2239L31.4939 33ZM28.0785 24.8884L31.4939 33L33.3372 32.2239L29.9217 24.1122L28.0785 24.8884ZM28.0004 24.4746L28.0004 24.4749L29.9998 24.5257L29.9998 24.5254L28.0004 24.4746ZM28.0001 18.6639V24.5H30.0001V18.6639H28.0001ZM32.5587 24.3977L29.9185 18.2683L28.0817 19.0595L30.7219 25.1889L32.5587 24.3977ZM33.5442 24.7899C33.1638 24.9537 32.7226 24.7782 32.5587 24.3977L30.7219 25.1889C31.3227 26.5838 32.9405 27.2275 34.3354 26.6267L33.5442 24.7899ZM33.9363 23.8043C34.1002 24.1848 33.9246 24.626 33.5442 24.7899L34.3354 26.6267C35.7303 26.0259 36.374 24.408 35.7732 23.0131L33.9363 23.8043ZM30.5996 16.0577L33.9363 23.8043L35.7732 23.0131L32.4364 15.2665L30.5996 16.0577ZM28.9923 15C29.6912 15 30.3231 15.4158 30.5996 16.0577L32.4364 15.2665C31.8439 13.8911 30.4899 13 28.9923 13V15ZM22.9711 15H28.9923V13H22.9711V15ZM20.402 15H22.9711V13H20.402V15ZM18.8446 15H20.402V13H18.8446V15ZM17.2182 16.1039C17.483 15.4375 18.1275 15 18.8446 15V13C17.308 13 15.9269 13.9374 15.3596 15.3654L17.2182 16.1039ZM14.0532 24.0702L17.2182 16.1039L15.3596 15.3654L12.1945 23.3317L14.0532 24.0702ZM14.4733 25.0441C14.0884 24.8912 13.9003 24.4551 14.0532 24.0702L12.1945 23.3317C11.6338 24.7432 12.3234 26.342 13.7348 26.9028L14.4733 25.0441ZM15.4472 24.624C15.2943 25.009 14.8582 25.197 14.4733 25.0441L13.7348 26.9028C15.1463 27.4636 16.7451 26.7739 17.3059 25.3625L15.4472 24.624Z" fill="#333333"/>
<ellipse cx="24.0001" cy="8.00181" rx="4.00008" ry="4.00181" stroke="#333333" stroke-width="2" stroke-linejoin="round"/>
</svg>
