<svg width="48" height="48" viewBox="0 0 48 48" fill="none" xmlns="http://www.w3.org/2000/svg">
<path fill-rule="evenodd" clip-rule="evenodd" d="M18.3856 5.33416C20.3549 3.27403 23.6451 3.27403 25.6144 5.33416L26.1418 5.88591H31.3302C33.9092 5.88591 36 7.97667 36 10.5557V12.0002H34V10.5557C34 9.08124 32.8047 7.88591 31.3302 7.88591H25.7143C25.4412 7.88591 25.1801 7.77426 24.9914 7.57689L24.1686 6.71612C22.9871 5.48004 21.0129 5.48004 19.8314 6.71612L19.0086 7.57689C18.8199 7.77426 18.5588 7.88591 18.2857 7.88591H13C11.3431 7.88591 10 9.22906 10 10.8859V27.9714C11.3017 27.9503 12.5326 27.988 13.7005 28.031C13.8783 28.0376 14.0544 28.0443 14.2289 28.0509L14.2301 28.0509C15.5134 28.0995 16.7111 28.1449 17.8818 28.12C20.5089 28.0641 22.924 27.6542 25.4919 26.1392C28.6105 24.2992 31.2501 24.8518 33.0748 25.9137C33.4135 26.1108 33.7222 26.3239 34 26.5393V24.0002H36V33.0002C36 35.7616 33.7614 38.0002 31 38.0002L28 38.0002V40.0002H23V44.0002H21V40.0002H16V38.0002L13 38.0002C10.2386 38.0002 8 35.7616 8 33.0002V10.8859C8 8.12449 10.2386 5.88591 13 5.88591H17.8582L18.3856 5.33416Z" fill="#333333"/>
<path d="M34 21.0002C34 21.5525 34.4477 22.0002 35 22.0002C35.5523 22.0002 36 21.5525 36 21.0002V19.0002H38C38.5523 19.0002 39 18.5525 39 18.0002C39 17.448 38.5523 17.0002 38 17.0002H36V15.0002C36 14.448 35.5523 14.0002 35 14.0002C34.4477 14.0002 34 14.448 34 15.0002V17.0002H32C31.4477 17.0002 31 17.448 31 18.0002C31 18.5525 31.4477 19.0002 32 19.0002H34V21.0002Z" fill="#333333"/>
<path d="M22 12.0002C22.5523 12.0002 23 12.448 23 13.0002V17.0002H27V13.0002C27 12.448 27.4477 12.0002 28 12.0002C28.5523 12.0002 29 12.448 29 13.0002V23.0002C29 23.5525 28.5523 24.0002 28 24.0002C27.4477 24.0002 27 23.5525 27 23.0002V19.0002H23V23.0002C23 23.5525 22.5523 24.0002 22 24.0002C21.4477 24.0002 21 23.5525 21 23.0002V13.0002C21 12.448 21.4477 12.0002 22 12.0002Z" fill="#333333"/>
<path fill-rule="evenodd" clip-rule="evenodd" d="M13 12.0002H16C18.2091 12.0002 20 13.7911 20 16.0002C20 17.9493 18.6059 19.5728 16.7605 19.928L19.6247 22.2194C20.056 22.5644 20.1259 23.1937 19.7809 23.6249C19.4359 24.0562 18.8066 24.1261 18.3753 23.7811L14 20.2809V23.0002C14 23.5525 13.5523 24.0002 13 24.0002C12.4477 24.0002 12 23.5525 12 23.0002V13.0002C12 12.448 12.4477 12.0002 13 12.0002ZM14.0092 18.0002H16C17.1046 18.0002 18 17.1048 18 16.0002C18 14.8957 17.1046 14.0002 16 14.0002H14V18.0002C14.0031 18.0002 14.0061 18.0002 14.0092 18.0002Z" fill="#333333"/>
</svg>
