<svg width="48" height="48" viewBox="0 0 48 48" fill="none" xmlns="http://www.w3.org/2000/svg">
<path fill-rule="evenodd" clip-rule="evenodd" d="M19.3856 5.33416C21.3549 3.27403 24.6451 3.27403 26.6144 5.33416L27.1418 5.88591H32.3302C34.9092 5.88591 37 7.97667 37 10.5557V12.0002H35V10.5557C35 9.08124 33.8047 7.88591 32.3302 7.88591H26.7143C26.4412 7.88591 26.1801 7.77426 25.9914 7.57689L25.1686 6.71612C23.9871 5.48004 22.0129 5.48004 20.8314 6.71612L20.0086 7.57689C19.8199 7.77426 19.5588 7.88591 19.2857 7.88591H14C12.3431 7.88591 11 9.22906 11 10.8859V27.9712C12.3017 27.95 13.5325 27.9877 14.7005 28.0308C14.8788 28.0374 15.0554 28.0441 15.2304 28.0507C16.5137 28.0993 17.711 28.1446 18.8818 28.1197C21.5089 28.0638 23.924 27.6539 26.4918 26.1389C29.6105 24.2989 32.2501 24.8516 34.0748 25.9135C34.4135 26.1106 34.7222 26.3236 35 26.5391V24.0002H37V33.0002C37 35.7616 34.7614 38.0002 32 38.0002L29 38.0002V40.0002H24V44.0002H22V40.0002H17V38.0002L14 38.0002C11.2386 38.0002 9 35.7616 9 33.0002V10.8859C9 8.12449 11.2386 5.88591 14 5.88591H18.8582L19.3856 5.33416Z" fill="#333333"/>
<path fill-rule="evenodd" clip-rule="evenodd" d="M18.4363 12.6491C18.29 12.2588 17.9168 12.0002 17.5 12.0002C17.0832 12.0002 16.71 12.2588 16.5637 12.6491L13.0637 21.9825C12.8697 22.4996 13.1318 23.076 13.6489 23.2699C14.166 23.4638 14.7424 23.2018 14.9363 22.6847L15.568 21.0002H19.432L20.0637 22.6847C20.2576 23.2018 20.834 23.4638 21.3511 23.2699C21.8682 23.076 22.1302 22.4996 21.9363 21.9825L18.4363 12.6491ZM18.682 19.0002L17.5 15.8482L16.318 19.0002L18.682 19.0002Z" fill="#333333"/>
<path d="M32 18.0002C32 17.448 32.4477 17.0002 33 17.0002H35V15.0002C35 14.448 35.4477 14.0002 36 14.0002C36.5523 14.0002 37 14.448 37 15.0002V17.0002H39C39.5523 17.0002 40 17.448 40 18.0002C40 18.5525 39.5523 19.0002 39 19.0002H37V21.0002C37 21.5525 36.5523 22.0002 36 22.0002C35.4477 22.0002 35 21.5525 35 21.0002V19.0002H33C32.4477 19.0002 32 18.5525 32 18.0002Z" fill="#333333"/>
<path fill-rule="evenodd" clip-rule="evenodd" d="M26.25 12.0002H23V23.0002H26.25C28.0569 23.0002 29.5876 21.5808 29.5876 19.7502C29.5876 18.8666 29.231 18.0789 28.6588 17.5002C29.231 16.9216 29.5876 16.1338 29.5876 15.2502C29.5876 13.4196 28.0569 12.0003 26.25 12.0002ZM27.5876 15.2502C27.5876 14.5956 27.0251 14.0003 26.25 14.0002H25V16.5002H26.25C27.0251 16.5002 27.5876 15.9049 27.5876 15.2502ZM26.25 18.5002H25V21.0002H26.25C27.0251 21.0002 27.5876 20.4049 27.5876 19.7502C27.5876 19.0956 27.0251 18.5002 26.25 18.5002Z" fill="#333333"/>
</svg>
