<svg width="48" height="48" viewBox="0 0 48 48" fill="none" xmlns="http://www.w3.org/2000/svg">
<circle cx="24" cy="24" r="17" stroke="#333333" stroke-width="2"/>
<path d="M29.4278 31.9769C28.3486 30.7959 26.3162 30 23.9868 30C21.5527 30 19.4429 30.8691 18.4061 32.1385C17.9589 32.6862 17.5317 34.3446 19.1623 33.9358C23.9085 32.6757 24.3699 32.7222 29.0241 33.9358C30.3013 34.301 30.0868 32.8628 29.7077 32.2984C29.6284 32.1804 29.5237 32.0819 29.4278 31.9769Z" stroke="#333333" stroke-width="2"/>
<circle cx="30.5" cy="23.5" r="1.5" stroke="#333333" stroke-width="2"/>
<circle cx="17.5" cy="23.5" r="1.5" stroke="#333333" stroke-width="2"/>
<path d="M12.7 18.3215C14.9123 18.6467 19.4931 19.772 21.699 21.6783" stroke="#333333" stroke-width="2"/>
<path d="M35.2495 18.3215C33.0372 18.6467 28.4564 19.772 26.2505 21.6783" stroke="#333333" stroke-width="2"/>
</svg>
