<svg width="48" height="48" viewBox="0 0 48 48" fill="none" xmlns="http://www.w3.org/2000/svg">
<g clip-path="url(#clip0)">
<circle cx="24" cy="24" r="17" stroke="#333333" stroke-width="2"/>
<path d="M18.5722 33.0231C19.6514 34.2041 21.6838 35 24.0132 35C26.4473 35 28.5571 34.1309 29.5939 32.8615C30.0411 32.3138 30.4683 30.6554 28.8377 31.0642C24.0915 32.3243 23.6301 32.2778 18.9759 31.0642C17.6987 30.699 17.9132 32.1372 18.2923 32.7016C18.3716 32.8196 18.4763 32.9181 18.5722 33.0231Z" stroke="#333333" stroke-width="2"/>
<path d="M14.2363 24.4298C16.2601 25.1812 18.4843 24.6906 20.3967 22.8753C20.7294 23.8644 19.8455 25.9462 17.6639 26.2683C15.4823 26.5904 14.0891 25.3415 14.2363 24.4298Z" fill="#333333"/>
<path fill-rule="evenodd" clip-rule="evenodd" d="M14.8071 26.2328C14.1241 25.7953 13.6236 25.0878 13.7427 24.3501C13.7665 24.2024 13.8553 24.0731 13.9845 23.9978C14.1138 23.9225 14.27 23.909 14.4103 23.9611C16.2286 24.6362 18.2566 24.2174 20.0524 22.5126C20.1763 22.3951 20.3515 22.3488 20.5172 22.39C20.6829 22.4312 20.8161 22.554 20.8706 22.7158C21.1023 23.4046 20.8947 24.3341 20.3903 25.0976C19.8683 25.8878 18.9828 26.579 17.7369 26.763C16.5385 26.9399 15.5209 26.6899 14.8071 26.2328ZM15.3464 25.3907C15.8379 25.7054 16.6077 25.9188 17.5908 25.7737C18.5265 25.6355 19.1738 25.1249 19.556 24.5464C19.6811 24.3569 19.7738 24.1673 19.8389 23.9871C18.3331 25.0699 16.6735 25.4691 15.0662 25.1754C15.1433 25.2474 15.2359 25.3199 15.3464 25.3907Z" fill="#333333"/>
<path d="M33.3249 24.4298C31.3011 25.1812 29.0769 24.6906 27.1645 22.8753C26.8317 23.8644 27.7157 25.9462 29.8973 26.2683C32.0789 26.5904 33.4721 25.3415 33.3249 24.4298Z" fill="#333333"/>
<path fill-rule="evenodd" clip-rule="evenodd" d="M32.7541 26.2328C33.4371 25.7953 33.9376 25.0878 33.8185 24.3501C33.7947 24.2024 33.7059 24.0731 33.5766 23.9978C33.4474 23.9225 33.2911 23.909 33.1509 23.9611C31.3326 24.6362 29.3046 24.2174 27.5087 22.5126C27.3849 22.3951 27.2097 22.3488 27.044 22.39C26.8783 22.4312 26.745 22.554 26.6906 22.7158C26.4589 23.4046 26.6665 24.3341 27.1708 25.0976C27.6929 25.8878 28.5784 26.579 29.8243 26.763C31.0227 26.9399 32.0403 26.6899 32.7541 26.2328ZM32.2147 25.3907C31.7233 25.7054 30.9535 25.9188 29.9703 25.7737C29.0347 25.6355 28.3874 25.1249 28.0052 24.5464C27.88 24.3569 27.7874 24.1673 27.7223 23.9871C29.2281 25.0699 30.8877 25.4691 32.495 25.1754C32.4179 25.2474 32.3253 25.3199 32.2147 25.3907Z" fill="#333333"/>
</g>
<defs>
<clipPath id="clip0">
<rect width="48" height="48" fill="white"/>
</clipPath>
</defs>
</svg>
