<svg width="48" height="48" viewBox="0 0 48 48" fill="none" xmlns="http://www.w3.org/2000/svg">
<path fill-rule="evenodd" clip-rule="evenodd" d="M31.4245 38.1768C29.2056 39.3412 26.6798 40 24 40C15.1634 40 8 32.8366 8 24C8 15.1634 15.1634 8 24 8C32.8366 8 40 15.1634 40 24C40 24.1673 39.9974 24.334 39.9923 24.5H41.9932C41.9977 24.3339 42 24.1672 42 24C42 14.0589 33.9411 6 24 6C14.0589 6 6 14.0589 6 24C6 33.9411 14.0589 42 24 42C27.0254 42 29.8764 41.2536 32.379 39.935L31.4245 38.1768Z" fill="#333333"/>
<path d="M14.2364 23.4298C16.2602 24.1812 18.4845 23.6906 20.3968 21.8752C20.7296 22.8644 19.8456 24.9462 17.664 25.2683C15.4824 25.5904 14.0892 24.3415 14.2364 23.4298Z" fill="#333333" stroke="#333333" stroke-linejoin="round"/>
<path d="M33.325 23.4298C31.3013 24.1812 29.077 23.6906 27.1646 21.8752C26.8319 22.8644 27.7159 24.9462 29.8975 25.2683C32.0791 25.5904 33.4722 24.3415 33.325 23.4298Z" fill="#333333" stroke="#333333" stroke-linejoin="round"/>
<path d="M39 32C39 33.6569 37.6569 35 36 35C34.3431 35 33 33.6569 33 32C33 30.5918 33.8268 29.0649 34.7954 27.7935C35.2258 27.2286 35.6581 26.748 36 26.3933C36.3419 26.748 36.7742 27.2286 37.2046 27.7935C38.1732 29.0649 39 30.5918 39 32Z" stroke="#333333" stroke-width="2"/>
<path d="M20 33C22 30.3333 26 30.3333 28 33" stroke="#333333" stroke-width="2" stroke-linecap="round"/>
</svg>
