<svg width="48" height="48" viewBox="0 0 48 48" fill="none" xmlns="http://www.w3.org/2000/svg">
<path fill-rule="evenodd" clip-rule="evenodd" d="M32.3262 8.03733C29.8363 6.73592 27.0041 6 24 6C14.0589 6 6 14.0589 6 24C6 33.9411 14.0589 42 24 42C33.9411 42 42 33.9411 42 24C42 21.7396 41.5833 19.5764 40.8226 17.5832C40.3054 18.0242 39.7151 18.3775 39.0733 18.621C39.6733 20.302 40 22.1129 40 24C40 32.8366 32.8366 40 24 40C15.1634 40 8 32.8366 8 24C8 15.1634 15.1634 8 24 8C26.7224 8 29.2859 8.6799 31.5301 9.87917C31.7471 9.24758 32.0195 8.63045 32.3262 8.03733Z" fill="#333333"/>
<path d="M14.2364 20.4298C16.2602 21.1812 18.4845 20.6906 20.3968 18.8752C20.7296 19.8644 19.8456 21.9462 17.664 22.2683C15.4824 22.5904 14.0892 21.3415 14.2364 20.4298Z" fill="#333333" stroke="#333333" stroke-linejoin="round"/>
<path d="M33.325 20.4298C31.3013 21.1812 29.077 20.6906 27.1646 18.8752C26.8319 19.8644 27.7159 21.9462 29.8975 22.2683C32.0791 22.5904 33.4722 21.3415 33.325 20.4298Z" fill="#333333" stroke="#333333" stroke-linejoin="round"/>
<path d="M40 13C40 14.6569 38.6569 16 37 16C35.3431 16 34 14.6569 34 13C34 11.5918 34.8268 10.0649 35.7954 8.79354C36.2258 8.22864 36.6581 7.74798 37 7.3933C37.3419 7.74798 37.7742 8.22864 38.2046 8.79354C39.1732 10.0649 40 11.5918 40 13Z" stroke="#333333" stroke-width="2"/>
<path d="M24 28C26.6818 28 29.191 30.0401 30.4737 33.3604C30.5322 33.5118 30.5062 33.6474 30.4144 33.7669C30.3148 33.8966 30.1366 34 29.9116 34L18.0884 34C17.8634 34 17.6852 33.8966 17.5856 33.7669C17.4938 33.6474 17.4678 33.5118 17.5263 33.3604C18.809 30.0401 21.3182 28 24 28Z" stroke="#333333" stroke-width="2"/>
<path d="M21.5 34L15 28" stroke="#333333" stroke-width="2"/>
<circle cx="15" cy="28" r="2" fill="#333333"/>
</svg>
