<svg width="48" height="48" viewBox="0 0 48 48" fill="none" xmlns="http://www.w3.org/2000/svg">
<circle cx="24" cy="24" r="17" stroke="#333333" stroke-width="2"/>
<path d="M17.8101 18.823C20.0134 18.9155 21.1478 21.4033 20.8324 22.2713C19.9116 21.7143 18.884 20.4511 17.8101 20.5038C16.7297 20.5567 15.6024 21.9293 14.4898 22.6438C14.3483 21.6097 15.6068 18.7305 17.8101 18.823Z" fill="#333333" stroke="#333333" stroke-linejoin="round"/>
<path d="M30.1055 18.823C27.9022 18.9155 26.7677 21.4033 27.0832 22.2713C28.004 21.7143 29.0315 20.4511 30.1055 20.5038C31.1858 20.5567 32.3131 21.9293 33.4258 22.6438C33.5672 21.6097 32.3088 18.7305 30.1055 18.823Z" fill="#333333" stroke="#333333" stroke-linejoin="round"/>
<path d="M15.6287 28.019L14.6928 28.3713L15.6287 28.019C15.5356 27.7715 15.5827 27.5397 15.7295 27.3491C15.8836 27.149 16.149 27 16.4727 27H31.5273C31.851 27 32.1164 27.149 32.2705 27.3491C32.4173 27.5397 32.4644 27.7715 32.3713 28.019C32.3561 28.0594 32.3408 28.0996 32.3253 28.1396C30.6986 32.3503 27.4894 35 24 35C20.5106 35 17.3014 32.3503 15.6747 28.1396C15.6592 28.0996 15.6439 28.0594 15.6287 28.019Z" stroke="#333333" stroke-width="2"/>
</svg>
