<svg width="48" height="48" viewBox="0 0 48 48" fill="none" xmlns="http://www.w3.org/2000/svg">
<path fill-rule="evenodd" clip-rule="evenodd" d="M24 40C26.8198 40 29.4693 39.2705 31.77 37.99L31.5903 40.3261C29.2839 41.4002 26.712 42 24 42C21.2253 42 18.5972 41.3722 16.2501 40.2508L16.0692 37.8993C18.4069 39.236 21.1142 40 24 40ZM12.4269 35.0483C9.68428 32.1762 8 28.2848 8 24C8 15.1634 15.1634 8 24 8C32.8366 8 40 15.1634 40 24C40 28.1619 38.411 31.9526 35.8065 34.7986L36.1388 37.2911C39.7406 33.9997 42 29.2637 42 24C42 14.0589 33.9411 6 24 6C14.0589 6 6 14.0589 6 24C6 29.3788 8.35923 34.2065 12.0993 37.5049L12.4269 35.0483Z" fill="#333333"/>
<rect x="21" y="28" width="6" height="8" rx="3" stroke="#333333" stroke-width="2"/>
<path fill-rule="evenodd" clip-rule="evenodd" d="M12 37.9941C10.7384 38.2523 9.6599 38.56 8.85209 38.9181C8.39904 39.1189 7.97523 39.3596 7.64949 39.6581C7.32564 39.9549 7 40.4045 7 41C7 41.5955 7.32564 42.0452 7.64949 42.3419C7.97523 42.6404 8.39904 42.8811 8.85209 43.0819C9.76509 43.4867 11.0239 43.8271 12.502 44.1042C15.4747 44.6616 19.5393 45 24 45C28.4607 45 32.5253 44.6616 35.498 44.1042C36.9761 43.8271 38.2349 43.4867 39.1479 43.0819C39.601 42.8811 40.0248 42.6404 40.3505 42.3419C40.6744 42.0452 41 41.5955 41 41C41 40.4045 40.6744 39.9549 40.3505 39.6581C40.0248 39.3596 39.601 39.1189 39.1479 38.9181C38.3401 38.56 37.2616 38.2523 36 37.9941V40.0389C36.9971 40.2597 37.7835 40.5009 38.3374 40.7465C38.549 40.8403 38.7071 40.9263 38.8218 41C38.7071 41.0737 38.549 41.1598 38.3374 41.2535C37.6311 41.5666 36.5467 41.8727 35.1294 42.1385C32.3113 42.6669 28.3759 43 24 43C19.6241 43 15.6887 42.6669 12.8706 42.1385C11.4533 41.8727 10.3689 41.5666 9.66262 41.2535C9.45104 41.1598 9.29287 41.0737 9.17822 41C9.29287 40.9263 9.45104 40.8403 9.66262 40.7465C10.2165 40.5009 11.0029 40.2597 12 40.0389V37.9941ZM8.95496 41.1803C8.95489 41.1803 8.9556 41.1792 8.95731 41.1771C8.95588 41.1792 8.95503 41.1803 8.95496 41.1803ZM39.0447 41.1799L39.045 41.1803C39.0451 41.1803 39.0447 41.1797 39.0438 41.1785L39.0427 41.1771L39.0447 41.1799ZM39.0427 40.8229C39.0441 40.8208 39.045 40.8197 39.045 40.8197C39.0451 40.8197 39.0444 40.8208 39.0427 40.8229ZM8.95732 40.823C8.9556 40.8208 8.95489 40.8197 8.95496 40.8197C8.95503 40.8197 8.95588 40.8208 8.95732 40.823Z" fill="#333333"/>
<path d="M31.1783 40C32.3217 34.9617 31.5151 31.5995 29.4427 27.8871C28.0928 25.4688 30.2157 25 30.697 25C32.141 25 32.7809 26.4304 33.0458 26.9049C35.1599 30.6923 36.3766 34.375 35.8953 39.5312" stroke="#333333" stroke-width="2" stroke-linecap="round"/>
<path d="M17.2079 40C15.9829 34.9617 16.3054 31.5995 18.5257 27.8871C19.972 25.4688 17.6975 25 17.1819 25C15.6349 25 14.9493 26.4304 14.6655 26.9049C12.4005 30.6923 11.6386 34.375 12.1543 39.5312" stroke="#333333" stroke-width="2" stroke-linecap="round"/>
<path d="M27 14.5383C28.6371 16.0614 33.5063 18.9707 36.3733 19.5001" stroke="#333333" stroke-width="2"/>
<path d="M21.3733 14.5383C19.7362 16.0614 14.867 18.9707 12 19.5001" stroke="#333333" stroke-width="2"/>
<path d="M21.7766 23.384C18.897 22.4747 15.8076 22.8652 13.2313 24.6722C12.7083 23.6087 13.8279 21.4614 16.8671 21.2465C19.9064 21.0315 21.9306 22.4298 21.7766 23.384Z" fill="#333333" stroke="#333333" stroke-linejoin="round"/>
<path d="M26.2328 23.4418C28.9793 22.5745 31.9259 22.9469 34.3832 24.6704C34.8821 23.6561 33.8142 21.608 30.9154 21.403C28.0165 21.1979 26.0858 22.5317 26.2328 23.4418Z" fill="#333333" stroke="#333333" stroke-linejoin="round"/>
</svg>
