<svg width="48" height="48" viewBox="0 0 48 48" fill="none" xmlns="http://www.w3.org/2000/svg">
<circle cx="24" cy="24" r="17" stroke="#333333" stroke-width="2"/>
<path d="M11.918 32.0344C11.9127 30.6544 12.1784 29.2441 12.7696 27.4269C17.1498 26.4454 20.5834 25.9879 23.9968 26.0002C27.4216 26.0126 30.8673 26.4979 35.2736 27.4421C35.9559 29.1637 36.2519 30.5014 36.2886 31.8107C36.327 33.1803 36.0842 34.5823 35.6104 36.445C28.5977 42.3568 19.8695 42.3613 12.8562 36.9018C12.2259 34.9562 11.9236 33.4786 11.918 32.0344Z" stroke="#333333" stroke-width="2"/>
<path d="M12.5 27.5C12.5 27.5 0.49989 26.5 7.49985 19" stroke="#333333" stroke-width="2" stroke-linecap="round"/>
<path d="M35.3074 27.5C35.3074 27.5 47.3075 26.5 40.3075 19" stroke="#333333" stroke-width="2" stroke-linecap="round"/>
<path d="M17.8101 18.823C20.0134 18.9155 21.1478 21.4033 20.8324 22.2713C19.9116 21.7143 18.884 20.4511 17.8101 20.5038C16.7297 20.5567 15.6024 21.9293 14.4898 22.6438C14.3483 21.6097 15.6068 18.7305 17.8101 18.823Z" fill="#333333" stroke="#333333" stroke-linejoin="round"/>
<path d="M30.1055 18.823C27.9022 18.9155 26.7677 21.4033 27.0832 22.2713C28.004 21.7143 29.0315 20.4511 30.1055 20.5038C31.1858 20.5567 32.3131 21.9293 33.4258 22.6438C33.5672 21.6097 32.3088 18.7305 30.1055 18.823Z" fill="#333333" stroke="#333333" stroke-linejoin="round"/>
<path d="M19 31H29" stroke="#333333" stroke-width="2" stroke-linecap="square"/>
<path d="M19 35H29" stroke="#333333" stroke-width="2" stroke-linecap="square"/>
</svg>
