<svg width="48" height="48" viewBox="0 0 48 48" fill="none" xmlns="http://www.w3.org/2000/svg">
<circle cx="24" cy="24" r="17" stroke="#333333" stroke-width="2"/>
<path d="M17.8101 19.489C20.0134 19.5815 21.1478 22.0693 20.8324 22.9373C19.9116 22.3803 18.884 21.1172 17.8101 21.1698C16.7297 21.2227 15.6024 22.5953 14.4898 23.3098C14.3483 22.2758 15.6068 19.3965 17.8101 19.489Z" fill="#333333" stroke="#333333" stroke-linejoin="round"/>
<path d="M30.1055 19.489C27.9022 19.5815 26.7677 22.0693 27.0832 22.9373C28.004 22.3803 29.0315 21.1172 30.1055 21.1698C31.1858 21.2227 32.3131 22.5953 33.4258 23.3098C33.5672 22.2758 32.3088 19.3965 30.1055 19.489Z" fill="#333333" stroke="#333333" stroke-linejoin="round"/>
<path d="M18.5722 31.0231C19.6514 32.2041 21.6838 33 24.0132 33C26.4473 33 28.5571 32.1309 29.5939 30.8615C30.0411 30.3138 30.4683 28.6554 28.8377 29.0642C24.0915 30.3243 23.6301 30.2778 18.9759 29.0642C17.6987 28.699 17.9132 30.1372 18.2923 30.7016C18.3716 30.8196 18.4763 30.9181 18.5722 31.0231Z" stroke="#333333" stroke-width="2"/>
</svg>
