<svg width="48" height="48" viewBox="0 0 48 48" fill="none" xmlns="http://www.w3.org/2000/svg">
<path fill-rule="evenodd" clip-rule="evenodd" d="M34.767 35.8353C31.9246 38.4227 28.1465 40 24 40C20.8342 40 17.8832 39.0806 15.3994 37.4942C15.0971 38.1029 14.6911 38.6479 14.2054 39.1044C17.0242 40.936 20.3879 42 24 42C29.0603 42 33.6328 39.9119 36.9031 36.5503C36.1321 36.4646 35.4089 36.2147 34.767 35.8353ZM41.8146 26.5931C41.9368 25.7464 42 24.8806 42 24C42 14.0589 33.9411 6 24 6C14.0589 6 6 14.0589 6 24C6 25.8967 6.29336 27.7249 6.83719 29.4417C7.32113 28.6605 7.84761 27.9454 8.34656 27.3279C8.11946 26.2544 8 25.1411 8 24C8 15.1634 15.1634 8 24 8C32.7582 8 39.8728 15.0369 39.9983 23.7653C40.631 24.588 41.2816 25.5509 41.8146 26.5931Z" fill="#333333"/>
<path d="M14.2364 20.4298C16.2602 21.1812 18.4845 20.6906 20.3968 18.8752C20.7296 19.8644 19.8456 21.9462 17.664 22.2683C15.4824 22.5904 14.0892 21.3415 14.2364 20.4298Z" fill="#333333" stroke="#333333" stroke-linejoin="round"/>
<path d="M33.325 20.4298C31.3013 21.1812 29.077 20.6906 27.1646 18.8752C26.8319 19.8644 27.7159 21.9462 29.8975 22.2683C32.0791 22.5904 33.4722 21.3415 33.325 20.4298Z" fill="#333333" stroke="#333333" stroke-linejoin="round"/>
<path d="M41 30.7273C41 32.5348 39.433 34 37.5 34C35.567 34 34 32.5348 34 30.7273C34 27.8636 37.5 25 37.5 25C37.5 25 41 27.8636 41 30.7273Z" fill="#333333"/>
<path d="M14 34.7273C14 36.5348 12.433 38 10.5 38C8.567 38 7 36.5348 7 34.7273C7 31.8636 10.5 29 10.5 29C10.5 29 14 31.8636 14 34.7273Z" fill="#333333"/>
<mask id="path-6-inside-1" fill="white">
<path d="M31.4065 33C30.0305 29.4383 27.2304 27 24 27C20.7695 27 17.9694 29.4383 16.5935 33C16.2061 34.0028 17.0133 35 18.0883 35L29.9116 35C30.9866 35 31.7939 34.0028 31.4065 33Z"/>
</mask>
<path d="M31.4065 33L29.5408 33.7207L31.4065 33ZM16.5935 33L18.4591 33.7207L18.4591 33.7207L16.5935 33ZM18.0883 35L18.0883 37L18.0883 35ZM29.9116 35V33V35ZM24 29C26.1331 29 28.3514 30.6419 29.5408 33.7207L33.2721 32.2793C31.7096 28.2348 28.3278 25 24 25V29ZM18.4591 33.7207C19.6485 30.6419 21.8669 29 24 29V25C19.6722 25 16.2903 28.2348 14.7279 32.2793L18.4591 33.7207ZM18.0883 37L29.9116 37V33L18.0883 33L18.0883 37ZM14.7279 32.2793C13.7443 34.8251 15.8672 37 18.0883 37L18.0883 33C18.1759 33 18.29 33.0424 18.3786 33.1578C18.4248 33.2179 18.4687 33.3047 18.4867 33.4157C18.5056 33.5324 18.4898 33.6411 18.4591 33.7207L14.7279 32.2793ZM29.5408 33.7207C29.5101 33.6411 29.4943 33.5324 29.5132 33.4157C29.5312 33.3047 29.5752 33.2179 29.6213 33.1578C29.7099 33.0424 29.8241 33 29.9116 33V37C32.1327 37 34.2556 34.8251 33.2721 32.2793L29.5408 33.7207Z" fill="#333333" mask="url(#path-6-inside-1)"/>
</svg>
