<svg width="48" height="48" viewBox="0 0 48 48" fill="none" xmlns="http://www.w3.org/2000/svg">
<path fill-rule="evenodd" clip-rule="evenodd" d="M29.0939 39.1721C35.433 37.0446 40 31.0557 40 24C40 15.1634 32.8366 8 24 8C15.1634 8 8 15.1634 8 24C8 31.0557 12.567 37.0446 18.9061 39.1721C19.9658 40.8702 21.8509 42 24 42C14.0589 42 6 33.9411 6 24C6 14.0589 14.0589 6 24 6C33.9411 6 42 14.0589 42 24C42 33.9411 33.9411 42 24 42C26.1491 42 28.0342 40.8702 29.0939 39.1721ZM30 35.0608C30.9833 34.6847 31.7402 34.2206 32.3211 33.7157C33.7974 32.4327 34 31.0066 34 30.5L34 30.4771C34.0003 30.1862 34.0011 29.3869 33.6734 28.6382C33.497 28.235 33.2115 27.8111 32.7529 27.4913C32.2885 27.1674 31.7176 27 31.0583 27H31.0469H31.0352H31.0234H31.0114H30.9992H30.9869H30.9744H30.9617H30.9488H30.9358H30.9226H30.9092H30.8957H30.8819H30.8681H30.854H30.8398H30.8254H30.8109H30.7961H30.7813H30.7662H30.751H30.7356H30.7201H30.7044H30.6886H30.6726H30.6564H30.6401H30.6236H30.6069H30.5901H30.5732H30.5561H30.5388H30.5214H30.5038H30.4861H30.4682H30.4502H30.432H30.4137H30.3952H30.3766H30.3578H30.3389H30.3199H30.3007H30.2813H30.2618H30.2422H30.2224H30.2025H30.1824H30.1622H30.1418H30.1214H30.1007H30.08H30.0591H30.038H30.0169H29.9955H29.9741H29.9525H29.9308H29.909H29.887H29.8649H29.8426H29.8203H29.7978H29.7752H29.7524H29.7295H29.7065H29.6834H29.6601H29.6367H29.6132H29.5896H29.5658H29.542H29.518H29.4939H29.4696H29.4453H29.4208H29.3962H29.3715H29.3467H29.3217H29.2967H29.2715H29.2462H29.2208H29.1953H29.1697H29.1439H29.1181H29.0921H29.0661H29.0399H29.0136H28.9872H28.9607H28.9341H28.9074H28.8806H28.8537H28.8267H28.7996H28.7724H28.745H28.7176H28.6901H28.6625H28.6348H28.6069H28.579H28.551H28.5229H28.4947H28.4664H28.438H28.4095H28.381H28.3523H28.3235H28.2947H28.2658H28.2367H28.2076H28.1784H28.1491H28.1198H28.0903H28.0608H28.0311H28.0014H27.9716H27.9417H27.9118H27.8817H27.8516H27.8214H27.7911H27.7608H27.7303H27.6998H27.6692H27.6386H27.6078H27.577H27.5461H27.5152H27.4841H27.453H27.4219H27.3906H27.3593H27.3279H27.2965H27.265H27.2334H27.2017H27.17H27.1382H27.1064H27.0745H27.0425H27.0105H26.9784H26.9462H26.914H26.8817H26.8494H26.817H26.7846H26.7521H26.7195H26.6869H26.6542H26.6215H26.5887H26.5559H26.523H26.4901H26.4571H26.424H26.391H26.3578H26.3246H26.2914H26.2581H26.2248H26.1915H26.158H26.1246H26.0911H26.0575H26.024H25.9903H25.9567H25.923H25.8892H25.8555H25.8216H25.7878H25.7539H25.72H25.686H25.652H25.618H25.5839H25.5498H25.5157H25.4815H25.4473H25.4131H25.3788H25.3446H25.3103H25.2759H25.2416H25.2072H25.1728H25.1383H25.1039H25.0694H25.0349H25.0004H24.9658H24.9313H24.8967H24.8621H24.8274H24.7928H24.7581H24.7235H24.6888H24.6541H24.6194H24.5846H24.5499H24.5151H24.4803H24.4456H24.4108H24.376H24.3412H24.3063H24.2715H24.2367H24.2018H24.167H24.1321H24.0973H24.0624H24.0276H23.9927H23.9579H23.923H23.8881H23.8533H23.8184H23.7835H23.7487H23.7138H23.679H23.6441H23.6093H23.5744H23.5396H23.5048H23.47H23.4352H23.4004H23.3656H23.3308H23.296H23.2613H23.2266H23.1918H23.1571H23.1224H23.0877H23.0531H23.0184H22.9838H22.9492H22.9146H22.88H22.8454H22.8109H22.7764H22.7419H22.7074H22.673H22.6386H22.6042H22.5698H22.5354H22.5011H22.4668H22.4326H22.3983H22.3641H22.3299H22.2958H22.2617H22.2276H22.1935H22.1595H22.1256H22.0916H22.0577H22.0238H21.99H21.9562H21.9224H21.8887H21.855H21.8214H21.7878H21.7542H21.7207H21.6872H21.6538H21.6204H21.587H21.5537H21.5205H21.4873H21.4541H21.421H21.388H21.3549H21.322H21.2891H21.2562H21.2234H21.1907H21.158H21.1253H21.0927H21.0602H21.0277H20.9953H20.9629H20.9306H20.8984H20.8662H20.8341H20.802H20.77H20.7381H20.7062H20.6744H20.6426H20.6109H20.5793H20.5478H20.5163H20.4849H20.4535H20.4222H20.391H20.3599H20.3288H20.2978H20.2669H20.236H20.2053H20.1746H20.1439H20.1134H20.0829H20.0525H20.0222H19.9919H19.9618H19.9317H19.9017H19.8718H19.8419H19.8122H19.7825H19.7529H19.7234H19.694H19.6647H19.6354H19.6063H19.5772H19.5482H19.5193H19.4905H19.4618H19.4332H19.4046H19.3762H19.3479H19.3196H19.2915H19.2634H19.2354H19.2076H19.1798H19.1521H19.1246H19.0971H19.0697H19.0424H19.0153H18.9882H18.9612H18.9344H18.9076H18.881H18.8544H18.828H18.8016H18.7754H18.7493H18.7233H18.6974H18.6716H18.6459H18.6203H18.5949H18.5695H18.5443H18.5192H18.4942H18.4693H18.4445H18.4199H18.3953H18.3709H18.3466H18.3224H18.2984H18.2744H18.2506H18.2269H18.2034H18.1799H18.1566H18.1334H18.1103H18.0874H18.0646H18.0419H18.0193H17.9969H17.9746H17.9524H17.9303H17.9084H17.8866H17.865H17.8435H17.8221H17.8009H17.7798H17.7588H17.738H17.7173H17.6967H17.6763H17.656H17.6359H17.6159H17.596H17.5763H17.5567H17.5373H17.518H17.4989H17.4799H17.461H17.4423H17.4238H17.4054H17.3871H17.369H17.3511H17.3333H17.3156H17.2981H17.2808H17.2636H17.2466H17.2297H17.213H17.1964H17.18H17.1637H17.1477H17.1317H17.1159H17.1003H17.0849H17.0696H17.0545H17.0395H17.0247H17.0101H16.9956H16.9813C16.2481 27 15.6174 27.1458 15.1127 27.4707C14.5925 27.8056 14.3001 28.2703 14.1502 28.7273C14.007 29.1635 13.9931 29.5909 14.0021 29.9011C14.0067 30.0595 14.0182 30.2041 14.0267 30.3107L14.0276 30.3217C14.0316 30.3727 14.0347 30.4109 14.0369 30.4448C14.0381 30.462 14.0388 30.4752 14.0392 30.4852L14.0396 30.4963C14.0396 30.499 14.0396 30.5001 14.0396 30.5C14.0396 30.8805 14.0535 32.3442 15.4372 33.6803C16.0415 34.2639 16.8702 34.7875 18 35.189V33.0275C17.4697 32.7738 17.0933 32.4993 16.8265 32.2416C16.0385 31.4807 16.0394 30.7071 16.0396 30.5092L16.0396 30.5C16.0396 30.3901 16.0294 30.2634 16.0222 30.1752L16.0203 30.1514C16.0118 30.0445 16.0043 29.9453 16.0013 29.843C15.9951 29.6318 16.0116 29.4693 16.0504 29.3509C16.0825 29.2532 16.1239 29.1983 16.1953 29.1523C16.2822 29.0964 16.5009 29 16.9813 29H16.9956H17.0101H17.0247H17.0395H17.0545H17.0696H17.0849H17.1003H17.1159H17.1317H17.1477H17.1637H17.18H17.1964H17.213H17.2297H17.2466H17.2636H17.2808H17.2981H17.3156H17.3333H17.3511H17.369H17.3871H17.4054H17.4238H17.4423H17.461H17.4799H17.4989H17.518H17.5373H17.5567H17.5763H17.596H17.6159H17.6359H17.656H17.6763H17.6967H17.7173H17.738H17.7588H17.7798H17.8009H17.8221H17.8435H17.865H17.8866H17.9084H17.9303H17.9524H17.9746H17.9969H18.0193H18.0419H18.0646H18.0874H18.1103H18.1334H18.1566H18.1799H18.2034H18.2269H18.2506H18.2744H18.2984H18.3224H18.3466H18.3709H18.3953H18.4199H18.4445H18.4693H18.4942H18.5192H18.5443H18.5695H18.5949H18.6203H18.6459H18.6716H18.6974H18.7233H18.7493H18.7754H18.8016H18.828H18.8544H18.881H18.9076H18.9344H18.9612H18.9882H19.0153H19.0424H19.0697H19.0971H19.1246H19.1521H19.1798H19.2076H19.2354H19.2634H19.2915H19.3196H19.3479H19.3762H19.4046H19.4332H19.4618H19.4905H19.5193H19.5482H19.5772H19.6063H19.6354H19.6647H19.694H19.7234H19.7529H19.7825H19.8122H19.8419H19.8718H19.9017H19.9317H19.9618H19.9919H20.0222H20.0525H20.0829H20.1134H20.1439H20.1746H20.2053H20.236H20.2669H20.2978H20.3288H20.3599H20.391H20.4222H20.4535H20.4849H20.5163H20.5478H20.5793H20.6109H20.6426H20.6744H20.7062H20.7381H20.77H20.802H20.8341H20.8662H20.8984H20.9306H20.9629H20.9953H21.0277H21.0602H21.0927H21.1253H21.158H21.1907H21.2234H21.2562H21.2891H21.322H21.3549H21.388H21.421H21.4541H21.4873H21.5205H21.5537H21.587H21.6204H21.6538H21.6872H21.7207H21.7542H21.7878H21.8214H21.855H21.8887H21.9224H21.9562H21.99H22.0238H22.0577H22.0916H22.1256H22.1595H22.1935H22.2276H22.2617H22.2958H22.3299H22.3641H22.3983H22.4326H22.4668H22.5011H22.5354H22.5698H22.6042H22.6386H22.673H22.7074H22.7419H22.7764H22.8109H22.8454H22.88H22.9146H22.9492H22.9838H23.0184H23.0531H23.0877H23.1224H23.1571H23.1918H23.2266H23.2613H23.296H23.3308H23.3656H23.4004H23.4352H23.47H23.5048H23.5396H23.5744H23.6093H23.6441H23.679H23.7138H23.7487H23.7835H23.8184H23.8533H23.8881H23.923H23.9579H23.9927H24.0276H24.0624H24.0973H24.1321H24.167H24.2018H24.2367H24.2715H24.3063H24.3412H24.376H24.4108H24.4456H24.4803H24.5151H24.5499H24.5846H24.6194H24.6541H24.6888H24.7235H24.7581H24.7928H24.8274H24.8621H24.8967H24.9313H24.9658H25.0004H25.0349H25.0694H25.1039H25.1383H25.1728H25.2072H25.2416H25.2759H25.3103H25.3446H25.3788H25.4131H25.4473H25.4815H25.5157H25.5498H25.5839H25.618H25.652H25.686H25.72H25.7539H25.7878H25.8216H25.8555H25.8892H25.923H25.9567H25.9903H26.024H26.0575H26.0911H26.1246H26.158H26.1915H26.2248H26.2581H26.2914H26.3246H26.3578H26.391H26.424H26.4571H26.4901H26.523H26.5559H26.5887H26.6215H26.6542H26.6869H26.7195H26.7521H26.7846H26.817H26.8494H26.8817H26.914H26.9462H26.9784H27.0105H27.0425H27.0745H27.1064H27.1382H27.17H27.2017H27.2334H27.265H27.2965H27.3279H27.3593H27.3906H27.4219H27.453H27.4841H27.5152H27.5461H27.577H27.6078H27.6386H27.6692H27.6998H27.7303H27.7608H27.7911H27.8214H27.8516H27.8817H27.9118H27.9417H27.9716H28.0014H28.0311H28.0608H28.0903H28.1198H28.1491H28.1784H28.2076H28.2367H28.2658H28.2947H28.3235H28.3523H28.381H28.4095H28.438H28.4664H28.4947H28.5229H28.551H28.579H28.6069H28.6348H28.6625H28.6901H28.7176H28.745H28.7724H28.7996H28.8267H28.8537H28.8806H28.9074H28.9341H28.9607H28.9872H29.0136H29.0399H29.0661H29.0921H29.1181H29.1439H29.1697H29.1953H29.2208H29.2462H29.2715H29.2967H29.3217H29.3467H29.3715H29.3962H29.4208H29.4453H29.4696H29.4939H29.518H29.542H29.5658H29.5896H29.6132H29.6367H29.6601H29.6834H29.7065H29.7295H29.7524H29.7752H29.7978H29.8203H29.8426H29.8649H29.887H29.909H29.9308H29.9525H29.9741H29.9955H30.0169H30.038H30.0591H30.08H30.1007H30.1214H30.1418H30.1622H30.1824H30.2025H30.2224H30.2422H30.2618H30.2813H30.3007H30.3199H30.3389H30.3578H30.3766H30.3952H30.4137H30.432H30.4502H30.4682H30.4861H30.5038H30.5214H30.5388H30.5561H30.5732H30.5901H30.6069H30.6236H30.6401H30.6564H30.6726H30.6886H30.7044H30.7201H30.7356H30.751H30.7662H30.7813H30.7961H30.8109H30.8254H30.8398H30.854H30.8681H30.8819H30.8957H30.9092H30.9226H30.9358H30.9488H30.9617H30.9744H30.9869H30.9992H31.0114H31.0234H31.0352H31.0469H31.0583C31.37 29 31.5272 29.0748 31.6088 29.1317C31.6964 29.1928 31.7748 29.2884 31.8412 29.4399C31.9899 29.7799 32 30.2072 32 30.5C32 30.4999 32 30.5043 31.9996 30.513C31.9991 30.5215 31.9984 30.5334 31.9969 30.5484C31.994 30.5786 31.9888 30.6198 31.9793 30.6702C31.9603 30.7712 31.9252 30.9065 31.8611 31.0642C31.7349 31.375 31.4907 31.7877 31.0091 32.2062C30.7544 32.4276 30.425 32.6573 30 32.8754V35.0608Z" fill="#333333"/>
<mask id="path-2-inside-1" fill="white">
<path d="M18 32C18 31.4477 18.4477 31 19 31H29C29.5523 31 30 31.4477 30 32V37C30 40.3137 27.3137 43 24 43C20.6863 43 18 40.3137 18 37V32Z"/>
</mask>
<path d="M18 32C18 31.4477 18.4477 31 19 31H29C29.5523 31 30 31.4477 30 32V37C30 40.3137 27.3137 43 24 43C20.6863 43 18 40.3137 18 37V32Z" stroke="#333333" stroke-width="4" mask="url(#path-2-inside-1)"/>
<path d="M24 32V36" stroke="#333333" stroke-width="2" stroke-linecap="round"/>
<circle cx="30.5" cy="20.5" r="1.5" stroke="#333333" stroke-width="2"/>
<circle cx="17.5" cy="20.5" r="1.5" stroke="#333333" stroke-width="2"/>
</svg>
