<svg width="48" height="48" viewBox="0 0 48 48" fill="none" xmlns="http://www.w3.org/2000/svg">
<g opacity="0.4">
<circle cx="24" cy="24" r="8" stroke="#FF0000" stroke-opacity="0.32" stroke-width="0.25"/>
<circle cx="24" cy="24" r="16" stroke="#FF0000" stroke-opacity="0.32" stroke-width="0.25"/>
<circle cx="24" cy="24" r="20" stroke="#FF0000" stroke-opacity="0.32" stroke-width="0.25"/>
<rect x="4" y="4" width="40" height="40" stroke="#FF0000" stroke-opacity="0.32" stroke-width="0.25"/>
<rect x="10" y="4" width="28" height="40" rx="3" stroke="#FF0000" stroke-opacity="0.32" stroke-width="0.25"/>
<rect x="6" y="6" width="36" height="36" rx="3" stroke="#FF0000" stroke-opacity="0.32" stroke-width="0.25"/>
<rect x="44" y="10" width="28" height="40" rx="3" transform="rotate(90 44 10)" stroke="#FF0000" stroke-opacity="0.32" stroke-width="0.25"/>
<line x1="24.125" y1="4" x2="24.125" y2="44" stroke="#FF0000" stroke-opacity="0.32" stroke-width="0.25"/>
<line x1="44" y1="24.125" x2="4" y2="24.125" stroke="#FF0000" stroke-opacity="0.32" stroke-width="0.25"/>
<line x1="44.0884" y1="4.08839" x2="4.08839" y2="44.0884" stroke="#FF0000" stroke-opacity="0.32" stroke-width="0.25"/>
<line x1="43.9116" y1="44.0884" x2="3.91161" y2="4.08839" stroke="#FF0000" stroke-opacity="0.32" stroke-width="0.25"/>
<line x1="44" y1="32.125" x2="4" y2="32.125" stroke="#FF0000" stroke-opacity="0.32" stroke-width="0.25"/>
<line x1="44" y1="16.125" x2="4" y2="16.125" stroke="#FF0000" stroke-opacity="0.32" stroke-width="0.25"/>
<line x1="16.125" y1="4" x2="16.125" y2="44" stroke="#FF0000" stroke-opacity="0.32" stroke-width="0.25"/>
<line x1="32.125" y1="4" x2="32.125" y2="44" stroke="#FF0000" stroke-opacity="0.32" stroke-width="0.25"/>
</g>
<path fill-rule="evenodd" clip-rule="evenodd" d="M33.0389 37.204C37.2426 34.3209 40 29.4824 40 24C40 15.1634 32.8366 8 24 8C15.1634 8 8 15.1634 8 24C8 29.291 10.5683 33.9822 14.5262 36.895L13.3988 38.5485C8.91389 35.2748 6 29.9777 6 24C6 14.0589 14.0589 6 24 6C33.9411 6 42 14.0589 42 24C42 30.1918 38.8736 35.6534 34.1133 38.8924L33.0389 37.204Z" fill="#333333"/>
<path d="M19 23L16 21C16.7201 21.7878 17.9835 22.4002 18 23C18.0171 23.6202 16.7624 24.2269 16 25L19 23Z" stroke="#333333" stroke-width="2" stroke-linecap="round" stroke-linejoin="round"/>
<path d="M29 23L32 21C31.2799 21.7878 30.0165 22.4002 30 23C29.9829 23.6202 31.2376 24.2269 32 25L29 23Z" stroke="#333333" stroke-width="2" stroke-linecap="round" stroke-linejoin="round"/>
<mask id="path-19-inside-1" fill="white">
<path fill-rule="evenodd" clip-rule="evenodd" d="M18.026 32.8022C18.0088 32.8663 18 32.9322 18 33V36.138C16.7553 35.1685 16 33.8949 16 32.5C16 29.4624 19.5817 27 24 27C28.4183 27 32 29.4624 32 32.5C32 33.8949 31.2447 35.1685 30 36.138V33C30 32.9322 29.9912 32.8663 29.974 32.8022C29.9916 32.6987 30 32.5977 30 32.5C30 31.8294 29.6064 31.0033 28.5238 30.259C27.45 29.5208 25.8567 29 24 29C22.1433 29 20.55 29.5208 19.4762 30.259C18.3936 31.0033 18 31.8294 18 32.5C18 32.5977 18.0084 32.6987 18.026 32.8022Z"/>
</mask>
<path fill-rule="evenodd" clip-rule="evenodd" d="M18.026 32.8022C18.0088 32.8663 18 32.9322 18 33V36.138C16.7553 35.1685 16 33.8949 16 32.5C16 29.4624 19.5817 27 24 27C28.4183 27 32 29.4624 32 32.5C32 33.8949 31.2447 35.1685 30 36.138V33C30 32.9322 29.9912 32.8663 29.974 32.8022C29.9916 32.6987 30 32.5977 30 32.5C30 31.8294 29.6064 31.0033 28.5238 30.259C27.45 29.5208 25.8567 29 24 29C22.1433 29 20.55 29.5208 19.4762 30.259C18.3936 31.0033 18 31.8294 18 32.5C18 32.5977 18.0084 32.6987 18.026 32.8022Z" fill="#333333"/>
<path d="M18.026 32.8022L19.958 33.3193L20.0709 32.8974L19.9976 32.4668L18.026 32.8022ZM18 36.138L16.771 37.7158L20 40.231V36.138H18ZM30 36.138H28V40.231L31.229 37.7158L30 36.138ZM29.974 32.8022L28.0024 32.4668L27.9291 32.8974L28.042 33.3193L29.974 32.8022ZM28.5238 30.259L29.6569 28.6109L29.6569 28.6109L28.5238 30.259ZM19.4762 30.259L18.3431 28.6109L19.4762 30.259ZM16.094 32.2851C16.032 32.5168 16 32.7566 16 33H20C20 33.1079 19.9857 33.2158 19.958 33.3193L16.094 32.2851ZM16 33V36.138H20V33H16ZM14 32.5C14 34.67 15.1802 36.4767 16.771 37.7158L19.229 34.5602C18.3304 33.8602 18 33.1197 18 32.5H14ZM24 25C21.4385 25 19.0318 25.7104 17.2101 26.9628C15.3973 28.2091 14 30.133 14 32.5H18C18 31.8294 18.3936 31.0033 19.4762 30.259C20.55 29.5208 22.1433 29 24 29V25ZM34 32.5C34 30.133 32.6027 28.2091 30.7899 26.9628C28.9682 25.7104 26.5615 25 24 25V29C25.8567 29 27.45 29.5208 28.5238 30.259C29.6064 31.0033 30 31.8294 30 32.5H34ZM31.229 37.7158C32.8198 36.4767 34 34.67 34 32.5H30C30 33.1197 29.6696 33.8602 28.771 34.5602L31.229 37.7158ZM32 36.138V33H28V36.138H32ZM32 33C32 32.7566 31.968 32.5168 31.906 32.2851L28.042 33.3193C28.0143 33.2158 28 33.1079 28 33H32ZM31.9457 33.1377C31.9819 32.925 32 32.7119 32 32.5H28C28 32.4835 28.0014 32.4723 28.0024 32.4668L31.9457 33.1377ZM32 32.5C32 30.9919 31.1159 29.614 29.6569 28.6109L27.3907 31.9071C28.0969 32.3926 28 32.6669 28 32.5H32ZM29.6569 28.6109C28.2095 27.6158 26.2096 27 24 27V31C25.5039 31 26.6906 31.4257 27.3907 31.9071L29.6569 28.6109ZM24 27C21.7904 27 19.7905 27.6158 18.3431 28.6109L20.6093 31.9071C21.3094 31.4257 22.4961 31 24 31V27ZM18.3431 28.6109C16.8841 29.614 16 30.9919 16 32.5H20C20 32.6669 19.9031 32.3926 20.6093 31.9071L18.3431 28.6109ZM16 32.5C16 32.7119 16.0181 32.925 16.0543 33.1377L19.9976 32.4668C19.9986 32.4723 20 32.4835 20 32.5H16Z" fill="#333333" mask="url(#path-19-inside-1)"/>
<path d="M18 37.3344L18.1196 38.3273L19 38.2212V37.3344H18ZM30 37.3344H29V38.2212L29.8804 38.3273L30 37.3344ZM19 34C19 34.1408 18.9036 34.1315 19.0969 33.9934C19.2895 33.8558 19.6317 33.6992 20.1426 33.5573C21.1512 33.2771 22.554 33.125 24 33.125C25.446 33.125 26.8488 33.2771 27.8574 33.5573C28.3683 33.6992 28.7105 33.8558 28.9031 33.9934C29.0964 34.1315 29 34.1408 29 34H31C31 33.2341 30.5286 32.6966 30.0656 32.3659C29.602 32.0348 29.0067 31.8008 28.3926 31.6302C27.1512 31.2854 25.554 31.125 24 31.125C22.446 31.125 20.8488 31.2854 19.6074 31.6302C18.9933 31.8008 18.398 32.0348 17.9344 32.3659C17.4714 32.6966 17 33.2341 17 34H19ZM19 37.3344V34H17V37.3344H19ZM13 39.5C13 39.7362 12.848 39.7714 13.0348 39.6308C13.2002 39.5062 13.5055 39.3457 13.9882 39.1752C14.9416 38.8382 16.3603 38.5393 18.1196 38.3273L17.8804 36.3416C16.0529 36.5619 14.4716 36.8831 13.3217 37.2895C12.7527 37.4906 12.2306 37.7326 11.8314 38.0333C11.4536 38.3179 11 38.8011 11 39.5H13ZM24 41C20.7335 41 17.8051 40.7235 15.7187 40.2888C14.6672 40.0697 13.8825 39.8211 13.3849 39.576C13.1341 39.4525 13.0079 39.3546 12.9572 39.3031C12.9098 39.2549 13 39.3239 13 39.5H11C11 40.0212 11.2581 40.4273 11.5304 40.7046C11.7994 40.9785 12.1447 41.1946 12.5012 41.3702C13.218 41.7233 14.1906 42.0134 15.3108 42.2467C17.5675 42.7169 20.639 43 24 43V41ZM35 39.5C35 39.3239 35.0902 39.2549 35.0428 39.3031C34.9921 39.3546 34.8659 39.4525 34.6151 39.576C34.1175 39.8211 33.3328 40.0697 32.2813 40.2888C30.1949 40.7235 27.2665 41 24 41V43C27.361 43 30.4325 42.7169 32.6892 42.2467C33.8094 42.0134 34.782 41.7233 35.4988 41.3702C35.8553 41.1946 36.2006 40.9785 36.4696 40.7046C36.7419 40.4273 37 40.0212 37 39.5H35ZM29.8804 38.3273C31.6397 38.5393 33.0584 38.8382 34.0118 39.1752C34.4945 39.3457 34.7998 39.5062 34.9652 39.6308C35.152 39.7714 35 39.7362 35 39.5H37C37 38.8011 36.5464 38.3179 36.1686 38.0333C35.7694 37.7326 35.2473 37.4906 34.6783 37.2895C33.5284 36.8831 31.9471 36.5619 30.1196 36.3416L29.8804 38.3273ZM29 34V37.3344H31V34H29Z" fill="#333333"/>
<path d="M22 33V38" stroke="#333333" stroke-width="2" stroke-linecap="round"/>
<path d="M26 33V38" stroke="#333333" stroke-width="2" stroke-linecap="round"/>
</svg>
