<svg width="48" height="48" viewBox="0 0 48 48" fill="none" xmlns="http://www.w3.org/2000/svg">
<path d="M22.3838 16.7361C22.1589 16.5289 21.9785 16.279 21.8534 16.0013C21.7282 15.7236 21.661 15.4239 21.6555 15.12C21.6501 14.816 21.7067 14.5141 21.8218 14.2323C21.9369 13.9504 22.1083 13.6944 22.3257 13.4794C22.5431 13.2645 22.802 13.095 23.0871 12.9812C23.3721 12.8673 23.6774 12.8114 23.9848 12.8168C24.2922 12.8221 24.5953 12.8886 24.8761 13.0124C25.1569 13.1361 25.4097 13.3145 25.6193 13.5369C26.0236 13.966 26.2438 14.5335 26.2333 15.12C26.2228 15.7064 25.9826 16.2659 25.5632 16.6807C25.1437 17.0954 24.5779 17.333 23.9848 17.3433C23.3917 17.3536 22.8178 17.136 22.3838 16.7361ZM13.7473 5L15.9068 7.13535C13.7605 9.25787 12.5547 12.1365 12.5547 15.138C12.5547 18.1395 13.7605 21.0181 15.9068 23.1407L13.7473 25.276C12.4007 23.9447 11.3326 22.3642 10.6038 20.6247C9.87508 18.8852 9.5 17.0208 9.5 15.138C9.5 13.2552 9.87508 11.3908 10.6038 9.65127C11.3326 7.91178 12.4007 6.33127 13.7473 5ZM34.2527 5C35.5993 6.33127 36.6674 7.91178 37.3962 9.65127C38.1249 11.3908 38.5 13.2552 38.5 15.138C38.5 17.0208 38.1249 18.8852 37.3962 20.6247C36.6674 22.3642 35.5993 23.9447 34.2527 25.276L32.0932 23.1407C34.2395 21.0181 35.4453 18.1395 35.4453 15.138C35.4453 12.1365 34.2395 9.25787 32.0932 7.13535L34.2527 5ZM18.0648 9.26768L20.2228 11.4015C19.7267 11.892 19.3332 12.4743 19.0647 13.1151C18.7962 13.756 18.6581 14.4428 18.6581 15.1365C18.6581 15.8302 18.7962 16.517 19.0647 17.1579C19.3332 17.7987 19.7267 18.381 20.2228 18.8715L18.0648 21.0053C16.4907 19.4488 15.6064 17.3377 15.6064 15.1365C15.6064 12.9353 16.4907 10.8242 18.0648 9.26768ZM29.9352 9.26768C31.5093 10.8242 32.3936 12.9353 32.3936 15.1365C32.3936 17.3377 31.5093 19.4488 29.9352 21.0053L27.7772 18.8715C28.2733 18.381 28.6668 17.7987 28.9353 17.1579C29.2038 16.517 29.3419 15.8302 29.3419 15.1365C29.3419 14.4428 29.2038 13.756 28.9353 13.1151C28.6668 12.4743 28.2733 11.892 27.7772 11.4015L29.9352 9.26768Z" fill="#333333"/>
<mask id="path-2-inside-1" fill="white">
<path fill-rule="evenodd" clip-rule="evenodd" d="M12 27C10.3431 27 9 28.3431 9 30V40C9 41.6569 10.3431 43 12 43H36C37.6569 43 39 41.6569 39 40V30C39 28.3431 37.6569 27 36 27H12ZM30.578 39.7744C31.2525 39.5283 31.7743 39.1842 32.1434 38.7422V34.7705H28.2264V36.2812H30.0927V37.9971C29.7645 38.3252 29.2154 38.4893 28.4452 38.4893C27.6796 38.4893 27.0985 38.2227 26.702 37.6895C26.3055 37.1562 26.1073 36.3678 26.1073 35.3242V34.6885C26.1119 33.654 26.2964 32.8747 26.661 32.3506C27.0256 31.8265 27.5565 31.5645 28.2538 31.5645C28.8007 31.5645 29.229 31.6966 29.5389 31.9609C29.8534 32.2253 30.0562 32.6423 30.1473 33.2119H32.1434C32.0204 32.1364 31.6262 31.3184 30.9608 30.7578C30.2955 30.1927 29.3726 29.9102 28.1923 29.9102C27.3446 29.9102 26.604 30.1038 25.9706 30.4912C25.3417 30.874 24.8586 31.43 24.5214 32.1592C24.1887 32.8838 24.0223 33.7428 24.0223 34.7363V35.4131C24.0315 36.3792 24.2115 37.2201 24.5624 37.9355C24.9178 38.651 25.4191 39.1979 26.0663 39.5762C26.718 39.9499 27.4745 40.1367 28.3358 40.1367C29.1561 40.1367 29.9035 40.016 30.578 39.7744ZM22.9901 36.2539H21.8622V30.0469H19.8661L15.7167 36.6025L15.8055 37.8467H19.8866V40H21.8622V37.8467H22.9901V36.2539ZM19.8866 36.2539H17.6854L19.7567 32.9658L19.8866 32.7402V36.2539Z"/>
</mask>
<path fill-rule="evenodd" clip-rule="evenodd" d="M12 27C10.3431 27 9 28.3431 9 30V40C9 41.6569 10.3431 43 12 43H36C37.6569 43 39 41.6569 39 40V30C39 28.3431 37.6569 27 36 27H12ZM30.578 39.7744C31.2525 39.5283 31.7743 39.1842 32.1434 38.7422V34.7705H28.2264V36.2812H30.0927V37.9971C29.7645 38.3252 29.2154 38.4893 28.4452 38.4893C27.6796 38.4893 27.0985 38.2227 26.702 37.6895C26.3055 37.1562 26.1073 36.3678 26.1073 35.3242V34.6885C26.1119 33.654 26.2964 32.8747 26.661 32.3506C27.0256 31.8265 27.5565 31.5645 28.2538 31.5645C28.8007 31.5645 29.229 31.6966 29.5389 31.9609C29.8534 32.2253 30.0562 32.6423 30.1473 33.2119H32.1434C32.0204 32.1364 31.6262 31.3184 30.9608 30.7578C30.2955 30.1927 29.3726 29.9102 28.1923 29.9102C27.3446 29.9102 26.604 30.1038 25.9706 30.4912C25.3417 30.874 24.8586 31.43 24.5214 32.1592C24.1887 32.8838 24.0223 33.7428 24.0223 34.7363V35.4131C24.0315 36.3792 24.2115 37.2201 24.5624 37.9355C24.9178 38.651 25.4191 39.1979 26.0663 39.5762C26.718 39.9499 27.4745 40.1367 28.3358 40.1367C29.1561 40.1367 29.9035 40.016 30.578 39.7744ZM22.9901 36.2539H21.8622V30.0469H19.8661L15.7167 36.6025L15.8055 37.8467H19.8866V40H21.8622V37.8467H22.9901V36.2539ZM19.8866 36.2539H17.6854L19.7567 32.9658L19.8866 32.7402V36.2539Z" fill="#333333"/>
<path d="M32.1434 38.7422L33.2948 39.7036L33.6434 39.2861V38.7422H32.1434ZM30.578 39.7744L31.0837 41.1866L31.0921 41.1835L30.578 39.7744ZM32.1434 34.7705H33.6434V33.2705H32.1434V34.7705ZM28.2264 34.7705V33.2705H26.7264V34.7705H28.2264ZM28.2264 36.2812H26.7264V37.7812H28.2264V36.2812ZM30.0927 36.2812H31.5927V34.7812H30.0927V36.2812ZM30.0927 37.9971L31.1533 39.0577L31.5927 38.6184V37.9971H30.0927ZM26.1073 34.6885L24.6073 34.6819V34.6885H26.1073ZM29.5389 31.9609L28.5655 33.1022L28.5738 33.1092L29.5389 31.9609ZM30.1473 33.2119L28.6662 33.4489L28.8683 34.7119H30.1473V33.2119ZM32.1434 33.2119V34.7119H33.8248L33.6337 33.0414L32.1434 33.2119ZM30.9608 30.7578L29.9898 31.9011L29.9944 31.905L30.9608 30.7578ZM25.9706 30.4912L26.7505 31.7725L26.7531 31.7709L25.9706 30.4912ZM24.5214 32.1592L23.1599 31.5295L23.1582 31.5333L24.5214 32.1592ZM24.0223 35.4131H22.5223V35.4202L22.5224 35.4272L24.0223 35.4131ZM24.5624 37.9355L23.2156 38.5961L23.219 38.6029L24.5624 37.9355ZM26.0663 39.5762L25.3093 40.8712L25.3201 40.8774L26.0663 39.5762ZM21.8622 36.2539H20.3622V37.7539H21.8622V36.2539ZM22.9901 36.2539H24.4901V34.7539H22.9901V36.2539ZM21.8622 30.0469H23.3622V28.5469H21.8622V30.0469ZM19.8661 30.0469V28.5469H19.0403L18.5986 29.2446L19.8661 30.0469ZM15.7167 36.6025L14.4492 35.8003L14.1853 36.2172L14.2205 36.7094L15.7167 36.6025ZM15.8055 37.8467L14.3094 37.9536L14.4089 39.3467H15.8055V37.8467ZM19.8866 37.8467H21.3866V36.3467H19.8866V37.8467ZM19.8866 40H18.3866V41.5H19.8866V40ZM21.8622 40V41.5H23.3622V40H21.8622ZM21.8622 37.8467V36.3467H20.3622V37.8467H21.8622ZM22.9901 37.8467V39.3467H24.4901V37.8467H22.9901ZM17.6854 36.2539L16.4163 35.4544L14.9677 37.7539H17.6854V36.2539ZM19.8866 36.2539V37.7539H21.3866V36.2539H19.8866ZM19.7567 32.9658L21.0259 33.7653L21.0418 33.7401L21.0566 33.7143L19.7567 32.9658ZM19.8866 32.7402H21.3866V27.1287L18.5867 31.9918L19.8866 32.7402ZM10.5 30C10.5 29.1716 11.1716 28.5 12 28.5V25.5C9.51472 25.5 7.5 27.5147 7.5 30H10.5ZM10.5 40V30H7.5V40H10.5ZM12 41.5C11.1716 41.5 10.5 40.8284 10.5 40H7.5C7.5 42.4853 9.51472 44.5 12 44.5V41.5ZM36 41.5H12V44.5H36V41.5ZM37.5 40C37.5 40.8284 36.8284 41.5 36 41.5V44.5C38.4853 44.5 40.5 42.4853 40.5 40H37.5ZM37.5 30V40H40.5V30H37.5ZM36 28.5C36.8284 28.5 37.5 29.1716 37.5 30H40.5C40.5 27.5147 38.4853 25.5 36 25.5V28.5ZM12 28.5H36V25.5H12V28.5ZM30.9921 37.7807C30.8292 37.9758 30.5508 38.1876 30.0639 38.3653L31.0921 41.1835C31.9542 40.869 32.7194 40.3927 33.2948 39.7036L30.9921 37.7807ZM30.6434 34.7705V38.7422H33.6434V34.7705H30.6434ZM28.2264 36.2705H32.1434V33.2705H28.2264V36.2705ZM29.7264 36.2812V34.7705H26.7264V36.2812H29.7264ZM30.0927 34.7812H28.2264V37.7812H30.0927V34.7812ZM31.5927 37.9971V36.2812H28.5927V37.9971H31.5927ZM28.4452 39.9893C29.3646 39.9893 30.4068 39.8043 31.1533 39.0577L29.032 36.9364C29.0806 36.8878 29.0968 36.9017 29.0053 36.929C28.9085 36.9579 28.7314 36.9893 28.4452 36.9893V39.9893ZM25.4983 38.5845C26.2236 39.5599 27.2876 39.9893 28.4452 39.9893V36.9893C28.0715 36.9893 27.9734 36.8854 27.9057 36.7944L25.4983 38.5845ZM24.6073 35.3242C24.6073 36.5188 24.8275 37.6824 25.4983 38.5845L27.9057 36.7944C27.7836 36.6301 27.6073 36.2169 27.6073 35.3242H24.6073ZM24.6073 34.6885V35.3242H27.6073V34.6885H24.6073ZM25.4297 31.494C24.814 32.379 24.6125 33.5155 24.6073 34.6819L27.6073 34.6951C27.6113 33.7925 27.7789 33.3703 27.8924 33.2072L25.4297 31.494ZM28.2538 30.0645C27.1186 30.0645 26.1036 30.5251 25.4297 31.494L27.8924 33.2072C27.9415 33.1365 27.9761 33.1161 27.9965 33.1061C28.0219 33.0936 28.0947 33.0645 28.2538 33.0645V30.0645ZM30.5124 30.8197C29.8501 30.2548 29.0344 30.0645 28.2538 30.0645V33.0645C28.409 33.0645 28.4995 33.0835 28.543 33.0969C28.5819 33.1089 28.5809 33.1153 28.5655 33.1022L30.5124 30.8197ZM31.6285 32.9749C31.5033 32.1922 31.188 31.3876 30.5041 30.8127L28.5738 33.1092C28.5188 33.0629 28.6091 33.0923 28.6662 33.4489L31.6285 32.9749ZM32.1434 31.7119H30.1473V34.7119H32.1434V31.7119ZM29.9944 31.905C30.2996 32.1621 30.5625 32.5899 30.6532 33.3824L33.6337 33.0414C33.4783 31.6829 32.9528 30.4746 31.9273 29.6106L29.9944 31.905ZM28.1923 31.4102C29.1426 31.4102 29.6781 31.6364 29.9898 31.9011L31.9318 29.6145C30.9128 28.7491 29.6026 28.4102 28.1923 28.4102V31.4102ZM26.7531 31.7709C27.1191 31.5471 27.5808 31.4102 28.1923 31.4102V28.4102C27.1084 28.4102 26.089 28.6606 25.188 29.2115L26.7531 31.7709ZM25.8828 32.7888C26.107 32.304 26.399 31.9865 26.7505 31.7725L25.1907 29.2099C24.2844 29.7616 23.6102 30.556 23.1599 31.5295L25.8828 32.7888ZM25.5223 34.7363C25.5223 33.9072 25.6613 33.2712 25.8846 32.785L23.1582 31.5333C22.716 32.4964 22.5223 33.5785 22.5223 34.7363H25.5223ZM25.5223 35.4131V34.7363H22.5223V35.4131H25.5223ZM25.9091 37.275C25.6757 36.799 25.5297 36.1877 25.5223 35.3989L22.5224 35.4272C22.5332 36.5707 22.7473 37.6411 23.2156 38.5961L25.9091 37.275ZM26.8232 38.2812C26.4454 38.0604 26.1401 37.7398 25.9057 37.2682L23.219 38.6029C23.6956 39.5622 24.3929 40.3355 25.3093 40.8712L26.8232 38.2812ZM28.3358 38.6367C27.6974 38.6367 27.2055 38.5003 26.8125 38.2749L25.3201 40.8774C26.2305 41.3994 27.2516 41.6367 28.3358 41.6367V38.6367ZM30.0723 38.3622C29.5818 38.5379 29.0084 38.6367 28.3358 38.6367V41.6367C29.3039 41.6367 30.2253 41.494 31.0837 41.1866L30.0723 38.3622ZM21.8622 37.7539H22.9901V34.7539H21.8622V37.7539ZM20.3622 30.0469V36.2539H23.3622V30.0469H20.3622ZM19.8661 31.5469H21.8622V28.5469H19.8661V31.5469ZM16.9841 37.4048L21.1335 30.8491L18.5986 29.2446L14.4492 35.8003L16.9841 37.4048ZM17.3017 37.7398L17.2129 36.4957L14.2205 36.7094L14.3094 37.9536L17.3017 37.7398ZM19.8866 36.3467H15.8055V39.3467H19.8866V36.3467ZM21.3866 40V37.8467H18.3866V40H21.3866ZM21.8622 38.5H19.8866V41.5H21.8622V38.5ZM20.3622 37.8467V40H23.3622V37.8467H20.3622ZM22.9901 36.3467H21.8622V39.3467H22.9901V36.3467ZM21.4901 36.2539V37.8467H24.4901V36.2539H21.4901ZM17.6854 37.7539H19.8866V34.7539H17.6854V37.7539ZM18.4875 32.1663L16.4163 35.4544L18.9546 37.0534L21.0259 33.7653L18.4875 32.1663ZM18.5867 31.9918L18.4568 32.2174L21.0566 33.7143L21.1865 33.4887L18.5867 31.9918ZM21.3866 36.2539V32.7402H18.3866V36.2539H21.3866Z" fill="#333333" mask="url(#path-2-inside-1)"/>
</svg>
