<svg width="48" height="48" viewBox="0 0 48 48" fill="none" xmlns="http://www.w3.org/2000/svg">
<circle cx="24.0522" cy="23.3149" r="19" stroke="#333333" stroke-width="2"/>
<path d="M16.8323 18.9843C15.392 20.0974 13.9016 20.7829 12.6898 21.0242C11.4107 21.2789 10.7682 20.9972 10.5363 20.6972C10.3045 20.3971 10.1939 19.7044 10.7629 18.5308C11.302 17.4191 12.3413 16.1497 13.7816 15.0367C15.2218 13.9236 16.7123 13.2381 17.9241 12.9968C19.2032 12.7421 19.8457 13.0238 20.0775 13.3238C20.3094 13.6238 20.42 14.3166 19.8509 15.4902C19.3118 16.6019 18.2726 17.8713 16.8323 18.9843Z" stroke="#333333" stroke-width="2"/>
<path d="M30.9224 27.706C32.4623 28.6358 33.6256 29.7642 34.2801 30.7937C34.9713 31.8811 34.9383 32.5693 34.7478 32.8848C34.5573 33.2002 33.9637 33.5499 32.6795 33.4446C31.4636 33.3448 29.9233 32.8407 28.3834 31.9109C26.8436 30.9811 25.6802 29.8528 25.0258 28.8233C24.3345 27.7358 24.3676 27.0477 24.5581 26.7322C24.7485 26.4167 25.3421 26.0671 26.6264 26.1724C27.8422 26.2721 29.3825 26.7762 30.9224 27.706Z" stroke="#333333" stroke-width="2"/>
<path d="M31.552 15.4259C32.3237 17.0756 32.6671 18.6809 32.6376 19.9169C32.6066 21.2215 32.1909 21.7875 31.847 21.9484C31.5031 22.1093 30.8022 22.0656 29.7808 21.2533C28.8132 20.4837 27.8011 19.1912 27.0294 17.5415C26.2576 15.8918 25.9143 14.2865 25.9437 13.0505C25.9748 11.7459 26.3905 11.1799 26.7344 11.019C27.0783 10.8581 27.7792 10.9018 28.8005 11.7141C29.7682 12.4837 30.7803 13.7761 31.552 15.4259Z" stroke="#333333" stroke-width="2"/>
<path d="M19.7265 30.382C20.5643 32.0487 20.9629 33.6831 20.9685 34.9517C20.9745 36.2889 20.5653 36.8913 20.2065 37.0716C19.8477 37.252 19.1202 37.2211 18.0505 36.4186C17.0357 35.6573 15.9617 34.3624 15.1239 32.6958C14.2861 31.0292 13.8875 29.3947 13.8819 28.1261C13.876 26.7889 14.2851 26.1866 14.6439 26.0062C15.0027 25.8258 15.7302 25.8568 16.7999 26.6592C17.8147 27.4205 18.8887 28.7154 19.7265 30.382Z" stroke="#333333" stroke-width="2"/>
<circle cx="13.6216" cy="18.3906" r="1" fill="#333333"/>
<circle cx="15.9154" cy="15.9844" r="0.5" fill="#333333"/>
<circle cx="15.6895" cy="17.3906" r="0.5" fill="#333333"/>
<circle cx="17.7" cy="15.077" r="0.7" fill="#333333"/>
<circle cx="31.4707" cy="30.8984" r="1" fill="#333333"/>
<circle cx="30.0176" cy="29.7129" r="0.45311" fill="#333333"/>
<circle cx="26.8792" cy="28.039" r="0.447156" fill="#333333"/>
<circle cx="28.3685" cy="28.944" r="0.768183" fill="#333333"/>
<circle cx="29.353" cy="16.0762" r="1" fill="#333333"/>
<circle cx="27.853" cy="14.0957" r="0.5" fill="#333333"/>
<circle cx="30.2291" cy="18.5496" r="0.7" fill="#333333"/>
<circle cx="17.5098" cy="32.0195" r="1" fill="#333333"/>
<circle cx="17.4252" cy="29.6699" r="0.45311" fill="#333333"/>
<circle cx="15.7198" cy="28.627" r="0.5" fill="#333333"/>
<circle cx="18.9198" cy="34.1355" r="0.7" fill="#333333"/>
</svg>
