<svg width="48" height="48" viewBox="0 0 48 48" fill="none" xmlns="http://www.w3.org/2000/svg">
<path fill-rule="evenodd" clip-rule="evenodd" d="M48 0H0V48H48V0ZM40.9775 24.7226V24.8316C41.0795 25.677 40.8324 26.5267 40.2835 27.2175C40.2227 27.2934 40.1572 27.3663 40.0874 27.4356C39.8476 27.693 39.5681 27.9179 39.2576 28.1036C38.1063 28.6901 36.7888 28.9557 35.4708 28.8671H35.2294H34.3544L35.0182 32.3572L38.6541 34.9202C38.8713 35.0389 39.0381 35.2202 39.1276 35.4348C39.217 35.6495 39.224 35.8851 39.1474 36.1038C39.0708 36.3225 38.915 36.5116 38.7052 36.6406C38.4953 36.7696 38.2435 36.8312 37.9903 36.8153C37.7379 36.8176 37.4926 36.7405 37.2963 36.5971L32.9664 33.5569L31.9556 28.3626C31.8574 28.3436 31.7614 28.3162 31.6689 28.2808L30.8241 33.0116L33.6302 42.7457C33.6714 42.8746 33.6836 43.0097 33.6663 43.1429C33.649 43.2762 33.6025 43.405 33.5294 43.5217C33.4564 43.6385 33.3583 43.741 33.2409 43.8231C33.1235 43.9052 32.9891 43.9654 32.8457 44H32.544C32.2972 43.9992 32.0575 43.9254 31.8614 43.7901C31.6653 43.6547 31.5235 43.4651 31.4577 43.2502L28.4404 33.1207L29.4512 27.2993C29.1592 27.1407 28.8772 26.9678 28.6063 26.7812L27.7313 26.1813C27.7378 26.2174 27.7378 26.2543 27.7313 26.2904H26.8563C26.5847 30.9666 25.3476 34.4703 23.8389 34.4703C22.3302 34.4703 21.1233 30.9257 20.8215 26.2086C20.5318 26.1892 20.2405 26.2169 19.9616 26.2904C19.9589 26.2541 19.9589 26.2176 19.9616 26.1813C19.9616 26.1541 19.0866 26.7812 19.0866 26.7812C18.8833 26.9262 18.68 27.0438 18.4821 27.1583C18.4009 27.2053 18.3207 27.2517 18.2417 27.2993L19.2827 33.0934L16.2653 43.2229C16.1995 43.4378 16.0578 43.6274 15.8617 43.7628C15.6656 43.8982 15.4259 43.9719 15.1791 43.9727H14.8773C14.7339 43.9381 14.5996 43.878 14.4822 43.7959C14.3648 43.7137 14.2667 43.6113 14.1936 43.4945C14.1206 43.3777 14.074 43.2489 14.0567 43.1157C14.0394 42.9824 14.0517 42.8474 14.0928 42.7185L16.9744 33.0798L16.1295 28.349C16.037 28.3844 15.9411 28.4117 15.8429 28.4308L14.8623 33.5569L10.5625 36.529C10.3663 36.6723 10.1209 36.7495 9.86853 36.7471C9.63355 36.7462 9.4047 36.6793 9.21374 36.5556C9.02277 36.4318 8.87918 36.2574 8.80289 36.0566C8.72659 35.8558 8.72138 35.6385 8.78798 35.4348C8.85458 35.2312 8.98968 35.0513 9.17454 34.9202L12.8105 32.3708L13.4743 28.8807H12.5992H12.5087C11.1835 28.9346 9.87057 28.6308 8.73702 28.0082C8.42649 27.8225 8.14705 27.5975 7.90725 27.3402C7.83739 27.2708 7.77191 27.198 7.71112 27.122C7.17657 26.4458 6.93013 25.618 7.01712 24.7907V24.6817C7.05745 24.4637 7.15583 24.2578 7.30377 24.0818C8.82754 22.2822 16.1145 20.619 20.2633 19.801L17.5326 17.5924V13.9796L13.0066 9.7396C12.8609 9.5368 12.7995 9.29391 12.8332 9.05406C12.8669 8.81421 12.9936 8.59291 13.1908 8.42946C13.3879 8.26601 13.6428 8.17098 13.9101 8.16125C14.1775 8.15151 14.44 8.2277 14.651 8.37628L19.6749 13.2161V16.6926L21.3194 18.0559C21.5407 16.7278 22.0537 15.4531 22.8281 14.3067L23.16 4.68166C23.16 4.50087 23.2395 4.32749 23.3809 4.19965C23.5224 4.07182 23.7143 4 23.9143 4C24.1144 4 24.3063 4.07182 24.4477 4.19965C24.5892 4.32749 24.6687 4.50087 24.6687 4.68166L24.9553 14.334C25.7297 15.4804 26.2427 16.7551 26.464 18.0832L28.1085 16.7198V13.2161L33.1927 8.41718C33.2822 8.29251 33.4008 8.18698 33.5401 8.10794C33.6794 8.0289 33.8361 7.97826 33.9992 7.95953C34.1624 7.9408 34.3281 7.95444 34.4848 7.99949C34.6416 8.04455 34.7855 8.11994 34.9067 8.22042C35.0279 8.3209 35.1234 8.44404 35.1866 8.58128C35.2497 8.71851 35.279 8.86654 35.2724 9.01505C35.2658 9.16355 35.2234 9.30897 35.1482 9.44117C35.0731 9.57337 34.9669 9.68917 34.8372 9.7805L30.3866 14.0204V17.6333L27.6558 19.8419H27.7313C31.8802 20.6599 39.1822 22.3231 40.6908 24.1227C40.8388 24.2987 40.9372 24.5046 40.9775 24.7226Z" fill="#333333"/>
</svg>
