<svg width="48" height="48" viewBox="0 0 48 48" fill="none" xmlns="http://www.w3.org/2000/svg">
<circle r="6" transform="matrix(-1 0 0 1 38 33)" stroke="#333333" stroke-width="2"/>
<path d="M38 33L28 11H22.75" stroke="#333333" stroke-width="2" stroke-linecap="round" stroke-linejoin="round"/>
<circle r="6" transform="matrix(-1 0 0 1 9 33)" stroke="#333333" stroke-width="2"/>
<path d="M9 33H21" stroke="#333333" stroke-width="2" stroke-linecap="round" stroke-linejoin="round"/>
<path d="M33 21.833L28 27H19.25L14.9167 18.9163L19.3366 17.4216C20.1622 17.1424 21.0279 17 21.8995 17H30.5" stroke="#333333" stroke-width="2" stroke-linejoin="round"/>
<path d="M15.0833 19H4V22.5L17.5 24" stroke="#333333" stroke-width="2" stroke-linejoin="round"/>
<path d="M27 27H21C19.8954 27 19 27.8954 19 29V31C19 32.1046 19.8954 33 21 33H25C26.1046 33 27 32.1046 27 31V27Z" stroke="#333333" stroke-width="2"/>
<path d="M29 14H35.625L40 20H32" stroke="#333333" stroke-width="2" stroke-linejoin="round"/>
</svg>
