<svg width="48" height="48" viewBox="0 0 48 48" fill="none" xmlns="http://www.w3.org/2000/svg">
<path fill-rule="evenodd" clip-rule="evenodd" d="M29.2948 17H31.051L31.4434 24.0637C31.5037 25.15 32.4022 26 33.4902 26H40.051L40.3287 31H19.0571L19.3102 26.4453C19.6046 21.1461 23.9874 17 29.2948 17ZM17.3132 26.3344C17.6665 19.9754 22.926 15 29.2948 15H31.051C32.1124 15 32.989 15.8292 33.0479 16.8891L33.4403 23.9528C33.4418 23.9793 33.4637 24 33.4902 24H40.524C41.3201 24 41.9775 24.6219 42.0216 25.4168L42.4136 32.4723C42.4295 32.7589 42.2014 33 41.9144 33H18C17.4259 33 16.9697 32.5177 17.0016 31.9445L17.3132 26.3344Z" fill="#333333"/>
<path d="M22.0805 26.4602C22.3428 22.8727 25.0601 20.2062 28.5702 19.8029L28.9287 25H28.62C28.1331 25 27.6488 25.0763 27.1874 25.2265L22.0805 26.4602Z" stroke="#333333" stroke-width="2"/>
<circle cx="9.97949" cy="8.94336" r="2.5" stroke="#333333" stroke-width="2"/>
<path fill-rule="evenodd" clip-rule="evenodd" d="M12.2893 11.5724C13.8901 12.0628 15.4985 12.5619 16.9652 13.2229C18.4666 13.8994 19.7498 14.7162 20.6752 15.794C21.078 16.2631 21.7727 16.3778 22.3079 16.0361C23.2259 15.45 24.2215 14.9766 25.2748 14.6343C26.0416 14.3851 26.4222 13.4395 25.9099 12.7222C22.835 8.41712 17.5722 7.29333 12.9049 6.29673L12.7292 6.25919C12.4973 6.20965 12.2666 6.16037 12.0369 6.1109C12.7882 6.65766 13.3135 7.49612 13.4465 8.45985C17.5263 9.35293 21.2314 10.3649 23.6554 13.0977C23.0008 13.3635 22.369 13.6741 21.764 14.0259C20.637 12.8844 19.2385 12.0535 17.7869 11.3994C16.354 10.7537 14.8162 10.2579 13.3707 9.81228C13.1936 10.5048 12.81 11.1147 12.2893 11.5724Z" fill="#333333"/>
<path fill-rule="evenodd" clip-rule="evenodd" d="M6.73489 10.2576L3.66688 23.3278C3.662 23.3486 3.65791 23.3693 3.65458 23.3901L3.24193 25.6752C2.79136 28.1703 4.32855 30.5942 6.77759 31.2504L6.95328 31.2975C8.83697 31.8022 10.8402 31.1358 12.0461 29.6032L14.7636 26.1499C15.3754 25.3723 14.7578 24.2404 13.7728 24.3342L12.0501 24.4983L9.55234 23.9705L8.51501 23.6926L12.1328 11.7021C11.5641 12.1466 10.8543 12.419 10.0819 12.4412L6.65334 23.8044C6.46989 24.4124 6.82576 25.0517 7.43921 25.216L9.12205 25.667L9.14469 25.673L9.16762 25.6779L11.7818 26.2303C11.8932 26.2538 12.0076 26.2603 12.121 26.2495L12.4857 26.2148L10.6709 28.5211C9.89783 29.5035 8.6137 29.9307 7.40621 29.6071L7.23052 29.56C5.66063 29.1394 4.67525 27.5856 4.96407 25.9862L5.37643 23.7027L8.14177 11.922C7.5127 11.5331 7.01601 10.9506 6.73489 10.2576Z" fill="#333333"/>
<path fill-rule="evenodd" clip-rule="evenodd" d="M38.5 36H19.5C18.1193 36 17 37.1193 17 38.5C17 39.8807 18.1193 41 19.5 41H38.5C39.8807 41 41 39.8807 41 38.5C41 37.1193 39.8807 36 38.5 36ZM19.5 34C17.0147 34 15 36.0147 15 38.5C15 40.9853 17.0147 43 19.5 43H38.5C40.9853 43 43 40.9853 43 38.5C43 36.0147 40.9853 34 38.5 34H19.5Z" fill="#333333"/>
<circle cx="21.5" cy="38.5" r="1.5" fill="#333333"/>
<circle cx="26.5" cy="38.5" r="1.5" fill="#333333"/>
<circle cx="31.5" cy="38.5" r="1.5" fill="#333333"/>
<circle cx="36.5" cy="38.5" r="1.5" fill="#333333"/>
</svg>
