<svg width="48" height="48" viewBox="0 0 48 48" fill="none" xmlns="http://www.w3.org/2000/svg">
<path fill-rule="evenodd" clip-rule="evenodd" d="M5.76364 31.9931L8.43031 34.9931C8.99961 35.6336 9.81562 36 10.6725 36H36.7198C37.7228 36 38.6595 35.4987 39.2159 34.6641L41.2159 31.6641C42.545 29.6704 41.1159 27 38.7198 27H8.00587C5.41732 27 4.0439 30.0584 5.76364 31.9931ZM12.5 34C13.8807 34 15 32.8807 15 31.5C15 30.1193 13.8807 29 12.5 29C11.1193 29 10 30.1193 10 31.5C10 32.8807 11.1193 34 12.5 34ZM26 31.5C26 32.8807 24.8807 34 23.5 34C22.1193 34 21 32.8807 21 31.5C21 30.1193 22.1193 29 23.5 29C24.8807 29 26 30.1193 26 31.5ZM34.5 34C35.8807 34 37 32.8807 37 31.5C37 30.1193 35.8807 29 34.5 29C33.1193 29 32 30.1193 32 31.5C32 32.8807 33.1193 34 34.5 34Z" fill="#333333"/>
<path d="M9 22.9999C9 23.2651 9.10537 23.5195 9.29292 23.707C9.48047 23.8946 9.73484 23.9999 10.0001 23.9999C14.9471 23.9996 17.2991 23.9997 19.8455 23.9998C22.0997 24 24.5062 24.0001 29 23.9999C29.5523 23.9999 30 23.5522 30 22.9999C30 17.4269 25.2474 13 19.5 13C13.7527 13 9 17.4269 9 22.9999Z" stroke="#333333" stroke-width="2" stroke-linejoin="round"/>
<rect x="29" y="18" width="14" height="2" rx="1" fill="#333333"/>
</svg>
