<svg width="48" height="48" viewBox="0 0 48 48" fill="none" xmlns="http://www.w3.org/2000/svg">
<rect x="13" y="5" width="22" height="38" rx="3" stroke="#333333" stroke-width="2"/>
<rect x="18.3431" y="8" width="2.36396" height="4.72791" rx="1.18198" transform="rotate(45 18.3431 8)" fill="#333333"/>
<rect x="22.6765" y="8" width="2.36396" height="4.72791" rx="1.18198" transform="rotate(45 22.6765 8)" fill="#333333"/>
<rect x="27.0098" y="8" width="2.36396" height="4.72791" rx="1.18198" transform="rotate(45 27.0098 8)" fill="#333333"/>
<rect x="31.3431" y="8" width="2.36396" height="4.72791" rx="1.18198" transform="rotate(45 31.3431 8)" fill="#333333"/>
<rect x="18.3431" y="14" width="2.36396" height="4.72791" rx="1.18198" transform="rotate(45 18.3431 14)" fill="#333333"/>
<rect x="22.6765" y="14" width="2.36396" height="4.72791" rx="1.18198" transform="rotate(45 22.6765 14)" fill="#333333"/>
<rect x="27.0098" y="14" width="2.36396" height="4.72791" rx="1.18198" transform="rotate(45 27.0098 14)" fill="#333333"/>
<rect x="31.3431" y="14" width="2.36396" height="4.72791" rx="1.18198" transform="rotate(45 31.3431 14)" fill="#333333"/>
<rect x="18.3431" y="29" width="2.36396" height="4.72791" rx="1.18198" transform="rotate(45 18.3431 29)" fill="#333333"/>
<rect x="22.6765" y="29" width="2.36396" height="4.72791" rx="1.18198" transform="rotate(45 22.6765 29)" fill="#333333"/>
<rect x="27.0098" y="29" width="2.36396" height="4.72791" rx="1.18198" transform="rotate(45 27.0098 29)" fill="#333333"/>
<rect x="31.3431" y="29" width="2.36396" height="4.72791" rx="1.18198" transform="rotate(45 31.3431 29)" fill="#333333"/>
<rect x="18.3431" y="35" width="2.36396" height="4.72791" rx="1.18198" transform="rotate(45 18.3431 35)" fill="#333333"/>
<rect x="22.6765" y="35" width="2.36396" height="4.72791" rx="1.18198" transform="rotate(45 22.6765 35)" fill="#333333"/>
<rect x="27.0098" y="35" width="2.36396" height="4.72791" rx="1.18198" transform="rotate(45 27.0098 35)" fill="#333333"/>
<rect x="31.3431" y="35" width="2.36396" height="4.72791" rx="1.18198" transform="rotate(45 31.3431 35)" fill="#333333"/>
<circle cx="14" cy="24" r="1" fill="#333333"/>
<circle cx="18" cy="24" r="1" fill="#333333"/>
<circle cx="22" cy="24" r="1" fill="#333333"/>
<circle cx="26" cy="24" r="1" fill="#333333"/>
<circle cx="30" cy="24" r="1" fill="#333333"/>
<circle cx="34" cy="24" r="1" fill="#333333"/>
</svg>
