<svg width="48" height="48" viewBox="0 0 48 48" fill="none" xmlns="http://www.w3.org/2000/svg">
<path fill-rule="evenodd" clip-rule="evenodd" d="M14 8C14 6.89543 14.8954 6 16 6H32C33.1046 6 34 6.89543 34 8V40C34 41.1046 33.1046 42 32 42H16C14.8954 42 14 41.1046 14 40V8ZM12 8C12 5.79086 13.7909 4 16 4H32C34.2091 4 36 5.79086 36 8V40C36 42.2091 34.2091 44 32 44H24.6H16C13.7909 44 12 42.2091 12 40V8ZM25.2 7.58194C25.2 7.25222 24.9314 6.98492 24.6 6.98492C24.2686 6.98492 24 7.25222 24 7.58194C24 7.91166 24.2686 8.17896 24.6 8.17896C24.9314 8.17896 25.2 7.91166 25.2 7.58194ZM24.6 9.97003C24.9314 9.97003 25.2 10.2373 25.2 10.567C25.2 10.8968 24.9314 11.1641 24.6 11.1641C24.2686 11.1641 24 10.8968 24 10.567C24 10.2373 24.2686 9.97003 24.6 9.97003ZM25.2 13.5522C25.2 13.2224 24.9314 12.9551 24.6 12.9551C24.2686 12.9551 24 13.2224 24 13.5522C24 13.8819 24.2686 14.1492 24.6 14.1492C24.9314 14.1492 25.2 13.8819 25.2 13.5522ZM24.6 15.9402C24.9314 15.9402 25.2 16.2075 25.2 16.5373C25.2 16.867 24.9314 17.1343 24.6 17.1343C24.2686 17.1343 24 16.867 24 16.5373C24 16.2075 24.2686 15.9402 24.6 15.9402ZM25.2 19.5224C25.2 19.1926 24.9314 18.9254 24.6 18.9254C24.2686 18.9254 24 19.1926 24 19.5224C24 19.8521 24.2686 20.1194 24.6 20.1194C24.9314 20.1194 25.2 19.8521 25.2 19.5224ZM24.6 21.9105C24.9314 21.9105 25.2 22.1778 25.2 22.5075C25.2 22.8372 24.9314 23.1045 24.6 23.1045C24.2686 23.1045 24 22.8372 24 22.5075C24 22.1778 24.2686 21.9105 24.6 21.9105ZM25.2 25.4926C25.2 25.1629 24.9314 24.8956 24.6 24.8956C24.2686 24.8956 24 25.1629 24 25.4926C24 25.8223 24.2686 26.0896 24.6 26.0896C24.9314 26.0896 25.2 25.8223 25.2 25.4926ZM24.6 27.8807C24.9314 27.8807 25.2 28.148 25.2 28.4777C25.2 28.8074 24.9314 29.0747 24.6 29.0747C24.2686 29.0747 24 28.8074 24 28.4777C24 28.148 24.2686 27.8807 24.6 27.8807ZM25.2 31.4626C25.2 31.1328 24.9314 30.8655 24.6 30.8655C24.2686 30.8655 24 31.1328 24 31.4626C24 31.7923 24.2686 32.0596 24.6 32.0596C24.9314 32.0596 25.2 31.7923 25.2 31.4626ZM24.6 33.8506C24.9314 33.8506 25.2 34.1179 25.2 34.4477C25.2 34.7774 24.9314 35.0447 24.6 35.0447C24.2686 35.0447 24 34.7774 24 34.4477C24 34.1179 24.2686 33.8506 24.6 33.8506ZM25.2 37.4328C25.2 37.103 24.9314 36.8358 24.6 36.8358C24.2686 36.8358 24 37.103 24 37.4328C24 37.7625 24.2686 38.0298 24.6 38.0298C24.9314 38.0298 25.2 37.7625 25.2 37.4328ZM24.6 39.8209C24.9314 39.8209 25.2 40.0882 25.2 40.4179C25.2 40.7476 24.9314 41.0149 24.6 41.0149C24.2686 41.0149 24 40.7476 24 40.4179C24 40.0882 24.2686 39.8209 24.6 39.8209ZM18.5 10.1692C19.3284 10.1692 20 9.50093 20 8.67662C20 7.85231 19.3284 7.18408 18.5 7.18408C17.6716 7.18408 17 7.85231 17 8.67662C17 9.50093 17.6716 10.1692 18.5 10.1692ZM20 13.6517C20 14.476 19.3284 15.1443 18.5 15.1443C17.6716 15.1443 17 14.476 17 13.6517C17 12.8274 17.6716 12.1592 18.5 12.1592C19.3284 12.1592 20 12.8274 20 13.6517ZM18.5 20.1194C19.3284 20.1194 20 19.4511 20 18.6268C20 17.8025 19.3284 17.1343 18.5 17.1343C17.6716 17.1343 17 17.8025 17 18.6268C17 19.4511 17.6716 20.1194 18.5 20.1194ZM20 23.6019C20 24.4262 19.3284 25.0945 18.5 25.0945C17.6716 25.0945 17 24.4262 17 23.6019C17 22.7776 17.6716 22.1094 18.5 22.1094C19.3284 22.1094 20 22.7776 20 23.6019ZM18.5 30.0696C19.3284 30.0696 20 29.4013 20 28.577C20 27.7527 19.3284 27.0845 18.5 27.0845C17.6716 27.0845 17 27.7527 17 28.577C17 29.4013 17.6716 30.0696 18.5 30.0696ZM20 33.5521C20 34.3764 19.3284 35.0446 18.5 35.0446C17.6716 35.0446 17 34.3764 17 33.5521C17 32.7278 17.6716 32.0596 18.5 32.0596C19.3284 32.0596 20 32.7278 20 33.5521ZM18.5 40.02C19.3284 40.02 20 39.3518 20 38.5275C20 37.7031 19.3284 37.0349 18.5 37.0349C17.6716 37.0349 17 37.7031 17 38.5275C17 39.3518 17.6716 40.02 18.5 40.02ZM32 8.67662C32 9.50093 31.3284 10.1692 30.5 10.1692C29.6716 10.1692 29 9.50093 29 8.67662C29 7.85231 29.6716 7.18408 30.5 7.18408C31.3284 7.18408 32 7.85231 32 8.67662ZM30.5 15.1443C31.3284 15.1443 32 14.476 32 13.6517C32 12.8274 31.3284 12.1592 30.5 12.1592C29.6716 12.1592 29 12.8274 29 13.6517C29 14.476 29.6716 15.1443 30.5 15.1443ZM32 18.6268C32 19.4511 31.3284 20.1194 30.5 20.1194C29.6716 20.1194 29 19.4511 29 18.6268C29 17.8025 29.6716 17.1343 30.5 17.1343C31.3284 17.1343 32 17.8025 32 18.6268ZM30.5 25.0945C31.3284 25.0945 32 24.4262 32 23.6019C32 22.7776 31.3284 22.1094 30.5 22.1094C29.6716 22.1094 29 22.7776 29 23.6019C29 24.4262 29.6716 25.0945 30.5 25.0945ZM32 28.577C32 29.4013 31.3284 30.0696 30.5 30.0696C29.6716 30.0696 29 29.4013 29 28.577C29 27.7527 29.6716 27.0845 30.5 27.0845C31.3284 27.0845 32 27.7527 32 28.577ZM30.5 35.0446C31.3284 35.0446 32 34.3764 32 33.5521C32 32.7278 31.3284 32.0596 30.5 32.0596C29.6716 32.0596 29 32.7278 29 33.5521C29 34.3764 29.6716 35.0446 30.5 35.0446ZM32 38.5275C32 39.3518 31.3284 40.02 30.5 40.02C29.6716 40.02 29 39.3518 29 38.5275C29 37.7031 29.6716 37.0349 30.5 37.0349C31.3284 37.0349 32 37.7031 32 38.5275Z" fill="#333333"/>
</svg>
