<svg width="48" height="48" viewBox="0 0 48 48" fill="none" xmlns="http://www.w3.org/2000/svg">
<path fill-rule="evenodd" clip-rule="evenodd" d="M32 6H16C14.8954 6 14 6.89543 14 8V23C14.5523 23 15 23.4477 15 24C15 24.5523 14.5523 25 14 25V40C14 41.1046 14.8954 42 16 42H32C33.1046 42 34 41.1046 34 40V25C33.4477 25 33 24.5523 33 24C33 23.4477 33.4477 23 34 23V8C34 6.89543 33.1046 6 32 6ZM16 4C13.7909 4 12 5.79086 12 8V40C12 42.2091 13.7909 44 16 44H32C34.2091 44 36 42.2091 36 40V8C36 5.79086 34.2091 4 32 4H16ZM18 25C18.5523 25 19 24.5523 19 24C19 23.4477 18.5523 23 18 23C17.4477 23 17 23.4477 17 24C17 24.5523 17.4477 25 18 25ZM23 24C23 24.5523 22.5523 25 22 25C21.4477 25 21 24.5523 21 24C21 23.4477 21.4477 23 22 23C22.5523 23 23 23.4477 23 24ZM26 25C26.5523 25 27 24.5523 27 24C27 23.4477 26.5523 23 26 23C25.4477 23 25 23.4477 25 24C25 24.5523 25.4477 25 26 25ZM31 24C31 24.5523 30.5523 25 30 25C29.4477 25 29 24.5523 29 24C29 23.4477 29.4477 23 30 23C30.5523 23 31 23.4477 31 24ZM18 10.5C18 11.3284 17.3284 12 16.5 12C15.6716 12 15 11.3284 15 10.5C15 9.67157 15.6716 9 16.5 9C17.3284 9 18 9.67157 18 10.5ZM21.5 12C22.3284 12 23 11.3284 23 10.5C23 9.67157 22.3284 9 21.5 9C20.6716 9 20 9.67157 20 10.5C20 11.3284 20.6716 12 21.5 12ZM28 10.5C28 11.3284 27.3284 12 26.5 12C25.6716 12 25 11.3284 25 10.5C25 9.67157 25.6716 9 26.5 9C27.3284 9 28 9.67157 28 10.5ZM31.5 12C32.3284 12 33 11.3284 33 10.5C33 9.67157 32.3284 9 31.5 9C30.6716 9 30 9.67157 30 10.5C30 11.3284 30.6716 12 31.5 12ZM18 15.5C18 16.3284 17.3284 17 16.5 17C15.6716 17 15 16.3284 15 15.5C15 14.6716 15.6716 14 16.5 14C17.3284 14 18 14.6716 18 15.5ZM21.5 17C22.3284 17 23 16.3284 23 15.5C23 14.6716 22.3284 14 21.5 14C20.6716 14 20 14.6716 20 15.5C20 16.3284 20.6716 17 21.5 17ZM28 15.5C28 16.3284 27.3284 17 26.5 17C25.6716 17 25 16.3284 25 15.5C25 14.6716 25.6716 14 26.5 14C27.3284 14 28 14.6716 28 15.5ZM31.5 17C32.3284 17 33 16.3284 33 15.5C33 14.6716 32.3284 14 31.5 14C30.6716 14 30 14.6716 30 15.5C30 16.3284 30.6716 17 31.5 17ZM18 31.5C18 32.3284 17.3284 33 16.5 33C15.6716 33 15 32.3284 15 31.5C15 30.6716 15.6716 30 16.5 30C17.3284 30 18 30.6716 18 31.5ZM21.5 33C22.3284 33 23 32.3284 23 31.5C23 30.6716 22.3284 30 21.5 30C20.6716 30 20 30.6716 20 31.5C20 32.3284 20.6716 33 21.5 33ZM28 31.5C28 32.3284 27.3284 33 26.5 33C25.6716 33 25 32.3284 25 31.5C25 30.6716 25.6716 30 26.5 30C27.3284 30 28 30.6716 28 31.5ZM31.5 33C32.3284 33 33 32.3284 33 31.5C33 30.6716 32.3284 30 31.5 30C30.6716 30 30 30.6716 30 31.5C30 32.3284 30.6716 33 31.5 33ZM18 36.5C18 37.3284 17.3284 38 16.5 38C15.6716 38 15 37.3284 15 36.5C15 35.6716 15.6716 35 16.5 35C17.3284 35 18 35.6716 18 36.5ZM21.5 38C22.3284 38 23 37.3284 23 36.5C23 35.6716 22.3284 35 21.5 35C20.6716 35 20 35.6716 20 36.5C20 37.3284 20.6716 38 21.5 38ZM28 36.5C28 37.3284 27.3284 38 26.5 38C25.6716 38 25 37.3284 25 36.5C25 35.6716 25.6716 35 26.5 35C27.3284 35 28 35.6716 28 36.5ZM31.5 38C32.3284 38 33 37.3284 33 36.5C33 35.6716 32.3284 35 31.5 35C30.6716 35 30 35.6716 30 36.5C30 37.3284 30.6716 38 31.5 38Z" fill="#333333"/>
</svg>
