<svg width="48" height="48" viewBox="0 0 48 48" fill="none" xmlns="http://www.w3.org/2000/svg">
<path fill-rule="evenodd" clip-rule="evenodd" d="M32 6H16C14.8954 6 14 6.89543 14 8V23C14.5523 23 15 23.4477 15 24C15 24.5523 14.5523 25 14 25V40C14 41.1046 14.8954 42 16 42H32C33.1046 42 34 41.1046 34 40V25C33.4477 25 33 24.5523 33 24C33 23.4477 33.4477 23 34 23V8C34 6.89543 33.1046 6 32 6ZM16 4C13.7909 4 12 5.79086 12 8V40C12 42.2091 13.7909 44 16 44H32C34.2091 44 36 42.2091 36 40V8C36 5.79086 34.2091 4 32 4H16ZM19.2426 11.4142C20.0237 10.6332 21.29 10.6332 22.0711 11.4142C22.8521 12.1953 22.8521 13.4616 22.0711 14.2426L19.2426 17.0711C18.4616 17.8521 17.1953 17.8521 16.4142 17.0711C15.6332 16.29 15.6332 15.0237 16.4142 14.2426L19.2426 11.4142ZM31.0711 11.4142C30.29 10.6332 29.0237 10.6332 28.2426 11.4142L25.4142 14.2426C24.6332 15.0237 24.6332 16.29 25.4142 17.0711C26.1953 17.8521 27.4616 17.8521 28.2426 17.0711L31.0711 14.2426C31.8521 13.4616 31.8521 12.1953 31.0711 11.4142ZM19.2426 30.4142C20.0237 29.6332 21.29 29.6332 22.0711 30.4142C22.8521 31.1953 22.8521 32.4616 22.0711 33.2426L19.2426 36.0711C18.4616 36.8521 17.1953 36.8521 16.4142 36.0711C15.6332 35.29 15.6332 34.0237 16.4142 33.2426L19.2426 30.4142ZM31.0711 30.4142C30.29 29.6332 29.0237 29.6332 28.2426 30.4142L25.4142 33.2426C24.6332 34.0237 24.6332 35.29 25.4142 36.0711C26.1953 36.8521 27.4616 36.8521 28.2426 36.0711L31.0711 33.2426C31.8521 32.4616 31.8521 31.1953 31.0711 30.4142ZM18 25C18.5523 25 19 24.5523 19 24C19 23.4477 18.5523 23 18 23C17.4477 23 17 23.4477 17 24C17 24.5523 17.4477 25 18 25ZM23 24C23 24.5523 22.5523 25 22 25C21.4477 25 21 24.5523 21 24C21 23.4477 21.4477 23 22 23C22.5523 23 23 23.4477 23 24ZM26 25C26.5523 25 27 24.5523 27 24C27 23.4477 26.5523 23 26 23C25.4477 23 25 23.4477 25 24C25 24.5523 25.4477 25 26 25ZM31 24C31 24.5523 30.5523 25 30 25C29.4477 25 29 24.5523 29 24C29 23.4477 29.4477 23 30 23C30.5523 23 31 23.4477 31 24Z" fill="#333333"/>
</svg>
