<svg width="48" height="48" viewBox="0 0 48 48" fill="none" xmlns="http://www.w3.org/2000/svg">
<path fill-rule="evenodd" clip-rule="evenodd" d="M32 6H16C14.8954 6 14 6.89543 14 8V23C14.5523 23 15 23.4477 15 24C15 24.5523 14.5523 25 14 25V40C14 41.1046 14.8954 42 16 42H32C33.1046 42 34 41.1046 34 40V25C33.4477 25 33 24.5523 33 24C33 23.4477 33.4477 23 34 23V8C34 6.89543 33.1046 6 32 6ZM16 4C13.7909 4 12 5.79086 12 8V40C12 42.2091 13.7909 44 16 44H32C34.2091 44 36 42.2091 36 40V8C36 5.79086 34.2091 4 32 4H16ZM18 25C18.5523 25 19 24.5523 19 24C19 23.4477 18.5523 23 18 23C17.4477 23 17 23.4477 17 24C17 24.5523 17.4477 25 18 25ZM23 24C23 24.5523 22.5523 25 22 25C21.4477 25 21 24.5523 21 24C21 23.4477 21.4477 23 22 23C22.5523 23 23 23.4477 23 24ZM26 25C26.5523 25 27 24.5523 27 24C27 23.4477 26.5523 23 26 23C25.4477 23 25 23.4477 25 24C25 24.5523 25.4477 25 26 25ZM31 24C31 24.5523 30.5523 25 30 25C29.4477 25 29 24.5523 29 24C29 23.4477 29.4477 23 30 23C30.5523 23 31 23.4477 31 24ZM22 14C22 15.6569 20.6569 17 19 17C17.3431 17 16 15.6569 16 14C16 12.3431 17.3431 11 19 11C20.6569 11 22 12.3431 22 14ZM29 17C30.6569 17 32 15.6569 32 14C32 12.3431 30.6569 11 29 11C27.3431 11 26 12.3431 26 14C26 15.6569 27.3431 17 29 17ZM22 34C22 35.6569 20.6569 37 19 37C17.3431 37 16 35.6569 16 34C16 32.3431 17.3431 31 19 31C20.6569 31 22 32.3431 22 34ZM29 37C30.6569 37 32 35.6569 32 34C32 32.3431 30.6569 31 29 31C27.3431 31 26 32.3431 26 34C26 35.6569 27.3431 37 29 37Z" fill="#333333"/>
</svg>
