<svg width="48" height="48" viewBox="0 0 48 48" fill="none" xmlns="http://www.w3.org/2000/svg">
<ellipse cx="24.6" cy="43.403" rx="0.597016" ry="0.6" transform="rotate(-90 24.6 43.403)" fill="#333333"/>
<ellipse cx="24.6" cy="40.4181" rx="0.597016" ry="0.6" transform="rotate(-90 24.6 40.4181)" fill="#333333"/>
<ellipse cx="24.6" cy="37.4328" rx="0.597016" ry="0.6" transform="rotate(-90 24.6 37.4328)" fill="#333333"/>
<ellipse cx="24.6" cy="34.4479" rx="0.597016" ry="0.6" transform="rotate(-90 24.6 34.4479)" fill="#333333"/>
<ellipse cx="24.6" cy="31.4626" rx="0.597016" ry="0.6" transform="rotate(-90 24.6 31.4626)" fill="#333333"/>
<ellipse cx="24.6" cy="28.4777" rx="0.597016" ry="0.6" transform="rotate(-90 24.6 28.4777)" fill="#333333"/>
<ellipse cx="24.6" cy="25.4923" rx="0.597016" ry="0.6" transform="rotate(-90 24.6 25.4923)" fill="#333333"/>
<ellipse cx="24.6" cy="22.5075" rx="0.597016" ry="0.6" transform="rotate(-90 24.6 22.5075)" fill="#333333"/>
<ellipse cx="24.6" cy="19.5221" rx="0.597016" ry="0.6" transform="rotate(-90 24.6 19.5221)" fill="#333333"/>
<ellipse cx="24.6" cy="16.5373" rx="0.597016" ry="0.6" transform="rotate(-90 24.6 16.5373)" fill="#333333"/>
<ellipse cx="24.6" cy="13.5524" rx="0.597016" ry="0.6" transform="rotate(-90 24.6 13.5524)" fill="#333333"/>
<ellipse cx="24.6" cy="10.567" rx="0.597016" ry="0.6" transform="rotate(-90 24.6 10.567)" fill="#333333"/>
<ellipse cx="24.6" cy="7.58218" rx="0.597016" ry="0.6" transform="rotate(-90 24.6 7.58218)" fill="#333333"/>
<ellipse cx="24.6" cy="4.59683" rx="0.597016" ry="0.6" transform="rotate(-90 24.6 4.59683)" fill="#333333"/>
<ellipse cx="18.5" cy="8.67662" rx="1.5" ry="1.49254" fill="#333333"/>
<ellipse cx="18.5" cy="13.6517" rx="1.5" ry="1.49254" fill="#333333"/>
<ellipse cx="18.5" cy="18.6268" rx="1.5" ry="1.49254" fill="#333333"/>
<ellipse cx="18.5" cy="23.6019" rx="1.5" ry="1.49254" fill="#333333"/>
<ellipse cx="18.5" cy="28.577" rx="1.5" ry="1.49254" fill="#333333"/>
<ellipse cx="18.5" cy="33.5521" rx="1.5" ry="1.49254" fill="#333333"/>
<ellipse cx="18.5" cy="38.5272" rx="1.5" ry="1.49254" fill="#333333"/>
<ellipse cx="30.5" cy="8.67662" rx="1.5" ry="1.49254" fill="#333333"/>
<ellipse cx="30.5" cy="13.6517" rx="1.5" ry="1.49254" fill="#333333"/>
<ellipse cx="30.5" cy="18.6268" rx="1.5" ry="1.49254" fill="#333333"/>
<ellipse cx="30.5" cy="23.6019" rx="1.5" ry="1.49254" fill="#333333"/>
<ellipse cx="30.5" cy="28.577" rx="1.5" ry="1.49254" fill="#333333"/>
<ellipse cx="30.5" cy="33.5521" rx="1.5" ry="1.49254" fill="#333333"/>
<ellipse cx="30.5" cy="38.5272" rx="1.5" ry="1.49254" fill="#333333"/>
<rect x="13" y="5" width="22" height="38" rx="3" stroke="#333333" stroke-width="2"/>
</svg>
