<svg width="48" height="48" viewBox="0 0 48 48" fill="none" xmlns="http://www.w3.org/2000/svg">
<path d="M23.3249 29.9821L23.0749 29.5491L22.8249 29.1161L23.691 28.6161L24.191 29.4821L24.441 29.9151L27.941 35.9773L28.191 36.4103L28.691 37.2764L27.8249 37.7764L27.5749 37.3433L27.3249 36.9103L23.3249 29.9821ZM21.8248 29.1162C21.8246 29.2861 21.8678 29.4584 21.9589 29.6161L22.2089 30.0491L16.5797 33.2991C14.4274 34.5418 13.69 37.2939 14.9326 39.4462C16.1753 41.5985 18.9274 42.336 21.0797 41.0933L26.7089 37.8433L26.9589 38.2764C27.05 38.4341 27.1775 38.5576 27.3248 38.6425L21.5797 41.9594C18.9491 43.4782 15.5854 42.5768 14.0666 39.9462C12.5478 37.3156 13.4491 33.9519 16.0797 32.4331L21.8248 29.1162ZM25.057 28.9821L24.557 28.1161L30.6192 24.6161C33.0106 23.2354 36.0686 24.0548 37.4493 26.4462C38.83 28.8377 38.0106 31.8956 35.6192 33.2764L29.557 36.7764L29.057 35.9103L35.1192 32.4103C37.0323 31.3058 37.6878 28.8594 36.5833 26.9462C35.4787 25.0331 33.0323 24.3776 31.1192 25.4821L25.057 28.9821Z" fill="#333333" stroke="#333333"/>
<path fill-rule="evenodd" clip-rule="evenodd" d="M29.3909 17.2426C31.734 19.5858 35.533 19.5858 37.8762 17.2426C40.2193 14.8995 40.2193 11.1005 37.8762 8.75736C35.533 6.41421 31.734 6.41421 29.3909 8.75736C27.0478 11.1005 27.0478 14.8995 29.3909 17.2426ZM27.9767 18.6569C31.1009 21.781 36.1662 21.781 39.2904 18.6569C42.4146 15.5327 42.4146 10.4673 39.2904 7.34315C36.1662 4.21895 31.1009 4.21895 27.9767 7.34315C24.8525 10.4673 24.8525 15.5327 27.9767 18.6569Z" fill="#333333"/>
<path fill-rule="evenodd" clip-rule="evenodd" d="M38.053 18.4806L28.1535 8.58111L29.2141 7.52045L39.1136 17.4199L38.053 18.4806Z" fill="#333333"/>
<path d="M14.1051 9.97268C14.5265 9.26453 15.5755 9.34139 15.8892 10.1034L20.7953 22.0216C21.0783 22.7091 20.5389 23.4539 19.7975 23.3996L8.30047 22.5572C7.55907 22.5029 7.13404 21.6874 7.51419 21.0485L14.1051 9.97268Z" stroke="#333333" stroke-width="2"/>
</svg>
