<svg width="48" height="48" viewBox="0 0 48 48" fill="none" xmlns="http://www.w3.org/2000/svg">
<path fill-rule="evenodd" clip-rule="evenodd" d="M29.3908 17.2426C31.5543 19.4061 34.9589 19.572 37.3127 17.7404L28.8931 9.32081C27.0615 11.6746 27.2274 15.0792 29.3908 17.2426ZM29.9537 8.26008L38.3734 16.6798C40.2055 14.3259 40.0398 10.921 37.8761 8.75736C35.7125 6.59373 32.3075 6.42797 29.9537 8.26008ZM27.9766 18.6569C31.1008 21.781 36.1661 21.781 39.2903 18.6569C42.4145 15.5327 42.4145 10.4673 39.2903 7.34315C36.1661 4.21895 31.1008 4.21895 27.9766 7.34315C24.8524 10.4673 24.8524 15.5327 27.9766 18.6569ZM31.3691 25.9151L24.8739 29.6651L28.3739 35.7273L34.8691 31.9773C36.5431 31.0108 37.1167 28.8703 36.1502 27.1962C35.1837 25.5222 33.0431 24.9486 31.3691 25.9151ZM29.3739 37.4594L35.8691 33.7094C38.4997 32.1906 39.401 28.8268 37.8822 26.1962C36.3635 23.5656 32.9997 22.6643 30.3691 24.1831L23.8739 27.9331C23.7358 27.6939 23.43 27.612 23.1909 27.7501L15.8297 32.0001C12.9599 33.6569 11.9767 37.3265 13.6335 40.1962C15.2904 43.066 18.9599 44.0492 21.8297 42.3924L29.1909 38.1424C29.43 38.0043 29.512 37.6985 29.3739 37.4594ZM26.8919 37.1603L22.8919 30.2321L16.8297 33.7321C14.9165 34.8367 14.261 37.2831 15.3656 39.1962C16.4701 41.1094 18.9165 41.7649 20.8297 40.6603L26.8919 37.1603ZM14.9644 10.4843L19.8706 22.4025L8.37351 21.5602L14.9644 10.4843ZM13.2457 9.46155C14.0885 8.04525 16.1865 8.19897 16.8138 9.72299L21.72 21.6412C22.2859 23.0161 21.2072 24.5058 19.7244 24.3972L8.22736 23.5548C6.74457 23.4462 5.8945 21.8151 6.65479 20.5374L13.2457 9.46155Z" fill="#333333"/>
</svg>
