<svg width="48" height="48" viewBox="0 0 48 48" fill="none" xmlns="http://www.w3.org/2000/svg">
<path fill-rule="evenodd" clip-rule="evenodd" d="M3.84746 34.0468L33.5459 4.34831C33.9365 3.95779 34.5696 3.95779 34.9602 4.34831L44.1525 13.5407C44.5431 13.9312 44.5431 14.5644 44.1525 14.9549L14.4541 44.6534C14.0635 45.0439 13.4304 45.0439 13.0398 44.6534L3.84746 35.461C3.45693 35.0705 3.45693 34.4373 3.84746 34.0468ZM2.43325 36.8752C1.26167 35.7037 1.26167 33.8042 2.43325 32.6326L32.1317 2.9341C33.3033 1.76253 35.2028 1.76252 36.3744 2.9341L45.5668 12.1265C46.7383 13.2981 46.7383 15.1976 45.5668 16.3691L15.8683 46.0676C14.6967 47.2392 12.7972 47.2392 11.6256 46.0676L2.43325 36.8752ZM10.5651 32.9845C11.1509 32.3987 11.1509 31.449 10.5651 30.8632C9.97929 30.2774 9.02954 30.2774 8.44375 30.8632C7.85797 31.449 7.85797 32.3987 8.44375 32.9845C9.02954 33.5703 9.97929 33.5703 10.5651 32.9845ZM13.3934 28.035C13.9792 28.6208 13.9792 29.5706 13.3934 30.1564C12.8077 30.7421 11.8579 30.7421 11.2721 30.1564C10.6863 29.5706 10.6863 28.6208 11.2721 28.035C11.8579 27.4493 12.8077 27.4493 13.3934 28.035ZM16.2218 27.3282C16.8076 26.7425 16.8076 25.7927 16.2218 25.2069C15.636 24.6211 14.6863 24.6211 14.1005 25.2069C13.5147 25.7927 13.5147 26.7425 14.1005 27.3282C14.6863 27.914 15.636 27.914 16.2218 27.3282ZM19.0503 22.3788C19.6361 22.9646 19.6361 23.9143 19.0503 24.5001C18.4645 25.0859 17.5148 25.0859 16.929 24.5001C16.3432 23.9143 16.3432 22.9646 16.929 22.3788C17.5148 21.793 18.4645 21.793 19.0503 22.3788ZM21.8787 21.672C22.4645 21.0862 22.4645 20.1365 21.8787 19.5507C21.2929 18.9649 20.3431 18.9649 19.7573 19.5507C19.1716 20.1365 19.1716 21.0862 19.7573 21.672C20.3431 22.2578 21.2929 22.2578 21.8787 21.672ZM24.7072 16.7225C25.2929 17.3083 25.2929 18.2581 24.7072 18.8439C24.1214 19.4296 23.1716 19.4296 22.5858 18.8439C22.0001 18.2581 22.0001 17.3083 22.5858 16.7225C23.1716 16.1368 24.1214 16.1368 24.7072 16.7225ZM27.5355 16.0138C28.1213 15.428 28.1213 14.4782 27.5355 13.8925C26.9497 13.3067 26 13.3067 25.4142 13.8925C24.8284 14.4782 24.8284 15.428 25.4142 16.0138C26 16.5996 26.9497 16.5996 27.5355 16.0138ZM30.364 11.0643C30.9498 11.6501 30.9498 12.5999 30.364 13.1857C29.7782 13.7714 28.8285 13.7714 28.2427 13.1857C27.6569 12.5999 27.6569 11.6501 28.2427 11.0643C28.8285 10.4786 29.7782 10.4786 30.364 11.0643ZM33.1924 10.3575C33.7782 9.77175 33.7782 8.822 33.1924 8.23621C32.6066 7.65043 31.6569 7.65043 31.0711 8.23621C30.4853 8.822 30.4853 9.77175 31.0711 10.3575C31.6569 10.9433 32.6066 10.9433 33.1924 10.3575ZM17.6361 37.9354C18.2219 38.5212 18.2219 39.471 17.6361 40.0568C17.0503 40.6425 16.1006 40.6425 15.5148 40.0568C14.929 39.471 14.929 38.5212 15.5148 37.9354C16.1006 37.3496 17.0503 37.3496 17.6361 37.9354ZM13.3934 40.0568C13.9792 39.471 13.9792 38.5212 13.3934 37.9354C12.8077 37.3496 11.8579 37.3496 11.2721 37.9354C10.6863 38.5212 10.6863 39.471 11.2721 40.0568C11.8579 40.6425 12.8077 40.6425 13.3934 40.0568ZM20.4645 35.1073C21.0503 35.6931 21.0503 36.6428 20.4645 37.2286C19.8787 37.8144 18.929 37.8144 18.3432 37.2286C17.7574 36.6428 17.7574 35.6931 18.3432 35.1073C18.929 34.5215 19.8787 34.5215 20.4645 35.1073ZM23.293 34.3985C23.8788 33.8128 23.8788 32.863 23.293 32.2772C22.7072 31.6914 21.7574 31.6914 21.1717 32.2772C20.5859 32.863 20.5859 33.8128 21.1717 34.3985C21.7574 34.9843 22.7072 34.9843 23.293 34.3985ZM26.1213 29.4491C26.7071 30.0349 26.7071 30.9846 26.1213 31.5704C25.5356 32.1562 24.5858 32.1562 24 31.5704C23.4142 30.9846 23.4142 30.0349 24 29.4491C24.5858 28.8633 25.5356 28.8633 26.1213 29.4491ZM28.9498 28.7423C29.5356 28.1565 29.5356 27.2068 28.9498 26.621C28.364 26.0352 27.4143 26.0352 26.8285 26.621C26.2427 27.2068 26.2427 28.1565 26.8285 28.7423C27.4143 29.3281 28.364 29.3281 28.9498 28.7423ZM31.7782 23.7929C32.364 24.3786 32.364 25.3284 31.7782 25.9142C31.1924 26.5 30.2427 26.5 29.6569 25.9142C29.0711 25.3284 29.0711 24.3786 29.6569 23.7929C30.2427 23.2071 31.1924 23.2071 31.7782 23.7929ZM34.6066 23.086C35.1924 22.5003 35.1924 21.5505 34.6066 20.9647C34.0208 20.3789 33.071 20.3789 32.4853 20.9647C31.8995 21.5505 31.8995 22.5003 32.4853 23.086C33.071 23.6718 34.0208 23.6718 34.6066 23.086ZM37.4351 18.1366C38.0209 18.7224 38.0209 19.6721 37.4351 20.2579C36.8493 20.8437 35.8995 20.8437 35.3137 20.2579C34.728 19.6721 34.728 18.7224 35.3137 18.1366C35.8995 17.5508 36.8493 17.5508 37.4351 18.1366ZM40.2636 17.4298C40.8493 16.844 40.8493 15.8943 40.2636 15.3085C39.6778 14.7227 38.728 14.7227 38.1422 15.3085C37.5564 15.8943 37.5564 16.844 38.1422 17.4298C38.728 18.0156 39.6778 18.0156 40.2636 17.4298ZM40.2636 11.0643C40.8493 11.6501 40.8493 12.5999 40.2636 13.1857C39.6778 13.7714 38.728 13.7714 38.1422 13.1857C37.5564 12.5999 37.5564 11.6501 38.1422 11.0643C38.728 10.4786 39.6778 10.4786 40.2636 11.0643ZM37.4351 10.3575C38.0209 9.77175 38.0209 8.822 37.4351 8.23621C36.8493 7.65043 35.8995 7.65043 35.3137 8.23621C34.728 8.822 34.728 9.77175 35.3137 10.3575C35.8995 10.9433 36.8493 10.9433 37.4351 10.3575ZM7.86073 34.0606L7.1883 36.5702L5.35118 34.7331L7.86073 34.0606Z" fill="#333333"/>
</svg>
