<svg width="48" height="48" viewBox="0 0 48 48" fill="none" xmlns="http://www.w3.org/2000/svg">
<g clip-path="url(#clip0)">
<rect x="2.22623" y="29.3032" width="39" height="24" rx="2" transform="rotate(-45 2.22623 29.3032)" stroke="#333333" stroke-width="2"/>
<circle cx="8.59007" cy="29.3032" r="1" transform="rotate(-45 8.59007 29.3032)" stroke="#333333"/>
<circle cx="12.1257" cy="25.7676" r="1" transform="rotate(-45 12.1257 25.7676)" stroke="#333333"/>
<circle cx="15.6611" cy="22.2324" r="1" transform="rotate(-45 15.6611 22.2324)" stroke="#333333"/>
<circle cx="19.1968" cy="18.6968" r="1" transform="rotate(-45 19.1968 18.6968)" stroke="#333333"/>
<circle cx="22.7322" cy="15.1611" r="1" transform="rotate(-45 22.7322 15.1611)" stroke="#333333"/>
<circle cx="26.2678" cy="11.6255" r="1" transform="rotate(-45 26.2678 11.6255)" stroke="#333333"/>
<circle cx="29.8032" cy="8.09033" r="1" transform="rotate(-45 29.8032 8.09033)" stroke="#333333"/>
<circle cx="12.1257" cy="32.8389" r="1" transform="rotate(-45 12.1257 32.8389)" stroke="#333333"/>
<circle cx="15.6611" cy="29.3032" r="1" transform="rotate(-45 15.6611 29.3032)" stroke="#333333"/>
<circle cx="19.1968" cy="25.7676" r="1" transform="rotate(-45 19.1968 25.7676)" stroke="#333333"/>
<circle cx="22.7322" cy="22.2324" r="1" transform="rotate(-45 22.7322 22.2324)" stroke="#333333"/>
<circle cx="26.2678" cy="18.6968" r="1" transform="rotate(-45 26.2678 18.6968)" stroke="#333333"/>
<circle cx="29.8032" cy="15.1611" r="1" transform="rotate(-45 29.8032 15.1611)" stroke="#333333"/>
<circle cx="33.3388" cy="11.6255" r="1" transform="rotate(-45 33.3388 11.6255)" stroke="#333333"/>
<circle cx="15.6611" cy="36.3745" r="1" transform="rotate(-45 15.6611 36.3745)" stroke="#333333"/>
<circle cx="19.1968" cy="32.8389" r="1" transform="rotate(-45 19.1968 32.8389)" stroke="#333333"/>
<circle cx="22.7322" cy="29.3032" r="1" transform="rotate(-45 22.7322 29.3032)" stroke="#333333"/>
<circle cx="26.2678" cy="25.7676" r="1" transform="rotate(-45 26.2678 25.7676)" stroke="#333333"/>
<circle cx="29.8032" cy="22.2324" r="1" transform="rotate(-45 29.8032 22.2324)" stroke="#333333"/>
<circle cx="33.3388" cy="18.6968" r="1" transform="rotate(-45 33.3388 18.6968)" stroke="#333333"/>
<circle cx="36.8742" cy="15.1611" r="1" transform="rotate(-45 36.8742 15.1611)" stroke="#333333"/>
<circle cx="19.1968" cy="39.9097" r="1" transform="rotate(-45 19.1968 39.9097)" fill="#333333" stroke="#333333"/>
<circle cx="22.7322" cy="36.3745" r="1" transform="rotate(-45 22.7322 36.3745)" fill="#333333" stroke="#333333"/>
<circle cx="26.2678" cy="32.8389" r="1" transform="rotate(-45 26.2678 32.8389)" fill="#333333" stroke="#333333"/>
<circle cx="29.8032" cy="29.3032" r="1" transform="rotate(-45 29.8032 29.3032)" fill="#333333" stroke="#333333"/>
<circle cx="33.3388" cy="25.7676" r="1" transform="rotate(-45 33.3388 25.7676)" fill="#333333" stroke="#333333"/>
<circle cx="36.8742" cy="22.2324" r="1" transform="rotate(-45 36.8742 22.2324)" fill="#333333" stroke="#333333"/>
<circle cx="40.4099" cy="18.6968" r="1" transform="rotate(-45 40.4099 18.6968)" fill="#333333" stroke="#333333"/>
</g>
<defs>
<clipPath id="clip0">
<rect width="48" height="48" fill="white"/>
</clipPath>
</defs>
</svg>
