<svg width="48" height="48" viewBox="0 0 48 48" fill="none" xmlns="http://www.w3.org/2000/svg">
<path fill-rule="evenodd" clip-rule="evenodd" d="M4.34746 28.5961L29.0962 3.84734C29.4867 3.45681 30.1199 3.45681 30.5104 3.84734L44.6525 17.9895C45.0431 18.38 45.0431 19.0132 44.6525 19.4037L19.9038 44.1524C19.5133 44.5429 18.8801 44.5429 18.4896 44.1524L4.34746 30.0103C3.95693 29.6198 3.95693 28.9866 4.34746 28.5961ZM2.93325 31.4245C1.76167 30.2529 1.76167 28.3534 2.93324 27.1819L27.682 2.43312C28.8536 1.26155 30.753 1.26155 31.9246 2.43312L46.0668 16.5753C47.2383 17.7468 47.2383 19.6463 46.0668 20.8179L21.318 45.5666C20.1464 46.7382 18.247 46.7382 17.0754 45.5666L2.93325 31.4245ZM8.94366 28.9496C9.13892 29.1449 9.13892 29.4615 8.94366 29.6567C8.7484 29.852 8.43181 29.852 8.23655 29.6567C8.04129 29.4615 8.04129 29.1449 8.23655 28.9496C8.43181 28.7544 8.7484 28.7544 8.94366 28.9496ZM9.65077 28.2425C10.2366 28.8283 10.2366 29.7781 9.65077 30.3638C9.06498 30.9496 8.11523 30.9496 7.52945 30.3638C6.94366 29.7781 6.94366 28.8283 7.52945 28.2425C8.11523 27.6567 9.06498 27.6567 9.65077 28.2425ZM12.4792 26.1213C12.6744 25.9261 12.6744 25.6095 12.4792 25.4142C12.2839 25.219 11.9673 25.219 11.7721 25.4142C11.5768 25.6095 11.5768 25.9261 11.7721 26.1213C11.9673 26.3166 12.2839 26.3166 12.4792 26.1213ZM13.1863 26.8284C13.7721 26.2427 13.7721 25.2929 13.1863 24.7071C12.6005 24.1213 11.6508 24.1213 11.065 24.7071C10.4792 25.2929 10.4792 26.2427 11.065 26.8284C11.6508 27.4142 12.6005 27.4142 13.1863 26.8284ZM16.0147 21.8786C16.21 22.0738 16.21 22.3904 16.0147 22.5857C15.8194 22.781 15.5029 22.781 15.3076 22.5857C15.1123 22.3904 15.1123 22.0738 15.3076 21.8786C15.5029 21.6833 15.8194 21.6833 16.0147 21.8786ZM16.7218 21.1715C17.3076 21.7573 17.3076 22.707 16.7218 23.2928C16.136 23.8786 15.1863 23.8786 14.6005 23.2928C14.0147 22.707 14.0147 21.7573 14.6005 21.1715C15.1863 20.5857 16.136 20.5857 16.7218 21.1715ZM19.5503 19.0503C19.7456 18.855 19.7456 18.5384 19.5503 18.3432C19.3551 18.1479 19.0385 18.1479 18.8432 18.3432C18.648 18.5384 18.648 18.855 18.8432 19.0503C19.0385 19.2456 19.3551 19.2456 19.5503 19.0503ZM20.2575 19.7574C20.8432 19.1716 20.8432 18.2219 20.2575 17.6361C19.6717 17.0503 18.7219 17.0503 18.1361 17.6361C17.5503 18.2219 17.5503 19.1716 18.1361 19.7574C18.7219 20.3432 19.6717 20.3432 20.2575 19.7574ZM23.0859 14.8075C23.2811 15.0028 23.2811 15.3194 23.0859 15.5146C22.8906 15.7099 22.574 15.7099 22.3788 15.5146C22.1835 15.3194 22.1835 15.0028 22.3788 14.8075C22.574 14.6123 22.8906 14.6123 23.0859 14.8075ZM23.793 14.1004C24.3788 14.6862 24.3788 15.636 23.793 16.2218C23.2072 16.8075 22.2574 16.8075 21.6717 16.2218C21.0859 15.636 21.0859 14.6862 21.6717 14.1004C22.2574 13.5146 23.2072 13.5146 23.793 14.1004ZM26.6214 11.9792C26.8167 11.784 26.8167 11.4674 26.6214 11.2721C26.4261 11.0769 26.1095 11.0769 25.9143 11.2721C25.719 11.4674 25.719 11.784 25.9143 11.9792C26.1095 12.1745 26.4261 12.1745 26.6214 11.9792ZM27.3285 12.6863C27.9143 12.1006 27.9143 11.1508 27.3285 10.565C26.7427 9.97924 25.793 9.97924 25.2072 10.565C24.6214 11.1508 24.6214 12.1006 25.2072 12.6863C25.793 13.2721 26.7427 13.2721 27.3285 12.6863ZM30.1569 7.73649C30.3522 7.93175 30.3522 8.24834 30.1569 8.4436C29.9617 8.63886 29.6451 8.63886 29.4498 8.4436C29.2545 8.24834 29.2545 7.93175 29.4498 7.73649C29.6451 7.54123 29.9617 7.54123 30.1569 7.73649ZM30.864 7.02938C31.4498 7.61517 31.4498 8.56492 30.864 9.15071C30.2782 9.73649 29.3285 9.73649 28.7427 9.15071C28.1569 8.56492 28.1569 7.61517 28.7427 7.02938C29.3285 6.4436 30.2782 6.4436 30.864 7.02938ZM12.4792 33.1924C12.6744 32.9971 12.6744 32.6805 12.4792 32.4853C12.2839 32.29 11.9673 32.29 11.7721 32.4853C11.5768 32.6805 11.5768 32.9971 11.7721 33.1924C11.9673 33.3876 12.2839 33.3876 12.4792 33.1924ZM13.1863 33.8995C13.7721 33.3137 13.7721 32.364 13.1863 31.7782C12.6005 31.1924 11.6508 31.1924 11.065 31.7782C10.4792 32.364 10.4792 33.3137 11.065 33.8995C11.6508 34.4853 12.6005 34.4853 13.1863 33.8995ZM16.0147 28.9496C16.21 29.1449 16.21 29.4615 16.0147 29.6567C15.8194 29.852 15.5029 29.852 15.3076 29.6567C15.1123 29.4615 15.1123 29.1449 15.3076 28.9496C15.5029 28.7544 15.8194 28.7544 16.0147 28.9496ZM16.7218 28.2425C17.3076 28.8283 17.3076 29.7781 16.7218 30.3638C16.136 30.9496 15.1863 30.9496 14.6005 30.3638C14.0147 29.7781 14.0147 28.8283 14.6005 28.2425C15.1863 27.6567 16.136 27.6567 16.7218 28.2425ZM19.5503 26.1213C19.7456 25.9261 19.7456 25.6095 19.5503 25.4142C19.3551 25.219 19.0385 25.219 18.8432 25.4142C18.648 25.6095 18.648 25.9261 18.8432 26.1213C19.0385 26.3166 19.3551 26.3166 19.5503 26.1213ZM20.2575 26.8284C20.8432 26.2427 20.8432 25.2929 20.2575 24.7071C19.6717 24.1213 18.7219 24.1213 18.1361 24.7071C17.5503 25.2929 17.5503 26.2427 18.1361 26.8284C18.7219 27.4142 19.6717 27.4142 20.2575 26.8284ZM23.0859 21.8786C23.2811 22.0738 23.2811 22.3904 23.0859 22.5857C22.8906 22.781 22.574 22.781 22.3788 22.5857C22.1835 22.3904 22.1835 22.0738 22.3788 21.8786C22.574 21.6833 22.8906 21.6833 23.0859 21.8786ZM23.793 21.1715C24.3788 21.7573 24.3788 22.707 23.793 23.2928C23.2072 23.8786 22.2574 23.8786 21.6717 23.2928C21.0859 22.707 21.0859 21.7573 21.6717 21.1715C22.2574 20.5857 23.2072 20.5857 23.793 21.1715ZM26.6214 19.0503C26.8167 18.855 26.8167 18.5384 26.6214 18.3432C26.4261 18.1479 26.1095 18.1479 25.9143 18.3432C25.719 18.5384 25.719 18.855 25.9143 19.0503C26.1095 19.2456 26.4261 19.2456 26.6214 19.0503ZM27.3285 19.7574C27.9143 19.1716 27.9143 18.2219 27.3285 17.6361C26.7427 17.0503 25.793 17.0503 25.2072 17.6361C24.6214 18.2219 24.6214 19.1716 25.2072 19.7574C25.793 20.3432 26.7427 20.3432 27.3285 19.7574ZM30.1569 14.8075C30.3522 15.0028 30.3522 15.3194 30.1569 15.5146C29.9617 15.7099 29.6451 15.7099 29.4498 15.5146C29.2545 15.3194 29.2545 15.0028 29.4498 14.8075C29.6451 14.6123 29.9617 14.6123 30.1569 14.8075ZM30.864 14.1004C31.4498 14.6862 31.4498 15.636 30.864 16.2218C30.2782 16.8075 29.3285 16.8075 28.7427 16.2218C28.1569 15.636 28.1569 14.6862 28.7427 14.1004C29.3285 13.5146 30.2782 13.5146 30.864 14.1004ZM33.6924 11.9792C33.8877 11.784 33.8877 11.4674 33.6924 11.2721C33.4972 11.0769 33.1806 11.0769 32.9853 11.2721C32.7901 11.4674 32.7901 11.784 32.9853 11.9792C33.1806 12.1745 33.4972 12.1745 33.6924 11.9792ZM34.3995 12.6863C34.9853 12.1006 34.9853 11.1508 34.3995 10.565C33.8138 9.97924 32.864 9.97924 32.2782 10.565C31.6924 11.1508 31.6924 12.1006 32.2782 12.6863C32.864 13.2721 33.8138 13.2721 34.3995 12.6863ZM16.0147 36.0207C16.21 36.2159 16.21 36.5325 16.0147 36.7278C15.8194 36.923 15.5029 36.923 15.3076 36.7278C15.1123 36.5325 15.1123 36.2159 15.3076 36.0207C15.5029 35.8254 15.8194 35.8254 16.0147 36.0207ZM16.7218 35.3136C17.3076 35.8994 17.3076 36.8491 16.7218 37.4349C16.136 38.0207 15.1863 38.0207 14.6005 37.4349C14.0147 36.8491 14.0147 35.8994 14.6005 35.3136C15.1863 34.7278 16.136 34.7278 16.7218 35.3136ZM19.5503 33.1924C19.7456 32.9971 19.7456 32.6805 19.5503 32.4853C19.3551 32.29 19.0385 32.29 18.8432 32.4853C18.648 32.6805 18.648 32.9971 18.8432 33.1924C19.0385 33.3876 19.3551 33.3876 19.5503 33.1924ZM20.2575 33.8995C20.8432 33.3137 20.8432 32.364 20.2575 31.7782C19.6717 31.1924 18.7219 31.1924 18.1361 31.7782C17.5503 32.364 17.5503 33.3137 18.1361 33.8995C18.7219 34.4853 19.6717 34.4853 20.2575 33.8995ZM23.0859 28.9496C23.2811 29.1449 23.2811 29.4615 23.0859 29.6567C22.8906 29.852 22.574 29.852 22.3788 29.6567C22.1835 29.4615 22.1835 29.1449 22.3788 28.9496C22.574 28.7544 22.8906 28.7544 23.0859 28.9496ZM23.793 28.2425C24.3788 28.8283 24.3788 29.7781 23.793 30.3638C23.2072 30.9496 22.2574 30.9496 21.6717 30.3638C21.0859 29.7781 21.0859 28.8283 21.6717 28.2425C22.2574 27.6567 23.2072 27.6567 23.793 28.2425ZM26.6214 26.1213C26.8167 25.9261 26.8167 25.6095 26.6214 25.4142C26.4261 25.219 26.1095 25.219 25.9143 25.4142C25.719 25.6095 25.719 25.9261 25.9143 26.1213C26.1095 26.3166 26.4261 26.3166 26.6214 26.1213ZM27.3285 26.8284C27.9143 26.2427 27.9143 25.2929 27.3285 24.7071C26.7427 24.1213 25.793 24.1213 25.2072 24.7071C24.6214 25.2929 24.6214 26.2427 25.2072 26.8284C25.793 27.4142 26.7427 27.4142 27.3285 26.8284ZM30.1569 21.8786C30.3522 22.0738 30.3522 22.3904 30.1569 22.5857C29.9617 22.781 29.6451 22.781 29.4498 22.5857C29.2545 22.3904 29.2545 22.0738 29.4498 21.8786C29.6451 21.6833 29.9617 21.6833 30.1569 21.8786ZM30.864 21.1715C31.4498 21.7573 31.4498 22.707 30.864 23.2928C30.2782 23.8786 29.3285 23.8786 28.7427 23.2928C28.1569 22.707 28.1569 21.7573 28.7427 21.1715C29.3285 20.5857 30.2782 20.5857 30.864 21.1715ZM33.6924 19.0503C33.8877 18.855 33.8877 18.5384 33.6924 18.3432C33.4972 18.1479 33.1806 18.1479 32.9853 18.3432C32.7901 18.5384 32.7901 18.855 32.9853 19.0503C33.1806 19.2456 33.4972 19.2456 33.6924 19.0503ZM34.3995 19.7574C34.9853 19.1716 34.9853 18.2219 34.3995 17.6361C33.8138 17.0503 32.864 17.0503 32.2782 17.6361C31.6924 18.2219 31.6924 19.1716 32.2782 19.7574C32.864 20.3432 33.8138 20.3432 34.3995 19.7574ZM37.228 14.8075C37.4232 15.0028 37.4232 15.3194 37.228 15.5146C37.0327 15.7099 36.7161 15.7099 36.5209 15.5146C36.3256 15.3194 36.3256 15.0028 36.5209 14.8075C36.7161 14.6123 37.0327 14.6123 37.228 14.8075ZM37.9351 14.1004C38.5209 14.6862 38.5209 15.636 37.9351 16.2218C37.3493 16.8075 36.3995 16.8075 35.8137 16.2218C35.228 15.636 35.228 14.6862 35.8137 14.1004C36.3995 13.5146 37.3493 13.5146 37.9351 14.1004ZM20.2575 38.8492C20.8432 39.435 20.8432 40.3847 20.2575 40.9705C19.6717 41.5563 18.7219 41.5563 18.1361 40.9705C17.5503 40.3847 17.5503 39.435 18.1361 38.8492C18.7219 38.2634 19.6717 38.2634 20.2575 38.8492ZM23.793 35.3136C24.3788 35.8994 24.3788 36.8491 23.793 37.4349C23.2072 38.0207 22.2574 38.0207 21.6717 37.4349C21.0859 36.8491 21.0859 35.8994 21.6717 35.3136C22.2574 34.7278 23.2072 34.7278 23.793 35.3136ZM27.3285 31.7782C27.9143 32.364 27.9143 33.3137 27.3285 33.8995C26.7427 34.4853 25.793 34.4853 25.2072 33.8995C24.6214 33.3137 24.6214 32.364 25.2072 31.7782C25.793 31.1924 26.7427 31.1924 27.3285 31.7782ZM30.864 28.2425C31.4498 28.8283 31.4498 29.7781 30.864 30.3638C30.2782 30.9496 29.3285 30.9496 28.7427 30.3638C28.1569 29.7781 28.1569 28.8283 28.7427 28.2425C29.3285 27.6567 30.2782 27.6567 30.864 28.2425ZM34.3995 24.7071C34.9853 25.2929 34.9853 26.2427 34.3995 26.8284C33.8138 27.4142 32.864 27.4142 32.2782 26.8284C31.6924 26.2427 31.6924 25.2929 32.2782 24.7071C32.864 24.1213 33.8138 24.1213 34.3995 24.7071ZM37.9351 21.1715C38.5209 21.7573 38.5209 22.707 37.9351 23.2928C37.3493 23.8786 36.3995 23.8786 35.8137 23.2928C35.228 22.707 35.228 21.7573 35.8137 21.1715C36.3995 20.5857 37.3493 20.5857 37.9351 21.1715ZM41.4706 17.6361C42.0564 18.2219 42.0564 19.1716 41.4706 19.7574C40.8848 20.3432 39.9351 20.3432 39.3493 19.7574C38.7635 19.1716 38.7635 18.2219 39.3493 17.6361C39.9351 17.0503 40.8848 17.0503 41.4706 17.6361Z" fill="#333333"/>
</svg>
