<svg width="48" height="48" viewBox="0 0 48 48" fill="none" xmlns="http://www.w3.org/2000/svg">
<g clip-path="url(#clip0)">
<rect x="1.7261" y="34.7539" width="46" height="17" rx="2" transform="rotate(-45 1.7261 34.7539)" stroke="#333333" stroke-width="2"/>
<circle cx="9.50438" cy="31.9238" r="1.5" transform="rotate(-45 9.50438 31.9238)" fill="#333333"/>
<circle cx="12.3327" cy="29.0957" r="1.5" transform="rotate(-45 12.3327 29.0957)" fill="#333333"/>
<circle cx="15.1611" cy="26.2676" r="1.5" transform="rotate(-45 15.1611 26.2676)" fill="#333333"/>
<circle cx="17.9896" cy="23.4395" r="1.5" transform="rotate(-45 17.9896 23.4395)" fill="#333333"/>
<circle cx="20.818" cy="20.6113" r="1.5" transform="rotate(-45 20.818 20.6113)" fill="#333333"/>
<circle cx="23.6465" cy="17.7832" r="1.5" transform="rotate(-45 23.6465 17.7832)" fill="#333333"/>
<circle cx="26.4748" cy="14.9531" r="1.5" transform="rotate(-45 26.4748 14.9531)" fill="#333333"/>
<circle cx="29.3033" cy="12.125" r="1.5" transform="rotate(-45 29.3033 12.125)" fill="#333333"/>
<circle cx="32.1317" cy="9.29688" r="1.5" transform="rotate(-45 32.1317 9.29688)" fill="#333333"/>
<circle cx="16.5754" cy="38.9961" r="1.5" transform="rotate(-45 16.5754 38.9961)" fill="#333333"/>
<circle cx="12.3327" cy="38.9961" r="1.5" transform="rotate(-45 12.3327 38.9961)" fill="#333333"/>
<circle cx="19.4038" cy="36.168" r="1.5" transform="rotate(-45 19.4038 36.168)" fill="#333333"/>
<circle cx="22.2323" cy="33.3379" r="1.5" transform="rotate(-45 22.2323 33.3379)" fill="#333333"/>
<circle cx="25.0607" cy="30.5098" r="1.5" transform="rotate(-45 25.0607 30.5098)" fill="#333333"/>
<circle cx="27.8891" cy="27.6816" r="1.5" transform="rotate(-45 27.8891 27.6816)" fill="#333333"/>
<circle cx="30.7175" cy="24.8535" r="1.5" transform="rotate(-45 30.7175 24.8535)" fill="#333333"/>
<circle cx="33.5459" cy="22.0254" r="1.5" transform="rotate(-45 33.5459 22.0254)" fill="#333333"/>
<circle cx="36.3744" cy="19.1973" r="1.5" transform="rotate(-45 36.3744 19.1973)" fill="#333333"/>
<circle cx="39.2029" cy="16.3691" r="1.5" transform="rotate(-45 39.2029 16.3691)" fill="#333333"/>
<circle cx="39.2029" cy="12.125" r="1.5" transform="rotate(-45 39.2029 12.125)" fill="#333333"/>
<circle cx="36.3744" cy="9.29688" r="1.5" transform="rotate(-45 36.3744 9.29688)" fill="#333333"/>
<path d="M7.86071 34.0607L7.18828 36.5702L5.35116 34.7331L7.86071 34.0607Z" fill="#333333"/>
<rect x="1.7261" y="34.7539" width="46" height="17" rx="2" transform="rotate(-45 1.7261 34.7539)" stroke="#333333" stroke-width="2"/>
<circle cx="9.50438" cy="31.9238" r="1.5" transform="rotate(-45 9.50438 31.9238)" fill="#333333"/>
<circle cx="12.3327" cy="29.0957" r="1.5" transform="rotate(-45 12.3327 29.0957)" fill="#333333"/>
<circle cx="15.1611" cy="26.2676" r="1.5" transform="rotate(-45 15.1611 26.2676)" fill="#333333"/>
<circle cx="17.9896" cy="23.4395" r="1.5" transform="rotate(-45 17.9896 23.4395)" fill="#333333"/>
<circle cx="20.818" cy="20.6113" r="1.5" transform="rotate(-45 20.818 20.6113)" fill="#333333"/>
<circle cx="23.6465" cy="17.7832" r="1.5" transform="rotate(-45 23.6465 17.7832)" fill="#333333"/>
<circle cx="26.4748" cy="14.9531" r="1.5" transform="rotate(-45 26.4748 14.9531)" fill="#333333"/>
<circle cx="29.3033" cy="12.125" r="1.5" transform="rotate(-45 29.3033 12.125)" fill="#333333"/>
<circle cx="32.1317" cy="9.29688" r="1.5" transform="rotate(-45 32.1317 9.29688)" fill="#333333"/>
<circle cx="16.5754" cy="38.9961" r="1.5" transform="rotate(-45 16.5754 38.9961)" fill="#333333"/>
<circle cx="12.3327" cy="38.9961" r="1.5" transform="rotate(-45 12.3327 38.9961)" fill="#333333"/>
<circle cx="19.4038" cy="36.168" r="1.5" transform="rotate(-45 19.4038 36.168)" fill="#333333"/>
<circle cx="22.2323" cy="33.3379" r="1.5" transform="rotate(-45 22.2323 33.3379)" fill="#333333"/>
<circle cx="25.0607" cy="30.5098" r="1.5" transform="rotate(-45 25.0607 30.5098)" fill="#333333"/>
<circle cx="27.8891" cy="27.6816" r="1.5" transform="rotate(-45 27.8891 27.6816)" fill="#333333"/>
<circle cx="30.7175" cy="24.8535" r="1.5" transform="rotate(-45 30.7175 24.8535)" fill="#333333"/>
<circle cx="33.5459" cy="22.0254" r="1.5" transform="rotate(-45 33.5459 22.0254)" fill="#333333"/>
<circle cx="36.3744" cy="19.1973" r="1.5" transform="rotate(-45 36.3744 19.1973)" fill="#333333"/>
<circle cx="39.2029" cy="16.3691" r="1.5" transform="rotate(-45 39.2029 16.3691)" fill="#333333"/>
<circle cx="39.2029" cy="12.125" r="1.5" transform="rotate(-45 39.2029 12.125)" fill="#333333"/>
<circle cx="36.3744" cy="9.29688" r="1.5" transform="rotate(-45 36.3744 9.29688)" fill="#333333"/>
<path d="M7.86071 34.0607L7.18828 36.5702L5.35116 34.7331L7.86071 34.0607Z" fill="#333333"/>
</g>
<defs>
<clipPath id="clip0">
<rect width="48" height="48" fill="white"/>
</clipPath>
</defs>
</svg>
