<svg width="48" height="48" viewBox="0 0 48 48" fill="none" xmlns="http://www.w3.org/2000/svg">
<path fill-rule="evenodd" clip-rule="evenodd" d="M34.5 6C38.6421 6 42 9.35786 42 13.5C42 16.517 40.2186 19.1179 37.6502 20.3083L32.5116 6.26641C33.1449 6.09274 33.8116 6 34.5 6ZM30.669 7.0509C28.472 8.35882 27 10.7575 27 13.5C27 17.6421 30.3579 21 34.5 21C34.9212 21 35.3342 20.9653 35.7365 20.8986L30.669 7.0509ZM34.5 4C39.7467 4 44 8.25329 44 13.5C44 18.7467 39.7467 23 34.5 23C29.2533 23 25 18.7467 25 13.5C25 8.25329 29.2533 4 34.5 4ZM9.66901 29.0509C7.47199 30.3588 6 32.7575 6 35.5C6 39.6421 9.35786 43 13.5 43C13.9212 43 14.3342 42.9653 14.7365 42.8986L9.66901 29.0509ZM16.6502 42.3083L11.5116 28.2664C12.1449 28.0927 12.8116 28 13.5 28C17.6421 28 21 31.3579 21 35.5C21 38.517 19.2186 41.1179 16.6502 42.3083ZM13.5 26C18.7467 26 23 30.2533 23 35.5C23 40.7467 18.7467 45 13.5 45C8.25329 45 4 40.7467 4 35.5C4 30.2533 8.25329 26 13.5 26ZM13.5 21C17.6421 21 21 17.6421 21 13.5C21 12.3452 20.739 11.2514 20.2728 10.2743L6.98717 17.2219C8.2799 19.4791 10.7123 21 13.5 21ZM6.23234 15.3596C6.08064 14.765 6 14.1419 6 13.5C6 9.35786 9.35786 6 13.5 6C15.7658 6 17.7969 7.00473 19.1721 8.59295L6.23234 15.3596ZM13.5 23C18.7467 23 23 18.7467 23 13.5C23 8.25329 18.7467 4 13.5 4C8.25329 4 4 8.25329 4 13.5C4 18.7467 8.25329 23 13.5 23ZM34.5 43C38.6421 43 42 39.6421 42 35.5C42 34.3452 41.739 33.2514 41.2728 32.2743L27.9872 39.2219C29.2799 41.4791 31.7123 43 34.5 43ZM27.2323 37.3596C27.0806 36.765 27 36.1419 27 35.5C27 31.3579 30.3579 28 34.5 28C36.7658 28 38.7969 29.0047 40.1721 30.593L27.2323 37.3596ZM34.5 45C39.7467 45 44 40.7467 44 35.5C44 30.2533 39.7467 26 34.5 26C29.2533 26 25 30.2533 25 35.5C25 40.7467 29.2533 45 34.5 45Z" fill="#333333"/>
</svg>
