<svg width="48" height="48" viewBox="0 0 48 48" fill="none" xmlns="http://www.w3.org/2000/svg">
<path fill-rule="evenodd" clip-rule="evenodd" d="M22.5 6.06609C18.8306 6.55498 16 9.69692 16 13.5C16 17.3031 18.8306 20.445 22.5 20.9339L22.5 6.06609ZM31 13.5C31 17.3031 28.1694 20.445 24.5 20.9339L24.5 6.06609C28.1694 6.55498 31 9.69692 31 13.5ZM33 13.5C33 18.7467 28.7467 23 23.5 23C18.2533 23 14 18.7467 14 13.5C14 8.25329 18.2533 4 23.5 4C28.7467 4 33 8.25329 33 13.5ZM9.66902 28.0509C7.472 29.3588 6 31.7575 6 34.5C6 38.6421 9.35786 42 13.5 42C13.9212 42 14.3343 41.9653 14.7365 41.8986L9.66902 28.0509ZM16.6502 41.3083L11.5117 27.2664C12.1449 27.0927 12.8116 27 13.5 27C17.6421 27 21 30.3579 21 34.5C21 37.517 19.2186 40.1179 16.6502 41.3083ZM13.5 25C18.7467 25 23 29.2533 23 34.5C23 39.7467 18.7467 44 13.5 44C8.25329 44 4 39.7467 4 34.5C4 29.2533 8.25329 25 13.5 25ZM34.5 42C38.6421 42 42 38.6421 42 34.5C42 33.3452 41.739 32.2514 41.2728 31.2743L27.9872 38.2219C29.2799 40.4791 31.7123 42 34.5 42ZM27.2323 36.3596C27.0806 35.765 27 35.1419 27 34.5C27 30.3579 30.3579 27 34.5 27C36.7658 27 38.7969 28.0047 40.1721 29.5929L27.2323 36.3596ZM34.5 44C39.7467 44 44 39.7467 44 34.5C44 29.2533 39.7467 25 34.5 25C29.2533 25 25 29.2533 25 34.5C25 39.7467 29.2533 44 34.5 44Z" fill="#333333"/>
</svg>
