<svg width="48" height="48" viewBox="0 0 48 48" fill="none" xmlns="http://www.w3.org/2000/svg">
<rect width="48" height="48" fill="white"/>
<path fill-rule="evenodd" clip-rule="evenodd" d="M30.5821 31.1869C31.0311 31.5083 31.1346 32.133 30.8131 32.5821C30.2266 33.4015 29.477 34.1469 28.5973 34.8021C28.1543 35.1319 27.5278 35.0402 27.198 34.5973C26.8681 34.1543 26.9598 33.5278 27.4027 33.198C28.1377 32.6506 28.7349 32.0493 29.1869 31.4179C29.5083 30.9689 30.133 30.8654 30.5821 31.1869ZM25.8321 36.4453C26.1384 36.9048 26.0142 37.5257 25.5547 37.8321L25 37C25.5547 37.8321 25.555 37.8318 25.5547 37.8321L25.5534 37.8329L25.5519 37.8339L25.5486 37.8361L25.5401 37.8416L25.5165 37.8567C25.4978 37.8686 25.4731 37.8838 25.4425 37.9021C25.3813 37.9385 25.2965 37.9868 25.1891 38.0428C24.9745 38.1548 24.6686 38.2982 24.2792 38.4398C23.5005 38.723 22.3845 39 21 39C20.4477 39 20 38.5523 20 38C20 37.4477 20.4477 37 21 37C22.1155 37 22.9995 36.777 23.5958 36.5602C23.8939 36.4518 24.1192 36.3452 24.264 36.2697C24.3363 36.2319 24.3882 36.2021 24.4189 36.1839C24.4342 36.1748 24.4441 36.1686 24.4486 36.1657L24.4506 36.1645C24.9095 35.8626 25.5269 35.9875 25.8321 36.4453ZM36.9999 40.5129C37.007 39.9607 36.5651 39.5072 36.0129 39.5001C35.4607 39.493 35.0072 39.9349 35.0001 40.4871C34.9889 41.3504 35.1272 42.0717 35.2704 42.5825C35.3422 42.8385 35.4159 43.0437 35.474 43.1899C35.5032 43.2632 35.5285 43.3219 35.548 43.3651C35.5577 43.3867 35.566 43.4044 35.5726 43.4182L35.5811 43.4359L35.5843 43.4425L35.5857 43.4452L35.5863 43.4464C35.5864 43.4467 35.5869 43.4476 36.4811 43L35.5869 43.4476C35.834 43.9414 36.4348 44.1414 36.9287 43.8943C37.4205 43.6481 37.6209 43.0512 37.3784 42.5585L37.3713 42.5431C37.3635 42.5258 37.3499 42.4947 37.3324 42.4507C37.2973 42.3626 37.2471 42.224 37.1961 42.0425C37.094 41.6783 36.9917 41.1496 36.9999 40.5129ZM37.4489 34.3157C37.6228 33.7921 37.3398 33.2258 36.8162 33.0513C36.2923 32.8767 35.726 33.1598 35.5513 33.6838L36.4909 33.997C35.5513 33.6838 35.5514 33.6836 35.5513 33.6838L35.5509 33.6852L35.5502 33.6871L35.5484 33.6926L35.5427 33.7102C35.538 33.7247 35.5316 33.7449 35.5237 33.7703C35.5079 33.8211 35.4861 33.893 35.4604 33.9831C35.409 34.1629 35.3413 34.4168 35.2738 34.7206C35.1405 35.3207 35 36.1492 35 37C35 37.5523 35.4477 38 36 38C36.5523 38 37 37.5523 37 37C37 36.3508 37.1095 35.6793 37.2262 35.1544C37.2837 34.8957 37.341 34.6808 37.3834 34.5325C37.4045 34.4585 37.4218 34.4015 37.4334 34.3645L37.4461 34.3242L37.4489 34.3157ZM33.8935 34.449C34.1415 33.9555 33.9425 33.3544 33.449 33.1065C32.9555 32.8585 32.3544 33.0575 32.1065 33.551C31.9056 33.9508 31.7369 34.3806 31.5936 34.7458C31.5353 34.8944 31.4811 35.0323 31.4308 35.1531C31.2402 35.61 31.0441 35.9917 30.7375 36.353C30.3802 36.7742 30.4319 37.4052 30.853 37.7625C31.2742 38.1198 31.9052 38.0681 32.2625 37.647C32.7592 37.0616 33.0497 36.4673 33.2767 35.9229C33.361 35.7206 33.4317 35.5399 33.4982 35.3698C33.6236 35.0491 33.7341 34.7663 33.8935 34.449Z" fill="#333333"/>
<path fill-rule="evenodd" clip-rule="evenodd" d="M39.3923 4.08017C39.9003 4.29683 40.1365 4.8843 39.9198 5.39231L39 5C39.9198 5.39231 39.9199 5.39211 39.9198 5.39231L39.9159 5.40156L39.9057 5.42523L39.867 5.51431C39.8332 5.59173 39.7834 5.70459 39.7188 5.84879C39.5895 6.13714 39.4003 6.55112 39.159 7.05797C38.6769 8.07083 37.9845 9.45881 37.1438 10.9585C35.4889 13.9104 33.1671 17.4661 30.6596 19.3345L30.6579 19.3358C28.1706 21.1811 27.744 23.1533 28.1213 24.5219C28.5148 25.9495 29.8303 27 31.4291 27H33.5C35.433 27 37 28.567 37 30.5H35C35 29.6716 34.3284 29 33.5 29H31.4291C28.9269 29 26.8249 27.3451 26.1932 25.0533C25.5452 22.7026 26.4854 19.9414 29.4656 17.7301C31.599 16.1399 33.7458 12.9297 35.3992 9.98042C36.2128 8.5292 36.8847 7.18246 37.3532 6.19832C37.5873 5.70667 37.77 5.30657 37.8938 5.03048C37.9557 4.89245 38.0029 4.78549 38.0342 4.71366L38.0694 4.63278L38.0779 4.61307L38.0798 4.60857C38.0798 4.60854 38.0802 4.60764 38.0802 4.60762" fill="#333333"/>
<path fill-rule="evenodd" clip-rule="evenodd" d="M34.7479 26.9807C34.271 27.2545 34.044 27.701 33.9926 28.1212C33.9256 28.6694 33.4269 29.0595 32.8787 28.9925C32.3305 28.9255 31.9404 28.4268 32.0074 27.8786C32.1227 26.9347 32.6457 25.8814 33.7521 25.2462C34.8549 24.6131 36.3649 24.4928 38.2747 25.0385C38.8058 25.1902 39.1133 25.7437 38.9615 26.2747C38.8098 26.8058 38.2563 27.1133 37.7253 26.9615C36.1351 26.5072 35.2284 26.7048 34.7479 26.9807Z" fill="#333333"/>
<path fill-rule="evenodd" clip-rule="evenodd" d="M14 6C9.58172 6 6 9.58172 6 14C6 18.4183 9.58172 22 14 22C18.4183 22 22 18.4183 22 14C22 9.58172 18.4183 6 14 6ZM4 14C4 8.47715 8.47715 4 14 4C19.5228 4 24 8.47715 24 14C24 19.5228 19.5228 24 14 24C8.47715 24 4 19.5228 4 14Z" fill="#333333"/>
<path fill-rule="evenodd" clip-rule="evenodd" d="M20.7071 7.29289C21.0976 7.68342 21.0976 8.31658 20.7071 8.70711L8.70711 20.7071C8.31658 21.0976 7.68342 21.0976 7.29289 20.7071C6.90237 20.3166 6.90237 19.6834 7.29289 19.2929L19.2929 7.29289C19.6834 6.90237 20.3166 6.90237 20.7071 7.29289Z" fill="#333333"/>
<path fill-rule="evenodd" clip-rule="evenodd" d="M43.9933 25.2747C43.5983 26.8066 42.6118 28.1991 41.5145 28.8575L40.4855 27.1425C41.0548 26.8009 41.7684 25.8934 42.0567 24.7753C42.3317 23.7088 42.1867 22.601 41.2929 21.7071L42.7071 20.2929C44.2133 21.799 44.4016 23.6912 43.9933 25.2747Z" fill="#333333"/>
<path fill-rule="evenodd" clip-rule="evenodd" d="M29.6 39.2C30.0418 39.5314 30.1314 40.1582 29.8 40.6L29 40C29.8 40.6 29.8001 40.5999 29.8 40.6L29.7978 40.603L29.7933 40.6088L29.7781 40.6289C29.7651 40.646 29.7465 40.6702 29.7227 40.7009C29.6751 40.7622 29.6066 40.8494 29.5201 40.9565C29.3474 41.1703 29.1014 41.4655 28.8058 41.794C28.2267 42.4374 27.4101 43.2618 26.5547 43.8321C26.0952 44.1384 25.4743 44.0142 25.1679 43.5547C24.8616 43.0952 24.9858 42.4743 25.4453 42.1679C26.0899 41.7382 26.7733 41.0626 27.3192 40.456C27.5861 40.1595 27.8088 39.8922 27.9642 39.6998C28.0418 39.6038 28.1022 39.5269 28.1425 39.4749C28.1627 39.4489 28.1778 39.4292 28.1875 39.4165L28.198 39.4027L28.2 39.4C28.5314 38.9583 29.1582 38.8687 29.6 39.2Z" fill="#333333"/>
</svg>
