<svg width="48" height="48" viewBox="0 0 48 48" fill="none" xmlns="http://www.w3.org/2000/svg">
<rect width="48" height="48" fill="white"/>
<path fill-rule="evenodd" clip-rule="evenodd" d="M24 14.9835V6.00015C24 6.00005 24 6 23 6C22 6 22 6.00005 22 6.00015V22.5C22 23.8977 21.436 24.4421 20.9961 24.6987C20.9546 24.7229 20.9129 24.7453 20.8712 24.7659C20.862 24.4136 20.8562 24.0816 20.8562 23.7741C20.8562 23.5557 20.8587 23.3141 20.8614 23.0536C20.8968 19.6426 20.9659 13 15.8669 13C8.88199 13 3.8927 38.1396 6.88627 40.7049C9.87984 43.2701 15.8669 41.731 18.8605 38.6526C21.1501 36.2982 21.083 30.9622 20.942 26.8625C21.2557 26.7801 21.6273 26.646 22.0039 26.4263C22.3602 26.2184 22.7026 25.9442 23 25.5919C23.2975 25.9442 23.6398 26.2184 23.9961 26.4263C24.3728 26.646 24.7443 26.7801 25.0581 26.8625C24.917 30.9622 24.8499 36.2982 27.1395 38.6526C30.1331 41.731 36.1202 43.2701 39.1138 40.7049C40.738 39.313 40.0122 31.2758 37.8927 24.214C37.2841 24.4715 36.6447 24.6704 35.9815 24.8037C36.1391 25.3292 36.2894 25.8629 36.4318 26.4016C37.2769 29.5985 37.812 32.8473 37.959 35.4083C38.0328 36.6956 38.0043 37.7402 37.8949 38.4885C37.8402 38.8625 37.7731 39.1067 37.7185 39.2471L37.7095 39.2697C36.8517 39.9301 35.382 40.2065 33.5188 39.8339C31.6215 39.4545 29.7554 38.4739 28.5733 37.2583C28.1709 36.8445 27.8004 36.1488 27.522 35.0952C27.2476 34.0564 27.1005 32.8152 27.0379 31.4616C26.9554 29.6756 27.0181 27.9912 27.0763 26.4278C27.1109 25.4992 27.1438 24.6132 27.1438 23.7741C27.1438 23.5247 27.1415 23.2605 27.139 22.9849C27.1369 22.7541 27.1348 22.5152 27.1339 22.2703C26.3665 21.5453 25.7138 20.7001 25.2059 19.7648C25.1169 20.9674 25.129 22.1292 25.1386 23.0536C25.1413 23.3141 25.1438 23.5557 25.1438 23.7741C25.1438 24.0816 25.1381 24.4136 25.1288 24.7659C25.0871 24.7453 25.0454 24.7229 25.0039 24.6987C24.564 24.4421 24 23.8977 24 22.5V15.0165C24 15.011 24 15.0055 24 15C24 14.9945 24 14.989 24 14.9835ZM17.5061 15.622C17.1736 15.269 16.7095 15 15.8669 15C15.6267 15 15.232 15.1033 14.6626 15.5967C14.0882 16.0944 13.4615 16.8861 12.8219 17.9786C11.5451 20.1597 10.4169 23.1915 9.56824 26.4016C8.7231 29.5985 8.18798 32.8473 8.04105 35.4083C7.96719 36.6956 7.99571 37.7402 8.10514 38.4885C8.15983 38.8625 8.22695 39.1067 8.28148 39.2471L8.29049 39.2697C9.14833 39.9301 10.618 40.2065 12.4813 39.8339C14.3786 39.4545 16.2446 38.4739 17.4267 37.2583C17.8291 36.8445 18.1996 36.1488 18.478 35.0952C18.7524 34.0564 18.8996 32.8152 18.9621 31.4616C19.0446 29.6756 18.9819 27.9912 18.9237 26.4278C18.8892 25.4992 18.8562 24.6132 18.8562 23.7741C18.8562 23.5247 18.8586 23.2606 18.861 22.9851C18.8753 21.3925 18.893 19.4193 18.4763 17.7051C18.2376 16.7235 17.8996 16.0396 17.5061 15.622ZM8.31966 39.332L8.31662 39.3267L8.31923 39.331L8.31966 39.332C8.31985 39.3323 8.31965 39.332 8.31966 39.332ZM37.6801 39.3324C37.6801 39.3325 37.6813 39.3307 37.6834 39.3267L37.6814 39.33L37.6801 39.3324Z" fill="#333333"/>
<path fill-rule="evenodd" clip-rule="evenodd" d="M34 12C32.3431 12 31 13.3431 31 15C31 16.6569 32.3431 18 34 18C35.6569 18 37 16.6569 37 15C37 13.3431 35.6569 12 34 12ZM29 15C29 12.2386 31.2386 10 34 10C36.7614 10 39 12.2386 39 15C39 17.7614 36.7614 20 34 20C31.2386 20 29 17.7614 29 15Z" fill="#333333"/>
<path fill-rule="evenodd" clip-rule="evenodd" d="M39.7071 9.29289C40.0976 9.68342 40.0976 10.3166 39.7071 10.7071L37.7071 12.7071C37.3166 13.0976 36.6834 13.0976 36.2929 12.7071C35.9024 12.3166 35.9024 11.6834 36.2929 11.2929L38.2929 9.29289C38.6834 8.90237 39.3166 8.90237 39.7071 9.29289Z" fill="#333333"/>
<path fill-rule="evenodd" clip-rule="evenodd" d="M41 13C41.5523 13 42 13.4477 42 14V16C42 16.5523 41.5523 17 41 17C40.4477 17 40 16.5523 40 16V14C40 13.4477 40.4477 13 41 13Z" fill="#333333"/>
<path fill-rule="evenodd" clip-rule="evenodd" d="M36 22C36 22.5523 35.5523 23 35 23H33C32.4477 23 32 22.5523 32 22C32 21.4477 32.4477 21 33 21H35C35.5523 21 36 21.4477 36 22Z" fill="#333333"/>
<path fill-rule="evenodd" clip-rule="evenodd" d="M40.4143 18.5859C40.8048 18.9764 40.8048 19.6096 40.4143 20.0001L39 21.4143C38.6095 21.8048 37.9764 21.8048 37.5858 21.4143C37.1953 21.0238 37.1953 20.3906 37.5858 20.0001L39 18.5859C39.3906 18.1953 40.0237 18.1953 40.4143 18.5859Z" fill="#333333"/>
<path fill-rule="evenodd" clip-rule="evenodd" d="M27 13C27.5523 13 28 13.4477 28 14V16C28 16.5523 27.5523 17 27 17C26.4477 17 26 16.5523 26 16V14C26 13.4477 26.4477 13 27 13Z" fill="#333333"/>
<path fill-rule="evenodd" clip-rule="evenodd" d="M27.5857 18.5859C27.9763 18.1953 28.6094 18.1953 29 18.5859L30.4142 20.0001C30.8047 20.3906 30.8047 21.0238 30.4142 21.4143C30.0236 21.8048 29.3905 21.8048 29 21.4143L27.5857 20.0001C27.1952 19.6096 27.1952 18.9764 27.5857 18.5859Z" fill="#333333"/>
<path fill-rule="evenodd" clip-rule="evenodd" d="M36 8C36 8.55229 35.5523 9 35 9L33 9C32.4477 9 32 8.55228 32 8C32 7.44772 32.4477 7 33 7L35 7C35.5523 7 36 7.44772 36 8Z" fill="#333333"/>
<path fill-rule="evenodd" clip-rule="evenodd" d="M30.4143 8.58586C30.8048 8.97639 30.8048 9.60955 30.4143 10.0001L29 11.4143C28.6095 11.8048 27.9764 11.8048 27.5858 11.4143C27.1953 11.0238 27.1953 10.3906 27.5858 10.0001L29 8.58586C29.3906 8.19534 30.0237 8.19534 30.4143 8.58586Z" fill="#333333"/>
<path fill-rule="evenodd" clip-rule="evenodd" d="M40.4143 11.4141C40.0237 11.8047 39.3906 11.8047 39 11.4141L37.5858 9.99992C37.1953 9.6094 37.1953 8.97624 37.5858 8.58571C37.9764 8.19519 38.6095 8.19519 39 8.58571L40.4143 9.99992C40.8048 10.3904 40.8048 11.0236 40.4143 11.4141Z" fill="#333333"/>
<path fill-rule="evenodd" clip-rule="evenodd" d="M37 15C37 14.4477 37.4477 14 38 14H41C41.5523 14 42 14.4477 42 15C42 15.5523 41.5523 16 41 16H38C37.4477 16 37 15.5523 37 15Z" fill="#333333"/>
<path fill-rule="evenodd" clip-rule="evenodd" d="M34 18C34.5523 18 35 18.4477 35 19V22C35 22.5523 34.5523 23 34 23C33.4477 23 33 22.5523 33 22V19C33 18.4477 33.4477 18 34 18Z" fill="#333333"/>
<path fill-rule="evenodd" clip-rule="evenodd" d="M26 15C26 14.4477 26.4477 14 27 14H30C30.5523 14 31 14.4477 31 15C31 15.5523 30.5523 16 30 16H27C26.4477 16 26 15.5523 26 15Z" fill="#333333"/>
<path fill-rule="evenodd" clip-rule="evenodd" d="M34 7C34.5523 7 35 7.44772 35 8V11C35 11.5523 34.5523 12 34 12C33.4477 12 33 11.5523 33 11V8C33 7.44772 33.4477 7 34 7Z" fill="#333333"/>
<path fill-rule="evenodd" clip-rule="evenodd" d="M36.2929 17.2929C36.6834 16.9024 37.3166 16.9024 37.7071 17.2929L39.7071 19.2929C40.0976 19.6834 40.0976 20.3166 39.7071 20.7071C39.3166 21.0976 38.6834 21.0976 38.2929 20.7071L36.2929 18.7071C35.9024 18.3166 35.9024 17.6834 36.2929 17.2929Z" fill="#333333"/>
<path fill-rule="evenodd" clip-rule="evenodd" d="M31.7071 17.2929C32.0976 17.6834 32.0976 18.3166 31.7071 18.7071L29.7071 20.7071C29.3166 21.0976 28.6834 21.0976 28.2929 20.7071C27.9024 20.3166 27.9024 19.6834 28.2929 19.2929L30.2929 17.2929C30.6834 16.9024 31.3166 16.9024 31.7071 17.2929Z" fill="#333333"/>
<path fill-rule="evenodd" clip-rule="evenodd" d="M28.2929 9.29289C28.6834 8.90237 29.3166 8.90237 29.7071 9.29289L31.7071 11.2929C32.0976 11.6834 32.0976 12.3166 31.7071 12.7071C31.3166 13.0976 30.6834 13.0976 30.2929 12.7071L28.2929 10.7071C27.9024 10.3166 27.9024 9.68342 28.2929 9.29289Z" fill="#333333"/>
</svg>
