<svg width="48" height="48" viewBox="0 0 48 48" fill="none" xmlns="http://www.w3.org/2000/svg">
<circle cx="24" cy="24" r="19" stroke="#333333" stroke-width="2"/>
<path d="M17.8322 18.9843C16.392 20.0974 14.9015 20.7829 13.6897 21.0242C12.4106 21.2789 11.7682 20.9972 11.5363 20.6972C11.3045 20.3971 11.1938 19.7044 11.7629 18.5308C12.302 17.4191 13.3413 16.1497 14.7815 15.0367C16.2218 13.9236 17.7122 13.2381 18.924 12.9968C20.2031 12.7421 20.8456 13.0238 21.0775 13.3238C21.3093 13.6238 21.4199 14.3166 20.8509 15.4902C20.3118 16.6019 19.2725 17.8713 17.8322 18.9843Z" stroke="#333333" stroke-width="2"/>
<path d="M31.9224 27.706C33.4623 28.6358 34.6257 29.7642 35.2801 30.7937C35.9713 31.8811 35.9383 32.5693 35.7478 32.8848C35.5573 33.2002 34.9637 33.5499 33.6795 33.4446C32.4637 33.3448 30.9234 32.8407 29.3835 31.9109C27.8436 30.9811 26.6802 29.8528 26.0258 28.8233C25.3346 27.7358 25.3676 27.0477 25.5581 26.7322C25.7486 26.4167 26.3422 26.0671 27.6264 26.1724C28.8422 26.2721 30.3825 26.7762 31.9224 27.706Z" stroke="#333333" stroke-width="2"/>
<path d="M32.552 15.4259C33.3237 17.0756 33.6671 18.6809 33.6377 19.9169C33.6066 21.2215 33.1909 21.7875 32.847 21.9484C32.5031 22.1093 31.8022 22.0656 30.7809 21.2533C29.8132 20.4837 28.8011 19.1912 28.0294 17.5415C27.2577 15.8918 26.9143 14.2865 26.9437 13.0505C26.9748 11.7459 27.3905 11.1799 27.7344 11.019C28.0783 10.8581 28.7792 10.9018 29.8005 11.7141C30.7682 12.4837 31.7803 13.7761 32.552 15.4259Z" stroke="#333333" stroke-width="2"/>
<path d="M20.7265 30.382C21.5643 32.0487 21.9629 33.6831 21.9685 34.9517C21.9745 36.2889 21.5653 36.8913 21.2065 37.0716C20.8477 37.252 20.1202 37.2211 19.0505 36.4186C18.0357 35.6573 16.9617 34.3624 16.1239 32.6958C15.2861 31.0292 14.8875 29.3947 14.8819 28.1261C14.876 26.7889 15.2851 26.1866 15.6439 26.0062C16.0027 25.8258 16.7302 25.8568 17.7999 26.6592C18.8147 27.4205 19.8887 28.7154 20.7265 30.382Z" stroke="#333333" stroke-width="2"/>
</svg>
