<svg width="48" height="48" viewBox="0 0 48 48" fill="none" xmlns="http://www.w3.org/2000/svg">
<path fill-rule="evenodd" clip-rule="evenodd" d="M24 42C33.9411 42 42 33.9411 42 24C42 14.0589 33.9411 6 24 6C14.0589 6 6 14.0589 6 24C6 33.9411 14.0589 42 24 42ZM24 44C35.0457 44 44 35.0457 44 24C44 12.9543 35.0457 4 24 4C12.9543 4 4 12.9543 4 24C4 35.0457 12.9543 44 24 44Z" fill="#333333"/>
<path fill-rule="evenodd" clip-rule="evenodd" d="M13.4944 20.0433C14.5248 19.8381 15.8761 19.2321 17.2208 18.1929C18.5655 17.1537 19.4927 15.999 19.9511 15.0537C20.26 14.4166 20.2748 14.0835 20.2632 13.953C20.1398 13.9087 19.8137 13.8391 19.1193 13.9774C18.0889 14.1825 16.7377 14.7886 15.393 15.8278C14.0483 16.8669 13.1211 18.0216 12.6627 18.967C12.3538 19.6041 12.3389 19.9372 12.3506 20.0677C12.474 20.1119 12.8001 20.1816 13.4944 20.0433ZM10.745 21.3085C11.9252 22.8356 15.372 22.1492 18.4437 19.7754C21.5155 17.4016 23.0489 14.2393 21.8687 12.7122C20.6886 11.1851 17.2418 11.8714 14.1701 14.2452C11.0983 16.619 9.56491 19.7813 10.745 21.3085Z" fill="#333333"/>
<path fill-rule="evenodd" clip-rule="evenodd" d="M34.4362 31.33C33.881 30.4566 32.842 29.4293 31.4055 28.562C29.9691 27.6946 28.5762 27.2536 27.5447 27.169C26.8742 27.114 26.564 27.2097 26.4425 27.2661C26.4492 27.3999 26.5089 27.719 26.8698 28.2867C27.425 29.1602 28.4639 30.1874 29.9004 31.0548C31.3369 31.9221 32.7297 32.3632 33.7612 32.4478C34.4317 32.5028 34.7419 32.4071 34.8634 32.3506C34.8568 32.2169 34.797 31.8977 34.4362 31.33ZM36.6039 33.4015C37.5904 31.7676 35.7259 28.8343 32.4393 26.8499C29.1527 24.8654 25.6886 24.5813 24.702 26.2152C23.7155 27.8492 25.58 30.7825 28.8666 32.7669C32.1532 34.7514 35.6173 35.0355 36.6039 33.4015Z" fill="#333333"/>
<path fill-rule="evenodd" clip-rule="evenodd" d="M32.6379 19.8932C32.663 18.842 32.3668 17.39 31.6462 15.8497C30.9257 14.3094 30.001 13.1514 29.1781 12.4969C28.6225 12.055 28.3002 11.9681 28.1704 11.9511C28.1002 12.0616 27.9604 12.3648 27.9435 13.0744C27.9184 14.1255 28.2146 15.5776 28.9352 17.1179C29.6557 18.6582 30.5804 19.8162 31.4033 20.4707C31.9589 20.9126 32.2812 20.9995 32.411 21.0165C32.4812 20.906 32.621 20.6028 32.6379 19.8932ZM33.2707 22.8543C35.0199 22.0361 35.1036 18.5206 33.4578 15.0023C31.812 11.4839 29.0598 9.29508 27.3107 10.1133C25.5615 10.9315 25.4778 14.447 27.1236 17.9653C28.7694 21.4837 31.5216 23.6725 33.2707 22.8543Z" fill="#333333"/>
<path fill-rule="evenodd" clip-rule="evenodd" d="M20.9685 34.9562C20.9637 33.8725 20.6166 32.3899 19.8331 30.8312C19.0495 29.2725 18.0667 28.1095 17.1998 27.4592C16.5725 26.9886 16.2265 26.9258 16.1029 26.9192C16.0345 27.0224 15.8784 27.3375 15.8819 28.1217C15.8867 29.2053 16.2338 30.688 17.0173 32.2467C17.8009 33.8054 18.7838 34.9684 19.6506 35.6187C20.2779 36.0893 20.6239 36.152 20.7475 36.1586C20.816 36.0555 20.972 35.7404 20.9685 34.9562ZM21.6556 37.9651C23.4201 37.0781 23.4041 33.482 21.62 29.9329C19.8359 26.3839 16.9592 24.2258 15.1948 25.1128C13.4304 25.9997 13.4463 29.5959 15.2304 33.145C17.0145 36.694 19.8912 38.8521 21.6556 37.9651Z" fill="#333333"/>
</svg>
