<svg width="48" height="48" viewBox="0 0 48 48" fill="none" xmlns="http://www.w3.org/2000/svg">
<rect x="3.49756" y="17.1519" width="41.0048" height="14" rx="1" stroke="#333333" stroke-width="2"/>
<circle cx="40" cy="24.1538" r="2" transform="rotate(-90 40 24.1538)" fill="#333333"/>
<circle cx="36" cy="24.2749" r="1" transform="rotate(-90 36 24.2749)" fill="#333333"/>
<rect x="7" y="27.1538" width="6" height="25.5524" rx="3" transform="rotate(-90 7 27.1538)" stroke="#333333" stroke-width="2"/>
<path d="M27.6074 26.1538L27.6074 22.1538" stroke="#333333" stroke-width="2"/>
<path d="M9.88682 14.9063C10.9508 14.9063 11.6538 14.5928 12.2523 14.0703C12.3853 13.9563 12.4993 13.7758 12.4993 13.5478C12.4993 13.1773 12.1858 12.8733 11.8153 12.8733C11.6443 12.8733 11.4923 12.9398 11.3783 13.0348C10.9603 13.3673 10.5518 13.5573 9.93432 13.5573C8.79432 13.5573 8.00582 12.6073 8.00582 11.4673V11.4483C8.00582 10.3083 8.81332 9.37732 9.93432 9.37732C10.4568 9.37732 10.8843 9.54832 11.2928 9.85232C11.3973 9.91882 11.5303 9.99482 11.7298 9.99482C12.1288 9.99482 12.4518 9.68132 12.4518 9.28232C12.4518 9.02582 12.3188 8.81682 12.1668 8.70282C11.6158 8.29432 10.9413 8.02832 9.94382 8.02832C7.90132 8.02832 6.47632 9.57682 6.47632 11.4673V11.4863C6.47632 13.3958 7.92982 14.9063 9.88682 14.9063Z" fill="#333333"/>
<path d="M27.3372 14.1151C27.3372 14.5236 27.6602 14.8466 28.0687 14.8466C28.4772 14.8466 28.8002 14.5236 28.8002 14.1151V12.7946H29.9117C31.4032 12.7946 32.6002 11.9966 32.6002 10.4576V10.4386C32.6002 9.08009 31.6407 8.13959 30.0542 8.13959H28.0687C27.6602 8.13959 27.3372 8.46259 27.3372 8.87109V14.1151ZM28.8002 11.4931V9.46009H29.9307C30.6622 9.46009 31.1182 9.81159 31.1182 10.4671V10.4861C31.1182 11.0561 30.6907 11.4931 29.9592 11.4931H28.8002Z" fill="#333333"/>
<path d="M33.632 14.1246C33.632 14.5236 33.955 14.8466 34.354 14.8466C34.753 14.8466 35.076 14.5236 35.076 14.1246V10.9326H35.684C36.0165 10.9326 36.2825 10.6761 36.2825 10.3436C36.2825 10.0111 36.0165 9.75459 35.684 9.75459H35.057V9.55509C35.057 9.17509 35.247 9.00409 35.5795 9.00409H35.703C36.026 9.00409 36.292 8.72859 36.292 8.40559C36.292 8.08259 36.045 7.86409 35.798 7.82609C35.6365 7.79759 35.437 7.78809 35.209 7.78809C34.696 7.78809 34.3065 7.92109 34.0405 8.18709C33.7745 8.45309 33.632 8.86159 33.632 9.42209V9.74509H33.575C33.2425 9.74509 32.9765 10.0111 32.9765 10.3436C32.9765 10.6761 33.2425 10.9326 33.575 10.9326H33.632V14.1246Z" fill="#333333"/>
<path d="M14.387 39.4316C14.387 39.8401 14.71 40.1631 15.1185 40.1631C15.527 40.1631 15.85 39.8401 15.85 39.4316V38.1111H16.9615C18.453 38.1111 19.65 37.3131 19.65 35.7741V35.7551C19.65 34.3966 18.6905 33.4561 17.104 33.4561H15.1185C14.71 33.4561 14.387 33.7791 14.387 34.1876V39.4316ZM15.85 36.8096V34.7766H16.9805C17.712 34.7766 18.168 35.1281 18.168 35.7836V35.8026C18.168 36.3726 17.7405 36.8096 17.009 36.8096H15.85Z" fill="#333333"/>
<path d="M23.3904 39.5836L24.9484 35.9831C24.9769 35.9166 25.0244 35.7646 25.0244 35.6411C25.0244 35.2516 24.7109 34.9571 24.3309 34.9571C23.9509 34.9571 23.7514 35.2041 23.6564 35.4511L22.5449 38.4246L21.4524 35.4701C21.3479 35.1756 21.1389 34.9571 20.7494 34.9571C20.3599 34.9571 20.0464 35.2896 20.0464 35.6316C20.0464 35.7646 20.0844 35.8881 20.1224 35.9831L21.6804 39.5836C21.8419 39.9636 22.1079 40.2106 22.4974 40.2106H22.5734C22.9629 40.2106 23.2289 39.9541 23.3904 39.5836Z" fill="#333333"/>
</svg>
