<svg width="48" height="48" viewBox="0 0 48 48" fill="none" xmlns="http://www.w3.org/2000/svg">
<path fill-rule="evenodd" clip-rule="evenodd" d="M31 10H29V11H25.5C25.2239 11 25 11.2239 25 11.5C25 11.7761 25.2239 12 25.5 12H34.5C34.7761 12 35 11.7761 35 11.5C35 11.2239 34.7761 11 34.5 11H31V10Z" fill="#333333"/>
<path fill-rule="evenodd" clip-rule="evenodd" d="M28 6C27.4477 6 27 6.44772 27 7V9C27 9.55228 27.4477 10 28 10H32C32.5523 10 33 9.55228 33 9V7C33 6.44772 32.5523 6 32 6H28ZM30 9C30.5523 9 31 8.55228 31 8C31 7.44772 30.5523 7 30 7C29.4477 7 29 7.44772 29 8C29 8.55228 29.4477 9 30 9Z" fill="#333333"/>
<path fill-rule="evenodd" clip-rule="evenodd" d="M36 39V18.8397C36 18.2559 35.7449 17.7012 35.3016 17.3212L33.4823 15.7619C32.9544 15.3094 32.6162 14.6806 32.5249 14H27.475C27.3838 14.6806 27.0456 15.3094 26.5177 15.7619L24.6984 17.3212C24.2551 17.7012 24 18.2559 24 18.8397V39H36ZM23.3968 15.8027C22.5102 16.5626 22 17.672 22 18.8397V40C22 40.5523 22.4477 41 23 41H37C37.5523 41 38 40.5523 38 40V18.8397C38 17.672 37.4897 16.5626 36.6032 15.8027L34.7839 14.2434C34.6037 14.0889 34.5 13.8634 34.5 13.6261C34.5 12.728 33.772 12 32.8739 12H27.1261C26.228 12 25.5 12.728 25.5 13.6261C25.5 13.8634 25.3963 14.0889 25.2161 14.2434L23.3968 15.8027Z" fill="#333333"/>
<path fill-rule="evenodd" clip-rule="evenodd" d="M30 23C32.7614 23 35 25.2386 35 28C35 30.7614 32.7614 33 30 33C27.2386 33 25 30.7614 25 28C25 25.2386 27.2386 23 30 23ZM30 24.5C31.933 24.5 33.5 26.067 33.5 28C33.5 28.6951 33.2974 29.3428 32.948 29.8874L28.1126 25.052C28.6572 24.7026 29.3049 24.5 30 24.5ZM27.052 26.1126C26.7026 26.6572 26.5 27.3049 26.5 28C26.5 29.933 28.067 31.5 30 31.5C30.695 31.5 31.3428 31.2974 31.8874 30.948L27.052 26.1126Z" fill="#333333"/>
<path d="M20 39.5C20 40.3284 19.5 41 16 41C12.5 41 12 40.3284 12 39.5C12 39 13.7909 38 16 38C18.2091 38 20 39 20 39.5Z" fill="#333333"/>
<path fill-rule="evenodd" clip-rule="evenodd" d="M12.6929 34.6784C12.8705 34.785 12.9281 35.0153 12.8216 35.1929L11.6623 37.125H12.691C13.0224 37.125 13.3254 37.3123 13.4736 37.6087L14.3354 39.3323C14.428 39.5175 14.3529 39.7428 14.1677 39.8354C13.9825 39.928 13.7572 39.8529 13.6646 39.6677L12.8028 37.9441C12.7816 37.9018 12.7383 37.875 12.691 37.875H11.4415C10.9557 37.875 10.6557 37.345 10.9056 36.9284L12.1784 34.8071C12.285 34.6295 12.5153 34.5719 12.6929 34.6784Z" fill="#333333"/>
<path fill-rule="evenodd" clip-rule="evenodd" d="M16.6269 34.568C16.7274 34.7491 16.6621 34.9773 16.481 35.0779L14.7041 36.0643C14.6192 36.1115 14.6181 36.2333 14.7023 36.2819L15.4019 36.6858C15.689 36.8515 15.8577 37.1652 15.8379 37.496L15.7224 39.4196C15.71 39.6263 15.5323 39.7839 15.3256 39.7714C15.1189 39.759 14.9613 39.5814 14.9737 39.3746L15.0892 37.4511C15.092 37.4038 15.0679 37.359 15.0269 37.3353L14.3273 36.9314C13.7383 36.5913 13.7454 35.7387 14.3401 35.4086L16.117 34.4221C16.2981 34.3216 16.5264 34.3869 16.6269 34.568Z" fill="#333333"/>
<path fill-rule="evenodd" clip-rule="evenodd" d="M20.3739 36.5294C20.3581 36.7359 20.1778 36.8905 19.9713 36.8746L17.7214 36.702L18.3924 37.3664C18.7466 37.7172 18.7366 38.2927 18.3704 38.6309L16.7544 40.1235C16.6023 40.2641 16.365 40.2547 16.2245 40.1025C16.084 39.9504 16.0934 39.7131 16.2455 39.5726L17.8615 38.08C17.9138 38.0317 17.9153 37.9495 17.8647 37.8994L16.9519 36.9954C16.5385 36.5861 16.8595 35.8837 17.4395 35.9282L20.0287 36.1268C20.2352 36.1427 20.3897 36.3229 20.3739 36.5294Z" fill="#333333"/>
<path d="M12.9655 39.6804C13.0832 40.22 12.5225 40.8005 11.7131 40.977C10.9037 41.1536 10.1521 40.8592 10.0344 40.3196C9.91676 39.78 10.4775 39.1995 11.2869 39.023C12.0963 38.8464 12.8478 39.1408 12.9655 39.6804Z" fill="#333333"/>
<path fill-rule="evenodd" clip-rule="evenodd" d="M7.2229 38.8868C7.16072 38.7643 7.01122 38.7149 6.88819 38.7764C6.7647 38.8381 6.71464 38.9883 6.77639 39.1118L6.99999 39C6.77639 39.1118 6.77632 39.1117 6.77639 39.1118L6.77701 39.113L6.77782 39.1146L6.78005 39.1189L6.78692 39.1317C6.79259 39.142 6.80048 39.1559 6.81071 39.1727C6.83116 39.2064 6.86109 39.2523 6.90156 39.3063C6.98241 39.4141 7.10609 39.555 7.28132 39.6952C7.63495 39.9781 8.18926 40.25 8.99999 40.25H10.9995C11.1376 40.25 11.25 40.1381 11.25 40C11.25 39.8619 11.1381 39.75 11 39.75H8.99999C8.31072 39.75 7.86504 39.5219 7.59367 39.3048C7.4564 39.195 7.36132 39.0859 7.30156 39.0063C7.27171 38.9665 7.25085 38.9342 7.2381 38.9132C7.23174 38.9027 7.22742 38.8951 7.22503 38.8908L7.2229 38.8868Z" fill="#333333"/>
<path fill-rule="evenodd" clip-rule="evenodd" d="M11.0606 39.7575C11.1946 39.791 11.276 39.9267 11.2425 40.0606L11 40C11.2425 40.0606 11.2426 40.0605 11.2425 40.0606L11.2423 40.0617L11.2418 40.0634L11.2403 40.0691L11.2351 40.0888C11.2305 40.1054 11.2238 40.129 11.2148 40.1586C11.1969 40.2177 11.1698 40.3009 11.1325 40.4003C11.0583 40.5982 10.9421 40.8644 10.7745 41.1325C10.4438 41.6617 9.87767 42.25 8.99999 42.25C8.18926 42.25 7.63495 41.9781 7.28132 41.6952C7.10609 41.555 6.98241 41.4141 6.90156 41.3063C6.86109 41.2523 6.83116 41.2064 6.81071 41.1727C6.80048 41.1559 6.79259 41.142 6.78692 41.1317L6.78005 41.1189L6.77782 41.1146L6.77701 41.113L6.77652 41.1121C6.77645 41.1119 6.77639 41.1118 6.99999 41L6.77652 41.1121C6.71478 40.9886 6.7647 40.8381 6.88819 40.7764C7.01122 40.7149 7.16072 40.7643 7.2229 40.8868M7.2229 40.8868L7.22503 40.8908C7.22742 40.8951 7.23174 40.9027 7.2381 40.9132C7.25085 40.9342 7.27171 40.9665 7.30156 41.0063C7.36132 41.0859 7.4564 41.195 7.59367 41.3048C7.86504 41.5219 8.31072 41.75 8.99999 41.75C9.62232 41.75 10.0562 41.3383 10.3505 40.8675C10.4954 40.6356 10.598 40.4018 10.6643 40.2247C10.6974 40.1366 10.7211 40.0636 10.7364 40.0133C10.744 39.9882 10.7495 39.9688 10.753 39.9562L10.7567 39.9424L10.7574 39.9395" fill="#333333"/>
<path fill-rule="evenodd" clip-rule="evenodd" d="M6.99999 10.9429H7.31428V11.7925C7.31428 12.3552 7.53783 12.8949 7.93574 13.2928C7.95859 13.3157 7.97142 13.3466 7.97142 13.379V23.621C7.97142 23.6534 7.95859 23.6843 7.93574 23.7072C7.53783 24.1051 7.31428 24.6448 7.31428 25.2075V26.0571H6.99999V30H17.5143V26.0571H17.2V25.2075C17.2 24.6448 16.9764 24.1051 16.5785 23.7072C16.5557 23.6843 16.5429 23.6534 16.5429 23.621V13.379C16.5429 13.3466 16.5557 13.3157 16.5785 13.2928C16.9764 12.8949 17.2 12.3552 17.2 11.7925V10.9429H17.5143V7H6.99999V10.9429ZM15.2 26.0571V25.2075C15.2 25.1752 15.1872 25.1442 15.1643 25.1214C14.7664 24.7235 14.5429 24.1838 14.5429 23.621V13.379C14.5429 12.8162 14.7664 12.2765 15.1643 11.8786C15.1872 11.8558 15.2 11.8248 15.2 11.7925V10.9429H9.31428V11.7925C9.31428 11.8248 9.32711 11.8558 9.34996 11.8786C9.74787 12.2765 9.97142 12.8162 9.97142 13.379V23.621C9.97142 24.1838 9.74788 24.7235 9.34996 25.1214C9.32711 25.1442 9.31428 25.1752 9.31428 25.2075V26.0571H15.2Z" fill="#333333"/>
</svg>
