<svg width="48" height="48" viewBox="0 0 48 48" fill="none" xmlns="http://www.w3.org/2000/svg">
<path fill-rule="evenodd" clip-rule="evenodd" d="M31 10H29V11H25.5C25.2239 11 25 11.2239 25 11.5C25 11.7761 25.2239 12 25.5 12H34.5C34.7761 12 35 11.7761 35 11.5C35 11.2239 34.7761 11 34.5 11H31V10Z" fill="#333333"/>
<path fill-rule="evenodd" clip-rule="evenodd" d="M28 6C27.4477 6 27 6.44772 27 7V9C27 9.55228 27.4477 10 28 10H32C32.5523 10 33 9.55228 33 9V7C33 6.44772 32.5523 6 32 6H28ZM30 9C30.5523 9 31 8.55228 31 8C31 7.44772 30.5523 7 30 7C29.4477 7 29 7.44772 29 8C29 8.55228 29.4477 9 30 9Z" fill="#333333"/>
<mask id="path-3-inside-1" fill="white">
<path d="M22 18.8397C22 17.672 22.5103 16.5626 23.3968 15.8027L25.2161 14.2434C25.3963 14.0889 25.5 13.8634 25.5 13.6261C25.5 12.728 26.228 12 27.1261 12H32.8739C33.772 12 34.5 12.728 34.5 13.6261C34.5 13.8634 34.6037 14.0889 34.7839 14.2434L36.6032 15.8027C37.4897 16.5626 38 17.672 38 18.8397V40C38 40.5523 37.5523 41 37 41H23C22.4477 41 22 40.5523 22 40V18.8397Z"/>
</mask>
<path d="M34.7839 14.2434L33.4823 15.7619L34.7839 14.2434ZM25.2161 14.2434L23.9145 12.7248L25.2161 14.2434ZM36.6032 15.8027L35.3016 17.3212L36.6032 15.8027ZM36 18.8397V40H40V18.8397H36ZM37 39H23V43H37V39ZM24 40V18.8397H20V40H24ZM27.1261 14H32.8739V10H27.1261V14ZM24.6984 17.3212L26.5177 15.7619L23.9145 12.7248L22.0953 14.2842L24.6984 17.3212ZM33.4823 15.7619L35.3016 17.3212L37.9047 14.2842L36.0855 12.7248L33.4823 15.7619ZM32.5 13.6261C32.5 14.4473 32.8588 15.2274 33.4823 15.7619L36.0855 12.7248C36.3486 12.9503 36.5 13.2796 36.5 13.6261H32.5ZM26.5177 15.7619C27.1412 15.2274 27.5 14.4473 27.5 13.6261H23.5C23.5 13.2796 23.6514 12.9503 23.9145 12.7248L26.5177 15.7619ZM32.8739 14C32.6674 14 32.5 13.8326 32.5 13.6261H36.5C36.5 11.6234 34.8766 10 32.8739 10V14ZM27.1261 10C25.1234 10 23.5 11.6234 23.5 13.6261H27.5C27.5 13.8326 27.3326 14 27.1261 14V10ZM23 39C23.5523 39 24 39.4477 24 40H20C20 41.6569 21.3431 43 23 43V39ZM36 40C36 39.4477 36.4477 39 37 39V43C38.6569 43 40 41.6569 40 40H36ZM40 18.8397C40 17.0882 39.2346 15.4241 37.9047 14.2842L35.3016 17.3212C35.7449 17.7012 36 18.2559 36 18.8397H40ZM24 18.8397C24 18.2559 24.2551 17.7012 24.6984 17.3212L22.0953 14.2842C20.7654 15.4241 20 17.0882 20 18.8397H24Z" fill="#333333" mask="url(#path-3-inside-1)"/>
<path fill-rule="evenodd" clip-rule="evenodd" d="M30 23C32.7614 23 35 25.2386 35 28C35 30.7614 32.7614 33 30 33C27.2386 33 25 30.7614 25 28C25 25.2386 27.2386 23 30 23ZM30 24.5C31.933 24.5 33.5 26.067 33.5 28C33.5 28.6951 33.2974 29.3428 32.948 29.8874L28.1126 25.052C28.6572 24.7026 29.3049 24.5 30 24.5ZM27.052 26.1126C26.7026 26.6572 26.5 27.3049 26.5 28C26.5 29.933 28.067 31.5 30 31.5C30.695 31.5 31.3428 31.2974 31.8874 30.948L27.052 26.1126Z" fill="#333333"/>
<path d="M20 39.5C20 40.3284 19.5 41 16 41C12.5 41 12 40.3284 12 39.5C12 39 13.7909 38 16 38C18.2091 38 20 39 20 39.5Z" fill="#333333"/>
<path d="M14 39.5L13.1382 37.7764C13.0535 37.607 12.8804 37.5 12.691 37.5H11.4415C11.2472 37.5 11.1272 37.288 11.2272 37.1214L12.5 35" stroke="#333333" stroke-width="0.75" stroke-linecap="round" stroke-linejoin="round"/>
<path d="M15.3481 39.3971L15.4635 37.4735C15.4749 37.2845 15.3784 37.1052 15.2144 37.0106L14.5148 36.6066C14.1782 36.4123 14.1823 35.9251 14.5221 35.7364L16.299 34.75" stroke="#333333" stroke-width="0.75" stroke-linecap="round" stroke-linejoin="round"/>
<path d="M16.5 39.8479L18.116 38.3553C18.3253 38.162 18.331 37.8332 18.1286 37.6327L17.2158 36.7288C17.0504 36.5651 17.1788 36.2841 17.4108 36.3019L20 36.5006" stroke="#333333" stroke-width="0.75" stroke-linecap="round" stroke-linejoin="round"/>
<ellipse cx="11.5001" cy="40.0002" rx="1.5" ry="1" transform="rotate(-12.3041 11.5001 40.0002)" fill="#333333"/>
<path d="M11 40C11 40 10.5 40 9 40C7.5 40 7 39 7 39" stroke="#333333" stroke-width="0.5" stroke-linecap="round" stroke-linejoin="round"/>
<path d="M11 40C11 40 10.5 42 9 42C7.5 42 7 41 7 41" stroke="#333333" stroke-width="0.5" stroke-linecap="round" stroke-linejoin="round"/>
<path fill-rule="evenodd" clip-rule="evenodd" d="M7 10.9429H7.31429V11.7925C7.31429 12.3552 7.53783 12.8949 7.93575 13.2928C7.95859 13.3157 7.97143 13.3466 7.97143 13.379V23.621C7.97143 23.6534 7.95859 23.6843 7.93575 23.7072C7.53783 24.1051 7.31429 24.6448 7.31429 25.2075V26.0571H7V30H7.75102H16.7633H17.5143V26.0571H17.2V25.2075C17.2 24.6448 16.9765 24.1051 16.5785 23.7072C16.5557 23.6843 16.5429 23.6534 16.5429 23.621V13.379C16.5429 13.3466 16.5557 13.3157 16.5785 13.2928C16.9765 12.8949 17.2 12.3552 17.2 11.7925V10.9429H17.5143V7H7V10.9429ZM15.2 26.0571V25.2075C15.2 25.1752 15.1872 25.1442 15.1643 25.1214C14.7664 24.7235 14.5429 24.1838 14.5429 23.621V13.379C14.5429 12.8162 14.7664 12.2765 15.1643 11.8786C15.1872 11.8558 15.2 11.8248 15.2 11.7925V10.9429H9.31429V11.7925C9.31429 11.8248 9.32712 11.8558 9.34996 11.8786C9.74788 12.2765 9.97143 12.8162 9.97143 13.379V23.621C9.97143 24.1838 9.74788 24.7235 9.34996 25.1214C9.32712 25.1442 9.31429 25.1752 9.31429 25.2075V26.0571H15.2Z" fill="#333333"/>
</svg>
