<svg width="48" height="48" viewBox="0 0 48 48" fill="none" xmlns="http://www.w3.org/2000/svg">
<path d="M26 24C26 25.1046 25.1046 26 24 26C22.8954 26 22 25.1046 22 24C22 23.2597 22.4022 22.6134 23 22.2676V20C23 19.4477 23.4477 19 24 19C24.5523 19 25 19.4477 25 20V22.2676C25.5978 22.6134 26 23.2597 26 24Z" fill="#333333"/>
<path fill-rule="evenodd" clip-rule="evenodd" d="M25 16.0619V12C25 12 24.9717 12.0209 24.9159 12.0593C24.9714 11.876 25 11.6894 25 11.5C25 9.01472 20.0751 7 14 7C7.92487 7 3 9.01472 3 11.5C3 11.6908 3.02904 11.8789 3.0854 12.0635C3.02856 12.0225 3 12 3 12V34C3 34 6.47368 37 14 37C15.9634 37 17.6511 36.7958 19.0732 36.494C19.1099 36.6806 19.1652 36.916 19.2478 37.1859C19.4478 37.8388 19.8121 38.7078 20.4727 39.5782C21.8273 41.3632 24.3102 43 28.7032 43C31.3311 43 33.3307 42.2238 34.7794 40.7537C36.1986 39.3134 36.9793 37.3163 37.4203 35.0818C37.8624 32.8418 37.9831 30.2549 37.9983 27.536C38.0022 26.8423 37.9989 26.8415 37.9919 26.8398C37.9846 26.8381 37.9734 26.8354 37.962 26.0465C37.9463 24.9583 37.9305 23.8605 37.9249 22.7851C39.6881 21.9503 41 18.7815 41 15C41 10.5817 39.2091 7 37 7C34.7909 7 33 10.5817 33 15C33 18.673 34.2377 21.7679 35.9244 22.7074C35.9295 23.8773 35.9463 25.0096 35.9628 26.1202V26.1215C35.9741 26.8832 35.9852 26.8555 35.9923 26.8375C35.9992 26.8201 36.0023 26.8121 35.9984 27.5248C35.9833 30.2155 35.8622 32.6473 35.4582 34.6945C35.0531 36.7473 34.3833 38.3061 33.3548 39.3499C32.3556 40.3639 30.9103 41 28.7032 41C24.8765 41 23.0079 39.6105 22.0658 38.3692C21.578 37.7264 21.3078 37.0822 21.1602 36.6003C21.0867 36.3602 21.0447 36.1638 21.0216 36.0333L21.0175 36.0098L21.0126 35.9801C23.7143 35.1104 25 34 25 34V31.9381C28.9463 31.446 32 28.0796 32 24C32 19.9204 28.9463 16.554 25 16.0619ZM23.0033 11.4695C23.0036 11.4695 23.0032 11.4729 23.0011 11.4797C23.0019 11.4729 23.003 11.4695 23.0033 11.4695ZM22.9934 11.5C22.9726 11.4519 22.9117 11.3471 22.7451 11.186C22.4319 10.883 21.8739 10.5181 21.0209 10.1691C19.3247 9.47522 16.8435 9 14 9C11.1565 9 8.67526 9.47522 6.97909 10.1691C6.12611 10.5181 5.5681 10.883 5.25487 11.186C5.08832 11.3471 5.02743 11.4519 5.0066 11.5C5.02743 11.5481 5.08832 11.6529 5.25487 11.814C5.5681 12.117 6.12611 12.4819 6.97909 12.8309C8.67526 13.5248 11.1565 14 14 14C16.8435 14 19.3247 13.5248 21.0209 12.8309C21.8739 12.4819 22.4319 12.117 22.7451 11.814C22.9117 11.6529 22.9726 11.5481 22.9934 11.5ZM4.9967 11.4695C4.99702 11.4695 4.99807 11.4729 4.99891 11.4797C4.9968 11.4729 4.99638 11.4695 4.9967 11.4695ZM4.9967 11.5305C4.99638 11.5305 4.9968 11.5271 4.99891 11.5203C4.99807 11.5271 4.99702 11.5305 4.9967 11.5305ZM23.0011 11.5203C23.0032 11.5271 23.0036 11.5305 23.0033 11.5305C23.003 11.5305 23.0019 11.5271 23.0011 11.5203ZM13 16.9818V34.9806C13.3237 34.9933 13.657 35 14 35C17.4896 35 19.9799 34.306 21.5565 33.6525C22.1712 33.3976 22.651 33.1473 23 32.9432V31.9381C19.0537 31.446 16 28.0796 16 24C16 19.9204 19.0537 16.554 23 16.0619V15.2957C22.9492 15.3164 22.8978 15.3371 22.8458 15.3578C20.7672 16.1864 17.7658 17 14 17C13.6599 17 13.3266 16.9938 13 16.9818ZM30 24C30 27.3137 27.3137 30 24 30C20.6863 30 18 27.3137 18 24C18 20.6863 20.6863 18 24 18C27.3137 18 30 20.6863 30 24ZM38.0396 19.7624C38.5973 18.6469 39 16.966 39 15C39 13.034 38.5973 11.3531 38.0396 10.2376C37.761 9.68039 37.4809 9.33804 37.2653 9.15562C37.1621 9.06834 37.0881 9.02968 37.0486 9.01352C37.0291 9.00555 37.0168 9.00248 37.0109 9.00128C37.0052 9.00013 37.0021 9 37 9C36.9979 9 36.9948 9.00013 36.9891 9.00128C36.9832 9.00248 36.9709 9.00555 36.9514 9.01352C36.9119 9.02968 36.8379 9.06834 36.7347 9.15562C36.5191 9.33804 36.239 9.68039 35.9604 10.2376C35.4027 11.3531 35 13.034 35 15C35 16.966 35.4027 18.6469 35.9604 19.7624C36.239 20.3196 36.5191 20.662 36.7347 20.8444C36.8379 20.9317 36.9119 20.9703 36.9514 20.9865C36.9709 20.9945 36.9832 20.9975 36.9891 20.9987C36.9948 20.9999 36.9979 21 37 21C37.0015 21 37.0036 20.9999 37.0067 20.9995C37.0079 20.9993 37.0093 20.999 37.0109 20.9987C37.0168 20.9975 37.0291 20.9945 37.0486 20.9865C37.0881 20.9703 37.1621 20.9317 37.2653 20.8444C37.4809 20.662 37.761 20.3196 38.0396 19.7624Z" fill="#333333"/>
</svg>
