<svg width="48" height="48" viewBox="0 0 48 48" fill="none" xmlns="http://www.w3.org/2000/svg">
<path d="M24 26C25.1046 26 26 25.1046 26 24C26 23.2597 25.5978 22.6134 25 22.2676V20C25 19.4477 24.5523 19 24 19C23.4477 19 23 19.4477 23 20V22.2676C22.4022 22.6134 22 23.2597 22 24C22 25.1046 22.8954 26 24 26Z" fill="#333333"/>
<path fill-rule="evenodd" clip-rule="evenodd" d="M35.6953 19.4322C30.9721 15.1255 27.8863 12.3057 28.0032 8.78783C28.0572 7.24649 28.8399 5.76861 30.1084 4.8982C31.9224 3.65171 34.0618 3.80154 35.6769 4.77406C36.1764 5.07484 36.6257 5.45433 36.9998 5.89554C37.375 5.45294 37.826 5.07194 38.3274 4.77004C39.9418 3.79797 42.0788 3.64601 43.8911 4.8982C45.1596 5.76861 45.9423 7.24649 45.9963 8.78783C46.1218 12.2922 43.0512 15.1038 38.3586 19.4006L38.3043 19.4503L38.2143 19.5319C38.1237 19.6148 38.0266 19.6868 37.9247 19.7477C37.9301 20.8351 37.9461 21.9457 37.962 23.0465V23.0476C37.9842 24.5931 38.0062 26.1197 37.9983 27.536C37.9831 30.2549 37.8624 32.8418 37.4203 35.0818C36.9793 37.3163 36.1985 39.3134 34.7793 40.7537C33.3307 42.2238 31.331 43 28.7031 43C24.3102 43 21.8272 41.3632 20.4726 39.5782C19.8121 38.7078 19.4478 37.8388 19.2478 37.1859C19.1652 36.916 19.1099 36.6806 19.0731 36.494C17.651 36.7958 15.9634 37 14 37C6.47368 37 3 34 3 34V12C3 12 3.02856 12.0225 3.0854 12.0635C3.02904 11.8789 3 11.6908 3 11.5C3 9.01472 7.92487 7 14 7C20.0751 7 25 9.01472 25 11.5C25 11.6894 24.9714 11.876 24.9159 12.0593C24.9717 12.0209 25 12 25 12V16.0619C28.9463 16.554 32 19.9204 32 24C32 28.0796 28.9463 31.446 25 31.9381V34C25 34 23.7143 35.1104 21.0126 35.9801L21.0158 35.9997L21.0216 36.0333C21.0446 36.1638 21.0866 36.3602 21.1602 36.6003C21.3077 37.0822 21.578 37.7264 22.0658 38.3692C23.0079 39.6105 24.8765 41 28.7031 41C30.9103 41 32.3556 40.3639 33.3547 39.3499C34.3833 38.3061 35.053 36.7473 35.4582 34.6945C35.8622 32.6473 35.9833 30.2155 35.9983 27.5248C36.0065 26.0719 35.9849 24.618 35.9628 23.1249V23.1236L35.9628 23.122V23.1207C35.9459 21.9864 35.9288 20.8289 35.924 19.6325C35.8795 19.5983 35.8362 19.5618 35.7942 19.5229L35.6953 19.4322ZM42.407 12.567C41.187 14.0919 39.3867 15.7473 37.0096 17.924C34.6229 15.7477 32.8173 14.0907 31.5955 12.5644C30.3978 11.0681 29.9664 9.94337 30.002 8.85613C30.0352 7.92365 30.5161 7.044 31.24 6.54731L31.2411 6.54656C32.642 5.5839 34.4489 5.97938 35.4742 7.18885L36.9998 8.98839L38.5253 7.18885C39.5548 5.97445 41.3594 5.5799 42.7542 6.54363L42.7595 6.54731C43.4838 7.0443 43.9648 7.92472 43.9975 8.85783L43.9976 8.85939C44.0364 9.94361 43.6075 11.0666 42.407 12.567ZM23.003 11.4725C23.0034 11.4705 23.0035 11.4695 23.0033 11.4695C23.003 11.4695 23.0019 11.4729 23.0011 11.4797L23.0023 11.4757L23.003 11.4725ZM22.7451 11.186C22.9117 11.3471 22.9726 11.4519 22.9934 11.5C22.9726 11.5481 22.9117 11.6529 22.7451 11.814C22.4319 12.117 21.8739 12.4819 21.0209 12.8309C19.3247 13.5248 16.8435 14 14 14C11.1565 14 8.67526 13.5248 6.97909 12.8309C6.12611 12.4819 5.5681 12.117 5.25487 11.814C5.08832 11.6529 5.02743 11.5481 5.0066 11.5C5.02743 11.4519 5.08832 11.3471 5.25487 11.186C5.5681 10.883 6.12611 10.5181 6.97909 10.1691C8.67526 9.47522 11.1565 9 14 9C16.8435 9 19.3247 9.47522 21.0209 10.1691C21.8739 10.5181 22.4319 10.883 22.7451 11.186ZM4.9967 11.4695C4.99702 11.4695 4.99807 11.4729 4.99891 11.4797C4.9968 11.4729 4.99638 11.4695 4.9967 11.4695ZM4.9967 11.5305C4.99638 11.5305 4.9968 11.5271 4.99891 11.5203C4.99807 11.5271 4.99702 11.5305 4.9967 11.5305ZM23.0011 11.5203C23.0032 11.5271 23.0036 11.5305 23.0033 11.5305C23.003 11.5305 23.0019 11.5271 23.0011 11.5203ZM13 34.9806V16.9818C13.3266 16.9938 13.6599 17 14 17C17.7658 17 20.7672 16.1864 22.8458 15.3578C22.8978 15.3371 22.9492 15.3164 23 15.2957V16.0619C19.0537 16.554 16 19.9204 16 24C16 28.0796 19.0537 31.446 23 31.9381V32.9432C22.651 33.1473 22.1712 33.3976 21.5565 33.6525C19.9799 34.306 17.4896 35 14 35C13.657 35 13.3237 34.9933 13 34.9806ZM24 30C27.3137 30 30 27.3137 30 24C30 20.6863 27.3137 18 24 18C20.6863 18 18 20.6863 18 24C18 27.3137 20.6863 30 24 30Z" fill="#333333"/>
</svg>
