<svg width="48" height="48" viewBox="0 0 48 48" fill="none" xmlns="http://www.w3.org/2000/svg">
<path d="M36 30.5C36 31.8807 34.8807 33 33.5 33C32.1193 33 31 31.8807 31 30.5C31 30.2347 31.0413 29.9791 31.1179 29.7392L28.3219 26.9432C27.9292 26.5505 27.9292 25.9138 28.3219 25.5211C28.7146 25.1284 29.3513 25.1284 29.744 25.5211L32.4523 28.2294C32.771 28.0822 33.1259 28 33.5 28C34.8807 28 36 29.1193 36 30.5Z" fill="#333333"/>
<path fill-rule="evenodd" clip-rule="evenodd" d="M22.621 10.0472C20.5234 8.15414 17.6938 7 14.7692 7C8.7345 7 4 11.6778 4 17.6404C4 21.3045 5.6632 24.6688 8.69183 28.3273C11.7264 31.993 16.0777 35.8917 21.3702 40.6334L21.3709 40.6341L24.0013 43L26.6294 40.654L26.6846 40.6046C27.1246 40.2095 27.5581 39.8203 27.9848 39.4366C29.5876 40.4279 31.477 41 33.5 41C39.299 41 44 36.299 44 30.5C44 28.2331 43.2817 26.1341 42.0602 24.418C43.3279 22.1778 44 19.9697 44 17.6404C44 11.6778 39.2655 7 33.2308 7C30.3062 7 27.4766 8.15414 25.379 10.0472C25.028 10.364 24.6975 10.7015 24.3905 11.0577L24 11.5107L23.6095 11.0577C23.3025 10.7015 22.972 10.364 22.621 10.0472ZM40.6535 22.8137C41.5639 21.0343 42 19.35 42 17.6404C42 12.805 38.1837 9 33.2308 9C30.4134 9 27.6769 10.308 25.9054 12.3634L24 14.5739L22.0947 12.3636C20.3232 10.3082 17.5866 9 14.7692 9C9.81631 9 6 12.805 6 17.6404C6 20.6398 7.34243 23.5609 10.2324 27.0519C13.1506 30.577 17.3716 34.3656 22.7047 39.1438L22.7083 39.1471L22.7401 39.1754L22.7422 39.1775L24.0064 40.3146L25.2937 39.1654L25.2949 39.1644L25.2957 39.1637L25.2976 39.162L25.3474 39.1173C25.6912 38.8086 26.0305 38.504 26.365 38.2034C24.2954 36.2856 23 33.5441 23 30.5C23 24.701 27.701 20 33.5 20C36.264 20 38.7785 21.068 40.6535 22.8137ZM42 30.5C42 35.1944 38.1944 39 33.5 39C28.8056 39 25 35.1944 25 30.5C25 25.8056 28.8056 22 33.5 22C38.1944 22 42 25.8056 42 30.5Z" fill="#333333"/>
</svg>
