<svg width="48" height="48" viewBox="0 0 48 48" fill="none" xmlns="http://www.w3.org/2000/svg">
<path fill-rule="evenodd" clip-rule="evenodd" d="M23.1937 29.5716L22.289 30.2849C20.8914 31.3869 20 33.0888 20 35C20 38.3137 22.6863 41 26 41C29.3138 41 32 38.3137 32 35C32 33.0888 31.1087 31.3869 29.7111 30.2849L28.8064 29.5716L28.9696 28.4311C28.9896 28.2914 29 28.1475 29 28V10C29 8.34315 27.6569 7 26 7C24.3432 7 23 8.34315 23 10V28C23 28.1475 23.0105 28.2914 23.0305 28.4311L23.1937 29.5716ZM21 10C21 7.23858 23.2386 5 26 5C28.7615 5 31 7.23858 31 10V28C31 28.2425 30.9828 28.4811 30.9494 28.7144C32.8073 30.1793 34 32.4504 34 35C34 39.4183 30.4183 43 26 43C21.5818 43 18 39.4183 18 35C18 32.4504 19.1928 30.1793 21.0507 28.7144C21.0173 28.4811 21 28.2425 21 28V10Z" fill="#333333"/>
<path d="M24 20.9197C24.6 18.2269 26.2 22.4586 28 20.9197C28 21.7758 28 28.5568 28 32.0034C28 33.108 27.1046 34 26 34C24.8955 34 24 33.1087 24 32.0042C24 28.7033 24 22.33 24 20.9197Z" fill="#333333"/>
<path d="M30 35C30 37.2091 28.2092 39 26 39C23.7909 39 22 37.2091 22 35C22 32.7909 23.7909 31 26 31C28.2092 31 30 32.7909 30 35Z" fill="#333333"/>
<path d="M26 10C26 9.44772 26.4478 9 27 9H29V11H27C26.4478 11 26 10.5523 26 10Z" fill="#333333"/>
<path d="M26 14C26 13.4477 26.4478 13 27 13H29V15H27C26.4478 15 26 14.5523 26 14Z" fill="#333333"/>
<path d="M26 18C26 17.4477 26.4478 17 27 17H29V19H27C26.4478 19 26 18.5523 26 18Z" fill="#333333"/>
<path fill-rule="evenodd" clip-rule="evenodd" d="M9.17824 9.5C9.17824 8.67157 9.84982 8 10.6782 8C11.5067 8 12.1782 8.67157 12.1782 9.5V13.4017L15.5574 11.4508C16.2748 11.0365 17.1922 11.2824 17.6064 11.9998C18.0207 12.7172 17.7748 13.6346 17.0574 14.0488L13.6782 15.9998L17.0574 17.9508C17.7748 18.365 18.0207 19.2824 17.6064 19.9998C17.1922 20.7172 16.2748 20.963 15.5574 20.5488L12.1782 18.5979V22.5C12.1782 23.3284 11.5067 24 10.6782 24C9.84982 24 9.17824 23.3284 9.17824 22.5V18.5979L5.79908 20.5488C5.08164 20.963 4.16425 20.7172 3.75004 19.9998C3.33583 19.2824 3.58164 18.365 4.29908 17.9508L7.67824 15.9998L4.29908 14.0488C3.58164 13.6346 3.33583 12.7172 3.75004 11.9998C4.16425 11.2824 5.08164 11.0365 5.79908 11.4508L9.17824 13.4017V9.5Z" fill="#333333"/>
</svg>
