<svg width="48" height="48" viewBox="0 0 48 48" fill="none" xmlns="http://www.w3.org/2000/svg">
<mask id="path-1-inside-1" fill="white">
<path fill-rule="evenodd" clip-rule="evenodd" d="M26 5C23.2386 5 21 7.23858 21 10V28C21 28.2425 21.0173 28.4811 21.0506 28.7144C19.1927 30.1793 18 32.4504 18 35C18 39.4183 21.5817 43 26 43C30.4183 43 34 39.4183 34 35C34 32.4504 32.8073 30.1793 30.9494 28.7144C30.9827 28.4811 31 28.2425 31 28V10C31 7.23858 28.7614 5 26 5Z"/>
</mask>
<path d="M21.0506 28.7144L22.289 30.2849L23.1936 29.5716L23.0305 28.4311L21.0506 28.7144ZM30.9494 28.7144L28.9695 28.4311L28.8064 29.5716L29.711 30.2849L30.9494 28.7144ZM23 10C23 8.34315 24.3431 7 26 7V3C22.134 3 19 6.13401 19 10H23ZM23 28V10H19V28H23ZM23.0305 28.4311C23.0105 28.2914 23 28.1475 23 28H19C19 28.3376 19.024 28.6708 19.0708 28.9976L23.0305 28.4311ZM20 35C20 33.0888 20.8913 31.3869 22.289 30.2849L19.8123 27.1438C17.4941 28.9717 16 31.812 16 35H20ZM26 41C22.6863 41 20 38.3137 20 35H16C16 40.5228 20.4772 45 26 45V41ZM32 35C32 38.3137 29.3137 41 26 41V45C31.5228 45 36 40.5228 36 35H32ZM29.711 30.2849C31.1087 31.3869 32 33.0888 32 35H36C36 31.812 34.5059 28.9717 32.1877 27.1438L29.711 30.2849ZM29 28C29 28.1475 28.9895 28.2914 28.9695 28.4311L32.9292 28.9976C32.976 28.6708 33 28.3376 33 28H29ZM29 10V28H33V10H29ZM26 7C27.6569 7 29 8.34315 29 10H33C33 6.13401 29.866 3 26 3V7Z" fill="#333333" mask="url(#path-1-inside-1)"/>
<path d="M24 20.9197C24.6 18.2269 26.2 22.4586 28 20.9197C28 21.7758 28 28.5568 28 32.0034C28 33.108 27.1046 34 26 34C24.8954 34 24 33.1087 24 32.0042C24 28.7033 24 22.33 24 20.9197Z" fill="#333333"/>
<circle cx="26" cy="35" r="4" fill="#333333"/>
<path d="M26 10C26 9.44772 26.4477 9 27 9H29V11H27C26.4477 11 26 10.5523 26 10Z" fill="#333333"/>
<path d="M26 14C26 13.4477 26.4477 13 27 13H29V15H27C26.4477 15 26 14.5523 26 14Z" fill="#333333"/>
<path d="M26 18C26 17.4477 26.4477 17 27 17H29V19H27C26.4477 19 26 18.5523 26 18Z" fill="#333333"/>
<path fill-rule="evenodd" clip-rule="evenodd" d="M9.17824 9.5C9.17824 8.67157 9.84982 8 10.6782 8C11.5067 8 12.1782 8.67157 12.1782 9.5V13.4017L15.5574 11.4508C16.2748 11.0365 17.1922 11.2824 17.6064 11.9998C18.0207 12.7172 17.7748 13.6346 17.0574 14.0488L13.6782 15.9998L17.0574 17.9508C17.7748 18.365 18.0207 19.2824 17.6064 19.9998C17.1922 20.7172 16.2748 20.963 15.5574 20.5488L12.1782 18.5979V22.5C12.1782 23.3284 11.5067 24 10.6782 24C9.84982 24 9.17824 23.3284 9.17824 22.5V18.5979L5.79908 20.5488C5.08164 20.963 4.16425 20.7172 3.75004 19.9998C3.33583 19.2824 3.58164 18.365 4.29908 17.9508L7.67824 15.9998L4.29908 14.0488C3.58164 13.6346 3.33583 12.7172 3.75004 11.9998C4.16425 11.2824 5.08164 11.0365 5.79908 11.4508L9.17824 13.4017V9.5Z" fill="#333333"/>
</svg>
