<svg width="48" height="48" viewBox="0 0 48 48" fill="none" xmlns="http://www.w3.org/2000/svg">
<path fill-rule="evenodd" clip-rule="evenodd" d="M38.533 26.6058C40.3959 27.7726 41 28.9818 41 30C41 30.5694 40.3425 31.084 36.911 32.6282C33.7611 34.0456 29.1991 35 24 35C18.8009 35 14.2389 34.0456 11.089 32.6282C7.65746 31.084 7 30.5694 7 30C7 29.1301 7.44102 28.1207 8.7313 27.1174L7.91216 24.0456C5.49715 25.5543 4 27.5391 4 30C4 34.9706 12.9543 38 24 38C35.0457 38 44 34.9706 44 30C44 27.3227 42.228 25.209 39.43 23.6587L38.533 26.6058Z" fill="#333333"/>
<path fill-rule="evenodd" clip-rule="evenodd" d="M10.1012 25.5712C10.0738 27.4003 10.5263 28.639 11.1214 29.1987C11.564 29.6149 11.5854 30.311 11.1692 30.7536C10.753 31.1962 10.0568 31.2175 9.61429 30.8013C8.3486 29.6111 7.87059 27.5998 7.90141 25.5383C7.93306 23.4208 8.49902 20.9976 9.61092 18.7071C11.8424 14.1104 16.3636 9.90002 23.394 9.90002C30.3352 9.90002 35.2095 13.5151 37.8282 17.8707C39.1319 20.0393 39.887 22.4058 40.061 24.625C40.2341 26.8323 39.8362 28.9772 38.7269 30.6165C38.3864 31.1196 37.7025 31.2515 37.1994 30.911C36.6963 30.5706 36.5644 29.8867 36.9049 29.3836C37.6564 28.2729 38.0145 26.6677 37.8678 24.797C37.722 22.938 37.0814 20.8983 35.9427 19.0043C33.6765 15.235 29.4791 12.1 23.394 12.1C17.3983 12.1 13.5456 15.6396 11.59 19.6679C10.6084 21.6899 10.1277 23.798 10.1012 25.5712Z" fill="#333333"/>
<path fill-rule="evenodd" clip-rule="evenodd" d="M17.6672 20.2314C16.8619 21.167 16.4013 22.2117 16.3563 22.9719C16.3073 23.7989 15.5972 24.4296 14.7702 24.3807C13.9433 24.3317 13.3126 23.6216 13.3615 22.7946C13.4576 21.1714 14.3175 19.5244 15.3934 18.2744C16.4645 17.0299 17.9825 15.9103 19.66 15.6577C20.4792 15.5344 21.2433 16.0985 21.3667 16.9177C21.49 17.7369 20.9259 18.5009 20.1067 18.6243C19.4008 18.7306 18.4771 19.2904 17.6672 20.2314Z" fill="#333333"/>
</svg>
