<svg width="48" height="48" viewBox="0 0 48 48" fill="none" xmlns="http://www.w3.org/2000/svg">
<path fill-rule="evenodd" clip-rule="evenodd" d="M18.4453 10.1681C18.9048 9.8617 19.5257 9.98588 19.8321 10.4454L21.133 12.3969C21.8476 13.4687 21.3773 14.9266 20.1712 15.3789L15.9466 16.9631C14.7757 17.4022 14 18.5216 14 19.7721V38.0001C14 39.657 15.3431 41.0001 17 41.0001H31C32.6569 41.0001 34 39.657 34 38.0001V19.7721C34 18.5216 33.2243 17.4022 32.0534 16.9631L27.8288 15.3789C26.6227 14.9266 26.1524 13.4687 26.867 12.3969L28.1679 10.4454C28.4743 9.98588 29.0952 9.8617 29.5547 10.1681C30.0142 10.4744 30.1384 11.0953 29.8321 11.5548L28.5311 13.5063L32.7556 15.0905C34.7071 15.8223 36 17.6879 36 19.7721V38.0001C36 40.7615 33.7614 43.0001 31 43.0001H17C14.2386 43.0001 12 40.7615 12 38.0001V19.7721C12 17.6879 13.2929 15.8223 15.2444 15.0905L19.4689 13.5063L18.1679 11.5548C17.8616 11.0953 17.9858 10.4744 18.4453 10.1681Z" fill="#333333"/>
<circle cx="24" cy="28" r="8" stroke="#333333" stroke-width="2"/>
<path d="M19 23L29 33" stroke="#333333" stroke-width="2"/>
<path fill-rule="evenodd" clip-rule="evenodd" d="M26.1198 27.9985C26.1688 27.814 26.1824 27.612 26.1515 27.3972L26.1234 27.2025C26.7267 27.2637 27.4151 27.0146 27.9479 26.4817C28.7866 25.6431 28.9225 24.4194 28.2516 23.7485C27.5807 23.0776 26.357 23.2135 25.5184 24.0521C24.775 24.7955 24.5838 25.8415 25.0172 26.5368L25.0777 26.9564L26.1198 27.9985ZM22.0869 28.2083C21.8792 28.5233 21.79 28.926 21.901 29.3693L22.0116 29.8113C22.0858 30.1076 21.7427 30.3297 21.5027 30.1409C20.536 29.3802 19.146 30.2382 19.3926 31.4432L19.4898 31.9181L20.4695 31.7177L20.3723 31.2428C20.3124 30.9504 20.6497 30.7422 20.8843 30.9267C21.8735 31.7051 23.2873 30.7895 22.9817 29.5684L22.871 29.1264C22.8581 29.0749 22.8536 29.0251 22.8563 28.9776L22.0869 28.2083Z" fill="#333333"/>
<path d="M17 7.33446C17 6.9239 17.2509 6.55506 17.6328 6.40431L20.6594 5.20955C21.0101 5.07109 21.3839 5 21.7609 5H26.2391C26.6161 5 26.9899 5.07109 27.3406 5.20955L30.3672 6.40431C30.7491 6.55506 31 6.9239 31 7.33446V11H17V7.33446Z" stroke="#333333" stroke-width="2"/>
<path d="M21 8V11" stroke="#333333" stroke-width="2"/>
<path d="M24 8V11" stroke="#333333" stroke-width="2"/>
<path d="M27 8V11" stroke="#333333" stroke-width="2"/>
</svg>
