<svg width="48" height="48" viewBox="0 0 48 48" fill="none" xmlns="http://www.w3.org/2000/svg">
<path fill-rule="evenodd" clip-rule="evenodd" d="M38.533 26.6062C40.3959 27.7731 41 28.9822 41 30.0004C41 30.5699 40.3425 31.0845 36.911 32.6286C33.7611 34.0461 29.1991 35.0004 24 35.0004C18.8009 35.0004 14.2389 34.0461 11.089 32.6286C7.65746 31.0845 7 30.5699 7 30.0004C7 29.1305 7.44102 28.1211 8.7313 27.1179L7.91216 24.0461C5.49715 25.5548 4 27.5395 4 30.0004C4 34.971 12.9543 38.0004 24 38.0004C35.0457 38.0004 44 34.971 44 30.0004C44 27.3232 42.228 25.2094 39.43 23.6592L38.533 26.6062Z" fill="#333333"/>
<path d="M10.3679 30C6.64611 26.5 10.3679 11 23.394 11C36.4202 11 41.5376 24.5 37.8159 30" stroke="#333333" stroke-width="2.2" stroke-linecap="round"/>
<path fill-rule="evenodd" clip-rule="evenodd" d="M17.6672 20.2314C16.8619 21.167 16.4013 22.2116 16.3563 22.9719C16.3073 23.7989 15.5972 24.4296 14.7702 24.3806C13.9433 24.3317 13.3126 23.6216 13.3615 22.7946C13.4576 21.1714 14.3175 19.5243 15.3934 18.2744C16.4645 17.0299 17.9825 15.9103 19.66 15.6577C20.4792 15.5344 21.2433 16.0985 21.3667 16.9176C21.49 17.7368 20.9259 18.5009 20.1067 18.6243C19.4008 18.7306 18.4771 19.2904 17.6672 20.2314Z" fill="#333333"/>
</svg>
