<svg width="48" height="48" viewBox="0 0 48 48" fill="none" xmlns="http://www.w3.org/2000/svg">
<path d="M26.1515 27.3972C26.1824 27.612 26.1688 27.814 26.1198 27.9985L25.0777 26.9564L25.0172 26.5368C24.5838 25.8415 24.775 24.7955 25.5184 24.0521C26.357 23.2135 27.5807 23.0776 28.2516 23.7485C28.9225 24.4193 28.7866 25.6431 27.9479 26.4817C27.4151 27.0146 26.7267 27.2637 26.1234 27.2025L26.1515 27.3972Z" fill="#333333"/>
<path d="M21.901 29.3693C21.79 28.926 21.8792 28.5233 22.0869 28.2083L22.8563 28.9776C22.8536 29.0251 22.8581 29.0749 22.871 29.1264L22.9817 29.5684C23.2873 30.7895 21.8735 31.7051 20.8843 30.9267C20.6497 30.7422 20.3124 30.9504 20.3723 31.2428L20.4695 31.7177L19.4898 31.9181L19.3926 31.4432C19.146 30.2382 20.536 29.3802 21.5027 30.1409C21.7427 30.3297 22.0858 30.1076 22.0116 29.8113L21.901 29.3693Z" fill="#333333"/>
<path fill-rule="evenodd" clip-rule="evenodd" d="M33 28C33 32.9706 28.9706 37 24 37C19.0294 37 15 32.9706 15 28C15 23.0294 19.0294 19 24 19C28.9706 19 33 23.0294 33 28ZM31 28C31 29.5724 30.4816 31.0236 29.6063 32.1922L19.8078 22.3937C20.9764 21.5184 22.4276 21 24 21C27.866 21 31 24.134 31 28ZM24 35C25.5723 35 27.0235 34.4816 28.1921 33.6064L18.3936 23.8079C17.5184 24.9765 17 26.4277 17 28C17 31.866 20.134 35 24 35Z" fill="#333333"/>
<path fill-rule="evenodd" clip-rule="evenodd" d="M16 12H18.4648L19.4689 13.5061L15.2444 15.0903C13.2929 15.8222 12 17.6878 12 19.772V38C12 40.7614 14.2386 43 17 43H31C33.7614 43 36 40.7614 36 38V19.772C36 17.6878 34.7071 15.8222 32.7556 15.0903L28.5311 13.5061L29.5352 12H32V7.33446C32 6.51335 31.4981 5.77566 30.7344 5.47416L27.7078 4.2794C27.2401 4.09479 26.7418 4 26.2391 4H21.7609C21.2582 4 20.7599 4.09479 20.2922 4.2794L17.2656 5.47416C16.5019 5.77566 16 6.51335 16 7.33446V12ZM30 10V7.33446L26.9734 6.1397C26.7396 6.04739 26.4905 6 26.2391 6H21.7609C21.5095 6 21.2604 6.04739 21.0266 6.1397L18 7.33446V10H18.9834C18.9939 9.99984 19.0043 9.99984 19.0147 10H20V8H22V10H23V8H25V10H26V8H28V10H28.9853C28.9957 9.99984 29.0061 9.99984 29.0166 10H30ZM21.133 12.3967L20.8685 12H27.1315L26.867 12.3967C26.1524 13.4686 26.6227 14.9265 27.8288 15.3788L32.0534 16.963C33.2243 17.4021 34 18.5215 34 19.772V38C34 39.6568 32.6569 41 31 41H17C15.3431 41 14 39.6568 14 38V19.772C14 18.5215 14.7757 17.4021 15.9466 16.963L20.1712 15.3788C21.3773 14.9265 21.8476 13.4686 21.133 12.3967Z" fill="#333333"/>
</svg>
