<svg width="48" height="48" viewBox="0 0 48 48" fill="none" xmlns="http://www.w3.org/2000/svg">
<path fill-rule="evenodd" clip-rule="evenodd" d="M24 40C25.1046 40 26 39.1046 26 38C26 36.8954 25.1046 36 24 36C22.8954 36 22 36.8954 22 38C22 39.1046 22.8954 40 24 40ZM24 43C26.7614 43 29 40.7614 29 38C29 35.2386 26.7614 33 24 33C21.2386 33 19 35.2386 19 38C19 40.7614 21.2386 43 24 43Z" fill="#333333"/>
<path fill-rule="evenodd" clip-rule="evenodd" d="M28 7H20L18 11H22V18.9918L26 16.5113V11H30L28 7ZM32.2361 11L30.2361 7H32L34 11H32.2361ZM40 7H34.2361L36.2361 11H40C41.1046 11 42 10.1046 42 9C42 7.89543 41.1046 7 40 7ZM16 7H17.7639L15.7639 11H14L16 7ZM22 23.9918V21.3451L26 18.8646V21.5113L22 23.9918ZM22 31.3451V33C22 34.1046 22.8954 35 24 35C25.1046 35 26 34.1046 26 33V28.8646L22 31.3451ZM26 26.5113V23.8646L22 26.3451V28.9918L26 26.5113ZM13.7639 7H8C6.89543 7 6 7.89543 6 9C6 10.1046 6.89543 11 8 11H11.7639L13.7639 7Z" fill="#333333"/>
</svg>
