<svg width="48" height="48" viewBox="0 0 48 48" fill="none" xmlns="http://www.w3.org/2000/svg">
<path fill-rule="evenodd" clip-rule="evenodd" d="M15.5785 19.157C14.5017 19.6964 13.2863 20 12 20C7.58172 20 4 16.4183 4 12C4 7.58172 7.58172 4 12 4C16.4183 4 20 7.58172 20 12C20 13.2863 19.6964 14.5017 19.157 15.5785L24 18L28.843 15.5785C28.3036 14.5017 28 13.2863 28 12C28 7.58172 31.5817 4 36 4C40.4183 4 44 7.58172 44 12C44 16.4183 40.4183 20 36 20C34.7137 20 33.4983 19.6964 32.4215 19.157L30 24L32.4986 28.8049C33.5561 28.2893 34.7443 28 36 28C40.4183 28 44 31.5817 44 36C44 40.4183 40.4183 44 36 44C31.5817 44 28 40.4183 28 36C28 34.7443 28.2893 33.5561 28.8049 32.4986L24 30L19.1951 32.4986C19.7107 33.5561 20 34.7443 20 36C20 40.4183 16.4183 44 12 44C7.58172 44 4 40.4183 4 36C4 31.5817 7.58172 28 12 28C13.2557 28 14.4439 28.2893 15.5014 28.8049L18 24L15.5785 19.157ZM14.6839 17.3677C13.8763 17.7723 12.9647 18 12 18C8.68629 18 6 15.3137 6 12C6 8.68629 8.68629 6 12 6C15.3137 6 18 8.68629 18 12C18 12.9647 17.7723 13.8763 17.3677 14.6839L13.7892 12.8946C13.9241 12.6254 14 12.3216 14 12C14 10.8954 13.1046 10 12 10C10.8954 10 10 10.8954 10 12C10 13.1046 10.8954 14 12 14C12.3216 14 12.6254 13.9241 12.8946 13.7892L14.6839 17.3677ZM14.5781 30.5806C13.797 30.2083 12.9228 30 12 30C8.68629 30 6 32.6863 6 36C6 39.3137 8.68629 42 12 42C15.3137 42 18 39.3137 18 36C18 35.0771 17.7916 34.2029 17.4194 33.4219L13.8631 35.2712C13.9515 35.497 14 35.7428 14 36C14 37.1046 13.1046 38 12 38C10.8954 38 10 37.1046 10 36C10 34.8954 10.8954 34 12 34C12.2571 34 12.503 34.0485 12.7288 34.1369L14.5781 30.5806ZM30.5806 33.4219C30.2083 34.203 30 35.0771 30 36C30 39.3137 32.6863 42 36 42C39.3137 42 42 39.3137 42 36C42 32.6863 39.3137 30 36 30C35.0771 30 34.2029 30.2083 33.4219 30.5806L35.2712 34.1369C35.497 34.0485 35.7428 34 36 34C37.1046 34 38 34.8954 38 36C38 37.1046 37.1046 38 36 38C34.8954 38 34 37.1046 34 36C34 35.7428 34.0485 35.497 34.1369 35.2712L30.5806 33.4219ZM33.3161 17.3677C34.1237 17.7723 35.0353 18 36 18C39.3137 18 42 15.3137 42 12C42 8.68629 39.3137 6 36 6C32.6863 6 30 8.68629 30 12C30 12.9647 30.2277 13.8763 30.6323 14.6839L34.2107 12.8946C34.0759 12.6254 34 12.3216 34 12C34 10.8954 34.8954 10 36 10C37.1046 10 38 10.8954 38 12C38 13.1046 37.1046 14 36 14C35.6784 14 35.3746 13.9241 35.1054 13.7892L33.3161 17.3677ZM21.3675 24.0267L18.7082 18.7082L24 21.3541L29.2918 18.7082L26.6325 24.0267L29.4555 29.4555L24 26.6186L18.5445 29.4555L21.3675 24.0267Z" fill="#333333"/>
</svg>
