<svg width="48" height="48" viewBox="0 0 48 48" fill="none" xmlns="http://www.w3.org/2000/svg">
<path d="M35.175 27.7158V30.0719L31.7342 30.0722C31.1008 30.0722 30.5874 30.5857 30.5874 31.2191C30.5875 31.8525 31.101 32.366 31.7344 32.3659L35.175 32.3656V35.8066C35.175 36.44 35.6885 36.9535 36.3219 36.9535C36.9553 36.9535 37.4687 36.44 37.4687 35.8066V32.3655L40.9094 32.3652C41.5428 32.3651 42.0562 31.8516 42.0562 31.2182C42.0561 30.5848 41.5426 30.0714 40.9092 30.0714L37.4687 30.0717V27.7158L35.175 27.7158Z" fill="#333333"/>
<circle cx="36.5" cy="19.5" r="7.5" stroke="#333333" stroke-width="2"/>
<rect x="5" y="39" width="22" height="4" rx="2" stroke="#333333" stroke-width="2"/>
<path d="M23.1818 39H8.81818V32.342C8.81818 31.8643 8.60431 31.3644 8.43932 31.0129C8.29086 30.6966 8.102 30.3441 7.92133 30.0069C7.87748 29.9251 7.83412 29.8441 7.79193 29.7648C7.56545 29.3391 7.35994 28.9376 7.21071 28.5698C7.05536 28.1869 7 27.932 7 27.7852C7 27.6384 7.05536 27.3835 7.21071 27.0006C7.35994 26.6329 7.56545 26.2313 7.79193 25.8056C7.83411 25.7263 7.87747 25.6454 7.92131 25.5636C8.10199 25.2263 8.29086 24.8738 8.43932 24.5576C8.60431 24.2061 8.81818 23.7061 8.81818 23.2284V22.7727C8.81818 22.2736 8.58931 21.794 8.41693 21.47C8.26395 21.1824 8.06887 20.8673 7.88791 20.5749C7.84465 20.505 7.80221 20.4364 7.76133 20.3699C7.53556 20.0021 7.33766 19.6642 7.19543 19.3493C7.04938 19.0259 7 18.8071 7 18.6716C7 18.5248 7.05536 18.2698 7.21071 17.887C7.35994 17.5192 7.56545 17.1177 7.79193 16.6919C7.83411 16.6126 7.87747 16.5317 7.92132 16.4499C8.10199 16.1127 8.29086 15.7602 8.43932 15.4439C8.60431 15.0924 8.81818 14.5924 8.81818 14.1147V12.7477C8.81818 10.4561 9.71371 8.80064 11.019 7.70198C12.3465 6.58455 14.1534 6 16 6C17.8466 6 19.6535 6.58455 20.981 7.70198C22.2863 8.80064 23.1818 10.4561 23.1818 12.7477V14.1147C23.1818 14.5924 23.3957 15.0924 23.5607 15.4439C23.7091 15.7602 23.898 16.1127 24.0787 16.4499C24.1225 16.5317 24.1659 16.6127 24.2081 16.6919C24.4346 17.1177 24.6401 17.5192 24.7893 17.887C24.9446 18.2698 25 18.5248 25 18.6716C25 18.8071 24.9506 19.0259 24.8046 19.3493C24.6623 19.6642 24.4644 20.0021 24.2387 20.3699C24.1978 20.4365 24.1553 20.505 24.1121 20.5749C23.9311 20.8673 23.736 21.1824 23.5831 21.47C23.4107 21.794 23.1818 22.2736 23.1818 22.7727V23.2284C23.1818 23.7061 23.3957 24.2061 23.5607 24.5576C23.7091 24.8738 23.898 25.2264 24.0787 25.5636C24.1225 25.6454 24.1659 25.7263 24.2081 25.8056C24.4346 26.2313 24.6401 26.6329 24.7893 27.0006C24.9446 27.3835 25 27.6384 25 27.7852C25 27.932 24.9446 28.1869 24.7893 28.5698C24.6401 28.9376 24.4346 29.3391 24.2081 29.7648C24.1659 29.8441 24.1225 29.925 24.0787 30.0069C23.898 30.3441 23.7091 30.6966 23.5607 31.0129C23.3957 31.3644 23.1818 31.8643 23.1818 32.342V39Z" stroke="#333333" stroke-width="2"/>
<path d="M12 13C12 10.7909 13.7909 9 16 9" stroke="#333333" stroke-width="2" stroke-linecap="round"/>
</svg>
