<svg width="48" height="48" viewBox="0 0 48 48" fill="none" xmlns="http://www.w3.org/2000/svg">
<mask id="path-1-inside-1" fill="white">
<path fill-rule="evenodd" clip-rule="evenodd" d="M26 5C23.2386 5 21 7.23858 21 10V28C21 28.2425 21.0173 28.4811 21.0506 28.7144C19.1927 30.1793 18 32.4504 18 35C18 39.4183 21.5817 43 26 43C30.4183 43 34 39.4183 34 35C34 32.4504 32.8073 30.1793 30.9494 28.7144C30.9827 28.4811 31 28.2425 31 28V10C31 7.23858 28.7614 5 26 5Z"/>
</mask>
<path d="M21.0506 28.7144L22.289 30.2849L23.1936 29.5716L23.0305 28.4311L21.0506 28.7144ZM30.9494 28.7144L28.9695 28.4311L28.8064 29.5716L29.711 30.2849L30.9494 28.7144ZM23 10C23 8.34315 24.3431 7 26 7V3C22.134 3 19 6.13401 19 10H23ZM23 28V10H19V28H23ZM23.0305 28.4311C23.0105 28.2914 23 28.1475 23 28H19C19 28.3376 19.024 28.6708 19.0708 28.9976L23.0305 28.4311ZM20 35C20 33.0888 20.8913 31.3869 22.289 30.2849L19.8123 27.1438C17.4941 28.9717 16 31.812 16 35H20ZM26 41C22.6863 41 20 38.3137 20 35H16C16 40.5228 20.4772 45 26 45V41ZM32 35C32 38.3137 29.3137 41 26 41V45C31.5228 45 36 40.5228 36 35H32ZM29.711 30.2849C31.1087 31.3869 32 33.0888 32 35H36C36 31.812 34.5059 28.9717 32.1877 27.1438L29.711 30.2849ZM29 28C29 28.1475 28.9895 28.2914 28.9695 28.4311L32.9292 28.9976C32.976 28.6708 33 28.3376 33 28H29ZM29 10V28H33V10H29ZM26 7C27.6569 7 29 8.34315 29 10H33C33 6.13401 29.866 3 26 3V7Z" fill="#333333" mask="url(#path-1-inside-1)"/>
<path d="M24 20.9198C24.6 18.2269 26.2 22.4586 28 20.9198C28 21.7758 28 28.5568 28 32.0034C28 33.108 27.1046 34 26 34C24.8954 34 24 33.1088 24 32.0042C24 28.7033 24 22.33 24 20.9198Z" fill="#333333"/>
<circle cx="26" cy="35" r="4" fill="#333333"/>
<path d="M26 10C26 9.44772 26.4477 9 27 9H29V11H27C26.4477 11 26 10.5523 26 10Z" fill="#333333"/>
<path d="M26 14C26 13.4477 26.4477 13 27 13H29V15H27C26.4477 15 26 14.5523 26 14Z" fill="#333333"/>
<path d="M26 18C26 17.4477 26.4477 17 27 17H29V19H27C26.4477 19 26 18.5523 26 18Z" fill="#333333"/>
<path d="M12.4683 9.20985L8.23019 13.3541C7.74409 13.8294 8.07828 14.6315 8.76185 14.6315L11.481 14.6315L11.481 26.5146C11.481 27.3316 12.1645 28 13 28C13.8355 28 14.519 27.3316 14.519 26.5146L14.519 14.6315L17.2381 14.6315C17.9217 14.6315 18.2559 13.8294 17.7698 13.3689L13.5317 9.2247C13.243 8.92762 12.757 8.92762 12.4683 9.20985Z" fill="#333333"/>
</svg>
