<svg width="48" height="48" viewBox="0 0 48 48" fill="none" xmlns="http://www.w3.org/2000/svg">
<path fill-rule="evenodd" clip-rule="evenodd" d="M24.0305 29.4311C24.1315 30.1371 23.849 30.8433 23.289 31.2849C21.8913 32.3869 21 34.0888 21 36C21 39.3137 23.6863 42 27 42C30.3137 42 33 39.3137 33 36C33 34.0888 32.1087 32.3869 30.711 31.2849C30.151 30.8433 29.8685 30.1371 29.9695 29.4311C29.9895 29.2914 30 29.1475 30 29L30 9C30 7.34315 28.6569 6 27 6C25.3431 6 24 7.34315 24 9L24 29C24 29.1475 24.0105 29.2914 24.0305 29.4311ZM22 9C22 6.23858 24.2386 4 27 4C29.7614 4 32 6.23858 32 9L32 29C32 29.2425 31.9827 29.4811 31.9494 29.7144C33.8073 31.1793 35 33.4504 35 36C35 40.4183 31.4183 44 27 44C22.5817 44 19 40.4183 19 36C19 33.4504 20.1927 31.1793 22.0506 29.7144C22.0173 29.4811 22 29.2425 22 29L22 9Z" fill="#333333"/>
<path d="M27 11C27 10.4477 27.4477 10 28 10L30 10L30 12L28 12C27.4477 12 27 11.5523 27 11Z" fill="#333333"/>
<path d="M27 15C27 14.4477 27.4477 14 28 14L30 14L30 16L28 16C27.4477 16 27 15.5523 27 15Z" fill="#333333"/>
<path d="M27 19C27 18.4477 27.4477 18 28 18L30 18L30 20L28 20C27.4477 20 27 19.5523 27 19Z" fill="#333333"/>
<path fill-rule="evenodd" clip-rule="evenodd" d="M22.3075 30.2931L32.3075 40.293L33.7217 38.8788L23.7217 28.8789L22.3075 30.2931Z" fill="#333333"/>
<path fill-rule="evenodd" clip-rule="evenodd" d="M22.3075 26.2931L33.3075 37.293L34.7217 35.8788L23.7217 24.8789L22.3075 26.2931Z" fill="#333333"/>
<path fill-rule="evenodd" clip-rule="evenodd" d="M23.7218 23.7073L30.2218 30.2073L31.636 28.7931L25.136 22.2931L23.7218 23.7073Z" fill="#333333"/>
<path fill-rule="evenodd" clip-rule="evenodd" d="M27.7221 23.7073L30.222 26.2072L31.6362 24.793L29.1364 22.2931L27.7221 23.7073Z" fill="#333333"/>
<path fill-rule="evenodd" clip-rule="evenodd" d="M22.9999 22.0002L31.0001 22.0002L31.0001 24.0002L22.9999 24.0002L22.9999 22.0002Z" fill="#333333"/>
<path fill-rule="evenodd" clip-rule="evenodd" d="M21.0147 33.0003L31.0147 43.0003L32.4289 41.5861L22.4289 31.5861L21.0147 33.0003Z" fill="#333333"/>
<path fill-rule="evenodd" clip-rule="evenodd" d="M19.7217 35.7073L27.7218 43.7073L29.136 42.2931L21.136 34.2931L19.7217 35.7073Z" fill="#333333"/>
<path fill-rule="evenodd" clip-rule="evenodd" d="M13 30L13 18L15 18L15 30L13 30Z" fill="#333333"/>
<path fill-rule="evenodd" clip-rule="evenodd" d="M14 13L11.4019 17.5H16.5981L14 13ZM14.866 10.5C14.4811 9.83333 13.5189 9.83333 13.134 10.5L8.80386 18C8.41896 18.6667 8.90009 19.5 9.66989 19.5H18.3301C19.0999 19.5 19.5811 18.6667 19.1962 18L14.866 10.5Z" fill="#333333"/>
</svg>
