<svg width="48" height="48" viewBox="0 0 48 48" fill="none" xmlns="http://www.w3.org/2000/svg">
<path fill-rule="evenodd" clip-rule="evenodd" d="M23.1936 29.5716L22.289 30.2849C20.8913 31.3869 20 33.0888 20 35C20 38.3137 22.6863 41 26 41C29.3137 41 32 38.3137 32 35C32 33.0888 31.1087 31.3869 29.711 30.2849L28.8064 29.5716L28.9695 28.4311C28.9895 28.2914 29 28.1475 29 28V10C29 8.34315 27.6569 7 26 7C24.3431 7 23 8.34315 23 10V28C23 28.1475 23.0105 28.2914 23.0305 28.4311L23.1936 29.5716ZM21 10C21 7.23858 23.2386 5 26 5C28.7614 5 31 7.23858 31 10V28C31 28.2425 30.9827 28.4811 30.9494 28.7144C32.8073 30.1793 34 32.4504 34 35C34 39.4183 30.4183 43 26 43C21.5817 43 18 39.4183 18 35C18 32.4504 19.1927 30.1793 21.0506 28.7144C21.0173 28.4811 21 28.2425 21 28V10Z" fill="#333333"/>
<path d="M24 20.9197C24.6 18.2269 26.2 22.4586 28 20.9197C28 21.7758 28 28.5568 28 32.0034C28 33.108 27.1046 34 26 34C24.8954 34 24 33.1087 24 32.0042C24 28.7033 24 22.33 24 20.9197Z" fill="#333333"/>
<path d="M30 35C30 37.2091 28.2091 39 26 39C23.7909 39 22 37.2091 22 35C22 32.7909 23.7909 31 26 31C28.2091 31 30 32.7909 30 35Z" fill="#333333"/>
<path d="M26 10C26 9.44772 26.4477 9 27 9H29V11H27C26.4477 11 26 10.5523 26 10Z" fill="#333333"/>
<path d="M26 14C26 13.4477 26.4477 13 27 13H29V15H27C26.4477 15 26 14.5523 26 14Z" fill="#333333"/>
<path d="M26 18C26 17.4477 26.4477 17 27 17H29V19H27C26.4477 19 26 18.5523 26 18Z" fill="#333333"/>
<path d="M12.4683 9.20985L8.23019 13.3541C7.74409 13.8294 8.07828 14.6315 8.76186 14.6315H11.481L11.481 26.5146C11.481 27.3316 12.1645 28 13 28C13.8355 28 14.519 27.3316 14.519 26.5146L14.519 14.6315H17.2381C17.9217 14.6315 18.2559 13.8294 17.7698 13.3689L13.5317 9.2247C13.243 8.92762 12.757 8.92762 12.4683 9.20985Z" fill="#333333"/>
</svg>
