<svg width="48" height="48" viewBox="0 0 48 48" fill="none" xmlns="http://www.w3.org/2000/svg">
<path d="M18.11 23.0664H39.0662C40.6787 23.0664 42 24.3867 42 26.033C42 27.6793 40.6787 28.9997 39.0662 28.9997H15.0722C15.041 28.9997 15.0093 28.9873 14.9847 28.9625L6.87652 20.7995C5.70783 19.6229 5.70783 17.7098 6.87652 16.5333C8.03801 15.3639 9.91573 15.3639 11.0772 16.5333L17.1831 22.6804C17.4276 22.9266 17.7608 23.0664 18.11 23.0664Z" stroke="#333333" stroke-width="2"/>
<path d="M7 22L9 23.1818V35H7V22Z" fill="#333333"/>
<rect x="38" y="29.5234" width="2" height="5.67568" fill="#333333"/>
<rect x="4" y="34" width="40" height="2" rx="1" fill="#333333"/>
<circle cx="8.5" cy="38.5" r="2.5" stroke="#333333" stroke-width="2"/>
<circle cx="39.5" cy="38.5" r="2.5" stroke="#333333" stroke-width="2"/>
<path d="M15.7177 22L17.1877 20.5313C18.2702 19.4497 18.2708 17.6955 17.1891 16.6132L15.3889 14.8121C14.3071 13.7298 12.5526 13.7292 11.47 14.8108L10 16.2795" stroke="#333333" stroke-width="2"/>
<path d="M35 22.5V9M29 6V7C29 8.10457 29.8954 9 31 9H39C40.1046 9 41 8.10457 41 7V6" stroke="#333333" stroke-width="2" stroke-linecap="round"/>
<mask id="path-9-inside-1" fill="white">
<rect x="27" y="12" width="6" height="8" rx="1"/>
</mask>
<rect x="27" y="12" width="6" height="8" rx="1" stroke="#333333" stroke-width="4" mask="url(#path-9-inside-1)"/>
<path d="M30 9V12.5" stroke="#333333" stroke-width="2"/>
</svg>
