<svg width="48" height="48" viewBox="0 0 48 48" fill="none" xmlns="http://www.w3.org/2000/svg">
<path d="M18.11 21.0664H39.0662C40.6787 21.0664 42 22.3867 42 24.033C42 25.6793 40.6787 26.9997 39.0662 26.9997H15.0722C15.041 26.9997 15.0093 26.9873 14.9847 26.9625L6.87652 18.7995C5.70783 17.6229 5.70783 15.7098 6.87652 14.5333C8.03801 13.3639 9.91573 13.3639 11.0772 14.5333L17.1831 20.6804C17.4276 20.9266 17.7608 21.0664 18.11 21.0664Z" stroke="#333333" stroke-width="2"/>
<path d="M7 20L9 21.1818V33H7V20Z" fill="#333333"/>
<rect x="38" y="27.5234" width="2" height="5.67568" fill="#333333"/>
<rect x="4" y="32" width="40" height="2" rx="1" fill="#333333"/>
<circle cx="8.5" cy="36.5" r="2.5" stroke="#333333" stroke-width="2"/>
<circle cx="39.5" cy="36.5" r="2.5" stroke="#333333" stroke-width="2"/>
<path d="M15.7177 20L17.1877 18.5313C18.2702 17.4497 18.2708 15.6955 17.1891 14.6132L15.3889 12.8121C14.3071 11.7298 12.5526 11.7292 11.47 12.8108L10 14.2795" stroke="#333333" stroke-width="2"/>
</svg>
