<svg width="48" height="48" viewBox="0 0 48 48" fill="none" xmlns="http://www.w3.org/2000/svg">
<path fill-rule="evenodd" clip-rule="evenodd" d="M24 41C24.5523 41 25 40.5523 25 40C25 39.4477 24.5523 39 24 39C23.4477 39 23 39.4477 23 40C23 40.5523 23.4477 41 24 41ZM24 43C25.6569 43 27 41.6569 27 40C27 38.3431 25.6569 37 24 37C22.3431 37 21 38.3431 21 40C21 41.6569 22.3431 43 24 43Z" fill="#333333"/>
<rect x="23" y="9" width="2" height="30" rx="1" fill="#333333"/>
<rect x="9" y="10" width="2" height="15" rx="1" transform="rotate(-90 9 10)" fill="#333333"/>
<rect x="24" y="10" width="2" height="15" rx="1" transform="rotate(-90 24 10)" fill="#333333"/>
</svg>
