<svg width="48" height="48" viewBox="0 0 48 48" fill="none" xmlns="http://www.w3.org/2000/svg">
<path fill-rule="evenodd" clip-rule="evenodd" d="M17.8138 19.1223C17.9979 19.2248 18.2057 19.2791 18.4174 19.2801C18.6347 19.2813 18.8481 19.2245 19.0349 19.1156C19.2216 19.0067 19.3744 18.8499 19.477 18.6621C20.0513 17.6806 20.5017 16.6342 20.8182 15.5461C21.841 15.9276 22.9297 16.1106 24.0238 16.0851C25.1103 16.095 26.1888 15.9031 27.2025 15.5198C27.5212 16.5988 27.9715 17.6362 28.5438 18.6095C28.6463 18.7973 28.7992 18.9541 28.9859 19.063C29.1726 19.1719 29.3861 19.2287 29.6034 19.2275C29.815 19.2265 30.0229 19.1722 30.2069 19.0697C30.4852 18.924 30.6952 18.6783 30.7927 18.3841C30.8902 18.09 30.8678 17.7702 30.73 17.492C30.2028 16.643 29.7966 15.7273 29.5229 14.7704C29.4653 14.5586 29.3547 14.3642 29.201 14.205C29.4388 13.8734 29.5696 13.4795 29.5765 13.0743C29.5765 11.5754 27.7256 10.3264 25.2443 10.0109V8.19645C25.2443 7.87913 25.1157 7.57481 24.8868 7.35043C24.6579 7.12605 24.3475 7 24.0238 7C23.7001 7 23.3896 7.12605 23.1607 7.35043C22.9318 7.57481 22.8033 7.87913 22.8033 8.19645V9.95826C20.3488 10.2738 18.5247 11.5228 18.5247 13.0086C18.5305 13.4019 18.6515 13.7852 18.8734 14.113C18.6953 14.2948 18.5742 14.523 18.5247 14.7704C18.2509 15.7273 17.8448 16.643 17.3176 17.492C17.24 17.6307 17.1914 17.7832 17.1744 17.9406C17.1574 18.0979 17.1724 18.257 17.2186 18.4087C17.2647 18.5603 17.3411 18.7014 17.4433 18.8239C17.5454 18.9464 17.6714 19.0478 17.8138 19.1223ZM27 12.5C27 13.3284 25.6569 14 24 14C22.3432 14 21 13.3284 21 12.5C21 11.6716 22.3432 11 24 11C25.6569 11 27 11.6716 27 12.5Z" fill="#333333"/>
<path d="M14.7423 24.0657C15.6676 23.3115 16.5288 22.4848 17.3175 21.5939C17.4521 21.4832 17.5606 21.3453 17.6358 21.1896C17.711 21.0339 17.751 20.8642 17.7531 20.692C17.7552 20.5198 17.7194 20.3492 17.648 20.1918C17.5767 20.0344 17.4715 19.894 17.3397 19.7801C17.208 19.6662 17.0526 19.5816 16.8844 19.532C16.7162 19.4823 16.539 19.4689 16.365 19.4925C16.191 19.5162 16.0242 19.5764 15.8761 19.6691C15.728 19.7617 15.6021 19.8846 15.5069 20.0293C14.805 20.8221 14.033 21.5524 13.1999 22.2119C12.9483 22.4148 12.7888 22.7069 12.7562 23.0247C12.7235 23.3424 12.8203 23.6599 13.0256 23.9079C13.1393 24.0442 13.2826 24.1538 13.445 24.2288C13.6074 24.3039 13.7849 24.3425 13.9644 24.3418C14.2469 24.3324 14.5192 24.2358 14.7423 24.0657Z" fill="#333333"/>
<path d="M33.5868 34.4915H16.258V28.6539C16.258 28.2459 16.0926 27.8546 15.7983 27.5662C15.504 27.2777 15.1049 27.1156 14.6887 27.1156C14.2725 27.1156 13.8734 27.2777 13.5791 27.5662C13.2848 27.8546 13.1194 28.2459 13.1194 28.6539V39.4614C13.1194 39.8694 13.2848 40.2607 13.5791 40.5491C13.8734 40.8376 14.2725 40.9997 14.6887 40.9997C15.1049 40.9997 15.504 40.8376 15.7983 40.5491C16.0926 40.2607 16.258 39.8694 16.258 39.4614V37.6207H32.0712V39.4614C32.0712 39.8694 32.2365 40.2607 32.5308 40.5491C32.8251 40.8376 33.2243 40.9997 33.6405 40.9997C34.0567 40.9997 34.4558 40.8376 34.7501 40.5491C35.0444 40.2607 35.2097 39.8694 35.2097 39.4614V36.0824C35.2172 35.8715 35.1804 35.6614 35.1015 35.465C35.0225 35.2687 34.9033 35.0904 34.7511 34.9412C34.5988 34.7919 34.4169 34.675 34.2166 34.5977C34.0163 34.5203 33.802 34.4842 33.5868 34.4915Z" fill="#333333"/>
<path d="M10.5308 23.9738C9.96752 24.2893 9.37738 24.6049 8.77382 24.8941C8.56908 24.9941 8.39669 25.1478 8.2759 25.3382C8.15511 25.5285 8.09068 25.7481 8.08978 25.9723V28.0233C8.08978 28.1804 8.12135 28.336 8.18269 28.4812C8.24403 28.6263 8.33393 28.7582 8.44727 28.8693C8.56061 28.9804 8.69516 29.0686 8.84324 29.1287C8.99132 29.1888 9.15003 29.2198 9.31031 29.2198C9.4706 29.2198 9.62931 29.1888 9.77739 29.1287C9.92547 29.0686 10.06 28.9804 10.1734 28.8693C10.2867 28.7582 10.3766 28.6263 10.4379 28.4812C10.4993 28.336 10.5308 28.1804 10.5308 28.0233V26.7085C10.96 26.485 11.3758 26.2615 11.7782 26.0249C11.9268 25.9503 12.0583 25.8467 12.1644 25.7204C12.2706 25.5941 12.3492 25.4478 12.3954 25.2905C12.4415 25.1333 12.4543 24.9684 12.4329 24.8061C12.4115 24.6438 12.3563 24.4875 12.2708 24.347C12.1853 24.2064 12.0713 24.0845 11.9359 23.9889C11.8004 23.8932 11.6464 23.8258 11.4833 23.7908C11.3202 23.7559 11.1516 23.754 10.9877 23.7855C10.8239 23.817 10.6684 23.8811 10.5308 23.9738Z" fill="#333333"/>
<path d="M10.1734 30.6482C10.4023 30.8725 10.5308 31.1769 10.5308 31.4942L10.6113 34.505C10.6207 34.632 10.6207 34.7594 10.6113 34.8863C10.6135 35.0514 10.5809 35.2152 10.5154 35.3673C10.4499 35.5194 10.353 35.6566 10.2308 35.7702C10.1086 35.8838 9.96375 35.9714 9.80533 36.0274C9.64691 36.0835 9.47837 36.1068 9.31031 36.0959C8.98892 36.0959 8.68049 35.9717 8.45198 35.7501C8.22346 35.5286 8.09331 35.2276 8.08978 34.9126V31.4942C8.08978 31.1769 8.21837 30.8725 8.44727 30.6482C8.67616 30.4238 8.98661 30.2977 9.31031 30.2977C9.63402 30.2977 9.94447 30.4238 10.1734 30.6482Z" fill="#333333"/>
<path d="M9.1896 37.1215C9.04721 37.0493 8.89159 37.0057 8.7318 36.9931C8.57201 36.9805 8.41127 36.9992 8.25894 37.0481C8.10662 37.0971 7.96577 37.1753 7.84461 37.2782C7.72345 37.3811 7.62442 37.5066 7.55328 37.6474C7.34217 38.0824 7.00667 38.4478 6.58758 38.6993C6.4494 38.7814 6.32924 38.8897 6.23407 39.0177C6.1389 39.1457 6.07062 39.291 6.03319 39.4451C5.99576 39.5993 5.98992 39.7591 6.01602 39.9155C6.04211 40.0718 6.09962 40.2215 6.18521 40.3559C6.2934 40.5291 6.44523 40.6721 6.6261 40.7711C6.80698 40.8701 7.0108 40.9218 7.21797 40.9212C7.46718 40.9369 7.71529 40.8772 7.92883 40.7503C8.71727 40.2665 9.34973 39.5736 9.75292 38.7519C9.82999 38.6095 9.87657 38.4532 9.88981 38.2925C9.90306 38.1319 9.88268 37.9703 9.82993 37.8176C9.77718 37.6649 9.69318 37.5245 9.58307 37.4048C9.47296 37.2851 9.33906 37.1887 9.1896 37.1215Z" fill="#333333"/>
<path d="M32.5406 20.0304C33.2431 20.8186 34.015 21.5446 34.8476 22.1998C34.9803 22.2926 35.0929 22.4102 35.179 22.5459C35.265 22.6816 35.3228 22.8326 35.349 22.9903C35.3752 23.148 35.3693 23.3092 35.3316 23.4647C35.2938 23.6201 35.2251 23.7667 35.1292 23.8959C35.0155 24.0321 34.8722 24.1417 34.7098 24.2168C34.5474 24.2919 34.3699 24.3305 34.1904 24.3298C33.9093 24.3242 33.6372 24.2322 33.4124 24.0668C32.4501 23.317 31.5528 22.4903 30.7299 21.595C30.5716 21.3543 30.5067 21.066 30.5468 20.7823C30.5869 20.4987 30.7295 20.2385 30.9487 20.0492C31.1678 19.8598 31.449 19.7538 31.7411 19.7503C32.0332 19.7469 32.3169 19.8463 32.5406 20.0304Z" fill="#333333"/>
<path d="M37.5166 28.0761C37.5166 28.3934 37.6452 28.6977 37.8741 28.9221C38.103 29.1465 38.4134 29.2725 38.7371 29.2725C39.0609 29.2725 39.3713 29.1465 39.6002 28.9221C39.8291 28.6977 39.9577 28.3934 39.9577 28.0761V26.025C39.9568 25.8008 39.8923 25.5813 39.7716 25.3909C39.6508 25.2005 39.4784 25.0468 39.2736 24.9469C38.6701 24.6576 38.0799 24.3421 37.5166 24.0265C37.3791 23.9338 37.2236 23.8697 37.0597 23.8382C36.8959 23.8068 36.7272 23.8086 36.5642 23.8436C36.4011 23.8785 36.247 23.9459 36.1116 24.0416C35.9761 24.1373 35.8621 24.2591 35.7767 24.3997C35.6912 24.5403 35.636 24.6965 35.6146 24.8588C35.5932 25.0211 35.6059 25.186 35.6521 25.3433C35.6983 25.5005 35.7769 25.6468 35.883 25.7732C35.9892 25.8995 36.1206 26.0031 36.2693 26.0776C36.6716 26.3142 37.0874 26.5378 37.5166 26.7613V28.0761Z" fill="#333333"/>
<path d="M39.6357 35.7501C39.4072 35.9717 39.0988 36.0959 38.7774 36.0959L38.764 36.0828C38.6037 36.0811 38.4453 36.0484 38.2979 35.9867C38.1505 35.925 38.0169 35.8354 37.9048 35.7231C37.7928 35.6107 37.7043 35.4779 37.6446 35.332C37.5849 35.1862 37.5551 35.0303 37.5569 34.8732C37.5475 34.7462 37.5475 34.6188 37.5569 34.4919V31.4942C37.5569 31.1769 37.6855 30.8725 37.9143 30.6482C38.1432 30.4238 38.4537 30.2977 38.7774 30.2977C39.1011 30.2977 39.4115 30.4238 39.6404 30.6482C39.8693 30.8725 39.9979 31.1769 39.9979 31.4942V34.9126C39.9944 35.2276 39.8642 35.5286 39.6357 35.7501Z" fill="#333333"/>
<path d="M41.4599 38.6994C41.0595 38.4492 40.7389 38.0939 40.5344 37.6739C40.3762 37.4135 40.123 37.2216 39.8261 37.1371C39.5291 37.0527 39.2105 37.0818 38.9346 37.2187C38.6588 37.3556 38.4462 37.59 38.3398 37.8746C38.2334 38.1592 38.2412 38.4728 38.3616 38.752C38.7465 39.5652 39.355 40.2572 40.1186 40.7504C40.3129 40.8649 40.5358 40.9241 40.7624 40.9214C40.9696 40.9219 41.1734 40.8702 41.3543 40.7712C41.5352 40.6722 41.687 40.5292 41.7952 40.356C41.9742 40.0926 42.0395 39.7703 41.9766 39.4598C41.9138 39.1493 41.728 38.8759 41.4599 38.6994Z" fill="#333333"/>
<path d="M33.2783 32.6375H18.5247V29.035H31.9371C32.7955 29.035 33.2783 29.7713 33.2783 30.7705V32.6375Z" fill="#333333"/>
</svg>
