<svg width="48" height="48" viewBox="0 0 48 48" fill="none" xmlns="http://www.w3.org/2000/svg">
<circle cx="24" cy="24" r="8" stroke="#FF0000" stroke-opacity="0.32" stroke-width="0.25"/>
<circle cx="24" cy="24" r="16" stroke="#FF0000" stroke-opacity="0.32" stroke-width="0.25"/>
<circle cx="24" cy="24" r="20" stroke="#FF0000" stroke-opacity="0.32" stroke-width="0.25"/>
<rect x="4" y="4" width="40" height="40" stroke="#FF0000" stroke-opacity="0.32" stroke-width="0.25"/>
<rect x="10" y="4" width="28" height="40" rx="3" stroke="#FF0000" stroke-opacity="0.32" stroke-width="0.25"/>
<rect x="6" y="6" width="36" height="36" rx="3" stroke="#FF0000" stroke-opacity="0.32" stroke-width="0.25"/>
<rect x="44" y="10" width="28" height="40" rx="3" transform="rotate(90 44 10)" stroke="#FF0000" stroke-opacity="0.32" stroke-width="0.25"/>
<line x1="24.125" y1="4" x2="24.125" y2="44" stroke="#FF0000" stroke-opacity="0.32" stroke-width="0.25"/>
<line x1="44" y1="24.125" x2="4" y2="24.125" stroke="#FF0000" stroke-opacity="0.32" stroke-width="0.25"/>
<line x1="44.0884" y1="4.08839" x2="4.08839" y2="44.0884" stroke="#FF0000" stroke-opacity="0.32" stroke-width="0.25"/>
<line x1="43.9116" y1="44.0884" x2="3.91161" y2="4.08839" stroke="#FF0000" stroke-opacity="0.32" stroke-width="0.25"/>
<line x1="44" y1="32.125" x2="4" y2="32.125" stroke="#FF0000" stroke-opacity="0.32" stroke-width="0.25"/>
<line x1="44" y1="16.125" x2="4" y2="16.125" stroke="#FF0000" stroke-opacity="0.32" stroke-width="0.25"/>
<line x1="16.125" y1="4" x2="16.125" y2="44" stroke="#FF0000" stroke-opacity="0.32" stroke-width="0.25"/>
<line x1="32.125" y1="4" x2="32.125" y2="44" stroke="#FF0000" stroke-opacity="0.32" stroke-width="0.25"/>
<path d="M28 12C28 12.3392 27.7656 12.8171 27.021 13.2638C26.2963 13.6986 25.2306 14 24 14C22.7694 14 21.7037 13.6986 20.979 13.2638C20.2344 12.8171 20 12.3392 20 12C20 11.6608 20.2344 11.1829 20.979 10.7362C21.7037 10.3014 22.7694 10 24 10C25.2306 10 26.2963 10.3014 27.021 10.7362C27.7656 11.1829 28 11.6608 28 12Z" stroke="#333333" stroke-width="2"/>
<line x1="24" y1="11" x2="24" y2="6" stroke="#333333" stroke-width="2"/>
<path d="M20 13.5L19 16.5" stroke="#333333" stroke-width="2" stroke-linecap="round"/>
<path d="M16.5553 19.3225L14.4447 21.6773" stroke="#333333" stroke-width="2" stroke-linecap="round"/>
<path d="M11 23.5L9 24.5V27.5" stroke="#333333" stroke-width="2" stroke-linecap="round"/>
<path d="M7 41.5L9 40.5L9 37.5" stroke="#333333" stroke-width="2" stroke-linecap="round"/>
<path d="M9 31V34" stroke="#333333" stroke-width="2" stroke-linecap="round"/>
<path d="M28 13.5L29 16.5" stroke="#333333" stroke-width="2" stroke-linecap="round"/>
<path d="M31.4447 19.3225L33.5553 21.6773" stroke="#333333" stroke-width="2" stroke-linecap="round"/>
<path d="M37 23.5L39 24.5V27.5" stroke="#333333" stroke-width="2" stroke-linecap="round"/>
<path d="M41 41.5L39 40.5L39 37.5" stroke="#333333" stroke-width="2" stroke-linecap="round"/>
<path d="M39 31V34" stroke="#333333" stroke-width="2" stroke-linecap="round"/>
<path d="M17 27L17 42" stroke="#333333" stroke-width="2"/>
<path d="M17 37H32V42" stroke="#333333" stroke-width="2"/>
<path d="M32 33.5H20" stroke="#333333" stroke-width="3" stroke-linecap="round"/>
</svg>
