<svg width="48" height="48" viewBox="0 0 48 48" fill="none" xmlns="http://www.w3.org/2000/svg">
<path d="M28.026 7.8187L30.7652 8.54794L30.2924 10.3125L30.0336 11.2784L30.9995 11.5373L32.7656 12.0105L32.2924 13.7766L32.0336 14.7425L32.9995 15.0014L34.7656 15.4746L34.2924 17.2407L34.0336 18.2066L34.9995 18.4655L36.7656 18.9387L36.2924 20.7048L36.0336 21.6708L36.9995 21.9296L38.7656 22.4028L38.2924 24.1689L38.0336 25.1349L38.9995 25.3937L40.7641 25.8665L40.026 28.6033L19.9664 40.1847L17.2343 39.4527L17.7076 37.6866L17.9664 36.7206L17.0005 36.4618L15.2343 35.9886L15.7076 34.2225L15.9664 33.2565L15.0005 32.9977L13.2343 32.5245L13.7076 30.7584L13.9664 29.7924L13.0005 29.5336L11.2343 29.0604L11.7076 27.2943L11.9664 26.3283L11.0005 26.0695L9.23434 25.5963L9.70757 23.8302L9.96639 22.8642L9.00047 22.6054L7.23279 22.1318L7.95885 19.4045L28.026 7.8187Z" stroke="#333333" stroke-width="2"/>
<circle cx="24" cy="23.999" r="8" stroke="#333333" stroke-width="2"/>
<circle cx="24" cy="24" r="4" stroke="#333333" stroke-width="2"/>
</svg>
