<svg width="48" height="48" viewBox="0 0 48 48" fill="none" xmlns="http://www.w3.org/2000/svg">
<path d="M28.0259 7.8187L30.7651 8.54794L30.2923 10.3125L30.0334 11.2784L30.9994 11.5373L32.7655 12.0105L32.2923 13.7766L32.0334 14.7425L32.9994 15.0014L34.7655 15.4746L34.2923 17.2407L34.0334 18.2066L34.9994 18.4655L36.7655 18.9387L36.2923 20.7048L36.0334 21.6708L36.9994 21.9296L38.7655 22.4028L38.2923 24.1689L38.0334 25.1349L38.9994 25.3937L40.7639 25.8665L40.0259 28.6033L19.9663 40.1847L17.2342 39.4527L17.7074 37.6866L17.9663 36.7206L17.0003 36.4618L15.2342 35.9886L15.7075 34.2225L15.9663 33.2565L15.0003 32.9977L13.2342 32.5245L13.7075 30.7584L13.9663 29.7924L13.0003 29.5336L11.2342 29.0604L11.7075 27.2943L11.9663 26.3283L11.0003 26.0695L9.23422 25.5963L9.70745 23.8302L9.96627 22.8642L9.00034 22.6054L7.23266 22.1318L7.95873 19.4045L28.0259 7.8187Z" stroke="#333333" stroke-width="2"/>
<circle cx="24" cy="23.9995" r="8" stroke="#333333" stroke-width="2"/>
<circle cx="24" cy="24.0005" r="4" stroke="#333333" stroke-width="2"/>
</svg>
