<svg width="48" height="48" viewBox="0 0 48 48" fill="none" xmlns="http://www.w3.org/2000/svg">
<path fill-rule="evenodd" clip-rule="evenodd" d="M29 24.0003C29 26.7617 26.7615 29.0003 24 29.0003C21.2386 29.0003 19 26.7617 19 24.0003C19 21.2389 21.2386 19.0003 24 19.0003C26.7615 19.0003 29 21.2389 29 24.0003ZM27 24.0003C27 25.6572 25.6569 27.0003 24 27.0003C22.3432 27.0003 21 25.6572 21 24.0003C21 22.3435 22.3432 21.0003 24 21.0003C25.6569 21.0003 27 22.3435 27 24.0003Z" fill="#333333"/>
<path fill-rule="evenodd" clip-rule="evenodd" d="M24 32.9993C28.9706 32.9993 33 28.9699 33 23.9993C33 19.0288 28.9706 14.9993 24 14.9993C19.0295 14.9993 15 19.0288 15 23.9993C15 28.9699 19.0295 32.9993 24 32.9993ZM24 30.9993C27.866 30.9993 31 27.8653 31 23.9993C31 20.1333 27.866 16.9993 24 16.9993C20.1341 16.9993 17 20.1333 17 23.9993C17 27.8653 20.1341 30.9993 24 30.9993Z" fill="#333333"/>
<path fill-rule="evenodd" clip-rule="evenodd" d="M31.9903 7.83975L27.884 6.74609L7.09937 18.7461L6.00964 22.8393L8.74169 23.5714L8.00964 26.3034L10.7417 27.0355L10.0096 29.7675L12.7417 30.4996L12.0096 33.2317L14.7417 33.9637L14.0096 36.6958L16.7417 37.4278L16.0096 40.1599L20.1077 41.2579L40.884 29.2628L41.9904 25.1599L39.2584 24.4278L39.9904 21.6958L37.2584 20.9637L37.9904 18.2317L35.2584 17.4996L35.9904 14.7676L33.2584 14.0355L33.9904 11.3034L31.2584 10.5714L31.9903 7.83975ZM29.5401 9.25666L28.1682 8.89142L8.81844 20.063L8.45602 21.4243L11.1912 22.1572L10.4591 24.8892L13.1912 25.6213L12.4591 28.3533L15.1912 29.0854L14.4591 31.8174L17.1912 32.5495L16.4591 35.2815L19.1912 36.0136L18.4591 38.7456L19.8252 39.1117L39.1682 27.944L39.5378 26.5732L36.8089 25.842L37.5409 23.11L34.8089 22.3779L35.5409 19.6459L32.8089 18.9138L33.5409 16.1818L30.8089 15.4497L31.5409 12.7177L28.8089 11.9856L29.5401 9.25666Z" fill="#333333"/>
</svg>
