<svg width="48" height="48" viewBox="0 0 48 48" fill="none" xmlns="http://www.w3.org/2000/svg">
<path fill-rule="evenodd" clip-rule="evenodd" d="M24 18.4692L30.2425 20.0299C30.7783 20.1638 31.1041 20.7068 30.9701 21.2426C30.8362 21.7783 30.2933 22.1041 29.7575 21.9702L24 20.5308L18.2425 21.9702C17.7067 22.1041 17.1638 21.7783 17.0298 21.2426C16.8959 20.7068 17.2217 20.1638 17.7575 20.0299L24 18.4692Z" fill="#333333"/>
<path fill-rule="evenodd" clip-rule="evenodd" d="M21.9073 13.6157C21.5543 14.249 20.8862 14.6417 20.1612 14.6419C20.1612 14.6419 20.1611 14.6419 20.161 14.6419C20.1608 14.6419 20.1606 14.6419 20.1604 14.6419L20.1583 14.642L20.1406 14.642C20.1237 14.6421 20.0967 14.6424 20.0603 14.6428C19.9875 14.6437 19.8773 14.6456 19.7349 14.6495C19.45 14.6572 19.0383 14.6727 18.5426 14.704C17.5439 14.767 16.2376 14.8919 14.9523 15.1353C13.6339 15.385 12.4931 15.7314 11.7316 16.164C10.9791 16.5914 10.9984 16.8472 10.9999 16.8672C11 16.8677 11 16.8681 11 16.8683C11 26.9233 14.4191 31.5463 17.435 33.7415C18.9927 34.8753 20.552 35.4429 21.7196 35.7262C22.3018 35.8675 22.7794 35.9362 23.0992 35.9695C23.2588 35.986 23.378 35.9937 23.45 35.9972C23.486 35.9989 23.5101 35.9996 23.5214 35.9999C23.5232 35.9999 23.5246 36 23.5257 36H24.4743C24.4754 36 24.4768 35.9999 24.4786 35.9999C24.4899 35.9996 24.514 35.9989 24.55 35.9972C24.622 35.9937 24.7412 35.986 24.9008 35.9695C25.2206 35.9362 25.6982 35.8675 26.2805 35.7262C27.448 35.4429 29.0073 34.8753 30.565 33.7415C33.5809 31.5463 37 26.9233 37 16.8683C37 16.8676 37 16.8667 37.0001 16.8655C37.0012 16.8291 37.0091 16.5756 36.2838 16.1571C35.5406 15.7282 34.4242 15.3831 33.1293 15.134C31.8674 14.8912 30.5843 14.7664 29.6028 14.7035C29.1158 14.6722 28.7113 14.6567 28.4314 14.649C28.2916 14.6451 28.1834 14.6433 28.112 14.6423C28.0764 14.6419 28.0499 14.6417 28.0334 14.6416L28.0162 14.6415L28.0143 14.6415C28.0141 14.6415 28.0139 14.6415 28.0137 14.6415C28.014 14.6415 28.0143 14.6415 28.0144 12.6415M24.4839 38H23.5161H24.4839ZM20.1604 12.6419C20.1604 12.6419 9 12.6419 9 16.8683C9 38 23.5161 38 23.5161 38M28.0137 14.6415C27.2887 14.6412 26.6206 14.2486 26.2675 13.6153L25.367 12L22.8079 12L21.9073 13.6157" fill="#333333"/>
<path fill-rule="evenodd" clip-rule="evenodd" d="M10.4762 17.783C10.596 18.3222 10.2561 18.8563 9.71694 18.9762L7.80388 19.4013C6.81878 19.6202 6.15108 20.5387 6.24675 21.5433L6.82015 27.5639C6.89182 28.3165 7.38169 28.9643 8.08625 29.2383L15.3625 32.068C15.8772 32.2681 16.1322 32.8477 15.932 33.3624C15.7318 33.8771 15.1523 34.1321 14.6376 33.932L7.36135 31.1023C5.95223 30.5543 4.9725 29.2587 4.82916 27.7536L4.25576 21.7329C4.06441 19.7237 5.39982 17.8867 7.37002 17.4489L9.28308 17.0238C9.82221 16.904 10.3564 17.2439 10.4762 17.783Z" fill="#333333"/>
<path fill-rule="evenodd" clip-rule="evenodd" d="M37.765 17.7642C37.6348 18.3009 37.9643 18.8415 38.501 18.9718L40.259 19.3984C41.2195 19.6314 41.8657 20.5311 41.7798 21.5157L41.2227 27.903C41.1551 28.6783 40.644 29.3439 39.9125 29.6093L33.1589 32.06C32.6397 32.2483 32.3716 32.8219 32.56 33.3411C32.7484 33.8603 33.3219 34.1284 33.8411 33.94L40.5947 31.4894C42.0577 30.9585 43.0799 29.6273 43.2151 28.0768L43.7722 21.6895C43.944 19.7203 42.6516 17.9209 40.7306 17.4548L38.9726 17.0282C38.4359 16.898 37.8953 17.2275 37.765 17.7642Z" fill="#333333"/>
</svg>
