<svg width="48" height="48" viewBox="0 0 48 48" fill="none" xmlns="http://www.w3.org/2000/svg">
<path d="M18 19L23.6022 17.5L29.2045 19" stroke="#333333" stroke-width="2" stroke-linecap="round"/>
<mask id="path-2-inside-1" fill="white">
<path d="M9 17.0005C9 13.0005 20.1604 13.0005 20.1604 13.0005L21.633 10.5H26.5418L28.0144 13C28.0144 13 39 13.0005 39 17.0005C39 37.0005 24.4839 37.0005 24.4839 37.0005H23.5161C23.5161 37.0005 9 37.0005 9 17.0005Z"/>
</mask>
<path d="M20.1604 13.0005V15.0005C20.8688 15.0005 21.5243 14.6258 21.8837 14.0154L20.1604 13.0005ZM28.0144 13L26.2911 14.0151C26.6506 14.6253 27.3061 15 28.0143 15L28.0144 13ZM21.633 10.5V8.5C20.9247 8.5 20.2692 8.87469 19.9097 9.48505L21.633 10.5ZM26.5418 10.5L28.265 9.48492C27.9055 8.87463 27.2501 8.5 26.5418 8.5V10.5ZM20.1604 13.0005C20.1604 11.0005 20.16 11.0005 20.1596 11.0005C20.1594 11.0005 20.1589 11.0005 20.1585 11.0005C20.1577 11.0005 20.1567 11.0005 20.1555 11.0005C20.1532 11.0005 20.1503 11.0005 20.1466 11.0005C20.1393 11.0005 20.1294 11.0005 20.1168 11.0006C20.0917 11.0008 20.0563 11.001 20.0112 11.0016C19.921 11.0027 19.792 11.0048 19.6297 11.0089C19.3054 11.0172 18.8465 11.0337 18.2973 11.0665C17.206 11.1317 15.7267 11.2631 14.2274 11.5318C12.7613 11.7946 11.121 12.2145 9.79677 12.9264C8.50949 13.6185 7 14.8951 7 17.0005H11C11 16.9924 11.0006 16.9899 11.0004 16.9914C11.0001 16.9928 10.9997 16.994 10.9998 16.9937C11 16.9932 11.002 16.9879 11.008 16.9775C11.0141 16.9669 11.025 16.9499 11.0434 16.9268C11.1253 16.8242 11.3143 16.652 11.6909 16.4495C12.4592 16.0364 13.609 15.7064 14.933 15.4691C16.2238 15.2378 17.5346 15.1192 18.5358 15.0594C19.033 15.0297 19.446 15.0149 19.732 15.0076C19.8749 15.004 19.9857 15.0022 20.059 15.0013C20.0956 15.0009 20.1228 15.0006 20.1399 15.0005C20.1485 15.0005 20.1546 15.0005 20.158 15.0005C20.1597 15.0005 20.1608 15.0005 20.1612 15.0005C20.1614 15.0005 20.1614 15.0005 20.1613 15.0005C20.1612 15.0005 20.161 15.0005 20.161 15.0005C20.1607 15.0005 20.1604 15.0005 20.1604 13.0005ZM7 17.0005C7 27.5555 10.8731 33.2194 15.1235 36.1475C17.1932 37.5733 19.2566 38.2827 20.8004 38.6372C21.5745 38.815 22.2266 38.9055 22.6965 38.9518C22.9318 38.9749 23.1226 38.9871 23.2614 38.9935C23.3308 38.9967 23.3873 38.9984 23.4301 38.9994C23.4514 38.9998 23.4694 39.0001 23.4837 39.0003C23.4909 39.0003 23.4972 39.0004 23.5026 39.0004C23.5053 39.0004 23.5078 39.0004 23.5101 39.0005C23.5112 39.0005 23.5127 39.0005 23.5133 39.0005C23.5147 39.0005 23.5161 39.0005 23.5161 37.0005C23.5161 35.0005 23.5174 35.0005 23.5187 35.0005C23.519 35.0005 23.5202 35.0005 23.5209 35.0005C23.5222 35.0005 23.5234 35.0005 23.5243 35.0005C23.5262 35.0005 23.5273 35.0005 23.5275 35.0005C23.5279 35.0005 23.525 35.0005 23.5189 35.0003C23.5067 35.0001 23.4818 34.9994 23.4449 34.9977C23.371 34.9943 23.2499 34.9869 23.0883 34.971C22.7644 34.9391 22.2824 34.8734 21.6956 34.7387C20.5176 34.4682 18.9519 33.9276 17.3927 32.8534C14.385 30.7815 11 26.4454 11 17.0005H7ZM28.0144 13C28.0143 15 28.014 15 28.0137 15C28.0137 15 28.0135 15 28.0134 15C28.0133 15 28.0133 15 28.0135 15C28.0138 15 28.0148 15 28.0165 15C28.0198 15 28.0257 15 28.0341 15.0001C28.0508 15.0002 28.0775 15.0004 28.1134 15.0008C28.1853 15.0017 28.294 15.0035 28.4344 15.0072C28.7153 15.0145 29.1211 15.0292 29.6097 15.0589C30.5938 15.1187 31.8815 15.2371 33.1489 15.4679C34.4494 15.7047 35.5748 16.0335 36.3248 16.4431C36.6916 16.6435 36.875 16.8135 36.9545 16.9147C37.0114 16.9872 37 16.9986 37 17.0005H41C41 14.9114 39.523 13.6322 38.2422 12.9327C36.9324 12.2172 35.3114 11.7959 33.8655 11.5326C32.3865 11.2633 30.9278 11.1316 29.8521 11.0662C29.3108 11.0334 28.8583 11.0168 28.5385 11.0085C28.3785 11.0043 28.2512 11.0022 28.1621 11.0011C28.1176 11.0006 28.0826 11.0003 28.0577 11.0002C28.0453 11.0001 28.0355 11 28.0282 11C28.0246 11 28.0217 11 28.0194 11C28.0182 11 28.0172 11 28.0164 11C28.016 11 28.0155 11 28.0153 11C28.0149 11 28.0145 11 28.0144 13ZM37 17.0005C37 26.4454 33.615 30.7815 30.6073 32.8534C29.0481 33.9276 27.4824 34.4682 26.3044 34.7387C25.7176 34.8734 25.2356 34.9391 24.9117 34.971C24.7501 34.9869 24.629 34.9943 24.5551 34.9977C24.5182 34.9994 24.4933 35.0001 24.4811 35.0003C24.475 35.0005 24.4721 35.0005 24.4725 35.0005C24.4727 35.0005 24.4738 35.0005 24.4757 35.0005C24.4766 35.0005 24.4778 35.0005 24.4791 35.0005C24.4798 35.0005 24.481 35.0005 24.4813 35.0005C24.4826 35.0005 24.4839 35.0005 24.4839 37.0005C24.4839 39.0005 24.4853 39.0005 24.4867 39.0005C24.4873 39.0005 24.4888 39.0005 24.4899 39.0005C24.4922 39.0004 24.4947 39.0004 24.4974 39.0004C24.5028 39.0004 24.5091 39.0003 24.5163 39.0003C24.5306 39.0001 24.5486 38.9998 24.5699 38.9994C24.6127 38.9984 24.6692 38.9967 24.7386 38.9935C24.8774 38.9871 25.0682 38.9749 25.3035 38.9518C25.7734 38.9055 26.4255 38.815 27.1996 38.6372C28.7434 38.2827 30.8068 37.5733 32.8765 36.1475C37.1269 33.2194 41 27.5555 41 17.0005H37ZM23.5161 39.0005H24.4839V35.0005H23.5161V39.0005ZM21.8837 14.0154L23.3564 11.5149L19.9097 9.48505L18.4371 11.9855L21.8837 14.0154ZM21.633 12.5H26.5418V8.5H21.633V12.5ZM24.8185 11.5151L26.2911 14.0151L29.7377 11.9849L28.265 9.48492L24.8185 11.5151Z" fill="#333333" mask="url(#path-2-inside-1)"/>
<path fill-rule="evenodd" clip-rule="evenodd" d="M23.6022 16.4648L29.4631 18.0341C29.9966 18.1769 30.3133 18.7252 30.1705 19.2587C30.0276 19.7922 29.4793 20.1089 28.9458 19.966L23.6022 18.5353L18.2586 19.966C17.7252 20.1089 17.1769 19.7922 17.034 19.2587C16.8912 18.7252 17.2079 18.1769 17.7414 18.0341L23.6022 16.4648Z" fill="#333333"/>
<path d="M9 17L7.08694 17.4251C5.60929 17.7535 4.60774 19.1312 4.75125 20.6381L5.32465 26.6588C5.43215 27.7876 6.16695 28.7594 7.22379 29.1704L14.5 32" stroke="#333333" stroke-width="2" stroke-linecap="round"/>
<path d="M38.7368 17L40.4948 17.4266C41.9355 17.7762 42.9048 19.1257 42.776 20.6026L42.2189 26.9899C42.1175 28.1528 41.3508 29.1512 40.2536 29.5494L33.5 32" stroke="#333333" stroke-width="2" stroke-linecap="round"/>
</svg>
