<svg width="48" height="48" viewBox="0 0 48 48" fill="none" xmlns="http://www.w3.org/2000/svg">
<path d="M21.0221 13.5079C20.8424 13.8131 20.5147 14.0004 20.1606 14.0005H20.1606L21.0221 13.5079ZM21.0221 13.5079L22.2046 11.5H25.9702L27.1528 13.5075C27.3325 13.8126 27.6601 13.9999 28.0141 14L21.0221 13.5079ZM24 36.0005C28.9859 36.0005 32.4362 33.6087 34.6846 30.0555C36.9607 26.4587 38 21.6614 38 17.0005C38 16.545 37.7086 16.0595 36.8041 15.5655C35.9142 15.0794 34.6649 14.7275 33.3281 14.4841C32.0077 14.2436 30.6773 14.1219 29.6703 14.0607C29.1685 14.0303 28.7511 14.0151 28.4604 14.0075C28.3151 14.0037 28.2018 14.0018 28.1256 14.0009C28.0875 14.0004 28.0588 14.0002 28.04 14.0001L28.0194 14L28.0149 14L28.0144 14H28.0142L24 36.0005ZM24 36.0005L23.9997 36.0004L23.9785 36.0001C23.9575 35.9996 23.923 35.9987 23.8759 35.9966C23.7818 35.9924 23.6375 35.9837 23.4503 35.9659C23.0755 35.9302 22.5308 35.8579 21.8732 35.7118C20.5554 35.4189 18.8028 34.8338 17.0547 33.6684C13.6169 31.3765 10 26.7092 10 17.0005C10 16.5531 10.2915 16.0665 11.2173 15.5687C12.1247 15.0809 13.3971 14.7284 14.7566 14.4848C16.0995 14.2441 17.4524 14.1223 18.4762 14.0612C18.9864 14.0307 19.4108 14.0155 19.7064 14.0079C19.8542 14.0042 19.9695 14.0023 20.047 14.0014C20.0858 14.0009 20.115 14.0007 20.1342 14.0006L20.1552 14.0005L20.1598 14.0005L20.1604 14.0005L24 36.0005Z" stroke="#333333" stroke-width="2" stroke-linecap="round" stroke-linejoin="round"/>
<path d="M18 19L23.6022 17.5L29.2045 19" stroke="#333333" stroke-width="2" stroke-linecap="round"/>
<path d="M9 17L7.08694 17.4251C5.60929 17.7535 4.60774 19.1312 4.75125 20.6381L5.32465 26.6588C5.43215 27.7876 6.16695 28.7594 7.22379 29.1704L14.5 32" stroke="#333333" stroke-width="2" stroke-linecap="round"/>
<path d="M38.7368 17L40.4948 17.4266C41.9355 17.7762 42.9048 19.1257 42.776 20.6026L42.2189 26.9899C42.1175 28.1528 41.3508 29.1512 40.2536 29.5494L33.5 32" stroke="#333333" stroke-width="2" stroke-linecap="round"/>
</svg>
