<svg width="48" height="48" viewBox="0 0 48 48" fill="none" xmlns="http://www.w3.org/2000/svg">
<path fill-rule="evenodd" clip-rule="evenodd" d="M23.6022 16.4648L29.4631 18.034C29.9966 18.1769 30.3133 18.7251 30.1704 19.2586C30.0276 19.7921 29.4793 20.1088 28.9458 19.966L23.6022 18.5352L18.2586 19.966C17.7251 20.1088 17.1769 19.7921 17.034 19.2586C16.8912 18.7251 17.2079 18.1769 17.7414 18.034L23.6022 16.4648Z" fill="#333333"/>
<path fill-rule="evenodd" clip-rule="evenodd" d="M20.161 15.0005C20.1609 15.0005 20.161 15.0005 20.161 15.0005V15.0005ZM20.161 15.0005L20.158 15.0005L20.1399 15.0005C20.1228 15.0006 20.0956 15.0009 20.059 15.0013C19.9857 15.0022 19.8749 15.004 19.732 15.0076C19.446 15.0149 19.033 15.0297 18.5358 15.0594C17.5346 15.1192 16.2238 15.2378 14.933 15.4691C13.609 15.7064 12.4592 16.0364 11.6908 16.4495C11.3143 16.652 11.1253 16.8242 11.0434 16.9268C11.025 16.9499 11.0141 16.9669 11.008 16.9775C11.0034 16.9855 11.0011 16.9905 11.0003 16.9926C11.0001 16.9941 11 16.9966 11 17.0005C11 26.4454 14.385 30.7815 17.3927 32.8534C18.9519 33.9276 20.5176 34.4682 21.6956 34.7387C22.2824 34.8734 22.7644 34.9391 23.0883 34.971C23.2499 34.9869 23.371 34.9943 23.4449 34.9977C23.4817 34.9994 23.5067 35.0001 23.5189 35.0003C23.5214 35.0004 23.5233 35.0004 23.5247 35.0005H24.4753C24.4767 35.0004 24.4786 35.0004 24.4811 35.0003C24.4933 35.0001 24.5182 34.9994 24.5551 34.9977C24.629 34.9943 24.7501 34.9869 24.9117 34.971C25.2356 34.9391 25.7176 34.8734 26.3044 34.7387C27.4824 34.4682 29.0481 33.9276 30.6073 32.8534C33.615 30.7815 37 26.4454 37 17.0005C37 17.0003 36.9999 17.0008 37 17.0005C37.0012 16.997 37.0067 16.9812 36.9545 16.9147C36.875 16.8135 36.6916 16.6435 36.3248 16.4431C35.5748 16.0335 34.4494 15.7047 33.1489 15.4679C31.8815 15.2371 30.5938 15.1187 29.6097 15.0589C29.1211 15.0292 28.7153 15.0145 28.4344 15.0072C28.294 15.0035 28.1853 15.0017 28.1134 15.0008C28.0775 15.0004 28.0508 15.0002 28.0341 15.0001L28.0165 15L28.0143 15C27.3063 14.9998 26.6505 14.6252 26.2911 14.0151L25.3987 12.5H22.7762L21.8837 14.0154C21.5244 14.6255 20.869 15.0002 20.161 15.0005C20.161 15.0005 20.1609 15.0005 20.161 15.0005ZM21.633 10.5L20.1604 13.0005C20.1604 13.0005 8.99999 13.0005 8.99999 17.0005C8.99999 37.0005 23.5161 37.0005 23.5161 37.0005H24.4839C24.4839 37.0005 39 37.0005 39 17.0005C39 13.0005 28.0144 13 28.0144 13L26.5418 10.5H21.633Z" fill="#333333"/>
<path fill-rule="evenodd" clip-rule="evenodd" d="M23.6022 16.4648L29.4631 18.034C29.9966 18.1769 30.3133 18.7251 30.1704 19.2586C30.0276 19.7921 29.4793 20.1088 28.9458 19.966L23.6022 18.5352L18.2586 19.966C17.7251 20.1088 17.1769 19.7921 17.034 19.2586C16.8912 18.7251 17.2079 18.1769 17.7414 18.034L23.6022 16.4648Z" fill="#333333"/>
<path fill-rule="evenodd" clip-rule="evenodd" d="M9.97618 16.7831C10.096 17.3222 9.75606 17.8564 9.21692 17.9762L7.30387 18.4013C6.31876 18.6202 5.65106 19.5387 5.74674 20.5433L6.32013 26.564C6.39181 27.3165 6.88167 27.9644 7.58623 28.2384L14.8624 31.068C15.3772 31.2682 15.6322 31.8477 15.432 32.3624C15.2318 32.8772 14.6523 33.1322 14.1375 32.932L6.86134 30.1024C5.45222 29.5544 4.47249 28.2587 4.32914 26.7536L3.75575 20.7329C3.5644 18.7237 4.8998 16.8868 6.87001 16.4489L8.78306 16.0238C9.3222 15.904 9.85637 16.2439 9.97618 16.7831Z" fill="#333333"/>
<path fill-rule="evenodd" clip-rule="evenodd" d="M37.765 16.7642C37.6348 17.3009 37.9643 17.8416 38.501 17.9718L40.259 18.3984C41.2194 18.6314 41.8657 19.5311 41.7798 20.5158L41.2227 26.9031C41.1551 27.6783 40.644 28.3439 39.9125 28.6093L33.1589 31.06C32.6397 31.2484 32.3716 31.8219 32.56 32.3411C32.7484 32.8603 33.3219 33.1284 33.8411 32.94L40.5947 30.4894C42.0577 29.9585 43.0799 28.6273 43.2151 27.0768L43.7722 20.6895C43.944 18.7203 42.6516 16.9209 40.7306 16.4548L38.9726 16.0282C38.4359 15.898 37.8953 16.2275 37.765 16.7642Z" fill="#333333"/>
</svg>
