<svg width="48" height="48" viewBox="0 0 48 48" fill="none" xmlns="http://www.w3.org/2000/svg">
<path d="M39 10V8H37V12H40.5V10H39Z" fill="#333333"/>
<path fill-rule="evenodd" clip-rule="evenodd" d="M38 17C41.3137 17 44 14.3137 44 11C44 7.68629 41.3137 5 38 5C34.6863 5 32 7.68629 32 11C32 14.3137 34.6863 17 38 17ZM38 15C40.2091 15 42 13.2091 42 11C42 8.79086 40.2091 7 38 7C35.7909 7 34 8.79086 34 11C34 13.2091 35.7909 15 38 15Z" fill="#333333"/>
<path fill-rule="evenodd" clip-rule="evenodd" d="M16.0961 15.1052C14.624 13.6323 12.2364 13.6315 10.7632 15.1034L10.0591 15.8069C8.71987 15.4263 7.22155 15.7669 6.16703 16.8285C4.61099 18.3951 4.61099 20.9376 6.16703 22.5042L7 23.3428V35H5C4.44772 35 4 35.4477 4 36C4 36.5523 4.44771 37 5 37H6.05051C5.40223 37.6353 5 38.5207 5 39.5C5 41.433 6.567 43 8.5 43C10.433 43 12 41.433 12 39.5C12 38.5207 11.5978 37.6353 10.9495 37H37.0505C36.4022 37.6353 36 38.5207 36 39.5C36 41.433 37.567 43 39.5 43C41.433 43 43 41.433 43 39.5C43 38.5207 42.5978 37.6353 41.9495 37H43C43.5523 37 44 36.5523 44 36C44 35.4477 43.5523 35 43 35H40V30.8873C41.7218 30.4646 43 28.8993 43 27.033C43 24.8423 41.2388 23.0664 39.0662 23.0664H18.11C18.0285 23.0664 17.9502 23.0337 17.8925 22.9756L17.5261 22.6068L17.8945 22.2387C19.3678 20.7667 19.3686 18.3793 17.8964 16.9063L16.0961 15.1052ZM16.4736 24.3851C16.905 24.8194 17.4932 25.0664 18.11 25.0664H39.0662C40.1185 25.0664 41 25.9311 41 27.033C41 28.1349 40.1186 28.9997 39.0662 28.9997H15.4379L7.586 21.0948C6.80467 20.3081 6.80467 19.0246 7.586 18.238C8.35643 17.4623 9.59731 17.4623 10.3677 18.238L16.4736 24.3851ZM16.1167 21.1878L16.4809 20.8239C17.1727 20.1327 17.1731 19.0118 16.4818 18.3202L14.6816 16.5191C13.9902 15.8273 12.8687 15.8269 12.1768 16.5182L11.8263 16.8684L16.1167 21.1878ZM38 35H9V25.3563L14.2752 30.6672C14.4867 30.8801 14.7733 30.9997 15.0722 30.9997H38V35ZM10 39.5C10 40.3284 9.32843 41 8.5 41C7.67157 41 7 40.3284 7 39.5C7 38.6716 7.67157 38 8.5 38C9.32843 38 10 38.6716 10 39.5ZM39.5 41C40.3284 41 41 40.3284 41 39.5C41 38.6716 40.3284 38 39.5 38C38.6716 38 38 38.6716 38 39.5C38 40.3284 38.6716 41 39.5 41Z" fill="#333333"/>
</svg>
