<svg width="48" height="48" viewBox="0 0 48 48" fill="none" xmlns="http://www.w3.org/2000/svg">
<path d="M18.11 24.0664H39.0662C40.6787 24.0664 42 25.3867 42 27.033C42 28.6793 40.6787 29.9997 39.0662 29.9997H15.0722C15.041 29.9997 15.0093 29.9873 14.9847 29.9625L6.87652 21.7995C5.70783 20.6229 5.70783 18.7098 6.87652 17.5333C8.03801 16.3639 9.91573 16.3639 11.0772 17.5333L17.1831 23.6804C17.4276 23.9266 17.7608 24.0664 18.11 24.0664Z" stroke="#333333" stroke-width="2"/>
<path d="M7 23L9 24.1818V36H7V23Z" fill="#333333"/>
<rect x="38" y="30.5234" width="2" height="5.67568" fill="#333333"/>
<rect x="4" y="35" width="40" height="2" rx="1" fill="#333333"/>
<circle cx="8.5" cy="39.5" r="2.5" stroke="#333333" stroke-width="2"/>
<circle cx="39.5" cy="39.5" r="2.5" stroke="#333333" stroke-width="2"/>
<path d="M15.7177 23L17.1877 21.5313C18.2702 20.4497 18.2708 18.6955 17.1891 17.6132L15.3889 15.8121C14.3071 14.7298 12.5526 14.7292 11.47 15.8108L10 17.2795" stroke="#333333" stroke-width="2"/>
<circle cx="38" cy="11" r="5" stroke="#333333" stroke-width="2"/>
<path d="M38 9V11H39.5" stroke="#333333" stroke-width="2" stroke-linecap="square"/>
</svg>
