<svg width="48" height="48" viewBox="0 0 48 48" fill="none" xmlns="http://www.w3.org/2000/svg">
<line x1="23.795" y1="11.6679" x2="29.4911" y2="15.7366" stroke="#333333" stroke-width="2" stroke-linecap="round"/>
<path fill-rule="evenodd" clip-rule="evenodd" d="M22.2716 11.712C22.96 12.2477 23.9162 12.2756 24.6345 11.7808L24.6431 11.775C24.6546 11.7673 24.6749 11.7538 24.7036 11.735C24.7612 11.6975 24.8523 11.6391 24.9738 11.5648C25.2172 11.4159 25.5802 11.2041 26.0379 10.967C26.9602 10.489 28.2306 9.92669 29.6563 9.55625C32.523 8.81143 35.6533 8.90436 38.1271 11.5106C39.4619 12.9169 40.0557 14.2574 40.2573 15.5372C40.4078 16.4922 40.3521 17.4932 40.1333 18.5604C40.7854 18.8026 41.4018 19.1182 41.9724 19.4971C42.7355 16.3648 42.4889 13.2008 39.5777 10.1337C33.2164 3.43189 23.5 10.1337 23.5 10.1337C17.3206 5.32394 11.9517 6.35267 7.58975 11.1647C4.06758 15.0503 6.46897 22.0542 8.19525 27.089C8.60686 28.2895 8.9801 29.3781 9.22549 30.2857C10.5001 35 11.7195 37.9377 14.5 40.0637C15.877 41.1165 17.4385 39.3072 19.0858 37.3984C20.514 35.7435 22.0069 34.0137 23.5 34.0096C24.9689 34.0055 26.4381 35.7325 27.8465 37.3881C29.4722 39.2991 31.017 41.1149 32.3868 40.0637C34.0108 38.8173 34.957 37.8248 35.8342 35.9252C35.1459 35.8361 34.4819 35.6693 33.8514 35.4339C33.7922 35.5515 33.7329 35.6639 33.6732 35.7718C33.1277 36.7569 32.5236 37.4089 31.4466 38.261C31.0093 37.9542 30.4552 37.3616 29.6906 36.4685C29.5918 36.353 29.4895 36.2326 29.3842 36.1087C28.7413 35.3521 27.9871 34.4646 27.2194 33.7571C26.379 32.9825 25.0951 32.0052 23.4945 32.0096C21.898 32.014 20.6093 32.9777 19.7534 33.7559C18.9746 34.4639 18.2099 35.351 17.5576 36.1077L17.5576 36.1077C17.4513 36.231 17.3481 36.3507 17.2482 36.4657C16.4655 37.3671 15.8999 37.9632 15.4536 38.2677C13.4151 36.5907 12.3677 34.2447 11.1562 29.7637C10.8917 28.7855 10.4875 27.6072 10.0711 26.393C9.95186 26.0454 9.83162 25.6948 9.71336 25.3451C9.16395 23.7207 8.61954 22.0136 8.2466 20.3295C7.46564 16.8028 7.60855 14.1219 9.07155 12.5079C11.0349 10.342 13.0406 9.22681 15.056 9.03172C17.0617 8.83758 19.4534 9.51842 22.2716 11.712Z" fill="#333333"/>
<circle cx="37" cy="27" r="8" stroke="#333333" stroke-width="2"/>
<rect x="36" y="22" width="2" height="10" rx="1" fill="#333333"/>
<rect x="32" y="28" width="2" height="10" rx="1" transform="rotate(-90 32 28)" fill="#333333"/>
</svg>
