<svg width="48" height="48" viewBox="0 0 48 48" fill="none" xmlns="http://www.w3.org/2000/svg">
<path d="M36 23C36 22.4477 36.4477 22 37 22C37.5523 22 38 22.4477 38 23V26H41C41.5523 26 42 26.4477 42 27C42 27.5523 41.5523 28 41 28H38V31C38 31.5523 37.5523 32 37 32C36.4477 32 36 31.5523 36 31V28H33C32.4477 28 32 27.5523 32 27C32 26.4477 32.4477 26 33 26H36V23Z" fill="#333333"/>
<path fill-rule="evenodd" clip-rule="evenodd" d="M35.8341 35.9252C34.9569 37.8248 34.0107 38.8173 32.3867 40.0637C31.0169 41.1149 29.4722 39.2991 27.8465 37.3881C26.438 35.7325 24.9688 34.0055 23.5 34.0096C22.0068 34.0137 20.514 35.7435 19.0857 37.3984C17.4384 39.3072 15.877 41.1165 14.5 40.0637C11.7194 37.9377 10.5 35 9.22543 30.2857C8.98003 29.3781 8.6068 28.2895 8.19519 27.089C6.46891 22.0542 4.06752 15.0503 7.58968 11.1647C11.9517 6.35267 17.3205 5.32394 23.5 10.1337C23.5 10.1337 33.2164 3.43189 39.5776 10.1337C42.4888 13.2008 42.7354 16.3648 41.9724 19.4971C44.3998 21.1091 46 23.8677 46 27C46 31.9706 41.9706 36 37 36C36.6049 36 36.2158 35.9745 35.8341 35.9252ZM22.2715 11.712C22.453 11.8532 22.6531 11.9592 22.8625 12.0295C22.9305 12.2053 23.0489 12.3639 23.2138 12.4817L28.9099 16.5503C29.3593 16.8713 29.9839 16.7672 30.3049 16.3178C30.6259 15.8684 30.5218 15.2439 30.0724 14.9229L25.1897 11.4352C25.4142 11.303 25.7003 11.1419 26.0378 10.967C26.9601 10.489 28.2305 9.92669 29.6563 9.55625C32.523 8.81143 35.6532 8.90436 38.127 11.5106C39.4619 12.9169 40.0556 14.2574 40.2572 15.5372C40.4077 16.4922 40.3521 17.4932 40.1333 18.5604C39.1575 18.198 38.1019 18 37 18C32.0294 18 28 22.0294 28 27C28 30.8629 30.4337 34.1574 33.8514 35.4339C33.7922 35.5515 33.7328 35.6639 33.6731 35.7718C33.1276 36.7569 32.5236 37.4089 31.4465 38.261C31.0093 37.9542 30.4551 37.3616 29.6906 36.4685C29.5917 36.353 29.4894 36.2326 29.3842 36.1087C28.7412 35.3521 27.9871 34.4646 27.2193 33.7571C26.3789 32.9825 25.095 32.0052 23.4945 32.0096C21.898 32.014 20.6093 32.9777 19.7533 33.7559C18.9745 34.4639 18.2098 35.351 17.5575 36.1077C17.4514 36.2309 17.348 36.3508 17.2482 36.4657C16.4655 37.3671 15.8999 37.9632 15.4536 38.2677C13.415 36.5907 12.3676 34.2447 11.1561 29.7637C10.8916 28.7855 10.4875 27.6072 10.071 26.393C9.9518 26.0454 9.83156 25.6948 9.7133 25.3451C9.16389 23.7207 8.61948 22.0136 8.24654 20.3295C7.46558 16.8028 7.60848 14.1219 9.07149 12.5079C11.0348 10.342 13.0405 9.22681 15.056 9.03172C17.0617 8.83758 19.4533 9.51842 22.2715 11.712ZM44 27C44 30.866 40.866 34 37 34C33.134 34 30 30.866 30 27C30 23.134 33.134 20 37 20C40.866 20 44 23.134 44 27Z" fill="#333333"/>
</svg>
