<svg width="48" height="48" viewBox="0 0 48 48" fill="none" xmlns="http://www.w3.org/2000/svg">
<path fill-rule="evenodd" clip-rule="evenodd" d="M23.5 8.13368C17.3205 3.32394 11.9517 4.35267 7.5897 9.16471C4.87545 12.159 6.17245 16.2031 7.53963 20.466C8.36961 23.0539 9.22545 25.7224 9.22545 28.2857C9.44906 28.7806 11.8168 29.1743 15.1023 29.4307C14.7224 30.0481 14.5614 30.8072 14.7177 31.5884L14.8945 32.4723L22.4601 29.7487C24.4928 29.7791 26.554 29.7672 28.478 29.7079L15.291 34.4552L15.8273 37.1365L33.3373 30.8329C33.3104 30.3366 33.1601 29.8669 32.9142 29.4578C35.5692 29.2198 37.4465 28.8369 37.7601 28.2857C37.7601 26.072 38.7746 23.7492 39.8111 21.3761C41.7176 17.0109 43.6985 12.4753 39.5776 8.13373C33.2164 1.43189 23.5 8.13368 23.5 8.13368ZM22.8627 10.0296C22.6532 9.95919 22.4531 9.85323 22.2716 9.71196C19.4534 7.51842 17.0617 6.83758 15.056 7.03172C13.0406 7.22681 11.0349 8.342 9.07151 10.5079C7.68162 12.0412 7.7401 14.103 8.69448 17.4343C8.91904 18.2181 9.17662 19.0212 9.44862 19.8694L9.46222 19.9117C9.73568 20.7645 10.0225 21.6603 10.2799 22.5641C10.6749 23.9507 11.0232 25.4294 11.1618 26.9385C11.8467 27.0788 12.8191 27.2126 14.0266 27.3297C16.5644 27.5757 19.9275 27.7281 23.3289 27.759C26.7324 27.79 30.1167 27.6987 32.7018 27.4688C34.0032 27.3531 35.0398 27.2074 35.7554 27.0427C35.7855 27.0358 35.8145 27.029 35.8425 27.0222C36.0358 25.4972 36.5434 24.0242 37.083 22.6817C37.3679 21.9729 37.6814 21.2552 37.9826 20.5655L37.984 20.5624C38.0496 20.4123 38.1145 20.2635 38.1785 20.1165C38.5442 19.276 38.8857 18.4721 39.1762 17.6785C39.7624 16.0765 40.0796 14.6707 39.9828 13.3747C39.8912 12.1465 39.4171 10.8698 38.127 9.5106C35.6533 6.90436 32.523 6.81143 29.6563 7.55625C28.2305 7.92669 26.9601 8.48899 26.0378 8.96696C25.7004 9.1418 25.4145 9.30283 25.19 9.43507L30.0723 12.9225C30.5217 13.2435 30.6258 13.868 30.3048 14.3175C29.9838 14.7669 29.3593 14.871 28.9099 14.55L23.2137 10.4813C23.049 10.3636 22.9307 10.2052 22.8627 10.0296ZM36.4772 26.8165C36.4772 26.8165 36.4669 26.8239 36.4397 26.8366C36.4625 26.8225 36.4772 26.8165 36.4772 26.8165ZM10.4054 26.7364L10.4107 26.7388C10.4071 26.7372 10.4054 26.7364 10.4054 26.7364Z" fill="#333333"/>
<path d="M16.5177 40.5883L16.2239 39.1194L32.9828 33.0862L32.3633 36.1836L16.9977 41.7152C16.7673 41.3847 16.6007 41.0038 16.5177 40.5883Z" fill="#333333"/>
<path d="M19.3399 42.9976C19.3795 42.9992 19.4194 43 19.4594 43H28.5406C29.9706 43 31.2019 41.9906 31.4823 40.5883L31.9052 38.4741L19.3399 42.9976Z" fill="#333333"/>
</svg>
