<svg width="48" height="48" viewBox="0 0 48 48" fill="none" xmlns="http://www.w3.org/2000/svg">
<path fill-rule="evenodd" clip-rule="evenodd" d="M27.3176 28H17.6594C15.7663 28 14.3464 29.732 14.7177 31.5883L14.8945 32.4723L27.3176 28ZM15.291 34.4552L15.8273 37.1365L33.3373 30.8329C33.2841 29.8497 32.7461 28.9705 31.9411 28.4612L15.291 34.4552ZM16.5177 40.5883L16.2239 39.1194L32.9828 33.0862L32.3633 36.1836L16.9977 41.7152C16.7673 41.3847 16.6007 41.0038 16.5177 40.5883ZM19.3399 42.9976C19.3795 42.9992 19.4194 43 19.4594 43H28.5406C29.9706 43 31.2019 41.9906 31.4823 40.5883L31.9052 38.4741L19.3399 42.9976Z" fill="#333333"/>
<path d="M22.8858 8.92282C23.23 9.19073 23.7081 9.20462 24.0673 8.95722L24.0678 8.95686L24.0698 8.9555L24.0856 8.94485C24.1006 8.93475 24.1246 8.91878 24.1571 8.89754C24.2223 8.85504 24.3216 8.79152 24.4518 8.7118C24.7126 8.55225 25.0963 8.32857 25.5777 8.0791C26.544 7.57833 27.8859 6.98303 29.4048 6.58838C32.4503 5.79711 36.0251 5.84358 38.8523 8.82217C40.2925 10.3395 40.8703 11.8301 40.9801 13.3003C41.0923 14.8045 40.7208 16.3675 40.1153 18.0221C39.8138 18.8458 39.462 19.6729 39.0955 20.5154C39.0298 20.6665 38.9635 20.8183 38.8969 20.9707C38.5959 21.6599 38.2897 22.3609 38.0108 23.0547C37.3978 24.5799 36.87 26.178 36.7753 27.7809C36.5949 27.8549 36.333 27.9359 35.9797 28.0173C35.1986 28.1971 34.1095 28.3476 32.7903 28.4649C30.1609 28.6987 26.7414 28.7901 23.3198 28.759C19.8993 28.7279 16.5055 28.5747 13.9301 28.325C12.638 28.1997 11.579 28.0527 10.8338 27.8914C10.5723 27.8348 10.3673 27.7801 10.2134 27.7303C10.1429 26.0794 9.77049 24.4259 9.3182 22.8381C9.06595 21.9525 8.7841 21.0719 8.50998 20.2171L8.49406 20.1675C8.22381 19.3248 7.96208 18.5087 7.73315 17.7097C6.77887 14.3788 6.54517 11.806 8.33061 9.83632C10.4028 7.55034 12.622 6.26265 14.9596 6.03638C17.2924 5.81057 19.9318 6.62362 22.8858 8.92282Z" stroke="#333333" stroke-width="2" stroke-linecap="round" stroke-linejoin="round"/>
<line x1="23.795" y1="9.66741" x2="29.4911" y2="13.7361" stroke="#333333" stroke-width="2" stroke-linecap="round"/>
</svg>
