<svg width="48" height="48" viewBox="0 0 48 48" fill="none" xmlns="http://www.w3.org/2000/svg">
<rect width="48" height="48" fill="white"/>
<path fill-rule="evenodd" clip-rule="evenodd" d="M6.00056 20.7747C6.07232 11.021 15.4553 4.44055 24.8066 6.32319C27.1334 6.79223 28.9511 7.71491 30.4127 9.03994C31.8637 10.3553 32.9166 12.0243 33.7844 13.9163L33.7874 13.9228C34.0269 14.4549 34.1492 15.0324 34.146 15.616V18.6606C34.2092 18.7804 34.2962 18.9458 34.4025 19.1493C34.6354 19.5953 34.9616 20.225 35.3349 20.9611C36.0802 22.4303 37.0195 24.3346 37.7813 26.0495L37.7817 26.0504C37.9532 26.4375 38.0254 26.8613 37.9921 27.2833C37.9588 27.7053 37.8209 28.1125 37.5906 28.4679C37.3603 28.8233 37.0448 29.1156 36.6724 29.3177C36.3006 29.5196 35.8841 29.6249 35.461 29.6239L35.4589 29.6239L35.4621 28.6239V29.6239H35.461H34.1581V28.6239H33.1581V29.6239H34.1581V31.7172C34.1581 32.2695 33.7103 32.7172 33.1581 32.7172C32.6058 32.7172 32.1581 32.2695 32.1581 31.7172V28.6239C32.1581 28.0716 32.6058 27.6239 33.1581 27.6239H35.4621L35.4653 27.6239C35.5533 27.6242 35.6402 27.6024 35.7182 27.56C35.7962 27.5177 35.8631 27.456 35.9122 27.3802C35.9614 27.3043 35.9911 27.2169 35.9983 27.1259C36.0055 27.0349 35.9899 26.9437 35.9532 26.8608C35.2121 25.1924 34.2908 23.3238 33.5513 21.8658C33.1822 21.1381 32.8598 20.5156 32.6298 20.0752C32.5148 19.8551 32.423 19.6806 32.36 19.5613L32.2879 19.4252L32.2638 19.3798C32.1867 19.235 32.146 19.073 32.146 18.9089V15.607C32.1479 15.3103 32.0861 15.0169 31.965 14.7467L31.9666 14.7502L32.8754 14.3333L31.9636 14.7437L31.965 14.7467C31.1634 13 30.2501 11.592 29.0694 10.5217C27.8987 9.46032 26.4179 8.68826 24.4119 8.28385C16.1246 6.61556 8.06142 12.4592 8.0005 20.79L8.00049 20.7914C7.98459 22.6268 8.35866 24.4443 9.09749 26.1223C9.83633 27.8003 10.9228 29.2999 12.2839 30.521C12.4953 30.7107 12.6161 30.9813 12.6161 31.2654V41C12.6161 41.5523 12.1684 42 11.6161 42C11.0638 42 10.6161 41.5523 10.6161 41V31.7024C9.19792 30.3498 8.05926 28.7274 7.26707 26.9282C6.41404 24.9909 5.98231 22.893 6.00056 20.7747Z" fill="#333333"/>
<path fill-rule="evenodd" clip-rule="evenodd" d="M28 38C28.5523 38 29 38.4477 29 39V41C29 41.5523 28.5523 42 28 42C27.4477 42 27 41.5523 27 41V39C27 38.4477 27.4477 38 28 38Z" fill="#333333"/>
<path fill-rule="evenodd" clip-rule="evenodd" d="M6 20C6 19.4477 6.44772 19 7 19H23C23.5523 19 24 19.4477 24 20C24 20.5523 23.5523 21 23 21H7C6.44772 21 6 20.5523 6 20Z" fill="#333333"/>
<path fill-rule="evenodd" clip-rule="evenodd" d="M22 12H35.0209C36.8818 12 38.6602 12.7623 39.9665 14.1088C41.2718 15.4543 42 17.2728 42 19.163V38H33.4634C30.4132 38 27.4942 36.7508 25.3469 34.5374C23.2006 32.3251 22 29.3309 22 26.2149V12ZM24 14V26.2149C24 28.8197 25.0042 31.3119 26.7824 33.1448C28.5596 34.9767 30.9635 36 33.4634 36H40V19.163C40 17.784 39.4683 16.4675 38.531 15.5014C37.5948 14.5364 36.3315 14 35.0209 14H24Z" fill="#333333"/>
<path fill-rule="evenodd" clip-rule="evenodd" d="M9 13C9 12.4477 9.44772 12 10 12H23C23.5523 12 24 12.4477 24 13C24 13.5523 23.5523 14 23 14H10C9.44772 14 9 13.5523 9 13Z" fill="#333333"/>
</svg>
