<svg width="48" height="48" viewBox="0 0 48 48" fill="none" xmlns="http://www.w3.org/2000/svg">
<path fill-rule="evenodd" clip-rule="evenodd" d="M24.4251 25.3815C22.4334 25.3815 20.8188 26.9961 20.8188 28.9878C20.8188 30.9795 22.4334 32.5941 24.4251 32.5941C26.4168 32.5941 28.0314 30.9795 28.0314 28.9878C28.0314 26.9961 26.4168 25.3815 24.4251 25.3815ZM18.8188 28.9878C18.8188 25.8915 21.3289 23.3815 24.4251 23.3815C27.5214 23.3815 30.0314 25.8915 30.0314 28.9878C30.0314 32.0841 27.5214 34.5941 24.4251 34.5941C21.3289 34.5941 18.8188 32.0841 18.8188 28.9878Z" fill="#333333"/>
<path d="M25.3465 27.145C25.3465 27.6538 24.9341 28.0663 24.4253 28.0663C23.9165 28.0663 23.504 27.6538 23.504 27.145C23.504 26.6362 23.9165 26.2237 24.4253 26.2237C24.9341 26.2237 25.3465 26.6362 25.3465 27.145Z" fill="#333333"/>
<path d="M25.3465 30.8301C25.3465 31.3389 24.9341 31.7514 24.4253 31.7514C23.9165 31.7514 23.504 31.3389 23.504 30.8301C23.504 30.3213 23.9165 29.9089 24.4253 29.9089C24.9341 29.9089 25.3465 30.3213 25.3465 30.8301Z" fill="#333333"/>
<path d="M27.189 28.9873C27.189 29.4961 26.7765 29.9086 26.2677 29.9086C25.7589 29.9086 25.3465 29.4961 25.3465 28.9873C25.3465 28.4785 25.7589 28.0661 26.2677 28.0661C26.7765 28.0661 27.189 28.4785 27.189 28.9873Z" fill="#333333"/>
<path d="M23.504 28.9873C23.504 29.4961 23.0915 29.9086 22.5827 29.9086C22.0739 29.9086 21.6615 29.4961 21.6615 28.9873C21.6615 28.4785 22.0739 28.0661 22.5827 28.0661C23.0915 28.0661 23.504 28.4785 23.504 28.9873Z" fill="#333333"/>
<path fill-rule="evenodd" clip-rule="evenodd" d="M18.8188 36.3581C18.8188 35.8058 19.2666 35.3581 19.8188 35.3581H29.0314C29.5837 35.3581 30.0314 35.8058 30.0314 36.3581C30.0314 36.9103 29.5837 37.3581 29.0314 37.3581H19.8188C19.2666 37.3581 18.8188 36.9103 18.8188 36.3581Z" fill="#333333"/>
<path fill-rule="evenodd" clip-rule="evenodd" d="M21.0327 17.7227C21.9618 16.7728 23.1073 16.0112 24.425 16.0112C25.7428 16.0112 26.8883 16.7728 27.8174 17.7227C28.7629 18.6895 29.6205 19.9885 30.3708 21.3707C31.8749 24.1414 33.0508 27.4392 33.6779 29.6341C33.8296 30.1652 33.5221 30.7186 32.9911 30.8704C32.4601 31.0221 31.9066 30.7146 31.7549 30.1836C31.1536 28.0793 30.0264 24.9283 28.6131 22.3249C27.9048 21.0202 27.1502 19.9009 26.3875 19.1211C25.6084 18.3245 24.9498 18.0112 24.425 18.0112C23.9003 18.0112 23.2417 18.3245 22.4625 19.1211C21.6999 19.9009 20.9453 21.0202 20.237 22.3249C18.8237 24.9283 17.6965 28.0793 17.0952 30.1836C16.9435 30.7146 16.39 31.0221 15.859 30.8704C15.3279 30.7186 15.0205 30.1652 15.1722 29.6341C15.7993 27.4392 16.9752 24.1414 18.4793 21.3707C19.2296 19.9885 20.0872 18.6895 21.0327 17.7227Z" fill="#333333"/>
<path fill-rule="evenodd" clip-rule="evenodd" d="M22.6943 19.5439C23.1347 19.1326 23.7182 18.7752 24.4252 18.7752C25.1321 18.7752 25.7156 19.1326 26.156 19.5439C26.6006 19.9591 26.9931 20.5141 27.3409 21.1196C27.616 21.5985 27.4508 22.2097 26.9719 22.4848C26.493 22.7599 25.8818 22.5947 25.6067 22.1158C25.3085 21.5967 25.0317 21.2304 24.7909 21.0055C24.5459 20.7767 24.4281 20.7752 24.4252 20.7752C24.4223 20.7752 24.3045 20.7767 24.0595 21.0055C23.8187 21.2304 23.5419 21.5967 23.2436 22.1158C22.9685 22.5947 22.3573 22.7599 21.8784 22.4848C21.3995 22.2097 21.2343 21.5985 21.5094 21.1196C21.8572 20.5141 22.2498 19.9591 22.6943 19.5439Z" fill="#333333"/>
<path fill-rule="evenodd" clip-rule="evenodd" d="M24.4999 8C20.9101 8 17.9999 10.9101 17.9999 14.5V27H15.9999V14.5C15.9999 9.80558 19.8055 6 24.4999 6C29.1944 6 32.9999 9.80558 32.9999 14.5V27H30.9999V14.5C30.9999 10.9101 28.0898 8 24.4999 8Z" fill="#333333"/>
<path fill-rule="evenodd" clip-rule="evenodd" d="M24.4999 12C20.9101 12 17.9999 14.9101 17.9999 18.5V31C17.9999 31.5523 17.5522 32 16.9999 32C16.4477 32 15.9999 31.5523 15.9999 31V18.5C15.9999 13.8056 19.8055 10 24.4999 10C29.1944 10 32.9999 13.8056 32.9999 18.5V31C32.9999 31.5523 32.5522 32 31.9999 32C31.4477 32 30.9999 31.5523 30.9999 31V18.5C30.9999 14.9101 28.0898 12 24.4999 12Z" fill="#333333"/>
<path fill-rule="evenodd" clip-rule="evenodd" d="M36.0458 39.1584C36.9303 38.4967 37.9206 37.3685 38.7599 35.9148C39.5992 34.4611 40.0811 33.0393 40.2119 31.9425C40.2776 31.3922 40.2488 30.9734 40.1709 30.69C40.0946 30.4124 39.9944 30.3358 39.9568 30.3141C39.9192 30.2924 39.8028 30.244 39.5242 30.3167C39.2398 30.3909 38.8628 30.5754 38.419 30.9074C37.5346 31.5691 36.5442 32.6973 35.7049 34.151C34.8656 35.6047 34.3837 37.0265 34.2529 38.1233C34.1873 38.6736 34.216 39.0924 34.2939 39.3758C34.3703 39.6534 34.4704 39.73 34.508 39.7517C34.5456 39.7734 34.662 39.8218 34.9406 39.7491C35.225 39.6749 35.6021 39.4904 36.0458 39.1584ZM35.4455 41.6844C34.825 41.8462 34.1313 41.8437 33.508 41.4838C32.8847 41.1239 32.5356 40.5244 32.3655 39.9061C32.1971 39.2937 32.1823 38.5968 32.267 37.8864C32.4369 36.4617 33.0314 34.7817 33.9729 33.151C34.9144 31.5203 36.0721 30.1655 37.2209 29.306C37.7938 28.8774 38.4047 28.5418 39.0193 28.3814C39.6398 28.2196 40.3335 28.2222 40.9568 28.582C41.5802 28.9419 41.9293 29.5414 42.0993 30.1597C42.2677 30.7721 42.2826 31.469 42.1978 32.1794C42.0279 33.6041 41.4334 35.2841 40.4919 36.9148C39.5505 38.5455 38.3928 39.9003 37.2439 40.7598C36.671 41.1884 36.0601 41.524 35.4455 41.6844Z" fill="#333333"/>
<path fill-rule="evenodd" clip-rule="evenodd" d="M33.508 41.4838L30.3167 39.6414C29.6933 39.2815 29.3442 38.682 29.1742 38.0637C29.0058 37.4513 28.9909 36.7544 29.0757 36.044C29.2456 34.6193 29.8401 32.9393 30.7816 31.3086C31.723 29.6779 32.8807 28.3231 34.0296 27.4636C34.6025 27.035 35.2134 26.6994 35.828 26.539C36.4485 26.3772 37.1422 26.3798 37.7655 26.7396L40.9568 28.582L39.9568 30.3141L36.7655 28.4717C36.7279 28.45 36.6115 28.4016 36.3329 28.4743C36.0485 28.5485 35.6714 28.733 35.2277 29.065C34.3432 29.7267 33.3529 30.8549 32.5136 32.3086C31.6743 33.7623 31.1924 35.1841 31.0616 36.2809C30.9959 36.8312 31.0247 37.25 31.1026 37.5334C31.1789 37.811 31.2791 37.8876 31.3167 37.9093L34.508 39.7517L33.508 41.4838Z" fill="#333333"/>
<path fill-rule="evenodd" clip-rule="evenodd" d="M8.63836 31.9427C8.76917 33.0395 9.25108 34.4612 10.0904 35.9149C10.9297 37.3687 11.92 38.4969 12.8044 39.1586C13.2482 39.4906 13.6253 39.6751 13.9097 39.7493C14.1882 39.822 14.3047 39.7736 14.3423 39.7519C14.3799 39.7302 14.48 39.6535 14.5563 39.3759C14.6343 39.0925 14.663 38.6737 14.5974 38.1234C14.4665 37.0266 13.9846 35.6049 13.1453 34.1512C12.306 32.6974 11.3157 31.5692 10.4313 30.9076C9.98751 30.5756 9.61046 30.391 9.32605 30.3168C9.04748 30.2441 8.93106 30.2925 8.89345 30.3142C8.85584 30.336 8.75572 30.4126 8.67938 30.6902C8.60144 30.9736 8.57272 31.3924 8.63836 31.9427ZM6.75098 30.1598C6.92102 29.5415 7.27012 28.9421 7.89345 28.5822C8.51678 28.2223 9.21048 28.2197 9.83095 28.3816C10.4456 28.542 11.0565 28.8775 11.6294 29.3061C12.7782 30.1656 13.9359 31.5205 14.8774 33.1512C15.8189 34.7819 16.4134 36.4619 16.5833 37.8866C16.668 38.597 16.6532 39.2938 16.4847 39.9063C16.3147 40.5246 15.9656 41.124 15.3423 41.4839C14.7189 41.8438 14.0252 41.8464 13.4048 41.6845C12.7901 41.5242 12.1792 41.1886 11.6064 40.76C10.4575 39.9005 9.29982 38.5456 8.35833 36.9149C7.41684 35.2842 6.82235 33.6042 6.65243 32.1795C6.5677 31.4691 6.58254 30.7723 6.75098 30.1598Z" fill="#333333"/>
<path fill-rule="evenodd" clip-rule="evenodd" d="M7.89345 28.5822L11.0847 26.7397C11.708 26.3799 12.4017 26.3773 13.0222 26.5391C13.6368 26.6995 14.2477 27.0351 14.8206 27.4637C15.9694 28.3232 17.1271 29.678 18.0686 31.3087C19.0101 32.9394 19.6046 34.6194 19.7745 36.0441C19.8592 36.7545 19.8444 37.4514 19.676 38.0638C19.5059 38.6821 19.1568 39.2816 18.5335 39.6415L15.3423 41.4839L14.3423 39.7519L17.5335 37.9094C17.5711 37.8877 17.6712 37.8111 17.7476 37.5335C17.8255 37.2501 17.8542 36.8313 17.7886 36.281C17.6578 35.1842 17.1759 33.7624 16.3366 32.3087C15.4973 30.855 14.5069 29.7268 13.6225 29.0651C13.1787 28.7331 12.8017 28.5486 12.5173 28.4744C12.2387 28.4017 12.1223 28.4501 12.0847 28.4718L8.89345 30.3142L7.89345 28.5822Z" fill="#333333"/>
</svg>
