<svg width="48" height="48" viewBox="0 0 48 48" fill="none" xmlns="http://www.w3.org/2000/svg">
<rect x="14" y="21" width="20" height="23" rx="3" stroke="#333333" stroke-width="2"/>
<path fill-rule="evenodd" clip-rule="evenodd" d="M21 23H18C16.8954 23 16 23.8954 16 25V36V38H18L22 38V36H18V25H21V23ZM27 25H30V36H26V38L30 38H32V36V25C32 23.8954 31.1046 23 30 23H27V25Z" fill="#333333"/>
<circle cx="24" cy="31" r="4" stroke="#333333" stroke-width="2"/>
<path d="M24 22V27" stroke="#333333" stroke-width="2"/>
<path d="M24 35V38" stroke="#333333" stroke-width="2"/>
<path d="M22 21H26V23C26 23.5523 25.5523 24 25 24H23C22.4477 24 22 23.5523 22 23V21Z" fill="#333333"/>
<path fill-rule="evenodd" clip-rule="evenodd" d="M23 5L25 3V11H23V5ZM23 19H19V17H21V12C21 11.4477 21.4477 11 22 11H23V19ZM25 19H29V17H27V12C27 11.4477 26.5523 11 26 11H25V19Z" fill="#333333"/>
</svg>
