<svg width="48" height="48" viewBox="0 0 48 48" fill="none" xmlns="http://www.w3.org/2000/svg">
<path d="M25 3L23 5V11H22C21.4477 11 21 11.4477 21 12V17H19V19H23V11H25V19H29V17H27V12C27 11.4477 26.5523 11 26 11H25V3Z" fill="#333333"/>
<path d="M21 23H18C16.8954 23 16 23.8954 16 25V38H22V36H18V25H21V23Z" fill="#333333"/>
<path d="M27 25H30V36H26V38H32V25C32 23.8954 31.1046 23 30 23H27V25Z" fill="#333333"/>
<path fill-rule="evenodd" clip-rule="evenodd" d="M17 20C14.7909 20 13 21.7909 13 24V41C13 43.2091 14.7909 45 17 45H31C33.2091 45 35 43.2091 35 41V24C35 21.7909 33.2091 20 31 20H17ZM31 22H26V23C26 23.5523 25.5523 24 25 24V26.1C27.2822 26.5633 29 28.581 29 31C29 33.419 27.2822 35.4367 25 35.9V38H23V35.9C20.7178 35.4367 19 33.419 19 31C19 28.581 20.7178 26.5633 23 26.1V24C22.4477 24 22 23.5523 22 23V22H17C15.8954 22 15 22.8954 15 24V41C15 42.1046 15.8954 43 17 43H31C32.1046 43 33 42.1046 33 41V24C33 22.8954 32.1046 22 31 22ZM27 31C27 32.6569 25.6569 34 24 34C22.3431 34 21 32.6569 21 31C21 29.3431 22.3431 28 24 28C25.6569 28 27 29.3431 27 31Z" fill="#333333"/>
</svg>
