<svg width="48" height="48" viewBox="0 0 48 48" fill="none" xmlns="http://www.w3.org/2000/svg">
<path fill-rule="evenodd" clip-rule="evenodd" d="M24 20C27.3137 20 30 17.3137 30 14C30 10.6863 27.3137 8 24 8C20.6863 8 18 10.6863 18 14C18 17.3137 20.6863 20 24 20ZM24 22C28.4183 22 32 18.4183 32 14C32 9.58172 28.4183 6 24 6C19.5817 6 16 9.58172 16 14C16 18.4183 19.5817 22 24 22Z" fill="#333333"/>
<path fill-rule="evenodd" clip-rule="evenodd" d="M16 26C12.134 26 9 29.134 9 33C9 36.866 12.134 40 16 40V42C11.0294 42 7 37.9706 7 33C7 28.0294 11.0294 24 16 24H23.5V26H16Z" fill="#333333"/>
<path fill-rule="evenodd" clip-rule="evenodd" d="M32 26C35.866 26 39 29.134 39 33C39 36.866 35.866 40 32 40V31H30V42H32C36.9706 42 41 37.9706 41 33C41 28.0294 36.9706 24 32 24H27.5V26H32Z" fill="#333333"/>
<path fill-rule="evenodd" clip-rule="evenodd" d="M16 32C15.4477 32 15 32.4477 15 33C15 33.3689 15.1992 33.6924 15.5007 33.8668L14.4993 35.598C13.6052 35.0808 13 34.1117 13 33C13 31.3431 14.3431 30 16 30H18V32H16Z" fill="#333333"/>
<path fill-rule="evenodd" clip-rule="evenodd" d="M23.0523 24H28.9856L21.9265 41.3764L20.0735 40.6236L26.0144 26H23.9477L11.7459 39.666L10.2541 38.334L23.0523 24Z" fill="#333333"/>
<path fill-rule="evenodd" clip-rule="evenodd" d="M30 30H32C33.6569 30 35 31.3431 35 33C35 34.6569 33.6569 36 32 36V34C32.5523 34 33 33.5523 33 33C33 32.4477 32.5523 32 32 32V33H30V30Z" fill="#333333"/>
<path fill-rule="evenodd" clip-rule="evenodd" d="M26 38C26 36.8954 25.1046 36 24 36V34C26.2091 34 28 35.7909 28 38C28 40.2091 26.2091 42 24 42H16V40H24C25.1046 40 26 39.1046 26 38Z" fill="#333333"/>
</svg>
