<svg width="48" height="48" viewBox="0 0 48 48" fill="none" xmlns="http://www.w3.org/2000/svg">
<mask id="path-1-inside-1" fill="white">
<path d="M27 17C27.5523 17 28.0047 17.4487 27.9546 17.9987C27.7221 20.5498 26.6043 22.952 24.7782 24.7782C22.7153 26.8411 19.9174 28 17 28C14.0826 28 11.2847 26.8411 9.22183 24.7782C7.39566 22.952 6.27789 20.5499 6.0454 17.9987C5.99528 17.4487 6.44772 17 7 17L10.5 17C11.0523 17 11.4908 17.4514 11.5906 17.9945C11.7909 19.0836 12.317 20.0952 13.1109 20.8891C14.1424 21.9205 15.5413 22.5 17 22.5C18.4587 22.5 19.8576 21.9205 20.8891 20.8891C21.683 20.0952 22.2091 19.0836 22.4094 17.9945C22.5092 17.4514 22.9477 17 23.5 17H27Z"/>
</mask>
<path d="M27 17C27.5523 17 28.0047 17.4487 27.9546 17.9987C27.7221 20.5498 26.6043 22.952 24.7782 24.7782C22.7153 26.8411 19.9174 28 17 28C14.0826 28 11.2847 26.8411 9.22183 24.7782C7.39566 22.952 6.27789 20.5499 6.0454 17.9987C5.99528 17.4487 6.44772 17 7 17L10.5 17C11.0523 17 11.4908 17.4514 11.5906 17.9945C11.7909 19.0836 12.317 20.0952 13.1109 20.8891C14.1424 21.9205 15.5413 22.5 17 22.5C18.4587 22.5 19.8576 21.9205 20.8891 20.8891C21.683 20.0952 22.2091 19.0836 22.4094 17.9945C22.5092 17.4514 22.9477 17 23.5 17H27Z" stroke="#333333" stroke-width="4" mask="url(#path-1-inside-1)"/>
<path d="M14 26V29C14 30.6569 15.3431 32 17 32V32C18.6569 32 20 30.6569 20 29V26.4286" stroke="#333333" stroke-width="2"/>
<path d="M17 32V37.75C17 41.2018 19.7982 44 23.25 44V44C26.7018 44 29.5 41.2018 29.5 37.75V28.75C29.5 26.1266 31.6266 24 34.25 24V24C36.8734 24 39 26.1266 39 28.75V33" stroke="#333333" stroke-width="2"/>
<circle cx="39" cy="34" r="2" stroke="#333333" stroke-width="2"/>
<path d="M9 17V8C9 6.89543 9.89543 6 11 6H13" stroke="#333333" stroke-width="2"/>
<circle cx="13" cy="6" r="1" stroke="#333333" stroke-width="2"/>
<path d="M25 17V8C25 6.89543 24.1046 6 23 6H21" stroke="#333333" stroke-width="2"/>
<circle r="1" transform="matrix(-1 0 0 1 21 6)" stroke="#333333" stroke-width="2"/>
</svg>
