<svg width="48" height="48" viewBox="0 0 48 48" fill="none" xmlns="http://www.w3.org/2000/svg">
<path fill-rule="evenodd" clip-rule="evenodd" d="M25.775 19H24.2285C23.8859 20.2381 23.2277 21.3789 22.3033 22.3033C20.8968 23.7098 18.9892 24.5 17 24.5C15.0109 24.5 13.1032 23.7098 11.6967 22.3033C10.7723 21.3789 10.1142 20.2381 9.7716 19L8.22502 19C8.59877 20.6396 9.42797 22.1559 10.6361 23.364C12.3239 25.0518 14.6131 26 17 26C19.387 26 21.6762 25.0518 23.364 23.364C24.5721 22.1559 25.4013 20.6396 25.775 19ZM27.9546 17.9987C28.0047 17.4487 27.5523 17 27 17H23.5C22.9477 17 22.5093 17.4514 22.4094 17.9945C22.2092 19.0836 21.683 20.0952 20.8891 20.8891C19.8577 21.9205 18.4587 22.5 17 22.5C15.5413 22.5 14.1424 21.9205 13.1109 20.8891C12.317 20.0952 11.7909 19.0836 11.5907 17.9945C11.4908 17.4514 11.0523 17 10.5 17L7.00003 17C6.44774 17 5.9953 17.4487 6.04543 17.9987C6.27792 20.5499 7.39568 22.952 9.22185 24.7782C11.2848 26.8411 14.0826 28 17 28C19.9174 28 22.7153 26.8411 24.7782 24.7782C26.6044 22.952 27.7221 20.5499 27.9546 17.9987Z" fill="#333333"/>
<path fill-rule="evenodd" clip-rule="evenodd" d="M13 29V26H15V29C15 30.1046 15.8955 31 17 31C18.1046 31 19 30.1046 19 29V26.4286H21V29C21 31.2091 19.2092 33 17 33C14.7909 33 13 31.2091 13 29Z" fill="#333333"/>
<path fill-rule="evenodd" clip-rule="evenodd" d="M34.25 25C32.179 25 30.5 26.6789 30.5 28.75V37.75C30.5 41.7541 27.2541 45 23.25 45C19.246 45 16 41.7541 16 37.75V32H18V37.75C18 40.6495 20.3505 43 23.25 43C26.1495 43 28.5 40.6495 28.5 37.75V28.75C28.5 25.5744 31.0744 23 34.25 23C37.4257 23 40 25.5744 40 28.75V33H38V28.75C38 26.6789 36.3211 25 34.25 25Z" fill="#333333"/>
<path fill-rule="evenodd" clip-rule="evenodd" d="M39 35C39.5523 35 40 34.5523 40 34C40 33.4477 39.5523 33 39 33C38.4477 33 38 33.4477 38 34C38 34.5523 38.4477 35 39 35ZM39 37C40.6569 37 42 35.6569 42 34C42 32.3431 40.6569 31 39 31C37.3432 31 36 32.3431 36 34C36 35.6569 37.3432 37 39 37Z" fill="#333333"/>
<path fill-rule="evenodd" clip-rule="evenodd" d="M11 7C10.4477 7 10 7.44772 10 8V17H8.00003V8C8.00003 6.34315 9.34317 5 11 5H13V7H11Z" fill="#333333"/>
<path fill-rule="evenodd" clip-rule="evenodd" d="M13 8C14.1046 8 15 7.10457 15 6C15 4.89543 14.1046 4 13 4C11.8955 4 11 4.89543 11 6C11 7.10457 11.8955 8 13 8Z" fill="#333333"/>
<path fill-rule="evenodd" clip-rule="evenodd" d="M23 7C23.5523 7 24 7.44772 24 8V17H26V8C26 6.34315 24.6569 5 23 5H21V7H23Z" fill="#333333"/>
<path fill-rule="evenodd" clip-rule="evenodd" d="M21 8C19.8955 8 19 7.10457 19 6C19 4.89543 19.8955 4 21 4C22.1046 4 23 4.89543 23 6C23 7.10457 22.1046 8 21 8Z" fill="#333333"/>
</svg>
