<svg width="48" height="48" viewBox="0 0 48 48" fill="none" xmlns="http://www.w3.org/2000/svg">
<path fill-rule="evenodd" clip-rule="evenodd" d="M17 15.0001V5.38208L15.5528 6.10569L16 7.00011C15.5528 6.10569 15.5515 6.10634 15.5515 6.10634L15.5501 6.10704L15.5471 6.10856L15.5401 6.11211L15.5227 6.12124C15.5094 6.12824 15.493 6.13711 15.4737 6.14793C15.4351 6.16956 15.3847 6.19903 15.3241 6.23713C15.2029 6.31331 15.0407 6.42405 14.85 6.57563C14.4682 6.87909 13.9734 7.34535 13.4661 8.02329C12.4458 9.3867 11.406 11.5644 11.094 14.9079C10.9751 16.182 11.7073 17.2405 12.7429 17.7216C12.2842 18.1748 12 18.8042 12 19.5V40.5C12 41.8807 13.1193 43 14.5 43C15.8807 43 17 41.8807 17 40.5V19.5C17 18.6065 16.5312 17.8224 15.8262 17.3804C16.54 16.832 17 15.9698 17 15.0001ZM13.0854 15.0937C13.3571 12.181 14.2289 10.3777 15 9.3131V15.0001C15 15.5524 14.5523 16.0001 14 16.0001C13.4191 16.0001 13.0434 15.544 13.0854 15.0937ZM15 19.5859V19.5C15 19.2239 14.7761 19 14.5 19C14.2239 19 14 19.2239 14 19.5V20.5859L15 19.5859ZM15 22.4143V23.5859L14 24.5859V23.4143L15 22.4143ZM15 27.5859V26.4143L14 27.4143V28.5859L15 27.5859ZM14 31.4143V40.5C14 40.7761 14.2239 41 14.5 41C14.7761 41 15 40.7761 15 40.5V30.4143L14 31.4143Z" fill="#333333"/>
<path fill-rule="evenodd" clip-rule="evenodd" d="M25 35C25.813 35 26.5693 35.2425 27.2006 35.6592L29.0018 5.93945L30 5.99995L30.9982 5.93945L32.7994 35.6592C33.4307 35.2425 34.187 35 35 35C37.2091 35 39 36.7909 39 39C39 41.2091 37.2091 43 35 43C32.8017 43 31.0175 41.2266 31.0001 39.0323L30.7557 35H29.2443L28.9999 39.0323C28.9825 41.2266 27.1984 43 25 43C22.7909 43 21 41.2091 21 39C21 36.7909 22.7909 35 25 35ZM30 22.5302L30.6345 33H29.3655L30 22.5302ZM30 20C30.5523 20 31 19.5523 31 19C31 18.4477 30.5523 18 30 18C29.4477 18 29 18.4477 29 19C29 19.5523 29.4477 20 30 20ZM25 37C23.8954 37 23 37.8954 23 39C23 40.1046 23.8954 41 25 41C26.1046 41 27 40.1046 27 39C27 37.8954 26.1046 37 25 37ZM33 39C33 37.8954 33.8954 37 35 37C36.1046 37 37 37.8954 37 39C37 40.1046 36.1046 41 35 41C33.8954 41 33 40.1046 33 39Z" fill="#333333"/>
</svg>
