<svg width="48" height="48" viewBox="0 0 48 48" fill="none" xmlns="http://www.w3.org/2000/svg">
<path fill-rule="evenodd" clip-rule="evenodd" d="M8.7365 15.8074C8.34597 15.4169 8.34597 14.7838 8.7365 14.3932L14.3934 8.73637C14.7839 8.34585 15.417 8.34585 15.8076 8.73637C16.1981 9.1269 16.1981 9.76006 15.8076 10.1506L15.1004 10.8577L18.6359 14.3932L21.4644 11.5648C21.8549 11.1743 22.488 11.1743 22.8786 11.5648C23.2691 11.9553 23.2691 12.5885 22.8786 12.979L21.4644 14.3932L33.6066 26.5355C35.0347 27.9635 35.3812 30.0635 34.6462 31.8176L35.6066 32.778C36.13 33.3015 36.3027 34.0429 36.1245 34.7101L38.4349 37.0206C38.8255 37.4111 38.8255 38.0443 38.4349 38.4348C38.0444 38.8253 37.4113 38.8253 37.0207 38.4348L34.7103 36.1243C34.043 36.3025 33.3016 36.1299 32.7782 35.6064L31.8178 34.646C30.0636 35.3811 27.9636 35.0346 26.5356 33.6065L22.453 29.5239L22.4435 29.5146L22.4342 29.5051L14.3933 21.4643L12.9791 22.8785C12.5886 23.269 11.9554 23.269 11.5649 22.8785C11.1743 22.488 11.1743 21.8548 11.5649 21.4643L14.3933 18.6359L10.8578 15.1004L10.1507 15.8074C10.1019 15.8563 10.0493 15.899 9.99384 15.9356C9.60569 16.1919 9.07821 16.1492 8.7365 15.8074ZM15.8075 17.2216L17.2217 15.8074L13.6862 12.2719L12.272 13.6862L15.8075 17.2216ZM20.0501 15.8074L15.8076 20.0501L19.6152 23.8577L23.8578 19.6151L20.0501 15.8074ZM25.9791 30.2216L27.3933 28.8074C27.7839 28.4169 28.417 28.4169 28.8076 28.8074C29.1981 29.198 29.1981 29.8311 28.8076 30.2216L27.3933 31.6359L27.9498 32.1923C29.0543 33.2968 30.845 33.2968 31.9495 32.1923L32.1924 31.9494C33.2969 30.8449 33.2969 29.0542 32.1924 27.9497L25.272 21.0293L21.0294 25.2719L23.1507 27.3932L24.5648 25.9791C24.9554 25.5885 25.5885 25.5885 25.9791 25.9791C26.3696 26.3696 26.3696 27.0028 25.9791 27.3933L24.5649 28.8074L25.9791 30.2216Z" fill="#333333"/>
</svg>
