<svg width="48" height="48" viewBox="0 0 48 48" fill="none" xmlns="http://www.w3.org/2000/svg">
<path d="M12.3935 20.0503L18.0503 14.3934L30.8997 27.2428C32.3947 28.7378 32.3947 31.1617 30.8997 32.6568L30.6568 32.8997C29.1618 34.3947 26.7379 34.3947 25.2428 32.8997L12.3935 20.0503Z" stroke="#333333" stroke-width="2"/>
<rect x="16.9083" y="25.272" width="9" height="1" transform="rotate(-45 16.9083 25.272)" fill="#333333" stroke="#333333"/>
<rect x="8.85806" y="13.686" width="4" height="7" transform="rotate(-45 8.85806 13.686)" stroke="#333333" stroke-width="2"/>
<rect x="6.73665" y="15.1006" width="9" height="1" rx="0.5" transform="rotate(-45 6.73665 15.1006)" fill="#333333" stroke="#333333"/>
<rect x="32.1925" y="34.8994" width="1" height="5" rx="0.5" transform="rotate(-45 32.1925 34.8994)" fill="#333333" stroke="#333333"/>
<path d="M30.0712 33.4854L31.4854 32.0711L32.8996 33.4854C33.2901 33.8759 33.2901 34.509 32.8996 34.8996C32.5091 35.2901 31.8759 35.2901 31.4854 34.8996L30.0712 33.4854Z" fill="#82FF9D" stroke="#333333" stroke-width="2"/>
<rect x="20.4437" y="28.8076" width="4" height="1" rx="0.5" transform="rotate(-45 20.4437 28.8076)" fill="#333333" stroke="#333333"/>
<rect x="23.272" y="31.6357" width="4" height="1" rx="0.5" transform="rotate(-45 23.272 31.6357)" fill="#333333" stroke="#333333"/>
<rect x="9.56502" y="22.1714" width="15" height="1" rx="0.5" transform="rotate(-45 9.56502 22.1714)" fill="#333333" stroke="#333333"/>
</svg>
