<svg width="48" height="48" viewBox="0 0 48 48" fill="none" xmlns="http://www.w3.org/2000/svg">
<path d="M4.74512 20.6768H8.34512C12.2111 20.6768 15.3451 23.8108 15.3451 27.6768V29.4768H4.74512V20.6768Z" stroke="#333333" stroke-width="2"/>
<circle cx="23.9951" cy="23.7266" r="5.75" stroke="#333333" stroke-width="2"/>
<path d="M35.2451 33.1768H5.54512C4.551 33.1768 3.74512 33.9826 3.74512 34.9768V34.9768C3.74512 35.9709 4.551 36.7768 5.54512 36.7768H30.766" stroke="#333333" stroke-width="2"/>
<path d="M11.149 36.7836V35.7836H8.76835L10.4349 37.4836L11.149 36.7836ZM17.0268 36.7836L17.512 35.9092L17.2857 35.7836H17.0268V36.7836ZM14.4787 13.3836V14.3836H14.8569L15.1404 14.1333L14.4787 13.3836ZM9.60229 13.3836L8.80273 12.783L7.60049 14.3836H9.60229V13.3836ZM24.0036 43.1836C34.497 43.1836 43.0036 34.677 43.0036 24.1836H41.0036C41.0036 33.5724 33.3925 41.1836 24.0036 41.1836V43.1836ZM10.4349 37.4836C13.8821 41 18.6888 43.1836 24.0036 43.1836V41.1836C19.2478 41.1836 14.9497 39.2321 11.8631 36.0835L10.4349 37.4836ZM17.0268 35.7836H11.149V37.7836H17.0268V35.7836ZM16.5416 37.658C18.7531 38.8852 21.2983 39.5836 24.0036 39.5836V37.5836C21.6465 37.5836 19.4342 36.9758 17.512 35.9092L16.5416 37.658ZM24.0036 39.5836C32.5088 39.5836 39.4036 32.6888 39.4036 24.1836H37.4036C37.4036 31.5842 31.4043 37.5836 24.0036 37.5836V39.5836ZM39.4036 24.1836C39.4036 15.6784 32.5088 8.78359 24.0036 8.78359V10.7836C31.4043 10.7836 37.4036 16.783 37.4036 24.1836H39.4036ZM24.0036 8.78359C20.0987 8.78359 16.5311 10.2383 13.8169 12.6339L15.1404 14.1333C17.5032 12.0479 20.6046 10.7836 24.0036 10.7836V8.78359ZM9.60229 14.3836H14.4787V12.3836H9.60229V14.3836ZM24.0036 5.18359C17.7869 5.18359 12.2674 8.17037 8.80273 12.783L10.4019 13.9842C13.5051 9.8528 18.4425 7.18359 24.0036 7.18359V5.18359ZM43.0036 24.1836C43.0036 13.6902 34.497 5.18359 24.0036 5.18359V7.18359C33.3925 7.18359 41.0036 14.7948 41.0036 24.1836H43.0036Z" fill="#333333"/>
</svg>
