<svg width="48" height="48" viewBox="0 0 48 48" fill="none" xmlns="http://www.w3.org/2000/svg">
<path fill-rule="evenodd" clip-rule="evenodd" d="M21.013 29.511C21.1146 30.2168 20.8326 30.9234 20.273 31.3653C18.8763 32.4685 17.9863 34.1711 17.9879 36.0823C17.9906 39.396 20.6791 42.0801 23.9928 42.0774C27.3065 42.0747 29.9906 39.3862 29.9879 36.0725C29.9863 34.1613 29.0936 32.4601 27.695 31.3593C27.1347 30.9182 26.8516 30.2121 26.952 29.5061C26.9719 29.3663 26.9823 29.2225 26.9821 29.075L26.9658 9.07497C26.9644 7.41812 25.6202 6.07607 23.9633 6.07743C22.3065 6.07879 20.9644 7.42303 20.9658 9.07989L20.9821 29.0799C20.9823 29.2274 20.9929 29.3712 21.013 29.511ZM18.9658 9.08153C18.9635 6.3201 21.2002 4.07969 23.9617 4.07743C26.7231 4.07517 28.9635 6.31191 28.9658 9.07334L28.9821 29.0733C28.9823 29.3159 28.9653 29.5544 28.9321 29.7877C30.7912 31.2512 31.9858 33.5212 31.9879 36.0709C31.9915 40.4891 28.4127 44.0738 23.9944 44.0774C19.5762 44.081 15.9915 40.5023 15.9879 36.084C15.9858 33.5343 17.1767 31.2623 19.0334 29.7958C18.9998 29.5626 18.9823 29.3241 18.9821 29.0815L18.9658 9.08153Z" fill="#333333"/>
<path d="M23.9674 11.0774C23.9669 10.5251 24.4143 10.077 24.9666 10.0766L26.9666 10.0749L26.9682 12.0749L24.9682 12.0766C24.4159 12.077 23.9678 11.6297 23.9674 11.0774Z" fill="#333333"/>
<path d="M23.9707 15.0774C23.9702 14.5251 24.4176 14.077 24.9698 14.0766L26.9698 14.0749L26.9715 16.0749L24.9715 16.0766C24.4192 16.077 23.9711 15.6297 23.9707 15.0774Z" fill="#333333"/>
<path d="M23.974 19.0774C23.9735 18.5251 24.4209 18.077 24.9731 18.0766L26.9731 18.0749L26.9748 20.0749L24.9748 20.0766C24.4225 20.077 23.9744 19.6297 23.974 19.0774Z" fill="#333333"/>
<path fill-rule="evenodd" clip-rule="evenodd" d="M19.2907 30.3741L29.2989 40.3658L30.7119 38.9504L20.7037 28.9587L19.2907 30.3741Z" fill="#333333"/>
<path fill-rule="evenodd" clip-rule="evenodd" d="M19.2874 26.3742L30.2964 37.3651L31.7095 35.9497L20.7005 24.9588L19.2874 26.3742Z" fill="#333333"/>
<path fill-rule="evenodd" clip-rule="evenodd" d="M20.6997 23.7872L27.205 30.2818L28.618 28.8665L22.1127 22.3718L20.6997 23.7872Z" fill="#333333"/>
<path fill-rule="evenodd" clip-rule="evenodd" d="M24.6999 23.784L27.2018 26.2818L28.6149 24.8665L26.1129 22.3686L24.6999 23.784Z" fill="#333333"/>
<path fill-rule="evenodd" clip-rule="evenodd" d="M19.9763 22.0808L27.9764 22.0742L27.978 24.0742L19.9779 24.0808L19.9763 22.0808Z" fill="#333333"/>
<path fill-rule="evenodd" clip-rule="evenodd" d="M18 33.0823L28.0082 43.0741L29.4213 41.6587L19.4131 31.6669L18 33.0823Z" fill="#333333"/>
<path fill-rule="evenodd" clip-rule="evenodd" d="M16.7094 35.7906L24.716 43.784L26.129 42.3686L18.1224 34.3752L16.7094 35.7906Z" fill="#333333"/>
</svg>
