<svg width="48" height="48" viewBox="0 0 48 48" fill="none" xmlns="http://www.w3.org/2000/svg">
<path fill-rule="evenodd" clip-rule="evenodd" d="M35.9723 39.531L34.1051 40.7237L35.8942 43.5244C36.2235 44.04 36.9085 44.1909 37.4241 43.8616C37.9397 43.5322 38.0906 42.8473 37.7613 42.3317L35.9723 39.531ZM33.0326 39.0356C33.0659 39.0877 33.0994 39.1401 33.133 39.1926L35.0001 37.9999C34.9665 37.9474 34.9331 37.895 34.8998 37.8429C27.7958 26.698 27.7994 24.1659 27.8014 22.7512C27.8019 22.4078 27.8023 22.1303 27.7009 21.8113C27.5374 21.297 27.4326 20.8745 27.3381 20.4937C27.1315 19.6613 26.9743 19.0276 26.3606 18.0668L17.8767 4.78566C17.2821 3.85479 16.0454 3.58222 15.1146 4.17684L10.8004 6.93265C9.86957 7.52727 9.59699 8.76392 10.1916 9.69478L18.6754 22.976C19.2892 23.9368 19.798 24.3458 20.4665 24.8832C20.7723 25.1291 21.1115 25.4017 21.5094 25.7664C21.7563 25.9925 22.0085 26.1088 22.3207 26.2527C23.6061 26.845 25.9078 27.9056 33.0326 39.0356ZM11.8771 8.61812L16.1912 5.86231L24.6751 19.1435C25.1095 19.8235 25.2046 20.2001 25.3969 20.9754L25.3997 20.9866C25.4939 21.3662 25.6113 21.8392 25.7938 22.4137C25.7943 22.4173 25.7952 22.4243 25.7961 22.436C25.7978 22.4567 25.7996 22.4888 25.8005 22.5416C25.8016 22.5973 25.8016 22.6585 25.8014 22.7484C25.8002 23.6389 25.8334 24.8144 26.702 27.0689C25.0207 25.3331 23.9669 24.8091 23.1578 24.4362C23.076 24.3986 23.0204 24.3729 22.9703 24.3486C22.9228 24.3255 22.8944 24.3104 22.8764 24.3002C22.8665 24.2946 22.8606 24.291 22.8575 24.289C22.4131 23.882 22.0334 23.5767 21.7286 23.3317L21.7196 23.3244C21.097 22.824 20.7952 22.5793 20.3609 21.8993L11.8771 8.61812Z" fill="#333333"/>
<path fill-rule="evenodd" clip-rule="evenodd" d="M19.8438 8.46321C20.1403 8.92915 20.0029 9.54724 19.537 9.84375L14.0369 13.3438C13.571 13.6403 12.9529 13.503 12.6564 13.037C12.3599 12.5711 12.4972 11.953 12.9632 11.6565L18.4632 8.15643C18.9292 7.85992 19.5473 7.99727 19.8438 8.46321Z" fill="#333333"/>
<path d="M19.1475 12.4217L24.0566 20.1068L21.4949 21.7431L16.5858 14.0581L19.1475 12.4217Z" fill="#333333"/>
</svg>
