<svg width="48" height="48" viewBox="0 0 48 48" fill="none" xmlns="http://www.w3.org/2000/svg">
<path fill-rule="evenodd" clip-rule="evenodd" d="M36 7H34V8H35V10V19C35 21.2315 33.7551 23.463 32.6543 25C31.7819 26.2181 31 27 31 27H33H33.6499H35V29H36V27H41V29H37C40.3137 29 43 31.6863 43 35V37H41H40H38V35C38 34.4477 37.5523 34 37 34H35V34.5014V39V41H34V43H32V41H10V43H8L8 41H7V39V34.5017V32V29V27H8.35006H9H11C11 27 10.2181 26.2181 9.3457 25C8.2449 23.463 7 21.2315 7 19V10V8H8L8 7H6V5H36V7ZM35 32V31H37C39.2091 31 41 32.7909 41 35H40C40 33.3431 38.6569 32 37 32H35ZM33 32V33.3466C30.5556 34.5439 28.1111 34.096 25.6667 32C25.1111 32.4762 24.5556 32.8673 24 33.1735V29H25V23H23V29H22V23H20V29H19V23H17V29H18V33.1735C17.4444 32.8673 16.8889 32.4762 16.3333 32C13.8889 34.0952 11.4444 34.5442 9 33.3469V29H11H14H15.8284H16V23H14V27.1716L13 26.1716V23H11V23.8749C10.8891 23.7209 10.7765 23.5592 10.6641 23.3906C9.73051 21.9902 9 20.3988 9 19V18H33V19C33 20.3988 32.2695 21.9902 31.3359 23.3906C31.2235 23.5592 31.1109 23.7209 31 23.8749V23H29V26.1716L28 27.1716V23H26V29H26.1716H28H31H33V31V32ZM20 29H22V33.9082C21.3333 34.0306 20.6667 34.0306 20 33.9082V29ZM9 35.5186V39H33V35.5183C32.1429 35.8308 31.2533 35.9998 30.3336 36C28.6755 36.0002 27.1151 35.4516 25.6665 34.5018C24.2182 35.4512 22.658 36 21 36C19.342 36 17.7817 35.4512 16.3333 34.5017C14.8849 35.4512 13.3247 36 11.6667 36C10.7469 36 9.8572 35.8311 9 35.5186ZM10 7H32V8H10V7ZM9 16V10H33V16H9ZM40.5 43C41.3284 43 42 42.186 42 41.1818C42 39.5909 40.5 38 40.5 38C40.5 38 39 39.5909 39 41.1818C39 42.186 39.6716 43 40.5 43Z" fill="#333333"/>
</svg>
