<svg width="48" height="48" viewBox="0 0 48 48" fill="none" xmlns="http://www.w3.org/2000/svg">
<rect width="48" height="48" fill="white"/>
<path fill-rule="evenodd" clip-rule="evenodd" d="M12.5455 9.96394L10.4648 12.0447L15.0001 16.58L17.0807 14.4993L12.5455 9.96394ZM7.63644 12.0447L15.0001 19.4085L19.9091 14.4993L12.5455 7.13548L7.63644 12.0447Z" fill="#333333"/>
<path d="M6.81815 14.5002C6.36628 14.0483 6.36628 13.3157 6.81815 12.8638L13.3636 6.31822C13.8155 5.86634 14.5481 5.86634 14.9999 6.31822C15.4518 6.7701 15.4518 7.50274 14.9999 7.95462L8.45451 14.5002C8.00264 14.9521 7.27002 14.9521 6.81815 14.5002Z" fill="#333333"/>
<path fill-rule="evenodd" clip-rule="evenodd" d="M6.81815 12.8638C6.36628 13.3157 6.36628 14.0483 6.81815 14.5002C7.27002 14.9521 8.00264 14.9521 8.45451 14.5002L14.9999 7.95462C15.4518 7.50274 15.4518 6.7701 14.9999 6.31822C14.5481 5.86634 13.8155 5.86634 13.3636 6.31822L6.81815 12.8638Z" fill="#333333"/>
<path d="M36.7735 37.9098C36.3216 37.4579 36.3216 36.7253 36.7735 36.2734C37.2254 35.8215 37.958 35.8215 38.4099 36.2734L41.1818 39.0454C41.6337 39.4973 41.6337 40.23 41.1818 40.6818C40.7299 41.1337 39.9973 41.1337 39.5455 40.6818L36.7735 37.9098Z" fill="#333333"/>
<path fill-rule="evenodd" clip-rule="evenodd" d="M36.7735 36.2734C36.3216 36.7253 36.3216 37.4579 36.7735 37.9098L39.5455 40.6818C39.9973 41.1337 40.7299 41.1337 41.1818 40.6818C41.6337 40.23 41.6337 39.4973 41.1818 39.0454L38.4099 36.2734C37.958 35.8215 37.2254 35.8215 36.7735 36.2734Z" fill="#333333"/>
<path fill-rule="evenodd" clip-rule="evenodd" d="M35.4543 34.5106L35.01 34.9549L36.0503 35.9953C36.173 36.118 36.372 36.118 36.4947 35.9953C36.6174 35.8726 36.6174 35.6737 36.4947 35.551L35.4543 34.5106ZM32.1816 34.9549L34.6361 37.4095C35.5399 38.3133 37.0051 38.3133 37.9089 37.4095C38.8126 36.5058 38.8126 35.0405 37.9089 34.1367L35.4543 31.6821L32.1816 34.9549Z" fill="#333333"/>
<path d="M10.0909 22.6811C9.63899 22.2293 9.63899 21.4966 10.0909 21.0447L21.5454 9.58995C21.9972 9.13808 22.7299 9.13807 23.1817 9.58995C23.6336 10.0418 23.6336 10.7745 23.1817 11.2264L11.7272 22.6811C11.2753 23.133 10.5427 23.133 10.0909 22.6811Z" fill="#333333"/>
<path fill-rule="evenodd" clip-rule="evenodd" d="M10.0909 21.0447C9.63899 21.4966 9.63899 22.2293 10.0909 22.6811C10.5427 23.133 11.2753 23.133 11.7272 22.6811L23.1817 11.2264C23.6336 10.7745 23.6336 10.0418 23.1817 9.58995C22.7299 9.13807 21.9972 9.13808 21.5454 9.58995L10.0909 21.0447Z" fill="#333333"/>
<path fill-rule="evenodd" clip-rule="evenodd" d="M19.9091 14.0558L14.5557 19.4093L18.22 23.0737C17.8201 23.0251 17.413 23 17 23C16.469 23 15.9476 23.0414 15.439 23.1211L11.7273 19.4093L19.9091 11.2273L35.4545 26.7731C37.7138 29.0325 37.7138 32.6957 35.4545 34.9551C33.1951 37.2145 29.532 37.2145 27.2727 34.9551L26.8788 34.5612C26.9586 34.0525 27 33.5311 27 33C27 32.3584 26.9395 31.731 26.8241 31.123L31.9 26.047L19.9091 14.0558ZM28.6869 33.5409L28.1829 33.0369L33.5363 27.6834L34.0403 28.1873C35.5186 29.6657 35.5186 32.0625 34.0403 33.5409C32.562 35.0192 30.1652 35.0192 28.6869 33.5409Z" fill="#333333"/>
<path fill-rule="evenodd" clip-rule="evenodd" d="M17 30C15.3431 30 14 31.3432 14 33C14 34.6569 15.3431 36 17 36C18.6568 36 20 34.6569 20 33C20 31.3432 18.6568 30 17 30ZM12 33C12 30.2386 14.2385 28 17 28C19.7614 28 22 30.2386 22 33C22 35.7614 19.7614 38 17 38C14.2385 38 12 35.7614 12 33Z" fill="#333333"/>
<path fill-rule="evenodd" clip-rule="evenodd" d="M22.7071 27.2929C23.0976 27.6834 23.0976 28.3166 22.7071 28.7071L20.7071 30.7071C20.3166 31.0977 19.6834 31.0977 19.2929 30.7071C18.9023 30.3166 18.9023 29.6834 19.2929 29.2929L21.2929 27.2929C21.6834 26.9024 22.3166 26.9024 22.7071 27.2929Z" fill="#333333"/>
<path fill-rule="evenodd" clip-rule="evenodd" d="M24 31C24.5523 31 25 31.4477 25 32V34C25 34.5523 24.5523 35 24 35C23.4477 35 23 34.5523 23 34V32C23 31.4477 23.4477 31 24 31Z" fill="#333333"/>
<path fill-rule="evenodd" clip-rule="evenodd" d="M19 40C19 40.5523 18.5523 41 18 41H16C15.4477 41 15 40.5523 15 40C15 39.4477 15.4477 39 16 39H18C18.5523 39 19 39.4477 19 40Z" fill="#333333"/>
<path fill-rule="evenodd" clip-rule="evenodd" d="M23.4142 36.5859C23.8048 36.9764 23.8048 37.6096 23.4142 38.0001L22 39.4143C21.6095 39.8048 20.9763 39.8048 20.5858 39.4143C20.1953 39.0238 20.1953 38.3906 20.5858 38.0001L22 36.5859C22.3905 36.1954 23.0237 36.1954 23.4142 36.5859Z" fill="#333333"/>
<path fill-rule="evenodd" clip-rule="evenodd" d="M9.99997 31C10.5523 31 11 31.4477 11 32V34C11 34.5523 10.5523 35 9.99997 35C9.44768 35 8.99997 34.5523 8.99997 34V32C8.99997 31.4477 9.44768 31 9.99997 31Z" fill="#333333"/>
<path fill-rule="evenodd" clip-rule="evenodd" d="M10.5857 36.5859C10.9762 36.1954 11.6094 36.1954 11.9999 36.5859L13.4141 38.0001C13.8047 38.3906 13.8047 39.0238 13.4141 39.4143C13.0236 39.8048 12.3904 39.8048 11.9999 39.4143L10.5857 38.0001C10.1952 37.6096 10.1952 36.9764 10.5857 36.5859Z" fill="#333333"/>
<path fill-rule="evenodd" clip-rule="evenodd" d="M19 26C19 26.5523 18.5523 27 18 27H16C15.4477 27 15 26.5523 15 26C15 25.4477 15.4477 25 16 25H18C18.5523 25 19 25.4477 19 26Z" fill="#333333"/>
<path fill-rule="evenodd" clip-rule="evenodd" d="M13.4142 26.5859C13.8048 26.9764 13.8048 27.6096 13.4142 28.0001L12 29.4143C11.6095 29.8048 10.9763 29.8048 10.5858 29.4143C10.1953 29.0238 10.1953 28.3906 10.5858 28.0001L12 26.5859C12.3905 26.1954 13.0237 26.1954 13.4142 26.5859Z" fill="#333333"/>
<path fill-rule="evenodd" clip-rule="evenodd" d="M23.4142 29.4142C23.0237 29.8047 22.3905 29.8047 22 29.4142L20.5858 27.9999C20.1953 27.6094 20.1953 26.9763 20.5858 26.5857C20.9763 26.1952 21.6095 26.1952 22 26.5857L23.4142 27.9999C23.8048 28.3905 23.8048 29.0236 23.4142 29.4142Z" fill="#333333"/>
<path fill-rule="evenodd" clip-rule="evenodd" d="M20 33C20 32.4477 20.4477 32 21 32H24C24.5523 32 25 32.4477 25 33C25 33.5523 24.5523 34 24 34H21C20.4477 34 20 33.5523 20 33Z" fill="#333333"/>
<path fill-rule="evenodd" clip-rule="evenodd" d="M17 36C17.5523 36 18 36.4477 18 37V40C18 40.5523 17.5523 41 17 41C16.4477 41 16 40.5523 16 40V37C16 36.4477 16.4477 36 17 36Z" fill="#333333"/>
<path fill-rule="evenodd" clip-rule="evenodd" d="M8.99997 33C8.99997 32.4477 9.44768 32 9.99997 32H13C13.5523 32 14 32.4477 14 33C14 33.5523 13.5523 34 13 34H9.99997C9.44768 34 8.99997 33.5523 8.99997 33Z" fill="#333333"/>
<path fill-rule="evenodd" clip-rule="evenodd" d="M17 25C17.5523 25 18 25.4477 18 26V29C18 29.5523 17.5523 30 17 30C16.4477 30 16 29.5523 16 29V26C16 25.4477 16.4477 25 17 25Z" fill="#333333"/>
<path fill-rule="evenodd" clip-rule="evenodd" d="M19.2929 35.2929C19.6834 34.9024 20.3166 34.9024 20.7071 35.2929L22.7071 37.2929C23.0976 37.6834 23.0976 38.3166 22.7071 38.7071C22.3166 39.0977 21.6834 39.0977 21.2929 38.7071L19.2929 36.7071C18.9023 36.3166 18.9023 35.6834 19.2929 35.2929Z" fill="#333333"/>
<path fill-rule="evenodd" clip-rule="evenodd" d="M14.7071 35.2929C15.0976 35.6834 15.0976 36.3166 14.7071 36.7071L12.7071 38.7071C12.3166 39.0977 11.6834 39.0977 11.2929 38.7071C10.9023 38.3166 10.9023 37.6834 11.2929 37.2929L13.2929 35.2929C13.6834 34.9024 14.3166 34.9024 14.7071 35.2929Z" fill="#333333"/>
<path fill-rule="evenodd" clip-rule="evenodd" d="M11.2929 27.2929C11.6834 26.9024 12.3166 26.9024 12.7071 27.2929L14.7071 29.2929C15.0976 29.6834 15.0976 30.3166 14.7071 30.7071C14.3166 31.0977 13.6834 31.0977 13.2929 30.7071L11.2929 28.7071C10.9023 28.3166 10.9023 27.6834 11.2929 27.2929Z" fill="#333333"/>
</svg>
