<svg width="48" height="48" viewBox="0 0 48 48" fill="none" xmlns="http://www.w3.org/2000/svg">
<rect width="48" height="48" fill="white"/>
<path fill-rule="evenodd" clip-rule="evenodd" d="M27.8788 8.62667L31.3853 10.7498C31.4238 10.7091 31.463 10.6692 31.5031 10.6299L31.9629 11.0996L32.1592 11.2185L32.1287 11.2689M31.9612 11.0986L31.5021 10.6309C32.3052 9.84239 33.382 9.39324 34.5081 9.3755C35.6341 9.35775 36.7245 9.77276 37.5523 10.5355C38.3801 11.2984 38.8815 12.3505 38.9505 13.4734C39.004 14.3445 38.794 15.2052 38.357 15.9479C38.8516 16.8753 39.0708 17.9301 38.9799 18.9871C38.868 20.2876 38.2939 21.5049 37.362 22.4207C36.4303 23.3364 35.2018 23.8908 33.8975 23.9855C32.8353 24.0626 31.7785 23.8308 30.853 23.3255C30.5424 23.5022 30.2105 23.6407 29.8644 23.7375C29.2782 23.9014 28.6641 23.9417 28.0614 23.8559C27.4586 23.7701 26.8803 23.5601 26.3633 23.2391C25.8463 22.918 25.4019 22.4929 25.0588 21.9906C24.7157 21.4884 24.4815 20.9201 24.3714 20.3222C24.2614 19.7242 24.2779 19.1099 24.4199 18.5187C24.5619 17.9275 24.8262 17.3726 25.1957 16.8893C25.3535 16.6829 25.5291 16.4915 25.72 16.3171L23.6288 12.8128L25.3463 11.7879L27.9053 16.0762C28.0444 16.3092 28.0828 16.5888 28.0116 16.8507C27.9405 17.1126 27.766 17.3344 27.5281 17.4651C27.2379 17.6245 26.9847 17.8423 26.7844 18.1042C26.5842 18.3661 26.4413 18.6664 26.3646 18.9858C26.2878 19.3052 26.2789 19.637 26.3384 19.96C26.3979 20.2831 26.5244 20.5904 26.7103 20.8625C26.8961 21.1346 27.1372 21.3654 27.4184 21.54C27.6996 21.7146 28.0145 21.8291 28.3431 21.8759C28.6717 21.9226 29.0065 21.9006 29.326 21.8113C29.6455 21.722 29.9424 21.5674 30.1979 21.3577C30.5505 21.0683 31.0542 21.0542 31.4224 21.3233C32.0941 21.8142 32.9203 22.0512 33.7527 21.9908C34.585 21.9303 35.3676 21.5766 35.9602 20.9943C36.5526 20.412 36.9164 19.6395 36.9873 18.8157C37.0581 17.9919 36.8317 17.1694 36.3477 16.496C36.0796 16.1229 36.1002 15.6152 36.3976 15.2651C36.7925 14.8 36.9915 14.2022 36.9542 13.596C36.917 12.9899 36.6463 12.4203 36.197 12.0063C35.7475 11.5921 35.1539 11.3656 34.5396 11.3752C33.9252 11.3849 33.3392 11.63 32.9033 12.058L32.9023 12.059C32.7486 12.2095 32.617 12.3805 32.5112 12.5671C32.3779 12.8021 32.1552 12.9732 31.8938 13.0415C31.6324 13.1097 31.3544 13.0692 31.1233 12.9293L26.8429 10.3375L27.8788 8.62667" fill="#333333"/>
<path fill-rule="evenodd" clip-rule="evenodd" d="M11 34.5715C9.65874 34.5715 8.57143 35.6588 8.57143 37C8.57143 38.3413 9.65874 39.4286 11 39.4286C12.3413 39.4286 13.4286 38.3413 13.4286 37C13.4286 35.6588 12.3413 34.5715 11 34.5715ZM6.57143 37C6.57143 34.5542 8.55417 32.5715 11 32.5715C13.4458 32.5715 15.4286 34.5542 15.4286 37C15.4286 39.4459 13.4458 41.4286 11 41.4286C8.55417 41.4286 6.57143 39.4459 6.57143 37Z" fill="#333333"/>
<path fill-rule="evenodd" clip-rule="evenodd" d="M11 30C11.5523 30 12 30.4477 12 31V33.5715C12 34.1237 11.5523 34.5715 11 34.5715C10.4477 34.5715 10 34.1237 10 33.5715V31C10 30.4477 10.4477 30 11 30Z" fill="#333333"/>
<path fill-rule="evenodd" clip-rule="evenodd" d="M13.4286 37C13.4286 36.4477 13.8763 36 14.4286 36H17C17.5523 36 18 36.4477 18 37C18 37.5523 17.5523 38 17 38H14.4286C13.8763 38 13.4286 37.5523 13.4286 37Z" fill="#333333"/>
<path fill-rule="evenodd" clip-rule="evenodd" d="M11 39.4286C11.5523 39.4286 12 39.8763 12 40.4286V43C12 43.5523 11.5523 44 11 44C10.4477 44 10 43.5523 10 43V40.4286C10 39.8763 10.4477 39.4286 11 39.4286Z" fill="#333333"/>
<path fill-rule="evenodd" clip-rule="evenodd" d="M4 37C4 36.4477 4.44772 36 5 36H7.57143C8.12371 36 8.57143 36.4477 8.57143 37C8.57143 37.5523 8.12371 38 7.57143 38H5C4.44772 38 4 37.5523 4 37Z" fill="#333333"/>
<path fill-rule="evenodd" clip-rule="evenodd" d="M13.4286 37C13.4286 36.4477 13.8763 36 14.4286 36H17C17.5523 36 18 36.4477 18 37C18 37.5523 17.5523 38 17 38H14.4286C13.8763 38 13.4286 37.5523 13.4286 37Z" fill="#333333"/>
<path fill-rule="evenodd" clip-rule="evenodd" d="M11 39.4286C11.5523 39.4286 12 39.8763 12 40.4286V43C12 43.5523 11.5523 44 11 44C10.4477 44 10 43.5523 10 43V40.4286C10 39.8763 10.4477 39.4286 11 39.4286Z" fill="#333333"/>
<path fill-rule="evenodd" clip-rule="evenodd" d="M4 37C4 36.4477 4.44772 36 5 36H7.57143C8.12371 36 8.57143 36.4477 8.57143 37C8.57143 37.5523 8.12371 38 7.57143 38H5C4.44772 38 4 37.5523 4 37Z" fill="#333333"/>
<path fill-rule="evenodd" clip-rule="evenodd" d="M15.9497 32.0503C16.3402 32.4408 16.3402 33.074 15.9497 33.4645L14.1314 35.2828C13.7409 35.6733 13.1077 35.6733 12.7172 35.2828C12.3267 34.8923 12.3267 34.2591 12.7172 33.8686L14.5355 32.0503C14.926 31.6598 15.5592 31.6598 15.9497 32.0503Z" fill="#333333"/>
<path fill-rule="evenodd" clip-rule="evenodd" d="M12.7172 38.7172C13.1077 38.3267 13.7409 38.3267 14.1314 38.7172L15.9497 40.5355C16.3402 40.926 16.3402 41.5592 15.9497 41.9497C15.5592 42.3403 14.926 42.3403 14.5355 41.9497L12.7172 40.1315C12.3267 39.7409 12.3267 39.1078 12.7172 38.7172Z" fill="#333333"/>
<path fill-rule="evenodd" clip-rule="evenodd" d="M9.28279 38.7172C9.67331 39.1078 9.67331 39.7409 9.28279 40.1315L7.46452 41.9497C7.07399 42.3403 6.44083 42.3403 6.0503 41.9497C5.65978 41.5592 5.65978 40.926 6.0503 40.5355L7.86858 38.7172C8.2591 38.3267 8.89227 38.3267 9.28279 38.7172Z" fill="#333333"/>
<path fill-rule="evenodd" clip-rule="evenodd" d="M6.05029 32.0503C6.44081 31.6598 7.07398 31.6598 7.4645 32.0503L9.28277 33.8686C9.6733 34.2591 9.6733 34.8923 9.28277 35.2828C8.89225 35.6733 8.25909 35.6733 7.86856 35.2828L6.05029 33.4645C5.65976 33.074 5.65976 32.4408 6.05029 32.0503Z" fill="#333333"/>
<path fill-rule="evenodd" clip-rule="evenodd" d="M27.0643 26.9143L26.4014 27.663C25.5225 28.6555 25 29.9287 25 31.3146C25 34.4117 27.6425 37 31 37C34.3575 37 37 34.4117 37 31.3146C37 30.3187 36.7306 29.3836 36.255 28.5687L35.751 27.705L37.4784 26.697L37.9824 27.5607C38.6297 28.6699 39 29.9513 39 31.3146C39 35.602 35.3744 39 31 39C26.6256 39 23 35.602 23 31.3146C23 29.4117 23.7208 27.6734 24.9041 26.3371L25.567 25.5884L27.0643 26.9143Z" fill="#333333"/>
<path fill-rule="evenodd" clip-rule="evenodd" d="M43 28.8C43.5523 28.8 44 29.2477 44 29.8V32.2C44 32.7523 43.5523 33.2 43 33.2C42.4477 33.2 42 32.7523 42 32.2V29.8C42 29.2477 42.4477 28.8 43 28.8Z" fill="#333333"/>
<path fill-rule="evenodd" clip-rule="evenodd" d="M37.2 31C37.2 30.4477 37.6477 30 38.2 30H43C43.5523 30 44 30.4477 44 31C44 31.5523 43.5523 32 43 32H38.2C37.6477 32 37.2 31.5523 37.2 31Z" fill="#333333"/>
<path fill-rule="evenodd" clip-rule="evenodd" d="M41.1071 37.2929C41.4976 37.6834 41.4976 38.3166 41.1071 38.7071L38.7071 41.1071C38.3166 41.4977 37.6834 41.4977 37.2929 41.1071C36.9024 40.7166 36.9024 40.0834 37.2929 39.6929L39.6929 37.2929C40.0834 36.9024 40.7166 36.9024 41.1071 37.2929Z" fill="#333333"/>
<path fill-rule="evenodd" clip-rule="evenodd" d="M36.7071 35.2929L39.7071 38.2929L38.2929 39.7071L35.2929 36.7071L36.7071 35.2929Z" fill="#333333"/>
<path fill-rule="evenodd" clip-rule="evenodd" d="M28.8 43C28.8 42.4477 29.2477 42 29.8 42H32.2C32.7523 42 33.2 42.4477 33.2 43C33.2 43.5523 32.7523 44 32.2 44H29.8C29.2477 44 28.8 43.5523 28.8 43Z" fill="#333333"/>
<path fill-rule="evenodd" clip-rule="evenodd" d="M31 37.2C31.5523 37.2 32 37.6478 32 38.2V43C32 43.5523 31.5523 44 31 44C30.4477 44 30 43.5523 30 43V38.2C30 37.6478 30.4477 37.2 31 37.2Z" fill="#333333"/>
<path fill-rule="evenodd" clip-rule="evenodd" d="M20.6929 37.4929C21.0834 37.1024 21.7166 37.1024 22.1071 37.4929L24.5071 39.8929C24.8976 40.2835 24.8976 40.9166 24.5071 41.3071C24.1166 41.6977 23.4834 41.6977 23.0929 41.3072L20.6929 38.9072C20.3024 38.5166 20.3024 37.8835 20.6929 37.4929Z" fill="#333333"/>
<path fill-rule="evenodd" clip-rule="evenodd" d="M26.9071 36.5071L23.3071 40.1071L21.8929 38.6929L25.4929 35.0929L26.9071 36.5071Z" fill="#333333"/>
<path fill-rule="evenodd" clip-rule="evenodd" d="M20.6929 37.4929C21.0834 37.1024 21.7166 37.1024 22.1071 37.4929L24.5071 39.8929C24.8976 40.2835 24.8976 40.9166 24.5071 41.3071C24.1166 41.6977 23.4834 41.6977 23.0929 41.3072L20.6929 38.9072C20.3024 38.5166 20.3024 37.8835 20.6929 37.4929Z" fill="#333333"/>
<path fill-rule="evenodd" clip-rule="evenodd" d="M26.7071 36.7071L23.7071 39.7071L22.2929 38.2929L25.2929 35.2929L26.7071 36.7071Z" fill="#333333"/>
<path fill-rule="evenodd" clip-rule="evenodd" d="M19 28.8C19.5523 28.8 20 29.2477 20 29.8V32.2C20 32.7523 19.5523 33.2 19 33.2C18.4477 33.2 18 32.7523 18 32.2V29.8C18 29.2477 18.4477 28.8 19 28.8Z" fill="#333333"/>
<path fill-rule="evenodd" clip-rule="evenodd" d="M18 31C18 30.4477 18.4477 30 19 30H23.8C24.3523 30 24.8 30.4477 24.8 31C24.8 31.5523 24.3523 32 23.8 32H19C18.4477 32 18 31.5523 18 31Z" fill="#333333"/>
<path fill-rule="evenodd" clip-rule="evenodd" d="M41.4961 22.1318C41.9757 22.4058 42.1423 23.0166 41.8682 23.4962C40.7768 25.4061 39.4626 26.5601 38.047 27.2191C36.6491 27.8699 35.232 28 34 28C33.4477 28 33 27.5523 33 27C33 26.4477 33.4477 26 34 26C35.1013 26 36.1843 25.8802 37.203 25.4059C38.2041 24.9399 39.2232 24.0939 40.1318 22.5039C40.4058 22.0244 41.0166 21.8578 41.4961 22.1318Z" fill="#333333"/>
<path fill-rule="evenodd" clip-rule="evenodd" d="M21.0313 6.00397C21.2965 6.00397 21.5509 6.10932 21.7384 6.29686L23.1526 7.71107C23.3402 7.89861 23.4455 8.15296 23.4455 8.41818C23.4455 8.6834 23.3402 8.93775 23.1526 9.12529L21.0313 11.2466L18.2029 8.41818L20.3242 6.29686C20.5117 6.10932 20.7661 6.00397 21.0313 6.00397ZM24.5669 6.29686L23.1526 4.88265C22.59 4.32004 21.827 4.00397 21.0313 4.00397C20.2357 4.00397 19.4726 4.32004 18.91 4.88265L16.3743 7.41833L13.3745 7.41815C12.5788 7.4181 11.8157 7.73417 11.253 8.29682L5.47488 14.0749C3.52226 16.0276 3.52226 19.1934 5.47488 21.146L8.30331 23.9744C10.2559 25.9271 13.4218 25.9271 15.3744 23.9744L21.1525 18.1963C21.7152 17.6337 22.0312 16.8706 22.0312 16.0749L22.0312 13.0752L24.5669 10.5395C25.1295 9.97689 25.4455 9.21383 25.4455 8.41818C25.4455 7.62253 25.1295 6.85947 24.5669 6.29686ZM13.3744 9.41814L16.3743 9.41833L20.0312 13.0752L20.0312 16.0749C20.0312 16.3402 19.9259 16.5945 19.7383 16.7821L13.9602 22.5602C12.7886 23.7318 10.8891 23.7318 9.71752 22.5602L6.8891 19.7318C5.71752 18.5602 5.71752 16.6607 6.8891 15.4892L12.6672 9.71104C12.8548 9.52349 13.1092 9.41813 13.3744 9.41814Z" fill="#333333"/>
</svg>
