<svg width="48" height="48" viewBox="0 0 48 48" fill="none" xmlns="http://www.w3.org/2000/svg">
<path d="M39.2114 38.1664C39.1231 39.7562 37.8083 41 36.2161 41L11.7839 41C10.1917 41 8.87688 39.7562 8.78856 38.1664L7.23301 10.1664C7.13748 8.4468 8.50614 7 10.2284 7L37.7716 7C39.4939 7 40.8625 8.44681 40.767 10.1664L39.2114 38.1664Z" stroke="#333333" stroke-width="2"/>
<path d="M35.1105 16.9225C35.3911 17.2318 35.3714 17.8024 34.8874 18.1419L30.015 21.5594C29.6013 21.8496 28.8554 21.8152 28.1439 21.2981C27.8774 21.1044 27.5968 20.9291 27.3041 20.7737C26.3215 20.2523 25.2295 19.9709 24.1173 19.9524C23.0051 19.9339 21.9043 20.1788 20.9049 20.6673C20.6072 20.8128 20.321 20.9787 20.0481 21.1634C19.3198 21.6565 18.5731 21.6661 18.1693 21.3623L13.4134 17.7846C12.9409 17.4291 12.9402 16.8583 13.2309 16.5584C14.4357 15.3158 15.85 14.2876 17.4135 13.5235C19.5402 12.484 21.8827 11.9627 24.2496 12.0021C26.6164 12.0415 28.9403 12.6404 31.0313 13.75C32.5685 14.5658 33.9477 15.6405 35.1105 16.9225Z" stroke="#333333" stroke-width="2"/>
<rect x="27.8384" y="14.8174" width="2" height="6.18508" rx="1" transform="rotate(41.0141 27.8384 14.8174)" fill="#333333"/>
</svg>
