<svg width="48" height="48" viewBox="0 0 48 48" fill="none" xmlns="http://www.w3.org/2000/svg">
<path fill-rule="evenodd" clip-rule="evenodd" d="M18.3856 5.33416C20.3549 3.27403 23.6451 3.27403 25.6144 5.33416L26.1418 5.88591H31.3302C33.9092 5.88591 36 7.97667 36 10.5557V14.0002H34V10.5557C34 9.08124 32.8047 7.88591 31.3302 7.88591H25.7143C25.4412 7.88591 25.1801 7.77426 24.9914 7.57689L24.1686 6.71612C22.9871 5.48004 21.0129 5.48004 19.8314 6.71612L19.0086 7.57689C18.8199 7.77426 18.5588 7.88591 18.2857 7.88591H13C11.3431 7.88591 10 9.22906 10 10.8859V27.9712C11.3017 27.95 12.5326 27.9877 13.7005 28.0308C13.8788 28.0374 14.0554 28.0441 14.2304 28.0507C15.5137 28.0993 16.711 28.1446 17.8818 28.1197C20.5089 28.0638 22.924 27.6539 25.4919 26.1389C28.6105 24.2989 31.2501 24.8516 33.0748 25.9135C33.4135 26.1105 33.7222 26.3236 34 26.539V22.0002H36V33.0002C36 35.7616 33.7614 38.0002 31 38.0002L28 38.0002V40.0002H23V44.0002H21V40.0002H16V38.0002L13 38.0002C10.2386 38.0002 8 35.7616 8 33.0002V10.8859C8 8.12449 10.2386 5.88591 13 5.88591H17.8582L18.3856 5.33416Z" fill="#333333"/>
<path fill-rule="evenodd" clip-rule="evenodd" d="M16.5 12.0002C16.9168 12.0002 17.29 12.2588 17.4363 12.6491L20.9363 21.9825C21.1302 22.4996 20.8682 23.076 20.3511 23.2699C19.834 23.4638 19.2576 23.2018 19.0637 22.6847L18.432 21.0002H14.568L13.9363 22.6847C13.7424 23.2018 13.166 23.4638 12.6489 23.2699C12.1318 23.076 11.8697 22.4996 12.0637 21.9825L15.5637 12.6491C15.71 12.2588 16.0832 12.0002 16.5 12.0002ZM16.5 15.8482L17.682 19.0002L15.318 19.0002L16.5 15.8482Z" fill="#333333"/>
<path d="M32 17.0002C31.4477 17.0002 31 17.448 31 18.0002C31 18.5525 31.4477 19.0002 32 19.0002H38C38.5523 19.0002 39 18.5525 39 18.0002C39 17.448 38.5523 17.0002 38 17.0002H32Z" fill="#333333"/>
<path fill-rule="evenodd" clip-rule="evenodd" d="M25.25 12.0002H22V23.0002H25.25C27.0569 23.0002 28.5876 21.5808 28.5876 19.7502C28.5876 18.8666 28.231 18.0789 27.6588 17.5002C28.231 16.9216 28.5876 16.1338 28.5876 15.2502C28.5876 13.4196 27.0569 12.0003 25.25 12.0002ZM26.5876 15.2502C26.5876 14.5956 26.0251 14.0003 25.25 14.0002H24V16.5002H25.25C26.0251 16.5002 26.5876 15.9049 26.5876 15.2502ZM25.25 18.5002H24V21.0002H25.25C26.0251 21.0002 26.5876 20.4049 26.5876 19.7502C26.5876 19.0956 26.0251 18.5002 25.25 18.5002Z" fill="#333333"/>
</svg>
