<svg width="48" height="48" viewBox="0 0 48 48" fill="none" xmlns="http://www.w3.org/2000/svg">
<path fill-rule="evenodd" clip-rule="evenodd" d="M19.3856 5.33416C21.3549 3.27403 24.6451 3.27403 26.6144 5.33416L27.1418 5.88591H32.3302C34.9092 5.88591 37 7.97667 37 10.5557V14.0002H35V10.5557C35 9.08124 33.8047 7.88591 32.3302 7.88591H26.7143C26.4412 7.88591 26.1801 7.77426 25.9914 7.57689L25.1686 6.71612C23.9871 5.48004 22.0129 5.48004 20.8314 6.71612L20.0086 7.57689C19.8199 7.77426 19.5588 7.88591 19.2857 7.88591H14C12.3431 7.88591 11 9.22906 11 10.8859V27.9714C12.3017 27.9503 13.5325 27.988 14.7005 28.031C14.8789 28.0376 15.0555 28.0443 15.2306 28.0509C16.5139 28.0996 17.7111 28.1449 18.8818 28.12C21.5089 28.0641 23.924 27.6542 26.4918 26.1392C29.6105 24.2992 32.2501 24.8518 34.0748 25.9137C34.4135 26.1108 34.7222 26.3239 35 26.5393V22.0002H37V33.0002C37 35.7616 34.7614 38.0002 32 38.0002L29 38.0002V40.0002H24V44.0002H22V40.0002H17V38.0002L14 38.0002C11.2386 38.0002 9 35.7616 9 33.0002V10.8859C9 8.12449 11.2386 5.88591 14 5.88591H18.8582L19.3856 5.33416Z" fill="#333333"/>
<path d="M32 18.0002C32 17.448 32.4477 17.0002 33 17.0002H39C39.5523 17.0002 40 17.448 40 18.0002C40 18.5525 39.5523 19.0002 39 19.0002H33C32.4477 19.0002 32 18.5525 32 18.0002Z" fill="#333333"/>
<path d="M23 12.0002C23.5523 12.0002 24 12.448 24 13.0002V17.0002H28V13.0002C28 12.448 28.4477 12.0002 29 12.0002C29.5523 12.0002 30 12.448 30 13.0002V23.0002C30 23.5525 29.5523 24.0002 29 24.0002C28.4477 24.0002 28 23.5525 28 23.0002V19.0002H24V23.0002C24 23.5525 23.5523 24.0002 23 24.0002C22.4477 24.0002 22 23.5525 22 23.0002V13.0002C22 12.448 22.4477 12.0002 23 12.0002Z" fill="#333333"/>
<path fill-rule="evenodd" clip-rule="evenodd" d="M14 12.0002H17C19.2091 12.0002 21 13.7911 21 16.0002C21 17.9493 19.6059 19.5728 17.7605 19.928L20.6247 22.2194C21.0559 22.5644 21.1258 23.1937 20.7808 23.6249C20.4358 24.0562 19.8065 24.1261 19.3753 23.7811L15 20.2809V23.0002C15 23.5525 14.5523 24.0002 14 24.0002C13.4477 24.0002 13 23.5525 13 23.0002V13.0002C13 12.448 13.4477 12.0002 14 12.0002ZM15.0092 18.0002H17C18.1046 18.0002 19 17.1048 19 16.0002C19 14.8957 18.1046 14.0002 17 14.0002H15V18.0002C15.0031 18.0002 15.0061 18.0002 15.0092 18.0002Z" fill="#333333"/>
</svg>
