<svg width="48" height="48" viewBox="0 0 48 48" fill="none" xmlns="http://www.w3.org/2000/svg">
<path fill-rule="evenodd" clip-rule="evenodd" d="M0 0V48H48V0H0ZM13.8284 35.1716C14.5786 35.9217 15 36.9391 15 38V39C15 38.2043 15.3161 37.4413 15.8787 36.8787C16.4413 36.3161 17.2043 36 18 36C18.7957 36 19.5587 36.3161 20.1213 36.8787C20.6839 37.4413 21 38.2043 21 39C21 38.4696 21.2107 37.9609 21.5858 37.5858C21.9609 37.2107 22.4696 37 23 37C23.5304 37 24.0391 37.2107 24.4142 37.5858C24.5389 37.7105 24.6454 37.8499 24.7321 38H34.5C35.0523 38 35.5 38.4477 35.5 39C35.5 39.5523 35.0523 40 34.5 40H25H23.5H8C7.44772 40 7 39.5523 7 39V38C7 36.9391 7.42143 35.9217 8.17157 35.1716C8.92172 34.4214 9.93913 34 11 34C12.0609 34 13.0783 34.4214 13.8284 35.1716ZM18.3412 10.4738C18.7979 8.88113 20.4593 7.96023 22.0519 8.41693L36.4709 12.5515C38.0635 13.0082 38.9844 14.6695 38.5277 16.2622L38.2521 17.2234L39.2134 17.4991C39.7443 17.6513 40.0512 18.2051 39.899 18.736L39.0721 21.6198C38.9198 22.1507 38.3661 22.4576 37.8352 22.3054L36.8739 22.0298L36.5983 22.991L37.5099 25.8492C37.6299 26.2253 37.6358 26.6286 37.527 27.0082L36.5913 30.2711C36.2869 31.3329 35.1793 31.9468 34.1175 31.6424L28.8306 30.1264L29.9332 26.2813C30.0854 25.7504 29.7784 25.1967 29.2475 25.0444L21.5574 22.8393C21.0265 22.6871 20.4728 22.9941 20.3205 23.525L19.218 27.37L13.931 25.854C12.8693 25.5495 12.2553 24.442 12.5598 23.3802L13.4954 20.1172C13.6043 19.7377 13.823 19.3988 14.1241 19.1434L16.4118 17.2026L16.6874 16.2414L15.7262 15.9657C15.1953 15.8135 14.8883 15.2597 15.0405 14.7288L15.8675 11.845C16.0197 11.3142 16.5735 11.0072 17.1044 11.1594L18.0656 11.4351L18.3412 10.4738ZM35.227 20.5172L35.9161 18.1141L36.0539 17.6334L36.6052 15.7109C36.7575 15.18 36.4505 14.6262 35.9196 14.474L21.5007 10.3394C20.9698 10.1872 20.416 10.4942 20.2638 11.0251L19.7127 12.9468L19.7125 12.9476L19.5747 13.4282L18.8856 15.8314L18.6099 16.7926L34.9514 21.4785L35.227 20.5172ZM19.1473 29.4303L13.3798 27.7765L12.5529 30.6603C12.4006 31.1912 12.7076 31.745 13.2385 31.8972L17.0835 32.9997C17.6144 33.152 18.1682 32.845 18.3204 32.3141L19.1473 29.4303ZM27.7987 31.9111L33.5663 33.5649L32.7394 36.4487C32.5871 36.9796 32.0334 37.2865 31.5025 37.1343L27.6574 36.0318C27.1265 35.8795 26.8196 35.3257 26.9718 34.7949L27.7987 31.9111ZM27.735 26.6913L26.9081 29.5751L24.9856 29.0238L25.8125 26.14L27.735 26.6913ZM23.063 28.4725L23.8899 25.5888L21.9674 25.0375L21.1405 27.9213L23.063 28.4725ZM16.8855 24.6206C17.6818 24.849 18.5125 24.3885 18.7408 23.5922C18.9692 22.7958 18.5087 21.9652 17.7124 21.7368C16.9161 21.5085 16.0854 21.9689 15.857 22.7653C15.6287 23.5616 16.0891 24.3923 16.8855 24.6206ZM34.121 28.0023C33.8927 28.7987 33.062 29.2591 32.2657 29.0308C31.4693 28.8024 31.0089 27.9717 31.2372 27.1754C31.4656 26.3791 32.2962 25.9186 33.0926 26.147C33.8889 26.3753 34.3494 27.206 34.121 28.0023Z" fill="#333333"/>
</svg>
