<svg width="48" height="48" viewBox="0 0 48 48" fill="none" xmlns="http://www.w3.org/2000/svg">
<path fill-rule="evenodd" clip-rule="evenodd" d="M0 48V0H48V48H0ZM18.3412 10.4737C18.7979 8.881 20.4593 7.9601 22.0519 8.41679L36.4709 12.5514C38.0635 13.008 38.9844 14.6694 38.5277 16.2621L38.252 17.2236L39.2134 17.4993C39.7443 17.6515 40.0512 18.2053 39.899 18.7362L39.0721 21.62C38.9199 22.1509 38.3661 22.4579 37.8352 22.3056L36.8738 22.03L36.5982 22.9911L36.5983 22.9911L37.5099 25.8492C37.6299 26.2254 37.6358 26.6287 37.527 27.0082L36.5913 30.2712C36.2869 31.333 35.1793 31.9469 34.1175 31.6424L28.8306 30.1264L29.9332 26.2811C30.0854 25.7502 29.7785 25.1965 29.2476 25.0442L21.5575 22.8391C21.0266 22.6869 20.4728 22.9939 20.3206 23.5248L19.218 27.37L13.9311 25.854C12.8693 25.5496 12.2553 24.442 12.5598 23.3802L13.4954 20.1173C13.6043 19.7377 13.823 19.3989 14.1241 19.1434L16.4117 17.2027L16.6874 16.2414L15.7261 15.9658C15.1953 15.8135 14.8883 15.2598 15.0405 14.7289L15.8674 11.8451C16.0197 11.3142 16.5734 11.0072 17.1043 11.1595L18.0656 11.4351L18.3412 10.4737ZM21.1405 27.9213L23.0631 28.4726L23.89 25.5887L23.89 25.5886L21.9675 25.0373L21.1405 27.9213ZM24.9856 29.0239L26.9081 29.5751L27.735 26.6911L25.8126 26.1399L25.8125 26.14L24.9856 29.0239ZM18.8832 15.8396L18.8856 15.8314L19.7125 12.9476L19.7148 12.9394L20.2638 11.0249C20.416 10.4941 20.9698 10.1871 21.5007 10.3393L35.9196 14.4739C36.4505 14.6261 36.7575 15.1799 36.6052 15.7108L34.9514 21.4783L18.6099 16.7925L18.8832 15.8396ZM13.3798 27.7764L19.1473 29.4302L18.3204 32.314C18.1682 32.8449 17.6144 33.1519 17.0835 32.9996L13.2385 31.8971C12.7076 31.7449 12.4006 31.1911 12.5529 30.6602L13.3798 27.7764ZM33.5663 33.565L27.7987 31.9112L26.9718 34.795C26.8196 35.3258 27.1265 35.8796 27.6574 36.0319L31.5025 37.1344C32.0334 37.2866 32.5871 36.9797 32.7394 36.4488L33.5663 33.565ZM18.7409 23.5921C18.5125 24.3884 17.6819 24.8488 16.8855 24.6205C16.0892 24.3922 15.6287 23.5615 15.8571 22.7652C16.0854 21.9688 16.9161 21.5084 17.7124 21.7367C18.5088 21.9651 18.9692 22.7957 18.7409 23.5921ZM34.1211 28.0022C33.8927 28.7986 33.062 29.259 32.2657 29.0307C31.4694 28.8023 31.0089 27.9716 31.2373 27.1753C31.4656 26.379 32.2963 25.9185 33.0926 26.1469C33.889 26.3752 34.3494 27.2059 34.1211 28.0022ZM7.81802 34.818C8.66193 33.9741 9.80653 33.5 11 33.5C12.1935 33.5 13.3381 33.9741 14.182 34.818C14.7233 35.3593 15.1124 36.0243 15.3219 36.7466C15.3862 36.6702 15.454 36.5963 15.5251 36.5251C16.1815 35.8687 17.0717 35.5 18 35.5C18.9283 35.5 19.8185 35.8688 20.4749 36.5251C20.7273 36.7776 20.9373 37.0647 21.1 37.3752C21.1421 37.326 21.1862 37.2783 21.2322 37.2322C21.7011 36.7634 22.337 36.5 23 36.5C23.663 36.5 24.2989 36.7634 24.7678 37.2322C25.117 37.5814 25.3522 38.0233 25.4495 38.5H34.5C35.0523 38.5 35.5 38.9477 35.5 39.5C35.5 40.0523 35.0523 40.5 34.5 40.5H25.5H23.5H8C7.17157 40.5 6.5 39.8284 6.5 39V38C6.5 36.8065 6.97411 35.6619 7.81802 34.818Z" fill="#333333"/>
</svg>
