<svg width="48" height="48" viewBox="0 0 48 48" fill="none" xmlns="http://www.w3.org/2000/svg">
<path fill-rule="evenodd" clip-rule="evenodd" d="M48 0H0V48H48V0ZM28.5 8C28.8922 8 29.2481 8.2292 29.4104 8.5862L36.3338 23.8176C37.0196 23.611 37.7468 23.5 38.5 23.5C42.6421 23.5 46 26.8579 46 31C46 35.1421 42.6421 38.5 38.5 38.5C34.3579 38.5 31 35.1421 31 31C31 28.3228 32.4028 25.9732 34.5134 24.6461L33.5125 22.444L25.7649 31.6442C25.5749 31.8698 25.295 32 25 32H16.9339C16.445 35.6694 13.3031 38.5 9.5 38.5C5.35786 38.5 2 35.1421 2 31C2 26.8579 5.35786 23.5 9.5 23.5C13.3031 23.5 16.445 26.3307 16.9339 30H23.1546L20.0047 26.5001H18.5C17.8545 26.5001 17.235 26.3117 16.7671 25.9246C16.2896 25.5295 16 24.9504 16 24.2501C16 23.5498 16.2896 22.9707 16.7671 22.5756C17.235 22.1885 17.8545 22.0001 18.5 22.0001H25.5C26.3284 22.0001 27 22.6717 27 23.5001V24.2501C27 24.9504 26.7104 25.5295 26.2329 25.9246C25.765 26.3117 25.1455 26.5001 24.5 26.5001H22.6954L25.1683 29.2477L32.2351 20.8559C32.3517 20.7175 32.4978 20.6186 32.6564 20.5607L27.8561 10H23.25C22.6978 10 22.25 9.55228 22.25 9C22.25 8.44771 22.6978 8 23.25 8H28.5ZM24.5348 30H24.5L24.6436 29.8708L24.5348 30ZM13.8885 30C13.4338 27.996 11.6416 26.5 9.5 26.5C7.01472 26.5 5 28.5147 5 31C5 33.4853 7.01472 35.5 9.5 35.5C11.6416 35.5 13.4337 34.004 13.8885 32H9.50001C8.94772 32 8.50001 31.5523 8.50001 31C8.50001 30.4477 8.94772 30 9.50001 30H13.8885ZM35.774 27.4193C34.6958 28.2415 34 29.5395 34 31C34 33.4853 36.0147 35.5 38.5 35.5C40.9853 35.5 43 33.4853 43 31C43 28.5147 40.9853 26.5 38.5 26.5C38.1898 26.5 37.887 26.5314 37.5945 26.5911L39.4104 30.5862C39.6389 31.089 39.4166 31.6818 38.9138 31.9104C38.4111 32.1389 37.8182 31.9166 37.5897 31.4138L35.774 27.4193ZM40.1766 12.9734C41.0627 12.6326 42.0386 13.1903 42.1947 14.1268L42.7661 17.555C42.934 18.5625 42.0678 19.4395 41.0584 19.2842L36.4883 18.5811C35.9637 18.5004 35.5208 18.1485 35.3237 17.6556L34.9121 16.6267C34.6016 15.8503 34.9859 14.9698 35.7664 14.6696L40.1766 12.9734ZM17.125 19.5162C18.2532 15.8242 22.1707 14.5001 25.754 14.5001H26.882C27.4501 14.5001 27.9695 14.8211 28.2236 15.3293L29.7236 18.3293C30.2223 19.3266 29.497 20.5001 28.382 20.5001H17.8532C17.3415 20.5001 16.9755 20.0055 17.125 19.5162ZM5.5 17.0001C5.5 16.1717 6.17157 15.5001 7 15.5001H11.5C11.9721 15.5001 12.4167 15.7224 12.7 16.1001L14.2 18.1001C14.9416 19.089 14.2361 20.5001 13 20.5001H7C6.17157 20.5001 5.5 19.8285 5.5 19.0001V17.0001Z" fill="#333333"/>
</svg>
