<svg width="48" height="48" viewBox="0 0 48 48" fill="none" xmlns="http://www.w3.org/2000/svg">
<path fill-rule="evenodd" clip-rule="evenodd" d="M48 0H0V48H48V0ZM34.8714 11.9283C35.3842 11.7231 35.6336 11.1412 35.4285 10.6284C35.2234 10.1156 34.6414 9.86619 34.1286 10.0713L29.1286 12.0713C28.8815 12.1701 28.684 12.3634 28.5798 12.6083C28.4756 12.8532 28.4734 13.1296 28.5735 13.3762L29.5802 15.8541L21.4038 20.1574L19.5619 15H20.5C21.0523 15 21.5 14.5523 21.5 14C21.5 13.4477 21.0523 13 20.5 13H16C15.4477 13 15 13.4477 15 14C15 14.5523 15.4477 15 16 15H17.4997C17.4997 15.1116 17.5186 15.2252 17.5583 15.3363L22.081 28H19.9381C19.446 24.0537 16.0796 21 12 21C7.58172 21 4 24.5817 4 29C4 33.4183 7.58172 37 12 37C16.0796 37 19.446 33.9463 19.9381 30H23.4779C23.4926 30.0004 23.5074 30.0004 23.5222 30H24C24.3731 30 24.7151 29.7924 24.8872 29.4614L30.6253 18.4266L32.0857 22.0214C29.6473 23.392 28 26.0036 28 29C28 33.4183 31.5817 37 36 37C40.4183 37 44 33.4183 44 29C44 24.5817 40.4183 21 36 21C35.2872 21 34.5961 21.0932 33.9384 21.2682L30.8049 13.5549L34.8714 11.9283ZM23.8742 27.0745L22.0833 22.0599L28.1391 18.8726L23.8742 27.0745ZM32.8466 23.8945L35.0735 29.3762C35.2814 29.8878 35.8647 30.1341 36.3764 29.9262C36.8881 29.7184 37.1343 29.1351 36.9265 28.6234L34.6994 23.1413C35.1182 23.0488 35.5534 23 36 23C39.3137 23 42 25.6863 42 29C42 32.3137 39.3137 35 36 35C32.6863 35 30 32.3137 30 29C30 26.8431 31.1381 24.952 32.8466 23.8945ZM12 28H17.917C17.441 25.1623 14.973 23 12 23C8.68629 23 6 25.6863 6 29C6 32.3137 8.68629 35 12 35C14.973 35 17.4409 32.8377 17.917 30H12C11.4477 30 11 29.5523 11 29C11 28.4477 11.4477 28 12 28Z" fill="#333333"/>
</svg>
