<svg width="48" height="48" viewBox="0 0 48 48" fill="none" xmlns="http://www.w3.org/2000/svg">
<path fill-rule="evenodd" clip-rule="evenodd" d="M48 0H0V48H48V0ZM29.4104 9.5862C29.2481 9.2292 28.8921 9 28.5 9H23.25C22.6977 9 22.25 9.44771 22.25 10C22.25 10.5523 22.6977 11 23.25 11H27.8561L34.7224 26.1058C32.7841 27.3506 31.5 29.5254 31.5 32C31.5 35.866 34.634 39 38.5 39C42.366 39 45.5 35.866 45.5 32C45.5 28.134 42.366 25 38.5 25C37.8206 25 37.1638 25.0968 36.5427 25.2773L29.4104 9.5862ZM34.5 32C34.5 30.7428 35.08 29.6211 35.9869 28.8878L37.5896 32.4138C37.8182 32.9166 38.411 33.1389 38.9138 32.9104C39.4166 32.6818 39.6389 32.089 39.4104 31.5862L37.8074 28.0597C38.0324 28.0205 38.2638 28 38.5 28C40.7091 28 42.5 29.7909 42.5 32C42.5 34.2091 40.7091 36 38.5 36C36.2909 36 34.5 34.2091 34.5 32ZM33.5986 14.4472C33.2662 13.7823 33.7497 13 34.493 13H37.4916C37.8111 13 38.1113 13.1527 38.2996 13.4108L41.2162 17.4108C41.6981 18.0717 41.2261 19 40.4082 19H36.493C36.1143 19 35.768 18.786 35.5986 18.4472L33.5986 14.4472ZM27.3707 25C27.7553 25 28.1059 24.7794 28.2723 24.4327L29.7843 21.2824C29.9201 20.9994 29.9152 20.6691 29.771 20.3902L27.7796 16.5406C27.6079 16.2085 27.2652 16 26.8914 16H22.3995C21.5279 16 20.6622 16.1424 19.8366 16.4216L17.4704 17.4568C16.9149 17.6998 16.7017 18.3772 17.0179 18.8945L20.4575 24.5215C20.6392 24.8187 20.9624 25 21.3108 25H27.3707ZM4.5 19C4.5 18.4477 4.94772 18 5.5 18H13.953C14.3364 18 14.6861 18.2192 14.8531 18.5643L16.2031 21.3535C16.5476 22.0652 15.9689 22.8763 15.1839 22.7821L5.38085 21.6057C4.87826 21.5454 4.5 21.119 4.5 20.6128V19ZM25.5 27C26.6046 27 27.5 27.8954 27.5 29V31C27.5 32.1046 26.6046 33 25.5 33H21.5H16.4291C15.9439 36.3923 13.0265 39 9.5 39C5.63401 39 2.5 35.866 2.5 32C2.5 28.134 5.63401 25 9.5 25C13.0265 25 15.9439 27.6077 16.4291 31H19.5V29C19.5 27.8954 20.3954 27 21.5 27H25.5ZM5.5 32C5.5 34.2091 7.29086 36 9.5 36C11.3638 36 12.9299 34.7252 13.374 33H9.5C8.94771 33 8.5 32.5523 8.5 32C8.5 31.4477 8.94771 31 9.5 31H13.374C12.9299 29.2748 11.3638 28 9.5 28C7.29086 28 5.5 29.7909 5.5 32Z" fill="#333333"/>
</svg>
