<svg width="48" height="48" viewBox="0 0 48 48" fill="none" xmlns="http://www.w3.org/2000/svg">
<path fill-rule="evenodd" clip-rule="evenodd" d="M0 0H48V48H0V0ZM8 31.7515V31.7513L7.49192 32.3493C7.36112 32.2382 7.26112 32.0953 7.20155 31.9343L8 31.6388C7.20152 31.9342 7.20123 31.9334 7.20093 31.9326L7.20018 31.9306L7.19834 31.9255L7.19328 31.9114C7.18931 31.9002 7.18418 31.8855 7.17803 31.8674C7.16574 31.8313 7.14937 31.7814 7.13013 31.7188C7.09167 31.5936 7.04158 31.4169 6.98955 31.1959C6.88568 30.7549 6.77287 30.1321 6.73108 29.3868C6.6476 27.8978 6.84664 25.8871 8.00001 23.8702C9.74408 20.8204 13.4984 18.0189 21 16.795V15.0156V15.0085V15.0014V14.9943V14.9872V14.9802V14.9731V14.9661V14.9591V14.9521V14.9452V14.9382V14.9313V14.9244V14.9175V14.9106V14.9038V14.897V14.8902V14.8834V14.8766V14.8699V14.8631V14.8564V14.8498V14.8431V14.8365V14.8298V14.8232V14.8166V14.8101V14.8035V14.797V14.7905V14.7841V14.7776V14.7712V14.7647V14.7584V14.752V14.7456V14.7393V14.733V14.7267V14.7204V14.7142V14.708V14.7018V14.6956V14.6895V14.6833V14.6772V14.6711V14.6651V14.659V14.653V14.647V14.641V14.6351V14.6292V14.6232V14.6174V14.6115V14.6057V14.5999V14.5941V14.5883V14.5826V14.5768V14.5711V14.5655V14.5598V14.5542V14.5486V14.543V14.5375V14.5319V14.5264V14.5209V14.5155V14.51V14.5046V14.4993V14.4939V14.4886V14.4832V14.478V14.4727V14.4675V14.4623V14.4571V14.4519V14.4468V14.4417V14.4366V14.4315V14.4265V14.4215V14.4165V14.4115V14.4066V14.4017V14.3968V14.392V14.3871V14.3495V14.3449V14.3403V14.3358V14.3313V14.3268V14.3223V14.3179V14.3135V14.3091V14.3048V14.3005V14.2962V14.2919V14.2877V14.2835V14.2793V14.2751V14.271V14.2669V14.2629V14.2588V14.2548V14.2508V14.2469V14.2429V14.239V14.2352V14.2313V14.2275V14.2237V14.22V14.2163V14.2126V14.2089V14.2053V14.2017V14.1981V14.1945V14.191V14.1875V14.1841V14.1806V14.1772V14.1739V14.1705V14.1672V14.1639V14.1607V14.073V14.0708V14.0686V14.0665V14.0643V14.0622V14.0602V14.0582V14.0562V14.0542V14.0523V14.0504V14.0486V14.0468V14.045V14.0432V14.0415V14.0398V14.0382V14.0366V14.035V14.0334V14.0319V14.0304V14.029V14.0276V14.0262V14.0248V14.0235V14.0223V14.021V14.0198V14.0186V14.0175V14.0164V14.0153V14.0143V14.0133V14.0124V14.0114V14.0105V14.0097V14.0089V14.0081V14.0073V14.0066V14.006V14.0053V14.0047V14.0041V14.0036V14.0031V14.0027V14.0022V14.0018V14.0015V14.0012V14.0009V14.0007V14.0005V14.0003V14.0002V14.0001V14C21 13.4477 21.4477 13 22 13C22.5523 13 23 13.4477 23 14V14.0001V14.0002V14.0003V14.0005V14.0007V14.0009V14.0012V14.0015V14.0018V14.0022V14.0027V14.0031V14.0036V14.0041V14.0047V14.0053V14.006V14.0066V14.0073V14.0081V14.0089V14.0097V14.0105V14.0114V14.0124V14.0133V14.0143V14.0153V14.0164V14.0175V14.0186V14.0198V14.021V14.0223V14.0235V14.0248V14.0262V14.0276V14.029V14.0304V14.0319V14.0334V14.035V14.0366V14.0382V14.0398V14.0415V14.0432V14.045V14.0468V14.0486V14.0504V14.0523V14.0542V14.0562V14.0582V14.0602V14.0622V14.0643V14.0665V14.0686V14.0708V14.073V14.0752V14.0775V14.0798V14.0822V14.0846V14.087V14.0894V14.0919V14.0944V14.0969V14.0995V14.1021V14.1047V14.1074V14.1101V14.1128V14.1607V14.1639V14.1672V14.1705V14.1739V14.1772V14.1806V14.1841V14.1875V14.191V14.1945V14.1981V14.2017V14.2053V14.2089V14.2126V14.2163V14.22V14.2237V14.2275V14.2313V14.2352V14.239V14.2429V14.2469V14.2508V14.2548V14.2588V14.2629V14.2669V14.271V14.2751V14.2793V14.2835V14.2877V14.2919V14.2962V14.3005V14.3048V14.3091V14.3135V14.3179V14.3223V14.3268V14.3313V14.3358V14.3403V14.3449V14.3495V14.3871V14.392V14.3968V14.4017V14.4066V14.4115V14.4165V14.4215V14.4265V14.4315V14.4366V14.4417V14.4468V14.4519V14.4571V14.4623V14.4675V14.4727V14.478V14.4832V14.4886V14.4939V14.4993V14.5046V14.51V14.5155V14.5209V14.5264V14.5319V14.5375V14.543V14.5486V14.5542V14.5598V14.5655V14.5711V14.5768V14.5826V14.5883V14.5941V14.5999V14.6057V14.6115V14.6174V14.6232V14.6292V14.6351V14.641V14.647V14.653V14.659V14.6651V14.6711V14.6772V14.6833V14.6895V14.6956V14.797V14.8035V14.8101V14.8166V14.8232V14.8298V14.8365V14.8431V14.8498V14.8564V14.8631V14.8699V14.8766V14.8834V14.8902V14.897V14.9038V14.9106V14.9175V14.9244V14.9313V14.9382V14.9452V14.9521V14.9591V14.9661V14.9731V14.9802V14.9872V14.9943V15.0014V15.0085V15.0156V16.5174C25.0662 16.2778 27.3825 16.1468 29.9773 16.146L40.3046 15.2773L42.0455 9.70194L43.9546 10.2981L42.12 16.1733L43.9266 20.6239L42.0734 21.3761L40.4089 17.2756L30.9957 18.0674C30.958 21.8375 30.6493 25.4395 29.1093 28.1602C28.2568 29.6662 27.0335 30.8958 25.3166 31.7374C23.6149 32.5716 21.4794 33 18.8268 33C13.7178 33 11.0172 32.8968 9.58382 32.7909C8.86944 32.7381 8.4475 32.6832 8.18918 32.6344C8.06043 32.6101 7.95193 32.5836 7.85843 32.5518C7.81077 32.5356 7.7567 32.5146 7.7003 32.4864C7.67152 32.472 7.63932 32.4544 7.60526 32.4328C7.58809 32.4219 7.56993 32.4096 7.55111 32.3959C7.54168 32.3891 7.53201 32.3818 7.52215 32.374L7.50719 32.3621L7.4996 32.3558C7.49605 32.3528 7.49252 32.3499 8 31.7515ZM20.8831 18.8411C14.0718 20.0349 11.0485 22.5682 9.73617 24.8631C9.51864 25.2434 9.34361 25.6242 9.20413 26H9.20702H9.21625H9.22568H9.23529H9.24508H9.25507H9.26523H9.27559H9.28612H9.29684H9.30774H9.31882H9.33009H9.34153H9.35315H9.36494H9.37692H9.38907H9.40139H9.41389H9.42656H9.43941H9.45242H9.46561H9.47897H9.4925H9.50619H9.52005H9.53408H9.54828H9.56264H9.57716H9.59185H9.6067H9.62172H9.63689H9.65222H9.66771H9.68336H9.69917H9.71514H9.73126H9.74753H9.76396H9.78055H9.79728H9.81417H9.83121H9.8484H9.86573H9.88322H9.90085H9.91863H9.93656H9.95463H9.97284H9.9912H10.0097H10.0283H10.0471H10.066H10.0851H10.1043H10.1236H10.1431H10.1627H10.1825H10.2024H10.2224H10.2425H10.2628H10.2832H10.3037H10.3244H10.3452H10.3661H10.3872H10.4083H10.4296H10.4511H10.4726H10.4943H10.5161H10.538H10.56H10.5821H10.6044H10.6268H10.6493H10.6719H10.6947H10.7175H10.7405H10.7635H10.7867H10.81H10.8334H10.8569H10.8805H10.9043H10.9281H10.952H10.9761H11.0002H11.0245H11.0488H11.0733H11.0978H11.1225H11.1473H11.1721H11.1971H11.2221H11.2473H11.2725H11.2978H11.3232H11.3488H11.3744H11.4001H11.4259H11.4517H11.4777H11.5037H11.5299H11.5561H11.5824H11.6088H11.6353H11.6618H11.6885H11.7152H11.742H11.7689H11.7958H11.8229H11.85H11.8772H11.9044H11.9318H11.9592H11.9866H12.0142H12.0418H12.0695H12.0973H12.1251H12.153H12.1809H12.209H12.2371H12.2652H12.2934H12.3217H12.35H12.3784H12.4069H12.4354H12.464H12.4926H12.5213H12.5501H12.5789H12.6077H12.6366H12.6656H12.6946H12.7237H12.7528H12.7819H12.8111H12.8404H12.8697H12.899H12.9284H12.9579H12.9873H13.0169H13.0464H13.076H13.1057H13.1353H13.1651H13.1948H13.2246H13.2544H13.2843H13.3142H13.3441H13.3741H13.4041H13.4341H13.4641H13.4942H13.5243H13.5544H13.5846H13.6148H13.645H13.6752H13.7055H13.7357H13.766H13.7964H13.8267H13.8571H13.8874H13.9178H13.9482H13.9787H14.0091H14.0395H14.07H14.1005H14.131H14.1615H14.192H14.2225H14.253H14.2835H14.3141H14.3446H14.3751H14.4057H14.4362H14.4668H14.4973H14.5279H14.5585H14.589H14.6196H14.6501H14.6806H14.7112H14.7417H14.7722H14.8027H14.8333H14.8638H14.8942H14.9247H14.9552H14.9857H15.0161H15.0465H15.0769H15.1073H15.1377H15.1681H15.1984H15.2288H15.2591H15.2893H15.3196H15.3499H15.3801H15.4103H15.4404H15.4706H15.5007H15.5308H15.5608H15.5909H15.6209H15.6509H15.6808H15.7107H15.7406H15.7704H15.8002H15.83H15.8597H15.8894H15.9191H15.9487H15.9783H16.0078H16.0373H16.0668H16.0962H16.1255H16.1549H16.1841H16.2134H16.2425H16.2717H16.3008H16.3298H16.3588H16.3877H16.4166H16.4454H16.4742H16.5029H16.5315H16.5602H16.5887H16.6172H16.6456H16.674H16.7023H16.7305H16.7587H16.7868H16.8149H16.8429H16.8708H16.8987H16.9264H16.9542H16.9818H17.0094H17.0369H17.0643H17.0917H17.119H17.1462H17.1734H17.2004H17.2274H17.2543H17.2812H17.3079H17.3346H17.3612H17.3877H17.4141H17.4405H17.4667H17.4929H17.519H17.545H17.5709H17.5968H17.6225H17.6481H17.6737H17.6992H17.7245H17.7498H17.775H17.8001H17.8251H17.85H17.8748H17.8995H17.9241H17.9486H17.973H17.9973H18.0215H18.0456H18.0695H18.0934H18.1172H18.1409H18.1644H18.1879H18.2112H18.2345H18.2576H18.2806H18.3035H18.3263H18.3489H18.3715H18.3939H18.4162H18.4384H18.4605H18.4825H18.5043H18.5261H18.5477H18.5691H18.5905H18.6117H18.6328H18.6538H18.6746H18.6954H18.716H18.7364H18.7568H18.777H18.797H18.817H18.8368H18.8564H18.876H18.8954H18.9146H18.9338H18.9528H18.9716H18.9903H19.0089H19.0273H19.0456H19.0637H19.0817H19.0995H19.1172H19.1348H19.1522H19.1694H19.1865H19.2035H19.2203H19.237H19.2535H19.2698H19.286H19.302H19.3179H19.3336H19.3492H19.3646H19.3798H19.3949H19.4098H19.4246H19.4392H19.4536H19.4679H19.482H19.4959H19.5097H19.5146C19.5765 25.8605 19.6492 25.6654 19.7285 25.4093C19.9534 24.6831 20.1723 23.6659 20.3649 22.5624C20.5939 21.2504 20.774 19.8866 20.8831 18.8411ZM5 10C4.44772 10 4 10.4477 4 11C4 11.5523 4.44772 12 5 12H38.0048C38.5571 12 39.0048 11.5523 39.0048 11C39.0048 10.4477 38.5571 10 38.0048 10H5ZM4.37531 34.2191C4.80657 33.8741 5.43586 33.944 5.78087 34.3753C6.00175 34.6514 6.56425 34.9758 7.53896 35.2552C8.46305 35.5201 9.57628 35.6956 10.6741 35.8089C11.7656 35.9215 12.8098 35.9695 13.5835 35.9892C13.9694 35.999 14.2861 36.0017 14.5051 36.002C14.6146 36.0021 14.6996 36.0016 14.7566 36.0011L14.8205 36.0004L14.8358 36.0002L14.8392 36.0002L14.8396 36.0002H14.8398L14.8484 36H14.8571H30.5C31.0523 36 31.5 36.4477 31.5 37C31.5 37.5523 31.0523 38 30.5 38H14.865L14.847 38.0003L14.774 38.001C14.7108 38.0016 14.6192 38.0021 14.5027 38.002C14.2697 38.0017 13.9368 37.9988 13.5326 37.9885C12.7259 37.968 11.6273 37.9178 10.4688 37.7983C9.31658 37.6794 8.07266 37.4888 6.98783 37.1778C5.9536 36.8813 4.85539 36.42 4.21913 35.6247C3.87412 35.1934 3.94404 34.5641 4.37531 34.2191Z" fill="#333333"/>
</svg>
