<svg width="48" height="48" viewBox="0 0 48 48" fill="none" xmlns="http://www.w3.org/2000/svg">
<path fill-rule="evenodd" clip-rule="evenodd" d="M48 0H0V48H48V0ZM17.3142 26.3354C17.6669 19.976 22.9266 15 29.2958 15H31.9969C32.5277 15 32.966 15.4146 32.9954 15.9445L33.4429 24H41.0101C41.5355 24 41.9712 24.4065 42.0077 24.9305L42.4628 31.4653C42.4829 31.7544 42.2538 32 41.964 32H18.057C17.483 32 17.0267 31.5178 17.0585 30.9446L17.3142 26.3354ZM29.3956 18H29.5C29.7761 18 30 18.2239 30 18.5V24.7243C30 25.0004 29.7761 25.2243 29.5 25.2243H28.4666C28.0278 25.2243 27.5923 25.2993 27.1804 25.4458L20.7099 27.7475C20.3729 27.8674 20.0227 27.6049 20.0432 27.2477L20.0844 26.5294C20.3589 21.7441 24.4462 18 29.3956 18ZM10.9077 12.733C10.9659 12.5402 10.7819 12.3566 10.5836 12.3915C10.0962 12.4773 9.58285 12.4605 9.07337 12.324C8.56404 12.1875 8.1112 11.9455 7.73208 11.6277C7.57772 11.4983 7.32664 11.5653 7.28061 11.7614L4.5187 23.5275L4.51876 23.5276L4.51882 23.5277L4.10298 25.8305C3.73328 27.8777 4.99457 29.8666 7.00404 30.405L7.17972 30.4521C8.72531 30.8662 10.369 30.3194 11.3585 29.0619L13.7149 26.0674C13.9868 25.7218 13.7123 25.2187 13.2745 25.2604L12.038 25.3782C12.0128 25.3806 11.9874 25.3792 11.9626 25.3739L9.3485 24.8215L7.66566 24.3706C7.52934 24.3341 7.45025 24.192 7.49102 24.0569L10.9077 12.733ZM9.33241 11.3585C10.6661 11.7159 12.0369 10.9244 12.3943 9.59075C12.7516 8.25708 11.9602 6.88624 10.6265 6.52889C9.29284 6.17153 7.92199 6.96299 7.56464 8.29665C7.20729 9.63032 7.99874 11.0012 9.33241 11.3585ZM13.2881 10.8332C13.1333 10.7852 13.0644 10.6049 13.1344 10.4587C13.2268 10.266 13.3027 10.0621 13.36 9.84818C13.5436 9.16315 13.5106 8.47111 13.3031 7.84471C13.237 7.64507 13.4086 7.42729 13.6141 7.47203C18.3674 8.5068 23.075 9.78211 25.618 14.1075C25.6994 14.2459 25.6265 14.4231 25.4732 14.471C24.3565 14.8198 23.3034 15.3153 22.3371 15.9356C22.2179 16.0121 22.0588 15.9774 21.98 15.8598C20.139 13.112 16.6189 11.866 13.2881 10.8332ZM15 38C15 35.7909 16.7909 34 19 34H39C41.2091 34 43 35.7909 43 38C43 40.2091 41.2091 42 39 42H19C16.7909 42 15 40.2091 15 38ZM20 40C21.1046 40 22 39.1046 22 38C22 36.8954 21.1046 36 20 36C18.8954 36 18 36.8954 18 38C18 39.1046 18.8954 40 20 40ZM26 40C27.1046 40 28 39.1046 28 38C28 36.8954 27.1046 36 26 36C24.8954 36 24 36.8954 24 38C24 39.1046 24.8954 40 26 40ZM34 38C34 39.1046 33.1046 40 32 40C30.8954 40 30 39.1046 30 38C30 36.8954 30.8954 36 32 36C33.1046 36 34 36.8954 34 38ZM38 40C39.1046 40 40 39.1046 40 38C40 36.8954 39.1046 36 38 36C36.8954 36 36 36.8954 36 38C36 39.1046 36.8954 40 38 40Z" fill="#333333"/>
</svg>
