<svg width="48" height="48" viewBox="0 0 48 48" fill="none" xmlns="http://www.w3.org/2000/svg">
<path fill-rule="evenodd" clip-rule="evenodd" d="M48 0H0V48H48V0ZM9.33241 11.3586C10.6661 11.7159 12.0369 10.9244 12.3943 9.59078C12.7516 8.25712 11.9602 6.88628 10.6265 6.52892C9.29284 6.17157 7.922 6.96302 7.56464 8.29669C7.20729 9.63035 7.99874 11.0012 9.33241 11.3586ZM10.5836 12.3917C10.782 12.3568 10.9659 12.5403 10.9078 12.7332L7.49106 24.0571C7.45029 24.1922 7.52937 24.3342 7.66569 24.3708L9.34853 24.8217L11.9627 25.3741C11.9874 25.3793 12.0129 25.3807 12.0381 25.3783L13.2745 25.2606C13.7123 25.2189 13.9868 25.7219 13.7149 26.0675L11.3585 29.0621C10.369 30.3195 8.72535 30.8664 7.17976 30.4522L7.00407 30.4051C4.9946 29.8667 3.73332 27.8778 4.10302 25.8306L4.51886 23.5278L4.5188 23.5277L4.51874 23.5276L7.28065 11.7615C7.32667 11.5654 7.57776 11.4984 7.73211 11.6278C8.11123 11.9456 8.56408 12.1876 9.07341 12.3241C9.58289 12.4606 10.0962 12.4774 10.5836 12.3917ZM13.2881 10.8332C13.1333 10.7852 13.0644 10.6049 13.1344 10.4587C13.2268 10.266 13.3027 10.062 13.36 9.84815C13.5436 9.16312 13.5106 8.47109 13.3031 7.84469C13.237 7.64505 13.4086 7.42727 13.6141 7.47201C18.3674 8.50678 23.075 9.78209 25.618 14.1075C25.6994 14.2459 25.6265 14.4231 25.4732 14.471C24.3565 14.8198 23.3034 15.3153 22.3371 15.9356C22.218 16.0121 22.0588 15.9774 21.98 15.8598C20.139 13.112 16.6189 11.866 13.2881 10.8332ZM17.3142 26.3354C17.6669 19.976 22.9265 15 29.2958 15H31.9969C32.5277 15 32.9659 15.4146 32.9954 15.9445L33.4429 24H41.0101C41.5354 24 41.9712 24.4065 42.0077 24.9305L42.4627 31.4653C42.4829 31.7544 42.2538 32 41.9639 32H18.057C17.4829 32 17.0267 31.5178 17.0585 30.9446L17.3142 26.3354ZM29.3955 18H29.5C29.7761 18 30 18.2239 30 18.5V24.7243C30 25.0004 29.7761 25.2243 29.5 25.2243H28.4666C28.0277 25.2243 27.5923 25.2993 27.1803 25.4458L20.7099 27.7475C20.3729 27.8674 20.0226 27.6049 20.0431 27.2477L20.0843 26.5294C20.3589 21.7441 24.4461 18 29.3955 18ZM19 34C16.7909 34 15 35.7909 15 38C15 40.2091 16.7909 42 19 42H39C41.2091 42 43 40.2091 43 38C43 35.7909 41.2091 34 39 34H19ZM22 38C22 39.1046 21.1046 40 20 40C18.8954 40 18 39.1046 18 38C18 36.8954 18.8954 36 20 36C21.1046 36 22 36.8954 22 38ZM28 38C28 39.1046 27.1046 40 26 40C24.8954 40 24 39.1046 24 38C24 36.8954 24.8954 36 26 36C27.1046 36 28 36.8954 28 38ZM32 40C33.1046 40 34 39.1046 34 38C34 36.8954 33.1046 36 32 36C30.8954 36 30 36.8954 30 38C30 39.1046 30.8954 40 32 40ZM40 38C40 39.1046 39.1046 40 38 40C36.8954 40 36 39.1046 36 38C36 36.8954 36.8954 36 38 36C39.1046 36 40 36.8954 40 38Z" fill="#333333"/>
</svg>
