<svg width="48" height="48" viewBox="0 0 48 48" fill="none" xmlns="http://www.w3.org/2000/svg">
<path fill-rule="evenodd" clip-rule="evenodd" d="M48 0H0V48H48V0ZM8.88889 17.5238L12.127 14.2857C12.127 14.2857 12.127 16.4444 14.2857 18.6032L16.4444 20.7619L6.73016 30.4762L9.96825 33.7143L24 28.3175L32.6349 34.7936L30.4762 39.1111L31.5555 40.1905L40.1905 31.5556L39.1111 30.4762L34.7936 32.6349L28.3175 24L33.7143 9.96826L30.4762 6.73016L20.7619 16.4444L18.6032 14.2857C16.4444 12.127 14.2857 12.127 14.2857 12.127L17.5238 8.88889C18.6032 7.80953 17.5238 6.73016 16.4444 7.80953L7.80952 16.4444C6.73016 17.5238 7.80952 18.6032 8.88889 17.5238Z" fill="#333333"/>
</svg>
