<svg width="48" height="48" viewBox="0 0 48 48" fill="none" xmlns="http://www.w3.org/2000/svg">
<path fill-rule="evenodd" clip-rule="evenodd" d="M48 0H0V48H48V0ZM8 22.9999C8 23.5304 8.21073 24.0391 8.58583 24.4142C8.96093 24.7893 9.46968 25 10.0001 24.9999C14.9279 24.9996 17.2807 24.9997 19.8154 24.9998H19.8454C22.0995 25 24.5059 25.0001 29.0001 24.9999C30.1046 24.9999 31 24.1045 31 22.9999C31 21.9557 30.8498 20.9501 30.5701 20H42C42.5523 20 43 19.5523 43 19C43 18.4477 42.5523 18 42 18H30C29.9192 18 29.8407 18.0096 29.7654 18.0277C27.8519 14.4207 23.9258 12 19.5 12C13.252 12 8 16.8243 8 22.9999ZM5.76364 31.9931L8.43031 34.9931C8.99961 35.6336 9.81562 36 10.6725 36H36.7198C37.7228 36 38.6595 35.4987 39.2159 34.6641L41.2159 31.6641C42.545 29.6704 41.1159 27 38.7198 27H8.00587C5.41732 27 4.0439 30.0584 5.76364 31.9931ZM12.5 34C13.8807 34 15 32.8807 15 31.5C15 30.1193 13.8807 29 12.5 29C11.1193 29 10 30.1193 10 31.5C10 32.8807 11.1193 34 12.5 34ZM26 31.5C26 32.8807 24.8807 34 23.5 34C22.1193 34 21 32.8807 21 31.5C21 30.1193 22.1193 29 23.5 29C24.8807 29 26 30.1193 26 31.5ZM34.5 34C35.8807 34 37 32.8807 37 31.5C37 30.1193 35.8807 29 34.5 29C33.1193 29 32 30.1193 32 31.5C32 32.8807 33.1193 34 34.5 34Z" fill="#333333"/>
</svg>
