<svg width="48" height="48" viewBox="0 0 48 48" fill="none" xmlns="http://www.w3.org/2000/svg">
<path fill-rule="evenodd" clip-rule="evenodd" d="M30.5821 31.1869C31.0311 31.5083 31.1346 32.133 30.8132 32.5821C30.2266 33.4015 29.477 34.1469 28.5973 34.8021C28.1543 35.1319 27.5278 35.0402 27.198 34.5973C26.8681 34.1543 26.9598 33.5278 27.4027 33.198C28.1377 32.6506 28.7349 32.0493 29.1869 31.4179C29.5083 30.9689 30.133 30.8654 30.5821 31.1869Z" fill="#333333"/>
<path fill-rule="evenodd" clip-rule="evenodd" d="M25.8321 36.4453C26.1384 36.9048 26.0142 37.5257 25.5547 37.8321L25 37C25.5547 37.8321 25.555 37.8318 25.5547 37.8321L25.5534 37.8329L25.5519 37.8339L25.5486 37.8361L25.5401 37.8416L25.5165 37.8567C25.4978 37.8686 25.4731 37.8838 25.4425 37.9021C25.3813 37.9385 25.2965 37.9868 25.1891 38.0428C24.9745 38.1548 24.6686 38.2982 24.2792 38.4398C23.5005 38.723 22.3845 39 21 39C20.4477 39 20 38.5523 20 38C20 37.4477 20.4477 37 21 37C22.1155 37 22.9995 36.777 23.5958 36.5602C23.8939 36.4518 24.1192 36.3452 24.264 36.2697C24.3363 36.2319 24.3882 36.2021 24.4189 36.1839C24.4342 36.1748 24.4441 36.1686 24.4486 36.1657L24.4475 36.1665L24.4465 36.1672C24.448 36.1661 24.449 36.1655 24.4506 36.1645C24.4501 36.1648 24.4494 36.1652 24.4486 36.1657L24.4506 36.1645C24.4512 36.164 24.4509 36.1643 24.4506 36.1645C24.9095 35.8626 25.5269 35.9875 25.8321 36.4453Z" fill="#333333"/>
<path fill-rule="evenodd" clip-rule="evenodd" d="M36.0129 39.5001C36.5651 39.5072 37.007 39.9607 36.9999 40.5129C36.9917 41.1496 37.094 41.6783 37.1961 42.0425C37.2471 42.224 37.2973 42.3626 37.3324 42.4507C37.3499 42.4947 37.3635 42.5258 37.3713 42.5431L37.3784 42.5585C37.6209 43.0512 37.4205 43.6481 36.9287 43.8943C36.4348 44.1414 35.834 43.9414 35.5869 43.4476L36.4811 43C35.5869 43.4476 35.587 43.4478 35.5869 43.4476L35.5857 43.4452L35.5843 43.4425L35.5811 43.4359L35.5726 43.4182C35.566 43.4044 35.5577 43.3867 35.548 43.3651C35.5285 43.3219 35.5032 43.2632 35.474 43.1899C35.4158 43.0437 35.3422 42.8385 35.2704 42.5825C35.1272 42.0717 34.9889 41.3504 35.0001 40.4871C35.0072 39.9349 35.4607 39.493 36.0129 39.5001Z" fill="#333333"/>
<path fill-rule="evenodd" clip-rule="evenodd" d="M36.8162 33.0513C37.3398 33.2258 37.6229 33.7917 37.449 34.3154C37.449 34.3154 37.449 34.3154 37.449 34.3154L37.4461 34.3242L37.4334 34.3645C37.4218 34.4015 37.4045 34.4585 37.3834 34.5325C37.341 34.6808 37.2837 34.8957 37.2262 35.1544C37.1095 35.6793 37 36.3508 37 37C37 37.5523 36.5523 38 36 38C35.4477 38 35 37.5523 35 37C35 36.1492 35.1405 35.3207 35.2738 34.7206C35.3413 34.4168 35.409 34.1629 35.4604 33.9831C35.4861 33.893 35.5079 33.8211 35.5237 33.7703C35.5316 33.7449 35.538 33.7247 35.5427 33.7102L35.5484 33.6926L35.5502 33.6871L35.5512 33.6841C35.5513 33.6839 35.5513 33.6838 36.4909 33.997L35.5512 33.6841C35.7259 33.1601 36.2923 32.8767 36.8162 33.0513Z" fill="#333333"/>
<path fill-rule="evenodd" clip-rule="evenodd" d="M29.5547 39.1679C30.0142 39.4743 30.1384 40.0952 29.8321 40.5547C29.266 41.4038 28.5716 42.0942 28.0335 42.5651C27.7617 42.8029 27.523 42.9906 27.35 43.1203C27.2634 43.1853 27.1928 43.236 27.1424 43.2716C27.1171 43.2894 27.0969 43.3034 27.0821 43.3135L27.0641 43.3257L27.0583 43.3296L27.0562 43.331L27.0554 43.3316C27.0552 43.3317 27.0547 43.3321 26.5 42.5" fill="#333333"/>
<path fill-rule="evenodd" clip-rule="evenodd" d="M33.449 33.1065C33.9425 33.3544 34.1415 33.9555 33.8935 34.449C33.7341 34.7663 33.6236 35.0491 33.4982 35.3698C33.4317 35.5399 33.361 35.7206 33.2767 35.9229C33.0497 36.4673 32.7592 37.0616 32.2625 37.647C31.9052 38.0681 31.2742 38.1198 30.853 37.7625C30.4319 37.4052 30.3802 36.7742 30.7375 36.353C31.0441 35.9917 31.2402 35.61 31.4308 35.1531C31.4811 35.0323 31.5353 34.8944 31.5936 34.7458C31.7369 34.3806 31.9056 33.9508 32.1065 33.551C32.3544 33.0575 32.9555 32.8585 33.449 33.1065Z" fill="#333333"/>
<path fill-rule="evenodd" clip-rule="evenodd" d="M14 6C9.58172 6 6 9.58172 6 14C6 18.4183 9.58172 22 14 22C18.4183 22 22 18.4183 22 14C22 9.58172 18.4183 6 14 6ZM4 14C4 8.47715 8.47715 4 14 4C19.5228 4 24 8.47715 24 14C24 19.5228 19.5228 24 14 24C8.47715 24 4 19.5228 4 14Z" fill="#333333"/>
<path fill-rule="evenodd" clip-rule="evenodd" d="M20.7071 7.29289C21.0976 7.68342 21.0976 8.31658 20.7071 8.70711L8.70711 20.7071C8.31658 21.0976 7.68342 21.0976 7.29289 20.7071C6.90237 20.3166 6.90237 19.6834 7.29289 19.2929L19.2929 7.29289C19.6834 6.90237 20.3166 6.90237 20.7071 7.29289Z" fill="#333333"/>
<path fill-rule="evenodd" clip-rule="evenodd" d="M30.0621 18.5327C33.7187 15.8079 37.1615 8.9766 38.4576 6.2008C38.7967 5.47473 39.52 5 40.3213 5H43.4384C44.7396 5 45.6943 6.22278 45.3787 7.48507L45.0924 8.63049C44.1687 12.3252 44.4046 16.2149 44.7632 20.0201C43.9475 19.3601 42.8941 18.9217 41.6003 18.9292L41.6119 20.9292C42.876 20.9219 43.7658 21.5976 44.331 22.5429C44.7679 23.2737 44.9608 24.0885 44.969 24.7247C44.5486 29.4549 40 29 40 29H39.118C38.3828 29 37.6576 28.8288 37 28.5C36.3424 28.1712 35.6172 28 34.882 28H34.0122C34.0897 27.6172 34.3166 27.2283 34.7478 26.9808C35.2284 26.7049 36.1351 26.5073 37.7253 26.9616C38.2563 27.1134 38.8098 26.8059 38.9615 26.2748C39.1132 25.7438 38.8057 25.1903 38.2747 25.0386C36.3648 24.4929 34.8549 24.6132 33.7521 25.2463C32.6457 25.8815 32.1227 26.9348 32.0074 27.8787C32.0024 27.9195 31.9999 27.9599 31.9999 28H31.4291C27.3281 28 24.5941 22.5894 30.0621 18.5327Z" fill="#333333"/>
</svg>
