<svg width="48" height="48" viewBox="0 0 48 48" fill="none" xmlns="http://www.w3.org/2000/svg">
<path fill-rule="evenodd" clip-rule="evenodd" d="M16 4C13.7909 4 12 5.79086 12 8V22.9999C12.5523 22.9999 13 23.4477 13 23.9999C13 24.5522 12.5523 24.9999 12 24.9999V40C12 42.2091 13.7909 44 16 44H32C34.2091 44 36 42.2091 36 40V24.9999C35.4477 24.9999 35 24.5522 35 23.9999C35 23.4477 35.4477 22.9999 36 22.9999V8C36 5.79086 34.2091 4 32 4H16ZM22.0711 11.4142C21.29 10.6331 20.0237 10.6331 19.2426 11.4142L16.4142 14.2426C15.6332 15.0236 15.6332 16.29 16.4142 17.071C17.1953 17.8521 18.4616 17.8521 19.2426 17.071L22.0711 14.2426C22.8521 13.4615 22.8521 12.1952 22.0711 11.4142ZM15 24.9999C15.5523 24.9999 16 24.5522 16 23.9999C16 23.4477 15.5523 22.9999 15 22.9999C14.4477 22.9999 14 23.4477 14 23.9999C14 24.5522 14.4477 24.9999 15 24.9999ZM19 23.9999C19 24.5522 18.5523 24.9999 18 24.9999C17.4477 24.9999 17 24.5522 17 23.9999C17 23.4477 17.4477 22.9999 18 22.9999C18.5523 22.9999 19 23.4477 19 23.9999ZM21 24.9999C21.5523 24.9999 22 24.5522 22 23.9999C22 23.4477 21.5523 22.9999 21 22.9999C20.4477 22.9999 20 23.4477 20 23.9999C20 24.5522 20.4477 24.9999 21 24.9999ZM25 23.9999C25 24.5522 24.5523 24.9999 24 24.9999C23.4477 24.9999 23 24.5522 23 23.9999C23 23.4477 23.4477 22.9999 24 22.9999C24.5523 22.9999 25 23.4477 25 23.9999ZM27 24.9999C27.5523 24.9999 28 24.5522 28 23.9999C28 23.4477 27.5523 22.9999 27 22.9999C26.4477 22.9999 26 23.4477 26 23.9999C26 24.5522 26.4477 24.9999 27 24.9999ZM31 23.9999C31 24.5522 30.5523 24.9999 30 24.9999C29.4477 24.9999 29 24.5522 29 23.9999C29 23.4477 29.4477 22.9999 30 22.9999C30.5523 22.9999 31 23.4477 31 23.9999ZM33 24.9999C33.5523 24.9999 34 24.5522 34 23.9999C34 23.4477 33.5523 22.9999 33 22.9999C32.4477 22.9999 32 23.4477 32 23.9999C32 24.5522 32.4477 24.9999 33 24.9999ZM28.2426 11.4142C29.0237 10.6331 30.29 10.6331 31.0711 11.4142C31.8521 12.1952 31.8521 13.4615 31.0711 14.2426L28.2426 17.071C27.4616 17.8521 26.1953 17.8521 25.4142 17.071C24.6332 16.29 24.6332 15.0236 25.4142 14.2426L28.2426 11.4142ZM22.0711 31.4142C21.29 30.6331 20.0237 30.6331 19.2426 31.4142L16.4142 34.2426C15.6332 35.0236 15.6332 36.29 16.4142 37.071C17.1953 37.8521 18.4616 37.8521 19.2426 37.071L22.0711 34.2426C22.8521 33.4615 22.8521 32.1952 22.0711 31.4142ZM28.2426 31.4142C29.0237 30.6331 30.29 30.6331 31.0711 31.4142C31.8521 32.1952 31.8521 33.4615 31.0711 34.2426L28.2426 37.071C27.4616 37.8521 26.1953 37.8521 25.4142 37.071C24.6332 36.29 24.6332 35.0236 25.4142 34.2426L28.2426 31.4142Z" fill="#333333"/>
</svg>
