<svg width="48" height="48" viewBox="0 0 48 48" fill="none" xmlns="http://www.w3.org/2000/svg">
<path fill-rule="evenodd" clip-rule="evenodd" d="M12 8C12 5.79086 13.7909 4 16 4H32C34.2091 4 36 5.79086 36 8V23C35.4477 23 35 23.4477 35 24C35 24.5523 35.4477 25 36 25V40C36 42.2091 34.2091 44 32 44H16C13.7909 44 12 42.2091 12 40V25C12.5523 25 13 24.5523 13 24C13 23.4477 12.5523 23 12 23V8ZM16 24C16 24.5523 15.5523 25 15 25C14.4477 25 14 24.5523 14 24C14 23.4477 14.4477 23 15 23C15.5523 23 16 23.4477 16 24ZM18 25C18.5523 25 19 24.5523 19 24C19 23.4477 18.5523 23 18 23C17.4477 23 17 23.4477 17 24C17 24.5523 17.4477 25 18 25ZM22 24C22 24.5523 21.5523 25 21 25C20.4477 25 20 24.5523 20 24C20 23.4477 20.4477 23 21 23C21.5523 23 22 23.4477 22 24ZM24 25C24.5523 25 25 24.5523 25 24C25 23.4477 24.5523 23 24 23C23.4477 23 23 23.4477 23 24C23 24.5523 23.4477 25 24 25ZM28 24C28 24.5523 27.5523 25 27 25C26.4477 25 26 24.5523 26 24C26 23.4477 26.4477 23 27 23C27.5523 23 28 23.4477 28 24ZM30 25C30.5523 25 31 24.5523 31 24C31 23.4477 30.5523 23 30 23C29.4477 23 29 23.4477 29 24C29 24.5523 29.4477 25 30 25ZM34 24C34 24.5523 33.5523 25 33 25C32.4477 25 32 24.5523 32 24C32 23.4477 32.4477 23 33 23C33.5523 23 34 23.4477 34 24ZM22 14C22 15.6569 20.6569 17 19 17C17.3431 17 16 15.6569 16 14C16 12.3431 17.3431 11 19 11C20.6569 11 22 12.3431 22 14ZM32 14C32 15.6569 30.6569 17 29 17C27.3431 17 26 15.6569 26 14C26 12.3431 27.3431 11 29 11C30.6569 11 32 12.3431 32 14ZM19 37C20.6569 37 22 35.6569 22 34C22 32.3431 20.6569 31 19 31C17.3431 31 16 32.3431 16 34C16 35.6569 17.3431 37 19 37ZM32 34C32 35.6569 30.6569 37 29 37C27.3431 37 26 35.6569 26 34C26 32.3431 27.3431 31 29 31C30.6569 31 32 32.3431 32 34Z" fill="#333333"/>
</svg>
