<svg width="48" height="48" viewBox="0 0 48 48" fill="none" xmlns="http://www.w3.org/2000/svg">
<path fill-rule="evenodd" clip-rule="evenodd" d="M12 8C12 5.79086 13.7909 4 16 4H32C34.2091 4 36 5.79086 36 8V23C35.4477 23 35 23.4477 35 24C35 24.5523 35.4477 25 36 25V40C36 42.2091 34.2091 44 32 44H16C13.7909 44 12 42.2091 12 40V25C12.5523 25 13 24.5523 13 24C13 23.4477 12.5523 23 12 23V8ZM15 25C15.5523 25 16 24.5523 16 24C16 23.4477 15.5523 23 15 23C14.4477 23 14 23.4477 14 24C14 24.5523 14.4477 25 15 25ZM19 24C19 24.5523 18.5523 25 18 25C17.4477 25 17 24.5523 17 24C17 23.4477 17.4477 23 18 23C18.5523 23 19 23.4477 19 24ZM21 25C21.5523 25 22 24.5523 22 24C22 23.4477 21.5523 23 21 23C20.4477 23 20 23.4477 20 24C20 24.5523 20.4477 25 21 25ZM25 24C25 24.5523 24.5523 25 24 25C23.4477 25 23 24.5523 23 24C23 23.4477 23.4477 23 24 23C24.5523 23 25 23.4477 25 24ZM27 25C27.5523 25 28 24.5523 28 24C28 23.4477 27.5523 23 27 23C26.4477 23 26 23.4477 26 24C26 24.5523 26.4477 25 27 25ZM31 24C31 24.5523 30.5523 25 30 25C29.4477 25 29 24.5523 29 24C29 23.4477 29.4477 23 30 23C30.5523 23 31 23.4477 31 24ZM33 25C33.5523 25 34 24.5523 34 24C34 23.4477 33.5523 23 33 23C32.4477 23 32 23.4477 32 24C32 24.5523 32.4477 25 33 25ZM18 10.5C18 11.3284 17.3284 12 16.5 12C15.6716 12 15 11.3284 15 10.5C15 9.67157 15.6716 9 16.5 9C17.3284 9 18 9.67157 18 10.5ZM23 10.5C23 11.3284 22.3284 12 21.5 12C20.6716 12 20 11.3284 20 10.5C20 9.67157 20.6716 9 21.5 9C22.3284 9 23 9.67157 23 10.5ZM26.5 12C27.3284 12 28 11.3284 28 10.5C28 9.67157 27.3284 9 26.5 9C25.6716 9 25 9.67157 25 10.5C25 11.3284 25.6716 12 26.5 12ZM33 10.5C33 11.3284 32.3284 12 31.5 12C30.6716 12 30 11.3284 30 10.5C30 9.67157 30.6716 9 31.5 9C32.3284 9 33 9.67157 33 10.5ZM16.5 17C17.3284 17 18 16.3284 18 15.5C18 14.6716 17.3284 14 16.5 14C15.6716 14 15 14.6716 15 15.5C15 16.3284 15.6716 17 16.5 17ZM23 15.5C23 16.3284 22.3284 17 21.5 17C20.6716 17 20 16.3284 20 15.5C20 14.6716 20.6716 14 21.5 14C22.3284 14 23 14.6716 23 15.5ZM26.5 17C27.3284 17 28 16.3284 28 15.5C28 14.6716 27.3284 14 26.5 14C25.6716 14 25 14.6716 25 15.5C25 16.3284 25.6716 17 26.5 17ZM33 15.5C33 16.3284 32.3284 17 31.5 17C30.6716 17 30 16.3284 30 15.5C30 14.6716 30.6716 14 31.5 14C32.3284 14 33 14.6716 33 15.5ZM16.5 33C17.3284 33 18 32.3284 18 31.5C18 30.6716 17.3284 30 16.5 30C15.6716 30 15 30.6716 15 31.5C15 32.3284 15.6716 33 16.5 33ZM23 31.5C23 32.3284 22.3284 33 21.5 33C20.6716 33 20 32.3284 20 31.5C20 30.6716 20.6716 30 21.5 30C22.3284 30 23 30.6716 23 31.5ZM26.5 33C27.3284 33 28 32.3284 28 31.5C28 30.6716 27.3284 30 26.5 30C25.6716 30 25 30.6716 25 31.5C25 32.3284 25.6716 33 26.5 33ZM33 31.5C33 32.3284 32.3284 33 31.5 33C30.6716 33 30 32.3284 30 31.5C30 30.6716 30.6716 30 31.5 30C32.3284 30 33 30.6716 33 31.5ZM16.5 38C17.3284 38 18 37.3284 18 36.5C18 35.6716 17.3284 35 16.5 35C15.6716 35 15 35.6716 15 36.5C15 37.3284 15.6716 38 16.5 38ZM23 36.5C23 37.3284 22.3284 38 21.5 38C20.6716 38 20 37.3284 20 36.5C20 35.6716 20.6716 35 21.5 35C22.3284 35 23 35.6716 23 36.5ZM26.5 38C27.3284 38 28 37.3284 28 36.5C28 35.6716 27.3284 35 26.5 35C25.6716 35 25 35.6716 25 36.5C25 37.3284 25.6716 38 26.5 38ZM33 36.5C33 37.3284 32.3284 38 31.5 38C30.6716 38 30 37.3284 30 36.5C30 35.6716 30.6716 35 31.5 35C32.3284 35 33 35.6716 33 36.5Z" fill="#333333"/>
</svg>
