<svg width="48" height="48" viewBox="0 0 48 48" fill="none" xmlns="http://www.w3.org/2000/svg">
<mask id="path-1-inside-1" fill="white">
<path fill-rule="evenodd" clip-rule="evenodd" d="M31.3692 25.9151L24.874 29.6651L28.374 35.7273L34.8692 31.9773C36.5432 31.0108 37.1167 28.8703 36.1502 27.1962C35.1837 25.5222 33.0432 24.9486 31.3692 25.9151ZM29.374 37.4594L35.8692 33.7094C38.4998 32.1906 39.4011 28.8268 37.8823 26.1962C36.3635 23.5656 32.9998 22.6643 30.3692 24.1831L23.874 27.9331C23.7359 27.6939 23.4301 27.612 23.191 27.7501L15.8297 32.0001C12.96 33.6569 11.9767 37.3265 13.6336 40.1962C15.2904 43.066 18.96 44.0492 21.8297 42.3924L29.191 38.1424C29.4301 38.0043 29.512 37.6985 29.374 37.4594ZM19.9767 31.7207L16.2326 33.8602C14.7263 34.721 14.0573 36.4751 14.4724 38.0734C14.6112 38.6079 15.2375 38.7748 15.717 38.5008C15.9568 38.3638 16.0338 38.0587 15.9523 37.7949C15.6456 36.8026 16.0505 35.6919 16.9768 35.1626L20.7209 33.0231C21.0805 32.8176 21.2055 32.3595 21 31.9998C20.7944 31.6402 20.3363 31.5152 19.9767 31.7207Z"/>
</mask>
<path fill-rule="evenodd" clip-rule="evenodd" d="M31.3692 25.9151L24.874 29.6651L28.374 35.7273L34.8692 31.9773C36.5432 31.0108 37.1167 28.8703 36.1502 27.1962C35.1837 25.5222 33.0432 24.9486 31.3692 25.9151ZM29.374 37.4594L35.8692 33.7094C38.4998 32.1906 39.4011 28.8268 37.8823 26.1962C36.3635 23.5656 32.9998 22.6643 30.3692 24.1831L23.874 27.9331C23.7359 27.6939 23.4301 27.612 23.191 27.7501L15.8297 32.0001C12.96 33.6569 11.9767 37.3265 13.6336 40.1962C15.2904 43.066 18.96 44.0492 21.8297 42.3924L29.191 38.1424C29.4301 38.0043 29.512 37.6985 29.374 37.4594ZM19.9767 31.7207L16.2326 33.8602C14.7263 34.721 14.0573 36.4751 14.4724 38.0734C14.6112 38.6079 15.2375 38.7748 15.717 38.5008C15.9568 38.3638 16.0338 38.0587 15.9523 37.7949C15.6456 36.8026 16.0505 35.6919 16.9768 35.1626L20.7209 33.0231C21.0805 32.8176 21.2055 32.3595 21 31.9998C20.7944 31.6402 20.3363 31.5152 19.9767 31.7207Z" fill="#333333"/>
<path d="M24.874 29.6651L24.374 28.7991L23.5079 29.2991L24.0079 30.1651L24.874 29.6651ZM31.3692 25.9151L30.8692 25.0491V25.0491L31.3692 25.9151ZM28.374 35.7273L27.5079 36.2273L28.0079 37.0933L28.874 36.5933L28.374 35.7273ZM34.8692 31.9773L34.3692 31.1113L34.8692 31.9773ZM36.1502 27.1962L35.2842 27.6962V27.6962L36.1502 27.1962ZM35.8692 33.7094L35.3692 32.8433V32.8433L35.8692 33.7094ZM29.374 37.4594L28.874 36.5933L28.0079 37.0933L28.5079 37.9594L29.374 37.4594ZM37.8823 26.1962L38.7483 25.6962V25.6962L37.8823 26.1962ZM30.3692 24.1831L29.8692 23.3171V23.3171L30.3692 24.1831ZM23.874 27.9331L23.0079 28.4331L23.5079 29.2991L24.374 28.7991L23.874 27.9331ZM23.191 27.7501L22.691 26.8841V26.8841L23.191 27.7501ZM15.8297 32.0001L15.3297 31.1341H15.3297L15.8297 32.0001ZM13.6336 40.1962L12.7676 40.6962H12.7676L13.6336 40.1962ZM21.8297 42.3924L22.3297 43.2584L21.8297 42.3924ZM29.191 38.1424L29.691 39.0084H29.691L29.191 38.1424ZM16.2326 33.8602L15.7364 32.992L16.2326 33.8602ZM19.9767 31.7207L20.4728 32.589L19.9767 31.7207ZM14.4724 38.0734L13.5045 38.3248L14.4724 38.0734ZM15.9523 37.7949L16.9077 37.4996V37.4996L15.9523 37.7949ZM16.9768 35.1626L16.4806 34.2943L16.9768 35.1626ZM20.7209 33.0231L21.217 33.8913L21.217 33.8913L20.7209 33.0231ZM25.374 30.5312L31.8692 26.7812L30.8692 25.0491L24.374 28.7991L25.374 30.5312ZM29.24 35.2273L25.74 29.1651L24.0079 30.1651L27.5079 36.2273L29.24 35.2273ZM34.3692 31.1113L27.874 34.8613L28.874 36.5933L35.3692 32.8433L34.3692 31.1113ZM35.2842 27.6962C35.9746 28.892 35.5649 30.4209 34.3692 31.1113L35.3692 32.8433C37.5215 31.6007 38.2589 28.8485 37.0163 26.6962L35.2842 27.6962ZM31.8692 26.7812C33.0649 26.0908 34.5939 26.5005 35.2842 27.6962L37.0163 26.6962C35.7736 24.5439 33.0215 23.8065 30.8692 25.0491L31.8692 26.7812ZM35.3692 32.8433L28.874 36.5933L29.874 38.3254L36.3692 34.5754L35.3692 32.8433ZM37.0163 26.6962C38.2589 28.8485 37.5215 31.6007 35.3692 32.8433L36.3692 34.5754C39.4781 32.7805 40.5432 28.8051 38.7483 25.6962L37.0163 26.6962ZM30.8692 25.0491C33.0215 23.8065 35.7736 24.5439 37.0163 26.6962L38.7483 25.6962C36.9534 22.5873 32.9781 21.5221 29.8692 23.3171L30.8692 25.0491ZM24.374 28.7991L30.8692 25.0491L29.8692 23.3171L23.374 27.0671L24.374 28.7991ZM23.691 28.6161C23.4518 28.7542 23.146 28.6722 23.0079 28.4331L24.74 27.4331C24.3258 26.7157 23.4084 26.4698 22.691 26.8841L23.691 28.6161ZM16.3297 32.8661L23.691 28.6161L22.691 26.8841L15.3297 31.1341L16.3297 32.8661ZM14.4996 39.6962C13.1189 37.3048 13.9383 34.2468 16.3297 32.8661L15.3297 31.1341C11.9817 33.067 10.8346 37.3482 12.7676 40.6962L14.4996 39.6962ZM21.3297 41.5264C18.9383 42.9071 15.8803 42.0877 14.4996 39.6962L12.7676 40.6962C14.7006 44.0443 18.9817 45.1914 22.3297 43.2584L21.3297 41.5264ZM28.691 37.2764L21.3297 41.5264L22.3297 43.2584L29.691 39.0084L28.691 37.2764ZM28.5079 37.9594C28.3699 37.7202 28.4518 37.4144 28.691 37.2764L29.691 39.0084C30.4084 38.5942 30.6542 37.6768 30.24 36.9594L28.5079 37.9594ZM16.7287 34.7285L20.4728 32.589L19.4805 30.8525L15.7364 32.992L16.7287 34.7285ZM15.4403 37.822C15.1334 36.6407 15.6319 35.3552 16.7287 34.7285L15.7364 32.992C13.8206 34.0867 12.9811 36.3095 13.5045 38.3248L15.4403 37.822ZM15.2209 37.6325C15.2149 37.636 15.2274 37.6238 15.2697 37.6372C15.2941 37.645 15.3313 37.663 15.3684 37.7004C15.4077 37.7401 15.4309 37.7858 15.4403 37.822L13.5045 38.3248C13.6686 38.9566 14.1354 39.3754 14.6642 39.5434C15.1742 39.7054 15.7396 39.6396 16.2132 39.369L15.2209 37.6325ZM14.9969 38.0902C14.9812 38.0396 14.9763 37.9758 14.9997 37.9003C15.0251 37.8179 15.0917 37.7064 15.2209 37.6325L16.2132 39.369C16.9674 38.938 17.0872 38.0805 16.9077 37.4996L14.9969 38.0902ZM16.4806 34.2943C15.1312 35.0655 14.5575 36.6686 14.9969 38.0902L16.9077 37.4996C16.7336 36.9365 16.9697 36.3184 17.4729 36.0308L16.4806 34.2943ZM20.2247 32.1549L16.4806 34.2943L17.4729 36.0308L21.217 33.8913L20.2247 32.1549ZM20.1317 32.496C20.0632 32.3761 20.1049 32.2234 20.2247 32.1549L21.217 33.8913C22.0562 33.4118 22.3477 32.3428 21.8682 31.5037L20.1317 32.496ZM20.4728 32.589C20.3529 32.6575 20.2002 32.6158 20.1317 32.496L21.8682 31.5037C21.3887 30.6645 20.3197 30.373 19.4805 30.8525L20.4728 32.589Z" fill="#333333" mask="url(#path-1-inside-1)"/>
<path d="M39.4047 17.7141C39.6129 17.9223 39.9565 17.9068 40.1285 17.6678C42.38 14.5414 42.0994 10.1557 39.2869 7.34315C36.4743 4.53059 32.0886 4.25004 28.9622 6.50148C28.7232 6.67353 28.7077 7.01714 28.9159 7.22532L39.4047 17.7141Z" fill="#333333"/>
<path d="M27.8553 8.28599C27.6471 8.0778 27.3035 8.09331 27.1314 8.33224C24.88 11.4586 25.1606 15.8443 27.9732 18.6569C30.7857 21.4694 35.1714 21.75 38.2978 19.4986C38.5367 19.3265 38.5522 18.9829 38.344 18.7747L27.8553 8.28599Z" fill="#333333"/>
<path d="M13.2457 9.4613C14.0885 8.045 16.1865 8.19872 16.8139 9.72274L21.72 21.641C22.286 23.0158 21.2072 24.5056 19.7244 24.3969L8.22739 23.5546C6.74461 23.4459 5.89453 21.8148 6.65483 20.5372L13.2457 9.4613Z" fill="#333333"/>
</svg>
