<svg width="48" height="48" viewBox="0 0 48 48" fill="none" xmlns="http://www.w3.org/2000/svg">
<path fill-rule="evenodd" clip-rule="evenodd" d="M39.4046 17.7141C39.6128 17.9223 39.9564 17.9068 40.1285 17.6678C42.3799 14.5414 42.0993 10.1557 39.2868 7.34315C36.4742 4.53059 32.0885 4.25004 28.9621 6.50148C28.7232 6.67353 28.7077 7.01714 28.9159 7.22532L39.4046 17.7141ZM27.8552 8.28599C27.647 8.0778 27.3034 8.09331 27.1314 8.33224C24.88 11.4586 25.1606 15.8443 27.9731 18.6569C30.7856 21.4694 35.1713 21.75 38.2977 19.4986C38.5366 19.3265 38.5521 18.9829 38.3439 18.7747L27.8552 8.28599ZM29.374 37.4594L35.8692 33.7094C38.4998 32.1906 39.4011 28.8268 37.8823 26.1962C36.3635 23.5656 32.9998 22.6643 30.3692 24.1831L23.874 27.9331C23.7359 27.6939 23.4301 27.612 23.191 27.7501L15.8297 32.0001C12.96 33.6569 11.9767 37.3265 13.6336 40.1962C15.2904 43.066 18.96 44.0492 21.8297 42.3924L29.191 38.1424C29.4301 38.0043 29.512 37.6985 29.374 37.4594ZM31.3692 25.9151L24.874 29.6651L28.374 35.7273L34.8692 31.9773C36.5432 31.0108 37.1167 28.8703 36.1502 27.1962C35.1837 25.5222 33.0432 24.9486 31.3692 25.9151ZM19.9767 31.7207L16.2326 33.8602C14.7263 34.721 14.0573 36.4751 14.4724 38.0734C14.6112 38.6079 15.2375 38.7748 15.717 38.5008C15.9568 38.3638 16.0338 38.0587 15.9523 37.7949C15.6456 36.8026 16.0505 35.6919 16.9768 35.1626L20.7209 33.0231C21.0805 32.8176 21.2055 32.3595 21 31.9998C20.7944 31.6402 20.3363 31.5152 19.9767 31.7207ZM16.8138 9.72271C16.1865 8.1987 14.0885 8.04497 13.2457 9.46127L6.65479 20.5371C5.8945 21.8148 6.74457 23.4459 8.22736 23.5545L19.7244 24.3969C21.2072 24.5056 22.2859 23.0158 21.72 21.641L16.8138 9.72271Z" fill="#333333"/>
</svg>
