<svg width="48" height="48" viewBox="0 0 48 48" fill="none" xmlns="http://www.w3.org/2000/svg">
<path fill-rule="evenodd" clip-rule="evenodd" d="M2.43325 36.8755C1.26167 35.7039 1.26167 33.8044 2.43325 32.6328L32.1317 2.93434C33.3033 1.76277 35.2028 1.76277 36.3744 2.93434L45.5668 12.1267C46.7383 13.2983 46.7383 15.1978 45.5668 16.3694L15.8683 46.0679C14.6967 47.2394 12.7972 47.2394 11.6256 46.0679L2.43325 36.8755ZM10.565 30.8636C11.1508 31.4494 11.1508 32.3992 10.565 32.985C9.9792 33.5707 9.02945 33.5707 8.44366 32.985C7.85788 32.3992 7.85788 31.4494 8.44366 30.8636C9.02945 30.2779 9.9792 30.2779 10.565 30.8636ZM13.3934 30.1568C13.9792 29.571 13.9792 28.6213 13.3934 28.0355C12.8076 27.4497 11.8579 27.4497 11.2721 28.0355C10.6863 28.6213 10.6863 29.571 11.2721 30.1568C11.8579 30.7426 12.8076 30.7426 13.3934 30.1568ZM16.2218 25.2074C16.8076 25.7932 16.8076 26.7429 16.2218 27.3287C15.636 27.9145 14.6863 27.9145 14.1005 27.3287C13.5147 26.7429 13.5147 25.7932 14.1005 25.2074C14.6863 24.6216 15.636 24.6216 16.2218 25.2074ZM19.0503 24.5006C19.636 23.9148 19.636 22.965 19.0503 22.3793C18.4645 21.7935 17.5147 21.7935 16.9289 22.3793C16.3432 22.965 16.3432 23.9148 16.9289 24.5006C17.5147 25.0864 18.4645 25.0864 19.0503 24.5006ZM21.8787 19.5511C22.4645 20.1369 22.4645 21.0867 21.8787 21.6725C21.2929 22.2582 20.3432 22.2582 19.7574 21.6725C19.1716 21.0867 19.1716 20.1369 19.7574 19.5511C20.3432 18.9654 21.2929 18.9654 21.8787 19.5511ZM24.7071 18.8443C25.2929 18.2585 25.2929 17.3088 24.7071 16.723C24.1213 16.1372 23.1716 16.1372 22.5858 16.723C22 17.3088 22 18.2585 22.5858 18.8443C23.1716 19.4301 24.1213 19.4301 24.7071 18.8443ZM27.5355 13.8929C28.1213 14.4787 28.1213 15.4285 27.5355 16.0143C26.9497 16.6 26 16.6 25.4142 16.0143C24.8284 15.4285 24.8284 14.4787 25.4142 13.8929C26 13.3071 26.9497 13.3071 27.5355 13.8929ZM30.364 13.1861C30.9497 12.6003 30.9497 11.6506 30.364 11.0648C29.7782 10.479 28.8284 10.479 28.2426 11.0648C27.6569 11.6506 27.6569 12.6003 28.2426 13.1861C28.8284 13.7719 29.7782 13.7719 30.364 13.1861ZM33.1924 8.23668C33.7782 8.82247 33.7782 9.77222 33.1924 10.358C32.6066 10.9438 31.6569 10.9438 31.0711 10.358C30.4853 9.77222 30.4853 8.82247 31.0711 8.23668C31.6569 7.6509 32.6066 7.6509 33.1924 8.23668ZM17.636 40.0572C18.2218 39.4714 18.2218 38.5217 17.636 37.9359C17.0503 37.3501 16.1005 37.3501 15.5147 37.9359C14.9289 38.5217 14.9289 39.4714 15.5147 40.0572C16.1005 40.643 17.0503 40.643 17.636 40.0572ZM13.3934 37.9359C13.9792 38.5217 13.9792 39.4714 13.3934 40.0572C12.8076 40.643 11.8579 40.643 11.2721 40.0572C10.6863 39.4714 10.6863 38.5217 11.2721 37.9359C11.8579 37.3501 12.8076 37.3501 13.3934 37.9359ZM20.4645 37.2291C21.0503 36.6433 21.0503 35.6936 20.4645 35.1078C19.8787 34.522 18.9289 34.522 18.3432 35.1078C17.7574 35.6936 17.7574 36.6433 18.3432 37.2291C18.9289 37.8149 19.8787 37.8149 20.4645 37.2291ZM23.2929 32.2777C23.8787 32.8635 23.8787 33.8132 23.2929 34.399C22.7071 34.9848 21.7574 34.9848 21.1716 34.399C20.5858 33.8132 20.5858 32.8635 21.1716 32.2777C21.7574 31.6919 22.7071 31.6919 23.2929 32.2777ZM26.1213 31.5709C26.7071 30.9851 26.7071 30.0354 26.1213 29.4496C25.5355 28.8638 24.5858 28.8638 24 29.4496C23.4142 30.0354 23.4142 30.9851 24 31.5709C24.5858 32.1567 25.5355 32.1567 26.1213 31.5709ZM28.9497 26.6215C29.5355 27.2072 29.5355 28.157 28.9497 28.7428C28.364 29.3286 27.4142 29.3286 26.8284 28.7428C26.2426 28.157 26.2426 27.2072 26.8284 26.6215C27.4142 26.0357 28.364 26.0357 28.9497 26.6215ZM31.7782 25.9146C32.364 25.3289 32.364 24.3791 31.7782 23.7933C31.1924 23.2075 30.2426 23.2075 29.6569 23.7933C29.0711 24.3791 29.0711 25.3289 29.6569 25.9146C30.2426 26.5004 31.1924 26.5004 31.7782 25.9146ZM34.6066 20.9652C35.1924 21.551 35.1924 22.5007 34.6066 23.0865C34.0208 23.6723 33.0711 23.6723 32.4853 23.0865C31.8995 22.5007 31.8995 21.551 32.4853 20.9652C33.0711 20.3794 34.0208 20.3794 34.6066 20.9652ZM37.435 20.2584C38.0208 19.6726 38.0208 18.7229 37.435 18.1371C36.8493 17.5513 35.8995 17.5513 35.3137 18.1371C34.7279 18.7229 34.7279 19.6726 35.3137 20.2584C35.8995 20.8442 36.8493 20.8442 37.435 20.2584ZM40.2635 15.3089C40.8493 15.8947 40.8493 16.8445 40.2635 17.4303C39.6777 18.0161 38.7279 18.0161 38.1421 17.4303C37.5564 16.8445 37.5564 15.8947 38.1421 15.3089C38.7279 14.7232 39.6777 14.7232 40.2635 15.3089ZM40.2635 13.1861C40.8493 12.6003 40.8493 11.6506 40.2635 11.0648C39.6777 10.479 38.7279 10.479 38.1421 11.0648C37.5564 11.6506 37.5564 12.6003 38.1421 13.1861C38.7279 13.7719 39.6777 13.7719 40.2635 13.1861ZM37.435 8.23668C38.0208 8.82247 38.0208 9.77222 37.435 10.358C36.8493 10.9438 35.8995 10.9438 35.3137 10.358C34.7279 9.77222 34.7279 8.82247 35.3137 8.23668C35.8995 7.6509 36.8493 7.6509 37.435 8.23668ZM7.18824 36.5707L7.86067 34.0611L5.35112 34.7336L7.18824 36.5707Z" fill="#333333"/>
</svg>
