<svg width="48" height="48" viewBox="0 0 48 48" fill="none" xmlns="http://www.w3.org/2000/svg">
<path fill-rule="evenodd" clip-rule="evenodd" d="M2.93337 31.4247C1.76179 30.2532 1.76179 28.3537 2.93337 27.1821L27.6821 2.43337C28.8537 1.26179 30.7532 1.26179 31.9247 2.43337L46.0669 16.5755C47.2385 17.7471 47.2385 19.6466 46.0669 20.8181L21.3181 45.5669C20.1466 46.7385 18.2471 46.7385 17.0755 45.5669L2.93337 31.4247ZM8.94378 29.6572C9.13904 29.4619 9.13904 29.1454 8.94378 28.9501C8.74852 28.7548 8.43194 28.7548 8.23667 28.9501C8.04141 29.1454 8.04141 29.4619 8.23667 29.6572C8.43194 29.8525 8.74852 29.8525 8.94378 29.6572ZM9.65089 30.3643C10.2367 29.7785 10.2367 28.8288 9.65089 28.243C9.0651 27.6572 8.11535 27.6572 7.52957 28.243C6.94378 28.8288 6.94378 29.7785 7.52957 30.3643C8.11535 30.9501 9.0651 30.9501 9.65089 30.3643ZM12.4793 25.4149C12.6746 25.6102 12.6746 25.9268 12.4793 26.122C12.284 26.3173 11.9675 26.3173 11.7722 26.122C11.5769 25.9268 11.5769 25.6102 11.7722 25.4149C11.9675 25.2197 12.284 25.2197 12.4793 25.4149ZM13.1864 24.7078C13.7722 25.2936 13.7722 26.2434 13.1864 26.8292C12.6006 27.4149 11.6509 27.4149 11.0651 26.8292C10.4793 26.2434 10.4793 25.2936 11.0651 24.7078C11.6509 24.122 12.6006 24.122 13.1864 24.7078ZM16.0149 22.5869C16.2101 22.3916 16.2101 22.075 16.0149 21.8798C15.8196 21.6845 15.503 21.6845 15.3077 21.8798C15.1125 22.075 15.1125 22.3916 15.3077 22.5869C15.503 22.7822 15.8196 22.7822 16.0149 22.5869ZM16.722 23.294C17.3077 22.7082 17.3077 21.7585 16.722 21.1727C16.1362 20.5869 15.1864 20.5869 14.6006 21.1727C14.0149 21.7585 14.0149 22.7082 14.6006 23.294C15.1864 23.8798 16.1362 23.8798 16.722 23.294ZM19.5504 18.3446C19.7456 18.5399 19.7456 18.8565 19.5504 19.0517C19.3551 19.247 19.0385 19.247 18.8433 19.0517C18.648 18.8565 18.648 18.5399 18.8433 18.3446C19.0385 18.1494 19.3551 18.1494 19.5504 18.3446ZM20.2575 17.6375C20.8433 18.2233 20.8433 19.1731 20.2575 19.7588C19.6717 20.3446 18.722 20.3446 18.1362 19.7588C17.5504 19.1731 17.5504 18.2233 18.1362 17.6375C18.722 17.0517 19.6717 17.0517 20.2575 17.6375ZM23.0859 15.5166C23.2812 15.3213 23.2812 15.0047 23.0859 14.8095C22.8906 14.6142 22.5741 14.6142 22.3788 14.8095C22.1835 15.0047 22.1835 15.3213 22.3788 15.5166C22.5741 15.7118 22.8906 15.7118 23.0859 15.5166ZM23.793 16.2237C24.3788 15.6379 24.3788 14.6882 23.793 14.1024C23.2072 13.5166 22.2575 13.5166 21.6717 14.1024C21.0859 14.6882 21.0859 15.6379 21.6717 16.2237C22.2575 16.8095 23.2072 16.8095 23.793 16.2237ZM26.6215 11.2724C26.8167 11.4676 26.8167 11.7842 26.6215 11.9795C26.4262 12.1747 26.1096 12.1747 25.9144 11.9795C25.7191 11.7842 25.7191 11.4676 25.9144 11.2724C26.1096 11.0771 26.4262 11.0771 26.6215 11.2724ZM27.3286 10.5653C27.9144 11.151 27.9144 12.1008 27.3286 12.6866C26.7428 13.2724 25.7931 13.2724 25.2073 12.6866C24.6215 12.1008 24.6215 11.151 25.2073 10.5653C25.7931 9.97947 26.7428 9.97947 27.3286 10.5653ZM30.157 8.44431C30.3523 8.24905 30.3523 7.93247 30.157 7.73721C29.9617 7.54194 29.6452 7.54194 29.4499 7.73721C29.2546 7.93247 29.2546 8.24905 29.4499 8.44431C29.6452 8.63958 29.9617 8.63958 30.157 8.44431ZM30.8641 9.15142C31.4499 8.56563 31.4499 7.61589 30.8641 7.0301C30.2783 6.44431 29.3286 6.44431 28.7428 7.0301C28.157 7.61589 28.157 8.56563 28.7428 9.15142C29.3286 9.73721 30.2783 9.73721 30.8641 9.15142ZM12.4793 32.4853C12.6746 32.6805 12.6746 32.9971 12.4793 33.1924C12.284 33.3876 11.9675 33.3876 11.7722 33.1924C11.5769 32.9971 11.5769 32.6805 11.7722 32.4853C11.9675 32.29 12.284 32.29 12.4793 32.4853ZM13.1864 31.7781C13.7722 32.3639 13.7722 33.3137 13.1864 33.8995C12.6006 34.4853 11.6509 34.4853 11.0651 33.8995C10.4793 33.3137 10.4793 32.3639 11.0651 31.7781C11.6509 31.1924 12.6006 31.1924 13.1864 31.7781ZM16.0149 29.6572C16.2101 29.4619 16.2101 29.1454 16.0149 28.9501C15.8196 28.7548 15.503 28.7548 15.3077 28.9501C15.1125 29.1454 15.1125 29.4619 15.3077 29.6572C15.503 29.8525 15.8196 29.8525 16.0149 29.6572ZM16.722 30.3643C17.3077 29.7785 17.3077 28.8288 16.722 28.243C16.1362 27.6572 15.1864 27.6572 14.6006 28.243C14.0149 28.8288 14.0149 29.7785 14.6006 30.3643C15.1864 30.9501 16.1362 30.9501 16.722 30.3643ZM19.5504 25.4149C19.7456 25.6102 19.7456 25.9268 19.5504 26.122C19.3551 26.3173 19.0385 26.3173 18.8433 26.122C18.648 25.9268 18.648 25.6102 18.8433 25.4149C19.0385 25.2197 19.3551 25.2197 19.5504 25.4149ZM20.2575 24.7078C20.8433 25.2936 20.8433 26.2434 20.2575 26.8292C19.6717 27.4149 18.722 27.4149 18.1362 26.8292C17.5504 26.2434 17.5504 25.2936 18.1362 24.7078C18.722 24.122 19.6717 24.122 20.2575 24.7078ZM23.0859 22.5869C23.2812 22.3916 23.2812 22.075 23.0859 21.8798C22.8906 21.6845 22.5741 21.6845 22.3788 21.8798C22.1835 22.075 22.1835 22.3916 22.3788 22.5869C22.5741 22.7822 22.8906 22.7822 23.0859 22.5869ZM23.793 23.294C24.3788 22.7082 24.3788 21.7585 23.793 21.1727C23.2072 20.5869 22.2575 20.5869 21.6717 21.1727C21.0859 21.7585 21.0859 22.7082 21.6717 23.294C22.2575 23.8798 23.2072 23.8798 23.793 23.294ZM26.6215 18.3446C26.8167 18.5399 26.8167 18.8565 26.6215 19.0517C26.4262 19.247 26.1096 19.247 25.9144 19.0517C25.7191 18.8565 25.7191 18.5399 25.9144 18.3446C26.1096 18.1494 26.4262 18.1494 26.6215 18.3446ZM27.3286 17.6375C27.9144 18.2233 27.9144 19.1731 27.3286 19.7588C26.7428 20.3446 25.7931 20.3446 25.2073 19.7588C24.6215 19.1731 24.6215 18.2233 25.2073 17.6375C25.7931 17.0517 26.7428 17.0517 27.3286 17.6375ZM30.157 15.5166C30.3523 15.3213 30.3523 15.0047 30.157 14.8095C29.9617 14.6142 29.6452 14.6142 29.4499 14.8095C29.2546 15.0047 29.2546 15.3213 29.4499 15.5166C29.6452 15.7118 29.9617 15.7118 30.157 15.5166ZM30.8641 16.2237C31.4499 15.6379 31.4499 14.6882 30.8641 14.1024C30.2783 13.5166 29.3286 13.5166 28.7428 14.1024C28.157 14.6882 28.157 15.6379 28.7428 16.2237C29.3286 16.8095 30.2783 16.8095 30.8641 16.2237ZM33.6925 11.2724C33.8878 11.4676 33.8878 11.7842 33.6925 11.9795C33.4973 12.1747 33.1807 12.1747 32.9854 11.9795C32.7902 11.7842 32.7902 11.4676 32.9854 11.2724C33.1807 11.0771 33.4973 11.0771 33.6925 11.2724ZM34.3996 10.5653C34.9854 11.151 34.9854 12.1008 34.3996 12.6866C33.8139 13.2724 32.8641 13.2724 32.2783 12.6866C31.6925 12.1008 31.6925 11.151 32.2783 10.5653C32.8641 9.97947 33.8139 9.97947 34.3996 10.5653ZM16.0149 36.7295C16.2101 36.5342 16.2101 36.2176 16.0149 36.0224C15.8196 35.8271 15.503 35.8271 15.3077 36.0224C15.1125 36.2176 15.1125 36.5342 15.3077 36.7295C15.503 36.9247 15.8196 36.9247 16.0149 36.7295ZM16.722 37.4366C17.3077 36.8508 17.3077 35.901 16.722 35.3153C16.1362 34.7295 15.1864 34.7295 14.6006 35.3153C14.0149 35.901 14.0149 36.8508 14.6006 37.4366C15.1864 38.0224 16.1362 38.0224 16.722 37.4366ZM19.5504 32.4853C19.7456 32.6805 19.7456 32.9971 19.5504 33.1924C19.3551 33.3876 19.0385 33.3876 18.8433 33.1924C18.648 32.9971 18.648 32.6805 18.8433 32.4853C19.0385 32.29 19.3551 32.29 19.5504 32.4853ZM20.2575 31.7781C20.8433 32.3639 20.8433 33.3137 20.2575 33.8995C19.6717 34.4853 18.722 34.4853 18.1362 33.8995C17.5504 33.3137 17.5504 32.3639 18.1362 31.7781C18.722 31.1924 19.6717 31.1924 20.2575 31.7781ZM23.0859 29.6572C23.2812 29.4619 23.2812 29.1454 23.0859 28.9501C22.8906 28.7548 22.5741 28.7548 22.3788 28.9501C22.1835 29.1454 22.1835 29.4619 22.3788 29.6572C22.5741 29.8525 22.8906 29.8525 23.0859 29.6572ZM23.793 30.3643C24.3788 29.7785 24.3788 28.8288 23.793 28.243C23.2072 27.6572 22.2575 27.6572 21.6717 28.243C21.0859 28.8288 21.0859 29.7785 21.6717 30.3643C22.2575 30.9501 23.2072 30.9501 23.793 30.3643ZM26.6215 25.4149C26.8167 25.6102 26.8167 25.9268 26.6215 26.122C26.4262 26.3173 26.1096 26.3173 25.9144 26.122C25.7191 25.9268 25.7191 25.6102 25.9144 25.4149C26.1096 25.2197 26.4262 25.2197 26.6215 25.4149ZM27.3286 24.7078C27.9144 25.2936 27.9144 26.2434 27.3286 26.8292C26.7428 27.4149 25.7931 27.4149 25.2073 26.8292C24.6215 26.2434 24.6215 25.2936 25.2073 24.7078C25.7931 24.122 26.7428 24.122 27.3286 24.7078ZM30.157 22.5869C30.3523 22.3916 30.3523 22.075 30.157 21.8798C29.9617 21.6845 29.6452 21.6845 29.4499 21.8798C29.2546 22.075 29.2546 22.3916 29.4499 22.5869C29.6452 22.7822 29.9617 22.7822 30.157 22.5869ZM30.8641 23.294C31.4499 22.7082 31.4499 21.7585 30.8641 21.1727C30.2783 20.5869 29.3286 20.5869 28.7428 21.1727C28.157 21.7585 28.157 22.7082 28.7428 23.294C29.3286 23.8798 30.2783 23.8798 30.8641 23.294ZM33.6925 18.3446C33.8878 18.5399 33.8878 18.8565 33.6925 19.0517C33.4973 19.247 33.1807 19.247 32.9854 19.0517C32.7902 18.8565 32.7902 18.5399 32.9854 18.3446C33.1807 18.1494 33.4973 18.1494 33.6925 18.3446ZM34.3996 17.6375C34.9854 18.2233 34.9854 19.1731 34.3996 19.7588C33.8139 20.3446 32.8641 20.3446 32.2783 19.7588C31.6925 19.1731 31.6925 18.2233 32.2783 17.6375C32.8641 17.0517 33.8139 17.0517 34.3996 17.6375ZM37.2281 15.5166C37.4233 15.3213 37.4233 15.0047 37.2281 14.8095C37.0328 14.6142 36.7162 14.6142 36.5209 14.8095C36.3257 15.0047 36.3257 15.3213 36.5209 15.5166C36.7162 15.7118 37.0328 15.7118 37.2281 15.5166ZM37.9352 16.2237C38.5209 15.6379 38.5209 14.6882 37.9352 14.1024C37.3494 13.5166 36.3996 13.5166 35.8138 14.1024C35.2281 14.6882 35.2281 15.6379 35.8138 16.2237C36.3996 16.8095 37.3494 16.8095 37.9352 16.2237ZM20.2575 40.971C20.8433 40.3853 20.8433 39.4355 20.2575 38.8497C19.6717 38.2639 18.7219 38.2639 18.1362 38.8497C17.5504 39.4355 17.5504 40.3853 18.1362 40.971C18.7219 41.5568 19.6717 41.5568 20.2575 40.971ZM23.793 35.3146C24.3788 35.9004 24.3788 36.8501 23.793 37.4359C23.2072 38.0217 22.2575 38.0217 21.6717 37.4359C21.0859 36.8501 21.0859 35.9004 21.6717 35.3146C22.2575 34.7288 23.2072 34.7288 23.793 35.3146ZM27.3286 33.8988C27.9144 33.313 27.9144 32.3632 27.3286 31.7775C26.7428 31.1917 25.7931 31.1917 25.2073 31.7775C24.6215 32.3632 24.6215 33.313 25.2073 33.8988C25.7931 34.4846 26.7428 34.4846 27.3286 33.8988ZM30.8641 28.2423C31.4499 28.8281 31.4499 29.7778 30.8641 30.3636C30.2783 30.9494 29.3286 30.9494 28.7428 30.3636C28.157 29.7778 28.157 28.8281 28.7428 28.2423C29.3286 27.6565 30.2783 27.6565 30.8641 28.2423ZM34.3996 26.8285C34.9854 26.2427 34.9854 25.2929 34.3996 24.7071C33.8138 24.1214 32.8641 24.1214 32.2783 24.7071C31.6925 25.2929 31.6925 26.2427 32.2783 26.8285C32.8641 27.4143 33.8138 27.4143 34.3996 26.8285ZM37.9352 21.172C38.5209 21.7578 38.5209 22.7075 37.9352 23.2933C37.3494 23.8791 36.3996 23.8791 35.8138 23.2933C35.228 22.7075 35.228 21.7578 35.8138 21.172C36.3996 20.5862 37.3494 20.5862 37.9352 21.172ZM41.4707 19.7582C42.0565 19.1724 42.0565 18.2226 41.4707 17.6368C40.8849 17.051 39.9351 17.051 39.3494 17.6368C38.7636 18.2226 38.7636 19.1724 39.3494 19.7582C39.9351 20.3439 40.8849 20.3439 41.4707 19.7582Z" fill="#333333"/>
</svg>
