<svg width="48" height="48" viewBox="0 0 48 48" fill="none" xmlns="http://www.w3.org/2000/svg">
<path fill-rule="evenodd" clip-rule="evenodd" d="M0 0H48V48H0V0ZM21.3702 39.6334L21.3709 39.6341L24.0013 42L26.6294 39.654L26.6846 39.6046L27.3474 39.0095C29.0763 40.2617 31.2019 41 33.5 41C39.299 41 44 36.299 44 30.5C44 28.0362 43.1514 25.7705 41.7305 23.9794C43.2111 21.5454 44 19.164 44 16.6404C44 10.6778 39.2655 6 33.2308 6C29.8168 6 26.5322 7.57272 24.3905 10.0577L24 10.5107L23.6095 10.0577C21.4678 7.57272 18.1832 6 14.7692 6C8.7345 6 4 10.6778 4 16.6404C4 20.3045 5.6632 23.6688 8.69183 27.3273C11.7264 30.993 16.0777 34.8917 21.3702 39.6334ZM42 30.5C42 35.1944 38.1944 39 33.5 39C28.8056 39 25 35.1944 25 30.5C25 25.8056 28.8056 22 33.5 22C38.1944 22 42 25.8056 42 30.5ZM36 30.5C36 31.8807 34.8807 33 33.5 33C32.1193 33 31 31.8807 31 30.5C31 30.2348 31.0413 29.9792 31.1178 29.7394L28.3219 26.9435C27.9292 26.5508 27.9292 25.9141 28.3219 25.5214C28.7146 25.1287 29.3513 25.1287 29.744 25.5214L32.4522 28.2295C32.7709 28.0822 33.1258 28 33.5 28C34.8807 28 36 29.1193 36 30.5Z" fill="#333333"/>
</svg>
