<svg width="48" height="48" viewBox="0 0 48 48" fill="none" xmlns="http://www.w3.org/2000/svg">
<path fill-rule="evenodd" clip-rule="evenodd" d="M48 0H0V48H48V0ZM21.0506 28.7144C21.0173 28.4811 21 28.2425 21 28V27V20.7884V10C21 7.23858 23.2386 5 26 5C28.7614 5 31 7.23858 31 10V20.7884V27.0006V28C31 28.2425 30.9827 28.4811 30.9494 28.7144C32.8073 30.1793 34 32.4504 34 35C34 39.4183 30.4183 43 26 43C21.5817 43 18 39.4183 18 35C18 32.4504 19.1927 30.1793 21.0506 28.7144ZM24.9824 20.4453C26.1778 20.7553 27.5429 21.1094 29 21.085V19H27C26.4477 19 26 18.5523 26 18C26 17.4477 26.4477 17 27 17H29V15H27C26.4477 15 26 14.5523 26 14C26 13.4477 26.4477 13 27 13H29V11H27C26.4477 11 26 10.5523 26 10C26 9.44772 26.4477 9 27 9H28.8293C28.4175 7.83481 27.3062 7 26 7C24.3431 7 23 8.34315 23 10V20.0226C23.5857 20.083 24.2524 20.2559 24.9823 20.4452L24.9823 20.4452L24.9824 20.4452L24.9824 20.4453ZM9.1782 9.5C9.1782 8.67157 9.84977 8 10.6782 8C11.5066 8 12.1782 8.67157 12.1782 9.5V13.4017L15.5574 11.4508C16.2748 11.0365 17.1922 11.2824 17.6064 11.9998C18.0206 12.7172 17.7748 13.6346 17.0574 14.0488L13.6782 15.9998L17.0574 17.9508C17.7748 18.365 18.0206 19.2824 17.6064 19.9998C17.1922 20.7172 16.2748 20.963 15.5574 20.5488L12.1782 18.5979V22.5C12.1782 23.3284 11.5066 24 10.6782 24C9.84977 24 9.1782 23.3284 9.1782 22.5V18.5979L5.79903 20.5488C5.08159 20.963 4.16421 20.7172 3.74999 19.9998C3.33578 19.2824 3.58159 18.365 4.29903 17.9508L7.6782 15.9998L4.29903 14.0488C3.58159 13.6346 3.33578 12.7172 3.74999 11.9998C4.16421 11.2824 5.08159 11.0365 5.79903 11.4508L9.1782 13.4017V9.5Z" fill="#333333"/>
</svg>
