<svg width="48" height="48" viewBox="0 0 48 48" fill="none" xmlns="http://www.w3.org/2000/svg">
<path fill-rule="evenodd" clip-rule="evenodd" d="M48 0H0V48H48V0ZM24 11C18.2821 11 13.2491 14.4831 10.3233 18.5105C10.3155 18.5241 10.3074 18.5376 10.2989 18.5509L10.2914 18.563C10.2851 18.5731 10.275 18.5895 10.2614 18.6119C10.2342 18.6567 10.1932 18.7253 10.1412 18.8156C10.0371 18.9963 9.88961 19.2628 9.72115 19.5974C9.38296 20.2692 8.96695 21.2025 8.64704 22.2579C7.98986 24.4259 7.82145 26.8183 9.12572 28.6154C9.45348 29.067 9.36012 29.6926 8.91719 30.0127C8.47427 30.3328 7.8495 30.2262 7.52174 29.7746C6.4236 28.2615 6.09857 26.544 6.15782 24.9133C4.77784 26.8296 4 28.7908 4 30.5C4 36.299 12.9543 37 24 37C35.0457 37 44 36.299 44 30.5C44 28.6763 43.1144 26.5655 41.5566 24.5287C41.5226 24.7533 41.4842 24.9726 41.4428 25.1853C41.2031 26.4154 40.8452 27.5061 40.5493 28.2869C40.4007 28.6786 40.2665 28.9956 40.1683 29.2171C40.1191 29.3279 40.0789 29.415 40.0502 29.4758C40.0359 29.5062 40.0245 29.53 40.0163 29.5469L40.0064 29.5672L40.0034 29.5733L40.0024 29.5754C40.0022 29.5757 40.0017 29.5768 39.1196 29.139L40.0017 29.5768C39.7561 30.0715 39.156 30.2735 38.6613 30.0279C38.1669 29.7825 37.9649 29.1829 38.2098 28.6884L38.2161 28.6754C38.2214 28.6646 38.2298 28.647 38.2411 28.6231C38.2636 28.5753 38.2975 28.5021 38.3401 28.4061C38.4254 28.2138 38.5453 27.931 38.6791 27.5779C38.9478 26.8691 39.2677 25.8908 39.4797 24.8027C39.6467 23.9457 39.739 23.0645 39.706 22.2119C37.7162 16.8931 31.4376 11 24 11ZM16.3563 22.9719C16.4013 22.2116 16.8619 21.167 17.6672 20.2314C18.4771 19.2904 19.4008 18.7306 20.1067 18.6243C20.9259 18.5009 21.49 17.7368 21.3667 16.9176C21.2433 16.0985 20.4792 15.5344 19.66 15.6577C17.9825 15.9103 16.4645 17.0299 15.3934 18.2744C14.3175 19.5243 13.4576 21.1714 13.3615 22.7946C13.3126 23.6216 13.9433 24.3317 14.7702 24.3806C15.5972 24.4296 16.3073 23.7989 16.3563 22.9719Z" fill="#333333"/>
</svg>
