<svg width="48" height="48" viewBox="0 0 48 48" fill="none" xmlns="http://www.w3.org/2000/svg">
<path fill-rule="evenodd" clip-rule="evenodd" d="M48 0H0V48H48V0ZM23.4975 11C10.2963 11 6.52453 26.8039 10.2963 30.3726C8.91005 30.3726 7.3899 28.8431 7.25566 26.2941C3.09675 28.7912 2.65377 37 24.1116 37C45.0709 37 44.7255 29.5804 41.1272 26.6019C41 28 39.7342 30.3726 38.113 30.3726C41.8848 24.7647 36.6986 11 23.4975 11ZM17.6936 20.4124C16.8776 21.3663 16.4107 22.4315 16.3651 23.2067C16.3155 24.0499 15.5959 24.6929 14.7578 24.643C13.9197 24.5931 13.2805 23.8691 13.3301 23.0259C13.4275 21.3708 14.299 19.6915 15.3893 18.417C16.4749 17.1481 18.0133 16.0066 19.7133 15.749C20.5435 15.6233 21.3178 16.1984 21.4428 17.0337C21.5678 17.8689 20.9962 18.648 20.166 18.7738C19.4506 18.8822 18.5145 19.4529 17.6936 20.4124Z" fill="#333333"/>
</svg>
