<svg width="48" height="48" viewBox="0 0 48 48" fill="none" xmlns="http://www.w3.org/2000/svg">
<path fill-rule="evenodd" clip-rule="evenodd" d="M0 0H48V48H0V0ZM24 40C25.1046 40 26 39.1046 26 38C26 36.8954 25.1046 36 24 36C22.8954 36 22 36.8954 22 38C22 39.1046 22.8954 40 24 40ZM24 43C26.7614 43 29 40.7614 29 38C29 35.9343 27.7473 34.1612 25.9602 33.3989C25.9863 33.27 26 33.1366 26 33V28.8646L22 31.3451V33C22 33.1366 22.0137 33.27 22.0398 33.3989C20.2527 34.1612 19 35.9343 19 38C19 40.7614 21.2386 43 24 43ZM24 7H28L30 11H26V16.5113L22 18.9918V11H18L20 7H24ZM32 7H30.2361L32.2361 11H34L32 7ZM34.2361 7H40C41.1046 7 42 7.89543 42 9C42 10.1046 41.1046 11 40 11H36.2361L34.2361 7ZM17.7639 7H16L14 11H15.7639L17.7639 7ZM22 21.3451V23.9918L26 21.5113V18.8646L22 21.3451ZM26 23.8646V26.5113L22 28.9918V26.3451L26 23.8646ZM8 7H13.7639L11.7639 11H8C6.89543 11 6 10.1046 6 9C6 7.89543 6.89543 7 8 7Z" fill="#333333"/>
</svg>
