<svg width="48" height="48" viewBox="0 0 48 48" fill="none" xmlns="http://www.w3.org/2000/svg">
<path fill-rule="evenodd" clip-rule="evenodd" d="M48 0H0V48H48V0ZM6 7C6 5.34315 7.34315 4 9 4H27C28.6569 4 30 5.34315 30 7V15C30 16.6569 28.6569 18 27 18H9C7.34314 18 6 16.6569 6 15V7ZM12 10C12.5523 10 13 9.55228 13 9C13 8.44772 12.5523 8 12 8C11.4477 8 11 8.44772 11 9C11 9.55228 11.4477 10 12 10ZM16 10C16.5523 10 17 9.55228 17 9C17 8.44772 16.5523 8 16 8C15.4477 8 15 8.44772 15 9C15 9.55228 15.4477 10 16 10ZM17 13C17 13.5523 16.5523 14 16 14C15.4477 14 15 13.5523 15 13C15 12.4477 15.4477 12 16 12C16.5523 12 17 12.4477 17 13ZM12 14C12.5523 14 13 13.5523 13 13C13 12.4477 12.5523 12 12 12C11.4477 12 11 12.4477 11 13C11 13.5523 11.4477 14 12 14ZM21 9C21 9.55228 20.5523 10 20 10C19.4477 10 19 9.55228 19 9C19 8.44772 19.4477 8 20 8C20.5523 8 21 8.44772 21 9ZM20 14C20.5523 14 21 13.5523 21 13C21 12.4477 20.5523 12 20 12C19.4477 12 19 12.4477 19 13C19 13.5523 19.4477 14 20 14ZM25 9C25 9.55228 24.5523 10 24 10C23.4477 10 23 9.55228 23 9C23 8.44772 23.4477 8 24 8C24.5523 8 25 8.44772 25 9ZM24 14C24.5523 14 25 13.5523 25 13C25 12.4477 24.5523 12 24 12C23.4477 12 23 12.4477 23 13C23 13.5523 23.4477 14 24 14ZM35 15C33.8954 15 33 15.8954 33 17V18.3414C30.6696 19.1651 29 21.3876 29 24V42H28C27.4477 42 27 42.4477 27 43C27 43.5523 27.4477 44 28 44H29H41H42C42.5523 44 43 43.5523 43 43C43 42.4477 42.5523 42 42 42H41V24C41 21.3876 39.3304 19.1651 37 18.3414V17C37 15.8954 36.1046 15 35 15ZM14.2533 23.2703C13.8341 22.4319 12.8888 21.9971 11.9793 22.2245L4.75757 24.0299L5.24264 25.9702L12.4644 24.1648L13.42 26.0759C12.5983 26.2969 12 26.9752 12 27.7778V40.2222C12 41.2041 12.8954 42 14 42V44H16V42C17.1046 42 18 41.2041 18 40.2222V27.7778C18 26.9752 17.4017 26.2969 16.58 26.0759L17.5356 24.1648L24.7574 25.9702L25.2424 24.0299L18.0207 22.2245C17.1112 21.9971 16.1659 22.4319 15.7467 23.2703L15 24.7638L14.2533 23.2703Z" fill="#333333"/>
</svg>
