<svg width="48" height="48" viewBox="0 0 48 48" fill="none" xmlns="http://www.w3.org/2000/svg">
<path fill-rule="evenodd" clip-rule="evenodd" d="M48 0H0V48H48V0ZM21.0506 28.7144C21.0173 28.4811 21 28.2425 21 28V10C21 7.23858 23.2386 5 26 5C28.7614 5 31 7.23858 31 10V28C31 28.2425 30.9827 28.4811 30.9494 28.7144C32.8073 30.1793 34 32.4504 34 35C34 39.4183 30.4183 43 26 43C21.5817 43 18 39.4183 18 35C18 32.4504 19.1927 30.1793 21.0506 28.7144ZM24.9824 20.4453C26.1778 20.7553 27.5429 21.1094 29 21.085V19H27C26.4477 19 26 18.5523 26 18C26 17.4477 26.4477 17 27 17H29V15H27C26.4477 15 26 14.5523 26 14C26 13.4477 26.4477 13 27 13H29V11H27C26.4477 11 26 10.5523 26 10C26 9.44772 26.4477 9 27 9H28.8293C28.4175 7.83481 27.3062 7 26 7C24.3431 7 23 8.34315 23 10V20.0226C23.5858 20.083 24.2525 20.2559 24.9824 20.4453ZM12.4683 9.20985L8.23019 13.3541C7.74409 13.8294 8.07828 14.6315 8.76186 14.6315H11.481V26.5146C11.481 27.3316 12.1645 28 13 28C13.8355 28 14.519 27.3316 14.519 26.5146L14.519 14.6315H17.2381C17.9217 14.6315 18.2559 13.8294 17.7698 13.3689L13.5317 9.2247C13.243 8.92762 12.757 8.92762 12.4683 9.20985Z" fill="#333333"/>
</svg>
