<svg width="48" height="48" viewBox="0 0 48 48" fill="none" xmlns="http://www.w3.org/2000/svg">
<path fill-rule="evenodd" clip-rule="evenodd" d="M0 0H48V48H0V0ZM28 7V4H30V7C30 7.55228 30.4477 8 31 8H35H39C39.5523 8 40 7.55228 40 7V4H42V7C42 8.65685 40.6569 10 39 10H36V25.0664H39.0662C41.2388 25.0664 43 26.8423 43 29.033C43 30.8993 41.7218 32.4646 40 32.8873V36H44V38H41.9495C42.5978 38.6353 43 39.5207 43 40.5C43 42.433 41.433 44 39.5 44C37.567 44 36 42.433 36 40.5C36 39.5207 36.4022 38.6353 37.0505 38H10.9495C11.5978 38.6353 12 39.5207 12 40.5C12 42.433 10.433 44 8.5 44C6.567 44 5 42.433 5 40.5C5 39.5207 5.40223 38.6353 6.05051 38H4V36H7V25.3428L6.16703 24.5042C4.61099 22.9376 4.61099 20.3951 6.16703 18.8285C7.22155 17.7669 8.71987 17.4263 10.0591 17.8069L10.7632 17.1034C12.2364 15.6315 14.624 15.6323 16.0961 17.1052L17.8963 18.9063C19.3686 20.3793 19.3678 22.7667 17.8945 24.2387L17.5261 24.6068L17.8925 24.9756C17.9502 25.0337 18.0285 25.0664 18.11 25.0664H34V10H31V12H32C32.5523 12 33 12.4477 33 13V19C33 19.5523 32.5523 20 32 20H28C27.4477 20 27 19.5523 27 19V13C27 12.4477 27.4477 12 28 12H29V9.23611C28.3863 8.68679 28 7.8885 28 7ZM16.1167 23.1878L16.4809 22.8239C17.1727 22.1327 17.1731 21.0118 16.4818 20.3202L14.6816 18.5191C13.9902 17.8273 12.8687 17.8269 12.1768 18.5182L11.8263 18.8684L16.1167 23.1878ZM38 32.9997V36H9V27.3563L14.2752 32.6672C14.4867 32.8801 14.7733 32.9997 15.0722 32.9997H38Z" fill="#333333"/>
</svg>
