<svg width="48" height="48" viewBox="0 0 48 48" fill="none" xmlns="http://www.w3.org/2000/svg">
<path d="M16.1167 18.1878L16.4809 17.8239C17.1727 17.1327 17.1731 16.0118 16.4818 15.3202L14.6816 13.5191C13.9902 12.8273 12.8687 12.8269 12.1768 13.5182L11.8263 13.8684L16.1167 18.1878Z" fill="#333333"/>
<path d="M38 27.9997V32H9V22.3563L14.2752 27.6672C14.4867 27.8801 14.7733 27.9997 15.0722 27.9997H38Z" fill="#333333"/>
<path fill-rule="evenodd" clip-rule="evenodd" d="M48 0H0V48H48V0ZM18.11 20.0664H39.0662C41.2388 20.0664 43 21.8423 43 24.033C43 25.8993 41.7218 27.4646 40 27.8873V32H43C43.5523 32 44 32.4477 44 33C44 33.5523 43.5523 34 43 34H41.9495C42.5978 34.6353 43 35.5207 43 36.5C43 38.433 41.433 40 39.5 40C37.567 40 36 38.433 36 36.5C36 35.5207 36.4022 34.6353 37.0505 34H10.9495C11.5978 34.6353 12 35.5207 12 36.5C12 38.433 10.433 40 8.5 40C6.567 40 5 38.433 5 36.5C5 35.5207 5.40223 34.6353 6.05051 34H5C4.44771 34 4 33.5523 4 33C4 32.4477 4.44772 32 5 32H7V20.3428L6.16703 19.5042C4.61099 17.9376 4.61099 15.3951 6.16703 13.8285C7.22155 12.7669 8.71987 12.4263 10.0591 12.8069L10.7632 12.1034C12.2364 10.6315 14.624 10.6323 16.0961 12.1052L17.8963 13.9063C19.3686 15.3793 19.3678 17.7667 17.8945 19.2387L17.5261 19.6068L17.8925 19.9756C17.9502 20.0337 18.0285 20.0664 18.11 20.0664Z" fill="#333333"/>
</svg>
