<svg width="48" height="48" viewBox="0 0 48 48" fill="none" xmlns="http://www.w3.org/2000/svg">
<path fill-rule="evenodd" clip-rule="evenodd" d="M0 0H48V48H0V0ZM23.9954 7.00001L24 7L24.0046 7.00001C24.0016 6.96714 24 6.93383 24 6.90016C24 6.31106 24.4776 5.8335 25.0667 5.8335H38.9333C39.5224 5.8335 40 6.31106 40 6.90016C40 7.48927 39.5224 7.96683 38.9333 7.96683H25.0667C25.0441 7.96683 25.0216 7.96612 24.9994 7.96474C24.9998 7.97644 25 7.9882 25 8V36C25 36.042 24.9974 36.0834 24.9924 36.1241C26.7215 36.5655 28 38.1334 28 40C28 42.2091 26.2091 44 24 44C21.7909 44 20 42.2091 20 40C20 38.1334 21.2785 36.5655 23.0076 36.1241C23.0026 36.0834 23 36.042 23 36V8C23 7.9882 23.0002 7.97644 23.0006 7.96474C22.9784 7.96612 22.9559 7.96683 22.9333 7.96683H9.06667C8.47756 7.96683 8 7.48927 8 6.90016C8 6.31106 8.47756 5.8335 9.06667 5.8335H22.9333C23.5224 5.8335 24 6.31106 24 6.90016C24 6.93383 23.9984 6.96714 23.9954 7.00001ZM26 40C26 41.1046 25.1046 42 24 42C22.8954 42 22 41.1046 22 40C22 38.8954 22.8954 38 24 38C25.1046 38 26 38.8954 26 40Z" fill="#333333"/>
</svg>
