<svg width="48" height="48" viewBox="0 0 48 48" fill="none" xmlns="http://www.w3.org/2000/svg">
<path fill-rule="evenodd" clip-rule="evenodd" d="M0 0H48V48H0V0ZM24 41C24.5523 41 25 40.5523 25 40C25 39.4477 24.5523 39 24 39C23.4477 39 23 39.4477 23 40C23 40.5523 23.4477 41 24 41ZM25 37.1707V10H38C38.5523 10 39 9.55229 39 9C39 8.44771 38.5523 8 38 8H25C24.4477 8 24 8.44771 24 9C24 8.44771 23.5523 8 23 8H10C9.44772 8 9 8.44771 9 9C9 9.55228 9.44771 10 10 10L23 10V37.1707C21.8348 37.5825 21 38.6938 21 40C21 41.6569 22.3431 43 24 43C25.6569 43 27 41.6569 27 40C27 38.6938 26.1652 37.5825 25 37.1707Z" fill="#333333"/>
</svg>
