<svg width="48" height="48" viewBox="0 0 48 48" fill="none" xmlns="http://www.w3.org/2000/svg">
<path fill-rule="evenodd" clip-rule="evenodd" d="M48 0H0V48H48V0ZM16.2579 34.4916H33.5868C33.802 34.4842 34.0163 34.5204 34.2166 34.5977C34.4169 34.6751 34.5988 34.792 34.751 34.9412C34.9033 35.0904 35.0225 35.2687 35.1014 35.4651C35.1804 35.6614 35.2172 35.8716 35.2097 36.0825V39.4615C35.2097 39.8694 35.0444 40.2607 34.7501 40.5492C34.4558 40.8377 34.0567 40.9998 33.6405 40.9998C33.2243 40.9998 32.8251 40.8377 32.5308 40.5492C32.2365 40.2607 32.0712 39.8694 32.0712 39.4615V37.6208H16.2579V39.4615C16.2579 39.8694 16.0926 40.2607 15.7983 40.5492C15.504 40.8377 15.1049 40.9998 14.6887 40.9998C14.2725 40.9998 13.8734 40.8377 13.5791 40.5492C13.2848 40.2607 13.1194 39.8694 13.1194 39.4615V28.6539C13.1194 28.246 13.2848 27.8547 13.5791 27.5662C13.8734 27.2777 14.2725 27.1157 14.6887 27.1157C15.1049 27.1157 15.504 27.2777 15.7983 27.5662C16.0926 27.8547 16.2579 28.246 16.2579 28.6539V34.4916ZM14.7423 24.0657C15.6676 23.3115 16.5288 22.4849 17.3175 21.5939C17.4521 21.4832 17.5606 21.3453 17.6358 21.1896C17.711 21.034 17.751 20.8642 17.7531 20.692C17.7552 20.5198 17.7194 20.3492 17.648 20.1918C17.5767 20.0344 17.4715 19.894 17.3397 19.7801C17.208 19.6663 17.0526 19.5816 16.8844 19.532C16.7162 19.4824 16.539 19.4689 16.365 19.4926C16.191 19.5162 16.0242 19.5764 15.8761 19.6691C15.728 19.7617 15.6021 19.8846 15.5069 20.0293C14.805 20.8221 14.033 21.5525 13.1999 22.2119C12.9483 22.4148 12.7888 22.707 12.7562 23.0247C12.7235 23.3424 12.8203 23.6599 13.0256 23.908C13.1393 24.0442 13.2826 24.1538 13.445 24.2289C13.6074 24.3039 13.7849 24.3425 13.9644 24.3418C14.2469 24.3325 14.5192 24.2358 14.7423 24.0657ZM18.4174 19.2801C18.2057 19.2791 17.9978 19.2248 17.8138 19.1223C17.6714 19.0478 17.5454 18.9464 17.4432 18.8239C17.3411 18.7014 17.2647 18.5603 17.2185 18.4087C17.1724 18.257 17.1574 18.0979 17.1744 17.9406C17.1913 17.7832 17.24 17.6307 17.3175 17.492C17.8448 16.643 18.2509 15.7273 18.5247 14.7704C18.5742 14.523 18.6952 14.2948 18.8734 14.113C18.6515 13.7852 18.5305 13.4019 18.5247 13.0086C18.5247 11.5228 20.3487 10.2738 22.8032 9.95826V8.19645C22.8032 7.87913 22.9318 7.57481 23.1607 7.35043C23.3896 7.12605 23.7 7 24.0238 7C24.3475 7 24.6579 7.12605 24.8868 7.35043C25.1157 7.57481 25.2443 7.87913 25.2443 8.19645V10.0109C27.7256 10.3264 29.5765 11.5754 29.5765 13.0743C29.5696 13.4795 29.4388 13.8734 29.201 14.205C29.3546 14.3642 29.4653 14.5586 29.5229 14.7704C29.7966 15.7273 30.2027 16.643 30.73 17.492C30.8677 17.7702 30.8902 18.09 30.7927 18.3841C30.6951 18.6783 30.4852 18.924 30.2069 19.0697C30.0228 19.1722 29.815 19.2265 29.6033 19.2275C29.3861 19.2287 29.1726 19.1719 28.9858 19.063C28.7991 18.9541 28.6463 18.7973 28.5437 18.6095C27.9715 17.6362 27.5212 16.5988 27.2025 15.5198C26.1888 15.9031 25.1102 16.095 24.0238 16.0851C22.9297 16.1106 21.841 15.9276 20.8182 15.5461C20.5017 16.6342 20.0513 17.6806 19.4769 18.6621C19.3744 18.8499 19.2215 19.0067 19.0348 19.1156C18.8481 19.2245 18.6346 19.2813 18.4174 19.2801ZM10.5308 23.9738C9.96752 24.2894 9.37737 24.6049 8.77381 24.8942C8.56907 24.9941 8.39668 25.1478 8.27589 25.3382C8.15511 25.5286 8.09067 25.7481 8.08978 25.9723V28.0233C8.08978 28.1805 8.12135 28.336 8.18268 28.4812C8.24402 28.6264 8.33392 28.7583 8.44726 28.8694C8.5606 28.9805 8.69515 29.0686 8.84323 29.1287C8.99131 29.1888 9.15002 29.2198 9.31031 29.2198C9.47059 29.2198 9.6293 29.1888 9.77738 29.1287C9.92547 29.0686 10.06 28.9805 10.1734 28.8694C10.2867 28.7583 10.3766 28.6264 10.4379 28.4812C10.4993 28.336 10.5308 28.1805 10.5308 28.0233V26.7086C10.96 26.485 11.3758 26.2615 11.7782 26.0249C11.9268 25.9504 12.0583 25.8467 12.1644 25.7204C12.2706 25.5941 12.3492 25.4478 12.3954 25.2906C12.4415 25.1333 12.4543 24.9684 12.4329 24.8061C12.4114 24.6438 12.3563 24.4876 12.2708 24.347C12.1853 24.2064 12.0713 24.0846 11.9359 23.9889C11.8004 23.8932 11.6464 23.8258 11.4833 23.7909C11.3202 23.7559 11.1515 23.7541 10.9877 23.7855C10.8239 23.817 10.6684 23.8811 10.5308 23.9738ZM10.1734 30.6481C10.4022 30.8725 10.5308 31.1768 10.5308 31.4942L10.6113 34.505C10.6207 34.6319 10.6207 34.7594 10.6113 34.8863C10.6135 35.0514 10.5809 35.2151 10.5154 35.3672C10.4499 35.5194 10.353 35.6565 10.2308 35.7701C10.1086 35.8838 9.96374 35.9714 9.80532 36.0274C9.6469 36.0835 9.47836 36.1068 9.31031 36.0959C8.98891 36.0959 8.68048 35.9717 8.45197 35.7501C8.22346 35.5286 8.09331 35.2276 8.08978 34.9126V34.6365V31.4942C8.08978 31.1768 8.21837 30.8725 8.44726 30.6481C8.67616 30.4238 8.9866 30.2977 9.31031 30.2977C9.63401 30.2977 9.94446 30.4238 10.1734 30.6481ZM9.1896 37.1215C9.04721 37.0493 8.89159 37.0056 8.7318 36.993C8.57201 36.9804 8.41127 36.9991 8.25894 37.0481C8.10662 37.0971 7.96577 37.1753 7.84461 37.2782C7.72345 37.381 7.62442 37.5066 7.55328 37.6474C7.34217 38.0823 7.00667 38.4478 6.58758 38.6992C6.4494 38.7814 6.32924 38.8896 6.23407 39.0176C6.1389 39.1457 6.07062 39.291 6.03319 39.4451C5.99576 39.5992 5.98992 39.7591 6.01602 39.9154C6.04211 40.0718 6.09962 40.2215 6.18521 40.3558C6.2934 40.529 6.44523 40.672 6.6261 40.771C6.80698 40.87 7.0108 40.9217 7.21797 40.9212C7.46718 40.9368 7.71529 40.8772 7.92883 40.7503C8.71727 40.2664 9.34973 39.5735 9.75292 38.7518C9.82999 38.6094 9.87657 38.4531 9.88981 38.2925C9.90306 38.1318 9.88268 37.9702 9.82993 37.8175C9.77718 37.6649 9.69318 37.5244 9.58307 37.4047C9.47296 37.285 9.33906 37.1886 9.1896 37.1215ZM32.5406 20.0304C33.2431 20.8186 34.015 21.5445 34.8476 22.1998C34.9803 22.2926 35.0929 22.4102 35.179 22.5459C35.2651 22.6815 35.3229 22.8326 35.3491 22.9903C35.3752 23.148 35.3693 23.3092 35.3316 23.4646C35.2938 23.6201 35.2251 23.7666 35.1292 23.8959C35.0155 24.0321 34.8722 24.1417 34.7098 24.2168C34.5474 24.2918 34.3699 24.3304 34.1904 24.3297C33.9094 24.3242 33.6372 24.2322 33.4125 24.0668C32.4501 23.317 31.5529 22.4902 30.73 21.595C30.5717 21.3543 30.5067 21.066 30.5468 20.7823C30.587 20.4986 30.7295 20.2385 30.9487 20.0491C31.1678 19.8598 31.449 19.7537 31.7411 19.7503C32.0332 19.7469 32.3169 19.8463 32.5406 20.0304ZM37.5166 28.076C37.5166 28.3933 37.6452 28.6976 37.8741 28.922C38.103 29.1464 38.4135 29.2724 38.7372 29.2724C39.0609 29.2724 39.3713 29.1464 39.6002 28.922C39.8291 28.6976 39.9577 28.3933 39.9577 28.076V26.0249C39.9568 25.8007 39.8924 25.5812 39.7716 25.3908C39.6508 25.2004 39.4784 25.0467 39.2737 24.9468C38.6701 24.6576 38.08 24.342 37.5166 24.0265C37.3791 23.9337 37.2236 23.8697 37.0598 23.8382C36.8959 23.8067 36.7273 23.8085 36.5642 23.8435C36.4011 23.8785 36.2471 23.9459 36.1116 24.0415C35.9762 24.1372 35.8622 24.2591 35.7767 24.3996C35.6912 24.5402 35.636 24.6965 35.6146 24.8588C35.5932 25.0211 35.606 25.1859 35.6521 25.3432C35.6983 25.5005 35.7769 25.6468 35.883 25.7731C35.9892 25.8994 36.1207 26.003 36.2693 26.0775C36.6717 26.3142 37.0874 26.5377 37.5166 26.7612V28.076ZM39.6358 35.7501C39.4073 35.9717 39.0988 36.0959 38.7774 36.0959L38.764 36.0827C38.6037 36.081 38.4454 36.0484 38.2979 35.9867C38.1505 35.9249 38.017 35.8354 37.9049 35.723C37.7928 35.6107 37.7044 35.4778 37.6446 35.332C37.5849 35.1862 37.5551 35.0303 37.5569 34.8731C37.5475 34.7462 37.5475 34.6188 37.5569 34.4919V31.4942C37.5569 31.1768 37.6855 30.8725 37.9144 30.6481C38.1433 30.4238 38.4537 30.2977 38.7774 30.2977C39.1011 30.2977 39.4116 30.4238 39.6405 30.6481C39.8694 30.8725 39.998 31.1768 39.998 31.4942V34.6496V34.9126C39.9944 35.2276 39.8643 35.5286 39.6358 35.7501ZM41.4599 38.6994C41.0595 38.4492 40.7389 38.0939 40.5345 37.6739C40.3762 37.4135 40.123 37.2216 39.8261 37.1371C39.5291 37.0527 39.2105 37.0818 38.9347 37.2187C38.6588 37.3556 38.4462 37.59 38.3398 37.8746C38.2335 38.1592 38.2413 38.4728 38.3616 38.752C38.7466 39.5652 39.355 40.2572 40.1187 40.7504C40.3129 40.8649 40.5358 40.9241 40.7625 40.9214C40.9696 40.9219 41.1735 40.8702 41.3543 40.7712C41.5352 40.6722 41.687 40.5292 41.7952 40.356C41.9743 40.0926 42.0395 39.7703 41.9767 39.4598C41.9138 39.1493 41.728 38.8759 41.4599 38.6994ZM33.2783 32.6375H18.5247V29.035H31.9371C32.7955 29.035 33.2783 29.7713 33.2783 30.7705V32.6375Z" fill="#333333"/>
</svg>
