<svg width="48" height="48" viewBox="0 0 48 48" fill="none" xmlns="http://www.w3.org/2000/svg">
<path fill-rule="evenodd" clip-rule="evenodd" d="M48 0H0V48H48V0ZM31.9944 7.14046L27.8858 6.00006L7.09007 18.5175L5.99977 22.7873L8.73328 23.5509L8.00084 26.4007L10.7343 27.1644L10.0019 30.0142L12.7354 30.7778L12.003 33.6277L14.7365 34.3913L14.004 37.2412L16.7376 38.0048L16.0051 40.8546L20.1054 42.0001L40.8927 29.4876L41.9998 25.2078L39.2663 24.4442L39.9987 21.5944L37.2652 20.8307L37.9976 17.9809L35.2641 17.2173L35.9966 14.3674L33.263 13.6038L33.9955 10.7539L31.262 9.99031L31.9944 7.14046ZM28.5015 31.7948C24.1969 34.2801 18.6926 32.8052 16.2073 28.5006C13.722 24.196 15.1969 18.6916 19.5015 16.2064C23.8061 13.7211 29.3105 15.196 31.7957 19.5006C34.281 23.8052 32.8061 29.3095 28.5015 31.7948ZM27.5021 30.0603C24.1546 31.9929 19.8742 30.846 17.9415 27.4985C16.0088 24.151 17.1558 19.8706 20.5033 17.9379C23.8507 16.0052 28.1312 17.1522 30.0638 20.4997C31.9965 23.8472 30.8496 28.1276 27.5021 30.0603ZM19.6706 26.4996C21.0511 28.8906 24.1085 29.7099 26.4996 28.3294C28.8906 26.9489 29.7099 23.8915 28.3294 21.5004C26.9489 19.1094 23.8915 18.2901 21.5004 19.6706C19.1094 21.0511 18.2901 24.1085 19.6706 26.4996ZM21.2462 25.5895C22.1245 27.1109 24.0698 27.6321 25.5912 26.7538C27.1125 25.8754 27.6337 23.9301 26.7554 22.4088C25.8771 20.8875 23.9317 20.3662 22.4104 21.2445C20.8891 22.1229 20.3678 24.0682 21.2462 25.5895Z" fill="#333333"/>
</svg>
