<svg width="48" height="48" viewBox="0 0 48 48" fill="none" xmlns="http://www.w3.org/2000/svg">
<path fill-rule="evenodd" clip-rule="evenodd" d="M27.8843 6.74463L31.9908 7.83788L31.2587 10.5699L33.9908 11.302L33.2587 14.034L35.9908 14.7661L35.2587 17.4981L37.9908 18.2302L37.2587 20.9622L39.9908 21.6943L39.2587 24.4263L41.9908 25.1584L40.8843 29.2613L20.1081 41.2565L16.01 40.1584L16.7421 37.4263L14.01 36.6943L14.7421 33.9622L12.01 33.2302L12.7421 30.4981L10.01 29.7661L10.7421 27.034L8.01001 26.302L8.74206 23.5699L6.01001 22.8379L7.09973 18.7446L27.8843 6.74463ZM16.2073 28.5011C18.6926 32.8057 24.1969 34.2806 28.5015 31.7953C32.8061 29.31 34.281 23.8057 31.7957 19.5011C29.3105 15.1964 23.8061 13.7216 19.5015 16.2068C15.1969 18.6921 13.722 24.1964 16.2073 28.5011ZM17.9415 27.499C19.8742 30.8465 24.1546 31.9934 27.5021 30.0607C30.8496 28.1281 31.9965 23.8476 30.0638 20.5002C28.1312 17.1527 23.8507 16.0057 20.5033 17.9384C17.1558 19.8711 16.0088 24.1515 17.9415 27.499ZM26.4996 28.3299C24.1085 29.7104 21.0511 28.8911 19.6706 26.5001C18.2901 24.109 19.1094 21.0516 21.5004 19.6711C23.8915 18.2906 26.9489 19.1098 28.3294 21.5009C29.7099 23.892 28.8907 26.9494 26.4996 28.3299ZM25.5912 26.7543C24.0698 27.6326 22.1245 27.1114 21.2462 25.59C20.3678 24.0687 20.8891 22.1234 22.4104 21.245C23.9317 20.3667 25.8771 20.8879 26.7554 22.4093C27.6338 23.9306 27.1125 25.8759 25.5912 26.7543Z" fill="white"/>
</svg>
