<svg width="48" height="48" viewBox="0 0 48 48" fill="none" xmlns="http://www.w3.org/2000/svg">
<path fill-rule="evenodd" clip-rule="evenodd" d="M19.6706 26.4999C21.0511 28.891 24.1085 29.7103 26.4996 28.3298C28.8907 26.9493 29.7099 23.8918 28.3294 21.5008C26.9489 19.1097 23.8915 18.2905 21.5004 19.671C19.1094 21.0514 18.2901 24.1089 19.6706 26.4999ZM21.2462 25.5899C22.1245 27.1112 24.0698 27.6325 25.5912 26.7541C27.1125 25.8758 27.6338 23.9305 26.7554 22.4092C25.8771 20.8878 23.9317 20.3666 22.4104 21.2449C20.8891 22.1233 20.3678 24.0686 21.2462 25.5899Z" fill="#333333"/>
<path fill-rule="evenodd" clip-rule="evenodd" d="M28.5015 31.7952C24.1969 34.2805 18.6926 32.8056 16.2073 28.501C13.722 24.1963 15.1969 18.692 19.5015 16.2067C23.8061 13.7214 29.3105 15.1963 31.7957 19.501C34.281 23.8056 32.8061 29.3099 28.5015 31.7952ZM27.5021 30.0606C24.1546 31.9933 19.8742 30.8464 17.9415 27.4989C16.0088 24.1514 17.1558 19.871 20.5033 17.9383C23.8507 16.0056 28.1312 17.1525 30.0638 20.5C31.9965 23.8475 30.8496 28.1279 27.5021 30.0606Z" fill="#333333"/>
<path fill-rule="evenodd" clip-rule="evenodd" d="M48 0H0V48H48V0ZM31.9908 7.83776L27.8843 6.74451L7.09973 18.7445L6.01001 22.8378L8.74206 23.5698L8.01001 26.3019L10.7421 27.0339L10.01 29.766L12.7421 30.498L12.01 33.2301L14.7421 33.9621L14.01 36.6942L16.7421 37.4262L16.01 40.1583L20.1081 41.2563L40.8843 29.2612L41.9908 25.1583L39.2587 24.4262L39.9908 21.6942L37.2587 20.9621L37.9908 18.2301L35.2587 17.498L35.9908 14.766L33.2587 14.0339L33.9908 11.3019L31.2587 10.5698L31.9908 7.83776Z" fill="#333333"/>
</svg>
