<svg width="48" height="48" viewBox="0 0 48 48" fill="none" xmlns="http://www.w3.org/2000/svg">
<path fill-rule="evenodd" clip-rule="evenodd" d="M48 0H0V48H48V0ZM7.30388 18.4015L9.01291 18.0217C9.14968 23.3677 10.3601 27.2077 12.0285 29.9661L7.58625 28.2386C6.88169 27.9646 6.39182 27.3167 6.32015 26.5642L5.74675 20.5435C5.65108 19.5389 6.31878 18.6204 7.30388 18.4015ZM14.1376 32.9322C14.2326 32.9692 14.3298 32.9906 14.4265 32.9978C18.5495 37.0005 23.5161 37.0005 23.5161 37.0005H24.4839C24.4839 37.0005 29.4505 37.0005 33.5735 32.9978C33.6629 32.9911 33.7528 32.9723 33.8411 32.9403L40.5947 30.4896C42.0577 29.9588 43.0799 28.6275 43.2152 27.0771L43.7723 20.6898C43.944 18.7205 42.6516 16.9211 40.7306 16.455L38.9727 16.0284C38.8951 16.0096 38.8175 16.0004 38.741 16C37.0819 13.0004 28.0144 13 28.0144 13L26.5418 10.5H21.633L20.1604 13.0005C20.1604 13.0005 10.8858 13.0005 9.24617 16.0308C9.09913 15.9933 8.94132 15.9889 8.78308 16.024L6.87002 16.4492C4.89982 16.887 3.56441 18.724 3.75576 20.7331L4.32916 26.7538C4.4725 28.2589 5.45223 29.5546 6.86135 30.1026L14.1376 32.9322ZM38.9853 18.0895C38.8384 23.4612 37.6049 27.3071 35.9139 30.0605L39.9125 28.6096C40.644 28.3441 41.1551 27.6785 41.2227 26.9033L41.7798 20.516C41.8657 19.5314 41.2195 18.6317 40.259 18.3986L38.9853 18.0895ZM23.6022 16.4648L29.4631 18.0341C29.9966 18.1769 30.3133 18.7252 30.1705 19.2587C30.0276 19.7922 29.4793 20.1089 28.9458 19.966L23.6022 18.5353L18.2586 19.966C17.7252 20.1089 17.1769 19.7922 17.034 19.2587C16.8912 18.7252 17.2079 18.1769 17.7414 18.0341L23.6022 16.4648Z" fill="#333333"/>
</svg>
