<svg width="48" height="48" viewBox="0 0 48 48" fill="none" xmlns="http://www.w3.org/2000/svg">
<path fill-rule="evenodd" clip-rule="evenodd" d="M48 0H0V48H48V0ZM26.232 36.6537C26.232 37.8413 25.9882 38.9723 25.5476 40.0002H37.1559C37.7082 40.0002 38.1559 40.4479 38.1559 41.0002C38.1559 41.5524 37.7082 42.0002 37.1559 42.0002H21.924L21.9004 41.9999H10.8898C9.70731 40.5355 9 38.6766 9 36.6537C9 34.7334 9.6374 32.9609 10.7136 31.5333C9.60401 28.1693 9.72376 25.2419 11.0013 22.7052C12.1866 20.3518 14.3071 18.4586 17.0603 16.8736L16.4651 15.8502C15.8111 14.7256 15.9727 13.3565 16.7681 12.4213C16.6514 12.3141 16.5487 12.1879 16.465 12.044C16.0189 11.2769 16.2814 10.2973 17.0512 9.85602L17.2089 9.76564L15.7896 7.325L18.3923 5.83315L19.8117 8.27379L19.8595 8.2464C20.6294 7.80511 21.6151 8.06924 22.0612 8.83634C22.1229 8.94242 22.1711 9.05256 22.2062 9.16478C23.5402 8.70856 25.0578 9.24134 25.7921 10.5041L30.3148 18.281C31.1477 19.7132 30.6577 21.5422 29.2202 22.3661L28.3104 22.8876L29.0132 24.0961L26.4104 25.5879L25.7076 24.3795L25.0987 24.7285C23.6612 25.5525 21.8207 25.0593 20.9877 23.627L18.0657 18.6026C15.5029 20.0766 13.7355 21.7226 12.7876 23.6049C11.9111 25.3451 11.6809 27.3961 12.3199 29.9063C13.7809 28.7744 15.6191 28.1 17.616 28.1C20.7204 28.1 23.4414 29.73 24.9579 32.175L37.0812 25.2975L38.0789 27.0308L25.8069 33.9927C26.0828 34.8303 26.232 35.7247 26.232 36.6537Z" fill="#333333"/>
</svg>
