<svg width="48" height="48" viewBox="0 0 48 48" fill="none" xmlns="http://www.w3.org/2000/svg">
<path fill-rule="evenodd" clip-rule="evenodd" d="M48 0H0V48H48V0ZM30.669 18.3956L25.794 9.95059C24.966 8.51509 23.1315 8.02459 21.696 8.85259L17.799 11.1026C16.3635 11.9306 15.873 13.7651 16.701 15.2006L17.2905 16.2236C13.3215 17.7221 10.5 21.5561 10.5 26.0486C10.5 27.8216 10.9395 29.4911 11.715 30.9536C10.947 32.1311 10.5 33.5381 10.5 35.0486C10.5 36.7376 11.058 38.2961 12 39.5501L37.5 39.5486V36.5486H25.35C25.449 36.0641 25.5 35.5631 25.5 35.0486C25.5 34.5101 25.443 33.9821 25.335 33.4751L37.152 26.6516L35.652 24.0536L24.12 30.7121C22.761 28.7981 20.526 27.5486 18 27.5486C16.524 27.5486 15.15 27.9746 13.986 28.7126C13.6725 27.8846 13.5 26.9861 13.5 26.0486C13.5 22.6661 15.741 19.8041 18.819 18.8711L21.576 23.6441C21.99 24.3611 22.908 24.6071 23.625 24.1931L25.5735 23.0666L27.0735 25.6661L29.6715 24.1661L28.17 21.5681L30.12 20.4431C30.837 20.0291 31.083 19.1111 30.669 18.3956Z" fill="#333333"/>
</svg>
