<svg width="48" height="48" viewBox="0 0 48 48" fill="none" xmlns="http://www.w3.org/2000/svg">
<path d="M16.1167 21.1878L16.4809 20.8239C17.1727 20.1327 17.1731 19.0118 16.4818 18.3202L14.6816 16.5191C13.9902 15.8273 12.8687 15.8269 12.1768 16.5182L11.8263 16.8684L16.1167 21.1878Z" fill="#333333"/>
<path d="M38 30.9997V35H9V25.3563L14.2752 30.6672C14.4867 30.8801 14.7733 30.9997 15.0722 30.9997H38Z" fill="#333333"/>
<path fill-rule="evenodd" clip-rule="evenodd" d="M38 15C40.2091 15 42 13.2091 42 11C42 8.79086 40.2091 7 38 7C35.7909 7 34 8.79086 34 11C34 13.2091 35.7909 15 38 15ZM39 8H37V12H40.5V10H39V8Z" fill="#333333"/>
<path fill-rule="evenodd" clip-rule="evenodd" d="M48 0H0V48H48V0ZM18.11 23.0664H39.0662C41.2388 23.0664 43 24.8423 43 27.033C43 28.8993 41.7218 30.4646 40 30.8873V35H43C43.5523 35 44 35.4477 44 36C44 36.5523 43.5523 37 43 37H41.9495C42.5978 37.6353 43 38.5207 43 39.5C43 41.433 41.433 43 39.5 43C37.567 43 36 41.433 36 39.5C36 38.5207 36.4022 37.6353 37.0505 37H10.9495C11.5978 37.6353 12 38.5207 12 39.5C12 41.433 10.433 43 8.5 43C6.567 43 5 41.433 5 39.5C5 38.5207 5.40223 37.6353 6.05051 37H5C4.44771 37 4 36.5523 4 36C4 35.4477 4.44772 35 5 35H7V23.3428L6.16703 22.5042C4.61099 20.9376 4.61099 18.3951 6.16703 16.8285C7.22155 15.7669 8.71987 15.4263 10.0591 15.8069L10.7632 15.1034C12.2364 13.6315 14.624 13.6323 16.0961 15.1052L17.8963 16.9063C19.3686 18.3793 19.3678 20.7667 17.8945 22.2387L17.5261 22.6068L17.8925 22.9756C17.9502 23.0337 18.0285 23.0664 18.11 23.0664ZM38 17C41.3137 17 44 14.3137 44 11C44 7.68629 41.3137 5 38 5C34.6863 5 32 7.68629 32 11C32 14.3137 34.6863 17 38 17Z" fill="#333333"/>
</svg>
