<svg width="48" height="48" viewBox="0 0 48 48" fill="none" xmlns="http://www.w3.org/2000/svg">
<path fill-rule="evenodd" clip-rule="evenodd" d="M0 0H48V48H0V0ZM39.5776 10.1337C34.958 5.26674 28.5689 7.4687 25.4167 9.03924L31.6019 13.7014C32.0429 14.0339 32.131 14.6609 31.7985 15.1019C31.4661 15.543 30.8391 15.631 30.3981 15.2986L23.5242 10.1173L23.5 10.1337C17.3205 5.32394 11.9517 6.35267 7.58968 11.1647C4.06752 15.0503 6.46891 22.0542 8.19519 27.089C8.6068 28.2895 8.98003 29.3781 9.22543 30.2857C10.5 35 11.7194 37.9377 14.5 40.0637C15.877 41.1165 17.4384 39.3072 19.0857 37.3984C20.514 35.7435 22.0068 34.0137 23.5 34.0096C24.9688 34.0055 26.438 35.7325 27.8465 37.3881C29.4722 39.2991 31.0169 41.1149 32.3867 40.0637C34.0107 38.8173 34.9569 37.8248 35.8341 35.9252C36.2158 35.9745 36.6049 36 37 36C41.9706 36 46 31.9706 46 27C46 23.8677 44.3998 21.1091 41.9724 19.4971C42.7354 16.3648 42.4888 13.2008 39.5776 10.1337Z" fill="#333333"/>
<path fill-rule="evenodd" clip-rule="evenodd" d="M37 34C40.866 34 44 30.866 44 27C44 23.134 40.866 20 37 20C33.134 20 30 23.134 30 27C30 30.866 33.134 34 37 34ZM37 36C41.9706 36 46 31.9706 46 27C46 22.0294 41.9706 18 37 18C32.0294 18 28 22.0294 28 27C28 31.9706 32.0294 36 37 36Z" fill="#333333"/>
<path d="M36 23C36 22.4477 36.4477 22 37 22C37.5523 22 38 22.4477 38 23V31C38 31.5523 37.5523 32 37 32C36.4477 32 36 31.5523 36 31V23Z" fill="#333333"/>
<path d="M33 28C32.4477 28 32 27.5523 32 27C32 26.4477 32.4477 26 33 26H41C41.5523 26 42 26.4477 42 27C42 27.5523 41.5523 28 41 28H33Z" fill="#333333"/>
</svg>
