<svg width="48" height="48" viewBox="0 0 48 48" fill="none" xmlns="http://www.w3.org/2000/svg">
<path fill-rule="evenodd" clip-rule="evenodd" d="M48 0H0V48H48V0ZM31.725 12V9H17.475C15.42 9 13.53 10.26 11.775 12.6L14.175 14.4C15.42 12.735 16.53 12 17.475 12L22.725 11.9985V15H18.225V18C14.91 18 12.225 20.685 12.225 24V36C12.225 37.6575 13.5675 39 15.225 39H33.225C34.8825 39 36.225 37.6575 36.225 36V24C36.225 20.685 33.54 18 30.225 18V15H25.725V11.9985L31.725 12ZM22.725 24H25.725V27H28.725V30H25.7235L25.725 33H22.725L22.7235 30H19.725V27H22.725V24Z" fill="#333333"/>
</svg>
