<svg width="48" height="48" viewBox="0 0 48 48" fill="none" xmlns="http://www.w3.org/2000/svg">
<path fill-rule="evenodd" clip-rule="evenodd" d="M0 0H48V48H0V0ZM23 5L25 3V11H23V5ZM23 11V19H19V17H20V12C20 11.4477 20.4477 11 21 11H23ZM25 11H27C27.5523 11 28 11.4477 28 12V17H29V19H25V11ZM14 24C14 21.7909 15.7909 20 18 20H22V22C22 22.5523 22.4477 23 23 23V25H25V23C25.5523 23 26 22.5523 26 22V20H30C32.2091 20 34 21.7909 34 24V41C34 43.2091 32.2091 45 30 45H18C15.7909 45 14 43.2091 14 41V24ZM28 30C28 32.2091 26.2091 34 24 34C21.7909 34 20 32.2091 20 30C20 27.7909 21.7909 26 24 26C26.2091 26 28 27.7909 28 30ZM23 37V35H25V37H23ZM21 22H18C16.8954 22 16 22.8954 16 24V35V37H18H22V35H18V24H21V22ZM27 24H30V35H26V37H30H32V35V24C32 22.8954 31.1046 22 30 22H27V24Z" fill="#333333"/>
</svg>
