<svg width="48" height="48" viewBox="0 0 48 48" fill="none" xmlns="http://www.w3.org/2000/svg">
<path fill-rule="evenodd" clip-rule="evenodd" d="M48 0H0V48H48V0ZM25 35C25.813 35 26.5693 35.2425 27.2006 35.6592L29.0018 5.93945L30 5.99995L30.9982 5.93945L32.7994 35.6592C33.4307 35.2425 34.187 35 35 35C37.2091 35 39 36.7909 39 39C39 41.2091 37.2091 43 35 43C32.8017 43 31.0175 41.2266 31.0001 39.0323L30.7557 35H29.2443L28.9999 39.0323C28.9825 41.2266 27.1984 43 25 43C22.7909 43 21 41.2091 21 39C21 36.7909 22.7909 35 25 35ZM30 22.5302L30.6345 33H29.3655L30 22.5302ZM30 20C30.5523 20 31 19.5523 31 19C31 18.4477 30.5523 18 30 18C29.4477 18 29 18.4477 29 19C29 19.5523 29.4477 20 30 20ZM25 37C23.8954 37 23 37.8954 23 39C23 40.1046 23.8954 41 25 41C26.1046 41 27 40.1046 27 39C27 37.8954 26.1046 37 25 37ZM33 39C33 37.8954 33.8954 37 35 37C36.1046 37 37 37.8954 37 39C37 40.1046 36.1046 41 35 41C33.8954 41 33 40.1046 33 39ZM16 15V6C16 6 12.6191 7.85948 12.0738 14.9975C11.9897 16.0989 12.8954 17 14 17C15.1046 17 16 16.1046 16 15ZM14.5 17C13.6716 17 13 17.6716 13 18.5V22.2929L16 19.2929V18.5C16 17.6716 15.3284 17 14.5 17ZM13 26.2929V23.7071L16 20.7071V23.2929L13 26.2929ZM13 27.7071V30.2929L16 27.2929V24.7071L13 27.7071ZM13 41.5V31.7071L16 28.7071V41.5C16 42.3284 15.3284 43 14.5 43C13.6716 43 13 42.3284 13 41.5Z" fill="#333333"/>
</svg>
