<svg width="48" height="48" viewBox="0 0 48 48" fill="none" xmlns="http://www.w3.org/2000/svg">
<path fill-rule="evenodd" clip-rule="evenodd" d="M48 0H0V48H48V0ZM23 36C23.8062 36 24.5567 36.2385 25.1847 36.6487L27.0016 4.01025L28 4.06583L28.9985 4.01025L30.8153 36.6487C31.4434 36.2385 32.1938 36 33 36C35.2091 36 37 37.7908 37 40C37 42.2091 35.2091 44 33 44C30.7986 44 29.0126 42.2217 29.0001 40.0232L28.7761 36H27.2239L26.9999 40.0239C26.987 42.2221 25.2011 44 23 44C20.7909 44 19 42.2091 19 40C19 37.7908 20.7909 36 23 36ZM28 22.058L28.6648 34H27.3353L28 22.058ZM28 18.9999C28.5523 18.9999 29 18.5522 29 17.9999C29 17.4476 28.5523 16.9999 28 16.9999C27.4477 16.9999 27 17.4476 27 17.9999C27 18.5522 27.4477 18.9999 28 18.9999ZM23 38C21.8954 38 21 38.8954 21 40C21 41.1045 21.8954 42 23 42C24.1046 42 25 41.1045 25 40C25 38.8954 24.1046 38 23 38ZM31 40C31 38.8954 31.8954 38 33 38C34.1046 38 35 38.8954 35 40C35 41.1045 34.1046 42 33 42C31.8954 42 31 41.1045 31 40ZM14 14V4C14 4 10.5667 6.05996 10.0617 13.9968C9.99159 15.0992 10.8954 16 12 16C13.1046 16 14 15.1046 14 14ZM12.5 17C11.6716 17 11 17.6716 11 18.5V22.2929L14 19.2929V18.5C14 17.6716 13.3284 17 12.5 17ZM11 26.2929V23.7071L14 20.7071V23.2929L11 26.2929ZM11 27.7071V30.2929L14 27.2929V24.7071L11 27.7071ZM11 42.5V31.7071L14 28.7071V42.5C14 43.3284 13.3284 44 12.5 44C11.6716 44 11 43.3284 11 42.5Z" fill="#333333"/>
</svg>
