<svg width="48" height="48" viewBox="0 0 48 48" fill="none" xmlns="http://www.w3.org/2000/svg">
<path d="M14.8075 20.0504L19.0502 15.8078L22.8589 19.6165L18.6162 23.8591L14.8075 20.0504Z" fill="#333333"/>
<path d="M11.272 13.6863L14.8075 17.2218L16.2217 15.8076L12.6862 12.2721L11.272 13.6863Z" fill="#333333"/>
<path d="M22.7822 28.1765C22.3916 27.7859 22.3916 27.1528 22.7822 26.7622L23.7864 25.758C24.1769 25.3675 24.8101 25.3675 25.2006 25.758C25.5911 26.1485 25.5911 26.7817 25.2006 27.1722L24.1964 28.1765C23.8058 28.567 23.1727 28.567 22.7822 28.1765Z" fill="#333333"/>
<path d="M25.6838 30.9313C25.2932 30.5408 25.2932 29.9077 25.6838 29.5171L26.5291 28.6717C26.9197 28.2812 27.5528 28.2812 27.9434 28.6717C28.3339 29.0623 28.3339 29.6954 27.9434 30.086L27.098 30.9313C26.7075 31.3219 26.0743 31.3219 25.6838 30.9313Z" fill="#333333"/>
<path fill-rule="evenodd" clip-rule="evenodd" d="M48 0H0V48H48V0ZM7.7365 15.8076C7.34597 15.417 7.34597 14.7839 7.7365 14.3934L13.3934 8.7365C13.7839 8.34597 14.417 8.34597 14.8076 8.7365C15.1981 9.12702 15.1981 9.76019 14.8076 10.1507L14.1004 10.8578L17.636 14.3935L20.4645 11.565C20.855 11.1745 21.4882 11.1745 21.8787 11.565C22.2692 11.9555 22.2692 12.5887 21.8787 12.9792L20.4644 14.3936L32.6066 26.5353C34.0347 27.9633 34.3811 30.0634 33.646 31.8176L34.6066 32.7781C35.1301 33.3016 35.3027 34.0431 35.1245 34.7104L37.4349 37.0209C37.8255 37.4114 37.8255 38.0445 37.4349 38.4351C37.0444 38.8256 36.4113 38.8256 36.0207 38.4351L33.7102 36.1245C33.043 36.3026 32.3016 36.13 31.7782 35.6065L30.8175 34.6459C29.0634 35.3809 26.9635 35.0343 25.5355 33.6063L13.3933 21.4646L11.9792 22.8787C11.5887 23.2693 10.9555 23.2693 10.565 22.8787C10.1745 22.4882 10.1745 21.855 10.565 21.4645L13.3934 18.6361L9.85779 15.1005L9.15071 15.8076C9.1019 15.8564 9.04929 15.8991 8.99384 15.9357C8.60569 16.192 8.07821 16.1493 7.7365 15.8076Z" fill="#333333"/>
</svg>
