<svg width="48" height="48" viewBox="0 0 48 48" fill="none" xmlns="http://www.w3.org/2000/svg">
<path d="M12.3933 20.0503L18.0502 14.3934L24.4422 20.7854L18.7853 26.4423L12.3933 20.0503Z" stroke="white" stroke-width="2"/>
<mask id="path-2-inside-1" fill="white">
<path fill-rule="evenodd" clip-rule="evenodd" d="M23.2733 18.2019L16.2023 25.2729L24.5355 33.6062C26.4211 35.4918 29.4782 35.4918 31.3637 33.6062L31.6066 33.3633C33.4922 31.4778 33.4922 28.4207 31.6066 26.5352L23.2733 18.2019ZM21.7822 28.1763C21.3917 27.7858 21.3917 27.1527 21.7822 26.7621L22.7864 25.7579C23.177 25.3674 23.8101 25.3674 24.2006 25.7579C24.5912 26.1484 24.5912 26.7816 24.2006 27.1721L23.1964 28.1763C22.8059 28.5669 22.1727 28.5669 21.7822 28.1763ZM24.6838 30.9312C24.2933 30.5407 24.2933 29.9075 24.6838 29.517L25.5292 28.6716C25.9197 28.2811 26.5529 28.2811 26.9434 28.6716C27.3339 29.0622 27.3339 29.6953 26.9434 30.0858L26.098 30.9312C25.7075 31.3218 25.0743 31.3218 24.6838 30.9312Z"/>
</mask>
<path fill-rule="evenodd" clip-rule="evenodd" d="M23.2733 18.2019L16.2023 25.2729L24.5355 33.6062C26.4211 35.4918 29.4782 35.4918 31.3637 33.6062L31.6066 33.3633C33.4922 31.4778 33.4922 28.4207 31.6066 26.5352L23.2733 18.2019ZM21.7822 28.1763C21.3917 27.7858 21.3917 27.1527 21.7822 26.7621L22.7864 25.7579C23.177 25.3674 23.8101 25.3674 24.2006 25.7579C24.5912 26.1484 24.5912 26.7816 24.2006 27.1721L23.1964 28.1763C22.8059 28.5669 22.1727 28.5669 21.7822 28.1763ZM24.6838 30.9312C24.2933 30.5407 24.2933 29.9075 24.6838 29.517L25.5292 28.6716C25.9197 28.2811 26.5529 28.2811 26.9434 28.6716C27.3339 29.0622 27.3339 29.6953 26.9434 30.0858L26.098 30.9312C25.7075 31.3218 25.0743 31.3218 24.6838 30.9312Z" fill="white"/>
<path d="M16.2023 25.2729L14.7881 23.8587L13.3738 25.2729L14.7881 26.6872L16.2023 25.2729ZM23.2733 18.2019L24.6876 16.7877L23.2733 15.3735L21.8591 16.7877L23.2733 18.2019ZM21.7822 26.7621L23.1964 28.1763L21.7822 26.7621ZM22.7864 25.7579L21.3722 24.3437L22.7864 25.7579ZM24.2006 27.1721L25.6149 28.5863L24.2006 27.1721ZM23.1964 28.1763L21.7822 26.7621L23.1964 28.1763ZM24.6838 29.517L23.2696 28.1028L24.6838 29.517ZM25.5292 28.6716L26.9434 30.0858L25.5292 28.6716ZM26.9434 30.0858L28.3576 31.5001L26.9434 30.0858ZM26.098 30.9312L24.6838 29.517L26.098 30.9312ZM17.6165 26.6872L24.6876 19.6161L21.8591 16.7877L14.7881 23.8587L17.6165 26.6872ZM25.9498 32.192L17.6165 23.8587L14.7881 26.6872L23.1213 35.0204L25.9498 32.192ZM29.9495 32.192C28.845 33.2965 27.0543 33.2965 25.9498 32.192L23.1213 35.0204C25.7879 37.687 30.1113 37.687 32.7779 35.0204L29.9495 32.192ZM30.1924 31.9491L29.9495 32.192L32.7779 35.0204L33.0208 34.7775L30.1924 31.9491ZM30.1924 27.9494C31.2969 29.0539 31.2969 30.8446 30.1924 31.9491L33.0208 34.7775C35.6874 32.1109 35.6874 27.7875 33.0208 25.1209L30.1924 27.9494ZM21.8591 19.6161L30.1924 27.9494L33.0208 25.1209L24.6876 16.7877L21.8591 19.6161ZM20.368 25.3479C19.1964 26.5195 19.1964 28.419 20.368 29.5906L23.1964 26.7621C23.5869 27.1527 23.5869 27.7858 23.1964 28.1763L20.368 25.3479ZM21.3722 24.3437L20.368 25.3479L23.1964 28.1763L24.2006 27.1721L21.3722 24.3437ZM25.6149 24.3437C24.4433 23.1721 22.5438 23.1721 21.3722 24.3437L24.2006 27.1721C23.8101 27.5626 23.1769 27.5626 22.7864 27.1721L25.6149 24.3437ZM25.6149 28.5863C26.7864 27.4147 26.7864 25.5152 25.6149 24.3437L22.7864 27.1721C22.3959 26.7816 22.3959 26.1484 22.7864 25.7579L25.6149 28.5863ZM24.6106 29.5906L25.6149 28.5863L22.7864 25.7579L21.7822 26.7621L24.6106 29.5906ZM20.368 29.5906C21.5395 30.7621 23.439 30.7621 24.6106 29.5906L21.7822 26.7621C22.1727 26.3716 22.8059 26.3716 23.1964 26.7621L20.368 29.5906ZM23.2696 28.1028C22.098 29.2744 22.098 31.1739 23.2696 32.3454L26.098 29.517C26.4885 29.9075 26.4885 30.5407 26.098 30.9312L23.2696 28.1028ZM24.115 27.2574L23.2696 28.1028L26.098 30.9312L26.9434 30.0858L24.115 27.2574ZM28.3576 27.2574C27.186 26.0858 25.2865 26.0858 24.115 27.2574L26.9434 30.0858C26.5529 30.4764 25.9197 30.4764 25.5292 30.0858L28.3576 27.2574ZM28.3576 31.5001C29.5292 30.3285 29.5292 28.429 28.3576 27.2574L25.5292 30.0858C25.1386 29.6953 25.1386 29.0622 25.5292 28.6716L28.3576 31.5001ZM27.5122 32.3454L28.3576 31.5001L25.5292 28.6716L24.6838 29.517L27.5122 32.3454ZM23.2696 32.3454C24.4412 33.517 26.3406 33.517 27.5122 32.3454L24.6838 29.517C25.0743 29.1265 25.7075 29.1265 26.098 29.517L23.2696 32.3454Z" fill="white" mask="url(#path-2-inside-1)"/>
<rect x="8.85782" y="13.686" width="4" height="7" transform="rotate(-45 8.85782 13.686)" stroke="white" stroke-width="2"/>
<rect x="6.73653" y="15.1006" width="9" height="1" rx="0.5" transform="rotate(-45 6.73653 15.1006)" fill="#333333" stroke="white"/>
<rect x="32.1923" y="34.8994" width="1" height="5" rx="0.5" transform="rotate(-45 32.1923 34.8994)" fill="#333333" stroke="white"/>
<path d="M28.6569 33.4854L31.4853 30.6569L33.6066 32.7782C34.3877 33.5593 34.3877 34.8256 33.6066 35.6067V35.6067C32.8256 36.3877 31.5592 36.3877 30.7782 35.6067L28.6569 33.4854Z" fill="white"/>
<rect x="9.56489" y="22.1714" width="15" height="1" rx="0.5" transform="rotate(-45 9.56489 22.1714)" fill="#333333" stroke="white"/>
</svg>
