<svg width="48" height="48" viewBox="0 0 48 48" fill="none" xmlns="http://www.w3.org/2000/svg">
<path fill-rule="evenodd" clip-rule="evenodd" d="M48 0H0V48H48V0ZM13.8076 20.0504L18.0502 15.8078L21.8589 19.6165L17.6162 23.8591L13.8076 20.0504ZM19.4644 14.3936L23.2731 18.2022L23.2733 18.202L31.6066 26.5353C33.0347 27.9634 33.3811 30.0635 32.646 31.8176L33.6066 32.7782C34.13 33.3016 34.3027 34.043 34.1245 34.7103L36.435 37.0208C36.8255 37.4113 36.8255 38.0445 36.435 38.435C36.0445 38.8255 35.4113 38.8255 35.0208 38.435L32.7103 36.1245C32.043 36.3027 31.3016 36.13 30.7781 35.6066L29.8175 34.646C28.0634 35.3809 25.9635 35.0343 24.5355 33.6064L18.7856 27.8564L18.7853 27.8566L17.3711 26.4424L12.3933 21.4646L12.3933 21.4645L10.9791 22.8787C10.5886 23.2692 9.95546 23.2692 9.56494 22.8787C9.17441 22.4881 9.17441 21.855 9.56494 21.4644L12.3934 18.636L8.85783 15.1005L8.15072 15.8076C7.7602 16.1981 7.12703 16.1981 6.73651 15.8076C6.34598 15.4171 6.34598 14.7839 6.73651 14.3934L7.44361 13.6863L8.85783 12.2721L10.272 10.8578L11.6863 9.44363L12.3934 8.73652C12.7839 8.346 13.4171 8.346 13.8076 8.73652C14.1981 9.12704 14.1981 9.76021 13.8076 10.1507L13.1005 10.8578L16.636 14.3934L19.4644 11.5649C19.855 11.1744 20.4881 11.1744 20.8786 11.5649C21.2692 11.9555 21.2692 12.5886 20.8786 12.9792L19.4643 14.3935L19.4644 14.3936ZM13.8076 17.2218L15.2218 15.8076L11.6863 12.2721L10.272 13.6863L13.8076 17.2218ZM21.7822 28.1765C21.3916 27.786 21.3916 27.1528 21.7822 26.7623L22.7864 25.758C23.1769 25.3675 23.8101 25.3675 24.2006 25.758C24.5911 26.1486 24.5911 26.7817 24.2006 27.1722L23.1964 28.1765C22.8058 28.567 22.1727 28.567 21.7822 28.1765ZM24.6838 30.9314C24.2932 30.5408 24.2932 29.9077 24.6838 29.5172L25.5292 28.6718C25.9197 28.2812 26.5528 28.2812 26.9434 28.6718C27.3339 29.0623 27.3339 29.6955 26.9434 30.086L26.098 30.9314C25.7075 31.3219 25.0743 31.3219 24.6838 30.9314Z" fill="#333333"/>
</svg>
