<svg width="48" height="48" viewBox="0 0 48 48" fill="none" xmlns="http://www.w3.org/2000/svg">
<path fill-rule="evenodd" clip-rule="evenodd" d="M48 0H0V48H48V0ZM10.0575 12.783C13.5222 8.17037 19.0416 5.18359 25.2584 5.18359C35.7518 5.18359 44.2584 13.6902 44.2584 24.1836C44.2584 34.677 35.7518 43.1836 25.2584 43.1836C19.9435 43.1836 15.1369 41 11.6897 37.4836L10.0231 35.7836H18.5404L18.7667 35.9092C20.6889 36.9758 22.9012 37.5836 25.2583 37.5836C28.6838 37.5836 31.8091 36.2983 34.1782 34.1836H5C4.44772 34.1836 4 33.7359 4 33.1836C4 32.6313 4.44772 32.1836 5 32.1836H36.0092C37.6733 29.9509 38.6583 27.1823 38.6583 24.1836C38.6583 16.783 32.659 10.7836 25.2583 10.7836C21.8593 10.7836 18.7579 12.0479 16.3951 14.1333L16.1116 14.3836H8.85522L10.0575 12.783ZM32 23.7266C32 27.4545 28.9779 30.4766 25.25 30.4766C21.5221 30.4766 18.5 27.4545 18.5 23.7266C18.5 19.9986 21.5221 16.9766 25.25 16.9766C28.9779 16.9766 32 19.9986 32 23.7266ZM17.6 27.6766C17.6 23.2583 14.0183 19.6766 9.6 19.6766H5V30.4766H17.6V27.6766Z" fill="#333333"/>
</svg>
