<svg width="48" height="48" viewBox="0 0 48 48" fill="none" xmlns="http://www.w3.org/2000/svg">
<path d="M6 20.6768H9.6C13.466 20.6768 16.6 23.8108 16.6 27.6768V29.4768H6V20.6768Z" fill="white" stroke="white" stroke-width="2"/>
<circle cx="25.25" cy="23.7266" r="5.75" fill="white" stroke="white" stroke-width="2"/>
<path d="M4 33.1836C4 32.6313 4.44772 32.1836 5 32.1836H38.2L34.6 34.1836H5C4.44772 34.1836 4 33.7359 4 33.1836V33.1836Z" fill="white"/>
<path fill-rule="evenodd" clip-rule="evenodd" d="M43.2584 24.1836C43.2584 34.1247 35.1995 42.1836 25.2583 42.1836C20.223 42.1836 15.6706 40.116 12.4038 36.7836H18.2815C20.3484 37.9305 22.7271 38.5836 25.2583 38.5836C33.2112 38.5836 39.6583 32.1365 39.6583 24.1836C39.6583 16.2307 33.2112 9.78359 25.2583 9.78359C21.6063 9.78359 18.2718 11.1431 15.7334 13.3836H10.857C14.141 9.01159 19.3694 6.18359 25.2583 6.18359C35.1995 6.18359 43.2584 14.2425 43.2584 24.1836Z" fill="white"/>
<path d="M12.4038 36.7836V35.7836H10.0231L11.6897 37.4836L12.4038 36.7836ZM18.2815 36.7836L18.7667 35.9092L18.5404 35.7836H18.2815V36.7836ZM15.7334 13.3836V14.3836H16.1116L16.3951 14.1333L15.7334 13.3836ZM10.857 13.3836L10.0575 12.783L8.85522 14.3836H10.857V13.3836ZM25.2583 43.1836C35.7518 43.1836 44.2584 34.677 44.2584 24.1836H42.2584C42.2584 33.5724 34.6472 41.1836 25.2583 41.1836V43.1836ZM11.6897 37.4836C15.1369 41 19.9435 43.1836 25.2583 43.1836V41.1836C20.5026 41.1836 16.2044 39.2321 13.1179 36.0835L11.6897 37.4836ZM18.2815 35.7836H12.4038V37.7836H18.2815V35.7836ZM17.7963 37.658C20.0078 38.8852 22.553 39.5836 25.2583 39.5836V37.5836C22.9012 37.5836 20.6889 36.9758 18.7667 35.9092L17.7963 37.658ZM25.2583 39.5836C33.7635 39.5836 40.6583 32.6888 40.6583 24.1836H38.6583C38.6583 31.5842 32.659 37.5836 25.2583 37.5836V39.5836ZM40.6583 24.1836C40.6583 15.6784 33.7635 8.78359 25.2583 8.78359V10.7836C32.659 10.7836 38.6583 16.783 38.6583 24.1836H40.6583ZM25.2583 8.78359C21.3534 8.78359 17.7858 10.2383 15.0716 12.6339L16.3951 14.1333C18.7579 12.0479 21.8593 10.7836 25.2583 10.7836V8.78359ZM10.857 14.3836H15.7334V12.3836H10.857V14.3836ZM25.2583 5.18359C19.0416 5.18359 13.5222 8.17037 10.0575 12.783L11.6566 13.9842C14.7598 9.8528 19.6972 7.18359 25.2583 7.18359V5.18359ZM44.2584 24.1836C44.2584 13.6902 35.7518 5.18359 25.2583 5.18359V7.18359C34.6472 7.18359 42.2584 14.7948 42.2584 24.1836H44.2584Z" fill="white"/>
</svg>
