<svg width="48" height="49" viewBox="0 0 48 49" fill="none" xmlns="http://www.w3.org/2000/svg">
<g clip-path="url(#clip0)">
<path fill-rule="evenodd" clip-rule="evenodd" d="M48 0.5H0V48.5H48V0.5ZM18.9815 28.7045L18.9829 30.4831C17.1552 31.9507 15.986 34.2046 15.9881 36.7309C15.9917 41.1492 19.5763 44.728 23.9946 44.7244C28.4129 44.7208 31.9917 41.1361 31.988 36.7178C31.986 34.1914 30.8131 31.9395 28.9829 30.4749L28.9815 28.6968L28.9764 22.4846L28.9662 10.0774C28.9638 7.11877 26.7233 4.72213 23.9618 4.72439C21.2004 4.72666 18.9638 7.12696 18.9662 10.0856L18.9764 22.4928L18.9815 28.7045ZM26.9766 22.7829C25.5196 22.8085 24.1542 22.4555 22.9585 22.1464C22.2284 21.9577 21.5616 21.7853 20.9758 21.7254L20.9662 10.084C20.9648 8.30879 22.3067 6.86861 23.9636 6.86725C25.6205 6.86589 26.9648 8.30388 26.9662 10.0791L26.9667 10.6979L24.9667 10.6995C24.4145 10.7 23.9671 11.1481 23.9676 11.7003C23.968 12.2526 24.4161 12.7 24.9684 12.6995L26.9684 12.6979L26.97 14.6979L24.97 14.6995C24.4177 14.7 23.9704 15.1481 23.9708 15.7003C23.9713 16.2526 24.4194 16.7 24.9716 16.6995L26.9716 16.6979L26.9733 18.6979L24.9733 18.6995C24.421 18.7 23.9737 19.1481 23.9741 19.7003C23.9746 20.2526 24.4226 20.7 24.9749 20.6995L26.9749 20.6979L26.9766 22.7829Z" fill="#333333"/>
</g>
<defs>
<clipPath id="clip0">
<rect width="48" height="48" fill="white" transform="translate(0 0.5)"/>
</clipPath>
</defs>
</svg>
