<svg width="48" height="48" viewBox="0 0 48 48" fill="none" xmlns="http://www.w3.org/2000/svg">
<path fill-rule="evenodd" clip-rule="evenodd" d="M48 0H0V48H48V0ZM34 7H36V5H6V7H8V8H7V10V19C7 21.2315 8.2449 23.463 9.3457 25C10.2181 26.2181 11 27 11 27H9H8.35006H7V29V32V39V41H8V43H10V41H32V43H34V41H35V39V34H37C37.5523 34 38 34.4477 38 35V37H40H41H43V35C43 31.6863 40.3137 29 37 29H41V27H36V29H35V27H33.6499H33H31C31 27 31.7819 26.2181 32.6543 25C33.7551 23.463 35 21.2315 35 19V10V8H34V7ZM35 31V32H37C38.6569 32 40 33.3431 40 35H41C41 32.7909 39.2091 31 37 31H35ZM33 29H31H28H26.1716H26V23H25V29H24V33.1735C24.5556 32.8673 25.1111 32.4762 25.6667 32C28.1111 34.096 30.5556 34.5439 33 33.3466V32V31V29ZM23 23V29H22V23H23ZM20 29V23H19V29H20ZM20 29H22V33.9082C21.3333 34.0306 20.6667 34.0306 20 33.9082V29ZM18 33.1735C17.4444 32.8673 16.8889 32.4762 16.3333 32C13.8889 34.0952 11.4444 34.5442 9 33.3469V29H11H14H15.8284H16V23H17V29H18V33.1735ZM13 23V26.1716L14 27.1716V23H13ZM11 23H10.4123C10.4942 23.1316 10.5783 23.2619 10.6641 23.3906C10.7765 23.5592 10.8891 23.7209 11 23.8749V23ZM9 16H33V10H9V16ZM31.5877 23H31V23.8749C31.1109 23.7209 31.2235 23.5592 31.3359 23.3906C31.4217 23.2619 31.5058 23.1316 31.5877 23ZM29 23H28V27.1716L29 26.1716V23ZM32 7H10V8H32V7ZM42 41.1818C42 42.186 41.3284 43 40.5 43C39.6716 43 39 42.186 39 41.1818C39 39.5909 40.5 38 40.5 38C40.5 38 42 39.5909 42 41.1818Z" fill="#333333"/>
</svg>
