<svg width="48" height="48" viewBox="0 0 48 48" fill="none" xmlns="http://www.w3.org/2000/svg">
<path d="M39 33C38.4477 33 38 33.4477 38 34C38 34.5523 38.4477 35 39 35C39.5523 35 40 34.5523 40 34C40 33.4477 39.5523 33 39 33Z" fill="#333333"/>
<path fill-rule="evenodd" clip-rule="evenodd" d="M48 0H0V48H48V0ZM14 6C14 7.10457 13.1046 8 12 8C11.2597 8 10.6134 7.5978 10.2676 7H10C9.44774 7 9.00003 7.44772 9.00003 8V17H8.79121C9.3432 17.0003 9.78347 17.4501 9.8598 17.9969C10.0753 19.5406 10.7873 20.983 11.9022 22.0979C13.2542 23.4499 15.088 24.2095 17 24.2095C18.9121 24.2095 20.7458 23.4499 22.0979 22.0979C23.2127 20.983 23.9248 19.5406 24.1403 17.9969C24.2166 17.4499 24.6572 17 25.2095 17H25V8C25 7.44772 24.5523 7 24 7H23.7325C23.3867 7.5978 22.7403 8 22 8C20.8955 8 20 7.10457 20 6C20 4.89543 20.8955 4 22 4C22.7403 4 23.3867 4.4022 23.7325 5H24C25.6569 5 27 6.34315 27 8V17C27.5523 17 28.0047 17.4487 27.9546 17.9987C27.7221 20.5499 26.6044 22.952 24.7782 24.7782C23.4391 26.1173 21.7902 27.0755 20 27.583V30C20 31.3062 19.1652 32.4175 18 32.8293V37.75C18 40.6495 20.3505 43 23.25 43C26.1495 43 28.5 40.6495 28.5 37.75V28.75C28.5 25.5744 31.0744 23 34.25 23C37.4257 23 40 25.5744 40 28.75V31.1707C41.1652 31.5825 42 32.6938 42 34C42 35.6569 40.6569 37 39 37C37.3432 37 36 35.6569 36 34C36 32.6938 36.8348 31.5825 38 31.1707V28.75C38 26.6789 36.3211 25 34.25 25C32.179 25 30.5 26.6789 30.5 28.75V37.75C30.5 41.7541 27.2541 45 23.25 45C19.246 45 16 41.7541 16 37.75V32.8293C14.8348 32.4175 14 31.3062 14 30V27.583C12.2098 27.0755 10.561 26.1173 9.22185 24.7782C7.39568 22.952 6.27792 20.5499 6.04543 17.9987C5.9953 17.4487 6.44774 17 7.00003 17V8C7.00003 6.34315 8.34317 5 10 5H10.2676C10.6134 4.4022 11.2597 4 12 4C13.1046 4 14 4.89543 14 6Z" fill="#333333"/>
</svg>
