<svg width="48" height="48" viewBox="0 0 48 48" fill="none" xmlns="http://www.w3.org/2000/svg">
<mask id="path-1-inside-1" fill="white">
<path d="M27 17C27.5523 17 28.0047 17.4487 27.9546 17.9987C27.7221 20.5498 26.6043 22.952 24.7782 24.7782C22.7153 26.8411 19.9174 28 17 28C14.0826 28 11.2847 26.8411 9.22183 24.7782C7.39566 22.952 6.27789 20.5499 6.0454 17.9987C5.99528 17.4487 6.44772 17 7 17L8.79055 17C9.34283 17 9.78341 17.4499 9.85977 17.9969C10.0753 19.5406 10.7873 20.983 11.9021 22.0979C13.2542 23.4499 15.0879 24.2095 17 24.2095C18.9121 24.2095 20.7458 23.4499 22.0979 22.0979C23.2127 20.983 23.9247 19.5406 24.1402 17.9969C24.2166 17.4499 24.6572 17 25.2095 17H27Z"/>
</mask>
<path d="M27 17C27.5523 17 28.0047 17.4487 27.9546 17.9987C27.7221 20.5498 26.6043 22.952 24.7782 24.7782C22.7153 26.8411 19.9174 28 17 28C14.0826 28 11.2847 26.8411 9.22183 24.7782C7.39566 22.952 6.27789 20.5499 6.0454 17.9987C5.99528 17.4487 6.44772 17 7 17L8.79055 17C9.34283 17 9.78341 17.4499 9.85977 17.9969C10.0753 19.5406 10.7873 20.983 11.9021 22.0979C13.2542 23.4499 15.0879 24.2095 17 24.2095C18.9121 24.2095 20.7458 23.4499 22.0979 22.0979C23.2127 20.983 23.9247 19.5406 24.1402 17.9969C24.2166 17.4499 24.6572 17 25.2095 17H27Z" fill="#82FF9D" stroke="#82FF9D" stroke-width="4" mask="url(#path-1-inside-1)"/>
<path d="M14 26H20V30C20 31.6569 18.6569 33 17 33C15.3431 33 14 31.6569 14 30V26Z" fill="#82FF9D"/>
<path d="M17 32V37.75C17 41.2018 19.7982 44 23.25 44V44C26.7018 44 29.5 41.2018 29.5 37.75V28.75C29.5 26.1266 31.6266 24 34.25 24V24C36.8734 24 39 26.1266 39 28.75V33" stroke="#82FF9D" stroke-width="2"/>
<circle cx="39" cy="34" r="2" stroke="#82FF9D" stroke-width="2"/>
<path d="M8 17V8C8 6.89543 8.89543 6 10 6H12" stroke="#82FF9D" stroke-width="2"/>
<circle cx="12" cy="6" r="1" stroke="#82FF9D" stroke-width="2"/>
<path d="M26 17V8C26 6.89543 25.1046 6 24 6H22" stroke="#82FF9D" stroke-width="2"/>
<circle r="1" transform="matrix(-1 0 0 1 22 6)" stroke="#82FF9D" stroke-width="2"/>
</svg>
