<svg width="48" height="48" viewBox="0 0 48 48" fill="none" xmlns="http://www.w3.org/2000/svg">
<path d="M13.8284 35.1716C14.5786 35.9217 15 36.9391 15 38V39C15 38.2044 15.3161 37.4413 15.8787 36.8787C16.4413 36.3161 17.2044 36 18 36C18.7956 36 19.5587 36.3161 20.1213 36.8787C20.6839 37.4413 21 38.2044 21 39C21 38.4696 21.2107 37.9609 21.5858 37.5858C21.9609 37.2107 22.4696 37 23 37C23.5304 37 24.0391 37.2107 24.4142 37.5858C24.7893 37.9609 25 38.4696 25 39V40H8C7.44772 40 7 39.5523 7 39V38C7 36.9391 7.42143 35.9217 8.17157 35.1716C8.92172 34.4214 9.93913 34 11 34C12.0609 34 13.0783 34.4214 13.8284 35.1716Z" fill="#333333"/>
<path d="M23.5 39H34.5" stroke="#333333" stroke-width="2" stroke-linecap="round"/>
<path d="M19.3025 10.7497C19.6069 9.68789 20.7145 9.07396 21.7763 9.37842L36.1952 13.513C37.257 13.8174 37.8709 14.925 37.5665 15.9868L36.8774 18.3899L35.637 22.7156L17.373 17.4785L18.6134 13.1528L19.3025 10.7497Z" stroke="#333333" stroke-width="2"/>
<path d="M13.3798 27.7764L19.1473 29.4302L18.3204 32.314C18.1682 32.8449 17.6144 33.1518 17.0835 32.9996L13.2385 31.8971C12.7076 31.7448 12.4006 31.191 12.5528 30.6602L13.3798 27.7764Z" fill="#333333"/>
<path d="M27.7987 31.9111L33.5662 33.565L32.7393 36.4487C32.5871 36.9796 32.0333 37.2866 31.5024 37.1344L27.6574 36.0318C27.1265 35.8796 26.8195 35.3258 26.9718 34.7949L27.7987 31.9111Z" fill="#333333"/>
<path fill-rule="evenodd" clip-rule="evenodd" d="M16.4118 17.2026L36.5983 22.991L37.5099 25.8492C37.6299 26.2253 37.6358 26.6286 37.527 27.0082L36.5913 30.2711C36.2869 31.3329 35.1793 31.9468 34.1175 31.6424L28.8306 30.1264L29.9332 26.2813C30.0854 25.7504 29.7784 25.1967 29.2475 25.0444L21.5574 22.8393C21.0265 22.6871 20.4728 22.9941 20.3205 23.525L19.218 27.37L13.931 25.854C12.8693 25.5495 12.2553 24.442 12.5598 23.3802L13.4954 20.1172C13.6043 19.7377 13.823 19.3988 14.1241 19.1434L16.4118 17.2026ZM26.9081 29.5751L27.735 26.6913L25.8125 26.14L24.9856 29.0238L26.9081 29.5751ZM23.8899 25.5888L23.063 28.4726L21.1405 27.9213L21.9674 25.0375L23.8899 25.5888ZM18.7408 23.5922C18.5125 24.3885 17.6818 24.849 16.8855 24.6206C16.0891 24.3923 15.6287 23.5616 15.857 22.7653C16.0854 21.9689 16.9161 21.5085 17.7124 21.7368C18.5087 21.9652 18.9692 22.7958 18.7408 23.5922ZM32.2657 29.0308C33.062 29.2591 33.8927 28.7987 34.121 28.0023C34.3494 27.206 33.8889 26.3753 33.0926 26.147C32.2962 25.9186 31.4656 26.3791 31.2372 27.1754C31.0089 27.9718 31.4693 28.8024 32.2657 29.0308Z" fill="#333333"/>
<path d="M19.0269 11.7107L17.1043 11.1594C16.5734 11.0072 16.0197 11.3142 15.8674 11.8451L15.0405 14.7288C14.8883 15.2597 15.1953 15.8135 15.7261 15.9657L17.6487 16.517C18.1796 16.6692 18.7333 16.3623 18.8856 15.8314L19.7125 12.9476C19.8647 12.4167 19.5577 11.8629 19.0269 11.7107Z" fill="#333333"/>
<path d="M39.2133 17.4988L37.2908 16.9475C36.7599 16.7953 36.2062 17.1022 36.0539 17.6331L35.227 20.5169C35.0748 21.0478 35.3817 21.6016 35.9126 21.7538L37.8352 22.3051C38.366 22.4573 38.9198 22.1504 39.0721 21.6195L39.899 18.7357C40.0512 18.2048 39.7442 17.651 39.2133 17.4988Z" fill="#333333"/>
</svg>
