<svg width="48" height="48" viewBox="0 0 48 48" fill="none" xmlns="http://www.w3.org/2000/svg">
<circle r="6" transform="matrix(-1 0 0 1 38.5 31)" stroke="#333333" stroke-width="3"/>
<path d="M38.5 31L28.5 9H23.25" stroke="#333333" stroke-width="2" stroke-linecap="round" stroke-linejoin="round"/>
<circle r="6" transform="matrix(-1 0 0 1 9.5 31)" stroke="#333333" stroke-width="3"/>
<path d="M9.5 31H25L33 21.5" stroke="#333333" stroke-width="2" stroke-linecap="round" stroke-linejoin="round"/>
<path d="M20 25L24.5 30" stroke="#333333" stroke-width="2"/>
<path d="M27.7764 15.5528C27.607 15.214 27.2608 15 26.882 15H25.754C22.2362 15 18.6312 16.298 17.6032 19.6622C17.5519 19.8302 17.6775 20 17.8532 20H28.382C29.1254 20 29.6088 19.2177 29.2764 18.5528L27.7764 15.5528Z" fill="#333333"/>
<path d="M6 17C6 16.4477 6.44772 16 7 16H11.5C11.8148 16 12.1111 16.1482 12.3 16.4L13.8 18.4C14.2944 19.0592 13.824 20 13 20H7C6.44772 20 6 19.5523 6 19V17Z" fill="#333333"/>
<path d="M35.3764 16.4409C35.1693 15.9233 35.4255 15.3363 35.9459 15.1362L40.3561 13.44C40.9469 13.2127 41.5974 13.5846 41.7015 14.2089L42.2729 17.6371C42.3848 18.3088 41.8074 18.8934 41.1344 18.7899L36.5644 18.0868C36.2146 18.033 35.9194 17.7984 35.7879 17.4698L35.3764 16.4409Z" fill="#333333"/>
<path d="M26.5 23.5C26.5 22.9477 26.0523 22.5 25.5 22.5H18.5C17.3954 22.5 16.5 23.1454 16.5 24.25C16.5 25.3546 17.3954 26 18.5 26H24.5C25.6046 26 26.5 25.3546 26.5 24.25V23.5Z" fill="#333333"/>
<path d="M35.7879 17.4698L36.2522 17.2841L35.7879 17.4698ZM35.3764 16.4409L34.9121 16.6266L35.3764 16.4409ZM40.3561 13.44L40.1766 12.9733L40.3561 13.44ZM41.7015 14.2089L42.1947 14.1267L41.7015 14.2089ZM13.8 18.4L13.4 18.7L13.8 18.4ZM12.3 16.4L11.9 16.7L12.3 16.4ZM42.2729 17.6371L41.7797 17.7193L42.2729 17.6371ZM27.7764 15.5528L28.2236 15.3292L27.7764 15.5528ZM25.754 15.5H26.882V14.5H25.754V15.5ZM28.382 19.5H17.8532V20.5H28.382V19.5ZM27.3292 15.7764L28.8292 18.7764L29.7236 18.3292L28.2236 15.3292L27.3292 15.7764ZM25.754 14.5C22.1707 14.5 18.2532 15.8241 17.125 19.5161L18.0814 19.8083C19.0092 16.7718 22.3017 15.5 25.754 15.5V14.5ZM11.5 15.5H7V16.5H11.5V15.5ZM5.5 17V19H6.5V17H5.5ZM7 20.5H13V19.5H7V20.5ZM14.2 18.1L12.7 16.1L11.9 16.7L13.4 18.7L14.2 18.1ZM40.1766 12.9733L35.7664 14.6695L36.1254 15.6029L40.5356 13.9066L40.1766 12.9733ZM36.4883 18.581L41.0584 19.2841L41.2104 18.2957L36.6404 17.5926L36.4883 18.581ZM42.7661 17.5549L42.1947 14.1267L41.2083 14.2911L41.7797 17.7193L42.7661 17.5549ZM34.9121 16.6266L35.3237 17.6555L36.2522 17.2841L35.8406 16.2552L34.9121 16.6266ZM25.5 22H18.5V23H25.5V22ZM18.5 26.5H24.5V25.5H18.5V26.5ZM27 24.25V23.5H26V24.25H27ZM24.5 26.5C25.1455 26.5 25.765 26.3116 26.2329 25.9245C26.7104 25.5294 27 24.9503 27 24.25H26C26 24.6543 25.8418 24.9502 25.5955 25.154C25.3396 25.3657 24.9591 25.5 24.5 25.5V26.5ZM16 24.25C16 24.9503 16.2896 25.5294 16.7671 25.9245C17.235 26.3116 17.8545 26.5 18.5 26.5V25.5C18.0409 25.5 17.6604 25.3657 17.4045 25.154C17.1582 24.9502 17 24.6543 17 24.25H16ZM18.5 22C17.8545 22 17.235 22.1884 16.7671 22.5755C16.2896 22.9706 16 23.5497 16 24.25H17C17 23.8457 17.1582 23.5498 17.4045 23.346C17.6604 23.1343 18.0409 23 18.5 23V22ZM25.5 23C25.7761 23 26 23.2239 26 23.5H27C27 22.6716 26.3284 22 25.5 22V23ZM36.6404 17.5926C36.4655 17.5657 36.3179 17.4484 36.2522 17.2841L35.3237 17.6555C35.5208 18.1484 35.9637 18.5003 36.4883 18.581L36.6404 17.5926ZM35.7664 14.6695C34.9859 14.9697 34.6016 15.8502 34.9121 16.6266L35.8406 16.2552C35.7371 15.9964 35.8652 15.7029 36.1254 15.6029L35.7664 14.6695ZM40.5356 13.9066C40.831 13.793 41.1563 13.9789 41.2083 14.2911L42.1947 14.1267C42.0386 13.1902 41.0627 12.6325 40.1766 12.9733L40.5356 13.9066ZM13 20.5C14.2361 20.5 14.9416 19.0889 14.2 18.1L13.4 18.7C13.6472 19.0296 13.412 19.5 13 19.5V20.5ZM5.5 19C5.5 19.8284 6.17157 20.5 7 20.5V19.5C6.72386 19.5 6.5 19.2761 6.5 19H5.5ZM11.5 16.5C11.6574 16.5 11.8056 16.5741 11.9 16.7L12.7 16.1C12.4167 15.7223 11.9721 15.5 11.5 15.5V16.5ZM28.382 20.5C29.497 20.5 30.2223 19.3265 29.7236 18.3292L28.8292 18.7764C28.9954 19.1088 28.7537 19.5 28.382 19.5V20.5ZM17.125 19.5161C16.9755 20.0054 17.3415 20.5 17.8532 20.5V19.5C18.0135 19.5 18.1282 19.655 18.0814 19.8083L17.125 19.5161ZM7 15.5C6.17157 15.5 5.5 16.1716 5.5 17H6.5C6.5 16.7239 6.72386 16.5 7 16.5V15.5ZM41.0584 19.2841C42.0678 19.4394 42.934 18.5624 42.7661 17.5549L41.7797 17.7193C41.8356 18.0552 41.5469 18.3475 41.2104 18.2957L41.0584 19.2841ZM26.882 15.5C27.0714 15.5 27.2445 15.607 27.3292 15.7764L28.2236 15.3292C27.9695 14.821 27.4501 14.5 26.882 14.5V15.5Z" fill="#333333"/>
</svg>
