<svg width="48" height="48" viewBox="0 0 48 48" fill="none" xmlns="http://www.w3.org/2000/svg">
<circle r="5.5" transform="matrix(-1 0 0 1 38.5 32)" stroke="#333333" stroke-width="3"/>
<circle r="5.5" transform="matrix(-1 0 0 1 9.5 32)" stroke="#333333" stroke-width="3"/>
<path d="M9.5 32H21.5" stroke="#333333" stroke-width="2" stroke-linecap="round" stroke-linejoin="round"/>
<path fill-rule="evenodd" clip-rule="evenodd" d="M34.493 13C33.7497 13 33.2662 13.7823 33.5986 14.4472L35.5986 18.4472C35.768 18.786 36.1143 19 36.493 19H40.4082C41.2261 19 41.6981 18.0717 41.2162 17.4108L38.2996 13.4108C38.1113 13.1527 37.8111 13 37.4916 13H34.493ZM28.2723 24.4327C28.1059 24.7794 27.7553 25 27.3707 25H21.3108C20.9624 25 20.6392 24.8187 20.4575 24.5215L17.0179 18.8945C16.7017 18.3772 16.9149 17.6998 17.4704 17.4568L19.8366 16.4216C20.6622 16.1424 21.5279 16 22.3995 16H26.8914C27.2652 16 27.6079 16.2085 27.7796 16.5406L29.771 20.3902C29.9152 20.6691 29.9201 20.9994 29.7843 21.2824L28.2723 24.4327ZM5.5 18C4.94772 18 4.5 18.4477 4.5 19V20.6128C4.5 21.119 4.87826 21.5454 5.38085 21.6057L15.1839 22.7821C15.9689 22.8763 16.5476 22.0652 16.2031 21.3535L14.8531 18.5643C14.6861 18.2192 14.3364 18 13.953 18H5.5ZM27.5 29C27.5 27.8954 26.6046 27 25.5 27H21.5C20.3954 27 19.5 27.8954 19.5 29V31C19.5 32.1046 20.3954 33 21.5 33H25.5C26.6046 33 27.5 32.1046 27.5 31V29Z" fill="#333333"/>
<path d="M38.5 32L28.5 10H23.25" stroke="#333333" stroke-width="2" stroke-linecap="round" stroke-linejoin="round"/>
</svg>
