<svg width="48" height="48" viewBox="0 0 48 48" fill="none" xmlns="http://www.w3.org/2000/svg">
<path fill-rule="evenodd" clip-rule="evenodd" d="M29.2948 15C22.926 15 17.6665 19.9754 17.3132 26.3344L17.0016 31.9445C16.9697 32.5177 17.4259 33 18 33H41.9144C42.2014 33 42.4295 32.7589 42.4136 32.4723L41.9954 24.9445C41.966 24.4146 41.5277 24 40.9969 24H33.4429L32.9954 15.9445C32.966 15.4146 32.5277 15 31.9969 15H29.2948ZM29.5 18H29.3956C24.4462 18 20.3589 21.7441 20.0844 26.5294L20.0432 27.2477C20.0227 27.6049 20.3729 27.8674 20.7099 27.7475L27.1804 25.4458C27.5923 25.2993 28.0278 25.2243 28.4666 25.2243H29.5C29.7761 25.2243 30 25.0004 30 24.7243V18.5C30 18.2239 29.7761 18 29.5 18Z" fill="#333333"/>
<path fill-rule="evenodd" clip-rule="evenodd" d="M10.9077 12.7331C10.9659 12.5403 10.7819 12.3567 10.5836 12.3916C10.0962 12.4774 9.58287 12.4606 9.07339 12.3241C8.56406 12.1876 8.11121 11.9456 7.73209 11.6278C7.57774 11.4984 7.32665 11.5654 7.28063 11.7615L4.51872 23.5276C4.51871 23.5276 4.51873 23.5277 4.51878 23.5277C4.51882 23.5277 4.51885 23.5277 4.51884 23.5278L4.103 25.8306C3.7333 27.8778 4.99458 29.8667 7.00405 30.4051L7.17974 30.4522C8.72533 30.8663 10.369 30.3195 11.3585 29.062L13.7149 26.0675C13.9868 25.7219 13.7123 25.2188 13.2745 25.2605L12.038 25.3783C12.0128 25.3807 11.9874 25.3793 11.9627 25.374L9.34851 24.8216L7.66567 24.3707C7.52935 24.3342 7.45027 24.1921 7.49104 24.057L10.9077 12.7331Z" fill="#333333"/>
<circle cx="9.97944" cy="8.9437" r="2.5" transform="rotate(15 9.97944 8.9437)" fill="#333333"/>
<path fill-rule="evenodd" clip-rule="evenodd" d="M13.2881 10.8329C13.1332 10.7849 13.0643 10.6046 13.1344 10.4584C13.2267 10.2657 13.3027 10.0618 13.36 9.84787C13.5435 9.16284 13.5106 8.4708 13.3031 7.84441C13.237 7.64477 13.4086 7.42699 13.6141 7.47172C18.3674 8.50649 23.075 9.78181 25.618 14.1072C25.6994 14.2456 25.6265 14.4228 25.4732 14.4707C24.3565 14.8195 23.3034 15.315 22.3371 15.9353C22.2179 16.0118 22.0588 15.9771 21.98 15.8595C20.139 13.1117 16.6189 11.8657 13.2881 10.8329Z" fill="#333333"/>
<path fill-rule="evenodd" clip-rule="evenodd" d="M19 34C16.7909 34 15 35.7909 15 38C15 40.2091 16.7909 42 19 42H39C41.2091 42 43 40.2091 43 38C43 35.7909 41.2091 34 39 34H19ZM22 38C22 39.1046 21.1046 40 20 40C18.8954 40 18 39.1046 18 38C18 36.8954 18.8954 36 20 36C21.1046 36 22 36.8954 22 38ZM28 38C28 39.1046 27.1046 40 26 40C24.8954 40 24 39.1046 24 38C24 36.8954 24.8954 36 26 36C27.1046 36 28 36.8954 28 38ZM32 40C33.1046 40 34 39.1046 34 38C34 36.8954 33.1046 36 32 36C30.8954 36 30 36.8954 30 38C30 39.1046 30.8954 40 32 40ZM40 38C40 39.1046 39.1046 40 38 40C36.8954 40 36 39.1046 36 38C36 36.8954 36.8954 36 38 36C39.1046 36 40 36.8954 40 38Z" fill="#333333"/>
</svg>
