<svg width="48" height="48" viewBox="0 0 48 48" fill="none" xmlns="http://www.w3.org/2000/svg">
<path d="M15 38V37C15 35.9391 14.5786 34.9217 13.8284 34.1716C13.0783 33.4214 12.0609 33 11 33C9.93913 33 8.92172 33.4214 8.17157 34.1716C7.42143 34.9217 7 35.9391 7 37V39" stroke="#333333" stroke-width="2" stroke-linecap="round"/>
<path d="M21 38C21 37.2044 20.6839 36.4413 20.1213 35.8787C19.5587 35.3161 18.7956 35 18 35C17.2044 35 16.4413 35.3161 15.8787 35.8787C15.3161 36.4413 15 37.2044 15 38" stroke="#333333" stroke-width="2" stroke-linecap="round"/>
<path d="M21 38C21 37.4696 21.2107 36.9609 21.5858 36.5858C21.9609 36.2107 22.4696 36 23 36C23.5304 36 24.0391 36.2107 24.4142 36.5858C24.7893 36.9609 25 37.4696 25 38V39" stroke="#333333" stroke-width="2" stroke-linecap="round"/>
<line x1="25.5" y1="39" x2="34.5" y2="39" stroke="#333333" stroke-width="2" stroke-linecap="round"/>
<path d="M19.3025 10.7497C19.6069 9.68789 20.7145 9.07396 21.7763 9.37842L36.1952 13.513C37.257 13.8174 37.8709 14.925 37.5665 15.9868L36.8774 18.3899L35.637 22.7156L17.373 17.4785L18.6134 13.1528L19.3025 10.7497Z" stroke="#333333" stroke-width="2"/>
<path d="M17.0788 18.1423C17.5698 17.8087 18.1836 17.7104 18.7541 17.8741L34.6081 22.4201C35.2509 22.6044 35.759 23.0978 35.9622 23.7349L36.5486 25.5733C36.6686 25.9495 36.6745 26.3527 36.5657 26.7323L35.3544 30.9565C35.05 32.0183 33.9424 32.6322 32.8806 32.3278L14.6166 27.0906C13.5549 26.7862 12.9409 25.6786 13.2454 24.6169L14.424 20.5066C14.553 20.0568 14.8355 19.6665 15.2225 19.4036L17.0788 18.1423Z" stroke="#333333" stroke-width="2"/>
<path d="M13.6554 26.8154L18.4617 28.1936L17.3592 32.0387C17.2069 32.5696 16.6531 32.8765 16.1223 32.7243L13.2385 31.8974C12.7076 31.7451 12.4006 31.1914 12.5528 30.6605L13.6554 26.8154Z" fill="#333333"/>
<path d="M29.0356 31.2256L33.8419 32.6038L32.7393 36.4488C32.5871 36.9797 32.0333 37.2867 31.5024 37.1344L28.6187 36.3075C28.0878 36.1553 27.7808 35.6015 27.933 35.0706L29.0356 31.2256Z" fill="#333333"/>
<circle cx="17.2989" cy="23.1786" r="1.5" transform="rotate(16 17.2989 23.1786)" fill="#333333"/>
<circle cx="32.6791" cy="27.5887" r="1.5" transform="rotate(16 32.6791 27.5887)" fill="#333333"/>
<path d="M19.9881 11.9863L17.1043 11.1594C16.5734 11.0072 16.0197 11.3142 15.8674 11.8451L15.0405 14.7288C14.8883 15.2597 15.1953 15.8135 15.7261 15.9657L18.6099 16.7926" stroke="#333333" stroke-width="2"/>
<path d="M36.3295 16.6719L39.2133 17.4988C39.7442 17.651 40.0512 18.2048 39.8989 18.7357L39.072 21.6195C38.9198 22.1504 38.366 22.4573 37.8351 22.3051L34.9513 21.4782" stroke="#333333" stroke-width="2"/>
<line x1="23.5436" y1="28.6108" x2="24.3705" y2="25.727" stroke="#333333" stroke-width="2" stroke-linecap="round"/>
<rect x="20.8011" y="23.6631" width="8" height="5" transform="rotate(16 20.8011 23.6631)" stroke="#333333" stroke-width="2" stroke-linejoin="round"/>
</svg>
