<svg width="48" height="48" viewBox="0 0 48 48" fill="none" xmlns="http://www.w3.org/2000/svg">
<path fill-rule="evenodd" clip-rule="evenodd" d="M18.3412 10.4737C18.7979 8.881 20.4593 7.9601 22.0519 8.41679L36.4709 12.5514C38.0635 13.008 38.9844 14.6694 38.5277 16.2621L38.5277 16.2622L39.489 16.5379C40.5508 16.8423 41.1647 17.9499 40.8603 19.0117L40.0333 21.8955C39.7289 22.9573 38.6213 23.5712 37.5595 23.2667L36.7577 23.0368C36.8189 23.1634 36.8716 23.2951 36.915 23.4311L37.5013 25.2695C37.6813 25.8338 37.6902 26.4387 37.527 27.0081L36.3157 31.2323C35.9557 32.4879 34.8469 33.3259 33.6134 33.4007L32.7393 36.4489C32.5871 36.9797 32.0333 37.2867 31.5024 37.1345L28.6187 36.3076C28.0878 36.1553 27.7808 35.6016 27.933 35.0707L28.76 32.1866L26.8488 31.6386C26.845 31.6375 26.8412 31.6365 26.8374 31.6354L19.1473 29.4303C19.1436 29.4292 19.1398 29.4281 19.1361 29.427L18.1862 29.1546L17.3592 32.0387C17.2069 32.5696 16.6531 32.8766 16.1223 32.7243L13.2385 31.8974C12.7076 31.7452 12.4006 31.1914 12.5528 30.6605L13.4269 27.6124C12.4203 26.8953 11.9241 25.597 12.2842 24.3413L13.4628 20.2311C13.6562 19.5565 14.08 18.971 14.6605 18.5766L16.3462 17.4313L16.4117 17.2027L15.4505 16.9271C14.3887 16.6227 13.7748 15.5151 14.0793 14.4533L14.9062 11.5695C15.2106 10.5078 16.3182 9.89382 17.38 10.1983L18.3412 10.4739L18.3412 10.4737ZM28.35 29.9884L29.4525 26.1435C29.6047 25.6126 29.2978 25.0588 28.7669 24.9066L21.0768 22.7015C20.5459 22.5492 19.9921 22.8562 19.8399 23.3871L18.7374 27.2321L14.8923 26.1295C14.3614 25.9773 14.0544 25.4235 14.2067 24.8926L15.3853 20.7824C15.4498 20.5575 15.591 20.3623 15.7845 20.2309L17.6409 18.9696C17.8863 18.8028 18.1932 18.7536 18.4785 18.8354L34.3325 23.3815C34.6539 23.4737 34.9079 23.7203 35.0095 24.0389L35.5959 25.8773C35.6559 26.0654 35.6589 26.267 35.6045 26.4568L34.3932 30.681C34.2409 31.2119 33.6872 31.5188 33.1563 31.3666L28.35 29.9884ZM26.4275 29.4372L24.5049 28.8859L25.3318 26.0022L27.2544 26.5534L26.4275 29.4372ZM23.4093 25.4509L21.4868 24.8996L20.6599 27.7833L22.5824 28.3346L23.4093 25.4509ZM37.1495 21.0685L38.1108 21.3442L38.9377 18.4604L37.9764 18.1848L37.1495 21.0685ZM18.8856 15.8315L18.61 16.7925L19.0298 16.9129L34.8837 21.459L34.9514 21.4783L36.6052 15.7108C36.7574 15.1799 36.4505 14.6261 35.9196 14.4739L21.5007 10.3393C20.9698 10.1871 20.416 10.4941 20.2638 11.0249L20.2637 11.0252L20.2638 11.0252L19.7125 12.9477L19.7124 12.9477L18.8855 15.8315L18.8856 15.8315ZM16.963 15.2802L17.7899 12.3964L16.8287 12.1208L16.0018 15.0046L16.963 15.2802ZM11 32C9.67392 32 8.40215 32.5268 7.46447 33.4645C6.52678 34.4022 6 35.674 6 37V39C6 39.5523 6.44772 40 7 40C7.55228 40 8 39.5523 8 39V37C8 36.2044 8.31607 35.4413 8.87868 34.8787C9.44129 34.3161 10.2044 34 11 34C11.7957 34 12.5587 34.3161 13.1213 34.8787C13.6839 35.4413 14 36.2044 14 37V38C14 38.5523 14.4477 39 15 39C15.5523 39 16 38.5523 16 38C16 37.4696 16.2107 36.9609 16.5858 36.5858C16.9609 36.2108 17.4696 36 18 36C18.5304 36 19.0391 36.2108 19.4142 36.5858C19.7893 36.9609 20 37.4696 20 38C20 38.5523 20.4477 39 21 39C21.5523 39 22 38.5523 22 38C22 37.7348 22.1054 37.4805 22.2929 37.2929C22.4804 37.1054 22.7348 37 23 37C23.2652 37 23.5196 37.1054 23.7071 37.2929C23.8946 37.4805 24 37.7348 24 38V39C24 39.5523 24.4477 40 25 40C25.0863 40 25.1701 39.9891 25.25 39.9685C25.3299 39.9891 25.4137 40 25.5 40H34.5C35.0523 40 35.5 39.5523 35.5 39C35.5 38.4478 35.0523 38 34.5 38H26C26 37.2044 25.6839 36.4413 25.1213 35.8787C24.5587 35.3161 23.7957 35 23 35C22.3472 35 21.7162 35.2128 21.2 35.6C21.0871 35.4495 20.9631 35.3062 20.8284 35.1716C20.0783 34.4215 19.0609 34 18 34C17.0954 34 16.2224 34.3065 15.5197 34.8618C15.2766 34.3478 14.9453 33.8743 14.5355 33.4645C13.5979 32.5268 12.3261 32 11 32ZM18.7408 23.5921C18.5125 24.3884 17.6818 24.8489 16.8855 24.6205C16.0892 24.3922 15.6287 23.5615 15.8571 22.7652C16.0854 21.9688 16.9161 21.5084 17.7124 21.7367C18.5087 21.9651 18.9692 22.7957 18.7408 23.5921ZM32.2657 29.0307C33.062 29.259 33.8927 28.7986 34.121 28.0022C34.3494 27.2059 33.8889 26.3752 33.0926 26.1469C32.2963 25.9185 31.4656 26.379 31.2372 27.1753C31.0089 27.9717 31.4693 28.8023 32.2657 29.0307Z" fill="#333333"/>
</svg>
