<svg width="48" height="48" viewBox="0 0 48 48" fill="none" xmlns="http://www.w3.org/2000/svg">
<path d="M15 38V37C15 35.9391 14.5786 34.9217 13.8284 34.1716C13.0783 33.4214 12.0609 33 11 33C9.93913 33 8.92172 33.4214 8.17157 34.1716C7.42143 34.9217 7 35.9391 7 37V39" stroke="#333333" stroke-width="2" stroke-linecap="round"/>
<path d="M21 38C21 37.2044 20.6839 36.4413 20.1213 35.8787C19.5587 35.3161 18.7956 35 18 35C17.2044 35 16.4413 35.3161 15.8787 35.8787C15.3161 36.4413 15 37.2044 15 38" stroke="#333333" stroke-width="2" stroke-linecap="round"/>
<path d="M21 38C21 37.4696 21.2107 36.9609 21.5858 36.5858C21.9609 36.2107 22.4696 36 23 36C23.5304 36 24.0391 36.2107 24.4142 36.5858C24.7893 36.9609 25 37.4696 25 38V39" stroke="#333333" stroke-width="2" stroke-linecap="round"/>
<line x1="25.5" y1="39" x2="34.5" y2="39" stroke="#333333" stroke-width="2" stroke-linecap="round"/>
<path d="M19.3025 10.7494C19.607 9.68765 20.7145 9.07372 21.7763 9.37818L36.1952 13.5127C37.257 13.8172 37.8709 14.9248 37.5665 15.9865L36.8774 18.3897L35.637 22.7154L17.373 17.4783L18.6134 13.1526L19.3025 10.7494Z" stroke="#333333" stroke-width="2"/>
<path d="M17.0789 18.1426C17.5698 17.809 18.1836 17.7107 18.7541 17.8743L34.6081 22.4204C35.2509 22.6047 35.7591 23.0981 35.9623 23.7351L36.5486 25.5735C36.6686 25.9497 36.6746 26.353 36.5657 26.7325L35.3544 30.9568C35.05 32.0185 33.9424 32.6325 32.8806 32.328L14.6167 27.0909C13.5549 26.7864 12.941 25.6789 13.2454 24.6171L14.424 20.5068C14.553 20.0571 14.8355 19.6668 15.2225 19.4038L17.0789 18.1426Z" stroke="#333333" stroke-width="2"/>
<path d="M13.6554 26.8153L18.4617 28.1935L17.3592 32.0385C17.2069 32.5694 16.6532 32.8764 16.1223 32.7242L13.2385 31.8973C12.7076 31.745 12.4006 31.1912 12.5529 30.6604L13.6554 26.8153Z" fill="#333333"/>
<path d="M29.0356 31.2255L33.8419 32.6037L32.7394 36.4487C32.5871 36.9796 32.0334 37.2866 31.5025 37.1343L28.6187 36.3074C28.0878 36.1552 27.7808 35.6014 27.9331 35.0705L29.0356 31.2255Z" fill="#333333"/>
<circle cx="17.2989" cy="23.1787" r="1.5" transform="rotate(16 17.2989 23.1787)" fill="#333333"/>
<circle cx="32.6791" cy="27.5889" r="1.5" transform="rotate(16 32.6791 27.5889)" fill="#333333"/>
<path d="M19.9881 11.9863L17.1044 11.1594C16.5735 11.0072 16.0197 11.3142 15.8675 11.8451L15.0405 14.7288C14.8883 15.2597 15.1953 15.8135 15.7262 15.9657L18.6099 16.7926" stroke="#333333" stroke-width="2"/>
<path d="M36.3296 16.6721L39.2134 17.499C39.7443 17.6513 40.0512 18.205 39.899 18.7359L39.0721 21.6197C38.9199 22.1506 38.3661 22.4576 37.8352 22.3053L34.9514 21.4784" stroke="#333333" stroke-width="2"/>
<line x1="23.5437" y1="28.6104" x2="24.3706" y2="25.7266" stroke="#333333" stroke-width="2" stroke-linecap="round"/>
<rect x="20.8012" y="23.6627" width="8" height="5" transform="rotate(16 20.8012 23.6627)" stroke="#333333" stroke-width="2" stroke-linejoin="round"/>
</svg>
