<svg width="48" height="48" viewBox="0 0 48 48" fill="none" xmlns="http://www.w3.org/2000/svg">
<path d="M27 34V20M27 20V17C27 15.8954 26.1046 15 25 15H9C7.89543 15 7 15.8954 7 17V34H11M27 20H33.718C34.2208 20 34.7051 20.1894 35.0746 20.5304L40.3566 25.4061C40.7667 25.7847 41 26.3175 41 26.8757V34H36M30 34H17" stroke="#333333" stroke-width="2"/>
<path d="M17 34C17 35.6569 15.6569 37 14 37C12.3431 37 11 35.6569 11 34C11 32.3431 12.3431 31 14 31C15.6569 31 17 32.3431 17 34Z" stroke="#333333" stroke-width="2"/>
<circle cx="33" cy="34" r="3" stroke="#333333" stroke-width="2"/>
<path d="M27 27L41 27" stroke="#333333" stroke-width="2"/>
<path d="M17 19L17 27" stroke="#333333" stroke-width="2" stroke-linecap="round"/>
<path d="M32 17C32 16.4477 31.5523 16 31 16C30.4477 16 30 16.4477 30 17L32 17ZM30 17L30 20L32 20L32 17L30 17Z" fill="#333333"/>
<path d="M13 23L21 23" stroke="#333333" stroke-width="2" stroke-linecap="round"/>
<path d="M29 19H33" stroke="#333333" stroke-width="2"/>
<path d="M31.191 12.5L31 12.882L30.809 12.5H31.191Z" stroke="#333333"/>
<path d="M34.9028 13.1957L34.4976 13.3308L34.6327 12.9256L34.9028 13.1957Z" stroke="#333333"/>
<path d="M35.5 17.191L35.118 17L35.5 16.809L35.5 17.191Z" stroke="#333333"/>
</svg>
