<svg width="48" height="48" viewBox="0 0 48 48" fill="none" xmlns="http://www.w3.org/2000/svg">
<circle r="6.5" transform="matrix(-1 0 0 1 38.5 31)" stroke="#333333" stroke-width="2"/>
<path d="M38.5 31L28.5 9H23.25" stroke="#333333" stroke-width="2" stroke-linecap="round" stroke-linejoin="round"/>
<circle r="6.5" transform="matrix(-1 0 0 1 9.5 31)" stroke="#333333" stroke-width="2"/>
<path d="M9.5 31H25L33 21.5" stroke="#333333" stroke-width="2" stroke-linecap="round" stroke-linejoin="round"/>
<path d="M33.5 21H18L18.1032 20.6622C19.1312 17.298 22.2362 15 25.754 15H31" stroke="#333333" stroke-width="2" stroke-linejoin="round"/>
<path d="M6.5 17H12.5L17 21H6.5V17Z" stroke="#333333" stroke-width="2" stroke-linejoin="round"/>
<path d="M31.5 15.5L38 13L39 19L32.5 18" stroke="#333333" stroke-width="2" stroke-linejoin="round"/>
<path d="M20 25L24.5 30" stroke="#333333" stroke-width="2"/>
<path d="M26.5 21H18.5C17.3954 21 16.5 21.8954 16.5 23V23C16.5 24.1046 17.3954 25 18.5 25H24.5C25.6046 25 26.5 24.1046 26.5 23V21Z" stroke="#333333" stroke-width="2"/>
</svg>
