<svg width="48" height="48" viewBox="0 0 48 48" fill="none" xmlns="http://www.w3.org/2000/svg">
<path fill-rule="evenodd" clip-rule="evenodd" d="M29.4104 8.5862C29.2481 8.2292 28.8922 8 28.5 8H23.25C22.6977 8 22.25 8.44772 22.25 9C22.25 9.55228 22.6977 10 23.25 10H27.8561L29.6743 14H25.754C21.9536 14 18.5815 16.3839 17.2956 19.9248L13.1644 16.2526C12.9813 16.0899 12.7449 16 12.5 16H6.5C5.94772 16 5.5 16.4477 5.5 17V21C5.5 21.5523 5.94772 22 6.5 22H15.6707C15.5602 22.3128 15.5 22.6494 15.5 23C15.5 24.6569 16.8431 26 18.5 26H19.5546L23.1546 30H16.9339C16.445 26.3307 13.3031 23.5 9.5 23.5C5.35786 23.5 2 26.8579 2 31C2 35.1421 5.35786 38.5 9.5 38.5C13.3031 38.5 16.445 35.6694 16.9339 32H25C25.295 32 25.5749 31.8698 25.7649 31.6442L33.5124 22.444L34.5134 24.6461C32.4028 25.9732 31 28.3228 31 31C31 35.1421 34.3579 38.5 38.5 38.5C42.6421 38.5 46 35.1421 46 31C46 26.8579 42.6421 23.5 38.5 23.5C37.7468 23.5 37.0196 23.611 36.3337 23.8176L34.2733 19.2846L38.8479 19.9884C39.165 20.0371 39.4861 19.9309 39.7115 19.7027C39.9369 19.4745 40.0391 19.152 39.9864 18.8356L38.9864 12.8356C38.937 12.5393 38.757 12.2809 38.4962 12.1318C38.2354 11.9827 37.9214 11.9588 37.641 12.0667L31.9818 14.2433L29.4104 8.5862ZM22.2454 26L25.1683 29.2477L31.2716 22H27.5V23C27.5 24.6569 26.1569 26 24.5 26H22.2454ZM25.5 22H18.5C17.9477 22 17.5 22.4477 17.5 23C17.5 23.5523 17.9477 24 18.5 24H24.5C25.0523 24 25.5 23.5523 25.5 23V22ZM27.5 20H32.4016L30.5834 16H25.754C23.0214 16 20.5735 17.5847 19.429 20H27.5ZM24.5 30L24.6436 29.8708L24.5348 30H24.5ZM32.8109 16.0672L33.2843 17.1089L37.7865 17.8015L37.2151 14.3733L32.8109 16.0672ZM9.5 25.5C12.1961 25.5 14.4391 27.4399 14.9093 30H9.50001C8.94772 30 8.50001 30.4477 8.50001 31C8.50001 31.5523 8.94772 32 9.50001 32H14.9093C14.439 34.5601 12.1961 36.5 9.5 36.5C6.46243 36.5 4 34.0376 4 31C4 27.9624 6.46243 25.5 9.5 25.5ZM33 31C33 29.1335 33.9298 27.4841 35.3515 26.4898L37.5896 31.4138C37.8182 31.9166 38.411 32.1389 38.9138 31.9104C39.4166 31.6818 39.6389 31.089 39.4104 30.5862L37.1719 25.6614C37.5972 25.556 38.0421 25.5 38.5 25.5C41.5376 25.5 44 27.9624 44 31C44 34.0376 41.5376 36.5 38.5 36.5C35.4624 36.5 33 34.0376 33 31ZM12.1198 18L14.3698 20H7.5V18H12.1198Z" fill="#333333"/>
</svg>
