<svg width="48" height="48" viewBox="0 0 48 48" fill="none" xmlns="http://www.w3.org/2000/svg">
<path fill-rule="evenodd" clip-rule="evenodd" d="M35.4285 10.6284C35.6336 11.1412 35.3842 11.7231 34.8714 11.9283L30.8049 13.5549L33.9384 21.2682C34.5961 21.0932 35.2872 21 36 21C40.4183 21 44 24.5817 44 29C44 33.4183 40.4183 37 36 37C31.5817 37 28 33.4183 28 29C28 26.0036 29.6473 23.392 32.0857 22.0214L30.6253 18.4266L24.8872 29.4614C24.7151 29.7924 24.3731 30 24 30H23.5222C23.5074 30.0004 23.4926 30.0004 23.4779 30H19.9381C19.446 33.9463 16.0796 37 12 37C7.58172 37 4 33.4183 4 29C4 24.5817 7.58172 21 12 21C16.0796 21 19.446 24.0537 19.9381 28H22.081L17.5583 15.3363C17.5186 15.2252 17.4997 15.1116 17.4997 15H16C15.4477 15 15 14.5523 15 14C15 13.4477 15.4477 13 16 13H20.5C21.0523 13 21.5 13.4477 21.5 14C21.5 14.5523 21.0523 15 20.5 15H19.5619L21.4038 20.1574L29.5802 15.8541L28.5735 13.3762C28.4734 13.1296 28.4756 12.8532 28.5798 12.6083C28.684 12.3634 28.8815 12.1701 29.1286 12.0713L34.1286 10.0713C34.6414 9.86619 35.2234 10.1156 35.4285 10.6284ZM22.0833 22.0599L23.8742 27.0745L28.1391 18.8726L22.0833 22.0599ZM35.0735 29.3762L32.8466 23.8945C31.1381 24.952 30 26.8431 30 29C30 32.3137 32.6863 35 36 35C39.3137 35 42 32.3137 42 29C42 25.6863 39.3137 23 36 23C35.5534 23 35.1182 23.0488 34.6994 23.1413L36.9265 28.6234C37.1343 29.1351 36.8881 29.7184 36.3764 29.9262C35.8647 30.1341 35.2814 29.8878 35.0735 29.3762ZM17.917 28H12C11.4477 28 11 28.4477 11 29C11 29.5523 11.4477 30 12 30H17.917C17.4409 32.8377 14.973 35 12 35C8.68629 35 6 32.3137 6 29C6 25.6863 8.68629 23 12 23C14.973 23 17.441 25.1623 17.917 28Z" fill="#333333"/>
</svg>
