<svg width="48" height="48" viewBox="0 0 48 48" fill="none" xmlns="http://www.w3.org/2000/svg">
<path fill-rule="evenodd" clip-rule="evenodd" d="M28 10C28.3921 10 28.7481 10.2292 28.9104 10.5862L30.0075 13H35.625C35.9445 13 36.2448 13.1527 36.433 13.4108L40.808 19.4108C41.0297 19.7149 41.062 20.1178 40.8914 20.4532C40.7208 20.7887 40.3763 21 40 21H33.6439L36.0427 26.2773C36.6638 26.0968 37.3206 26 38 26C41.866 26 45 29.134 45 33C45 36.866 41.866 40 38 40C34.134 40 31 36.866 31 33C31 30.5254 32.2841 28.3506 34.2224 27.1058L32.6457 23.6372L28.7186 27.6954C28.5302 27.8901 28.2709 28 28 28L28 31C28 32.6569 26.6569 34 25 34H21H15.9291C15.4439 37.3923 12.5265 40 9 40C5.13401 40 2 36.866 2 33C2 29.134 5.13401 26 9 26C12.5265 26 15.4439 28.6077 15.9291 32H18.1707C18.0602 31.6872 18 31.3506 18 31V29C18 28.4597 18.1428 27.9528 18.3928 27.5149C18.3844 27.501 18.3764 27.4869 18.3687 27.4725L17.0179 24.9526L3.88955 23.4939C3.38312 23.4376 2.99998 23.0095 2.99998 22.5V19C2.99998 18.4477 3.4477 18 3.99998 18H14.5163C14.5424 17.9886 14.5691 17.9782 14.5964 17.969L19.0163 16.4743C19.9451 16.1602 20.919 16 21.8995 16H29.1743L27.3561 12H22.75C22.1977 12 21.75 11.5523 21.75 11C21.75 10.4477 22.1977 10 22.75 10H28ZM32.7348 19H38.0332L35.1166 15H30.9166L32.7348 19ZM21 28H26V31C26 31.5523 25.5523 32 25 32H21C20.4477 32 20 31.5523 20 31V29C20 28.4477 20.4477 28 21 28ZM31.7562 21.6803L27.5761 26H21H19.8486L16.3563 19.4852L19.657 18.3689C20.3794 18.1246 21.1369 18 21.8995 18H30.0834L31.7562 21.6803ZM14.363 20H4.99998V21.605L15.8708 22.8128L14.363 20ZM35.0623 28.9536C33.8125 29.8625 33 31.3364 33 33C33 35.7614 35.2386 38 38 38C40.7614 38 43 35.7614 43 33C43 30.2386 40.7614 28 38 28C37.6159 28 37.2419 28.0433 36.8827 28.1253L38.9104 32.5862C39.1389 33.089 38.9166 33.6818 38.4138 33.9104C37.911 34.1389 37.3182 33.9166 37.0896 33.4138L35.0623 28.9536ZM9 38C6.23858 38 4 35.7614 4 33C4 30.2386 6.23858 28 9 28C11.419 28 13.4367 29.7178 13.9 32H9C8.44771 32 8 32.4477 8 33C8 33.5523 8.44771 34 9 34H13.9C13.4367 36.2822 11.419 38 9 38Z" fill="#333333"/>
</svg>
