<svg width="48" height="48" viewBox="0 0 48 48" fill="none" xmlns="http://www.w3.org/2000/svg">
<path d="M28.7143 17.1457L39.9512 16.1022M39.9512 16.1022L41.7073 10.2886M39.9512 16.1022L42 20.5743" stroke="#333333" stroke-width="2"/>
<path d="M30 17.146H31C31 16.5937 30.5523 16.146 30 16.146V17.146ZM8.1394 32.9792L7.19191 33.299C7.24498 33.4562 7.33636 33.5978 7.4578 33.7109L8.1394 32.9792ZM29 17.146C29 21.6961 28.7417 25.5282 27.3504 28.2229C26.6732 29.5347 25.7313 30.5647 24.403 31.2785C23.0621 31.9992 21.2632 32.4317 18.8268 32.4317V34.4317C21.4912 34.4317 23.6393 33.9595 25.3498 33.0402C27.073 32.1142 28.2867 30.7692 29.1276 29.1404C30.7725 25.9542 31 21.6434 31 17.146H29ZM18.8268 32.4317C13.735 32.4317 11.0947 32.3186 9.73824 32.2087C9.05757 32.1536 8.72432 32.1011 8.57741 32.0707C8.50366 32.0554 8.49824 32.05 8.52936 32.0616C8.54593 32.0677 8.58173 32.082 8.62788 32.1073C8.65152 32.1203 8.68036 32.1375 8.71227 32.1597C8.72835 32.1708 8.74564 32.1836 8.76374 32.1981C8.77282 32.2053 8.78215 32.213 8.7917 32.2212C8.79647 32.2253 8.80131 32.2296 8.80619 32.2339C8.80865 32.2362 8.81233 32.2395 8.81356 32.2406C8.81729 32.244 8.82101 32.2475 8.1394 32.9792C7.4578 33.7109 7.46152 33.7144 7.46526 33.7178C7.46649 33.7189 7.47019 33.7223 7.47266 33.7245C7.47758 33.7289 7.48246 33.7332 7.48729 33.7373C7.49697 33.7456 7.5065 33.7535 7.51585 33.761C7.5345 33.7759 7.55264 33.7893 7.56995 33.8013C7.60431 33.8252 7.63713 33.845 7.66681 33.8613C7.72507 33.8932 7.78126 33.9172 7.83105 33.9357C7.92858 33.972 8.04082 34.002 8.172 34.0291C8.43499 34.0836 8.86078 34.1442 9.57676 34.2022C11.0136 34.3186 13.717 34.4317 18.8268 34.4317V32.4317ZM8.1394 32.9792C9.0869 32.6594 9.08712 32.6601 9.08732 32.6607C9.08736 32.6608 9.08754 32.6613 9.08762 32.6616C9.08778 32.662 9.08786 32.6623 9.08786 32.6623C9.08787 32.6623 9.08757 32.6614 9.08699 32.6596C9.08581 32.656 9.08347 32.6487 9.08012 32.6379C9.07341 32.6162 9.06264 32.5804 9.04894 32.5315C9.02151 32.4337 8.98245 32.2836 8.94063 32.0889C8.85682 31.6987 8.76297 31.1339 8.72821 30.4542C8.65849 29.0907 8.82788 27.302 9.75473 25.5251C11.5663 22.0518 16.5558 18.146 30 18.146V16.146C16.2399 16.146 10.2991 20.1568 7.98145 24.6001C6.84368 26.7815 6.64873 28.9511 6.73082 30.5563C6.77197 31.3609 6.88306 32.0332 6.98522 32.5088C7.03638 32.7471 7.08556 32.9372 7.12313 33.0712C7.14192 33.1383 7.15784 33.1914 7.16969 33.2297C7.17562 33.2488 7.18053 33.2642 7.18428 33.2758C7.18616 33.2816 7.18774 33.2865 7.18902 33.2903C7.18966 33.2922 7.19022 33.2939 7.1907 33.2954C7.19095 33.2961 7.19125 33.297 7.19137 33.2974C7.19165 33.2982 7.19191 33.299 8.1394 32.9792Z" fill="#333333"/>
<rect x="6.85715" y="11.146" width="30" height="2" rx="1" fill="#333333"/>
<path d="M6 37.0029C7.71429 39.1458 15.8571 38.7172 15.8571 38.7172H31.5" stroke="#333333" stroke-width="2" stroke-linecap="round"/>
<path d="M21.5 15C21.5 15 21.5 16.5 21.5 18C21.5 19.5 20.5 27 19.5 27C18.5 27 9 27 9 27" stroke="#333333" stroke-width="2" stroke-linecap="round"/>
</svg>
