<svg width="48" height="48" viewBox="0 0 48 48" fill="none" xmlns="http://www.w3.org/2000/svg">
<path fill-rule="evenodd" clip-rule="evenodd" d="M41.0178 16.0296L42.9091 20.1579L41.0909 20.9909L39.3375 17.1636L30.9974 17.9381C30.9683 22.1471 30.6757 26.1418 29.1276 29.1404C28.2867 30.7692 27.0729 32.1142 25.3498 33.0402C23.6393 33.9595 21.4912 34.4317 18.8268 34.4317C13.717 34.4317 11.0136 34.3186 9.57675 34.2022C8.86076 34.1442 8.43497 34.0836 8.17199 34.0291C8.0408 34.002 7.92856 33.972 7.83103 33.9357C7.78124 33.9172 7.72505 33.8932 7.6668 33.8613C7.63711 33.845 7.60429 33.8252 7.56993 33.8013C7.55262 33.7893 7.53448 33.7759 7.51583 33.761C7.50648 33.7535 7.49695 33.7456 7.48728 33.7373L7.47264 33.7245L7.46524 33.7178C7.4615 33.7144 7.45778 33.7109 8.13939 32.9792C7.19189 33.299 7.19163 33.2982 7.19135 33.2974L7.19069 33.2954L7.189 33.2903L7.18426 33.2758C7.18051 33.2642 7.1756 33.2488 7.16967 33.2297C7.15782 33.1914 7.1419 33.1383 7.12311 33.0712C7.08554 32.9372 7.03637 32.7471 6.9852 32.5088C6.88304 32.0332 6.77195 31.3609 6.7308 30.5563C6.64872 28.9511 6.84366 26.7815 7.98143 24.6001C9.67471 21.3538 13.3021 18.3383 20.5 16.9492V15C20.5 14.4477 20.9477 14 21.5 14C22.0523 14 22.5 14.4477 22.5 15V16.619C24.3314 16.3646 26.3654 16.2056 28.6227 16.1598L28.6218 16.1501L39.1886 15.1689L40.75 9.99951L42.6646 10.5778L41.0178 16.0296ZM8.13939 32.9792L7.45778 33.7109C7.33634 33.5978 7.24497 33.4562 7.19189 33.299L8.13939 32.9792ZM8.9494 32.1294L8.94061 32.0889C8.8568 31.6987 8.76295 31.1339 8.72819 30.4542C8.69126 29.732 8.72142 28.8904 8.8957 27.9945C8.9303 27.9981 8.96542 28 9.00097 28H19.5C19.8917 28 20.1809 27.8145 20.3513 27.6631C20.5211 27.5123 20.6447 27.3344 20.7337 27.1839C20.9131 26.8807 21.0611 26.4993 21.1861 26.1117C21.4408 25.3222 21.6688 24.2869 21.8589 23.2414C22.1636 21.5655 22.394 19.7301 22.4716 18.6411C24.3729 18.3626 26.5356 18.1903 28.9953 18.1534C28.9551 22.2622 28.6377 25.7295 27.3504 28.2229C26.6732 29.5347 25.7312 30.5647 24.403 31.2785C23.0621 31.9992 21.2631 32.4317 18.8268 32.4317C13.735 32.4317 11.0946 32.3186 9.73822 32.2087C9.39286 32.1807 9.13693 32.1534 8.9494 32.1294ZM20.435 18.999C13.9674 20.3395 11.0495 23.0427 9.75471 25.5251C9.67213 25.6834 9.59556 25.8418 9.52464 26H19.0958C19.1499 25.8788 19.2132 25.713 19.2827 25.4977C19.4967 24.834 19.7062 23.9006 19.8911 22.8836C20.1482 21.4697 20.3405 19.9938 20.435 18.999ZM9.00051 27.5209L9.00097 28C9.00092 28 9.00035 28 9.00011 27.5225C9.00024 27.522 9.00038 27.5215 9.00051 27.5209ZM7.85718 11.146C7.30489 11.146 6.85718 11.5937 6.85718 12.146C6.85718 12.6983 7.30489 13.146 7.85718 13.146H35.8572C36.4095 13.146 36.8572 12.6983 36.8572 12.146C36.8572 11.5937 36.4095 11.146 35.8572 11.146H7.85718ZM5.37528 36.2221C5.80654 35.8771 6.43584 35.947 6.78084 36.3783C6.99334 36.6439 7.54251 36.9542 8.515 37.207C9.43529 37.4463 10.5457 37.5879 11.6427 37.6662C12.733 37.7441 13.7763 37.7573 14.5495 37.7508C14.9353 37.7475 15.2517 37.7393 15.4706 37.732C15.58 37.7284 15.6649 37.725 15.7217 37.7225L15.7855 37.7196L15.8008 37.7188L15.8042 37.7187L15.8308 37.7173H31.5C32.0523 37.7173 32.5 38.165 32.5 38.7173C32.5 39.2695 32.0523 39.7173 31.5 39.7173H15.8819L15.8088 39.7206C15.7455 39.7234 15.6538 39.727 15.5372 39.7309C15.3041 39.7387 14.9709 39.7473 14.5665 39.7507C13.7594 39.7575 12.6598 39.744 11.5002 39.6611C10.3471 39.5788 9.10037 39.4257 8.01173 39.1427C6.97529 38.8732 5.86376 38.4335 5.21911 37.6277C4.8741 37.1964 4.94402 36.5671 5.37528 36.2221Z" fill="#333333"/>
</svg>
