<svg width="48" height="48" viewBox="0 0 48 48" fill="none" xmlns="http://www.w3.org/2000/svg">
<path d="M28.7143 17.1462L39.9512 16.1027M39.9512 16.1027L41.7073 10.2891M39.9512 16.1027L42 20.5748" stroke="#333333" stroke-width="2"/>
<path d="M30 17.1465H31C31 16.5942 30.5523 16.1465 30 16.1465V17.1465ZM8.1394 32.9797L7.19191 33.2995C7.24498 33.4567 7.33636 33.5983 7.4578 33.7114L8.1394 32.9797ZM29 17.1465C29 21.6966 28.7417 25.5287 27.3504 28.2234C26.6732 29.5352 25.7313 30.5652 24.403 31.279C23.0621 31.9997 21.2632 32.4322 18.8268 32.4322V34.4322C21.4912 34.4322 23.6393 33.96 25.3498 33.0407C27.073 32.1147 28.2867 30.7697 29.1276 29.1409C30.7725 25.9547 31 21.6439 31 17.1465H29ZM18.8268 32.4322C13.735 32.4322 11.0947 32.3191 9.73824 32.2092C9.05757 32.1541 8.72432 32.1016 8.57741 32.0711C8.50366 32.0559 8.49824 32.0505 8.52936 32.0621C8.54593 32.0682 8.58173 32.0825 8.62788 32.1078C8.65152 32.1207 8.68036 32.1379 8.71227 32.1601C8.72835 32.1713 8.74564 32.1841 8.76374 32.1985C8.77282 32.2058 8.78215 32.2135 8.7917 32.2217C8.79647 32.2258 8.80131 32.2301 8.80619 32.2344C8.80865 32.2366 8.81233 32.24 8.81356 32.2411C8.81729 32.2445 8.82101 32.248 8.1394 32.9797C7.4578 33.7114 7.46152 33.7148 7.46526 33.7183C7.46649 33.7194 7.47019 33.7228 7.47266 33.725C7.47758 33.7294 7.48246 33.7336 7.48729 33.7378C7.49697 33.7461 7.5065 33.754 7.51585 33.7615C7.5345 33.7764 7.55264 33.7898 7.56995 33.8018C7.60431 33.8257 7.63713 33.8455 7.66681 33.8617C7.72507 33.8937 7.78126 33.9176 7.83105 33.9362C7.92858 33.9725 8.04082 34.0025 8.172 34.0296C8.43499 34.0841 8.86078 34.1447 9.57676 34.2027C11.0136 34.3191 13.717 34.4322 18.8268 34.4322V32.4322ZM8.1394 32.9797C9.0869 32.6599 9.08712 32.6606 9.08732 32.6612C9.08736 32.6613 9.08754 32.6618 9.08762 32.6621C9.08778 32.6625 9.08786 32.6628 9.08786 32.6628C9.08787 32.6628 9.08757 32.6619 9.08699 32.6601C9.08581 32.6565 9.08347 32.6492 9.08012 32.6383C9.07341 32.6167 9.06264 32.5809 9.04894 32.532C9.02151 32.4342 8.98245 32.2841 8.94063 32.0894C8.85682 31.6992 8.76297 31.1344 8.72821 30.4547C8.65849 29.0912 8.82788 27.3025 9.75473 25.5255C11.5663 22.0523 16.5558 18.1465 30 18.1465V16.1465C16.2399 16.1465 10.2991 20.1573 7.98145 24.6006C6.84368 26.782 6.64873 28.9516 6.73082 30.5568C6.77197 31.3614 6.88306 32.0337 6.98522 32.5093C7.03638 32.7476 7.08556 32.9376 7.12313 33.0717C7.14192 33.1388 7.15784 33.1919 7.16969 33.2302C7.17562 33.2493 7.18053 33.2647 7.18428 33.2763C7.18616 33.2821 7.18774 33.2869 7.18902 33.2908C7.18966 33.2927 7.19022 33.2944 7.1907 33.2959C7.19095 33.2966 7.19125 33.2975 7.19137 33.2978C7.19165 33.2987 7.19191 33.2995 8.1394 32.9797Z" fill="#333333"/>
<rect x="6.85718" y="11.1465" width="30" height="2" rx="1" fill="#333333"/>
<path d="M6 37.0029C7.71429 39.1458 15.8571 38.7172 15.8571 38.7172H31.5" stroke="#333333" stroke-width="2" stroke-linecap="round"/>
<path d="M21.5 15C21.5 15 21.5 16.5 21.5 18C21.5 19.5 20.5 27 19.5 27C18.5 27 9 27 9 27" stroke="#333333" stroke-width="2" stroke-linecap="round"/>
</svg>
