<svg width="48" height="48" viewBox="0 0 48 48" fill="none" xmlns="http://www.w3.org/2000/svg">
<path fill-rule="evenodd" clip-rule="evenodd" d="M29.2948 17H31.051L31.4434 24.0637C31.5037 25.15 32.4022 26 33.4902 26H40.051L40.3287 31H19.0571L19.3102 26.4453C19.6046 21.1461 23.9874 17 29.2948 17ZM17.3132 26.3344C17.6665 19.9754 22.926 15 29.2948 15H31.051C32.1124 15 32.989 15.8292 33.0479 16.8891L33.4403 23.9528C33.4418 23.9793 33.4637 24 33.4902 24H40.524C41.3201 24 41.9775 24.6219 42.0216 25.4168L42.4136 32.4723C42.4295 32.7589 42.2014 33 41.9144 33H18C17.4259 33 16.9697 32.5177 17.0016 31.9445L17.3132 26.3344Z" fill="#333333"/>
<path d="M22.0806 26.4601C22.3428 22.8726 25.0602 20.2061 28.5702 19.8028L28.9287 24.9999H28.62C28.1331 24.9999 27.6488 25.0762 27.1874 25.2264L22.0806 26.4601Z" stroke="#333333" stroke-width="2"/>
<circle cx="9.97946" cy="8.9436" r="2.5" stroke="#333333" stroke-width="2"/>
<path fill-rule="evenodd" clip-rule="evenodd" d="M12.2893 11.5723C13.89 12.0627 15.4984 12.5618 16.9652 13.2227C18.4666 13.8993 19.7498 14.7161 20.6752 15.7938C21.078 16.263 21.7727 16.3777 22.3078 16.036C23.2259 15.4499 24.2214 14.9765 25.2747 14.6342C26.0416 14.385 26.4221 13.4393 25.9098 12.722C22.8349 8.417 17.5721 7.29321 12.9049 6.29661L12.7291 6.25907C12.4972 6.20953 12.2666 6.16024 12.0368 6.11078C12.7881 6.65754 13.3135 7.496 13.4465 8.45973C17.5262 9.35281 21.2314 10.3648 23.6553 13.0976C23.0007 13.3633 22.369 13.674 21.7639 14.0258C20.6369 12.8843 19.2384 12.0534 17.7869 11.3993C16.3539 10.7536 14.8162 10.2578 13.3706 9.81216C13.1936 10.5047 12.8099 11.1146 12.2893 11.5723Z" fill="#333333"/>
<path fill-rule="evenodd" clip-rule="evenodd" d="M6.73488 10.2574L3.66686 23.3276C3.66198 23.3484 3.65789 23.3692 3.65456 23.39L3.24191 25.6751C2.79134 28.1701 4.32854 30.5941 6.77758 31.2503L6.95326 31.2974C8.83695 31.8021 10.8402 31.1357 12.0461 29.6031L14.7635 26.1497C15.3754 25.3722 14.7577 24.2403 13.7728 24.3341L12.0501 24.4982L9.55233 23.9704L8.51499 23.6924L12.1328 11.702C11.564 12.1465 10.8543 12.4189 10.0819 12.4411L6.65333 23.8043C6.46987 24.4123 6.82575 25.0515 7.4392 25.2159L9.12204 25.6668L9.14467 25.6729L9.1676 25.6777L11.7817 26.2301C11.8932 26.2537 12.0076 26.2602 12.121 26.2494L12.4856 26.2146L10.6709 28.5209C9.89782 29.5033 8.61369 29.9305 7.4062 29.607L7.23051 29.5599C5.66061 29.1393 4.67523 27.5855 4.96406 25.9861L5.37642 23.7026L8.14175 11.9219C7.51268 11.533 7.01599 10.9505 6.73488 10.2574Z" fill="#333333"/>
<path fill-rule="evenodd" clip-rule="evenodd" d="M38.5 36H19.5C18.1193 36 17 37.1193 17 38.5C17 39.8807 18.1193 41 19.5 41H38.5C39.8807 41 41 39.8807 41 38.5C41 37.1193 39.8807 36 38.5 36ZM19.5 34C17.0147 34 15 36.0147 15 38.5C15 40.9853 17.0147 43 19.5 43H38.5C40.9853 43 43 40.9853 43 38.5C43 36.0147 40.9853 34 38.5 34H19.5Z" fill="#333333"/>
<circle cx="21.5" cy="38.5" r="1.5" fill="#333333"/>
<circle cx="26.5" cy="38.5" r="1.5" fill="#333333"/>
<circle cx="31.5" cy="38.5" r="1.5" fill="#333333"/>
<circle cx="36.5" cy="38.5" r="1.5" fill="#333333"/>
</svg>
