<svg width="48" height="48" viewBox="0 0 48 48" fill="none" xmlns="http://www.w3.org/2000/svg">
<path fill-rule="evenodd" clip-rule="evenodd" d="M9.97944 7.4436C9.15101 7.4436 8.47944 8.11518 8.47944 8.9436C8.47944 9.77203 9.15101 10.4436 9.97944 10.4436C10.8079 10.4436 11.4794 9.77203 11.4794 8.9436C11.4794 8.11518 10.8079 7.4436 9.97944 7.4436ZM6.47944 8.9436C6.47944 7.01061 8.04644 5.4436 9.97944 5.4436C11.9124 5.4436 13.4794 7.01061 13.4794 8.9436C13.4794 9.2434 13.4417 9.53439 13.3708 9.8121C14.8163 10.2577 16.354 10.7535 17.7869 11.3992C19.2384 12.0533 20.6369 12.8842 21.7639 14.0257C22.369 13.6739 23.0007 13.3632 23.6553 13.0974C21.2314 10.3647 17.5262 9.35269 13.4465 8.45961C13.3135 7.49588 12.7881 6.65742 12.0368 6.11066C12.2666 6.16012 12.4972 6.20941 12.7291 6.25895L12.9049 6.29649C17.5721 7.29309 22.8349 8.41688 25.9098 12.7219C26.4221 13.4392 26.0416 14.3848 25.2747 14.6341C24.2214 14.9764 23.2259 15.4498 22.3078 16.0359C21.7727 16.3776 21.078 16.2629 20.6752 15.7937C19.7498 14.716 18.4666 13.8992 16.9652 13.2226C15.4987 12.5618 13.8907 12.0627 12.2902 11.5725C12.2389 11.6176 12.1863 11.6612 12.1324 11.7033L8.51502 23.6923L9.55235 23.9703L12.0501 24.4981L13.7728 24.334C14.7578 24.2402 15.3754 25.372 14.7636 26.1496L12.0462 29.603C10.8402 31.1356 8.83697 31.802 6.95329 31.2972L6.7776 31.2502C4.32856 30.5939 2.79137 28.17 3.24194 25.6749L3.65459 23.3899C3.65791 23.3691 3.66201 23.3483 3.66689 23.3275L6.7347 10.2582C6.5701 9.85231 6.47944 9.40854 6.47944 8.9436ZM9.97944 12.4436C10.0136 12.4436 10.0476 12.4431 10.0816 12.4421L6.65335 23.8042C6.4699 24.4122 6.82577 25.0514 7.43922 25.2158L9.12206 25.6667L9.1447 25.6728L9.16762 25.6776L11.7818 26.23C11.8932 26.2536 12.0076 26.26 12.121 26.2492L12.4857 26.2145L10.6709 28.5208C9.89784 29.5032 8.61371 29.9304 7.40622 29.6069L7.23053 29.5598C5.66064 29.1391 4.67526 27.5853 4.96408 25.9859L5.37644 23.7025L8.14153 11.9228C8.67569 12.253 9.30531 12.4436 9.97944 12.4436ZM29.2948 17H31.051L31.4434 24.0637C31.5037 25.15 32.4022 26 33.4902 26H40.051L40.3287 31H19.0571L19.3102 26.4453C19.6046 21.1461 23.9874 17 29.2948 17ZM17.3133 26.3344C17.6665 19.9754 22.926 15 29.2948 15H31.051C32.1124 15 32.989 15.8292 33.0479 16.8891L33.4403 23.9528C33.4418 23.9793 33.4637 24 33.4902 24H40.524C41.3201 24 41.9775 24.6219 42.0217 25.4168L42.4136 32.4723C42.4295 32.7589 42.2014 33 41.9144 33H18C17.426 33 16.9697 32.5177 17.0016 31.9445L17.3133 26.3344ZM23.3388 25.1273C23.9604 23.0947 25.5695 21.5676 27.6501 20.9957L27.8608 24.051C27.541 24.0943 27.2249 24.1651 26.9166 24.263L23.3388 25.1273ZM28.62 25.9998C28.225 25.9998 27.8331 26.0637 27.4623 26.1887L21.6574 27.591C21.3306 27.6699 21.0205 27.4103 21.0409 27.0748L21.0759 26.496C21.3392 22.1481 24.7668 18.9779 29.0332 18.7616C29.2957 18.7483 29.514 18.9532 29.5321 19.2154L29.9816 25.7326C29.9915 25.8771 29.877 25.9998 29.7322 25.9998H28.62ZM19.5 36H38.5C39.8807 36 41 37.1193 41 38.5C41 39.8807 39.8807 41 38.5 41H19.5C18.1193 41 17 39.8807 17 38.5C17 37.1193 18.1193 36 19.5 36ZM15 38.5C15 36.0147 17.0147 34 19.5 34H38.5C40.9853 34 43 36.0147 43 38.5C43 40.9853 40.9853 43 38.5 43H19.5C17.0147 43 15 40.9853 15 38.5ZM23 38.5C23 39.3284 22.3284 40 21.5 40C20.6716 40 20 39.3284 20 38.5C20 37.6716 20.6716 37 21.5 37C22.3284 37 23 37.6716 23 38.5ZM26.5 40C27.3284 40 28 39.3284 28 38.5C28 37.6716 27.3284 37 26.5 37C25.6716 37 25 37.6716 25 38.5C25 39.3284 25.6716 40 26.5 40ZM33 38.5C33 39.3284 32.3284 40 31.5 40C30.6716 40 30 39.3284 30 38.5C30 37.6716 30.6716 37 31.5 37C32.3284 37 33 37.6716 33 38.5ZM36.5 40C37.3284 40 38 39.3284 38 38.5C38 37.6716 37.3284 37 36.5 37C35.6716 37 35 37.6716 35 38.5C35 39.3284 35.6716 40 36.5 40Z" fill="#333333"/>
</svg>
