<svg width="48" height="48" viewBox="0 0 48 48" fill="none" xmlns="http://www.w3.org/2000/svg">
<path d="M31 34V20M9 34H5V28V13C5 11.8954 5.89543 11 7 11H29C30.1046 11 31 11.8954 31 13V20M31 20H35.718C36.2208 20 36.7051 20.1894 37.0746 20.5304L42.3566 25.4061C42.7667 25.7847 43 26.3175 43 26.8757V34H40M34 34H23M17 34H14" stroke="#333333" stroke-width="2"/>
<path d="M14 34C14 35.6569 12.6569 37 11 37C9.34315 37 8 35.6569 8 34C8 32.3431 9.34315 31 11 31C12.6569 31 14 32.3431 14 34Z" stroke="#333333" stroke-width="2"/>
<circle cx="20" cy="34" r="3" stroke="#333333" stroke-width="2"/>
<circle cx="37" cy="34" r="3" stroke="#333333" stroke-width="2"/>
<path d="M5 27H43" stroke="#333333" stroke-width="2"/>
<path d="M18 15L18 23" stroke="#333333" stroke-width="2" stroke-linecap="round"/>
<path d="M14 19L22 19" stroke="#333333" stroke-width="2" stroke-linecap="round"/>
</svg>
