<svg width="48" height="48" viewBox="0 0 48 48" fill="none" xmlns="http://www.w3.org/2000/svg">
<path d="M13.127 14.2782C13.127 14.2782 13.127 14.2781 13.127 14.278L13.127 13.127L14.278 13.127C14.2781 13.127 14.2782 13.127 14.2782 13.127C14.2835 13.1272 14.2963 13.1277 14.3162 13.129C14.3559 13.1316 14.4236 13.1376 14.5153 13.1507C14.6989 13.1769 14.977 13.2316 15.3187 13.3455C15.9985 13.5721 16.9389 14.0356 17.8961 14.9928L20.0548 17.1516L20.7619 17.8587L21.469 17.1516L30.4762 8.14438L32.5476 10.2158L27.3841 23.641L27.1855 24.1574L27.5175 24.6L33.9936 33.2349L34.4944 33.9026L35.2409 33.5293L38.3641 31.9677L31.9677 38.3641L33.5293 35.2409L33.9026 34.4944L33.2349 33.9936L24.6 27.5175L24.1574 27.1855L23.641 27.3841L10.2158 32.5476L8.14437 30.4762L17.1515 21.469L17.8587 20.7619L17.1515 20.0548L14.9928 17.8961C14.0356 16.9389 13.5721 15.9985 13.3455 15.3187C13.2316 14.9771 13.1769 14.6989 13.1507 14.5153C13.1376 14.4236 13.1316 14.3559 13.129 14.3162C13.1277 14.2963 13.1272 14.2835 13.127 14.2782Z" stroke="#333333" stroke-width="2"/>
</svg>
