<svg width="48" height="48" viewBox="0 0 48 48" fill="none" xmlns="http://www.w3.org/2000/svg">
<path fill-rule="evenodd" clip-rule="evenodd" d="M35 14H32.5C31.6716 14 31 14.6716 31 15.5C31 16.3284 31.6716 17 32.5 17H35V14ZM35 19H36.3846C36.7245 19 37 18.7245 37 18.3846V12.6154C37 12.2755 36.7245 12 36.3846 12H32.5C31.2071 12 30.0779 12.7011 29.4718 13.7438C29.4127 13.7211 29.3505 13.7037 29.2858 13.6924L26.3311 13.1731C25.7871 13.0775 25.2687 13.441 25.1731 13.9849C25.0775 14.5289 25.441 15.0473 25.9849 15.1429L28.9396 15.6622C28.9612 15.666 28.9827 15.669 29.0041 15.6714C29.0467 16.5547 29.4167 17.3521 29.9954 17.9448L28.8195 25H23V23C23.5523 23 24 22.5523 24 22V20C24 18.3431 22.6569 17 21 17H12C10.3431 17 9 18.3431 9 20V22C9 22.2373 9.08264 22.4552 9.2207 22.6267C6.67456 24.3432 5 27.2538 5 30.5556C5 30.801 5.19898 31 5.44444 31H9.02243C9.2751 33.8032 11.631 35.9999 14.5 35.9999C17.369 35.9999 19.7249 33.8032 19.9776 31H21H29.8786C29.9943 31.6226 30.5756 32.0433 31.1984 31.9651C31.9517 34.7029 34.6965 36.4449 37.5336 35.9021C40.3279 35.3674 42.2207 32.8061 41.9805 30.0322C42.4749 29.8177 42.7768 29.2856 42.6791 28.7316C42.1221 25.5728 39.1099 23.4636 35.9511 24.0206L35 24.1883V19ZM33 24.7836V19H32.5H31.8471L30.4994 27.0866L30.4812 27.2291C31.0419 26.1883 31.9153 25.3249 33 24.7836ZM39.9995 30.4148L33.1825 31.6168C33.7306 33.252 35.4169 34.2708 37.1577 33.9377C38.8643 33.6112 40.0425 32.0966 39.9995 30.4148ZM23 27H28.4862L28.1529 29H23V27ZM21 23V25V29H7.1603C7.87743 25.5734 10.916 23 14.5556 23H21ZM21 19H12C11.4477 19 11 19.4477 11 20V21H14.5556H22V20C22 19.4477 21.5523 19 21 19ZM17.6192 31.0227C17.7446 31.0265 17.8576 31.0309 17.9592 31.0357C17.7014 32.7143 16.2508 33.9999 14.5 33.9999C12.7492 33.9999 11.2987 32.7144 11.0408 31.0358C11.1424 31.031 11.2554 31.0266 11.3809 31.0228C12.1167 31.0005 13.1116 31.0002 14.5 31.0002C15.8885 31.0002 16.8834 31.0004 17.6192 31.0227ZM40.4847 28.2983L31.7905 29.8314C31.8575 28.0781 33.1368 26.5477 34.9349 26.2307L36.2984 25.9902C38.0965 25.6732 39.8221 26.6738 40.4847 28.2983Z" fill="#333333"/>
</svg>
