<svg width="48" height="48" viewBox="0 0 48 48" fill="none" xmlns="http://www.w3.org/2000/svg">
<path d="M19 30.5C19 32.9853 16.9853 35 14.5 35C12.0147 35 10 32.9853 10 30.5C10 30.3393 10.0004 30.228 10.0044 30.1391C10.2323 30.0865 10.6341 30.0451 11.3506 30.0233C12.1052 30.0005 13.1183 30.0004 14.5 30.0004C15.8817 30.0004 16.8948 30.0005 17.6494 30.0233C18.3659 30.045 18.7677 30.0864 18.9956 30.139C18.9996 30.2279 19 30.3393 19 30.5Z" stroke="#333333" stroke-width="2"/>
<path d="M22 26H29.6299L29.1195 30H22V26Z" stroke="#333333" stroke-width="2"/>
<path d="M34 26V18H31L29 30" stroke="#333333" stroke-width="2"/>
<path d="M40.9198 29.6543C41.3869 32.0953 39.7867 34.4528 37.3457 34.9198C34.9047 35.3869 32.5472 33.7867 32.0802 31.3457" stroke="#333333" stroke-width="2"/>
<path d="M31.9947 27.3439C31.3507 28.2636 31.0082 29.3512 31.0001 30.4585C30.9961 31.0107 31.5245 31.3759 32.0684 31.28L36.5 30.4986L40.9316 29.7172C41.4755 29.6213 41.8472 29.0974 41.6545 28.5798C41.2682 27.5421 40.5744 26.6372 39.6547 25.9932C38.4598 25.1566 36.9815 24.8288 35.5449 25.0821C34.1084 25.3354 32.8313 26.149 31.9947 27.3439Z" stroke="#333333" stroke-width="2"/>
<path d="M10 20C10 18.8954 10.8954 18 12 18H21C22.1046 18 23 18.8954 23 20V22H10L10 20Z" stroke="#333333" stroke-width="2"/>
<path d="M21 30H6.01775C6.304 25.5338 10.0171 22 14.5556 22H22V29C22 29.5523 21.5523 30 21 30Z" stroke="#333333" stroke-width="2"/>
<path d="M30 15.5C30 14.1193 31.1193 13 32.5 13H36V18H32.5C31.1193 18 30 16.8807 30 15.5Z" stroke="#333333" stroke-width="2"/>
<rect x="25.3462" y="13" width="5" height="2" rx="1" transform="rotate(9.96768 25.3462 13)" fill="#333333"/>
</svg>
