<svg width="48" height="48" viewBox="0 0 48 48" fill="none" xmlns="http://www.w3.org/2000/svg">
<path fill-rule="evenodd" clip-rule="evenodd" d="M9.75861 8.70487C9.65819 8.22907 9.19281 7.92158 8.71463 8.01721C8.23617 8.11291 7.92485 8.57611 8.01562 9.05441L8.03871 9.15801C8.0499 9.20417 8.06577 9.26583 8.08733 9.34179C8.13284 9.50217 8.20374 9.72642 8.30956 10.0032C8.52122 10.5568 8.87264 11.3205 9.43986 12.2028C10.2991 13.5395 11.6445 15.1338 13.7256 16.6778L14.262 17.0757L14.1 17.7235C13.8621 18.6747 13.6667 19.8712 13.6667 21.1666C13.6667 22.6457 14.0641 23.6702 14.6651 24.5198C15.2949 25.41 16.1632 26.1365 17.2145 27.0067L17.2514 27.0372C18.5329 28.0978 20.0243 29.332 21.17 31.1937C22.3403 33.0954 23.1112 35.579 23.1112 39.1111C23.1112 39.602 23.5091 40 24.0001 40C24.491 40 24.8889 39.602 24.8889 39.1111C24.8889 35.579 25.6598 33.0954 26.8301 31.1937C27.9758 29.332 29.4672 28.0978 30.7487 27.0372L30.7856 27.0067C31.8369 26.1365 32.7052 25.41 33.335 24.5198C33.936 23.6702 34.3334 22.6457 34.3334 21.1666C34.3334 19.8712 34.138 18.6747 33.9002 17.7235L33.7381 17.0757L34.2745 16.6778C36.3556 15.1338 37.701 13.5395 38.5603 12.2028C39.1275 11.3205 39.4789 10.5568 39.6906 10.0032C39.7964 9.72642 39.8673 9.50217 39.9128 9.3418C39.9502 9.21007 39.967 9.13761 39.9837 9.05878C40.0772 8.57894 39.7654 8.1132 39.2855 8.01721C38.8073 7.92158 38.3419 8.22907 38.2415 8.70487L38.2389 8.71743L38.2351 8.73308L38.2347 8.73509C38.2288 8.75929 38.2185 8.80018 38.2025 8.85643C38.1706 8.96907 38.116 9.14327 38.03 9.36826C37.858 9.81816 37.5601 10.4711 37.0648 11.2415C36.2442 12.518 34.8708 14.1344 32.6 15.6883L32.2222 15.9469L31.7796 15.8298C29.8325 15.3148 27.2569 14.7715 24.9785 14.6405L24.9756 14.6404C24.6545 14.621 24.3291 14.611 24.0001 14.611C23.671 14.611 23.3456 14.621 23.0245 14.6404L23.0216 14.6405C20.7432 14.7715 18.1677 15.3148 16.2206 15.8298L15.778 15.9469L15.4001 15.6883C13.1293 14.1344 11.7559 12.518 10.9353 11.2415C10.44 10.4711 10.1421 9.81816 9.9701 9.36826C9.88407 9.14327 9.82954 8.96909 9.79758 8.85646C9.7816 8.80015 9.77127 8.75926 9.76548 8.73515L9.76501 8.73322L9.76127 8.7175L9.75861 8.70487ZM11.7117 8.27395C11.3772 6.73684 9.87072 5.74639 8.3224 6.05605C6.7579 6.36895 5.74327 7.89089 6.05617 9.4554L6.05831 9.46611L6.09029 9.60963L6.09223 9.61768C6.10965 9.6902 6.13292 9.78074 6.1633 9.8878M11.7117 8.27395C11.7134 8.2807 11.7166 8.29295 11.7216 8.31045C11.7383 8.36937 11.7744 8.48724 11.8382 8.65399C11.9656 8.98723 12.2033 9.51544 12.6176 10.16C13.2584 11.1567 14.3444 12.4677 16.1614 13.779C18.1116 13.2834 20.6165 12.7756 22.9053 12.6439C23.2661 12.6222 23.6312 12.611 24.0001 12.611C24.3689 12.611 24.734 12.6222 25.0948 12.6439C27.3836 12.7756 29.8885 13.2834 31.8387 13.779C33.6557 12.4677 34.7418 11.1567 35.3825 10.16C35.7968 9.51543 36.0345 8.98723 36.1619 8.65398C36.2257 8.48724 36.2618 8.36937 36.2785 8.31045C36.2835 8.29297 36.2867 8.28072 36.2884 8.27398C36.6229 6.73685 38.1294 5.74638 39.6777 6.05605C41.2422 6.36895 42.2568 7.89089 41.9439 9.4554L41.9419 9.46552C41.9161 9.58802 41.8886 9.70547 41.8368 9.88781C41.7761 10.1019 41.6867 10.3825 41.5587 10.7174C41.3024 11.3877 40.8908 12.2761 40.2426 13.2844C39.3357 14.6951 37.9827 16.3135 35.9884 17.8848C36.1869 18.8394 36.3334 19.961 36.3334 21.1666C36.3334 23.0617 35.8064 24.4893 34.9677 25.6748C34.1708 26.8013 33.1058 27.6826 32.1096 28.507L32.0608 28.5474C30.7524 29.6303 29.4943 30.6805 28.5334 32.2419C27.5861 33.7813 26.8889 35.8896 26.8889 39.1111C26.8889 40.7066 25.5955 42 24.0001 42C22.4046 42 21.1112 40.7066 21.1112 39.1111C21.1112 35.8896 20.414 33.7813 19.4667 32.2419C18.5058 30.6805 17.2478 29.6303 15.9394 28.5474L15.8905 28.507C14.8943 27.6826 13.8293 26.8013 13.0324 25.6748C12.1937 24.4893 11.6667 23.0617 11.6667 21.1666C11.6667 19.961 11.8132 18.8394 12.0118 17.8848C10.0174 16.3135 8.66442 14.6951 7.7575 13.2844C7.10935 12.2761 6.69771 11.3877 6.44145 10.7174C6.31337 10.3825 6.22406 10.1019 6.1633 9.8878" fill="#333333"/>
<path fill-rule="evenodd" clip-rule="evenodd" d="M13.0001 24C13.0001 23.4477 13.4478 23 14.0001 23H34.0001C34.5523 23 35.0001 23.4477 35.0001 24C35.0001 24.5522 34.5523 25 34.0001 25H14.0001C13.4478 25 13.0001 24.5522 13.0001 24Z" fill="#333333"/>
</svg>
