<svg width="48" height="48" viewBox="0 0 48 48" fill="none" xmlns="http://www.w3.org/2000/svg">
<path fill-rule="evenodd" clip-rule="evenodd" d="M12.5479 30.7535C1.68365 26.1712 5.97125 10.7044 13.5129 8.14889C16.6415 7.08877 20.0937 10.6058 20.0716 12.7895C20.062 13.7337 19.5748 14.6543 19.0672 15.6135C18.4008 16.8727 17.6992 18.1984 17.9971 19.7311C18.522 22.4312 19.1099 26.987 17.595 29.1496C16.0802 31.3122 14.5568 31.6008 12.5479 30.7535ZM13.3251 28.9107C14.1078 29.2408 14.4923 29.2191 14.7032 29.1584C14.9196 29.096 15.3423 28.8797 15.9569 28.0022C16.3297 27.47 16.5834 26.3471 16.5611 24.6685C16.5402 23.0924 16.2861 21.4104 16.0339 20.1127C15.6295 18.0324 16.46 16.2946 17.0525 15.1483C17.1546 14.9508 17.2478 14.7749 17.3336 14.6127C17.5315 14.2389 17.6906 13.9383 17.8311 13.616C18.0185 13.1865 18.07 12.932 18.0717 12.7693C18.0722 12.7174 18.037 12.4529 17.7777 12.0175C17.5342 11.6087 17.1644 11.1732 16.7103 10.8032C15.7471 10.0183 14.815 9.81937 14.1548 10.0431C11.3448 10.9953 8.70303 14.6619 8.10942 18.9645C7.5399 23.0924 8.95054 27.0656 13.3251 28.9107Z" fill="#333333"/>
<path fill-rule="evenodd" clip-rule="evenodd" d="M34.3472 8.14889C41.8889 10.7044 46.1765 26.1712 35.3123 30.7535C33.3033 31.6008 31.7799 31.3122 30.2651 29.1496C28.7503 26.987 29.3382 22.4312 29.863 19.7311C30.1609 18.1984 29.4593 16.8727 28.7929 15.6135C28.2853 14.6543 27.7981 13.7337 27.7885 12.7895C27.7664 10.6058 31.2187 7.08877 34.3472 8.14889ZM33.1569 29.1584C33.3678 29.2191 33.7524 29.2408 34.535 28.9107C38.9096 27.0656 40.3202 23.0924 39.7507 18.9645C39.1571 14.6619 36.5153 10.9953 33.7054 10.0431C33.0451 9.81937 32.113 10.0183 31.1498 10.8032C30.6957 11.1732 30.3259 11.6087 30.0824 12.0175C29.8231 12.4529 29.7879 12.7174 29.7884 12.7693C29.7901 12.932 29.8416 13.1865 30.029 13.616C30.1696 13.9383 30.3287 14.2389 30.5265 14.6127C30.6124 14.7749 30.7055 14.9508 30.8076 15.1483C31.4001 16.2946 32.2306 18.0324 31.8263 20.1127C31.574 21.4104 31.3199 23.0924 31.299 24.6685C31.2767 26.3471 31.5304 27.47 31.9032 28.0022C32.5178 28.8797 32.9405 29.096 33.1569 29.1584Z" fill="#333333"/>
<path d="M28.618 22.7799C28.6866 23.7775 28.6872 23.7775 28.6878 23.7774L28.689 23.7773L28.6912 23.7772L28.6951 23.7769L28.7006 23.7764L28.7034 23.7761C28.7017 23.7763 28.6933 23.7773 28.679 23.7796C28.6502 23.7842 28.6 23.7938 28.5356 23.8121C28.4045 23.8492 28.2317 23.9173 28.0625 24.0378C27.7728 24.2441 27.3468 24.7023 27.3468 25.8585V40.3246C27.3468 40.3247 27.3468 40.3248 26.3468 40.3248C25.3468 40.3248 25.3468 40.3243 25.3468 40.3242V25.8585C25.3468 24.0922 26.0564 23.0111 26.9023 22.4087C27.3009 22.1249 27.6958 21.9712 27.9906 21.8878C28.1392 21.8457 28.2663 21.8203 28.3618 21.8049C28.4096 21.7972 28.45 21.792 28.4815 21.7885C28.4973 21.7867 28.511 21.7854 28.5223 21.7844L28.5376 21.7831L28.5439 21.7826L28.5468 21.7824L28.5481 21.7823C28.5488 21.7823 28.5494 21.7822 28.618 22.7799Z" fill="#333333"/>
<path d="M19.2421 22.7799C19.1735 23.7775 19.1729 23.7775 19.1723 23.7774L19.1711 23.7773L19.1689 23.7772L19.1651 23.7769L19.1595 23.7764C19.1576 23.7762 19.1565 23.7761 19.1564 23.7761C19.1581 23.7763 19.1668 23.7773 19.1811 23.7796C19.2099 23.7842 19.2601 23.7938 19.3245 23.8121C19.4556 23.8492 19.6284 23.9173 19.7977 24.0378C20.0874 24.2441 20.5133 24.7023 20.5133 25.8585V40.3246C20.5133 40.3247 20.5133 40.3248 21.5133 40.3248C22.5133 40.3248 22.5133 40.3243 22.5133 40.3242V25.8585C22.5133 24.0922 21.8037 23.0111 20.9578 22.4087C20.5593 22.1249 20.1643 21.9712 19.8695 21.8878C19.721 21.8457 19.5938 21.8203 19.4984 21.8049C19.4505 21.7972 19.4102 21.792 19.3786 21.7885C19.3628 21.7867 19.3492 21.7854 19.3378 21.7844L19.3225 21.7831L19.3162 21.7826L19.3133 21.7824L19.312 21.7823C19.3114 21.7823 19.3107 21.7822 19.2421 22.7799Z" fill="#333333"/>
</svg>
