<svg width="48" height="48" viewBox="0 0 48 48" fill="none" xmlns="http://www.w3.org/2000/svg">
<path fill-rule="evenodd" clip-rule="evenodd" d="M34.3791 20.199C34.4534 20.7543 35.2057 21.6018 36.6195 21.4128C38.0333 21.2238 38.5366 20.2084 38.4623 19.6531C38.3881 19.0978 37.6357 18.2502 36.2219 18.4392C34.8082 18.6283 34.3049 19.6437 34.3791 20.199ZM32.3968 20.464C32.6529 22.3799 34.6622 23.6923 36.8845 23.3951C39.1069 23.098 40.7008 21.304 40.4447 19.388C40.1885 17.4721 38.1793 16.1598 35.9569 16.4569C33.7345 16.754 32.1406 18.548 32.3968 20.464Z" fill="#333333"/>
<path fill-rule="evenodd" clip-rule="evenodd" d="M42.7425 13.5299C43.2783 13.6638 43.6041 14.2068 43.4701 14.7426C43.2032 15.8102 42.4198 16.802 41.6904 17.5488C40.9354 18.3217 40.1049 18.9653 39.5547 19.3321C39.0952 19.6384 38.4743 19.5143 38.1679 19.0547C37.8616 18.5952 37.9858 17.9743 38.4453 17.668C38.8951 17.3681 39.6146 16.8117 40.2596 16.1513C40.9302 15.4647 41.3968 14.7899 41.5299 14.2575C41.6638 13.7217 42.2067 13.3959 42.7425 13.5299Z" fill="#333333"/>
<path fill-rule="evenodd" clip-rule="evenodd" d="M40 13C40.5523 13 41 13.4477 41 14C41 14.8602 41.501 15.5868 41.7071 15.7929C42.0976 16.1834 42.0976 16.8166 41.7071 17.2071C41.3166 17.5977 40.6834 17.5977 40.2929 17.2071C39.8324 16.7466 39 15.5399 39 14C39 13.4477 39.4477 13 40 13Z" fill="#333333"/>
<path fill-rule="evenodd" clip-rule="evenodd" d="M28.5538 18.977C28.5535 18.9767 28.5533 18.9765 29.2012 18.2148C29.8491 17.4531 29.8489 17.4529 29.8487 17.4527L29.8475 17.4517L29.8556 17.4584C29.8652 17.4662 29.8822 17.4798 29.9062 17.4983C29.9542 17.5354 30.0299 17.592 30.1305 17.6613C30.3325 17.8002 30.6308 17.9874 31.0039 18.1709C31.7575 18.5414 32.7675 18.8728 33.8844 18.81L33.9965 20.8069C32.4251 20.8951 31.0654 20.4297 30.1215 19.9657C29.6458 19.7318 29.2634 19.4923 28.9968 19.3089C28.8632 19.2169 28.7576 19.1384 28.683 19.0807C28.6456 19.0518 28.6159 19.0281 28.5942 19.0104L28.5676 18.9886L28.5589 18.9813L28.5557 18.9786L28.5538 18.977Z" fill="#333333"/>
<path fill-rule="evenodd" clip-rule="evenodd" d="M33.6393 20.0673C33.6402 20.067 33.641 20.0667 34 21C34.359 21.9334 34.3598 21.9331 34.3606 21.9327L34.3623 21.9321L34.3654 21.9309L34.3711 21.9286L34.3805 21.9248L34.3918 21.9199C34.3932 21.9192 34.3939 21.9189 34.3939 21.9189C34.3939 21.9189 34.3913 21.9201 34.3863 21.9228C34.371 21.931 34.3337 21.9523 34.2809 21.9913C34.1764 22.0682 34.0053 22.2186 33.8218 22.4833C33.4599 23.0052 33 24.0457 33 26H31C31 23.7236 31.5401 22.2641 32.1782 21.3437C32.4947 20.8873 32.8236 20.5808 33.0941 20.3814C33.2288 20.2821 33.3477 20.2103 33.4418 20.1599C33.4889 20.1347 33.5298 20.1148 33.5633 20.0995C33.5801 20.0919 33.595 20.0854 33.608 20.08L33.626 20.0726L33.6339 20.0694L33.6376 20.068L33.6393 20.0673Z" fill="#333333"/>
<path fill-rule="evenodd" clip-rule="evenodd" d="M25.616 9.02219C25.4538 9.79815 25.9286 10.3309 26.3661 10.4224C26.8035 10.5138 27.452 10.2158 27.6142 9.43987C27.7764 8.66391 27.3016 8.13112 26.8641 8.03968C26.4266 7.94824 25.7781 8.24623 25.616 9.02219ZM23.6583 8.61299C23.2947 10.3522 24.3238 12.0387 25.9569 12.3801C27.5899 12.7214 29.2084 11.5882 29.5719 9.84907C29.9354 8.1099 28.9063 6.42332 27.2733 6.08199C25.6403 5.74065 24.0218 6.87382 23.6583 8.61299Z" fill="#333333"/>
<path fill-rule="evenodd" clip-rule="evenodd" d="M18.8033 13.0783C18.7954 12.74 18.654 12.3178 18.3146 11.9401C17.9753 11.5625 17.5706 11.3768 17.235 11.3329C16.9049 11.2897 16.6923 11.3813 16.5682 11.4927C16.4442 11.6042 16.3304 11.8058 16.3382 12.1387C16.3461 12.477 16.4876 12.8992 16.8269 13.2769C17.1663 13.6545 17.571 13.8402 17.9066 13.8841C18.2367 13.9273 18.4493 13.8357 18.5733 13.7243C18.6974 13.6128 18.8111 13.4112 18.8033 13.0783ZM19.91 15.2119C21.1425 14.1046 21.0942 12.0413 19.8023 10.6034C18.5103 9.16559 16.4639 8.8977 15.2315 10.0051C13.9991 11.1125 14.0473 13.1758 15.3393 14.6136C16.6312 16.0514 18.6776 16.3193 19.91 15.2119Z" fill="#333333"/>
<path fill-rule="evenodd" clip-rule="evenodd" d="M35.2001 10.7147C35.5063 10.8588 35.9472 10.9209 36.4368 10.786C36.9263 10.6511 37.2732 10.372 37.4624 10.0914C37.6485 9.81543 37.6616 9.5843 37.6172 9.4235C37.5729 9.2627 37.4434 9.07086 37.1422 8.92913C36.8359 8.78505 36.395 8.72299 35.9055 8.85786C35.416 8.99273 35.0691 9.27185 34.8799 9.55244C34.6937 9.82845 34.6807 10.0596 34.725 10.2204C34.7693 10.3812 34.8989 10.573 35.2001 10.7147ZM32.7969 10.7516C33.237 12.349 35.1044 13.2276 36.968 12.7142C38.8316 12.2007 39.9855 10.4896 39.5454 8.89226C39.1053 7.29492 37.2378 6.41626 35.3743 6.92971C33.5107 7.44316 32.3568 9.15428 32.7969 10.7516Z" fill="#333333"/>
<path fill-rule="evenodd" clip-rule="evenodd" d="M28.644 17.3755C28.7221 17.0462 28.6923 16.6019 28.4597 16.1505C28.2272 15.6992 27.8828 15.417 27.5693 15.2894C27.261 15.1639 27.0321 15.1987 26.8838 15.275C26.7356 15.3514 26.5744 15.5176 26.4976 15.8415C26.4195 16.1708 26.4493 16.6151 26.6818 17.0665C26.9143 17.5178 27.2588 17.8 27.5722 17.9276C27.8806 18.0531 28.1095 18.0183 28.2577 17.942C28.406 17.8656 28.5671 17.6994 28.644 17.3755ZM29.1737 19.7199C30.6466 18.9611 31.1229 16.953 30.2377 15.2346C29.3524 13.5162 27.4408 12.7383 25.9679 13.4971C24.495 14.2559 24.0186 16.264 24.9039 17.9824C25.7891 19.7008 27.7008 20.4787 29.1737 19.7199Z" fill="#333333"/>
<path fill-rule="evenodd" clip-rule="evenodd" d="M12.7394 20.5807C12.5165 20.3261 12.1374 20.0926 11.6348 20.0202C11.1323 19.9478 10.7026 20.0646 10.4169 20.246C10.1358 20.4243 10.0313 20.6309 10.0075 20.796C9.98371 20.9611 10.0256 21.1888 10.2449 21.4392C10.4678 21.6939 10.847 21.9273 11.3495 21.9997C11.8521 22.0722 12.2817 21.9553 12.5675 21.774C12.8485 21.5956 12.953 21.389 12.9768 21.224C13.0006 21.0589 12.9587 20.8312 12.7394 20.5807ZM14.9564 21.5093C15.1927 19.8693 13.8333 18.3164 11.9201 18.0407C10.0069 17.7649 8.26431 18.8708 8.02796 20.5107C7.7916 22.1506 9.15098 23.7035 11.0642 23.9793C12.9774 24.255 14.72 23.1492 14.9564 21.5093Z" fill="#333333"/>
<path fill-rule="evenodd" clip-rule="evenodd" d="M12.3352 39.0163C12.5844 39.2941 13.0184 39.5607 13.6004 39.6529C14.1823 39.745 14.6775 39.6256 15.0003 39.4384C15.3187 39.2539 15.4082 39.0531 15.4277 38.9298C15.4473 38.8066 15.4242 38.588 15.1784 38.3141C14.9292 38.0363 14.4951 37.7697 13.9132 37.6775C13.3313 37.5853 12.8361 37.7048 12.5132 37.892C12.1948 38.0765 12.1053 38.2773 12.0858 38.4005C12.0663 38.5237 12.0894 38.7424 12.3352 39.0163ZM10.1105 38.0877C9.85126 39.7241 11.2737 41.3093 13.2875 41.6283C15.3013 41.9472 17.1439 40.8792 17.4031 39.2427C17.6623 37.6063 16.2399 36.0211 14.2261 35.7021C12.2123 35.3832 10.3696 36.4512 10.1105 38.0877Z" fill="#333333"/>
<path fill-rule="evenodd" clip-rule="evenodd" d="M21.1697 30.9724C20.8596 30.8368 20.4172 30.787 19.9316 30.9353C19.446 31.0837 19.1069 31.3723 18.9255 31.658C18.7471 31.939 18.7405 32.1704 18.7892 32.3299C18.8379 32.4894 18.9727 32.6776 19.2778 32.811C19.5879 32.9466 20.0303 32.9964 20.5159 32.8481C21.0015 32.6997 21.3406 32.4111 21.522 32.1254C21.7004 31.8444 21.707 31.613 21.6583 31.4535C21.6096 31.2939 21.4748 31.1057 21.1697 30.9724ZM23.571 30.8691C23.087 29.2846 21.1959 28.4578 19.3473 29.0226C17.4986 29.5873 16.3924 31.3297 16.8765 32.9142C17.3605 34.4988 19.2516 35.3255 21.1002 34.7608C22.9489 34.1961 24.0551 32.4537 23.571 30.8691Z" fill="#333333"/>
<path fill-rule="evenodd" clip-rule="evenodd" d="M10.5312 31.6633C10.5579 31.326 10.4603 30.8915 10.1614 30.4811C9.86239 30.0707 9.47879 29.8447 9.14946 29.7667C8.82553 29.69 8.60468 29.7593 8.46986 29.8576C8.33505 29.9558 8.20129 30.1447 8.17501 30.4766C8.14829 30.8139 8.24585 31.2484 8.54482 31.6588C8.84379 32.0692 9.22739 32.2952 9.55672 32.3732C9.88065 32.45 10.1015 32.3806 10.2363 32.2824C10.3711 32.1841 10.5049 31.9952 10.5312 31.6633ZM11.4139 33.8989C12.7531 32.9233 12.9161 30.8659 11.7779 29.3035C10.6397 27.7411 8.63141 27.2654 7.29223 28.241C5.95305 29.2166 5.79011 31.274 6.92829 32.8364C8.06647 34.3988 10.0748 34.8745 11.4139 33.8989Z" fill="#333333"/>
<path fill-rule="evenodd" clip-rule="evenodd" d="M33.186 38.5034C33.0296 38.1553 32.6885 37.7572 32.1472 37.4807C31.6059 37.2043 31.0834 37.1613 30.7098 37.2387C30.3409 37.3152 30.1979 37.479 30.1457 37.5814C30.0934 37.6837 30.0444 37.8956 30.1988 38.2393C30.3551 38.5873 30.6963 38.9854 31.2375 39.2619C31.7788 39.5383 32.3013 39.5813 32.675 39.5039C33.0439 39.4275 33.1868 39.2636 33.2391 39.1613C33.2914 39.0589 33.3403 38.8471 33.186 38.5034ZM35.0202 40.071C35.7738 38.5954 34.8948 36.6383 33.0569 35.6996C31.219 34.7609 29.1181 35.1961 28.3645 36.6717C27.6109 38.1472 28.4899 40.1044 30.3279 41.043C32.1658 41.9817 34.2666 41.5465 35.0202 40.071Z" fill="#333333"/>
<path fill-rule="evenodd" clip-rule="evenodd" d="M23.1158 23.6476C23.4194 23.4031 23.894 22.2221 22.7166 20.7595C21.5393 19.2969 20.2842 19.5083 19.9805 19.7527C19.6769 19.9971 19.2023 21.1781 20.3797 22.6407C21.5571 24.1033 22.8122 23.892 23.1158 23.6476ZM24.3699 25.2055C25.8757 23.9934 25.833 21.4414 24.2746 19.5054C22.7162 17.5695 20.2322 16.9826 18.7264 18.1947C17.2207 19.4068 17.2633 21.9588 18.8217 23.8948C20.3802 25.8308 22.8642 26.4176 24.3699 25.2055Z" fill="#333333"/>
<path fill-rule="evenodd" clip-rule="evenodd" d="M28.9626 30.8936C29.4636 31.1725 30.8671 31.0776 31.8065 29.3906C32.7458 27.7036 32.0873 26.4605 31.5863 26.1815C31.0854 25.9026 29.6818 25.9975 28.7425 27.6846C27.8031 29.3716 28.4617 30.6147 28.9626 30.8936ZM27.9897 32.641C29.8008 33.6495 32.292 32.6298 33.5539 30.3636C34.8157 28.0973 34.3704 25.4426 32.5593 24.4342C30.7481 23.4257 28.257 24.4453 26.9951 26.7116C25.7332 28.9779 26.1785 31.6325 27.9897 32.641Z" fill="#333333"/>
<path fill-rule="evenodd" clip-rule="evenodd" d="M33.5073 38.3796C33.5737 37.8323 34.0704 37.4422 34.6175 37.507C34.6177 37.507 34.6171 37.5069 34.6175 37.507L34.6334 37.5086C34.649 37.5101 34.6756 37.5126 34.7123 37.5152C34.7856 37.5206 34.8988 37.5269 35.0446 37.5291C35.3372 37.5337 35.7559 37.5219 36.2448 37.4553C37.2304 37.3212 38.4477 36.9723 39.506 36.1405C39.9403 35.7993 40.5689 35.8746 40.9102 36.3088C41.2515 36.7431 41.1761 37.3717 40.7419 37.713C39.3139 38.8353 37.7192 39.2731 36.5145 39.437C35.9082 39.5196 35.3871 39.5347 35.0136 39.5289C34.8265 39.526 34.6751 39.5178 34.5672 39.51C34.5131 39.506 34.4699 39.5022 34.4383 39.4991L34.3999 39.4951L34.3874 39.4937L34.3829 39.4932L34.3811 39.4929C34.3807 39.4929 34.3796 39.4928 34.5 38.5L34.3796 39.4928C33.8313 39.4262 33.4408 38.9278 33.5073 38.3796Z" fill="#333333"/>
<path fill-rule="evenodd" clip-rule="evenodd" d="M36.2929 37.7929C36.6834 37.4024 37.3166 37.4024 37.7071 37.7929C37.9197 38.0055 38.3289 38.3706 38.8223 38.7264C39.3237 39.0879 39.8542 39.3973 40.3162 39.5513C40.8402 39.726 41.1233 40.2923 40.9487 40.8163C40.774 41.3402 40.2077 41.6234 39.6838 41.4487C38.9458 41.2027 38.2263 40.7622 37.6527 40.3487C37.0711 39.9294 36.5803 39.4945 36.2929 39.2071C35.9024 38.8166 35.9024 38.1834 36.2929 37.7929Z" fill="#333333"/>
<path fill-rule="evenodd" clip-rule="evenodd" d="M28.0383 31.7258C28.0384 31.7255 28.0385 31.7253 29 32C29.9615 32.2748 29.9616 32.2745 29.9616 32.2743L29.9608 32.2775L29.9548 32.2992C29.9493 32.3198 29.9408 32.3522 29.9301 32.3949C29.9087 32.4806 29.8788 32.607 29.8469 32.7629C29.7825 33.0777 29.713 33.498 29.6855 33.9374C29.6576 34.3852 29.6767 34.8026 29.7592 35.1325C29.8418 35.4628 29.9606 35.6053 30.0547 35.668L28.9453 37.3321C28.2894 36.8948 27.9707 36.2248 27.8189 35.6176C27.667 35.0099 27.6549 34.3649 27.6894 33.8126C27.7245 33.252 27.8112 32.7349 27.8875 32.3621C27.9259 32.1743 27.9624 32.0195 27.9898 31.9098C28.0035 31.8549 28.015 31.8111 28.0234 31.7799L28.0336 31.7427L28.0367 31.7314L28.0378 31.7277L28.0383 31.7258Z" fill="#333333"/>
<path fill-rule="evenodd" clip-rule="evenodd" d="M25.7699 13.2987C25.6546 12.7299 25.5 11.959 25.5 11.5H27.5C27.5 11.7077 27.5954 12.2368 27.7301 12.9014C27.7452 12.9759 27.7606 13.0513 27.7759 13.1264C27.8222 13.3533 27.868 13.5778 27.9045 13.7705C27.9459 13.9894 28 14.2866 28 14.5H26C26 14.5037 25.9994 14.4992 25.9974 14.485C25.9921 14.4476 25.9772 14.3428 25.9393 14.1421C25.9058 13.9648 25.8643 13.7614 25.8189 13.5391C25.803 13.4612 25.7866 13.3809 25.7699 13.2987Z" fill="#333333"/>
<path fill-rule="evenodd" clip-rule="evenodd" d="M24.7397 30.542C23.8776 30.9298 23.4391 31.377 23.3599 31.5105L21.6401 30.4896C22.0154 29.8573 22.8724 29.1889 23.9193 28.718C25.0124 28.2263 26.4454 27.8867 28.0899 28.0351L27.9101 30.027C26.6456 29.9129 25.5558 30.1749 24.7397 30.542Z" fill="#333333"/>
<path fill-rule="evenodd" clip-rule="evenodd" d="M25.6408 26.1567C24.6706 25.7055 23.8527 25.1628 23.3753 24.7809L24.6247 23.2192C24.9806 23.5039 25.6627 23.9612 26.4842 24.3433C27.314 24.7293 28.2042 25 29 25V27C27.7958 27 26.6026 26.6041 25.6408 26.1567Z" fill="#333333"/>
<path fill-rule="evenodd" clip-rule="evenodd" d="M14.0313 33.5206C12.576 33.3837 11.1667 33.1532 10.3039 32.9806L10.6961 31.0194C11.5 31.1802 12.8406 31.3997 14.2187 31.5294C15.626 31.6619 16.9582 31.6886 17.8039 31.5194L18.1961 33.4806C17.0418 33.7115 15.4574 33.6548 14.0313 33.5206Z" fill="#333333"/>
<path fill-rule="evenodd" clip-rule="evenodd" d="M16.5631 35.5548C17.1408 34.8479 17.7772 33.9915 18.1863 33.4188L19.8137 34.5813C19.3895 35.1752 18.7259 36.0688 18.1119 36.8203C17.807 37.1933 17.499 37.5503 17.2305 37.8212C17.0985 37.9544 16.954 38.0893 16.8091 38.1978C16.7369 38.2519 16.6431 38.3158 16.5339 38.3698C16.4392 38.4167 16.2472 38.5 16 38.5V36.5C15.8031 36.5 15.6718 36.565 15.6471 36.5772C15.6245 36.5884 15.6103 36.5973 15.6054 36.6005C15.6065 36.5998 15.608 36.5986 15.61 36.5971C15.6415 36.5735 15.7072 36.517 15.8101 36.4132C16.0114 36.2101 16.2722 35.9109 16.5631 35.5548Z" fill="#333333"/>
<path fill-rule="evenodd" clip-rule="evenodd" d="M5 20.5C5 19.9477 5.44772 19.5 6 19.5C7.08091 19.5 8.0232 19.6349 8.69612 19.7694C9.03357 19.8369 9.30601 19.9049 9.49749 19.9571C9.59331 19.9833 9.66907 20.0055 9.7228 20.0219C9.74967 20.03 9.77106 20.0368 9.78671 20.0418L9.80585 20.0479L9.81215 20.05L9.81447 20.0508L9.81542 20.0511C9.81561 20.0511 9.81623 20.0513 9.5 21C9.18377 21.9487 9.18395 21.9488 9.18413 21.9488L9.18542 21.9493L9.17863 21.9471C9.17132 21.9447 9.15853 21.9407 9.14048 21.9352C9.10437 21.9242 9.04732 21.9074 8.97126 21.8867C8.81899 21.8451 8.59143 21.7881 8.30388 21.7306C7.7268 21.6152 6.91909 21.5 6 21.5C5.44772 21.5 5 21.0523 5 20.5Z" fill="#333333"/>
<path fill-rule="evenodd" clip-rule="evenodd" d="M9 15C9.55228 15 10 15.4477 10 16C10 17.1174 10.223 17.6873 10.3682 17.9414C10.4406 18.0679 10.4998 18.1276 10.5188 18.1451C10.96 18.4122 11.1291 18.9779 10.8944 19.4472C10.6474 19.9412 10.0468 20.1414 9.55279 19.8945L10 19C9.55279 19.8945 9.55191 19.894 9.55103 19.8936L9.54924 19.8927L9.5456 19.8908L9.53803 19.8869L9.52176 19.8783C9.51042 19.8722 9.49811 19.8653 9.4849 19.8576C9.45847 19.8422 9.42848 19.8235 9.39553 19.8011C9.32954 19.7564 9.2521 19.6971 9.16803 19.62C8.99876 19.4648 8.80857 19.2431 8.63176 18.9337C8.27697 18.3128 8 17.3827 8 16C8 15.4477 8.44772 15 9 15ZM19.3944 21.5528C19.6414 22.0468 19.4412 22.6475 18.9472 22.8945C18.5853 23.0754 18.1655 23.1512 17.7999 23.1874C17.4168 23.2252 17.0018 23.2274 16.5989 23.2118C15.7925 23.1806 14.9521 23.0748 14.3586 22.99C13.8118 22.9119 13.4319 22.4053 13.5101 21.8586C13.5882 21.3119 14.0947 20.932 14.6414 21.0101C15.2146 21.092 15.9741 21.1861 16.6761 21.2133C17.0274 21.2269 17.3436 21.2227 17.6032 21.1971C17.8804 21.1697 18.0147 21.1246 18.0528 21.1056C18.5468 20.8586 19.1474 21.0588 19.3944 21.5528Z" fill="#333333"/>
<path fill-rule="evenodd" clip-rule="evenodd" d="M18.2481 14.3407C18.6123 13.9255 19.2441 13.884 19.6593 14.2482L19 15C19.6593 14.2482 19.66 14.2487 19.6606 14.2493L19.662 14.2505L19.6647 14.2529L19.6703 14.258L19.6824 14.269C19.6909 14.2768 19.7 14.2855 19.7097 14.2951C19.7293 14.3143 19.7514 14.337 19.7756 14.3637C19.8242 14.417 19.8812 14.4857 19.9435 14.572C20.0684 14.7449 20.213 14.9862 20.3551 15.314C20.6389 15.969 20.9092 16.962 20.9982 18.44C21.0314 18.9912 20.6114 19.465 20.0601 19.4982C19.5088 19.5314 19.035 19.1114 19.0018 18.5601C18.9241 17.2689 18.6944 16.5118 18.5199 16.1092C18.4328 15.9081 18.3587 15.7936 18.3221 15.743C18.3124 15.7295 18.3052 15.7203 18.3009 15.715C17.9231 15.3464 17.896 14.7423 18.2481 14.3407Z" fill="#333333"/>
<path fill-rule="evenodd" clip-rule="evenodd" d="M10.0513 6.6838C10.226 6.15986 10.7923 5.8767 11.3162 6.05134C12.432 6.42327 14.9857 7.69914 16.3575 9.98553C16.6416 10.4591 16.4881 11.0734 16.0145 11.3575C15.5409 11.6417 14.9267 11.4881 14.6425 11.0145C13.6143 9.30092 11.568 8.24345 10.6838 7.94871C10.1598 7.77406 9.87667 7.20774 10.0513 6.6838Z" fill="#333333"/>
<path fill-rule="evenodd" clip-rule="evenodd" d="M14.2809 8.87533C14.6259 9.30659 14.556 9.93589 14.1247 10.2809C13.0433 11.146 10.7159 12 7 12C6.44772 12 6 11.5523 6 11C6 10.4477 6.44772 10 7 10C10.4841 10 12.29 9.18738 12.8753 8.71916C13.3066 8.37415 13.9359 8.44407 14.2809 8.87533Z" fill="#333333"/>
<path fill-rule="evenodd" clip-rule="evenodd" d="M10.7071 25.2929C11.0976 25.6834 11.0976 26.3166 10.7071 26.7071C10.4875 26.9267 10.2971 27.3133 10.1667 27.8059C10.0405 28.2827 10 28.7462 10 29H8C8 28.5872 8.05949 27.9507 8.23329 27.2941C8.40288 26.6535 8.71248 25.8733 9.29289 25.2929C9.68342 24.9024 10.3166 24.9024 10.7071 25.2929Z" fill="#333333"/>
<path fill-rule="evenodd" clip-rule="evenodd" d="M5.29289 26.2929C5.68342 25.9024 6.31658 25.9024 6.70711 26.2929C7.31406 26.8999 7.7459 27.6308 8.01943 28.1778C8.15902 28.457 8.26393 28.7016 8.33473 28.8786C8.37023 28.9674 8.39742 29.0398 8.41636 29.0919C8.42583 29.1179 8.43326 29.1389 8.43864 29.1544L8.44518 29.1734L8.44731 29.1797L8.44809 29.182L8.44841 29.183C8.44848 29.1832 8.44868 29.1838 7.5 29.5C6.55132 29.8163 6.55138 29.8164 6.55143 29.8166L6.55189 29.818L6.54964 29.8115C6.54721 29.8045 6.54292 29.7923 6.53677 29.7754C6.52445 29.7415 6.50477 29.6889 6.47777 29.6214C6.42357 29.4859 6.34098 29.2931 6.23057 29.0722C6.0041 28.6193 5.68594 28.1002 5.29289 27.7071C4.90237 27.3166 4.90237 26.6834 5.29289 26.2929Z" fill="#333333"/>
<path fill-rule="evenodd" clip-rule="evenodd" d="M33.8714 10.0716C34.3842 10.2767 34.6336 10.8586 34.4285 11.3714C33.8168 12.9005 32.4909 14.0402 31.4415 14.7616C30.9008 15.1334 30.3959 15.4193 30.0258 15.6128C29.8401 15.7099 29.6867 15.7845 29.5777 15.8357C29.5232 15.8614 29.4796 15.8812 29.4485 15.8951L29.4113 15.9116L29.4001 15.9165L29.3964 15.9181L29.395 15.9187C29.3947 15.9188 29.3939 15.9192 29 15" fill="#333333"/>
</svg>
