<svg width="48" height="48" viewBox="0 0 48 48" fill="none" xmlns="http://www.w3.org/2000/svg">
<path fill-rule="evenodd" clip-rule="evenodd" d="M16.4906 12.1332C16.9695 12.4083 17.1348 13.0195 16.8597 13.4984C16.7595 13.6729 16.591 14.029 16.4648 14.4533C16.3364 14.8851 16.2759 15.3078 16.3175 15.6472C16.3417 15.8436 16.3897 15.9481 16.4317 16.0173C16.4845 16.1044 16.5524 16.1801 16.7047 16.3385C16.7101 16.3441 16.7157 16.3499 16.7214 16.3559C16.8588 16.4986 17.0694 16.7173 17.2461 17.0088C17.441 17.3302 17.5779 17.7069 17.6351 18.1721C17.7234 18.8915 17.5885 19.6122 17.4198 20.1796C17.2488 20.7545 17.0186 21.2534 16.8421 21.5606C16.5671 22.0396 15.9558 22.2048 15.4769 21.9298C14.998 21.6547 14.8327 21.0435 15.1078 20.5646C15.208 20.3901 15.3765 20.034 15.5027 19.6096C15.6311 19.1779 15.6916 18.7551 15.65 18.4158C15.6258 18.2193 15.5778 18.1149 15.5358 18.0457C15.483 17.9585 15.4151 17.8829 15.2628 17.7245C15.2574 17.7188 15.2518 17.713 15.2461 17.7071C15.1087 17.5644 14.8981 17.3457 14.7214 17.0542C14.5265 16.7327 14.3896 16.3561 14.3324 15.8909C14.2441 15.1715 14.379 14.4508 14.5477 13.8833C14.7187 13.3085 14.9489 12.8096 15.1254 12.5023C15.4004 12.0234 16.0117 11.8582 16.4906 12.1332Z" fill="#333333"/>
<path fill-rule="evenodd" clip-rule="evenodd" d="M24.4906 12.133C24.9695 12.4081 25.1348 13.0193 24.8597 13.4982C24.7595 13.6727 24.591 14.0288 24.4648 14.4531C24.3364 14.8849 24.2759 15.3076 24.3175 15.647C24.3417 15.8434 24.3897 15.9479 24.4317 16.0171C24.4845 16.1042 24.5524 16.1799 24.7047 16.3383C24.7101 16.3439 24.7157 16.3497 24.7214 16.3557C24.8588 16.4984 25.0694 16.7171 25.2461 17.0086C25.441 17.33 25.5779 17.7067 25.6351 18.1719C25.7234 18.8913 25.5885 19.612 25.4198 20.1794C25.2488 20.7543 25.0186 21.2532 24.8421 21.5604C24.5671 22.0394 23.9558 22.2046 23.4769 21.9296C22.998 21.6545 22.8327 21.0433 23.1078 20.5644C23.208 20.3899 23.3765 20.0338 23.5027 19.6094C23.6311 19.1777 23.6916 18.7549 23.65 18.4156C23.6258 18.2191 23.5778 18.1147 23.5358 18.0455C23.483 17.9583 23.4151 17.8827 23.2628 17.7243C23.2574 17.7186 23.2518 17.7128 23.2461 17.7069C23.1087 17.5642 22.8981 17.3455 22.7214 17.054C22.5265 16.7325 22.3896 16.3559 22.3324 15.8907C22.2441 15.1713 22.379 14.4506 22.5477 13.8831C22.7187 13.3083 22.9489 12.8094 23.1254 12.5021C23.4004 12.0232 24.0117 11.858 24.4906 12.133Z" fill="#333333"/>
<path fill-rule="evenodd" clip-rule="evenodd" d="M32.4906 12.1332C32.9695 12.4083 33.1348 13.0195 32.8597 13.4984C32.7595 13.6729 32.591 14.029 32.4648 14.4533C32.3364 14.8851 32.2759 15.3078 32.3175 15.6472C32.3417 15.8436 32.3897 15.9481 32.4317 16.0173C32.4845 16.1044 32.5524 16.1801 32.7047 16.3385C32.7101 16.3441 32.7157 16.3499 32.7214 16.3559C32.8588 16.4986 33.0694 16.7173 33.2461 17.0088C33.441 17.3302 33.5779 17.7069 33.6351 18.1721C33.7234 18.8915 33.5885 19.6122 33.4198 20.1796C33.2488 20.7545 33.0186 21.2534 32.8421 21.5606C32.5671 22.0396 31.9558 22.2048 31.4769 21.9298C30.998 21.6547 30.8327 21.0435 31.1078 20.5646C31.208 20.3901 31.3765 20.034 31.5027 19.6096C31.6311 19.1779 31.6916 18.7551 31.65 18.4158C31.6258 18.2193 31.5778 18.1149 31.5358 18.0457C31.483 17.9585 31.4151 17.8829 31.2628 17.7245C31.2574 17.7188 31.2518 17.713 31.2461 17.7071C31.1087 17.5644 30.8981 17.3457 30.7214 17.0542C30.5265 16.7327 30.3896 16.3561 30.3324 15.8909C30.2441 15.1715 30.379 14.4508 30.5477 13.8833C30.7187 13.3085 30.9489 12.8096 31.1254 12.5023C31.4004 12.0234 32.0117 11.8582 32.4906 12.1332Z" fill="#333333"/>
<path d="M5 26.03C4.44772 26.03 4 26.4777 4 27.03C4 27.5823 4.44772 28.03 5 28.03H8C8 32.4483 11.5817 36.03 16 36.03H32C36.4183 36.03 40 32.4483 40 28.03H43C43.5523 28.03 44 27.5823 44 27.03C44 26.4777 43.5523 26.03 43 26.03H5Z" fill="#333333"/>
</svg>
