<svg width="48" height="48" viewBox="0 0 48 48" fill="none" xmlns="http://www.w3.org/2000/svg">
<path fill-rule="evenodd" clip-rule="evenodd" d="M40.8607 19.5134L37.1832 11.5456C37.4542 11.2998 37.6712 11.0004 37.8204 10.6664C37.9697 10.3323 38.048 9.97092 38.0503 9.60505C38.048 9.01126 37.8437 8.43592 37.471 7.97366C37.0983 7.5114 36.5794 7.18974 35.9996 7.06161C35.4198 6.93348 34.8137 7.00649 34.2809 7.26865C33.7481 7.5308 33.3204 7.96648 33.0681 8.50402L14.2818 13.2797C13.8184 12.8811 13.2277 12.6614 12.6165 12.6604C12.0862 12.6568 11.5675 12.8154 11.1298 13.1149C10.6922 13.4144 10.3566 13.8405 10.1679 14.3361C9.97925 14.8317 9.94658 15.3732 10.0743 15.8879C10.202 16.4026 10.4839 16.866 10.8824 17.2159L7.18816 25.2178L5.11983 25.2178C5.11983 29.3599 8.4777 32.7178 12.6198 32.7178C16.762 32.7178 20.1198 29.3599 20.1198 25.2178L18.0505 25.2178L14.3506 17.1746C14.7554 16.8117 15.0348 16.3299 15.1489 15.7983L21.934 14.078V35.2177H21.7963L12.6303 38.0667C12.3371 38.1595 12.0808 38.3425 11.8979 38.5897C11.715 38.8368 11.6149 39.1355 11.6118 39.4429V39.5393C11.5999 39.7328 11.629 39.9266 11.6973 40.1081C11.7655 40.2895 11.8713 40.4545 12.0077 40.5923C12.1441 40.73 12.3081 40.8374 12.4889 40.9073C12.6698 40.9772 12.8633 41.0082 13.0569 40.9981H34.9261C35.1185 41.008 35.3108 40.9774 35.4906 40.9083C35.6704 40.8392 35.8337 40.7331 35.9699 40.5969C36.1061 40.4606 36.2122 40.2974 36.2813 40.1175C36.3505 39.9377 36.3811 39.7454 36.3712 39.553V39.4429C36.3691 39.1372 36.271 38.8398 36.0907 38.5929C35.9104 38.3459 35.6571 38.1618 35.3665 38.0667L26.2142 35.2177H26.0628V13.1972L33.3847 11.2566L33.6599 11.5456L29.9814 19.5135C29.2717 19.5135 28.4628 19.5135 27.5256 19.5134C27.5256 23.6556 30.8834 27.0134 35.0256 27.0134C39.1677 27.0134 42.5256 23.6556 42.5256 19.5134C41.921 19.5134 41.3685 19.5134 40.8607 19.5134ZM38.651 19.5134L35.4904 12.7017L32.2888 19.5135C33.8087 19.5135 34.7706 19.5135 35.9822 19.5135C36.7189 19.5135 37.548 19.5135 38.651 19.5134ZM13.5678 25.2178L15.7442 25.2178L12.6165 18.372L9.45891 25.2179L13.5678 25.2178Z" fill="#333333"/>
</svg>
