<svg width="48" height="48" viewBox="0 0 48 48" fill="none" xmlns="http://www.w3.org/2000/svg">
<path d="M20.2974 4.69719C19.9069 4.30667 19.2737 4.30667 18.8832 4.69719C18.4927 5.08771 18.4927 5.72088 18.8832 6.1114L22.4738 9.702L18.9837 13.1921C18.5932 13.5826 18.5932 14.2158 18.9837 14.6063C19.3743 14.9968 20.0074 14.9968 20.3979 14.6063L23.888 11.1162L27.3685 14.5967C27.759 14.9872 28.3922 14.9872 28.7827 14.5967C29.1732 14.2062 29.1732 13.573 28.7827 13.1825L25.3022 9.702L28.8832 6.12102C29.2737 5.73049 29.2737 5.09733 28.8832 4.7068C28.4927 4.31628 27.8595 4.31628 27.469 4.7068L23.888 8.28778L20.2974 4.69719Z" fill="#333333"/>
<path fill-rule="evenodd" clip-rule="evenodd" d="M24.4923 15.0513C24.2871 14.9829 24.0652 14.9829 23.86 15.0513L9.04466 19.9889C8.81554 20.0652 8.62826 20.2191 8.50799 20.4154L4.57688 25.4612C4.37733 25.7173 4.31456 26.0544 4.40853 26.3652C4.46805 26.5621 4.58577 26.7329 4.74236 26.8577L20.186 32.0093L23.3863 27.8871C23.5755 27.6434 23.8667 27.5007 24.1753 27.5004C24.4839 27.5001 24.7754 27.6424 24.965 27.8858L28.1827 32.0159L43.5821 26.887C43.7579 26.7602 43.8902 26.5779 43.9545 26.3652C44.0485 26.0544 43.9857 25.7173 43.7861 25.4612L39.783 20.323C39.6499 20.1521 39.4691 20.0336 39.2705 19.9765L24.4923 15.0513ZM24.1802 24.8197L35.8287 20.9376L24.1762 17.0541L12.5277 20.9362L24.1802 24.8197Z" fill="#333333"/>
<path d="M29.747 37.6771C29.4724 37.7801 29.2305 38.0469 29.2067 38.2729C29.183 38.4989 29.3864 38.5986 29.6611 38.4956C29.9358 38.3926 30.1777 38.1258 30.2014 37.8998C30.2252 37.6738 30.0217 37.5741 29.747 37.6771Z" fill="#333333"/>
<path d="M30.4475 37.8313C30.4594 37.7183 30.5803 37.5849 30.7176 37.5334C30.855 37.4819 30.9567 37.5318 30.9448 37.6448C30.933 37.7578 30.812 37.8912 30.6747 37.9427C30.5373 37.9942 30.4356 37.9443 30.4475 37.8313Z" fill="#333333"/>
<path fill-rule="evenodd" clip-rule="evenodd" d="M36.5618 35.4855C36.5144 35.9376 36.1309 36.4334 35.7054 36.5931L31.9921 38.0144C31.5665 38.174 31.26 37.937 31.3074 37.485C31.3549 37.0329 31.7383 36.5371 32.1639 36.3774L35.8772 34.9561C36.3028 34.7965 36.6093 35.0335 36.5618 35.4855ZM32.1032 36.9561L35.8164 35.5348C35.9411 35.488 36.0309 35.5574 36.017 35.6899C36.0031 35.8223 35.8908 35.9676 35.7661 36.0144L32.0528 37.4357C31.9281 37.4825 31.8383 37.4131 31.8522 37.2806C31.8661 37.1482 31.9785 37.0029 32.1032 36.9561Z" fill="#333333"/>
<path fill-rule="evenodd" clip-rule="evenodd" d="M28.1442 34.1368L39.991 30.1911L39.9905 36.7628C39.9905 38.054 39.1642 39.2003 37.9392 39.6086L25.1762 43.863V31.4111L27.0393 33.8026C27.2997 34.1368 27.7423 34.2706 28.1442 34.1368ZM37.4328 35.1585C37.5277 34.2544 36.9147 33.7803 36.0636 34.0995L30.0488 36.3842C29.1977 36.7034 28.4307 37.6951 28.3358 38.5992C28.2409 39.5033 28.854 39.9774 29.7051 39.6581L35.7199 37.3735C36.571 37.0542 37.3379 36.0625 37.4328 35.1585Z" fill="#333333"/>
<path d="M23.1762 43.863V31.4191L21.3314 33.7953C21.0712 34.1305 20.6277 34.2649 20.2251 34.1306L8.36132 30.1732L8.36175 36.7628C8.36183 38.054 9.18811 39.2003 10.4131 39.6086L23.1762 43.863Z" fill="#333333"/>
</svg>
