<svg width="48" height="49" viewBox="0 0 48 49" fill="none" xmlns="http://www.w3.org/2000/svg">
<g clip-path="url(#clip0)">
<path fill-rule="evenodd" clip-rule="evenodd" d="M9.69277 22.4942C10.8729 24.0213 14.3197 23.3349 17.3914 20.9611C20.4632 18.5873 21.9966 15.425 20.8165 13.8979C19.6363 12.3708 16.1895 13.0572 13.1178 15.431C10.0461 17.8047 8.51263 20.9671 9.69277 22.4942ZM19.0033 16.252C19.5556 16.252 20.0033 15.8043 20.0033 15.252C20.0033 14.6998 19.5556 14.252 19.0033 14.252C18.451 14.252 18.0033 14.6998 18.0033 15.252C18.0033 15.8043 18.451 16.252 19.0033 16.252ZM17.023 15.1378C17.023 15.4139 16.7991 15.6378 16.523 15.6378C16.2468 15.6378 16.023 15.4139 16.023 15.1378C16.023 14.8616 16.2468 14.6378 16.523 14.6378C16.7991 14.6378 17.023 14.8616 17.023 15.1378ZM18.0908 18.1583C18.3669 18.1583 18.5908 17.9345 18.5908 17.6583C18.5908 17.3822 18.3669 17.1583 18.0908 17.1583C17.8147 17.1583 17.5908 17.3822 17.5908 17.6583C17.5908 17.9345 17.8147 18.1583 18.0908 18.1583Z" fill="#333333"/>
<path fill-rule="evenodd" clip-rule="evenodd" d="M31.387 28.0355C34.6736 30.02 36.5382 32.9532 35.5516 34.5872C34.565 36.2211 31.1009 35.937 27.8143 33.9525C24.5277 31.9681 22.6632 29.0348 23.6498 27.4009C24.6363 25.7669 28.1004 26.0511 31.387 28.0355ZM26.5577 28.6986C26.5577 29.2509 26.11 29.6986 25.5577 29.6986C25.0054 29.6986 24.5577 29.2509 24.5577 28.6986C24.5577 28.1464 25.0054 27.6986 25.5577 27.6986C26.11 27.6986 26.5577 28.1464 26.5577 28.6986ZM28.424 29.0572C28.6743 29.0572 28.8771 28.8544 28.8771 28.6041C28.8771 28.3539 28.6743 28.151 28.424 28.151C28.1738 28.151 27.9709 28.3539 27.9709 28.6041C27.9709 28.8544 28.1738 29.0572 28.424 29.0572Z" fill="#333333"/>
<path fill-rule="evenodd" clip-rule="evenodd" d="M32.2184 24.0407C33.9676 23.2225 34.0513 19.707 32.4055 16.1887C30.7597 12.6704 28.0075 10.4815 26.2584 11.2997C24.5092 12.1179 24.4255 15.6334 26.0713 19.1517C27.7171 22.6701 30.4693 24.8589 32.2184 24.0407ZM28.0926 13.6609C28.0926 14.2132 27.6449 14.6609 27.0926 14.6609C26.5403 14.6609 26.0926 14.2132 26.0926 13.6609C26.0926 13.1086 26.5403 12.6609 27.0926 12.6609C27.6449 12.6609 28.0926 13.1086 28.0926 13.6609ZM29.7926 16.0609C30.1792 16.0609 30.4926 15.7475 30.4926 15.3609C30.4926 14.9743 30.1792 14.6609 29.7926 14.6609C29.406 14.6609 29.0926 14.9743 29.0926 15.3609C29.0926 15.7475 29.406 16.0609 29.7926 16.0609Z" fill="#333333"/>
<path fill-rule="evenodd" clip-rule="evenodd" d="M20.5677 31.1184C22.3518 34.6675 22.3678 38.2637 20.6033 39.1506C18.8389 40.0376 15.9622 37.8795 14.1781 34.3305C12.394 30.7814 12.3781 27.1853 14.1425 26.2983C15.907 25.4113 18.7836 27.5694 20.5677 31.1184ZM16.0586 30.1475C16.0586 30.6998 15.6109 31.1475 15.0586 31.1475C14.5063 31.1475 14.0586 30.6998 14.0586 30.1475C14.0586 29.5953 14.5063 29.1475 15.0586 29.1475C15.6109 29.1475 16.0586 29.5953 16.0586 30.1475ZM15.2344 28.3884C15.4847 28.3884 15.6875 28.1855 15.6875 27.9353C15.6875 27.685 15.4847 27.4821 15.2344 27.4821C14.9842 27.4821 14.7813 27.685 14.7813 27.9353C14.7813 28.1855 14.9842 28.3884 15.2344 28.3884ZM18.4318 29.9622C18.4318 30.3488 18.1184 30.6622 17.7318 30.6622C17.3452 30.6622 17.0318 30.3488 17.0318 29.9622C17.0318 29.5756 17.3452 29.2622 17.7318 29.2622C18.1184 29.2622 18.4318 29.5756 18.4318 29.9622Z" fill="#333333"/>
<path fill-rule="evenodd" clip-rule="evenodd" d="M48 0.5H0V48.5H48V0.5ZM24 44.5C35.0457 44.5 44 35.5457 44 24.5C44 13.4543 35.0457 4.5 24 4.5C12.9543 4.5 4 13.4543 4 24.5C4 35.5457 12.9543 44.5 24 44.5Z" fill="#333333"/>
</g>
<defs>
<clipPath id="clip0">
<rect width="48" height="48" fill="white" transform="translate(0 0.5)"/>
</clipPath>
</defs>
</svg>
