<svg width="48" height="48" viewBox="0 0 48 48" fill="none" xmlns="http://www.w3.org/2000/svg">
<g clip-path="url(#clip0)">
<path d="M40 22.1533C41.1046 22.1533 42 23.0488 42 24.1533C42 25.2579 41.1046 26.1533 40 26.1533C38.8954 26.1533 38 25.2579 38 24.1533C38 23.0488 38.8954 22.1533 40 22.1533Z" fill="#333333"/>
<path d="M36 23.2744C36.5523 23.2744 37 23.7221 37 24.2744C37 24.8267 36.5523 25.2744 36 25.2744C35.4477 25.2744 35 24.8267 35 24.2744C35 23.7221 35.4477 23.2744 36 23.2744Z" fill="#333333"/>
<path fill-rule="evenodd" clip-rule="evenodd" d="M29.5524 22.1533L10 22.1533C8.89543 22.1533 8 23.0488 8 24.1533C8 25.2579 8.89543 26.1533 10 26.1533L29.5524 26.1533C30.6569 26.1533 31.5524 25.2579 31.5524 24.1533C31.5524 23.0488 30.6569 22.1533 29.5524 22.1533ZM6 24.1533C6 26.3625 7.79086 28.1533 10 28.1533L29.5524 28.1533C31.7615 28.1533 33.5524 26.3625 33.5524 24.1533C33.5524 21.9442 31.7615 20.1533 29.5524 20.1533L10 20.1533C7.79086 20.1533 6 21.9442 6 24.1533Z" fill="#333333"/>
<path fill-rule="evenodd" clip-rule="evenodd" d="M28.6074 22.1533L28.6074 26.1533L26.6074 26.1533L26.6074 22.1533L28.6074 22.1533Z" fill="#333333"/>
<path fill-rule="evenodd" clip-rule="evenodd" d="M13.0296 22.1533L13.0296 26.1533L11.0296 26.1533L11.0296 22.1533L13.0296 22.1533Z" fill="#333333"/>
<path fill-rule="evenodd" clip-rule="evenodd" d="M0 0.000976562H48V48.001H0V0.000976562ZM2.49759 18.1514C2.49759 17.0468 3.39302 16.1514 4.49759 16.1514H43.5024C44.607 16.1514 45.5024 17.0468 45.5024 18.1514V30.1514C45.5024 31.2559 44.607 32.1514 43.5024 32.1514H4.49759C3.39302 32.1514 2.49759 31.2559 2.49759 30.1514V18.1514ZM12.2524 14.0703C11.6539 14.5928 10.9509 14.9063 9.88691 14.9063C7.92991 14.9063 6.47641 13.3958 6.47641 11.4863V11.4673C6.47641 9.57682 7.90141 8.02832 9.94391 8.02832C10.9414 8.02832 11.6159 8.29432 12.1669 8.70282C12.3189 8.81682 12.4519 9.02582 12.4519 9.28232C12.4519 9.68132 12.1289 9.99482 11.7299 9.99482C11.5304 9.99482 11.3974 9.91882 11.2929 9.85232C10.8844 9.54832 10.4569 9.37732 9.93441 9.37732C8.81341 9.37732 8.00591 10.3083 8.00591 11.4483V11.4673C8.00591 12.6073 8.79441 13.5573 9.93441 13.5573C10.5519 13.5573 10.9604 13.3673 11.3784 13.0348C11.4924 12.9398 11.6444 12.8733 11.8154 12.8733C12.1859 12.8733 12.4994 13.1773 12.4994 13.5478C12.4994 13.7758 12.3854 13.9563 12.2524 14.0703ZM33.632 14.1246C33.632 14.5236 33.955 14.8466 34.354 14.8466C34.753 14.8466 35.076 14.5236 35.076 14.1246V10.9326H35.684C36.0165 10.9326 36.2825 10.6761 36.2825 10.3436C36.2825 10.0111 36.0165 9.75459 35.684 9.75459H35.057V9.55509C35.057 9.17509 35.247 9.00409 35.5795 9.00409H35.703C36.026 9.00409 36.292 8.72859 36.292 8.40559C36.292 8.08259 36.045 7.86409 35.798 7.82609C35.6365 7.79759 35.437 7.78809 35.209 7.78809C34.696 7.78809 34.3065 7.92109 34.0405 8.18709C33.7745 8.45309 33.632 8.86159 33.632 9.42209V9.74509H33.575C33.2425 9.74509 32.9765 10.0111 32.9765 10.3436C32.9765 10.6761 33.2425 10.9326 33.575 10.9326H33.632V14.1246ZM27.3371 14.1151C27.3371 14.5236 27.6601 14.8466 28.0686 14.8466C28.4771 14.8466 28.8001 14.5236 28.8001 14.1151V12.7946H29.9116C31.4031 12.7946 32.6001 11.9966 32.6001 10.4576V10.4386C32.6001 9.08009 31.6406 8.13959 30.0541 8.13959H28.0686C27.6601 8.13959 27.3371 8.46259 27.3371 8.87109V14.1151ZM28.8001 11.4931V9.46009H29.9306C30.6621 9.46009 31.1181 9.81159 31.1181 10.4671V10.4861C31.1181 11.0561 30.6906 11.4931 29.9591 11.4931H28.8001ZM15.1184 40.1631C14.7099 40.1631 14.3869 39.8401 14.3869 39.4316V34.1876C14.3869 33.7791 14.7099 33.4561 15.1184 33.4561H17.1039C18.6904 33.4561 19.6499 34.3966 19.6499 35.7551V35.7741C19.6499 37.3131 18.4529 38.1111 16.9614 38.1111H15.8499V39.4316C15.8499 39.8401 15.5269 40.1631 15.1184 40.1631ZM15.8499 34.7766V36.8096H17.0089C17.7404 36.8096 18.1679 36.3726 18.1679 35.8026V35.7836C18.1679 35.1281 17.7119 34.7766 16.9804 34.7766H15.8499ZM24.9484 35.9831L23.3904 39.5836C23.2289 39.9541 22.9629 40.2106 22.5734 40.2106H22.4974C22.1079 40.2106 21.8419 39.9636 21.6804 39.5836L20.1224 35.9831C20.0844 35.8881 20.0464 35.7646 20.0464 35.6316C20.0464 35.2896 20.3599 34.9571 20.7494 34.9571C21.1389 34.9571 21.3479 35.1756 21.4524 35.4701L22.5449 38.4246L23.6564 35.4511C23.7514 35.2041 23.9509 34.9571 24.3309 34.9571C24.7109 34.9571 25.0244 35.2516 25.0244 35.6411C25.0244 35.7646 24.9769 35.9166 24.9484 35.9831Z" fill="#333333"/>
</g>
<defs>
<clipPath id="clip0">
<rect width="48" height="48" fill="white"/>
</clipPath>
</defs>
</svg>
