<svg width="48" height="49" viewBox="0 0 48 49" fill="none" xmlns="http://www.w3.org/2000/svg">
<g clip-path="url(#clip0)">
<circle cx="40" cy="24.6538" r="2" transform="rotate(-90 40 24.6538)" fill="#333333"/>
<circle cx="36" cy="24.7749" r="1" transform="rotate(-90 36 24.7749)" fill="#333333"/>
<rect x="7" y="27.6538" width="6" height="25.5524" rx="3" transform="rotate(-90 7 27.6538)" stroke="#333333" stroke-width="2"/>
<path d="M27.6074 26.6538L27.6074 22.6538" stroke="#333333" stroke-width="2"/>
<path d="M19.8037 26.6538L19.8037 22.6538" stroke="#333333" stroke-width="2"/>
<path d="M12.0296 26.6538L12.0296 22.6538" stroke="#333333" stroke-width="2"/>
<path fill-rule="evenodd" clip-rule="evenodd" d="M0 0.5H48V48.5H0V0.5ZM2.49759 18.6523C2.49759 17.5478 3.39302 16.6523 4.49759 16.6523H43.5024C44.607 16.6523 45.5024 17.5478 45.5024 18.6523V30.6523C45.5024 31.7569 44.607 32.6523 43.5024 32.6523H4.49759C3.39302 32.6523 2.49759 31.7569 2.49759 30.6523V18.6523ZM12.2524 14.5693C11.6539 15.0918 10.9509 15.4053 9.88691 15.4053C7.92991 15.4053 6.47641 13.8948 6.47641 11.9853V11.9663C6.47641 10.0758 7.90141 8.52734 9.94391 8.52734C10.9414 8.52734 11.6159 8.79334 12.1669 9.20184C12.3189 9.31584 12.4519 9.52484 12.4519 9.78134C12.4519 10.1803 12.1289 10.4938 11.7299 10.4938C11.5304 10.4938 11.3974 10.4178 11.2929 10.3513C10.8844 10.0473 10.4569 9.87634 9.93441 9.87634C8.81341 9.87634 8.00591 10.8073 8.00591 11.9473V11.9663C8.00591 13.1063 8.79441 14.0563 9.93441 14.0563C10.5519 14.0563 10.9604 13.8663 11.3784 13.5338C11.4924 13.4388 11.6444 13.3723 11.8154 13.3723C12.1859 13.3723 12.4994 13.6763 12.4994 14.0468C12.4994 14.2748 12.3854 14.4553 12.2524 14.5693ZM33.632 14.6236C33.632 15.0226 33.955 15.3456 34.354 15.3456C34.753 15.3456 35.076 15.0226 35.076 14.6236V11.4316H35.684C36.0165 11.4316 36.2825 11.1751 36.2825 10.8426C36.2825 10.5101 36.0165 10.2536 35.684 10.2536H35.057V10.0541C35.057 9.67411 35.247 9.50311 35.5795 9.50311H35.703C36.026 9.50311 36.292 9.22761 36.292 8.90461C36.292 8.58161 36.045 8.36311 35.798 8.32511C35.6365 8.29661 35.437 8.28711 35.209 8.28711C34.696 8.28711 34.3065 8.42011 34.0405 8.68611C33.7745 8.95211 33.632 9.36061 33.632 9.92111V10.2441H33.575C33.2425 10.2441 32.9765 10.5101 32.9765 10.8426C32.9765 11.1751 33.2425 11.4316 33.575 11.4316H33.632V14.6236ZM27.3371 14.6141C27.3371 15.0226 27.6601 15.3456 28.0686 15.3456C28.4771 15.3456 28.8001 15.0226 28.8001 14.6141V13.2936H29.9116C31.4031 13.2936 32.6001 12.4956 32.6001 10.9566V10.9376C32.6001 9.57911 31.6406 8.63861 30.0541 8.63861H28.0686C27.6601 8.63861 27.3371 8.96161 27.3371 9.37011V14.6141ZM28.8001 11.9921V9.95911H29.9306C30.6621 9.95911 31.1181 10.3106 31.1181 10.9661V10.9851C31.1181 11.5551 30.6906 11.9921 29.9591 11.9921H28.8001ZM15.1184 40.664C14.7099 40.664 14.3869 40.341 14.3869 39.9325V34.6885C14.3869 34.28 14.7099 33.957 15.1184 33.957H17.1039C18.6904 33.957 19.6499 34.8975 19.6499 36.256V36.275C19.6499 37.814 18.4529 38.612 16.9614 38.612H15.8499V39.9325C15.8499 40.341 15.5269 40.664 15.1184 40.664ZM15.8499 35.2775V37.3105H17.0089C17.7404 37.3105 18.1679 36.8735 18.1679 36.3035V36.2845C18.1679 35.629 17.7119 35.2775 16.9804 35.2775H15.8499ZM24.9484 36.484L23.3904 40.0845C23.2289 40.455 22.9629 40.7115 22.5734 40.7115H22.4974C22.1079 40.7115 21.8419 40.4645 21.6804 40.0845L20.1224 36.484C20.0844 36.389 20.0464 36.2655 20.0464 36.1325C20.0464 35.7905 20.3599 35.458 20.7494 35.458C21.1389 35.458 21.3479 35.6765 21.4524 35.971L22.5449 38.9255L23.6564 35.952C23.7514 35.705 23.9509 35.458 24.3309 35.458C24.7109 35.458 25.0244 35.7525 25.0244 36.142C25.0244 36.2655 24.9769 36.4175 24.9484 36.484Z" fill="#333333"/>
</g>
<defs>
<clipPath id="clip0">
<rect width="48" height="48" fill="white" transform="translate(0 0.5)"/>
</clipPath>
</defs>
</svg>
