<svg width="48" height="49" viewBox="0 0 48 49" fill="none" xmlns="http://www.w3.org/2000/svg">
<g clip-path="url(#clip0)">
<path d="M40 22.6533C41.1046 22.6533 42 23.5488 42 24.6533C42 25.7579 41.1046 26.6533 40 26.6533C38.8954 26.6533 38 25.7579 38 24.6533C38 23.5488 38.8954 22.6533 40 22.6533Z" fill="#333333"/>
<path d="M36 23.7744C36.5523 23.7744 37 24.2221 37 24.7744C37 25.3267 36.5523 25.7744 36 25.7744C35.4477 25.7744 35 25.3267 35 24.7744C35 24.2221 35.4477 23.7744 36 23.7744Z" fill="#333333"/>
<path fill-rule="evenodd" clip-rule="evenodd" d="M29.5524 22.6533L10 22.6533C8.89543 22.6533 8 23.5488 8 24.6533C8 25.7579 8.89543 26.6533 10 26.6533L29.5524 26.6533C30.6569 26.6533 31.5524 25.7579 31.5524 24.6533C31.5524 23.5488 30.6569 22.6533 29.5524 22.6533ZM6 24.6533C6 26.8625 7.79086 28.6533 10 28.6533L29.5524 28.6533C31.7615 28.6533 33.5524 26.8625 33.5524 24.6533C33.5524 22.4442 31.7615 20.6533 29.5524 20.6533L10 20.6533C7.79086 20.6533 6 22.4442 6 24.6533Z" fill="#333333"/>
<path fill-rule="evenodd" clip-rule="evenodd" d="M20.8037 22.6533L20.8037 26.6533L18.8037 26.6533L18.8037 22.6533L20.8037 22.6533Z" fill="#333333"/>
<path fill-rule="evenodd" clip-rule="evenodd" d="M0 0.500977H48V48.501H0V0.500977ZM2.49759 18.6514C2.49759 17.5468 3.39302 16.6514 4.49759 16.6514H43.5024C44.607 16.6514 45.5024 17.5468 45.5024 18.6514V30.6514C45.5024 31.7559 44.607 32.6514 43.5024 32.6514H4.49759C3.39302 32.6514 2.49759 31.7559 2.49759 30.6514V18.6514ZM12.2524 14.5703C11.6539 15.0928 10.9509 15.4063 9.88691 15.4063C7.92991 15.4063 6.47641 13.8958 6.47641 11.9863V11.9673C6.47641 10.0768 7.90141 8.52832 9.94391 8.52832C10.9414 8.52832 11.6159 8.79432 12.1669 9.20282C12.3189 9.31682 12.4519 9.52582 12.4519 9.78232C12.4519 10.1813 12.1289 10.4948 11.7299 10.4948C11.5304 10.4948 11.3974 10.4188 11.2929 10.3523C10.8844 10.0483 10.4569 9.87732 9.93441 9.87732C8.81341 9.87732 8.00591 10.8083 8.00591 11.9483V11.9673C8.00591 13.1073 8.79441 14.0573 9.93441 14.0573C10.5519 14.0573 10.9604 13.8673 11.3784 13.5348C11.4924 13.4398 11.6444 13.3733 11.8154 13.3733C12.1859 13.3733 12.4994 13.6773 12.4994 14.0478C12.4994 14.2758 12.3854 14.4563 12.2524 14.5703ZM33.632 14.6246C33.632 15.0236 33.955 15.3466 34.354 15.3466C34.753 15.3466 35.076 15.0236 35.076 14.6246V11.4326H35.684C36.0165 11.4326 36.2825 11.1761 36.2825 10.8436C36.2825 10.5111 36.0165 10.2546 35.684 10.2546H35.057V10.0551C35.057 9.67509 35.247 9.50409 35.5795 9.50409H35.703C36.026 9.50409 36.292 9.22859 36.292 8.90559C36.292 8.58259 36.045 8.36409 35.798 8.32609C35.6365 8.29759 35.437 8.28809 35.209 8.28809C34.696 8.28809 34.3065 8.42109 34.0405 8.68709C33.7745 8.95309 33.632 9.36159 33.632 9.92209V10.2451H33.575C33.2425 10.2451 32.9765 10.5111 32.9765 10.8436C32.9765 11.1761 33.2425 11.4326 33.575 11.4326H33.632V14.6246ZM27.3371 14.6151C27.3371 15.0236 27.6601 15.3466 28.0686 15.3466C28.4771 15.3466 28.8001 15.0236 28.8001 14.6151V13.2946H29.9116C31.4031 13.2946 32.6001 12.4966 32.6001 10.9576V10.9386C32.6001 9.58009 31.6406 8.63959 30.0541 8.63959H28.0686C27.6601 8.63959 27.3371 8.96259 27.3371 9.37109V14.6151ZM28.8001 11.9931V9.96009H29.9306C30.6621 9.96009 31.1181 10.3116 31.1181 10.9671V10.9861C31.1181 11.5561 30.6906 11.9931 29.9591 11.9931H28.8001ZM15.1184 40.6631C14.7099 40.6631 14.3869 40.3401 14.3869 39.9316V34.6876C14.3869 34.2791 14.7099 33.9561 15.1184 33.9561H17.1039C18.6904 33.9561 19.6499 34.8966 19.6499 36.2551V36.2741C19.6499 37.8131 18.4529 38.6111 16.9614 38.6111H15.8499V39.9316C15.8499 40.3401 15.5269 40.6631 15.1184 40.6631ZM15.8499 35.2766V37.3096H17.0089C17.7404 37.3096 18.1679 36.8726 18.1679 36.3026V36.2836C18.1679 35.6281 17.7119 35.2766 16.9804 35.2766H15.8499ZM24.9484 36.4831L23.3904 40.0836C23.2289 40.4541 22.9629 40.7106 22.5734 40.7106H22.4974C22.1079 40.7106 21.8419 40.4636 21.6804 40.0836L20.1224 36.4831C20.0844 36.3881 20.0464 36.2646 20.0464 36.1316C20.0464 35.7896 20.3599 35.4571 20.7494 35.4571C21.1389 35.4571 21.3479 35.6756 21.4524 35.9701L22.5449 38.9246L23.6564 35.9511C23.7514 35.7041 23.9509 35.4571 24.3309 35.4571C24.7109 35.4571 25.0244 35.7516 25.0244 36.1411C25.0244 36.2646 24.9769 36.4166 24.9484 36.4831Z" fill="#333333"/>
</g>
<defs>
<clipPath id="clip0">
<rect width="48" height="48" fill="white" transform="translate(0 0.5)"/>
</clipPath>
</defs>
</svg>
