<svg width="48" height="48" viewBox="0 0 48 48" fill="none" xmlns="http://www.w3.org/2000/svg">
<path d="M40 26.1538C39.4888 26.1538 39.0224 25.962 38.6688 25.6465C38.2865 25.3053 38.0361 24.8194 38.0036 24.2749C38.0012 24.2348 38 24.1945 38 24.1538C38 23.604 38.2218 23.1061 38.5809 22.7445C38.9432 22.3797 39.4452 22.1538 40 22.1538C41.1046 22.1538 42 23.0492 42 24.1538C42 25.2584 41.1046 26.1538 40 26.1538Z" fill="#333333"/>
<path d="M37 24.2749C37 24.7742 36.6341 25.188 36.1557 25.2628C36.065 24.9478 36.012 24.6167 36.0018 24.2749C36.0006 24.2347 36 24.1943 36 24.1538C36 23.8535 36.0331 23.5609 36.0959 23.2794C36.5632 23.3239 36.9368 23.6899 36.9927 24.1538C36.9975 24.1935 37 24.2339 37 24.2749Z" fill="#333333"/>
<path fill-rule="evenodd" clip-rule="evenodd" d="M29.5524 20.1538C31.3153 20.1538 32.8119 21.2943 33.3445 22.8777C33.4793 23.2785 33.5524 23.7076 33.5524 24.1538C33.5524 24.1943 33.5518 24.2347 33.5506 24.2749C33.537 24.7303 33.4474 25.1666 33.2939 25.5715C32.7217 27.0809 31.2623 28.1538 29.5524 28.1538H10C7.79086 28.1538 6 26.3629 6 24.1538C6 21.9447 7.79086 20.1538 10 20.1538H29.5524ZM10 26.1538C8.89543 26.1538 8 25.2584 8 24.1538C8 23.0492 8.89543 22.1538 10 22.1538H29.5524C30.6569 22.1538 31.5524 23.0492 31.5524 24.1538C31.5524 25.2584 30.6569 26.1538 29.5524 26.1538H10Z" fill="#333333"/>
<path d="M35 24.2749C35 24.6342 35.1895 24.9493 35.4741 25.1256C35.5193 24.848 35.5455 24.5639 35.5512 24.2749C35.552 24.2346 35.5524 24.1943 35.5524 24.1538C35.5524 23.9003 35.5367 23.6504 35.5061 23.4052C35.2371 23.5583 35.046 23.8326 35.0073 24.1538C35.0025 24.1935 35 24.2339 35 24.2749Z" fill="#333333"/>
<path d="M28.8001 9.45911V11.4921H29.9591C30.6906 11.4921 31.1181 11.0551 31.1181 10.4851V10.4661C31.1181 9.81061 30.6621 9.45911 29.9306 9.45911H28.8001Z" fill="#333333"/>
<path d="M15.8499 36.8105V34.7775H16.9804C17.7119 34.7775 18.1679 35.129 18.1679 35.7845V35.8035C18.1679 36.3735 17.7404 36.8105 17.0089 36.8105H15.8499Z" fill="#333333"/>
<path fill-rule="evenodd" clip-rule="evenodd" d="M48 0H0V48H48V0ZM4.49759 16.1523C3.39302 16.1523 2.49759 17.0478 2.49759 18.1523V30.1523C2.49759 31.2569 3.39302 32.1523 4.49759 32.1523H43.5024C44.607 32.1523 45.5024 31.2569 45.5024 30.1523V18.1523C45.5024 17.0478 44.607 16.1523 43.5024 16.1523H4.49759ZM9.88691 14.9053C10.9509 14.9053 11.6539 14.5918 12.2524 14.0693C12.3854 13.9553 12.4994 13.7748 12.4994 13.5468C12.4994 13.1763 12.1859 12.8723 11.8154 12.8723C11.6444 12.8723 11.4924 12.9388 11.3784 13.0338C10.9604 13.3663 10.5519 13.5563 9.93441 13.5563C8.79441 13.5563 8.00591 12.6063 8.00591 11.4663V11.4473C8.00591 10.3073 8.81341 9.37634 9.93441 9.37634C10.4569 9.37634 10.8844 9.54734 11.2929 9.85134C11.3974 9.91784 11.5304 9.99384 11.7299 9.99384C12.1289 9.99384 12.4519 9.68034 12.4519 9.28134C12.4519 9.02484 12.3189 8.81584 12.1669 8.70184C11.6159 8.29334 10.9414 8.02734 9.94391 8.02734C7.90141 8.02734 6.47641 9.57584 6.47641 11.4663V11.4853C6.47641 13.3948 7.92991 14.9053 9.88691 14.9053ZM34.354 14.8456C33.955 14.8456 33.632 14.5226 33.632 14.1236V10.9316H33.575C33.2425 10.9316 32.9765 10.6751 32.9765 10.3426C32.9765 10.0101 33.2425 9.74411 33.575 9.74411H33.632V9.42111C33.632 8.86061 33.7745 8.45211 34.0405 8.18611C34.3065 7.92011 34.696 7.78711 35.209 7.78711C35.437 7.78711 35.6365 7.79661 35.798 7.82511C36.045 7.86311 36.292 8.08161 36.292 8.40461C36.292 8.72761 36.026 9.00311 35.703 9.00311H35.5795C35.247 9.00311 35.057 9.17411 35.057 9.55411V9.75361H35.684C36.0165 9.75361 36.2825 10.0101 36.2825 10.3426C36.2825 10.6751 36.0165 10.9316 35.684 10.9316H35.076V14.1236C35.076 14.5226 34.753 14.8456 34.354 14.8456ZM28.0686 14.8456C27.6601 14.8456 27.3371 14.5226 27.3371 14.1141V8.87011C27.3371 8.46161 27.6601 8.13861 28.0686 8.13861H30.0541C31.6406 8.13861 32.6001 9.07911 32.6001 10.4376V10.4566C32.6001 11.9956 31.4031 12.7936 29.9116 12.7936H28.8001V14.1141C28.8001 14.5226 28.4771 14.8456 28.0686 14.8456ZM14.3869 39.4325C14.3869 39.841 14.7099 40.164 15.1184 40.164C15.5269 40.164 15.8499 39.841 15.8499 39.4325V38.112H16.9614C18.4529 38.112 19.6499 37.314 19.6499 35.775V35.756C19.6499 34.3975 18.6904 33.457 17.1039 33.457H15.1184C14.7099 33.457 14.3869 33.78 14.3869 34.1885V39.4325ZM23.3904 39.5845L24.9484 35.984C24.9769 35.9175 25.0244 35.7655 25.0244 35.642C25.0244 35.2525 24.7109 34.958 24.3309 34.958C23.9509 34.958 23.7514 35.205 23.6564 35.452L22.5449 38.4255L21.4524 35.471C21.3479 35.1765 21.1389 34.958 20.7494 34.958C20.3599 34.958 20.0464 35.2905 20.0464 35.6325C20.0464 35.7655 20.0844 35.889 20.1224 35.984L21.6804 39.5845C21.8419 39.9645 22.1079 40.2115 22.4974 40.2115H22.5734C22.9629 40.2115 23.2289 39.955 23.3904 39.5845Z" fill="#333333"/>
</svg>
