<svg width="48" height="48" viewBox="0 0 48 48" fill="none" xmlns="http://www.w3.org/2000/svg">
<path fill-rule="evenodd" clip-rule="evenodd" d="M48 0H0V48H48V0ZM39.2383 8C39.2383 8 28.2841 10.9382 26.2357 13.2804C24.7076 15.0277 26.2472 18.6031 27.1278 20.3065C26.1624 21.8267 25.3221 23.5519 24.8767 25.3955C24.7438 25.9457 25.118 26.5647 25.7125 26.778C26.307 26.9913 26.8968 26.718 27.0297 26.1677C27.4153 24.5718 28.153 23.042 29.0255 21.6604C31.013 22.1954 34.5785 22.9157 35.7376 21.5903C37.3763 19.7165 39.2383 8 39.2383 8ZM9 28H13.8889V29.4414C15.1054 29.0141 16.8625 28.3879 17.3726 28.1598C18.1765 27.8002 20.1417 28.1598 20.1417 28.1598L25.8586 29.4183C25.8586 29.4183 27.2878 29.8677 28.6277 29.8677C29.9676 29.8677 29.1666 31.6667 28.2704 32.2948C27.3742 32.9229 26.7222 32.8889 26.7222 32.8889L22.1069 32.8341C22.1069 32.8341 26.1266 33.5532 27.6451 33.6431C28.4144 33.6886 29.7338 33.1575 31.2085 32.5638C32.645 31.9856 34.2288 31.3479 35.5952 31.1262C38.3643 30.6767 38.8109 33.1038 37.9177 34.0027C37.0244 34.9016 29.8783 38.3174 28.6277 38.7669C27.6484 39.1188 26.4637 39.002 25.127 38.8702L25.1269 38.8702C24.7568 38.8337 24.375 38.796 23.9828 38.7669C22.4218 38.6508 21.2288 38.2787 20.048 37.9104C18.7823 37.5156 17.5304 37.1252 15.8541 37.0589C15.5036 37.0451 14.6799 37.0664 13.8889 37.0936V39H9V28ZM22.3407 16.4475C20.8205 14.6908 12.6904 12.4872 12.6904 12.4872C12.6904 12.4872 14.0724 21.2746 15.2886 22.6799C16.1483 23.6733 18.7914 23.1345 20.2671 22.7333C20.9254 23.8494 21.4876 25.0348 21.8547 26.2448C22.0157 26.7753 22.572 27.073 23.0974 26.9096C23.6227 26.7462 23.9181 26.1837 23.7571 25.6532C23.3066 24.1683 22.6113 22.7436 21.818 21.4375C22.4772 20.0807 23.3976 17.6688 22.3407 16.4475Z" fill="#333333"/>
<path d="M34.6883 12.6441C34.6883 12.6441 32.6515 14.0749 29.1149 19.1523" stroke="#333333" stroke-width="1.5" stroke-linecap="round" stroke-linejoin="round"/>
<path d="M16.8861 17.1006C16.8861 17.1006 17.9869 17.8819 19.8981 20.6548" stroke="#333333" stroke-width="1.5" stroke-linecap="round" stroke-linejoin="round"/>
</svg>
