<svg width="48" height="48" viewBox="0 0 48 48" fill="none" xmlns="http://www.w3.org/2000/svg">
<path fill-rule="evenodd" clip-rule="evenodd" d="M0 0H48V48H0V0ZM24 25C28.9725 25 33 20.9725 33 16C33 11.0275 28.9725 7 24 7C19.0275 7 15 11.0275 15 16C15 20.9725 19.0275 25 24 25ZM18.1254 28.7927C17.8971 28.3283 17.3814 28.0775 16.8786 28.2001C11.4745 29.5184 6 32.2063 6 36.25V43H42V36.25C42 32.2063 36.5255 29.5184 31.1214 28.2001C30.6186 28.0775 30.1029 28.3283 29.8746 28.7927L25.8105 39.065L25.2149 32.0711C25.173 31.7195 25.4371 31.4379 25.6875 31.1876C26.25 30.6251 26.25 28.3752 25.6875 27.8126C25.5073 27.6323 25.1537 27.683 24.7379 27.7428C24.505 27.7763 24.2524 27.8125 24 27.8125C23.7476 27.8125 23.4953 27.7763 23.2624 27.7429L23.262 27.7429L23.2616 27.7428C22.846 27.6831 22.4927 27.6324 22.3125 27.8126C21.75 28.3751 21.75 30.6251 22.3125 31.1876C22.5612 31.4363 22.8276 31.7097 22.786 32.0589L22.1893 39.0646L18.1254 28.7927Z" fill="#333333"/>
</svg>
