<svg width="48" height="48" viewBox="0 0 48 48" fill="none" xmlns="http://www.w3.org/2000/svg">
<path fill-rule="evenodd" clip-rule="evenodd" d="M48 0H0V48H48V0ZM21 13L20 17L17 18L20 19L21 23L22 19L25 18L22 17L21 13ZM30 12.5L32.5 4L35 12.5L40 15L35 17.5L32.5 25L30 17.5L25 15L30 12.5ZM6 26H12V27.769C13.4929 27.2446 15.6495 26.4761 16.2755 26.1961C17.2621 25.7548 19.6739 26.1961 19.6739 26.1961L26.6901 27.7406C26.6901 27.7406 28.4442 28.2922 30.0886 28.2922C31.733 28.2922 30.75 30.5 29.6501 31.2709C28.5502 32.0417 27.75 32 27.75 32L22.0857 31.9328C22.0857 31.9328 27.019 32.8153 28.8827 32.9256C29.8268 32.9815 31.446 32.3297 33.2559 31.6011C35.0188 30.8914 36.9627 30.1089 38.6396 29.8367C42.038 29.2851 42.5862 32.2637 41.4899 33.3669C40.3936 34.4701 31.6234 38.6623 30.0886 39.2139C28.8866 39.6459 27.4327 39.5025 25.7923 39.3407C25.3382 39.2959 24.8692 39.2497 24.3879 39.2139C22.4722 39.0715 21.0081 38.6148 19.5589 38.1628C18.0055 37.6783 16.4692 37.1991 14.4118 37.1178C13.9816 37.1008 12.9708 37.127 12 37.1604V39.5H6V26Z" fill="#333333"/>
</svg>
