<svg width="48" height="48" viewBox="0 0 48 48" fill="none" xmlns="http://www.w3.org/2000/svg">
<path d="M19.5106 16.4483C19.3291 16.6067 19.1987 16.8154 19.136 17.0481H19.2C19.1138 17.3493 19.1472 17.6722 19.2932 17.9495C19.4393 18.2267 19.6867 18.4368 19.984 18.5361C20.2161 18.6007 20.4621 18.5949 20.6909 18.5194C20.9197 18.4439 21.121 18.3022 21.2691 18.1122C21.4172 17.9222 21.5055 17.6925 21.5229 17.4522C21.5402 17.2119 21.4858 16.9718 21.3665 16.7625C21.2472 16.5532 21.0685 16.384 20.8529 16.2765C20.6373 16.1689 20.3946 16.1278 20.1556 16.1584C19.9167 16.189 19.6922 16.2899 19.5106 16.4483Z" fill="#333333"/>
<path d="M15.7186 19.2003C15.5371 19.3587 15.4067 19.5674 15.344 19.8001C15.2605 20.1098 15.3027 20.44 15.4616 20.7187C15.6204 20.9974 15.8829 21.202 16.192 21.2881C16.4241 21.3527 16.6701 21.3469 16.8989 21.2714C17.1277 21.1959 17.329 21.0542 17.4771 20.8642C17.6252 20.6742 17.7135 20.4445 17.7309 20.2042C17.7482 19.9639 17.6938 19.7238 17.5745 19.5145C17.4552 19.3052 17.2765 19.136 17.0609 19.0285C16.8453 18.9209 16.6026 18.8798 16.3636 18.9104C16.1247 18.941 15.9002 19.0419 15.7186 19.2003Z" fill="#333333"/>
<path d="M24.3572 40.8568C24.4603 40.7927 24.5463 40.7046 24.608 40.6001C25.376 39.4321 25.6 35.6881 24.672 32.5521C23.824 29.7041 21.232 26.9041 19.44 26.9041C19.3134 26.8977 19.1871 26.9204 19.0706 26.9703C18.9542 27.0202 18.8507 27.0961 18.768 27.1921C18.3954 27.6032 18.4148 28.3858 18.437 29.2748C18.4424 29.4928 18.448 29.7172 18.448 29.9441V30.5841C18.352 30.5041 18.352 30.792 18.352 31.16C18.281 31.1156 18.2165 31.0618 18.16 31.0001C17.2868 29.6008 16.8936 27.9549 17.04 26.3121V24.4241C17.0535 24.3315 17.0484 24.2371 17.025 24.1466C17.0016 24.056 16.9604 23.971 16.9038 23.8965C16.8472 23.822 16.7763 23.7595 16.6953 23.7128C16.6143 23.666 16.5248 23.6358 16.432 23.6241H16.272C16.2189 23.6159 16.165 23.6159 16.112 23.6241C15.9232 23.6518 15.7531 23.7532 15.6391 23.9062C15.5251 24.0592 15.4765 24.2512 15.504 24.4401C15.584 24.7761 15.584 25.2561 15.584 25.8321V26.3601C15.6962 27.9936 15.2812 29.62 14.4 31.0001L14.32 31.2241C14.32 30.8401 14.224 30.5521 14.224 30.6321V29.9921C14.2263 29.9496 14.2287 29.9072 14.2311 29.8649C14.2931 28.7606 14.3509 27.7332 13.904 27.2401C13.8198 27.1458 13.716 27.0712 13.5999 27.0215C13.4838 26.9717 13.3582 26.948 13.232 26.9521C11.44 26.9521 8.84797 29.7521 7.99997 32.6001C7.02397 35.8001 7.21597 39.4801 7.99997 40.6001C8.05583 40.698 8.1344 40.7811 8.22907 40.8424C8.32374 40.9036 8.43173 40.9412 8.54397 40.9521C8.84577 40.941 9.13196 40.8151 9.34397 40.6001L9.66397 40.2161C10.1652 39.8895 10.702 39.6211 11.264 39.4161C11.3023 39.3991 11.3405 39.3822 11.3786 39.3654C12.456 38.8897 13.456 38.4481 13.456 37.3201V35.7681C13.4951 35.2663 13.5754 34.7687 13.696 34.2801C13.8165 33.8124 13.902 33.3364 13.952 32.8561C14.4463 32.724 14.8948 32.4583 15.248 32.0881C15.642 31.6713 15.9516 31.1824 16.16 30.6481C16.3683 31.1824 16.678 31.6713 17.072 32.0881C17.4285 32.4622 17.8832 32.7283 18.384 32.8561C18.4352 33.3351 18.5153 33.8107 18.624 34.2801C18.7482 34.7686 18.8338 35.2661 18.88 35.7681C18.8996 36.1038 18.8996 36.4403 18.88 36.7761V37.3201C18.88 38.4831 19.943 38.9323 21.0736 39.41L21.088 39.4161C21.6504 39.62 22.1873 39.8885 22.688 40.2161L23.216 40.6001C23.3169 40.713 23.4401 40.804 23.5777 40.8673C23.7153 40.9306 23.8645 40.9649 24.016 40.9681C24.137 40.959 24.2541 40.9209 24.3572 40.8568Z" fill="#333333"/>
<path fill-rule="evenodd" clip-rule="evenodd" d="M48 0H0V48H48V0ZM28.1455 19.2943C27.9209 19.5218 27.6157 19.6518 27.296 19.656C26.9747 19.6519 26.6679 19.5224 26.4407 19.2953C26.2135 19.0681 26.0841 18.7612 26.08 18.44C26.1141 18.1436 26.2561 17.8701 26.4788 17.6715C26.7016 17.473 26.9896 17.3633 27.288 17.3633C27.5863 17.3633 27.8743 17.473 28.0971 17.6715C28.3198 17.8701 28.4618 18.1436 28.496 18.44C28.496 18.7598 28.3701 19.0667 28.1455 19.2943ZM33.0719 16.312C32.7522 16.3162 32.447 16.4462 32.2224 16.6738C31.9978 16.9014 31.8719 17.2083 31.8719 17.528C31.8719 17.8463 31.9984 18.1515 32.2234 18.3765C32.4485 18.6016 32.7537 18.728 33.0719 18.728C33.3917 18.728 33.6986 18.6021 33.9262 18.3775C34.1538 18.1529 34.2837 17.8477 34.2879 17.528C34.2838 17.2068 34.1544 16.8999 33.9272 16.6728C33.7001 16.4456 33.3932 16.3162 33.0719 16.312ZM39.8196 12.9768C39.6696 13.0428 39.5078 13.0779 39.344 13.0798V13.0158C39.1737 13.0354 39.0011 13.0188 38.8377 12.9671C38.6742 12.9153 38.5236 12.8296 38.3956 12.7155C38.2676 12.6015 38.1652 12.4616 38.0951 12.3052C38.025 12.1487 37.9887 11.9792 37.9887 11.8078C37.9887 11.6364 38.025 11.4669 38.0951 11.3104C38.1652 11.154 38.2676 11.0141 38.3956 10.9001C38.5236 10.786 38.6742 10.7003 38.8377 10.6485C39.0011 10.5968 39.1737 10.5802 39.344 10.5998C39.5021 10.5976 39.6592 10.6272 39.8057 10.6868C39.9523 10.7463 40.0854 10.8346 40.1973 10.9465C40.3092 11.0583 40.3975 11.1915 40.457 11.338C40.5165 11.4846 40.5461 11.6416 40.544 11.7998C40.5526 11.9634 40.5281 12.1272 40.4718 12.2811C40.4156 12.435 40.3289 12.576 40.2168 12.6956C40.1047 12.8151 39.9696 12.9108 39.8196 12.9768ZM40.096 16.7598C40.0991 16.5187 40.0305 16.282 39.8988 16.08C39.7672 15.8779 39.5784 15.7195 39.3565 15.6251C39.1346 15.5306 38.8896 15.5042 38.6527 15.5493C38.4158 15.5944 38.1976 15.7089 38.0259 15.8783C37.8543 16.0477 37.7369 16.2643 37.6886 16.5007C37.6404 16.737 37.6635 16.9823 37.7551 17.2054C37.8466 17.4285 38.0024 17.6194 38.2028 17.7537C38.4031 17.8881 38.6388 17.9598 38.88 17.9598C39.1997 17.9599 39.5066 17.8339 39.7342 17.6093C39.9618 17.3848 40.0918 17.0796 40.096 16.7598ZM43.608 8.36684C43.8327 8.29062 44.0749 8.28271 44.304 8.34409C44.4564 8.38492 44.5993 8.4554 44.7244 8.55152C44.8496 8.64763 44.9545 8.76748 45.0333 8.90421C45.1121 9.04094 45.1631 9.19185 45.1835 9.34833C45.2038 9.5048 45.1931 9.66375 45.152 9.81609C45.0902 10.0451 44.9618 10.2507 44.7832 10.4068C44.6045 10.5629 44.3837 10.6626 44.1484 10.6932C43.9132 10.7238 43.6741 10.684 43.4615 10.5788C43.2488 10.4736 43.0721 10.3078 42.9537 10.1022C42.8353 9.89667 42.7805 9.66062 42.7961 9.42391C42.8118 9.18719 42.8973 8.96044 43.0418 8.77229C43.1863 8.58415 43.3833 8.44305 43.608 8.36684ZM31.2479 20.2162C31.0956 20.1728 30.9361 20.1604 30.7789 20.1798C30.6217 20.1992 30.4699 20.2499 30.3327 20.329C30.1954 20.408 30.0754 20.5138 29.9798 20.6401C29.8842 20.7664 29.8148 20.9106 29.7759 21.0642C29.7348 21.2165 29.7241 21.3755 29.7445 21.5319C29.7648 21.6884 29.8159 21.8393 29.8946 21.976C29.9734 22.1128 30.0784 22.2326 30.2035 22.3287C30.3287 22.4249 30.4715 22.4953 30.6239 22.5362C30.9337 22.6197 31.2639 22.5774 31.5426 22.4186C31.8213 22.2597 32.0259 21.9972 32.1119 21.6882C32.1528 21.5348 32.1628 21.3748 32.1414 21.2175C32.1201 21.0602 32.0677 20.9087 31.9873 20.7718C31.9069 20.6348 31.8002 20.5152 31.6733 20.4199C31.5464 20.3245 31.4018 20.2553 31.2479 20.2162ZM36.2042 20.4246C36.3607 20.4042 36.5196 20.4149 36.672 20.4561C36.8244 20.4969 36.9673 20.5674 37.0924 20.6635C37.2176 20.7596 37.3225 20.8794 37.4013 21.0162C37.4801 21.1529 37.5311 21.3038 37.5514 21.4603C37.5718 21.6168 37.5611 21.7757 37.52 21.9281C37.4372 22.2357 37.2357 22.4979 36.9596 22.6569C36.6836 22.8159 36.3556 22.8588 36.048 22.7761C35.7403 22.6933 35.4781 22.4917 35.3191 22.2157C35.1601 21.9396 35.1172 21.6117 35.2 21.3041C35.2408 21.1516 35.3113 21.0088 35.4074 20.8836C35.5035 20.7585 35.6234 20.6535 35.7601 20.5748C35.8968 20.496 36.0477 20.445 36.2042 20.4246ZM43.872 18.5841C43.6399 18.5195 43.3938 18.5253 43.165 18.6007C42.9362 18.6762 42.735 18.8179 42.5869 19.0079C42.4387 19.198 42.3504 19.4277 42.3331 19.668C42.3157 19.9083 42.3701 20.1483 42.4894 20.3576C42.6087 20.5669 42.7875 20.7361 43.0031 20.8437C43.2187 20.9512 43.4613 20.9923 43.7003 20.9617C43.9393 20.9311 44.1638 20.8302 44.3453 20.6718C44.5269 20.5134 44.6573 20.3047 44.72 20.0721C44.7635 19.9187 44.7761 19.7582 44.7569 19.5999C44.7377 19.4416 44.6871 19.2887 44.6082 19.1502C44.5292 19.0116 44.4235 18.8902 44.2971 18.793C44.1707 18.6958 44.0261 18.6248 43.872 18.5841ZM39.7772 24.0802C39.9386 23.8022 40.2023 23.5983 40.512 23.5121C40.8216 23.4339 41.1496 23.4807 41.425 23.6424C41.7005 23.8041 41.9012 24.0676 41.984 24.3761C42.0251 24.5284 42.0358 24.6873 42.0154 24.8438C41.9951 25.0003 41.944 25.1512 41.8653 25.2879C41.7865 25.4247 41.6815 25.5445 41.5564 25.6406C41.4313 25.7367 41.2884 25.8072 41.136 25.8481C40.8262 25.9316 40.4961 25.8893 40.2174 25.7305C39.9387 25.5716 39.734 25.3091 39.648 25.0001C39.5694 24.6883 39.6158 24.3582 39.7772 24.0802ZM29.5679 15.8962C29.8476 15.7881 30.0776 15.5805 30.2135 15.3132C30.3494 15.0459 30.3818 14.7378 30.3044 14.4481C30.2271 14.1584 30.0453 13.9075 29.7942 13.7436C29.5431 13.5797 29.2403 13.5144 28.9439 13.5602C28.6355 13.6429 28.3719 13.8437 28.2103 14.1191C28.0486 14.3945 28.0018 14.7225 28.0799 15.0322C28.1189 15.1878 28.1887 15.334 28.2851 15.4622C28.3815 15.5904 28.5027 15.6979 28.6414 15.7785C28.7802 15.859 28.9336 15.9109 29.0928 15.9311C29.2519 15.9514 29.4135 15.9395 29.5679 15.8962ZM35.0798 11.5933C35.3578 11.7548 35.5617 12.0185 35.648 12.3281C35.7261 12.6378 35.6793 12.9658 35.5177 13.2412C35.356 13.5166 35.0925 13.7174 34.784 13.8001C34.6317 13.8413 34.4727 13.852 34.3162 13.8316C34.1598 13.8112 34.0089 13.7602 33.8721 13.6814C33.7354 13.6027 33.6155 13.4977 33.5194 13.3726C33.4233 13.2474 33.3528 13.1046 33.312 12.9521C33.2285 12.6424 33.2708 12.3122 33.4296 12.0335C33.5884 11.7548 33.851 11.5502 34.16 11.4641C34.4717 11.3856 34.8018 11.4319 35.0798 11.5933ZM35.664 8.60006C35.9823 8.51731 36.2546 8.31152 36.4212 8.02797C36.5877 7.74441 36.6348 7.40632 36.552 7.08806C36.4693 6.7698 36.2635 6.49744 35.9799 6.33091C35.6964 6.16438 35.3583 6.11731 35.04 6.20006C34.7315 6.2828 34.468 6.48357 34.3063 6.759C34.1447 7.03442 34.0979 7.3624 34.176 7.67206C34.2077 7.83342 34.2722 7.98655 34.3655 8.12195C34.4588 8.25734 34.579 8.37211 34.7185 8.45913C34.858 8.54615 35.014 8.60356 35.1766 8.6278C35.3393 8.65205 35.5052 8.6426 35.664 8.60006ZM19.696 21.8481H23.072C24.0623 21.8687 25.0387 22.0856 25.9446 22.4863C26.8505 22.8869 27.6679 23.4633 28.3494 24.1821C29.031 24.9009 29.5632 25.7477 29.9152 26.6736C30.2671 27.5995 30.4319 28.586 30.4 29.5761V43.8001H2.27197V28.5361C2.31794 26.7435 3.06355 25.0401 4.3493 23.7903C5.63505 22.5404 7.35885 21.8433 9.15197 21.8481H12.096V16.9521C10.929 16.0412 10.0757 14.7884 9.65541 13.3689C9.23511 11.9494 9.26877 10.4341 9.7517 9.03465C10.2346 7.63521 11.1427 6.42161 12.349 5.56343C13.5553 4.70525 14.9996 4.24537 16.48 4.24806C18.0098 4.25988 19.4959 4.75977 20.7219 5.67493C21.9479 6.59009 22.8497 7.87273 23.296 9.33606C23.44 9.88006 23.6 11.4801 23.6 11.4801C23.856 12.168 24.128 12.84 24.4 13.512L24.784 14.4881C24.9273 14.7524 25.0247 15.0391 25.072 15.3361C25.0824 15.5332 25.0195 15.7273 24.8954 15.8809C24.7714 16.0344 24.5949 16.1367 24.4 16.1681C24.3869 16.1681 24.3464 16.1721 24.2902 16.1776C24.0717 16.1993 23.616 16.2444 23.616 16.1681V18.0081C23.6117 18.7521 23.3132 19.4643 22.7855 19.9889C22.2579 20.5136 21.5441 20.8081 20.8 20.8081H19.696V21.8481Z" fill="#333333"/>
</svg>
