<svg width="48" height="48" viewBox="0 0 48 48" fill="none" xmlns="http://www.w3.org/2000/svg">
<path fill-rule="evenodd" clip-rule="evenodd" d="M48 0H0V48H48V0ZM34.2505 13.6105C34.8671 14.2539 35.6608 14.6997 36.5311 14.8916C37.106 15.0203 37.7006 15.0346 38.281 14.9335C38.8614 14.8325 39.4162 14.6181 39.9137 14.3027C40.4112 13.9872 40.8416 13.5769 41.1804 13.0951C41.5192 12.6133 41.7598 12.0695 41.8883 11.4947C42.0856 10.6259 42.0205 9.71806 41.7011 8.88632C41.3817 8.05457 40.8224 7.33636 40.0942 6.82275C39.366 6.30914 38.5016 6.02326 37.6106 6.00136C36.7197 5.97946 35.8423 6.22252 35.0897 6.69972C34.3371 7.17693 33.7432 7.86679 33.3833 8.68184C33.0234 9.49688 32.9136 10.4004 33.068 11.2779C33.2224 12.1553 33.634 12.9672 34.2505 13.6105ZM17.0301 23.643C17.2054 22.7162 17.52 21.8218 17.9631 20.9904C17.9631 20.9904 21.5026 13.8074 25.1754 11.3783C26.4868 10.3384 28.1508 9.85688 29.8108 10.0371C30.2479 10.0391 30.6721 10.1863 31.0175 10.4557C31.363 10.7252 31.6104 11.1019 31.7213 11.5273V11.6614L33.1282 18.1738L39.7184 20.7072C40.1537 20.8757 40.5167 21.192 40.7447 21.6013C40.9727 22.0107 41.0514 22.4873 40.967 22.9488C40.8827 23.4104 40.6407 23.8277 40.2828 24.1286C39.925 24.4296 39.4739 24.5952 39.0076 24.5968C38.7645 24.5956 38.5237 24.5502 38.2967 24.4627L30.6698 21.4822C30.3533 21.3612 30.0729 21.1607 29.8551 20.8999C29.6374 20.639 29.4896 20.3265 29.4258 19.9919L29.0703 18.1887C28.4071 19.5188 27.6653 20.8077 26.8489 22.0485L34.4314 25.0289C34.9543 25.2578 35.3957 25.6412 35.6972 26.1282C35.9987 26.6152 36.146 27.1829 36.1197 27.7561L37.3933 39.0075C37.4546 39.3448 37.4475 39.6911 37.3726 40.0256C37.2976 40.3602 37.1564 40.676 36.9573 40.9543C36.7581 41.2326 36.5053 41.4676 36.2137 41.6452C35.9222 41.8228 35.5981 41.9394 35.2607 41.9879C34.5514 42.0551 33.8442 41.8399 33.2905 41.3887C32.7369 40.9374 32.3809 40.2859 32.2988 39.5738L31.2918 29.6785L19.3404 26.9812C18.6068 26.8227 17.9602 26.39 17.5314 25.7704C17.1025 25.1507 16.9234 24.3904 17.0301 23.643ZM14.718 35.5221C12.4003 36.0794 10.055 36.5156 7.69187 36.8289C4.48794 37.2084 6.5 38.6276 10.6569 38.6276C13.0597 38.6276 14.051 39.4774 15.0079 40.2977C15.7066 40.8966 16.3869 41.4798 17.5847 41.7051C20.4233 42.2391 26.6063 41.1149 24.3298 39.9767C23.1826 39.4031 23.3701 38.8259 23.5686 38.2146C23.7641 37.6128 23.9702 36.978 22.9246 36.2809C21.245 35.1612 19.1818 35.2816 16.6993 35.4266C16.0664 35.4635 15.4061 35.5021 14.718 35.5221ZM19.6435 29.0667C19.7187 29.1024 19.7862 29.1535 19.8418 29.2167C19.8973 29.28 19.9398 29.3542 19.9668 29.4349C19.9937 29.5155 20.0044 29.6009 19.9984 29.686C19.9923 29.771 19.9695 29.8539 19.9315 29.9296L18.2035 33.639C18.1498 33.7484 18.0674 33.8402 17.9656 33.9039C17.8638 33.9676 17.7467 34.0008 17.6276 33.9996C17.5319 34.0032 17.4369 33.981 17.3521 33.9352C17.278 33.8981 17.2118 33.8464 17.1572 33.7829C17.1026 33.7194 17.0607 33.6454 17.0339 33.5653C17.0072 33.4851 16.9961 33.4003 17.0012 33.3157C17.0064 33.2311 17.0278 33.1484 17.0641 33.0723L18.792 29.3629C18.8673 29.2081 18.9991 29.0901 19.1585 29.0346C19.3179 28.9792 19.4922 28.9907 19.6435 29.0667ZM17.7883 27.2082C17.7204 27.1427 17.6397 27.0908 17.5509 27.0557C17.4602 27.018 17.3624 26.9991 17.2637 27C17.165 27.001 17.0676 27.0219 16.9777 27.0614C16.8879 27.1008 16.8075 27.158 16.7419 27.2291C16.6762 27.3003 16.6267 27.384 16.5964 27.4747L14.0657 33.0623C14.0254 33.1464 14.0031 33.2375 14.0003 33.3301C13.9975 33.4227 14.0142 33.5149 14.0493 33.6011C14.0845 33.6873 14.1374 33.7657 14.2048 33.8316C14.2723 33.8974 14.3529 33.9494 14.4417 33.9843C14.5369 34.0052 14.6358 34.0052 14.7309 33.9843C14.8721 33.9848 15.0102 33.9453 15.1284 33.8709C15.2466 33.7964 15.3397 33.6901 15.3962 33.5652L17.9413 27.9776C17.9792 27.8924 17.9991 27.8008 18 27.7081C18.0008 27.6154 17.9825 27.5234 17.9462 27.4376C17.9098 27.3518 17.8562 27.2738 17.7883 27.2082Z" fill="#333333"/>
</svg>
