<svg width="48" height="48" viewBox="0 0 48 48" fill="none" xmlns="http://www.w3.org/2000/svg">
<path fill-rule="evenodd" clip-rule="evenodd" d="M0 0H48V48H0V0ZM15.6354 29.9375C15.4505 30.5613 15.4381 31.3074 15.7149 32.1985C15.8088 32.1896 15.9039 32.1851 16 32.1851C17.6569 32.1851 19 33.5382 19 35.2073C19 36.8764 17.6569 38.2295 16 38.2295C14.3431 38.2295 13 36.8764 13 35.2073C13 34.3657 13.3415 33.6044 13.8925 33.0564C13.4321 31.7408 13.3829 30.4996 13.7178 29.3692C13.7252 29.3442 13.7328 29.3193 13.7406 29.2945C9.54212 30.7966 6 33.1897 6 36.4664V42.9997H42V36.4664C42 33.2191 38.5212 30.8396 34.3723 29.3352C34.5763 29.9155 34.6923 30.5333 34.7142 31.1851H34.9412C35.1715 31.1851 35.3947 31.2645 35.5732 31.4101L37.632 33.0891C37.8649 33.279 38 33.5636 38 33.8641V38.2295C38 38.7818 37.5523 39.2295 37 39.2295H34.9412V37.2295H36V34.3389L34.5851 33.1851H34.5045C34.4953 33.2244 34.4858 33.2639 34.476 33.3035L33.9986 33.1851H32.4149L31 34.3389V37.2295H32.0588V39.2295H30C29.4477 39.2295 29 38.7818 29 38.2295V33.8641C29 33.5636 29.1351 33.279 29.368 33.0891L31.4268 31.4101C31.6053 31.2645 31.8285 31.1851 32.0588 31.1851H32.7126C32.6878 30.6727 32.5803 30.2144 32.4114 29.8041C32.2091 29.3129 31.9073 28.8627 31.5142 28.4558C31.3833 28.422 31.2523 28.389 31.1214 28.3569C30.6186 28.2333 30.1029 28.4861 29.8746 28.9539L25.8105 28.9539C24.9218 28.9541 24.4694 28.9541 24.0249 28.954H24.0219C23.5618 28.954 23.1093 28.954 22.1893 28.9542L18.1254 28.9539C17.8971 28.4861 17.3814 28.2333 16.8786 28.3569C16.7666 28.3844 16.6544 28.4125 16.5424 28.4413C16.0993 28.8976 15.7951 29.3987 15.6354 29.9375ZM17 35.2073C17 35.7858 16.5384 36.2295 16 36.2295C15.4616 36.2295 15 35.7858 15 35.2073C15 34.6288 15.4616 34.1851 16 34.1851C16.5384 34.1851 17 34.6288 17 35.2073ZM32.8086 19.9746C32.5622 20.4539 31.0281 13.992 31.0281 13.992C31.0281 13.992 26.0105 14.8022 20.0218 10.8137C16.8386 10.6268 15.274 19.7253 15.274 19.7253C15.274 19.7253 11.2815 13.0573 17.4321 8.07164C17.5108 8.04564 17.5595 7.81476 17.6311 7.47497C17.903 6.18493 18.5059 3.32491 22.3418 4.14553C22.7232 4.22713 23.1935 4.30338 23.724 4.38938C27.2459 4.96037 33.4203 5.96138 33.8337 11.8108C34.2234 17.3249 33.9094 17.9113 33.0902 19.4409C33.0021 19.6055 32.9081 19.7809 32.8086 19.9746Z" fill="#333333"/>
</svg>
