<svg width="48" height="48" viewBox="0 0 48 48" fill="none" xmlns="http://www.w3.org/2000/svg">
<path fill-rule="evenodd" clip-rule="evenodd" d="M48 0H0V48H48V0ZM19.2989 5C21.5534 5 23.398 6.76889 23.398 8.93087C23.398 11.0928 21.5534 12.8617 19.2989 12.8617C17.0443 12.8617 15.1997 11.0928 15.1997 8.93087C15.1997 6.76889 17.0443 5 19.2989 5ZM34 18.758H35.6953C36.8225 18.758 37.7449 17.8736 37.7449 16.7926C37.7449 15.7116 36.8225 15 35.6953 15H34V10C34 9.44772 33.5523 9 33 9C32.4477 9 32 9.44772 32 10V15H23V30H16V15H13.1501C12.0229 15 8.54199 16.7926 8.54199 20.6113C8.54199 25.6779 12.0229 27.7355 13.1501 27.7355V42.3432C13.1501 43.4242 14.0724 44.3087 15.1997 44.3087C16.3269 44.3087 17.2492 43.4242 17.2492 42.3432V32.5161H21.3484V42.3432C21.3484 43.4242 22.2707 44.3087 23.3979 44.3087C24.5252 44.3087 25.4475 43.4242 25.4475 42.3432V18.758H32V30C32 30.0334 32.0016 30.0665 32.0048 30.099C29.7202 30.5604 28 32.5793 28 35H38C38 32.5793 36.2798 30.5604 33.9952 30.099C33.9984 30.0665 34 30.0334 34 30V18.758ZM21 19V15H18V19H21Z" fill="#333333"/>
</svg>
