<svg width="48" height="48" viewBox="0 0 48 48" fill="none" xmlns="http://www.w3.org/2000/svg">
<path d="M13 19L17 21L13 23" stroke="#333333" stroke-width="2" stroke-linecap="round" stroke-linejoin="round"/>
<path d="M35 19L31 21L35 23" stroke="#333333" stroke-width="2" stroke-linecap="round" stroke-linejoin="round"/>
<ellipse cx="24.5" cy="31" rx="3.5" ry="4" fill="#333333"/>
<path d="M17 29C17.7546 29.8333 18.8111 32 17 34" stroke="#333333" stroke-width="2" stroke-linecap="round"/>
<path fill-rule="evenodd" clip-rule="evenodd" d="M0 0H48V48H0V0ZM33.4199 41.6472C30.6129 43.1487 27.4059 44 24 44C12.9543 44 4 35.0457 4 24C4 12.9543 12.9543 4 24 4C35.0457 4 44 12.9543 44 24C44 26.4626 43.5549 28.8213 42.7408 31H44C45.6569 31 47 32.3431 47 34C47 35.1295 46.3758 36.1132 45.4535 36.625C45.1901 36.7712 44.9993 37.0336 44.964 37.3329C44.9146 37.7533 45.1545 38.1979 45.5194 38.4127C46.4054 38.9341 47 39.8976 47 41C47 42.6569 45.6569 44 44 44C43.0592 44 42.2195 43.5669 41.6694 42.8892C41.5498 42.7418 41.3445 42.6893 41.1697 42.7634C40.9732 42.8467 40.8606 43.0686 40.912 43.2757C40.9695 43.5077 41 43.7503 41 44C41 45.6569 39.6569 47 38 47C37.0855 47 36.2681 46.5394 35.7191 45.848C34.9069 44.8252 34.2027 43.4936 33.7045 42.2863C33.6182 42.077 33.5223 41.8635 33.4199 41.6472Z" fill="#333333"/>
<path fill-rule="evenodd" clip-rule="evenodd" d="M33 33C33 33.5523 32.5523 34 32 34C31.4477 34 31 33.5523 31 33C31 32.4477 31.4477 32 32 32C32.5523 32 33 32.4477 33 33ZM44 35C44.5523 35 45 34.5523 45 34C45 33.4477 44.5523 33 44 33C43.4477 33 43 33.4477 43 34C43 34.5523 43.4477 35 44 35ZM42 38C42.5523 38 43 37.5523 43 37C43 36.4477 42.5523 36 42 36C41.4477 36 41 36.4477 41 37C41 37.5523 41.4477 38 42 38ZM41 40C41 40.5523 40.5523 41 40 41C39.4477 41 39 40.5523 39 40C39 39.4477 39.4477 39 40 39C40.5523 39 41 39.4477 41 40ZM39 44C39 44.5523 38.5523 45 38 45C37.4477 45 37 44.5523 37 44C37 43.4477 37.4477 43 38 43C38.5523 43 39 43.4477 39 44ZM45 41C45 41.5523 44.5523 42 44 42C43.4477 42 43 41.5523 43 41C43 40.4477 43.4477 40 44 40C44.5523 40 45 40.4477 45 41ZM34 38C34.5523 38 35 37.5523 35 37C35 36.4477 34.5523 36 34 36C33.4477 36 33 36.4477 33 37C33 37.5523 33.4477 38 34 38ZM37 33C37 33.5523 36.5523 34 36 34C35.4477 34 35 33.5523 35 33C35 32.4477 35.4477 32 36 32C36.5523 32 37 32.4477 37 33ZM40 35C40.5523 35 41 34.5523 41 34C41 33.4477 40.5523 33 40 33C39.4477 33 39 33.4477 39 34C39 34.5523 39.4477 35 40 35ZM39 37C39 37.5523 38.5523 38 38 38C37.4477 38 37 37.5523 37 37C37 36.4477 37.4477 36 38 36C38.5523 36 39 36.4477 39 37ZM36 42C36.5523 42 37 41.5523 37 41C37 40.4477 36.5523 40 36 40C35.4477 40 35 40.4477 35 41C35 41.5523 35.4477 42 36 42Z" fill="#333333"/>
</svg>
