<svg width="48" height="48" viewBox="0 0 48 48" fill="none" xmlns="http://www.w3.org/2000/svg">
<path fill-rule="evenodd" clip-rule="evenodd" d="M48 0H0V48H48V0ZM39 11V20.9996C37.7856 21.9118 37 23.3642 37 25C37 27.7614 39.2386 30 42 30C42.3864 30 42.7625 29.9562 43.1237 29.8732C40.6147 38.0528 33.0019 44 24 44C12.9543 44 4 35.0457 4 24C4 12.9543 12.9543 4 24 4C29.9735 4 35.3353 6.61877 39 10.7709V11ZM37.2929 5.29289C37.6834 4.90237 38.3166 4.90237 38.7071 5.29289L39.7071 6.29289C40.0976 6.68342 40.0976 7.31658 39.7071 7.70711C39.3166 8.09763 38.6834 8.09763 38.2929 7.70711L37.2929 6.70711C36.9024 6.31658 36.9024 5.68342 37.2929 5.29289ZM43 4C43 3.44772 42.5523 3 42 3C41.4477 3 41 3.44772 41 4V6C41 6.55228 41.4477 7 42 7C42.5523 7 43 6.55228 43 6V4ZM46.7071 5.29289C46.3166 4.90237 45.6834 4.90237 45.2929 5.29289L44.2929 6.29289C43.9024 6.68342 43.9024 7.31658 44.2929 7.70711C44.6834 8.09763 45.3166 8.09763 45.7071 7.70711L46.7071 6.70711C47.0976 6.31658 47.0976 5.68342 46.7071 5.29289ZM40.2012 22.5988L41 21.9987V20.9996V16H43V20.9996V21.9987L43.7988 22.5988C44.532 23.1495 45 24.0198 45 25C45 26.6569 43.6569 28 42 28C40.3431 28 39 26.6569 39 25C39 24.0198 39.468 23.1495 40.2012 22.5988ZM43 11V14H41V11C41 10.4477 41.4477 10 42 10C42.5523 10 43 10.4477 43 11Z" fill="#333333"/>
<path d="M16 34C16 34 17.6 30 24 30C30.4 30 32 34 32 34" stroke="#333333" stroke-width="2" stroke-linecap="round" stroke-linejoin="round"/>
<path d="M14 21C15.5 20.5 16.5 20 18 19" stroke="#333333" stroke-width="2" stroke-linecap="round"/>
<path d="M34 21C32.5 20.5 31.5 20 30 19" stroke="#333333" stroke-width="2" stroke-linecap="round"/>
<path d="M20 31L11 27" stroke="#333333" stroke-width="2"/>
<circle cx="11.0749" cy="27.0745" r="2" transform="rotate(-2.18873 11.0749 27.0745)" fill="#333333"/>
</svg>
