<svg width="48" height="48" viewBox="0 0 48 48" fill="none" xmlns="http://www.w3.org/2000/svg">
<path fill-rule="evenodd" clip-rule="evenodd" d="M48 0H0V48H48V0ZM24 44C35.0457 44 44 35.0457 44 24C44 12.9543 35.0457 4 24 4C12.9543 4 4 12.9543 4 24C4 35.0457 12.9543 44 24 44Z" fill="#333333"/>
<path fill-rule="evenodd" clip-rule="evenodd" d="M17.5547 19.5716C17.2188 19.3477 16.7812 19.3477 16.4453 19.5716L14.5547 20.8321C14.0952 21.1384 13.4743 21.0142 13.1679 20.5547C12.8616 20.0952 12.9858 19.4743 13.4453 19.1679L15.3359 17.9075C16.3436 17.2358 17.6564 17.2358 18.6641 17.9075L20.5547 19.1679C21.0142 19.4743 21.1384 20.0952 20.8321 20.5547C20.5257 21.0142 19.9048 21.1384 19.4453 20.8321L17.5547 19.5716Z" fill="#333333"/>
<path fill-rule="evenodd" clip-rule="evenodd" d="M31.5547 19.5716C31.2188 19.3477 30.7812 19.3477 30.4453 19.5716L28.5547 20.8321C28.0952 21.1384 27.4743 21.0142 27.1679 20.5547C26.8616 20.0952 26.9858 19.4743 27.4453 19.1679L29.3359 17.9075C30.3436 17.2358 31.6564 17.2358 32.6641 17.9075L34.5547 19.1679C35.0142 19.4743 35.1384 20.0952 34.8321 20.5547C34.5257 21.0142 33.9048 21.1384 33.4453 20.8321L31.5547 19.5716Z" fill="#333333"/>
<path d="M15 27C14.6514 27 14.328 27.1815 14.1464 27.4791C13.9648 27.7767 13.9513 28.1473 14.1107 28.4573L14.1501 28.534C15.3295 30.8287 17.9872 36 24 36C30.0128 36 32.6705 30.8287 33.8499 28.534L33.8893 28.4573C34.0487 28.1473 34.0352 27.7767 33.8536 27.4791C33.672 27.1815 33.3486 27 33 27H15Z" fill="#333333"/>
</svg>
