<svg width="48" height="48" viewBox="0 0 48 48" fill="none" xmlns="http://www.w3.org/2000/svg">
<path fill-rule="evenodd" clip-rule="evenodd" d="M0 0H48V48H0V0ZM11.5625 30.184C2.15175 23.8677 9.03419 10.06 16.619 9.03192C19.7654 8.60543 22.3778 12.5572 21.9564 14.6137C21.7742 15.5028 21.1457 16.2821 20.4908 17.094C19.631 18.16 18.7259 19.2822 18.7259 20.783C18.7259 23.427 18.445 27.8336 16.619 29.5963C14.793 31.359 13.3026 31.3519 11.5625 30.184ZM19.649 22.8342C19.5667 23.8308 19.5662 23.8308 19.5657 23.8307L19.5647 23.8307L19.5628 23.8305L19.5598 23.8302L19.5563 23.8299L19.5586 23.8302C19.5643 23.8309 19.5777 23.8326 19.5978 23.8358C19.6382 23.8424 19.7036 23.8548 19.7854 23.8767C19.9524 23.9214 20.1674 24.0001 20.3753 24.1328C20.743 24.3674 21.1775 24.816 21.1775 25.8523V33.8584V36.0987V37.0984V37.331V37.4444V37.5558V37.6651V37.6921V37.7189V37.7723V37.7987V37.825V37.8512V37.8773V37.9032V37.9289V37.9546V37.98V38.1787V38.2744V38.3677V38.7152V39.0189V39.2754V39.4811V39.5638V39.6324V39.7258V39.7296V39.7332V39.7366V39.7397V39.7425V39.7452V39.7475V39.7497V39.7515V39.7532V39.7546V39.7557V39.7566V39.7572V39.7576C21.1775 39.7577 21.1775 39.7577 22.1775 39.7577C23.1775 39.7577 23.1775 39.7577 23.1775 39.7576V39.7572V39.7566V39.7557V39.7546V39.7532V39.7515V39.7497V39.7475V39.7452V39.7425V39.7397V39.7366V39.7332V39.7296V39.7258V39.6866V39.6324V39.5638V39.4811V39.2754V39.0189V38.7152V38.3677V38.1787V38.1299V38.1053V38.0805V37.98V33.8584V25.8523C23.1775 24.0794 22.3478 23.0189 21.4512 22.4468C21.027 22.1761 20.6099 22.027 20.3028 21.9448C20.1475 21.9032 20.0154 21.8774 19.9175 21.8616C19.8685 21.8536 19.8276 21.8481 19.7962 21.8443C19.7805 21.8425 19.7671 21.841 19.7563 21.8399L19.7419 21.8385L19.7361 21.838L19.7336 21.8378L19.7324 21.8377C19.7319 21.8377 19.7313 21.8376 19.649 22.8342ZM36.615 30.184C46.0257 23.8677 39.1433 10.06 31.5585 9.03192C28.412 8.60543 25.7997 12.5572 26.2211 14.6137C26.4033 15.5028 27.0318 16.2821 27.6867 17.094C28.5465 18.16 29.4516 19.2822 29.4516 20.783C29.4516 23.427 29.7325 27.8336 31.5585 29.5963C33.3845 31.359 34.8749 31.3519 36.615 30.184ZM28.1832 22.893C28.2518 23.8906 28.2524 23.8906 28.253 23.8905L28.2542 23.8905L28.2564 23.8903L28.2603 23.89L28.2661 23.8895L28.2696 23.8892C28.2685 23.8893 28.261 23.8902 28.248 23.8923C28.2216 23.8965 28.1748 23.9054 28.1145 23.9225C27.9917 23.9573 27.8299 24.0211 27.6717 24.1338C27.404 24.3244 27 24.7528 27 25.8523V33.8584V37.98V38.0805V38.1053V38.1299V38.1787V38.2744V38.298V38.3214V38.3446V38.3677V38.7152V39.019V39.2755V39.4811V39.5638V39.6324V39.7258V39.7296V39.7332V39.7366V39.7397V39.7426V39.7452V39.7475V39.7497V39.7516V39.7532V39.7546V39.7557V39.7566V39.7572V39.7576C27 39.7577 27 39.7577 26 39.7577C25 39.7577 25 39.7577 25 39.7576V39.7572V39.7566V39.7557V39.7546V39.7532V39.7516V39.7497V39.7475V39.7452V39.7426V39.7397V39.7366V39.7332V39.7296V39.7258V39.7217V39.7174V39.7129V39.7081V39.7031V39.6978V39.6923V39.6866V39.6324V39.5638V39.4811V39.2755V39.019V38.7152V38.3677V38.3214V38.298V38.2744V38.2507V38.2268V38.2028V38.1787V38.1299V38.1053V38.0805V37.98V33.8584V25.8523C25 24.1426 25.6876 23.0913 26.5115 22.5046C26.899 22.2286 27.283 22.0793 27.5695 21.9982C27.714 21.9573 27.8377 21.9325 27.9307 21.9176C27.9774 21.9101 28.0168 21.905 28.0477 21.9015C28.0632 21.8998 28.0766 21.8985 28.0877 21.8975L28.1029 21.8962L28.1091 21.8957L28.112 21.8955L28.1133 21.8954C28.1139 21.8954 28.1146 21.8953 28.1832 22.893Z" fill="#333333"/>
</svg>
