<svg width="48" height="48" viewBox="0 0 48 48" fill="none" xmlns="http://www.w3.org/2000/svg">
<g clip-path="url(#clip0)">
<path fill-rule="evenodd" clip-rule="evenodd" d="M-0.0412598 0.402832L47.9587 0.36352L47.998 48.3635L-0.00194758 48.4028L-0.0412598 0.402832ZM16.4927 11.7424C21.9316 11.7379 21.8636 18.6096 21.8287 22.1383L21.8287 22.1386L21.8287 22.1406C21.8274 22.2701 21.8261 22.395 21.8252 22.515C21.8745 22.4913 21.9239 22.4653 21.9729 22.4366C22.4126 22.1797 22.9761 21.6348 22.975 20.237L22.968 11.6746L22.9679 11.5255L22.9677 11.3771L22.9675 11.0826L22.967 10.5043L22.9666 9.94297L22.9663 9.66977L22.9662 9.53521L22.9662 9.50179L22.9662 9.46847L22.9662 9.43523L22.9661 9.40209L22.9646 7.51049L22.9635 6.21655L22.9635 6.18811L22.9635 6.17419L22.9635 6.16047L22.9635 6.13364L22.9634 6.12053L22.9634 6.10762L22.9634 6.09492L22.9634 6.08243L22.9634 6.07014L22.9634 6.05807L22.9634 6.0462L22.9634 6.03454L22.9634 6.01185L22.9633 6.00082L22.9633 5.99001L22.9633 5.96903L22.9633 5.95886L22.9633 5.9489L22.9633 5.92965L22.9632 5.86144L22.9632 5.80766L22.9632 5.76872L22.9631 5.74504L22.9631 5.74317L22.9631 5.74156L22.9631 5.74018L22.9631 5.73906L22.9631 5.73818L22.9631 5.73756L22.9631 5.73718C22.9631 5.7371 22.9631 5.73705 23.9631 5.73623C24.0256 5.73618 24.0842 5.73614 24.1392 5.73609C24.9631 5.73542 24.9631 5.73546 24.9631 5.73554L24.9631 5.73592L24.9631 5.73654L24.9631 5.73742L24.9631 5.73855L24.9631 5.73992L24.9631 5.74154L24.9631 5.7434L24.9632 5.76708L24.9632 5.80602L24.9632 5.85981L24.9633 5.92801L24.9633 5.94726L24.9633 5.95722L24.9633 5.96739L24.9633 5.98837L24.9633 5.99919L24.9634 6.01021L24.9634 6.0329L24.9634 6.04456L24.9634 6.05643L24.9634 6.06851L24.9634 6.08079L24.9634 6.09329L24.9634 6.10598L24.9634 6.11889L24.9635 6.132L24.9635 6.15883L24.9635 6.17255L24.9635 6.18647L24.9635 6.21491L24.9646 7.50885L24.9661 9.40045L24.9662 9.4336L24.9662 9.46683L24.9662 9.50016L24.9662 9.53357L24.9663 9.66813L24.9666 9.94133L24.967 10.5026L24.9675 11.0809L24.9677 11.3754L24.9679 11.5238L24.968 11.6729L24.975 20.2354C24.9761 21.6332 25.5406 22.1771 25.9807 22.4333C26.0298 22.4619 26.0792 22.4879 26.1285 22.5114C26.1273 22.3914 26.1259 22.2663 26.1244 22.1368L26.1244 22.1348L26.1244 22.1345C26.0837 18.6058 26.0045 11.7343 31.4433 11.7298C38.8939 11.7237 44.2371 37.7258 41.0461 40.3822C37.8552 43.0385 31.4676 41.4515 28.2719 38.2696C25.6918 35.7008 25.9099 29.6929 26.0665 25.3802C26.0761 25.1173 26.0854 24.8607 26.0938 24.6116C25.7685 24.531 25.3743 24.3946 24.9743 24.1617C24.6178 23.9541 24.2753 23.6802 23.9775 23.3281C23.6804 23.6807 23.3383 23.9552 22.9821 24.1633C22.5825 24.3969 22.1885 24.5339 21.8633 24.6151C21.8721 24.8637 21.8818 25.1199 21.8918 25.3823L21.8919 25.3839C22.0555 29.6964 22.2835 35.7039 19.7076 38.2769C16.5171 41.464 10.1321 43.0615 6.93683 40.4104C3.74152 37.7593 9.04213 11.7485 16.4927 11.7424Z" fill="#333333"/>
</g>
<defs>
<clipPath id="clip0">
<rect width="48" height="48" fill="white"/>
</clipPath>
</defs>
</svg>
