<svg width="48" height="48" viewBox="0 0 48 48" fill="none" xmlns="http://www.w3.org/2000/svg">
<path d="M20 9C20.5523 9 21 8.55228 21 8C21 7.44772 20.5523 7 20 7C19.4477 7 19 7.44772 19 8C19 8.55228 19.4477 9 20 9Z" fill="#333333"/>
<path d="M27 12C27 12.5523 26.5523 13 26 13C25.4477 13 25 12.5523 25 12C25 11.4477 25.4477 11 26 11C26.5523 11 27 11.4477 27 12Z" fill="#333333"/>
<path d="M22 15C22.5523 15 23 14.5523 23 14C23 13.4477 22.5523 13 22 13C21.4477 13 21 13.4477 21 14C21 14.5523 21.4477 15 22 15Z" fill="#333333"/>
<path d="M18.8321 18.4454C19.1384 18.9049 19.0143 19.5258 18.5547 19.8322C16.9909 20.8747 15.9114 21.4171 14.3163 21.9488C13.7923 22.1234 13.226 21.8403 13.0513 21.3163C12.8767 20.7924 13.1599 20.2261 13.6838 20.0514C15.0887 19.5831 16.0091 19.1255 17.4453 18.1681C17.9049 17.8617 18.5257 17.9859 18.8321 18.4454Z" fill="#333333"/>
<path d="M16.9251 34.3797C16.717 34.8869 16.1386 35.1325 15.6286 34.9285C15.1158 34.7234 14.8664 34.1414 15.0715 33.6286L15.9972 33.9989C15.0715 33.6286 15.0721 33.6273 15.0721 33.6273L15.0726 33.6259L15.0739 33.6229L15.0768 33.6156L15.0847 33.5968C15.0909 33.5823 15.0989 33.564 15.1088 33.5422C15.1285 33.4986 15.156 33.4408 15.192 33.3708C15.2639 33.2309 15.3703 33.0418 15.518 32.8203C15.8133 32.3773 16.2756 31.802 16.9598 31.2318C18.3443 30.0781 20.5723 29 24 29C27.4278 29 29.6558 30.0781 31.0402 31.2318C31.7245 31.802 32.1867 32.3773 32.4821 32.8203C32.6298 33.0418 32.7361 33.2309 32.8081 33.3708C32.844 33.4408 32.8715 33.4986 32.8913 33.5422L32.9059 33.5749L32.9153 33.5968L32.9232 33.6156L32.9262 33.6229L32.9274 33.6259L32.928 33.6273C32.928 33.6273 32.9285 33.6286 32 34L32.9285 33.6286C33.1336 34.1414 32.8842 34.7234 32.3714 34.9285C31.8614 35.1325 31.283 34.8869 31.0749 34.3798L31.0697 34.368C31.0629 34.353 31.0497 34.3249 31.0295 34.2855C30.9889 34.2066 30.9203 34.0832 30.818 33.9297C30.6133 33.6227 30.2756 33.198 29.7598 32.7682C28.7443 31.9219 26.9723 31 24 31C21.0278 31 19.2558 31.9219 18.2402 32.7682C17.7245 33.198 17.3867 33.6227 17.1821 33.9297C17.0798 34.0832 17.0111 34.2066 16.9706 34.2855C16.9503 34.3249 16.9371 34.353 16.9303 34.368L16.9251 34.3797Z" fill="#333333"/>
<path d="M29.4453 19.8322C28.9857 19.5258 28.8616 18.9049 29.1679 18.4454C29.4743 17.9859 30.0951 17.8617 30.5547 18.1681C31.9909 19.1255 32.9113 19.5831 34.3162 20.0514C34.8401 20.2261 35.1233 20.7924 34.9487 21.3163C34.774 21.8403 34.2077 22.1234 33.6837 21.9488C32.0886 21.4171 31.0091 20.8747 29.4453 19.8322Z" fill="#333333"/>
<path d="M9 29C9 29.5523 8.55228 30 8 30C7.44772 30 7 29.5523 7 29C7 28.4477 7.44772 28 8 28C8.55228 28 9 28.4477 9 29Z" fill="#333333"/>
<path d="M30 14C30.5523 14 31 13.5523 31 13C31 12.4477 30.5523 12 30 12C29.4477 12 29 12.4477 29 13C29 13.5523 29.4477 14 30 14Z" fill="#333333"/>
<path d="M35 12C35 12.5523 34.5523 13 34 13C33.4477 13 33 12.5523 33 12C33 11.4477 33.4477 11 34 11C34.5523 11 35 11.4477 35 12Z" fill="#333333"/>
<path d="M14 13C14 13.5523 13.5523 14 13 14C12.4477 14 12 13.5523 12 13C12 12.4477 12.4477 12 13 12C13.5523 12 14 12.4477 14 13Z" fill="#333333"/>
<path d="M29 9C29.5523 9 30 8.55228 30 8C30 7.44772 29.5523 7 29 7C28.4477 7 28 7.44772 28 8C28 8.55228 28.4477 9 29 9Z" fill="#333333"/>
<path d="M37 17C37 17.5523 36.5523 18 36 18C35.4477 18 35 17.5523 35 17C35 16.4477 35.4477 16 36 16C36.5523 16 37 16.4477 37 17Z" fill="#333333"/>
<path d="M18 13C18.5523 13 19 12.5523 19 12C19 11.4477 18.5523 11 18 11C17.4477 11 17 11.4477 17 12C17 12.5523 17.4477 13 18 13Z" fill="#333333"/>
<path d="M25 9C25 9.55228 24.5523 10 24 10C23.4477 10 23 9.55228 23 9C23 8.44772 23.4477 8 24 8C24.5523 8 25 8.44772 25 9Z" fill="#333333"/>
<path d="M34 29C34.5523 29 35 28.5523 35 28C35 27.4477 34.5523 27 34 27C33.4477 27 33 27.4477 33 28C33 28.5523 33.4477 29 34 29Z" fill="#333333"/>
<path d="M9 25C9.55228 25 10 24.5523 10 24C10 23.4477 9.55228 23 9 23C8.44772 23 8 23.4477 8 24C8 24.5523 8.44772 25 9 25Z" fill="#333333"/>
<path d="M11 33C11 33.5523 10.5523 34 10 34C9.44772 34 9 33.5523 9 33C9 32.4477 9.44772 32 10 32C10.5523 32 11 32.4477 11 33Z" fill="#333333"/>
<path d="M39 32C39 32.5523 38.5523 33 38 33C37.4477 33 37 32.5523 37 32C37 31.4477 37.4477 31 38 31C38.5523 31 39 31.4477 39 32Z" fill="#333333"/>
<path d="M13 28C13.5523 28 14 27.5523 14 27C14 26.4477 13.5523 26 13 26C12.4477 26 12 26.4477 12 27C12 27.5523 12.4477 28 13 28Z" fill="#333333"/>
<path fill-rule="evenodd" clip-rule="evenodd" d="M48 0H0V48H48V0ZM43 4C43 3.44772 42.5523 3 42 3C41.4477 3 41 3.44772 41 4V6C41 6.55228 41.4477 7 42 7C42.5523 7 43 6.55228 43 6V4ZM38.7071 5.29289C38.3166 4.90237 37.6834 4.90237 37.2929 5.29289C36.9024 5.68342 36.9024 6.31658 37.2929 6.70711L38.2929 7.70711C38.6834 8.09763 39.3166 8.09763 39.7071 7.70711C40.0976 7.31658 40.0976 6.68342 39.7071 6.29289L38.7071 5.29289ZM46.7071 5.29289C46.3166 4.90237 45.6834 4.90237 45.2929 5.29289L44.2929 6.29289C43.9024 6.68342 43.9024 7.31658 44.2929 7.70711C44.6834 8.09763 45.3166 8.09763 45.7071 7.70711L46.7071 6.70711C47.0976 6.31658 47.0976 5.68342 46.7071 5.29289ZM43 11V14H41V11C41 10.4477 41.4477 10 42 10C42.5523 10 43 10.4477 43 11ZM41 21.9987V16H43V21.9987L43.7988 22.5988C44.532 23.1495 45 24.0198 45 25C45 26.6569 43.6569 28 42 28C40.3431 28 39 26.6569 39 25C39 24.0198 39.468 23.1495 40.2012 22.5988L41 21.9987ZM43.1237 29.8732C40.6147 38.0528 33.0019 44 24 44C12.9543 44 4 35.0457 4 24C4 12.9543 12.9543 4 24 4C29.9778 4 35.343 6.62257 39.008 10.7799C39.0027 10.8526 39 10.926 39 11V20.9996C37.7856 21.9118 37 23.3642 37 25C37 27.7614 39.2386 30 42 30C42.3864 30 42.7625 29.9562 43.1237 29.8732Z" fill="#333333"/>
</svg>
