<svg width="48" height="48" viewBox="0 0 48 48" fill="none" xmlns="http://www.w3.org/2000/svg">
<path d="M16.2274 41.8233H19.9504V39.8353H16.2274V41.8233Z" fill="#333333"/>
<path d="M16.2274 37.5113H19.9504V35.5373H16.2274V37.5113Z" fill="#333333"/>
<path d="M16.2274 33.2273H19.9504V31.2393H16.2274V33.2273Z" fill="#333333"/>
<path d="M26.1696 19.8026C26.9788 19.8026 27.7693 19.563 28.4376 19.1152C29.1162 19.5622 29.917 19.7965 30.7341 19.7872C31.6821 19.7792 32.5985 19.4519 33.3299 18.8601C34.0614 18.2682 34.5635 17.4477 34.7524 16.536C34.9412 15.6242 34.8052 14.6764 34.3671 13.8513C33.9291 13.0262 33.2156 12.3737 32.346 12.0032C32.1475 11.1204 31.6474 10.3309 30.9286 9.76554C30.2099 9.2002 29.3159 8.89308 28.3948 8.89517H28.1095C27.5459 8.08803 26.6998 7.51228 25.732 7.27739C24.7642 7.0425 23.7422 7.16485 22.8603 7.62116C22.1045 7.13066 21.2025 6.90399 20.2995 6.97763C19.3965 7.05127 18.5451 7.42095 17.8821 8.02716C17.5688 7.95468 17.2482 7.9171 16.9264 7.91516C16.1471 7.91673 15.385 8.13965 14.7319 8.55701C14.0789 8.97437 13.5629 9.56832 13.2462 10.2672C12.4193 10.5162 11.6957 11.0192 11.1821 11.7023C10.6685 12.3853 10.392 13.2123 10.3934 14.0612C10.3883 14.4162 10.4364 14.7699 10.536 15.1112C9.99448 15.8009 9.70329 16.6485 9.7087 17.5192C9.70741 18.5291 10.1005 19.5011 10.807 20.2352C10.8641 20.9582 11.1215 21.6522 11.5514 22.242C11.9813 22.8317 12.5674 23.2949 13.2462 23.5812C14.0284 24.0625 14.6907 24.7098 15.1844 25.4754C15.6781 26.241 15.9906 27.1055 16.0991 28.0053H19.9504V23.8052C19.9494 23.0595 20.1614 22.3284 20.5623 21.6949C20.9632 21.0615 21.5369 20.5509 22.2184 20.2212C22.857 19.9814 23.4323 19.6033 23.9016 19.1152C24.5699 19.563 25.3604 19.8026 26.1696 19.8026Z" fill="#333333"/>
<path d="M33.4205 25.7684C33.7654 25.9945 34.1708 26.1152 34.5855 26.1152L34.6425 26.0452C35.1766 26.0313 35.6851 25.8178 36.0642 25.4483C36.4432 25.0788 36.6643 24.5813 36.6823 24.0572C36.6823 23.6502 36.5593 23.2523 36.3289 22.9139C36.0985 22.5754 35.7711 22.3116 35.3879 22.1559C35.0048 22.0001 34.5832 21.9594 34.1764 22.0388C33.7697 22.1182 33.396 22.3142 33.1028 22.602C32.8095 22.8898 32.6098 23.2565 32.5289 23.6557C32.448 24.055 32.4896 24.4688 32.6483 24.8448C32.807 25.2209 33.0757 25.5423 33.4205 25.7684Z" fill="#333333"/>
<path fill-rule="evenodd" clip-rule="evenodd" d="M48 0H0V48H48V0ZM38.8771 18.7038C38.8512 20.7892 38.8235 23.0108 39.7063 24.8972C39.918 25.3265 40.2723 25.7345 40.6399 26.1578C41.3872 27.0184 42.1895 27.9423 41.9601 29.2373C41.6177 31.1693 38.2371 31.7013 38.2371 31.7013C38.2371 42.1033 25.3993 38.7853 25.3993 38.7853V42.2993C25.3993 42.2993 24.5435 45.0993 19.6936 45.0993C18.4161 45.2036 17.1366 44.9214 16.0273 44.2907C14.918 43.66 14.0321 42.711 13.4887 41.5713V32.8773C9.83707 30.0633 6 24.2252 6 19.3112C6 15.2269 7.65312 11.3098 10.5957 8.42172C13.5382 5.53365 17.5292 3.91115 21.6906 3.91115C24.8684 3.90761 28.0086 4.58612 30.8911 5.89916C33.1627 6.83803 35.1515 8.33216 36.6681 10.2392C38.053 12.2425 38.8206 14.595 38.879 17.0152C38.8914 17.561 38.8843 18.1272 38.8771 18.7038Z" fill="#333333"/>
</svg>
