<svg width="48" height="48" viewBox="0 0 48 48" fill="none" xmlns="http://www.w3.org/2000/svg">
<path fill-rule="evenodd" clip-rule="evenodd" d="M48 0H0V48H48V0ZM32.3431 22.1056C31.4387 22.6629 30.3691 22.961 29.2741 22.961C28.4462 22.961 28.2045 22.7906 27.7449 22.4666C27.5967 22.3621 27.4257 22.2415 27.2052 22.1056C26.9513 22.3485 26.8343 22.5695 26.7301 22.7663C26.5738 23.0618 26.4462 23.3029 25.9276 23.482C25.0054 23.8923 24.229 24.5277 23.6866 25.3161C23.1441 26.1045 22.8573 27.0143 22.8586 27.9424V33.1695H20.1591V25.4324C20.1591 25.1467 20.0369 24.8747 19.8234 24.685L16.604 21.8232L16.0132 18.5741L19.4503 16.3869H20.8636V20.0233C20.8636 20.5756 21.3113 21.0233 21.8636 21.0233C22.4159 21.0233 22.8636 20.5756 22.8636 20.0233V18.3182H23.9457L26.8255 19.7581C27.3195 20.0051 27.9202 19.8048 28.1672 19.3109C28.4141 18.8169 28.2139 18.2162 27.7199 17.9692L24.629 16.4238C24.4902 16.3543 24.3371 16.3182 24.1818 16.3182H22.8636V15.623L23.5116 14.327C23.5741 14.2921 23.6316 14.2512 23.6837 14.2053L26.7179 14.757L29.1879 17.9327C29.3308 18.1164 29.5332 18.2445 29.7603 18.2949L33.1174 19.041L34.5528 19.7586C35.0468 20.0056 35.6474 19.8054 35.8944 19.3114C36.1414 18.8174 35.9412 18.2168 35.4472 17.9698L33.9018 17.197C33.8286 17.1605 33.7513 17.133 33.6715 17.1153L31.792 16.6976L32.1408 16H33.8409C34.3932 16 34.8409 15.5523 34.8409 15C34.8409 14.4477 34.3932 14 33.8409 14H31.5227C31.144 14 30.7977 14.214 30.6283 14.5528L30.0275 15.7545L28.4822 13.7676L29.8292 12.69C30.2605 12.345 30.3304 11.7157 29.9854 11.2844C29.6404 10.8531 29.0111 10.7832 28.5799 11.1282L26.648 12.6737C26.6403 12.6798 26.6327 12.6861 26.6253 12.6924C26.6205 12.6965 26.6157 12.7006 26.611 12.7048L23.5509 12.1484L22.7828 10.3561C22.5652 9.84845 21.9773 9.6133 21.4697 9.83085C20.9621 10.0484 20.7269 10.6363 20.9445 11.1439L21.8319 13.2144L21.2456 14.3869H19.9972L18.9363 11.558C18.7424 11.0408 18.166 10.7788 17.6489 10.9728C17.1318 11.1667 16.8697 11.7431 17.0637 12.2602L18.0551 14.9041L14.8504 16.9435L12.2654 15.651C11.7714 15.404 11.1707 15.6043 10.9237 16.0982C10.6768 16.5922 10.877 17.1929 11.371 17.4399L14.0145 18.7617L14.6041 22.0044L12.6565 23.952C12.266 24.3425 12.266 24.9757 12.6565 25.3662C13.047 25.7567 13.6802 25.7567 14.0707 25.3662L15.7219 23.7151L18.1591 25.8815V33.1695H15.6472C15.5005 32.0497 15.0775 30.9738 14.4095 30.021C13.7414 29.0681 12.8453 28.2626 11.7869 27.6636C10.8684 27.3072 10.0753 26.7309 9.49354 25.9969C8.91178 25.2629 8.56348 24.3993 8.48632 23.4994C7.53023 22.5858 6.99836 21.3761 7.0001 20.1193C6.99279 19.0356 7.38681 17.9808 8.11959 17.1224C7.98474 16.6977 7.9197 16.2575 7.92658 15.8157C7.92474 14.7592 8.29887 13.7301 8.99387 12.88L11.7869 11.0939C12.2154 10.2242 12.9136 9.48499 13.7973 8.96558C14.6809 8.44617 15.7122 8.16874 16.7667 8.16679C17.2022 8.1692 17.636 8.21596 18.0599 8.30617C18.957 7.55172 20.1092 7.09165 21.3311 7L28.682 7.37306C29.9916 7.66539 31.1365 8.38192 31.8991 9.38643H32.2852L35.7138 10.4696C36.6863 11.1732 37.3631 12.1558 37.6317 13.2544C38.8083 13.7156 39.7738 14.5276 40.3666 15.5545C40.9593 16.5814 41.1433 17.7609 40.8879 18.8956C40.6324 20.0304 39.9529 21.0515 38.9631 21.788L35.4506 22.9419C34.3449 22.9535 33.2613 22.6619 32.3431 22.1056ZM15.8209 37.6684H22.8586V35.1943H15.8209V37.6684ZM15.8209 42H22.8586V39.5433H15.8209V42Z" fill="#333333"/>
</svg>
