<svg width="48" height="48" viewBox="0 0 48 48" fill="none" xmlns="http://www.w3.org/2000/svg">
<path fill-rule="evenodd" clip-rule="evenodd" d="M0 0H48V48H0V0ZM24 25.1333C28.9725 25.1333 33 21.076 33 16.0667C33 11.0573 28.9725 7 24 7C19.0275 7 15 11.0573 15 16.0667C15 21.076 19.0275 25.1333 24 25.1333ZM18.1254 28.9524C17.8971 28.4846 17.3814 28.2319 16.8786 28.3554C11.4745 29.6834 6 32.3913 6 36.465V40.9983H42V36.465C42 32.3913 36.5255 29.6834 31.1214 28.3554C30.6186 28.2319 30.1029 28.4846 29.8746 28.9524L25.8105 31.9524C24.9219 31.9526 24.4694 31.9526 24.0249 31.9526C23.5638 31.9525 23.1113 31.9525 22.1893 31.9527L18.1254 28.9524Z" fill="#333333"/>
</svg>
