<svg width="48" height="48" viewBox="0 0 48 48" fill="none" xmlns="http://www.w3.org/2000/svg">
<path fill-rule="evenodd" clip-rule="evenodd" d="M48 0H0V48H48V0ZM24 25.1333C28.9725 25.1333 33 21.076 33 16.0667C33 11.0573 28.9725 7 24 7C19.0275 7 15 11.0573 15 16.0667C15 21.076 19.0275 25.1333 24 25.1333ZM16.8786 28.3554C17.3814 28.2319 17.8971 28.4846 18.1254 28.9524L22.1893 31.9527C23.1094 31.9525 23.5619 31.9525 24.0221 31.9526H24.0249C24.4694 31.9526 24.9219 31.9526 25.8105 31.9524L29.8746 28.9524C30.1029 28.4846 30.6186 28.2319 31.1214 28.3554C36.5255 29.6834 42 32.3913 42 36.465V40.9983H6V36.465C6 32.3913 11.4745 29.6834 16.8786 28.3554Z" fill="#333333"/>
</svg>
