<svg width="48" height="48" viewBox="0 0 48 48" fill="none" xmlns="http://www.w3.org/2000/svg">
<path fill-rule="evenodd" clip-rule="evenodd" d="M0 0H48V48H0V0ZM21.8288 22.3347C21.8637 18.806 21.9317 11.9343 16.4929 11.9388C9.04227 11.9449 3.74166 37.9557 6.93698 40.6068C10.1323 43.2579 16.5172 41.6604 19.7078 38.4734C22.2836 35.9003 22.0557 29.8928 21.892 25.5803V25.5803L21.892 25.5793C21.882 25.3167 21.8723 25.0603 21.8634 24.8115C22.1887 24.7303 22.5826 24.5933 22.9822 24.3597C23.3384 24.1516 23.6805 23.8771 23.9776 23.5245C24.2754 23.8766 24.6179 24.1505 24.9745 24.3581C25.3744 24.591 25.7686 24.7274 26.094 24.808C26.0855 25.0572 26.0762 25.3138 26.0667 25.5768V25.5768V25.5768V25.5769C25.9101 29.8896 25.6919 35.8975 28.272 38.4663C31.4678 41.6482 37.8553 43.2352 41.0463 40.5789C44.2372 37.9225 38.894 11.9204 31.4434 11.9265C26.0046 11.931 26.0838 18.8026 26.1245 22.3312L26.1245 22.3317C26.126 22.4618 26.1275 22.5874 26.1286 22.7078C26.0793 22.6843 26.0299 22.6583 25.9808 22.6297C25.5407 22.3735 24.9763 21.8296 24.9751 20.4318L24.9681 11.8693L24.968 11.7202L24.9679 11.5718L24.9676 11.2774L24.9671 10.699L24.9667 10.1377L24.9665 9.86454L24.9664 9.72999L24.9663 9.69657L24.9663 9.66324L24.9663 9.63001L24.9662 9.59687L24.9647 7.70526L24.9636 6.41132L24.9636 6.38288L24.9636 6.36896L24.9636 6.35524L24.9636 6.32841L24.9636 6.3153L24.9635 6.3024L24.9635 6.2897L24.9635 6.2772L24.9635 6.26492L24.9635 6.25284L24.9635 6.24097L24.9635 6.22931L24.9635 6.20662L24.9635 6.1956L24.9634 6.18478L24.9634 6.1638L24.9634 6.15363L24.9634 6.14368L24.9634 6.12442L24.9633 6.05622L24.9633 6.00243L24.9633 5.96349L24.9632 5.93981V5.93795L24.9632 5.93633L24.9632 5.93496V5.93383V5.93296L24.9632 5.93233V5.93195C24.9632 5.93187 24.9632 5.93183 23.9632 5.93265C22.9632 5.93347 22.9632 5.93351 22.9632 5.93359L22.9632 5.93397V5.93459V5.93547L22.9632 5.9366V5.93797L22.9632 5.93959L22.9632 5.94145L22.9633 5.96513L22.9633 6.00407L22.9633 6.05786L22.9634 6.12606L22.9634 6.14531L22.9634 6.15527L22.9634 6.16544L22.9634 6.18642L22.9635 6.19724L22.9635 6.20826L22.9635 6.23095L22.9635 6.24261L22.9635 6.25448L22.9635 6.26656L22.9635 6.27884L22.9635 6.29134L22.9635 6.30403L22.9636 6.31694L22.9636 6.33005L22.9636 6.35688L22.9636 6.3706L22.9636 6.38452L22.9636 6.41296L22.9647 7.7069L22.9662 9.5985L22.9663 9.63165L22.9663 9.66488L22.9663 9.69821L22.9664 9.73162L22.9665 9.86618L22.9667 10.1394L22.9671 10.7007L22.9676 11.279L22.9679 11.5735L22.968 11.7219L22.9681 11.871L22.9751 20.4335C22.9763 21.8312 22.4127 22.3761 21.973 22.633C21.924 22.6617 21.8746 22.6877 21.8254 22.7114C21.8263 22.5914 21.8275 22.4664 21.8288 22.3369L21.8288 22.3354L21.8288 22.3347ZM15.9739 18.9392C14.8693 18.9401 13.9732 18.0454 13.9723 16.9408C13.9713 15.8363 14.866 14.9401 15.9706 14.9392C17.0752 14.9383 17.9713 15.833 17.9723 16.9376C17.9732 18.0421 17.0785 18.9383 15.9739 18.9392ZM8.98864 36.9449C8.98954 38.0495 9.8857 38.9442 10.9903 38.9433C12.0948 38.9424 12.9895 38.0462 12.9886 36.9416C12.9877 35.8371 12.0916 34.9424 10.987 34.9433C9.88243 34.9442 8.98773 35.8404 8.98864 36.9449ZM16.9862 33.9384C15.8816 33.9393 14.9854 33.0446 14.9845 31.94C14.9836 30.8354 15.8783 29.9393 16.9829 29.9384C18.0875 29.9375 18.9836 30.8322 18.9845 31.9367C18.9854 33.0413 18.0907 33.9375 16.9862 33.9384ZM9.98126 27.9441C9.98217 29.0487 10.8783 29.9434 11.9829 29.9425C13.0875 29.9416 13.9822 29.0454 13.9813 27.9408C13.9804 26.8363 13.0842 25.9416 11.9796 25.9425C10.8751 25.9434 9.98036 26.8395 9.98126 27.9441ZM16.9788 24.9384C15.8742 24.9393 14.9781 24.0446 14.9772 22.94C14.9763 21.8354 15.871 20.9393 16.9755 20.9384C18.0801 20.9375 18.9763 21.8322 18.9772 22.9367C18.9781 24.0413 18.0834 24.9375 16.9788 24.9384ZM33.9722 16.9245C33.9732 18.029 33.0785 18.9252 31.9739 18.9261C30.8693 18.927 29.9732 18.0323 29.9722 16.9277C29.9713 15.8232 30.866 14.927 31.9706 14.9261C33.0752 14.9252 33.9713 15.8199 33.9722 16.9245ZM36.9903 38.922C38.0948 38.9211 38.9895 38.0249 38.9886 36.9204C38.9877 35.8158 38.0916 34.9211 36.987 34.922C35.8824 34.9229 34.9877 35.8191 34.9886 36.9236C34.9895 38.0282 35.8857 38.9229 36.9903 38.922ZM32.9845 31.9253C32.9854 33.0298 32.0907 33.926 30.9862 33.9269C29.8816 33.9278 28.9854 33.0331 28.9845 31.9285C28.9836 30.824 29.8783 29.9278 30.9829 29.9269C32.0875 29.926 32.9836 30.8207 32.9845 31.9253ZM35.9829 29.9228C37.0875 29.9219 37.9822 29.0257 37.9813 27.9212C37.9804 26.8166 37.0842 25.9219 35.9796 25.9228C34.875 25.9237 33.9804 26.8199 33.9813 27.9244C33.9822 29.029 34.8783 29.9237 35.9829 29.9228ZM32.9772 22.9253C32.9781 24.0298 32.0834 24.926 30.9788 24.9269C29.8742 24.9278 28.9781 24.0331 28.9772 22.9285C28.9763 21.824 29.871 20.9278 30.9755 20.9269C32.0801 20.926 32.9763 21.8207 32.9772 22.9253Z" fill="#333333"/>
</svg>
