<svg width="48" height="48" viewBox="0 0 48 48" fill="none" xmlns="http://www.w3.org/2000/svg">
<path fill-rule="evenodd" clip-rule="evenodd" d="M48 0H0V48H48V0ZM29 24.9454V11C29 9.89543 28.1046 9 27 9C25.8954 9 25 9.89543 25 11V23H24V8C24 6.89543 23.1046 6 22 6C20.8954 6 20 6.89543 20 8V23H19V11C19 9.89543 18.1046 9 17 9C15.8954 9 15 9.89543 15 11V25H14V16C14 14.8954 13.1046 14 12 14C10.8954 14 10 14.8954 10 16V28V30.7762C10 36.9749 15.0251 42 21.2238 42C25.391 42 29.2151 39.6912 31.156 36.0036L37.0602 24.7855C37.5987 23.7626 37.2988 22.4991 36.3581 21.8272C35.3282 21.0915 33.8982 21.3207 33.1497 22.3414L30.8064 25.5367C30.2349 26.3161 29 25.9118 29 24.9454Z" fill="#333333"/>
</svg>
