<svg width="48" height="48" viewBox="0 0 48 48" fill="none" xmlns="http://www.w3.org/2000/svg">
<path fill-rule="evenodd" clip-rule="evenodd" d="M48 0H0V48H48V0ZM24 44C35.0457 44 44 35.0457 44 24C44 12.9543 35.0457 4 24 4C12.9543 4 4 12.9543 4 24C4 35.0457 12.9543 44 24 44Z" fill="#333333"/>
<path fill-rule="evenodd" clip-rule="evenodd" d="M16.9251 34.3797C16.717 34.8869 16.1386 35.1325 15.6286 34.9285C15.1158 34.7234 14.8664 34.1414 15.0715 33.6286L16 34C15.0715 33.6286 15.072 33.6273 15.072 33.6273L15.0726 33.6259L15.0738 33.6229L15.0768 33.6156L15.0847 33.5968C15.0909 33.5823 15.0989 33.564 15.1087 33.5422C15.1285 33.4986 15.156 33.4408 15.192 33.3708C15.2639 33.2309 15.3703 33.0418 15.518 32.8203C15.8133 32.3773 16.2756 31.802 16.9598 31.2318C18.3442 30.0781 20.5723 29 24 29C27.4277 29 29.6558 30.0781 31.0402 31.2318C31.7244 31.802 32.1867 32.3773 32.482 32.8203C32.6297 33.0418 32.7361 33.2309 32.808 33.3708C32.844 33.4408 32.8715 33.4986 32.8913 33.5422C32.9011 33.564 32.9091 33.5823 32.9153 33.5968L32.9232 33.6156L32.9262 33.6229L32.9274 33.6259L32.928 33.6273C32.928 33.6273 32.9285 33.6286 32 34L32.9285 33.6286C33.1336 34.1414 32.8842 34.7234 32.3714 34.9285C31.8614 35.1325 31.283 34.8869 31.0749 34.3798L31.0697 34.368C31.0629 34.353 31.0497 34.3249 31.0295 34.2855C30.9889 34.2066 30.9203 34.0832 30.818 33.9297C30.6133 33.6227 30.2756 33.198 29.7598 32.7682C28.7442 31.9219 26.9723 31 24 31C21.0277 31 19.2558 31.9219 18.2402 32.7682C17.7244 33.198 17.3867 33.6227 17.1821 33.9297C17.0797 34.0832 17.0111 34.2066 16.9705 34.2855C16.9503 34.3249 16.9371 34.353 16.9303 34.368L16.9251 34.3797Z" fill="#333333"/>
<path fill-rule="evenodd" clip-rule="evenodd" d="M18.8321 19.4453C19.1384 19.9048 19.0142 20.5257 18.5547 20.8321C16.9909 21.8746 15.9114 22.417 14.3162 22.9487C13.7923 23.1233 13.226 22.8402 13.0513 22.3162C12.8767 21.7923 13.1598 21.226 13.6838 21.0513C15.0886 20.583 16.0091 20.1254 17.4453 19.1679C17.9048 18.8616 18.5257 18.9858 18.8321 19.4453Z" fill="#333333"/>
<path fill-rule="evenodd" clip-rule="evenodd" d="M29.1679 19.4453C28.8616 19.9048 28.9858 20.5257 29.4453 20.8321C31.0091 21.8746 32.0886 22.417 33.6838 22.9487C34.2077 23.1233 34.774 22.8402 34.9487 22.3162C35.1233 21.7923 34.8402 21.226 34.3162 21.0513C32.9114 20.583 31.9909 20.1254 30.5547 19.1679C30.0952 18.8616 29.4743 18.9858 29.1679 19.4453Z" fill="#333333"/>
</svg>
