<svg width="48" height="48" viewBox="0 0 48 48" fill="none" xmlns="http://www.w3.org/2000/svg">
<path fill-rule="evenodd" clip-rule="evenodd" d="M48 0H0V48H48V0ZM24 44C35.0457 44 44 35.0457 44 24C44 12.9543 35.0457 4 24 4C12.9543 4 4 12.9543 4 24C4 35.0457 12.9543 44 24 44Z" fill="#333333"/>
<path d="M16 34C16 34 17.6 30 24 30C30.4 30 32 34 32 34" stroke="#333333" stroke-width="2" stroke-linecap="round" stroke-linejoin="round"/>
<path d="M14 22C15.5 21.5 16.5 21 18 20" stroke="#333333" stroke-width="2" stroke-linecap="round"/>
<path d="M34 22C32.5 21.5 31.5 21 30 20" stroke="#333333" stroke-width="2" stroke-linecap="round"/>
</svg>
