<svg width="48" height="48" viewBox="0 0 48 48" fill="none" xmlns="http://www.w3.org/2000/svg">
<path d="M30.4359 19.3049C31.2196 19.3049 31.855 18.6696 31.855 17.8859C31.855 17.1021 31.2196 16.4668 30.4359 16.4668C29.6522 16.4668 29.0168 17.1021 29.0168 17.8859C29.0168 18.6696 29.6522 19.3049 30.4359 19.3049Z" fill="#333333"/>
<path d="M31.6433 27.4171C31.6433 28.2009 31.008 28.8362 30.2243 28.8362C29.4405 28.8362 28.8052 28.2009 28.8052 27.4171C28.8052 26.6334 29.4405 25.998 30.2243 25.998C31.008 25.998 31.6433 26.6334 31.6433 27.4171Z" fill="#333333"/>
<path d="M34.2243 28.8362C35.008 28.8362 35.6433 28.2009 35.6433 27.4171C35.6433 26.6334 35.008 25.998 34.2243 25.998C33.4405 25.998 32.8052 26.6334 32.8052 27.4171C32.8052 28.2009 33.4405 28.8362 34.2243 28.8362Z" fill="#333333"/>
<path d="M34.1633 22.7874C34.1633 24.0355 33.1515 25.0474 31.9033 25.0474C30.6552 25.0474 29.6433 24.0355 29.6433 22.7874C29.6433 21.5392 30.6552 20.5273 31.9033 20.5273C33.1515 20.5273 34.1633 21.5392 34.1633 22.7874Z" fill="#333333"/>
<path fill-rule="evenodd" clip-rule="evenodd" d="M48 0H0V48H48V0ZM22.2405 20.2845C21.822 17.4885 20.868 14.955 18.75 14.25C14.25 12.75 9 20.25 9 31.5C9 34.5 9 36 9.75 36.75C10.5 37.5 12 37.5 15 37.5C21 37.5 22.5 33 22.5 28.5C22.5 28.1801 22.5085 27.7838 22.5184 27.3291C22.5404 26.3081 22.5687 24.9925 22.521 23.5875L23.2028 22.5H24.8253L25.4805 23.589C25.4328 24.9943 25.4611 26.3099 25.4832 27.3304L25.4832 27.3317C25.493 27.7855 25.5015 28.181 25.5015 28.5C25.5015 33 27.0015 37.5 33.0015 37.5C38.7765 37.5 38.994 37.5 39.0015 32.154V31.5C39.0015 20.25 33.7515 12.75 29.2515 14.25C27.1335 14.9565 26.1795 17.4885 25.761 20.286L25.5 20.2172V9H22.5V20.1861L22.2405 20.2845Z" fill="#333333"/>
</svg>
