<svg width="48" height="48" viewBox="0 0 48 48" fill="none" xmlns="http://www.w3.org/2000/svg">
<path d="M17 28V30H14V28H17Z" fill="#333333"/>
<path d="M12 32C12.5523 32 13 32.4477 13 33V37C13 37.5523 12.5523 38 12 38C11.4477 38 11 37.5523 11 37V33C11 32.4477 11.4477 32 12 32Z" fill="#333333"/>
<path d="M19 32C19.5523 32 20 32.4477 20 33V37C20 37.5523 19.5523 38 19 38C18.4477 38 18 37.5523 18 37V33C18 32.4477 18.4477 32 19 32Z" fill="#333333"/>
<path fill-rule="evenodd" clip-rule="evenodd" d="M48 0H0V48H48V0ZM28.4421 11.2691C28.4421 9.47112 29.9132 8 31.7112 8C33.5092 8 34.9803 9.47112 34.9803 11.2691C34.9803 13.0672 33.5092 14.5383 31.7112 14.5383C29.9132 14.5383 28.4421 13.0672 28.4421 11.2691ZM26.8074 19.443H18.6346C17.7356 19.443 17 18.7074 17 17.8084C17 16.9094 17.7356 16.1738 18.6346 16.1738H36.6149C37.5139 16.1738 40.29 17.8084 40.29 20.9843C40.29 25.198 37.5139 26.9092 36.6149 26.9092V39.0579C36.6149 39.9569 35.8793 40.6924 34.9803 40.6924C34.0813 40.6924 33.3457 39.9569 33.3457 39.0579V30.885H30.0766V39.0579C30.0766 39.9569 29.341 40.6924 28.442 40.6924C27.543 40.6924 26.8074 39.9569 26.8074 39.0579V19.443ZM12 28C12 26.8954 12.8954 26 14 26H17C18.1046 26 19 26.8954 19 28V30H21C22.1046 30 23 30.8954 23 32V38C23 39.1046 22.1046 40 21 40H10C8.89543 40 8 39.1046 8 38V32C8 30.8954 8.89543 30 10 30H12V28Z" fill="#333333"/>
</svg>
