<svg width="48" height="48" viewBox="0 0 48 48" fill="none" xmlns="http://www.w3.org/2000/svg">
<path fill-rule="evenodd" clip-rule="evenodd" d="M0 0H48V48H0V0ZM24.2508 16.8551C23.5171 16.4931 22.9074 15.9213 22.499 15.2123C22.0906 14.5033 21.9019 13.689 21.9569 12.8726C22.0119 12.0562 22.308 11.2746 22.8078 10.6267C23.3076 9.97887 23.9885 9.49402 24.7642 9.23362C25.5398 8.97323 26.3754 8.94903 27.1648 9.16409C27.9543 9.37914 28.6621 9.82377 29.1985 10.4416C29.735 11.0594 30.0759 11.8226 30.178 12.6345C30.2802 13.4463 30.139 14.2701 29.7723 15.0016C29.5316 15.4859 29.1977 15.9181 28.7899 16.2734C28.3821 16.6287 27.9083 16.9002 27.3956 17.0723C26.8828 17.2444 26.3412 17.3138 25.8016 17.2766C25.262 17.2393 24.7351 17.0961 24.2508 16.8551ZM5.94667 18.1369C5.351 18.7976 4.85951 19.5453 4.48913 20.3541C4.22231 21.0142 4.21599 21.751 4.47144 22.4156C4.72688 23.0802 5.22506 23.6231 5.86533 23.9346L16.2688 29.115L14.9663 38.4037C14.8814 39.0744 15.0625 39.7517 15.4709 40.2904C15.8793 40.8292 16.4824 41.1866 17.1511 41.286C17.4729 41.3181 17.7978 41.2848 18.1064 41.1883C18.4151 41.0918 18.701 40.934 18.9472 40.7244C19.1934 40.5147 19.3947 40.2576 19.5392 39.9683C19.6836 39.679 19.7682 39.3635 19.7878 39.0407L21.1504 28.4499C21.3039 27.9311 21.2961 27.3778 21.128 26.8635C20.96 26.3492 20.6397 25.8981 20.2096 25.5699L13.8952 21.1211C14.927 20.1702 15.901 19.1583 16.8119 18.0909L16.7329 19.8226C16.7163 20.1434 16.7821 20.4631 16.9239 20.7513C17.0657 21.0395 17.2789 21.2867 17.5432 21.4692L23.8986 25.9281C24.088 26.0597 24.2996 26.156 24.5233 26.2122C24.9533 26.3165 25.4063 26.2671 25.8038 26.0728C26.2013 25.8784 26.5183 25.5512 26.7001 25.1477C26.8818 24.7443 26.9168 24.29 26.799 23.8635C26.6812 23.4369 26.418 23.065 26.0549 22.8121L20.554 18.9977L20.7256 12.7157L20.7558 12.5929C20.7495 12.1782 20.6065 11.7772 20.349 11.4521C20.0914 11.127 19.7338 10.8961 19.3315 10.7951C17.8427 10.2536 16.201 10.317 14.7583 10.9718C10.8269 12.3628 5.94667 18.1369 5.94667 18.1369ZM40 39.0002C40 40.1047 36.4183 41.0002 32 41.0002C27.5817 41.0002 24 40.1047 24 39.0002C24 37.8956 27.5817 37.0002 32 37.0002C32.7312 37.0002 33.4394 37.0247 34.1123 37.0706C34.0399 36.8948 34 36.7021 34 36.5002C34 35.6717 34.6716 35.0002 35.5 35.0002C36.3284 35.0002 37 35.6717 37 36.5002C37 36.8305 36.8932 37.136 36.7122 37.3838C38.7052 37.7475 40 38.336 40 39.0002ZM29 21.0002C29.5523 21.0002 30 20.5525 30 20.0002C30 19.4479 29.5523 19.0002 29 19.0002C28.4477 19.0002 28 19.4479 28 20.0002C28 20.5525 28.4477 21.0002 29 21.0002ZM32 26.5002C32 27.3286 31.3284 28.0002 30.5 28.0002C29.6716 28.0002 29 27.3286 29 26.5002C29 25.6717 29.6716 25.0002 30.5 25.0002C31.3284 25.0002 32 25.6717 32 26.5002ZM34 30.0002C34.5523 30.0002 35 29.5525 35 29.0002C35 28.4479 34.5523 28.0002 34 28.0002C33.4477 28.0002 33 28.4479 33 29.0002C33 29.5525 33.4477 30.0002 34 30.0002ZM31 33.0002C31 33.5525 30.5523 34.0002 30 34.0002C29.4477 34.0002 29 33.5525 29 33.0002C29 32.4479 29.4477 32.0002 30 32.0002C30.5523 32.0002 31 32.4479 31 33.0002Z" fill="#333333"/>
</svg>
