<svg width="48" height="48" viewBox="0 0 48 48" fill="none" xmlns="http://www.w3.org/2000/svg">
<path fill-rule="evenodd" clip-rule="evenodd" d="M48 0H0V48H48V0ZM6 30C6 28.8954 6.89543 28 8 28H10C11.028 28 11.8748 28.7755 11.9873 29.7734C13.4807 29.2489 15.6477 28.4769 16.2755 28.1961C17.2621 27.7548 19.6739 28.1961 19.6739 28.1961L26.6901 29.7406C26.6901 29.7406 28.4442 30.2922 30.0886 30.2922C31.733 30.2922 30.75 32.5 29.6501 33.2709C28.5502 34.0417 27.75 34 27.75 34L22.0857 33.9328C22.0857 33.9328 27.019 34.8153 28.8827 34.9256C29.8268 34.9815 31.446 34.3297 33.2559 33.6011L33.256 33.6011C35.0189 32.8914 36.9627 32.1089 38.6396 31.8367C42.038 31.2851 42.5862 34.2637 41.4899 35.3669C40.3936 36.4701 31.6234 40.6623 30.0886 41.2139C28.8866 41.6459 27.4327 41.5025 25.7923 41.3407L25.7917 41.3406L25.7915 41.3406L25.7911 41.3406C25.3372 41.2958 24.869 41.2496 24.3879 41.2139C22.4722 41.0715 21.0081 40.6148 19.5589 40.1628C18.0055 39.6783 16.4692 39.1991 14.4118 39.1178C13.9816 39.1008 12.9708 39.127 12 39.1604V39.5C12 40.6046 11.1046 41.5 10 41.5H8C6.89543 41.5 6 40.6046 6 39.5V30ZM27 20.5C27 21.9 25.9 23 24.5 23C23.1 23 22 21.9 22 20.5C22 19.1 24.5 16 24.5 16C24.5 16 27 19.2 27 20.5ZM34.5 22C37 22 39 20 39 17.5C39 15 34.5 9 34.5 9C34.5 9 30 15 30 17.5C30 20 32 22 34.5 22Z" fill="#333333"/>
</svg>
