<svg width="48" height="48" viewBox="0 0 48 48" fill="none" xmlns="http://www.w3.org/2000/svg">
<path fill-rule="evenodd" clip-rule="evenodd" d="M48 0H0V48H48V0ZM24 6H42V12H22V8C22 6.89543 22.8954 6 24 6ZM22 15C22 14.4477 22.4477 14 23 14H29C29.5523 14 30 14.4477 30 15C30 15.5523 29.5523 16 29 16H23C22.4477 16 22 15.5523 22 15ZM27 19.1719C27 18.6196 26.5523 18.1719 26 18.1719C25.4477 18.1719 25 18.6196 25 19.1719V21.1719C25 21.7242 25.4477 22.1719 26 22.1719C26.5523 22.1719 27 21.7242 27 21.1719V19.1719ZM28.7071 18.2929C29.0976 17.9024 29.7308 17.9024 30.1213 18.2929L31.5355 19.7071C31.9261 20.0976 31.9261 20.7308 31.5355 21.1213C31.145 21.5118 30.5118 21.5118 30.1213 21.1213L28.7071 19.7071C28.3166 19.3166 28.3166 18.6834 28.7071 18.2929ZM20.2929 19.8787C19.9024 20.2692 19.9024 20.9024 20.2929 21.2929C20.6834 21.6834 21.3166 21.6834 21.7071 21.2929L23.1213 19.8787C23.5118 19.4882 23.5118 18.855 23.1213 18.4645C22.7308 18.0739 22.0976 18.0739 21.7071 18.4645L20.2929 19.8787ZM26 23.1719C26.5523 23.1719 27 23.6196 27 24.1719V26.1719C27 26.7242 26.5523 27.1719 26 27.1719C25.4477 27.1719 25 26.7242 25 26.1719V24.1719C25 23.6196 25.4477 23.1719 26 23.1719ZM33.6213 21.7929C33.2308 21.4024 32.5976 21.4024 32.2071 21.7929C31.8166 22.1834 31.8166 22.8166 32.2071 23.2071L33.6213 24.6213C34.0118 25.0118 34.645 25.0118 35.0355 24.6213C35.4261 24.2308 35.4261 23.5976 35.0355 23.2071L33.6213 21.7929ZM16.7929 24.5429C16.4024 24.1524 16.4024 23.5192 16.7929 23.1287L18.2071 21.7145C18.5976 21.3239 19.2308 21.3239 19.6213 21.7145C20.0118 22.105 20.0118 22.7382 19.6213 23.1287L18.2071 24.5429C17.8166 24.9334 17.1834 24.9334 16.7929 24.5429ZM6 30.5C6 29.3954 6.89543 28.5 8 28.5H10C11.028 28.5 11.8748 29.2755 11.9873 30.2734C13.4807 29.7489 15.6477 28.9769 16.2755 28.6961C17.2621 28.2548 19.6739 28.6961 19.6739 28.6961L26.6901 30.2406C26.6901 30.2406 28.4442 30.7922 30.0886 30.7922C31.733 30.7922 30.75 33 29.6501 33.7709C28.5502 34.5417 27.75 34.5 27.75 34.5L22.0857 34.4328C22.0857 34.4328 27.019 35.3153 28.8827 35.4256C29.8268 35.4815 31.446 34.8297 33.2559 34.1011L33.256 34.1011C35.0189 33.3914 36.9627 32.6089 38.6396 32.3367C42.038 31.7851 42.5862 34.7637 41.4899 35.8669C40.3936 36.9701 31.6234 41.1623 30.0886 41.7139C28.8866 42.1459 27.4327 42.0025 25.7923 41.8407L25.7917 41.8406C25.3376 41.7959 24.8692 41.7497 24.3879 41.7139C22.4722 41.5715 21.0081 41.1148 19.5589 40.6628C18.0055 40.1783 16.4692 39.6991 14.4118 39.6178C13.9816 39.6008 12.9708 39.627 12 39.6604V40C12 41.1046 11.1046 42 10 42H8C6.89543 42 6 41.1046 6 40V30.5Z" fill="#333333"/>
</svg>
