<svg width="48" height="48" viewBox="0 0 48 48" fill="none" xmlns="http://www.w3.org/2000/svg">
<path fill-rule="evenodd" clip-rule="evenodd" d="M48 0H0V48H48V0ZM6 28H12V29.769C13.4929 29.2446 15.6495 28.4761 16.2755 28.1961C17.2621 27.7548 19.6739 28.1961 19.6739 28.1961L26.6901 29.7406C26.6901 29.7406 28.4442 30.2922 30.0886 30.2922C31.733 30.2922 30.75 32.5 29.6501 33.2709C28.5502 34.0417 27.75 34 27.75 34L22.0857 33.9328C22.0857 33.9328 27.019 34.8153 28.8827 34.9256C29.8268 34.9815 31.446 34.3297 33.2559 33.6011C35.0188 32.8914 36.9627 32.1089 38.6396 31.8367C42.038 31.2851 42.5862 34.2637 41.4899 35.3669C40.3936 36.4701 31.6234 40.6623 30.0886 41.2139C28.8866 41.6459 27.4327 41.5025 25.7923 41.3407L25.7911 41.3406C25.3374 41.2958 24.8688 41.2496 24.3879 41.2139C22.4722 41.0715 21.0081 40.6148 19.5589 40.1628C18.0055 39.6783 16.4692 39.1991 14.4118 39.1178C13.9816 39.1008 12.9708 39.127 12 39.1604V41.5H6V28ZM43 5H23C21.8954 5 21 5.89543 21 7V11H43V5ZM22 13C21.4477 13 21 13.4477 21 14C21 14.5523 21.4477 15 22 15H28C28.5523 15 29 14.5523 29 14C29 13.4477 28.5523 13 28 13H22ZM25 17.1719C25.5523 17.1719 26 17.6196 26 18.1719V20.1719C26 20.7242 25.5523 21.1719 25 21.1719C24.4477 21.1719 24 20.7242 24 20.1719V18.1719C24 17.6196 24.4477 17.1719 25 17.1719ZM29.1213 17.2929C28.7308 16.9024 28.0976 16.9024 27.7071 17.2929C27.3166 17.6834 27.3166 18.3166 27.7071 18.7071L29.1213 20.1213C29.5118 20.5118 30.145 20.5118 30.5355 20.1213C30.9261 19.7308 30.9261 19.0976 30.5355 18.7071L29.1213 17.2929ZM19.2929 20.2929C18.9024 19.9024 18.9024 19.2692 19.2929 18.8787L20.7071 17.4645C21.0976 17.0739 21.7308 17.0739 22.1213 17.4645C22.5118 17.855 22.5118 18.4882 22.1213 18.8787L20.7071 20.2929C20.3166 20.6834 19.6834 20.6834 19.2929 20.2929ZM26 23.1719C26 22.6196 25.5523 22.1719 25 22.1719C24.4477 22.1719 24 22.6196 24 23.1719V25.1719C24 25.7242 24.4477 26.1719 25 26.1719C25.5523 26.1719 26 25.7242 26 25.1719V23.1719ZM31.2071 20.7929C31.5976 20.4024 32.2308 20.4024 32.6213 20.7929L34.0355 22.2071C34.4261 22.5976 34.4261 23.2308 34.0355 23.6213C33.645 24.0118 33.0118 24.0118 32.6213 23.6213L31.2071 22.2071C30.8166 21.8166 30.8166 21.1834 31.2071 20.7929ZM15.7929 22.1287C15.4024 22.5192 15.4024 23.1524 15.7929 23.5429C16.1834 23.9334 16.8166 23.9334 17.2071 23.5429L18.6213 22.1287C19.0118 21.7382 19.0118 21.105 18.6213 20.7145C18.2308 20.3239 17.5976 20.3239 17.2071 20.7145L15.7929 22.1287Z" fill="#333333"/>
</svg>
