<svg width="48" height="48" viewBox="0 0 48 48" fill="none" xmlns="http://www.w3.org/2000/svg">
<path fill-rule="evenodd" clip-rule="evenodd" d="M0 0H48V48H0V0ZM27.0313 35.2448C26.9866 36.0399 26.4977 39.4565 26.4044 40.1037H24.9978V44.9926H35.9978V40.1037H34.5884C35.3233 38.9618 36.119 38.1561 36.9222 37.3426L36.9223 37.3426L36.9223 37.3426C37.7915 36.4624 38.6695 35.5733 39.489 34.2396C39.6949 33.9045 39.9035 33.5827 40.1057 33.2707L40.1058 33.2706L40.1059 33.2704L40.1059 33.2704C40.8364 32.1433 41.4839 31.1444 41.6206 30.1127C41.7952 28.7953 42.0398 20.8786 41.6511 19.6724C41.2624 18.4662 38.901 17.7492 38.0296 20.4158C37.5996 21.7315 37.4392 23.4313 37.2938 24.973V24.973L37.2937 24.9731C37.1444 26.5558 37.0109 27.9717 36.6174 28.6343C35.8406 29.9422 33.357 33.1836 33.357 33.1836L35.5237 29.1082C35.5237 29.1082 35.8531 28.5445 35.7063 27.46C35.5596 26.3754 34.3288 24.8382 33.7139 26.0287C33.099 27.2192 32.0438 28.2827 32.0438 28.2827L28.3021 32.7845C28.3021 32.7845 27.0808 34.3655 27.0313 35.2448ZM20.9687 35.2449C21.0134 36.04 21.5023 39.4565 21.5956 40.1038H23.0022V44.9927H12.0022V40.1038H13.4116C12.6767 38.9619 11.881 38.1561 11.0777 37.3427C10.2085 36.4625 9.3305 35.5734 8.51103 34.2397C8.30508 33.9046 8.09642 33.5826 7.89413 33.2705L7.89411 33.2705L7.89409 33.2705C7.16355 32.1434 6.51608 31.1444 6.37936 30.1128C6.20478 28.7954 5.96019 20.8786 6.3489 19.6725C6.73762 18.4663 9.09896 17.7493 9.97044 20.4159C10.4004 21.7316 10.5608 23.4315 10.7062 24.9731L10.7062 24.9731C10.8556 26.5558 10.9891 27.9718 11.3826 28.6344C12.1594 29.9423 14.643 33.1837 14.643 33.1837L12.4763 29.1083C12.4763 29.1083 12.1469 28.5446 12.2937 27.4601C12.4404 26.3755 13.6712 24.8383 14.2861 26.0288C14.901 27.2192 15.9562 28.2828 15.9562 28.2828L19.6979 32.7846C19.6979 32.7846 20.9192 34.3656 20.9687 35.2449ZM23 25.8819V22H18.6386C18.8385 22.3737 19.0532 22.7257 19.2804 23.054C20.3775 24.6387 21.6825 25.5702 23 25.8819ZM25 25.8819V22H29.3614C29.1615 22.3737 28.9468 22.7257 28.7196 23.054C27.6225 24.6387 26.3175 25.5702 25 25.8819ZM25 20H30.2163C30.6199 18.7895 30.8858 17.4411 30.9707 16H25V20ZM30.6462 23.7659C30.9926 23.2182 31.307 22.6275 31.5852 22H32.4857C31.943 22.6571 31.3255 23.2501 30.6462 23.7659ZM32.3102 20H33.8006C34.4239 18.7807 34.8263 17.4298 34.9552 16H32.9738C32.8996 17.4079 32.6702 18.7531 32.3102 20ZM17.7837 20H23V16H17.0293C17.1142 17.4411 17.3801 18.7895 17.7837 20ZM15.0262 16C15.1004 17.4079 15.3298 18.7531 15.6898 20H14.1994C13.5761 18.7807 13.1737 17.4298 13.0448 16H15.0262ZM17.3538 23.7659C16.6745 23.2501 16.057 22.6571 15.5143 22H16.4148C16.693 22.6275 17.0074 23.2182 17.3538 23.7659ZM25 14H30.9707C30.8858 12.5589 30.6199 11.2105 30.2163 10H25V14ZM25 8V4.11811C26.3175 4.42981 27.6225 5.36132 28.7196 6.94603C28.9468 7.2743 29.1615 7.62634 29.3614 8L25 8ZM32.3102 10C32.6702 11.2469 32.8996 12.5921 32.9738 14H34.9552C34.8263 12.5702 34.4239 11.2193 33.8006 10H32.3102ZM32.4857 8H31.5852C31.307 7.3725 30.9926 6.78179 30.6462 6.23406C31.3255 6.74991 31.943 7.3429 32.4857 8ZM23 8L18.6386 8C18.8385 7.62634 19.0532 7.2743 19.2804 6.94603C20.3775 5.36132 21.6825 4.42981 23 4.11811V8ZM17.7837 10L23 10V14H17.0293C17.1142 12.5589 17.3801 11.2105 17.7837 10ZM16.4148 8C16.693 7.3725 17.0074 6.7818 17.3538 6.23407C16.6745 6.74991 16.057 7.3429 15.5143 8H16.4148ZM14.1994 10H15.6898C15.3298 11.2469 15.1004 12.5921 15.0262 14H13.0448C13.1737 12.5702 13.5761 11.2193 14.1994 10ZM37 15C37 7.8203 31.1797 2 24 2C16.8203 2 11 7.8203 11 15C11 22.1797 16.8203 28 24 28C31.1797 28 37 22.1797 37 15Z" fill="#333333"/>
</svg>
