<svg width="48" height="48" viewBox="0 0 48 48" fill="none" xmlns="http://www.w3.org/2000/svg">
<rect x="14" y="20" width="2" height="18" rx="1" fill="#333333"/>
<rect x="7" y="38" width="34" height="3" rx="1.5" stroke="#333333" stroke-width="2"/>
<path d="M30.368 20.212L33.573 17.884C33.9328 17.6207 34.3704 17.4855 34.816 17.5C35.3595 17.5136 35.8853 17.6961 36.3202 18.0223C36.7552 18.3485 37.0777 18.8021 37.243 19.32C37.429 19.903 37.599 20.297 37.753 20.502C38.2183 21.1228 38.8219 21.6266 39.5159 21.9734C40.2099 22.3203 40.9752 22.5005 41.751 22.5V24.5C40.7183 24.5011 39.6982 24.2733 38.7641 23.8329C37.83 23.3925 37.0052 22.7504 36.349 21.953L35.652 25.908L37.713 27.638L39.936 33.746L38.056 34.43L36.016 28.826L32.626 25.981C32.3478 25.7564 32.1349 25.4612 32.0095 25.1264C31.8841 24.7915 31.8508 24.4291 31.913 24.077L32.422 21.192L31.745 21.684L29.618 24.612L28 23.436L30.351 20.2L30.368 20.212ZM36.251 17C35.7206 17 35.2119 16.7893 34.8368 16.4142C34.4617 16.0391 34.251 15.5304 34.251 15C34.251 14.4696 34.4617 13.9609 34.8368 13.5858C35.2119 13.2107 35.7206 13 36.251 13C36.7814 13 37.2901 13.2107 37.6652 13.5858C38.0403 13.9609 38.251 14.4696 38.251 15C38.251 15.5304 38.0403 16.0391 37.6652 16.4142C37.2901 16.7893 36.7814 17 36.251 17ZM33.279 30.181L30.065 34.011L28.533 32.726L31.509 29.18L32.255 27L34.046 28.5L33.279 30.181Z" fill="#333333"/>
<mask id="path-4-inside-1" fill="white">
<path fill-rule="evenodd" clip-rule="evenodd" d="M20.847 16.3522C20.9471 15.9176 21 15.465 21 15C21 11.6863 18.3137 9 15 9C11.6863 9 9 11.6863 9 15C9 15.465 9.05289 15.9176 9.15299 16.3522C7.30578 17.0869 6 18.891 6 21C6 21.4948 6.07186 21.9727 6.20571 22.424C4.89758 23.0817 4 24.436 4 26C4 28.2091 5.79086 30 8 30H22C24.2091 30 26 28.2091 26 26C26 24.436 25.1024 23.0817 23.7943 22.424C23.9281 21.9727 24 21.4948 24 21C24 18.891 22.6942 17.0869 20.847 16.3522Z"/>
</mask>
<path d="M20.847 16.3522L18.898 15.9033L18.5127 17.5762L20.1078 18.2106L20.847 16.3522ZM9.15299 16.3522L9.89215 18.2106L11.4873 17.5762L11.102 15.9033L9.15299 16.3522ZM6.20571 22.424L7.10406 24.2109L8.59888 23.4594L8.12316 21.8554L6.20571 22.424ZM23.7943 22.424L21.8768 21.8554L21.4011 23.4594L22.8959 24.2109L23.7943 22.424ZM19 15C19 15.3129 18.9645 15.6149 18.898 15.9033L22.796 16.8011C22.9297 16.2203 23 15.6171 23 15H19ZM15 11C17.2091 11 19 12.7909 19 15H23C23 10.5817 19.4183 7 15 7V11ZM11 15C11 12.7909 12.7909 11 15 11V7C10.5817 7 7 10.5817 7 15H11ZM11.102 15.9033C11.0355 15.6149 11 15.3129 11 15H7C7 15.6171 7.07025 16.2203 7.20403 16.8011L11.102 15.9033ZM8 21C8 19.7377 8.78026 18.6529 9.89215 18.2106L8.41384 14.4938C5.83131 15.521 4 18.0442 4 21H8ZM8.12316 21.8554C8.04348 21.5867 8 21.3002 8 21H4C4 21.6893 4.10024 22.3588 4.28826 22.9927L8.12316 21.8554ZM6 26C6 25.2209 6.4451 24.5422 7.10406 24.2109L5.30736 20.6372C3.35006 21.6212 2 23.6511 2 26H6ZM8 28C6.89543 28 6 27.1046 6 26H2C2 29.3137 4.68629 32 8 32V28ZM22 28H8V32H22V28ZM24 26C24 27.1046 23.1046 28 22 28V32C25.3137 32 28 29.3137 28 26H24ZM22.8959 24.2109C23.5549 24.5422 24 25.2209 24 26H28C28 23.6511 26.6499 21.6212 24.6926 20.6372L22.8959 24.2109ZM22 21C22 21.3002 21.9565 21.5867 21.8768 21.8554L25.7117 22.9927C25.8998 22.3588 26 21.6893 26 21H22ZM20.1078 18.2106C21.2197 18.6529 22 19.7377 22 21H26C26 18.0442 24.1687 15.521 21.5862 14.4938L20.1078 18.2106Z" fill="#333333" mask="url(#path-4-inside-1)"/>
</svg>
