<svg width="48" height="48" viewBox="0 0 48 48" fill="none" xmlns="http://www.w3.org/2000/svg">
<path fill-rule="evenodd" clip-rule="evenodd" d="M9 18H11V28H37V18H39V28H40.5C40.7761 28 41 28.2239 41 28.5V29.5C41 29.7761 40.7761 30 40.5 30H7.5C7.22386 30 7 29.7761 7 29.5V28.5C7 28.2239 7.22386 28 7.5 28H9V18ZM10 33V40H38V33H10ZM9 31C8.44772 31 8 31.4477 8 32V41C8 41.5523 8.44772 42 9 42H39C39.5523 42 40 41.5523 40 41V32C40 31.4477 39.5523 31 39 31H9Z" fill="#333333"/>
<path fill-rule="evenodd" clip-rule="evenodd" d="M10.0819 7C9.72511 7 9.40627 7.22473 9.28367 7.56264L7.10349 13.5719C7.03503 13.7606 7 13.96 7 14.1609V16.551C7 17.9036 8.08731 19 9.42857 19C10.7698 19 11.8571 17.9036 11.8571 16.551C11.8571 17.9036 12.9445 19 14.2857 19C15.627 19 16.7143 17.9036 16.7143 16.551C16.7143 17.9036 17.8016 19 19.1429 19C20.4835 19 21.5703 17.9046 21.5714 16.553C21.5725 17.9046 22.6594 19 24 19C25.3413 19 26.4286 17.9036 26.4286 16.551C26.4286 17.9036 27.5159 19 28.8571 19C30.1977 19 31.2846 17.9046 31.2857 16.553C31.2868 17.9046 32.3737 19 33.7143 19C35.0555 19 36.1429 17.9036 36.1429 16.551C36.1429 17.9036 37.2302 19 38.5714 19C39.9127 19 41 17.9036 41 16.551V14.1609C41 13.96 40.965 13.7606 40.8965 13.5719L38.7163 7.56264C38.5937 7.22473 38.2749 7 37.9181 7H10.0819Z" stroke="#333333" stroke-width="2" stroke-linejoin="round"/>
<rect x="12" y="25" width="4" height="3" rx="0.5" fill="#333333"/>
<rect x="14" y="26" width="4" height="2" rx="0.5" fill="#333333"/>
<circle cx="20.5" cy="26.5" r="1.5" fill="#333333"/>
</svg>
