<svg width="48" height="48" viewBox="0 0 48 48" fill="none" xmlns="http://www.w3.org/2000/svg">
<path d="M33 11V17" stroke="#333333" stroke-width="2"/>
<path d="M36 14L30 14" stroke="#333333" stroke-width="2"/>
<path fill-rule="evenodd" clip-rule="evenodd" d="M37 13V10H29V13V15V16V18H37V16V15V13ZM5 13L27 13V10V8H29H37H39V10V13L43 13V15L39 15V16H40H42V18V37H44V39H42H40H37H35H31H29H8H6H4V37H6V18V16H8H27V15L5 15L5 13ZM27 20V18L8 18V37H29V25V23H31H35H37V25V37H40V18L39 18V20H37H29H27ZM24 25H13V31H24V25ZM11 25V31H10V33H11H13H24H26L27 33V31L26 31V25V23H24H13H11V25ZM31 37H35V25H31V37Z" fill="#333333"/>
<path d="M7 13V18" stroke="#333333" stroke-width="2"/>
<path d="M41 13V18" stroke="#333333" stroke-width="2"/>
</svg>
