<svg width="48" height="48" viewBox="0 0 48 48" fill="none" xmlns="http://www.w3.org/2000/svg">
<path fill-rule="evenodd" clip-rule="evenodd" d="M35.9711 28.9702C38.4428 26.7722 40 23.5679 40 20C40 13.3726 34.6274 8 28 8C24.4321 8 21.2278 9.55715 19.0298 12.0289C19.3507 12.0097 19.6742 12 20 12C28.8366 12 36 19.1634 36 28C36 28.3258 35.9903 28.6493 35.9711 28.9702ZM28 4C21.5112 4 15.9246 7.86265 13.414 13.414C7.86264 15.9246 4 21.5112 4 28C4 36.8366 11.1634 44 20 44C26.4888 44 32.0754 40.1374 34.586 34.586C40.1374 32.0754 44 26.4888 44 20C44 11.1634 36.8366 4 28 4ZM20 40C26.6274 40 32 34.6274 32 28C32 21.3726 26.6274 16 20 16C13.3726 16 8 21.3726 8 28C8 34.6274 13.3726 40 20 40ZM21.7113 20H18.2887V21.6C17.1765 21.5974 16.1071 21.9999 15.3068 22.7222C14.5067 23.4443 14.0388 24.4294 14.0023 25.4687C13.9658 26.508 14.3636 27.5197 15.1113 28.2894C15.8591 29.0591 16.8981 29.5263 18.0081 29.592L18.2887 29.6H21.7113L21.8653 29.6128C22.0626 29.6462 22.2411 29.7433 22.3696 29.8872C22.4981 30.031 22.5686 30.2126 22.5686 30.4C22.5686 30.5874 22.4981 30.769 22.3696 30.9128C22.2411 31.0567 22.0626 31.1538 21.8653 31.1872L21.7113 31.2H14.8661V34.4H18.2887V36H21.7113V34.4C22.8235 34.4026 23.8929 34.0001 24.6932 33.2778C25.4933 32.5557 25.9612 31.5706 25.9977 30.5313C26.0342 29.492 25.6364 28.4803 24.8887 27.7106C24.1409 26.9409 23.1019 26.4737 21.9919 26.408L21.7113 26.4H18.2887L18.1347 26.3872C17.9374 26.3538 17.7589 26.2567 17.6304 26.1128C17.5019 25.969 17.4314 25.7874 17.4314 25.6C17.4314 25.4126 17.5019 25.231 17.6304 25.0872C17.7589 24.9433 17.9374 24.8462 18.1347 24.8128L18.2887 24.8H25.1339V21.6H21.7113V20Z" fill="#333333"/>
</svg>
