<svg width="48" height="48" viewBox="0 0 48 48" fill="none" xmlns="http://www.w3.org/2000/svg">
<path d="M15.9925 12.9699C15.7159 13.4517 15.195 14.6799 15.325 15.7386C15.4875 17.062 16.48 16.9401 16.6425 18.2635C16.7725 19.3222 16.2516 20.5504 15.975 21.0322" stroke="#333333" stroke-width="2" stroke-linecap="round" stroke-linejoin="round"/>
<path d="M23.9925 12.9699C23.7159 13.4517 23.195 14.6799 23.325 15.7386C23.4875 17.062 24.48 16.9401 24.6425 18.2635C24.7725 19.3222 24.2516 20.5504 23.975 21.0322" stroke="#333333" stroke-width="2" stroke-linecap="round" stroke-linejoin="round"/>
<path d="M31.9925 12.9699C31.7159 13.4517 31.195 14.6799 31.325 15.7386C31.4875 17.062 32.48 16.9401 32.6425 18.2635C32.7725 19.3222 32.2516 20.5504 31.975 21.0322" stroke="#333333" stroke-width="2" stroke-linecap="round" stroke-linejoin="round"/>
<path d="M9 27H39V28C39 31.866 35.866 35 32 35H16C12.134 35 9 31.866 9 28V27Z" stroke="#333333" stroke-width="2"/>
<path d="M5 27L43 27" stroke="#333333" stroke-width="2" stroke-linecap="round"/>
</svg>
