<svg width="48" height="48" viewBox="0 0 48 48" fill="none" xmlns="http://www.w3.org/2000/svg">
<path fill-rule="evenodd" clip-rule="evenodd" d="M16.4906 12.1027C16.9695 12.3778 17.1347 12.989 16.8597 13.4679C16.7595 13.6424 16.5909 13.9985 16.4648 14.4229C16.3364 14.8546 16.2758 15.2774 16.3175 15.6167C16.3416 15.8132 16.3897 15.9176 16.4316 15.9868C16.4845 16.074 16.5524 16.1496 16.7046 16.308L16.7214 16.3254C16.8587 16.4681 17.0693 16.6868 17.246 16.9783C17.4409 17.2998 17.5779 17.6764 17.635 18.1416C17.7234 18.861 17.5885 19.5817 17.4197 20.1492C17.2488 20.724 17.0186 21.2229 16.8421 21.5302C16.567 22.0091 15.9558 22.1743 15.4769 21.8993C14.998 21.6242 14.8327 21.013 15.1078 20.5341C15.208 20.3596 15.3765 20.0035 15.5027 19.5792C15.6311 19.1474 15.6916 18.7247 15.6499 18.3853C15.6258 18.1889 15.5778 18.0844 15.5358 18.0152C15.483 17.9281 15.4151 17.8524 15.2628 17.694L15.2461 17.6766C15.1087 17.5339 14.8981 17.3152 14.7214 17.0237C14.5265 16.7023 14.3895 16.3256 14.3324 15.8604C14.2441 15.141 14.379 14.4203 14.5477 13.8529C14.7186 13.278 14.9489 12.7791 15.1254 12.4719C15.4004 11.9929 16.0116 11.8277 16.4906 12.1027ZM24.4906 12.1027C24.9695 12.3778 25.1347 12.989 24.8597 13.4679C24.7595 13.6424 24.5909 13.9985 24.4648 14.4229C24.3364 14.8546 24.2758 15.2774 24.3175 15.6167C24.3416 15.8132 24.3897 15.9176 24.4316 15.9868C24.4845 16.074 24.5524 16.1496 24.7046 16.308L24.7214 16.3254C24.8587 16.4681 25.0693 16.6868 25.246 16.9783C25.4409 17.2998 25.5779 17.6764 25.635 18.1416C25.7234 18.861 25.5885 19.5817 25.4197 20.1492C25.2488 20.724 25.0186 21.2229 24.8421 21.5302C24.567 22.0091 23.9558 22.1743 23.4769 21.8993C22.998 21.6242 22.8327 21.013 23.1078 20.5341C23.208 20.3596 23.3765 20.0035 23.5027 19.5792C23.6311 19.1474 23.6916 18.7247 23.6499 18.3853C23.6258 18.1889 23.5778 18.0844 23.5358 18.0152C23.483 17.9281 23.4151 17.8524 23.2628 17.694L23.2461 17.6766C23.1087 17.5339 22.8981 17.3152 22.7214 17.0237C22.5265 16.7023 22.3895 16.3256 22.3324 15.8604C22.2441 15.141 22.379 14.4203 22.5477 13.8529C22.7186 13.278 22.9489 12.7791 23.1254 12.4719C23.4004 11.9929 24.0116 11.8277 24.4906 12.1027ZM32.8597 13.4679C33.1347 12.989 32.9695 12.3778 32.4906 12.1027C32.0116 11.8277 31.4004 11.9929 31.1254 12.4719C30.9489 12.7791 30.7186 13.278 30.5477 13.8529C30.379 14.4203 30.2441 15.141 30.3324 15.8604C30.3895 16.3256 30.5265 16.7023 30.7214 17.0237C30.8981 17.3152 31.1087 17.5339 31.2461 17.6766L31.2628 17.694C31.4151 17.8524 31.483 17.9281 31.5358 18.0152C31.5778 18.0844 31.6258 18.1889 31.6499 18.3853C31.6916 18.7247 31.6311 19.1474 31.5027 19.5792C31.3765 20.0035 31.208 20.3596 31.1078 20.5341C30.8327 21.013 30.998 21.6242 31.4769 21.8993C31.9558 22.1743 32.567 22.0091 32.8421 21.5302C33.0186 21.2229 33.2488 20.724 33.4197 20.1492C33.5885 19.5817 33.7234 18.861 33.635 18.1416C33.5779 17.6764 33.4409 17.2998 33.246 16.9783C33.0693 16.6868 32.8587 16.4681 32.7214 16.3254L32.7046 16.308C32.5524 16.1496 32.4845 16.074 32.4316 15.9868C32.3897 15.9176 32.3416 15.8132 32.3175 15.6167C32.2758 15.2774 32.3364 14.8546 32.4648 14.4229C32.5909 13.9985 32.7595 13.6424 32.8597 13.4679ZM32 34.0001C35.3137 34.0001 38 31.3138 38 28.0001H10C10 31.3138 12.6863 34.0001 16 34.0001H32ZM8 28.0001H5C4.44772 28.0001 4 27.5524 4 27.0001C4 26.4478 4.44772 26.0001 5 26.0001H8H40H43C43.5523 26.0001 44 26.4478 44 27.0001C44 27.5524 43.5523 28.0001 43 28.0001H40C40 32.4184 36.4183 36.0001 32 36.0001H16C11.5817 36.0001 8 32.4184 8 28.0001Z" fill="#333333"/>
</svg>
