<svg width="48" height="48" viewBox="0 0 48 48" fill="none" xmlns="http://www.w3.org/2000/svg">
<path fill-rule="evenodd" clip-rule="evenodd" d="M40.8608 19.5137L37.1832 11.5456C37.4542 11.2998 37.6712 11.0004 37.8205 10.6664C37.9697 10.3323 38.048 9.97092 38.0503 9.60505C38.048 9.01126 37.8438 8.43592 37.4711 7.97366C37.0984 7.5114 36.5794 7.18974 35.9996 7.06161C35.4198 6.93348 34.8137 7.00649 34.2809 7.26865C33.7481 7.5308 33.3204 7.96648 33.0681 8.50402L14.2818 13.2797C13.8184 12.8811 13.2277 12.6614 12.6165 12.6604C12.0862 12.6568 11.5675 12.8154 11.1299 13.1149C10.6922 13.4144 10.3566 13.8405 10.1679 14.3361C9.97926 14.8317 9.94658 15.3732 10.0743 15.8879C10.202 16.4026 10.4839 16.866 10.8824 17.2159L7.18817 25.2178H7.11984L5.11984 25.2178C5.11984 25.9104 5.21373 26.5811 5.38946 27.2178C6.26471 30.389 9.17031 32.7178 12.6198 32.7178C16.0694 32.7178 18.975 30.389 19.8502 27.2178C20.0257 26.5819 20.1196 25.9121 20.1198 25.2205L20.1198 25.2178H18.1198H18.0505L14.3506 17.1746C14.7554 16.8117 15.0348 16.3299 15.1489 15.7983L21.934 14.078V35.2177H21.7963L12.6303 38.0667C12.3371 38.1595 12.0808 38.3425 11.8979 38.5897C11.715 38.8368 11.6149 39.1355 11.6118 39.4429V39.5393C11.5999 39.7328 11.629 39.9266 11.6973 40.1081C11.7655 40.2895 11.8713 40.4545 12.0077 40.5923C12.1442 40.73 12.3081 40.8374 12.489 40.9073C12.6698 40.9772 12.8633 41.0082 13.0569 40.9981H34.9261C35.1185 41.008 35.3108 40.9774 35.4906 40.9083C35.6704 40.8392 35.8337 40.7331 35.9699 40.5969C36.1061 40.4606 36.2122 40.2974 36.2814 40.1175C36.3505 39.9377 36.3811 39.7454 36.3712 39.553V39.4429C36.3691 39.1372 36.271 38.8398 36.0907 38.5929C35.9104 38.3459 35.6571 38.1618 35.3665 38.0667L26.2142 35.2177H26.0628V13.1972L33.3847 11.2566L33.6599 11.5456L29.9813 19.5137L29.5256 19.5137L27.5256 19.5137C27.5256 20.2063 27.6195 20.877 27.7952 21.5137C28.6704 24.6849 31.576 27.0137 35.0256 27.0137C38.4751 27.0137 41.3807 24.6849 42.256 21.5137C42.4315 20.8778 42.5253 20.208 42.5256 19.5164V19.5137H40.8608ZM38.6512 19.5137L35.4904 12.7017L32.2887 19.5137L35.9909 19.5137L38.6512 19.5137ZM13.5851 25.2178L15.7442 25.2178L12.6165 18.372L9.45893 25.2178L13.5851 25.2178ZM12.6198 30.7178C14.9518 30.7178 16.9448 29.2665 17.7449 27.2178L13.5733 27.2178L7.4948 27.2178C8.29489 29.2665 10.2879 30.7178 12.6198 30.7178ZM40.1506 21.5137C39.3506 23.5624 37.3576 25.0137 35.0256 25.0137C32.6936 25.0137 30.7006 23.5624 29.9005 21.5137L35.979 21.5137L40.1506 21.5137Z" fill="#333333"/>
</svg>
