<svg width="48" height="48" viewBox="0 0 48 48" fill="none" xmlns="http://www.w3.org/2000/svg">
<path d="M14.8007 14.6889L15.3559 14.1047L14.903 13.4381L11.4216 8.31308C13.8284 6.9783 18.6819 5 24.0433 5C29.3985 5 34.2021 6.97384 36.5788 8.30647L33.0702 13.4354L32.6069 14.1127L33.1807 14.6993C35.5006 17.0708 37.9276 20.073 39.7904 23.2338C41.6627 26.4106 42.9125 29.6588 42.9956 32.5435C43.0766 35.3574 42.0562 37.8515 39.2698 39.7138C36.4095 41.6257 31.6076 42.9236 24.0336 42.9968C16.4587 43.0701 11.6471 41.8643 8.7744 40.0071C5.97922 38.1999 4.93923 35.7255 5.0027 32.8978C5.06779 29.9982 6.30242 26.7059 8.16929 23.4644C10.0267 20.2394 12.4584 17.1535 14.8007 14.6889Z" stroke="#333333" stroke-width="2"/>
<path d="M22.2887 21H25.7113V22.6H29.1339V25.8H22.2887L22.1347 25.8128C21.9374 25.8462 21.7589 25.9433 21.6304 26.0872C21.5019 26.231 21.4314 26.4126 21.4314 26.6C21.4314 26.7874 21.5019 26.969 21.6304 27.1128C21.7589 27.2567 21.9374 27.3538 22.1347 27.3872L22.2887 27.4H25.7113L25.9919 27.408C27.1019 27.4737 28.1409 27.9409 28.8887 28.7106C29.6364 29.4803 30.0342 30.492 29.9977 31.5313C29.9612 32.5706 29.4933 33.5557 28.6932 34.2778C27.8929 35.0001 26.8235 35.4026 25.7113 35.4V37H22.2887V35.4H18.8661V32.2H25.7113L25.8653 32.1872C26.0626 32.1538 26.2411 32.0567 26.3696 31.9128C26.4981 31.769 26.5686 31.5874 26.5686 31.4C26.5686 31.2126 26.4981 31.031 26.3696 30.8872C26.2411 30.7433 26.0626 30.6462 25.8653 30.6128L25.7113 30.6H22.2887L22.0081 30.592C20.8981 30.5263 19.8591 30.0591 19.1113 29.2894C18.3636 28.5197 17.9658 27.508 18.0023 26.4687C18.0388 25.4294 18.5067 24.4443 19.3068 23.7222C20.1071 22.9999 21.1765 22.5974 22.2887 22.6V21Z" fill="#333333"/>
</svg>
