<svg width="48" height="48" viewBox="0 0 48 48" fill="none" xmlns="http://www.w3.org/2000/svg">
<path fill-rule="evenodd" clip-rule="evenodd" d="M34.9054 8.98148L31.5083 13.9475C26.796 15.685 21.1677 15.6842 16.4562 13.945L14.1488 10.5481C14.9191 10.7603 15.7147 10.9469 16.5223 11.0959C19.0865 11.569 21.8446 11.6771 24.3212 10.9606C27.9659 9.90622 31.7645 9.16855 34.9054 8.98148ZM32.695 15.6345C27.275 17.7878 20.7022 17.7885 15.2815 15.6365C13.0594 18.0103 10.7825 20.9307 9.03585 23.9635C7.20619 27.1403 6.06213 30.2614 6.00245 32.9202C5.946 35.4353 6.84175 37.5668 9.31733 39.1673C11.9479 40.868 16.5257 42.0694 24.024 41.9969C31.5202 41.9244 36.091 40.6357 38.7141 38.8825C41.1893 37.2281 42.068 35.0734 41.996 32.5723C41.9199 29.9295 40.7625 26.8526 38.9289 23.7416C37.175 20.7657 34.8987 17.9207 32.695 15.6345ZM16.8852 9.12906C15.7776 8.92471 14.6893 8.64286 13.662 8.31949C16.1968 7.19394 19.9743 6 24.0433 6C26.8626 6 29.5282 6.57325 31.733 7.2991C29.1492 7.66384 26.3919 8.27955 23.7654 9.03939C21.6987 9.63727 19.2829 9.57147 16.8852 9.12906ZM24.0433 4C19.0249 4 14.4518 5.65746 11.7469 7.01231C11.5031 7.13439 11.2746 7.25402 11.0622 7.36975C10.642 7.59878 10.2852 7.81256 10 8L14.0758 14C4.53174 24.0426 -6.56356 44.2926 24.0433 43.9968C54.6501 43.701 43.3574 23.6727 33.8956 14L38 8C37.5736 7.7157 36.9838 7.37078 36.2581 7.00403C36.2139 6.98167 36.1692 6.95924 36.1239 6.93673C33.4307 5.59663 28.9687 4 24.0433 4ZM25.7113 21H22.2887V22.6C21.1765 22.5974 20.1071 22.9999 19.3068 23.7222C18.5067 24.4443 18.0388 25.4294 18.0023 26.4687C17.9658 27.508 18.3636 28.5197 19.1113 29.2894C19.8591 30.0591 20.8981 30.5263 22.0081 30.592L22.2887 30.6H25.7113L25.8653 30.6128C26.0626 30.6462 26.2411 30.7433 26.3696 30.8872C26.4981 31.031 26.5686 31.2126 26.5686 31.4C26.5686 31.5874 26.4981 31.769 26.3696 31.9128C26.2411 32.0567 26.0626 32.1538 25.8653 32.1872L25.7113 32.2H18.8661V35.4H22.2887V37H25.7113V35.4C26.8235 35.4026 27.8929 35.0001 28.6932 34.2778C29.4933 33.5557 29.9612 32.5706 29.9977 31.5313C30.0342 30.492 29.6364 29.4803 28.8887 28.7106C28.1409 27.9409 27.1019 27.4737 25.9919 27.408L25.7113 27.4H22.2887L22.1347 27.3872C21.9374 27.3538 21.7589 27.2567 21.6304 27.1128C21.5019 26.969 21.4314 26.7874 21.4314 26.6C21.4314 26.4126 21.5019 26.231 21.6304 26.0872C21.7589 25.9433 21.9374 25.8462 22.1347 25.8128L22.2887 25.8H29.1339V22.6H25.7113V21Z" fill="#333333"/>
</svg>
