<svg width="48" height="48" viewBox="0 0 48 48" fill="none" xmlns="http://www.w3.org/2000/svg">
<path fill-rule="evenodd" clip-rule="evenodd" d="M18.707 4.69719C19.0975 4.30667 19.7306 4.30667 20.1212 4.69719L28.6065 13.1825C28.997 13.573 28.997 14.2062 28.6065 14.5967C28.2159 14.9872 27.5828 14.9872 27.1922 14.5967L18.707 6.1114C18.3164 5.72088 18.3164 5.08771 18.707 4.69719Z" fill="#333333"/>
<path fill-rule="evenodd" clip-rule="evenodd" d="M28.707 4.7068C29.0975 5.09733 29.0975 5.73049 28.707 6.12102L20.2217 14.6063C19.8311 14.9968 19.198 14.9968 18.8075 14.6063C18.4169 14.2158 18.4169 13.5826 18.8075 13.1921L27.2927 4.7068C27.6833 4.31628 28.3164 4.31628 28.707 4.7068Z" fill="#333333"/>
<path fill-rule="evenodd" clip-rule="evenodd" d="M24.3163 15.0513C24.1111 14.9829 23.8892 14.9829 23.684 15.0513L8.86864 19.9889C8.64615 20.063 8.46312 20.2102 8.34259 20.3985L4.39817 25.4613C4.19862 25.7175 4.13585 26.0545 4.22982 26.3653C4.32379 26.6761 4.56281 26.922 4.87084 27.0246L8.19337 28.1319L8.19607 36.7634C8.19648 38.0544 9.02269 39.2003 10.2474 39.6085L23.6292 44.0691C23.7477 44.1164 23.8739 44.1406 24.001 44.1405C24.1294 44.141 24.257 44.1168 24.3766 44.069L37.7578 39.6086C38.9828 39.2003 39.8091 38.054 39.8091 36.7628L39.8097 28.1328L43.1348 27.0246C43.4428 26.922 43.6818 26.6761 43.7758 26.3653C43.8698 26.0545 43.807 25.7175 43.6074 25.4613L39.6118 20.3327C39.4928 20.176 39.3275 20.0542 39.1316 19.9889L24.3163 15.0513ZM9.54353 22.1112L22.3461 26.378L19.6479 29.8413L6.84532 25.5745L9.54353 22.1112ZM24.0027 24.8203L35.6527 20.9376L24.0001 17.0541L12.3501 20.9367L24.0027 24.8203ZM10.1961 36.7628L10.1936 28.7986L19.6862 31.9622C20.0881 32.0962 20.5308 31.9623 20.7912 31.6281L23.0004 28.7924L23.0002 41.7513L10.8798 37.7112C10.4716 37.5751 10.1962 37.1931 10.1961 36.7628ZM37.8097 28.7993L28.3194 31.9622C27.9175 32.0962 27.4748 31.9623 27.2144 31.6281L25.0014 28.7876L25.005 41.7514L37.1254 37.7113C37.5337 37.5752 37.8091 37.1931 37.8091 36.7627L37.8097 28.7993ZM28.3577 29.8413L25.6584 26.3767L38.461 22.1099L41.1603 25.5745L28.3577 29.8413Z" fill="#333333"/>
<path d="M34.8162 33.5348L31.1029 34.9561C30.9782 35.0029 30.8659 35.1482 30.852 35.2806C30.8381 35.4131 30.9279 35.4825 31.0526 35.4357L34.7659 34.0144C34.8905 33.9676 35.0029 33.8223 35.0168 33.6899C35.0307 33.5574 34.9409 33.488 34.8162 33.5348Z" fill="#333333"/>
<path fill-rule="evenodd" clip-rule="evenodd" d="M35.0633 32.0995C35.9145 31.7803 36.5275 32.2544 36.4326 33.1585C36.3377 34.0625 35.5708 35.0542 34.7196 35.3735L28.7049 37.6581C27.8537 37.9774 27.2407 37.5033 27.3356 36.5992C27.4305 35.6951 28.1974 34.7034 29.0485 34.3842L35.0633 32.0995ZM28.2065 36.2729C28.2302 36.0469 28.4721 35.7801 28.7468 35.6771C29.0215 35.5741 29.2249 35.6738 29.2012 35.8998C29.1775 36.1258 28.9356 36.3926 28.6609 36.4956C28.3862 36.5986 28.1828 36.4989 28.2065 36.2729ZM29.7174 35.5334C29.5801 35.5849 29.4591 35.7183 29.4473 35.8313C29.4354 35.9443 29.5371 35.9942 29.6744 35.9427C29.8118 35.8912 29.9327 35.7578 29.9446 35.6448C29.9565 35.5318 29.8547 35.4819 29.7174 35.5334ZM34.7051 34.5931C35.1307 34.4334 35.5141 33.9376 35.5616 33.4855C35.609 33.0335 35.3025 32.7965 34.8769 32.9561L31.1637 34.3774C30.7381 34.5371 30.3546 35.0329 30.3072 35.485C30.2597 35.937 30.5663 36.1741 30.9918 36.0144L34.7051 34.5931Z" fill="#333333"/>
</svg>
