<svg width="48" height="48" viewBox="0 0 48 48" fill="none" xmlns="http://www.w3.org/2000/svg">
<path fill-rule="evenodd" clip-rule="evenodd" d="M5 41V21V11V5H7L7 11H10V9H17V7H10C9.44771 7 9 6.55228 9 6C9 5.44772 9.44771 5 10 5H26C26.5523 5 27 5.44772 27 6C27 6.55228 26.5523 7 26 7H19V9H26V11H30C35.5228 11 40 15.4772 40 21V24H42V32H28V24H30V23C30 21.8954 29.1046 21 28 21H26V23H10V21H7L7 41H5ZM26 19H28C30.2091 19 32 20.7909 32 23V24H38V21C38 16.5817 34.4183 13 30 13H26V19ZM30 26V30H40V26H30ZM24 11H12V21H24V11ZM10 19V13H7V19H10Z" fill="#333333"/>
<path fill-rule="evenodd" clip-rule="evenodd" d="M35 42C36.1046 42 37 41.1046 37 40C37 38.9336 36.3464 37.6298 35.4091 36.3996C35.272 36.2196 35.1345 36.0486 35 35.888C34.8655 36.0486 34.728 36.2196 34.5909 36.3996C33.6536 37.6298 33 38.9336 33 40C33 41.1046 33.8954 42 35 42ZM35 33C35 33 39 36.5 39 40C39 42.2091 37.2091 44 35 44C32.7909 44 31 42.2091 31 40C31 36.5 35 33 35 33ZM36.32 34.5025L36.32 34.5025L36.32 34.5025Z" fill="#333333"/>
</svg>
