<svg width="48" height="48" viewBox="0 0 48 48" fill="none" xmlns="http://www.w3.org/2000/svg">
<path fill-rule="evenodd" clip-rule="evenodd" d="M20.1213 4.69719C19.7308 4.30667 19.0976 4.30667 18.7071 4.69719C18.3166 5.08771 18.3166 5.72088 18.7071 6.1114L22.2977 9.702L18.8076 13.1921C18.4171 13.5826 18.4171 14.2158 18.8076 14.6063C19.1981 14.9968 19.8313 14.9968 20.2218 14.6063L23.7119 11.1162L27.1924 14.5967C27.5829 14.9872 28.216 14.9872 28.6066 14.5967C28.9971 14.2062 28.9971 13.573 28.6066 13.1825L25.1261 9.702L28.7071 6.12102C29.0976 5.73049 29.0976 5.09733 28.7071 4.7068C28.3166 4.31628 27.6834 4.31628 27.2929 4.7068L23.7119 8.28778L20.1213 4.69719ZM23.6838 15.0513C23.8891 14.9829 24.111 14.9829 24.3162 15.0513L39.1315 19.9889C39.3274 20.0542 39.4927 20.1761 39.6117 20.3327L43.6073 25.4613C43.8069 25.7175 43.8696 26.0545 43.7757 26.3653C43.6817 26.6761 43.4427 26.922 43.1346 27.0246L39.8096 28.1328L39.809 36.7628C39.8089 38.054 38.9827 39.2003 37.7577 39.6087L24.3765 44.069C24.2569 44.1169 24.1293 44.141 24.0009 44.1405C23.8738 44.1406 23.7475 44.1164 23.6291 44.0691L10.2473 39.6085C9.02257 39.2003 8.19636 38.0544 8.19595 36.7634L8.19325 28.1319L4.87072 27.0246C4.56269 26.922 4.32367 26.6761 4.2297 26.3653C4.13573 26.0545 4.1985 25.7175 4.39805 25.4613L8.34247 20.3985C8.463 20.2102 8.64603 20.063 8.86851 19.9889L23.6838 15.0513ZM22.346 26.378L9.54341 22.1112L6.8452 25.5745L19.6478 29.8413L22.346 26.378ZM35.6526 20.9376L24.0025 24.8203L12.35 20.9367L24 17.0541L35.6526 20.9376ZM10.1935 28.7986L10.196 36.7628C10.1961 37.1931 10.4715 37.5751 10.8797 37.7112L23.0001 41.7513L23.0003 28.7924L20.7911 31.6281C20.5307 31.9623 20.088 32.0962 19.686 31.9622L10.1935 28.7986ZM28.3193 31.9622L37.8095 28.7993L37.809 36.7627C37.809 37.1931 37.5336 37.5752 37.1252 37.7113L25.0049 41.7514L25.0013 28.7876L27.2143 31.6281C27.4747 31.9623 27.9174 32.0962 28.3193 31.9622ZM25.6583 26.3767L28.3576 29.8413L41.1602 25.5745L38.4609 22.1099L25.6583 26.3767Z" fill="#333333"/>
</svg>
