<svg width="48" height="48" viewBox="0 0 48 48" fill="none" xmlns="http://www.w3.org/2000/svg">
<path d="M12.5479 30.7532C1.68365 26.171 5.97125 10.7042 13.5129 8.14865C16.6415 7.08852 20.0937 10.6056 20.0716 12.7893C20.062 13.7335 19.5748 14.6541 19.0672 15.6132C18.4008 16.8725 17.6992 18.1982 17.9971 19.7308C18.522 22.4309 19.1099 26.9868 17.595 29.1494C16.0802 31.312 14.5568 31.6005 12.5479 30.7532Z" fill="#333333"/>
<path d="M34.3472 8.14865C41.8889 10.7042 46.1765 26.171 35.3123 30.7532C33.3033 31.6005 31.7799 31.312 30.2651 29.1494C28.7503 26.9868 29.3382 22.4309 29.863 19.7308C30.1609 18.1982 29.4593 16.8725 28.7929 15.6132C28.2853 14.6541 27.7981 13.7335 27.7885 12.7893C27.7664 10.6056 31.2187 7.08852 34.3472 8.14865Z" fill="#333333"/>
<path d="M28.618 22.7796C28.6866 23.7773 28.6872 23.7772 28.6878 23.7772L28.689 23.7771L28.6912 23.7769L28.6951 23.7766L28.7006 23.7762L28.7034 23.7759C28.7017 23.7761 28.6933 23.7771 28.679 23.7794C28.6502 23.784 28.6 23.7936 28.5356 23.8118C28.4045 23.849 28.2317 23.917 28.0625 24.0376C27.7728 24.2439 27.3468 24.7021 27.3468 25.8583V40.3244C27.3468 40.3245 27.3468 40.3245 26.3468 40.3245C25.3468 40.3245 25.3468 40.3241 25.3468 40.324V25.8583C25.3468 24.0919 26.0564 23.0108 26.9023 22.4084C27.3009 22.1246 27.6958 21.971 27.9906 21.8875C28.1392 21.8454 28.2663 21.82 28.3618 21.8047C28.4096 21.797 28.45 21.7918 28.4815 21.7883C28.4973 21.7865 28.511 21.7851 28.5223 21.7841L28.5376 21.7828L28.5439 21.7824L28.5468 21.7822L28.5481 21.7821C28.5488 21.782 28.5494 21.782 28.618 22.7796Z" fill="#333333"/>
<path d="M19.2421 22.7796C19.1735 23.7773 19.1729 23.7772 19.1723 23.7772L19.1711 23.7771L19.1689 23.7769L19.1651 23.7766L19.1595 23.7762C19.1576 23.776 19.1565 23.7759 19.1564 23.7759C19.1581 23.7761 19.1668 23.7771 19.1811 23.7794C19.2099 23.784 19.2601 23.7936 19.3245 23.8118C19.4556 23.849 19.6284 23.917 19.7977 24.0376C20.0874 24.2439 20.5133 24.7021 20.5133 25.8583V40.3244C20.5133 40.3245 20.5133 40.3245 21.5133 40.3245C22.5133 40.3245 22.5133 40.3241 22.5133 40.324V25.8583C22.5133 24.0919 21.8037 23.0108 20.9578 22.4084C20.5593 22.1246 20.1643 21.971 19.8695 21.8875C19.721 21.8454 19.5938 21.82 19.4984 21.8047C19.4505 21.797 19.4102 21.7918 19.3786 21.7883C19.3628 21.7865 19.3492 21.7851 19.3378 21.7841L19.3225 21.7828L19.3162 21.7824L19.3133 21.7822L19.312 21.7821C19.3114 21.782 19.3107 21.782 19.2421 22.7796Z" fill="#333333"/>
</svg>
