<svg width="48" height="48" viewBox="0 0 48 48" fill="none" xmlns="http://www.w3.org/2000/svg">
<path d="M16.542 11.991C22.3921 11.9958 21.8537 19.9527 21.8511 23.1357C21.8478 27.198 22.8451 35.3972 19.7112 38.5181C16.5177 41.6984 10.1346 43.2846 6.94588 40.6296C3.75714 37.9745 9.09664 11.9849 16.542 11.991Z" fill="#333333"/>
<path d="M31.4826 12.0033C25.6325 11.9986 26.158 19.9563 26.1553 23.1393C26.152 27.2016 25.1412 35.3992 28.27 38.5252C31.4583 41.7107 37.8388 43.3074 41.0318 40.6576C44.2249 38.0078 38.928 12.0094 31.4826 12.0033Z" fill="#333333"/>
<path fill-rule="evenodd" clip-rule="evenodd" d="M23.0174 5.99933C23.0174 5.99925 23.0174 5.9992 24.0174 6.00002C25.0174 6.00084 25.0174 6.00089 25.0174 6.00097L25.0055 20.4939C25.0038 22.5952 24.0675 23.7996 23.0073 24.417C22.5099 24.7067 22.0215 24.847 21.6633 24.9164C21.4823 24.9514 21.3288 24.9695 21.2158 24.9788C21.1592 24.9835 21.1122 24.986 21.0765 24.9874C21.0586 24.988 21.0435 24.9884 21.0314 24.9886L21.0154 24.9889L21.0091 24.9889L21.0064 24.9889L21.0051 24.9889C21.0045 24.9889 21.004 24.9889 21.0048 23.9889C21.0056 22.9889 21.005 22.9889 21.0045 22.9889L21.0034 22.9889L21.0015 22.9889L20.9985 22.9889L20.9954 22.989C20.9959 22.989 20.9975 22.9889 21.0004 22.9888C21.0086 22.9885 21.026 22.9877 21.0513 22.9856C21.1023 22.9814 21.183 22.9722 21.2831 22.9529C21.4872 22.9134 21.7484 22.8357 22.0008 22.6887C22.4404 22.4327 23.0044 21.8892 23.0055 20.4922L23.0174 5.99933Z" fill="#333333"/>
<path fill-rule="evenodd" clip-rule="evenodd" d="M25.0174 6.00092C25.0174 6.00084 25.0174 6.0008 24.0174 5.99998C23.0174 5.99916 23.0174 5.9992 23.0174 5.99928L23.0056 20.4922C23.0039 22.5935 23.9382 23.7994 24.9974 24.4186C25.4943 24.709 25.9825 24.8502 26.3405 24.9202C26.5215 24.9555 26.675 24.9738 26.7879 24.9833C26.8446 24.9881 26.8916 24.9907 26.9273 24.9921C26.9451 24.9928 26.9602 24.9932 26.9724 24.9935L26.9884 24.9937L26.9947 24.9938L26.9974 24.9938L26.9986 24.9938C26.9992 24.9938 26.9998 24.9938 27.0006 23.9938C27.0014 22.9938 27.002 22.9938 27.0026 22.9938L27.0036 22.9938L27.0055 22.9938L27.0085 22.9938L27.0117 22.9938C27.0125 22.9939 27.0107 22.9938 27.0066 22.9937C26.9984 22.9933 26.981 22.9925 26.9557 22.9904C26.9047 22.9861 26.824 22.9768 26.724 22.9573C26.52 22.9174 26.2589 22.8394 26.0067 22.6919C25.5676 22.4353 25.0044 21.8908 25.0056 20.4938L25.0174 6.00092Z" fill="#333333"/>
</svg>
