<svg width="48" height="48" viewBox="0 0 48 48" fill="none" xmlns="http://www.w3.org/2000/svg">
<path d="M33 8C33 7.44771 33.4477 7 34 7H40C40.5523 7 41 7.44771 41 8V40C41 40.5523 40.5523 41 40 41H34C33.4477 41 33 40.5523 33 40V8Z" stroke="#333333" stroke-width="2"/>
<path d="M20 20C20 19.4477 20.4477 19 21 19H27C27.5523 19 28 19.4477 28 20V40C28 40.5523 27.5523 41 27 41H21C20.4477 41 20 40.5523 20 40V20Z" stroke="#333333" stroke-width="2"/>
<path d="M7 32C7 31.4477 7.44771 31 8 31H14C14.5523 31 15 31.4477 15 32V40C15 40.5523 14.5523 41 14 41H8C7.44771 41 7 40.5523 7 40V32Z" stroke="#333333" stroke-width="2"/>
<line x1="7.29289" y1="37.2929" x2="13.6569" y2="30.9289" stroke="#333333" stroke-width="2"/>
<line x1="8.29289" y1="41.2929" x2="15.364" y2="34.2218" stroke="#333333" stroke-width="2"/>
</svg>
