<svg width="48" height="48" viewBox="0 0 48 48" fill="none" xmlns="http://www.w3.org/2000/svg">
<path fill-rule="evenodd" clip-rule="evenodd" d="M34 8H40V40H34V8ZM32 8C32 6.89543 32.8954 6 34 6H40C41.1046 6 42 6.89543 42 8V40C42 41.1046 41.1046 42 40 42H34C32.8954 42 32 41.1046 32 40V8ZM21 20H27V40H21V20ZM21 18C19.8954 18 19 18.8954 19 20V40C19 41.1046 19.8954 42 21 42H27C28.1046 42 29 41.1046 29 40V20C29 18.8954 28.1046 18 27 18H21ZM6 32C6 30.8954 6.89543 30 8 30H14C15.1046 30 16 30.8954 16 32V40C16 41.1046 15.1046 42 14 42H8C6.89543 42 6 41.1046 6 40V32Z" fill="#333333"/>
</svg>
