<svg width="48" height="48" viewBox="0 0 48 48" fill="none" xmlns="http://www.w3.org/2000/svg">
<path fill-rule="evenodd" clip-rule="evenodd" d="M21.8534 16.0013C21.9785 16.279 22.1589 16.5289 22.3838 16.7361C22.8178 17.136 23.3917 17.3536 23.9848 17.3433C24.5779 17.333 25.1437 17.0954 25.5632 16.6807C25.9826 16.2659 26.2228 15.7064 26.2333 15.12C26.2438 14.5335 26.0236 13.966 25.6193 13.5369C25.4097 13.3145 25.1569 13.1361 24.8761 13.0124C24.5953 12.8886 24.2922 12.8221 23.9848 12.8168C23.6774 12.8114 23.3721 12.8673 23.0871 12.9812C22.802 13.095 22.5431 13.2645 22.3257 13.4794C22.1083 13.6944 21.9369 13.9504 21.8218 14.2323C21.7067 14.5141 21.6501 14.816 21.6555 15.12C21.661 15.4239 21.7282 15.7236 21.8534 16.0013ZM15.9068 7.13535L13.7473 5C12.4007 6.33127 11.3326 7.91178 10.6038 9.65127C9.87508 11.3908 9.5 13.2552 9.5 15.138C9.5 17.0208 9.87508 18.8852 10.6038 20.6247C11.3326 22.3642 12.4007 23.9447 13.7473 25.276L15.9068 23.1407C13.7605 21.0181 12.5547 18.1395 12.5547 15.138C12.5547 12.1365 13.7605 9.25787 15.9068 7.13535ZM37.3962 9.65127C36.6674 7.91178 35.5993 6.33127 34.2527 5L32.0932 7.13535C34.2395 9.25787 35.4453 12.1365 35.4453 15.138C35.4453 18.1395 34.2395 21.0181 32.0932 23.1407L34.2527 25.276C35.5993 23.9447 36.6674 22.3642 37.3962 20.6247C38.1249 18.8852 38.5 17.0208 38.5 15.138C38.5 13.2552 38.1249 11.3908 37.3962 9.65127ZM20.2228 11.4015L18.0648 9.26768C16.4907 10.8242 15.6064 12.9353 15.6064 15.1365C15.6064 17.3377 16.4907 19.4488 18.0648 21.0053L20.2228 18.8715C19.7267 18.381 19.3332 17.7987 19.0647 17.1579C18.7962 16.517 18.6581 15.8302 18.6581 15.1365C18.6581 14.4428 18.7962 13.756 19.0647 13.1151C19.3332 12.4743 19.7267 11.892 20.2228 11.4015ZM32.3936 15.1365C32.3936 12.9353 31.5093 10.8242 29.9352 9.26768L27.7772 11.4015C28.2733 11.892 28.6668 12.4743 28.9353 13.1151C29.2038 13.756 29.3419 14.4428 29.3419 15.1365C29.3419 15.8302 29.2038 16.517 28.9353 17.1579C28.6668 17.7987 28.2733 18.381 27.7772 18.8715L29.9352 21.0053C31.5093 19.4488 32.3936 17.3377 32.3936 15.1365ZM36 28.5H12C11.1716 28.5 10.5 29.1716 10.5 30V40C10.5 40.8284 11.1716 41.5 12 41.5H36C36.8284 41.5 37.5 40.8284 37.5 40V30C37.5 29.1716 36.8284 28.5 36 28.5ZM12 27C10.3431 27 9 28.3431 9 30V40C9 41.6569 10.3431 43 12 43H36C37.6569 43 39 41.6569 39 40V30C39 28.3431 37.6569 27 36 27H12ZM32.1435 38.7422C31.7743 39.1842 31.2525 39.5283 30.578 39.7744C29.9036 40.0159 29.1562 40.1367 28.3358 40.1367C27.4745 40.1367 26.718 39.9499 26.0663 39.5762C25.4192 39.1979 24.9179 38.651 24.5624 37.9355C24.2115 37.2201 24.0315 36.3792 24.0224 35.4131V34.7363C24.0224 33.7428 24.1887 32.8838 24.5214 32.1592C24.8586 31.43 25.3417 30.874 25.9706 30.4912C26.6041 30.1038 27.3446 29.9102 28.1923 29.9102C29.3726 29.9102 30.2955 30.1927 30.9608 30.7578C31.6262 31.3184 32.0204 32.1364 32.1435 33.2119H30.1474C30.0562 32.6423 29.8534 32.2253 29.539 31.9609C29.2291 31.6966 28.8007 31.5645 28.2538 31.5645C27.5565 31.5645 27.0256 31.8265 26.661 32.3506C26.2965 32.8747 26.1119 33.654 26.1073 34.6885V35.3242C26.1073 36.3678 26.3056 37.1562 26.7021 37.6895C27.0985 38.2227 27.6796 38.4893 28.4452 38.4893C29.2154 38.4893 29.7646 38.3252 30.0927 37.9971V36.2812H28.2265V34.7705H32.1435V38.7422ZM21.8622 36.2539H22.9901V37.8467H21.8622V40H19.8866V37.8467H15.8056L15.7167 36.6025L19.8661 30.0469H21.8622V36.2539ZM17.6855 36.2539H19.8866V32.7402L19.7567 32.9658L17.6855 36.2539Z" fill="#333333"/>
</svg>
