<svg width="48" height="48" viewBox="0 0 48 48" fill="none" xmlns="http://www.w3.org/2000/svg">
<path d="M23.1033 5.81699C23.4701 5.07374 24.5299 5.07374 24.8967 5.81699L29.6452 15.4384C29.7908 15.7335 30.0724 15.9381 30.3981 15.9854L41.016 17.5283C41.8362 17.6475 42.1637 18.6554 41.5702 19.234L33.887 26.7232C33.6513 26.9529 33.5438 27.2839 33.5994 27.6083L35.4132 38.1833C35.5533 39.0002 34.6959 39.6231 33.9622 39.2375L24.4653 34.2446C24.174 34.0915 23.826 34.0915 23.5347 34.2446L14.0378 39.2375C13.3041 39.6231 12.4467 39.0002 12.5868 38.1833L14.4006 27.6083C14.4562 27.2839 14.3487 26.9529 14.113 26.7232L6.42982 19.234C5.8363 18.6554 6.16381 17.6475 6.98403 17.5283L17.6019 15.9854C17.9276 15.9381 18.2092 15.7335 18.3548 15.4384L23.1033 5.81699Z" fill="#333333"/>
</svg>
