<svg width="48" height="48" viewBox="0 0 48 48" fill="none" xmlns="http://www.w3.org/2000/svg">
<path d="M24 41H8L16 25L24 9L32 25L40 41H24Z" fill="#333333"/>
<path fill-rule="evenodd" clip-rule="evenodd" d="M24 8C24.3788 8 24.725 8.214 24.8944 8.55279L40.8944 40.5528C41.0494 40.8628 41.0329 41.2309 40.8506 41.5257C40.6684 41.8205 40.3466 42 40 42H8C7.65342 42 7.33156 41.8205 7.14935 41.5257C6.96714 41.2309 6.95058 40.8628 7.10557 40.5528L23.1056 8.55279C23.275 8.214 23.6212 8 24 8ZM24 11.2361L9.61803 40H38.382L24 11.2361Z" fill="#333333"/>
</svg>
