<svg width="48" height="48" viewBox="0 0 48 48" fill="none" xmlns="http://www.w3.org/2000/svg">
<path d="M24 37H12L18 25L24 13L30 25L36 37H24Z" fill="#333333"/>
<path fill-rule="evenodd" clip-rule="evenodd" d="M24 12C24.3788 12 24.725 12.214 24.8944 12.5528L36.8944 36.5528C37.0494 36.8628 37.0329 37.2309 36.8507 37.5257C36.6684 37.8205 36.3466 38 36 38H12C11.6534 38 11.3316 37.8205 11.1494 37.5257C10.9671 37.2309 10.9506 36.8628 11.1056 36.5528L23.1056 12.5528C23.275 12.214 23.6212 12 24 12ZM24 15.2361L13.618 36H34.382L24 15.2361Z" fill="#333333"/>
</svg>
