<svg width="48" height="48" viewBox="0 0 48 48" fill="none" xmlns="http://www.w3.org/2000/svg">
<path fill-rule="evenodd" clip-rule="evenodd" d="M48 0H0V48H48V0ZM34 6C32.8954 6 32 6.89543 32 8V40C32 41.1046 32.8954 42 34 42H40C41.1046 42 42 41.1046 42 40V8C42 6.89543 41.1046 6 40 6H34ZM19 20C19 18.8954 19.8954 18 21 18H27C28.1046 18 29 18.8954 29 20V40C29 41.1046 28.1046 42 27 42H21C19.8954 42 19 41.1046 19 40V20ZM6 32C6 30.8954 6.89543 30 8 30H14C15.1046 30 16 30.8954 16 32V40C16 41.1046 15.1046 42 14 42H8C6.89543 42 6 41.1046 6 40V32Z" fill="#333333"/>
</svg>
