<svg width="48" height="48" viewBox="0 0 48 48" fill="none" xmlns="http://www.w3.org/2000/svg">
<path fill-rule="evenodd" clip-rule="evenodd" d="M48 0H0V48H48V0ZM34 6C32.8954 6 32 6.89543 32 8V40C32 41.1046 32.8954 42 34 42H40C41.1046 42 42 41.1046 42 40V8C42 6.89543 41.1046 6 40 6H34ZM21 18C19.8954 18 19 18.8954 19 20V40C19 41.1046 19.8954 42 21 42H27C28.1046 42 29 41.1046 29 40V20C29 18.8954 28.1046 18 27 18H21ZM8 30C6.89543 30 6 30.8954 6 32V40C6 41.1046 6.89543 42 8 42H14C15.1046 42 16 41.1046 16 40V32C16 30.8954 15.1046 30 14 30H8Z" fill="#333333"/>
</svg>
