<svg width="48" height="48" viewBox="0 0 48 48" fill="none" xmlns="http://www.w3.org/2000/svg">
<path fill-rule="evenodd" clip-rule="evenodd" d="M48 0H0V48H48V0ZM40 8H34V40H40V8ZM34 6C32.8954 6 32 6.89543 32 8V40C32 41.1046 32.8954 42 34 42H40C41.1046 42 42 41.1046 42 40V8C42 6.89543 41.1046 6 40 6H34ZM27 20H21V40H27V20ZM19 20C19 18.8954 19.8954 18 21 18H27C28.1046 18 29 18.8954 29 20V40C29 41.1046 28.1046 42 27 42H21C19.8954 42 19 41.1046 19 40V20ZM8 30C6.89543 30 6 30.8954 6 32V40C6 41.1046 6.89543 42 8 42H14C15.1046 42 16 41.1046 16 40V32C16 30.8954 15.1046 30 14 30H8Z" fill="#333333"/>
</svg>
