<svg width="48" height="48" viewBox="0 0 48 48" fill="none" xmlns="http://www.w3.org/2000/svg">
<path fill-rule="evenodd" clip-rule="evenodd" d="M48 0H0V48H48V0ZM22.3838 16.9041C22.1589 16.6969 21.9785 16.4469 21.8534 16.1693C21.7282 15.8916 21.661 15.5919 21.6555 15.2879C21.6501 14.984 21.7067 14.6821 21.8218 14.4002C21.9369 14.1184 22.1083 13.8623 22.3257 13.6474C22.5431 13.4324 22.802 13.263 23.0871 13.1491C23.3721 13.0353 23.6774 12.9794 23.9848 12.9847C24.2922 12.9901 24.5953 13.0566 24.8761 13.1803C25.1569 13.3041 25.4097 13.4824 25.6193 13.7048C26.0236 14.1339 26.2438 14.7015 26.2333 15.2879C26.2228 15.8744 25.9826 16.4339 25.5632 16.8486C25.1437 17.2634 24.5779 17.5009 23.9848 17.5113C23.3917 17.5216 22.8178 17.3039 22.3838 16.9041ZM13.7473 5.16797L15.9068 7.30332C13.7605 9.42584 12.5547 12.3044 12.5547 15.306C12.5547 18.3075 13.7605 21.1861 15.9068 23.3086L13.7473 25.444C12.4007 24.1127 11.3326 22.5322 10.6038 20.7927C9.87508 19.0532 9.5 17.1888 9.5 15.306C9.5 13.4231 9.87508 11.5587 10.6038 9.81924C11.3326 8.07975 12.4007 6.49924 13.7473 5.16797ZM34.2527 5.16797C35.5993 6.49924 36.6674 8.07975 37.3962 9.81924C38.1249 11.5587 38.5 13.4231 38.5 15.306C38.5 17.1888 38.1249 19.0532 37.3962 20.7927C36.6674 22.5322 35.5993 24.1127 34.2527 25.444L32.0932 23.3086C34.2395 21.1861 35.4453 18.3075 35.4453 15.306C35.4453 12.3044 34.2395 9.42584 32.0932 7.30332L34.2527 5.16797ZM18.0648 9.43565L20.2228 11.5695C19.7267 12.06 19.3332 12.6422 19.0647 13.2831C18.7962 13.9239 18.6581 14.6108 18.6581 15.3045C18.6581 15.9981 18.7962 16.685 19.0647 17.3258C19.3332 17.9667 19.7267 18.549 20.2228 19.0394L18.0648 21.1733C16.4907 19.6167 15.6064 17.5057 15.6064 15.3045C15.6064 13.1032 16.4907 10.9922 18.0648 9.43565ZM29.9352 9.43565C31.5093 10.9922 32.3936 13.1032 32.3936 15.3045C32.3936 17.5057 31.5093 19.6167 29.9352 21.1733L27.7772 19.0394C28.2733 18.549 28.6668 17.9667 28.9353 17.3258C29.2038 16.685 29.3419 15.9981 29.3419 15.3045C29.3419 14.6108 29.2038 13.9239 28.9353 13.2831C28.6668 12.6422 28.2733 12.06 27.7772 11.5695L29.9352 9.43565ZM12 27.168C10.3431 27.168 9 28.5111 9 30.168V40.168C9 41.8248 10.3431 43.168 12 43.168H36C37.6569 43.168 39 41.8248 39 40.168V30.168C39 28.5111 37.6569 27.168 36 27.168H12ZM30.4771 39.9424C31.1515 39.6963 31.6733 39.3522 32.0425 38.9102V34.9385H28.1255V36.4492H29.9917V38.165C29.6636 38.4932 29.1144 38.6572 28.3442 38.6572C27.5786 38.6572 26.9976 38.3906 26.6011 37.8574C26.2046 37.3242 26.0063 36.5358 26.0063 35.4922V34.8564C26.0109 33.8219 26.1955 33.0426 26.5601 32.5186C26.9246 31.9945 27.4556 31.7324 28.1528 31.7324C28.6997 31.7324 29.1281 31.8646 29.438 32.1289C29.7524 32.3932 29.9552 32.8102 30.0464 33.3799H32.0425C31.9194 32.3044 31.5252 31.4863 30.8599 30.9258C30.1945 30.3607 29.2716 30.0781 28.0913 30.0781C27.2437 30.0781 26.5031 30.2718 25.8696 30.6592C25.2407 31.042 24.7576 31.598 24.4204 32.3271C24.0877 33.0518 23.9214 33.9108 23.9214 34.9043V35.5811C23.9305 36.5472 24.1105 37.388 24.4614 38.1035C24.8169 38.819 25.3182 39.3659 25.9653 39.7441C26.617 40.1178 27.3735 40.3047 28.2349 40.3047C29.0552 40.3047 29.8026 40.1839 30.4771 39.9424ZM16.7847 30.2148L16.2104 35.2734L17.7827 35.6631L17.9741 35.4854C18.2658 35.2393 18.6463 35.1162 19.1157 35.1162C19.6261 35.1162 20.0203 35.2666 20.2983 35.5674C20.5763 35.8682 20.7153 36.3011 20.7153 36.8662C20.7153 37.4541 20.5946 37.9098 20.353 38.2334C20.1115 38.5524 19.7674 38.7119 19.3208 38.7119C18.9198 38.7119 18.5939 38.598 18.3433 38.3701C18.0972 38.1377 17.9536 37.8141 17.9126 37.3994H15.9575C15.9757 37.9645 16.133 38.4681 16.4292 38.9102C16.73 39.3522 17.1379 39.6963 17.6528 39.9424C18.1678 40.1839 18.7261 40.3047 19.3276 40.3047C20.0158 40.3047 20.6128 40.1657 21.1187 39.8877C21.6245 39.6051 22.0119 39.2109 22.2808 38.7051C22.5542 38.1947 22.6909 37.6182 22.6909 36.9756C22.6909 35.9183 22.422 35.0957 21.8843 34.5078C21.3465 33.9199 20.6037 33.626 19.6558 33.626C19.1271 33.626 18.6281 33.7513 18.1587 34.002L18.4048 31.8623H22.3628V30.2148H16.7847Z" fill="#333333"/>
</svg>
