<svg width="48" height="48" viewBox="0 0 48 48" fill="none" xmlns="http://www.w3.org/2000/svg">
<path fill-rule="evenodd" clip-rule="evenodd" d="M48 0H0V48H48V0ZM22.3838 16.7361C22.1589 16.5289 21.9785 16.279 21.8534 16.0013C21.7282 15.7236 21.661 15.4239 21.6555 15.12C21.6501 14.816 21.7067 14.5141 21.8218 14.2323C21.9369 13.9504 22.1083 13.6944 22.3257 13.4794C22.5431 13.2645 22.802 13.095 23.0871 12.9812C23.3721 12.8673 23.6774 12.8114 23.9848 12.8168C24.2922 12.8221 24.5953 12.8886 24.8761 13.0124C25.1569 13.1361 25.4097 13.3145 25.6193 13.5369C26.0236 13.966 26.2438 14.5335 26.2333 15.12C26.2228 15.7064 25.9826 16.2659 25.5632 16.6807C25.1437 17.0954 24.5779 17.333 23.9848 17.3433C23.3917 17.3536 22.8178 17.136 22.3838 16.7361ZM13.7473 5L15.9068 7.13535C13.7605 9.25787 12.5547 12.1365 12.5547 15.138C12.5547 18.1395 13.7605 21.0181 15.9068 23.1407L13.7473 25.276C12.4007 23.9447 11.3326 22.3642 10.6038 20.6247C9.87508 18.8852 9.5 17.0208 9.5 15.138C9.5 13.2552 9.87508 11.3908 10.6038 9.65127C11.3326 7.91178 12.4007 6.33127 13.7473 5ZM34.2527 5C35.5993 6.33127 36.6674 7.91178 37.3962 9.65127C38.1249 11.3908 38.5 13.2552 38.5 15.138C38.5 17.0208 38.1249 18.8852 37.3962 20.6247C36.6674 22.3642 35.5993 23.9447 34.2527 25.276L32.0932 23.1407C34.2395 21.0181 35.4453 18.1395 35.4453 15.138C35.4453 12.1365 34.2395 9.25787 32.0932 7.13535L34.2527 5ZM18.0648 9.26768L20.2228 11.4015C19.7267 11.892 19.3332 12.4743 19.0647 13.1151C18.7962 13.756 18.6581 14.4428 18.6581 15.1365C18.6581 15.8302 18.7962 16.517 19.0647 17.1579C19.3332 17.7987 19.7267 18.381 20.2228 18.8715L18.0648 21.0053C16.4907 19.4488 15.6064 17.3377 15.6064 15.1365C15.6064 12.9353 16.4907 10.8242 18.0648 9.26768ZM29.9352 9.26768C31.5093 10.8242 32.3936 12.9353 32.3936 15.1365C32.3936 17.3377 31.5093 19.4488 29.9352 21.0053L27.7772 18.8715C28.2733 18.381 28.6668 17.7987 28.9353 17.1579C29.2038 16.517 29.3419 15.8302 29.3419 15.1365C29.3419 14.4428 29.2038 13.756 28.9353 13.1151C28.6668 12.4743 28.2733 11.892 27.7772 11.4015L29.9352 9.26768ZM12 27C10.3431 27 9 28.3431 9 30V40C9 41.6569 10.3431 43 12 43H36C37.6569 43 39 41.6569 39 40V30C39 28.3431 37.6569 27 36 27H12ZM30.578 39.7744C31.2525 39.5283 31.7743 39.1842 32.1434 38.7422V34.7705H28.2264V36.2812H30.0927V37.9971C29.7645 38.3252 29.2154 38.4893 28.4452 38.4893C27.6796 38.4893 27.0985 38.2227 26.702 37.6895C26.3055 37.1562 26.1073 36.3678 26.1073 35.3242V34.6885C26.1119 33.654 26.2964 32.8747 26.661 32.3506C27.0256 31.8265 27.5565 31.5645 28.2538 31.5645C28.8007 31.5645 29.229 31.6966 29.5389 31.9609C29.8534 32.2253 30.0562 32.6423 30.1473 33.2119H32.1434C32.0204 32.1364 31.6262 31.3184 30.9608 30.7578C30.2955 30.1927 29.3726 29.9102 28.1923 29.9102C27.3446 29.9102 26.604 30.1038 25.9706 30.4912C25.3417 30.874 24.8586 31.43 24.5214 32.1592C24.1887 32.8838 24.0223 33.7428 24.0223 34.7363V35.4131C24.0315 36.3792 24.2115 37.2201 24.5624 37.9355C24.9178 38.651 25.4191 39.1979 26.0663 39.5762C26.718 39.9499 27.4745 40.1367 28.3358 40.1367C29.1561 40.1367 29.9035 40.0159 30.578 39.7744ZM22.9901 36.2539H21.8622V30.0469H19.8661L15.7167 36.6025L15.8055 37.8467H19.8866V40H21.8622V37.8467H22.9901V36.2539ZM19.8866 36.2539H17.6854L19.7567 32.9658L19.8866 32.7402V36.2539Z" fill="#333333"/>
</svg>
