<svg width="48" height="48" viewBox="0 0 48 48" fill="none" xmlns="http://www.w3.org/2000/svg">
<path fill-rule="evenodd" clip-rule="evenodd" d="M21.3534 16.0013C21.4785 16.279 21.6589 16.5289 21.8838 16.7361C22.3178 17.136 22.8917 17.3536 23.4848 17.3433C24.0779 17.333 24.6437 17.0954 25.0632 16.6807C25.4826 16.2659 25.7228 15.7064 25.7333 15.12C25.7438 14.5335 25.5236 13.966 25.1193 13.5369C24.9097 13.3145 24.6569 13.1361 24.3761 13.0124C24.0953 12.8886 23.7922 12.8221 23.4848 12.8168C23.1774 12.8114 22.8721 12.8673 22.5871 12.9812C22.302 13.095 22.0431 13.2645 21.8257 13.4794C21.6083 13.6944 21.4369 13.9504 21.3218 14.2323C21.2067 14.5141 21.1501 14.816 21.1555 15.12C21.161 15.4239 21.2282 15.7236 21.3534 16.0013ZM15.4068 7.13535L13.2473 5C11.9007 6.33127 10.8326 7.91178 10.1038 9.65127C9.37508 11.3908 9 13.2552 9 15.138C9 17.0208 9.37508 18.8852 10.1038 20.6247C10.8326 22.3642 11.9007 23.9447 13.2473 25.276L15.4068 23.1407C13.2605 21.0181 12.0547 18.1395 12.0547 15.138C12.0547 12.1365 13.2605 9.25787 15.4068 7.13535ZM36.8962 9.65127C36.1674 7.91178 35.0993 6.33127 33.7527 5L31.5932 7.13535C33.7395 9.25787 34.9453 12.1365 34.9453 15.138C34.9453 18.1395 33.7395 21.0181 31.5932 23.1407L33.7527 25.276C35.0993 23.9447 36.1674 22.3642 36.8962 20.6247C37.6249 18.8852 38 17.0208 38 15.138C38 13.2552 37.6249 11.3908 36.8962 9.65127ZM19.7228 11.4015L17.5648 9.26768C15.9907 10.8242 15.1064 12.9353 15.1064 15.1365C15.1064 17.3377 15.9907 19.4488 17.5648 21.0053L19.7228 18.8715C19.2267 18.381 18.8332 17.7987 18.5647 17.1579C18.2962 16.517 18.1581 15.8302 18.1581 15.1365C18.1581 14.4428 18.2962 13.756 18.5647 13.1151C18.8332 12.4743 19.2267 11.892 19.7228 11.4015ZM31.8936 15.1365C31.8936 12.9353 31.0093 10.8242 29.4352 9.26768L27.2772 11.4015C27.7733 11.892 28.1668 12.4743 28.4353 13.1151C28.7038 13.756 28.8419 14.4428 28.8419 15.1365C28.8419 15.8302 28.7038 16.517 28.4353 17.1579C28.1668 17.7987 27.7733 18.381 27.2772 18.8715L29.4352 21.0053C31.0093 19.4488 31.8936 17.3377 31.8936 15.1365ZM9 30C9 28.3431 10.3431 27 12 27H36C37.6569 27 39 28.3431 39 30V40C39 41.6569 37.6569 43 36 43H12C10.3431 43 9 41.6569 9 40V30ZM23.0205 40.0898H16.1982V38.7363L19.418 35.3047C19.86 34.8216 20.1859 34.4001 20.3955 34.04C20.6097 33.68 20.7168 33.3382 20.7168 33.0146C20.7168 32.5726 20.6051 32.2262 20.3818 31.9756C20.1585 31.7204 19.8395 31.5928 19.4248 31.5928C18.9782 31.5928 18.625 31.7477 18.3652 32.0576C18.11 32.363 17.9824 32.7663 17.9824 33.2676H16C16 32.6615 16.1436 32.1077 16.4307 31.6064C16.7223 31.1051 17.1325 30.7132 17.6611 30.4307C18.1898 30.1436 18.7891 30 19.459 30C20.4844 30 21.2796 30.2461 21.8447 30.7383C22.4144 31.2305 22.6992 31.9255 22.6992 32.8232C22.6992 33.3154 22.5716 33.8167 22.3164 34.3271C22.0612 34.8376 21.6237 35.4323 21.0039 36.1113L18.7412 38.4971H23.0205V40.0898ZM32.3242 38.832C31.9551 39.2741 31.4333 39.6182 30.7588 39.8643C30.0843 40.1058 29.3369 40.2266 28.5166 40.2266C27.6553 40.2266 26.8988 40.0397 26.2471 39.666C25.5999 39.2878 25.0986 38.7409 24.7432 38.0254C24.3923 37.3099 24.2122 36.4691 24.2031 35.5029V34.8262C24.2031 33.8327 24.3695 32.9736 24.7021 32.249C25.0394 31.5199 25.5225 30.9639 26.1514 30.5811C26.7848 30.1937 27.5254 30 28.373 30C29.5534 30 30.4762 30.2826 31.1416 30.8477C31.807 31.4082 32.2012 32.2262 32.3242 33.3018H30.3281C30.237 32.7321 30.0342 32.3151 29.7197 32.0508C29.4098 31.7865 28.9814 31.6543 28.4346 31.6543C27.7373 31.6543 27.2064 31.9163 26.8418 32.4404C26.4772 32.9645 26.2926 33.7438 26.2881 34.7783V35.4141C26.2881 36.4577 26.4863 37.2461 26.8828 37.7793C27.2793 38.3125 27.8604 38.5791 28.626 38.5791C29.3962 38.5791 29.9453 38.415 30.2734 38.0869V36.3711H28.4072V34.8604H32.3242V38.832Z" fill="#333333"/>
</svg>
