<svg width="48" height="48" viewBox="0 0 48 48" fill="none" xmlns="http://www.w3.org/2000/svg">
<path d="M22.3838 16.8074C22.1589 16.6002 21.9785 16.3503 21.8534 16.0726C21.7282 15.7949 21.661 15.4952 21.6555 15.1913C21.6501 14.8873 21.7067 14.5854 21.8218 14.3035C21.9369 14.0217 22.1083 13.7656 22.3257 13.5507C22.5431 13.3357 22.802 13.1663 23.0871 13.0524C23.3721 12.9386 23.6774 12.8827 23.9848 12.888C24.2922 12.8934 24.5953 12.9599 24.8761 13.0837C25.1569 13.2074 25.4097 13.3858 25.6193 13.6082C26.0236 14.0373 26.2438 14.6048 26.2333 15.1913C26.2228 15.7777 25.9826 16.3372 25.5632 16.7519C25.1437 17.1667 24.5779 17.4042 23.9848 17.4146C23.3917 17.4249 22.8178 17.2073 22.3838 16.8074ZM13.7473 5.07129L15.9068 7.20664C13.7605 9.32916 12.5547 12.2078 12.5547 15.2093C12.5547 18.2108 13.7605 21.0894 15.9068 23.2119L13.7473 25.3473C12.4007 24.016 11.3326 22.4355 10.6038 20.696C9.87508 18.9565 9.5 17.0921 9.5 15.2093C9.5 13.3265 9.87508 11.4621 10.6038 9.72256C11.3326 7.98307 12.4007 6.40256 13.7473 5.07129ZM34.2527 5.07129C35.5993 6.40256 36.6674 7.98307 37.3962 9.72256C38.1249 11.4621 38.5 13.3265 38.5 15.2093C38.5 17.0921 38.1249 18.9565 37.3962 20.696C36.6674 22.4355 35.5993 24.016 34.2527 25.3473L32.0932 23.2119C34.2395 21.0894 35.4453 18.2108 35.4453 15.2093C35.4453 12.2078 34.2395 9.32916 32.0932 7.20664L34.2527 5.07129ZM18.0648 9.33897L20.2228 11.4728C19.7267 11.9633 19.3332 12.5456 19.0647 13.1864C18.7962 13.8273 18.6581 14.5141 18.6581 15.2078C18.6581 15.9014 18.7962 16.5883 19.0647 17.2292C19.3332 17.87 19.7267 18.4523 20.2228 18.9428L18.0648 21.0766C16.4907 19.5201 15.6064 17.409 15.6064 15.2078C15.6064 13.0066 16.4907 10.8955 18.0648 9.33897ZM29.9352 9.33897C31.5093 10.8955 32.3936 13.0066 32.3936 15.2078C32.3936 17.409 31.5093 19.5201 29.9352 21.0766L27.7772 18.9428C28.2733 18.4523 28.6668 17.87 28.9353 17.2292C29.2038 16.5883 29.3419 15.9014 29.3419 15.2078C29.3419 14.5141 29.2038 13.8273 28.9353 13.1864C28.6668 12.5456 28.2733 11.9633 27.7772 11.4728L29.9352 9.33897Z" fill="#333333"/>
<mask id="path-2-inside-1" fill="white">
<path fill-rule="evenodd" clip-rule="evenodd" d="M12 27.0713C10.3431 27.0713 9 28.4144 9 30.0713V40.0713C9 41.7281 10.3431 43.0713 12 43.0713H36C37.6569 43.0713 39 41.7281 39 40.0713V30.0713C39 28.4144 37.6569 27.0713 36 27.0713H12ZM30.4771 39.8457C31.1515 39.5996 31.6733 39.2555 32.0425 38.8135V34.8418H28.1255V36.3525H29.9917V38.0684C29.6636 38.3965 29.1144 38.5605 28.3442 38.5605C27.5786 38.5605 26.9976 38.2939 26.6011 37.7607C26.2046 37.2275 26.0063 36.4391 26.0063 35.3955V34.7598C26.0109 33.7253 26.1955 32.946 26.5601 32.4219C26.9246 31.8978 27.4556 31.6357 28.1528 31.6357C28.6997 31.6357 29.1281 31.7679 29.438 32.0322C29.7524 32.2965 29.9552 32.7135 30.0464 33.2832H32.0425C31.9194 32.2077 31.5252 31.3896 30.8599 30.8291C30.1945 30.264 29.2716 29.9814 28.0913 29.9814C27.2437 29.9814 26.5031 30.1751 25.8696 30.5625C25.2407 30.9453 24.7576 31.5013 24.4204 32.2305C24.0877 32.9551 23.9214 33.8141 23.9214 34.8076V35.4844C23.9305 36.4505 24.1105 37.2913 24.4614 38.0068C24.8169 38.7223 25.3182 39.2692 25.9653 39.6475C26.617 40.0212 27.3735 40.208 28.2349 40.208C29.0552 40.208 29.8026 40.0872 30.4771 39.8457ZM16.7847 30.1182L16.2104 35.1768L17.7827 35.5664L17.9741 35.3887C18.2658 35.1426 18.6463 35.0195 19.1157 35.0195C19.6261 35.0195 20.0203 35.1699 20.2983 35.4707C20.5763 35.7715 20.7153 36.2044 20.7153 36.7695C20.7153 37.3574 20.5946 37.8132 20.353 38.1367C20.1115 38.4557 19.7674 38.6152 19.3208 38.6152C18.9198 38.6152 18.5939 38.5013 18.3433 38.2734C18.0972 38.041 17.9536 37.7174 17.9126 37.3027H15.9575C15.9757 37.8678 16.133 38.3714 16.4292 38.8135C16.73 39.2555 17.1379 39.5996 17.6528 39.8457C18.1678 40.0872 18.7261 40.208 19.3276 40.208C20.0158 40.208 20.6128 40.069 21.1187 39.791C21.6245 39.5085 22.0119 39.1143 22.2808 38.6084C22.5542 38.098 22.6909 37.5215 22.6909 36.8789C22.6909 35.8216 22.422 34.999 21.8843 34.4111C21.3465 33.8232 20.6037 33.5293 19.6558 33.5293C19.1271 33.5293 18.6281 33.6546 18.1587 33.9053L18.4048 31.7656H22.3628V30.1182H16.7847Z"/>
</mask>
<path fill-rule="evenodd" clip-rule="evenodd" d="M12 27.0713C10.3431 27.0713 9 28.4144 9 30.0713V40.0713C9 41.7281 10.3431 43.0713 12 43.0713H36C37.6569 43.0713 39 41.7281 39 40.0713V30.0713C39 28.4144 37.6569 27.0713 36 27.0713H12ZM30.4771 39.8457C31.1515 39.5996 31.6733 39.2555 32.0425 38.8135V34.8418H28.1255V36.3525H29.9917V38.0684C29.6636 38.3965 29.1144 38.5605 28.3442 38.5605C27.5786 38.5605 26.9976 38.2939 26.6011 37.7607C26.2046 37.2275 26.0063 36.4391 26.0063 35.3955V34.7598C26.0109 33.7253 26.1955 32.946 26.5601 32.4219C26.9246 31.8978 27.4556 31.6357 28.1528 31.6357C28.6997 31.6357 29.1281 31.7679 29.438 32.0322C29.7524 32.2965 29.9552 32.7135 30.0464 33.2832H32.0425C31.9194 32.2077 31.5252 31.3896 30.8599 30.8291C30.1945 30.264 29.2716 29.9814 28.0913 29.9814C27.2437 29.9814 26.5031 30.1751 25.8696 30.5625C25.2407 30.9453 24.7576 31.5013 24.4204 32.2305C24.0877 32.9551 23.9214 33.8141 23.9214 34.8076V35.4844C23.9305 36.4505 24.1105 37.2913 24.4614 38.0068C24.8169 38.7223 25.3182 39.2692 25.9653 39.6475C26.617 40.0212 27.3735 40.208 28.2349 40.208C29.0552 40.208 29.8026 40.0872 30.4771 39.8457ZM16.7847 30.1182L16.2104 35.1768L17.7827 35.5664L17.9741 35.3887C18.2658 35.1426 18.6463 35.0195 19.1157 35.0195C19.6261 35.0195 20.0203 35.1699 20.2983 35.4707C20.5763 35.7715 20.7153 36.2044 20.7153 36.7695C20.7153 37.3574 20.5946 37.8132 20.353 38.1367C20.1115 38.4557 19.7674 38.6152 19.3208 38.6152C18.9198 38.6152 18.5939 38.5013 18.3433 38.2734C18.0972 38.041 17.9536 37.7174 17.9126 37.3027H15.9575C15.9757 37.8678 16.133 38.3714 16.4292 38.8135C16.73 39.2555 17.1379 39.5996 17.6528 39.8457C18.1678 40.0872 18.7261 40.208 19.3276 40.208C20.0158 40.208 20.6128 40.069 21.1187 39.791C21.6245 39.5085 22.0119 39.1143 22.2808 38.6084C22.5542 38.098 22.6909 37.5215 22.6909 36.8789C22.6909 35.8216 22.422 34.999 21.8843 34.4111C21.3465 33.8232 20.6037 33.5293 19.6558 33.5293C19.1271 33.5293 18.6281 33.6546 18.1587 33.9053L18.4048 31.7656H22.3628V30.1182H16.7847Z" fill="#333333"/>
<path d="M32.0425 38.8135L33.1938 39.7749L33.5425 39.3574V38.8135H32.0425ZM30.4771 39.8457L30.9828 41.2579L30.9912 41.2548L30.4771 39.8457ZM32.0425 34.8418H33.5425V33.3418H32.0425V34.8418ZM28.1255 34.8418V33.3418H26.6255V34.8418H28.1255ZM28.1255 36.3525H26.6255V37.8525H28.1255V36.3525ZM29.9917 36.3525H31.4917V34.8525H29.9917V36.3525ZM29.9917 38.0684L31.0524 39.129L31.4917 38.6897V38.0684H29.9917ZM26.0063 34.7598L24.5063 34.7532V34.7598H26.0063ZM29.438 32.0322L28.4645 33.1735L28.4728 33.1805L29.438 32.0322ZM30.0464 33.2832L28.5652 33.5202L28.7673 34.7832H30.0464V33.2832ZM32.0425 33.2832V34.7832H33.7239L33.5328 33.1127L32.0425 33.2832ZM30.8599 30.8291L29.8888 31.9724L29.8934 31.9763L30.8599 30.8291ZM25.8696 30.5625L26.6496 31.8438L26.6522 31.8422L25.8696 30.5625ZM24.4204 32.2305L23.059 31.6008L23.0572 31.6046L24.4204 32.2305ZM23.9214 35.4844H22.4214V35.4915L22.4215 35.4985L23.9214 35.4844ZM24.4614 38.0068L23.1147 38.6674L23.1181 38.6742L24.4614 38.0068ZM25.9653 39.6475L25.2084 40.9425L25.2192 40.9487L25.9653 39.6475ZM16.2104 35.1768L14.72 35.0076L14.5715 36.316L15.8496 36.6327L16.2104 35.1768ZM16.7847 30.1182V28.6182H15.4453L15.2942 29.949L16.7847 30.1182ZM17.7827 35.5664L17.4219 37.0224L18.2091 37.2174L18.8034 36.6656L17.7827 35.5664ZM17.9741 35.3887L17.0068 34.2422L16.9796 34.2652L16.9534 34.2895L17.9741 35.3887ZM20.353 38.1367L21.5489 39.0422L21.5551 39.034L20.353 38.1367ZM18.3433 38.2734L17.3133 39.364L17.3237 39.3738L17.3343 39.3833L18.3433 38.2734ZM17.9126 37.3027L19.4053 37.1551L19.2716 35.8027H17.9126V37.3027ZM15.9575 37.3027V35.8027H14.4084L14.4583 37.3511L15.9575 37.3027ZM16.4292 38.8135L15.1831 39.6485L15.189 39.6573L16.4292 38.8135ZM17.6528 39.8457L17.0061 41.1991L17.0159 41.2037L17.6528 39.8457ZM21.1187 39.791L21.8411 41.1056L21.8501 41.1006L21.1187 39.791ZM22.2808 38.6084L20.9585 37.9001L20.9562 37.9044L22.2808 38.6084ZM18.1587 33.9053L16.6685 33.7339L16.3416 36.576L18.8652 35.2284L18.1587 33.9053ZM18.4048 31.7656V30.2656H17.0674L16.9146 31.5942L18.4048 31.7656ZM22.3628 31.7656V33.2656H23.8628V31.7656H22.3628ZM22.3628 30.1182H23.8628V28.6182H22.3628V30.1182ZM10.5 30.0713C10.5 29.2429 11.1716 28.5713 12 28.5713V25.5713C9.51472 25.5713 7.5 27.586 7.5 30.0713H10.5ZM10.5 40.0713V30.0713H7.5V40.0713H10.5ZM12 41.5713C11.1716 41.5713 10.5 40.8997 10.5 40.0713H7.5C7.5 42.5566 9.51472 44.5713 12 44.5713V41.5713ZM36 41.5713H12V44.5713H36V41.5713ZM37.5 40.0713C37.5 40.8997 36.8284 41.5713 36 41.5713V44.5713C38.4853 44.5713 40.5 42.5566 40.5 40.0713H37.5ZM37.5 30.0713V40.0713H40.5V30.0713H37.5ZM36 28.5713C36.8284 28.5713 37.5 29.2429 37.5 30.0713H40.5C40.5 27.586 38.4853 25.5713 36 25.5713V28.5713ZM12 28.5713H36V25.5713H12V28.5713ZM30.8911 37.852C30.7283 38.047 30.4498 38.2589 29.9629 38.4366L30.9912 41.2548C31.8532 40.9403 32.6184 40.464 33.1938 39.7749L30.8911 37.852ZM30.5425 34.8418V38.8135H33.5425V34.8418H30.5425ZM28.1255 36.3418H32.0425V33.3418H28.1255V36.3418ZM29.6255 36.3525V34.8418H26.6255V36.3525H29.6255ZM29.9917 34.8525H28.1255V37.8525H29.9917V34.8525ZM31.4917 38.0684V36.3525H28.4917V38.0684H31.4917ZM28.3442 40.0605C29.2636 40.0605 30.3058 39.8755 31.0524 39.129L28.931 37.0077C28.9796 36.9591 28.9958 36.9729 28.9044 37.0003C28.8076 37.0292 28.6304 37.0605 28.3442 37.0605V40.0605ZM25.3974 38.6558C26.1227 39.6312 27.1866 40.0605 28.3442 40.0605V37.0605C27.9706 37.0605 27.8725 36.9567 27.8048 36.8657L25.3974 38.6558ZM24.5063 35.3955C24.5063 36.5901 24.7266 37.7537 25.3974 38.6558L27.8048 36.8657C27.6826 36.7014 27.5063 36.2882 27.5063 35.3955H24.5063ZM24.5063 34.7598V35.3955H27.5063V34.7598H24.5063ZM25.3287 31.5653C24.713 32.4503 24.5115 33.5868 24.5064 34.7532L27.5063 34.7664C27.5103 33.8638 27.6779 33.4416 27.7914 33.2785L25.3287 31.5653ZM28.1528 30.1357C27.0176 30.1357 26.0027 30.5964 25.3287 31.5653L27.7914 33.2785C27.8406 33.2078 27.8752 33.1874 27.8956 33.1774C27.9209 33.1648 27.9938 33.1357 28.1528 33.1357V30.1357ZM30.4114 30.891C29.7491 30.3261 28.9334 30.1357 28.1528 30.1357V33.1357C28.3081 33.1357 28.3986 33.1548 28.4421 33.1682C28.4809 33.1802 28.48 33.1866 28.4646 33.1735L30.4114 30.891ZM31.5275 33.0462C31.4023 32.2635 31.0871 31.4589 30.4032 30.884L28.4728 33.1805C28.4178 33.1342 28.5082 33.1636 28.5652 33.5202L31.5275 33.0462ZM32.0425 31.7832H30.0464V34.7832H32.0425V31.7832ZM29.8934 31.9763C30.1986 32.2334 30.4615 32.6612 30.5522 33.4537L33.5328 33.1127C33.3773 31.7542 32.8518 30.5459 31.8263 29.6819L29.8934 31.9763ZM28.0913 31.4814C29.0417 31.4814 29.5771 31.7076 29.8888 31.9724L31.8309 29.6858C30.8119 28.8203 29.5016 28.4814 28.0913 28.4814V31.4814ZM26.6522 31.8422C27.0181 31.6184 27.4799 31.4814 28.0913 31.4814V28.4814C27.0074 28.4814 25.988 28.7319 25.0871 29.2828L26.6522 31.8422ZM25.7819 32.8601C26.0061 32.3753 26.298 32.0578 26.6495 31.8438L25.0897 29.2812C24.1834 29.8328 23.5092 30.6273 23.059 31.6008L25.7819 32.8601ZM25.4214 34.8076C25.4214 33.9785 25.5604 33.3425 25.7836 32.8563L23.0572 31.6046C22.6151 32.5676 22.4214 33.6498 22.4214 34.8076H25.4214ZM25.4214 35.4844V34.8076H22.4214V35.4844H25.4214ZM25.8082 37.3463C25.5747 36.8703 25.4288 36.259 25.4213 35.4702L22.4215 35.4985C22.4322 36.642 22.6463 37.7123 23.1147 38.6673L25.8082 37.3463ZM26.7223 38.3525C26.3445 38.1316 26.0391 37.8111 25.8048 37.3394L23.1181 38.6742C23.5947 39.6335 24.2919 40.4068 25.2084 40.9425L26.7223 38.3525ZM28.2349 38.708C27.5964 38.708 27.1045 38.5716 26.7115 38.3462L25.2192 40.9487C26.1295 41.4707 27.1506 41.708 28.2349 41.708V38.708ZM29.9713 38.4335C29.4808 38.6092 28.9074 38.708 28.2349 38.708V41.708C29.2029 41.708 30.1243 41.5653 30.9828 41.2579L29.9713 38.4335ZM17.7009 35.3459L18.2751 30.2873L15.2942 29.949L14.72 35.0076L17.7009 35.3459ZM18.1435 34.1105L16.5713 33.7208L15.8496 36.6327L17.4219 37.0224L18.1435 34.1105ZM16.9534 34.2895L16.762 34.4672L18.8034 36.6656L18.9948 36.4879L16.9534 34.2895ZM19.1157 33.5195C18.3766 33.5195 17.6272 33.7188 17.0068 34.2422L18.9414 36.5351C18.9314 36.5436 18.9257 36.5436 18.9398 36.5391C18.9577 36.5333 19.0112 36.5195 19.1157 36.5195V33.5195ZM21.3999 34.4526C20.7709 33.772 19.9342 33.5195 19.1157 33.5195V36.5195C19.2254 36.5195 19.2648 36.5358 19.2595 36.5338C19.2566 36.5327 19.2462 36.5282 19.2321 36.5188C19.2179 36.5092 19.2057 36.4985 19.1968 36.4888L21.3999 34.4526ZM22.2153 36.7695C22.2153 35.9715 22.0177 35.121 21.3999 34.4526L19.1968 36.4888C19.1718 36.4618 19.1728 36.448 19.1829 36.4795C19.1949 36.5169 19.2153 36.6065 19.2153 36.7695H22.2153ZM21.5551 39.034C22.0604 38.357 22.2153 37.5391 22.2153 36.7695H19.2153C19.2153 37.1757 19.1287 37.2693 19.151 37.2394L21.5551 39.034ZM19.3208 40.1152C20.1745 40.1152 20.9881 39.7829 21.5489 39.0422L19.1571 37.2313C19.1644 37.2217 19.1794 37.2042 19.2035 37.1845C19.2279 37.1646 19.2553 37.1475 19.2829 37.1347C19.3407 37.108 19.3645 37.1152 19.3208 37.1152V40.1152ZM17.3343 39.3833C17.9105 39.9072 18.6193 40.1152 19.3208 40.1152V37.1152C19.2621 37.1152 19.2511 37.107 19.2707 37.1138C19.2803 37.1172 19.2943 37.1232 19.3103 37.1327C19.3264 37.1423 19.3407 37.153 19.3523 37.1635L17.3343 39.3833ZM16.4199 37.4504C16.4879 38.1384 16.7474 38.8295 17.3133 39.364L19.3732 37.1829C19.3856 37.1947 19.397 37.2078 19.4063 37.2212C19.4155 37.2344 19.4204 37.2442 19.4221 37.2481C19.4255 37.2557 19.4128 37.2309 19.4053 37.1551L16.4199 37.4504ZM15.9575 38.8027H17.9126V35.8027H15.9575V38.8027ZM17.6753 37.9785C17.5453 37.7845 17.4665 37.5571 17.4567 37.2544L14.4583 37.3511C14.485 38.1786 14.7206 38.9583 15.1831 39.6485L17.6753 37.9785ZM18.2996 38.4923C18.0073 38.3526 17.8108 38.1775 17.6694 37.9697L15.189 39.6573C15.6492 40.3335 16.2685 40.8466 17.0061 41.1991L18.2996 38.4923ZM19.3276 38.708C18.9333 38.708 18.594 38.6304 18.2898 38.4877L17.0159 41.2037C17.7416 41.5441 18.5189 41.708 19.3276 41.708V38.708ZM20.3962 38.4764C20.1507 38.6114 19.8117 38.708 19.3276 38.708V41.708C20.2199 41.708 21.0749 41.5266 21.8411 41.1056L20.3962 38.4764ZM20.9562 37.9044C20.8244 38.1525 20.6443 38.3378 20.3872 38.4815L21.8501 41.1006C22.6047 40.6791 23.1994 40.076 23.6053 39.3124L20.9562 37.9044ZM21.1909 36.8789C21.1909 37.3019 21.1029 37.6306 20.9585 37.9001L23.603 39.3167C24.0055 38.5653 24.1909 37.741 24.1909 36.8789H21.1909ZM20.7775 35.4236C20.9889 35.6547 21.1909 36.0712 21.1909 36.8789H24.1909C24.1909 35.572 23.8551 34.3433 22.9911 33.3987L20.7775 35.4236ZM19.6558 35.0293C20.2696 35.0293 20.5777 35.2052 20.7775 35.4236L22.9911 33.3987C22.1153 32.4413 20.9377 32.0293 19.6558 32.0293V35.0293ZM18.8652 35.2284C19.1187 35.0931 19.3753 35.0293 19.6558 35.0293V32.0293C18.879 32.0293 18.1375 32.2162 17.4521 32.5821L18.8652 35.2284ZM16.9146 31.5942L16.6685 33.7339L19.6489 34.0767L19.895 31.937L16.9146 31.5942ZM22.3628 30.2656H18.4048V33.2656H22.3628V30.2656ZM20.8628 30.1182V31.7656H23.8628V30.1182H20.8628ZM16.7847 31.6182H22.3628V28.6182H16.7847V31.6182Z" fill="#333333" mask="url(#path-2-inside-1)"/>
</svg>
