<svg width="48" height="48" viewBox="0 0 48 48" fill="none" xmlns="http://www.w3.org/2000/svg">
<path fill-rule="evenodd" clip-rule="evenodd" d="M21.8534 16.1693C21.9785 16.4469 22.1589 16.6969 22.3838 16.9041C22.8178 17.3039 23.3917 17.5216 23.9848 17.5113C24.5779 17.5009 25.1437 17.2634 25.5632 16.8486C25.9826 16.4339 26.2228 15.8744 26.2333 15.2879C26.2438 14.7015 26.0236 14.1339 25.6193 13.7048C25.4097 13.4824 25.1569 13.3041 24.8761 13.1803C24.5953 13.0566 24.2922 12.9901 23.9848 12.9847C23.6774 12.9794 23.3721 13.0353 23.0871 13.1491C22.802 13.263 22.5431 13.4324 22.3257 13.6474C22.1083 13.8623 21.9369 14.1184 21.8218 14.4002C21.7067 14.6821 21.6501 14.984 21.6555 15.2879C21.661 15.5919 21.7282 15.8916 21.8534 16.1693ZM15.9068 7.30332L13.7473 5.16797C12.4007 6.49924 11.3326 8.07975 10.6038 9.81924C9.87508 11.5587 9.5 13.4231 9.5 15.306C9.5 17.1888 9.87508 19.0532 10.6038 20.7927C11.3326 22.5322 12.4007 24.1127 13.7473 25.444L15.9068 23.3086C13.7605 21.1861 12.5547 18.3075 12.5547 15.306C12.5547 12.3044 13.7605 9.42584 15.9068 7.30332ZM37.3962 9.81924C36.6674 8.07975 35.5993 6.49924 34.2527 5.16797L32.0932 7.30332C34.2395 9.42584 35.4453 12.3044 35.4453 15.306C35.4453 18.3075 34.2395 21.1861 32.0932 23.3086L34.2527 25.444C35.5993 24.1127 36.6674 22.5322 37.3962 20.7927C38.1249 19.0532 38.5 17.1888 38.5 15.306C38.5 13.4231 38.1249 11.5587 37.3962 9.81924ZM20.2228 11.5695L18.0648 9.43565C16.4907 10.9922 15.6064 13.1032 15.6064 15.3045C15.6064 17.5057 16.4907 19.6167 18.0648 21.1733L20.2228 19.0394C19.7267 18.549 19.3332 17.9667 19.0647 17.3258C18.7962 16.685 18.6581 15.9981 18.6581 15.3045C18.6581 14.6108 18.7962 13.9239 19.0647 13.2831C19.3332 12.6422 19.7267 12.06 20.2228 11.5695ZM32.3936 15.3045C32.3936 13.1032 31.5093 10.9922 29.9352 9.43565L27.7772 11.5695C28.2733 12.06 28.6668 12.6422 28.9353 13.2831C29.2038 13.9239 29.3419 14.6108 29.3419 15.3045C29.3419 15.9981 29.2038 16.685 28.9353 17.3258C28.6668 17.9667 28.2733 18.549 27.7772 19.0394L29.9352 21.1733C31.5093 19.6167 32.3936 17.5057 32.3936 15.3045ZM9 30.168C9 28.5111 10.3431 27.168 12 27.168H36C37.6569 27.168 39 28.5111 39 30.168V40.168C39 41.8248 37.6569 43.168 36 43.168H12C10.3431 43.168 9 41.8248 9 40.168V30.168ZM32.0425 38.9102C31.6733 39.3522 31.1515 39.6963 30.4771 39.9424C29.8026 40.1839 29.0552 40.3047 28.2349 40.3047C27.3735 40.3047 26.617 40.1178 25.9653 39.7441C25.3182 39.3659 24.8169 38.819 24.4614 38.1035C24.1105 37.388 23.9305 36.5472 23.9214 35.5811V34.9043C23.9214 33.9108 24.0877 33.0518 24.4204 32.3271C24.7576 31.598 25.2407 31.042 25.8696 30.6592C26.5031 30.2718 27.2437 30.0781 28.0913 30.0781C29.2716 30.0781 30.1945 30.3607 30.8599 30.9258C31.5252 31.4863 31.9194 32.3044 32.0425 33.3799H30.0464C29.9552 32.8102 29.7524 32.3932 29.438 32.1289C29.1281 31.8646 28.6997 31.7324 28.1528 31.7324C27.4556 31.7324 26.9246 31.9945 26.5601 32.5186C26.1955 33.0426 26.0109 33.8219 26.0063 34.8564V35.4922C26.0063 36.5358 26.2046 37.3242 26.6011 37.8574C26.9976 38.3906 27.5786 38.6572 28.3442 38.6572C29.1144 38.6572 29.6636 38.4932 29.9917 38.165V36.4492H28.1255V34.9385H32.0425V38.9102ZM16.2104 35.2734L16.7847 30.2148H22.3628V31.8623H18.4048L18.1587 34.002C18.6281 33.7513 19.1271 33.626 19.6558 33.626C20.6037 33.626 21.3465 33.9199 21.8843 34.5078C22.422 35.0957 22.6909 35.9183 22.6909 36.9756C22.6909 37.6182 22.5542 38.1947 22.2808 38.7051C22.0119 39.2109 21.6245 39.6051 21.1187 39.8877C20.6128 40.1657 20.0158 40.3047 19.3276 40.3047C18.7261 40.3047 18.1678 40.1839 17.6528 39.9424C17.1379 39.6963 16.73 39.3522 16.4292 38.9102C16.133 38.4681 15.9757 37.9645 15.9575 37.3994H17.9126C17.9536 37.8141 18.0972 38.1377 18.3433 38.3701C18.5939 38.598 18.9198 38.7119 19.3208 38.7119C19.7674 38.7119 20.1115 38.5524 20.353 38.2334C20.5946 37.9098 20.7153 37.4541 20.7153 36.8662C20.7153 36.3011 20.5763 35.8682 20.2983 35.5674C20.0203 35.2666 19.6261 35.1162 19.1157 35.1162C18.6463 35.1162 18.2658 35.2393 17.9741 35.4854L17.7827 35.6631L16.2104 35.2734Z" fill="#333333"/>
</svg>
