<svg width="48" height="48" viewBox="0 0 48 48" fill="none" xmlns="http://www.w3.org/2000/svg">
<path fill-rule="evenodd" clip-rule="evenodd" d="M22.0519 8.41679C20.4593 7.9601 18.7979 8.881 18.3412 10.4737L18.0656 11.4351L17.1043 11.1595C16.5734 11.0072 16.0197 11.3142 15.8674 11.8451L15.0405 14.7289C14.8883 15.2598 15.1953 15.8135 15.7261 15.9658L16.6874 16.2414L16.4117 17.2027L14.1241 19.1434C13.823 19.3989 13.6043 19.7377 13.4954 20.1173L12.5598 23.3802C12.2553 24.442 12.8693 25.5496 13.9311 25.854L19.218 27.37L20.3206 23.5248C20.4728 22.9939 21.0266 22.6869 21.5575 22.8391L29.2476 25.0442C29.7785 25.1965 30.0854 25.7502 29.9332 26.2811L28.8306 30.1264L34.1175 31.6424C35.1793 31.9469 36.2869 31.333 36.5913 30.2712L37.527 27.0082C37.6358 26.6287 37.6299 26.2254 37.5099 25.8492L36.5983 22.9911L36.5982 22.991L36.8738 22.03L37.8352 22.3056C38.3661 22.4579 38.9199 22.1509 39.0721 21.62L39.899 18.7362C40.0512 18.2053 39.7443 17.6515 39.2134 17.4993L38.252 17.2236L38.5277 16.2621C38.9844 14.6694 38.0635 13.008 36.4709 12.5514L22.0519 8.41679ZM23.0631 28.4726L21.1405 27.9213L21.9675 25.0373L23.89 25.5886L23.89 25.5887L23.0631 28.4726ZM26.9081 29.5751L24.9856 29.0239L25.8125 26.14L25.8126 26.1399L27.735 26.6911L26.9081 29.5751ZM18.8856 15.8314L18.8832 15.8396L18.6099 16.7925L34.9514 21.4783L36.6052 15.7108C36.7575 15.1799 36.4505 14.6261 35.9196 14.4739L21.5007 10.3393C20.9698 10.1871 20.416 10.4941 20.2638 11.0249L19.7148 12.9394L19.7125 12.9476L18.8856 15.8314ZM19.1473 29.4302L13.3798 27.7764L12.5529 30.6602C12.4006 31.1911 12.7076 31.7449 13.2385 31.8971L17.0835 32.9996C17.6144 33.1519 18.1682 32.8449 18.3204 32.314L19.1473 29.4302ZM27.7987 31.9112L33.5663 33.565L32.7394 36.4488C32.5871 36.9797 32.0334 37.2866 31.5025 37.1344L27.6574 36.0319C27.1265 35.8796 26.8196 35.3258 26.9718 34.795L27.7987 31.9112ZM16.8855 24.6205C17.6818 24.8488 18.5125 24.3884 18.7409 23.5921C18.9692 22.7957 18.5088 21.9651 17.7124 21.7367C16.9161 21.5084 16.0854 21.9688 15.8571 22.7652C15.6287 23.5615 16.0892 24.3922 16.8855 24.6205ZM32.2657 29.0307C33.062 29.259 33.8927 28.7986 34.1211 28.0022C34.3494 27.2059 33.889 26.3752 33.0926 26.1469C32.2963 25.9185 31.4656 26.379 31.2373 27.1753C31.0089 27.9716 31.4694 28.8023 32.2657 29.0307ZM11 33.5C9.80653 33.5 8.66193 33.9741 7.81802 34.818C6.97411 35.6619 6.5 36.8065 6.5 38V39C6.5 39.8284 7.17157 40.5 8 40.5H23.5H25.5H34.5C35.0523 40.5 35.5 40.0523 35.5 39.5C35.5 38.9477 35.0523 38.5 34.5 38.5H25.4495C25.3522 38.0233 25.117 37.5814 24.7678 37.2322C24.2989 36.7634 23.663 36.5 23 36.5C22.337 36.5 21.7011 36.7634 21.2322 37.2322C21.1862 37.2783 21.1421 37.326 21.1 37.3752C20.9373 37.0647 20.7273 36.7776 20.4749 36.5251C19.8185 35.8687 18.9283 35.5 18 35.5C17.0717 35.5 16.1815 35.8687 15.5251 36.5251C15.454 36.5963 15.3862 36.6702 15.3219 36.7466C15.1124 36.0243 14.7233 35.3593 14.182 34.818C13.3381 33.9741 12.1935 33.5 11 33.5Z" fill="#333333"/>
</svg>
