<svg width="48" height="48" viewBox="0 0 48 48" fill="none" xmlns="http://www.w3.org/2000/svg">
<path fill-rule="evenodd" clip-rule="evenodd" d="M29.4104 8.5862C29.2481 8.2292 28.8922 8 28.5 8H23.25C22.6978 8 22.25 8.44772 22.25 9C22.25 9.55228 22.6978 10 23.25 10H27.8561L32.6564 20.5607C32.4978 20.6186 32.3517 20.7175 32.2351 20.8559L25.1683 29.2477L22.6954 26.5001H24.5C25.1455 26.5001 25.765 26.3117 26.2329 25.9246C26.7104 25.5295 27 24.9504 27 24.2501V23.5001C27 22.6717 26.3284 22.0001 25.5 22.0001H18.5C17.8545 22.0001 17.235 22.1885 16.7671 22.5756C16.2896 22.9707 16 23.5498 16 24.2501C16 24.9504 16.2896 25.5295 16.7671 25.9246C17.235 26.3117 17.8545 26.5001 18.5 26.5001H20.0047L23.1546 30H16.9339C16.445 26.3307 13.3031 23.5 9.5 23.5C5.35786 23.5 2 26.8579 2 31C2 35.1421 5.35786 38.5 9.5 38.5C13.3031 38.5 16.445 35.6694 16.9339 32H25C25.295 32 25.5749 31.8698 25.7649 31.6442L33.5125 22.444L34.5134 24.6461C32.4028 25.9732 31 28.3228 31 31C31 35.1421 34.3579 38.5 38.5 38.5C42.6421 38.5 46 35.1421 46 31C46 26.8579 42.6421 23.5 38.5 23.5C37.7468 23.5 37.0196 23.611 36.3338 23.8176L29.4104 8.5862ZM24.5 30H24.5348L24.6436 29.8708L24.5 30ZM9.5 26.5C11.6416 26.5 13.4338 27.996 13.8885 30H9.50001C8.94772 30 8.50001 30.4477 8.50001 31C8.50001 31.5523 8.94772 32 9.50001 32H13.8885C13.4337 34.004 11.6416 35.5 9.5 35.5C7.01472 35.5 5 33.4853 5 31C5 28.5147 7.01472 26.5 9.5 26.5ZM34 31C34 29.5395 34.6958 28.2415 35.774 27.4193L37.5897 31.4138C37.8182 31.9166 38.4111 32.1389 38.9138 31.9104C39.4166 31.6818 39.6389 31.089 39.4104 30.5862L37.5945 26.5911C37.887 26.5314 38.1898 26.5 38.5 26.5C40.9853 26.5 43 28.5147 43 31C43 33.4853 40.9853 35.5 38.5 35.5C36.0147 35.5 34 33.4853 34 31ZM42.1947 14.1268C42.0386 13.1903 41.0627 12.6326 40.1766 12.9734L35.7664 14.6696C34.9859 14.9698 34.6016 15.8503 34.9121 16.6267L35.3237 17.6556C35.5208 18.1485 35.9637 18.5004 36.4883 18.5811L41.0584 19.2842C42.0678 19.4395 42.934 18.5625 42.7661 17.555L42.1947 14.1268ZM25.754 14.5001C22.1707 14.5001 18.2532 15.8242 17.125 19.5162C16.9755 20.0055 17.3415 20.5001 17.8532 20.5001H28.382C29.497 20.5001 30.2223 19.3266 29.7236 18.3293L28.2236 15.3293C27.9695 14.8211 27.4501 14.5001 26.882 14.5001H25.754ZM7 15.5001C6.17157 15.5001 5.5 16.1717 5.5 17.0001V19.0001C5.5 19.8285 6.17157 20.5001 7 20.5001H13C14.2361 20.5001 14.9416 19.089 14.2 18.1001L12.7 16.1001C12.4167 15.7224 11.9721 15.5001 11.5 15.5001H7Z" fill="#333333"/>
</svg>
