<svg width="48" height="48" viewBox="0 0 48 48" fill="none" xmlns="http://www.w3.org/2000/svg">
<path d="M28.7143 17.1457L39.9512 16.1022M39.9512 16.1022L41.7073 10.2886M39.9512 16.1022L42 20.5743" stroke="#333333" stroke-width="2"/>
<path fill-rule="evenodd" clip-rule="evenodd" d="M30 17.146C30 26.1935 29.0284 33.4317 18.8268 33.4317C8.62519 33.4317 8.1394 32.9792 8.1394 32.9792C8.1394 32.9792 2.79569 17.146 30 17.146ZM21 19C21 26.9058 20.2 27 20.2 27H9C9 27 11.4 20.1294 21 19Z" fill="#333333"/>
<path d="M30 17.146H31C31 16.5937 30.5523 16.146 30 16.146V17.146ZM8.1394 32.9792L7.19191 33.299C7.24498 33.4562 7.33636 33.5978 7.4578 33.7109L8.1394 32.9792ZM20.2 27V28C20.2391 28 20.2781 27.9977 20.3169 27.9931L20.2 27ZM21 19H22C22 18.7144 21.8779 18.4425 21.6645 18.2527C21.4511 18.063 21.1668 17.9735 20.8832 18.0068L21 19ZM9 27L8.05594 26.6702C7.9491 26.9761 7.99705 27.3147 8.18459 27.5789C8.37214 27.8431 8.67603 28 9 28V27ZM18.8268 34.4317C21.4912 34.4317 23.6393 33.9595 25.3498 33.0402C27.073 32.1142 28.2867 30.7692 29.1276 29.1404C30.7725 25.9542 31 21.6434 31 17.146H29C29 21.6961 28.7417 25.5282 27.3504 28.2229C26.6732 29.5347 25.7313 30.5647 24.403 31.2785C23.0621 31.9992 21.2632 32.4317 18.8268 32.4317V34.4317ZM8.1394 32.9792C7.4578 33.7109 7.46152 33.7144 7.46526 33.7178C7.46649 33.7189 7.47019 33.7223 7.47266 33.7245C7.47758 33.7289 7.48246 33.7332 7.48729 33.7373C7.49697 33.7456 7.5065 33.7535 7.51585 33.761C7.5345 33.7759 7.55264 33.7893 7.56995 33.8013C7.60431 33.8252 7.63713 33.845 7.66681 33.8613C7.72507 33.8932 7.78126 33.9172 7.83105 33.9357C7.92858 33.972 8.04082 34.002 8.172 34.0291C8.43499 34.0836 8.86078 34.1442 9.57676 34.2022C11.0136 34.3186 13.717 34.4317 18.8268 34.4317V32.4317C13.735 32.4317 11.0947 32.3186 9.73824 32.2087C9.05757 32.1536 8.72432 32.1011 8.57741 32.0707C8.50366 32.0554 8.49824 32.05 8.52936 32.0616C8.54593 32.0677 8.58173 32.082 8.62788 32.1073C8.65152 32.1203 8.68036 32.1375 8.71227 32.1597C8.72835 32.1708 8.74564 32.1836 8.76374 32.1981C8.77282 32.2053 8.78215 32.213 8.7917 32.2212C8.79647 32.2253 8.80131 32.2296 8.80619 32.2339C8.80865 32.2362 8.81233 32.2395 8.81356 32.2406C8.81729 32.244 8.82101 32.2475 8.1394 32.9792ZM30 16.146C16.2399 16.146 10.2991 20.1568 7.98145 24.6001C6.84368 26.7815 6.64873 28.9511 6.73082 30.5563C6.77197 31.3609 6.88306 32.0332 6.98522 32.5088C7.03638 32.7471 7.08556 32.9372 7.12313 33.0712C7.14192 33.1383 7.15784 33.1914 7.16969 33.2297C7.17562 33.2488 7.18053 33.2642 7.18428 33.2758C7.18616 33.2816 7.18774 33.2865 7.18902 33.2903C7.18966 33.2922 7.19022 33.2939 7.1907 33.2954C7.19095 33.2961 7.19125 33.297 7.19137 33.2974C7.19165 33.2982 7.19191 33.299 8.1394 32.9792C9.0869 32.6594 9.08712 32.6601 9.08732 32.6607C9.08736 32.6608 9.08754 32.6613 9.08762 32.6616C9.08778 32.662 9.08786 32.6623 9.08786 32.6623C9.08787 32.6623 9.08757 32.6614 9.08698 32.6596C9.08581 32.656 9.08347 32.6487 9.08012 32.6379C9.07341 32.6162 9.06264 32.5804 9.04894 32.5315C9.02151 32.4337 8.98245 32.2836 8.94063 32.0889C8.85682 31.6987 8.76297 31.1339 8.72821 30.4542C8.65849 29.0907 8.82788 27.302 9.75473 25.5251C11.5663 22.0518 16.5558 18.146 30 18.146V16.146ZM20.2 27C20.3169 27.9931 20.3217 27.9926 20.3264 27.992C20.328 27.9918 20.3327 27.9912 20.3359 27.9907C20.3422 27.9899 20.3485 27.9889 20.3549 27.9879C20.3676 27.9859 20.3803 27.9837 20.3931 27.9812C20.4186 27.9762 20.444 27.9702 20.4694 27.9632C20.5201 27.9491 20.5695 27.9312 20.6172 27.9099C20.7128 27.8671 20.7971 27.8126 20.8701 27.7524C21.0127 27.6349 21.1166 27.4932 21.195 27.3548C21.3469 27.0867 21.4726 26.7072 21.581 26.1586C21.8004 25.0489 22 22.9703 22 19H20C20 22.9355 19.7996 24.8569 19.619 25.7708C19.5274 26.2339 19.4531 26.3721 19.455 26.3688C19.4584 26.3626 19.4997 26.29 19.5986 26.2086C19.6498 26.1665 19.7168 26.1217 19.8008 26.0841C19.8426 26.0654 19.8875 26.049 19.9352 26.0358C19.959 26.0292 19.9833 26.0235 20.0081 26.0186C20.0204 26.0162 20.0329 26.014 20.0454 26.012C20.0516 26.011 20.0579 26.0101 20.0642 26.0093C20.0673 26.0088 20.072 26.0082 20.0736 26.008C20.0783 26.0074 20.0831 26.0069 20.2 27ZM9 28H20.2V26H9V28ZM20.8832 18.0068C15.8376 18.6004 12.6297 20.7161 10.6816 22.7279C9.71345 23.7277 9.06463 24.6929 8.65498 25.4158C8.45 25.7775 8.30427 26.0797 8.20788 26.2968C8.15967 26.4055 8.12372 26.493 8.09882 26.5562C8.08637 26.5878 8.07668 26.6134 8.06958 26.6325C8.06603 26.6421 8.06314 26.6501 8.06087 26.6564C8.05974 26.6595 8.05876 26.6622 8.05794 26.6645C8.05753 26.6657 8.05716 26.6668 8.05682 26.6677C8.05666 26.6682 8.05644 26.6688 8.05635 26.669C8.05614 26.6696 8.05594 26.6702 9 27C9.94406 27.3298 9.94388 27.3303 9.9437 27.3308C9.94366 27.3309 9.94349 27.3314 9.9434 27.3317C9.94321 27.3322 9.94306 27.3326 9.94294 27.3329C9.94271 27.3336 9.94263 27.3338 9.94268 27.3337C9.9428 27.3334 9.94349 27.3315 9.94477 27.328C9.94735 27.321 9.9523 27.3079 9.95977 27.2889C9.97472 27.251 9.99971 27.1898 10.0359 27.1083C10.1082 26.9453 10.225 26.7019 10.395 26.4018C10.7354 25.8012 11.2866 24.9782 12.1184 24.1192C13.7703 22.4133 16.5625 20.529 21.1168 19.9932L20.8832 18.0068Z" fill="#333333"/>
<rect x="6.85715" y="11.146" width="30" height="2" rx="1" fill="#333333"/>
<rect x="20.5714" y="18.0029" width="4.28571" height="1.71429" rx="0.857143" transform="rotate(-90 20.5714 18.0029)" fill="#333333"/>
<path d="M6 37.0029C7.71429 39.1458 15.8571 38.7172 15.8571 38.7172H31.5" stroke="#333333" stroke-width="2" stroke-linecap="round"/>
</svg>
