<svg width="48" height="48" viewBox="0 0 48 48" fill="none" xmlns="http://www.w3.org/2000/svg">
<path d="M28.7143 17.1462L39.9512 16.1027M39.9512 16.1027L41.7073 10.2891M39.9512 16.1027L42 20.5748" stroke="#333333" stroke-width="2"/>
<path fill-rule="evenodd" clip-rule="evenodd" d="M30 17.1465C30 26.194 29.0284 33.4322 18.8268 33.4322C8.62519 33.4322 8.1394 32.9797 8.1394 32.9797C8.1394 32.9797 2.79569 17.1465 30 17.1465ZM21 19.0005C21 26.9063 20.2 27.0005 20.2 27.0005H9C9 27.0005 11.4 20.1299 21 19.0005Z" fill="#333333"/>
<path d="M30 17.1465H31C31 16.5942 30.5523 16.1465 30 16.1465V17.1465ZM8.1394 32.9797L7.19191 33.2995C7.24498 33.4567 7.33636 33.5983 7.4578 33.7114L8.1394 32.9797ZM20.2 27.0005V28.0005C20.2391 28.0005 20.2781 27.9982 20.3169 27.9936L20.2 27.0005ZM21 19.0005H22C22 18.7149 21.8779 18.443 21.6645 18.2532C21.4511 18.0634 21.1668 17.974 20.8832 18.0073L21 19.0005ZM9 27.0005L8.05594 26.6707C7.9491 26.9766 7.99705 27.3152 8.18459 27.5794C8.37214 27.8435 8.67603 28.0005 9 28.0005V27.0005ZM18.8268 34.4322C21.4912 34.4322 23.6393 33.96 25.3498 33.0407C27.073 32.1147 28.2867 30.7697 29.1276 29.1409C30.7725 25.9547 31 21.6439 31 17.1465H29C29 21.6966 28.7417 25.5287 27.3504 28.2234C26.6732 29.5352 25.7313 30.5652 24.403 31.279C23.0621 31.9997 21.2632 32.4322 18.8268 32.4322V34.4322ZM8.1394 32.9797C7.4578 33.7114 7.46152 33.7148 7.46526 33.7183C7.46649 33.7194 7.47019 33.7228 7.47266 33.725C7.47758 33.7294 7.48246 33.7336 7.48729 33.7378C7.49697 33.7461 7.5065 33.754 7.51585 33.7615C7.5345 33.7764 7.55264 33.7898 7.56995 33.8018C7.60431 33.8257 7.63713 33.8455 7.66681 33.8617C7.72507 33.8937 7.78126 33.9176 7.83105 33.9362C7.92858 33.9725 8.04082 34.0025 8.172 34.0296C8.43499 34.0841 8.86078 34.1447 9.57676 34.2027C11.0136 34.3191 13.717 34.4322 18.8268 34.4322V32.4322C13.735 32.4322 11.0947 32.3191 9.73824 32.2092C9.05757 32.1541 8.72432 32.1016 8.57741 32.0711C8.50366 32.0559 8.49824 32.0505 8.52936 32.0621C8.54593 32.0682 8.58173 32.0825 8.62788 32.1078C8.65152 32.1207 8.68036 32.1379 8.71227 32.1601C8.72835 32.1713 8.74564 32.1841 8.76374 32.1985C8.77282 32.2058 8.78215 32.2135 8.7917 32.2217C8.79647 32.2258 8.80131 32.2301 8.80619 32.2344C8.80865 32.2366 8.81233 32.24 8.81356 32.2411C8.81729 32.2445 8.82101 32.248 8.1394 32.9797ZM30 16.1465C16.2399 16.1465 10.2991 20.1573 7.98145 24.6006C6.84368 26.782 6.64873 28.9516 6.73082 30.5568C6.77197 31.3614 6.88306 32.0337 6.98522 32.5093C7.03638 32.7476 7.08556 32.9376 7.12313 33.0717C7.14192 33.1388 7.15784 33.1919 7.16969 33.2302C7.17562 33.2493 7.18053 33.2647 7.18428 33.2763C7.18616 33.2821 7.18774 33.2869 7.18902 33.2908C7.18966 33.2927 7.19022 33.2944 7.1907 33.2959C7.19095 33.2966 7.19125 33.2975 7.19137 33.2978C7.19165 33.2987 7.19191 33.2995 8.1394 32.9797C9.0869 32.6599 9.08712 32.6606 9.08732 32.6612C9.08736 32.6613 9.08754 32.6618 9.08762 32.6621C9.08778 32.6625 9.08786 32.6628 9.08786 32.6628C9.08787 32.6628 9.08757 32.6619 9.08698 32.6601C9.08581 32.6565 9.08347 32.6492 9.08012 32.6383C9.07341 32.6167 9.06264 32.5809 9.04894 32.532C9.02151 32.4342 8.98245 32.2841 8.94063 32.0894C8.85682 31.6992 8.76297 31.1344 8.72821 30.4547C8.65849 29.0912 8.82788 27.3025 9.75473 25.5255C11.5663 22.0523 16.5558 18.1465 30 18.1465V16.1465ZM20.2 27.0005C20.3169 27.9936 20.3217 27.9931 20.3264 27.9925C20.328 27.9923 20.3327 27.9916 20.3359 27.9912C20.3422 27.9903 20.3485 27.9894 20.3549 27.9884C20.3676 27.9864 20.3803 27.9842 20.3931 27.9817C20.4186 27.9767 20.444 27.9707 20.4694 27.9637C20.5201 27.9496 20.5695 27.9317 20.6172 27.9104C20.7128 27.8676 20.7971 27.813 20.8701 27.7529C21.0127 27.6354 21.1166 27.4937 21.195 27.3552C21.3469 27.0872 21.4726 26.7077 21.581 26.1591C21.8004 25.0494 22 22.9708 22 19.0005H20C20 22.9359 19.7996 24.8574 19.619 25.7712C19.5274 26.2344 19.4531 26.3726 19.455 26.3692C19.4584 26.3631 19.4997 26.2905 19.5986 26.2091C19.6498 26.167 19.7168 26.1221 19.8008 26.0846C19.8426 26.0659 19.8875 26.0495 19.9352 26.0363C19.959 26.0297 19.9833 26.0239 20.0081 26.0191C20.0204 26.0167 20.0329 26.0145 20.0454 26.0125C20.0516 26.0115 20.0579 26.0106 20.0642 26.0098C20.0673 26.0093 20.072 26.0087 20.0736 26.0085C20.0783 26.0079 20.0831 26.0073 20.2 27.0005ZM9 28.0005H20.2V26.0005H9V28.0005ZM20.8832 18.0073C15.8376 18.6009 12.6297 20.7166 10.6816 22.7284C9.71345 23.7282 9.06463 24.6934 8.65498 25.4163C8.45 25.778 8.30427 26.0802 8.20788 26.2973C8.15967 26.406 8.12372 26.4935 8.09882 26.5567C8.08637 26.5883 8.07668 26.6139 8.06958 26.633C8.06603 26.6426 8.06314 26.6505 8.06087 26.6568C8.05974 26.66 8.05876 26.6627 8.05794 26.665C8.05753 26.6662 8.05716 26.6672 8.05682 26.6682C8.05666 26.6687 8.05644 26.6693 8.05635 26.6695C8.05614 26.6701 8.05594 26.6707 9 27.0005C9.94406 27.3303 9.94388 27.3308 9.9437 27.3313C9.94366 27.3314 9.94349 27.3319 9.9434 27.3322C9.94321 27.3327 9.94306 27.3331 9.94294 27.3334C9.94271 27.3341 9.94263 27.3343 9.94268 27.3342C9.9428 27.3339 9.94349 27.3319 9.94477 27.3285C9.94735 27.3215 9.9523 27.3084 9.95977 27.2894C9.97472 27.2515 9.99971 27.1902 10.0359 27.1088C10.1082 26.9458 10.225 26.7024 10.395 26.4023C10.7354 25.8017 11.2866 24.9787 12.1184 24.1197C13.7703 22.4137 16.5625 20.5294 21.1168 19.9936L20.8832 18.0073Z" fill="#333333"/>
<rect x="6.85718" y="11.1465" width="30" height="2" rx="1" fill="#333333"/>
<rect x="20.5714" y="18.0029" width="4.28571" height="1.71429" rx="0.857143" transform="rotate(-90 20.5714 18.0029)" fill="#333333"/>
<path d="M6 37.0029C7.71429 39.1458 15.8571 38.7172 15.8571 38.7172H31.5" stroke="#333333" stroke-width="2" stroke-linecap="round"/>
</svg>
