<svg width="48" height="48" viewBox="0 0 48 48" fill="none" xmlns="http://www.w3.org/2000/svg">
<path fill-rule="evenodd" clip-rule="evenodd" d="M42.9091 20.1579L41.0178 16.0296L42.6646 10.5778L40.75 9.99951L39.1886 15.1689L28.6218 16.1501L28.6221 16.1528C26.2759 16.189 24.1716 16.3516 22.2857 16.6198L22.2857 14.5744C22.2857 14.101 21.9019 13.7172 21.4286 13.7172C20.9552 13.7172 20.5714 14.101 20.5714 14.5744V16.9033C13.4047 18.2641 9.77208 21.2845 8.05957 24.5426C6.90995 26.7298 6.69437 28.91 6.75908 30.5248C6.79152 31.3342 6.89464 32.011 6.99095 32.49C7.03919 32.7299 7.08594 32.9213 7.12176 33.0563C7.13968 33.1238 7.15489 33.1773 7.16622 33.2158C7.17189 33.2351 7.17659 33.2506 7.18018 33.2622L7.18471 33.2767L7.18631 33.2818L7.18694 33.2838C7.18721 33.2846 7.18745 33.2854 8.13938 32.9792L7.18746 33.2854C7.23976 33.448 7.33284 33.5945 7.45783 33.7109L8.13941 32.9792C7.45783 33.7109 7.46155 33.7144 7.46529 33.7178L7.47269 33.7245L7.48732 33.7373C7.49699 33.7457 7.50653 33.7535 7.51587 33.761C7.53453 33.7759 7.55267 33.7893 7.56998 33.8013C7.60434 33.8253 7.63715 33.845 7.66684 33.8613C7.7251 33.8932 7.78129 33.9172 7.83108 33.9357C7.92861 33.9721 8.04084 34.002 8.17203 34.0292C8.43501 34.0836 8.86081 34.1442 9.57679 34.2022C11.0137 34.3186 13.7171 34.4317 18.8268 34.4317C21.4913 34.4317 23.6394 33.9595 25.3498 33.0402C27.073 32.1142 28.2867 30.7692 29.1276 29.1404C30.6757 26.1418 30.9683 22.1471 30.9974 17.9381L39.3375 17.1636L41.0909 20.9909L42.9091 20.1579ZM10.6353 26H19.4408C19.493 25.7682 19.5524 25.4682 19.6126 25.092C19.7768 24.0657 19.9461 22.4755 19.9895 20.1588C16.0944 20.8491 13.6294 22.5588 12.1184 24.1192C11.4596 24.7996 10.9768 25.4574 10.6353 26ZM7.85718 11.146C7.30489 11.146 6.85718 11.5937 6.85718 12.146C6.85718 12.6983 7.30489 13.146 7.85718 13.146H35.8572C36.4095 13.146 36.8572 12.6983 36.8572 12.146C36.8572 11.5937 36.4095 11.146 35.8572 11.146H7.85718ZM6.78084 36.3783C6.43584 35.947 5.80654 35.8771 5.37528 36.2221C4.94402 36.5671 4.8741 37.1964 5.21911 37.6277C5.86376 38.4335 6.97529 38.8732 8.01173 39.1427C9.10037 39.4257 10.3471 39.5788 11.5002 39.6611C12.6598 39.744 13.7594 39.7575 14.5665 39.7507C14.9709 39.7473 15.3041 39.7387 15.5372 39.7309C15.6538 39.727 15.7455 39.7234 15.8088 39.7206L15.8819 39.7173H31.5C32.0523 39.7173 32.5 39.2695 32.5 38.7173C32.5 38.165 32.0523 37.7173 31.5 37.7173H15.8308L15.8042 37.7187L15.8008 37.7188L15.7855 37.7196L15.7217 37.7225C15.6649 37.725 15.58 37.7284 15.4706 37.732C15.2517 37.7393 14.9353 37.7475 14.5495 37.7508C13.7763 37.7573 12.733 37.7441 11.6427 37.6662C10.5457 37.5879 9.43529 37.4463 8.515 37.207C7.54251 36.9542 6.99334 36.6439 6.78084 36.3783Z" fill="#333333"/>
</svg>
