<svg width="48" height="48" viewBox="0 0 48 48" fill="none" xmlns="http://www.w3.org/2000/svg">
<path fill-rule="evenodd" clip-rule="evenodd" d="M12.3943 9.59078C12.0369 10.9244 10.6661 11.7159 9.33241 11.3586C7.99874 11.0012 7.20729 9.63035 7.56464 8.29669C7.922 6.96302 9.29284 6.17157 10.6265 6.52892C11.9602 6.88628 12.7516 8.25712 12.3943 9.59078ZM10.9078 12.7332C10.9659 12.5403 10.782 12.3568 10.5836 12.3917C10.0962 12.4774 9.58289 12.4606 9.07341 12.3241C8.56408 12.1876 8.11123 11.9456 7.73211 11.6278C7.57776 11.4984 7.32667 11.5654 7.28065 11.7615L4.51874 23.5276L4.5188 23.5277L4.51886 23.5278L4.10302 25.8306C3.73332 27.8778 4.9946 29.8667 7.00407 30.4051L7.17976 30.4522C8.72535 30.8664 10.369 30.3195 11.3585 29.0621L13.7149 26.0675C13.9868 25.7219 13.7123 25.2189 13.2745 25.2606L12.0381 25.3783C12.0129 25.3807 11.9874 25.3793 11.9627 25.3741L9.34853 24.8217L7.66569 24.3708C7.52937 24.3342 7.45029 24.1922 7.49106 24.0571L10.9078 12.7332ZM13.1344 10.4587C13.0644 10.6049 13.1333 10.7852 13.2881 10.8332C16.6189 11.866 20.139 13.112 21.98 15.8598C22.0588 15.9774 22.218 16.0121 22.3371 15.9356C23.3034 15.3153 24.3565 14.8198 25.4732 14.471C25.6265 14.4231 25.6994 14.2459 25.618 14.1075C23.075 9.78209 18.3674 8.50678 13.6141 7.47201C13.4086 7.42727 13.237 7.64505 13.3031 7.84469C13.5106 8.47109 13.5436 9.16312 13.36 9.84815C13.3027 10.062 13.2268 10.266 13.1344 10.4587ZM29.2958 15C22.9265 15 17.6669 19.976 17.3142 26.3354L17.0585 30.9446C17.0267 31.5178 17.4829 32 18.057 32H41.9639C42.2538 32 42.4829 31.7544 42.4627 31.4653L42.0077 24.9305C41.9712 24.4065 41.5354 24 41.0101 24H33.4429L32.9954 15.9445C32.9659 15.4146 32.5277 15 31.9969 15H29.2958ZM29.5 18H29.3955C24.4461 18 20.3589 21.7441 20.0843 26.5294L20.0431 27.2477C20.0226 27.6049 20.3729 27.8674 20.7099 27.7475L27.1803 25.4458C27.5923 25.2993 28.0277 25.2243 28.4666 25.2243H29.5C29.7761 25.2243 30 25.0004 30 24.7243V18.5C30 18.2239 29.7761 18 29.5 18ZM15 38C15 35.7909 16.7909 34 19 34H39C41.2091 34 43 35.7909 43 38C43 40.2091 41.2091 42 39 42H19C16.7909 42 15 40.2091 15 38ZM20 40C21.1046 40 22 39.1046 22 38C22 36.8954 21.1046 36 20 36C18.8954 36 18 36.8954 18 38C18 39.1046 18.8954 40 20 40ZM26 40C27.1046 40 28 39.1046 28 38C28 36.8954 27.1046 36 26 36C24.8954 36 24 36.8954 24 38C24 39.1046 24.8954 40 26 40ZM34 38C34 39.1046 33.1046 40 32 40C30.8954 40 30 39.1046 30 38C30 36.8954 30.8954 36 32 36C33.1046 36 34 36.8954 34 38ZM38 40C39.1046 40 40 39.1046 40 38C40 36.8954 39.1046 36 38 36C36.8954 36 36 36.8954 36 38C36 39.1046 36.8954 40 38 40Z" fill="#333333"/>
</svg>
