<svg width="48" height="48" viewBox="0 0 48 48" fill="none" xmlns="http://www.w3.org/2000/svg">
<path fill-rule="evenodd" clip-rule="evenodd" d="M29.2948 15C22.926 15 17.6665 19.9754 17.3132 26.3344L17.0016 31.9445C16.9697 32.5177 17.4259 33 18 33H41.9144C42.2014 33 42.4295 32.7589 42.4136 32.4723L41.9954 24.9445C41.966 24.4146 41.5277 24 40.9969 24H33.4429L32.9954 15.9445C32.966 15.4146 32.5277 15 31.9969 15H29.2948ZM29.5 18H29.3956C24.4462 18 20.3589 21.7441 20.0844 26.5294L20.0432 27.2477C20.0227 27.6049 20.3729 27.8674 20.7099 27.7475L27.1804 25.4458C27.5923 25.2993 28.0278 25.2243 28.4666 25.2243H29.5C29.7761 25.2243 30 25.0004 30 24.7243V18.5C30 18.2239 29.7761 18 29.5 18Z" fill="#333333"/>
<path fill-rule="evenodd" clip-rule="evenodd" d="M10.9077 12.733C10.9659 12.5402 10.7819 12.3566 10.5836 12.3915C10.0962 12.4772 9.58286 12.4605 9.07338 12.324C8.56404 12.1875 8.1112 11.9454 7.73208 11.6276C7.57773 11.4983 7.32664 11.5653 7.28062 11.7613L4.51871 23.5275C4.5187 23.5275 4.51872 23.5276 4.51877 23.5276C4.51881 23.5276 4.51883 23.5276 4.51883 23.5277L4.10298 25.8304C3.73329 27.8777 4.99457 29.8665 7.00404 30.405L7.17973 30.4521C8.72532 30.8662 10.369 30.3194 11.3585 29.0619L13.7149 26.0674C13.9868 25.7218 13.7123 25.2187 13.2745 25.2604L12.038 25.3782C12.0128 25.3806 11.9874 25.3791 11.9626 25.3739L9.3485 24.8215L7.66566 24.3706C7.52934 24.3341 7.45026 24.192 7.49102 24.0569L10.9077 12.733Z" fill="#333333"/>
<circle cx="9.97946" cy="8.9437" r="2.5" transform="rotate(15 9.97946 8.9437)" fill="#333333"/>
<path fill-rule="evenodd" clip-rule="evenodd" d="M13.2881 10.8333C13.1333 10.7853 13.0644 10.605 13.1344 10.4588C13.2268 10.2661 13.3027 10.0621 13.36 9.84824C13.5436 9.16321 13.5106 8.47117 13.3031 7.84477C13.237 7.64513 13.4086 7.42736 13.6141 7.47209C18.3674 8.50686 23.075 9.78217 25.618 14.1076C25.6994 14.246 25.6265 14.4232 25.4732 14.4711C24.3565 14.8199 23.3034 15.3154 22.3371 15.9357C22.2179 16.0121 22.0588 15.9775 21.98 15.8599C20.139 13.112 16.6189 11.8661 13.2881 10.8333Z" fill="#333333"/>
<path fill-rule="evenodd" clip-rule="evenodd" d="M19 34C16.7909 34 15 35.7909 15 38C15 40.2091 16.7909 42 19 42H39C41.2091 42 43 40.2091 43 38C43 35.7909 41.2091 34 39 34H19ZM22 38C22 39.1046 21.1046 40 20 40C18.8954 40 18 39.1046 18 38C18 36.8954 18.8954 36 20 36C21.1046 36 22 36.8954 22 38ZM28 38C28 39.1046 27.1046 40 26 40C24.8954 40 24 39.1046 24 38C24 36.8954 24.8954 36 26 36C27.1046 36 28 36.8954 28 38ZM32 40C33.1046 40 34 39.1046 34 38C34 36.8954 33.1046 36 32 36C30.8954 36 30 36.8954 30 38C30 39.1046 30.8954 40 32 40ZM40 38C40 39.1046 39.1046 40 38 40C36.8954 40 36 39.1046 36 38C36 36.8954 36.8954 36 38 36C39.1046 36 40 36.8954 40 38Z" fill="#333333"/>
</svg>
