<svg width="48" height="48" viewBox="0 0 48 48" fill="none" xmlns="http://www.w3.org/2000/svg">
<path d="M12.127 14.2847L8.88888 17.5228C7.80951 18.6022 6.73015 17.5228 7.80951 16.4435L16.4444 7.80855C17.5238 6.72919 18.6032 7.80855 17.5238 8.88792L14.2857 12.126C14.2857 12.126 16.4444 12.126 18.6032 14.2847L20.7619 16.4435L30.4762 6.72919L33.7143 9.96728L28.3174 23.999L34.7936 32.6339L39.1111 30.4752L40.1905 31.5546L31.5555 40.1895L30.4762 39.1101L32.6349 34.7927L24 28.3165L9.96824 33.7133L6.73015 30.4752L16.4444 20.7609L14.2857 18.6022C12.127 16.4435 12.127 14.2847 12.127 14.2847Z" fill="#333333"/>
</svg>
