<svg width="48" height="48" viewBox="0 0 48 48" fill="none" xmlns="http://www.w3.org/2000/svg">
<path d="M12.127 14.2851L8.88889 17.5232C7.80952 18.6026 6.73016 17.5232 7.80952 16.4438L16.4444 7.80892C17.5238 6.72955 18.6032 7.80892 17.5238 8.88828L14.2857 12.1264C14.2857 12.1264 16.4444 12.1264 18.6032 14.2851L20.7619 16.4438L30.4762 6.72955L33.7143 9.96765L28.3175 23.9994L34.7936 32.6343L39.1111 30.4756L40.1905 31.5549L31.5555 40.1899L30.4762 39.1105L32.6349 34.793L24 28.3168L9.96825 33.7137L6.73016 30.4756L16.4444 20.7613L14.2857 18.6026C12.127 16.4438 12.127 14.2851 12.127 14.2851Z" fill="#333333"/>
</svg>
