<svg width="48" height="48" viewBox="0 0 48 48" fill="none" xmlns="http://www.w3.org/2000/svg">
<mask id="path-1-inside-1" fill="white">
<path fill-rule="evenodd" clip-rule="evenodd" d="M14.5 33.9998C15.8807 33.9998 17 32.8805 17 31.4998C17 30.9388 16.8152 30.421 16.5033 30.0039C18.7961 30.0205 19.5855 30.1038 19.8573 30.5228C20 30.7428 20 31.0554 20 31.4994C20 34.537 17.5376 36.9994 14.5 36.9994C11.4624 36.9994 9 34.537 9 31.4994C9 30.21 9 30.0293 12.4967 30.0039C12.1848 30.421 12 30.9388 12 31.4998C12 32.8805 13.1193 33.9998 14.5 33.9998Z"/>
</mask>
<path fill-rule="evenodd" clip-rule="evenodd" d="M14.5 33.9998C15.8807 33.9998 17 32.8805 17 31.4998C17 30.9388 16.8152 30.421 16.5033 30.0039C18.7961 30.0205 19.5855 30.1038 19.8573 30.5228C20 30.7428 20 31.0554 20 31.4994C20 34.537 17.5376 36.9994 14.5 36.9994C11.4624 36.9994 9 34.537 9 31.4994C9 30.21 9 30.0293 12.4967 30.0039C12.1848 30.421 12 30.9388 12 31.4998C12 32.8805 13.1193 33.9998 14.5 33.9998Z" fill="#333333"/>
<path d="M16.5033 30.0039L16.5177 28.004L12.4881 27.9749L14.9017 31.2018L16.5033 30.0039ZM19.8573 30.5228L18.1793 31.6111L18.1793 31.6111L19.8573 30.5228ZM12.4967 30.0039L14.0983 31.2018L16.5119 27.9748L12.4822 28.004L12.4967 30.0039ZM15 31.4998C15 31.7759 14.7761 31.9998 14.5 31.9998V35.9998C16.9853 35.9998 19 33.9851 19 31.4998H15ZM14.9017 31.2018C14.9639 31.285 15 31.3853 15 31.4998H19C19 30.4924 18.6666 29.5571 18.1049 28.806L14.9017 31.2018ZM16.4888 32.0039C17.6578 32.0123 18.2909 32.0394 18.6505 32.0916C18.8232 32.1167 18.8112 32.1323 18.7165 32.0894C18.5863 32.0305 18.3582 31.887 18.1793 31.6111L21.5353 29.4345C20.8926 28.4437 19.8284 28.2208 19.2258 28.1332C18.5496 28.0349 17.6416 28.0121 16.5177 28.004L16.4888 32.0039ZM18.1793 31.6111C18.0953 31.4815 18.0487 31.3627 18.0235 31.2782C17.9996 31.1984 17.9943 31.1475 17.9943 31.1471C17.9941 31.1455 17.9948 31.1515 17.9957 31.1675C17.9967 31.1835 17.9976 31.206 17.9983 31.2373C17.9999 31.3046 18 31.3827 18 31.4994H22C22 31.3129 22.0026 31.0013 21.97 30.7071C21.9355 30.3952 21.8458 29.9132 21.5353 29.4345L18.1793 31.6111ZM18 31.4994C18 33.4324 16.433 34.9994 14.5 34.9994V38.9994C18.6421 38.9994 22 35.6416 22 31.4994H18ZM14.5 34.9994C12.567 34.9994 11 33.4324 11 31.4994H7C7 35.6416 10.3579 38.9994 14.5 38.9994V34.9994ZM11 31.4994C11 31.3235 11.0006 31.2369 11.004 31.1722C11.0074 31.109 11.0101 31.1572 10.983 31.2557C10.9509 31.3725 10.8778 31.5577 10.7229 31.7442C10.5685 31.93 10.4035 32.0323 10.3016 32.0811C10.2134 32.1234 10.1782 32.1231 10.2497 32.1086C10.3175 32.0949 10.439 32.0768 10.64 32.0602C11.0492 32.0263 11.6379 32.0102 12.5112 32.0039L12.4822 28.004C11.6072 28.0103 10.8846 28.0263 10.3104 28.0738C9.78381 28.1173 9.1423 28.201 8.57255 28.4741C7.82407 28.8329 7.33215 29.4462 7.12623 30.195C6.98366 30.7134 7 31.2812 7 31.4994H11ZM14 31.4998C14 31.3853 14.0361 31.285 14.0983 31.2018L10.8951 28.8061C10.3334 29.5571 10 30.4924 10 31.4998H14ZM14.5 31.9998C14.2239 31.9998 14 31.7759 14 31.4998H10C10 33.9851 12.0147 35.9998 14.5 35.9998V31.9998Z" fill="#333333" mask="url(#path-1-inside-1)"/>
<path d="M22 26H29.6299L29.1195 30H22V26Z" fill="#333333" stroke="#333333" stroke-width="2"/>
<path d="M34 18V26L31 29V30H29L31 18H34Z" fill="#333333" stroke="#333333" stroke-width="2"/>
<mask id="path-5-inside-2" fill="white">
<path fill-rule="evenodd" clip-rule="evenodd" d="M36.5 34.001C37.8807 34.001 39 32.8817 39 31.501C39 31.1516 38.9283 30.819 38.7989 30.517L41.7297 29.9562C42.3006 32.9397 40.3448 35.821 37.3613 36.3918C34.3779 36.9627 31.4966 35.0069 30.9257 32.0234L34.0008 31.435C34.0003 31.457 34 31.4789 34 31.501C34 32.8817 35.1193 34.001 36.5 34.001Z"/>
</mask>
<path fill-rule="evenodd" clip-rule="evenodd" d="M36.5 34.001C37.8807 34.001 39 32.8817 39 31.501C39 31.1516 38.9283 30.819 38.7989 30.517L41.7297 29.9562C42.3006 32.9397 40.3448 35.821 37.3613 36.3918C34.3779 36.9627 31.4966 35.0069 30.9257 32.0234L34.0008 31.435C34.0003 31.457 34 31.4789 34 31.501C34 32.8817 35.1193 34.001 36.5 34.001Z" fill="#333333"/>
<path d="M39 31.501L36.5232 31.501L36.5232 31.501L39 31.501ZM36.5 34.001L36.5 31.5242L36.5 31.5242L36.5 34.001ZM38.7989 30.517L38.3334 28.0843L35.3096 28.6629L36.5224 31.4927L38.7989 30.517ZM41.7297 29.9562L44.1624 29.4908L43.6969 27.0581L41.2643 27.5236L41.7297 29.9562ZM30.9257 32.0234L30.4602 29.5908L28.0276 30.0562L28.493 32.4889L30.9257 32.0234ZM34.0008 31.435L36.4768 31.4991L36.5564 28.4244L33.5354 29.0024L34.0008 31.435ZM34 31.501L31.5232 31.501L31.5232 31.501L34 31.501ZM36.5232 31.501C36.5232 31.5058 36.5227 31.508 36.5227 31.5083C36.5226 31.5087 36.5225 31.5089 36.5224 31.5093C36.522 31.5102 36.5203 31.5135 36.5164 31.5174C36.5125 31.5213 36.5092 31.523 36.5083 31.5234C36.5079 31.5235 36.5077 31.5236 36.5073 31.5237C36.507 31.5237 36.5048 31.5242 36.5 31.5242L36.5 36.4778C39.2486 36.4778 41.4768 34.2496 41.4768 31.501L36.5232 31.501ZM36.5224 31.4927C36.5225 31.493 36.5226 31.4932 36.5227 31.4937C36.5227 31.4939 36.5232 31.4961 36.5232 31.501L41.4768 31.501C41.4768 30.8101 41.3345 30.1459 41.0754 29.5413L36.5224 31.4927ZM41.2643 27.5236L38.3334 28.0843L39.2644 32.9497L42.1952 32.3889L41.2643 27.5236ZM37.8268 38.8245C42.1537 37.9966 44.9903 33.8177 44.1624 29.4908L39.2971 30.4217C39.6108 32.0616 38.5358 33.6454 36.8959 33.9592L37.8268 38.8245ZM28.493 32.4889C29.321 36.8159 33.4998 39.6524 37.8268 38.8245L36.8959 33.9592C35.2559 34.273 33.6721 33.1979 33.3584 31.558L28.493 32.4889ZM33.5354 29.0024L30.4602 29.5908L31.3912 34.4561L34.4663 33.8677L33.5354 29.0024ZM36.4768 31.501C36.4768 31.5003 36.4768 31.4997 36.4768 31.4991L31.5249 31.371C31.5238 31.4142 31.5232 31.4576 31.5232 31.501L36.4768 31.501ZM36.5 31.5242C36.4951 31.5242 36.493 31.5237 36.4927 31.5237C36.4923 31.5236 36.492 31.5235 36.4917 31.5234C36.4907 31.523 36.4875 31.5213 36.4836 31.5174C36.4797 31.5135 36.478 31.5102 36.4776 31.5093C36.4774 31.5089 36.4774 31.5087 36.4773 31.5083C36.4772 31.508 36.4768 31.5058 36.4768 31.501L31.5232 31.501C31.5232 34.2496 33.7514 36.4778 36.5 36.4778L36.5 31.5242Z" fill="#333333" mask="url(#path-5-inside-2)"/>
<path d="M32.0684 31.32C31.5245 31.4159 30.9961 31.0508 31.0001 30.4985C31.0082 29.3913 31.3507 28.3037 31.9947 27.384C32.8313 26.1891 34.1084 25.3755 35.5449 25.1222C36.9815 24.8689 38.4598 25.1966 39.6547 26.0333C40.5744 26.6773 41.2682 27.5822 41.6545 28.6199C41.8472 29.1374 41.4755 29.6613 40.9316 29.7572L36.5 30.5386L32.0684 31.32Z" fill="#333333" stroke="#333333" stroke-width="2"/>
<path d="M10 20C10 18.8954 10.8954 18 12 18H21C22.1046 18 23 18.8954 23 20H10Z" fill="#333333" stroke="#333333" stroke-width="2"/>
<path d="M21 30H6.01458C6.12685 27.903 6.87751 26.4746 7.92156 25.5459C9.07513 24.5199 10.7045 24 12.5556 24H22V29C22 29.5523 21.5523 30 21 30Z" fill="#333333" stroke="#333333" stroke-width="2"/>
<path d="M30 15.5C30 14.1193 31.1193 13 32.5 13H36V18H32.5C31.1193 18 30 16.8807 30 15.5Z" fill="#333333" stroke="#333333" stroke-width="2"/>
<rect x="25.3462" y="13" width="5" height="2" rx="1" transform="rotate(9.96768 25.3462 13)" fill="#333333"/>
</svg>
