<svg width="48" height="48" viewBox="0 0 48 48" fill="none" xmlns="http://www.w3.org/2000/svg">
<path fill-rule="evenodd" clip-rule="evenodd" d="M8.58583 24.4142C8.21073 24.0391 8 23.5304 8 22.9999C8 16.8243 13.252 12 19.5 12C23.9258 12 27.8519 14.4207 29.7654 18.0277C29.8407 18.0096 29.9192 18 30 18H42C42.5523 18 43 18.4477 43 19C43 19.5523 42.5523 20 42 20H30.5701C30.8498 20.9501 31 21.9557 31 22.9999C31 24.1045 30.1046 24.9999 29.0001 24.9999C24.5059 25.0001 22.0995 25 19.8454 24.9998C17.2992 24.9997 14.9473 24.9996 10.0001 24.9999C9.46968 25 8.96093 24.7893 8.58583 24.4142ZM8.43031 34.9931L5.76364 31.9931C4.0439 30.0584 5.41732 27 8.00587 27H38.7198C41.1159 27 42.545 29.6704 41.2159 31.6641L39.2159 34.6641C38.6595 35.4987 37.7228 36 36.7198 36H10.6725C9.81562 36 8.99961 35.6336 8.43031 34.9931ZM15 31.5C15 32.8807 13.8807 34 12.5 34C11.1193 34 10 32.8807 10 31.5C10 30.1193 11.1193 29 12.5 29C13.8807 29 15 30.1193 15 31.5ZM23.5 34C24.8807 34 26 32.8807 26 31.5C26 30.1193 24.8807 29 23.5 29C22.1193 29 21 30.1193 21 31.5C21 32.8807 22.1193 34 23.5 34ZM37 31.5C37 32.8807 35.8807 34 34.5 34C33.1193 34 32 32.8807 32 31.5C32 30.1193 33.1193 29 34.5 29C35.8807 29 37 30.1193 37 31.5Z" fill="#333333"/>
</svg>
