<svg width="48" height="48" viewBox="0 0 48 48" fill="none" xmlns="http://www.w3.org/2000/svg">
<path d="M36 30.5C36 31.8807 34.8807 33 33.5 33C32.1193 33 31 31.8807 31 30.5C31 30.2347 31.0413 29.9791 31.1179 29.7392L28.3219 26.9432C27.9292 26.5505 27.9292 25.9138 28.3219 25.5211C28.7146 25.1284 29.3513 25.1284 29.744 25.5211L32.4523 28.2294C32.771 28.0822 33.1259 28 33.5 28C34.8807 28 36 29.1193 36 30.5Z" fill="#333333"/>
<path fill-rule="evenodd" clip-rule="evenodd" d="M21.3709 39.6341L21.3702 39.6334C16.0777 34.8917 11.7264 30.993 8.69183 27.3273C5.6632 23.6688 4 20.3045 4 16.6404C4 10.6778 8.7345 6 14.7692 6C18.1832 6 21.4678 7.57272 23.6095 10.0577L24 10.5107L24.3905 10.0577C26.5322 7.57272 29.8168 6 33.2308 6C39.2655 6 44 10.6778 44 16.6404C44 19.164 43.2111 21.5454 41.7305 23.9794C43.1514 25.7705 44 28.0362 44 30.5C44 36.299 39.299 41 33.5 41C31.2019 41 29.0763 40.2617 27.3474 39.0095L26.6846 39.6046L26.6294 39.654L24.0013 42L21.3709 39.6341ZM42 30.5C42 35.1944 38.1944 39 33.5 39C28.8056 39 25 35.1944 25 30.5C25 25.8056 28.8056 22 33.5 22C38.1944 22 42 25.8056 42 30.5Z" fill="#333333"/>
</svg>
