<svg width="48" height="48" viewBox="0 0 48 48" fill="none" xmlns="http://www.w3.org/2000/svg">
<path fill-rule="evenodd" clip-rule="evenodd" d="M21.3702 39.6334L21.3709 39.6341L24.0013 42L26.6294 39.654L26.6306 39.653L26.6836 39.6055L26.6846 39.6046C26.9072 39.4048 27.1281 39.2064 27.3474 39.0095C24.7134 37.1017 23 34.0009 23 30.5C23 24.701 27.701 20 33.5 20C36.8352 20 39.8071 21.555 41.7305 23.9794C43.2111 21.5454 44 19.164 44 16.6404C44 10.6778 39.2655 6 33.2308 6C29.8168 6 26.5322 7.57272 24.3905 10.0577L24 10.5107L23.6095 10.0577C21.4678 7.57272 18.1832 6 14.7692 6C8.7345 6 4 10.6778 4 16.6404C4 20.3045 5.6632 23.6688 8.69183 27.3273C11.7264 30.993 16.0777 34.8917 21.3702 39.6334Z" fill="#333333"/>
<circle cx="33.5" cy="30.5" r="9.5" stroke="#333333" stroke-width="2"/>
<circle cx="33.5" cy="30.5" r="2.5" fill="#333333"/>
<rect x="27.6108" y="26.2324" width="2.01118" height="8" rx="1.00559" transform="rotate(-45 27.6108 26.2324)" fill="#333333"/>
</svg>
