<svg width="48" height="48" viewBox="0 0 48 48" fill="none" xmlns="http://www.w3.org/2000/svg">
<path fill-rule="evenodd" clip-rule="evenodd" d="M15.3302 11C15.8825 11 16.3302 11.4477 16.3302 12V22C16.3302 22.5523 15.8825 23 15.3302 23C14.7779 23 14.3302 22.5523 14.3302 22V12C14.3302 11.4477 14.7779 11 15.3302 11Z" fill="#333333"/>
<path fill-rule="evenodd" clip-rule="evenodd" d="M20.5263 13.9999C20.8025 14.4782 20.6386 15.0898 20.1603 15.3659L11.5 20.3659C11.0218 20.6421 10.4102 20.4782 10.134 19.9999C9.85788 19.5216 10.0218 18.91 10.5 18.6339L19.1603 13.6339C19.6386 13.3577 20.2502 13.5216 20.5263 13.9999Z" fill="#333333"/>
<path fill-rule="evenodd" clip-rule="evenodd" d="M20.5264 20.0001C20.2502 20.4784 19.6387 20.6423 19.1604 20.3661L10.5001 15.3661C10.0218 15.09 9.85794 14.4784 10.1341 14.0001C10.4102 13.5218 11.0218 13.3579 11.5001 13.6341L20.1604 18.6341C20.6387 18.9102 20.8025 19.5218 20.5264 20.0001Z" fill="#333333"/>
<path fill-rule="evenodd" clip-rule="evenodd" d="M25 29.7546V9.35714C25 6.39847 27.2386 4 30 4C32.7615 4 35 6.39847 35 9.35714V29.7546C36.829 31.2208 38 33.4736 38 36C38 40.4183 34.4183 44 30 44C25.5818 44 22 40.4183 22 36C22 33.4736 23.1711 31.2208 25 29.7546ZM28.9824 21.4212C30.1779 21.7313 31.5429 22.0854 33 22.061V19.976H31C30.4478 19.976 30 19.5282 30 18.976C30 18.4237 30.4478 17.976 31 17.976H33V15.976H31C30.4478 15.976 30 15.5282 30 14.976C30 14.4237 30.4478 13.976 31 13.976H33V11.976H31C30.4478 11.976 30 11.5282 30 10.976C30 10.4237 30.4478 9.97595 31 9.97595H33V9.35714C33 7.58194 31.6569 6.14286 30 6.14286C28.3432 6.14286 27 7.58194 27 9.35714V20.9986C27.5858 21.0589 28.2525 21.2319 28.9824 21.4212Z" fill="#333333"/>
</svg>
