<svg width="48" height="48" viewBox="0 0 48 48" fill="none" xmlns="http://www.w3.org/2000/svg">
<path fill-rule="evenodd" clip-rule="evenodd" d="M21 28C21 28.2425 21.0173 28.4811 21.0507 28.7144C19.1928 30.1793 18 32.4504 18 35C18 39.4183 21.5818 43 26 43C30.4183 43 34 39.4183 34 35C34 32.4504 32.8073 30.1793 30.9494 28.7144C30.9828 28.4811 31 28.2425 31 28V10C31 7.23858 28.7615 5 26 5C23.2386 5 21 7.23858 21 10V28ZM29 21.085C27.5429 21.1094 26.1778 20.7553 24.9824 20.4452C24.2525 20.2559 23.5858 20.083 23 20.0226V10C23 8.34315 24.3432 7 26 7C27.3063 7 28.4175 7.83481 28.8293 9H27C26.4478 9 26 9.44772 26 10C26 10.5523 26.4478 11 27 11H29V13H27C26.4478 13 26 13.4477 26 14C26 14.5523 26.4478 15 27 15H29V17H27C26.4478 17 26 17.4477 26 18C26 18.5523 26.4478 19 27 19H29V21.085ZM10.6782 8C9.84982 8 9.17824 8.67157 9.17824 9.5V13.4017L5.79908 11.4508C5.08164 11.0365 4.16425 11.2824 3.75004 11.9998C3.33583 12.7172 3.58164 13.6346 4.29908 14.0488L7.67824 15.9998L4.29908 17.9508C3.58164 18.365 3.33583 19.2824 3.75004 19.9998C4.16425 20.7172 5.08164 20.963 5.79908 20.5488L9.17824 18.5979V22.5C9.17824 23.3284 9.84982 24 10.6782 24C11.5067 24 12.1782 23.3284 12.1782 22.5V18.5979L15.5574 20.5488C16.2748 20.963 17.1922 20.7172 17.6064 19.9998C18.0207 19.2824 17.7748 18.365 17.0574 17.9508L13.6782 15.9998L17.0574 14.0488C17.7748 13.6346 18.0207 12.7172 17.6064 11.9998C17.1922 11.2824 16.2748 11.0365 15.5574 11.4508L12.1782 13.4017V9.5C12.1782 8.67157 11.5067 8 10.6782 8Z" fill="#333333"/>
</svg>
