<svg width="48" height="48" viewBox="0 0 48 48" fill="none" xmlns="http://www.w3.org/2000/svg">
<circle cx="24" cy="38" r="3.5" stroke="#333333" stroke-width="3"/>
<path fill-rule="evenodd" clip-rule="evenodd" d="M28 7H24H20L18 11H22V18.9918L26 16.5113V11H30L28 7ZM32.2361 11L30.2361 7H32L34 11H32.2361ZM40 7H34.2361L36.2361 11H40C41.1046 11 42 10.1046 42 9C42 7.89543 41.1046 7 40 7ZM16 7H17.7639L15.7639 11H14L16 7ZM22 23.9918V21.3451L26 18.8646V21.5113L22 23.9918ZM22 31.3451V33C22 34.1046 22.8954 35 24 35C25.1046 35 26 34.1046 26 33V28.8646L22 31.3451ZM26 26.5113V23.8646L22 26.3451V28.9918L26 26.5113ZM13.7639 7H8C6.89543 7 6 7.89543 6 9C6 10.1046 6.89543 11 8 11H11.7639L13.7639 7Z" fill="#333333"/>
</svg>
