<svg width="48" height="48" viewBox="0 0 48 48" fill="none" xmlns="http://www.w3.org/2000/svg">
<path d="M13 13C13 11.3431 14.3431 10 16 10C16.5523 10 17 9.55229 17 9C17 8.44772 16.5523 8 16 8C13.2386 8 11 10.2386 11 13C11 13.5523 11.4477 14 12 14C12.5523 14 13 13.5523 13 13Z" fill="#333333"/>
<path fill-rule="evenodd" clip-rule="evenodd" d="M24.1818 32.342C24.1818 31.9324 24.5492 31.2465 24.9536 30.4914C25.449 29.5666 26 28.5378 26 27.7852C26 27.0326 25.449 26.0039 24.9536 25.079C24.5492 24.3239 24.1818 23.638 24.1818 23.2284V22.7727C24.1818 22.3631 24.5492 21.7693 24.9536 21.1155C25.449 20.3148 26 19.4241 26 18.6716C26 17.919 25.449 16.8902 24.9536 15.9654C24.5492 15.2102 24.1818 14.5244 24.1818 14.1147V12.7477C24.1818 2.41744 7.81818 2.41744 7.81818 12.7477V14.1147C7.81818 14.5244 7.45083 15.2102 7.04638 15.9654C6.55102 16.8902 6 17.919 6 18.6716C6 19.4241 6.55102 20.3148 7.04638 21.1155C7.45083 21.7693 7.81818 22.3631 7.81818 22.7727V23.2284C7.81818 23.638 7.45083 24.3239 7.04638 25.079C6.55102 26.0039 6 27.0326 6 27.7852C6 28.5378 6.55102 29.5666 7.04638 30.4914C7.45083 31.2465 7.81818 31.9324 7.81818 32.342V41H5C4.44772 41 4 41.4477 4 42C4 42.5523 4.44772 43 5 43H27C27.5523 43 28 42.5523 28 42C28 41.4477 27.5523 41 27 41H24.1818V32.342ZM9.81818 32.342V39H22.1818V32.342C22.1818 31.6145 22.4959 30.9278 22.6555 30.5879C22.8165 30.2449 23.0222 29.8611 23.2034 29.5229C23.2457 29.4441 23.2865 29.3679 23.3252 29.2952C23.5509 28.8709 23.7347 28.5093 23.8627 28.1938C23.9623 27.9482 23.9897 27.821 23.9972 27.7852C23.9897 27.7495 23.9623 27.6222 23.8627 27.3766C23.7347 27.0612 23.5509 26.6995 23.3252 26.2753C23.2865 26.2026 23.2457 26.1263 23.2034 26.0475C23.0222 25.7093 22.8165 25.3255 22.6555 24.9825C22.4959 24.6426 22.1818 23.9559 22.1818 23.2284V22.7727C22.1818 22.0023 22.5259 21.328 22.7002 21.0003C22.8704 20.6805 23.0887 20.3279 23.27 20.0351C23.3111 19.9689 23.3502 19.9058 23.3864 19.8467C23.6107 19.4814 23.7792 19.19 23.8932 18.9376C23.9611 18.7873 23.9865 18.6999 23.9956 18.6643C23.9862 18.6204 23.9564 18.4941 23.8627 18.263C23.7347 17.9475 23.5509 17.5858 23.3252 17.1616C23.2867 17.0893 23.2461 17.0134 23.2041 16.935L23.2034 16.9339C23.0222 16.5957 22.8165 16.2118 22.6555 15.8688C22.4959 15.529 22.1818 14.8423 22.1818 14.1147V12.7477C22.1818 10.7471 21.4135 9.37309 20.3371 8.46703C19.2161 7.52347 17.6478 7 16 7C14.3522 7 12.7839 7.52347 11.6629 8.46703C10.5865 9.37309 9.81818 10.7471 9.81818 12.7477V14.1147C9.81818 14.8423 9.50408 15.529 9.34455 15.8688C9.18355 16.2118 8.97783 16.5956 8.79659 16.9338C8.75445 17.0124 8.71339 17.089 8.67477 17.1616C8.44908 17.5858 8.26534 17.9475 8.13734 18.263C8.04355 18.4941 8.01378 18.6204 8.00435 18.6643C8.01352 18.6999 8.03889 18.7873 8.10677 18.9376C8.22078 19.19 8.38931 19.4814 8.61357 19.8467C8.64982 19.9058 8.68894 19.9689 8.72996 20.0352C8.91129 20.3279 9.12962 20.6805 9.29977 21.0003C9.47408 21.328 9.81818 22.0023 9.81818 22.7727V23.2284C9.81818 23.9559 9.50408 24.6426 9.34455 24.9825C9.18357 25.3254 8.97787 25.7092 8.79665 26.0473C8.75443 26.1261 8.71346 26.2025 8.67477 26.2753C8.44908 26.6995 8.26534 27.0612 8.13734 27.3766C8.03767 27.6222 8.0103 27.7495 8.00281 27.7852C8.0103 27.821 8.03767 27.9482 8.13734 28.1938C8.26534 28.5093 8.44908 28.8709 8.67477 29.2952C8.71346 29.3679 8.75436 29.4442 8.79658 29.523C8.97781 29.8611 9.18357 30.245 9.34455 30.5879C9.50408 30.9278 9.81818 31.6145 9.81818 32.342Z" fill="#333333"/>
<path fill-rule="evenodd" clip-rule="evenodd" d="M45 19.5C45 23.8668 41.707 27.4646 37.4687 27.9454V30.0717L40.9092 30.0714C41.5426 30.0714 42.0561 30.5848 42.0562 31.2182C42.0562 31.8516 41.5428 32.3651 40.9094 32.3652L37.4687 32.3655V35.8066C37.4687 36.44 36.9553 36.9535 36.3219 36.9535C35.6885 36.9535 35.175 36.44 35.175 35.8066V32.3656L31.7344 32.3659C31.101 32.366 30.5875 31.8525 30.5874 31.2191C30.5874 30.5857 31.1008 30.0722 31.7342 30.0722L35.175 30.0719V27.8973C31.1099 27.261 28 23.7437 28 19.5C28 14.8056 31.8056 11 36.5 11C41.1944 11 45 14.8056 45 19.5ZM36.5 26C40.0899 26 43 23.0899 43 19.5C43 15.9101 40.0899 13 36.5 13C32.9101 13 30 15.9101 30 19.5C30 23.0899 32.9101 26 36.5 26Z" fill="#333333"/>
</svg>
