<svg width="48" height="48" viewBox="0 0 48 48" fill="none" xmlns="http://www.w3.org/2000/svg">
<path d="M34 35C34 39.4183 30.4183 43 26 43C21.5817 43 18 39.4183 18 35C18 30.5817 21.5817 27 26 27C30.4183 27 34 30.5817 34 35Z" fill="#333333"/>
<path fill-rule="evenodd" clip-rule="evenodd" d="M29 28V10C29 8.34315 27.6569 7 26 7C24.3431 7 23 8.34315 23 10V28C23 29.6569 24.3431 31 26 31C27.6569 31 29 29.6569 29 28ZM26 5C23.2386 5 21 7.23858 21 10V28C21 30.7614 23.2386 33 26 33C28.7614 33 31 30.7614 31 28V10C31 7.23858 28.7614 5 26 5Z" fill="#333333"/>
<path d="M21 20.7884C22.5 18.4802 26.5 22.1073 31 20.7884C31 21.2976 31 24.2524 31 27.0006C31 29.762 28.7614 32 26 32C23.2386 32 21 29.7615 21 27C21 24.4067 21 21.6114 21 20.7884Z" fill="#333333"/>
<path d="M26 10C26 9.44772 26.4477 9 27 9H29V11H27C26.4477 11 26 10.5523 26 10Z" fill="#333333"/>
<path d="M26 14C26 13.4477 26.4477 13 27 13H29V15H27C26.4477 15 26 14.5523 26 14Z" fill="#333333"/>
<path d="M26 18C26 17.4477 26.4477 17 27 17H29V19H27C26.4477 19 26 18.5523 26 18Z" fill="#333333"/>
<path d="M12.4683 9.20985L8.23019 13.3541C7.74409 13.8294 8.07828 14.6315 8.76186 14.6315H11.481L11.481 26.5146C11.481 27.3316 12.1645 28 13 28C13.8355 28 14.519 27.3316 14.519 26.5146L14.519 14.6315H17.2381C17.9217 14.6315 18.2559 13.8294 17.7698 13.3689L13.5317 9.2247C13.243 8.92762 12.757 8.92762 12.4683 9.20985Z" fill="#333333"/>
</svg>
