<svg width="48" height="48" viewBox="0 0 48 48" fill="none" xmlns="http://www.w3.org/2000/svg">
<circle cx="26" cy="35" r="8" fill="#333333"/>
<rect x="22" y="6" width="8" height="26" rx="4" stroke="#333333" stroke-width="2"/>
<path d="M21 20.7884C22.5 18.4802 26.5 22.1073 31 20.7884C31 21.2976 31 24.2524 31 27.0006C31 29.762 28.7614 32 26 32C23.2386 32 21 29.7615 21 27C21 24.4067 21 21.6114 21 20.7884Z" fill="#333333"/>
<path d="M26 10C26 9.44772 26.4477 9 27 9H29V11H27C26.4477 11 26 10.5523 26 10Z" fill="#333333"/>
<path d="M26 14C26 13.4477 26.4477 13 27 13H29V15H27C26.4477 15 26 14.5523 26 14Z" fill="#333333"/>
<path d="M26 18C26 17.4477 26.4477 17 27 17H29V19H27C26.4477 19 26 18.5523 26 18Z" fill="#333333"/>
<path d="M12.4683 9.20985L8.23019 13.3541C7.74409 13.8294 8.07828 14.6315 8.76185 14.6315L11.481 14.6315L11.481 26.5146C11.481 27.3316 12.1645 28 13 28C13.8355 28 14.519 27.3316 14.519 26.5146L14.519 14.6315L17.2381 14.6315C17.9217 14.6315 18.2559 13.8294 17.7698 13.3689L13.5317 9.2247C13.243 8.92762 12.757 8.92762 12.4683 9.20985Z" fill="#333333"/>
</svg>
