<svg width="48" height="48" viewBox="0 0 48 48" fill="none" xmlns="http://www.w3.org/2000/svg">
<path d="M39.0662 22.0664H18.11C18.0285 22.0664 17.9502 22.0337 17.8925 21.9756L11.7867 15.8285C10.2342 14.2655 7.71958 14.2655 6.16703 15.8285C4.61099 17.3951 4.61099 19.9376 6.16703 21.5042L14.2752 29.6672C14.4867 29.8801 14.7733 29.9997 15.0722 29.9997H39.0662C41.2388 29.9997 43 28.2238 43 26.033C43 23.8423 41.2388 22.0664 39.0662 22.0664Z" fill="#333333"/>
<path d="M7 22L9 23.1818V35H7V22Z" fill="#333333"/>
<rect x="38" y="29.5234" width="2" height="5.67568" fill="#333333"/>
<rect x="4" y="34" width="40" height="2" rx="1" fill="#333333"/>
<circle cx="8.5" cy="38.5" r="2.5" fill="#333333" stroke="#333333" stroke-width="2"/>
<circle cx="39.5" cy="38.5" r="2.5" fill="#333333" stroke="#333333" stroke-width="2"/>
<path d="M15.7177 22L17.1877 20.5313C18.2702 19.4497 18.2708 17.6955 17.1891 16.6132L15.3889 14.8121C14.3071 13.7298 12.5526 13.7292 11.47 14.8108L10 16.2795" stroke="#333333" stroke-width="2"/>
<path d="M35 22.5V9M29 6V7C29 8.10457 29.8954 9 31 9H39C40.1046 9 41 8.10457 41 7V6" stroke="#333333" stroke-width="2" stroke-linecap="round"/>
<rect x="27" y="12" width="6" height="8" rx="1" fill="#333333"/>
<path d="M30 9V12.5" stroke="#333333" stroke-width="2"/>
</svg>
