<svg width="48" height="48" viewBox="0 0 48 48" fill="none" xmlns="http://www.w3.org/2000/svg">
<path fill-rule="evenodd" clip-rule="evenodd" d="M30 6C30 5.44772 29.5523 5 29 5C28.4477 5 28 5.44772 28 6V7C28 7.8885 28.3863 8.68679 29 9.23611V12H28C27.4477 12 27 12.4477 27 13V19C27 19.5523 27.4477 20 28 20H32C32.5523 20 33 19.5523 33 19V13C33 12.4477 32.5523 12 32 12H31V10H34V22.0664H18.11C18.0285 22.0664 17.9502 22.0337 17.8925 21.9756L17.5261 21.6068L17.8945 21.2387C19.3678 19.7667 19.3686 17.3793 17.8963 15.9063L16.0961 14.1052C14.624 12.6323 12.2364 12.6315 10.7632 14.1034L10.0591 14.8069C8.71987 14.4263 7.22155 14.7669 6.16703 15.8285C4.61099 17.3951 4.61099 19.9376 6.16703 21.5042L7 22.3428V34H5C4.44772 34 4 34.4477 4 35C4 35.5523 4.44771 36 5 36H6.05051C5.40223 36.6353 5 37.5207 5 38.5C5 40.433 6.567 42 8.5 42C10.433 42 12 40.433 12 38.5C12 37.5207 11.5978 36.6353 10.9495 36H37.0505C36.4022 36.6353 36 37.5207 36 38.5C36 40.433 37.567 42 39.5 42C41.433 42 43 40.433 43 38.5C43 37.5207 42.5978 36.6353 41.9495 36H43C43.5523 36 44 35.5523 44 35C44 34.4477 43.5523 34 43 34H40V29.8873C41.7218 29.4646 43 27.8993 43 26.033C43 23.8423 41.2388 22.0664 39.0662 22.0664H36V10H39C40.6569 10 42 8.65685 42 7V6C42 5.44772 41.5523 5 41 5C40.4477 5 40 5.44772 40 6V7C40 7.55228 39.5523 8 39 8H31C30.4477 8 30 7.55228 30 7V6ZM16.4809 19.8239L16.1167 20.1878L11.8263 15.8684L12.1768 15.5182C12.8687 14.8269 13.9902 14.8273 14.6816 15.5191L16.4818 17.3202C17.1731 18.0118 17.1727 19.1327 16.4809 19.8239ZM9 34H38V29.9997H15.0722C14.7733 29.9997 14.4867 29.8801 14.2752 29.6672L9 24.3563V34Z" fill="#333333"/>
</svg>
