<svg width="48" height="48" viewBox="0 0 48 48" fill="none" xmlns="http://www.w3.org/2000/svg">
<path fill-rule="evenodd" clip-rule="evenodd" d="M16.0961 12.1052C14.624 10.6323 12.2364 10.6315 10.7632 12.1034L10.0591 12.8069C8.71987 12.4263 7.22155 12.7669 6.16703 13.8285C4.61099 15.3951 4.61099 17.9376 6.16703 19.5042L7 20.3428V32H5C4.44772 32 4 32.4477 4 33C4 33.5523 4.44771 34 5 34H6.05051C5.40223 34.6353 5 35.5207 5 36.5C5 38.433 6.567 40 8.5 40C10.433 40 12 38.433 12 36.5C12 35.5207 11.5978 34.6353 10.9495 34H37.0505C36.4022 34.6353 36 35.5207 36 36.5C36 38.433 37.567 40 39.5 40C41.433 40 43 38.433 43 36.5C43 35.5207 42.5978 34.6353 41.9495 34H43C43.5523 34 44 33.5523 44 33C44 32.4477 43.5523 32 43 32H40V27.8873C41.7218 27.4646 43 25.8993 43 24.033C43 21.8423 41.2388 20.0664 39.0662 20.0664H18.11C18.0285 20.0664 17.9502 20.0337 17.8925 19.9756L17.5261 19.6068L17.8945 19.2387C19.3678 17.7667 19.3686 15.3793 17.8964 13.9063L16.0961 12.1052ZM16.1167 18.1878L16.4809 17.8239C17.1727 17.1327 17.1731 16.0118 16.4818 15.3202L14.6816 13.5191C13.9902 12.8273 12.8687 12.8269 12.1768 13.5182L11.8263 13.8684L16.1167 18.1878ZM38 32H9V22.3563L14.2752 27.6672C14.4867 27.8801 14.7733 27.9997 15.0722 27.9997H38V32Z" fill="#333333"/>
</svg>
