<svg width="48" height="48" viewBox="0 0 48 48" fill="none" xmlns="http://www.w3.org/2000/svg">
<path fill-rule="evenodd" clip-rule="evenodd" d="M24 41C24.5523 41 25 40.5523 25 40C25 39.4477 24.5523 39 24 39C23.4477 39 23 39.4477 23 40C23 40.5523 23.4477 41 24 41ZM24 43C25.6569 43 27 41.6569 27 40C27 38.3431 25.6569 37 24 37C22.3431 37 21 38.3431 21 40C21 41.6569 22.3431 43 24 43Z" fill="#333333"/>
<path d="M23 10C23 9.44772 23.4477 9 24 9C24.5523 9 25 9.44772 25 10V38C25 38.5523 24.5523 39 24 39C23.4477 39 23 38.5523 23 38V10Z" fill="#333333"/>
<path d="M10 10C9.44772 10 9 9.55228 9 9C9 8.44772 9.44772 8 10 8L23 8C23.5523 8 24 8.44772 24 9C24 9.55229 23.5523 10 23 10L10 10Z" fill="#333333"/>
<path d="M25 10C24.4477 10 24 9.55229 24 9C24 8.44772 24.4477 8 25 8L38 8C38.5523 8 39 8.44772 39 9C39 9.55229 38.5523 10 38 10L25 10Z" fill="#333333"/>
</svg>
