<svg width="48" height="48" viewBox="0 0 48 48" fill="none" xmlns="http://www.w3.org/2000/svg">
<path d="M33.5868 34.4916H16.258V28.654C16.258 28.246 16.0926 27.8548 15.7983 27.5663C15.504 27.2778 15.1049 27.1157 14.6887 27.1157C14.2725 27.1157 13.8734 27.2778 13.5791 27.5663C13.2848 27.8548 13.1194 28.246 13.1194 28.654V39.4615C13.1194 39.8695 13.2848 40.2608 13.5791 40.5493C13.8734 40.8377 14.2725 40.9998 14.6887 40.9998C15.1049 40.9998 15.504 40.8377 15.7983 40.5493C16.0926 40.2608 16.258 39.8695 16.258 39.4615V37.6208H32.0712V39.4615C32.0712 39.8695 32.2365 40.2608 32.5308 40.5493C32.8251 40.8377 33.2243 40.9998 33.6405 40.9998C34.0567 40.9998 34.4558 40.8377 34.7501 40.5493C35.0444 40.2608 35.2097 39.8695 35.2097 39.4615V36.0825C35.2172 35.8716 35.1804 35.6615 35.1015 35.4651C35.0225 35.2688 34.9033 35.0905 34.7511 34.9413C34.5988 34.7921 34.4169 34.6751 34.2166 34.5978C34.0163 34.5204 33.802 34.4843 33.5868 34.4916Z" fill="#333333"/>
<path d="M14.7423 24.066C15.6676 23.3117 16.5288 22.4851 17.3175 21.5942C17.4521 21.4834 17.5606 21.3455 17.6358 21.1898C17.711 21.0342 17.751 20.8645 17.7531 20.6923C17.7552 20.5201 17.7194 20.3494 17.648 20.1921C17.5767 20.0347 17.4715 19.8942 17.3397 19.7804C17.208 19.6665 17.0526 19.5818 16.8844 19.5322C16.7162 19.4826 16.539 19.4691 16.365 19.4928C16.191 19.5165 16.0242 19.5767 15.8761 19.6693C15.728 19.7619 15.6021 19.8848 15.5069 20.0296C14.805 20.8223 14.033 21.5527 13.1999 22.2121C12.9483 22.415 12.7888 22.7072 12.7562 23.0249C12.7235 23.3427 12.8203 23.6602 13.0256 23.9082C13.1393 24.0444 13.2826 24.154 13.445 24.2291C13.6074 24.3041 13.7849 24.3427 13.9644 24.3421C14.2469 24.3327 14.5192 24.236 14.7423 24.066Z" fill="#333333"/>
<path d="M17.8138 19.1223C17.9978 19.2248 18.2057 19.2791 18.4173 19.2801C18.6346 19.2813 18.8481 19.2245 19.0348 19.1156C19.2215 19.0067 19.3744 18.8499 19.4769 18.6621C20.0513 17.6806 20.5016 16.6342 20.8182 15.5461C21.841 15.9276 22.9297 16.1106 24.0237 16.0851C25.1102 16.095 26.1888 15.9031 27.2025 15.5198C27.5211 16.5988 27.9715 17.6362 28.5437 18.6095C28.6462 18.7973 28.7991 18.9541 28.9858 19.063C29.1725 19.1719 29.386 19.2287 29.6033 19.2275C29.815 19.2265 30.0228 19.1722 30.2069 19.0697C30.4852 18.924 30.6951 18.6783 30.7926 18.3841C30.8902 18.09 30.8677 17.7702 30.7299 17.492C30.2027 16.643 29.7966 15.7273 29.5228 14.7704C29.4653 14.5586 29.3546 14.3642 29.2009 14.205C29.4387 13.8734 29.5696 13.4795 29.5765 13.0743C29.5765 11.5754 27.7256 10.3264 25.2443 10.0109V8.19645C25.2443 7.87913 25.1157 7.57481 24.8868 7.35043C24.6579 7.12605 24.3474 7 24.0237 7C23.7 7 23.3896 7.12605 23.1607 7.35043C22.9318 7.57481 22.8032 7.87913 22.8032 8.19645V9.95826C20.3487 10.2738 18.5246 11.5228 18.5246 13.0086C18.5304 13.4019 18.6515 13.7852 18.8734 14.113C18.6952 14.2948 18.5742 14.523 18.5246 14.7704C18.2509 15.7273 17.8447 16.643 17.3175 17.492C17.24 17.6307 17.1913 17.7832 17.1743 17.9406C17.1573 18.0979 17.1723 18.257 17.2185 18.4087C17.2647 18.5603 17.341 18.7014 17.4432 18.8239C17.5454 18.9464 17.6713 19.0478 17.8138 19.1223Z" fill="#333333"/>
<path d="M10.5308 23.9738C9.96752 24.2893 9.37738 24.6049 8.77382 24.8941C8.56908 24.9941 8.39669 25.1478 8.2759 25.3382C8.15511 25.5285 8.09068 25.7481 8.08978 25.9723V28.0233C8.08978 28.1804 8.12135 28.336 8.18269 28.4812C8.24403 28.6263 8.33393 28.7582 8.44727 28.8693C8.5606 28.9804 8.69516 29.0686 8.84324 29.1287C8.99132 29.1888 9.15003 29.2198 9.31031 29.2198C9.4706 29.2198 9.62931 29.1888 9.77739 29.1287C9.92547 29.0686 10.06 28.9804 10.1734 28.8693C10.2867 28.7582 10.3766 28.6263 10.4379 28.4812C10.4993 28.336 10.5308 28.1804 10.5308 28.0233V26.7085C10.96 26.485 11.3758 26.2615 11.7782 26.0249C11.9268 25.9503 12.0583 25.8467 12.1644 25.7204C12.2706 25.5941 12.3492 25.4478 12.3954 25.2905C12.4415 25.1333 12.4543 24.9684 12.4329 24.8061C12.4115 24.6438 12.3563 24.4875 12.2708 24.347C12.1853 24.2064 12.0713 24.0845 11.9359 23.9889C11.8004 23.8932 11.6464 23.8258 11.4833 23.7908C11.3202 23.7559 11.1516 23.754 10.9877 23.7855C10.8239 23.817 10.6684 23.8811 10.5308 23.9738Z" fill="#333333"/>
<path d="M10.5308 31.4943C10.5308 31.177 10.4023 30.8727 10.1734 30.6483C9.94447 30.4239 9.63402 30.2979 9.31031 30.2979C8.98661 30.2979 8.67616 30.4239 8.44727 30.6483C8.21837 30.8727 8.08978 31.177 8.08978 31.4943V34.6366C8.08978 34.6366 8.08978 34.755 8.08978 34.9127C8.09331 35.2278 8.22346 35.5287 8.45198 35.7503C8.68049 35.9718 8.98892 36.0961 9.31031 36.096C9.47837 36.1069 9.64691 36.0836 9.80533 36.0276C9.96375 35.9715 10.1086 35.8839 10.2308 35.7703C10.353 35.6567 10.4499 35.5195 10.5154 35.3674C10.5809 35.2153 10.6135 35.0515 10.6113 34.8864C10.6207 34.7595 10.6207 34.6321 10.6113 34.5052L10.5308 31.4943Z" fill="#333333"/>
<path d="M9.1896 37.1215C9.04721 37.0493 8.89159 37.0057 8.7318 36.9931C8.57201 36.9805 8.41127 36.9992 8.25894 37.0481C8.10662 37.0971 7.96577 37.1753 7.84461 37.2782C7.72345 37.3811 7.62442 37.5066 7.55328 37.6474C7.34217 38.0824 7.00667 38.4478 6.58758 38.6993C6.4494 38.7814 6.32924 38.8897 6.23407 39.0177C6.1389 39.1457 6.07062 39.291 6.03319 39.4451C5.99576 39.5993 5.98992 39.7591 6.01602 39.9155C6.04211 40.0718 6.09962 40.2215 6.18521 40.3559C6.2934 40.5291 6.44523 40.6721 6.6261 40.7711C6.80698 40.8701 7.0108 40.9218 7.21797 40.9212C7.46718 40.9369 7.71529 40.8772 7.92883 40.7503C8.71727 40.2665 9.34973 39.5736 9.75292 38.7519C9.82999 38.6095 9.87657 38.4532 9.88981 38.2925C9.90306 38.1319 9.88268 37.9703 9.82993 37.8176C9.77718 37.6649 9.69318 37.5245 9.58307 37.4048C9.47296 37.2851 9.33906 37.1887 9.1896 37.1215Z" fill="#333333"/>
<path d="M34.8476 22.1996C34.0151 21.5443 33.2431 20.8184 32.5407 20.0302C32.3169 19.846 32.0332 19.7466 31.7411 19.7501C31.449 19.7535 31.1679 19.8596 30.9487 20.0489C30.7296 20.2383 30.587 20.4984 30.5468 20.7821C30.5067 21.0657 30.5717 21.3541 30.73 21.5948C31.5529 22.49 32.4501 23.3168 33.4125 24.0666C33.6373 24.232 33.9094 24.3239 34.1904 24.3295C34.3699 24.3302 34.5474 24.2916 34.7098 24.2166C34.8722 24.1415 35.0155 24.0319 35.1293 23.8956C35.2251 23.7664 35.2939 23.6198 35.3316 23.4644C35.3693 23.309 35.3753 23.1478 35.3491 22.9901C35.3229 22.8324 35.2651 22.6813 35.179 22.5456C35.0929 22.41 34.9803 22.2923 34.8476 22.1996Z" fill="#333333"/>
<path d="M37.5166 28.0761C37.5166 28.3934 37.6452 28.6977 37.8741 28.9221C38.103 29.1465 38.4135 29.2725 38.7372 29.2725C39.0609 29.2725 39.3713 29.1465 39.6002 28.9221C39.8291 28.6977 39.9577 28.3934 39.9577 28.0761V26.025C39.9568 25.8008 39.8924 25.5813 39.7716 25.3909C39.6508 25.2005 39.4784 25.0468 39.2737 24.9469C38.6701 24.6576 38.08 24.3421 37.5166 24.0265C37.3791 23.9338 37.2236 23.8697 37.0598 23.8382C36.8959 23.8068 36.7273 23.8086 36.5642 23.8436C36.4011 23.8785 36.2471 23.9459 36.1116 24.0416C35.9762 24.1373 35.8622 24.2591 35.7767 24.3997C35.6912 24.5403 35.636 24.6965 35.6146 24.8588C35.5932 25.0211 35.606 25.186 35.6521 25.3433C35.6983 25.5005 35.7769 25.6468 35.883 25.7732C35.9892 25.8995 36.1207 26.0031 36.2693 26.0776C36.6717 26.3142 37.0874 26.5378 37.5166 26.7613V28.0761Z" fill="#333333"/>
<path d="M38.7774 36.096C39.0988 36.0961 39.4073 35.9718 39.6358 35.7503C39.8643 35.5287 39.9944 35.2278 39.998 34.9127C39.998 34.755 39.998 34.6629 39.998 34.6498V31.4943C39.998 31.177 39.8694 30.8727 39.6405 30.6483C39.4116 30.4239 39.1011 30.2979 38.7774 30.2979C38.4537 30.2979 38.1433 30.4239 37.9144 30.6483C37.6855 30.8727 37.5569 31.177 37.5569 31.4943V34.492C37.5475 34.6189 37.5475 34.7464 37.5569 34.8733C37.5551 35.0304 37.5849 35.1863 37.6446 35.3322C37.7044 35.478 37.7928 35.6109 37.9049 35.7232C38.017 35.8355 38.1505 35.9251 38.2979 35.9868C38.4454 36.0485 38.6037 36.0812 38.764 36.0829L38.7774 36.096Z" fill="#333333"/>
<path d="M41.4599 38.6995C41.0596 38.4494 40.7389 38.094 40.5345 37.674C40.3762 37.4136 40.123 37.2218 39.8261 37.1373C39.5291 37.0528 39.2106 37.0819 38.9347 37.2188C38.6588 37.3557 38.4462 37.5901 38.3398 37.8747C38.2335 38.1593 38.2413 38.4729 38.3616 38.7521C38.7466 39.5653 39.355 40.2573 40.1187 40.7506C40.3129 40.865 40.5358 40.9242 40.7625 40.9215C40.9696 40.922 41.1735 40.8703 41.3543 40.7713C41.5352 40.6723 41.687 40.5293 41.7952 40.3561C41.9743 40.0927 42.0395 39.7704 41.9767 39.4599C41.9138 39.1494 41.728 38.876 41.4599 38.6995Z" fill="#333333"/>
<path d="M18.5247 32.6377H33.2783V30.7707C33.2783 29.7714 32.7955 29.0352 31.9371 29.0352H18.5247V32.6377Z" fill="#333333"/>
</svg>
