<svg width="48" height="48" viewBox="0 0 48 48" fill="none" xmlns="http://www.w3.org/2000/svg">
<path fill-rule="evenodd" clip-rule="evenodd" d="M20.1604 13.0005C20.1604 13.0005 9 13.0005 9 17.0005C9 37.0005 23.5161 37.0005 23.5161 37.0005H24.4839C24.4839 37.0005 39 37.0005 39 17.0005C39 13.0005 28.0144 13 28.0144 13L26.5418 10.5H21.633L20.1604 13.0005ZM29.4631 18.0341L23.6022 16.4648L17.7414 18.0341C17.2079 18.1769 16.8912 18.7252 17.034 19.2587C17.1769 19.7922 17.7252 20.1089 18.2586 19.966L23.6022 18.5353L28.9458 19.966C29.4793 20.1089 30.0276 19.7922 30.1705 19.2587C30.3133 18.7252 29.9966 18.1769 29.4631 18.0341Z" fill="#333333"/>
<path fill-rule="evenodd" clip-rule="evenodd" d="M9.97619 16.7831C10.096 17.3222 9.75606 17.8564 9.21693 17.9762L7.30387 18.4013C6.31877 18.6202 5.65107 19.5387 5.74674 20.5433L6.32014 26.564C6.39181 27.3165 6.88168 27.9644 7.58624 28.2384L14.8624 31.068C15.3772 31.2682 15.6322 31.8477 15.432 32.3624C15.2318 32.8772 14.6523 33.1322 14.1376 32.932L6.86135 30.1024C5.45223 29.5544 4.47249 28.2587 4.32915 26.7536L3.75575 20.7329C3.5644 18.7237 4.89981 16.8868 6.87001 16.4489L8.78307 16.0238C9.3222 15.904 9.85638 16.2439 9.97619 16.7831Z" fill="#333333"/>
<path fill-rule="evenodd" clip-rule="evenodd" d="M37.765 16.7642C37.6348 17.3009 37.9643 17.8416 38.501 17.9718L40.259 18.3984C41.2195 18.6314 41.8657 19.5311 41.7798 20.5158L41.2227 26.9031C41.1551 27.6783 40.644 28.3439 39.9125 28.6093L33.1589 31.06C32.6397 31.2484 32.3716 31.8219 32.56 32.3411C32.7484 32.8603 33.3219 33.1284 33.8411 32.94L40.5947 30.4894C42.0577 29.9585 43.0799 28.6273 43.2151 27.0768L43.7722 20.6895C43.944 18.7203 42.6516 16.9209 40.7306 16.4548L38.9727 16.0282C38.4359 15.898 37.8953 16.2275 37.765 16.7642Z" fill="#333333"/>
</svg>
