<svg width="48" height="48" viewBox="0 0 48 48" fill="none" xmlns="http://www.w3.org/2000/svg">
<path d="M25.794 9.95046L30.669 18.3955C31.083 19.111 30.837 20.029 30.12 20.443L28.17 21.568L29.6715 24.166L27.0735 25.666L25.5735 23.0665L23.625 24.193C22.908 24.607 21.99 24.361 21.576 23.644L18.819 18.871C15.741 19.804 13.5 22.666 13.5 26.0485C13.5 26.986 13.6725 27.8845 13.986 28.7125C15.15 27.9745 16.524 27.5485 18 27.5485C20.526 27.5485 22.761 28.798 24.12 30.712L35.652 24.0535L37.152 26.6515L25.335 33.475C25.443 33.982 25.5 34.51 25.5 35.0485C25.5 35.563 25.449 36.064 25.35 36.5485H37.5V39.5485L12 39.55C11.058 38.296 10.5 36.7375 10.5 35.0485C10.5 33.538 10.947 32.131 11.715 30.9535C10.9395 29.491 10.5 27.8215 10.5 26.0485C10.5 21.556 13.3215 17.722 17.2905 16.2235L16.701 15.2005C15.873 13.765 16.3635 11.9305 17.799 11.1025L21.696 8.85246C23.1315 8.02446 24.966 8.51496 25.794 9.95046Z" fill="#333333"/>
</svg>
