<svg width="48" height="48" viewBox="0 0 48 48" fill="none" xmlns="http://www.w3.org/2000/svg">
<path fill-rule="evenodd" clip-rule="evenodd" d="M24.3422 41.9999C25.5247 40.5354 26.232 38.6766 26.232 36.6537C26.232 31.9296 22.3745 28.1 17.616 28.1C12.8575 28.1 9 31.9296 9 36.6537C9 38.6766 9.70731 40.5354 10.8898 41.9999H24.3422Z" fill="#333333"/>
<path d="M21.6812 9.40261C23.1187 8.57869 24.9592 9.07185 25.7922 10.5041L30.3148 18.281C31.1478 19.7132 30.6577 21.5422 29.2202 22.3662L25.0987 24.7285C23.6612 25.5525 21.8207 25.0593 20.9877 23.627L16.4651 15.8502C15.6322 14.4179 16.1222 12.5889 17.5597 11.765L21.6812 9.40261Z" fill="#333333"/>
<path fill-rule="evenodd" clip-rule="evenodd" d="M29.4472 18.7783L24.9246 11.0014C24.3693 10.0466 23.1423 9.71778 22.184 10.2671L18.0624 12.6294C17.1041 13.1787 16.7774 14.3981 17.3327 15.3529L21.8553 23.1298C22.4106 24.0846 23.6376 24.4134 24.5959 23.8641L28.7175 21.5017C29.6758 20.9524 30.0025 19.7331 29.4472 18.7783ZM25.7922 10.5041C24.9592 9.07185 23.1187 8.57869 21.6812 9.40261L17.5597 11.765C16.1222 12.5889 15.6322 14.4179 16.4651 15.8502L20.9877 23.627C21.8207 25.0593 23.6612 25.5525 25.0987 24.7285L29.2202 22.3662C30.6577 21.5422 31.1478 19.7132 30.3148 18.281L25.7922 10.5041Z" fill="#333333"/>
<path d="M19.8595 8.2464C20.6294 7.80512 21.6151 8.06924 22.0612 8.83634C22.5073 9.60344 22.2449 10.583 21.475 11.0243L18.6667 12.6339C17.8968 13.0752 16.9111 12.8111 16.465 12.044C16.0189 11.2769 16.2813 10.2973 17.0512 9.85602L19.8595 8.2464Z" fill="#333333"/>
<path fill-rule="evenodd" clip-rule="evenodd" d="M18.164 11.7695L20.9723 10.1599C21.263 9.99321 21.3621 9.6233 21.1936 9.33362C21.0252 9.04395 20.6529 8.94421 20.3622 9.11084L17.554 10.7205C17.2632 10.8871 17.1641 11.257 17.3326 11.5467C17.501 11.8364 17.8733 11.9361 18.164 11.7695ZM22.0612 8.83634C21.6151 8.06924 20.6294 7.80512 19.8595 8.2464L17.0512 9.85602C16.2813 10.2973 16.0189 11.2769 16.465 12.044C16.9111 12.8111 17.8968 13.0752 18.6667 12.6339L21.475 11.0243C22.2449 10.583 22.5073 9.60344 22.0612 8.83634Z" fill="#333333"/>
<path fill-rule="evenodd" clip-rule="evenodd" d="M26.4104 25.5879L15.7896 7.32498L18.3923 5.83313L29.0132 24.0961L26.4104 25.5879Z" fill="#333333"/>
<path fill-rule="evenodd" clip-rule="evenodd" d="M38.0789 27.0308L23.0009 35.5846L22.0032 33.8512L37.0812 25.2975L38.0789 27.0308Z" fill="#333333"/>
<path fill-rule="evenodd" clip-rule="evenodd" d="M20.924 41.0001C20.924 40.4478 21.3717 40.0001 21.924 40.0001H37.1559C37.7082 40.0001 38.1559 40.4478 38.1559 41.0001C38.1559 41.5524 37.7082 42.0001 37.1559 42.0001H21.924C21.3717 42.0001 20.924 41.5524 20.924 41.0001Z" fill="#333333"/>
<path fill-rule="evenodd" clip-rule="evenodd" d="M11.0013 22.7053C12.2738 20.1786 14.6243 18.1825 17.6783 16.5287L18.6307 18.2874C15.7612 19.8412 13.8037 21.5873 12.7876 23.6049C11.7882 25.5891 11.6291 27.9772 12.6405 30.9895L10.7445 31.6261C9.60193 28.2231 9.71204 25.2652 11.0013 22.7053Z" fill="#333333"/>
</svg>
