<svg width="48" height="48" viewBox="0 0 48 48" fill="none" xmlns="http://www.w3.org/2000/svg">
<path d="M25.794 9.95059L30.669 18.3956C31.083 19.1111 30.837 20.0291 30.12 20.4431L28.17 21.5681L29.6715 24.1661L27.0735 25.6661L25.5735 23.0666L23.625 24.1931C22.908 24.6071 21.99 24.3611 21.576 23.6441L18.819 18.8711C15.741 19.8041 13.5 22.6661 13.5 26.0486C13.5 26.9861 13.6725 27.8846 13.986 28.7126C15.15 27.9746 16.524 27.5486 18 27.5486C20.526 27.5486 22.761 28.7981 24.12 30.7121L35.652 24.0536L37.152 26.6516L25.335 33.4751C25.443 33.9821 25.5 34.5101 25.5 35.0486C25.5 35.5631 25.449 36.0641 25.35 36.5486H37.5V39.5486L12 39.5501C11.058 38.2961 10.5 36.7376 10.5 35.0486C10.5 33.5381 10.947 32.1311 11.715 30.9536C10.9395 29.4911 10.5 27.8216 10.5 26.0486C10.5 21.5561 13.3215 17.7221 17.2905 16.2236L16.701 15.2006C15.873 13.7651 16.3635 11.9306 17.799 11.1026L21.696 8.85259C23.1315 8.02459 24.966 8.51509 25.794 9.95059Z" fill="#333333"/>
</svg>
