<svg width="48" height="48" viewBox="0 0 48 48" fill="none" xmlns="http://www.w3.org/2000/svg">
<path d="M28.3095 5.86326C31.6529 4.80953 36.1129 4.48349 39.5776 8.13373C43.6985 12.4753 41.7176 17.0109 39.8111 21.3761C38.7746 23.7492 37.7601 26.072 37.7601 28.2857C37.4465 28.8369 35.5692 29.2198 32.9142 29.4578C33.1601 29.8669 33.3104 30.3366 33.3373 30.8329L15.8273 37.1365L15.291 34.4552L28.478 29.7079C26.554 29.7672 24.4928 29.7791 22.4601 29.7487L14.8945 32.4723L14.7177 31.5884C14.5614 30.8072 14.7224 30.0481 15.1023 29.4307C11.8168 29.1743 9.44906 28.7806 9.22545 28.2857C9.22545 25.7224 8.36961 23.0539 7.53963 20.466C6.17245 16.2031 4.87545 12.159 7.5897 9.16471C11.9517 4.35267 17.3205 3.32394 23.5 8.13368L23.5242 8.11726L30.3974 13.298C30.8108 13.6097 31.3884 13.5523 31.7329 13.1805C31.7558 13.1557 31.7778 13.1295 31.7986 13.1019C32.131 12.6609 32.043 12.0339 31.6019 11.7014L25.4167 7.03924C26.0159 6.74072 26.732 6.41938 27.5306 6.12812C27.7824 6.03629 28.0424 5.94745 28.3095 5.86326Z" fill="#333333"/>
<path d="M16.5177 40.5883L16.2239 39.1194L32.9828 33.0862L32.3633 36.1836L16.9977 41.7152C16.7673 41.3847 16.6007 41.0038 16.5177 40.5883Z" fill="#333333"/>
<path d="M19.3399 42.9976C19.3795 42.9992 19.4194 43 19.4594 43H28.5406C29.9706 43 31.2019 41.9906 31.4823 40.5883L31.9052 38.4741L19.3399 42.9976Z" fill="#333333"/>
</svg>
