<svg width="48" height="48" viewBox="0 0 48 48" fill="none" xmlns="http://www.w3.org/2000/svg">
<mask id="path-1-inside-1" fill="white">
<path fill-rule="evenodd" clip-rule="evenodd" d="M39.5777 10.1337C34.958 5.26674 28.5689 7.4687 25.4167 9.03924L31.602 13.7014C32.043 14.0339 32.131 14.6609 31.7986 15.1019C31.4662 15.543 30.8391 15.631 30.3981 15.2986L23.5242 10.1173L23.5 10.1337C17.3206 5.32394 11.9517 6.35267 7.58974 11.1647C4.06757 15.0503 6.46897 22.0542 8.19525 27.089C8.60686 28.2895 8.98009 29.3781 9.22549 30.2857C10.5001 35 11.7195 37.9377 14.5 40.0637C15.877 41.1165 17.4384 39.3072 19.0858 37.3984C20.514 35.7435 22.0068 34.0137 23.5 34.0096C24.9689 34.0055 26.4381 35.7325 27.8465 37.3881C29.4722 39.2991 31.017 41.1149 32.3868 40.0637C34.0108 38.8173 34.957 37.8248 35.8342 35.9252C31.4144 35.3535 28.0001 31.5755 28.0001 27C28.0001 22.0294 32.0295 18 37.0001 18C38.8383 18 40.5478 18.5511 41.9724 19.4971C42.7355 16.3648 42.4889 13.2008 39.5777 10.1337Z"/>
</mask>
<path fill-rule="evenodd" clip-rule="evenodd" d="M39.5777 10.1337C34.958 5.26674 28.5689 7.4687 25.4167 9.03924L31.602 13.7014C32.043 14.0339 32.131 14.6609 31.7986 15.1019C31.4662 15.543 30.8391 15.631 30.3981 15.2986L23.5242 10.1173L23.5 10.1337C17.3206 5.32394 11.9517 6.35267 7.58974 11.1647C4.06757 15.0503 6.46897 22.0542 8.19525 27.089C8.60686 28.2895 8.98009 29.3781 9.22549 30.2857C10.5001 35 11.7195 37.9377 14.5 40.0637C15.877 41.1165 17.4384 39.3072 19.0858 37.3984C20.514 35.7435 22.0068 34.0137 23.5 34.0096C24.9689 34.0055 26.4381 35.7325 27.8465 37.3881C29.4722 39.2991 31.017 41.1149 32.3868 40.0637C34.0108 38.8173 34.957 37.8248 35.8342 35.9252C31.4144 35.3535 28.0001 31.5755 28.0001 27C28.0001 22.0294 32.0295 18 37.0001 18C38.8383 18 40.5478 18.5511 41.9724 19.4971C42.7355 16.3648 42.4889 13.2008 39.5777 10.1337Z" fill="#333333"/>
<path d="M25.4167 9.03924L24.5248 7.24912C23.9047 7.55808 23.4887 8.16594 23.4252 8.85582C23.3616 9.54571 23.6597 10.2193 24.2129 10.6363L25.4167 9.03924ZM39.5777 10.1337L38.1271 11.5106V11.5106L39.5777 10.1337ZM31.602 13.7014L32.8058 12.1043L32.8058 12.1043L31.602 13.7014ZM31.7986 15.1019L30.2015 13.8981L30.2015 13.8981L31.7986 15.1019ZM30.3981 15.2986L31.602 13.7014L31.602 13.7014L30.3981 15.2986ZM23.5242 10.1173L24.7281 8.52015C24.0447 8.00506 23.1094 7.9818 22.4013 8.4623L23.5242 10.1173ZM23.5 10.1337L22.2716 11.712C22.9559 12.2446 23.9055 12.2755 24.623 11.7886L23.5 10.1337ZM7.58974 11.1647L9.07155 12.5079L7.58974 11.1647ZM8.19525 27.089L10.0871 26.4403L8.19525 27.089ZM9.22549 30.2857L11.1562 29.7637H11.1562L9.22549 30.2857ZM14.5 40.0637L13.2853 41.6525H13.2853L14.5 40.0637ZM19.0858 37.3984L20.5999 38.7051V38.7051L19.0858 37.3984ZM23.5 34.0096L23.5055 36.0096H23.5055L23.5 34.0096ZM27.8465 37.3881L26.3232 38.6841V38.6841L27.8465 37.3881ZM32.3868 40.0637L33.6044 41.6503L33.6044 41.6503L32.3868 40.0637ZM35.8342 35.9252L37.6499 36.7637C37.9168 36.1857 37.8926 35.5152 37.5848 34.9579C37.2769 34.4007 36.7221 34.0234 36.0907 33.9417L35.8342 35.9252ZM41.9724 19.4971L40.866 21.1632C41.4091 21.5238 42.0938 21.5972 42.7009 21.3597C43.308 21.1223 43.7613 20.6039 43.9156 19.9705L41.9724 19.4971ZM26.3086 10.8294C27.7686 10.102 29.8725 9.28711 32.0545 9.16951C34.1691 9.05556 36.303 9.58889 38.1271 11.5106L41.0283 8.75686C38.2327 5.81159 34.8623 5.0124 31.8393 5.17531C28.8839 5.33458 26.2171 6.40597 24.5248 7.24912L26.3086 10.8294ZM32.8058 12.1043L26.6206 7.44213L24.2129 10.6363L30.3981 15.2986L32.8058 12.1043ZM33.3957 16.3058C34.393 14.9827 34.1289 13.1016 32.8058 12.1043L30.3981 15.2986C29.9571 14.9661 29.869 14.3391 30.2015 13.8981L33.3957 16.3058ZM29.1943 16.8957C30.5174 17.893 32.3984 17.6289 33.3957 16.3058L30.2015 13.8981C30.5339 13.457 31.1609 13.369 31.602 13.7014L29.1943 16.8957ZM22.3204 11.7144L29.1943 16.8957L31.602 13.7014L24.7281 8.52015L22.3204 11.7144ZM24.623 11.7886L24.6472 11.7722L22.4013 8.4623L22.3771 8.47872L24.623 11.7886ZM9.07155 12.5079C11.0349 10.342 13.0406 9.22681 15.056 9.03172C17.0617 8.83758 19.4534 9.51842 22.2716 11.712L24.7285 8.55541C21.3672 5.9392 17.9847 4.72954 14.6706 5.05033C11.3663 5.37018 8.50656 7.17537 6.10793 9.82149L9.07155 12.5079ZM10.0871 26.4403C9.21091 23.8847 8.25252 21.0678 7.90735 18.4358C7.5583 15.7743 7.90371 13.7963 9.07155 12.5079L6.10793 9.82149C3.7536 12.4187 3.53862 15.8854 3.94131 18.9559C4.34786 22.056 5.45331 25.2584 6.30336 27.7377L10.0871 26.4403ZM11.1562 29.7637C10.8897 28.7782 10.4915 27.6196 10.0871 26.4403L6.30336 27.7377C6.72224 28.9594 7.07047 29.978 7.29481 30.8077L11.1562 29.7637ZM15.7148 38.4749C13.5024 36.7833 12.4184 34.4322 11.1562 29.7637L7.29481 30.8077C8.58176 35.5678 9.9365 39.0921 13.2853 41.6525L15.7148 38.4749ZM17.5717 36.0917C16.6931 37.1097 16.0549 37.8314 15.5145 38.2247C15.2607 38.4094 15.1959 38.3921 15.2876 38.3793C15.4659 38.3542 15.6452 38.4216 15.7148 38.4749L13.2853 41.6525C14.0433 42.2321 14.9343 42.4682 15.8441 42.3404C16.6673 42.2247 17.354 41.8332 17.8685 41.4586C18.865 40.7333 19.8311 39.596 20.5999 38.7051L17.5717 36.0917ZM23.4945 32.0096C22.0016 32.0137 20.7868 32.856 19.9588 33.5734C19.0893 34.3269 18.2609 35.2931 17.5717 36.0917L20.5999 38.7051C21.3389 37.8488 21.971 37.1226 22.5783 36.5964C22.8729 36.3411 23.1071 36.1824 23.2851 36.0921C23.4587 36.0042 23.5231 36.0095 23.5055 36.0096L23.4945 32.0096ZM29.3699 36.0922C28.6907 35.2939 27.8734 34.3267 27.0154 33.5735C26.2015 32.859 24.9911 32.0054 23.4945 32.0096L23.5055 36.0096C23.4779 36.0096 23.7364 36.0176 24.3765 36.5795C24.9724 37.1026 25.5939 37.8268 26.3232 38.6841L29.3699 36.0922ZM31.1691 38.4771C31.2411 38.4218 31.4265 38.3514 31.6132 38.3783C31.7113 38.3924 31.651 38.4126 31.4003 38.2276C30.8672 37.834 30.2374 37.1119 29.3699 36.0922L26.3232 38.6841C27.0814 39.5753 28.0369 40.7166 29.0249 41.4459C29.5349 41.8223 30.2192 42.2188 31.043 42.3374C31.9553 42.4688 32.8475 42.2311 33.6044 41.6503L31.1691 38.4771ZM34.0184 35.0867C33.3132 36.6138 32.6146 37.3677 31.1691 38.4771L33.6044 41.6503C35.407 40.2669 36.6008 39.0357 37.6499 36.7637L34.0184 35.0867ZM36.0907 33.9417C32.6551 33.4973 30.0001 30.5571 30.0001 27H26.0001C26.0001 32.5938 30.1737 37.2097 35.5776 37.9087L36.0907 33.9417ZM30.0001 27C30.0001 23.134 33.1341 20 37.0001 20V16C30.9249 16 26.0001 20.9249 26.0001 27H30.0001ZM37.0001 20C38.4327 20 39.7592 20.4282 40.866 21.1632L43.0788 17.831C41.3365 16.674 39.2439 16 37.0001 16V20ZM38.1271 11.5106C39.3526 12.8017 39.9492 14.0332 40.1959 15.2036C40.4468 16.3934 40.3634 17.6521 40.0292 19.0237L43.9156 19.9705C44.3445 18.2099 44.5193 16.3204 44.1099 14.3784C43.6963 12.4169 42.714 10.5328 41.0283 8.75686L38.1271 11.5106Z" fill="#333333" mask="url(#path-1-inside-1)"/>
<circle cx="37" cy="27" r="8" stroke="#333333" stroke-width="2"/>
<rect x="36" y="22" width="2" height="10" rx="1" fill="#333333"/>
<rect x="32" y="28" width="2" height="10" rx="1" transform="rotate(-90 32 28)" fill="#333333"/>
</svg>
