<svg width="48" height="48" viewBox="0 0 48 48" fill="none" xmlns="http://www.w3.org/2000/svg">
<path d="M36 23C36 22.4477 36.4477 22 37 22C37.5523 22 38 22.4477 38 23V26H41C41.5523 26 42 26.4477 42 27C42 27.5523 41.5523 28 41 28H38V31C38 31.5523 37.5523 32 37 32C36.4477 32 36 31.5523 36 31V28H33C32.4477 28 32 27.5523 32 27C32 26.4477 32.4477 26 33 26H36V23Z" fill="#333333"/>
<path fill-rule="evenodd" clip-rule="evenodd" d="M23.5 10.1337C17.3205 5.32394 11.9517 6.35267 7.58968 11.1647C4.06752 15.0503 6.46891 22.0542 8.19519 27.089C8.6068 28.2895 8.98003 29.3781 9.22543 30.2857C10.5 35 11.7194 37.9377 14.5 40.0637C15.877 41.1165 17.4384 39.3072 19.0857 37.3984C20.514 35.7435 22.0068 34.0137 23.5 34.0096C24.9688 34.0055 26.438 35.7325 27.8465 37.3881C29.4722 39.2991 31.0169 41.1149 32.3867 40.0637C33.3895 39.2941 34.1338 38.6213 34.763 37.772C35.1529 37.2458 35.4986 36.6519 35.8341 35.9252C36.2158 35.9745 36.6049 36 37 36C41.9706 36 46 31.9706 46 27C46 23.8677 44.3998 21.1091 41.9724 19.4971C42.145 18.7885 42.2659 18.0783 42.316 17.368C42.4875 14.9383 41.8303 12.507 39.5776 10.1337C35.8361 6.19184 30.9338 6.88701 27.5306 8.12812C26.7319 8.41938 26.0158 8.74072 25.4167 9.03924L31.6019 13.7014C32.0429 14.0339 32.131 14.6609 31.7985 15.1019C31.4661 15.543 30.8391 15.631 30.3981 15.2986L23.5242 10.1173L23.5 10.1337ZM37 34C40.866 34 44 30.866 44 27C44 23.134 40.866 20 37 20C33.134 20 30 23.134 30 27C30 30.866 33.134 34 37 34Z" fill="#333333"/>
</svg>
