<svg width="48" height="48" viewBox="0 0 48 48" fill="none" xmlns="http://www.w3.org/2000/svg">
<path d="M31.725 9V12L25.725 11.9985V15H30.225V18C33.54 18 36.225 20.685 36.225 24V36C36.225 37.6575 34.8825 39 33.225 39H15.225C13.5675 39 12.225 37.6575 12.225 36V24C12.225 20.685 14.91 18 18.225 18V15H22.725V11.9985L17.475 12C16.53 12 15.42 12.735 14.175 14.4L11.775 12.6C13.53 10.26 15.42 9 17.475 9H31.725ZM25.725 24H22.725V27H19.725V30H22.7235L22.725 33H25.725L25.7235 30H28.725V27H25.725V24Z" fill="#333333"/>
</svg>
