<svg width="48" height="48" viewBox="0 0 48 48" fill="none" xmlns="http://www.w3.org/2000/svg">
<path fill-rule="evenodd" clip-rule="evenodd" d="M23 5L25 3V11H23V5ZM23 19H19V17H20V12C20 11.4477 20.4477 11 21 11H23V19ZM25 19H29V17H28V12C28 11.4477 27.5523 11 27 11H25V19Z" fill="#333333"/>
<path fill-rule="evenodd" clip-rule="evenodd" d="M18 20C15.7909 20 14 21.7909 14 24V41C14 43.2091 15.7909 45 18 45H30C32.2091 45 34 43.2091 34 41V24C34 21.7909 32.2091 20 30 20H26V22C26 22.5523 25.5523 23 25 23V25H23V23C22.4477 23 22 22.5523 22 22V20H18ZM24 34C26.2091 34 28 32.2091 28 30C28 27.7909 26.2091 26 24 26C21.7909 26 20 27.7909 20 30C20 32.2091 21.7909 34 24 34ZM23 35V37H25V35H23ZM18 22H21V24H18V35H22V37H16V24C16 22.8954 16.8954 22 18 22ZM30 24H27V22H30C31.1046 22 32 22.8954 32 24V37H26V35H30V24Z" fill="#333333"/>
</svg>
