<svg width="48" height="48" viewBox="0 0 48 48" fill="none" xmlns="http://www.w3.org/2000/svg">
<path d="M27 17C27.5523 17 28.0047 17.4487 27.9546 17.9987C27.7221 20.5499 26.6044 22.952 24.7782 24.7782C22.7153 26.8411 19.9174 28 17 28C14.0826 28 11.2848 26.8411 9.22185 24.7782C7.39568 22.952 6.27792 20.5499 6.04543 17.9987C5.9953 17.4487 6.44774 17 7.00003 17L8.79058 17C9.34286 17 9.78344 17.4499 9.8598 17.9969C10.0753 19.5406 10.7873 20.983 11.9022 22.0979C13.2542 23.4499 15.088 24.2095 17 24.2095C18.9121 24.2095 20.7458 23.4499 22.0979 22.0979C23.2127 20.983 23.9248 19.5406 24.1403 17.9969C24.2166 17.4499 24.6572 17 25.2095 17H27Z" fill="#333333"/>
<path fill-rule="evenodd" clip-rule="evenodd" d="M27.9546 17.9987C28.0047 17.4487 27.5523 17 27 17H25.2095C24.6572 17 24.2166 17.4499 24.1403 17.9969C23.9248 19.5406 23.2127 20.983 22.0979 22.0979C20.7458 23.4499 18.9121 24.2095 17 24.2095C15.088 24.2095 13.2542 23.4499 11.9022 22.0979C10.7873 20.983 10.0753 19.5406 9.8598 17.9969C9.78344 17.4499 9.34286 17 8.79058 17L7.00003 17C6.44774 17 5.9953 17.4487 6.04543 17.9987C6.27792 20.5499 7.39568 22.952 9.22185 24.7782C11.2848 26.8411 14.0826 28 17 28C19.9174 28 22.7153 26.8411 24.7782 24.7782C26.6044 22.952 27.7221 20.5499 27.9546 17.9987Z" fill="#333333"/>
<path d="M14 26H20V30C20 31.6569 18.6569 33 17 33C15.3432 33 14 31.6569 14 30V26Z" fill="#333333"/>
<path fill-rule="evenodd" clip-rule="evenodd" d="M34.25 25C32.179 25 30.5 26.6789 30.5 28.75V37.75C30.5 41.7541 27.2541 45 23.25 45C19.246 45 16 41.7541 16 37.75V32H18V37.75C18 40.6495 20.3505 43 23.25 43C26.1495 43 28.5 40.6495 28.5 37.75V28.75C28.5 25.5744 31.0744 23 34.25 23C37.4257 23 40 25.5744 40 28.75V33H38V28.75C38 26.6789 36.3211 25 34.25 25Z" fill="#333333"/>
<path fill-rule="evenodd" clip-rule="evenodd" d="M39 35C39.5523 35 40 34.5523 40 34C40 33.4477 39.5523 33 39 33C38.4477 33 38 33.4477 38 34C38 34.5523 38.4477 35 39 35ZM39 37C40.6569 37 42 35.6569 42 34C42 32.3431 40.6569 31 39 31C37.3432 31 36 32.3431 36 34C36 35.6569 37.3432 37 39 37Z" fill="#333333"/>
<path fill-rule="evenodd" clip-rule="evenodd" d="M10 7C9.44774 7 9.00003 7.44772 9.00003 8V17L7.00003 17V8C7.00003 6.34315 8.34317 5 10 5H12V7H10Z" fill="#333333"/>
<path fill-rule="evenodd" clip-rule="evenodd" d="M12 8C13.1046 8 14 7.10457 14 6C14 4.89543 13.1046 4 12 4C10.8955 4 10 4.89543 10 6C10 7.10457 10.8955 8 12 8Z" fill="#333333"/>
<path fill-rule="evenodd" clip-rule="evenodd" d="M24 7C24.5523 7 25 7.44772 25 8V17H27V8C27 6.34315 25.6569 5 24 5H22V7H24Z" fill="#333333"/>
<path fill-rule="evenodd" clip-rule="evenodd" d="M22 8C20.8955 8 20 7.10457 20 6C20 4.89543 20.8955 4 22 4C23.1046 4 24 4.89543 24 6C24 7.10457 23.1046 8 22 8Z" fill="#333333"/>
</svg>
