<svg width="48" height="48" viewBox="0 0 48 48" fill="none" xmlns="http://www.w3.org/2000/svg">
<path fill-rule="evenodd" clip-rule="evenodd" d="M27.2006 35.6592C26.5693 35.2425 25.813 35 25 35C22.7909 35 21 36.7909 21 39C21 41.2091 22.7909 43 25 43C27.1984 43 28.9825 41.2266 28.9999 39.0323L29.2443 35H30.7557L31.0001 39.0323C31.0175 41.2266 32.8017 43 35 43C37.2091 43 39 41.2091 39 39C39 36.7909 37.2091 35 35 35C34.187 35 33.4307 35.2425 32.7994 35.6592L30.9982 5.93945L30 5.99995L29.0018 5.93945L27.2006 35.6592ZM30.6345 33L30 22.5302L29.3655 33H30.6345ZM31 19C31 19.5523 30.5523 20 30 20C29.4477 20 29 19.5523 29 19C29 18.4477 29.4477 18 30 18C30.5523 18 31 18.4477 31 19ZM23 39C23 37.8954 23.8954 37 25 37C26.1046 37 27 37.8954 27 39C27 40.1046 26.1046 41 25 41C23.8954 41 23 40.1046 23 39ZM35 37C33.8954 37 33 37.8954 33 39C33 40.1046 33.8954 41 35 41C36.1046 41 37 40.1046 37 39C37 37.8954 36.1046 37 35 37Z" fill="#333333"/>
<path d="M16 15V6C16 6 12.6191 7.85948 12.0738 14.9975C11.9897 16.0989 12.8954 17 14 17C15.1046 17 16 16.1046 16 15Z" fill="#333333"/>
<path fill-rule="evenodd" clip-rule="evenodd" d="M13 18.5C13 17.6716 13.6716 17 14.5 17C15.3284 17 16 17.6716 16 18.5V19.2929L13 22.2929V18.5ZM13 23.7071V26.2929L16 23.2929V20.7071L13 23.7071ZM13 30.2929V27.7071L16 24.7071V27.2929L13 30.2929ZM13 31.7071V41.5C13 42.3284 13.6716 43 14.5 43C15.3284 43 16 42.3284 16 41.5V28.7071L13 31.7071Z" fill="#333333"/>
</svg>
