<svg width="48" height="48" viewBox="0 0 48 48" fill="none" xmlns="http://www.w3.org/2000/svg">
<path d="M12.3935 20.0503L18.0503 14.3934L24.4423 20.7854L18.7855 26.4423L12.3935 20.0503Z" stroke="#333333" stroke-width="2"/>
<mask id="path-2-inside-1" fill="white">
<path fill-rule="evenodd" clip-rule="evenodd" d="M23.2735 18.2019L16.2024 25.2729L24.5357 33.6062C26.4212 35.4918 29.4783 35.4918 31.3638 33.6062L31.6067 33.3633C33.4923 31.4778 33.4923 28.4207 31.6067 26.5352L23.2735 18.2019ZM21.7823 28.1763C21.3918 27.7858 21.3918 27.1527 21.7823 26.7621L22.7865 25.7579C23.1771 25.3674 23.8102 25.3674 24.2008 25.7579C24.5913 26.1484 24.5913 26.7816 24.2008 27.1721L23.1965 28.1763C22.806 28.5669 22.1728 28.5669 21.7823 28.1763ZM24.6839 30.9312C24.2934 30.5407 24.2934 29.9075 24.6839 29.517L25.5293 28.6716C25.9198 28.2811 26.553 28.2811 26.9435 28.6716C27.334 29.0622 27.334 29.6953 26.9435 30.0858L26.0981 30.9312C25.7076 31.3218 25.0744 31.3218 24.6839 30.9312Z"/>
</mask>
<path fill-rule="evenodd" clip-rule="evenodd" d="M23.2735 18.2019L16.2024 25.2729L24.5357 33.6062C26.4212 35.4918 29.4783 35.4918 31.3638 33.6062L31.6067 33.3633C33.4923 31.4778 33.4923 28.4207 31.6067 26.5352L23.2735 18.2019ZM21.7823 28.1763C21.3918 27.7858 21.3918 27.1527 21.7823 26.7621L22.7865 25.7579C23.1771 25.3674 23.8102 25.3674 24.2008 25.7579C24.5913 26.1484 24.5913 26.7816 24.2008 27.1721L23.1965 28.1763C22.806 28.5669 22.1728 28.5669 21.7823 28.1763ZM24.6839 30.9312C24.2934 30.5407 24.2934 29.9075 24.6839 29.517L25.5293 28.6716C25.9198 28.2811 26.553 28.2811 26.9435 28.6716C27.334 29.0622 27.334 29.6953 26.9435 30.0858L26.0981 30.9312C25.7076 31.3218 25.0744 31.3218 24.6839 30.9312Z" fill="#333333"/>
<path d="M16.2024 25.2729L14.7882 23.8587L13.374 25.2729L14.7882 26.6872L16.2024 25.2729ZM23.2735 18.2019L24.6877 16.7877L23.2735 15.3735L21.8592 16.7877L23.2735 18.2019ZM31.3638 33.6062L29.9496 32.192L31.3638 33.6062ZM31.6067 33.3633L33.0209 34.7775L31.6067 33.3633ZM17.6166 26.6872L24.6877 19.6161L21.8592 16.7877L14.7882 23.8587L17.6166 26.6872ZM25.9499 32.192L17.6166 23.8587L14.7882 26.6872L23.1215 35.0204L25.9499 32.192ZM29.9496 32.192C28.8451 33.2965 27.0544 33.2965 25.9499 32.192L23.1215 35.0204C25.788 37.687 30.1115 37.687 32.778 35.0204L29.9496 32.192ZM30.1925 31.9491L29.9496 32.192L32.778 35.0204L33.0209 34.7775L30.1925 31.9491ZM30.1925 27.9494C31.297 29.0539 31.297 30.8446 30.1925 31.9491L33.0209 34.7775C35.6875 32.1109 35.6875 27.7875 33.0209 25.1209L30.1925 27.9494ZM21.8592 19.6161L30.1925 27.9494L33.0209 25.1209L24.6877 16.7877L21.8592 19.6161ZM20.3681 25.3479C19.1965 26.5195 19.1965 28.419 20.3681 29.5906L23.1965 26.7621C23.587 27.1527 23.587 27.7858 23.1965 28.1763L20.3681 25.3479ZM21.3723 24.3437L20.3681 25.3479L23.1965 28.1763L24.2008 27.1721L21.3723 24.3437ZM25.615 24.3437C24.4434 23.1721 22.5439 23.1721 21.3723 24.3437L24.2008 27.1721C23.8102 27.5626 23.1771 27.5626 22.7865 27.1721L25.615 24.3437ZM25.615 28.5863C26.7865 27.4147 26.7865 25.5152 25.615 24.3437L22.7865 27.1721C22.396 26.7816 22.396 26.1484 22.7865 25.7579L25.615 28.5863ZM24.6107 29.5906L25.615 28.5863L22.7865 25.7579L21.7823 26.7621L24.6107 29.5906ZM20.3681 29.5906C21.5397 30.7621 23.4392 30.7621 24.6107 29.5906L21.7823 26.7621C22.1728 26.3716 22.806 26.3716 23.1965 26.7621L20.3681 29.5906ZM23.2697 28.1028C22.0981 29.2744 22.0981 31.1739 23.2697 32.3454L26.0981 29.517C26.4887 29.9075 26.4887 30.5407 26.0981 30.9312L23.2697 28.1028ZM24.1151 27.2574L23.2697 28.1028L26.0981 30.9312L26.9435 30.0858L24.1151 27.2574ZM28.3577 27.2574C27.1861 26.0858 25.2867 26.0858 24.1151 27.2574L26.9435 30.0858C26.553 30.4764 25.9198 30.4764 25.5293 30.0858L28.3577 27.2574ZM28.3577 31.5001C29.5293 30.3285 29.5293 28.429 28.3577 27.2574L25.5293 30.0858C25.1388 29.6953 25.1388 29.0622 25.5293 28.6716L28.3577 31.5001ZM27.5123 32.3454L28.3577 31.5001L25.5293 28.6716L24.6839 29.517L27.5123 32.3454ZM23.2697 32.3454C24.4413 33.517 26.3408 33.517 27.5123 32.3454L24.6839 29.517C25.0744 29.1265 25.7076 29.1265 26.0981 29.517L23.2697 32.3454Z" fill="#333333" mask="url(#path-2-inside-1)"/>
<rect x="8.85806" y="13.686" width="4" height="7" transform="rotate(-45 8.85806 13.686)" stroke="#333333" stroke-width="2"/>
<rect x="6.73665" y="15.1006" width="9" height="1" rx="0.5" transform="rotate(-45 6.73665 15.1006)" fill="#333333" stroke="#333333"/>
<rect x="32.1925" y="34.8994" width="1" height="5" rx="0.5" transform="rotate(-45 32.1925 34.8994)" fill="#333333" stroke="#333333"/>
<path d="M28.657 33.4854L31.4854 30.6569L33.6067 32.7782C34.3878 33.5593 34.3878 34.8256 33.6067 35.6067C32.8257 36.3877 31.5594 36.3877 30.7783 35.6067L28.657 33.4854Z" fill="#333333"/>
<rect x="9.56502" y="22.1714" width="15" height="1" rx="0.5" transform="rotate(-45 9.56502 22.1714)" fill="#333333" stroke="#333333"/>
</svg>
