<svg width="48" height="48" viewBox="0 0 48 48" fill="none" xmlns="http://www.w3.org/2000/svg">
<path fill-rule="evenodd" clip-rule="evenodd" d="M8.7365 14.3932C8.34597 14.7838 8.34597 15.4169 8.7365 15.8074C9.07821 16.1492 9.60569 16.1919 9.99384 15.9356C10.0493 15.899 10.1019 15.8563 10.1507 15.8074L10.8578 15.1004L14.3933 18.6359L11.5649 21.4643C11.1743 21.8548 11.1743 22.488 11.5649 22.8785C11.9554 23.269 12.5886 23.269 12.9791 22.8785L14.3932 21.4644L26.5355 33.6062C27.9635 35.0342 30.0634 35.3807 31.8175 34.6458L32.7782 35.6064C33.3016 36.1299 34.043 36.3025 34.7103 36.1243L37.0207 38.4348C37.4113 38.8253 38.0444 38.8253 38.4349 38.4348C38.8255 38.0443 38.8255 37.4111 38.4349 37.0206L36.1245 34.7101C36.3027 34.0429 36.13 33.3015 35.6066 32.778L34.646 31.8175C35.3811 30.0633 35.0347 27.9632 33.6066 26.5352L21.4643 14.3933L22.8786 12.979C23.2691 12.5885 23.2691 11.9553 22.8786 11.5648C22.488 11.1743 21.8549 11.1743 21.4644 11.5648L18.6359 14.3932L15.1004 10.8577L15.8076 10.1506C16.1981 9.76006 16.1981 9.1269 15.8076 8.73637C15.417 8.34585 14.7839 8.34585 14.3934 8.73637L8.7365 14.3932ZM17.2217 15.8074L13.6862 12.2719L12.272 13.6862L15.8075 17.2216L17.2217 15.8074ZM15.8075 20.0503L20.0502 15.8076L23.8589 19.6163L19.6162 23.859L15.8075 20.0503ZM23.7822 26.7621C23.3916 27.1527 23.3916 27.7858 23.7822 28.1763C24.1727 28.5669 24.8058 28.5669 25.1964 28.1763L26.2006 27.1721C26.5911 26.7816 26.5911 26.1484 26.2006 25.7579C25.8101 25.3674 25.1769 25.3674 24.7864 25.7579L23.7822 26.7621ZM26.6838 29.517C26.2932 29.9075 26.2932 30.5407 26.6838 30.9312C27.0743 31.3217 27.7075 31.3217 28.098 30.9312L28.9434 30.0858C29.3339 29.6953 29.3339 29.0621 28.9434 28.6716C28.5528 28.2811 27.9197 28.2811 27.5291 28.6716L26.6838 29.517Z" fill="#333333"/>
</svg>
