<svg width="48" height="48" viewBox="0 0 48 48" fill="none" xmlns="http://www.w3.org/2000/svg">
<path d="M25.2584 5.18359C19.0416 5.18359 13.5222 8.17037 10.0575 12.783L8.85522 14.3836H16.1116L16.3951 14.1333C18.7579 12.0479 21.8593 10.7836 25.2583 10.7836C32.659 10.7836 38.6583 16.783 38.6583 24.1836C38.6583 27.1788 37.6756 29.9445 36.0151 32.1758H5C4.44772 32.1758 4 32.6235 4 33.1758C4 33.7281 4.44772 34.1758 5 34.1758H34.1869C31.8168 36.2951 28.688 37.5836 25.2583 37.5836C22.9012 37.5836 20.6889 36.9758 18.7667 35.9092L18.5404 35.7836H10.0231L11.6897 37.4836C15.1369 41 19.9435 43.1836 25.2584 43.1836C35.7518 43.1836 44.2584 34.677 44.2584 24.1836C44.2584 13.6902 35.7518 5.18359 25.2584 5.18359Z" fill="#333333"/>
<path d="M25.25 30.4766C28.9779 30.4766 32 27.4545 32 23.7266C32 19.9986 28.9779 16.9766 25.25 16.9766C21.5221 16.9766 18.5 19.9986 18.5 23.7266C18.5 27.4545 21.5221 30.4766 25.25 30.4766Z" fill="#333333"/>
<path d="M9.6 19.6765C14.0183 19.6765 17.6 23.2582 17.6 27.6765V30.4765H5V19.6765H9.6Z" fill="#333333"/>
</svg>
