<svg width="48" height="48" viewBox="0 0 48 48" fill="none" xmlns="http://www.w3.org/2000/svg">
<path d="M6 20.6768H9.6C13.466 20.6768 16.6 23.8108 16.6 27.6768V29.4768H6V20.6768Z" fill="#333333" stroke="#333333" stroke-width="2"/>
<circle cx="25.25" cy="23.7266" r="5.75" fill="#333333" stroke="#333333" stroke-width="2"/>
<path d="M4 33.1758C4 32.6235 4.44772 32.1758 5 32.1758H38.2L34.6 34.1758H5C4.44772 34.1758 4 33.7281 4 33.1758Z" fill="#333333"/>
<path fill-rule="evenodd" clip-rule="evenodd" d="M43.2583 24.1836C43.2583 34.1247 35.1994 42.1836 25.2583 42.1836C20.2229 42.1836 15.6705 40.116 12.4037 36.7836H18.2814C20.3483 37.9305 22.727 38.5836 25.2582 38.5836C33.2111 38.5836 39.6582 32.1365 39.6582 24.1836C39.6582 16.2307 33.2111 9.78359 25.2582 9.78359C21.6062 9.78359 18.2718 11.1431 15.7333 13.3836H10.8569C14.1409 9.01159 19.3693 6.18359 25.2583 6.18359C35.1994 6.18359 43.2583 14.2425 43.2583 24.1836Z" fill="#333333"/>
<path d="M12.4037 36.7836V35.7836H10.023L11.6896 37.4836L12.4037 36.7836ZM18.2814 36.7836L18.7666 35.9092L18.5403 35.7836H18.2814V36.7836ZM15.7333 13.3836V14.3836H16.1115L16.395 14.1333L15.7333 13.3836ZM10.8569 13.3836L10.0574 12.783L8.85513 14.3836H10.8569V13.3836ZM25.2583 43.1836C35.7517 43.1836 44.2583 34.677 44.2583 24.1836H42.2583C42.2583 33.5724 34.6471 41.1836 25.2583 41.1836V43.1836ZM11.6896 37.4836C15.1368 41 19.9434 43.1836 25.2583 43.1836V41.1836C20.5025 41.1836 16.2043 39.2321 13.1178 36.0835L11.6896 37.4836ZM18.2814 35.7836H12.4037V37.7836H18.2814V35.7836ZM17.7962 37.658C20.0077 38.8852 22.5529 39.5836 25.2582 39.5836V37.5836C22.9011 37.5836 20.6888 36.9758 18.7666 35.9092L17.7962 37.658ZM25.2582 39.5836C33.7634 39.5836 40.6582 32.6888 40.6582 24.1836H38.6582C38.6582 31.5842 32.6589 37.5836 25.2582 37.5836V39.5836ZM40.6582 24.1836C40.6582 15.6784 33.7634 8.78359 25.2582 8.78359V10.7836C32.6589 10.7836 38.6582 16.783 38.6582 24.1836H40.6582ZM25.2582 8.78359C21.3533 8.78359 17.7857 10.2383 15.0715 12.6339L16.395 14.1333C18.7578 12.0479 21.8592 10.7836 25.2582 10.7836V8.78359ZM10.8569 14.3836H15.7333V12.3836H10.8569V14.3836ZM25.2583 5.18359C19.0415 5.18359 13.5221 8.17037 10.0574 12.783L11.6565 13.9842C14.7597 9.8528 19.6971 7.18359 25.2583 7.18359V5.18359ZM44.2583 24.1836C44.2583 13.6902 35.7517 5.18359 25.2583 5.18359V7.18359C34.6471 7.18359 42.2583 14.7948 42.2583 24.1836H44.2583Z" fill="#333333"/>
</svg>
