<svg width="48" height="48" viewBox="0 0 48 48" fill="none" xmlns="http://www.w3.org/2000/svg">
<path d="M11 39C12.1046 39 13 38.1046 13 37C13 35.8954 12.1046 35 11 35C9.89543 35 9 35.8954 9 37C9 38.1046 9.89543 39 11 39Z" fill="#333333"/>
<path fill-rule="evenodd" clip-rule="evenodd" d="M11 36C10.4477 36 10 36.4477 10 37C10 37.5523 10.4477 38 11 38C11.5523 38 12 37.5523 12 37C12 36.4477 11.5523 36 11 36ZM8 37C8 35.3431 9.34315 34 11 34C12.6569 34 14 35.3431 14 37C14 38.6569 12.6569 40 11 40C9.34315 40 8 38.6569 8 37Z" fill="#333333"/>
<path fill-rule="evenodd" clip-rule="evenodd" d="M11 32C11.5523 32 12 32.4477 12 33V34.7143C12 35.2666 11.5523 35.7143 11 35.7143C10.4477 35.7143 10 35.2666 10 34.7143V33C10 32.4477 10.4477 32 11 32Z" fill="#333333"/>
<path fill-rule="evenodd" clip-rule="evenodd" d="M12.2857 37C12.2857 36.4477 12.7335 36 13.2857 36H15C15.5523 36 16 36.4477 16 37C16 37.5523 15.5523 38 15 38H13.2857C12.7335 38 12.2857 37.5523 12.2857 37Z" fill="#333333"/>
<path fill-rule="evenodd" clip-rule="evenodd" d="M11 38.2855C11.5523 38.2855 12 38.7333 12 39.2855V40.9998C12 41.5521 11.5523 41.9998 11 41.9998C10.4477 41.9998 10 41.5521 10 40.9998V39.2855C10 38.7333 10.4477 38.2855 11 38.2855Z" fill="#333333"/>
<path fill-rule="evenodd" clip-rule="evenodd" d="M6 37C6 36.4477 6.44772 36 7 36H8.71429C9.26657 36 9.71429 36.4477 9.71429 37C9.71429 37.5523 9.26657 38 8.71429 38H7C6.44772 38 6 37.5523 6 37Z" fill="#333333"/>
<path fill-rule="evenodd" clip-rule="evenodd" d="M12.2857 37C12.2857 36.4477 12.7335 36 13.2857 36H15C15.5523 36 16 36.4477 16 37C16 37.5523 15.5523 38 15 38H13.2857C12.7335 38 12.2857 37.5523 12.2857 37Z" fill="#333333"/>
<path fill-rule="evenodd" clip-rule="evenodd" d="M11 38.2855C11.5523 38.2855 12 38.7333 12 39.2855V40.9998C12 41.5521 11.5523 41.9998 11 41.9998C10.4477 41.9998 10 41.5521 10 40.9998V39.2855C10 38.7333 10.4477 38.2855 11 38.2855Z" fill="#333333"/>
<path fill-rule="evenodd" clip-rule="evenodd" d="M6 37C6 36.4477 6.44772 36 7 36H8.71429C9.26657 36 9.71429 36.4477 9.71429 37C9.71429 37.5523 9.26657 38 8.71429 38H7C6.44772 38 6 37.5523 6 37Z" fill="#333333"/>
<path fill-rule="evenodd" clip-rule="evenodd" d="M14.5354 33.4644C14.926 33.8549 14.926 34.4881 14.5354 34.8786L13.3232 36.0908C12.9327 36.4813 12.2996 36.4813 11.909 36.0908C11.5185 35.7003 11.5185 35.0671 11.909 34.6766L13.1212 33.4644C13.5117 33.0739 14.1449 33.0739 14.5354 33.4644Z" fill="#333333"/>
<path fill-rule="evenodd" clip-rule="evenodd" d="M11.9091 37.9091C12.2996 37.5186 12.9328 37.5186 13.3233 37.9091L14.5355 39.1213C14.926 39.5118 14.926 40.145 14.5355 40.5355C14.145 40.926 13.5118 40.926 13.1213 40.5355L11.9091 39.3233C11.5186 38.9328 11.5186 38.2996 11.9091 37.9091Z" fill="#333333"/>
<path fill-rule="evenodd" clip-rule="evenodd" d="M10.0909 37.9091C10.4814 38.2996 10.4814 38.9328 10.0909 39.3233L8.87871 40.5355C8.48819 40.926 7.85502 40.926 7.4645 40.5355C7.07398 40.145 7.07397 39.5118 7.4645 39.1213L8.67668 37.9091C9.06721 37.5186 9.70037 37.5186 10.0909 37.9091Z" fill="#333333"/>
<path fill-rule="evenodd" clip-rule="evenodd" d="M7.46457 33.4644C7.8551 33.0739 8.48826 33.0739 8.87879 33.4644L10.091 34.6766C10.4815 35.0671 10.4815 35.7003 10.091 36.0908C9.70045 36.4813 9.06728 36.4813 8.67676 36.0908L7.46457 34.8786C7.07405 34.4881 7.07405 33.8549 7.46457 33.4644Z" fill="#333333"/>
<path fill-rule="evenodd" clip-rule="evenodd" d="M41 26.8C41.5523 26.8 42 27.2478 42 27.8V30.2001C42 30.7523 41.5523 31.2001 41 31.2001C40.4477 31.2001 40 30.7523 40 30.2001V27.8C40 27.2478 40.4477 26.8 41 26.8Z" fill="#333333"/>
<path fill-rule="evenodd" clip-rule="evenodd" d="M35.2 29C35.2 28.4477 35.6477 28 36.2 28H41C41.5522 28 42 28.4477 42 29C42 29.5523 41.5522 30 41 30H36.2C35.6477 30 35.2 29.5523 35.2 29Z" fill="#333333"/>
<path fill-rule="evenodd" clip-rule="evenodd" d="M39.1071 35.2929C39.4976 35.6834 39.4976 36.3166 39.1071 36.7071L36.7071 39.1071C36.3166 39.4976 35.6834 39.4976 35.2929 39.1071C34.9024 38.7166 34.9024 38.0834 35.2929 37.6929L37.6929 35.2929C38.0834 34.9024 38.7166 34.9024 39.1071 35.2929Z" fill="#333333"/>
<path fill-rule="evenodd" clip-rule="evenodd" d="M34.7071 33.2929L38.3071 36.8929L36.8929 38.3071L33.2929 34.7071L34.7071 33.2929Z" fill="#333333"/>
<path fill-rule="evenodd" clip-rule="evenodd" d="M26.8 41C26.8 40.4477 27.2478 40 27.8 40H30.2001C30.7523 40 31.2001 40.4477 31.2001 41C31.2001 41.5523 30.7523 42 30.2001 42H27.8C27.2478 42 26.8 41.5523 26.8 41Z" fill="#333333"/>
<path fill-rule="evenodd" clip-rule="evenodd" d="M29 35.2C29.5523 35.2 30 35.6477 30 36.2V41C30 41.5522 29.5523 42 29 42C28.4477 42 28 41.5522 28 41V36.2C28 35.6477 28.4477 35.2 29 35.2Z" fill="#333333"/>
<path fill-rule="evenodd" clip-rule="evenodd" d="M18.2929 35.2929C18.6834 34.9024 19.3166 34.9024 19.7071 35.2929L22.1071 37.6929C22.4976 38.0834 22.4976 38.7166 22.1071 39.1071C21.7166 39.4976 21.0834 39.4976 20.6929 39.1071L18.2929 36.7071C17.9024 36.3166 17.9024 35.6834 18.2929 35.2929Z" fill="#333333"/>
<path fill-rule="evenodd" clip-rule="evenodd" d="M24.3071 34.7071L20.7071 38.3071L19.2929 36.8929L22.8929 33.2929L24.3071 34.7071Z" fill="#333333"/>
<path fill-rule="evenodd" clip-rule="evenodd" d="M17 26.8C17.5523 26.8 18 27.2478 18 27.8V30.2001C18 30.7523 17.5523 31.2001 17 31.2001C16.4477 31.2001 16 30.7523 16 30.2001V27.8C16 27.2478 16.4477 26.8 17 26.8Z" fill="#333333"/>
<path fill-rule="evenodd" clip-rule="evenodd" d="M16 29C16 28.4477 16.4477 28 17 28H21.8C22.3523 28 22.8 28.4477 22.8 29C22.8 29.5523 22.3523 30 21.8 30H17C16.4477 30 16 29.5523 16 29Z" fill="#333333"/>
<path fill-rule="evenodd" clip-rule="evenodd" d="M23.0918 23.6062C21.7925 25.0285 21 26.9217 21 29C21 33.4183 24.5817 37 29 37C33.4183 37 37 33.4183 37 29C37 28.072 36.842 27.1809 36.5514 26.3521C35.7635 26.7022 34.9152 26.9168 34.0423 26.9802C32.9507 27.0594 31.8629 26.8991 30.8527 26.5197C30.7048 26.5731 30.5548 26.6211 30.4029 26.6635C29.5498 26.902 28.6564 26.9606 27.7796 26.8358C26.9027 26.7111 26.061 26.4055 25.3082 25.938C24.5553 25.4704 23.9077 24.851 23.4074 24.1186C23.2939 23.9526 23.1886 23.7815 23.0918 23.6062Z" fill="#333333"/>
<path fill-rule="evenodd" clip-rule="evenodd" d="M27.8788 9.62664L31.3853 11.7498C31.4238 11.7091 31.463 11.6691 31.5031 11.6299L31.9629 12.0995L32.1592 12.2184L32.1287 12.2689M31.9612 12.0985L31.5021 11.6309C32.3052 10.8424 33.382 10.3932 34.5081 10.3755C35.6341 10.3577 36.7245 10.7727 37.5523 11.5355C38.3801 12.2983 38.8815 13.3505 38.9505 14.4734C39.004 15.3445 38.794 16.2051 38.357 16.9478C38.8516 17.8753 39.0708 18.9301 38.9799 19.9871C38.868 21.2876 38.2939 22.5049 37.362 23.4207C36.4303 24.3364 35.2018 24.8908 33.8975 24.9855C32.8353 25.0626 31.7785 24.8308 30.853 24.3255C30.5424 24.5022 30.2105 24.6407 29.8644 24.7374C29.2782 24.9013 28.6641 24.9417 28.0614 24.8559C27.4586 24.7701 26.8803 24.5601 26.3633 24.239C25.8463 23.918 25.4019 23.4928 25.0588 22.9906C24.7157 22.4883 24.4815 21.9201 24.3714 21.3221C24.2614 20.7242 24.2779 20.1099 24.4199 19.5187C24.5619 18.9275 24.8262 18.3725 25.1957 17.8893C25.3535 17.6829 25.5291 17.4915 25.72 17.3171L23.6288 13.8128L25.3463 12.7879L27.9053 17.0762C28.0444 17.3092 28.0828 17.5888 28.0116 17.8507C27.9405 18.1126 27.766 18.3343 27.5281 18.465C27.2379 18.6245 26.9847 18.8423 26.7844 19.1041C26.5842 19.366 26.4413 19.6663 26.3646 19.9858C26.2878 20.3052 26.2789 20.637 26.3384 20.96C26.3979 21.283 26.5244 21.5904 26.7103 21.8625C26.8961 22.1346 27.1372 22.3654 27.4184 22.54C27.6996 22.7146 28.0145 22.8291 28.3431 22.8758C28.6717 22.9226 29.0065 22.9006 29.326 22.8113C29.6455 22.722 29.9424 22.5674 30.1979 22.3577C30.5505 22.0683 31.0542 22.0541 31.4224 22.3233C32.0941 22.8142 32.9203 23.0512 33.7527 22.9907C34.585 22.9303 35.3676 22.5766 35.9602 21.9942C36.5526 21.412 36.9164 20.6394 36.9873 19.8156C37.0581 18.9919 36.8317 18.1694 36.3477 17.4959C36.0796 17.1229 36.1002 16.6152 36.3976 16.265C36.7925 15.8 36.9915 15.2022 36.9542 14.596C36.917 13.9899 36.6463 13.4203 36.197 13.0062C35.7475 12.592 35.1539 12.3655 34.5396 12.3752C33.9252 12.3849 33.3392 12.63 32.9033 13.058L32.9023 13.059C32.7486 13.2095 32.617 13.3805 32.5112 13.5671C32.3779 13.8021 32.1552 13.9732 31.8938 14.0414C31.6324 14.1097 31.3544 14.0692 31.1233 13.9292L26.8429 11.3375L27.8788 9.62664" fill="#333333"/>
<path fill-rule="evenodd" clip-rule="evenodd" d="M23.2602 12.4318L24.8597 10.8323C25.2348 10.4573 25.4455 9.94855 25.4455 9.41812C25.4455 8.88769 25.2348 8.37898 24.8597 8.00391L23.4455 6.58969C23.0704 6.21462 22.5617 6.00391 22.0313 6.00391C21.5008 6.00391 20.9921 6.21462 20.6171 6.58969L19.0176 8.18916L23.2602 12.4318ZM17.4181 9.41811L14.3744 9.41808C13.8439 9.41805 13.3352 9.62877 12.9601 10.0039L7.18195 15.782C5.61985 17.3441 5.61985 19.8768 7.18195 21.4388L10.0104 24.2673C11.5725 25.8294 14.1051 25.8294 15.6672 24.2673L21.4454 18.4891C21.8205 18.114 22.0312 17.6053 22.0312 17.0749L22.0313 14.0313L17.4181 9.41811Z" fill="#333333"/>
</svg>
