<svg width="48" height="48" viewBox="0 0 48 48" fill="none" xmlns="http://www.w3.org/2000/svg">
<path d="M39.0662 20.0664H18.11C18.0285 20.0664 17.9502 20.0337 17.8925 19.9756L11.7867 13.8285C10.2342 12.2655 7.71958 12.2655 6.16703 13.8285C4.61099 15.3951 4.61099 17.9376 6.16703 19.5042L14.2752 27.6672C14.4867 27.8801 14.7733 27.9997 15.0722 27.9997H39.0662C41.2388 27.9997 43 26.2238 43 24.033C43 21.8423 41.2388 20.0664 39.0662 20.0664Z" fill="#333333"/>
<path d="M7 20L9 21.1818V33H7V20Z" fill="#333333"/>
<rect x="38" y="27.5234" width="2" height="5.67568" fill="#333333"/>
<rect x="4" y="32" width="40" height="2" rx="1" fill="#333333"/>
<circle cx="8.5" cy="36.5" r="2.5" fill="#333333" stroke="#333333" stroke-width="2"/>
<circle cx="39.5" cy="36.5" r="2.5" fill="#333333" stroke="#333333" stroke-width="2"/>
<path d="M15.7177 20L17.1877 18.5313C18.2702 17.4497 18.2708 15.6955 17.1891 14.6132L15.3889 12.8121C14.3071 11.7298 12.5526 11.7292 11.47 12.8108L10 14.2795" stroke="#333333" stroke-width="2"/>
</svg>
