<svg width="48" height="48" viewBox="0 0 48 48" fill="none" xmlns="http://www.w3.org/2000/svg">
<path fill-rule="evenodd" clip-rule="evenodd" d="M27.8843 6.74414L31.9908 7.83739L31.2587 10.5694L33.9908 11.3015L33.2587 14.0335L35.9908 14.7656L35.2587 17.4977L37.9908 18.2297L37.2587 20.9618L39.9908 21.6938L39.2587 24.4259L41.9908 25.1579L40.8843 29.2608L20.1081 41.256L16.01 40.1579L16.7421 37.4259L14.01 36.6938L14.7421 33.9618L12.01 33.2297L12.7421 30.4977L10.01 29.7656L10.7421 27.0335L8.01001 26.3015L8.74206 23.5694L6.01001 22.8374L7.09973 18.7441L27.8843 6.74414ZM16.2073 28.5006C18.6926 32.8052 24.1969 34.2801 28.5015 31.7948C32.8061 29.3095 34.281 23.8052 31.7957 19.5006C29.3105 15.196 23.8061 13.7211 19.5015 16.2064C15.1969 18.6916 13.722 24.196 16.2073 28.5006ZM17.9415 27.4985C19.8742 30.846 24.1546 31.9929 27.5021 30.0603C30.8496 28.1276 31.9965 23.8472 30.0638 20.4997C28.1312 17.1522 23.8507 16.0052 20.5033 17.9379C17.1558 19.8706 16.0088 24.151 17.9415 27.4985ZM26.4996 28.3294C24.1085 29.7099 21.0511 28.8906 19.6706 26.4996C18.2901 24.1085 19.1094 21.0511 21.5004 19.6706C23.8915 18.2901 26.9489 19.1094 28.3294 21.5004C29.7099 23.8915 28.8906 26.9489 26.4996 28.3294ZM25.5912 26.7538C24.0698 27.6321 22.1245 27.1109 21.2462 25.5895C20.3678 24.0682 20.8891 22.1229 22.4104 21.2445C23.9317 20.3662 25.8771 20.8875 26.7554 22.4088C27.6337 23.9301 27.1125 25.8754 25.5912 26.7538Z" fill="#333333"/>
</svg>
