<svg width="48" height="48" viewBox="0 0 48 48" fill="none" xmlns="http://www.w3.org/2000/svg">
<path fill-rule="evenodd" clip-rule="evenodd" d="M20.1604 13.0005C20.1604 13.0005 9 13.0005 9 17.0005C9 37.0005 23.5161 37.0005 23.5161 37.0005H24.4839C24.4839 37.0005 39 37.0005 39 17.0005C39 13.0005 28.0144 13 28.0144 13L26.5418 10.5H21.633L20.1604 13.0005ZM29.4631 18.0341L23.6022 16.4648L17.7414 18.0341C17.2079 18.1769 16.8912 18.7252 17.034 19.2587C17.1769 19.7922 17.7252 20.1089 18.2586 19.966L23.6022 18.5353L28.9458 19.966C29.4793 20.1089 30.0276 19.7922 30.1705 19.2587C30.3133 18.7252 29.9966 18.1769 29.4631 18.0341Z" fill="#333333"/>
<path d="M9 17L7.08694 17.4251C5.60929 17.7535 4.60774 19.1312 4.75125 20.6381L5.32465 26.6588C5.43215 27.7876 6.16695 28.7594 7.22379 29.1704L14.5 32" stroke="#333333" stroke-width="2" stroke-linecap="round"/>
<path d="M38.7368 17L40.4948 17.4266C41.9355 17.7762 42.9048 19.1257 42.776 20.6026L42.2189 26.9899C42.1175 28.1528 41.3508 29.1512 40.2536 29.5494L33.5 32" stroke="#333333" stroke-width="2" stroke-linecap="round"/>
</svg>
