<svg width="48" height="48" viewBox="0 0 48 48" fill="none" xmlns="http://www.w3.org/2000/svg">
<path d="M39.0662 23.0664H18.11C18.0285 23.0664 17.9502 23.0337 17.8925 22.9756L11.7867 16.8285C10.2342 15.2655 7.71958 15.2655 6.16703 16.8285C4.61099 18.3951 4.61099 20.9376 6.16703 22.5042L14.2752 30.6672C14.4867 30.8801 14.7733 30.9997 15.0722 30.9997H39.0662C41.2388 30.9997 43 29.2238 43 27.033C43 24.8423 41.2388 23.0664 39.0662 23.0664Z" fill="#333333"/>
<path d="M7 23L9 24.1818V36H7V23Z" fill="#333333"/>
<rect x="38" y="30.5234" width="2" height="5.67568" fill="#333333"/>
<rect x="4" y="35" width="40" height="2" rx="1" fill="#333333"/>
<circle cx="8.5" cy="39.5" r="2.5" fill="#333333" stroke="#333333" stroke-width="2"/>
<circle cx="39.5" cy="39.5" r="2.5" fill="#333333" stroke="#333333" stroke-width="2"/>
<path d="M15.7177 23L17.1877 21.5313C18.2702 20.4497 18.2708 18.6955 17.1891 17.6132L15.3889 15.8121C14.3071 14.7298 12.5526 14.7292 11.47 15.8108L10 17.2795" stroke="#333333" stroke-width="2"/>
<circle cx="38" cy="11" r="5" stroke="#333333" stroke-width="2"/>
<path d="M38 9V11H39.5" stroke="#333333" stroke-width="2" stroke-linecap="square"/>
</svg>
