<svg width="48" height="48" viewBox="0 0 48 48" fill="none" xmlns="http://www.w3.org/2000/svg">
<path fill-rule="evenodd" clip-rule="evenodd" d="M27.3176 28H17.6594C15.7663 28 14.3464 29.732 14.7177 31.5883L14.8945 32.4723L27.3176 28ZM15.291 34.4552L15.8273 37.1365L33.3373 30.8329C33.2841 29.8497 32.7461 28.9705 31.9411 28.4612L15.291 34.4552ZM16.5177 40.5883L16.2239 39.1194L32.9828 33.0862L32.3633 36.1836L16.9977 41.7152C16.7673 41.3847 16.6007 41.0038 16.5177 40.5883ZM19.3399 42.9976C19.3795 42.9992 19.4194 43 19.4594 43H28.5406C29.9706 43 31.2019 41.9906 31.4823 40.5883L31.9052 38.4741L19.3399 42.9976Z" fill="#333333"/>
<mask id="path-2-inside-1" fill="white">
<path fill-rule="evenodd" clip-rule="evenodd" d="M25.4167 7.03924C28.5689 5.4687 34.958 3.26674 39.5776 8.13373C43.6985 12.4753 41.7176 17.0109 39.8111 21.3761C38.7746 23.7492 37.7601 26.072 37.7601 28.2857C36.5 30.5 10 30 9.22545 28.2857C9.22545 25.7224 8.36961 23.0539 7.53963 20.466C6.17245 16.2031 4.87545 12.159 7.5897 9.16471C11.9517 4.35267 17.3205 3.32394 23.5 8.13368C23.5 8.13368 23.5082 8.12805 23.5242 8.11726L30.3981 13.2986C30.8391 13.631 31.4661 13.543 31.7986 13.1019C32.131 12.6609 32.043 12.0339 31.6019 11.7014L25.4167 7.03924Z"/>
</mask>
<path fill-rule="evenodd" clip-rule="evenodd" d="M25.4167 7.03924C28.5689 5.4687 34.958 3.26674 39.5776 8.13373C43.6985 12.4753 41.7176 17.0109 39.8111 21.3761C38.7746 23.7492 37.7601 26.072 37.7601 28.2857C36.5 30.5 10 30 9.22545 28.2857C9.22545 25.7224 8.36961 23.0539 7.53963 20.466C6.17245 16.2031 4.87545 12.159 7.5897 9.16471C11.9517 4.35267 17.3205 3.32394 23.5 8.13368C23.5 8.13368 23.5082 8.12805 23.5242 8.11726L30.3981 13.2986C30.8391 13.631 31.4661 13.543 31.7986 13.1019C32.131 12.6609 32.043 12.0339 31.6019 11.7014L25.4167 7.03924Z" fill="#333333"/>
<path d="M39.5776 8.13373L41.0282 6.75686V6.75686L39.5776 8.13373ZM25.4167 7.03924L24.5248 5.24912C23.9047 5.55808 23.4887 6.16594 23.4251 6.85582C23.3616 7.54571 23.6596 8.21933 24.2129 8.63635L25.4167 7.03924ZM39.8111 21.3761L37.9783 20.5756L37.9783 20.5756L39.8111 21.3761ZM37.7601 28.2857L39.4984 29.2749C39.6699 28.9735 39.7601 28.6326 39.7601 28.2857H37.7601ZM9.22545 28.2857L7.22545 28.2857C7.22545 28.5697 7.28592 28.8504 7.40285 29.1092L9.22545 28.2857ZM7.53963 20.466L5.63518 21.0768H5.63518L7.53963 20.466ZM7.5897 9.16471L6.10789 7.82149H6.10789L7.5897 9.16471ZM23.5 8.13368L22.2716 9.71196C22.9603 10.248 23.9171 10.2756 24.6356 9.78003L23.5 8.13368ZM23.5242 8.11726L24.7281 6.52015C24.047 6.00679 23.1153 5.9818 22.4077 6.45792L23.5242 8.11726ZM30.3981 13.2986L31.6019 11.7014L31.6019 11.7014L30.3981 13.2986ZM31.7986 13.1019L30.2014 11.8981L30.2014 11.8981L31.7986 13.1019ZM31.6019 11.7014L32.8058 10.1043L32.8058 10.1043L31.6019 11.7014ZM41.0282 6.75686C38.2327 3.81159 34.8622 3.0124 31.8393 3.17531C28.8838 3.33458 26.2171 4.40597 24.5248 5.24912L26.3086 8.82935C27.7685 8.10197 29.8724 7.28711 32.0545 7.16951C34.169 7.05556 36.303 7.58889 38.127 9.5106L41.0282 6.75686ZM41.6439 22.1765C42.5673 20.0624 43.6899 17.5374 43.945 14.9417C44.2167 12.1778 43.5125 9.37418 41.0282 6.75686L38.127 9.5106C39.7636 11.2348 40.1294 12.8698 39.9642 14.5504C39.7825 16.3992 38.9614 18.3246 37.9783 20.5756L41.6439 22.1765ZM39.7601 28.2857C39.7601 26.5735 40.5586 24.6614 41.6439 22.1765L37.9783 20.5756C36.9906 22.837 35.7601 25.5704 35.7601 28.2857H39.7601ZM7.40285 29.1092C7.63532 29.6237 8.00689 29.9283 8.22301 30.0799C8.46022 30.2464 8.7032 30.3618 8.90004 30.4427C9.29494 30.6048 9.75061 30.7264 10.1992 30.8235C11.1124 31.0211 12.3052 31.1815 13.6405 31.311C16.3287 31.5716 19.8145 31.7273 23.2925 31.7589C26.7683 31.7904 30.2937 31.6987 33.056 31.4531C34.4283 31.3311 35.6747 31.1659 36.6526 30.9408C37.1366 30.8294 37.6256 30.6877 38.0554 30.4959C38.4018 30.3414 39.0882 29.9956 39.4984 29.2749L36.0219 27.2965C36.2745 26.8526 36.6063 26.7624 36.4257 26.843C36.3284 26.8864 36.1182 26.9592 35.7554 27.0427C35.0398 27.2074 34.0032 27.3531 32.7018 27.4688C30.1167 27.6987 26.7324 27.79 23.3289 27.759C19.9275 27.7281 16.5644 27.5757 14.0266 27.3297C12.7489 27.2058 11.7345 27.0632 11.0453 26.914C10.6927 26.8377 10.4984 26.7749 10.4194 26.7424C10.3793 26.726 10.4293 26.7416 10.5207 26.8057C10.5911 26.8551 10.864 27.0549 11.0481 27.4622L7.40285 29.1092ZM5.63518 21.0768C6.48778 23.7352 7.22545 26.0936 7.22545 28.2857L11.2255 28.2857C11.2254 25.3513 10.2514 22.3725 9.44408 19.8552L5.63518 21.0768ZM6.10789 7.82149C4.27251 9.84624 3.85487 12.2146 4.0407 14.5016C4.21891 16.6947 4.97068 19.0049 5.63518 21.0768L9.44408 19.8552C8.7414 17.6642 8.16108 15.8209 8.02756 14.1776C7.90166 12.6283 8.19265 11.4775 9.07151 10.5079L6.10789 7.82149ZM24.7284 6.55541C21.3672 3.9392 17.9847 2.72954 14.6706 3.05033C11.3662 3.37018 8.50653 5.17537 6.10789 7.82149L9.07151 10.5079C11.0349 8.342 13.0406 7.22681 15.056 7.03172C17.0617 6.83758 19.4534 7.51842 22.2716 9.71196L24.7284 6.55541ZM22.4077 6.45792C22.3964 6.46552 22.3871 6.47181 22.3799 6.47673C22.3763 6.4792 22.3732 6.48132 22.3706 6.48309C22.3693 6.48397 22.3682 6.48477 22.3671 6.48548C22.3666 6.48583 22.3661 6.48617 22.3657 6.48648C22.3654 6.48663 22.3652 6.48678 22.365 6.48692C22.3649 6.487 22.3648 6.48707 22.3647 6.48714C22.3647 6.48717 22.3646 6.48721 22.3646 6.48724C22.3645 6.48726 22.3645 6.48727 22.3645 6.48729C22.3645 6.4873 22.3645 6.48731 22.3645 6.48731C22.3644 6.48733 22.3644 6.48734 23.5 8.13368C24.6356 9.78003 24.6356 9.78004 24.6356 9.78005C24.6355 9.78006 24.6355 9.78007 24.6355 9.78008C24.6355 9.78009 24.6355 9.78011 24.6354 9.78013C24.6354 9.78016 24.6354 9.78019 24.6353 9.78022C24.6352 9.78029 24.6351 9.78035 24.635 9.78041C24.6349 9.78053 24.6347 9.78065 24.6345 9.78076C24.6342 9.78098 24.6339 9.78118 24.6336 9.78136C24.6331 9.78172 24.6327 9.782 24.6325 9.78218C24.6319 9.78256 24.6319 9.7826 24.6323 9.7823C24.6332 9.78171 24.636 9.77979 24.6407 9.77661L22.4077 6.45792ZM31.6019 11.7014L24.7281 6.52015L22.3204 9.71437L29.1942 14.8957L31.6019 11.7014ZM30.2014 11.8981C30.5339 11.457 31.1609 11.369 31.6019 11.7014L29.1942 14.8957C30.5173 15.893 32.3984 15.6289 33.3957 14.3058L30.2014 11.8981ZM30.3981 13.2986C29.9571 12.9661 29.869 12.3391 30.2014 11.8981L33.3957 14.3058C34.393 12.9827 34.1289 11.1016 32.8058 10.1043L30.3981 13.2986ZM24.2129 8.63635L30.3981 13.2986L32.8058 10.1043L26.6206 5.44213L24.2129 8.63635Z" fill="#333333" mask="url(#path-2-inside-1)"/>
</svg>
