<svg width="48" height="48" viewBox="0 0 48 48" fill="none" xmlns="http://www.w3.org/2000/svg">
<mask id="path-1-inside-1" fill="white">
<path fill-rule="evenodd" clip-rule="evenodd" d="M39.5776 10.1337C34.958 5.26674 28.5689 7.4687 25.4167 9.03924L31.6019 13.7014C32.0429 14.0339 32.131 14.6609 31.7985 15.1019C31.4661 15.543 30.8391 15.631 30.3981 15.2986L23.5242 10.1173L23.5 10.1337C17.3205 5.32394 11.9517 6.35267 7.58968 11.1647C4.06752 15.0503 6.46891 22.0542 8.19519 27.089C8.6068 28.2895 8.98003 29.3781 9.22543 30.2857C10.5 35 11.7194 37.9377 14.5 40.0637C15.877 41.1165 17.4384 39.3072 19.0857 37.3984C20.514 35.7435 22.0068 34.0137 23.5 34.0096C24.9688 34.0055 26.438 35.7325 27.8465 37.3881C29.4722 39.2991 31.0169 41.1149 32.3867 40.0637C34.0107 38.8173 34.9569 37.8248 35.8341 35.9252C31.4143 35.3535 28 31.5755 28 27C28 22.0294 32.0294 18 37 18C38.8382 18 40.5478 18.5511 41.9724 19.4971C42.7354 16.3648 42.4888 13.2008 39.5776 10.1337Z"/>
</mask>
<path fill-rule="evenodd" clip-rule="evenodd" d="M39.5776 10.1337C34.958 5.26674 28.5689 7.4687 25.4167 9.03924L31.6019 13.7014C32.0429 14.0339 32.131 14.6609 31.7985 15.1019C31.4661 15.543 30.8391 15.631 30.3981 15.2986L23.5242 10.1173L23.5 10.1337C17.3205 5.32394 11.9517 6.35267 7.58968 11.1647C4.06752 15.0503 6.46891 22.0542 8.19519 27.089C8.6068 28.2895 8.98003 29.3781 9.22543 30.2857C10.5 35 11.7194 37.9377 14.5 40.0637C15.877 41.1165 17.4384 39.3072 19.0857 37.3984C20.514 35.7435 22.0068 34.0137 23.5 34.0096C24.9688 34.0055 26.438 35.7325 27.8465 37.3881C29.4722 39.2991 31.0169 41.1149 32.3867 40.0637C34.0107 38.8173 34.9569 37.8248 35.8341 35.9252C31.4143 35.3535 28 31.5755 28 27C28 22.0294 32.0294 18 37 18C38.8382 18 40.5478 18.5511 41.9724 19.4971C42.7354 16.3648 42.4888 13.2008 39.5776 10.1337Z" fill="#333333"/>
<path d="M25.4167 9.03924L24.5248 7.24912C23.9047 7.55808 23.4886 8.16594 23.4251 8.85583C23.3616 9.54571 23.6596 10.2193 24.2128 10.6363L25.4167 9.03924ZM39.5776 10.1337L38.127 11.5106V11.5106L39.5776 10.1337ZM31.6019 13.7014L32.8058 12.1043L32.8058 12.1043L31.6019 13.7014ZM31.7985 15.1019L30.2014 13.8981L30.2014 13.8981L31.7985 15.1019ZM30.3981 15.2986L31.6019 13.7014L31.6019 13.7014L30.3981 15.2986ZM23.5242 10.1173L24.728 8.52015C24.0447 8.00506 23.1093 7.9818 22.4012 8.4623L23.5242 10.1173ZM23.5 10.1337L22.2715 11.712C22.9558 12.2446 23.9054 12.2755 24.623 11.7886L23.5 10.1337ZM7.58968 11.1647L9.07149 12.5079L7.58968 11.1647ZM8.19519 27.089L6.3033 27.7377L8.19519 27.089ZM9.22543 30.2857L11.1561 29.7637L9.22543 30.2857ZM14.5 40.0637L13.2852 41.6525H13.2852L14.5 40.0637ZM19.0857 37.3984L20.5998 38.7051V38.7051L19.0857 37.3984ZM23.5 34.0096L23.5055 36.0096H23.5055L23.5 34.0096ZM27.8465 37.3881L26.3232 38.6841V38.6841L27.8465 37.3881ZM32.3867 40.0637L33.6044 41.6503L33.6044 41.6503L32.3867 40.0637ZM35.8341 35.9252L37.6499 36.7637C37.9168 36.1857 37.8926 35.5152 37.5847 34.9579C37.2768 34.4007 36.722 34.0234 36.0907 33.9417L35.8341 35.9252ZM41.9724 19.4971L40.866 21.1632C41.409 21.5238 42.0937 21.5972 42.7008 21.3597C43.3079 21.1223 43.7612 20.6039 43.9155 19.9705L41.9724 19.4971ZM26.3086 10.8294C27.7685 10.102 29.8724 9.28711 32.0545 9.16951C34.169 9.05556 36.303 9.58889 38.127 11.5106L41.0282 8.75686C38.2326 5.81159 34.8622 5.0124 31.8392 5.17531C28.8838 5.33458 26.2171 6.40597 24.5248 7.24912L26.3086 10.8294ZM32.8058 12.1043L26.6205 7.44213L24.2128 10.6363L30.3981 15.2986L32.8058 12.1043ZM33.3956 16.3058C34.3929 14.9827 34.1288 13.1016 32.8058 12.1043L30.3981 15.2986C29.957 14.9661 29.869 14.3391 30.2014 13.8981L33.3956 16.3058ZM29.1942 16.8957C30.5173 17.893 32.3983 17.6289 33.3956 16.3058L30.2014 13.8981C30.5339 13.457 31.1609 13.369 31.6019 13.7014L29.1942 16.8957ZM22.3203 11.7144L29.1942 16.8957L31.6019 13.7014L24.728 8.52015L22.3203 11.7144ZM24.623 11.7886L24.6472 11.7722L22.4012 8.4623L22.377 8.47872L24.623 11.7886ZM9.07149 12.5079C11.0348 10.342 13.0405 9.22681 15.056 9.03172C17.0617 8.83758 19.4533 9.51842 22.2715 11.712L24.7284 8.55541C21.3672 5.9392 17.9847 4.72954 14.6706 5.05033C11.3662 5.37018 8.50651 7.17537 6.10788 9.82149L9.07149 12.5079ZM10.0871 26.4403C9.21085 23.8847 8.25246 21.0678 7.90729 18.4358C7.55825 15.7743 7.90366 13.7963 9.07149 12.5079L6.10788 9.82149C3.75355 12.4187 3.53857 15.8854 3.94125 18.9559C4.3478 22.056 5.45325 25.2584 6.3033 27.7377L10.0871 26.4403ZM11.1561 29.7637C10.8897 28.7782 10.4914 27.6196 10.0871 26.4403L6.3033 27.7377C6.72218 28.9594 7.07041 29.978 7.29475 30.8077L11.1561 29.7637ZM15.7148 38.4749C13.5024 36.7833 12.4183 34.4322 11.1561 29.7637L7.29475 30.8077C8.5817 35.5678 9.93645 39.0921 13.2852 41.6525L15.7148 38.4749ZM17.5716 36.0917C16.6931 37.1097 16.0548 37.8314 15.5145 38.2247C15.2606 38.4094 15.1958 38.3921 15.2875 38.3793C15.4658 38.3542 15.6452 38.4216 15.7148 38.4749L13.2852 41.6525C14.0433 42.2321 14.9342 42.4682 15.844 42.3404C16.6672 42.2247 17.3539 41.8332 17.8685 41.4586C18.8649 40.7333 19.831 39.596 20.5998 38.7051L17.5716 36.0917ZM23.4945 32.0096C22.0015 32.0137 20.7867 32.856 19.9588 33.5734C19.0892 34.3269 18.2608 35.2931 17.5716 36.0917L20.5998 38.7051C21.3389 37.8488 21.971 37.1226 22.5782 36.5964C22.8728 36.3411 23.1071 36.1824 23.2851 36.0921C23.4587 36.0042 23.5231 36.0095 23.5055 36.0096L23.4945 32.0096ZM29.3698 36.0922C28.6907 35.2939 27.8734 34.3267 27.0154 33.5735C26.2015 32.859 24.991 32.0054 23.4945 32.0096L23.5055 36.0096C23.4778 36.0096 23.7364 36.0176 24.3764 36.5795C24.9723 37.1026 25.5939 37.8268 26.3232 38.6841L29.3698 36.0922ZM31.1691 38.4771C31.241 38.4218 31.4265 38.3514 31.6131 38.3783C31.7112 38.3924 31.6509 38.4126 31.4003 38.2276C30.8671 37.834 30.2373 37.1119 29.3698 36.0922L26.3232 38.6841C27.0814 39.5753 28.0368 40.7166 29.0249 41.4459C29.5348 41.8223 30.2191 42.2188 31.0429 42.3374C31.9553 42.4688 32.8475 42.2311 33.6044 41.6503L31.1691 38.4771ZM34.0184 35.0867C33.3132 36.6138 32.6145 37.3677 31.1691 38.4771L33.6044 41.6503C35.4069 40.2669 36.6007 39.0357 37.6499 36.7637L34.0184 35.0867ZM36.0907 33.9417C32.6551 33.4973 30 30.5571 30 27H26C26 32.5938 30.1736 37.2097 35.5776 37.9087L36.0907 33.9417ZM30 27C30 23.134 33.134 20 37 20V16C30.9249 16 26 20.9249 26 27H30ZM37 20C38.4326 20 39.7591 20.4282 40.866 21.1632L43.0787 17.831C41.3364 16.674 39.2439 16 37 16V20ZM38.127 11.5106C39.3525 12.8017 39.9491 14.0332 40.1959 15.2036C40.4467 16.3934 40.3633 17.6521 40.0292 19.0237L43.9155 19.9705C44.3444 18.2099 44.5193 16.3204 44.1098 14.3784C43.6962 12.4169 42.7139 10.5328 41.0282 8.75686L38.127 11.5106Z" fill="#333333" mask="url(#path-1-inside-1)"/>
<circle cx="37" cy="27" r="8" stroke="#333333" stroke-width="2"/>
<rect x="36" y="22" width="2" height="10" rx="1" fill="#333333"/>
<rect x="32" y="28" width="2" height="10" rx="1" transform="rotate(-90 32 28)" fill="#333333"/>
</svg>
