<svg width="48" height="48" viewBox="0 0 48 48" fill="none" xmlns="http://www.w3.org/2000/svg">
<path d="M27.283 6.81136C27.4713 7.00502 27.7299 7.11429 28 7.11429H34C35.6569 7.11429 37 8.45743 37 10.1143V34C37 35.6569 35.6569 37 34 37H14C12.3431 37 11 35.6569 11 34V10.1143C11 8.45743 12.3431 7.11429 14 7.11429H20C20.2701 7.11429 20.5287 7.00502 20.717 6.81136L21.849 5.647C23.027 4.43531 24.973 4.43531 26.151 5.647L27.283 6.81136Z" stroke="#333333" stroke-width="2" stroke-linejoin="round"/>
<path d="M15 23L20 11L25 23" stroke="#333333" stroke-width="2" stroke-linecap="round" stroke-linejoin="round"/>
<path d="M17 20H23" stroke="#333333" stroke-width="2" stroke-linecap="square" stroke-linejoin="round"/>
<path d="M30 14L30 20" stroke="#333333" stroke-width="2" stroke-linecap="round"/>
<path d="M27 17L33 17" stroke="#333333" stroke-width="2" stroke-linecap="round"/>
<path d="M24 36V44" stroke="#333333" stroke-width="2"/>
<path d="M18 39H30" stroke="#333333" stroke-width="2"/>
<path d="M11 30C17.5999 29.7251 22.475 31.2597 28 28C33.525 24.7403 37 30 37 30" stroke="#333333" stroke-width="2"/>
</svg>
