<svg width="48" height="48" viewBox="0 0 48 48" fill="none" xmlns="http://www.w3.org/2000/svg">
<path fill-rule="evenodd" clip-rule="evenodd" d="M20 10C20.4037 10 20.7678 10.2427 20.9231 10.6154L25.9231 22.6154C26.1355 23.1252 25.8944 23.7107 25.3846 23.9231C24.8748 24.1355 24.2894 23.8944 24.0769 23.3846L23.0834 21H16.9167L15.9231 23.3846C15.7107 23.8944 15.1252 24.1355 14.6154 23.9231C14.1056 23.7107 13.8645 23.1252 14.0769 22.6154L19.0769 10.6154C19.2322 10.2427 19.5963 10 20 10ZM22.25 19L20 13.6L17.75 19H22.25Z" fill="#333333"/>
<path d="M27 16H33C33.5523 16 34 16.4477 34 17C34 17.5523 33.5523 18 33 18H27C26.4477 18 26 17.5523 26 17C26 16.4477 26.4477 16 27 16Z" fill="#333333"/>
<path fill-rule="evenodd" clip-rule="evenodd" d="M38 10.1143V34C38 36.2091 36.2091 38 34 38H25L30 38V40H25V44H23V40H18V38L23 38H14C11.7909 38 10 36.2091 10 34V10.1143C10 7.90513 11.7909 6.11427 14 6.11427H20L21.132 4.94991C22.7027 3.33432 25.2973 3.33432 26.868 4.94991L28 6.11427H34C36.2091 6.11427 38 7.90513 38 10.1143ZM28 8.11427C27.4598 8.11427 26.9426 7.89575 26.566 7.50843L25.434 6.34406C24.6486 5.53627 23.3514 5.53627 22.566 6.34406L21.434 7.50843C21.0574 7.89575 20.5402 8.11427 20 8.11427H14C12.8954 8.11427 12 9.0097 12 10.1143V28.971C13.3017 28.9498 14.5325 28.9875 15.7005 29.0306C15.8789 29.0372 16.0555 29.0439 16.2306 29.0505C17.514 29.0991 18.7109 29.1445 19.8818 29.1195C22.5089 29.0637 24.924 28.6538 27.4918 27.1387C30.6105 25.2987 33.2501 25.8514 35.0748 26.9133C35.4135 27.1104 35.7222 27.3234 36 27.5389V10.1143C36 9.0097 35.1046 8.11427 34 8.11427H28ZM36 30.3295C35.9122 30.2187 35.7913 30.0742 35.6392 29.9109C35.2727 29.5177 34.7407 29.0328 34.0689 28.6419C32.7749 27.8889 30.9145 27.4416 28.5081 28.8613C25.551 30.606 22.766 31.0586 19.9243 31.1191C18.6899 31.1454 17.4294 31.0975 16.153 31.049C15.9779 31.0424 15.8024 31.0357 15.6267 31.0293C14.4539 30.986 13.2549 30.9499 12 30.9713V34C12 35.1046 12.8954 36 14 36H34C35.1046 36 36 35.1046 36 34V30.3295Z" fill="#333333"/>
</svg>
