<svg width="48" height="48" viewBox="0 0 48 48" fill="none" xmlns="http://www.w3.org/2000/svg">
<path d="M33 16H27C26.4477 16 26 16.4477 26 17C26 17.5523 26.4477 18 27 18H33C33.5523 18 34 17.5523 34 17C34 16.4477 33.5523 16 33 16Z" fill="#333333"/>
<path fill-rule="evenodd" clip-rule="evenodd" d="M14 15C14 12.2386 16.2386 10 19 10C21.7614 10 24 12.2386 24 15V19C24 21.7614 21.7614 24 19 24C16.2386 24 14 21.7614 14 19V15ZM22 15V19C22 20.6569 20.6569 22 19 22C17.3431 22 16 20.6569 16 19V15C16 13.3431 17.3431 12 19 12C20.6569 12 22 13.3431 22 15Z" fill="#333333"/>
<path fill-rule="evenodd" clip-rule="evenodd" d="M38 34V10.1143C38 7.90513 36.2091 6.11427 34 6.11427H28L26.868 4.94991C25.2973 3.33432 22.7027 3.33432 21.132 4.94991L20 6.11427H14C11.7909 6.11427 10 7.90513 10 10.1143V34C10 36.2091 11.7909 38 14 38H23L18 38V40H23V44H25V40H30V38L25 38H34C36.2091 38 38 36.2091 38 34ZM26.566 7.50843C26.9426 7.89575 27.4598 8.11427 28 8.11427H34C35.1046 8.11427 36 9.0097 36 10.1143V27.5389C35.7222 27.3234 35.4135 27.1104 35.0748 26.9133C33.2501 25.8514 30.6105 25.2987 27.4919 27.1387C24.924 28.6538 22.5089 29.0637 19.8818 29.1195C18.711 29.1445 17.5142 29.0991 16.2308 29.0505C16.0557 29.0439 15.8789 29.0372 15.7005 29.0306C14.5326 28.9875 13.3017 28.9498 12 28.971V10.1143C12 9.0097 12.8954 8.11427 14 8.11427H20C20.5402 8.11427 21.0574 7.89575 21.434 7.50843L22.566 6.34406C23.3514 5.53627 24.6486 5.53627 25.434 6.34406L26.566 7.50843ZM35.6392 29.9109C35.7913 30.0742 35.9122 30.2187 36 30.3295V34C36 35.1046 35.1046 36 34 36H14C12.8954 36 12 35.1046 12 34V30.9713C13.2549 30.9499 14.4539 30.986 15.6268 31.0293C15.8024 31.0357 15.9778 31.0424 16.1528 31.049C17.4292 31.0975 18.6899 31.1454 19.9243 31.1191C22.766 31.0586 25.551 30.606 28.5082 28.8613C30.9145 27.4416 32.7749 27.8889 34.0689 28.6419C34.7407 29.0328 35.2727 29.5177 35.6392 29.9109Z" fill="#333333"/>
</svg>
