<svg width="48" height="48" viewBox="0 0 48 48" fill="none" xmlns="http://www.w3.org/2000/svg">
<path fill-rule="evenodd" clip-rule="evenodd" d="M18.3856 5.33397C20.3549 3.27385 23.6451 3.27385 25.6144 5.33397L26.1418 5.88573H31.3302C33.9092 5.88573 36 7.97649 36 10.5556V12H34V10.5556C34 9.08105 32.8047 7.88573 31.3302 7.88573H25.7143C25.4412 7.88573 25.1801 7.77408 24.9914 7.57671L24.1686 6.71594C22.9871 5.47986 21.0129 5.47986 19.8314 6.71594L19.0086 7.57671C18.8199 7.77408 18.5588 7.88573 18.2857 7.88573H13C11.3431 7.88573 10 9.22887 10 10.8857V27.9711C11.3017 27.95 12.5325 27.9877 13.7005 28.0307C13.8786 28.0373 14.0549 28.044 14.2296 28.0506L14.2306 28.0506C15.5139 28.0992 16.7111 28.1446 17.8818 28.1197C20.5089 28.0638 22.924 27.6539 25.4918 26.1389C28.6105 24.2989 31.2501 24.8515 33.0748 25.9134C33.4135 26.1105 33.7222 26.3236 34 26.539V24H36V33C36 35.7614 33.7614 38 31 38L28 38V40H23V44H21V40H16V38L13 38C10.2386 38 8 35.7614 8 33V10.8857C8 8.12431 10.2386 5.88573 13 5.88573H17.8582L18.3856 5.33397ZM34 29.3297C33.9122 29.2188 33.7913 29.0743 33.6392 28.911C33.2727 28.5178 32.7407 28.0329 32.0689 27.642C30.7749 26.889 28.9145 26.4417 26.5081 27.8614C23.551 29.6061 20.766 30.0588 17.9243 30.1192C16.6899 30.1455 15.4294 30.0976 14.153 30.0492C13.9779 30.0425 13.8024 30.0359 13.6267 30.0294C12.4539 29.9861 11.2549 29.95 10 29.9714V33C10 34.6569 11.3431 36 13 36H31C32.6569 36 34 34.6569 34 33V29.3297Z" fill="#333333"/>
<path d="M34 21C34 21.5523 34.4477 22 35 22C35.5523 22 36 21.5523 36 21V19H38C38.5523 19 39 18.5523 39 18C39 17.4477 38.5523 17 38 17H36V15C36 14.4477 35.5523 14 35 14C34.4477 14 34 14.4477 34 15V17H32C31.4477 17 31 17.4477 31 18C31 18.5523 31.4477 19 32 19H34V21Z" fill="#333333"/>
<path d="M22 12C22.5523 12 23 12.4477 23 13V17H27V13C27 12.4477 27.4477 12 28 12C28.5523 12 29 12.4477 29 13V23C29 23.5523 28.5523 24 28 24C27.4477 24 27 23.5523 27 23V19H23V23C23 23.5523 22.5523 24 22 24C21.4477 24 21 23.5523 21 23V13C21 12.4477 21.4477 12 22 12Z" fill="#333333"/>
<path fill-rule="evenodd" clip-rule="evenodd" d="M13 12H16C18.2091 12 20 13.7909 20 16C20 17.9491 18.606 19.5726 16.7605 19.9278L19.6247 22.2191C20.056 22.5641 20.1259 23.1934 19.7809 23.6247C19.4359 24.056 18.8066 24.1259 18.3753 23.7809L14 20.2806V23C14 23.5523 13.5523 24 13 24C12.4477 24 12 23.5523 12 23V13C12 12.4477 12.4477 12 13 12ZM14.0092 18H16C17.1046 18 18 17.1046 18 16C18 14.8954 17.1046 14 16 14H14V18C14.0031 18 14.0062 18 14.0092 18Z" fill="#333333"/>
</svg>
