<svg width="48" height="48" viewBox="0 0 48 48" fill="none" xmlns="http://www.w3.org/2000/svg">
<path fill-rule="evenodd" clip-rule="evenodd" d="M18.3856 5.33397C20.3549 3.27385 23.6451 3.27385 25.6144 5.33397L26.1418 5.88573H31.3302C33.9092 5.88573 36 7.97649 36 10.5556V14H34V10.5556C34 9.08105 32.8047 7.88573 31.3302 7.88573H25.7143C25.4412 7.88573 25.1801 7.77408 24.9914 7.57671L24.1686 6.71594C22.9871 5.47986 21.0129 5.47986 19.8314 6.71594L19.0086 7.57671C18.8199 7.77408 18.5588 7.88573 18.2857 7.88573H13C11.3431 7.88573 10 9.22887 10 10.8857V27.971C11.3017 27.9498 12.5326 27.9875 13.7005 28.0306C13.8788 28.0372 14.0554 28.0439 14.2304 28.0505C15.5137 28.0991 16.711 28.1445 17.8818 28.1195C20.5089 28.0637 22.924 27.6538 25.4919 26.1387C28.6105 24.2987 31.2501 24.8514 33.0748 25.9133C33.4135 26.1104 33.7222 26.3234 34 26.5389V22H36V33C36 35.7614 33.7614 38 31 38L28 38V40H23V44H21V40H16V38L13 38C10.2386 38 8 35.7614 8 33V10.8857C8 8.12431 10.2386 5.88573 13 5.88573H17.8582L18.3856 5.33397ZM34 29.3295C33.9122 29.2187 33.7913 29.0742 33.6392 28.9109C33.2727 28.5177 32.7407 28.0328 32.0689 27.6419C30.7749 26.8889 28.9145 26.4416 26.5082 27.8613C23.551 29.606 20.766 30.0586 17.9243 30.1191C16.6899 30.1454 15.4295 30.0975 14.1531 30.049C13.978 30.0424 13.8024 30.0357 13.6268 30.0293C12.4539 29.986 11.2549 29.9499 10 29.9713V33C10 34.6569 11.3431 36 13 36H31C32.6569 36 34 34.6569 34 33V29.3295Z" fill="#333333"/>
<path fill-rule="evenodd" clip-rule="evenodd" d="M16.5 12C16.9168 12 17.29 12.2586 17.4363 12.6489L20.9363 21.9822C21.1302 22.4993 20.8682 23.0757 20.3511 23.2697C19.834 23.4636 19.2576 23.2016 19.0637 22.6845L18.432 21H14.568L13.9363 22.6845C13.7424 23.2016 13.166 23.4636 12.6489 23.2697C12.1318 23.0757 11.8697 22.4993 12.0637 21.9822L15.5637 12.6489C15.71 12.2586 16.0832 12 16.5 12ZM16.5 15.848L17.682 19L15.318 19L16.5 15.848Z" fill="#333333"/>
<path d="M32 17C31.4477 17 31 17.4477 31 18C31 18.5523 31.4477 19 32 19H38C38.5523 19 39 18.5523 39 18C39 17.4477 38.5523 17 38 17H32Z" fill="#333333"/>
<path fill-rule="evenodd" clip-rule="evenodd" d="M25.25 12H22V23H25.25C27.057 23 28.5876 21.5806 28.5876 19.75C28.5876 18.8664 28.231 18.0786 27.6589 17.5C28.231 16.9214 28.5876 16.1336 28.5876 15.25C28.5876 13.4194 27.057 12 25.25 12ZM26.5876 15.25C26.5876 14.5953 26.0251 14 25.25 14H24V16.5H25.25C26.0251 16.5 26.5876 15.9047 26.5876 15.25ZM25.25 18.5H24V21H25.25C26.0251 21 26.5876 20.4047 26.5876 19.75C26.5876 19.0953 26.0251 18.5 25.25 18.5Z" fill="#333333"/>
</svg>
