<svg width="48" height="48" viewBox="0 0 48 48" fill="none" xmlns="http://www.w3.org/2000/svg">
<path fill-rule="evenodd" clip-rule="evenodd" d="M20.9231 10.6154C20.7678 10.2428 20.4037 10.0001 20 10.0001C19.5963 10.0001 19.2322 10.2428 19.0769 10.6154L14.0769 22.6154C13.8645 23.1252 14.1056 23.7107 14.6154 23.9231C15.1252 24.1356 15.7107 23.8945 15.9231 23.3847L16.9167 21.0001H23.0833L24.0769 23.3847C24.2893 23.8945 24.8748 24.1356 25.3846 23.9231C25.8944 23.7107 26.1355 23.1252 25.9231 22.6154L20.9231 10.6154ZM20 13.6001L22.25 19.0001H17.75L20 13.6001Z" fill="#333333"/>
<path d="M31 14.0001C31 13.4478 30.5523 13.0001 30 13.0001C29.4477 13.0001 29 13.4478 29 14.0001V16.0001H27C26.4477 16.0001 26 16.4478 26 17.0001C26 17.5523 26.4477 18.0001 27 18.0001H29V20.0001C29 20.5523 29.4477 21.0001 30 21.0001C30.5523 21.0001 31 20.5523 31 20.0001V18.0001H33C33.5523 18.0001 34 17.5523 34 17.0001C34 16.4478 33.5523 16.0001 33 16.0001H31V14.0001Z" fill="#333333"/>
<path fill-rule="evenodd" clip-rule="evenodd" d="M38 34.0001V10.1143C38 7.90519 36.2091 6.11433 34 6.11433H28L26.868 4.94997C25.2973 3.33439 22.7027 3.33439 21.132 4.94997L20 6.11433H14C11.7909 6.11433 10 7.90519 10 10.1143V34C10 36.2092 11.7909 38 14 38H23L18 38.0001V40.0001H23V44.0001H25V40.0001H30V38.0001L25 38H34C36.2091 38 38 36.2092 38 34.0001ZM26.566 7.50849C26.9426 7.89581 27.4598 8.11433 28 8.11433H34C35.1046 8.11433 36 9.00976 36 10.1143V27.5389C35.7222 27.3235 35.4135 27.1104 35.0748 26.9134C33.2501 25.8515 30.6105 25.2988 27.4919 27.1388C24.924 28.6538 22.5089 29.0637 19.8818 29.1196C18.711 29.1445 17.5141 29.0992 16.2307 29.0506C16.0557 29.0439 15.8789 29.0373 15.7005 29.0307C14.5326 28.9876 13.3017 28.9499 12 28.9711V10.1143C12 9.00976 12.8954 8.11433 14 8.11433H20C20.5402 8.11433 21.0574 7.89581 21.434 7.50849L22.566 6.34412C23.3514 5.53633 24.6486 5.53633 25.434 6.34412L26.566 7.50849ZM12 30.9713V34C12 35.1046 12.8954 36 14 36H34C35.1046 36 36 35.1046 36 34.0001V30.3296C35.9122 30.2187 35.7913 30.0742 35.6392 29.9109C35.2727 29.5178 34.7407 29.0329 34.0689 28.642C32.7749 27.889 30.9145 27.4416 28.5082 28.8613C25.551 30.606 22.766 31.0587 19.9243 31.1192C18.6899 31.1454 17.4295 31.0976 16.1531 31.0491C15.978 31.0425 15.8024 31.0358 15.6268 31.0293C14.4539 30.9861 13.2549 30.9499 12 30.9713Z" fill="#333333"/>
</svg>
