<svg width="48" height="48" viewBox="0 0 48 48" fill="none" xmlns="http://www.w3.org/2000/svg">
<path d="M32 18L38 18" stroke="#333333" stroke-width="2" stroke-linecap="round"/>
<path d="M35 21L35 15" stroke="#333333" stroke-width="2" stroke-linecap="round"/>
<path d="M35 24V33C35 35.2091 33.2091 37 31 37H13C10.7909 37 9 35.2091 9 33V10.8857C9 8.67658 10.7909 6.88571 13 6.88571H18.2857L19.1085 6.02494C20.6839 4.37684 23.3161 4.37684 24.8915 6.02494L25.7143 6.88571H31.3302C33.357 6.88571 35 8.52876 35 10.5556V10.5556V12" stroke="#333333" stroke-width="2" stroke-linejoin="round"/>
<path d="M22 36V44" stroke="#333333" stroke-width="2"/>
<path d="M16 39H28" stroke="#333333" stroke-width="2"/>
<path d="M9 29.0001C15.5999 28.7252 20.475 30.2598 26 27.0001C31.525 23.7404 35 29.0001 35 29.0001" stroke="#333333" stroke-width="2"/>
<path d="M22 13V23" stroke="#333333" stroke-width="2" stroke-linecap="round"/>
<path d="M13 13V23" stroke="#333333" stroke-width="2" stroke-linecap="round"/>
<path d="M28 13V23" stroke="#333333" stroke-width="2" stroke-linecap="round"/>
<path d="M22 18L28 18" stroke="#333333" stroke-width="2" stroke-linecap="round"/>
<path d="M14 19L19 23" stroke="#333333" stroke-width="2" stroke-linecap="round"/>
<path d="M13 13H16C17.6569 13 19 14.3431 19 16C19 17.6569 17.6569 19 16 19H13" stroke="#333333" stroke-width="2"/>
</svg>
