<svg width="48" height="48" viewBox="0 0 48 48" fill="none" xmlns="http://www.w3.org/2000/svg">
<path d="M31 16H33C33.5523 16 34 16.4477 34 17C34 17.5523 33.5523 18 33 18H31V20C31 20.5523 30.5523 21 30 21C29.4477 21 29 20.5523 29 20V18H27C26.4477 18 26 17.5523 26 17C26 16.4477 26.4477 16 27 16H29V14C29 13.4477 29.4477 13 30 13C30.5523 13 31 13.4477 31 14V16Z" fill="#333333"/>
<path fill-rule="evenodd" clip-rule="evenodd" d="M14 15C14 12.2386 16.2386 10 19 10C21.7614 10 24 12.2386 24 15V19C24 21.7614 21.7614 24 19 24C16.2386 24 14 21.7614 14 19V15ZM22 15V19C22 20.6569 20.6569 22 19 22C17.3431 22 16 20.6569 16 19V15C16 13.3431 17.3431 12 19 12C20.6569 12 22 13.3431 22 15Z" fill="#333333"/>
<path fill-rule="evenodd" clip-rule="evenodd" d="M38 10.1143V34C38 36.2091 36.2091 38 34 38H25L30 38V40H25V44H23V40H18V38L23 38H14C11.7909 38 10 36.2091 10 34V10.1143C10 7.90513 11.7909 6.11427 14 6.11427H20L21.132 4.94991C22.7027 3.33432 25.2973 3.33432 26.868 4.94991L28 6.11427H34C36.2091 6.11427 38 7.90513 38 10.1143ZM28 8.11427C27.4598 8.11427 26.9426 7.89575 26.566 7.50843L25.434 6.34406C24.6486 5.53627 23.3514 5.53627 22.566 6.34406L21.434 7.50843C21.0574 7.89575 20.5402 8.11427 20 8.11427H14C12.8954 8.11427 12 9.0097 12 10.1143V28.971C13.3017 28.9498 14.5326 28.9875 15.7005 29.0306C15.8789 29.0372 16.0556 29.0439 16.2306 29.0505C17.514 29.0991 18.711 29.1445 19.8818 29.1195C22.5089 29.0637 24.924 28.6538 27.4919 27.1387C30.6105 25.2987 33.2501 25.8514 35.0748 26.9133C35.4135 27.1104 35.7222 27.3234 36 27.5389V10.1143C36 9.0097 35.1046 8.11427 34 8.11427H28ZM12 34V30.9713C13.2549 30.9499 14.4539 30.986 15.6268 31.0293C15.8024 31.0357 15.9778 31.0424 16.1528 31.049C17.4292 31.0975 18.6899 31.1454 19.9243 31.1191C22.766 31.0586 25.551 30.606 28.5082 28.8613C30.9145 27.4416 32.7749 27.8889 34.0689 28.6419C34.7407 29.0328 35.2727 29.5177 35.6392 29.9109C35.7913 30.0742 35.9122 30.2187 36 30.3295V34C36 35.1046 35.1046 36 34 36H14C12.8954 36 12 35.1046 12 34Z" fill="#333333"/>
</svg>
