<svg width="48" height="48" viewBox="0 0 48 48" fill="none" xmlns="http://www.w3.org/2000/svg">
<path d="M31 14C31 13.4477 30.5523 13 30 13C29.4477 13 29 13.4477 29 14V16H27C26.4477 16 26 16.4477 26 17C26 17.5523 26.4477 18 27 18H29V20C29 20.5523 29.4477 21 30 21C30.5523 21 31 20.5523 31 20V18H33C33.5523 18 34 17.5523 34 17C34 16.4477 33.5523 16 33 16H31V14Z" fill="#333333"/>
<path fill-rule="evenodd" clip-rule="evenodd" d="M16 24H20C22.2373 24 24.1169 22.2448 24.1169 20C24.1169 18.7928 23.5733 17.7272 22.7228 17C23.5733 16.2728 24.1169 15.2072 24.1169 14C24.1169 11.7552 22.2373 10 20 10H16V24ZM22.1169 14C22.1169 12.9311 21.2055 12 20 12H18V16H20C21.2055 16 22.1169 15.0689 22.1169 14ZM20 18H18V22H20C21.2055 22 22.1169 21.0689 22.1169 20C22.1169 18.9311 21.2055 18 20 18Z" fill="#333333"/>
<path fill-rule="evenodd" clip-rule="evenodd" d="M38 34V10.1143C38 7.90513 36.2091 6.11427 34 6.11427H28L26.868 4.94991C25.2973 3.33432 22.7027 3.33432 21.132 4.94991L20 6.11427H14C11.7909 6.11427 10 7.90513 10 10.1143V34C10 36.2091 11.7909 38 14 38H23L18 38V40H23V44H25V40H30V38L25 38H34C36.2091 38 38 36.2091 38 34ZM26.566 7.50843C26.9426 7.89575 27.4598 8.11427 28 8.11427H34C35.1046 8.11427 36 9.0097 36 10.1143V27.5389C35.7222 27.3234 35.4135 27.1104 35.0748 26.9133C33.2501 25.8514 30.6105 25.2987 27.4918 27.1387C24.924 28.6538 22.5089 29.0637 19.8818 29.1195C18.711 29.1445 17.5143 29.0991 16.2309 29.0505L16.2296 29.0505C16.0551 29.0439 15.8783 29.0372 15.7005 29.0306C14.5325 28.9875 13.3017 28.9498 12 28.971V10.1143C12 9.0097 12.8954 8.11427 14 8.11427H20C20.5402 8.11427 21.0574 7.89575 21.434 7.50843L22.566 6.34406C23.3514 5.53627 24.6486 5.53627 25.434 6.34406L26.566 7.50843ZM12 30.9713V34C12 35.1046 12.8954 36 14 36H34C35.1046 36 36 35.1046 36 34V30.3295C35.9122 30.2187 35.7913 30.0742 35.6392 29.9109C35.2727 29.5177 34.7407 29.0328 34.0689 28.6419C32.7749 27.8889 30.9145 27.4416 28.5081 28.8613C25.551 30.606 22.766 31.0586 19.9243 31.1191C18.6899 31.1454 17.4294 31.0975 16.153 31.049C15.978 31.0424 15.8023 31.0357 15.6267 31.0293C14.4539 30.986 13.2549 30.9499 12 30.9713Z" fill="#333333"/>
</svg>
