<svg width="48" height="48" viewBox="0 0 48 48" fill="none" xmlns="http://www.w3.org/2000/svg">
<path fill-rule="evenodd" clip-rule="evenodd" d="M19.3856 5.33397C21.3549 3.27385 24.6451 3.27385 26.6144 5.33397L27.1418 5.88573H32.3302C34.9092 5.88573 37 7.97649 37 10.5556V12H35V10.5556C35 9.08105 33.8047 7.88573 32.3302 7.88573H26.7143C26.4412 7.88573 26.1801 7.77408 25.9914 7.57671L25.1686 6.71594C23.9871 5.47986 22.0129 5.47986 20.8314 6.71594L20.0086 7.57671C19.8199 7.77408 19.5588 7.88573 19.2857 7.88573H14C12.3431 7.88573 11 9.22887 11 10.8857V27.971C12.3017 27.9498 13.5325 27.9875 14.7005 28.0306C14.8788 28.0372 15.0554 28.0439 15.2304 28.0505C16.5137 28.0991 17.711 28.1445 18.8818 28.1195C21.5089 28.0637 23.924 27.6538 26.4918 26.1387C29.6105 24.2987 32.2501 24.8514 34.0748 25.9133C34.4135 26.1104 34.7222 26.3234 35 26.5389V24H37V33C37 35.7614 34.7614 38 32 38L29 38V40H24V44H22V40H17V38L14 38C11.2386 38 9 35.7614 9 33V10.8857C9 8.12431 11.2386 5.88573 14 5.88573H18.8582L19.3856 5.33397ZM35 29.3295C34.9122 29.2187 34.7913 29.0742 34.6392 28.9109C34.2727 28.5177 33.7407 28.0328 33.0689 27.6419C31.7749 26.8889 29.9145 26.4416 27.5081 27.8613C24.551 29.606 21.766 30.0586 18.9243 30.1191C17.6899 30.1454 16.4294 30.0975 15.153 30.049C14.978 30.0424 14.8024 30.0357 14.6267 30.0293C13.4539 29.986 12.2549 29.9499 11 29.9713V33C11 34.6569 12.3431 36 14 36H32C33.6569 36 35 34.6569 35 33V29.3295Z" fill="#333333"/>
<path fill-rule="evenodd" clip-rule="evenodd" d="M18.4364 12.6489C18.29 12.2586 17.9169 12 17.5 12C17.0832 12 16.7101 12.2586 16.5637 12.6489L13.0637 21.9822C12.8698 22.4993 13.1318 23.0757 13.6489 23.2697C14.166 23.4636 14.7424 23.2016 14.9364 22.6845L15.568 21H19.432L20.0637 22.6845C20.2576 23.2016 20.834 23.4636 21.3512 23.2697C21.8683 23.0757 22.1303 22.4993 21.9364 21.9822L18.4364 12.6489ZM18.682 19L17.5 15.848L16.318 19L18.682 19Z" fill="#333333"/>
<path d="M32 18C32 17.4477 32.4477 17 33 17H35V15C35 14.4477 35.4477 14 36 14C36.5523 14 37 14.4477 37 15V17H39C39.5523 17 40 17.4477 40 18C40 18.5523 39.5523 19 39 19H37V21C37 21.5523 36.5523 22 36 22C35.4477 22 35 21.5523 35 21V19H33C32.4477 19 32 18.5523 32 18Z" fill="#333333"/>
<path fill-rule="evenodd" clip-rule="evenodd" d="M23 23H26.25C28.057 23 29.5877 21.5806 29.5877 19.75C29.5877 18.8664 29.231 18.0786 28.6589 17.5C29.231 16.9214 29.5877 16.1336 29.5877 15.25C29.5877 13.4194 28.057 12 26.25 12H23V23ZM27.5877 15.25C27.5877 14.5953 27.0251 14 26.25 14H25V16.5H26.25C27.0251 16.5 27.5877 15.9047 27.5877 15.25ZM26.25 18.5H25V21H26.25C27.0251 21 27.5877 20.4047 27.5877 19.75C27.5877 19.0953 27.0251 18.5 26.25 18.5Z" fill="#333333"/>
</svg>
