<svg width="48" height="48" viewBox="0 0 48 48" fill="none" xmlns="http://www.w3.org/2000/svg">
<rect x="25.8947" y="23" width="8.52632" height="18" fill="#333333"/>
<rect x="14.5263" y="23" width="6.63158" height="6.63158" fill="#333333"/>
<path fill-rule="evenodd" clip-rule="evenodd" d="M26.2102 10.7891H37.3173L37.3161 10.7897L36.2105 11.3425V12.5785V38.9996H11.7895V12.5785V11.3425L10.6839 10.7897L10.6827 10.7891H13.053C13.1426 10.0816 13.3437 9.40886 13.6381 8.78906H8H6V10.6838L6.21053 10.7891L9.78947 12.5785V36.9996V38.9996H8H7.78947H6V40.9996H8H9.78947H11.7895H36.2105H38.2105H40H42V38.9996H40.2105H40H38.2105V36.9996V12.5785L41.7895 10.7891L42 10.6838V8.78906H40H25.625C25.9194 9.40886 26.1206 10.0816 26.2102 10.7891Z" fill="#333333"/>
<path fill-rule="evenodd" clip-rule="evenodd" d="M26.2632 11.6316C26.2632 15.2941 23.2941 18.2632 19.6316 18.2632C15.9691 18.2632 13 15.2941 13 11.6316C13 7.96906 15.9691 5 19.6316 5C23.2941 5 26.2632 7.96906 26.2632 11.6316ZM18.6527 8H20.9264V10.6526H23.5789V12.9263H20.9264V15.579H18.6527V12.9263H16L16 10.6526H18.6527V8Z" fill="#333333"/>
</svg>
