<svg width="48" height="48" viewBox="0 0 48 48" fill="none" xmlns="http://www.w3.org/2000/svg">
<path fill-rule="evenodd" clip-rule="evenodd" d="M25 7H23V16H25V7Z" fill="#333333"/>
<path fill-rule="evenodd" clip-rule="evenodd" d="M19.5 10.5V12.5H28.5V10.5H19.5Z" fill="#333333"/>
<path fill-rule="evenodd" clip-rule="evenodd" d="M23.3798 14.4147C23.7641 14.1951 24.2359 14.1951 24.6202 14.4147L31.6202 18.4147C32.0096 18.6372 32.25 19.0514 32.25 19.5V23.0127L41.7895 25.284C42.3526 25.4181 42.75 25.9212 42.75 26.5V39.5C42.75 40.1904 42.1904 40.75 41.5 40.75C40.8096 40.75 40.25 40.1904 40.25 39.5V27.4873L30.7105 25.216C30.1474 25.0819 29.75 24.5788 29.75 24V20.2254L24 16.9397L18.25 20.2254V24C18.25 24.538 17.9057 25.0157 17.3953 25.1859L7.75 28.4009V39C7.75 39.6904 7.19036 40.25 6.5 40.25C5.80964 40.25 5.25 39.6904 5.25 39V27.5C5.25 26.962 5.59429 26.4843 6.10472 26.3141L15.75 23.0991V19.5C15.75 19.0514 15.9904 18.6372 16.3798 18.4147L23.3798 14.4147Z" fill="#333333"/>
<path fill-rule="evenodd" clip-rule="evenodd" d="M17.25 27C17.9404 27 18.5 27.5596 18.5 28.25L18.5 38.75C18.5 39.4404 17.9404 40 17.25 40C16.5596 40 16 39.4404 16 38.75L16 28.25C16 27.5596 16.5596 27 17.25 27Z" fill="#333333"/>
<path fill-rule="evenodd" clip-rule="evenodd" d="M31.25 27C31.9404 27 32.5 27.5596 32.5 28.25V38.75C32.5 39.4404 31.9404 40 31.25 40C30.5596 40 30 39.4404 30 38.75V28.25C30 27.5596 30.5596 27 31.25 27Z" fill="#333333"/>
<path d="M21 32C21 30.3431 22.3431 29 24 29C25.6569 29 27 30.3431 27 32V40H21V32Z" fill="#333333"/>
</svg>
