<svg width="48" height="48" viewBox="0 0 48 48" fill="none" xmlns="http://www.w3.org/2000/svg">
<path d="M7 42V19C7 17.8954 7.89543 17 9 17H21C22.1046 17 23 17.8954 23 19V42" stroke="#333333" stroke-width="2"/>
<path d="M32 19H39C40.1046 19 41 19.8954 41 21V42" stroke="#333333" stroke-width="2"/>
<path d="M16 17V7C16 5.89543 16.8954 5 18 5H30C31.1046 5 32 5.89543 32 7V42" stroke="#333333" stroke-width="2"/>
<path d="M4 43H44" stroke="#333333" stroke-width="2"/>
<mask id="path-5-inside-1" fill="white">
<rect x="19" y="8" width="4" height="4" rx="1"/>
</mask>
<rect x="19" y="8" width="4" height="4" rx="1" stroke="#333333" stroke-width="4" mask="url(#path-5-inside-1)"/>
<mask id="path-6-inside-2" fill="white">
<rect x="10" y="20" width="4" height="4" rx="1"/>
</mask>
<rect x="10" y="20" width="4" height="4" rx="1" stroke="#333333" stroke-width="4" mask="url(#path-6-inside-2)"/>
<mask id="path-7-inside-3" fill="white">
<rect x="16" y="20" width="4" height="4" rx="1"/>
</mask>
<rect x="16" y="20" width="4" height="4" rx="1" stroke="#333333" stroke-width="4" mask="url(#path-7-inside-3)"/>
<mask id="path-8-inside-4" fill="white">
<rect x="19" y="14" width="4" height="4" rx="1"/>
</mask>
<rect x="19" y="14" width="4" height="4" rx="1" stroke="#333333" stroke-width="4" mask="url(#path-8-inside-4)"/>
<mask id="path-9-inside-5" fill="white">
<rect x="10" y="26" width="4" height="4" rx="1"/>
</mask>
<rect x="10" y="26" width="4" height="4" rx="1" stroke="#333333" stroke-width="4" mask="url(#path-9-inside-5)"/>
<mask id="path-10-inside-6" fill="white">
<rect x="10" y="32" width="4" height="4" rx="1"/>
</mask>
<rect x="10" y="32" width="4" height="4" rx="1" stroke="#333333" stroke-width="4" mask="url(#path-10-inside-6)"/>
<mask id="path-11-inside-7" fill="white">
<rect x="16" y="26" width="4" height="4" rx="1"/>
</mask>
<rect x="16" y="26" width="4" height="4" rx="1" stroke="#333333" stroke-width="4" mask="url(#path-11-inside-7)"/>
<mask id="path-12-inside-8" fill="white">
<rect x="16" y="32" width="4" height="4" rx="1"/>
</mask>
<rect x="16" y="32" width="4" height="4" rx="1" stroke="#333333" stroke-width="4" mask="url(#path-12-inside-8)"/>
<mask id="path-13-inside-9" fill="white">
<rect x="25" y="8" width="4" height="4" rx="1"/>
</mask>
<rect x="25" y="8" width="4" height="4" rx="1" stroke="#333333" stroke-width="4" mask="url(#path-13-inside-9)"/>
<mask id="path-14-inside-10" fill="white">
<rect x="25" y="14" width="4" height="4" rx="1"/>
</mask>
<rect x="25" y="14" width="4" height="4" rx="1" stroke="#333333" stroke-width="4" mask="url(#path-14-inside-10)"/>
<mask id="path-15-inside-11" fill="white">
<rect x="25" y="20" width="4" height="4" rx="1"/>
</mask>
<rect x="25" y="20" width="4" height="4" rx="1" stroke="#333333" stroke-width="4" mask="url(#path-15-inside-11)"/>
<mask id="path-16-inside-12" fill="white">
<rect x="25" y="26" width="4" height="4" rx="1"/>
</mask>
<rect x="25" y="26" width="4" height="4" rx="1" stroke="#333333" stroke-width="4" mask="url(#path-16-inside-12)"/>
<mask id="path-17-inside-13" fill="white">
<rect x="34" y="22" width="4" height="4" rx="1"/>
</mask>
<rect x="34" y="22" width="4" height="4" rx="1" stroke="#333333" stroke-width="4" mask="url(#path-17-inside-13)"/>
<mask id="path-18-inside-14" fill="white">
<rect x="34" y="28" width="4" height="4" rx="1"/>
</mask>
<rect x="34" y="28" width="4" height="4" rx="1" stroke="#333333" stroke-width="4" mask="url(#path-18-inside-14)"/>
<mask id="path-19-inside-15" fill="white">
<rect x="34" y="34" width="4" height="4" rx="1"/>
</mask>
<rect x="34" y="34" width="4" height="4" rx="1" stroke="#333333" stroke-width="4" mask="url(#path-19-inside-15)"/>
<mask id="path-20-inside-16" fill="white">
<rect x="25" y="32" width="4" height="4" rx="1"/>
</mask>
<rect x="25" y="32" width="4" height="4" rx="1" stroke="#333333" stroke-width="4" mask="url(#path-20-inside-16)"/>
</svg>
