<svg width="48" height="48" viewBox="0 0 48 48" fill="none" xmlns="http://www.w3.org/2000/svg">
<path d="M37 18L37.9363 17.6489L37.693 17H37V18ZM42.0637 34.3511C42.2576 34.8682 42.834 35.1302 43.3511 34.9363C43.8682 34.7424 44.1302 34.166 43.9363 33.6489L42.0637 34.3511ZM5.77241 35.4253L4.81458 35.138L5.77241 35.4253ZM31.4276 36.5747L32.3854 36.862L31.4276 36.5747ZM10.5724 19.4253L9.61458 19.138L10.5724 19.4253ZM12.4881 19H37V17H12.4881V19ZM36.0422 17.7127L30.4698 36.2873L32.3854 36.862L37.9578 18.2873L36.0422 17.7127ZM29.5119 37H7.68806V39H29.5119V37ZM6.73023 35.7127L11.5302 19.7127L9.61458 19.138L4.81458 35.138L6.73023 35.7127ZM36.0637 18.3511L42.0637 34.3511L43.9363 33.6489L37.9363 17.6489L36.0637 18.3511ZM7.68806 37C7.0182 37 6.53775 36.3543 6.73023 35.7127L4.81458 35.138C4.23713 37.0628 5.67847 39 7.68806 39V37ZM30.4698 36.2873C30.3429 36.7103 29.9535 37 29.5119 37V39C30.8368 39 32.0047 38.131 32.3854 36.862L30.4698 36.2873ZM12.4881 17C11.1632 17 9.99527 17.869 9.61458 19.138L11.5302 19.7127C11.6571 19.2897 12.0465 19 12.4881 19V17Z" fill="#333333"/>
<path d="M17 28L25 28" stroke="#333333" stroke-width="2" stroke-linecap="round"/>
<path d="M20 32L22 24" stroke="#333333" stroke-width="2" stroke-linecap="round"/>
<line x1="37" y1="18" x2="37" y2="11" stroke="#333333" stroke-width="2" stroke-linecap="round"/>
<rect x="29" y="9" width="8" height="5" rx="1" stroke="#333333" stroke-width="2"/>
</svg>
