<svg width="48" height="48" viewBox="0 0 48 48" fill="none" xmlns="http://www.w3.org/2000/svg">
<path fill-rule="evenodd" clip-rule="evenodd" d="M19.764 25.2853C21.109 23.4919 22 20.9228 22 18C22 15.0772 21.109 12.5081 19.764 10.7147C18.4194 8.922 16.7146 8 15 8C13.2854 8 11.5806 8.922 10.236 10.7147C8.89104 12.5081 8 15.0772 8 18C8 20.9228 8.89104 23.4919 10.236 25.2853C11.5806 27.078 13.2854 28 15 28C16.7146 28 18.4194 27.078 19.764 25.2853ZM15 30C19.9706 30 24 24.6274 24 18C24 11.3726 19.9706 6 15 6C10.0294 6 6 11.3726 6 18C6 24.6274 10.0294 30 15 30Z" fill="#333333"/>
<path d="M14 21C14 20.4477 14.4477 20 15 20C15.5523 20 16 20.4477 16 21V37C16 37.5523 15.5523 38 15 38C14.4477 38 14 37.5523 14 37V21Z" fill="#333333"/>
<path d="M31 25C31 24.4477 31.4477 24 32 24C32.5523 24 33 24.4477 33 25V37C33 37.5523 32.5523 38 32 38C31.4477 38 31 37.5523 31 37V25Z" fill="#333333"/>
<path fill-rule="evenodd" clip-rule="evenodd" d="M35.5127 17.5762L35.898 15.9033C35.9645 15.6149 36 15.3129 36 15C36 12.7909 34.2091 11 32 11C29.7909 11 28 12.7909 28 15C28 15.3129 28.0355 15.6149 28.102 15.9033L28.4873 17.5762L26.8922 18.2106C25.7803 18.6529 25 19.7377 25 21C25 21.3002 25.0435 21.5867 25.1232 21.8554L25.5989 23.4594L24.1041 24.2109C23.4451 24.5422 23 25.2209 23 26C23 27.1046 23.8954 28 25 28H39C40.1046 28 41 27.1046 41 26C41 25.2209 40.5549 24.5422 39.8959 24.2109L38.4011 23.4594L38.8768 21.8554C38.9565 21.5867 39 21.3002 39 21C39 19.7377 38.2197 18.6529 37.1078 18.2106L35.5127 17.5762ZM40.7943 22.424C42.1024 23.0817 43 24.436 43 26C43 28.2091 41.2091 30 39 30H25C22.7909 30 21 28.2091 21 26C21 24.436 21.8976 23.0817 23.2057 22.424C23.0719 21.9727 23 21.4948 23 21C23 18.891 24.3058 17.0869 26.153 16.3522C26.0529 15.9176 26 15.465 26 15C26 11.6863 28.6863 9 32 9C35.3137 9 38 11.6863 38 15C38 15.465 37.9471 15.9176 37.847 16.3522C39.6942 17.0869 41 18.891 41 21C41 21.4948 40.9281 21.9727 40.7943 22.424Z" fill="#333333"/>
<path d="M7 38.5C7 37.1193 8.11929 36 9.5 36H38.5C39.8807 36 41 37.1193 41 38.5C41 39.8807 39.8807 41 38.5 41H9.5C8.11929 41 7 39.8807 7 38.5Z" fill="#333333"/>
</svg>
