<svg width="48" height="48" viewBox="0 0 48 48" fill="none" xmlns="http://www.w3.org/2000/svg">
<path d="M14 21C14 20.4477 14.4477 20 15 20C15.5523 20 16 20.4477 16 21V37C16 37.5523 15.5523 38 15 38C14.4477 38 14 37.5523 14 37V21Z" fill="#333333"/>
<path fill-rule="evenodd" clip-rule="evenodd" d="M6 39.5C6 38.1193 7.11929 37 8.5 37H39.5C40.8807 37 42 38.1193 42 39.5C42 40.8807 40.8807 42 39.5 42H8.5C7.11929 42 6 40.8807 6 39.5ZM8.5 39C8.22386 39 8 39.2239 8 39.5C8 39.7761 8.22386 40 8.5 40H39.5C39.7761 40 40 39.7761 40 39.5C40 39.2239 39.7761 39 39.5 39H8.5Z" fill="#333333"/>
<path d="M30.368 20.212L33.573 17.884C33.9328 17.6207 34.3704 17.4855 34.816 17.5C35.3595 17.5136 35.8853 17.6961 36.3202 18.0223C36.7552 18.3485 37.0777 18.8021 37.243 19.32C37.429 19.903 37.599 20.297 37.753 20.502C38.2183 21.1228 38.8219 21.6266 39.5159 21.9734C40.2099 22.3203 40.9752 22.5005 41.751 22.5V24.5C40.7183 24.5011 39.6982 24.2733 38.7641 23.8329C37.83 23.3925 37.0052 22.7504 36.349 21.953L35.652 25.908L37.713 27.638L39.936 33.746L38.056 34.43L36.016 28.826L32.626 25.981C32.3478 25.7564 32.1349 25.4612 32.0095 25.1264C31.8841 24.7915 31.8508 24.4291 31.913 24.077L32.422 21.192L31.745 21.684L29.618 24.612L28 23.436L30.351 20.2L30.368 20.212ZM36.251 17C35.7206 17 35.2119 16.7893 34.8368 16.4142C34.4617 16.0391 34.251 15.5304 34.251 15C34.251 14.4696 34.4617 13.9609 34.8368 13.5858C35.2119 13.2107 35.7206 13 36.251 13C36.7814 13 37.2901 13.2107 37.6652 13.5858C38.0403 13.9609 38.251 14.4696 38.251 15C38.251 15.5304 38.0403 16.0391 37.6652 16.4142C37.2901 16.7893 36.7814 17 36.251 17ZM33.279 30.181L30.065 34.011L28.533 32.726L31.509 29.18L32.255 27L34.046 28.5L33.279 30.181Z" fill="#333333"/>
<path fill-rule="evenodd" clip-rule="evenodd" d="M18.5127 17.5762L18.898 15.9033C18.9645 15.6149 19 15.3129 19 15C19 12.7909 17.2091 11 15 11C12.7909 11 11 12.7909 11 15C11 15.3129 11.0355 15.6149 11.102 15.9033L11.4873 17.5762L9.89215 18.2106C8.78026 18.6529 8 19.7377 8 21C8 21.3002 8.04348 21.5867 8.12316 21.8554L8.59888 23.4594L7.10406 24.2109C6.4451 24.5422 6 25.2209 6 26C6 27.1046 6.89543 28 8 28H22C23.1046 28 24 27.1046 24 26C24 25.2209 23.5549 24.5422 22.8959 24.2109L21.4011 23.4594L21.8768 21.8554C21.9565 21.5867 22 21.3002 22 21C22 19.7377 21.2197 18.6529 20.1078 18.2106L18.5127 17.5762ZM23.7943 22.424C25.1024 23.0817 26 24.436 26 26C26 28.2091 24.2091 30 22 30H8C5.79086 30 4 28.2091 4 26C4 24.436 4.89758 23.0817 6.20571 22.424C6.07186 21.9727 6 21.4948 6 21C6 18.891 7.30578 17.0869 9.15299 16.3522C9.05289 15.9176 9 15.465 9 15C9 11.6863 11.6863 9 15 9C18.3137 9 21 11.6863 21 15C21 15.465 20.9471 15.9176 20.847 16.3522C22.6942 17.0869 24 18.891 24 21C24 21.4948 23.9281 21.9727 23.7943 22.424Z" fill="#333333"/>
</svg>
