<svg width="48" height="48" viewBox="0 0 48 48" fill="none" xmlns="http://www.w3.org/2000/svg">
<path d="M23 18C23 21.1183 22.0508 23.9028 20.564 25.8853C19.0774 27.8674 17.1 29 15 29C12.9 29 10.9226 27.8674 9.43604 25.8853C7.9492 23.9028 7 21.1183 7 18C7 14.8817 7.9492 12.0972 9.43604 10.1147C10.9226 8.13257 12.9 7 15 7C17.1 7 19.0774 8.13257 20.564 10.1147C22.0508 12.0972 23 14.8817 23 18Z" stroke="#333333" stroke-width="2"/>
<rect x="14" y="20" width="2" height="18" rx="1" fill="#333333"/>
<rect x="31" y="24" width="2" height="14" rx="1" fill="#333333"/>
<mask id="path-4-inside-1" fill="white">
<path fill-rule="evenodd" clip-rule="evenodd" d="M37.847 16.3522C37.9471 15.9176 38 15.465 38 15C38 11.6863 35.3137 9 32 9C28.6863 9 26 11.6863 26 15C26 15.465 26.0529 15.9176 26.153 16.3522C24.3058 17.0869 23 18.891 23 21C23 21.4948 23.0719 21.9727 23.2057 22.424C21.8976 23.0817 21 24.436 21 26C21 28.2091 22.7909 30 25 30H39C41.2091 30 43 28.2091 43 26C43 24.436 42.1024 23.0817 40.7943 22.424C40.9281 21.9727 41 21.4948 41 21C41 18.891 39.6942 17.0869 37.847 16.3522Z"/>
</mask>
<path d="M37.847 16.3522L35.898 15.9033L35.5127 17.5762L37.1078 18.2106L37.847 16.3522ZM26.153 16.3522L26.8921 18.2106L28.4873 17.5762L28.102 15.9033L26.153 16.3522ZM23.2057 22.424L24.1041 24.2109L25.5989 23.4594L25.1232 21.8554L23.2057 22.424ZM40.7943 22.424L38.8768 21.8554L38.4011 23.4594L39.8959 24.2109L40.7943 22.424ZM36 15C36 15.3129 35.9645 15.6149 35.898 15.9033L39.796 16.8011C39.9297 16.2203 40 15.6171 40 15H36ZM32 11C34.2091 11 36 12.7909 36 15H40C40 10.5817 36.4183 7 32 7V11ZM28 15C28 12.7909 29.7909 11 32 11V7C27.5817 7 24 10.5817 24 15H28ZM28.102 15.9033C28.0355 15.6149 28 15.3129 28 15H24C24 15.6171 24.0703 16.2203 24.204 16.8011L28.102 15.9033ZM25 21C25 19.7377 25.7803 18.6529 26.8921 18.2106L25.4138 14.4938C22.8313 15.521 21 18.0442 21 21H25ZM25.1232 21.8554C25.0435 21.5867 25 21.3002 25 21H21C21 21.6893 21.1002 22.3588 21.2883 22.9927L25.1232 21.8554ZM23 26C23 25.2209 23.4451 24.5422 24.1041 24.2109L22.3074 20.6372C20.3501 21.6212 19 23.6511 19 26H23ZM25 28C23.8954 28 23 27.1046 23 26H19C19 29.3137 21.6863 32 25 32V28ZM39 28H25V32H39V28ZM41 26C41 27.1046 40.1046 28 39 28V32C42.3137 32 45 29.3137 45 26H41ZM39.8959 24.2109C40.5549 24.5422 41 25.2209 41 26H45C45 23.6511 43.6499 21.6212 41.6926 20.6372L39.8959 24.2109ZM39 21C39 21.3002 38.9565 21.5867 38.8768 21.8554L42.7117 22.9927C42.8998 22.3588 43 21.6893 43 21H39ZM37.1078 18.2106C38.2197 18.6529 39 19.7377 39 21H43C43 18.0442 41.1687 15.521 38.5862 14.4938L37.1078 18.2106Z" fill="#333333" mask="url(#path-4-inside-1)"/>
<rect x="7" y="36" width="34" height="5" rx="2.5" fill="#333333"/>
</svg>
