<svg width="48" height="48" viewBox="0 0 48 48" fill="none" xmlns="http://www.w3.org/2000/svg">
<path fill-rule="evenodd" clip-rule="evenodd" d="M12 22.8887V37.9998H19V29.2591C19 28.1545 19.8954 27.2591 21 27.2591H27C28.1046 27.2591 29 28.1545 29 29.2591V37.9998L36 37.9998V22.8887H38V37.9998C38 39.1044 37.1046 39.9998 36 39.9998H29C27.8954 39.9998 27 39.1044 27 37.9998V29.2591L21 29.2591V37.9998C21 39.1044 20.1046 39.9998 19 39.9998H12C10.8954 39.9998 10 39.1044 10 37.9998V22.8887H12Z" fill="#333333"/>
<path fill-rule="evenodd" clip-rule="evenodd" d="M24.7639 12.1275C24.3731 11.7353 23.738 11.7353 23.3472 12.1275L8.70833 26.817C8.31848 27.2082 7.68531 27.2093 7.29412 26.8195C6.90292 26.4296 6.90182 25.7965 7.29167 25.4053L21.9306 10.7157C23.103 9.53926 25.0081 9.53926 26.1805 10.7157L40.8195 25.4053C41.2093 25.7965 41.2082 26.4296 40.817 26.8195C40.4258 27.2093 39.7927 27.2082 39.4028 26.817L24.7639 12.1275Z" fill="#333333"/>
</svg>
