<svg width="48" height="48" viewBox="0 0 48 48" fill="none" xmlns="http://www.w3.org/2000/svg">
<path d="M5 43H43" stroke="#333333" stroke-width="2"/>
<path d="M24 8L24 14" stroke="#333333" stroke-width="2" stroke-linecap="round"/>
<path d="M21 11L27 11" stroke="#333333" stroke-width="2" stroke-linecap="round"/>
<path d="M20 5H28C29.1046 5 30 5.89543 30 7V15C30 16.1046 29.1046 17 28 17H20C18.8954 17 18 16.1046 18 15V7C18 5.89543 18.8954 5 20 5Z" stroke="#333333" stroke-width="2"/>
<path d="M17.2593 15H12C10.8954 15 10 15.8954 10 17V42" stroke="#333333" stroke-width="2"/>
<path d="M30.7407 15H36C37.1046 15 38 15.8954 38 17V42" stroke="#333333" stroke-width="2"/>
<path d="M21 43V36C21 34.3431 22.3431 33 24 33V33C25.6569 33 27 34.3431 27 36V43" stroke="#333333" stroke-width="2"/>
<path d="M17 23H15V21H17V23Z" stroke="#333333" stroke-width="2"/>
<path d="M17 29H15V27H17V29Z" stroke="#333333" stroke-width="2"/>
<path d="M25 23H23V21H25V23Z" stroke="#333333" stroke-width="2"/>
<path d="M25 29H23V27H25V29Z" stroke="#333333" stroke-width="2"/>
<path d="M33 23H31V21H33V23Z" stroke="#333333" stroke-width="2"/>
<path d="M33 29H31V27H33V29Z" stroke="#333333" stroke-width="2"/>
</svg>
