<svg width="48" height="48" viewBox="0 0 48 48" fill="none" xmlns="http://www.w3.org/2000/svg">
<path fill-rule="evenodd" clip-rule="evenodd" d="M38.4663 24.4552L24 9.84275L9.53374 24.4552C11.7833 24.9564 16.0695 25.5 24 25.5C31.9305 25.5 36.2167 24.9564 38.4663 24.4552ZM25.4213 8.43566C24.6387 7.64511 23.3614 7.64511 22.5787 8.43566L6.84878 24.3245C6.35314 24.8251 6.37301 25.5273 7.02539 25.7932C8.71048 26.48 13.0554 27.5 24 27.5C34.9446 27.5 39.2896 26.48 40.9746 25.7932C41.627 25.5273 41.6469 24.8251 41.1513 24.3245L25.4213 8.43566Z" fill="#333333"/>
<path d="M23.0831 3.99655C23.0384 3.46009 23.4617 3 24 3C24.5383 3 24.9617 3.46009 24.917 3.99655L24.5415 8.50173C24.5181 8.78337 24.2826 9 24 9C23.7174 9 23.482 8.78337 23.4585 8.50173L23.0831 3.99655Z" fill="#333333"/>
<path d="M25.9576 4.27565C26.1871 3.78871 26.7838 3.60194 27.25 3.87109C27.7162 4.14025 27.8528 4.75037 27.5458 5.19261L24.9681 8.90649C24.807 9.13866 24.4948 9.20855 24.25 9.06725C24.0053 8.92594 23.9097 8.62061 24.0302 8.36497L25.9576 4.27565Z" fill="#333333"/>
<path d="M22.0424 4.27565C21.8129 3.78871 21.2162 3.60194 20.75 3.87109C20.2838 4.14025 20.1472 4.75037 20.4542 5.19261L23.0319 8.90649C23.1931 9.13866 23.5053 9.20855 23.75 9.06725C23.9948 8.92594 24.0903 8.62061 23.9699 8.36497L22.0424 4.27565Z" fill="#333333"/>
<path fill-rule="evenodd" clip-rule="evenodd" d="M13 40.995C13.3028 41.0858 13.7066 41.1847 14.2202 41.2835C15.6535 41.5592 17.6514 41.7801 20 41.9002V36.9994C20 34.7902 21.7909 32.9994 24 32.9994C26.2092 32.9994 28 34.7902 28 36.9994V41.9002C30.3487 41.7801 32.3465 41.5592 33.7799 41.2835C34.2934 41.1847 34.6972 41.0858 35 40.995V30.5353C32.2699 30.8148 28.6958 30.9984 24 30.9984C19.3043 30.9984 15.7301 30.8148 13 30.5353V40.995ZM11 29.4321C11 28.8216 11.5419 28.3538 12.1478 28.4276C14.8939 28.7622 18.7038 28.9984 24 28.9984C29.2963 28.9984 33.1061 28.7622 35.8522 28.4276C36.4582 28.3538 37 28.8216 37 29.4321V41.9992C37 42.9436 32.7455 43.7351 27.0244 43.9448C26.4632 43.9654 26 43.5132 26 42.9516V36.9994C26 35.8948 25.1046 34.9994 24 34.9994C22.8955 34.9994 22 35.8948 22 36.9994V42.9516C22 43.5132 21.5368 43.9654 20.9756 43.9448C15.2545 43.7351 11 42.9436 11 41.9992V29.4321Z" fill="#333333"/>
</svg>
