<svg width="48" height="48" viewBox="0 0 48 48" fill="none" xmlns="http://www.w3.org/2000/svg">
<path d="M23.2893 9.1392C23.6807 8.74393 24.3193 8.74393 24.7106 9.1392L40.3688 24.9555C38.6946 25.5706 34.4087 26.5 24 26.5C13.5913 26.5 9.30543 25.5706 7.63123 24.9555L23.2893 9.1392Z" stroke="#333333" stroke-width="2"/>
<path d="M23.083 3.99655C23.0383 3.46009 23.4617 3 24 3C24.5383 3 24.9617 3.46009 24.917 3.99655L24.5415 8.50173C24.5181 8.78337 24.2826 9 24 9C23.7174 9 23.4819 8.78337 23.4585 8.50173L23.083 3.99655Z" fill="#333333"/>
<path d="M25.9576 4.27565C26.1871 3.78871 26.7838 3.60194 27.25 3.87109C27.7162 4.14025 27.8528 4.75037 27.5458 5.1926L24.9681 8.90649C24.807 9.13866 24.4948 9.20855 24.25 9.06725C24.0052 8.92594 23.9097 8.62061 24.0302 8.36497L25.9576 4.27565Z" fill="#333333"/>
<path d="M22.0424 4.27565C21.8129 3.78871 21.2162 3.60194 20.75 3.87109C20.2838 4.14025 20.1472 4.75037 20.4542 5.1926L23.0319 8.90649C23.193 9.13866 23.5052 9.20855 23.75 9.06725C23.9948 8.92594 24.0903 8.62061 23.9698 8.36497L22.0424 4.27565Z" fill="#333333"/>
<mask id="path-5-inside-1" fill="white">
<path fill-rule="evenodd" clip-rule="evenodd" d="M12.1478 28.4276C11.5418 28.3538 11 28.8216 11 29.432V41.9992C11 42.9435 15.2545 43.735 20.9756 43.9448C21.5368 43.9653 22 43.5132 22 42.9516V36.9993C22 35.8947 22.8954 34.9993 24 34.9993C25.1046 34.9993 26 35.8947 26 36.9993V42.9516C26 43.5132 26.4632 43.9653 27.0244 43.9448C32.7455 43.735 37 42.9435 37 41.9992V29.432C37 28.8216 36.4582 28.3538 35.8522 28.4276C33.1061 28.7622 29.2963 28.9984 24 28.9984C18.7037 28.9984 14.8939 28.7622 12.1478 28.4276Z"/>
</mask>
<path d="M20.9756 43.9448L20.9024 45.9434L20.9756 43.9448ZM27.0244 43.9448L26.9511 41.9461L27.0244 43.9448ZM13 41.9992V29.432H9V41.9992H13ZM21.0489 41.9461C18.2459 41.8433 15.8625 41.5993 14.2202 41.2835C13.3826 41.1224 12.8369 40.9608 12.5453 40.8352C12.3916 40.769 12.4191 40.7591 12.5167 40.8452C12.6043 40.9224 13 41.3076 13 41.9992H9C9 42.9268 9.52867 43.5434 9.87124 43.8454C10.2238 44.1563 10.6285 44.3649 10.963 44.509C11.6479 44.8039 12.5234 45.0304 13.4646 45.2115C15.3799 45.5798 17.9843 45.8364 20.9024 45.9434L21.0489 41.9461ZM20 36.9993V42.9516H24V36.9993H20ZM24 32.9993C21.7909 32.9993 20 34.7902 20 36.9993H24V32.9993ZM28 36.9993C28 34.7902 26.2091 32.9993 24 32.9993V36.9993H28ZM28 42.9516V36.9993H24V42.9516H28ZM35 41.9992C35 41.3076 35.3957 40.9224 35.4833 40.8452C35.5809 40.7591 35.6084 40.769 35.4547 40.8352C35.1631 40.9608 34.6174 41.1224 33.7798 41.2835C32.1375 41.5993 29.7541 41.8433 26.9511 41.9461L27.0976 45.9434C30.0157 45.8364 32.6201 45.5798 34.5354 45.2115C35.4766 45.0304 36.3521 44.8039 37.037 44.509C37.3715 44.3649 37.7762 44.1563 38.1288 43.8454C38.4713 43.5434 39 42.9268 39 41.9992H35ZM35 29.432V41.9992H39V29.432H35ZM35.6103 26.4423C32.9669 26.7643 29.2417 26.9984 24 26.9984V30.9984C29.3508 30.9984 33.2453 30.76 36.0941 30.4129L35.6103 26.4423ZM24 26.9984C18.7583 26.9984 15.0331 26.7643 12.3897 26.4423L11.9059 30.4129C14.7547 30.76 18.6492 30.9984 24 30.9984V26.9984ZM39 29.432C39 27.5888 37.3757 26.2272 35.6103 26.4423L36.0941 30.4129C35.5406 30.4804 35 30.0543 35 29.432H39ZM20.9024 45.9434C22.6111 46.006 24 44.6314 24 42.9516H20C20 42.395 20.4626 41.9246 21.0489 41.9461L20.9024 45.9434ZM24 42.9516C24 44.6314 25.3889 46.006 27.0976 45.9434L26.9511 41.9461C27.5374 41.9246 28 42.395 28 42.9516H24ZM13 29.432C13 30.0543 12.4594 30.4804 11.9059 30.4129L12.3897 26.4423C10.6243 26.2272 9 27.5888 9 29.432H13Z" fill="#333333" mask="url(#path-5-inside-1)"/>
</svg>
