<svg width="48" height="48" viewBox="0 0 48 48" fill="none" xmlns="http://www.w3.org/2000/svg">
<path d="M23.2893 9.1392C23.6807 8.74393 24.3193 8.74393 24.7106 9.1392L40.3688 24.9555C38.6946 25.5706 34.4087 26.5 24 26.5C13.5913 26.5 9.30543 25.5706 7.63123 24.9555L23.2893 9.1392Z" stroke="#333333" stroke-width="2"/>
<mask id="path-2-inside-1" fill="white">
<path fill-rule="evenodd" clip-rule="evenodd" d="M12.1478 28.4276C11.5418 28.3538 11 28.8216 11 29.432V41.9992C11 42.9435 15.2545 43.735 20.9756 43.9448C21.5368 43.9653 22 43.5132 22 42.9516V36.9993C22 35.8947 22.8954 34.9993 24 34.9993C25.1046 34.9993 26 35.8947 26 36.9993V42.9516C26 43.5132 26.4632 43.9653 27.0244 43.9448C32.7455 43.735 37 42.9435 37 41.9992V29.432C37 28.8216 36.4582 28.3538 35.8522 28.4276C33.1061 28.7622 29.2963 28.9984 24 28.9984C18.7037 28.9984 14.8939 28.7622 12.1478 28.4276Z"/>
</mask>
<path d="M20.9756 43.9448L20.9024 45.9434L20.9756 43.9448ZM27.0244 43.9448L26.9511 41.9461L27.0244 43.9448ZM13 41.9992V29.432H9V41.9992H13ZM21.0489 41.9461C18.2459 41.8433 15.8625 41.5993 14.2202 41.2835C13.3826 41.1224 12.8369 40.9608 12.5453 40.8352C12.3916 40.769 12.4191 40.7591 12.5167 40.8452C12.6043 40.9224 13 41.3076 13 41.9992H9C9 42.9268 9.52867 43.5434 9.87124 43.8454C10.2238 44.1563 10.6285 44.3649 10.963 44.509C11.6479 44.8039 12.5234 45.0304 13.4646 45.2115C15.3799 45.5798 17.9843 45.8364 20.9024 45.9434L21.0489 41.9461ZM20 36.9993V42.9516H24V36.9993H20ZM24 32.9993C21.7909 32.9993 20 34.7902 20 36.9993H24V32.9993ZM28 36.9993C28 34.7902 26.2091 32.9993 24 32.9993V36.9993H28ZM28 42.9516V36.9993H24V42.9516H28ZM35 41.9992C35 41.3076 35.3957 40.9224 35.4833 40.8452C35.5809 40.7591 35.6084 40.769 35.4547 40.8352C35.1631 40.9608 34.6174 41.1224 33.7798 41.2835C32.1375 41.5993 29.7541 41.8433 26.9511 41.9461L27.0976 45.9434C30.0157 45.8364 32.6201 45.5798 34.5354 45.2115C35.4766 45.0304 36.3521 44.8039 37.037 44.509C37.3715 44.3649 37.7762 44.1563 38.1288 43.8454C38.4713 43.5434 39 42.9268 39 41.9992H35ZM35 29.432V41.9992H39V29.432H35ZM35.6103 26.4423C32.9669 26.7643 29.2417 26.9984 24 26.9984V30.9984C29.3508 30.9984 33.2453 30.76 36.0941 30.4129L35.6103 26.4423ZM24 26.9984C18.7583 26.9984 15.0331 26.7643 12.3897 26.4423L11.9059 30.4129C14.7547 30.76 18.6492 30.9984 24 30.9984V26.9984ZM39 29.432C39 27.5888 37.3757 26.2272 35.6103 26.4423L36.0941 30.4129C35.5406 30.4804 35 30.0543 35 29.432H39ZM20.9024 45.9434C22.6111 46.006 24 44.6314 24 42.9516H20C20 42.395 20.4626 41.9246 21.0489 41.9461L20.9024 45.9434ZM24 42.9516C24 44.6314 25.3889 46.006 27.0976 45.9434L26.9511 41.9461C27.5374 41.9246 28 42.395 28 42.9516H24ZM13 29.432C13 30.0543 12.4594 30.4804 11.9059 30.4129L12.3897 26.4423C10.6243 26.2272 9 27.5888 9 29.432H13Z" fill="#333333" mask="url(#path-2-inside-1)"/>
<path fill-rule="evenodd" clip-rule="evenodd" d="M13.4668 17.6396L17.0027 14.068C17.2655 14.1867 17.4606 14.4492 17.5373 14.7436C17.7849 15.6951 18.4913 16.2512 19.1289 16.2512C19.7665 16.2512 20.4729 15.6951 20.7205 14.7436C20.8249 14.3427 21.1491 14.001 21.5645 14.001C21.9799 14.001 22.304 14.3427 22.4084 14.7436C22.656 15.6951 23.3624 16.2512 24 16.2512C24.6376 16.2512 25.344 15.6951 25.5916 14.7436C25.696 14.3427 26.0201 14.001 26.4355 14.001C26.8509 14.001 27.1751 14.3427 27.2795 14.7436C27.5271 15.6951 28.2335 16.2512 28.8711 16.2512C29.5087 16.2512 30.2151 15.6951 30.4627 14.7436C30.5394 14.4492 30.7345 14.1867 30.9973 14.068L34.5332 17.6396C34.284 17.7123 34.0196 17.7514 33.7422 17.7514C32.7161 17.7514 31.869 17.2169 31.3066 16.4237C30.7443 17.2169 29.8972 17.7514 28.8711 17.7514C27.845 17.7514 26.9979 17.2169 26.4355 16.4237C25.8732 17.2169 25.0261 17.7514 24 17.7514C22.9739 17.7514 22.1268 17.2169 21.5645 16.4237C21.0021 17.2169 20.155 17.7514 19.1289 17.7514C18.1028 17.7514 17.2557 17.2169 16.6934 16.4237C16.131 17.2169 15.2839 17.7514 14.2578 17.7514C13.9804 17.7514 13.716 17.7123 13.4668 17.6396ZM8.30176 22.8568L12.0231 19.0979C12.2595 19.2287 12.4326 19.4772 12.4975 19.7551C12.7401 20.793 13.4661 21.4008 14.1206 21.4008C14.7751 21.4008 15.5011 20.793 15.7437 19.7551C15.8393 19.346 16.1692 19.0006 16.5905 19.0006C17.0117 19.0006 17.3416 19.346 17.4372 19.7551C17.6798 20.793 18.4058 21.4008 19.0603 21.4008C19.7148 21.4008 20.4408 20.793 20.6834 19.7551C20.779 19.346 21.1089 19.0006 21.5301 19.0006C21.9514 19.0006 22.2813 19.346 22.3769 19.7551C22.6195 20.793 23.3455 21.4008 24 21.4008C24.6545 21.4008 25.3805 20.793 25.6231 19.7551C25.7187 19.346 26.0486 19.0006 26.4698 19.0006C26.8911 19.0006 27.221 19.346 27.3166 19.7551C27.5592 20.793 28.2852 21.4008 28.9397 21.4008C29.5942 21.4008 30.3202 20.793 30.5628 19.7551C30.6584 19.346 30.9883 19.0006 31.4095 19.0006C31.8308 19.0006 32.1607 19.346 32.2563 19.7551C32.4989 20.793 33.2249 21.4008 33.8794 21.4008C34.5339 21.4008 35.2599 20.793 35.5025 19.7551C35.5674 19.4772 35.7405 19.2287 35.9768 19.0979L39.6982 22.8568C39.4232 22.9503 39.1292 23.001 38.8191 23.001C37.7785 23.001 36.9195 22.4308 36.3492 21.5847C35.7789 22.4308 34.92 23.001 33.8794 23.001C32.8388 23.001 31.9798 22.4308 31.4095 21.5847C30.8392 22.4308 29.9803 23.001 28.9397 23.001C27.8991 23.001 27.0401 22.4308 26.4698 21.5847C25.8996 22.4308 25.0406 23.001 24 23.001C22.9594 23.001 22.1004 22.4308 21.5302 21.5847C20.9599 22.4308 20.1009 23.001 19.0603 23.001C18.0197 23.001 17.1608 22.4308 16.5905 21.5847C16.0202 22.4308 15.1612 23.001 14.1206 23.001C13.08 23.001 12.2211 22.4308 11.6508 21.5847C11.0805 22.4308 10.2215 23.001 9.18091 23.001C8.87079 23.001 8.57679 22.9503 8.30176 22.8568Z" fill="#333333"/>
</svg>
