<svg width="48" height="48" viewBox="0 0 48 48" fill="none" xmlns="http://www.w3.org/2000/svg">
<path fill-rule="evenodd" clip-rule="evenodd" d="M38.4663 24.4552L36.0304 21.9947C35.4786 22.6099 34.7413 23.001 33.8794 23.001C32.8388 23.001 31.9798 22.4309 31.4095 21.5848C30.8393 22.4309 29.9803 23.001 28.9397 23.001C27.8991 23.001 27.0401 22.4309 26.4699 21.5848C25.8996 22.4309 25.0406 23.001 24 23.001C22.9594 23.001 22.1005 22.4309 21.5302 21.5848C20.9599 22.4309 20.1009 23.001 19.0603 23.001C18.0197 23.001 17.1608 22.4309 16.5905 21.5848C16.0202 22.4309 15.1612 23.001 14.1206 23.001C13.2587 23.001 12.5214 22.6099 11.9696 21.9947L9.53372 24.4552C11.7833 24.9564 16.0695 25.5 24 25.5C31.9305 25.5 36.2167 24.9564 38.4663 24.4552ZM33.8794 21.4008C34.2382 21.4008 34.6185 21.2181 34.9289 20.8821L30.9446 16.8575C30.4059 17.4056 29.6964 17.7514 28.8711 17.7514C27.845 17.7514 26.9979 17.2169 26.4355 16.4237C25.8732 17.2169 25.0261 17.7514 24 17.7514C22.9739 17.7514 22.1268 17.2169 21.5645 16.4237C21.0021 17.2169 20.155 17.7514 19.1289 17.7514C18.3036 17.7514 17.5941 17.4056 17.0554 16.8575L13.0711 20.8821C13.3815 21.2181 13.7618 21.4008 14.1206 21.4008C14.7751 21.4008 15.5011 20.793 15.7437 19.7552C15.8393 19.346 16.1692 19.0006 16.5905 19.0006C17.0117 19.0006 17.3416 19.346 17.4372 19.7552C17.6798 20.793 18.4058 21.4008 19.0603 21.4008C19.7148 21.4008 20.4408 20.793 20.6834 19.7552C20.779 19.346 21.1089 19.0006 21.5302 19.0006C21.9514 19.0006 22.2813 19.346 22.3769 19.7552C22.6195 20.793 23.3455 21.4008 24 21.4008C24.6545 21.4008 25.3805 20.793 25.6231 19.7552C25.7187 19.346 26.0486 19.0006 26.4699 19.0006C26.8911 19.0006 27.221 19.346 27.3166 19.7552C27.5592 20.793 28.2852 21.4008 28.9397 21.4008C29.5942 21.4008 30.3202 20.793 30.5628 19.7552C30.6584 19.346 30.9883 19.0006 31.4095 19.0006C31.8308 19.0006 32.1607 19.346 32.2563 19.7552C32.4989 20.793 33.2249 21.4008 33.8794 21.4008ZM28.8711 16.2512C29.2167 16.2512 29.5825 16.0879 29.8845 15.7867L24 9.84277L18.1155 15.7867C18.4175 16.0879 18.7833 16.2512 19.1289 16.2512C19.7665 16.2512 20.4729 15.6951 20.7206 14.7436C20.8249 14.3427 21.1491 14.001 21.5645 14.001C21.9799 14.001 22.304 14.3427 22.4084 14.7436C22.656 15.6951 23.3624 16.2512 24 16.2512C24.6376 16.2512 25.344 15.6951 25.5916 14.7436C25.696 14.3427 26.0201 14.001 26.4355 14.001C26.851 14.001 27.1751 14.3427 27.2795 14.7436C27.5271 15.6951 28.2335 16.2512 28.8711 16.2512ZM22.5787 8.43569L17.0027 14.068L13.4668 17.6396L12.0231 19.0979L8.30176 22.8569L6.84876 24.3245C6.35313 24.8252 6.373 25.5274 7.02537 25.7933C8.71046 26.4801 13.0554 27.5 24 27.5C34.9446 27.5 39.2895 26.4801 40.9746 25.7933C41.627 25.5274 41.6469 24.8252 41.1512 24.3245L39.6982 22.8569L35.9769 19.0979L34.5332 17.6396L30.9973 14.068L25.4213 8.43568C24.6387 7.64514 23.3613 7.64514 22.5787 8.43569ZM14.2202 41.2835C13.7066 41.1847 13.3028 41.0857 13 40.995V30.5353C15.7301 30.8148 19.3042 30.9984 24 30.9984C28.6958 30.9984 32.2699 30.8148 35 30.5353V40.995C34.6972 41.0857 34.2934 41.1847 33.7798 41.2835C32.3465 41.5592 30.3486 41.7801 28 41.9002V36.9993C28 34.7902 26.2091 32.9993 24 32.9993C21.7909 32.9993 20 34.7902 20 36.9993V41.9002C17.6514 41.7801 15.6535 41.5592 14.2202 41.2835ZM12.1478 28.4276C11.5418 28.3538 11 28.8216 11 29.432V41.9992C11 42.9435 15.2545 43.735 20.9756 43.9448C21.5368 43.9653 22 43.5132 22 42.9516V36.9993C22 35.8947 22.8954 34.9993 24 34.9993C25.1046 34.9993 26 35.8947 26 36.9993V42.9516C26 43.5132 26.4632 43.9653 27.0244 43.9448C32.7455 43.735 37 42.9435 37 41.9992V29.432C37 28.8216 36.4582 28.3538 35.8522 28.4276C33.1061 28.7622 29.2963 28.9984 24 28.9984C18.7037 28.9984 14.8939 28.7622 12.1478 28.4276Z" fill="#333333"/>
</svg>
