<svg width="48" height="48" viewBox="0 0 48 48" fill="none" xmlns="http://www.w3.org/2000/svg">
<path fill-rule="evenodd" clip-rule="evenodd" d="M32 17V11H34V17H32Z" fill="#333333"/>
<path fill-rule="evenodd" clip-rule="evenodd" d="M30 13L36 13V15L30 15V13Z" fill="#333333"/>
<path fill-rule="evenodd" clip-rule="evenodd" d="M37 10H29V18H37V10ZM5 13L27 13V8H39V13L43 13V15L39 15V16H42V18V37H44V39H4V37H6V18V16H27V15L5 15L5 13ZM27 20V18L8 18V37H29V23H37V37H40V18L39 18V20H27ZM24 25H13V31H24V25ZM11 31H10V33L27 33V31L26 31V23H11V31ZM31 37H35V25H31V37Z" fill="#333333"/>
<path fill-rule="evenodd" clip-rule="evenodd" d="M6 18V13H8V18H6Z" fill="#333333"/>
<path fill-rule="evenodd" clip-rule="evenodd" d="M40 18V13H42V18H40Z" fill="#333333"/>
</svg>
