<svg width="48" height="48" viewBox="0 0 48 48" fill="none" xmlns="http://www.w3.org/2000/svg">
<path fill-rule="evenodd" clip-rule="evenodd" d="M30.3056 35.7306C36.217 34.3299 39.977 28.838 38.7037 23.4639C37.4303 18.0898 31.6059 14.8688 25.6945 16.2694C19.783 17.6701 16.023 23.162 17.2964 28.5361C18.5697 33.9102 24.3941 37.1312 30.3056 35.7306ZM32.5 30.9999C33.8807 30.9999 35 29.8806 35 28.4999C35 27.1191 33.8807 25.9999 32.5 25.9999C31.1193 25.9999 30 27.1191 30 28.4999C30 29.8806 31.1193 30.9999 32.5 30.9999Z" fill="#333333"/>
<circle cx="20.1818" cy="17.0911" r="3.18182" transform="rotate(-180 20.1818 17.0911)" fill="#333333"/>
<circle cx="15.6364" cy="16.182" r="3.18182" transform="rotate(-180 15.6364 16.182)" fill="#333333"/>
<circle cx="12" cy="18.909" r="3.18182" transform="rotate(-180 12 18.909)" fill="#333333"/>
<circle cx="10.1818" cy="23.4544" r="3.18182" transform="rotate(-180 10.1818 23.4544)" fill="#333333"/>
<circle cx="11.0909" cy="27.9998" r="3.18182" transform="rotate(-180 11.0909 27.9998)" fill="#333333"/>
<circle cx="13.8182" cy="32.5452" r="3.18182" transform="rotate(-180 13.8182 32.5452)" fill="#333333"/>
<circle cx="14.7273" cy="37.091" r="2.27273" transform="rotate(-180 14.7273 37.091)" fill="#333333"/>
<circle cx="14.2727" cy="41.1818" r="1.81818" transform="rotate(-180 14.2727 41.1818)" fill="#333333"/>
<path d="M15.6364 30.2726C14.7273 28.9089 13.3636 20.7271 19.2727 21.1816C25.1818 21.6362 20.6364 20.7271 20.6364 20.7271L20.1818 17.5453L16.0909 16.1816L11.5454 19.3635L10.6364 26.6362C10.6364 26.6362 16.5454 31.6362 15.6364 30.2726Z" fill="#333333"/>
<path d="M30.4788 18.1517C30.4788 18.1517 32.2279 10.7418 37.5 9.5" stroke="#333333" stroke-width="2" stroke-linecap="round" stroke-linejoin="round"/>
<path d="M6 6.5C7.5 10.5 13 10.5 15 6.5C17.5 10.5 21.5 10.5 24 6.5C26 10.5 30.5 10.5 33 6.5C35.5 10.5 39.5 10.5 42 6.5" stroke="#333333" stroke-width="2" stroke-linecap="round" stroke-linejoin="round"/>
</svg>
