<svg width="48" height="48" viewBox="0 0 48 48" fill="none" xmlns="http://www.w3.org/2000/svg">
<path fill-rule="evenodd" clip-rule="evenodd" d="M24 42C33.9411 42 42 33.9411 42 24C42 14.0589 33.9411 6 24 6C14.0589 6 6 14.0589 6 24C6 33.9411 14.0589 42 24 42ZM17.7071 19.0499C17.3166 18.6594 17.3166 18.0262 17.7071 17.6357C18.0976 17.2451 18.7308 17.2451 19.1213 17.6357L24.2072 22.7215L29.2929 17.6358C29.6834 17.2453 30.3166 17.2453 30.7071 17.6358C31.0976 18.0263 31.0976 18.6595 30.7071 19.05L25.6214 24.1357L30.435 28.9494C30.8256 29.3399 30.8256 29.9731 30.435 30.3636C30.0445 30.7541 29.4113 30.7541 29.0208 30.3636L24.2072 25.55L19.3934 30.3637C19.0029 30.7543 18.3697 30.7543 17.9792 30.3637C17.5887 29.9732 17.5887 29.34 17.9792 28.9495L22.793 24.1357L17.7071 19.0499Z" fill="#333333"/>
</svg>
