<svg width="48" height="48" viewBox="0 0 48 48" fill="none" xmlns="http://www.w3.org/2000/svg">
<mask id="path-1-inside-1" fill="white">
<path fill-rule="evenodd" clip-rule="evenodd" d="M44 24C44 35.0457 35.0457 44 24 44C12.9543 44 4 35.0457 4 24C4 12.9543 12.9543 4 24 4C35.0457 4 44 12.9543 44 24ZM13 24C13 23.4477 13.4477 23 14 23H23V14C23 13.4477 23.4477 13 24 13C24.5523 13 25 13.4477 25 14V23H34C34.5523 23 35 23.4477 35 24C35 24.5523 34.5523 25 34 25H25V34C25 34.5523 24.5523 35 24 35C23.4477 35 23 34.5523 23 34V25H14C13.4477 25 13 24.5523 13 24Z"/>
</mask>
<path fill-rule="evenodd" clip-rule="evenodd" d="M44 24C44 35.0457 35.0457 44 24 44C12.9543 44 4 35.0457 4 24C4 12.9543 12.9543 4 24 4C35.0457 4 44 12.9543 44 24ZM13 24C13 23.4477 13.4477 23 14 23H23V14C23 13.4477 23.4477 13 24 13C24.5523 13 25 13.4477 25 14V23H34C34.5523 23 35 23.4477 35 24C35 24.5523 34.5523 25 34 25H25V34C25 34.5523 24.5523 35 24 35C23.4477 35 23 34.5523 23 34V25H14C13.4477 25 13 24.5523 13 24Z" fill="#333333"/>
<path d="M23 23V25H25V23H23ZM25 23H23V25H25V23ZM25 25V23H23V25H25ZM23 25H25V23H23V25ZM24 46C36.1503 46 46 36.1503 46 24H42C42 33.9411 33.9411 42 24 42V46ZM2 24C2 36.1503 11.8497 46 24 46V42C14.0589 42 6 33.9411 6 24H2ZM24 2C11.8497 2 2 11.8497 2 24H6C6 14.0589 14.0589 6 24 6V2ZM46 24C46 11.8497 36.1503 2 24 2V6C33.9411 6 42 14.0589 42 24H46ZM14 21C12.3431 21 11 22.3431 11 24H15C15 24.5523 14.5523 25 14 25V21ZM23 21H14V25H23V21ZM25 23V14H21V23H25ZM25 14C25 14.5523 24.5523 15 24 15V11C22.3431 11 21 12.3431 21 14H25ZM24 15C23.4477 15 23 14.5523 23 14H27C27 12.3431 25.6569 11 24 11V15ZM23 14V23H27V14H23ZM34 21H25V25H34V21ZM37 24C37 22.3431 35.6569 21 34 21V25C33.4477 25 33 24.5523 33 24H37ZM34 27C35.6569 27 37 25.6569 37 24H33C33 23.4477 33.4477 23 34 23V27ZM25 27H34V23H25V27ZM23 25V34H27V25H23ZM23 34C23 33.4477 23.4477 33 24 33V37C25.6569 37 27 35.6569 27 34H23ZM24 33C24.5523 33 25 33.4477 25 34H21C21 35.6569 22.3431 37 24 37V33ZM25 34V25H21V34H25ZM14 27H23V23H14V27ZM11 24C11 25.6569 12.3431 27 14 27V23C14.5523 23 15 23.4477 15 24H11Z" fill="#333333" mask="url(#path-1-inside-1)"/>
</svg>
