<svg width="48" height="48" viewBox="0 0 48 48" fill="none" xmlns="http://www.w3.org/2000/svg">
<mask id="path-1-inside-1" fill="white">
<path fill-rule="evenodd" clip-rule="evenodd" d="M24 44C35.0457 44 44 35.0457 44 24C44 12.9543 35.0457 4 24 4C12.9543 4 4 12.9543 4 24C4 35.0457 12.9543 44 24 44ZM32.807 17.5905C33.1332 17.1448 33.0362 16.5191 32.5905 16.193C32.1448 15.8668 31.5191 15.9638 31.193 16.4095L21.8916 29.1211L16.7167 23.8026C16.3316 23.4068 15.6985 23.3981 15.3026 23.7833C14.9068 24.1684 14.8981 24.8015 15.2833 25.1974L20.8707 30.9398C21.5181 31.6051 22.6082 31.5287 23.1564 30.7796L32.807 17.5905Z"/>
</mask>
<path fill-rule="evenodd" clip-rule="evenodd" d="M24 44C35.0457 44 44 35.0457 44 24C44 12.9543 35.0457 4 24 4C12.9543 4 4 12.9543 4 24C4 35.0457 12.9543 44 24 44ZM32.807 17.5905C33.1332 17.1448 33.0362 16.5191 32.5905 16.193C32.1448 15.8668 31.5191 15.9638 31.193 16.4095L21.8916 29.1211L16.7167 23.8026C16.3316 23.4068 15.6985 23.3981 15.3026 23.7833C14.9068 24.1684 14.8981 24.8015 15.2833 25.1974L20.8707 30.9398C21.5181 31.6051 22.6082 31.5287 23.1564 30.7796L32.807 17.5905Z" fill="#333333"/>
<path d="M32.5905 16.193L33.7716 14.5789L33.7715 14.5789L32.5905 16.193ZM32.807 17.5905L31.193 16.4095L31.193 16.4095L32.807 17.5905ZM31.193 16.4095L29.5789 15.2285L29.5789 15.2285L31.193 16.4095ZM21.8916 29.1211L20.4582 30.5158L22.1084 32.2118L23.5057 30.3021L21.8916 29.1211ZM16.7167 23.8026L18.1501 22.4079L18.1501 22.4079L16.7167 23.8026ZM15.3026 23.7833L16.6974 25.2167L16.6974 25.2167L15.3026 23.7833ZM15.2833 25.1974L13.8499 26.5921L13.8499 26.5921L15.2833 25.1974ZM20.8707 30.9398L19.4373 32.3346L19.4373 32.3346L20.8707 30.9398ZM23.1564 30.7796L24.7704 31.9606L24.7704 31.9606L23.1564 30.7796ZM42 24C42 33.9411 33.9411 42 24 42V46C36.1503 46 46 36.1503 46 24H42ZM24 6C33.9411 6 42 14.0589 42 24H46C46 11.8497 36.1503 2 24 2V6ZM6 24C6 14.0589 14.0589 6 24 6V2C11.8497 2 2 11.8497 2 24H6ZM24 42C14.0589 42 6 33.9411 6 24H2C2 36.1503 11.8497 46 24 46V42ZM31.4095 17.807C30.9638 17.4809 30.8668 16.8552 31.193 16.4095L34.4211 18.7715C35.3995 17.4344 35.1087 15.5573 33.7716 14.5789L31.4095 17.807ZM32.807 17.5905C32.4809 18.0362 31.8552 18.1332 31.4095 17.807L33.7715 14.5789C32.4344 13.6005 30.5573 13.8913 29.5789 15.2285L32.807 17.5905ZM23.5057 30.3021L32.807 17.5905L29.5789 15.2285L20.2776 27.9401L23.5057 30.3021ZM15.2833 25.1974L20.4582 30.5158L23.3251 27.7264L18.1501 22.4079L15.2833 25.1974ZM16.6974 25.2167C16.3015 25.6019 15.6684 25.5932 15.2833 25.1974L18.1501 22.4079C16.9947 21.2204 15.0954 21.1944 13.9079 22.3499L16.6974 25.2167ZM16.7167 23.8026C17.1019 24.1985 17.0932 24.8316 16.6974 25.2167L13.9079 22.3499C12.7204 23.5053 12.6944 25.4046 13.8499 26.5921L16.7167 23.8026ZM22.3042 29.5451L16.7167 23.8026L13.8499 26.5921L19.4373 32.3346L22.3042 29.5451ZM21.5423 29.5985C21.725 29.3488 22.0884 29.3233 22.3042 29.5451L19.4373 32.3346C20.9478 33.8869 23.4914 33.7086 24.7704 31.9606L21.5423 29.5985ZM31.193 16.4095L21.5423 29.5985L24.7704 31.9606L34.4211 18.7715L31.193 16.4095Z" fill="#333333" mask="url(#path-1-inside-1)"/>
</svg>
