<svg width="48" height="48" viewBox="0 0 48 48" fill="none" xmlns="http://www.w3.org/2000/svg">
<path fill-rule="evenodd" clip-rule="evenodd" d="M48 0H0V48H48V0ZM7.34802 27.2938C6.54135 27.5719 6 28.3313 6 29.1845V39C6 40.1046 6.89543 41 8 41H12C13.1046 41 14 40.1046 14 39V27.8052C14 26.4314 12.6468 25.4666 11.348 25.9145L7.34802 27.2938ZM42 29.1845C42 28.3313 41.4586 27.5719 40.652 27.2938L36.652 25.9145C35.3532 25.4666 34 26.4314 34 27.8052V39C34 40.1046 34.8954 41 36 41H40C41.1046 41 42 40.1046 42 39V29.1845ZM16 20.6546C16 19.9308 16.391 19.2636 17.0223 18.9098L23 15.5602V12.5H19.5V10.5H23V7H25V10.5H28.5V12.5H25V15.5602L30.9777 18.9098C31.609 19.2636 32 19.9308 32 20.6545V38.9999C32 40.1045 31.1046 40.9999 30 40.9999H27V32.9999C27 31.343 25.6569 29.9999 24 29.9999C22.3431 29.9999 21 31.343 21 32.9999V40.9999H18C16.8954 40.9999 16 40.1045 16 38.9999V20.6546Z" fill="#333333"/>
</svg>
