<svg width="48" height="48" viewBox="0 0 48 48" fill="none" xmlns="http://www.w3.org/2000/svg">
<path fill-rule="evenodd" clip-rule="evenodd" d="M0 0H48V48H0V0ZM16 30H22C24.2091 30 26 28.2091 26 26C26 24.436 25.1024 23.0817 23.7943 22.424C23.9281 21.9727 24 21.4948 24 21C24 18.891 22.6942 17.0869 20.847 16.3522C20.9471 15.9176 21 15.465 21 15C21 11.6863 18.3137 9 15 9C11.6863 9 9 11.6863 9 15C9 15.465 9.05289 15.9176 9.15299 16.3522C7.30578 17.0869 6 18.891 6 21C6 21.4948 6.07186 21.9727 6.20571 22.424C4.89758 23.0817 4 24.436 4 26C4 28.2091 5.79086 30 8 30H14V36H9.5C8.11929 36 7 37.1193 7 38.5C7 39.8807 8.11929 41 9.5 41H38.5C39.8807 41 41 39.8807 41 38.5C41 37.1193 39.8807 36 38.5 36H16V30ZM30.368 20.212L33.573 17.884C33.9328 17.6207 34.3704 17.4855 34.816 17.5C35.3595 17.5136 35.8853 17.6961 36.3202 18.0223C36.7552 18.3485 37.0777 18.8021 37.243 19.32C37.429 19.903 37.599 20.297 37.753 20.502C38.2183 21.1228 38.8219 21.6266 39.5159 21.9734C40.2099 22.3203 40.9752 22.5005 41.751 22.5V24.5C40.7183 24.5011 39.6982 24.2733 38.7641 23.8329C37.83 23.3925 37.0052 22.7504 36.349 21.953L35.652 25.908L37.713 27.638L39.936 33.746L38.056 34.43L36.016 28.826L32.626 25.981C32.3478 25.7564 32.1349 25.4612 32.0095 25.1264C31.8841 24.7915 31.8508 24.4291 31.913 24.077L32.422 21.192L31.745 21.684L29.618 24.612L28 23.436L30.351 20.2L30.368 20.212ZM36.251 17C35.7206 17 35.2119 16.7893 34.8368 16.4142C34.4617 16.0391 34.251 15.5304 34.251 15C34.251 14.4696 34.4617 13.9609 34.8368 13.5858C35.2119 13.2107 35.7206 13 36.251 13C36.7814 13 37.2901 13.2107 37.6652 13.5858C38.0403 13.9609 38.251 14.4696 38.251 15C38.251 15.5304 38.0403 16.0391 37.6652 16.4142C37.2901 16.7893 36.7814 17 36.251 17ZM33.279 30.181L30.065 34.011L28.533 32.726L31.509 29.18L32.255 27L34.046 28.5L33.279 30.181Z" fill="#333333"/>
</svg>
