<svg width="48" height="48" viewBox="0 0 48 48" fill="none" xmlns="http://www.w3.org/2000/svg">
<path fill-rule="evenodd" clip-rule="evenodd" d="M48 0H0V48H48V0ZM21.0879 26.8381C19.7162 28.5187 17.9522 29.639 16 29.9268V36H31V30H25C23.0783 30 21.4731 28.6449 21.0879 26.8381ZM14 29.9268V36H9.5C8.11929 36 7 37.1193 7 38.5C7 39.8807 8.11929 41 9.5 41H38.5C39.8807 41 41 39.8807 41 38.5C41 37.1193 39.8807 36 38.5 36H33V30H39C41.2091 30 43 28.2091 43 26C43 24.436 42.1024 23.0817 40.7943 22.424C40.9281 21.9727 41 21.4948 41 21C41 18.891 39.6942 17.0869 37.847 16.3522C37.9471 15.9176 38 15.465 38 15C38 11.6863 35.3137 9 32 9C28.6863 9 26 11.6863 26 15C26 15.465 26.0529 15.9176 26.153 16.3522C25.2918 16.6947 24.5484 17.2696 24 17.9995C23.9998 11.3723 19.9704 6 15 6C10.0294 6 6 11.3726 6 18C6 24.1767 9.50005 29.2635 14 29.9268Z" fill="#333333"/>
</svg>
