<svg width="48" height="48" viewBox="0 0 48 48" fill="none" xmlns="http://www.w3.org/2000/svg">
<path fill-rule="evenodd" clip-rule="evenodd" d="M48 0H0V48H48V0ZM8.70833 26.8167L10 25.5205V37.9993C10 39.1039 10.8954 39.9993 12 39.9993H19C20.1046 39.9993 21 39.1039 21 37.9993V29.2586H27V37.9993C27 39.1039 27.8954 39.9993 29 39.9993H36C37.1046 39.9993 38 39.1039 38 37.9993V25.409L39.4028 26.8167C39.7927 27.2079 40.4258 27.209 40.817 26.8191C41.2082 26.4293 41.2093 25.7961 40.8195 25.4049L26.1805 10.7154C25.0081 9.53889 23.103 9.53889 21.9306 10.7154L7.29167 25.4049C6.90182 25.7961 6.90292 26.4293 7.29412 26.8191C7.68531 27.209 8.31848 27.2079 8.70833 26.8167Z" fill="#333333"/>
</svg>
