<svg width="48" height="48" viewBox="0 0 48 48" fill="none" xmlns="http://www.w3.org/2000/svg">
<path d="M27 16H8V15L27 15V16Z" fill="#333333"/>
<path d="M40 16V15H39V16H40Z" fill="#333333"/>
<path fill-rule="evenodd" clip-rule="evenodd" d="M27 20V18H8V37H29V23H37V37H40V18H39V20H27ZM11 23H26V31H27V33L10 33V31H11V23Z" fill="#333333"/>
<path d="M32 11V13H30V15H32V17H34V15H36V13H34V11H32Z" fill="#333333"/>
<path fill-rule="evenodd" clip-rule="evenodd" d="M48 0H0V48H48V0ZM27 8H39V13L43 13V15H42V37H44V39H4V37H6V15H5V13L27 13V8Z" fill="#333333"/>
</svg>
