<svg width="48" height="48" viewBox="0 0 48 48" fill="none" xmlns="http://www.w3.org/2000/svg">
<path fill-rule="evenodd" clip-rule="evenodd" d="M23.9859 16.46C26.8662 16.46 29.2012 14.1184 29.2012 11.23C29.2012 8.34155 26.8662 6 23.9859 6C21.1055 6 18.7705 8.34155 18.7705 11.23C18.7705 14.1184 21.1055 16.46 23.9859 16.46Z" fill="#333333"/>
<path fill-rule="evenodd" clip-rule="evenodd" d="M12.2154 15.1605L12.2055 15.1391L12.1949 15.1179C12.1157 14.959 11.9895 14.5712 12.0007 14.1388C12.0108 13.7473 12.1271 13.3802 12.4495 13.057C12.8642 12.6411 13.1969 12.5489 13.4446 12.5336C13.739 12.5155 14.0975 12.6 14.5111 12.8052C14.5214 12.8118 14.5918 12.8565 14.7313 12.9921C14.8888 13.1452 15.0733 13.3531 15.3099 13.6364C15.4052 13.7505 15.509 13.8771 15.6204 14.0131L15.6204 14.0131L15.6205 14.0131C16.0235 14.505 16.5259 15.1181 17.0849 15.6947C18.5745 17.2313 20.7397 18.8132 24 18.8132C27.2603 18.8132 29.4255 17.2313 30.9151 15.6947C31.4741 15.1181 31.9765 14.505 32.3796 14.0131L32.3797 14.013C32.491 13.8771 32.5948 13.7504 32.6901 13.6364C32.9267 13.3531 33.1112 13.1452 33.2687 12.9921C33.4082 12.8565 33.4787 12.8115 33.489 12.8049C33.9026 12.5997 34.261 12.5155 34.5554 12.5336C34.8031 12.5489 35.1358 12.6411 35.5505 13.057C35.8729 13.3802 35.9892 13.7473 35.9993 14.1388C36.0105 14.5712 35.8843 14.959 35.8051 15.1179L35.7945 15.1391L35.7846 15.1605C34.219 18.5246 32.3947 20.372 30.2778 21.2946L29.2295 21.7515V25.5H18.7705V21.7515L17.7222 21.2946C15.6053 20.372 13.781 18.5246 12.2154 15.1605ZM18.7705 27.5V28.7246C18.7705 29.3609 19.3671 30.9952 21.1976 31.7782C21.4071 31.8678 21.6426 31.9801 21.8542 32.0811L21.9787 32.1404C22.2388 32.2639 22.4904 32.3806 22.7449 32.4842C23.2757 32.7002 23.6897 32.8034 24 32.8034C24.3103 32.8034 24.7243 32.7002 25.2551 32.4842C25.5096 32.3806 25.7612 32.2639 26.0213 32.1404L26.1458 32.0811C26.3574 31.9801 26.5929 31.8678 26.8024 31.7782C28.6329 30.9952 29.2295 29.3609 29.2295 28.7246V27.5H18.7705Z" fill="#333333"/>
<path fill-rule="evenodd" clip-rule="evenodd" d="M18.3676 31.3809C18.7753 32.2628 19.5416 33.1963 20.7613 33.7867C20.464 34.0353 20.1834 34.329 19.9265 34.7473C19.4263 35.5622 18.9965 36.5688 18.9965 37.5172C18.9965 38.3842 19.3215 39.1301 19.5678 39.6951L19.5858 39.7363C19.8576 40.3607 20.0294 40.7808 20.0294 41.225C20.0294 42.2235 19.2451 42.9994 18.3186 42.9994C17.4551 42.9994 16.7718 42.3702 16.2629 41.1522C15.766 39.9628 15.5747 38.4953 15.5747 37.5172C15.5747 34.8684 16.5718 32.9126 18.3676 31.3809Z" fill="#333333"/>
<path fill-rule="evenodd" clip-rule="evenodd" d="M27.2386 33.7867C28.4583 33.1963 29.2246 32.2628 29.6324 31.3809C31.4281 32.9126 32.4253 34.8684 32.4253 37.5172C32.4253 38.4953 32.234 39.9628 31.7371 41.1522C31.2282 42.3702 30.5449 42.9994 29.6814 42.9994C28.7548 42.9994 27.9705 42.2235 27.9705 41.225C27.9705 40.7808 28.1423 40.3607 28.4142 39.7363L28.4322 39.6951C28.6784 39.1301 29.0035 38.3842 29.0035 37.5172C29.0035 36.5688 28.5737 35.5622 28.0734 34.7473C27.8166 34.329 27.536 34.0353 27.2386 33.7867Z" fill="#333333"/>
</svg>
