<svg width="48" height="48" viewBox="0 0 48 48" fill="none" xmlns="http://www.w3.org/2000/svg">
<path d="M35.7919 24.5398C39.2206 24.5398 42 21.9148 42 18.6766C42 15.4386 39.2206 12.8135 35.7919 12.8135C32.3634 12.8135 29.5839 15.4386 29.5839 18.6766C29.5839 21.9148 32.3634 24.5398 35.7919 24.5398Z" fill="#333333"/>
<path d="M38.896 29.8164H36.8422L33.4486 26.6071C32.9091 25.7902 32.157 25.1175 31.2641 24.6529C30.3711 24.1883 29.3672 23.9474 28.3477 23.9532H21.8246L23.4706 35.6795H28.0327C28.8608 35.6788 29.6803 35.5211 30.4427 35.2156C31.205 34.9101 31.8945 34.4633 32.4704 33.9013L33.4276 34.8053C33.7204 35.0901 34.0724 35.3144 34.4616 35.4644C34.8506 35.6144 35.2684 35.6866 35.6885 35.6767C35.7245 35.6767 35.756 35.6852 35.792 35.6852H38.896C39.7193 35.6852 40.5088 35.3763 41.0909 34.8265C41.673 34.2768 42 33.5312 42 32.7536C42 31.9762 41.673 31.2304 41.0909 30.6807C40.5088 30.1309 39.7193 29.822 38.896 29.822V29.8164Z" fill="#333333"/>
<path d="M15.8086 26.885L12.7046 29.8166H9.10402C8.28083 29.8166 7.49125 30.1254 6.90915 30.6752C6.32705 31.225 6 31.9707 6 32.7481C6 33.5257 6.32705 34.2713 6.90915 34.8211C7.49125 35.3708 8.28083 35.6797 9.10402 35.6797H13.7548C13.7923 35.6797 13.8238 35.6712 13.8598 35.6712C14.2799 35.6808 14.6976 35.6084 15.0867 35.4585C15.4757 35.3086 15.8278 35.0843 16.1207 34.7998L20.1549 30.9883C20.4405 30.7186 20.6672 30.3982 20.8217 30.0458C20.9764 29.6933 21.0559 29.3154 21.0559 28.9338C21.0559 28.5523 20.9764 28.1745 20.8217 27.822C20.6672 27.4695 20.4405 27.1491 20.1549 26.8793C19.8692 26.6095 19.5302 26.3956 19.1569 26.2495C18.7836 26.1034 18.3835 26.0283 17.9795 26.0283C17.5755 26.0283 17.1755 26.1034 16.8023 26.2495C16.429 26.3956 16.0898 26.6095 15.8041 26.8793L15.8086 26.885Z" fill="#333333"/>
<path d="M39.8426 8.42557C39.8426 8.11315 39.4977 7.90741 39.199 8.04188L35.792 9.5744L39.199 11.1071C39.4977 11.2414 39.8426 11.0358 39.8426 10.7232V8.42557Z" fill="#333333"/>
<path d="M32.3849 8.04188C32.0862 7.90741 31.7413 8.11315 31.7413 8.42557V10.7232C31.7413 11.0358 32.0862 11.2414 32.3849 11.1071L35.792 9.5744L32.3849 8.04188Z" fill="#333333"/>
</svg>
