<svg width="48" height="48" viewBox="0 0 48 48" fill="none" xmlns="http://www.w3.org/2000/svg">
<path fill-rule="evenodd" clip-rule="evenodd" d="M33.5 5.1582C33.2239 5.1582 33 5.38206 33 5.6582V7.00043H34V5.6582C34 5.38206 33.7761 5.1582 33.5 5.1582ZM34 9.00043H33V10.5002V10.9998L32.6006 11.2998C32.234 11.5752 32 12.0103 32 12.5004C32 13.3289 32.6716 14.0004 33.5 14.0004C34.3284 14.0004 35 13.3289 35 12.5004C35 12.0103 34.766 11.5752 34.3994 11.2998L34 10.9998V10.5002V9.00043ZM31 5.6582C31 4.27749 32.1193 3.1582 33.5 3.1582C34.8807 3.1582 36 4.27749 36 5.6582V10.051C36.6175 10.6814 37 11.5464 37 12.5004C37 14.4334 35.433 16.0004 33.5 16.0004C31.567 16.0004 30 14.4334 30 12.5004C30 11.5464 30.3825 10.6814 31 10.051V5.6582ZM27.9246 8.00043C27.9246 10.2096 26.1337 12.0004 23.9245 12.0004C21.7154 12.0004 19.9245 10.2096 19.9245 8.00043C19.9245 5.79129 21.7154 4.00043 23.9245 4.00043C26.1337 4.00043 27.9246 5.79129 27.9246 8.00043ZM26.9935 17.5957C27.1024 17.7565 27.1943 17.9327 27.2655 18.1225C27.7503 19.4153 27.0953 20.8564 25.8025 21.3412L25.3487 21.5114L30.3979 23.4048C30.9605 23.6158 31.5946 23.4707 32.0095 23.0362C32.4244 22.6018 32.54 21.9616 32.3033 21.4094L29.315 14.4367C29.2807 14.3522 29.2389 14.2715 29.1905 14.1954C29.0824 14.0254 28.9426 13.8811 28.7811 13.7689C28.5289 13.5935 28.2239 13.4962 27.9052 13.5004H19.9246C19.3245 13.5004 18.7822 13.858 18.5458 14.4095L15.5458 21.4095C15.3092 21.9617 15.4248 22.6019 15.8397 23.0363C16.2546 23.4708 16.8887 23.6159 17.4512 23.4049L25.4512 20.4049C26.2269 20.114 26.6199 19.2494 26.3291 18.4737C26.0382 17.6981 25.1736 17.3051 24.3979 17.5959L19.6871 19.3625L20.2324 18.09L21.9726 17.4374L21.9727 17.4374L24.0468 16.6595C24.1718 16.6127 24.2981 16.5765 24.4248 16.5505L24.4249 16.5505C24.572 16.5203 24.7196 16.5039 24.8662 16.5004H24.9822C25.7815 16.5191 26.5373 16.923 26.9933 17.5957L26.9935 17.5957ZM18.9246 23.9204V42.0004C18.9246 42.8289 19.5961 43.5004 20.4246 43.5004C21.253 43.5004 21.9246 42.8289 21.9246 42.0004V30.0004H25.9246V42.0004C25.9246 42.8289 26.5961 43.5004 27.4246 43.5004C28.253 43.5004 28.9246 42.8289 28.9246 42.0004V23.8632L24.3291 21.8937L18.9246 23.9204ZM14.9886 19.8143C13.6432 21.1597 13.6432 23.341 14.9886 24.6864L13.5744 26.1006C11.448 23.9742 11.448 20.5266 13.5744 18.4001L14.9886 19.8143ZM32.8606 24.6864C34.206 23.341 34.206 21.1597 32.8606 19.8143L34.2748 18.4001C36.4012 20.5266 36.4012 23.9742 34.2748 26.1006L32.8606 24.6864ZM12.8818 17.7075C10.3728 20.2165 10.3727 24.2844 12.8818 26.7934L11.4675 28.2076C8.17749 24.9176 8.17749 19.5834 11.4675 16.2933L12.8818 17.7075ZM34.9675 26.7934C37.4765 24.2844 37.4765 20.2165 34.9675 17.7075L36.3817 16.2933C39.6718 19.5834 39.6718 24.9176 36.3817 28.2076L34.9675 26.7934Z" fill="#333333"/>
</svg>
