<svg width="48" height="48" viewBox="0 0 48 48" fill="none" xmlns="http://www.w3.org/2000/svg">
<path fill-rule="evenodd" clip-rule="evenodd" d="M15 9C15 11.2091 13.2091 13 11 13C8.79087 13 7.00001 11.2091 7.00001 9C7.00001 6.79086 8.79087 5 11 5C13.2091 5 15 6.79086 15 9ZM5.4358 32H6.99989L7.84707 42.1661C7.93345 43.2027 8.79998 44 9.84016 44H12.1596C13.1998 44 14.0663 43.2027 14.1527 42.1661L14.9999 32H16.5639C18.4177 32 18.7225 30.3354 18.4177 28.5068L16.4177 16.5068C16.1766 15.0602 14.925 14 13.4585 14H8.54128C7.07476 14 5.82319 15.0602 5.58209 16.5068L3.58209 28.5068C3.27733 30.3354 3.58198 32 5.4358 32Z" fill="#333333"/>
<path d="M37 11V11C37 9.34315 35.6569 8 34 8H30C28.3431 8 27 9.34315 27 11V11C27 12.6569 28.3431 14 30 14H34C35.6569 14 37 15.3431 37 17V17C37 18.6569 35.6569 20 34 20H30C28.3431 20 27 18.6569 27 17V17" stroke="#333333" stroke-width="2"/>
<path d="M32 5L32 23" stroke="#333333" stroke-width="2"/>
<path d="M21 36C21 34.8954 21.8954 34 23 34H41C42.1046 34 43 34.8954 43 36V40H21V36Z" stroke="#333333" stroke-width="2"/>
<path d="M21 40L21 44" stroke="#333333" stroke-width="2"/>
<path d="M43 40L43 44" stroke="#333333" stroke-width="2"/>
<path d="M40 27L40 33" stroke="#333333" stroke-width="2"/>
<path d="M29 29L29 33" stroke="#333333" stroke-width="2"/>
<path d="M35 29L35 33" stroke="#333333" stroke-width="2"/>
<path d="M24 27L24 33" stroke="#333333" stroke-width="2"/>
<path d="M24 29L40 29" stroke="#333333" stroke-width="2"/>
</svg>
