<svg width="48" height="48" viewBox="0 0 48 48" fill="none" xmlns="http://www.w3.org/2000/svg">
<path d="M24 25.1333C28.9725 25.1333 33 21.076 33 16.0667C33 11.0573 28.9725 7 24 7C19.0275 7 15 11.0573 15 16.0667C15 21.076 19.0275 25.1333 24 25.1333Z" fill="#333333"/>
<path fill-rule="evenodd" clip-rule="evenodd" d="M18.1254 28.9544C17.8971 28.4865 17.3814 28.2338 16.8786 28.3573C11.4745 29.6854 6 32.3933 6 36.4669V43.0002H42V36.4669C42 32.3933 36.5255 29.6854 31.1214 28.3573C30.6186 28.2338 30.1029 28.4865 29.8746 28.9544L25.8105 31.9544C24.9218 31.9546 24.4693 31.9546 24.0248 31.9545C23.5637 31.9545 23.1112 31.9545 22.1893 31.9547L18.1254 28.9544ZM31 31.0005H33V34.0005H36V36.0005H33V39.0005H31V36.0005H28V34.0005H31V31.0005Z" fill="#333333"/>
</svg>
