<svg width="48" height="48" viewBox="0 0 48 48" fill="none" xmlns="http://www.w3.org/2000/svg">
<path fill-rule="evenodd" clip-rule="evenodd" d="M10.9517 12.1026C13.0377 9.60753 15.826 7.71984 19.0127 6.74341C19.3803 5.76034 20.0137 4.90717 20.8223 4.26465C15.6985 5.12736 11.271 8.04097 8.41314 12.1321C8.57095 12.1126 8.73138 12.1026 8.89375 12.1026H10.9517ZM7.35899 19.5082C6.6598 19.2093 6.06122 18.7124 5.64197 18.0846C5.22323 19.6525 5 21.3002 5 23.0001C5 28.8499 7.64365 34.0822 11.8014 37.5676L12.4223 35.4483C9.08653 32.3445 7 27.9159 7 23.0001C7 21.8032 7.12369 20.6352 7.35899 19.5082ZM19.4132 39.3741L18.8904 40.6132C18.8628 40.8377 18.8158 41.0557 18.7513 41.2658C20.4183 41.744 22.1793 42.0001 24 42.0001C25.8207 42.0001 27.5817 41.744 29.2487 41.2658C29.1842 41.0557 29.1372 40.8377 29.1096 40.6132L28.5868 39.3741C27.1277 39.782 25.5893 40.0001 24 40.0001C22.4107 40.0001 20.8723 39.782 19.4132 39.3741ZM35.5777 35.4483L36.1986 37.5676C40.3563 34.0822 43 28.8499 43 23.0001C43 21.3002 42.7768 19.6525 42.358 18.0846C41.9388 18.7124 41.3402 19.2093 40.641 19.5082C40.8763 20.6352 41 21.8032 41 23.0001C41 27.9159 38.9135 32.3445 35.5777 35.4483ZM37.0483 12.1026H39.1062C39.2686 12.1026 39.429 12.1126 39.5869 12.1321C36.948 8.35445 32.9708 5.58079 28.3429 4.4987C29.1073 5.18768 29.6869 6.07685 29.9917 7.08608C32.76 8.12888 35.1845 9.8733 37.0483 12.1026Z" fill="#333333"/>
<path d="M24.4443 5C22.3612 5 20.6568 6.67385 20.6568 8.71967C20.6568 10.7655 22.3612 12.4393 24.4443 12.4393C26.5275 12.4393 28.2318 10.7655 28.2318 8.71967C28.2318 6.67385 26.5275 5 24.4443 5Z" stroke="#333333" stroke-width="2"/>
<circle cx="14" cy="16" r="4" fill="#333333"/>
<circle cx="30" cy="24" r="4" fill="#333333"/>
<circle cx="21" cy="33" r="4" fill="#333333"/>
</svg>
