<svg width="48" height="48" viewBox="0 0 48 48" fill="none" xmlns="http://www.w3.org/2000/svg">
<path d="M24.2508 16.855C23.5171 16.4929 22.9074 15.9211 22.499 15.2121C22.0906 14.5031 21.9019 13.6888 21.9569 12.8724C22.0119 12.056 22.308 11.2744 22.8078 10.6265C23.3076 9.9787 23.9885 9.49384 24.7642 9.23345C25.5398 8.97306 26.3754 8.94886 27.1648 9.16391C27.9543 9.37897 28.6621 9.8236 29.1985 10.4414C29.735 11.0593 30.0759 11.8225 30.178 12.6343C30.2802 13.4461 30.1389 14.27 29.7723 15.0014C29.5315 15.4858 29.1977 15.9179 28.7899 16.2732C28.3821 16.6285 27.9083 16.9 27.3956 17.0721C26.8828 17.2443 26.3412 17.3137 25.8016 17.2764C25.262 17.2391 24.7351 17.0959 24.2508 16.855Z" fill="#333333"/>
<path d="M4.48913 20.3539C4.85951 19.5451 5.351 18.7975 5.94667 18.1367C5.94667 18.1367 10.8269 12.3627 14.7583 10.9716C16.201 10.3168 17.8427 10.2534 19.3315 10.7949C19.7338 10.8959 20.0914 11.1269 20.349 11.4519C20.6065 11.777 20.7495 12.178 20.7558 12.5927C20.7558 12.5927 20.7357 12.6746 20.7256 12.7155L20.554 18.9975L26.0549 22.8119C26.418 23.0649 26.6812 23.4368 26.799 23.8633C26.9168 24.2898 26.8818 24.7441 26.7001 25.1475C26.5183 25.551 26.2013 25.8782 25.8038 26.0726C25.4063 26.267 24.9533 26.3163 24.5233 26.212C24.2996 26.1558 24.088 26.0596 23.8986 25.928L17.5432 21.4691C17.2789 21.2865 17.0657 21.0393 16.9239 20.7511C16.7821 20.4629 16.7163 20.1432 16.7329 19.8224L16.8119 18.0908C15.901 19.1582 14.927 20.17 13.8952 21.1209L20.2096 25.5698C20.6397 25.8979 20.96 26.3491 21.128 26.8634C21.2961 27.3777 21.3039 27.9309 21.1504 28.4497L19.7878 39.0405C19.7682 39.3633 19.6836 39.6788 19.5392 39.9681C19.3947 40.2574 19.1934 40.5146 18.9472 40.7242C18.701 40.9338 18.4151 41.0916 18.1064 41.1882C17.7978 41.2847 17.4729 41.3179 17.1511 41.2858C16.4824 41.1864 15.8793 40.829 15.4709 40.2903C15.0625 39.7515 14.8814 39.0742 14.9663 38.4035L16.2688 29.1149L5.86533 23.9344C5.22506 23.6229 4.72688 23.08 4.47144 22.4154C4.21599 21.7508 4.22231 21.014 4.48913 20.3539Z" fill="#333333"/>
<ellipse cx="32" cy="39" rx="8" ry="2" fill="#333333"/>
<circle cx="29" cy="20" r="1" fill="#333333"/>
<circle cx="30.5" cy="26.5" r="1.5" fill="#333333"/>
<circle cx="34" cy="29" r="1" fill="#333333"/>
<circle cx="30" cy="33" r="1" fill="#333333"/>
<circle cx="35.5" cy="36.5" r="1.5" fill="#333333"/>
</svg>
