<svg width="48" height="48" viewBox="0 0 48 48" fill="none" xmlns="http://www.w3.org/2000/svg">
<path fill-rule="evenodd" clip-rule="evenodd" d="M12 28H6V41.5H12V39.1604C12.9708 39.127 13.9816 39.1008 14.4118 39.1178C16.4692 39.1991 18.0055 39.6783 19.5589 40.1628C21.0081 40.6148 22.4722 41.0715 24.3879 41.2139C24.8694 41.2497 25.338 41.2959 25.7923 41.3407C27.4327 41.5025 28.8866 41.6459 30.0886 41.2139C31.6234 40.6623 40.3936 36.4701 41.4899 35.3669C42.5862 34.2637 42.038 31.2851 38.6396 31.8367C36.9626 32.1089 35.0188 32.8914 33.2559 33.6011C31.446 34.3297 29.8268 34.9815 28.8827 34.9256C27.019 34.8153 22.0857 33.9328 22.0857 33.9328L27.75 34C27.75 34 28.5502 34.0417 29.6501 33.2709C30.75 32.5 31.733 30.2922 30.0886 30.2922C28.4442 30.2922 26.6901 29.7406 26.6901 29.7406L19.6739 28.1961C19.6739 28.1961 17.2621 27.7548 16.2755 28.1961C15.6495 28.4761 13.4929 29.2446 12 29.769V28Z" fill="#333333"/>
<path d="M43 5H23C21.8954 5 21 5.89543 21 7V11H43V5Z" fill="#333333"/>
<rect x="21" y="13" width="8" height="2" rx="1" fill="#333333"/>
<line x1="25" y1="18.1719" x2="25" y2="20.1719" stroke="#333333" stroke-width="2" stroke-linecap="round" stroke-linejoin="round"/>
<line x1="28.4142" y1="18" x2="29.8284" y2="19.4142" stroke="#333333" stroke-width="2" stroke-linecap="round" stroke-linejoin="round"/>
<line x1="20" y1="19.5858" x2="21.4142" y2="18.1716" stroke="#333333" stroke-width="2" stroke-linecap="round" stroke-linejoin="round"/>
<line x1="25" y1="23.1719" x2="25" y2="25.1719" stroke="#333333" stroke-width="2" stroke-linecap="round" stroke-linejoin="round"/>
<line x1="31.9142" y1="21.5" x2="33.3284" y2="22.9142" stroke="#333333" stroke-width="2" stroke-linecap="round" stroke-linejoin="round"/>
<line x1="16.5" y1="22.8358" x2="17.9142" y2="21.4216" stroke="#333333" stroke-width="2" stroke-linecap="round" stroke-linejoin="round"/>
</svg>
