<svg width="48" height="48" viewBox="0 0 48 48" fill="none" xmlns="http://www.w3.org/2000/svg">
<path fill-rule="evenodd" clip-rule="evenodd" d="M24 41C33.3888 41 41 33.3888 41 24C41 14.6112 33.3888 7 24 7C14.6112 7 7 14.6112 7 24C7 33.3888 14.6112 41 24 41ZM24 26C22.9 26 22 25.1 22 24V15C22 13.9 22.9 13 24 13C25.1 13 26 13.9 26 15V24C26 25.1 25.1 26 24 26ZM24 28C25.1046 28 26 28.8954 26 30C26 31.1046 25.1046 32 24 32C22.8954 32 22 31.1046 22 30C22 28.8954 22.8954 28 24 28Z" fill="#333333"/>
</svg>
