<svg width="48" height="48" viewBox="0 0 48 48" fill="none" xmlns="http://www.w3.org/2000/svg">
<path d="M24 31C25.6569 31 27 29.6569 27 28V20C27 18.3431 25.6569 17 24 17C22.3431 17 21 18.3431 21 20V28C21 29.6569 22.3431 31 24 31ZM24 31C25.6569 31 27 32.3431 27 34C27 35.6569 25.6569 37 24 37C22.3431 37 21 35.6569 21 34C21 32.3431 22.3431 31 24 31ZM20.6906 8.90252C22.165 6.36583 25.8569 6.36583 27.3313 8.90252L42.5017 35.0025C43.9731 37.5341 41.9863 41 39.0355 41H8.83339C5.93492 41 4.02218 37.5799 5.52025 35.0025L20.6906 8.90252Z" fill="#333333" stroke="#333333" stroke-width="2"/>
</svg>
