<svg width="48" height="48" viewBox="0 0 48 48" fill="none" xmlns="http://www.w3.org/2000/svg">
<mask id="path-1-inside-1" fill="white">
<path fill-rule="evenodd" clip-rule="evenodd" d="M19.826 8.4C21.686 5.2 26.3359 5.2 28.1959 8.4L43.3662 34.5C45.2262 37.7 42.7554 42 39.0355 42H8.83339C5.11346 42 2.79571 37.7 4.65568 34.5L19.826 8.4ZM22 20C22 18.8954 22.8954 18 24 18C25.1046 18 26 18.8954 26 20V28C26 29.1046 25.1046 30 24 30C22.8954 30 22 29.1046 22 28V20ZM24 32C22.8954 32 22 32.8954 22 34C22 35.1046 22.8954 36 24 36C25.1046 36 26 35.1046 26 34C26 32.8954 25.1046 32 24 32Z"/>
</mask>
<path fill-rule="evenodd" clip-rule="evenodd" d="M19.826 8.4C21.686 5.2 26.3359 5.2 28.1959 8.4L43.3662 34.5C45.2262 37.7 42.7554 42 39.0355 42H8.83339C5.11346 42 2.79571 37.7 4.65568 34.5L19.826 8.4ZM22 20C22 18.8954 22.8954 18 24 18C25.1046 18 26 18.8954 26 20V28C26 29.1046 25.1046 30 24 30C22.8954 30 22 29.1046 22 28V20ZM24 32C22.8954 32 22 32.8954 22 34C22 35.1046 22.8954 36 24 36C25.1046 36 26 35.1046 26 34C26 32.8954 25.1046 32 24 32Z" fill="#333333"/>
<path d="M28.1959 8.4L29.925 7.39496L28.1959 8.4ZM19.826 8.4L18.0969 7.39496V7.39496L19.826 8.4ZM43.3662 34.5L41.6371 35.5051L43.3662 34.5ZM4.65568 34.5L2.92655 33.495H2.92655L4.65568 34.5ZM29.925 7.39496C27.294 2.86836 20.7279 2.86834 18.0969 7.39496L21.5552 9.40504C22.644 7.53165 25.3779 7.53165 26.4667 9.40504L29.925 7.39496ZM45.0954 33.495L29.925 7.39496L26.4667 9.40504L41.6371 35.5051L45.0954 33.495ZM39.0355 44C44.2936 44 47.7323 38.0317 45.0954 33.495L41.6371 35.5051C42.7201 37.3683 41.2172 40 39.0355 40V44ZM8.83339 44H39.0355V40H8.83339V44ZM2.92655 33.495C0.342777 37.9402 3.47054 44 8.83339 44V40C6.75638 40 5.24865 37.4598 6.38481 35.505L2.92655 33.495ZM18.0969 7.39496L2.92655 33.495L6.38481 35.505L21.5552 9.40504L18.0969 7.39496ZM24 16C21.7909 16 20 17.7909 20 20H24V16ZM28 20C28 17.7909 26.2091 16 24 16V20H28ZM28 28V20H24V28H28ZM24 32C26.2091 32 28 30.2091 28 28H24V32ZM20 28C20 30.2091 21.7909 32 24 32V28H20ZM20 20V28H24V20H20ZM24 34V30C21.7909 30 20 31.7909 20 34H24ZM24 34H20C20 36.2091 21.7909 38 24 38V34ZM24 34V38C26.2091 38 28 36.2091 28 34H24ZM24 34H28C28 31.7909 26.2091 30 24 30V34Z" fill="#333333" mask="url(#path-1-inside-1)"/>
</svg>
