<svg width="48" height="48" viewBox="0 0 48 48" fill="none" xmlns="http://www.w3.org/2000/svg">
<path fill-rule="evenodd" clip-rule="evenodd" d="M30.3056 35.7308C36.217 34.3302 39.977 28.8382 38.7037 23.4641C37.4303 18.0901 31.6059 14.869 25.6945 16.2697C19.783 17.6703 16.023 23.1623 17.2964 28.5364C18.5697 33.9104 24.3941 37.1315 30.3056 35.7308ZM32.5 31.0001C33.8807 31.0001 35 29.8808 35 28.5001C35 27.1194 33.8807 26.0001 32.5 26.0001C31.1193 26.0001 30 27.1194 30 28.5001C30 29.8808 31.1193 31.0001 32.5 31.0001Z" fill="#333333"/>
<circle cx="20.1818" cy="17.0909" r="3.18182" transform="rotate(-180 20.1818 17.0909)" fill="#333333"/>
<circle cx="15.6364" cy="16.1817" r="3.18182" transform="rotate(-180 15.6364 16.1817)" fill="#333333"/>
<circle cx="12" cy="18.909" r="3.18182" transform="rotate(-180 12 18.909)" fill="#333333"/>
<circle cx="10.1818" cy="23.4547" r="3.18182" transform="rotate(-180 10.1818 23.4547)" fill="#333333"/>
<circle cx="11.0909" cy="28.0001" r="3.18182" transform="rotate(-180 11.0909 28.0001)" fill="#333333"/>
<circle cx="13.8182" cy="32.5455" r="3.18182" transform="rotate(-180 13.8182 32.5455)" fill="#333333"/>
<circle cx="14.7273" cy="37.0908" r="2.27273" transform="rotate(-180 14.7273 37.0908)" fill="#333333"/>
<circle cx="14.2727" cy="41.1818" r="1.81818" transform="rotate(-180 14.2727 41.1818)" fill="#333333"/>
<path d="M15.6364 30.2728C14.7273 28.9092 13.3636 20.7273 19.2727 21.1819C25.1818 21.6364 20.6364 20.7273 20.6364 20.7273L20.1818 17.5455L16.0909 16.1819L11.5454 19.3637L10.6364 26.6364C10.6364 26.6364 16.5454 31.6364 15.6364 30.2728Z" fill="#333333"/>
<path d="M30.4788 18.1517C30.4788 18.1517 32.2279 10.7418 37.5 9.5" stroke="#333333" stroke-width="2" stroke-linecap="round" stroke-linejoin="round"/>
<path d="M6 6.5C7.5 10.5 13 10.5 15 6.5C17.5 10.5 21.5 10.5 24 6.5C26 10.5 30.5 10.5 33 6.5C35.5 10.5 39.5 10.5 42 6.5" stroke="#333333" stroke-width="2" stroke-linecap="round" stroke-linejoin="round"/>
</svg>
