<svg width="48" height="48" viewBox="0 0 48 48" fill="none" xmlns="http://www.w3.org/2000/svg">
<rect x="15" y="5" width="2" height="8" rx="1" fill="#333333"/>
<rect x="31" y="5" width="2" height="8" rx="1" fill="#333333"/>
<rect x="14" y="23" width="4" height="4" rx="1" stroke="#333333" stroke-width="2"/>
<rect x="22" y="23" width="4" height="4" rx="1" stroke="#333333" stroke-width="2"/>
<rect x="30" y="23" width="4" height="4" rx="1" stroke="#333333" stroke-width="2"/>
<rect x="14" y="31" width="4" height="4" rx="1" stroke="#333333" stroke-width="2"/>
<rect x="22" y="31" width="4" height="4" rx="1" stroke="#333333" stroke-width="2"/>
<rect x="30" y="31" width="4" height="4" rx="1" stroke="#333333" stroke-width="2"/>
<rect x="9" y="10" width="30" height="30" rx="3" stroke="#333333" stroke-width="2"/>
<path d="M9 13C9 11.3431 10.3431 10 12 10H36C37.6569 10 39 11.3431 39 13V19H9V13Z" fill="#333333" stroke="#333333" stroke-width="2"/>
<rect x="17" y="5" width="2" height="8" rx="1" fill="white"/>
<rect x="33" y="5" width="2" height="8" rx="1" fill="white"/>
<line x1="9" y1="19" x2="39" y2="19" stroke="#333333" stroke-width="2"/>
</svg>
