<svg width="48" height="48" viewBox="0 0 48 48" fill="none" xmlns="http://www.w3.org/2000/svg">
<mask id="path-1-inside-1" fill="white">
<path fill-rule="evenodd" clip-rule="evenodd" d="M16 4C14.3431 4 13 5.34315 13 7H10C7.79086 7 6 8.79086 6 11V20.9883L13.6326 20.9886L17.0207 14.9653L19.1377 22.375L21.7284 19.0441H27.2175C27.7698 19.0441 28.2175 19.4918 28.2175 20.0441C28.2175 20.5964 27.7698 21.0441 27.2175 21.0441H22.7065L18.2972 26.7133L16.4142 20.1229L14.8023 22.9886L6 22.9883V39C6 41.2091 7.79086 43 10 43H30C32.2091 43 34 41.2091 34 39V11C34 8.79086 32.2091 7 30 7H27C27 5.34315 25.6569 4 24 4H16ZM15 7C15 6.44772 15.4477 6 16 6H24C24.5523 6 25 6.44772 25 7V9C25 9.55228 24.5523 10 24 10H16C15.4477 10 15 9.55228 15 9V7ZM12 30C11.4477 30 11 30.4477 11 31C11 31.5523 11.4477 32 12 32H28C28.5523 32 29 31.5523 29 31C29 30.4477 28.5523 30 28 30H12ZM14 36C14 35.4477 14.4477 35 15 35H25C25.5523 35 26 35.4477 26 36C26 36.5523 25.5523 37 25 37H15C14.4477 37 14 36.5523 14 36Z"/>
<path d="M43 20H37V38L40 42L43 38V20Z"/>
<path d="M41 13H39C37.8954 13 37 13.8954 37 15V19H43V15C43 13.8954 42.1046 13 41 13Z"/>
</mask>
<path fill-rule="evenodd" clip-rule="evenodd" d="M16 4C14.3431 4 13 5.34315 13 7H10C7.79086 7 6 8.79086 6 11V20.9883L13.6326 20.9886L17.0207 14.9653L19.1377 22.375L21.7284 19.0441H27.2175C27.7698 19.0441 28.2175 19.4918 28.2175 20.0441C28.2175 20.5964 27.7698 21.0441 27.2175 21.0441H22.7065L18.2972 26.7133L16.4142 20.1229L14.8023 22.9886L6 22.9883V39C6 41.2091 7.79086 43 10 43H30C32.2091 43 34 41.2091 34 39V11C34 8.79086 32.2091 7 30 7H27C27 5.34315 25.6569 4 24 4H16ZM15 7C15 6.44772 15.4477 6 16 6H24C24.5523 6 25 6.44772 25 7V9C25 9.55228 24.5523 10 24 10H16C15.4477 10 15 9.55228 15 9V7ZM12 30C11.4477 30 11 30.4477 11 31C11 31.5523 11.4477 32 12 32H28C28.5523 32 29 31.5523 29 31C29 30.4477 28.5523 30 28 30H12ZM14 36C14 35.4477 14.4477 35 15 35H25C25.5523 35 26 35.4477 26 36C26 36.5523 25.5523 37 25 37H15C14.4477 37 14 36.5523 14 36Z" fill="#333333"/>
<path d="M43 20H37V38L40 42L43 38V20Z" fill="#333333"/>
<path d="M41 13H39C37.8954 13 37 13.8954 37 15V19H43V15C43 13.8954 42.1046 13 41 13Z" fill="#333333"/>
<path d="M13 7V9H15V7H13ZM6 20.9883H4V22.9882L5.99993 22.9883L6 20.9883ZM13.6326 20.9886L13.6325 22.9886L14.8023 22.9886L15.3758 21.9691L13.6326 20.9886ZM17.0207 14.9653L18.9437 14.4159L17.6271 9.80776L15.2775 13.9848L17.0207 14.9653ZM19.1377 22.375L17.2147 22.9244L18.2972 26.7133L20.7164 23.6028L19.1377 22.375ZM21.7284 19.0441V17.0441H20.7502L20.1497 17.8162L21.7284 19.0441ZM22.7065 21.0441V19.0441H21.7284L21.1278 19.8162L22.7065 21.0441ZM18.2972 26.7133L16.3741 27.2627L17.4567 31.0516L19.8759 27.9412L18.2972 26.7133ZM16.4142 20.1229L18.3373 19.5735L17.0207 14.9653L14.6711 19.1424L16.4142 20.1229ZM14.8023 22.9886L14.8022 24.9886L15.972 24.9886L16.5455 23.9691L14.8023 22.9886ZM6 22.9883L6.00006 20.9883L4 20.9882V22.9883H6ZM27 7H25V9H27V7ZM43 20H45V18H43V20ZM37 20V18H35V20H37ZM37 38H35V38.6667L35.4 39.2L37 38ZM40 42L38.4 43.2L40 45.3333L41.6 43.2L40 42ZM43 38L44.6 39.2L45 38.6667V38H43ZM37 19H35V21H37V19ZM43 19V21H45V19H43ZM16 2C13.2386 2 11 4.23858 11 7H15C15 6.44772 15.4477 6 16 6V2ZM13 5H10V9H13V5ZM10 5C6.68629 5 4 7.68629 4 11H8C8 9.89543 8.89543 9 10 9V5ZM4 11V20.9883H8V11H4ZM5.99993 22.9883L13.6325 22.9886L13.6327 18.9886L6.00007 18.9883L5.99993 22.9883ZM15.3758 21.9691L18.7638 15.9459L15.2775 13.9848L11.8895 20.008L15.3758 21.9691ZM15.0976 15.5148L17.2147 22.9244L21.0608 21.8255L18.9437 14.4159L15.0976 15.5148ZM20.7164 23.6028L23.3071 20.272L20.1497 17.8162L17.559 21.1471L20.7164 23.6028ZM21.7284 21.0441H27.2175V17.0441H21.7284V21.0441ZM27.2175 21.0441C26.6652 21.0441 26.2175 20.5964 26.2175 20.0441H30.2175C30.2175 18.3873 28.8743 17.0441 27.2175 17.0441V21.0441ZM26.2175 20.0441C26.2175 19.4918 26.6652 19.0441 27.2175 19.0441V23.0441C28.8743 23.0441 30.2175 21.701 30.2175 20.0441H26.2175ZM27.2175 19.0441H22.7065V23.0441H27.2175V19.0441ZM21.1278 19.8162L16.7185 25.4854L19.8759 27.9412L24.2852 22.272L21.1278 19.8162ZM20.2202 26.1638L18.3373 19.5735L14.4912 20.6723L16.3741 27.2627L20.2202 26.1638ZM14.6711 19.1424L13.0592 22.008L16.5455 23.9691L18.1574 21.1034L14.6711 19.1424ZM14.8024 20.9886L6.00006 20.9883L5.99994 24.9883L14.8022 24.9886L14.8024 20.9886ZM4 22.9883V39H8V22.9883H4ZM4 39C4 42.3137 6.68629 45 10 45V41C8.89543 41 8 40.1046 8 39H4ZM10 45H30V41H10V45ZM30 45C33.3137 45 36 42.3137 36 39H32C32 40.1046 31.1046 41 30 41V45ZM36 39V11H32V39H36ZM36 11C36 7.68629 33.3137 5 30 5V9C31.1046 9 32 9.89543 32 11H36ZM30 5H27V9H30V5ZM29 7C29 4.23858 26.7614 2 24 2V6C24.5523 6 25 6.44772 25 7H29ZM24 2H16V6H24V2ZM17 7C17 7.55229 16.5523 8 16 8V4C14.3431 4 13 5.34315 13 7H17ZM16 8H24V4H16V8ZM24 8C23.4477 8 23 7.55229 23 7H27C27 5.34315 25.6569 4 24 4V8ZM23 7V9H27V7H23ZM23 9C23 8.44771 23.4477 8 24 8V12C25.6569 12 27 10.6569 27 9H23ZM24 8H16V12H24V8ZM16 8C16.5523 8 17 8.44771 17 9H13C13 10.6569 14.3431 12 16 12V8ZM17 9V7H13V9H17ZM12 28C10.3431 28 9 29.3431 9 31H13C13 31.5523 12.5523 32 12 32V28ZM9 31C9 32.6569 10.3431 34 12 34V30C12.5523 30 13 30.4477 13 31H9ZM12 34H28V30H12V34ZM28 34C29.6569 34 31 32.6569 31 31H27C27 30.4477 27.4477 30 28 30V34ZM31 31C31 29.3431 29.6569 28 28 28V32C27.4477 32 27 31.5523 27 31H31ZM28 28H12V32H28V28ZM16 36C16 36.5523 15.5523 37 15 37V33C13.3431 33 12 34.3431 12 36H16ZM15 37H25V33H15V37ZM25 37C24.4477 37 24 36.5523 24 36H28C28 34.3431 26.6569 33 25 33V37ZM24 36C24 35.4477 24.4477 35 25 35V39C26.6569 39 28 37.6569 28 36H24ZM25 35H15V39H25V35ZM15 35C15.5523 35 16 35.4477 16 36H12C12 37.6569 13.3431 39 15 39V35ZM43 18H37V22H43V18ZM35 20V38H39V20H35ZM35.4 39.2L38.4 43.2L41.6 40.8L38.6 36.8L35.4 39.2ZM41.6 43.2L44.6 39.2L41.4 36.8L38.4 40.8L41.6 43.2ZM45 38V20H41V38H45ZM41 11H39V15H41V11ZM39 11C36.7909 11 35 12.7909 35 15H39V11ZM35 15V19H39V15H35ZM37 21H43V17H37V21ZM45 19V15H41V19H45ZM45 15C45 12.7909 43.2091 11 41 11V15H45Z" fill="#333333" mask="url(#path-1-inside-1)"/>
</svg>
