<svg width="48" height="48" viewBox="0 0 48 48" fill="none" xmlns="http://www.w3.org/2000/svg">
<path fill-rule="evenodd" clip-rule="evenodd" d="M43 23.25C43 31.1201 34.4934 37.5 24 37.5C20.7211 37.5 17.6363 36.8771 14.9443 35.7804C12.1776 37.9411 8.03017 38.4959 6.08285 38.6383C5.65681 38.6695 5.40859 38.1729 5.65498 37.8239C6.43203 36.7233 7.74857 34.615 8.75307 31.7543C6.39541 29.3806 5 26.4375 5 23.25C5 15.3799 13.5066 9 24 9C34.4934 9 43 15.3799 43 23.25ZM24 25C25.1046 25 26 24.1046 26 23C26 21.8954 25.1046 21 24 21C22.8954 21 22 21.8954 22 23C22 24.1046 22.8954 25 24 25ZM33 23C33 24.1046 32.1046 25 31 25C29.8954 25 29 24.1046 29 23C29 21.8954 29.8954 21 31 21C32.1046 21 33 21.8954 33 23ZM17 25C18.1046 25 19 24.1046 19 23C19 21.8954 18.1046 21 17 21C15.8954 21 15 21.8954 15 23C15 24.1046 15.8954 25 17 25Z" fill="#333333"/>
</svg>
