<svg width="48" height="48" viewBox="0 0 48 48" fill="none" xmlns="http://www.w3.org/2000/svg">
<path d="M19.714 25.958C19.5104 25.0746 19.6947 24.2739 20.1107 23.6461L21.6397 25.1751C21.6295 25.2808 21.6361 25.3926 21.6629 25.5087L22.0992 27.401C22.7141 30.0683 19.6683 32.053 17.4766 30.4131C16.794 29.9024 15.8392 30.4937 15.9924 31.3324L16.1816 32.3684L14.2141 32.7277L14.0249 31.6916C13.5451 29.0643 16.5363 27.2117 18.6748 28.8117C19.3743 29.3352 20.3466 28.7017 20.1503 27.8503L19.714 25.958Z" fill="#333333"/>
<path d="M33.258 14.9302C31.969 13.6411 29.6177 13.9024 28.0064 15.5137C26.4391 17.081 26.1491 19.3483 27.3206 20.6573L27.6536 23.4472C27.6791 23.6611 27.6397 23.8555 27.5557 24.0201L28.9963 25.4606C29.4773 24.8779 29.7457 24.1004 29.6395 23.2102L29.4454 21.5835C30.5343 21.6058 31.7312 21.1252 32.6745 20.1818C34.2858 18.5705 34.5471 16.2193 33.258 14.9302Z" fill="#333333"/>
<path fill-rule="evenodd" clip-rule="evenodd" d="M24 42C33.9411 42 42 33.9411 42 24C42 14.0589 33.9411 6 24 6C14.0589 6 6 14.0589 6 24C6 33.9411 14.0589 42 24 42ZM24 39C27.6019 39 30.9073 37.7305 33.4931 35.6144L12.3856 14.5069C10.2695 17.0927 9 20.3981 9 24C9 32.2843 15.7157 39 24 39ZM14.5069 12.3856L35.6144 33.4931C37.7305 30.9073 39 27.6019 39 24C39 15.7157 32.2843 9 24 9C20.3981 9 17.0927 10.2695 14.5069 12.3856Z" fill="#333333"/>
</svg>
