<svg width="48" height="48" viewBox="0 0 48 48" fill="none" xmlns="http://www.w3.org/2000/svg">
<path fill-rule="evenodd" clip-rule="evenodd" d="M33.4931 35.6144C30.9073 37.7305 27.6019 39 24 39C15.7157 39 9 32.2843 9 24C9 20.3981 10.2695 17.0927 12.3856 14.5069L33.4931 35.6144ZM35.6144 33.4931L14.5069 12.3856C17.0927 10.2695 20.3981 9 24 9C32.2843 9 39 15.7157 39 24C39 27.6019 37.7305 30.9073 35.6144 33.4931ZM42 24C42 33.9411 33.9411 42 24 42C14.0589 42 6 33.9411 6 24C6 14.0589 14.0589 6 24 6C33.9411 6 42 14.0589 42 24Z" fill="#333333"/>
<path fill-rule="evenodd" clip-rule="evenodd" d="M28.0064 15.5137C29.6177 13.9024 31.969 13.6411 33.258 14.9302C34.5471 16.2193 34.2858 18.5705 32.6745 20.1818C31.7312 21.1252 30.5343 21.6058 29.4453 21.5835L29.6395 23.2102C29.7457 24.1004 29.4773 24.8779 28.9963 25.4606L27.5557 24.0201C27.6397 23.8555 27.6791 23.6611 27.6536 23.4472L27.3206 20.6573C26.1491 19.3483 26.4391 17.081 28.0064 15.5137ZM20.1107 23.6461C19.6947 24.2739 19.5104 25.0746 19.714 25.958L20.1503 27.8503C20.3466 28.7017 19.3743 29.3352 18.6748 28.8117C16.5363 27.2117 13.5451 29.0643 14.0249 31.6916L14.2141 32.7277L16.1816 32.3684L15.9924 31.3324C15.8392 30.4937 16.794 29.9024 17.4766 30.4131C19.6683 32.053 22.7141 30.0683 22.0992 27.401L21.6629 25.5087C21.6361 25.3926 21.6295 25.2808 21.6397 25.1751L20.1107 23.6461Z" fill="#333333"/>
</svg>
