<svg width="48" height="48" viewBox="0 0 48 48" fill="none" xmlns="http://www.w3.org/2000/svg">
<path d="M21.5778 14.7756L12.2734 20.8084L15.1805 22.8016L23.3592 17.5079C23.4855 17.4539 23.6213 17.4261 23.7586 17.4261C23.8959 17.4261 24.0318 17.4539 24.1581 17.5079L32.5675 22.9596L35.5579 21.0242L25.9224 14.7756C25.2663 14.3817 24.5154 14.1736 23.7501 14.1736C22.9848 14.1736 22.2339 14.3817 21.5778 14.7756Z" fill="#333333"/>
<path fill-rule="evenodd" clip-rule="evenodd" d="M43.5935 17.3775L25.9224 5.9143C25.267 5.52053 24.5168 5.3125 23.7522 5.3125C22.9876 5.3125 22.2375 5.52053 21.582 5.9143L4.41501 17.0421C4.03021 17.2645 3.70986 17.5832 3.48541 17.9669C3.26095 18.3505 3.1401 18.786 3.13471 19.2305C3.12932 19.6749 3.23959 20.1132 3.45469 20.5021C3.66978 20.8911 3.98231 21.2175 4.36161 21.4492L21.565 33.1858C22.2137 33.598 22.9644 33.8214 23.7329 33.8308C24.5014 33.8402 25.2573 33.6354 25.916 33.2392L43.5935 21.7782C43.9799 21.5556 44.3009 21.2352 44.5241 20.8491C44.7473 20.463 44.8648 20.0249 44.8648 19.5789C44.8648 19.1329 44.7473 18.6948 44.5241 18.3087C44.3009 17.9226 43.9799 17.6022 43.5935 17.3796V17.3775ZM24.1559 30.5048C24.0379 30.5554 23.9105 30.5806 23.782 30.5787C23.6536 30.5769 23.527 30.5481 23.4105 30.4941L6.96325 19.2809L23.3592 8.64658C23.4854 8.59264 23.6213 8.56483 23.7586 8.56483C23.8959 8.56483 24.0318 8.59264 24.1581 8.64658L41.0026 19.5736L24.1559 30.5048Z" fill="#333333"/>
<path d="M41.7523 25.0405L43.5935 26.2346H43.5914C43.9778 26.4572 44.2988 26.7776 44.5219 27.1637C44.7451 27.5498 44.8626 27.9879 44.8626 28.4339C44.8626 28.8799 44.7451 29.318 44.5219 29.7041C44.2988 30.0902 43.9778 30.4106 43.5914 30.6332L25.916 42.0942C25.2578 42.4914 24.5018 42.6971 23.7332 42.688C22.9645 42.6789 22.2136 42.4556 21.565 42.043L4.36161 30.3106C3.98231 30.0789 3.66978 29.7525 3.45469 29.3636C3.23959 28.9746 3.12932 28.5363 3.13471 28.0919C3.1401 27.6474 3.26095 27.212 3.48541 26.8283C3.70986 26.4446 4.03021 26.126 4.41501 25.9035L6.17507 24.7627L9.08858 26.7644L6.95257 28.1466L23.3998 39.362C23.5174 39.4132 23.6442 39.4396 23.7725 39.4396C23.9008 39.4396 24.0276 39.4132 24.1452 39.362L41.0004 28.435L38.7512 26.9759L41.7523 25.0405Z" fill="#333333"/>
</svg>
