<svg width="48" height="48" viewBox="0 0 48 48" fill="none" xmlns="http://www.w3.org/2000/svg">
<path fill-rule="evenodd" clip-rule="evenodd" d="M14.7692 6C17.6938 6 20.5234 7.15414 22.621 9.04725C22.972 9.36404 23.3025 9.70151 23.6095 10.0577L24 10.5107L24.3905 10.0577C24.6975 9.70151 25.028 9.36404 25.379 9.04725C27.4766 7.15414 30.3062 6 33.2308 6C39.2655 6 44 10.6778 44 16.6404C44 20.3045 42.3368 23.6689 39.3081 27.33C36.284 30.9855 31.9521 34.875 26.6846 39.6046L26.6294 39.654L24.0013 42L21.3709 39.6341L21.3702 39.6334C16.0777 34.8917 11.7264 30.993 8.69183 27.3273C5.6632 23.6688 4 20.3045 4 16.6404C4 10.6778 8.7345 6 14.7692 6ZM32 26.198V12.8438L30.3541 14.2365C27.6352 16.537 24.7495 17.443 22.2109 18.24C21.8861 18.342 21.5669 18.4422 21.2546 18.5433C19.9228 18.9743 18.6065 19.4554 17.6358 20.2589C16.5875 21.1265 16 22.3146 16 23.9584C16 25.1005 16.4116 26.0471 17.0959 26.7502C17.7644 27.4369 18.6461 27.8456 19.5428 28.0355C20.4722 28.2323 21.4253 28.2224 22.3358 27.971C22.359 26.4832 22.612 25.2643 23.0067 24.2595C23.7992 22.2422 25.1103 21.2247 25.9453 20.6681C26.4048 20.3617 27.0257 20.4859 27.332 20.9454C27.6384 21.4049 27.5142 22.0258 27.0547 22.3322C26.3897 22.7755 25.4508 23.508 24.8682 24.9908C24.5301 25.8514 24.2951 27.0091 24.3393 28.5712C24.3393 28.5712 24.3373 28.6132 24.3375 28.6972C23.9913 28.3474 23.6937 27.9482 23.5 27.5C23.448 27.5283 23.3981 27.5554 23.3497 27.5813C23.0109 27.7623 22.7447 27.8853 22.3355 27.9856C22.3141 29.4575 22.5172 31.1922 23.0299 33.2428C23.1638 33.7785 23.7067 34.1043 24.2425 33.9704C24.7783 33.8364 25.1041 33.2935 24.9701 32.7577C24.3926 30.4476 24.3388 29.0967 24.3375 28.6972C24.742 29.1058 25.2129 29.4469 25.6624 29.7199C26.8529 30.4427 28.3926 30.7241 29.7127 30.1834C31.1278 29.6037 32 28.2071 32 26.198Z" fill="#333333"/>
</svg>
