<svg width="48" height="48" viewBox="0 0 48 48" fill="none" xmlns="http://www.w3.org/2000/svg">
<path fill-rule="evenodd" clip-rule="evenodd" d="M16.8971 33.4282H22.2503H25.7503H31.1036C31.4886 31.8126 32.8736 30.4144 33.9569 29.3207C34.3359 28.9381 34.6779 28.5928 34.9273 28.2885C36.5762 26.2717 37.6099 23.8396 37.9094 21.2725C38.209 18.7053 37.7621 16.1074 36.6204 13.7782C35.4787 11.4489 33.6885 9.48299 31.4561 8.10687C29.2237 6.73075 26.6398 6.00041 24.0022 6C21.3646 5.99959 18.7806 6.72911 16.5477 8.10453C14.3149 9.47995 12.524 11.4453 11.3816 13.7742C10.2391 16.1031 9.79137 18.7008 10.0901 21.2681C10.3888 23.8354 11.4217 26.2678 13.0699 28.2851C13.3201 28.5908 13.6637 28.9376 14.0444 29.3219C15.1282 30.4158 16.5125 31.8131 16.8971 33.4282ZM31.0003 38.5713V36.8569H17.0004V38.5713C17.0004 39.4806 17.3691 40.3527 18.0255 40.9957C18.6819 41.6388 19.5721 42 20.5004 42H27.5003C28.4286 42 29.3188 41.6388 29.9752 40.9957C30.6316 40.3527 31.0003 39.4806 31.0003 38.5713ZM25.5 12L18 22H22V29L30 19H25.5V12Z" fill="#333333"/>
</svg>
