<svg width="48" height="48" viewBox="0 0 48 48" fill="none" xmlns="http://www.w3.org/2000/svg">
<path d="M17.4325 11.215L21.9051 18.5712C19.7414 19.4242 18.2104 21.5333 18.2104 24H9.6675C9.29875 24.0425 9 23.7438 9 23.375C9 18.1925 11.6725 13.7913 16.5263 10.9825C16.6776 10.8944 16.8575 10.8694 17.0271 10.9129C17.1966 10.9564 17.3423 11.0649 17.4325 11.215Z" fill="#333333"/>
<path d="M31.56 10.9825C31.4087 10.8944 31.2288 10.8694 31.0592 10.9129C30.8896 10.9564 30.744 11.0649 30.6538 11.215L26.1821 18.5711C28.3459 19.424 29.8771 21.5332 29.8771 24H38.4188C38.7875 24.0425 39.0863 23.7438 39.0863 23.375C39.0863 18.1925 36.4137 13.7913 31.56 10.9825Z" fill="#333333"/>
<path d="M16.275 36.1163L20.4123 28.5654C21.4087 29.3591 22.6708 29.8333 24.0437 29.8333C25.4165 29.8333 26.6785 29.3591 27.6749 28.5656L31.8112 36.1163C31.8958 36.2696 31.9167 36.45 31.8694 36.6185C31.8222 36.7871 31.7106 36.9304 31.5587 37.0175C26.9812 39.6663 21.1062 39.6663 16.5262 37.0175C16.3748 36.93 16.2637 36.7866 16.2168 36.6181C16.1698 36.4497 16.1907 36.2695 16.275 36.1163Z" fill="#333333"/>
<path d="M28.1667 24C28.1667 26.3012 26.3012 28.1667 24 28.1667C21.6988 28.1667 19.8333 26.3012 19.8333 24C19.8333 21.6988 21.6988 19.8333 24 19.8333C26.3012 19.8333 28.1667 21.6988 28.1667 24Z" fill="#333333"/>
<path fill-rule="evenodd" clip-rule="evenodd" d="M42 24C42 33.9411 33.9411 42 24 42C14.0589 42 6 33.9411 6 24C6 14.0589 14.0589 6 24 6C33.9411 6 42 14.0589 42 24ZM40 24C40 32.8366 32.8366 40 24 40C15.1634 40 8 32.8366 8 24C8 15.1634 15.1634 8 24 8C32.8366 8 40 15.1634 40 24Z" fill="#333333"/>
</svg>
