<svg width="48" height="48" viewBox="0 0 48 48" fill="none" xmlns="http://www.w3.org/2000/svg">
<path d="M17.4325 11.2146L21.9051 18.5708C19.7414 19.4238 18.2104 21.5329 18.2104 23.9996H9.6675C9.29875 24.0421 9 23.7434 9 23.3746C9 18.1921 11.6725 13.7909 16.5263 10.9821C16.6776 10.894 16.8575 10.869 17.0271 10.9125C17.1966 10.956 17.3423 11.0645 17.4325 11.2146Z" fill="#333333"/>
<path d="M31.56 10.9821C31.4087 10.894 31.2288 10.869 31.0592 10.9125C30.8896 10.956 30.744 11.0645 30.6538 11.2146L26.1821 18.5707C28.3459 19.4236 29.8771 21.5328 29.8771 23.9996H38.4188C38.7875 24.0421 39.0863 23.7434 39.0863 23.3746C39.0863 18.1921 36.4137 13.7909 31.56 10.9821Z" fill="#333333"/>
<path d="M20.4123 28.5654L16.275 36.1163C16.1907 36.2695 16.1698 36.4497 16.2168 36.6181C16.2637 36.7866 16.3748 36.93 16.5262 37.0175C21.1062 39.6663 26.9812 39.6663 31.5587 37.0175C31.7106 36.9304 31.8222 36.7871 31.8694 36.6185C31.9167 36.45 31.8958 36.2696 31.8112 36.1163L27.6749 28.5656C26.6785 29.3591 25.4165 29.8333 24.0437 29.8333C22.6708 29.8333 21.4087 29.3591 20.4123 28.5654Z" fill="#333333"/>
<path d="M28.1667 23.9997C28.1667 26.3009 26.3012 28.1664 24 28.1664C21.6988 28.1664 19.8333 26.3009 19.8333 23.9997C19.8333 21.6985 21.6988 19.833 24 19.833C26.3012 19.833 28.1667 21.6985 28.1667 23.9997Z" fill="#333333"/>
<circle cx="24" cy="24" r="17" stroke="#333333" stroke-width="2"/>
</svg>
