<svg width="48" height="48" viewBox="0 0 48 48" fill="none" xmlns="http://www.w3.org/2000/svg">
<path d="M21.3709 39.6341L21.3702 39.6334C16.0777 34.8917 11.7264 30.993 8.69183 27.3273C5.6632 23.6688 4 20.3045 4 16.6404C4 10.6778 8.7345 6 14.7692 6C18.1832 6 21.4678 7.57272 23.6095 10.0577L24 10.5107L24.3905 10.0577C26.5322 7.57272 29.8168 6 33.2308 6C39.2655 6 44 10.6778 44 16.6404C44 20.3045 42.3368 23.6689 39.3081 27.33C36.2838 30.9858 31.9516 34.8755 26.6836 39.6055L26.6306 39.653L26.6294 39.654L24.0013 42L21.3709 39.6341Z" fill="#333333"/>
</svg>
