<svg width="48" height="48" viewBox="0 0 48 48" fill="none" xmlns="http://www.w3.org/2000/svg">
<path d="M21.3702 39.6334L21.3709 39.6341L24.0013 42L26.6294 39.654L26.6846 39.6046C31.9521 34.875 36.284 30.9855 39.3081 27.33C42.3368 23.6689 44 20.3045 44 16.6404C44 10.6778 39.2655 6 33.2308 6C29.8168 6 26.5322 7.57272 24.3905 10.0577L24 10.5107L23.6095 10.0577C21.4678 7.57272 18.1832 6 14.7692 6C8.7345 6 4 10.6778 4 16.6404C4 19.1714 4.79354 21.5592 6.28249 23.9998H17.382L20.8145 17.1348L22.9383 25.6299L25.4793 21.9998H31C31.5523 21.9998 32 22.4476 32 22.9998C32 23.5521 31.5523 23.9998 31 23.9998H26.5207L22.0617 30.3698L20.1855 22.8649L18.618 25.9998H7.64447C7.97289 26.4387 8.32219 26.8808 8.69183 27.3273C11.7264 30.993 16.0777 34.8917 21.3702 39.6334Z" fill="#333333"/>
</svg>
