<svg width="48" height="48" viewBox="0 0 48 48" fill="none" xmlns="http://www.w3.org/2000/svg">
<path d="M22.6191 34.5451C22.9704 34.7218 23.3741 34.7641 23.7543 34.6641L36.1042 30.9603C38.0404 30.4513 37.6502 28.4641 35.6609 28.6895L22.823 29.6862C22.4323 29.7304 22.0713 29.9158 21.8076 30.2075L20.7865 31.337C20.0715 32.1278 20.3062 33.3823 21.2587 33.8612L22.6191 34.5451Z" fill="#333333"/>
<path fill-rule="evenodd" clip-rule="evenodd" d="M34.5246 12.6475C31.723 10.4336 28.3855 9.22753 25 9.02926L25 12.0001C25 12.5523 24.5523 13.0001 24 13.0001C23.4477 13.0001 23 12.5523 23 12.0001L23 9.02926C19.7194 9.22138 16.4839 10.3598 13.7374 12.4446L15.7071 14.414C16.0976 14.8045 16.0977 15.4377 15.7072 15.8282C15.3167 16.2188 14.6835 16.2188 14.2929 15.8283L12.2136 13.7492C12.1349 13.825 12.0567 13.9016 11.9792 13.9792C9.16931 16.7891 7.5487 20.3378 7.11734 24.0001H10C10.5523 24.0001 11 24.4478 11 25.0001C11 25.5523 10.5523 26.0001 10 26.0001H7C7.00002 29.8578 8.30494 33.7155 10.9148 36.8543C10.9593 36.6931 11.0449 36.5409 11.1715 36.4143L13.2929 34.2929C13.6834 33.9024 14.3166 33.9024 14.7071 34.293C15.0976 34.6835 15.0976 35.3167 14.7071 35.7072L12.5857 37.8285C12.3905 38.0238 12.1345 38.1214 11.8786 38.1214L10.565 39.435C3.14501 32.0151 3.14501 19.9849 10.565 12.565C17.9849 5.14501 30.0151 5.14501 37.435 12.565C44.855 19.9849 44.855 32.0151 37.435 39.435L36.0208 38.0208C36.0208 38.0208 36.0209 38.0208 36.0209 38.0207C36.0209 38.0207 36.0208 38.0207 36.0208 38.0207L33.8995 35.8993C33.509 35.5087 33.509 34.8756 33.8995 34.4851C34.2901 34.0945 34.9232 34.0946 35.3138 34.4851L37.3528 36.5242C39.7842 33.4471 41 29.7236 41 26.0001H38C37.4477 26.0001 37 25.5523 37 25.0001C37 24.4478 37.4477 24.0001 38 24.0001H40.8827C40.4513 20.338 38.8308 16.7893 36.0211 13.9794L36.0208 13.9797L33.8994 16.101C33.5089 16.4915 32.8757 16.4915 32.4852 16.1009C32.0947 15.7104 32.0947 15.0772 32.4852 14.6867L34.5246 12.6475Z" fill="#333333"/>
</svg>
