<svg width="48" height="48" viewBox="0 0 48 48" fill="none" xmlns="http://www.w3.org/2000/svg">
<path d="M17.018 28.7073L22.5811 35.8964L17.018 43L10 37.6081L17.018 28.7073Z" fill="#333333"/>
<path d="M13.7658 11.1621L16.7613 7.22522C17.8739 5.85585 19.5 5 21.2117 5H26.1757C27.0315 5 27.8874 5.17117 28.6576 5.5991C29.4279 5.94144 30.1126 6.54053 30.6261 7.22522L33.7072 11.2477C36.1036 14.4144 36.1036 18.7792 33.7072 21.8603L30.4549 25.9684L24.8919 18.7792L28.3153 14.4144C28.3153 14.4144 28.2297 14.4144 28.2297 14.3288C27.6306 13.9864 26.9459 13.8153 26.2613 13.8153H21.2973H21.2117C20.527 13.8153 19.8424 14.072 19.2433 14.4144L22.6667 18.7792L30.7117 29.0494L37.3873 37.608L30.4549 42.9998L13.7658 21.7747C11.3694 18.6936 11.3694 14.3288 13.7658 11.1621ZM17.9595 12.7883C18.0451 12.8738 18.0451 12.9594 18.1307 13.045C18.3018 12.8738 18.5586 12.7883 18.8153 12.7027C19.5856 12.3603 20.4415 12.1036 21.2973 12.1036H26.2613C27.1171 12.1036 27.973 12.2747 28.7432 12.7027C28.9144 12.7883 29.1711 12.9594 29.3423 13.045C29.9414 12.1892 30.2838 10.991 30.027 9.96394C29.9414 9.36485 29.6847 8.76575 29.2567 8.25224C28.9144 7.82431 28.4009 7.39639 27.8874 7.13963C27.3739 6.88287 26.7748 6.7117 26.1757 6.7117H21.2117C20.0135 6.7117 18.9009 7.3108 18.1307 8.25224C17.1892 9.53602 17.018 11.4189 17.9595 12.7883Z" fill="#333333"/>
<path d="M44 26H36C35.4477 26 35 26.4477 35 27C35 27.5523 35.4477 28 36 28H44C44.5523 28 45 27.5523 45 27C45 26.4477 44.5523 26 44 26Z" fill="#333333"/>
</svg>
