<svg width="48" height="48" viewBox="0 0 48 48" fill="none" xmlns="http://www.w3.org/2000/svg">
<path fill-rule="evenodd" clip-rule="evenodd" d="M16.7611 7.22522L13.7657 11.1621C11.3693 14.3288 11.3693 18.6936 13.7657 21.7747L30.4548 42.9998L37.3872 37.608L30.7115 29.0494L19.2431 14.4144C19.8422 14.072 20.5269 13.8153 21.2116 13.8153H26.2611C26.9458 13.8153 27.6305 13.9864 28.2296 14.3288C28.2296 14.4144 28.3151 14.4144 28.3151 14.4144L24.8917 18.7792L30.4548 25.9684L33.707 21.8603C36.1034 18.7792 36.1034 14.4144 33.707 11.2477L30.6259 7.22522C30.1124 6.54053 29.4278 5.94144 28.6575 5.5991C27.8872 5.17117 27.0314 5 26.1755 5H21.2116C19.4999 5 17.8738 5.85585 16.7611 7.22522ZM18.0449 12.9166C18.0235 12.8738 18.0021 12.831 17.9593 12.7883C17.0179 11.4189 17.1891 9.53602 18.1305 8.25224C18.9008 7.3108 20.0134 6.7117 21.2116 6.7117H26.1755C26.7746 6.7117 27.3737 6.88287 27.8872 7.13963C28.4007 7.39639 28.9142 7.82431 29.2566 8.25224C29.6845 8.76575 29.9413 9.36485 30.0268 9.96394C30.2836 10.991 29.9413 12.1892 29.3422 13.045C29.2566 13.0022 29.1496 12.938 29.0426 12.8738C28.9357 12.8097 28.8286 12.7455 28.7431 12.7027C27.9728 12.2747 27.117 12.1036 26.2611 12.1036H21.2972C20.4413 12.1036 19.5855 12.3603 18.8152 12.7027C18.5584 12.7883 18.3017 12.8738 18.1305 13.045C18.0877 13.0022 18.0663 12.9594 18.0449 12.9166Z" fill="#333333"/>
<path d="M22.581 35.8964L17.018 28.7073L10 37.6081L17.018 43L22.581 35.8964Z" fill="#333333"/>
<path d="M40 21C40.5523 21 41 21.4477 41 22V26H45C45.5523 26 46 26.4477 46 27C46 27.5523 45.5523 28 45 28H41V32C41 32.5523 40.5523 33 40 33C39.4477 33 39 32.5523 39 32V28H35C34.4477 28 34 27.5523 34 27C34 26.4477 34.4477 26 35 26H39V22C39 21.4477 39.4477 21 40 21Z" fill="#333333"/>
</svg>
