<svg width="48" height="48" viewBox="0 0 48 48" fill="none" xmlns="http://www.w3.org/2000/svg">
<path d="M17.0179 28.707L22.5809 35.8962L17.0179 42.9998L9.99991 37.6079L17.0179 28.707Z" fill="#333333"/>
<path d="M13.7657 11.1621L16.7612 7.22522C17.8738 5.85585 19.4999 5 21.2116 5H26.1755C27.0314 5 27.8872 5.17117 28.6575 5.5991C29.4278 5.94144 30.1125 6.54053 30.626 7.22522L33.707 11.2477C36.1034 14.4144 36.1034 18.7792 33.707 21.8603L30.4548 25.9684L24.8918 18.7792L28.3152 14.4144C28.3152 14.4144 28.2296 14.4144 28.2296 14.3288C27.6305 13.9864 26.9458 13.8153 26.2611 13.8153H21.2972H21.2116C20.5269 13.8153 19.8422 14.072 19.2431 14.4144L22.6666 18.7792L30.7116 29.0494L37.3872 37.608L30.4548 42.9998L13.7657 21.7747C11.3693 18.6936 11.3693 14.3288 13.7657 11.1621ZM17.9594 12.7883C18.045 12.8738 18.045 12.9594 18.1305 13.045C18.3017 12.8738 18.5585 12.7883 18.8152 12.7027C19.5855 12.3603 20.4413 12.1036 21.2972 12.1036H26.2611C27.117 12.1036 27.9728 12.2747 28.7431 12.7027C28.9143 12.7883 29.171 12.9594 29.3422 13.045C29.9413 12.1892 30.2836 10.991 30.0269 9.96394C29.9413 9.36485 29.6845 8.76575 29.2566 8.25224C28.9143 7.82431 28.4008 7.39639 27.8872 7.13963C27.3737 6.88287 26.7746 6.7117 26.1755 6.7117H21.2116C20.0134 6.7117 18.9008 7.3108 18.1305 8.25224C17.1891 9.53602 17.0179 11.4189 17.9594 12.7883Z" fill="#333333"/>
<path d="M40 22V32" stroke="#333333" stroke-width="2" stroke-linecap="round"/>
<path d="M35 27L45 27" stroke="#333333" stroke-width="2" stroke-linecap="round"/>
</svg>
