<svg width="48" height="48" viewBox="0 0 48 48" fill="none" xmlns="http://www.w3.org/2000/svg">
<path fill-rule="evenodd" clip-rule="evenodd" d="M16.374 7.22522L13.3785 11.1621C10.9821 14.3288 10.9821 18.6936 13.3785 21.7747L30.0676 42.9998L37 37.608L30.3244 29.0494L18.8559 14.4144C19.455 14.072 20.1397 13.8153 20.8244 13.8153H25.8739C26.5586 13.8153 27.2433 13.9864 27.8424 14.3288C27.8424 14.4144 27.928 14.4144 27.928 14.4144L24.5046 18.7792L30.0676 25.9684L33.3198 21.8603C35.7162 18.7792 35.7162 14.4144 33.3198 11.2477L30.2388 7.22522C29.7253 6.54053 29.0406 5.94144 28.2703 5.5991C27.5 5.17117 26.6442 5 25.7883 5H20.8244C19.1127 5 17.4866 5.85585 16.374 7.22522ZM17.6577 12.9166C17.6363 12.8738 17.615 12.831 17.5722 12.7883C16.6307 11.4189 16.8019 9.53602 17.7433 8.25224C18.5136 7.3108 19.6262 6.7117 20.8244 6.7117H25.7883C26.3874 6.7117 26.9865 6.88287 27.5 7.13963C28.0136 7.39639 28.5271 7.82431 28.8694 8.25224C29.2973 8.76575 29.5541 9.36485 29.6397 9.96394C29.8964 10.991 29.5541 12.1892 28.955 13.045C28.8694 13.0022 28.7624 12.938 28.6554 12.8738C28.5485 12.8097 28.4415 12.7455 28.3559 12.7027C27.5856 12.2747 26.7298 12.1036 25.8739 12.1036H20.91C20.0541 12.1036 19.1983 12.3603 18.428 12.7027C18.1713 12.7883 17.9145 12.8738 17.7433 13.045C17.7005 13.0022 17.6791 12.9594 17.6577 12.9166Z" fill="#333333"/>
<path d="M22.1938 35.8964L16.6307 28.7073L9.61273 37.6081L16.6307 43L22.1938 35.8964Z" fill="#333333"/>
<path d="M41.6588 32.6986C41.6588 33.4173 41.0761 34 40.3574 34C39.6386 34 39.0559 33.4173 39.0559 32.6986C39.0559 31.9798 39.6386 31.3971 40.3574 31.3971C41.0761 31.3971 41.6588 31.9798 41.6588 32.6986Z" fill="#333333"/>
<path d="M37.0085 22.5659C36.8193 22.9421 36.7563 23.1536 36.7197 23.6071C36.6817 24.0772 36.7665 24.4713 37.2098 24.6605C37.3775 24.732 37.5492 24.7489 37.7609 24.6727C38.0643 24.5635 38.1915 24.3681 38.2672 24.0972C38.2835 23.9893 38.2806 23.9075 38.2779 23.8313C38.2752 23.7552 38.2726 23.6845 38.2896 23.5989C38.3974 23.0552 38.7863 22.8008 39.2921 22.6615C39.9973 22.4673 41.1151 22.5996 41.3745 22.7184C41.9173 22.9137 42.4157 23.2157 42.4421 24.1216C42.4646 24.8929 42.2659 25.2678 41.3745 25.8094C41.2667 25.8835 41.1569 25.9513 41.0457 26.02C40.7476 26.2041 40.4388 26.3948 40.1286 26.7306C39.8349 27.0647 39.6395 27.393 39.5968 27.753V28.2797C39.5968 28.4931 39.5943 28.7067 39.5919 28.9149C39.5881 29.2398 39.5845 29.5516 39.5907 29.8292C39.6009 30.2847 40.0253 30.36 40.3574 30.36C40.7225 30.36 41.0813 30.2156 41.0813 29.8475C41.0813 29.5814 41.0818 29.33 41.0823 29.0762C41.0828 28.8176 41.0833 28.5567 41.0833 28.2756C41.0833 28.022 41.1745 27.9121 41.2814 27.7831C41.2885 27.7745 41.2957 27.7659 41.303 27.757C41.5353 27.5383 41.8067 27.3737 42.1009 27.1953C42.2033 27.1332 42.3085 27.0694 42.4157 27.0011C42.9424 26.6656 43.2495 26.3504 43.4528 26.0657C43.7538 25.6793 43.921 25.2315 43.9795 24.6483C44.0425 24.0199 43.9998 23.2736 43.5972 22.5659C43.025 21.598 42.0334 21.1546 40.8478 21.0286C40.2418 20.9757 39.892 21.0001 39.2921 21.0704C38.8701 21.1532 38.6301 21.2046 38.251 21.3844C37.7304 21.6508 37.3277 21.9538 37.0085 22.5659Z" fill="#333333"/>
</svg>
