<svg width="48" height="48" viewBox="0 0 48 48" fill="none" xmlns="http://www.w3.org/2000/svg">
<path fill-rule="evenodd" clip-rule="evenodd" d="M13.7657 11.1621L16.7612 7.22522C17.8738 5.85585 19.4999 5 21.2116 5H26.1756C27.0314 5 27.8873 5.17117 28.6575 5.5991C29.4278 5.94144 30.1125 6.54053 30.626 7.22522L33.7071 11.2477C36.1035 14.4144 36.1035 18.7792 33.7071 21.8603L30.4548 25.9684L24.8918 18.7792L28.3152 14.4144C28.3152 14.4144 28.2296 14.4144 28.2296 14.3288C27.6305 13.9864 26.9458 13.8153 26.2612 13.8153H21.2116C20.527 13.8153 19.8423 14.072 19.2432 14.4144L30.7116 29.0494L37.3872 37.608L30.4548 42.9998L13.7657 21.7747C11.3693 18.6936 11.3693 14.3288 13.7657 11.1621ZM17.9594 12.7883C18.0022 12.831 18.0236 12.8738 18.045 12.9166C18.0664 12.9594 18.0878 13.0022 18.1306 13.045C18.3017 12.8738 18.5585 12.7883 18.8152 12.7027C19.5855 12.3603 20.4414 12.1036 21.2972 12.1036H26.2612C27.117 12.1036 27.9729 12.2747 28.7431 12.7027C28.8287 12.7455 28.9357 12.8096 29.0426 12.8738C29.1496 12.938 29.2566 13.0022 29.3422 13.045C29.9413 12.1892 30.2837 10.991 30.0269 9.96394C29.9413 9.36485 29.6846 8.76575 29.2566 8.25224C28.9143 7.82431 28.4008 7.39639 27.8873 7.13963C27.3738 6.88287 26.7747 6.7117 26.1756 6.7117H21.2116C20.0134 6.7117 18.9008 7.3108 18.1306 8.25224C17.1891 9.53602 17.018 11.4189 17.9594 12.7883Z" fill="#333333"/>
<path d="M17.018 28.7073L22.581 35.8964L17.018 43L10 37.6081L17.018 28.7073Z" fill="#333333"/>
<path d="M36 26H44C44.5523 26 45 26.4477 45 27C45 27.5523 44.5523 28 44 28H36C35.4477 28 35 27.5523 35 27C35 26.4477 35.4477 26 36 26Z" fill="#333333"/>
</svg>
