<svg width="48" height="48" viewBox="0 0 48 48" fill="none" xmlns="http://www.w3.org/2000/svg">
<path fill-rule="evenodd" clip-rule="evenodd" d="M14.8326 13.4187C17.0532 11.4931 19.886 10.2549 23 10.0352V12C23 12.5523 23.4477 13 24 13C24.5523 13 25 12.5523 25 12V10.0352C28.1139 10.2549 30.9466 11.493 33.1671 13.4184L31.7782 14.8074C31.3877 15.1979 31.3877 15.8311 31.7782 16.2216C32.1687 16.6121 32.8019 16.6121 33.1924 16.2216L34.5814 14.8326C36.5069 17.0532 37.7451 19.886 37.9648 23H36C35.4477 23 35 23.4477 35 24C35 24.5523 35.4477 25 36 25H37.9648C37.7451 28.1139 36.507 30.9466 34.5815 33.1672L33.1924 31.7781C32.8019 31.3876 32.1687 31.3876 31.7782 31.7781C31.3876 32.1686 31.3876 32.8018 31.7782 33.1923L33.1673 34.5814C30.9467 36.5069 28.1139 37.7451 25 37.9648V36C25 35.4477 24.5523 35 24 35C23.4477 35 23 35.4477 23 36V37.9648C19.8862 37.7451 17.0535 36.507 14.8329 34.5816L16.2218 33.1927C16.6123 32.8022 16.6123 32.1691 16.2218 31.7785C15.8313 31.388 15.1981 31.388 14.8076 31.7785L13.4187 33.1674C11.4931 30.9468 10.2549 28.114 10.0352 25H12C12.5523 25 13 24.5523 13 24C13 23.4477 12.5523 23 12 23H10.0352C10.2549 19.8861 11.493 17.0535 13.4184 14.8329L14.8076 16.2221C15.1981 16.6126 15.8313 16.6126 16.2218 16.2221C16.6123 15.8316 16.6123 15.1984 16.2218 14.8079L14.8326 13.4187ZM17 21.5C17 20.9477 16.5523 20.5 16 20.5C15.4477 20.5 15 20.9477 15 21.5V24V26.5C15 27.0523 15.4477 27.5 16 27.5C16.5523 27.5 17 27.0523 17 26.5V25H19V26.5C19 27.0523 19.4477 27.5 20 27.5C20.5523 27.5 21 27.0523 21 26.5V24V21.5C21 20.9477 20.5523 20.5 20 20.5C19.4477 20.5 19 20.9477 19 21.5V23H17V21.5ZM22 21.5C22 20.9477 22.4477 20.5 23 20.5H25C26.3807 20.5 27.5 21.6193 27.5 23C27.5 24.3807 26.3807 25.5 25 25.5H24V26.5C24 27.0523 23.5523 27.5 23 27.5C22.4477 27.5 22 27.0523 22 26.5V24.5V21.5ZM24 23.5H25C25.2761 23.5 25.5 23.2761 25.5 23C25.5 22.7239 25.2761 22.5 25 22.5H24V23.5ZM29.9285 21.1286C29.7234 20.6158 29.1414 20.3664 28.6286 20.5715C28.1158 20.7766 27.8664 21.3586 28.0715 21.8714L30.0715 26.8714C30.2234 27.251 30.5911 27.5 31 27.5C31.4089 27.5 31.7766 27.251 31.9285 26.8714L33.9285 21.8714C34.1336 21.3586 33.8842 20.7766 33.3714 20.5715C32.8586 20.3664 32.2766 20.6158 32.0715 21.1286L31 23.8074L29.9285 21.1286Z" fill="#333333"/>
<path d="M24 5V8M24 5H26M24 5H22" stroke="#333333" stroke-width="2" stroke-linecap="round" stroke-linejoin="round"/>
<path d="M24 40V43M24 43H26M24 43H22" stroke="#333333" stroke-width="2" stroke-linecap="round" stroke-linejoin="round"/>
<path d="M10.565 37.4354L12.6864 35.3141M10.565 37.4354L9.15082 36.0212M10.565 37.4354L11.9792 38.8496" stroke="#333333" stroke-width="2" stroke-linecap="round" stroke-linejoin="round"/>
<path d="M35.3138 12.6864L37.4351 10.5651M37.4351 10.5651L36.0209 9.15084M37.4351 10.5651L38.8493 11.9793" stroke="#333333" stroke-width="2" stroke-linecap="round" stroke-linejoin="round"/>
<path d="M5 24H8M5 24V22M5 24V26" stroke="#333333" stroke-width="2" stroke-linecap="round" stroke-linejoin="round"/>
<path d="M40 24H43M43 24V22M43 24V26" stroke="#333333" stroke-width="2" stroke-linecap="round" stroke-linejoin="round"/>
<path d="M10.565 10.5653L12.6863 12.6866M10.565 10.5653L11.9792 9.15107M10.565 10.5653L9.15076 11.9795" stroke="#333333" stroke-width="2" stroke-linecap="round" stroke-linejoin="round"/>
<path d="M35.3137 35.3143L37.4351 37.4356M37.4351 37.4356L38.8493 36.0214M37.4351 37.4356L36.0209 38.8498" stroke="#333333" stroke-width="2" stroke-linecap="round" stroke-linejoin="round"/>
</svg>
