<svg width="48" height="48" viewBox="0 0 48 48" fill="none" xmlns="http://www.w3.org/2000/svg">
<path d="M25 25C25 26.6569 23.6569 28 22 28C20.3431 28 19 26.6569 19 25C19 23.3431 20.3431 22 22 22C23.6569 22 25 23.3431 25 25Z" fill="#333333"/>
<path fill-rule="evenodd" clip-rule="evenodd" d="M24 33C28.9706 33 33 28.9706 33 24C33 19.0294 28.9706 15 24 15C19.0294 15 15 19.0294 15 24C15 28.9706 19.0294 33 24 33ZM24 31C27.866 31 31 27.866 31 24C31 20.134 27.866 17 24 17C20.134 17 17 20.134 17 24C17 27.866 20.134 31 24 31Z" fill="#333333"/>
<path d="M16 17C17.6569 17 19 15.6569 19 14C19 12.3431 17.6569 11 16 11C14.3431 11 13 12.3431 13 14C13 15.6569 14.3431 17 16 17Z" fill="#333333"/>
<path d="M34 35C35.6569 35 37 33.6569 37 32C37 30.3431 35.6569 29 34 29C32.3431 29 31 30.3431 31 32C31 33.6569 32.3431 35 34 35Z" fill="#333333"/>
<path fill-rule="evenodd" clip-rule="evenodd" d="M31 16C32.6569 16 34 14.6569 34 13C34 11.3431 32.6569 10 31 10C29.3431 10 28 11.3431 28 13C28 14.6569 29.3431 16 31 16ZM31 14C31.5523 14 32 13.5523 32 13C32 12.4477 31.5523 12 31 12C30.4477 12 30 12.4477 30 13C30 13.5523 30.4477 14 31 14Z" fill="#333333"/>
<path fill-rule="evenodd" clip-rule="evenodd" d="M16 31C16 32.6569 14.6569 34 13 34C11.3431 34 10 32.6569 10 31C10 29.3431 11.3431 28 13 28C14.6569 28 16 29.3431 16 31ZM14 31C14 31.5523 13.5523 32 13 32C12.4477 32 12 31.5523 12 31C12 30.4477 12.4477 30 13 30C13.5523 30 14 30.4477 14 31Z" fill="#333333"/>
<path fill-rule="evenodd" clip-rule="evenodd" d="M24 43C34.4934 43 43 34.4934 43 24C43 13.5066 34.4934 5 24 5C13.5066 5 5 13.5066 5 24C5 34.4934 13.5066 43 24 43ZM24 41C33.3888 41 41 33.3888 41 24C41 14.6112 33.3888 7 24 7C14.6112 7 7 14.6112 7 24C7 33.3888 14.6112 41 24 41Z" fill="#333333"/>
</svg>
