<svg width="48" height="48" viewBox="0 0 48 48" fill="none" xmlns="http://www.w3.org/2000/svg">
<path d="M25.3809 34.5451C25.0296 34.7218 24.6259 34.7641 24.2457 34.6641L11.8958 30.9603C9.95958 30.4513 10.3498 28.4641 12.3391 28.6895L25.177 29.6862C25.5676 29.7304 25.9287 29.9158 26.1924 30.2075L27.2135 31.337C27.9285 32.1278 27.6938 33.3823 26.7413 33.8612L25.3809 34.5451Z" fill="#333333"/>
<path fill-rule="evenodd" clip-rule="evenodd" d="M13.4754 12.6474C16.277 10.4336 19.6145 9.22747 23 9.0292L23 12C23 12.5523 23.4477 13 24 13C24.5523 13 25 12.5523 25 12L25 9.02919C28.2806 9.22132 31.5161 10.3598 34.2626 12.4445L32.2929 14.4139C31.9024 14.8044 31.9023 15.4376 32.2928 15.8281C32.6833 16.2187 33.3165 16.2187 33.7071 15.8282L35.7864 13.7492C35.8651 13.8249 35.9433 13.9016 36.0208 13.9791C38.8307 16.789 40.4513 20.3378 40.8827 24H38C37.4477 24 37 24.4477 37 25C37 25.5523 37.4477 26 38 26H41C41 29.8577 39.6951 33.7154 37.0852 36.8542C37.0407 36.693 36.9551 36.5409 36.8285 36.4142L34.7071 34.2929C34.3166 33.9024 33.6834 33.9024 33.2929 34.2929C32.9024 34.6834 32.9024 35.3166 33.2929 35.7071L35.4143 37.8284C35.6095 38.0237 35.8655 38.1213 36.1214 38.1213L37.435 39.435C44.855 32.015 44.855 19.9849 37.435 12.5649C30.0151 5.14495 17.9849 5.14495 10.565 12.5649C3.14501 19.9849 3.14501 32.015 10.565 39.435L11.9792 38.0208L14.1005 35.8992C14.491 35.5087 14.491 34.8755 14.1005 34.485C13.7099 34.0945 13.0768 34.0945 12.6862 34.485L10.6472 36.5241C8.21575 33.4471 7.00001 29.7235 7 26H10C10.5523 26 11 25.5523 11 25C11 24.4477 10.5523 24 10 24H7.11734C7.54868 20.3379 9.16921 16.7892 11.9789 13.9794L14.1006 16.1009C14.4911 16.4914 15.1243 16.4914 15.5148 16.1009C15.9053 15.7103 15.9053 15.0772 15.5148 14.6867L13.4754 12.6474Z" fill="#333333"/>
</svg>
