<svg width="48" height="48" viewBox="0 0 48 48" fill="none" xmlns="http://www.w3.org/2000/svg">
<path d="M18 18V30L28.4453 36.9635C29.1099 37.4066 30 36.9302 30 36.1315V11.8685C30 11.0698 29.1099 10.5934 28.4453 11.0365L18 18Z" fill="#333333"/>
<path d="M8 27V21C8 19.3431 9.34315 18 11 18H16V30H11C9.34315 30 8 28.6569 8 27Z" fill="#333333"/>
<path d="M12 32V36C12 37.1046 12.8954 38 14 38C15.1046 38 16 37.1046 16 36V32H12Z" fill="#333333"/>
<path d="M32 27C33.6569 27 35 25.6569 35 24C35 22.3431 33.6569 21 32 21V27Z" fill="#333333"/>
<path d="M42.5547 18.832C43.0142 18.5257 43.1384 17.9048 42.832 17.4453C42.5257 16.9858 41.9048 16.8616 41.4453 17.1679L38.4453 19.1679C37.9858 19.4743 37.8616 20.0952 38.1679 20.5547C38.4743 21.0142 39.0952 21.1384 39.5547 20.832L42.5547 18.832Z" fill="#333333"/>
<path d="M39 23C38.4477 23 38 23.4477 38 24C38 24.5523 38.4477 25 39 25H43C43.5523 25 44 24.5523 44 24C44 23.4477 43.5523 23 43 23H39Z" fill="#333333"/>
<path d="M39.5547 27.1679C39.0952 26.8616 38.4743 26.9858 38.1679 27.4453C37.8616 27.9048 37.9858 28.5257 38.4453 28.832L41.4453 30.832C41.9048 31.1384 42.5257 31.0142 42.832 30.5547C43.1384 30.0952 43.0142 29.4743 42.5547 29.1679L39.5547 27.1679Z" fill="#333333"/>
</svg>
