<svg width="48" height="48" viewBox="0 0 48 48" fill="none" xmlns="http://www.w3.org/2000/svg">
<path d="M8 27V21C8 19.3431 9.34315 18 11 18H16V30H11C9.34315 30 8 28.6569 8 27Z" fill="#333333"/>
<path d="M12 32V36C12 37.1046 12.8954 38 14 38C15.1046 38 16 37.1046 16 36V32H12Z" fill="#333333"/>
<path d="M18 30V18L28.4453 11.0365C29.1099 10.5934 30 11.0698 30 11.8685V36.1315C30 36.9302 29.1099 37.4066 28.4453 36.9635L18 30Z" fill="#333333"/>
<path d="M32 21V27C33.6569 27 35 25.6569 35 24C35 22.3431 33.6569 21 32 21Z" fill="#333333"/>
<path d="M39 24H43M39 20L42 18M39 28L42 30" stroke="#333333" stroke-width="2" stroke-linecap="round" stroke-linejoin="round"/>
</svg>
