<svg width="48" height="48" viewBox="0 0 48 48" fill="none" xmlns="http://www.w3.org/2000/svg">
<path d="M40.9775 24.8316C40.9775 24.8316 40.9775 24.7498 40.9775 24.7226C40.9372 24.5046 40.8388 24.2987 40.6908 24.1227C39.1822 22.3231 31.8802 20.6599 27.7313 19.8419H27.6558L30.3866 17.6333V14.0205L34.8372 9.7805C34.9669 9.68917 35.0731 9.57337 35.1482 9.44117C35.2234 9.30897 35.2658 9.16355 35.2724 9.01505C35.279 8.86654 35.2497 8.71851 35.1866 8.58128C35.1234 8.44404 35.0279 8.3209 34.9067 8.22042C34.7855 8.11994 34.6416 8.04455 34.4848 7.99949C34.3281 7.95444 34.1624 7.9408 33.9992 7.95953C33.8361 7.97826 33.6794 8.0289 33.5401 8.10794C33.4008 8.18698 33.2822 8.29251 33.1927 8.41718L28.1085 13.2161V16.7198L26.464 18.0832C26.2427 16.7551 25.7297 15.4804 24.9553 14.334L24.6687 4.68166C24.6687 4.50087 24.5892 4.32749 24.4477 4.19965C24.3063 4.07182 24.1144 4 23.9143 4C23.7143 4 23.5224 4.07182 23.3809 4.19965C23.2395 4.32749 23.16 4.50087 23.16 4.68166L22.8281 14.3067C22.0537 15.4531 21.5407 16.7278 21.3194 18.0559L19.6749 16.6926V13.2161L14.651 8.37628C14.44 8.2277 14.1775 8.15151 13.9101 8.16125C13.6428 8.17098 13.3879 8.26601 13.1907 8.42946C12.9936 8.59291 12.8669 8.81421 12.8332 9.05406C12.7995 9.29391 12.8609 9.5368 13.0066 9.7396L17.5326 13.9795V17.5924L20.2633 19.801C16.1145 20.619 8.82754 22.2822 7.30377 24.0818C7.15583 24.2578 7.05745 24.4637 7.01712 24.6817C7.01712 24.6817 7.01712 24.6817 7.01712 24.7907C6.93013 25.618 7.17657 26.4458 7.71112 27.122C7.77191 27.198 7.83739 27.2708 7.90725 27.3402C8.14705 27.5975 8.42649 27.8225 8.73702 28.0082C9.87057 28.6308 11.1835 28.9346 12.5087 28.8807H12.5992C12.8708 28.8807 13.1725 28.8807 13.4743 28.8807L12.8105 32.3708L9.17454 34.9202C8.98968 35.0513 8.85458 35.2312 8.78798 35.4348C8.72138 35.6385 8.72659 35.8558 8.80289 36.0566C8.87918 36.2574 9.02278 36.4318 9.21374 36.5556C9.4047 36.6793 9.63355 36.7462 9.86853 36.7471C10.1209 36.7494 10.3663 36.6723 10.5625 36.529L14.8623 33.5569L15.8429 28.4308C15.9411 28.4117 16.037 28.3844 16.1295 28.349L16.9744 33.0798L14.0928 42.7185C14.0517 42.8474 14.0394 42.9824 14.0567 43.1157C14.074 43.2489 14.1206 43.3777 14.1936 43.4945C14.2667 43.6113 14.3648 43.7137 14.4822 43.7959C14.5996 43.878 14.7339 43.9381 14.8773 43.9727H15.1791C15.4259 43.9719 15.6656 43.8982 15.8617 43.7628C16.0578 43.6274 16.1995 43.4378 16.2653 43.2229L19.2827 33.0934L18.2417 27.2993C18.5133 27.1357 18.7999 26.9857 19.0866 26.7812C19.0866 26.7812 19.9616 26.1541 19.9616 26.1813C19.9589 26.2176 19.9589 26.2541 19.9616 26.2904C20.2405 26.2169 20.5318 26.1892 20.8215 26.2086C21.1233 30.9257 22.3302 34.4703 23.8389 34.4703C25.3476 34.4703 26.5847 30.9666 26.8563 26.2904H27.7313C27.7378 26.2543 27.7378 26.2174 27.7313 26.1813L28.6063 26.7812C28.8772 26.9678 29.1592 27.1407 29.4512 27.2993L28.4404 33.1207L31.4577 43.2502C31.5235 43.4651 31.6653 43.6547 31.8614 43.7901C32.0575 43.9254 32.2972 43.9992 32.544 44H32.8457C32.9891 43.9654 33.1235 43.9052 33.2409 43.8231C33.3583 43.741 33.4564 43.6385 33.5294 43.5217C33.6025 43.405 33.649 43.2762 33.6663 43.1429C33.6836 43.0097 33.6714 42.8746 33.6302 42.7457L30.8241 33.0116L31.6689 28.2808C31.7614 28.3162 31.8574 28.3436 31.9556 28.3626L32.9664 33.5569L37.2963 36.5971C37.4926 36.7405 37.738 36.8176 37.9903 36.8153C38.2435 36.8312 38.4953 36.7696 38.7052 36.6406C38.915 36.5116 39.0708 36.3225 39.1474 36.1038C39.224 35.8851 39.217 35.6495 39.1276 35.4348C39.0381 35.2202 38.8713 35.0389 38.6541 34.9202L35.0182 32.3572L34.3544 28.8671C34.6561 28.8671 34.9579 28.8671 35.2294 28.8671H35.4708C36.7888 28.9557 38.1063 28.6901 39.2576 28.1036C39.5681 27.9179 39.8476 27.693 40.0874 27.4356C40.1572 27.3663 40.2227 27.2934 40.2835 27.2175C40.8324 26.5267 41.0795 25.677 40.9775 24.8316V24.8316Z" fill="#333333"/>
</svg>
