<svg width="48" height="48" viewBox="0 0 48 48" fill="none" xmlns="http://www.w3.org/2000/svg">
<path fill-rule="evenodd" clip-rule="evenodd" d="M6.05557 40.0011C5.99423 41.104 6.89546 42.0001 8.00003 42.0001H22C23.1046 42.0002 23.9885 41.102 24.111 40.0042C24.2983 38.3257 24.7213 36.6784 25.3702 35.1118C26.2748 32.928 27.6007 30.9437 29.2721 29.2722C30.9436 27.6008 32.9279 26.2749 35.1117 25.3703C36.6783 24.7214 38.3256 24.2984 40.0041 24.1111C41.1019 23.9887 42 23.1047 42 22.0002L42.0001 8.00015C42.0001 6.89558 41.1039 5.99436 40.0011 6.05569C35.9568 6.2806 31.9745 7.18675 28.2234 8.74048C23.8557 10.5496 19.8871 13.2014 16.5442 16.5443C13.2013 19.8872 10.5495 23.8558 8.74037 28.2235C7.18664 31.9746 6.28048 35.9569 6.05557 40.0011ZM38.3763 15.2442C38.9236 15.17 39.3071 14.6663 39.233 14.119C39.1589 13.5717 38.6551 13.1881 38.1079 13.2622C37.3076 13.3706 36.5147 13.512 35.7311 13.6855C35.1918 13.8049 34.8515 14.3388 34.9708 14.878C35.0902 15.4173 35.6241 15.7576 36.1634 15.6382C36.893 15.4767 37.6312 15.3451 38.3763 15.2442ZM31.874 16.9706C32.386 16.7635 32.6331 16.1805 32.426 15.6685C32.2189 15.1566 31.6359 14.9094 31.1239 15.1166C29.6307 15.7207 28.1903 16.4482 26.8179 17.2915C26.3473 17.5807 26.2002 18.1965 26.4894 18.6671C26.7785 19.1376 27.3943 19.2847 27.8649 18.9956C29.1427 18.2104 30.4838 17.5331 31.874 16.9706ZM24.2469 21.6571C24.663 21.2939 24.706 20.6622 24.3428 20.2461C23.9797 19.83 23.348 19.7871 22.9319 20.1502C22.3271 20.678 21.7428 21.2322 21.1806 21.812C20.6184 22.3918 20.0824 22.9929 19.5736 23.6136C19.2234 24.0407 19.2858 24.6708 19.7129 25.0209C20.1399 25.3711 20.77 25.3087 21.1202 24.8816C21.594 24.3038 22.093 23.7441 22.6164 23.2043C23.1398 22.6644 23.6839 22.1484 24.2469 21.6571ZM18.5713 28.5799C18.8458 28.1006 18.6799 27.4896 18.2006 27.2151C17.7214 26.9406 17.1104 27.1066 16.8359 27.5858C16.0352 28.9836 15.3524 30.4457 14.7946 31.9568C14.6033 32.4749 14.8682 33.05 15.3864 33.2413C15.9045 33.4325 16.4795 33.1676 16.6708 32.6495C17.1902 31.2425 17.8259 29.8812 18.5713 28.5799ZM15.4712 36.9778C15.5739 36.4351 15.2173 35.912 14.6746 35.8093C14.132 35.7065 13.6088 36.0632 13.5061 36.6058C13.3568 37.3944 13.2399 38.1913 13.1562 38.9945C13.099 39.5438 13.4979 40.0355 14.0472 40.0928C14.5965 40.15 15.0882 39.7511 15.1454 39.2018C15.2233 38.4539 15.3322 37.712 15.4712 36.9778Z" fill="#333333"/>
</svg>
