<svg width="48" height="48" viewBox="0 0 48 48" fill="none" xmlns="http://www.w3.org/2000/svg">
<path fill-rule="evenodd" clip-rule="evenodd" d="M24 5C13.5066 5 5 13.5066 5 24C5 34.4934 13.5066 43 24 43C34.4934 43 43 34.4934 43 24C43 13.5066 34.4934 5 24 5ZM23 7.02892C14.0766 7.54654 7 14.9469 7 24C7 28.3346 8.62227 32.2903 11.2928 35.293L23 23.5858V7.02892ZM23 40.9711C19.0584 40.7424 15.4772 39.1709 12.707 36.7072L23 26.4142V40.9711ZM36.7072 35.293C39.3777 32.2903 41 28.3346 41 24C41 14.9469 33.9234 7.54654 25 7.02892V23.5858L36.7072 35.293ZM35.293 36.7072C32.5228 39.1709 28.9416 40.7424 25 40.9711V26.4142L35.293 36.7072Z" fill="#333333"/>
</svg>
