<svg width="48" height="48" viewBox="0 0 48 48" fill="none" xmlns="http://www.w3.org/2000/svg">
<path fill-rule="evenodd" clip-rule="evenodd" d="M27.7878 9.28881C27.9254 8.88442 28 8.45092 28 8C28 5.79086 26.2091 4 24 4C21.7909 4 20 5.79086 20 8C20 8.46437 20.0791 8.91026 20.2246 9.32492L10.0713 16.5773C9.4671 16.2109 8.75818 16 8 16C5.79086 16 4 17.7909 4 20C4 22.0719 5.5753 23.7759 7.59351 23.9796L10.9774 36.5483C9.79427 37.2431 9 38.5288 9 40C9 42.2091 10.7909 44 13 44C14.8638 44 16.4299 42.7252 16.874 41L29.126 41C29.57 42.7252 31.1361 44 33 44C35.2091 44 37 42.2091 37 40C37 38.8775 36.5376 37.863 35.7929 37.1365L40.3506 23.9848C42.3955 23.8073 44 22.091 44 20C44 17.7909 42.2091 16 40 16C39.2491 16 38.5465 16.2069 37.9462 16.5668L27.7878 9.28881ZM26.6887 10.9616C25.9784 11.6068 25.0351 12 24 12C22.9783 12 22.0461 11.617 21.3391 10.9867L11.481 18.0282C11.8114 18.6101 12 19.283 12 20C12 21.647 11.0046 23.0614 9.58264 23.6747L12.9013 36.0012C12.9341 36.0004 12.967 36 13 36C14.8638 36 16.4299 37.2748 16.874 39L29.126 39C29.5701 37.2748 31.1362 36 33 36C33.354 36 33.6973 36.046 34.0242 36.1323L38.3515 23.6456C36.9647 23.0175 36 21.6214 36 20C36 19.2761 36.1923 18.5972 36.5285 18.0115L26.6887 10.9616Z" fill="#333333"/>
</svg>
