<svg width="48" height="48" viewBox="0 0 48 48" fill="none" xmlns="http://www.w3.org/2000/svg">
<mask id="path-1-inside-1" fill="white">
<path fill-rule="evenodd" clip-rule="evenodd" d="M19.826 8.4C21.686 5.2 26.3359 5.2 28.1959 8.4L43.3662 34.5C45.2262 37.7 42.7554 42 39.0355 42H8.83339C5.11346 42 2.79571 37.7 4.65568 34.5L19.826 8.4ZM25.802 35.2177C25.802 36.213 24.9952 37.0198 24 37.0198C23.0048 37.0198 22.198 36.213 22.198 35.2177C22.198 34.2225 23.0048 33.4157 24 33.4157C24.9952 33.4157 25.802 34.2225 25.802 35.2177ZM19.3631 21.1879C19.1012 21.7088 19.0139 22.0017 18.9632 22.6296C18.9107 23.2805 19.028 23.8262 19.6418 24.0881C19.8741 24.1872 20.1117 24.2105 20.4049 24.105C20.825 23.9538 21.0012 23.6832 21.106 23.3081C21.1285 23.1588 21.1245 23.0456 21.1207 22.94C21.1169 22.8346 21.1134 22.7368 21.137 22.6183C21.2863 21.8655 21.8246 21.5132 22.5251 21.3203C23.5014 21.0514 25.0492 21.2347 25.4083 21.3991C26.1599 21.6695 26.85 22.0877 26.8866 23.3419C26.9177 24.41 26.6426 24.9291 25.4083 25.679C25.2591 25.7815 25.1071 25.8754 24.953 25.9705C24.5403 26.2254 24.1127 26.4895 23.6833 26.9545C23.2766 27.417 23.0061 27.8716 22.9469 28.37V29.0993C22.9469 29.3948 22.9435 29.6905 22.9402 29.9788C22.9349 30.4287 22.9299 30.8604 22.9385 31.2448C22.9526 31.8755 23.5402 31.9797 24 31.9797C24.5056 31.9797 25.0024 31.7798 25.0024 31.2702C25.0024 30.9017 25.0031 30.5535 25.0038 30.2021C25.0045 29.8442 25.0052 29.4829 25.0052 29.0936C25.0052 28.7425 25.1314 28.5904 25.2794 28.4118C25.2893 28.3999 25.2993 28.3878 25.3093 28.3756C25.631 28.0728 26.0068 27.8448 26.4142 27.5978C26.5559 27.5118 26.7015 27.4235 26.85 27.3289C27.5792 26.8644 28.0044 26.4279 28.286 26.0337C28.7027 25.4987 28.9342 24.8787 29.0152 24.0712C29.1025 23.2012 29.0434 22.1678 28.4859 21.1879C27.6936 19.8478 26.3206 19.2339 24.6791 19.0593C23.84 18.9861 23.3557 19.0199 22.5251 19.1172C21.9408 19.2319 21.6084 19.303 21.0835 19.552C20.3626 19.9209 19.8051 20.3404 19.3631 21.1879Z"/>
</mask>
<path fill-rule="evenodd" clip-rule="evenodd" d="M19.826 8.4C21.686 5.2 26.3359 5.2 28.1959 8.4L43.3662 34.5C45.2262 37.7 42.7554 42 39.0355 42H8.83339C5.11346 42 2.79571 37.7 4.65568 34.5L19.826 8.4ZM25.802 35.2177C25.802 36.213 24.9952 37.0198 24 37.0198C23.0048 37.0198 22.198 36.213 22.198 35.2177C22.198 34.2225 23.0048 33.4157 24 33.4157C24.9952 33.4157 25.802 34.2225 25.802 35.2177ZM19.3631 21.1879C19.1012 21.7088 19.0139 22.0017 18.9632 22.6296C18.9107 23.2805 19.028 23.8262 19.6418 24.0881C19.8741 24.1872 20.1117 24.2105 20.4049 24.105C20.825 23.9538 21.0012 23.6832 21.106 23.3081C21.1285 23.1588 21.1245 23.0456 21.1207 22.94C21.1169 22.8346 21.1134 22.7368 21.137 22.6183C21.2863 21.8655 21.8246 21.5132 22.5251 21.3203C23.5014 21.0514 25.0492 21.2347 25.4083 21.3991C26.1599 21.6695 26.85 22.0877 26.8866 23.3419C26.9177 24.41 26.6426 24.9291 25.4083 25.679C25.2591 25.7815 25.1071 25.8754 24.953 25.9705C24.5403 26.2254 24.1127 26.4895 23.6833 26.9545C23.2766 27.417 23.0061 27.8716 22.9469 28.37V29.0993C22.9469 29.3948 22.9435 29.6905 22.9402 29.9788C22.9349 30.4287 22.9299 30.8604 22.9385 31.2448C22.9526 31.8755 23.5402 31.9797 24 31.9797C24.5056 31.9797 25.0024 31.7798 25.0024 31.2702C25.0024 30.9017 25.0031 30.5535 25.0038 30.2021C25.0045 29.8442 25.0052 29.4829 25.0052 29.0936C25.0052 28.7425 25.1314 28.5904 25.2794 28.4118C25.2893 28.3999 25.2993 28.3878 25.3093 28.3756C25.631 28.0728 26.0068 27.8448 26.4142 27.5978C26.5559 27.5118 26.7015 27.4235 26.85 27.3289C27.5792 26.8644 28.0044 26.4279 28.286 26.0337C28.7027 25.4987 28.9342 24.8787 29.0152 24.0712C29.1025 23.2012 29.0434 22.1678 28.4859 21.1879C27.6936 19.8478 26.3206 19.2339 24.6791 19.0593C23.84 18.9861 23.3557 19.0199 22.5251 19.1172C21.9408 19.2319 21.6084 19.303 21.0835 19.552C20.3626 19.9209 19.8051 20.3404 19.3631 21.1879Z" fill="#333333"/>
<path d="M28.1959 8.4L29.925 7.39496L28.1959 8.4ZM19.826 8.4L18.0969 7.39496V7.39496L19.826 8.4ZM43.3662 34.5L41.6371 35.5051L43.3662 34.5ZM4.65568 34.5L2.92655 33.495H2.92655L4.65568 34.5ZM18.9632 22.6296L16.9697 22.4687L18.9632 22.6296ZM19.3631 21.1879L17.5898 20.263L17.5829 20.2763L17.5762 20.2897L19.3631 21.1879ZM19.6418 24.0881L20.4266 22.2485L20.4266 22.2485L19.6418 24.0881ZM20.4049 24.105L21.082 25.9869L21.082 25.9869L20.4049 24.105ZM21.106 23.3081L23.0322 23.8463L23.0653 23.7281L23.0836 23.6067L21.106 23.3081ZM21.1207 22.94L19.122 23.0114L19.122 23.0114L21.1207 22.94ZM21.137 22.6183L23.0987 23.0074V23.0074L21.137 22.6183ZM22.5251 21.3203L23.0561 23.2485H23.0561L22.5251 21.3203ZM25.4083 21.3991L24.5757 23.2175L24.6521 23.2526L24.7313 23.281L25.4083 21.3991ZM26.8866 23.3419L28.8857 23.2836V23.2836L26.8866 23.3419ZM25.4083 25.679L24.3699 23.9697L24.3219 23.9988L24.2756 24.0306L25.4083 25.679ZM24.953 25.9705L26.0039 27.6722L26.0039 27.6722L24.953 25.9705ZM23.6833 26.9545L22.2139 25.5976L22.1974 25.6156L22.1812 25.6339L23.6833 26.9545ZM22.9469 28.37L20.9609 28.1344L20.9469 28.2518V28.37H22.9469ZM22.9402 29.9788L20.9403 29.9556V29.9556L22.9402 29.9788ZM22.9385 31.2448L20.939 31.2894V31.2894L22.9385 31.2448ZM25.0038 30.2021L27.0038 30.2061V30.2061L25.0038 30.2021ZM25.2794 28.4118L26.8191 29.6882L26.8191 29.6882L25.2794 28.4118ZM25.3093 28.3756L23.9383 26.9195L23.8453 27.007L23.7643 27.1056L25.3093 28.3756ZM26.4142 27.5978L25.3771 25.8877L25.3771 25.8877L26.4142 27.5978ZM26.85 27.3289L25.7754 25.6422H25.7754L26.85 27.3289ZM28.286 26.0337L26.7082 24.8047L26.6826 24.8375L26.6585 24.8713L28.286 26.0337ZM29.0152 24.0712L27.0252 23.8716L29.0152 24.0712ZM28.4859 21.1879L30.2242 20.1989L30.216 20.1844L30.2075 20.1701L28.4859 21.1879ZM24.6791 19.0593L24.8905 17.0705L24.8718 17.0685L24.853 17.0669L24.6791 19.0593ZM22.5251 19.1172L22.2923 17.1308L22.2157 17.1398L22.14 17.1546L22.5251 19.1172ZM21.0835 19.552L20.2263 17.745L20.1991 17.7579L20.1724 17.7716L21.0835 19.552ZM29.925 7.39496C27.294 2.86836 20.7279 2.86834 18.0969 7.39496L21.5552 9.40504C22.644 7.53165 25.3779 7.53165 26.4667 9.40504L29.925 7.39496ZM45.0954 33.495L29.925 7.39496L26.4667 9.40504L41.6371 35.5051L45.0954 33.495ZM39.0355 44C44.2936 44 47.7323 38.0317 45.0954 33.495L41.6371 35.5051C42.7201 37.3683 41.2172 40 39.0355 40V44ZM8.83339 44H39.0355V40H8.83339V44ZM2.92655 33.495C0.342777 37.9402 3.47054 44 8.83339 44V40C6.75638 40 5.24865 37.4598 6.38481 35.505L2.92655 33.495ZM18.0969 7.39496L2.92655 33.495L6.38481 35.505L21.5552 9.40504L18.0969 7.39496ZM24 39.0198C26.0998 39.0198 27.802 37.3175 27.802 35.2177H23.802C23.802 35.1084 23.8907 35.0198 24 35.0198V39.0198ZM20.198 35.2177C20.198 37.3175 21.9002 39.0198 24 39.0198V35.0198C24.1093 35.0198 24.198 35.1084 24.198 35.2177H20.198ZM24 31.4157C21.9002 31.4157 20.198 33.1179 20.198 35.2177H24.198C24.198 35.3271 24.1093 35.4157 24 35.4157V31.4157ZM27.802 35.2177C27.802 33.1179 26.0998 31.4157 24 31.4157V35.4157C23.8907 35.4157 23.802 35.3271 23.802 35.2177H27.802ZM20.9568 22.7905C20.977 22.5402 20.9975 22.4521 21.0095 22.4094C21.021 22.3683 21.0455 22.294 21.15 22.0862L17.5762 20.2897C17.4188 20.6027 17.2687 20.9353 17.1585 21.3279C17.0487 21.7187 17.0002 22.091 16.9697 22.4687L20.9568 22.7905ZM20.4266 22.2485C20.487 22.2742 20.5898 22.3315 20.6957 22.4392C20.8025 22.5479 20.8717 22.6665 20.9115 22.7666C20.9301 22.8136 20.9404 22.8516 20.946 22.8768C20.9515 22.9017 20.9527 22.9158 20.9528 22.9161C20.9528 22.9165 20.9519 22.9066 20.9521 22.8844C20.9523 22.8623 20.9535 22.8315 20.9568 22.7905L16.9697 22.4687C16.9334 22.9187 16.9289 23.5758 17.1938 24.2429C17.4945 25 18.0705 25.5921 18.857 25.9277L20.4266 22.2485ZM19.7277 22.2231C19.7941 22.1992 19.9186 22.1684 20.0808 22.1749C20.2416 22.1813 20.3633 22.2215 20.4266 22.2485L18.857 25.9277C19.5238 26.2121 20.2839 26.2741 21.082 25.9869L19.7277 22.2231ZM19.1798 22.77C19.1693 22.8074 19.1979 22.6796 19.3286 22.5206C19.4771 22.3399 19.6449 22.2529 19.7277 22.2231L21.082 25.9869C21.585 25.8059 22.0509 25.508 22.4187 25.0605C22.7688 24.6346 22.9379 24.184 23.0322 23.8463L19.1798 22.77ZM19.122 23.0114C19.1225 23.0252 19.1228 23.0346 19.1231 23.0434C19.1234 23.0517 19.1235 23.0572 19.1236 23.0612C19.1237 23.0688 19.1236 23.0683 19.1237 23.0633C19.1238 23.0579 19.1242 23.0493 19.125 23.0388C19.1259 23.0282 19.1271 23.0183 19.1284 23.0096L23.0836 23.6067C23.1359 23.2599 23.1237 22.9871 23.1194 22.8686L19.122 23.0114ZM19.1752 22.2292C19.1012 22.6021 19.1185 22.9132 19.122 23.0114L23.1194 22.8686C23.1184 22.8394 23.1181 22.8303 23.118 22.824C23.1179 22.8201 23.1182 22.8288 23.1177 22.8448C23.1165 22.8824 23.1121 22.9402 23.0987 23.0074L19.1752 22.2292ZM21.994 19.3921C21.4901 19.5309 20.8711 19.771 20.3232 20.2404C19.7353 20.744 19.3355 21.421 19.1752 22.2292L23.0987 23.0074C23.0966 23.0184 23.0848 23.0658 23.0478 23.1294C23.0105 23.1937 22.965 23.2444 22.9255 23.2782C22.8892 23.3093 22.8713 23.3149 22.8923 23.3049C22.9146 23.2943 22.9652 23.2735 23.0561 23.2485L21.994 19.3921ZM26.241 19.5807C25.8983 19.4238 25.5137 19.3481 25.2812 19.3083C24.9905 19.2585 24.6591 19.221 24.3163 19.2007C23.6721 19.1626 22.7893 19.173 21.994 19.3921L23.0561 23.2485C23.2372 23.1986 23.6165 23.1663 24.0801 23.1937C24.2911 23.2062 24.475 23.2285 24.606 23.2509C24.6717 23.2621 24.7099 23.271 24.723 23.2744C24.7524 23.2819 24.6862 23.2682 24.5757 23.2175L26.241 19.5807ZM28.8857 23.2836C28.856 22.2664 28.5415 21.3596 27.8886 20.6487C27.2857 19.9923 26.5546 19.686 26.0854 19.5172L24.7313 23.281C24.8622 23.3281 24.9305 23.3608 24.9656 23.3806C24.9957 23.3977 24.9768 23.3918 24.9425 23.3544C24.9256 23.336 24.9093 23.3147 24.8954 23.292C24.8816 23.2693 24.874 23.2518 24.8708 23.2432C24.8643 23.2256 24.8835 23.2663 24.8874 23.4003L28.8857 23.2836ZM26.4468 27.3882C27.1371 26.9688 27.8517 26.4494 28.3264 25.6761C28.8389 24.8414 28.9063 23.99 28.8857 23.2836L24.8874 23.4003C24.8928 23.5852 24.8814 23.6584 24.8787 23.6727C24.878 23.6763 24.88 23.6649 24.8878 23.6441C24.896 23.6226 24.9065 23.6014 24.9176 23.5834C24.9404 23.5462 24.9417 23.5614 24.8613 23.6304C24.7751 23.7045 24.6262 23.814 24.3699 23.9697L26.4468 27.3882ZM26.0039 27.6722C26.1513 27.5812 26.3449 27.4621 26.541 27.3273L24.2756 24.0306C24.1733 24.101 24.0629 24.1696 23.9022 24.2688L26.0039 27.6722ZM25.1526 28.3113C25.3784 28.0668 25.5938 27.9254 26.0039 27.6722L23.9022 24.2688C23.4868 24.5254 22.8469 24.9121 22.2139 25.5976L25.1526 28.3113ZM24.933 28.6056C24.928 28.6477 24.9173 28.6498 24.9458 28.5969C24.9781 28.5368 25.0468 28.4326 25.1853 28.275L22.1812 25.6339C21.6602 26.2265 21.0892 27.0525 20.9609 28.1344L24.933 28.6056ZM24.9469 29.0993V28.37H20.9469V29.0993H24.9469ZM24.94 30.0021C24.9433 29.7156 24.9469 29.4083 24.9469 29.0993H20.9469C20.9469 29.3813 20.9437 29.6654 20.9403 29.9556L24.94 30.0021ZM24.938 31.2002C24.9303 30.8564 24.9347 30.4608 24.94 30.0021L20.9403 29.9556C20.9352 30.3966 20.9295 30.8645 20.939 31.2894L24.938 31.2002ZM24 29.9797C23.9548 29.9797 23.946 29.9767 23.965 29.9798C23.9792 29.9821 24.075 29.998 24.209 30.0662C24.3542 30.1401 24.558 30.2836 24.7205 30.5327C24.8869 30.7876 24.9344 31.0372 24.938 31.2002L20.939 31.2894C20.9497 31.7678 21.0758 32.2669 21.3707 32.7187C21.6618 33.1648 22.0438 33.4526 22.3951 33.6313C23.0337 33.9562 23.6861 33.9797 24 33.9797V29.9797ZM23.0024 31.2702C23.0024 31.0582 23.0583 30.8052 23.2038 30.5638C23.3439 30.3313 23.5199 30.1871 23.6535 30.1061C23.7817 30.0283 23.8832 30.0001 23.9273 29.9901C23.9742 29.9794 23.9988 29.9797 24 29.9797V33.9797C24.4695 33.9797 25.1212 33.8941 25.7281 33.526C26.4339 33.0979 27.0024 32.3121 27.0024 31.2702H23.0024ZM23.0038 30.1981C23.0031 30.5493 23.0024 30.8994 23.0024 31.2702H27.0024C27.0024 30.904 27.0031 30.5577 27.0038 30.2061L23.0038 30.1981ZM23.0052 29.0936C23.0052 29.4806 23.0045 29.84 23.0038 30.1981L27.0038 30.2061C27.0045 29.8483 27.0052 29.4852 27.0052 29.0936H23.0052ZM23.7397 27.1353C23.6873 27.1985 23.4567 27.4622 23.2838 27.8225C23.088 28.2304 23.0052 28.658 23.0052 29.0936H27.0052C27.0052 29.1262 27.0022 29.1921 26.9834 29.2805C26.9638 29.3723 26.9321 29.4654 26.8898 29.5536C26.849 29.6386 26.8089 29.6968 26.7913 29.721C26.7804 29.736 26.7748 29.7417 26.8191 29.6882L23.7397 27.1353ZM23.7643 27.1056C23.7573 27.1141 23.75 27.123 23.7397 27.1353L26.8191 29.6882C26.8286 29.6767 26.8412 29.6616 26.8543 29.6456L23.7643 27.1056ZM25.3771 25.8877C25.0037 26.1141 24.44 26.4471 23.9383 26.9195L26.6803 29.8318C26.8219 29.6984 27.0099 29.5756 27.4513 29.3079L25.3771 25.8877ZM25.7754 25.6422C25.6485 25.723 25.5214 25.8002 25.3771 25.8877L27.4512 29.3079C27.5905 29.2234 27.7546 29.124 27.9246 29.0157L25.7754 25.6422ZM26.6585 24.8713C26.5406 25.0363 26.3108 25.3011 25.7754 25.6422L27.9246 29.0157C28.8477 28.4277 29.4682 27.8195 29.9134 27.1962L26.6585 24.8713ZM27.0252 23.8716C26.9747 24.3751 26.8529 24.6189 26.7082 24.8047L29.8638 27.2628C30.5525 26.3786 30.8937 25.3823 31.0052 24.2708L27.0252 23.8716ZM26.7476 22.177C27.0253 22.6651 27.0893 23.2331 27.0252 23.8716L31.0052 24.2708C31.1158 23.1692 31.0615 21.6705 30.2242 20.1989L26.7476 22.177ZM24.4676 21.0481C25.752 21.1847 26.411 21.6082 26.7642 22.2057L30.2075 20.1701C28.9763 18.0874 26.8892 17.283 24.8905 17.0705L24.4676 21.0481ZM22.7579 21.1036C23.5118 21.0153 23.8496 20.9945 24.5051 21.0517L24.853 17.0669C23.8305 16.9776 23.1997 17.0245 22.2923 17.1308L22.7579 21.1036ZM21.9407 21.359C22.2328 21.2204 22.365 21.1868 22.9102 21.0798L22.14 17.1546C21.5165 17.277 20.9839 17.3856 20.2263 17.745L21.9407 21.359ZM21.1364 22.1129C21.3299 21.7418 21.516 21.5773 21.9945 21.3325L20.1724 17.7716C19.2092 18.2645 18.2804 18.939 17.5898 20.263L21.1364 22.1129Z" fill="#333333" mask="url(#path-1-inside-1)"/>
</svg>
