<svg width="48" height="48" viewBox="0 0 48 48" fill="none" xmlns="http://www.w3.org/2000/svg">
<path fill-rule="evenodd" clip-rule="evenodd" d="M20 7H8V10H3V29H25V10H20V7ZM8 12H5V14H8V12ZM20 14V12H23V14H20ZM8 16V19H20V16H23V27H17V21H11V27H5V16H8ZM13 12V9H15V12H18V14H15V17H13V14H10V12H13Z" fill="#333333"/>
<path d="M35 28C37.7625 28 40 25.7625 40 23C40 20.2375 37.7625 18 35 18C32.2375 18 30 20.2375 30 23C30 25.7625 32.2375 28 35 28Z" fill="#333333"/>
<path d="M35 30C31.6625 30 25 31.7867 25 35.3333V39H15V33.4142L18.2929 36.7071L19.7071 35.2929L14 29.5858L8.29289 35.2929L9.70711 36.7071L13 33.4142V41H45V35.3333C45 31.7867 38.3375 30 35 30Z" fill="#333333"/>
</svg>
