<svg width="48" height="48" viewBox="0 0 48 48" fill="none" xmlns="http://www.w3.org/2000/svg">
<path fill-rule="evenodd" clip-rule="evenodd" d="M16.374 7.22522L13.3785 11.1621C10.9821 14.3288 10.9821 18.6936 13.3785 21.7747L30.0676 42.9998L37 37.608L30.3244 29.0494L18.8559 14.4144C19.455 14.072 20.1397 13.8153 20.8244 13.8153H25.8739C26.5586 13.8153 27.2433 13.9864 27.8424 14.3288C27.8424 14.4144 27.928 14.4144 27.928 14.4144L24.5046 18.7792L30.0676 25.9684L33.3198 21.8603C35.7162 18.7792 35.7162 14.4144 33.3198 11.2477L30.2388 7.22522C29.7253 6.54053 29.0406 5.94144 28.2703 5.5991C27.5 5.17117 26.6442 5 25.7883 5H20.8244C19.1127 5 17.4866 5.85585 16.374 7.22522ZM17.6577 12.9166C17.6364 12.8738 17.615 12.831 17.5722 12.7883C16.6307 11.4189 16.8019 9.53602 17.7433 8.25224C18.5136 7.3108 19.6262 6.7117 20.8244 6.7117H25.7883C26.3874 6.7117 26.9865 6.88287 27.5 7.13963C28.0136 7.39639 28.5271 7.82431 28.8694 8.25224C29.2973 8.76575 29.5541 9.36485 29.6397 9.96394C29.8964 10.991 29.5541 12.1892 28.955 13.045C28.8694 13.0022 28.7624 12.938 28.6554 12.8738C28.5485 12.8096 28.4415 12.7455 28.3559 12.7027C27.5856 12.2747 26.7298 12.1036 25.8739 12.1036H20.91C20.0541 12.1036 19.1983 12.3603 18.428 12.7027C18.1713 12.7883 17.9145 12.8738 17.7433 13.045C17.7005 13.0022 17.6791 12.9594 17.6577 12.9166Z" fill="#333333"/>
<path d="M22.1938 35.8964L16.6307 28.7073L9.61275 37.6081L16.6307 43L22.1938 35.8964Z" fill="#333333"/>
</svg>
