<svg width="48" height="48" viewBox="0 0 48 48" fill="none" xmlns="http://www.w3.org/2000/svg">
<path d="M12 29C14.21 29 16 27.21 16 25C16 22.79 14.21 21 12 21C9.79 21 8 22.79 8 25C8 27.21 9.79 29 12 29Z" fill="#333333"/>
<path d="M9.23058 29.0172C9.4261 28.949 9.62665 29.0886 9.71542 29.347L11.2958 31.0041C12 31.0038 12 31.0041 12.7041 31.0039L14.2846 29.347C14.3734 29.0886 14.5739 28.949 14.7694 29.0172C16.871 29.7507 19 31.2463 19 33.4962V34.6875C19 35.4124 18.4124 36 17.6875 36H6.3125C5.58763 36 5 35.4124 5 34.6875V33.4962C5 31.2463 7.12896 29.7507 9.23058 29.0172Z" fill="#333333"/>
<path d="M36 29C38.21 29 40 27.21 40 25C40 22.79 38.21 21 36 21C33.79 21 32 22.79 32 25C32 27.21 33.79 29 36 29Z" fill="#333333"/>
<path d="M33.2306 29.0172C33.4261 28.949 33.6266 29.0886 33.7154 29.347L35.2958 31.0041C36 31.0038 36 31.0041 36.7041 31.0039L38.2846 29.347C38.3734 29.0886 38.5739 28.949 38.7694 29.0172C40.871 29.7507 43 31.2463 43 33.4962V34.6875C43 35.4124 42.4124 36 41.6875 36H30.3125C29.5876 36 29 35.4124 29 34.6875V33.4962C29 31.2463 31.129 29.7507 33.2306 29.0172Z" fill="#333333"/>
<path d="M9.00006 14H39.0001" stroke="#333333" stroke-width="2"/>
<path d="M11.0001 11L8.87874 13.1213C8.48822 13.5118 8.48822 14.145 8.87874 14.5355L11.0001 16.6569" stroke="#333333" stroke-width="2" stroke-linecap="round"/>
<path d="M37.0001 17L39.1214 14.8787C39.5119 14.4882 39.5119 13.855 39.1214 13.4645L37.0001 11.3431" stroke="#333333" stroke-width="2" stroke-linecap="round"/>
</svg>
