<svg width="48" height="48" viewBox="0 0 48 48" fill="none" xmlns="http://www.w3.org/2000/svg">
<circle cx="40.5" cy="7.5" r="1.5" fill="#333333"/>
<circle cx="40.5" cy="12.5" r="1.5" fill="#333333"/>
<circle cx="40.5" cy="17.5" r="1.5" fill="#333333"/>
<circle cx="40.5" cy="21.3496" r="1" fill="#333333"/>
<circle cx="35.2016" cy="8.13231" r="1.5" transform="rotate(-8.05919 35.2016 8.13231)" fill="#333333"/>
<circle cx="35.9028" cy="13.0835" r="1.5" transform="rotate(-8.05919 35.9028 13.0835)" fill="#333333"/>
<circle cx="36.6037" cy="18.0337" r="1.5" transform="rotate(-8.05919 36.6037 18.0337)" fill="#333333"/>
<circle cx="37.3049" cy="22.9839" r="1.5" transform="rotate(-8.05919 37.3049 22.9839)" fill="#333333"/>
<circle cx="28.6767" cy="10.2455" r="1.5" transform="rotate(-24.1995 28.6767 10.2455)" fill="#333333"/>
<circle cx="30.7265" cy="14.806" r="1.5" transform="rotate(-24.1995 30.7265 14.806)" fill="#333333"/>
<circle cx="32.776" cy="19.3666" r="1.5" transform="rotate(-24.1995 32.776 19.3666)" fill="#333333"/>
<circle cx="34.1646" cy="22.676" r="1" transform="rotate(-24.1995 34.1646 22.676)" fill="#333333"/>
<circle cx="21.8851" cy="13.885" r="1.5" transform="rotate(-40.5309 21.8851 13.885)" fill="#333333"/>
<circle cx="25.5084" cy="17.6565" r="1.5" transform="rotate(-40.5309 25.5084 17.6565)" fill="#333333"/>
<circle cx="28.7577" cy="21.4563" r="1.5" transform="rotate(-40.5309 28.7577 21.4563)" fill="#333333"/>
<circle cx="32.007" cy="25.2571" r="1.5" transform="rotate(-40.5309 32.007 25.2571)" fill="#333333"/>
<circle cx="26.6935" cy="13.6913" r="0.868073" fill="#333333"/>
<circle cx="29.2865" cy="18.0341" r="0.868073" fill="#333333"/>
<circle cx="33.7106" cy="15.9208" r="0.868073" fill="#333333"/>
<circle cx="38.4662" cy="15.1317" r="0.868073" fill="#333333"/>
<circle cx="32.7096" cy="11.3603" r="0.868073" fill="#333333"/>
<circle cx="38.132" cy="10.1317" r="0.868073" fill="#333333"/>
<path fill-rule="evenodd" clip-rule="evenodd" d="M20.7262 12.958C19.246 14.0423 17.8476 15.2406 16.5442 16.5439C13.2013 19.8868 10.5495 23.8554 8.74037 28.2232C7.18664 31.9742 6.28048 35.9565 6.05557 40.0008C5.99423 41.1036 6.89546 41.9998 8.00003 41.9998H22C23.1046 41.9998 23.9885 41.1016 24.111 40.0039C24.2983 38.3253 24.7213 36.678 25.3702 35.1115C26.2748 32.9276 27.6007 30.9433 29.2721 29.2718C30.2824 28.2615 31.4071 27.3775 32.621 26.6364C28.8049 22.1898 24.0011 16.6345 20.7262 12.958ZM24.3428 20.2458C24.706 20.6619 24.663 21.2936 24.2469 21.6567C23.6839 22.1481 23.1398 22.6641 22.6164 23.2039C22.093 23.7437 21.594 24.3034 21.1202 24.8813C20.77 25.3084 20.1399 25.3707 19.7129 25.0206C19.2858 24.6704 19.2234 24.0403 19.5736 23.6132C20.0824 22.9925 20.6184 22.3914 21.1806 21.8116C21.7428 21.2318 22.3271 20.6776 22.9319 20.1499C23.348 19.7867 23.9797 19.8296 24.3428 20.2458ZM18.2006 27.2147C18.6799 27.4892 18.8458 28.1002 18.5713 28.5795C17.8259 29.8808 17.1902 31.2422 16.6708 32.6491C16.4795 33.1672 15.9045 33.4322 15.3864 33.2409C14.8682 33.0496 14.6033 32.4746 14.7946 31.9564C15.3524 30.4453 16.0352 28.9832 16.8359 27.5854C17.1104 27.1062 17.7214 26.9402 18.2006 27.2147ZM14.6746 35.8089C15.2173 35.9116 15.5739 36.4348 15.4712 36.9774C15.3322 37.7116 15.2233 38.4535 15.1454 39.2014C15.0882 39.7507 14.5965 40.1496 14.0472 40.0924C13.4979 40.0352 13.099 39.5435 13.1562 38.9941C13.2399 38.1909 13.3568 37.3941 13.5061 36.6054C13.6088 36.0628 14.132 35.7062 14.6746 35.8089Z" fill="#333333"/>
</svg>
