<svg width="48" height="48" viewBox="0 0 48 48" fill="none" xmlns="http://www.w3.org/2000/svg">
<circle cx="40.5" cy="7.5" r="1.5" fill="#333333"/>
<circle cx="40.5" cy="12.5" r="1.5" fill="#333333"/>
<circle cx="40.5" cy="17.5" r="1.5" fill="#333333"/>
<circle cx="40.5" cy="21.3496" r="1" fill="#333333"/>
<circle cx="35.2016" cy="8.13256" r="1.5" transform="rotate(-8.05919 35.2016 8.13256)" fill="#333333"/>
<circle cx="35.9028" cy="13.083" r="1.5" transform="rotate(-8.05919 35.9028 13.083)" fill="#333333"/>
<circle cx="36.6037" cy="18.0337" r="1.5" transform="rotate(-8.05919 36.6037 18.0337)" fill="#333333"/>
<circle cx="37.3049" cy="22.9844" r="1.5" transform="rotate(-8.05919 37.3049 22.9844)" fill="#333333"/>
<circle cx="28.6767" cy="10.2455" r="1.5" transform="rotate(-24.1995 28.6767 10.2455)" fill="#333333"/>
<circle cx="30.7265" cy="14.806" r="1.5" transform="rotate(-24.1995 30.7265 14.806)" fill="#333333"/>
<circle cx="32.776" cy="19.3666" r="1.5" transform="rotate(-24.1995 32.776 19.3666)" fill="#333333"/>
<circle cx="34.1646" cy="22.676" r="1" transform="rotate(-24.1995 34.1646 22.676)" fill="#333333"/>
<circle cx="21.8851" cy="13.8855" r="1.5" transform="rotate(-40.5309 21.8851 13.8855)" fill="#333333"/>
<circle cx="25.5084" cy="17.6565" r="1.5" transform="rotate(-40.5309 25.5084 17.6565)" fill="#333333"/>
<circle cx="28.7577" cy="21.4568" r="1.5" transform="rotate(-40.5309 28.7577 21.4568)" fill="#333333"/>
<circle cx="32.007" cy="25.2571" r="1.5" transform="rotate(-40.5309 32.007 25.2571)" fill="#333333"/>
<circle cx="26.6935" cy="13.6911" r="0.868073" fill="#333333"/>
<circle cx="29.2865" cy="18.0338" r="0.868073" fill="#333333"/>
<circle cx="33.7106" cy="15.9211" r="0.868073" fill="#333333"/>
<circle cx="38.4662" cy="15.1322" r="0.868073" fill="#333333"/>
<circle cx="32.7096" cy="11.3605" r="0.868073" fill="#333333"/>
<circle cx="38.132" cy="10.1317" r="0.868073" fill="#333333"/>
<path fill-rule="evenodd" clip-rule="evenodd" d="M20.7263 12.9585C19.2462 14.0427 17.8477 15.241 16.5443 16.5444C13.2014 19.8873 10.5497 23.8559 8.74049 28.2236C7.18676 31.9747 6.28061 35.957 6.05569 40.0012C5.99436 41.1041 6.89558 42.0003 8.00015 42.0003H22.0001C23.1047 42.0003 23.9887 41.1021 24.1111 40.0044C24.2984 38.3258 24.7214 36.6785 25.3703 35.1119C26.2749 32.9281 27.6008 30.9438 29.2722 29.2723C30.2826 28.262 31.4072 27.378 32.6211 26.6369C28.805 22.1903 24.0012 16.635 20.7263 12.9585ZM24.3429 20.2462C24.7061 20.6623 24.6631 21.2941 24.247 21.6572C23.684 22.1485 23.14 22.6646 22.6165 23.2044C22.0931 23.7442 21.5941 24.3039 21.1203 24.8817C20.7702 25.3088 20.1401 25.3712 19.713 25.021C19.2859 24.6709 19.2235 24.0408 19.5737 23.6137C20.0826 22.993 20.6185 22.3919 21.1807 21.8121C21.7429 21.2323 22.3273 20.6781 22.932 20.1503C23.3481 19.7872 23.9798 19.8301 24.3429 20.2462ZM18.2008 27.2152C18.68 27.4897 18.846 28.1007 18.5715 28.58C17.826 29.8813 17.1903 31.2426 16.6709 32.6496C16.4796 33.1677 15.9046 33.4326 15.3865 33.2414C14.8684 33.0501 14.6034 32.475 14.7947 31.9569C15.3525 30.4458 16.0354 28.9837 16.836 27.5859C17.1105 27.1067 17.7215 26.9407 18.2008 27.2152ZM14.6747 35.8094C15.2174 35.9121 15.574 36.4352 15.4713 36.9779C15.3323 37.7121 15.2235 38.454 15.1455 39.2019C15.0883 39.7512 14.5966 40.1501 14.0473 40.0929C13.498 40.0356 13.0991 39.5439 13.1563 38.9946C13.24 38.1914 13.3569 37.3945 13.5062 36.6059C13.6089 36.0633 14.1321 35.7066 14.6747 35.8094Z" fill="#333333"/>
</svg>
