<svg width="48" height="48" viewBox="0 0 48 48" fill="none" xmlns="http://www.w3.org/2000/svg">
<path d="M8.44356 12.6865C8.05303 12.296 8.05303 11.6628 8.44356 11.2723L11.272 8.4439C11.6625 8.05338 12.2957 8.05338 12.6862 8.4439C13.0767 8.83442 13.0767 9.46759 12.6862 9.85811L11.9791 10.5652L13.3933 11.9794C13.7838 12.37 13.7838 13.0031 13.3933 13.3936C13.0028 13.7842 12.3696 13.7842 11.9791 13.3936L10.5649 11.9794L9.85777 12.6865C9.46725 13.0771 8.83408 13.0771 8.44356 12.6865Z" fill="#333333"/>
<path d="M20.9999 4.99994C20.9999 4.44765 21.4476 3.99994 21.9999 3.99994L25.9999 3.99994C26.5522 3.99994 26.9999 4.44765 26.9999 4.99994C26.9999 5.55223 26.5522 5.99994 25.9999 5.99994L24.9999 5.99994V7.99994C24.9999 8.55222 24.5522 8.99994 23.9999 8.99994C23.4476 8.99994 22.9999 8.55222 22.9999 7.99994V5.99994L21.9999 5.99994C21.4476 5.99994 20.9999 5.55222 20.9999 4.99994Z" fill="#333333"/>
<path fill-rule="evenodd" clip-rule="evenodd" d="M14.8324 13.4186C17.0531 11.493 19.8859 10.2549 22.9999 10.0351V11.9999C22.9999 12.5522 23.4476 12.9999 23.9999 12.9999C24.5522 12.9999 24.9999 12.5522 24.9999 11.9999V10.0351C28.1137 10.2549 30.9465 11.4929 33.167 13.4184L31.7781 14.8073C31.3875 15.1978 31.3875 15.831 31.7781 16.2215C32.1686 16.6121 32.8017 16.6121 33.1923 16.2215L34.5812 14.8326C36.5068 17.0532 37.7449 19.886 37.9647 22.9999H35.9999C35.4476 22.9999 34.9999 23.4476 34.9999 23.9999C34.9999 24.5522 35.4476 24.9999 35.9999 24.9999L37.9647 24.9999C37.7449 28.1138 36.5068 30.9466 34.5814 33.1671L33.1923 31.778C32.8017 31.3875 32.1686 31.3875 31.778 31.778C31.3875 32.1685 31.3875 32.8017 31.778 33.1922L33.1672 34.5814C30.9466 36.5069 28.1138 37.745 24.9999 37.9648V35.9999C24.9999 35.4476 24.5522 34.9999 23.9999 34.9999C23.4476 34.9999 22.9999 35.4476 22.9999 35.9999V37.9648C19.886 37.745 17.0534 36.5069 14.8328 34.5816L16.2217 33.1927C16.6122 32.8022 16.6122 32.169 16.2217 31.7785C15.8312 31.3879 15.198 31.3879 14.8075 31.7785L13.4186 33.1674C11.493 30.9468 10.2548 28.1139 10.035 24.9999H11.9999C12.5522 24.9999 12.9999 24.5522 12.9999 23.9999C12.9999 23.4476 12.5522 22.9999 11.9999 22.9999H10.035C10.2548 19.8861 11.4929 17.0534 13.4183 14.8328L14.8075 16.2221C15.198 16.6126 15.8312 16.6126 16.2217 16.2221C16.6122 15.8315 16.6122 15.1984 16.2217 14.8079L14.8324 13.4186ZM17.9999 21.4999C17.9999 20.9477 17.5522 20.4999 16.9999 20.4999C16.4476 20.4999 15.9999 20.9477 15.9999 21.4999L15.9999 26.4999C15.9999 27.0522 16.4476 27.4999 16.9999 27.4999C17.5522 27.4999 17.9999 27.0522 17.9999 26.4999L17.9999 24.9999L19.9999 24.9999V26.4999C19.9999 27.0522 20.4476 27.4999 20.9999 27.4999C21.5522 27.4999 21.9999 27.0522 21.9999 26.4999V21.4999C21.9999 20.9477 21.5522 20.4999 20.9999 20.4999C20.4476 20.4999 19.9999 20.9477 19.9999 21.4999L19.9999 22.9999H17.9999V21.4999ZM25.4999 21.4999V26.4999C25.4999 27.0522 25.0522 27.4999 24.4999 27.4999C23.9476 27.4999 23.4999 27.0522 23.4999 26.4999V21.4999C23.4999 20.9477 23.9476 20.4999 24.4999 20.4999C25.0522 20.4999 25.4999 20.9477 25.4999 21.4999ZM28.4284 21.1285C28.2232 20.6158 27.6413 20.3663 27.1285 20.5715C26.6157 20.7766 26.3663 21.3585 26.5714 21.8713L28.5714 26.8713C28.7233 27.251 29.091 27.4999 29.4999 27.4999C29.9088 27.4999 30.2765 27.251 30.4284 26.8713L32.4284 21.8713C32.6335 21.3585 32.3841 20.7766 31.8713 20.5715C31.3585 20.3664 30.7765 20.6158 30.5714 21.1285L29.4999 23.8074L28.4284 21.1285Z" fill="#333333"/>
<path d="M25.9999 41.9999H24.9999L24.9999 39.9999C24.9999 39.4477 24.5522 38.9999 23.9999 38.9999C23.4476 38.9999 22.9999 39.4477 22.9999 39.9999L22.9999 41.9999H21.9999C21.4476 41.9999 20.9999 42.4477 20.9999 42.9999C20.9999 43.5522 21.4476 43.9999 21.9999 43.9999H25.9999C26.5522 43.9999 26.9999 43.5522 26.9999 42.9999C26.9999 42.4477 26.5522 41.9999 25.9999 41.9999Z" fill="#333333"/>
<path d="M12.6862 39.5566C12.2957 39.9472 11.6625 39.9471 11.272 39.5566L8.44359 36.7282C8.05307 36.3377 8.05307 35.7045 8.44359 35.314C8.83412 34.9235 9.46728 34.9235 9.85781 35.314L10.5649 36.0211L11.9791 34.6069C12.3697 34.2164 13.0028 34.2164 13.3933 34.6069C13.7839 34.9974 13.7839 35.6306 13.3933 36.0211L11.9791 37.4353L12.6862 38.1424C13.0768 38.5329 13.0768 39.1661 12.6862 39.5566Z" fill="#333333"/>
<path d="M34.6066 11.9795C34.2161 12.37 34.2161 13.0032 34.6066 13.3937C34.9971 13.7842 35.6303 13.7842 36.0208 13.3937L37.435 11.9795L38.1421 12.6866C38.5326 13.0771 39.1658 13.0771 39.5563 12.6866C39.9469 12.2961 39.9469 11.6629 39.5563 11.2724L36.7279 8.44395C36.3374 8.05343 35.7042 8.05343 35.3137 8.44395C34.9232 8.83447 34.9232 9.46764 35.3137 9.85816L36.0208 10.5653L34.6066 11.9795Z" fill="#333333"/>
<path d="M4.99988 26.9999C4.44759 26.9999 3.99988 26.5522 3.99988 25.9999V21.9999C3.99988 21.4477 4.44759 20.9999 4.99988 20.9999C5.55216 20.9999 5.99988 21.4477 5.99988 21.9999V22.9999L7.99988 22.9999C8.55216 22.9999 8.99988 23.4477 8.99988 23.9999C8.99988 24.5522 8.55216 24.9999 7.99988 24.9999H5.99988L5.99988 25.9999C5.99988 26.5522 5.55216 26.9999 4.99988 26.9999Z" fill="#333333"/>
<path d="M39.9999 22.9999C39.4476 22.9999 38.9999 23.4477 38.9999 23.9999C38.9999 24.5522 39.4476 24.9999 39.9999 24.9999L41.9999 24.9999V25.9999C41.9999 26.5522 42.4476 26.9999 42.9999 26.9999C43.5522 26.9999 43.9999 26.5522 43.9999 25.9999V21.9999C43.9999 21.4477 43.5522 20.9999 42.9999 20.9999C42.4476 20.9999 41.9999 21.4477 41.9999 21.9999V22.9999L39.9999 22.9999Z" fill="#333333"/>
<path d="M36.0208 34.6068C35.6302 34.2163 34.9971 34.2163 34.6065 34.6068C34.216 34.9974 34.216 35.6305 34.6065 36.021L36.0208 37.4353L35.3137 38.1424C34.9231 38.5329 34.9231 39.1661 35.3137 39.5566C35.7042 39.9471 36.3373 39.9471 36.7279 39.5566L39.5563 36.7281C39.9468 36.3376 39.9468 35.7045 39.5563 35.3139C39.1658 34.9234 38.5326 34.9234 38.1421 35.3139L37.435 36.021L36.0208 34.6068Z" fill="#333333"/>
</svg>
