<svg width="48" height="48" viewBox="0 0 48 48" fill="none" xmlns="http://www.w3.org/2000/svg">
<path fill-rule="evenodd" clip-rule="evenodd" d="M14.8326 13.4187C17.0532 11.4931 19.886 10.2549 23 10.0352V12C23 12.5523 23.4477 13 24 13C24.5523 13 25 12.5523 25 12V10.0352C28.1139 10.2549 30.9466 11.493 33.1671 13.4184L31.7782 14.8074C31.3877 15.1979 31.3877 15.8311 31.7782 16.2216C32.1687 16.6121 32.8019 16.6121 33.1924 16.2216L34.5814 14.8326C36.5069 17.0532 37.7451 19.886 37.9648 23H36C35.4477 23 35 23.4477 35 24C35 24.5523 35.4477 25 36 25H37.9648C37.7451 28.1139 36.507 30.9466 34.5815 33.1672L33.1924 31.7781C32.8019 31.3876 32.1687 31.3876 31.7782 31.7781C31.3876 32.1686 31.3876 32.8018 31.7782 33.1923L33.1673 34.5814C30.9467 36.5069 28.1139 37.7451 25 37.9648V36C25 35.4477 24.5523 35 24 35C23.4477 35 23 35.4477 23 36V37.9648C19.8862 37.7451 17.0535 36.507 14.8329 34.5816L16.2218 33.1927C16.6123 32.8022 16.6123 32.1691 16.2218 31.7785C15.8313 31.388 15.1981 31.388 14.8076 31.7785L13.4187 33.1674C11.4931 30.9468 10.2549 28.114 10.0352 25H12C12.5523 25 13 24.5523 13 24C13 23.4477 12.5523 23 12 23H10.0352C10.2549 19.8861 11.493 17.0535 13.4184 14.8329L14.8076 16.2221C15.1981 16.6126 15.8313 16.6126 16.2218 16.2221C16.6123 15.8316 16.6123 15.1984 16.2218 14.8079L14.8326 13.4187ZM18 21.5C18 20.9477 17.5523 20.5 17 20.5C16.4477 20.5 16 20.9477 16 21.5V24V26.5C16 27.0523 16.4477 27.5 17 27.5C17.5523 27.5 18 27.0523 18 26.5V25H20V26.5C20 27.0523 20.4477 27.5 21 27.5C21.5523 27.5 22 27.0523 22 26.5V24V21.5C22 20.9477 21.5523 20.5 21 20.5C20.4477 20.5 20 20.9477 20 21.5V23H18V21.5ZM24.5 20.5C25.0523 20.5 25.5 20.9477 25.5 21.5V24V26.5C25.5 27.0523 25.0523 27.5 24.5 27.5C23.9477 27.5 23.5 27.0523 23.5 26.5V24V21.5C23.5 20.9477 23.9477 20.5 24.5 20.5ZM28.4285 21.1286C28.2234 20.6158 27.6414 20.3664 27.1286 20.5715C26.6158 20.7766 26.3664 21.3586 26.5715 21.8714L28.5715 26.8714C28.7234 27.251 29.0911 27.5 29.5 27.5C29.9089 27.5 30.2766 27.251 30.4285 26.8714L32.4285 21.8714C32.6336 21.3586 32.3842 20.7766 31.8714 20.5715C31.3586 20.3664 30.7766 20.6158 30.5715 21.1286L29.5 23.8074L28.4285 21.1286Z" fill="#333333"/>
<path d="M24 5V8M24 5H26M24 5H22" stroke="#333333" stroke-width="2" stroke-linecap="round" stroke-linejoin="round"/>
<path d="M24 40V43M24 43H26M24 43H22" stroke="#333333" stroke-width="2" stroke-linecap="round" stroke-linejoin="round"/>
<path d="M10.565 37.4354L12.6864 35.3141M10.565 37.4354L9.15082 36.0212M10.565 37.4354L11.9792 38.8496" stroke="#333333" stroke-width="2" stroke-linecap="round" stroke-linejoin="round"/>
<path d="M35.3138 12.6866L37.4351 10.5653M37.4351 10.5653L36.0209 9.15108M37.4351 10.5653L38.8493 11.9795" stroke="#333333" stroke-width="2" stroke-linecap="round" stroke-linejoin="round"/>
<path d="M5 24H8M5 24V22M5 24V26" stroke="#333333" stroke-width="2" stroke-linecap="round" stroke-linejoin="round"/>
<path d="M40 24H43M43 24V22M43 24V26" stroke="#333333" stroke-width="2" stroke-linecap="round" stroke-linejoin="round"/>
<path d="M10.565 10.5653L12.6863 12.6866M10.565 10.5653L11.9792 9.15107M10.565 10.5653L9.15076 11.9795" stroke="#333333" stroke-width="2" stroke-linecap="round" stroke-linejoin="round"/>
<path d="M35.3137 35.3141L37.4351 37.4354M37.4351 37.4354L38.8493 36.0212M37.4351 37.4354L36.0209 38.8496" stroke="#333333" stroke-width="2" stroke-linecap="round" stroke-linejoin="round"/>
</svg>
