<svg width="48" height="48" viewBox="0 0 48 48" fill="none" xmlns="http://www.w3.org/2000/svg">
<path d="M14.3137 14.1005C19.7811 8.63316 28.6454 8.63316 34.1127 14.1005C36.8349 16.8227 38.2015 20.385 38.2131 23.9541L38.2131 23.9557L38.2131 27.5854L34.9203 24.2926L33.5061 25.7068L39.2132 31.4139L44.9203 25.7068L43.5061 24.2926L40.2131 27.5855L40.2131 23.9526L40.2131 23.9494C40.2003 19.8731 38.638 15.7974 35.5269 12.6863C29.2785 6.4379 19.1479 6.4379 12.8995 12.6863L14.3137 14.1005Z" fill="#333333"/>
<path d="M34.1127 33.8995C28.6454 39.3668 19.7811 39.3668 14.3137 33.8995C11.5806 31.1664 10.214 27.5865 10.2132 24.003V20.4139L13.5061 23.7068L14.9203 22.2926L9.21321 16.5855L3.5061 22.2926L4.92032 23.7068L8.21321 20.4139V24.003C8.21403 28.0952 9.77633 32.1905 12.8995 35.3137C19.1479 41.5621 29.2785 41.5621 35.5269 35.3137L34.1127 33.8995Z" fill="#333333"/>
<path d="M24.2131 33C27.5268 33 30.2131 30.2323 30.2131 26.8182C30.2131 21.4091 24.2131 15 24.2131 15C24.2131 15 18.2131 21.4091 18.2131 26.8182C18.2131 30.2323 20.8994 33 24.2131 33Z" fill="#333333"/>
</svg>
