<svg width="48" height="48" viewBox="0 0 48 48" fill="none" xmlns="http://www.w3.org/2000/svg">
<path d="M22 20C22 18.8954 22.8954 18 24 18C25.1046 18 26 18.8954 26 20V28C26 29.1046 25.1046 30 24 30C22.8954 30 22 29.1046 22 28V20Z" fill="#333333"/>
<path d="M24 32C22.8954 32 22 32.8954 22 34C22 35.1046 22.8954 36 24 36C25.1046 36 26 35.1046 26 34C26 32.8954 25.1046 32 24 32Z" fill="#333333"/>
<path fill-rule="evenodd" clip-rule="evenodd" d="M28.1959 8.4C26.3359 5.2 21.686 5.2 19.826 8.4L4.65568 34.5C2.79571 37.7 5.11346 42 8.83339 42H39.0355C42.7554 42 45.2262 37.7 43.3662 34.5L28.1959 8.4ZM41.6371 35.5051L26.4667 9.40504C25.3779 7.53165 22.644 7.53166 21.5552 9.40504L6.38481 35.505C5.24865 37.4598 6.75638 40 8.83339 40H39.0355C41.2172 40 42.7201 37.3683 41.6371 35.5051Z" fill="#333333"/>
</svg>
