<svg width="48" height="48" viewBox="0 0 48 48" fill="none" xmlns="http://www.w3.org/2000/svg">
<path d="M22 16C22 14.8954 22.8954 14 24 14C25.1046 14 26 14.8954 26 16V25C26 26.1046 25.1046 27 24 27C22.8954 27 22 26.1046 22 25V16Z" fill="#333333"/>
<path d="M24 33C22.8954 33 22 32.1046 22 31C22 29.8954 22.8954 29 24 29C25.1046 29 26 29.8954 26 31C26 32.1046 25.1046 33 24 33Z" fill="#333333"/>
<path fill-rule="evenodd" clip-rule="evenodd" d="M24 40.5C33.1127 40.5 40.5 33.1127 40.5 24C40.5 14.8873 33.1127 7.5 24 7.5C14.8873 7.5 7.5 14.8873 7.5 24C7.5 33.1127 14.8873 40.5 24 40.5ZM24 38.5C32.0081 38.5 38.5 32.0081 38.5 24C38.5 15.9919 32.0081 9.5 24 9.5C15.9919 9.5 9.5 15.9919 9.5 24C9.5 32.0081 15.9919 38.5 24 38.5Z" fill="#333333"/>
</svg>
