<svg width="49" height="48" viewBox="0 0 49 48" fill="none" xmlns="http://www.w3.org/2000/svg">
<path d="M35 28.5C35 29.8807 33.8807 31 32.5 31C31.1193 31 30 29.8807 30 28.5C30 27.1193 31.1193 26 32.5 26C33.8807 26 35 27.1193 35 28.5Z" fill="#333333"/>
<path fill-rule="evenodd" clip-rule="evenodd" d="M6.93633 6.14887C6.74241 5.63175 6.16599 5.36975 5.64887 5.56367C5.13175 5.75759 4.86975 6.334 5.06367 6.85112C5.97279 9.27546 8.12072 10.5 10.3125 10.5C12.0463 10.5 13.8087 9.7386 15.0482 8.24762C16.3016 9.68808 17.8473 10.5 19.5 10.5C21.1462 10.5 22.6863 9.69445 23.937 8.26458C25.081 9.71266 26.6392 10.5 28.3125 10.5C30.0196 10.5 31.684 9.68113 32.994 8.18465C33.4974 8.77457 34.0492 9.26212 34.6369 9.63516C33.2004 10.6221 32.2038 12.0432 31.5376 13.3154C31.0183 14.3069 30.6706 15.2607 30.4526 15.9642C30.4379 16.0115 30.4238 16.0578 30.4102 16.103C28.9047 15.8495 27.3028 15.8885 25.6944 16.2696C25.1058 16.409 24.5385 16.5891 23.9954 16.8055C23.8939 14.6868 22.1439 13.0001 20 13.0001C19.5138 13.0001 19.0469 13.0873 18.6148 13.2468C17.8572 12.4782 16.8029 12.0001 15.6364 12.0001C13.8343 12.0001 12.2995 13.1393 11.7112 14.737C9.53635 14.8854 7.81819 16.6965 7.81819 18.909C7.81819 19.258 7.86114 19.5976 7.94212 19.9226C6.77523 20.664 6.00002 21.9679 6.00002 23.4544C6.00002 24.6087 6.46808 25.6532 7.22259 26.409C7.02056 26.8998 6.90907 27.4374 6.90907 27.9998C6.90907 29.8145 8.06461 31.3588 9.68032 31.9377C9.65135 32.1362 9.63637 32.3391 9.63637 32.5452C9.63637 33.8488 10.2329 35.0119 11.1657 35.7781C11.0575 36.1657 11 36.5767 11 37.0001C11 37.6675 11.1429 38.3053 11.4028 38.869C11.1458 39.3563 11 39.9118 11 40.5001C11 42.4331 12.567 44.0001 14.5 44.0001C16.433 44.0001 18 42.4331 18 40.5001C18 39.9118 17.8543 39.3563 17.5972 38.869C17.8571 38.3053 18 37.6675 18 37.0001C18 36.1712 17.7791 35.3846 17.3847 34.7295C17.7747 34.0938 18 33.3453 18 32.5452C18 31.1326 17.2991 29.8846 16.2297 29.1285C16.1132 28.745 15.9908 28.1756 15.9037 27.4938C15.7938 26.6329 15.7494 25.6642 15.8238 24.7765C15.9002 23.8659 16.0932 23.1506 16.3733 22.71C16.5054 22.5021 16.6392 22.383 16.7646 22.3163C16.8838 22.2529 17.0507 22.2067 17.3072 22.2308C17.5548 22.2541 17.7926 22.262 18.021 22.2563C17.0876 24.185 16.7831 26.3702 17.2963 28.5363C18.5697 33.9103 24.3941 37.1314 30.3055 35.7307C36.217 34.3301 39.977 28.8381 38.7036 23.4641C37.9303 20.2 35.478 17.7302 32.347 16.6078L32.3629 16.5563C32.556 15.9332 32.8613 15.0987 33.3093 14.2433C34.2112 12.5211 35.5825 10.9108 37.6018 10.499C39.6352 10.4579 41.5 9.18678 42.848 7.03C43.1407 6.56166 42.9983 5.94471 42.53 5.652C42.0617 5.35929 41.4447 5.50166 41.152 5.97C40.0278 7.76876 38.6898 8.49316 37.5167 8.49995C37.5061 8.49978 37.4956 8.49979 37.485 8.49996C36.3115 8.49384 34.9727 7.76961 33.848 5.97C33.6653 5.67762 33.3448 5.5 33 5.5C32.6552 5.5 32.3347 5.67762 32.152 5.97C31.0426 7.745 29.5826 8.50002 28.3125 8.50001C27.0634 8.50001 25.7534 7.77079 24.8944 6.05278C24.7327 5.72924 24.4088 5.51829 24.0475 5.50112C23.6861 5.48396 23.3437 5.66325 23.152 5.97C22.0224 7.77727 20.6771 8.5 19.5 8.5C18.3229 8.5 16.9775 7.77727 15.848 5.97C15.6563 5.66325 15.3139 5.48396 14.9525 5.50112C14.5912 5.51829 14.2673 5.72924 14.1056 6.05278C13.2793 7.70538 11.756 8.5 10.3125 8.5C8.87928 8.5 7.5272 7.72453 6.93633 6.14887ZM30.9252 18.3374C30.7705 18.3071 30.6312 18.2426 30.5135 18.1533C29.1581 17.8589 27.6755 17.8555 26.1555 18.2157C21.1402 19.404 18.2642 23.9463 19.2425 28.0751C20.2207 32.204 24.8291 34.973 29.8444 33.7846C34.8598 32.5963 37.7358 28.054 36.7575 23.9252C36.1307 21.2797 34.0137 19.1926 31.2543 18.3469C31.1476 18.3616 31.0368 18.3592 30.9252 18.3374ZM13.4733 15.8937C13.6137 14.8253 14.5295 14.0001 15.6364 14.0001C16.4173 14.0001 17.1033 14.4097 17.4901 15.0305L18.0353 15.9055L18.8933 15.3339C19.2098 15.123 19.589 15.0001 20 15.0001C21.0527 15.0001 21.9154 15.8134 21.9942 16.8458C21.7233 17.5706 21.3161 18.1075 20.7833 18.4972L20.6373 18.604L20.538 18.7552C20.0158 19.55 19.1111 20.3915 17.4943 20.2396C16.8895 20.1827 16.3245 20.285 15.8252 20.5507C15.3321 20.8131 14.9608 21.2037 14.6853 21.6373C14.1501 22.4794 13.9177 23.574 13.8308 24.6093C13.742 25.6675 13.7965 26.7807 13.9198 27.7471C14.0413 28.6985 14.2391 29.5808 14.4724 30.1583L14.602 30.4789L14.9019 30.6509C15.5602 31.0287 16 31.7362 16 32.5452C16 33.1253 15.775 33.6505 15.4055 34.0421L14.7506 34.7363L15.4134 35.4229C15.7526 35.7743 16 36.3338 16 37.0001C16 37.5301 15.843 37.9962 15.6048 38.3423L15.1769 38.9641L15.6575 39.546C15.872 39.8057 16 40.1366 16 40.5001C16 41.3286 15.3284 42.0001 14.5 42.0001C13.6716 42.0001 13 41.3286 13 40.5001C13 40.1366 13.1281 39.8057 13.3425 39.546L13.8231 38.9641L13.3952 38.3423C13.157 37.9962 13 37.5301 13 37.0001C13 36.5678 13.1046 36.1768 13.2736 35.8587L13.7534 34.9556L12.8398 34.4962C12.124 34.1362 11.6364 33.3967 11.6364 32.5452C11.6364 32.2079 11.7122 31.8911 11.8469 31.6084L12.4952 30.2477L10.9895 30.1793C9.83199 30.1268 8.90907 29.1708 8.90907 27.9998C8.90907 27.5269 9.05838 27.0919 9.31255 26.7353L9.92953 25.8699L9.02813 25.3068C8.40858 24.9197 8.00002 24.2344 8.00002 23.4544C8.00002 22.4853 8.63259 21.6613 9.51 21.3777L10.6564 21.0072L10.0811 19.9487C9.9137 19.6406 9.81819 19.2874 9.81819 18.909C9.81819 17.704 10.795 16.7272 12 16.7272C12.1134 16.7272 12.2241 16.7357 12.3316 16.7521L13.3404 16.9053L13.4733 15.8937Z" fill="#333333"/>
</svg>
