<svg width="49" height="48" viewBox="0 0 49 48" fill="none" xmlns="http://www.w3.org/2000/svg">
<path d="M37.7306 23.6946C38.8564 28.4461 35.5384 33.4632 30.075 34.7577C24.6116 36.0522 19.3952 33.0572 18.2694 28.3057C17.1436 23.5542 20.4616 18.5371 25.925 17.2426C31.3884 15.9481 36.6048 18.9431 37.7306 23.6946Z" stroke="#333333" stroke-width="2"/>
<circle cx="32.5" cy="28.5" r="2.5" fill="#333333"/>
<path d="M12.4818 15.7635L12.3316 16.7522L13.3404 16.9054L13.4733 15.8938L12.4818 15.7635ZM18.3388 14.5018L17.4901 15.0306L18.0353 15.9056L18.8933 15.334L18.3388 14.5018ZM23 17.0002L23.9487 17.3165L24 17.1625V17.0002H23ZM21.3737 19.3044L20.7833 18.4973L20.6373 18.6041L20.5379 18.7553L21.3737 19.3044ZM17.4007 21.2353L17.4943 20.2397L17.4943 20.2397L17.4007 21.2353ZM15.3996 29.7837L14.4724 30.1584L14.602 30.479L14.9018 30.6511L15.3996 29.7837ZM16.1329 34.7285L15.4055 34.0422L14.7506 34.7364L15.4134 35.423L16.1329 34.7285ZM16.4286 38.9093L15.6048 38.3424L15.1769 38.9642L15.6575 39.5461L16.4286 38.9093ZM12.5714 38.9093L13.3425 39.5461L13.8231 38.9642L13.3952 38.3424L12.5714 38.9093ZM12.3905 35.3896L13.2736 35.8588L13.7534 34.9557L12.8398 34.4963L12.3905 35.3896ZM10.9441 31.1784L11.8469 31.6086L12.4952 30.2478L10.9895 30.1795L10.9441 31.1784ZM8.49827 26.155L9.31253 26.7355L9.92951 25.87L9.02812 25.3069L8.49827 26.155ZM9.20248 20.4263L9.50999 21.3778L10.6564 21.0073L10.0811 19.9488L9.20248 20.4263ZM15.6363 12.0002C13.5125 12.0002 11.7598 13.5827 11.4903 15.6333L13.4733 15.8938C13.6137 14.8255 14.5294 14.0002 15.6363 14.0002V12.0002ZM19.1875 13.9729C18.4509 12.7907 17.1363 12.0002 15.6363 12.0002V14.0002C16.4172 14.0002 17.1033 14.4098 17.4901 15.0306L19.1875 13.9729ZM20 13.0002C19.1823 13.0002 18.4191 13.2467 17.7844 13.6695L18.8933 15.334C19.2098 15.1231 19.589 15.0002 20 15.0002V13.0002ZM24 17.0002C24 14.7911 22.2091 13.0002 20 13.0002V15.0002C21.1046 15.0002 22 15.8957 22 17.0002H24ZM21.9641 20.1115C22.9057 19.4227 23.5627 18.4743 23.9487 17.3165L22.0513 16.684C21.7822 17.4914 21.355 18.0791 20.7833 18.4973L21.9641 20.1115ZM17.3072 22.2309C19.9117 22.4757 21.4407 21.0236 22.2095 19.8535L20.5379 18.7553C20.0158 19.5501 19.1111 20.3916 17.4943 20.2397L17.3072 22.2309ZM16.3267 29.409C16.1856 29.0598 16.0156 28.3697 15.9037 27.4939C15.7938 26.633 15.7493 25.6643 15.8238 24.7766C15.9002 23.866 16.0932 23.1508 16.3733 22.7101C16.5054 22.5022 16.6392 22.3832 16.7646 22.3164C16.8838 22.253 17.0507 22.2068 17.3072 22.2309L17.4943 20.2397C16.8895 20.1828 16.3245 20.2851 15.8251 20.5508C15.3321 20.8132 14.9608 21.2038 14.6853 21.6374C14.1501 22.4796 13.9177 23.5741 13.8308 24.6094C13.742 25.6676 13.7964 26.7809 13.9198 27.7472C14.0413 28.6986 14.239 29.5809 14.4724 30.1584L16.3267 29.409ZM18 32.5453C18 30.9911 17.1515 29.6362 15.8973 28.9164L14.9018 30.6511C15.5602 31.0289 16 31.7363 16 32.5453H18ZM16.8602 35.4148C17.5659 34.6668 18 33.6557 18 32.5453H16C16 33.1254 15.775 33.6507 15.4055 34.0422L16.8602 35.4148ZM18 37.0002C18 35.8508 17.5752 34.7828 16.8524 34.034L15.4134 35.423C15.7526 35.7744 16 36.3339 16 37.0002H18ZM17.2523 39.4763C17.7281 38.785 18 37.9208 18 37.0002H16C16 37.5302 15.843 37.9963 15.6048 38.3424L17.2523 39.4763ZM18 40.5002C18 39.655 17.6991 38.8774 17.1996 38.2726L15.6575 39.5461C15.872 39.8058 16 40.1367 16 40.5002H18ZM14.5 44.0002C16.433 44.0002 18 42.4332 18 40.5002H16C16 41.3287 15.3284 42.0002 14.5 42.0002V44.0002ZM11 40.5002C11 42.4332 12.567 44.0002 14.5 44.0002V42.0002C13.6716 42.0002 13 41.3287 13 40.5002H11ZM11.8004 38.2726C11.3009 38.8774 11 39.655 11 40.5002H13C13 40.1367 13.128 39.8058 13.3425 39.5461L11.8004 38.2726ZM11 37.0002C11 37.9208 11.2719 38.785 11.7477 39.4763L13.3952 38.3424C13.157 37.9963 13 37.5302 13 37.0002H11ZM11.5074 34.9204C11.1819 35.533 11 36.2471 11 37.0002H13C13 36.568 13.1046 36.1769 13.2736 35.8588L11.5074 34.9204ZM9.63635 32.5453C9.63635 34.1816 10.5763 35.5966 11.9412 36.283L12.8398 34.4963C12.124 34.1363 11.6364 33.3968 11.6364 32.5453H9.63635ZM10.0413 30.7483C9.78138 31.2939 9.63635 31.9041 9.63635 32.5453H11.6364C11.6364 32.208 11.7122 31.8912 11.8469 31.6086L10.0413 30.7483ZM6.90906 27.9999C6.90906 30.2451 8.67796 32.0766 10.8988 32.1774L10.9895 30.1795C9.83198 30.1269 8.90906 29.1709 8.90906 27.9999H6.90906ZM7.68401 25.5745C7.1962 26.2587 6.90906 27.0973 6.90906 27.9999H8.90906C8.90906 27.527 9.05836 27.092 9.31253 26.7355L7.68401 25.5745ZM6 23.4545C6 24.9527 6.78852 26.2659 7.96842 27.0031L9.02812 25.3069C8.40857 24.9198 8 24.2345 8 23.4545H6ZM8.89498 19.4747C7.21623 20.0172 6 21.5925 6 23.4545H8C8 22.4854 8.63258 21.6614 9.50999 21.3778L8.89498 19.4747ZM7.81818 18.9091C7.81818 19.6294 8.00111 20.3099 8.32385 20.9038L10.0811 19.9488C9.91368 19.6407 9.81818 19.2875 9.81818 18.9091H7.81818ZM12 14.7273C9.69044 14.7273 7.81818 16.5996 7.81818 18.9091H9.81818C9.81818 17.7041 10.795 16.7273 12 16.7273V14.7273ZM12.632 14.7749C12.4253 14.7435 12.2142 14.7273 12 14.7273V16.7273C12.1133 16.7273 12.224 16.7359 12.3316 16.7522L12.632 14.7749Z" fill="#333333"/>
<path d="M31.1174 17.3561C31.1174 17.3561 32.4726 10.437 37.5 9.50007" stroke="#333333" stroke-width="2" stroke-linecap="round" stroke-linejoin="round"/>
<path d="M6 6.5C7.5 10.5 13 10.5 15 6.5C17.5 10.5 21.5 10.5 24 6.5C26 10.5 30.5 10.5 33 6.5C35.5 10.5 39.5 10.5 42 6.5" stroke="#333333" stroke-width="2" stroke-linecap="round" stroke-linejoin="round"/>
</svg>
