<svg width="48" height="48" viewBox="0 0 48 48" fill="none" xmlns="http://www.w3.org/2000/svg">
<path d="M11 31C11 30.4477 11.4477 30 12 30H28C28.5523 30 29 30.4477 29 31C29 31.5523 28.5523 32 28 32H12C11.4477 32 11 31.5523 11 31Z" fill="#333333"/>
<path d="M15 35C14.4477 35 14 35.4477 14 36C14 36.5523 14.4477 37 15 37H25C25.5523 37 26 36.5523 26 36C26 35.4477 25.5523 35 25 35H15Z" fill="#333333"/>
<path fill-rule="evenodd" clip-rule="evenodd" d="M16 4C14.3431 4 13 5.34315 13 7H10C7.79086 7 6 8.79086 6 11V39C6 41.2091 7.79086 43 10 43H30C32.2091 43 34 41.2091 34 39V11C34 8.79086 32.2091 7 30 7H27C27 5.34315 25.6569 4 24 4H16ZM27 9C27 10.6569 25.6569 12 24 12H16C14.3431 12 13 10.6569 13 9H10C8.89543 9 8 9.89543 8 11V20.9886H13.6326L17.0207 14.9654L19.1377 22.375L21.7284 19.0442H27.2175C27.7698 19.0442 28.2175 19.4919 28.2175 20.0442C28.2175 20.5965 27.7698 21.0442 27.2175 21.0442H22.7066L18.2972 26.7133L16.4142 20.123L14.8023 22.9886H8V39C8 40.1046 8.89543 41 10 41H30C31.1046 41 32 40.1046 32 39V11C32 9.89543 31.1046 9 30 9H27ZM15 7C15 6.44772 15.4477 6 16 6H24C24.5523 6 25 6.44772 25 7V9C25 9.55228 24.5523 10 24 10H16C15.4477 10 15 9.55228 15 9V7Z" fill="#333333"/>
<path fill-rule="evenodd" clip-rule="evenodd" d="M41 13H39C37.8954 13 37 13.8954 37 15V19H43V15C43 13.8954 42.1046 13 41 13ZM39 15H41V17H39V15Z" fill="#333333"/>
<path fill-rule="evenodd" clip-rule="evenodd" d="M40 42L43 38V20H37V38L40 42ZM39 22H41V37.3333L40 38.6667L39 37.3333V22Z" fill="#333333"/>
</svg>
