<svg width="48" height="48" viewBox="0 0 48 48" fill="none" xmlns="http://www.w3.org/2000/svg">
<path d="M15 31C15 30.4477 15.4477 30 16 30H32C32.5523 30 33 30.4477 33 31C33 31.5523 32.5523 32 32 32H16C15.4477 32 15 31.5523 15 31Z" fill="#333333"/>
<path d="M19 35C18.4477 35 18 35.4477 18 36C18 36.5523 18.4477 37 19 37H29C29.5523 37 30 36.5523 30 36C30 35.4477 29.5523 35 29 35H19Z" fill="#333333"/>
<path fill-rule="evenodd" clip-rule="evenodd" d="M17 7C17 5.34315 18.3431 4 20 4H28C29.6569 4 31 5.34315 31 7H34C36.2091 7 38 8.79086 38 11V39C38 41.2091 36.2091 43 34 43H14C11.7909 43 10 41.2091 10 39V11C10 8.79086 11.7909 7 14 7H17ZM28 12C29.6569 12 31 10.6569 31 9H34C35.1046 9 36 9.89543 36 11V39C36 40.1046 35.1046 41 34 41H14C12.8954 41 12 40.1046 12 39V22.9886H18.8023L20.4142 20.123L22.2972 26.7133L26.7066 21.0442H31.2175C31.7698 21.0442 32.2175 20.5965 32.2175 20.0442C32.2175 19.4919 31.7698 19.0442 31.2175 19.0442H25.7284L23.1377 22.375L21.0207 14.9654L17.6326 20.9886H12V11C12 9.89543 12.8954 9 14 9H17C17 10.6569 18.3431 12 20 12H28ZM20 6C19.4477 6 19 6.44772 19 7V9C19 9.55228 19.4477 10 20 10H28C28.5523 10 29 9.55228 29 9V7C29 6.44772 28.5523 6 28 6H20Z" fill="#333333"/>
</svg>
