<svg width="48" height="48" viewBox="0 0 48 48" fill="none" xmlns="http://www.w3.org/2000/svg">
<mask id="path-1-inside-1" fill="white">
<path fill-rule="evenodd" clip-rule="evenodd" d="M24 37.5C34.4934 37.5 43 31.1201 43 23.25C43 15.3799 34.4934 9 24 9C13.5066 9 5 15.3799 5 23.25C5 26.4375 6.39541 29.3806 8.75307 31.7543C7.74857 34.615 6.43203 36.7233 5.65498 37.8239C5.40859 38.1729 5.65681 38.6695 6.08285 38.6383C8.03017 38.4959 12.1776 37.9411 14.9443 35.7804C17.6363 36.8771 20.7211 37.5 24 37.5Z"/>
</mask>
<path d="M8.75307 31.7543L10.6401 32.417L11.0554 31.2343L10.1721 30.345L8.75307 31.7543ZM5.65498 37.8239L7.28878 38.9774L7.28878 38.9774L5.65498 37.8239ZM6.08285 38.6383L5.93695 36.6436H5.93695L6.08285 38.6383ZM14.9443 35.7804L15.6988 33.9282L14.6262 33.4913L13.7133 34.2042L14.9443 35.7804ZM41 23.25C41 26.4144 39.2945 29.4317 36.235 31.7263C33.1749 34.0213 28.8558 35.5 24 35.5V39.5C29.6376 39.5 34.8185 37.7887 38.635 34.9263C42.4522 32.0634 45 27.9557 45 23.25H41ZM24 11C28.8558 11 33.1749 12.4787 36.235 14.7737C39.2945 17.0683 41 20.0856 41 23.25H45C45 18.5443 42.4522 14.4366 38.635 11.5737C34.8185 8.71131 29.6376 7 24 7V11ZM7 23.25C7 20.0856 8.7055 17.0683 11.765 14.7737C14.8251 12.4787 19.1442 11 24 11V7C18.3624 7 13.1815 8.71131 9.36497 11.5737C5.5478 14.4366 3 18.5443 3 23.25H7ZM10.1721 30.345C8.11978 28.2786 7 25.8217 7 23.25H3C3 27.0534 4.67105 30.4825 7.33406 33.1637L10.1721 30.345ZM7.28878 38.9774C8.14145 37.7698 9.5587 35.4967 10.6401 32.417L6.86603 31.0917C5.93844 33.7334 4.72261 35.6769 4.02118 36.6703L7.28878 38.9774ZM5.93695 36.6436C6.61612 36.5939 7.15623 36.9953 7.39431 37.457C7.62297 37.9004 7.63073 38.4931 7.28878 38.9774L4.02118 36.6703C2.93992 38.2017 3.88131 40.8047 6.22875 40.633L5.93695 36.6436ZM13.7133 34.2042C11.4583 35.9652 7.85508 36.5033 5.93695 36.6436L6.22874 40.633C8.20526 40.4884 12.8968 39.917 16.1753 37.3567L13.7133 34.2042ZM24 35.5C20.9721 35.5 18.1442 34.9244 15.6988 33.9282L14.1897 37.6326C17.1284 38.8298 20.4702 39.5 24 39.5V35.5Z" fill="#333333" mask="url(#path-1-inside-1)"/>
<circle cx="24" cy="23" r="2" fill="#333333"/>
<circle cx="31" cy="23" r="2" fill="#333333"/>
<circle cx="17" cy="23" r="2" fill="#333333"/>
</svg>
