<svg width="48" height="48" viewBox="0 0 48 48" fill="none" xmlns="http://www.w3.org/2000/svg">
<path d="M24 25C25.1046 25 26 24.1046 26 23C26 21.8954 25.1046 21 24 21C22.8954 21 22 21.8954 22 23C22 24.1046 22.8954 25 24 25Z" fill="#333333"/>
<path d="M33 23C33 24.1046 32.1046 25 31 25C29.8954 25 29 24.1046 29 23C29 21.8954 29.8954 21 31 21C32.1046 21 33 21.8954 33 23Z" fill="#333333"/>
<path d="M17 25C18.1046 25 19 24.1046 19 23C19 21.8954 18.1046 21 17 21C15.8954 21 15 21.8954 15 23C15 24.1046 15.8954 25 17 25Z" fill="#333333"/>
<path fill-rule="evenodd" clip-rule="evenodd" d="M7.51318 38.4903C7.55317 38.4849 7.59348 38.4795 7.63411 38.4738C9.77389 38.1774 12.7811 37.4698 14.9443 35.7804C17.6363 36.8771 20.7211 37.5 24 37.5C34.4934 37.5 43 31.1201 43 23.25C43 15.3799 34.4934 9 24 9C13.5066 9 5 15.3799 5 23.25C5 26.4375 6.39541 29.3806 8.75307 31.7543C8.04378 33.7743 7.17889 35.4192 6.45823 36.599L6.40715 36.6822C6.26004 36.9208 6.11935 37.1396 5.98772 37.3378C5.86877 37.5169 5.7572 37.6791 5.65498 37.8239C5.40859 38.1729 5.65681 38.6695 6.08285 38.6383C6.2774 38.6241 6.4939 38.6057 6.7288 38.5821C6.97188 38.5576 7.23467 38.5274 7.51318 38.4903ZM10.6401 32.417L11.0554 31.2343L10.1721 30.345C8.11978 28.2786 7 25.8217 7 23.25C7 20.0856 8.7055 17.0683 11.765 14.7737C14.8251 12.4787 19.1442 11 24 11C28.8558 11 33.1749 12.4787 36.235 14.7737C39.2945 17.0683 41 20.0856 41 23.25C41 26.4144 39.2945 29.4317 36.235 31.7263C33.1749 34.0213 28.8558 35.5 24 35.5C20.9721 35.5 18.1442 34.9244 15.6988 33.9282L14.6262 33.4913L13.7133 34.2042C12.3953 35.2334 10.6168 35.8449 8.98334 36.2034C9.54739 35.1381 10.131 33.8669 10.6401 32.417Z" fill="#333333"/>
</svg>
