<svg width="48" height="48" viewBox="0 0 48 48" fill="none" xmlns="http://www.w3.org/2000/svg">
<path fill-rule="evenodd" clip-rule="evenodd" d="M24 8C20.1589 8 16.6315 9.3548 13.8736 11.6117L13.0185 12.3114L35.6886 34.9815L36.3883 34.1264C38.6452 31.3685 40 27.8411 40 24C40 15.1634 32.8366 8 24 8ZM27.2765 23.7409L16.0264 12.4909C18.2891 10.9201 21.036 10 24 10C31.732 10 38 16.268 38 24C38 26.964 37.0799 29.7109 35.5091 31.9736L28.7192 25.1837C29.195 24.6021 29.4596 23.8284 29.354 22.9434L29.2064 21.7061C30.2215 21.7103 31.3294 21.2561 32.2059 20.3797C33.7299 18.8557 33.977 16.6318 32.7578 15.4126C31.5386 14.1934 29.3147 14.4405 27.7907 15.9645C26.3373 17.4179 26.0452 19.5078 27.0788 20.7559L27.3681 23.1804C27.393 23.389 27.3562 23.579 27.2765 23.7409Z" fill="#333333"/>
<path fill-rule="evenodd" clip-rule="evenodd" d="M34.9815 35.6886L12.3114 13.0185L11.6117 13.8736C9.3548 16.6315 8 20.1589 8 24C8 32.8366 15.1634 40 24 40C27.8411 40 31.3685 38.6452 34.1264 36.3883L34.9815 35.6886ZM10 24C10 21.036 10.9201 18.2891 12.4909 16.0264L20.3636 23.8991C19.9529 24.5252 19.7719 25.3217 19.9743 26.1998L20.3074 27.6446C20.4817 28.4006 19.6184 28.9632 18.9971 28.4984C16.9351 26.9555 14.0508 28.7419 14.5134 31.2754L14.6924 32.2553L16.6598 31.896L16.4809 30.9161C16.3449 30.1713 17.1928 29.6462 17.7989 30.0998C19.9123 31.681 22.8493 29.7673 22.2563 27.1953L21.9232 25.7505C21.8979 25.6407 21.8906 25.5347 21.8985 25.4341L31.9736 35.5091C29.7109 37.0799 26.964 38 24 38C16.268 38 10 31.732 10 24Z" fill="#333333"/>
<path fill-rule="evenodd" clip-rule="evenodd" d="M24 5C13.5066 5 5 13.5066 5 24C5 34.4934 13.5066 43 24 43C34.4934 43 43 34.4934 43 24C43 13.5066 34.4934 5 24 5ZM7 24C7 14.6112 14.6112 7 24 7C33.3888 7 41 14.6112 41 24C41 33.3888 33.3888 41 24 41C14.6112 41 7 33.3888 7 24Z" fill="#333333"/>
</svg>
