<svg width="48" height="48" viewBox="0 0 48 48" fill="none" xmlns="http://www.w3.org/2000/svg">
<path d="M33.4931 35.6144L34.1264 36.3883L34.9815 35.6886L34.2002 34.9073L33.4931 35.6144ZM12.3856 14.5069L13.0927 13.7998L12.3114 13.0185L11.6117 13.8736L12.3856 14.5069ZM14.5069 12.3856L13.8736 11.6117L13.0185 12.3114L13.7998 13.0927L14.5069 12.3856ZM35.6144 33.4931L34.9073 34.2002L35.6886 34.9815L36.3883 34.1264L35.6144 33.4931ZM24 40C27.8411 40 31.3685 38.6452 34.1264 36.3883L32.8598 34.8405C30.4461 36.8157 27.3627 38 24 38V40ZM8 24C8 32.8366 15.1634 40 24 40V38C16.268 38 10 31.732 10 24H8ZM11.6117 13.8736C9.3548 16.6315 8 20.1589 8 24H10C10 20.6373 11.1843 17.5539 13.1595 15.1402L11.6117 13.8736ZM34.2002 34.9073L13.0927 13.7998L11.6785 15.214L32.786 36.3215L34.2002 34.9073ZM13.7998 13.0927L34.9073 34.2002L36.3215 32.786L15.214 11.6785L13.7998 13.0927ZM24 8C20.1589 8 16.6315 9.3548 13.8736 11.6117L15.1402 13.1595C17.5539 11.1843 20.6373 10 24 10V8ZM40 24C40 15.1634 32.8366 8 24 8V10C31.732 10 38 16.268 38 24H40ZM36.3883 34.1264C38.6452 31.3685 40 27.8411 40 24H38C38 27.3627 36.8157 30.4461 34.8405 32.8598L36.3883 34.1264ZM24 43C34.4934 43 43 34.4934 43 24H41C41 33.3888 33.3888 41 24 41V43ZM5 24C5 34.4934 13.5066 43 24 43V41C14.6112 41 7 33.3888 7 24H5ZM24 5C13.5066 5 5 13.5066 5 24H7C7 14.6112 14.6112 7 24 7V5ZM43 24C43 13.5066 34.4934 5 24 5V7C33.3888 7 41 14.6112 41 24H43Z" fill="#333333"/>
<path fill-rule="evenodd" clip-rule="evenodd" d="M27.7907 15.9641C29.3147 14.4401 31.5386 14.193 32.7578 15.4122C33.977 16.6314 33.7299 18.8553 32.2059 20.3793C31.3294 21.2558 30.2215 21.7099 29.2064 21.7057L29.354 22.943C29.507 24.2254 28.8827 25.274 27.965 25.8431L26.4218 24.3C26.9558 24.2706 27.4433 23.8099 27.3681 23.18L27.0788 20.7555C26.0452 19.5075 26.3373 17.4175 27.7907 15.9641ZM21.0441 23.1649C20.1935 23.8243 19.6808 24.926 19.9743 26.1994L20.3074 27.6442C20.4817 28.4003 19.6184 28.9628 18.9971 28.498C16.9351 26.9551 14.0508 28.7415 14.5134 31.275L14.6924 32.2549L16.6598 31.8956L16.4809 30.9157C16.3449 30.171 17.1928 29.6458 17.7989 30.0994C19.9123 31.6806 22.8493 29.7669 22.2563 27.1949L21.9232 25.7501C21.8029 25.2282 22.0889 24.7929 22.4909 24.6117L21.0441 23.1649Z" fill="#333333"/>
</svg>
