<svg width="48" height="48" viewBox="0 0 48 48" fill="none" xmlns="http://www.w3.org/2000/svg">
<path d="M25.368 23.2559C25.272 23.8799 24.768 24.4319 24.072 24.4319H23.88C23.184 24.4319 22.68 23.9039 22.584 23.2559L22.344 21.6239C22.224 20.8319 22.68 20.2799 23.448 20.1839C25.536 19.9199 26.496 19.2719 26.496 18.0959V18.0479C26.496 16.9679 25.68 16.3439 24.288 16.3439C23.256 16.3439 22.368 16.6559 21.504 17.3039C21.216 17.5199 20.832 17.6879 20.424 17.6879C19.512 17.6879 18.744 16.9199 18.744 16.0079C18.744 15.5519 18.936 15.0719 19.368 14.7119C20.64 13.6559 22.248 12.9839 24.36 12.9839C27.816 12.9839 30.168 14.7599 30.168 17.9519V17.9999C30.168 21.0479 28.056 22.2959 25.44 22.8239L25.368 23.2559Z" fill="#333333"/>
<path d="M21.792 28.1039V28.0559C21.792 26.9039 22.68 26.0159 23.88 26.0159C25.08 26.0159 25.968 26.9039 25.968 28.0559V28.1039C25.968 29.2559 25.08 30.1439 23.88 30.1439C22.68 30.1439 21.792 29.2559 21.792 28.1039Z" fill="#333333"/>
<path fill-rule="evenodd" clip-rule="evenodd" d="M26 42.2123C26.6803 42.484 27.3486 42.7461 28 43V36.1795C32.2435 36.1795 36.3131 34.537 39.3137 31.6134C42.3143 28.6897 44 24.7244 44 20.5897C44 16.4551 42.3143 12.4898 39.3137 9.56613C36.3131 6.64249 32.2435 5 28 5H20C15.7565 5 11.6869 6.64249 8.68629 9.56613C5.68571 12.4898 4 16.4551 4 20.5897C4 32.4314 16.2356 38.312 26 42.2123ZM28 34.1795H26V40.0562C21.7047 38.3151 17.1501 36.2347 13.4434 33.4784C8.97954 30.1591 6 26.058 6 20.5897C6 17.0025 7.46203 13.5514 10.082 10.9986C12.7038 8.44406 16.2704 7 20 7H28C31.7296 7 35.2962 8.44406 37.918 10.9986C40.538 13.5514 42 17.0025 42 20.5897C42 24.177 40.538 27.6281 37.918 30.1809C35.2962 32.7354 31.7296 34.1795 28 34.1795Z" fill="#333333"/>
</svg>
