<svg width="48" height="48" viewBox="0 0 48 48" fill="none" xmlns="http://www.w3.org/2000/svg">
<path d="M14 12C14 11.4477 14.4477 11 15 11H33C33.5523 11 34 11.4477 34 12C34 12.5523 33.5523 13 33 13H15C14.4477 13 14 12.5523 14 12Z" fill="#333333"/>
<path d="M15 15C14.4477 15 14 15.4477 14 16C14 16.5523 14.4477 17 15 17H33C33.5523 17 34 16.5523 34 16C34 15.4477 33.5523 15 33 15H15Z" fill="#333333"/>
<path d="M14 24C14 23.4477 14.4477 23 15 23H33C33.5523 23 34 23.4477 34 24C34 24.5523 33.5523 25 33 25H15C14.4477 25 14 24.5523 14 24Z" fill="#333333"/>
<path d="M15 19C14.4477 19 14 19.4477 14 20C14 20.5523 14.4477 21 15 21H33C33.5523 21 34 20.5523 34 20C34 19.4477 33.5523 19 33 19H15Z" fill="#333333"/>
<path d="M14 28C14 27.4477 14.4477 27 15 27H24C24.5523 27 25 27.4477 25 28C25 28.5523 24.5523 29 24 29H15C14.4477 29 14 28.5523 14 28Z" fill="#333333"/>
<path d="M35.583 33.0278C35.9735 32.6372 36.6067 32.6372 36.9972 33.0278C37.3878 33.4183 37.3878 34.0514 36.9972 34.442L36.2063 35.2329L34.7921 33.8187L35.583 33.0278Z" fill="#333333"/>
<path d="M29.0161 39.5946L34.085 34.5258L35.4992 35.94L30.4303 41.0089H29.0161L29.0161 39.5946Z" fill="#333333"/>
<path fill-rule="evenodd" clip-rule="evenodd" d="M38 8V29.5155C40.412 31.1301 42 33.8796 42 37C42 41.9706 37.9706 46 33 46C29.8796 46 27.1301 44.412 25.5155 42H14C11.7909 42 10 40.2091 10 38V8C10 5.79086 11.7909 4 14 4H34C36.2091 4 38 5.79086 38 8ZM34 6H14C12.8954 6 12 6.89543 12 8V38C12 39.1046 12.8954 40 14 40H24.5121C24.1805 39.0617 24 38.0519 24 37C24 32.0294 28.0294 28 33 28C34.0519 28 35.0617 28.1805 36 28.5121V8C36 6.89543 35.1046 6 34 6ZM28.101 42C27.5151 41.4259 27.0297 40.7496 26.6736 40C26.2417 39.0907 26 38.0736 26 37C26 33.134 29.134 30 33 30C34.0736 30 35.0907 30.2417 36 30.6736C36.7496 31.0297 37.4259 31.5151 38 32.101C39.2372 33.3636 40 35.0927 40 37C40 40.866 36.866 44 33 44C31.0927 44 29.3636 43.2372 28.101 42Z" fill="#333333"/>
</svg>
