<svg width="48" height="48" viewBox="0 0 48 48" fill="none" xmlns="http://www.w3.org/2000/svg">
<path fill-rule="evenodd" clip-rule="evenodd" d="M12.1154 6.46344C11.4588 5.74403 10.3466 5.89338 9.86353 6.68861L12.1154 6.46344ZM11.3487 8.77649C11.2995 9.25877 11.2846 9.82299 11.3076 10.393C11.3329 11.0181 11.4024 11.6201 11.5088 12.104C11.562 12.3459 11.6207 12.541 11.6793 12.6868C11.7356 12.8269 11.776 12.8818 11.7811 12.8886C11.7816 12.8894 11.7814 12.889 11.7811 12.8886C11.8349 12.9476 11.8938 12.9836 12.1517 13.1392L12.1594 13.1439C12.435 13.3102 12.6136 13.5991 12.6394 13.9199C12.6652 14.2408 12.5349 14.5545 12.2894 14.7627C12.2439 14.8012 12.1997 14.8358 12.1709 14.8583L12.1688 14.86C12.1379 14.8841 12.1218 14.8967 12.1086 14.9077L8.16448 20.6693C7.98065 20.9374 7.94417 21.3232 8.08992 21.6431L8.84964 23.3106C8.99121 23.6213 9.24776 23.7572 9.45908 23.7572H11.106C11.2461 23.7572 11.4004 23.7012 11.5355 23.5688L13.7442 20.5034C13.9614 20.2019 14.3278 20.0458 14.6957 20.0978C15.0636 20.1499 15.3723 20.4016 15.4973 20.7515L18.1414 28.1522C18.1633 28.2135 18.1792 28.2768 18.1888 28.3412L19.1332 34.6756C19.1508 34.7937 19.1472 34.914 19.1223 35.0308L18.1779 39.4763C18.1348 39.6791 18.0304 39.8613 17.8816 40H20.438C20.4398 39.9921 20.4415 39.9842 20.4432 39.9762C20.5394 39.5283 20.6277 38.9057 20.6006 38.2054C20.5835 37.764 20.5516 37.2576 20.5181 36.7257C20.4595 35.7956 20.396 34.7874 20.3981 33.9121C20.3998 33.2024 20.4414 32.4907 20.576 31.8689C20.7054 31.271 20.9534 30.5967 21.4944 30.1398C21.9066 29.7916 22.5207 29.8333 22.8821 30.2339C23.8676 31.3261 24.4584 31.5932 24.8943 31.6213C25.3755 31.6522 25.9842 31.4241 27.0999 30.7125C27.1837 30.659 27.2751 30.6183 27.371 30.5918C27.369 30.5923 27.4207 30.576 27.5369 30.4986C27.647 30.4254 27.7773 30.3231 27.9316 30.1905C28.0808 30.0623 28.2345 29.9216 28.402 29.7681L28.4174 29.754C28.5857 29.5999 28.7689 29.4324 28.9506 29.2782C29.131 29.1252 29.3316 28.9668 29.5402 28.8348C29.7402 28.7083 30.0071 28.5675 30.3158 28.5087C30.6539 28.4444 31.0634 28.4778 31.4345 28.7386C31.7749 28.9778 31.9598 29.3237 32.0667 29.6298C32.2124 30.0474 32.5028 30.2517 33.0155 30.5436C33.0345 30.5544 33.0549 30.5659 33.0763 30.578C33.2936 30.7006 33.6265 30.8884 33.8811 31.1349C34.1761 31.4207 34.4001 31.8098 34.4237 32.301C34.785 33.2946 34.9039 34.1831 34.8376 34.9924C34.767 35.8527 34.4918 36.5653 34.1618 37.1649C33.8937 37.6521 33.5722 38.0906 33.312 38.4455C33.2633 38.512 33.2167 38.5755 33.1731 38.6359C32.8664 39.0597 32.7051 39.3251 32.639 39.5502C32.5806 39.7494 32.4791 39.8946 32.3675 40H35.1197L37.0032 32.4642L34.9249 23.2276C34.831 22.8104 35.0128 22.3797 35.3772 22.156C35.7416 21.9322 36.208 21.9649 36.5376 22.2373C36.611 22.298 36.6867 22.3595 36.7643 22.4225C37.1049 22.6992 37.4833 23.0066 37.8762 23.4134C38.3518 23.9057 38.8442 24.5344 39.4228 25.4735C39.5067 25.4533 39.6129 25.4179 39.7574 25.3633C39.7888 25.3514 39.8251 25.3374 39.8646 25.3221C39.8987 25.309 39.9352 25.2948 39.9732 25.2803L38.9613 23.6147C37.6295 21.4222 35.4382 20.1599 33.1167 20.1599H20.5999C20.3185 20.1599 20.0502 20.0414 19.8607 19.8335L15.7612 15.3345C14.0706 14.875 13.312 13.2537 12.7722 11.9555C12.6624 11.6913 12.5575 11.4297 12.4541 11.172C12.1096 10.3128 11.7825 9.49718 11.3487 8.77649ZM31.0279 38.2662C31.1928 37.9671 31.3834 37.6976 31.5526 37.4636C31.6088 37.386 31.6638 37.3107 31.7178 37.2369C31.9769 36.8825 32.2095 36.5643 32.4096 36.2006C32.6398 35.7824 32.8022 35.3422 32.8442 34.8289C32.8864 34.3151 32.8127 33.67 32.4893 32.8389C32.4493 32.736 32.4267 32.6275 32.4221 32.5178C32.3539 32.4704 32.2393 32.4031 32.026 32.2817L32.0202 32.2784C31.5625 32.0178 30.8144 31.5919 30.3586 30.7089C30.3225 30.7379 30.2844 30.7695 30.2442 30.8036C30.0961 30.9291 29.9405 31.0711 29.7683 31.2289L29.7442 31.2509C29.5838 31.3978 29.409 31.558 29.235 31.7075C28.944 31.9575 28.5307 32.2926 28.0708 32.465C27.0001 33.1403 25.9246 33.6916 24.766 33.6171C23.938 33.5639 23.1963 33.205 22.4738 32.6169C22.4227 32.9824 22.3993 33.4191 22.3981 33.9168C22.3961 34.7457 22.4514 35.6067 22.5071 36.4754C22.5424 37.0252 22.5778 37.5781 22.5991 38.128C22.6343 39.0353 22.5203 39.8293 22.3986 40.3961C22.3375 40.6808 22.2736 40.9119 22.2235 41.0757C22.1985 41.1577 22.1768 41.2231 22.1605 41.2703C22.1523 41.2939 22.1455 41.313 22.1403 41.3273L22.1337 41.3453L22.1314 41.3515L22.1305 41.354L22.1301 41.355C22.13 41.3553 22.1297 41.356 21.1952 41L22.1297 41.356C21.982 41.7437 21.6102 42 21.1952 42H15.5C14.9477 42 14.5 41.5523 14.5 41C14.5 40.3 14.6245 39.7046 14.9019 39.2293C15.193 38.7306 15.6106 38.4373 16.0415 38.2976C16.165 38.2575 16.2859 38.2312 16.4013 38.2149L17.1285 34.7919L16.2251 28.7329L14.2542 23.2168L13.118 24.7937C13.0957 24.8247 13.0716 24.8544 13.0459 24.8826C12.5508 25.426 11.8579 25.7572 11.106 25.7572H9.45908C8.38471 25.7572 7.46185 25.0884 7.02964 24.1398L6.26992 22.4723C5.84189 21.5328 5.92275 20.402 6.51459 19.5389L10.2154 14.1328C9.86337 13.6876 9.67263 13.0661 9.55552 12.5337C9.41742 11.9059 9.33784 11.1822 9.30926 10.4737C9.28063 9.76378 9.30198 9.03889 9.37769 8.40517C9.44811 7.81565 9.5807 7.15797 9.86168 6.69168L9.86353 6.68861M31.0279 38.2662C30.889 38.2765 30.735 38.3005 30.5758 38.3485C30.1451 38.4784 29.7335 38.7667 29.4539 39.2663C29.1935 39.7316 29.0833 40.3151 29.0833 41C29.0833 41.5523 29.5311 42 30.0833 42H35.9005C36.3594 42 36.7594 41.6877 36.8707 41.2425L39.0011 32.7188C39.0389 32.5673 39.0408 32.4091 39.0065 32.2568L37.7142 26.5131C37.7364 26.5491 37.7588 26.5858 37.7815 26.623C38.0085 26.9984 38.3354 27.2722 38.7424 27.4044C39.1216 27.5277 39.4832 27.4995 39.7528 27.4479C40.0228 27.3962 40.2762 27.3053 40.4642 27.2342C40.5334 27.2081 40.5923 27.1853 40.6443 27.1652C40.7578 27.1214 40.8382 27.0903 40.9207 27.0647C41.0301 27.0306 41.1328 26.978 41.2244 26.9092C42.0401 26.296 42.2272 25.1443 41.7135 24.293L40.6707 22.5763C39.0062 19.8363 36.1929 18.1599 33.1167 18.1599H21.0415L17.0251 13.7521C16.8723 13.5844 16.6671 13.4737 16.4431 13.438C15.7196 13.3229 15.2492 12.7034 14.6189 11.1877C14.5322 10.9791 14.4435 10.7557 14.3506 10.5215C13.8473 9.25356 13.2196 7.67264 12.1154 6.46344M12.0943 14.92C12.094 14.9203 12.0943 14.92 12.0943 14.92V14.92Z" fill="#333333"/>
</svg>
