<svg width="48" height="48" viewBox="0 0 48 48" fill="none" xmlns="http://www.w3.org/2000/svg">
<path fill-rule="evenodd" clip-rule="evenodd" d="M8.98194 6.43998L11.0257 8.46431L12.9999 6.5043C13.719 5.79029 14.9377 5.88849 15.5117 6.75688C16.5539 8.32126 16.5632 10.3623 15.5413 11.9345L19.8119 16.1745H34.4936C38.0793 16.1745 41.4089 17.9416 43.4024 20.9103L44.6598 22.7829C45.2833 23.7177 45.0222 24.9616 44.1083 25.5831L44.0973 25.5906L42.3912 26.7176C41.6664 27.1941 40.734 27.1558 40.064 26.659L41.3835 31.4351C41.4317 31.6094 41.4317 31.7934 41.3835 31.9677L38.8145 41.2663C38.6947 41.6998 38.3003 42 37.8506 42H34.4936C33.9413 42 33.4936 41.5523 33.4936 41V30.9859H22.0698V41C22.0698 41.5523 21.622 42 21.0698 42H15.2996C14.7474 42 14.2996 41.5523 14.2996 41V27.5888L11.5365 22.1022L10.085 23.4108C9.51677 23.9653 8.75326 24.2805 7.95137 24.2805H5.96534C4.81338 24.2805 3.75623 23.6297 3.23995 22.6045L2.32382 20.7854C1.80794 19.7611 1.91166 18.525 2.61222 17.6008L7.08443 11.6906C5.76644 10.3021 5.62592 8.21191 6.65141 6.67231L6.65349 6.66919C7.18522 5.87733 8.30839 5.77228 8.98194 6.43998ZM8.05685 8.3387C7.85535 9.03248 8.02932 9.81298 8.57904 10.3587C8.66153 10.4406 8.75778 10.4932 9.0355 10.6447C9.04912 10.6522 9.06317 10.6598 9.07768 10.6678C9.37453 10.8299 9.56932 11.131 9.59544 11.4682C9.62156 11.8054 9.47546 12.133 9.20711 12.3389C9.15523 12.3786 9.10447 12.4145 9.06965 12.4392L9.06762 12.4406C9.02772 12.4688 9.00553 12.4846 8.98576 12.4996C8.98029 12.5037 8.97595 12.5071 8.97259 12.5098L4.20657 18.8083C3.97178 19.118 3.93405 19.5363 4.11008 19.8858L5.02621 21.7049C5.20183 22.0536 5.56693 22.2805 5.96534 22.2805H7.95137C8.22969 22.2805 8.49601 22.1702 8.69469 21.973C8.70606 21.9617 8.71771 21.9507 8.72962 21.9399L11.1705 19.7392C11.4021 19.5304 11.7178 19.4416 12.0243 19.499C12.3308 19.5565 12.593 19.7536 12.7333 20.0321L16.1928 26.9014C16.263 27.041 16.2996 27.195 16.2996 27.3512V40H20.0698V29.9859C20.0698 29.4336 20.5175 28.9859 21.0698 28.9859H34.4936C35.0459 28.9859 35.4936 29.4336 35.4936 29.9859V40H37.0894L39.3822 31.7014L36.8867 22.6691C36.7729 22.257 36.9336 21.8181 37.2867 21.577C37.6397 21.3359 38.107 21.3459 38.4494 21.6019C39.4759 22.3693 39.8036 22.8644 40.7085 24.2313C40.8686 24.4731 41.0466 24.7421 41.2498 25.0446L41.2516 25.0472L41.2534 25.0498L41.2543 25.0508L41.2552 25.0515C41.2552 25.0515 41.258 25.0531 41.2619 25.0539C41.266 25.0547 41.2706 25.0547 41.2753 25.0538C41.2776 25.0534 41.2803 25.0527 41.2835 25.0513C41.2861 25.0502 41.289 25.0487 41.2922 25.0466L42.9859 23.9277C42.9912 23.9238 42.9938 23.9205 42.9953 23.9181C42.9974 23.915 42.9988 23.9115 42.9995 23.9079C43.0002 23.9044 42.9998 23.9006 42.9998 23.9006C42.9998 23.9006 42.9993 23.8977 42.9962 23.8931L41.742 22.0253C40.1222 19.613 37.4169 18.1745 34.4936 18.1745H19.3998C19.1359 18.1745 18.8826 18.0701 18.6953 17.8841L13.4932 12.7194C13.3041 12.5317 13.1977 12.2762 13.1977 12.0098C13.1977 11.7433 13.3041 11.4878 13.4932 11.3001C14.3219 10.4773 14.5125 9.26442 14.0665 8.26364L11.7311 10.5823C11.3414 10.9691 10.7128 10.9695 10.3228 10.5831L8.05685 8.3387ZM13.843 7.85938L13.8458 7.86345L13.843 7.85938Z" fill="#333333"/>
</svg>
