<svg width="48" height="48" viewBox="0 0 48 48" fill="none" xmlns="http://www.w3.org/2000/svg">
<path fill-rule="evenodd" clip-rule="evenodd" d="M32 12.8439V26.1982C32 28.2073 31.1278 29.6038 29.7127 30.1835C28.3926 30.7243 26.8529 30.4429 25.6624 29.72C25.1731 29.4229 24.7174 29.0363 24.3393 28.5714C24.3721 29.7298 24.5585 31.1106 24.9702 32.7575C25.1041 33.2933 24.7784 33.8362 24.2426 33.9701C23.7068 34.1041 23.1638 33.7783 23.0299 33.2425C22.5173 31.1921 22.3141 29.4575 22.3356 27.9856C21.4128 28.2117 20.4293 28.2234 19.5428 28.0356C18.6461 27.8457 17.7644 27.437 17.0959 26.7503C16.4116 26.0473 16 25.1007 16 23.9585C16 22.3147 16.5875 21.1267 17.6358 20.259C18.6065 19.4556 19.9228 18.9744 21.2546 18.5434C21.5669 18.4423 21.886 18.3421 22.2108 18.2402C24.7495 17.4432 27.6352 16.5372 30.3541 14.2366L32 12.8439ZM22.5588 25.7959C21.8251 26.1444 20.8591 26.27 19.9572 26.079C19.3539 25.9512 18.8606 25.6959 18.5291 25.3553C18.2134 25.0311 18 24.5871 18 23.9585C18 22.8731 18.35 22.2642 18.9111 21.7997C19.5497 21.2711 20.5147 20.885 21.8704 20.4462C22.166 20.3506 22.4755 20.2539 22.7971 20.1534C24.8759 19.5041 27.4561 18.6982 30 17.0016V26.1982C30 27.5899 29.4535 28.1284 28.9546 28.3328C28.3606 28.5761 27.4911 28.4905 26.7004 28.0105C25.9292 27.5422 25.3812 26.7857 25.3103 25.8857C25.2405 24.9989 25.6175 23.738 27.1798 22.2336C27.5344 21.9058 27.6085 21.3599 27.3321 20.9453C27.0257 20.4858 26.4049 20.3616 25.9453 20.6679C25.1103 21.2246 23.7993 22.2421 23.0068 24.2593C22.8242 24.724 22.672 25.2344 22.5588 25.7959Z" fill="#333333"/>
<path fill-rule="evenodd" clip-rule="evenodd" d="M22.621 9.04725C20.5234 7.15414 17.6938 6 14.7692 6C8.7345 6 4 10.6778 4 16.6404C4 20.3045 5.6632 23.6688 8.69183 27.3273C11.7264 30.993 16.0777 34.8917 21.3702 39.6334L21.3709 39.6341L24.0013 42L26.6294 39.654L26.6846 39.6046C31.9521 34.875 36.284 30.9855 39.3081 27.33C42.3368 23.6689 44 20.3045 44 16.6404C44 10.6778 39.2655 6 33.2308 6C30.3062 6 27.4766 7.15414 25.379 9.04725C25.028 9.36404 24.6975 9.70151 24.3905 10.0577L24 10.5107L23.6095 10.0577C23.3025 9.70151 22.972 9.36404 22.621 9.04725ZM25.2937 38.1654L25.2949 38.1644L25.2957 38.1637L25.2976 38.162L25.3474 38.1173C30.6559 33.351 34.8585 29.571 37.7671 26.0552C40.6576 22.5612 42 19.6398 42 16.6404C42 11.805 38.1837 8 33.2308 8C30.4134 8 27.6769 9.30805 25.9054 11.3634L24 13.5739L22.0947 11.3635C20.3232 9.30816 17.5866 8 14.7692 8C9.81631 8 6 11.805 6 16.6404C6 19.6398 7.34243 22.5609 10.2324 26.0519C13.1506 29.577 17.3716 33.3656 22.7047 38.1438L22.7083 38.1471L22.7401 38.1754L22.7422 38.1775L24.0064 39.3146L25.2937 38.1654Z" fill="#333333"/>
</svg>
