<svg width="48" height="48" viewBox="0 0 48 48" fill="none" xmlns="http://www.w3.org/2000/svg">
<path d="M38.5376 26.6926C35.5712 30.2784 31.3037 34.1132 26.0155 38.8614L25.9636 38.908L25.9635 38.908L25.9631 38.9084L25.9624 38.909L24.0039 40.6573L22.0563 38.9056L22.0549 38.9042L22.0396 38.8906L22.0374 38.8886C16.7247 34.1287 12.4385 30.285 9.46213 26.6896L8.69183 27.3273L9.46212 26.6896C6.50282 23.1149 5 19.9721 5 16.6404C5 11.2414 9.2754 7 14.7692 7C17.8849 7 20.8954 8.44038 22.8521 10.7106L22.8521 10.7106L23.2426 11.1636L24 12.0423L24.7574 11.1636L25.1479 10.7106L25.1479 10.7106C27.1046 8.44038 30.1151 7 33.2308 7C38.7246 7 43 11.2414 43 16.6404C43 19.9722 41.4972 23.115 38.5376 26.6926Z" stroke="#333333" stroke-width="2"/>
<path d="M24 26C22 28 17 27.5 17 23.9585C17 18.5 24.5 20.5 31 15V26.1982C31 33 19.6504 28.0746 26.5 21.5" stroke="#333333" stroke-width="2"/>
<path d="M26.5 21.5C25 22.5 22 25 24 33" stroke="#333333" stroke-width="2" stroke-linecap="round"/>
</svg>
