<svg width="48" height="48" viewBox="0 0 48 48" fill="none" xmlns="http://www.w3.org/2000/svg">
<mask id="path-1-inside-1" fill="white">
<path d="M22.2503 33.4282H16.8971C16.3774 31.2458 14.0324 29.4611 13.0699 28.2851C11.4217 26.2678 10.3888 23.8354 10.0901 21.2681C9.79137 18.7008 10.2391 16.1031 11.3816 13.7742C12.524 11.4453 14.3149 9.47995 16.5477 8.10453C18.7806 6.72911 21.3646 5.99959 24.0022 6C26.6398 6.00041 29.2237 6.73075 31.4561 8.10686C33.6885 9.48298 35.4787 11.4489 36.6204 13.7782C37.7621 16.1074 38.209 18.7053 37.9094 21.2725C37.6099 23.8396 36.5762 26.2717 34.9273 28.2885C33.9648 29.4628 31.6233 31.2475 31.1036 33.4282H25.7503H22.2503ZM31.0003 36.8569V38.5713C31.0003 39.4806 30.6316 40.3527 29.9752 40.9957C29.3188 41.6388 28.4286 42 27.5003 42H20.5004C19.5721 42 18.6819 41.6388 18.0255 40.9957C17.3691 40.3527 17.0004 39.4806 17.0004 38.5713V36.8569H31.0003Z"/>
</mask>
<path d="M16.8971 33.4282L14.9515 33.8915L15.3175 35.4282H16.8971V33.4282ZM13.0699 28.2851L11.5211 29.5505L11.5221 29.5518L13.0699 28.2851ZM34.9273 28.2885L36.4742 29.5563L36.4757 29.5544L34.9273 28.2885ZM31.1036 33.4282V35.4282H32.6829L33.0491 33.8919L31.1036 33.4282ZM31.0003 36.8569H33.0003V34.8569H31.0003V36.8569ZM17.0004 36.8569V34.8569H15.0004V36.8569H17.0004ZM22.2503 31.4282H16.8971V35.4282H22.2503V31.4282ZM18.8427 32.9648C18.4642 31.3755 17.47 30.0773 16.6428 29.1488C16.2154 28.6691 15.777 28.2291 15.4218 27.8705C15.04 27.485 14.7861 27.2243 14.6176 27.0184L11.5221 29.5518C11.8349 29.9339 12.2351 30.3373 12.5799 30.6854C12.9513 31.0603 13.312 31.4234 13.6562 31.8097C14.3721 32.6132 14.8103 33.2985 14.9515 33.8915L18.8427 32.9648ZM14.6187 27.0197C13.2102 25.2957 12.3308 23.2216 12.0767 21.037L8.10347 21.4992C8.44669 24.4492 9.63319 27.2398 11.5211 29.5505L14.6187 27.0197ZM12.0767 21.037C11.8225 18.8525 12.203 16.6407 13.1771 14.6551L9.58597 12.8934C8.27507 15.5656 7.76024 18.5492 8.10347 21.4992L12.0767 21.037ZM13.1771 14.6551C14.1514 12.6691 15.6816 10.9871 17.5967 9.80738L15.4988 6.40167C12.9482 7.97282 10.8967 10.2216 9.58597 12.8934L13.1771 14.6551ZM17.5967 9.80738C19.5121 8.62747 21.7326 7.99964 24.0019 8L24.0026 4C20.9967 3.99953 18.049 4.83074 15.4988 6.40167L17.5967 9.80738ZM24.0019 8C26.2713 8.00036 28.4915 8.62888 30.4066 9.80939L32.5056 6.40434C29.9558 4.83261 27.0084 4.00047 24.0026 4L24.0019 8ZM30.4066 9.80939C32.3213 10.9897 33.8509 12.6721 34.8245 14.6584L38.4163 12.8979C37.1064 10.2257 35.0557 7.97629 32.5056 6.40434L30.4066 9.80939ZM34.8245 14.6584C35.798 16.6443 36.1778 18.8563 35.9229 21.0407L39.8959 21.5042C40.2401 18.5543 39.7263 15.5705 38.4163 12.8979L34.8245 14.6584ZM35.9229 21.0407C35.668 23.2252 34.788 25.2991 33.3789 27.0226L36.4757 29.5544C38.3643 27.2443 39.5518 24.4541 39.8959 21.5042L35.9229 21.0407ZM33.3805 27.0207C33.2115 27.2269 32.9575 27.4876 32.5759 27.873C32.2207 28.2316 31.7827 28.6714 31.3557 29.151C30.5292 30.0792 29.5365 31.3767 29.1581 32.9645L33.0491 33.8919C33.1904 33.299 33.6283 32.6138 34.3432 31.8109C34.6868 31.4249 35.0472 31.0621 35.418 30.6877C35.7623 30.34 36.1619 29.9373 36.4742 29.5563L33.3805 27.0207ZM31.1036 31.4282H25.7503V35.4282H31.1036V31.4282ZM29.0003 36.8569V38.5713H33.0003V36.8569H29.0003ZM29.0003 38.5713C29.0003 38.9368 28.8525 39.2958 28.5756 39.5671L31.3748 42.4244C32.4107 41.4097 33.0003 40.0245 33.0003 38.5713H29.0003ZM28.5756 39.5671C28.2973 39.8397 27.9113 40 27.5003 40V44C28.9459 44 30.3404 43.4378 31.3748 42.4244L28.5756 39.5671ZM27.5003 40H20.5004V44H27.5003V40ZM20.5004 40C20.0894 40 19.7034 39.8397 19.4251 39.5671L16.6259 42.4244C17.6603 43.4378 19.0548 44 20.5004 44V40ZM19.4251 39.5671C19.1482 39.2958 19.0004 38.9368 19.0004 38.5713H15.0004C15.0004 40.0245 15.59 41.4097 16.6259 42.4244L19.4251 39.5671ZM19.0004 38.5713V36.8569H15.0004V38.5713H19.0004ZM17.0004 38.8569H31.0003V34.8569H17.0004V38.8569ZM25.7503 31.4282H22.2503V35.4282H25.7503V31.4282Z" fill="#333333" mask="url(#path-1-inside-1)"/>
<path d="M18 22L25.5 12V19H30L22 29V22H18Z" fill="#333333"/>
<rect x="19" y="38" width="10" height="3" fill="#333333"/>
</svg>
