<svg width="48" height="48" viewBox="0 0 48 48" fill="none" xmlns="http://www.w3.org/2000/svg">
<path d="M18 22L25.5 12V19H30L22 29V22H18Z" fill="#333333"/>
<path fill-rule="evenodd" clip-rule="evenodd" d="M16.8971 33.4282C16.5125 31.8131 15.1282 30.4158 14.0444 29.3219C13.6637 28.9376 13.32 28.5908 13.0699 28.2851C11.4217 26.2678 10.3888 23.8354 10.0901 21.2681C9.79137 18.7008 10.2391 16.1031 11.3816 13.7742C12.524 11.4453 14.3149 9.47995 16.5477 8.10453C18.7806 6.72911 21.3646 5.99959 24.0022 6C26.6398 6.00041 29.2237 6.73075 31.4561 8.10687C33.6885 9.48299 35.4787 11.4489 36.6204 13.7782C37.7621 16.1074 38.209 18.7053 37.9094 21.2725C37.6099 23.8396 36.5762 26.2717 34.9273 28.2885C34.6779 28.5928 34.3359 28.9381 33.9569 29.3207C32.8736 30.4144 31.4886 31.8126 31.1036 33.4282H16.8971ZM18.2638 31.4282H29.737C30.2017 30.5255 30.8144 29.759 31.3557 29.151C31.7632 28.6933 32.1807 28.2719 32.5267 27.9226L32.5759 27.873C32.9568 27.4884 33.2106 27.2278 33.3796 27.0219C34.7882 25.2985 35.668 23.2249 35.9229 21.0407C36.1778 18.8563 35.798 16.6443 34.8245 14.6584C33.8509 12.6721 32.3213 10.9897 30.4066 9.80939C28.4915 8.62888 26.2713 8.00036 24.0019 8C21.7326 7.99964 19.5121 8.62747 17.5967 9.80738C15.6816 10.9871 14.1514 12.6691 13.1771 14.6551C12.203 16.6407 11.8225 18.8525 12.0767 21.037C12.3308 23.2213 13.21 25.2953 14.6182 27.0191C14.7867 27.2249 15.0404 27.4855 15.4218 27.8705L15.4739 27.9231C15.8194 28.2718 16.2361 28.6924 16.6428 29.1488C17.1849 29.7572 17.7986 30.5244 18.2638 31.4282Z" fill="#333333"/>
<path d="M17.0125 38.8569C17.0811 39.6616 17.4382 40.4204 18.0255 40.9957C18.6819 41.6388 19.5721 42 20.5004 42H27.5003C28.4286 42 29.3188 41.6388 29.9752 40.9957C30.5625 40.4204 30.9195 39.6616 30.9882 38.8569C30.9963 38.7622 31.0003 38.667 31.0003 38.5713V36.8569H17.0004V38.5713C17.0004 38.667 17.0044 38.7622 17.0125 38.8569Z" fill="#333333"/>
</svg>
