<svg width="48" height="48" viewBox="0 0 48 48" fill="none" xmlns="http://www.w3.org/2000/svg">
<path fill-rule="evenodd" clip-rule="evenodd" d="M21 18.4423C20.4244 18.6656 19.9014 18.9915 19.4542 19.3972C18.4683 20.2914 17.8507 21.573 17.8507 22.9966H10.569C10.2546 23.0323 10 22.7817 10 22.4723C10 18.1246 12.278 14.4323 16.4152 12.0759C16.5442 12.002 16.6975 11.981 16.8421 12.0175C16.9866 12.054 17.1108 12.145 17.1877 12.271L21 18.4423ZM16.2462 14.5525C13.8782 16.2413 12.4915 18.464 12.1091 20.9966H16.1484C16.534 19.7365 17.2741 18.6327 18.2489 17.7944L16.2462 14.5525Z" fill="#333333"/>
<path fill-rule="evenodd" clip-rule="evenodd" d="M27 18.4423C27.5756 18.6656 28.0986 18.9915 28.5458 19.3972C29.5317 20.2914 30.1493 21.573 30.1493 22.9966H37.431C37.7454 23.0323 38 22.7817 38 22.4723C38 18.1246 35.722 14.4323 31.5848 12.0759C31.4558 12.002 31.3025 11.981 31.1579 12.0175C31.0134 12.054 30.8892 12.145 30.8123 12.271L27 18.4423ZM31.7538 14.5525C34.1218 16.2413 35.5085 18.464 35.8909 20.9966H31.8516C31.466 19.7365 30.7259 18.6327 29.7511 17.7944L31.7538 14.5525Z" fill="#333333"/>
<path fill-rule="evenodd" clip-rule="evenodd" d="M30.926 35.5102C31.0014 35.6424 31.0201 35.7979 30.9779 35.9432C30.9358 36.0886 30.8363 36.2121 30.7009 36.2872C26.6195 38.5709 21.3813 38.5709 17.2978 36.2872C17.1628 36.2118 17.0637 36.0881 17.0219 35.9428C16.98 35.7977 16.9987 35.6423 17.0738 35.5102L20.7627 29C21.1475 29.2964 21.5768 29.5412 22.0393 29.7234C22.6445 29.9618 23.3066 30.0932 24.0004 30.0932C24.6941 30.0932 25.3561 29.9618 25.9612 29.7235C26.4238 29.5413 26.8531 29.2966 27.238 29.0002L30.926 35.5102ZM19.5712 35.1596L21.5463 31.6739C22.3142 31.9456 23.1412 32.0932 24.0004 32.0932C24.8596 32.0932 25.6864 31.9456 26.4542 31.674L28.4286 35.1594C25.6262 36.2801 22.3753 36.2803 19.5712 35.1596Z" fill="#333333"/>
<path fill-rule="evenodd" clip-rule="evenodd" d="M24 28.1669C26.3012 28.1669 28.1667 26.3014 28.1667 24.0002C28.1667 21.699 26.3012 19.8335 24 19.8335C21.6988 19.8335 19.8333 21.699 19.8333 24.0002C19.8333 26.3014 21.6988 28.1669 24 28.1669ZM24 26.1669C25.1966 26.1669 26.1667 25.1968 26.1667 24.0002C26.1667 22.8036 25.1966 21.8335 24 21.8335C22.8034 21.8335 21.8333 22.8036 21.8333 24.0002C21.8333 25.1968 22.8034 26.1669 24 26.1669Z" fill="#333333"/>
<path fill-rule="evenodd" clip-rule="evenodd" d="M42 24C42 33.9411 33.9411 42 24 42C14.0589 42 6 33.9411 6 24C6 14.0589 14.0589 6 24 6C33.9411 6 42 14.0589 42 24ZM40 24C40 32.8366 32.8366 40 24 40C15.1634 40 8 32.8366 8 24C8 15.1634 15.1634 8 24 8C32.8366 8 40 15.1634 40 24Z" fill="#333333"/>
</svg>
