<svg width="48" height="48" viewBox="0 0 48 48" fill="none" xmlns="http://www.w3.org/2000/svg">
<path d="M11.01 21.9966C11.1634 18.3733 13.0756 15.262 16.5568 13.1525L19.5803 18.0468C18.2108 18.9224 17.2231 20.339 16.9363 21.9966H11.01Z" stroke="#333333" stroke-width="2"/>
<path d="M36.99 21.9966C36.8366 18.3733 34.9244 15.262 31.4432 13.1525L28.4197 18.0468C29.7892 18.9224 30.7769 20.339 31.0637 21.9966H36.99Z" stroke="#333333" stroke-width="2"/>
<path d="M21.1171 30.403C21.98 30.8443 22.9618 31.0932 24.0004 31.0932C25.039 31.0932 26.0207 30.8443 26.8835 30.4031L29.8367 35.6161C26.2427 37.4611 21.7593 37.4614 18.163 35.6165L21.1171 30.403ZM30.2159 35.4126L30.2133 35.4141L30.216 35.4126L30.2159 35.4126Z" stroke="#333333" stroke-width="2"/>
<path d="M27.1667 24.0002C27.1667 25.7491 25.7489 27.1669 24 27.1669C22.2511 27.1669 20.8333 25.7491 20.8333 24.0002C20.8333 22.2513 22.2511 20.8335 24 20.8335C25.7489 20.8335 27.1667 22.2513 27.1667 24.0002Z" stroke="#333333" stroke-width="2"/>
<circle cx="24" cy="24" r="17" stroke="#333333" stroke-width="2"/>
</svg>
