<svg width="48" height="48" viewBox="0 0 48 48" fill="none" xmlns="http://www.w3.org/2000/svg">
<path d="M5 16.6404C5 11.2414 9.2754 7 14.7692 7C17.8849 7 20.8955 8.44044 22.8521 10.7106L23.2426 11.1636C23.4325 11.384 23.7091 11.5107 24 11.5107C24.291 11.5107 24.5675 11.384 24.7574 11.1636L25.1479 10.7106C27.1046 8.44038 30.1151 7 33.2308 7C38.7246 7 43 11.2414 43 16.6404C43 19.9722 41.4972 23.115 38.5376 26.6926C35.5714 30.2782 31.3039 34.1131 26.0162 38.8608L26.0152 38.8617L26.0142 38.8626L25.9635 38.908L24.0039 40.6573L22.046 38.8964L22.0374 38.8886C18.7461 35.9397 15.8425 33.3379 13.3927 30.9182C12.9998 30.5301 12.3666 30.534 11.9785 30.927C11.5904 31.3199 11.5943 31.9531 11.9873 32.3412C14.4759 34.7992 17.4152 37.4327 20.6918 40.3683L20.7029 40.3782L23.3326 42.7435C23.7118 43.0845 24.2868 43.0856 24.6673 42.746L27.2965 40.3991L27.353 40.3484L27.354 40.3475L27.4064 40.3005C32.63 35.6103 37.0071 31.6802 40.0786 27.9675C43.1764 24.2228 45 20.6369 45 16.6404C45 10.1142 39.8064 5 33.2308 5C29.7086 5 26.3247 6.5349 24 8.99804C21.6753 6.5349 18.2914 5 14.7692 5C8.1936 5 3 10.1142 3 16.6404C3 19.1909 3.74347 21.5774 5.08921 23.9444H5C4.44772 23.9444 4 24.3921 4 24.9444C4 25.4967 4.44772 25.9444 5 25.9444H18.5848L20.1968 23.0788L22.0797 29.6691L26.4891 24H31C31.5523 24 32 23.5523 32 23C32 22.4477 31.5523 22 31 22H25.5109L22.9203 25.3308L20.8032 17.9212L17.4152 23.9444H7.42842C5.81669 21.4482 5 19.098 5 16.6404Z" fill="#333333"/>
</svg>
