<svg width="48" height="48" viewBox="0 0 48 48" fill="none" xmlns="http://www.w3.org/2000/svg">
<path d="M13 31C15.2698 33.205 18.5378 36.125 21.5023 38.7655L24.0013 41L26.498 38.7844L26.5494 38.7385L26.5504 38.7376C31.5546 34.2708 35.6698 30.5974 38.5427 27.145C41.42 23.6873 43 20.5098 43 17.0493C43 11.4179 38.5023 7 32.7692 7C29.9909 7 27.3027 8.09002 25.31 9.87796C24.9766 10.1771 24.6626 10.4959 24.3709 10.8323L24 11.2601L23.6291 10.8323C23.3374 10.4959 23.0234 10.1771 22.69 9.87796C20.6973 8.09002 18.0091 7 15.2308 7C9.49778 7 5 11.4179 5 17.0493C5 19.765 5.97308 22.3064 7.78253 24.9444M7.78253 24.9444H18L20.5 20.5L22.5 27.5L26 23H31M7.78253 24.9444H5" stroke="#333333" stroke-width="2" stroke-linecap="round"/>
</svg>
