<svg width="48" height="48" viewBox="0 0 48 48" fill="none" xmlns="http://www.w3.org/2000/svg">
<path fill-rule="evenodd" clip-rule="evenodd" d="M22.621 9.04725C20.5234 7.15414 17.6938 6 14.7692 6C8.7345 6 4 10.6778 4 16.6404C4 20.3045 5.6632 23.6688 8.69183 27.3273C11.7264 30.993 16.0777 34.8917 21.3702 39.6334L21.3709 39.6341L24.0013 42L26.6294 39.654L26.6846 39.6046C31.9521 34.875 36.284 30.9855 39.3081 27.33C42.3368 23.6689 44 20.3045 44 16.6404C44 10.6778 39.2655 6 33.2308 6C30.3062 6 27.4766 7.15414 25.379 9.04725C25.028 9.36404 24.6975 9.70151 24.3905 10.0577L24 10.5107L23.6095 10.0577C23.3025 9.70151 22.972 9.36404 22.621 9.04725ZM25.2937 38.1654L25.2949 38.1644L25.2957 38.1637L25.2976 38.162L25.3474 38.1173C30.6559 33.351 34.8585 29.571 37.7671 26.0552C40.6576 22.5612 42 19.6398 42 16.6404C42 11.805 38.1837 8 33.2308 8C30.4134 8 27.6769 9.30805 25.9054 11.3634L24 13.5739L22.0947 11.3635C20.3232 9.30816 17.5866 8 14.7692 8C9.81631 8 6 11.805 6 16.6404C6 19.6398 7.34243 22.5609 10.2324 26.0519C13.1506 29.577 17.3716 33.3656 22.7047 38.1438L22.7083 38.1471L22.7401 38.1754L22.7422 38.1775L24.0064 39.3146L25.2937 38.1654Z" fill="#333333"/>
</svg>
