<svg width="48" height="48" viewBox="0 0 48 48" fill="none" xmlns="http://www.w3.org/2000/svg">
<path fill-rule="evenodd" clip-rule="evenodd" d="M36.3422 29.7441C36.2906 29.8014 36.1532 29.9134 35.8499 29.9931L35.8333 29.9975L23.4874 33.7001C23.3465 33.734 23.198 33.7169 23.0683 33.6517L21.7079 32.9678C21.3456 32.7856 21.2563 32.3084 21.5283 32.0076L22.5494 30.8781C22.6466 30.7705 22.7788 30.7009 22.9223 30.6815L35.7559 29.6852L35.7735 29.6832C36.099 29.6463 36.2736 29.707 36.3422 29.7441ZM36.3733 29.7002C36.3735 29.6996 36.3733 29.7002 36.3733 29.7002V29.7002ZM35.5673 27.6938C36.852 27.5552 38.0952 28.1273 38.336 29.3574C38.5789 30.5982 37.6261 31.5871 36.3764 31.9226L24.0252 35.6269L24.0086 35.6312C23.3927 35.7931 22.7388 35.7246 22.1699 35.4386L20.8095 34.7546C19.2668 33.979 18.8867 31.9472 20.0447 30.6663L21.0658 29.5369C21.4928 29.0645 22.0777 28.7642 22.7105 28.6925L22.728 28.6905L35.5673 27.6938Z" fill="#333333"/>
<path fill-rule="evenodd" clip-rule="evenodd" d="M34.5246 12.6475C31.723 10.4336 28.3855 9.22753 25 9.02926L25 12.0001C25 12.5523 24.5523 13.0001 24 13.0001C23.4477 13.0001 23 12.5523 23 12.0001L23 9.02926C19.7194 9.22138 16.4839 10.3598 13.7374 12.4446L15.7071 14.414C16.0976 14.8045 16.0977 15.4377 15.7072 15.8282C15.3167 16.2188 14.6835 16.2188 14.2929 15.8283L12.2136 13.7492C12.1349 13.825 12.0567 13.9016 11.9792 13.9792C9.16931 16.7891 7.5487 20.3378 7.11734 24.0001H10C10.5523 24.0001 11 24.4478 11 25.0001C11 25.5523 10.5523 26.0001 10 26.0001H7C7.00001 29.8578 8.30494 33.7155 10.9148 36.8543C10.9593 36.6931 11.0449 36.5409 11.1715 36.4143L13.2929 34.2929C13.6834 33.9024 14.3166 33.9024 14.7071 34.293C15.0976 34.6835 15.0976 35.3167 14.7071 35.7072L12.5857 37.8285C12.3905 38.0238 12.1345 38.1214 11.8786 38.1214L10.565 39.435C3.14501 32.0151 3.14501 19.9849 10.565 12.565C17.9849 5.14501 30.0151 5.14501 37.435 12.565C44.855 19.9849 44.855 32.0151 37.435 39.435L36.0208 38.0208L33.8995 35.8993C33.509 35.5087 33.509 34.8756 33.8995 34.4851C34.2901 34.0945 34.9232 34.0946 35.3138 34.4851L37.3528 36.5242C39.7843 33.4471 41 29.7236 41 26.0001H38C37.4477 26.0001 37 25.5523 37 25.0001C37 24.4478 37.4477 24.0001 38 24.0001H40.8827C40.4513 20.338 38.8308 16.7893 36.0211 13.9794L33.8994 16.101C33.5089 16.4915 32.8757 16.4915 32.4852 16.1009C32.0947 15.7104 32.0947 15.0772 32.4852 14.6867L34.5246 12.6475Z" fill="#333333"/>
</svg>
