<svg width="48" height="48" viewBox="0 0 48 48" fill="none" xmlns="http://www.w3.org/2000/svg">
<path fill-rule="evenodd" clip-rule="evenodd" d="M26.9238 4C27.8914 4 28.7899 4.21665 29.5913 4.67461C30.276 5.06587 31.0533 5.60468 31.628 6.40924L31.6156 6.41808L31.6269 6.43319L33.9585 9.45545L34.7795 10.5501C37.3104 13.8928 37.31 18.5471 34.778 21.8892L30.2716 27.7066L38.832 38.6603L31.2676 44.3909L24.2094 35.3917L17.1514 44.3906L9.58701 38.6599L18.1523 27.7001L13.6468 21.9878L13.641 21.98C11.109 18.6379 11.1085 13.9837 13.6394 10.641L13.641 10.639L14.4523 9.55709L16.7886 6.52845C16.8241 6.4809 16.8604 6.43373 16.8974 6.38697C18.0073 4.84975 19.8517 4 21.6761 4H26.9238ZM28.5991 6.4111C29.1501 6.726 29.6182 7.07086 29.9466 7.49895L29.932 7.51045L30.0321 7.64017C31.076 9.05028 31.0686 11.0297 30.0098 12.4317C29.0758 11.862 27.965 11.5093 26.8334 11.5093H21.5857C20.4634 11.5093 19.3185 11.8099 18.3446 12.4333C17.8617 11.7462 17.6095 10.8772 17.6095 10.0667C17.6095 9.25167 17.8658 8.43472 18.3832 7.73584L18.4982 7.5867L18.5089 7.57171C19.2104 6.58966 20.4332 6 21.6761 6H26.9238C27.5847 6 28.1338 6.14525 28.5991 6.4111ZM19.574 14.0266L24.1743 19.9687L28.7743 14.0271C28.1756 13.7019 27.496 13.5093 26.8334 13.5093H21.5857C20.8665 13.5093 20.1664 13.6876 19.574 14.0266ZM28.9963 26.0871L25.4437 21.5961L31.5098 13.7607C32.1353 12.9766 32.535 12.0671 32.709 11.1228L33.1838 11.7559C35.1741 14.3831 35.1752 18.049 33.187 20.6773L28.9963 26.0871ZM19.4269 29.3171L12.4131 38.2918L16.7915 41.6087L22.9374 33.7727L19.4269 29.3171ZM16.9091 13.8515C16.2872 13.0717 15.8932 12.14 15.717 11.2043L15.238 11.8429L15.2351 11.8467C13.2457 14.4728 13.2438 18.1367 15.2294 20.7648L24.9963 33.1543L31.6275 41.6091L36.006 38.2921L28.2204 28.3299L28.2168 28.3253L23.4251 22.2681L16.9091 13.8515Z" fill="#333333"/>
<path d="M41.6588 32.6986C41.6588 33.4173 41.0761 34 40.3573 34C39.6386 34 39.0559 33.4173 39.0559 32.6986C39.0559 31.9798 39.6386 31.3971 40.3573 31.3971C41.0761 31.3971 41.6588 31.9798 41.6588 32.6986Z" fill="#333333"/>
<path d="M37.0085 22.5659C36.8193 22.9421 36.7563 23.1536 36.7197 23.6071C36.6817 24.0772 36.7665 24.4713 37.2098 24.6605C37.3775 24.732 37.5491 24.7489 37.7609 24.6727C38.0643 24.5635 38.1915 24.3681 38.2672 24.0972C38.2835 23.9893 38.2806 23.9075 38.2779 23.8313C38.2751 23.7552 38.2726 23.6845 38.2896 23.5989C38.3974 23.0552 38.7863 22.8008 39.2921 22.6615C39.9973 22.4673 41.1151 22.5996 41.3745 22.7184C41.9173 22.9137 42.4157 23.2157 42.4421 24.1216C42.4646 24.8929 42.2659 25.2678 41.3745 25.8094C41.2667 25.8835 41.1569 25.9513 41.0457 26.02C40.7476 26.2041 40.4387 26.3948 40.1286 26.7306C39.8349 27.0647 39.6395 27.393 39.5968 27.753V28.2797C39.5968 28.4931 39.5943 28.7067 39.5919 28.9149C39.5881 29.2398 39.5845 29.5516 39.5907 29.8292C39.6009 30.2847 40.0253 30.36 40.3574 30.36C40.7225 30.36 41.0813 30.2156 41.0813 29.8475C41.0813 29.5814 41.0818 29.33 41.0823 29.0762C41.0828 28.8176 41.0833 28.5567 41.0833 28.2756C41.0833 28.022 41.1745 27.9121 41.2814 27.7831C41.2885 27.7745 41.2957 27.7659 41.303 27.757C41.5353 27.5383 41.8067 27.3737 42.1009 27.1953C42.2033 27.1332 42.3085 27.0694 42.4157 27.0011C42.9424 26.6656 43.2494 26.3504 43.4528 26.0657C43.7538 25.6793 43.921 25.2315 43.9795 24.6483C44.0425 24.0199 43.9998 23.2736 43.5972 22.5659C43.025 21.598 42.0334 21.1546 40.8478 21.0286C40.2418 20.9757 39.892 21.0001 39.2921 21.0704C38.8701 21.1532 38.6301 21.2046 38.251 21.3844C37.7304 21.6508 37.3277 21.9538 37.0085 22.5659Z" fill="#333333"/>
</svg>
