<svg width="48" height="48" viewBox="0 0 48 48" fill="none" xmlns="http://www.w3.org/2000/svg">
<path fill-rule="evenodd" clip-rule="evenodd" d="M29.5914 4.67461C28.7899 4.21665 27.8914 4 26.9238 4H21.6762C19.8517 4 18.0073 4.84975 16.8975 6.38697C16.8604 6.43373 16.8242 6.4809 16.7887 6.52845L14.4523 9.55709L13.641 10.639L13.6395 10.641C11.1086 13.9837 11.1091 18.6379 13.641 21.98L13.6469 21.9878L18.1523 27.7L9.58698 38.6599L17.1514 44.3906L24.2094 35.3916L31.2676 44.3909L38.8321 38.6603L30.2717 27.7066L34.7781 21.8892C37.31 18.5471 37.3105 13.8928 34.7795 10.5501L33.9585 9.45545L31.627 6.43319L31.6156 6.41808L31.628 6.40924C31.0533 5.60468 30.2761 5.06587 29.5914 4.67461ZM29.9467 7.49895C29.6183 7.07086 29.1502 6.726 28.5991 6.4111C28.1339 6.14525 27.5848 6 26.9238 6H21.6762C20.4333 6 19.2104 6.58966 18.509 7.57171L18.4983 7.5867L18.3832 7.73584C17.8658 8.43472 17.6095 9.25167 17.6095 10.0667C17.6095 10.8772 17.8617 11.7461 18.3446 12.4333C19.3185 11.8099 20.4633 11.5093 21.5857 11.5093H26.8333C27.965 11.5093 29.0758 11.862 30.0098 12.4317C31.0686 11.0297 31.076 9.05029 30.0321 7.64017L29.932 7.51045L29.9467 7.49895ZM24.1744 19.9687L19.574 14.0266C20.1664 13.6876 20.8665 13.5093 21.5857 13.5093H26.8333C27.4959 13.5093 28.1756 13.7019 28.7743 14.0271L24.1744 19.9687ZM25.4438 21.5961L28.9964 26.0871L33.187 20.6773C35.1752 18.049 35.1742 14.3831 33.1839 11.7559L32.709 11.1228C32.5351 12.0671 32.1354 12.9766 31.5099 13.7607L25.4438 21.5961ZM12.413 38.2918L19.4269 29.317L22.9374 33.7727L16.7914 41.6087L12.413 38.2918ZM15.717 11.2043C15.8932 12.14 16.2873 13.0717 16.9091 13.8515L23.4252 22.2681L28.2168 28.3253L28.2205 28.3299L36.006 38.2921L31.6276 41.6091L24.9964 33.1543L15.2295 20.7648C13.2438 18.1367 13.2457 14.4728 15.2352 11.8467L15.2381 11.8429L15.717 11.2043Z" fill="#333333"/>
<path d="M36 26H44C44.5523 26 45 26.4477 45 27C45 27.5523 44.5523 28 44 28H36C35.4477 28 35 27.5523 35 27C35 26.4477 35.4477 26 36 26Z" fill="#333333"/>
</svg>
