<svg width="48" height="48" viewBox="0 0 48 48" fill="none" xmlns="http://www.w3.org/2000/svg">
<path d="M17 21.4999C17 20.9477 16.5523 20.4999 16 20.4999C15.4477 20.4999 15 20.9477 15 21.4999V26.4999C15 27.0522 15.4477 27.4999 16 27.4999C16.5523 27.4999 17 27.0522 17 26.4999V24.9999H19V26.4999C19 27.0522 19.4477 27.4999 20 27.4999C20.5523 27.4999 21 27.0522 21 26.4999V21.4999C21 20.9477 20.5523 20.4999 20 20.4999C19.4477 20.4999 19 20.9477 19 21.4999V22.9999H17V21.4999Z" fill="#333333"/>
<path fill-rule="evenodd" clip-rule="evenodd" d="M22 21.4999C22 20.9477 22.4477 20.4999 23 20.4999H25C26.3807 20.4999 27.5 21.6192 27.5 22.9999C27.5 24.3807 26.3807 25.4999 25 25.4999H24V26.4999C24 27.0522 23.5523 27.4999 23 27.4999C22.4477 27.4999 22 27.0522 22 26.4999V21.4999ZM24 23.4999H25C25.2761 23.4999 25.5 23.2761 25.5 22.9999C25.5 22.7238 25.2761 22.4999 25 22.4999H24V23.4999Z" fill="#333333"/>
<path d="M29.9285 21.1286C29.7234 20.6158 29.1414 20.3664 28.6286 20.5715C28.1158 20.7766 27.8664 21.3586 28.0715 21.8714L30.0715 26.8714C30.2234 27.251 30.5911 27.5 31 27.5C31.4089 27.5 31.7766 27.251 31.9285 26.8714L33.9285 21.8714C34.1336 21.3586 33.8842 20.7766 33.3714 20.5715C32.8586 20.3664 32.2767 20.6158 32.0715 21.1286L31 23.8074L29.9285 21.1286Z" fill="#333333"/>
<path fill-rule="evenodd" clip-rule="evenodd" d="M22 3.99994C21.4477 3.99994 21 4.44765 21 4.99994C21 5.55222 21.4477 5.99994 22 5.99994H23V9.03274C19.6102 9.25586 16.5281 10.605 14.124 12.7097L11.9792 10.5649L12.6863 9.85781C13.0768 9.46728 13.0768 8.83412 12.6863 8.44359C12.2958 8.05307 11.6626 8.05307 11.2721 8.44359L8.44368 11.272C8.05315 11.6625 8.05315 12.2957 8.44368 12.6862C8.8342 13.0768 9.46737 13.0768 9.85789 12.6862L10.565 11.9791L12.7098 14.1239C10.605 16.528 9.25584 19.6104 9.03278 23.0002H6V22.0002C6 21.448 5.55228 21.0002 5 21.0002C4.44772 21.0002 4 21.448 4 22.0002V26.0002C4 26.5525 4.44772 27.0002 5 27.0002C5.55228 27.0002 6 26.5525 6 26.0002V25.0002H9.03282C9.256 28.3899 10.6051 31.4719 12.7097 33.8759L10.5649 36.0207L9.85781 35.3136C9.46728 34.9231 8.83412 34.9231 8.44359 35.3136C8.05307 35.7041 8.05307 36.3373 8.44359 36.7278L11.272 39.5563C11.6625 39.9468 12.2957 39.9468 12.6862 39.5563C13.0768 39.1657 13.0768 38.5326 12.6862 38.142L11.9791 37.4349L14.1239 35.2902C16.528 37.3948 19.6102 38.744 23 38.9671V41.9999H22C21.4477 41.9999 21 42.4477 21 42.9999C21 43.5522 21.4477 43.9999 22 43.9999H26C26.5523 43.9999 27 43.5522 27 42.9999C27 42.4477 26.5523 41.9999 26 41.9999H25V38.9671C28.3898 38.744 31.472 37.3949 33.8761 35.2902L36.0208 37.4349L35.3137 38.1421C34.9232 38.5326 34.9232 39.1657 35.3137 39.5563C35.7042 39.9468 36.3374 39.9468 36.7279 39.5563L39.5564 36.7278C39.9469 36.3373 39.9469 35.7042 39.5564 35.3136C39.1658 34.9231 38.5327 34.9231 38.1421 35.3136L37.435 36.0207L35.2903 33.876C37.3949 31.472 38.744 28.3899 38.9672 25.0002H42V26.0002C42 26.5525 42.4477 27.0002 43 27.0002C43.5523 27.0002 44 26.5525 44 26.0002V22.0002C44 21.448 43.5523 21.0002 43 21.0002C42.4477 21.0002 42 21.448 42 22.0002V23.0002H38.9672C38.7442 19.6103 37.395 16.528 35.2902 14.1238L37.4349 11.9791L38.1421 12.6862C38.5326 13.0767 39.1657 13.0767 39.5563 12.6862C39.9468 12.2957 39.9468 11.6625 39.5563 11.272L36.7278 8.44358C36.3373 8.05306 35.7042 8.05306 35.3136 8.44358C34.9231 8.83411 34.9231 9.46727 35.3136 9.8578L36.0207 10.5649L33.876 12.7096C31.4719 10.605 28.3897 9.25586 25 9.03274V5.99994H26C26.5523 5.99994 27 5.55222 27 4.99994C27 4.44765 26.5523 3.99994 26 3.99994H22ZM36 23.0002H36.9621C36.7463 20.162 35.619 17.5785 33.8724 15.5417L33.1923 16.2218C32.8018 16.6123 32.1686 16.6123 31.7781 16.2218C31.3876 15.8312 31.3876 15.1981 31.7781 14.8075L32.4582 14.1275C30.4215 12.3809 27.8381 11.2537 25 11.0378V11.9999C25 12.5522 24.5523 12.9999 24 12.9999C23.4477 12.9999 23 12.5522 23 11.9999V11.0378C20.1619 11.2537 17.5785 12.3809 15.5418 14.1275L16.2219 14.8076C16.6124 15.1981 16.6124 15.8312 16.2219 16.2218C15.8313 16.6123 15.1982 16.6123 14.8076 16.2218L14.1276 15.5417C12.3809 17.5785 11.2537 20.162 11.0379 23.0002H12C12.5523 23.0002 13 23.448 13 24.0002C13 24.5525 12.5523 25.0002 12 25.0002H11.0379C11.2539 27.8382 12.3811 30.4215 14.1275 32.4581L14.8076 31.7781C15.1981 31.3876 15.8312 31.3876 16.2218 31.7781C16.6123 32.1686 16.6123 32.8018 16.2218 33.1923L15.5417 33.8723C17.5784 35.6189 20.1619 36.7461 23 36.962V35.9999C23 35.4477 23.4477 34.9999 24 34.9999C24.5523 34.9999 25 35.4477 25 35.9999V36.962C27.8381 36.7461 30.4215 35.6189 32.4582 33.8724L31.7782 33.1923C31.3877 32.8018 31.3877 32.1686 31.7782 31.7781C32.1687 31.3876 32.8019 31.3876 33.1924 31.7781L33.8724 32.4581C35.6189 30.4215 36.7461 27.8382 36.9621 25.0002H36C35.4477 25.0002 35 24.5525 35 24.0002C35 23.448 35.4477 23.0002 36 23.0002Z" fill="#333333"/>
</svg>
