<svg width="48" height="48" viewBox="0 0 48 48" fill="none" xmlns="http://www.w3.org/2000/svg">
<path d="M16 5H29.5858L39 14.4142V36C39 37.6569 37.6569 39 36 39H16C14.3431 39 13 37.6569 13 36V8C13 6.34315 14.3431 5 16 5Z" stroke="#333333" stroke-width="2" stroke-linejoin="round"/>
<path d="M10 9C10 8.44772 9.55228 8 9 8C8.44772 8 8 8.44772 8 9H10ZM35 44C35.5523 44 36 43.5523 36 43C36 42.4477 35.5523 42 35 42V44ZM8 9V38H10V9H8ZM14 44H35V42H14V44ZM8 38C8 41.3137 10.6863 44 14 44V42C11.7909 42 10 40.2091 10 38H8Z" fill="#333333"/>
<path d="M20 26L24 30L32 22" stroke="#333333" stroke-width="2" stroke-linecap="round"/>
</svg>
