<svg width="48" height="48" viewBox="0 0 48 48" fill="none" xmlns="http://www.w3.org/2000/svg">
<path d="M32 43H8C6.34315 43 5 41.6569 5 40V8C5 6.34315 6.34315 5 8 5H32C33.6569 5 35 6.34315 35 8V40C35 41.6569 33.6569 43 32 43Z" stroke="#333333" stroke-width="2" stroke-linejoin="round"/>
<path d="M19 13H31" stroke="#333333" stroke-width="2" stroke-linecap="round"/>
<path d="M19 17H31" stroke="#333333" stroke-width="2" stroke-linecap="round"/>
<path d="M19 25H31" stroke="#333333" stroke-width="2" stroke-linecap="round"/>
<path d="M19 29H31" stroke="#333333" stroke-width="2" stroke-linecap="round"/>
<path d="M9 25H14L14 30L9 30V25Z" stroke="#333333" stroke-width="2"/>
<path d="M9 15L11 17L15 13" stroke="#333333" stroke-width="2" stroke-linecap="round"/>
<path d="M39 39.6667V23H43V39.6667L41 42.3333L39 39.6667Z" stroke="#333333" stroke-width="2"/>
<mask id="path-9-inside-1" fill="white">
<path d="M42 15H40C38.8954 15 38 15.8954 38 17V21H44V17C44 15.8954 43.1046 15 42 15Z"/>
</mask>
<path d="M44 21V23H46V21H44ZM38 21H36V23H38V21ZM40 17H42V13H40V17ZM42 17V21H46V17H42ZM44 19H38V23H44V19ZM40 21V17H36V21H40ZM42 17H46C46 14.7909 44.2091 13 42 13V17ZM40 13C37.7909 13 36 14.7909 36 17H40V17V13Z" fill="#333333" mask="url(#path-9-inside-1)"/>
</svg>
