<svg width="48" height="48" viewBox="0 0 48 48" fill="none" xmlns="http://www.w3.org/2000/svg">
<rect x="9.03564" y="5.18945" width="26" height="34" rx="3" fill="#82FF9D" stroke="#333333" stroke-width="2"/>
<line x1="15" y1="15" x2="29" y2="15" stroke="#333333" stroke-width="2" stroke-linecap="round"/>
<line x1="15.0355" y1="20.1895" x2="29.0355" y2="20.1895" stroke="#333333" stroke-width="2" stroke-linecap="round"/>
<line x1="15.0355" y1="25.1895" x2="29.0355" y2="25.1895" stroke="#333333" stroke-width="2" stroke-linecap="round"/>
<line x1="15.0355" y1="30.2441" x2="23.0355" y2="30.2441" stroke="#333333" stroke-width="2" stroke-linecap="round"/>
<path d="M5.03553 9.95703L5.03552 36.9996C5.03552 40.3133 7.72182 42.9996 11.0355 42.9996H30.1001" stroke="#333333" stroke-width="2" stroke-linecap="round"/>
<path d="M39 34.6667V18H43V34.6667L41 37.3333L39 34.6667Z" stroke="#333333" stroke-width="2"/>
<mask id="path-8-inside-1" fill="white">
<path d="M42 10H40C38.8954 10 38 10.8954 38 12V16H44V12C44 10.8954 43.1046 10 42 10Z"/>
</mask>
<path d="M44 16V18H46V16H44ZM38 16H36V18H38V16ZM40 12H42V8H40V12ZM42 12V16H46V12H42ZM44 14H38V18H44V14ZM40 16V12H36V16H40ZM42 12H46C46 9.79086 44.2091 8 42 8V12ZM40 8C37.7909 8 36 9.79086 36 12H40V12V8Z" fill="#333333" mask="url(#path-8-inside-1)"/>
<line x1="27.5" y1="4.5" x2="27.5" y2="5.50082" stroke="#82FF9D" stroke-width="5" stroke-linecap="square"/>
<line x1="27.5" y1="3.5" x2="27.5" y2="6.50082" stroke="#333333" stroke-width="3" stroke-linecap="round"/>
<line x1="16.5" y1="4.5" x2="16.5" y2="5.50082" stroke="#82FF9D" stroke-width="5" stroke-linecap="square"/>
<line x1="16.5085" y1="3.5" x2="16.5085" y2="6.50082" stroke="#333333" stroke-width="3" stroke-linecap="round"/>
</svg>
