<svg width="48" height="48" viewBox="0 0 48 48" fill="none" xmlns="http://www.w3.org/2000/svg">
<path d="M27.5 2C28.3284 2 29 2.67157 29 3.5V6.50082C29 7.32925 28.3284 8.00082 27.5 8.00082C26.6716 8.00082 26 7.32925 26 6.50082V3.5C26 2.67157 26.6716 2 27.5 2Z" fill="#333333"/>
<path d="M12.0356 4.18945H14V6.18945H12.0356C10.9311 6.18945 10.0356 7.08488 10.0356 8.18945V36.1895C10.0356 37.294 10.9311 38.1895 12.0356 38.1895H32.0356C33.1402 38.1895 34.0356 37.294 34.0356 36.1895V8.18945C34.0356 7.08488 33.1402 6.18945 32.0356 6.18945H30V4.18945H32.0356C34.2448 4.18945 36.0356 5.98031 36.0356 8.18945V36.1895C36.0356 38.3986 34.2448 40.1895 32.0356 40.1895H12.0356C9.82651 40.1895 8.03564 38.3986 8.03564 36.1895V8.18945C8.03564 5.98031 9.82651 4.18945 12.0356 4.18945Z" fill="#333333"/>
<path d="M25 6.18945H19V4.18945H25V6.18945Z" fill="#333333"/>
<path d="M15 14C14.4477 14 14 14.4477 14 15C14 15.5523 14.4477 16 15 16H29C29.5523 16 30 15.5523 30 15C30 14.4477 29.5523 14 29 14H15Z" fill="#333333"/>
<path d="M14.0355 20.1895C14.0355 19.6372 14.4832 19.1895 15.0355 19.1895H29.0355C29.5878 19.1895 30.0355 19.6372 30.0355 20.1895C30.0355 20.7417 29.5878 21.1895 29.0355 21.1895H15.0355C14.4832 21.1895 14.0355 20.7417 14.0355 20.1895Z" fill="#333333"/>
<path d="M15.0355 24.1895C14.4832 24.1895 14.0355 24.6372 14.0355 25.1895C14.0355 25.7417 14.4832 26.1895 15.0355 26.1895H29.0355C29.5878 26.1895 30.0355 25.7417 30.0355 25.1895C30.0355 24.6372 29.5878 24.1895 29.0355 24.1895H15.0355Z" fill="#333333"/>
<path d="M14.0355 30.2441C14.0355 29.6919 14.4832 29.2441 15.0355 29.2441H23.0355C23.5878 29.2441 24.0355 29.6919 24.0355 30.2441C24.0355 30.7964 23.5878 31.2441 23.0355 31.2441H15.0355C14.4832 31.2441 14.0355 30.7964 14.0355 30.2441Z" fill="#333333"/>
<path d="M6.03553 9.95703C6.03553 9.40475 5.58781 8.95703 5.03553 8.95703C4.48324 8.95703 4.03553 9.40475 4.03553 9.95703L4.03552 36.9996C4.03552 40.8655 7.16953 43.9996 11.0355 43.9996H30.1001C30.6524 43.9996 31.1001 43.5518 31.1001 42.9996C31.1001 42.4473 30.6524 41.9996 30.1001 41.9996H11.0355C8.2741 41.9996 6.03552 39.761 6.03552 36.9996L6.03553 9.95703Z" fill="#333333"/>
<path fill-rule="evenodd" clip-rule="evenodd" d="M44 35L41 39L38 35V17H44V35ZM42 19H40V34.3333L41 35.6667L42 34.3333V19Z" fill="#333333"/>
<path fill-rule="evenodd" clip-rule="evenodd" d="M42 10H40C38.8954 10 38 10.8954 38 12V16H44V12C44 10.8954 43.1046 10 42 10ZM40 12H42V14H40V12Z" fill="#333333"/>
<path d="M18.0085 3.5C18.0085 2.67157 17.337 2 16.5085 2C15.6801 2 15.0085 2.67157 15.0085 3.5V6.50082C15.0085 7.32925 15.6801 8.00082 16.5085 8.00082C17.337 8.00082 18.0085 7.32925 18.0085 6.50082V3.5Z" fill="#333333"/>
</svg>
