<svg width="48" height="48" viewBox="0 0 48 48" fill="none" xmlns="http://www.w3.org/2000/svg">
<path fill-rule="evenodd" clip-rule="evenodd" d="M12 21C10.8954 21 10 21.8954 10 23V25C10 26.1046 10.8954 27 12 27H14C15.1046 27 16 26.1046 16 25V23C16 21.8954 15.1046 21 14 21H12ZM12 23V25H14V23H12Z" fill="#333333"/>
<path fill-rule="evenodd" clip-rule="evenodd" d="M18 23C18 21.8954 18.8954 21 20 21H22C23.1046 21 24 21.8954 24 23V25C24 26.1046 23.1046 27 22 27H20C18.8954 27 18 26.1046 18 25V23ZM20 23H22V25H20V23Z" fill="#333333"/>
<path fill-rule="evenodd" clip-rule="evenodd" d="M28 21C26.8954 21 26 21.8954 26 23V25C26 26.1046 26.8954 27 28 27H30C31.1046 27 32 26.1046 32 25V23C32 21.8954 31.1046 21 30 21H28ZM28 23V25H30V23H28Z" fill="#333333"/>
<path fill-rule="evenodd" clip-rule="evenodd" d="M10 31C10 29.8954 10.8954 29 12 29H14C15.1046 29 16 29.8954 16 31V33C16 34.1046 15.1046 35 14 35H12C10.8954 35 10 34.1046 10 33V31ZM12 33V31H14V33H12Z" fill="#333333"/>
<path fill-rule="evenodd" clip-rule="evenodd" d="M20 29C18.8954 29 18 29.8954 18 31V33C18 34.1046 18.8954 35 20 35H22C23.1046 35 24 34.1046 24 33V31C24 29.8954 23.1046 29 22 29H20ZM22 31H20V33H22V31Z" fill="#333333"/>
<path d="M35 31.1787C35.5523 31.1787 36 31.6264 36 32.1787V36.4768L38.4515 38.1785C38.9052 38.4934 39.0177 39.1165 38.7027 39.5702C38.3878 40.0239 37.7647 40.1364 37.311 39.8215L34 37.5232V32.1787C34 31.6264 34.4477 31.1787 35 31.1787Z" fill="#333333"/>
<path fill-rule="evenodd" clip-rule="evenodd" d="M13 4C12.4477 4 12 4.44772 12 5V8H9C6.79086 8 5 9.79086 5 12V36C5 38.2091 6.79086 40 9 40H28.0703C29.4535 42.3912 32.0389 44 35 44C39.4183 44 43 40.4183 43 36C43 32.2723 40.4505 29.1401 37 28.252V12C37 9.79086 35.2091 8 33 8H32V10H33C34.1046 10 35 10.8954 35 12V17H7V12C7 10.8954 7.89543 10 9 10H12V11C12 11.5523 12.4477 12 13 12C13.5523 12 14 11.5523 14 11V5C14 4.44772 13.5523 4 13 4ZM35 28V19H7V36C7 37.1046 7.89543 38 9 38H27.252C27.0875 37.3608 27 36.6906 27 36C27 31.5817 30.5817 28 35 28ZM41 36C41 39.3137 38.3137 42 35 42C31.6863 42 29 39.3137 29 36C29 32.6863 31.6863 30 35 30C38.3137 30 41 32.6863 41 36Z" fill="#333333"/>
<path d="M16 8V10H28V11C28 11.5523 28.4477 12 29 12C29.5523 12 30 11.5523 30 11V5C30 4.44772 29.5523 4 29 4C28.4477 4 28 4.44772 28 5V8H16Z" fill="#333333"/>
</svg>
