<svg width="49" height="48" viewBox="0 0 49 48" fill="none" xmlns="http://www.w3.org/2000/svg">
<path fill-rule="evenodd" clip-rule="evenodd" d="M24.4994 4C25.0517 4 25.4994 4.44772 25.4994 5V11.3174C25.7267 11.4715 25.9146 11.6638 26.0634 11.8525C26.0962 11.8943 26.1284 11.9372 26.1598 11.9813L27.8592 10.5651C27.9817 10.463 28.1268 10.3917 28.2825 10.3571L31.2825 9.69046C31.8216 9.57065 32.3558 9.91059 32.4756 10.4497C32.5954 10.9889 32.2555 11.523 31.7164 11.6428L28.9532 12.2569L27.1396 13.7682C27.0931 13.8069 27.0442 13.8407 26.9934 13.8696L27.0122 13.9373L38.1855 15.2235L38.3808 15.8416C38.6318 16.6362 38.5318 17.7623 37.5984 18.6523C36.7041 19.505 35.1916 20 32.9146 20C30.5317 20 28.9008 19.2592 27.8664 18.198C27.7324 18.0605 27.6098 17.9191 27.4981 17.7752C27.499 17.8499 27.4995 17.9248 27.4995 18C27.4995 18.3787 27.4884 18.7516 27.4668 19.1158C27.5026 19.1348 27.5378 19.1562 27.5719 19.18L29.8203 20.7497C29.9137 20.8149 29.9953 20.8956 30.0615 20.9883L31.2728 22.6836L33.2906 23.1905C33.8263 23.3251 34.1514 23.8684 34.0169 24.404C33.8823 24.9397 33.339 25.2648 32.8034 25.1303L30.4292 24.5338C30.1991 24.4761 29.9971 24.3383 29.8591 24.1453L28.5343 22.2911L27.1823 21.3473C27.1016 21.74 27.0065 22.1089 26.8983 22.4484L28.5157 23.803C28.7985 24.0399 28.928 24.4131 28.8525 24.7742L28.3803 27.0341L29.639 28.2929C30.0296 28.6834 30.0296 29.3166 29.639 29.7071C29.2485 30.0976 28.6154 30.0976 28.2248 29.7071L26.5837 28.066C26.3452 27.8274 26.243 27.4846 26.312 27.1544L26.7722 24.9516L25.9601 24.2714C25.6293 24.6468 25.1427 25 24.4995 25C23.9013 25 23.4386 24.6947 23.1108 24.35L22.6271 24.8711L23.1041 27.1544C23.1732 27.4847 23.071 27.8275 22.8324 28.0661L21.1913 29.7071C20.8008 30.0977 20.1676 30.0977 19.7771 29.7071C19.3866 29.3166 19.3866 28.6835 19.7771 28.2929L21.0358 27.0342L20.5636 24.7742C20.4973 24.4569 20.589 24.127 20.8096 23.8894L22.1125 22.4856C22.014 22.1809 21.926 21.852 21.8496 21.503L20.9017 22.2634L19.557 24.1454C19.4191 24.3384 19.2171 24.4761 18.987 24.5339L16.6128 25.1303C16.0771 25.2649 15.5338 24.9397 15.3993 24.4041C15.2647 23.8684 15.5899 23.3251 16.1255 23.1906L18.1433 22.6837L19.3546 20.9883C19.4079 20.9138 19.4711 20.8469 19.5426 20.7896L21.4996 19.2199C21.5118 19.2101 21.5242 19.2006 21.5368 19.1915C21.5122 18.8034 21.4995 18.405 21.4995 18C21.4995 17.9248 21.4999 17.8499 21.5008 17.7752C21.3891 17.9191 21.2665 18.0605 21.1325 18.198C20.0981 19.2592 18.4672 20 16.0843 20C13.8073 20 12.2948 19.505 11.4005 18.6523C10.4671 17.7623 10.3671 16.6362 10.6181 15.8416L10.8134 15.2235L21.9868 13.9373L22.0055 13.8697C21.9547 13.8407 21.9057 13.8069 21.8593 13.7682L20.0457 12.2569L17.2825 11.6429C16.7434 11.523 16.4035 10.9889 16.5233 10.4497C16.6431 9.9106 17.1772 9.57067 17.7164 9.69048L20.7164 10.3571C20.872 10.3917 21.0171 10.463 21.1396 10.5651L22.8391 11.9813C22.8705 11.9372 22.9027 11.8943 22.9356 11.8525C23.0843 11.6638 23.2722 11.4715 23.4994 11.3175V5C23.4994 4.44772 23.9471 4 24.4994 4ZM36.3691 17.0277C36.33 17.086 36.2804 17.1455 36.2182 17.2048C35.8639 17.5426 34.9697 18 32.9146 18C30.9654 18 29.8887 17.4075 29.2986 16.802C29.0966 16.5948 28.941 16.3754 28.8232 16.159L36.3691 17.0277ZM12.6298 17.0277C12.6689 17.086 12.7185 17.1455 12.7807 17.2048C13.135 17.5426 14.0292 18 16.0843 18C18.0335 18 19.1102 17.4075 19.7003 16.802C19.9023 16.5948 20.0579 16.3754 20.1757 16.159L12.6298 17.0277ZM23.4995 18C23.4995 16.4207 23.7143 15.0325 24.0339 14.0736C24.1928 13.5969 24.3602 13.2794 24.4995 13.0993C24.6387 13.2794 24.8061 13.5969 24.965 14.0736C25.2846 15.0325 25.4995 16.4207 25.4995 18C25.4995 19.5793 25.2846 20.9675 24.965 21.9264C24.8061 22.4031 24.6387 22.7206 24.4995 22.9007C24.3602 22.7206 24.1928 22.4031 24.0339 21.9264C23.7143 20.9675 23.4995 19.5793 23.4995 18Z" fill="#333333"/>
<path d="M23.5 40.5859L29.0859 35H25.4999V33H32.4999V40H30.4999V36.4144L24.9143 42H36.4999V44H12.4999V42H22.0857L14.7929 34.7072L16.2071 33.293L23.5 40.5859Z" fill="#333333"/>
</svg>
