<svg width="48" height="48" viewBox="0 0 48 48" fill="none" xmlns="http://www.w3.org/2000/svg">
<path fill-rule="evenodd" clip-rule="evenodd" d="M11.6578 29.7441C11.7094 29.8014 11.8468 29.9134 12.1501 29.9931L12.1667 29.9975L24.5126 33.7001C24.6535 33.734 24.802 33.7169 24.9317 33.6517L26.2921 32.9678C26.6544 32.7856 26.7437 32.3084 26.4717 32.0076L25.4506 30.8781C25.3534 30.7705 25.2212 30.7009 25.0777 30.6815L12.2441 29.6852L12.2265 29.6832C11.901 29.6463 11.7264 29.707 11.6578 29.7441ZM11.6267 29.7002C11.6265 29.6996 11.6267 29.7002 11.6267 29.7002V29.7002ZM12.4327 27.6938C11.148 27.5552 9.90482 28.1273 9.66402 29.3574C9.42112 30.5982 10.3739 31.5871 11.6236 31.9226L23.9748 35.6269L23.9914 35.6312C24.6073 35.7931 25.2612 35.7246 25.8301 35.4386L27.1905 34.7546C28.7332 33.979 29.1133 31.9472 27.9553 30.6663L26.9342 29.5369C26.5072 29.0645 25.9223 28.7642 25.2895 28.6925L25.272 28.6905L12.4327 27.6938Z" fill="#333333"/>
<path fill-rule="evenodd" clip-rule="evenodd" d="M13.4754 12.6475C16.277 10.4336 19.6145 9.22753 23 9.02926L23 12.0001C23 12.5523 23.4477 13.0001 24 13.0001C24.5523 13.0001 25 12.5523 25 12.0001L25 9.02926C28.2806 9.22138 31.5161 10.3598 34.2626 12.4446L32.2929 14.414C31.9024 14.8045 31.9023 15.4377 32.2928 15.8282C32.6833 16.2188 33.3165 16.2188 33.7071 15.8283L35.7864 13.7492C35.8651 13.825 35.9433 13.9016 36.0208 13.9792C38.8307 16.7891 40.4513 20.3378 40.8827 24.0001H38C37.4477 24.0001 37 24.4478 37 25.0001C37 25.5523 37.4477 26.0001 38 26.0001H41C41 29.8578 39.6951 33.7155 37.0852 36.8543C37.0407 36.6931 36.9551 36.5409 36.8285 36.4143L34.7071 34.2929C34.3166 33.9024 33.6834 33.9024 33.2929 34.293C32.9024 34.6835 32.9024 35.3167 33.2929 35.7072L35.4143 37.8285C35.6095 38.0238 35.8655 38.1214 36.1214 38.1214L37.435 39.435C44.855 32.0151 44.855 19.9849 37.435 12.565C30.0151 5.14501 17.9849 5.14501 10.565 12.565C3.14501 19.9849 3.14501 32.0151 10.565 39.435L11.9792 38.0208L14.1005 35.8993C14.491 35.5087 14.491 34.8756 14.1005 34.4851C13.7099 34.0945 13.0768 34.0946 12.6862 34.4851L10.6472 36.5242C8.21575 33.4471 7.00001 29.7236 7 26.0001H10C10.5523 26.0001 11 25.5523 11 25.0001C11 24.4478 10.5523 24.0001 10 24.0001H7.11734C7.54868 20.338 9.16921 16.7893 11.9789 13.9794L14.1006 16.101C14.4911 16.4915 15.1243 16.4915 15.5148 16.1009C15.9053 15.7104 15.9053 15.0772 15.5148 14.6867L13.4754 12.6475Z" fill="#333333"/>
</svg>
