<svg width="48" height="48" viewBox="0 0 48 48" fill="none" xmlns="http://www.w3.org/2000/svg">
<path d="M16.5944 13.3455C17.4354 12.5044 19.0073 11.8834 20.7479 11.8156C22.475 11.7484 24.1484 12.2341 25.2395 13.3253C25.63 13.7159 26.2631 13.7159 26.6537 13.3255C27.0442 12.935 27.0443 12.3018 26.6538 11.9112C25.0522 10.3093 22.7651 9.73565 20.6702 9.81715C18.5889 9.89812 16.4775 10.6338 15.1801 11.9314C14.7896 12.3219 14.7897 12.9551 15.1802 13.3456C15.5708 13.7361 16.204 13.736 16.5944 13.3455Z" fill="#333333"/>
<path fill-rule="evenodd" clip-rule="evenodd" d="M21 34C24.0282 34 26.8469 33.1026 29.2046 31.5593L28.7989 33.027L34.8391 40.2255L39.1069 36.5482L33.114 29.4062L31.6436 29.5694C34.3363 26.858 36 23.1233 36 19C36 10.7157 29.2843 4 21 4C12.7157 4 6 10.7157 6 19C6 27.2843 12.7157 34 21 34ZM21 31C27.6274 31 33 25.6274 33 19C33 12.3726 27.6274 7 21 7C14.3726 7 9 12.3726 9 19C9 25.6274 14.3726 31 21 31Z" fill="#333333"/>
<path d="M40.3926 38.0805L36.1248 41.7577L37.404 43.2822C38.114 44.1283 39.3755 44.2387 40.2217 43.5287L41.4726 42.479C42.3188 41.769 42.4291 40.5075 41.7191 39.6614L40.3926 38.0805Z" fill="#333333"/>
</svg>
