<svg width="49" height="48" viewBox="0 0 49 48" fill="none" xmlns="http://www.w3.org/2000/svg">
<path fill-rule="evenodd" clip-rule="evenodd" d="M32.5 7C32.5 6.44772 32.0523 6 31.5 6C30.9477 6 30.5 6.44772 30.5 7V12.4229C30.5 12.4816 30.5051 12.539 30.5147 12.5949C30.5002 12.6048 30.4858 12.6149 30.4717 12.6251C30.3938 12.5438 30.3009 12.4744 30.1943 12.4215L28.0915 11.3766L27.4498 9.4287C27.277 8.90414 26.7117 8.61899 26.1871 8.79178C25.6626 8.96458 25.3774 9.5299 25.5502 10.0545L26.3226 12.3991C26.4062 12.653 26.588 12.8628 26.8274 12.9817L28.8837 14.0035L21.2474 15.1023L21.0833 15.7517C20.9115 16.4318 20.9597 17.4412 21.67 18.2879C22.3901 19.1461 23.6178 19.6342 25.3853 19.6342C27.0822 19.6342 28.2997 19.0347 29.1086 18.1734C29.195 18.7085 29.3315 19.2044 29.5132 19.6327L28.7998 20.4773C28.6012 20.7124 28.522 21.0259 28.5849 21.3271L28.9047 22.8576L28.0752 23.6872C27.6846 24.0777 27.6846 24.7109 28.0752 25.1014C28.4657 25.4919 29.0988 25.4919 29.4894 25.1014L30.7013 23.8895C30.9399 23.6509 31.042 23.3081 30.973 22.9778L30.6424 21.3953L30.8503 21.1491C31.0449 21.2305 31.262 21.2804 31.5 21.2804C31.9957 21.2804 32.4009 21.0638 32.6998 20.7981L33.164 21.379L32.83 22.9778C32.761 23.3081 32.8632 23.6509 33.1017 23.8895L34.3136 25.1014C34.7042 25.4919 35.3373 25.4919 35.7279 25.1014C36.1184 24.7109 36.1184 24.0777 35.7279 23.6872L34.8983 22.8576L35.2181 21.3271C35.2791 21.0352 35.2066 20.7312 35.0204 20.4982L33.8578 19.0436C33.8195 18.9957 33.7777 18.9522 33.733 18.9133C33.8401 18.5189 33.9164 18.0904 33.9593 17.6425C34.0107 17.7173 34.0648 17.7914 34.1218 17.8644C34.9199 18.888 36.2164 19.6342 38.1096 19.6342C39.8771 19.6342 41.1048 19.1461 41.8249 18.2879C42.5352 17.4412 42.5834 16.4318 42.4116 15.7517L42.2475 15.1023L33.803 13.8872L35.6252 12.9817C35.8646 12.8628 36.0464 12.653 36.13 12.3991L36.9024 10.0545C37.0751 9.5299 36.79 8.96458 36.2654 8.79178C35.7409 8.61899 35.1756 8.90414 35.0028 9.4287L34.3611 11.3766L32.5 12.3013V7ZM40.2927 17.0024C40.3323 16.9552 40.3651 16.906 40.392 16.8559L35.3941 16.1367C35.475 16.3075 35.5756 16.4763 35.699 16.6346C36.1005 17.1496 36.8035 17.6342 38.1096 17.6342C39.5412 17.6342 40.0908 17.243 40.2927 17.0024ZM23.1029 16.8559C23.1298 16.906 23.1626 16.9552 23.2022 17.0024C23.4041 17.243 23.9537 17.6342 25.3853 17.6342C26.6914 17.6342 27.3944 17.1496 27.7959 16.6346C27.9193 16.4763 28.0199 16.3075 28.1008 16.1367L23.1029 16.8559ZM31 16.7804C31 15.9161 31.1521 15.181 31.3585 14.6994C31.4083 14.5833 31.4567 14.4924 31.5 14.423C31.5433 14.4924 31.5918 14.5833 31.6415 14.6994C31.8479 15.181 32 15.9161 32 16.7804C32 17.6447 31.8479 18.3797 31.6415 18.8614C31.5918 18.9775 31.5433 19.0683 31.5 19.1378C31.4567 19.0683 31.4083 18.9775 31.3585 18.8614C31.1521 18.3797 31 17.6447 31 16.7804Z" fill="#333333"/>
<path fill-rule="evenodd" clip-rule="evenodd" d="M19.5 17.7849C20.0523 17.7849 20.5 18.2326 20.5 18.7849V24.6138C20.7047 24.7583 20.8742 24.9337 21.0084 25.104C21.024 25.1238 21.0394 25.1438 21.0546 25.1642L22.4088 24.0357L23.1006 22.6103C23.3418 22.1135 23.94 21.9062 24.4369 22.1473C24.9338 22.3885 25.141 22.9867 24.8999 23.4836L24.1141 25.1027C24.0521 25.2304 23.9637 25.3434 23.8546 25.4343L21.9974 26.9819C21.9794 26.997 21.961 27.0112 21.9422 27.0248L32.2632 28.2129L32.4584 28.831C32.6987 29.5916 32.6019 30.6666 31.713 31.5142C30.8634 32.3244 29.4368 32.7854 27.3144 32.7854C25.0861 32.7854 23.5519 32.0922 22.5755 31.0905C22.4988 31.0118 22.4261 30.9318 22.3573 30.8507L22.3573 30.8567C22.3573 31.1943 22.3478 31.527 22.3294 31.8525C22.3513 31.8654 22.3728 31.8792 22.394 31.894L24.4819 33.3516C24.5753 33.4168 24.6569 33.4975 24.7231 33.5902L25.8327 35.1432L27.681 35.6075C28.2166 35.7421 28.5418 36.2854 28.4072 36.821C28.2727 37.3566 27.7293 37.6818 27.1937 37.5472L24.989 36.9934C24.7589 36.9356 24.5569 36.7979 24.419 36.6049L23.1959 34.893L22.039 34.0854C21.9722 34.3956 21.8957 34.6895 21.8101 34.9635L23.2754 36.1908C23.5582 36.4276 23.6877 36.8009 23.6122 37.1619L23.1816 39.2228L24.3232 40.3643C24.7137 40.7549 24.7137 41.388 24.3232 41.7785C23.9327 42.1691 23.2995 42.1691 22.909 41.7785L21.385 40.2546C21.1465 40.016 21.0443 39.6733 21.1133 39.343L21.5319 37.3394L20.8632 36.7793C20.5492 37.1175 20.0952 37.4284 19.5 37.4284C18.9508 37.4284 18.5217 37.1635 18.212 36.8568L17.8388 37.2589L18.2742 39.343C18.3433 39.6733 18.2411 40.0161 18.0025 40.2547L16.4786 41.7786C16.088 42.1691 15.4549 42.1691 15.0644 41.7786C14.6738 41.3881 14.6738 40.7549 15.0644 40.3644L16.2059 39.2228L15.7753 37.162C15.709 36.8446 15.8007 36.5148 16.0213 36.2771L17.2028 35.0042C17.1262 34.7633 17.0567 34.5068 16.9948 34.237L16.2115 34.8653L14.9685 36.6049C14.8306 36.7979 14.6286 36.9356 14.3985 36.9934L12.1938 37.5473C11.6582 37.6818 11.1149 37.3567 10.9803 36.821C10.8458 36.2854 11.1709 35.7421 11.7066 35.6075L13.5549 35.1432L14.6645 33.5903C14.7177 33.5157 14.781 33.4489 14.8524 33.3916L16.6697 31.9339L16.6752 31.9295C16.6539 31.5795 16.6428 31.221 16.6428 30.8567L16.6428 30.8507C16.574 30.9318 16.5013 31.0118 16.4246 31.0905C15.4482 32.0922 13.914 32.7854 11.6857 32.7854C9.5633 32.7854 8.13672 32.3244 7.28704 31.5142C6.39819 30.6666 6.30142 29.5916 6.54167 28.831L6.73692 28.2129L17.0578 27.0248C17.0391 27.0112 17.0207 26.997 17.0026 26.9819L15.1454 25.4343C15.0364 25.3434 14.948 25.2304 14.886 25.1027L14.1002 23.4836C13.859 22.9867 14.0663 22.3885 14.5632 22.1473C15.06 21.9062 15.6583 22.1135 15.8994 22.6103L16.5912 24.0357L17.9455 25.1642C17.9607 25.1438 17.9761 25.1238 17.9917 25.104C18.1259 24.9337 18.2953 24.7584 18.5 24.6139V18.7849C18.5 18.2326 18.9477 17.7849 19.5 17.7849ZM30.3878 30.0102C30.3709 30.029 30.3527 30.0478 30.3329 30.0667C30.0232 30.362 29.2149 30.7854 27.3144 30.7854C25.5199 30.7854 24.5398 30.2404 24.0077 29.6945C23.8626 29.5457 23.7441 29.39 23.6482 29.2344L30.3878 30.0102ZM8.61227 30.0102C8.62914 30.029 8.64742 30.0478 8.66722 30.0667C8.97689 30.362 9.78522 30.7854 11.6857 30.7854C13.4802 30.7854 14.4602 30.2404 14.9924 29.6945C15.1374 29.5457 15.256 29.39 15.3519 29.2344L8.61227 30.0102ZM18.6428 30.8567C18.6428 29.3957 18.8417 28.1146 19.1355 27.2332C19.26 26.8597 19.3889 26.5965 19.5 26.4288C19.6112 26.5965 19.7401 26.8597 19.8646 27.2332C20.1584 28.1146 20.3573 29.3957 20.3573 30.8567C20.3573 32.3177 20.1584 33.5989 19.8646 34.4802C19.7401 34.8537 19.6112 35.1169 19.5 35.2846C19.3889 35.1169 19.26 34.8537 19.1355 34.4802C18.8417 33.5989 18.6428 32.3177 18.6428 30.8567Z" fill="#333333"/>
</svg>
