<svg width="48" height="48" viewBox="0 0 48 48" fill="none" xmlns="http://www.w3.org/2000/svg">
<path fill-rule="evenodd" clip-rule="evenodd" d="M24.1476 23.4262C24.1007 23.4874 24.016 23.6431 23.9934 23.9558L23.9921 23.973L22.6229 36.7893C22.6156 36.934 22.6597 37.0768 22.7476 37.1923L23.6701 38.4037C23.9158 38.7264 24.4012 38.7264 24.6469 38.4037L25.5694 37.1923C25.6572 37.0769 25.7013 36.9342 25.6941 36.7896L24.3134 23.9916L24.3121 23.974C24.2885 23.6472 24.1967 23.4868 24.1476 23.4262ZM24.185 23.3875C24.1856 23.3872 24.185 23.3875 24.185 23.3875V23.3875ZM26.3055 23.8108C26.2054 22.5225 25.4145 21.4058 24.1611 21.3953C22.8968 21.3847 22.0999 22.5031 22 23.7932L20.6302 36.615L20.629 36.6321C20.5831 37.2673 20.7706 37.8973 21.1564 38.404L22.0789 39.6154C23.125 40.9891 25.192 40.9891 26.2381 39.6154L27.1606 38.404C27.5464 37.8973 27.7339 37.2673 27.688 36.6321L27.6868 36.6144L26.3055 23.8108Z" fill="#333333"/>
<path fill-rule="evenodd" clip-rule="evenodd" d="M13.4754 12.6475C16.277 10.4336 19.6145 9.22753 23 9.02926L23 12.0001C23 12.5523 23.4477 13.0001 24 13.0001C24.5523 13.0001 25 12.5523 25 12.0001L25 9.02926C28.2806 9.22138 31.5161 10.3598 34.2626 12.4446L32.2929 14.414C31.9024 14.8045 31.9023 15.4377 32.2928 15.8282C32.6833 16.2188 33.3165 16.2188 33.7071 15.8283L35.7864 13.7492C35.8651 13.825 35.9433 13.9016 36.0208 13.9792C38.8307 16.7891 40.4513 20.3378 40.8827 24.0001H38C37.4477 24.0001 37 24.4478 37 25.0001C37 25.5523 37.4477 26.0001 38 26.0001H41C41 29.8578 39.6951 33.7155 37.0852 36.8543C37.0407 36.6931 36.9551 36.5409 36.8285 36.4143L34.7071 34.2929C34.3166 33.9024 33.6834 33.9024 33.2929 34.293C32.9024 34.6835 32.9024 35.3167 33.2929 35.7072L35.4143 37.8285C35.6095 38.0238 35.8655 38.1214 36.1214 38.1214L37.435 39.435C44.855 32.0151 44.855 19.9849 37.435 12.565C30.0151 5.14501 17.9849 5.14501 10.565 12.565C3.14501 19.9849 3.14501 32.0151 10.565 39.435L11.9792 38.0208L14.1005 35.8993C14.491 35.5087 14.491 34.8756 14.1005 34.4851C13.7099 34.0945 13.0768 34.0946 12.6862 34.4851L10.6472 36.5242C8.21575 33.4471 7.00001 29.7236 7 26.0001H10C10.5523 26.0001 11 25.5523 11 25.0001C11 24.4478 10.5523 24.0001 10 24.0001H7.11734C7.54868 20.338 9.16921 16.7893 11.9789 13.9794L14.1006 16.101C14.4911 16.4915 15.1243 16.4915 15.5148 16.1009C15.9053 15.7104 15.9053 15.0772 15.5148 14.6867L13.4754 12.6475Z" fill="#333333"/>
</svg>
