<svg width="48" height="48" viewBox="0 0 48 48" fill="none" xmlns="http://www.w3.org/2000/svg">
<path fill-rule="evenodd" clip-rule="evenodd" d="M31.4981 10.1329C31.8086 10.3112 32 10.6419 32 11V20C34.2091 20 36 21.7909 36 24C36 26.2091 34.2091 28 32 28V37C32 37.3581 31.8086 37.6888 31.4981 37.8671C31.1876 38.0455 30.8054 38.0442 30.4961 37.8638L18.4961 30.8638C18.1889 30.6846 18 30.3557 18 30V18C18 17.6443 18.1889 17.3154 18.4961 17.1362L30.4961 10.1362C30.8054 9.9558 31.1876 9.95452 31.4981 10.1329ZM32 26C33.1046 26 34 25.1046 34 24C34 22.8954 33.1046 22 32 22V26ZM20 18.5744V29.4256L30 35.259V12.741L20 18.5744Z" fill="#333333"/>
<path fill-rule="evenodd" clip-rule="evenodd" d="M11 31C8.79086 31 7 29.2091 7 27V21C7 18.7909 8.79086 17 11 17H16C16.5523 17 17 17.4477 17 18V35C17 36.6569 15.6569 38 14 38C12.3431 38 11 36.6569 11 35V31ZM11 19C9.89543 19 9 19.8954 9 21V27C9 28.1046 9.89543 29 11 29H15V19H11ZM15 31H13V35C13 35.5523 13.4477 36 14 36C14.5523 36 15 35.5523 15 35V31Z" fill="#333333"/>
<path d="M42.5547 18.832C43.0142 18.5257 43.1384 17.9048 42.832 17.4453C42.5257 16.9858 41.9048 16.8616 41.4453 17.1679L38.4453 19.1679C37.9858 19.4743 37.8616 20.0952 38.1679 20.5547C38.4743 21.0142 39.0952 21.1384 39.5547 20.832L42.5547 18.832Z" fill="#333333"/>
<path d="M39 23C38.4477 23 38 23.4477 38 24C38 24.5523 38.4477 25 39 25H43C43.5523 25 44 24.5523 44 24C44 23.4477 43.5523 23 43 23H39Z" fill="#333333"/>
<path d="M39.5547 27.1679C39.0952 26.8616 38.4743 26.9858 38.1679 27.4453C37.8616 27.9048 37.9858 28.5257 38.4453 28.832L41.4453 30.832C41.9048 31.1384 42.5257 31.0142 42.832 30.5547C43.1384 30.0952 43.0142 29.4743 42.5547 29.1679L39.5547 27.1679Z" fill="#333333"/>
</svg>
