<svg width="48" height="48" viewBox="0 0 48 48" fill="none" xmlns="http://www.w3.org/2000/svg">
<path fill-rule="evenodd" clip-rule="evenodd" d="M40.9775 24.7226V24.723C40.9372 24.505 40.8388 24.2992 40.6908 24.1232C39.1822 22.3236 31.8801 20.6603 27.7313 19.8423L27.7294 19.8419H27.7313C31.8801 20.6599 39.1822 22.3231 40.6908 24.1227C40.8388 24.2987 40.9372 24.5046 40.9775 24.7226ZM27.6726 19.8283L30.3866 17.6333V14.0204L34.8372 9.7805C34.9669 9.68917 35.0731 9.57337 35.1482 9.44117C35.2234 9.30897 35.2658 9.16355 35.2724 9.01505C35.279 8.86654 35.2497 8.71851 35.1866 8.58128C35.1234 8.44404 35.0279 8.3209 34.9067 8.22042C34.7855 8.11994 34.6416 8.04455 34.4848 7.99949C34.3281 7.95444 34.1624 7.9408 33.9992 7.95953C33.8361 7.97826 33.6794 8.0289 33.5401 8.10794C33.4008 8.18698 33.2822 8.29251 33.1927 8.41718L28.1085 13.2161V16.7198L26.4701 18.0781C26.5863 18.5535 26.6973 19.0678 26.8022 19.6209L27.6726 19.8283ZM26.4468 17.9832C26.2994 17.1555 26.0386 16.3494 25.6717 15.583C25.947 16.221 26.2076 17.0208 26.4468 17.9832ZM24.955 14.3225L24.6687 4.68166C24.6687 4.50087 24.5892 4.32749 24.4477 4.19965C24.3063 4.07182 24.1144 4 23.9143 4C23.7143 4 23.5224 4.07182 23.3809 4.19965C23.2395 4.32749 23.16 4.50087 23.16 4.68166L22.8281 14.3067C22.0537 15.4531 21.5407 16.7278 21.3194 18.0559L19.6749 16.6926V13.2161L14.651 8.37628C14.44 8.2277 14.1775 8.15151 13.9101 8.16125C13.6428 8.17098 13.3879 8.26601 13.1907 8.42946C12.9936 8.59291 12.8669 8.81421 12.8332 9.05406C12.7995 9.29391 12.8609 9.5368 13.0066 9.7396L17.5326 13.9796V17.5924L20.2633 19.801C16.1145 20.619 8.82754 22.2822 7.30377 24.0818C7.15583 24.2578 7.05745 24.4637 7.01712 24.6817L7.01712 24.6821C7.05745 24.4641 7.15583 24.2583 7.30377 24.0823C8.82754 22.2827 16.8097 20.4798 20.9586 19.6618C22.0142 14.4059 23.5803 12.6087 24.955 14.3225ZM40.9775 24.8316V24.8321C40.9924 24.9559 40.9999 25.0797 41 25.2031C40.9999 25.0796 40.9924 24.9555 40.9775 24.8316ZM34.3545 28.8675H34.3544C33.3528 28.8675 32.7126 28.6289 32.3051 28.4771C32.1617 28.4236 32.0471 28.3809 31.9557 28.3631L32.9664 33.5569L37.2963 36.5971C37.4926 36.7405 37.738 36.8176 37.9903 36.8153C38.2435 36.8312 38.4953 36.7696 38.7052 36.6406C38.915 36.5116 39.0708 36.3225 39.1474 36.1038C39.224 35.8851 39.217 35.6495 39.1276 35.4348C39.0381 35.2202 38.8713 35.0389 38.6541 34.9202L35.0182 32.3572L34.3545 28.8675ZM31.6689 28.2813C30.5 27.8347 30 27.5978 29.4512 27.2997C29.4512 27.2997 29.4511 27.2997 29.4511 27.2997L28.4404 33.1207L31.4577 43.2502C31.5235 43.4651 31.6653 43.6547 31.8614 43.7901C32.0575 43.9254 32.2972 43.9992 32.544 44H32.8457C32.9891 43.9654 33.1235 43.9052 33.2409 43.8231C33.3583 43.741 33.4564 43.6385 33.5294 43.5217C33.6025 43.405 33.649 43.2762 33.6663 43.1429C33.6836 43.0097 33.6714 42.8746 33.6302 42.7457L30.8241 33.0116L31.6689 28.2813ZM22.7865 33.8588C22.9694 34.0747 23.1578 34.2358 23.3487 34.3427C23.154 34.2399 22.9661 34.0766 22.7865 33.8588ZM20.5431 26.2044C20.6017 26.1992 20.6578 26.1993 20.7594 26.2051C20.6873 26.202 20.6151 26.2017 20.5431 26.2044ZM18.2418 27.2997C18.2417 27.2997 18.2417 27.2997 18.2417 27.2997C18.1067 27.3759 17.9866 27.444 17.8787 27.5051C16.9939 28.0064 16.9246 28.0457 16.1296 28.3495L16.9744 33.0798L14.0928 42.7185C14.0517 42.8474 14.0394 42.9824 14.0567 43.1157C14.074 43.2489 14.1206 43.3777 14.1936 43.4945C14.2667 43.6113 14.3648 43.7137 14.4822 43.7959C14.5996 43.878 14.7339 43.9381 14.8773 43.9727H15.1791C15.4258 43.9719 15.6656 43.8982 15.8617 43.7628C16.0578 43.6274 16.1995 43.4378 16.2653 43.2229L19.2827 33.0934L18.2418 27.2997ZM15.8428 28.4313C15.2681 28.543 14.9383 28.6352 14.6834 28.7066C14.3026 28.8131 14.0886 28.873 13.4743 28.8812H13.4742L12.8105 32.3708L9.17454 34.9202C8.98968 35.0513 8.85458 35.2312 8.78798 35.4348C8.72138 35.6385 8.72659 35.8558 8.80289 36.0566C8.87918 36.2574 9.02277 36.4318 9.21374 36.5556C9.4047 36.6793 9.63355 36.7462 9.86853 36.7471C10.1209 36.7495 10.3663 36.6723 10.5625 36.529L14.8623 33.5569L15.8428 28.4313ZM7 25.1154C7.00007 25.0076 7.00575 24.8994 7.01712 24.7912L7.01712 24.7907C7.00573 24.8991 7.00006 25.0074 7 25.1154Z" fill="#333333"/>
<path d="M39.9775 24.8501C39.9661 24.8233 39.9492 24.7951 39.9254 24.7666L39.9245 24.7656C39.708 24.5074 39.1597 24.142 38.2112 23.7259C37.3047 23.3283 36.1662 22.9399 34.9196 22.5742C32.4297 21.8437 29.6012 21.2302 27.5378 20.8234L27.5186 20.8196L27.4995 20.8151L26.5704 20.5936L25.9405 20.4435L25.8198 19.8073L39.9775 24.8501ZM39.9775 24.8501V24.8922L39.9847 24.9519L39.9775 24.8501ZM21.8074 20.5137L21.152 20.643C19.0892 21.0497 16.0881 21.6985 13.4232 22.465C12.0889 22.8488 10.8615 23.2556 9.88652 23.6683C8.86306 24.1015 8.2821 24.4756 8.06822 24.727C8.04487 24.755 8.02836 24.7828 8.01712 24.8092V24.8436L8.01164 24.8958C7.95314 25.4521 8.11595 26.0209 8.49373 26.5C8.52992 26.545 8.56923 26.5887 8.61162 26.6308L8.62554 26.6446L8.6389 26.6589C8.80895 26.8415 9.00918 27.0044 9.23504 27.1412C10.2011 27.6678 11.3265 27.9284 12.4681 27.882L12.4884 27.8812H12.5087H12.5992H12.6008H12.6024H12.604H12.6056H12.6072H12.6088H12.6104H12.612H12.6136H12.6152H12.6168H12.6184H12.62H12.6216H12.6232H12.6248H12.6264H12.628H12.6296H12.6312H12.6328H12.6344H12.636H12.6376H12.6392H12.6408H12.6424H12.6441H12.6457H12.6473H12.6489H12.6505H12.6521H12.6537H12.6553H12.657H12.6586H12.6602H12.6618H12.6634H12.665H12.6667H12.6683H12.6699H12.6715H12.6731H12.6748H12.6764H12.678H12.6796H12.6813H12.6829H12.6845H12.6861H12.6878H12.6894H12.691H12.6926H12.6943H12.6959H12.6975H12.6992H12.7008H12.7024H12.7041H12.7057H12.7073H12.709H12.7106H12.7122H12.7139H12.7155H12.7171H12.7188H12.7204H12.7221H12.7237H12.7253H12.727H12.7286H12.7303H12.7319H12.7336H12.7352H12.7368H12.7385H12.7401H12.7418H12.7434H12.7451H12.7467H12.7484H12.75H12.7517H12.7533H12.755H12.7566H12.7583H12.7599H12.7616H12.7632H12.7649H12.7665H12.7682H12.7699H12.7715H12.7732H12.7748H12.7765H12.7781H12.7798H12.7815H12.7831H12.7848H12.7864H12.7881H12.7898H12.7914H12.7931H12.7948H12.7964H12.7981H12.7998H12.8014H12.8031H12.8048H12.8064H12.8081H12.8098H12.8114H12.8131H12.8148H12.8164H12.8181H12.8198H12.8215H12.8231H12.8248H12.8265H12.8282H12.8298H12.8315H12.8332H12.8349H12.8365H12.8382H12.8399H12.8416H12.8432H12.8449H12.8466H12.8483H12.85H12.8516H12.8533H12.855H12.8567H12.8584H12.8601H12.8617H12.8634H12.8651H12.8668H12.8685H12.8702H12.8719H12.8735H12.8752H12.8769H12.8786H12.8803H12.882H12.8837H12.8854H12.8871H12.8888H12.8904H12.8921H12.8938H12.8955H12.8972H12.8989H12.9006H12.9023H12.904H12.9057H12.9074H12.9091H12.9108H12.9125H12.9142H12.9159H12.9176H12.9193H12.921H12.9227H12.9244H12.9261H12.9278H12.9295H12.9312H12.9329H12.9346H12.9363H12.938H12.9397H12.9414H12.9431H12.9448H12.9465H12.9482H12.9499H12.9517H12.9534H12.9551H12.9568H12.9585H12.9602H12.9619H12.9636H12.9653H12.967H12.9687H12.9705H12.9722H12.9739H12.9756H12.9773H12.979H12.9807H12.9825H12.9842H12.9859H12.9876H12.9893H12.991H12.9927H12.9945H12.9962H12.9979H12.9996H13.0013H13.0031H13.0048H13.0065H13.0082H13.0099H13.0117H13.0134H13.0151H13.0168H13.0185H13.0203H13.022H13.0237H13.0254H13.0272H13.0289H13.0306H13.0323H13.0341H13.0358H13.0375H13.0392H13.041H13.0427H13.0444H13.0461H13.0479H13.0496H13.0513H13.0531H13.0548H13.0565H13.0583H13.06H13.0617H13.0634H13.0652H13.0669H13.0686H13.0704H13.0721H13.0738H13.0756H13.0773H13.079H13.0808H13.0825H13.0842H13.086H13.0877H13.0894H13.0912H13.0929H13.0947H13.0964H13.0981H13.0999H13.1016H13.1033H13.1051H13.1068H13.1086H13.1103H13.112H13.1138H13.1155H13.1172H13.119H13.1207H13.1225H13.1242H13.126H13.1277H13.1294H13.1312H13.1329H13.1347H13.1364H13.1382H13.1399H13.1416H13.1434H13.1451H13.1469H13.1486H13.1504H13.1521H13.1539H13.1556H13.1573H13.1591H13.1608H13.1626H13.1643H13.1661H13.1678H13.1696H13.1713H13.1731H13.1748H13.1766H13.1783H13.1801H13.1818H13.1836H13.1853H13.1871H13.1888H13.1906H13.1923H13.1941H13.1958H13.1976H13.1993H13.2011H13.2028H13.2046H13.2063H13.2081H13.2098H13.2116H13.2133H13.2151H13.2168H13.2186H13.2204H13.2221H13.2239H13.2256H13.2274H13.2291H13.2309H13.2326H13.2344H13.2361H13.2379H13.2397H13.2414H13.2432H13.2449H13.2467H13.2484H13.2502H13.252H13.2537H13.2555H13.2572H13.259H13.2607H13.2625H13.2643H13.266H13.2678H13.2695H13.2713H13.2731H13.2748H13.2766H13.2783H13.2801H13.2819H13.2836H13.2854H13.2871H13.2889H13.2907H13.2924H13.2942H13.2959H13.2977H13.2995H13.3012H13.303H13.3047H13.3065H13.3083H13.31H13.3118H13.3136H13.3153H13.3171H13.3188H13.3206H13.3224H13.3241H13.3259H13.3277H13.3294H13.3312H13.3329H13.3347H13.3365H13.3382H13.34H13.3418H13.3435H13.3453H13.3471H13.3488H13.3506H13.3524H13.3541H13.3559H13.3576H13.3594H13.3612H13.3629H13.3647H13.3665H13.3682H13.37H13.3718H13.3735H13.3753H13.3771H13.3788H13.3806H13.3824H13.3841H13.3859H13.3877H13.3894H13.3912H13.393H13.3947H13.3965H13.3983H13.4H13.4018H13.4036H13.4053H13.4071H13.4089H13.4106H13.4124H13.4142H13.4159H13.4177H13.4195H13.4212H13.423H13.4248H13.4265H13.4283H13.4301H13.4318H13.4336H13.4354H13.4371H13.4389H13.4407H13.4424H13.4442H13.446H13.4478H13.4495H13.4513H13.4531H13.4548H13.4566H13.4584H13.4601H13.4619H13.4637H13.4654H13.4672H13.4675L21.8074 20.5137ZM21.8074 20.5137L21.939 19.8588M21.8074 20.5137L21.939 19.8588M21.939 19.8588L20.9586 19.6618L21.939 19.8588ZM18.5715 25.9245L19.0278 26.6838C19.0278 26.6838 19.0278 26.6838 19.0278 26.6838L18.5715 25.9245L18.5716 25.9245L18.5717 25.9244L18.5723 25.924L18.5743 25.9228L18.5818 25.9183L18.61 25.9014L18.7095 25.842C18.7916 25.7931 18.9018 25.7278 19.0126 25.6629C19.1218 25.599 19.238 25.5319 19.3297 25.4811C19.3729 25.4572 19.4245 25.4292 19.4715 25.4062C19.4886 25.3978 19.5378 25.3737 19.5972 25.3521L19.5991 25.3514C19.6186 25.3443 19.7131 25.3096 19.8362 25.2959L19.8373 25.2958C19.8536 25.294 19.8882 25.2902 19.9361 25.2897L20.0008 25.2673L20.1042 25.2541C20.1718 25.2455 20.2217 25.2383 20.2676 25.2317L20.2776 25.2302L20.2814 25.2297C20.3253 25.2233 20.3855 25.2146 20.449 25.2088C20.6032 25.1947 20.7354 25.201 20.8884 25.2113L21.7669 25.2702L21.8197 26.1491L18.5715 25.9245ZM18.5715 25.9245L18.5378 25.9448M18.5715 25.9245L18.5378 25.9448M18.5378 25.9448L18.5058 25.9676M18.5378 25.9448L18.5058 25.9676M18.5058 25.9676C18.3422 26.0843 18.2001 26.1663 18.0239 26.2681M18.5058 25.9676L18.0239 26.2681M25.889 25.2909H26.8563H27.7313H27.9926L28.2205 25.4187L29.0955 25.9095L29.1356 25.932L29.1735 25.9581C29.4151 26.1245 29.6671 26.279 29.9284 26.421C30.4278 26.6922 30.8851 26.9114 32.0258 27.3472C32.0639 27.3617 32.1042 27.3733 32.1463 27.3815L25.889 25.2909ZM25.889 25.2909L25.8568 26.2576M25.889 25.2909L25.8568 26.2576M25.8568 26.2576L26.8563 26.2909L25.8568 26.2576ZM15.6522 27.4496C15.6943 27.4415 15.7346 27.4299 15.7726 27.4153L15.6522 27.4496ZM15.6522 27.4496C15.0341 27.5697 14.6638 27.6735 14.4082 27.7451L15.6522 27.4496ZM18.0239 26.2681C17.9387 26.3173 17.8455 26.3711 17.738 26.4357L18.0239 26.2681ZM35.2278 27.8675H35.2294H35.2278ZM35.2278 27.8675H35.2262M35.2278 27.8675H35.2262M35.2262 27.8675H35.2246M35.2262 27.8675H35.2246M35.2246 27.8675H35.223M35.2246 27.8675H35.223M35.223 27.8675H35.2215M35.223 27.8675H35.2215M35.2215 27.8675H35.2199M35.2215 27.8675H35.2199M35.2199 27.8675H35.2183M35.2199 27.8675H35.2183M35.2183 27.8675H35.2167M35.2183 27.8675H35.2167M35.2167 27.8675H35.2151M35.2167 27.8675H35.2151M35.2151 27.8675H35.2135M35.2151 27.8675H35.2135M35.2135 27.8675H35.2119M35.2135 27.8675H35.2119M35.2119 27.8675H35.2103M35.2119 27.8675H35.2103M35.2103 27.8675H35.2087M35.2103 27.8675H35.2087M35.2087 27.8675H35.2071M35.2087 27.8675H35.2071M35.2071 27.8675H35.2055M35.2071 27.8675H35.2055M35.2055 27.8675H35.2039M35.2055 27.8675H35.2039M35.2039 27.8675H35.2023M35.2039 27.8675H35.2023M35.2023 27.8675H35.2007M35.2023 27.8675H35.2007M35.2007 27.8675H35.1991M35.2007 27.8675H35.1991M35.1991 27.8675H35.1975M35.1991 27.8675H35.1975M35.1975 27.8675H35.1959M35.1975 27.8675H35.1959M35.1959 27.8675H35.1942M35.1959 27.8675H35.1942M35.1942 27.8675H35.1926M35.1942 27.8675H35.1926M35.1926 27.8675H35.191M35.1926 27.8675H35.191M35.191 27.8675H35.1894M35.191 27.8675H35.1894M35.1894 27.8675H35.1878M35.1894 27.8675H35.1878M35.1878 27.8675H35.1862M35.1878 27.8675H35.1862M35.1862 27.8675H35.1846M35.1862 27.8675H35.1846M35.1846 27.8675H35.183M35.1846 27.8675H35.183M35.183 27.8675H35.1814M35.183 27.8675H35.1814M35.1814 27.8675H35.1798M35.1814 27.8675H35.1798M35.1798 27.8675H35.1782M35.1798 27.8675H35.1782M35.1782 27.8675H35.1765M35.1782 27.8675H35.1765M35.1765 27.8675H35.1749M35.1765 27.8675H35.1749M35.1749 27.8675H35.1733M35.1749 27.8675H35.1733M35.1733 27.8675H35.1717M35.1733 27.8675H35.1717M35.1717 27.8675H35.1701M35.1717 27.8675H35.1701M35.1701 27.8675H35.1685M35.1701 27.8675H35.1685M35.1685 27.8675H35.1668M35.1685 27.8675H35.1668M35.1668 27.8675H35.1652M35.1668 27.8675H35.1652M35.1652 27.8675H35.1636M35.1652 27.8675H35.1636M35.1636 27.8675H35.162M35.1636 27.8675H35.162M35.162 27.8675H35.1604M35.162 27.8675H35.1604M35.1604 27.8675H35.1588M35.1604 27.8675H35.1588M35.1588 27.8675H35.1571M35.1588 27.8675H35.1571M35.1571 27.8675H35.1555M35.1571 27.8675H35.1555M35.1555 27.8675H35.1539M35.1555 27.8675H35.1539M35.1539 27.8675H35.1523M35.1539 27.8675H35.1523M35.1523 27.8675H35.1506M35.1523 27.8675H35.1506M35.1506 27.8675H35.149M35.1506 27.8675H35.149M35.149 27.8675H35.1474M35.149 27.8675H35.1474M35.1474 27.8675H35.1458M35.1474 27.8675H35.1458M35.1458 27.8675H35.1441M35.1458 27.8675H35.1441M35.1441 27.8675H35.1425M35.1441 27.8675H35.1425M35.1425 27.8675H35.1409M35.1425 27.8675H35.1409M35.1409 27.8675H35.1393M35.1409 27.8675H35.1393M35.1393 27.8675H35.1376M35.1393 27.8675H35.1376M35.1376 27.8675H35.136M35.1376 27.8675H35.136M35.136 27.8675H35.1344M35.136 27.8675H35.1344M35.1344 27.8675H35.1327M35.1344 27.8675H35.1327M35.1327 27.8675H35.1311M35.1327 27.8675H35.1311M35.1311 27.8675H35.1295M35.1311 27.8675H35.1295M35.1295 27.8675H35.1279M35.1295 27.8675H35.1279M35.1279 27.8675H35.1262M35.1279 27.8675H35.1262M35.1262 27.8675H35.1246M35.1262 27.8675H35.1246M35.1246 27.8675H35.123M35.1246 27.8675H35.123M35.123 27.8675H35.1213M35.123 27.8675H35.1213M35.1213 27.8675H35.1197M35.1213 27.8675H35.1197M35.1197 27.8675H35.1181M35.1197 27.8675H35.1181M35.1181 27.8675H35.1164M35.1181 27.8675H35.1164M35.1164 27.8675H35.1148M35.1164 27.8675H35.1148M35.1148 27.8675H35.1131M35.1148 27.8675H35.1131M35.1131 27.8675H35.1115M35.1131 27.8675H35.1115M35.1115 27.8675H35.1099M35.1115 27.8675H35.1099M35.1099 27.8675H35.1082M35.1099 27.8675H35.1082M35.1082 27.8675H35.1066M35.1082 27.8675H35.1066M35.1066 27.8675H35.1049M35.1066 27.8675H35.1049M35.1049 27.8675H35.1033M35.1049 27.8675H35.1033M35.1033 27.8675H35.1017M35.1033 27.8675H35.1017M35.1017 27.8675H35.1M35.1017 27.8675H35.1M35.1 27.8675H35.0984M35.1 27.8675H35.0984M35.0984 27.8675H35.0967M35.0984 27.8675H35.0967M35.0967 27.8675H35.0951M35.0967 27.8675H35.0951M35.0951 27.8675H35.0935M35.0951 27.8675H35.0935M35.0935 27.8675H35.0918M35.0935 27.8675H35.0918M35.0918 27.8675H35.0902M35.0918 27.8675H35.0902M35.0902 27.8675H35.0885M35.0902 27.8675H35.0885M35.0885 27.8675H35.0869M35.0885 27.8675H35.0869M35.0869 27.8675H35.0852M35.0869 27.8675H35.0852M35.0852 27.8675H35.0836M35.0852 27.8675H35.0836M35.0836 27.8675H35.0819M35.0836 27.8675H35.0819M35.0819 27.8675H35.0803M35.0819 27.8675H35.0803M35.0803 27.8675H35.0786M35.0803 27.8675H35.0786M35.0786 27.8675H35.077M35.0786 27.8675H35.077M35.077 27.8675H35.0753M35.077 27.8675H35.0753M35.0753 27.8675H35.0737M35.0753 27.8675H35.0737M35.0737 27.8675H35.072M35.0737 27.8675H35.072M35.072 27.8675H35.0704M35.072 27.8675H35.0704M35.0704 27.8675H35.0687M35.0704 27.8675H35.0687M35.0687 27.8675H35.0671M35.0687 27.8675H35.0671M35.0671 27.8675H35.0654M35.0671 27.8675H35.0654M35.0654 27.8675H35.0638M35.0654 27.8675H35.0638M35.0638 27.8675H35.0621M35.0638 27.8675H35.0621M35.0621 27.8675H35.0605M35.0621 27.8675H35.0605M35.0605 27.8675H35.0588M35.0605 27.8675H35.0588M35.0588 27.8675H35.0571M35.0588 27.8675H35.0571M35.0571 27.8675H35.0555M35.0571 27.8675H35.0555M35.0555 27.8675H35.0538M35.0555 27.8675H35.0538M35.0538 27.8675H35.0522M35.0538 27.8675H35.0522M35.0522 27.8675H35.0505M35.0522 27.8675H35.0505M35.0505 27.8675H35.0488M35.0505 27.8675H35.0488M35.0488 27.8675H35.0472M35.0488 27.8675H35.0472M35.0472 27.8675H35.0455M35.0472 27.8675H35.0455M35.0455 27.8675H35.0439M35.0455 27.8675H35.0439M35.0439 27.8675H35.0422M35.0439 27.8675H35.0422M35.0422 27.8675H35.0405M35.0422 27.8675H35.0405M35.0405 27.8675H35.0389M35.0405 27.8675H35.0389M35.0389 27.8675H35.0372M35.0389 27.8675H35.0372M35.0372 27.8675H35.0356M35.0372 27.8675H35.0356M35.0356 27.8675H35.0339M35.0356 27.8675H35.0339M35.0339 27.8675H35.0322M35.0339 27.8675H35.0322M35.0322 27.8675H35.0306M35.0322 27.8675H35.0306M35.0306 27.8675H35.0289M35.0306 27.8675H35.0289M35.0289 27.8675H35.0272M35.0289 27.8675H35.0272M35.0272 27.8675H35.0256M35.0272 27.8675H35.0256M35.0256 27.8675H35.0239M35.0256 27.8675H35.0239M35.0239 27.8675H35.0222M35.0239 27.8675H35.0222M35.0222 27.8675H35.0206M35.0222 27.8675H35.0206M35.0206 27.8675H35.0189M35.0206 27.8675H35.0189M35.0189 27.8675H35.0172M35.0189 27.8675H35.0172M35.0172 27.8675H35.0156M35.0172 27.8675H35.0156M35.0156 27.8675H35.0139M35.0156 27.8675H35.0139M35.0139 27.8675H35.0122M35.0139 27.8675H35.0122M35.0122 27.8675H35.0105M35.0122 27.8675H35.0105M35.0105 27.8675H35.0089M35.0105 27.8675H35.0089M35.0089 27.8675H35.0072M35.0089 27.8675H35.0072M35.0072 27.8675H35.0055M35.0072 27.8675H35.0055M35.0055 27.8675H35.0038M35.0055 27.8675H35.0038M35.0038 27.8675H35.0022M35.0038 27.8675H35.0022M35.0022 27.8675H35.0005M35.0022 27.8675H35.0005M35.0005 27.8675H34.9988M35.0005 27.8675H34.9988M34.9988 27.8675H34.9971M34.9988 27.8675H34.9971M34.9971 27.8675H34.9955M34.9971 27.8675H34.9955M34.9955 27.8675H34.9938M34.9955 27.8675H34.9938M34.9938 27.8675H34.9921M34.9938 27.8675H34.9921M34.9921 27.8675H34.9904M34.9921 27.8675H34.9904M34.9904 27.8675H34.9888M34.9904 27.8675H34.9888M34.9888 27.8675H34.9871M34.9888 27.8675H34.9871M34.9871 27.8675H34.9854M34.9871 27.8675H34.9854M34.9854 27.8675H34.9837M34.9854 27.8675H34.9837M34.9837 27.8675H34.982M34.9837 27.8675H34.982M34.982 27.8675H34.9804M34.982 27.8675H34.9804M34.9804 27.8675H34.9787M34.9804 27.8675H34.9787M34.9787 27.8675H34.977M34.9787 27.8675H34.977M34.977 27.8675H34.9753M34.977 27.8675H34.9753M34.9753 27.8675H34.9736M34.9753 27.8675H34.9736M34.9736 27.8675H34.972M34.9736 27.8675H34.972M34.972 27.8675H34.9703M34.972 27.8675H34.9703M34.9703 27.8675H34.9686M34.9703 27.8675H34.9686M34.9686 27.8675H34.9669M34.9686 27.8675H34.9669M34.9669 27.8675H34.9652M34.9669 27.8675H34.9652M34.9652 27.8675H34.9635M34.9652 27.8675H34.9635M34.9635 27.8675H34.9619M34.9635 27.8675H34.9619M34.9619 27.8675H34.9602M34.9619 27.8675H34.9602M34.9602 27.8675H34.9585M34.9602 27.8675H34.9585M34.9585 27.8675H34.9568M34.9585 27.8675H34.9568M34.9568 27.8675H34.9551M34.9568 27.8675H34.9551M34.9551 27.8675H34.9534M34.9551 27.8675H34.9534M34.9534 27.8675H34.9517M34.9534 27.8675H34.9517M34.9517 27.8675H34.95M34.9517 27.8675H34.95M34.95 27.8675H34.9484M34.95 27.8675H34.9484M34.9484 27.8675H34.9467M34.9484 27.8675H34.9467M34.9467 27.8675H34.945M34.9467 27.8675H34.945M34.945 27.8675H34.9433M34.945 27.8675H34.9433M34.9433 27.8675H34.9416M34.9433 27.8675H34.9416M34.9416 27.8675H34.9399M34.9416 27.8675H34.9399M34.9399 27.8675H34.9382M34.9399 27.8675H34.9382M34.9382 27.8675H34.9365M34.9382 27.8675H34.9365M34.9365 27.8675H34.9348M34.9365 27.8675H34.9348M34.9348 27.8675H34.9331M34.9348 27.8675H34.9331M34.9331 27.8675H34.9314M34.9331 27.8675H34.9314M34.9314 27.8675H34.9297M34.9314 27.8675H34.9297M34.9297 27.8675H34.928M34.9297 27.8675H34.928M34.928 27.8675H34.9263M34.928 27.8675H34.9263M34.9263 27.8675H34.9247M34.9263 27.8675H34.9247M34.9247 27.8675H34.923M34.9247 27.8675H34.923M34.923 27.8675H34.9213M34.923 27.8675H34.9213M34.9213 27.8675H34.9196M34.9213 27.8675H34.9196M34.9196 27.8675H34.9179M34.9196 27.8675H34.9179M34.9179 27.8675H34.9162M34.9179 27.8675H34.9162M34.9162 27.8675H34.9145M34.9162 27.8675H34.9145M34.9145 27.8675H34.9128M34.9145 27.8675H34.9128M34.9128 27.8675H34.9111M34.9128 27.8675H34.9111M34.9111 27.8675H34.9094M34.9111 27.8675H34.9094M34.9094 27.8675H34.9077M34.9094 27.8675H34.9077M34.9077 27.8675H34.906M34.9077 27.8675H34.906M34.906 27.8675H34.9043M34.906 27.8675H34.9043M34.9043 27.8675H34.9026M34.9043 27.8675H34.9026M34.9026 27.8675H34.9009M34.9026 27.8675H34.9009M34.9009 27.8675H34.8992M34.9009 27.8675H34.8992M34.8992 27.8675H34.8975M34.8992 27.8675H34.8975M34.8975 27.8675H34.8958M34.8975 27.8675H34.8958M34.8958 27.8675H34.8941M34.8958 27.8675H34.8941M34.8941 27.8675H34.8924M34.8941 27.8675H34.8924M34.8924 27.8675H34.8906M34.8924 27.8675H34.8906M34.8906 27.8675H34.8889M34.8906 27.8675H34.8889M34.8889 27.8675H34.8872M34.8889 27.8675H34.8872M34.8872 27.8675H34.8855M34.8872 27.8675H34.8855M34.8855 27.8675H34.8838M34.8855 27.8675H34.8838M34.8838 27.8675H34.8821M34.8838 27.8675H34.8821M34.8821 27.8675H34.8804M34.8821 27.8675H34.8804M34.8804 27.8675H34.8787M34.8804 27.8675H34.8787M34.8787 27.8675H34.877M34.8787 27.8675H34.877M34.877 27.8675H34.8753M34.877 27.8675H34.8753M34.8753 27.8675H34.8736M34.8753 27.8675H34.8736M34.8736 27.8675H34.8719M34.8736 27.8675H34.8719M34.8719 27.8675H34.8702M34.8719 27.8675H34.8702M34.8702 27.8675H34.8685M34.8702 27.8675H34.8685M34.8685 27.8675H34.8667M34.8685 27.8675H34.8667M34.8667 27.8675H34.865M34.8667 27.8675H34.865M34.865 27.8675H34.8633M34.865 27.8675H34.8633M34.8633 27.8675H34.8616M34.8633 27.8675H34.8616M34.8616 27.8675H34.8599M34.8616 27.8675H34.8599M34.8599 27.8675H34.8582M34.8599 27.8675H34.8582M34.8582 27.8675H34.8565M34.8582 27.8675H34.8565M34.8565 27.8675H34.8548M34.8565 27.8675H34.8548M34.8548 27.8675H34.8531M34.8548 27.8675H34.8531M34.8531 27.8675H34.8513M34.8531 27.8675H34.8513M34.8513 27.8675H34.8496M34.8513 27.8675H34.8496M34.8496 27.8675H34.8479M34.8496 27.8675H34.8479M34.8479 27.8675H34.8462M34.8479 27.8675H34.8462M34.8462 27.8675H34.8445M34.8462 27.8675H34.8445M34.8445 27.8675H34.8428M34.8445 27.8675H34.8428M34.8428 27.8675H34.8411M34.8428 27.8675H34.8411M34.8411 27.8675H34.8393M34.8411 27.8675H34.8393M34.8393 27.8675H34.8376M34.8393 27.8675H34.8376M34.8376 27.8675H34.8359M34.8376 27.8675H34.8359M34.8359 27.8675H34.8342M34.8359 27.8675H34.8342M34.8342 27.8675H34.8325M34.8342 27.8675H34.8325M34.8325 27.8675H34.8307M34.8325 27.8675H34.8307M34.8307 27.8675H34.829M34.8307 27.8675H34.829M34.829 27.8675H34.8273M34.829 27.8675H34.8273M34.8273 27.8675H34.8256M34.8273 27.8675H34.8256M34.8256 27.8675H34.8239M34.8256 27.8675H34.8239M34.8239 27.8675H34.8222M34.8239 27.8675H34.8222M34.8222 27.8675H34.8204M34.8222 27.8675H34.8204M34.8204 27.8675H34.8187M34.8204 27.8675H34.8187M34.8187 27.8675H34.817M34.8187 27.8675H34.817M34.817 27.8675H34.8153M34.817 27.8675H34.8153M34.8153 27.8675H34.8136M34.8153 27.8675H34.8136M34.8136 27.8675H34.8118M34.8136 27.8675H34.8118M34.8118 27.8675H34.8101M34.8118 27.8675H34.8101M34.8101 27.8675H34.8084M34.8101 27.8675H34.8084M34.8084 27.8675H34.8067M34.8084 27.8675H34.8067M34.8067 27.8675H34.8049M34.8067 27.8675H34.8049M34.8049 27.8675H34.8032M34.8049 27.8675H34.8032M34.8032 27.8675H34.8015M34.8032 27.8675H34.8015M34.8015 27.8675H34.7998M34.8015 27.8675H34.7998M34.7998 27.8675H34.798M34.7998 27.8675H34.798M34.798 27.8675H34.7963M34.798 27.8675H34.7963M34.7963 27.8675H34.7946M34.7963 27.8675H34.7946M34.7946 27.8675H34.7929M34.7946 27.8675H34.7929M34.7929 27.8675H34.7911M34.7929 27.8675H34.7911M34.7911 27.8675H34.7894M34.7911 27.8675H34.7894M34.7894 27.8675H34.7877M34.7894 27.8675H34.7877M34.7877 27.8675H34.786M34.7877 27.8675H34.786M34.786 27.8675H34.7842M34.786 27.8675H34.7842M34.7842 27.8675H34.7825M34.7842 27.8675H34.7825M34.7825 27.8675H34.7808M34.7825 27.8675H34.7808M34.7808 27.8675H34.779M34.7808 27.8675H34.779M34.779 27.8675H34.7773M34.779 27.8675H34.7773M34.7773 27.8675H34.7756M34.7773 27.8675H34.7756M34.7756 27.8675H34.7739M34.7756 27.8675H34.7739M34.7739 27.8675H34.7721M34.7739 27.8675H34.7721M34.7721 27.8675H34.7704M34.7721 27.8675H34.7704M34.7704 27.8675H34.7687M34.7704 27.8675H34.7687M34.7687 27.8675H34.7669M34.7687 27.8675H34.7669M34.7669 27.8675H34.7652M34.7669 27.8675H34.7652M34.7652 27.8675H34.7635M34.7652 27.8675H34.7635M34.7635 27.8675H34.7617M34.7635 27.8675H34.7617M34.7617 27.8675H34.76M34.7617 27.8675H34.76M34.76 27.8675H34.7583M34.76 27.8675H34.7583M34.7583 27.8675H34.7566M34.7583 27.8675H34.7566M34.7566 27.8675H34.7548M34.7566 27.8675H34.7548M34.7548 27.8675H34.7531M34.7548 27.8675H34.7531M34.7531 27.8675H34.7514M34.7531 27.8675H34.7514M34.7514 27.8675H34.7496M34.7514 27.8675H34.7496M34.7496 27.8675H34.7479M34.7496 27.8675H34.7479M34.7479 27.8675H34.7462M34.7479 27.8675H34.7462M34.7462 27.8675H34.7444M34.7462 27.8675H34.7444M34.7444 27.8675H34.7427M34.7444 27.8675H34.7427M34.7427 27.8675H34.7409M34.7427 27.8675H34.7409M34.7409 27.8675H34.7392M34.7409 27.8675H34.7392M34.7392 27.8675H34.7375M34.7392 27.8675H34.7375M34.7375 27.8675H34.7357M34.7375 27.8675H34.7357M34.7357 27.8675H34.734M34.7357 27.8675H34.734M34.734 27.8675H34.7323M34.734 27.8675H34.7323M34.7323 27.8675H34.7305M34.7323 27.8675H34.7305M34.7305 27.8675H34.7288M34.7305 27.8675H34.7288M34.7288 27.8675H34.7271M34.7288 27.8675H34.7271M34.7271 27.8675H34.7253M34.7271 27.8675H34.7253M34.7253 27.8675H34.7236M34.7253 27.8675H34.7236M34.7236 27.8675H34.7218M34.7236 27.8675H34.7218M34.7218 27.8675H34.7201M34.7218 27.8675H34.7201M34.7201 27.8675H34.7184M34.7201 27.8675H34.7184M34.7184 27.8675H34.7166M34.7184 27.8675H34.7166M34.7166 27.8675H34.7149M34.7166 27.8675H34.7149M34.7149 27.8675H34.7131M34.7149 27.8675H34.7131M34.7131 27.8675H34.7114M34.7131 27.8675H34.7114M34.7114 27.8675H34.7097M34.7114 27.8675H34.7097M34.7097 27.8675H34.7079M34.7097 27.8675H34.7079M34.7079 27.8675H34.7062M34.7079 27.8675H34.7062M34.7062 27.8675H34.7044M34.7062 27.8675H34.7044M34.7044 27.8675H34.7027M34.7044 27.8675H34.7027M34.7027 27.8675H34.701M34.7027 27.8675H34.701M34.701 27.8675H34.6992M34.701 27.8675H34.6992M34.6992 27.8675H34.6975M34.6992 27.8675H34.6975M34.6975 27.8675H34.6957M34.6975 27.8675H34.6957M34.6957 27.8675H34.694M34.6957 27.8675H34.694M34.694 27.8675H34.6922M34.694 27.8675H34.6922M34.6922 27.8675H34.6905M34.6922 27.8675H34.6905M34.6905 27.8675H34.6888M34.6905 27.8675H34.6888M34.6888 27.8675H34.687M34.6888 27.8675H34.687M34.687 27.8675H34.6853M34.687 27.8675H34.6853M34.6853 27.8675H34.6835M34.6853 27.8675H34.6835M34.6835 27.8675H34.6818M34.6835 27.8675H34.6818M34.6818 27.8675H34.68M34.6818 27.8675H34.68M34.68 27.8675H34.6783M34.68 27.8675H34.6783M34.6783 27.8675H34.6765M34.6783 27.8675H34.6765M34.6765 27.8675H34.6748M34.6765 27.8675H34.6748M34.6748 27.8675H34.6731M34.6748 27.8675H34.6731M34.6731 27.8675H34.6713M34.6731 27.8675H34.6713M34.6713 27.8675H34.6696M34.6713 27.8675H34.6696M34.6696 27.8675H34.6678M34.6696 27.8675H34.6678M34.6678 27.8675H34.6661M34.6678 27.8675H34.6661M34.6661 27.8675H34.6643M34.6661 27.8675H34.6643M34.6643 27.8675H34.6626M34.6643 27.8675H34.6626M34.6626 27.8675H34.6608M34.6626 27.8675H34.6608M34.6608 27.8675H34.6591M34.6608 27.8675H34.6591M34.6591 27.8675H34.6573M34.6591 27.8675H34.6573M34.6573 27.8675H34.6556M34.6573 27.8675H34.6556M34.6556 27.8675H34.6538M34.6556 27.8675H34.6538M34.6538 27.8675H34.6521M34.6538 27.8675H34.6521M34.6521 27.8675H34.6503M34.6521 27.8675H34.6503M34.6503 27.8675H34.6486M34.6503 27.8675H34.6486M34.6486 27.8675H34.6468M34.6486 27.8675H34.6468M34.6468 27.8675H34.6451M34.6468 27.8675H34.6451M34.6451 27.8675H34.6433M34.6451 27.8675H34.6433M34.6433 27.8675H34.6416M34.6433 27.8675H34.6416M34.6416 27.8675H34.6398M34.6416 27.8675H34.6398M34.6398 27.8675H34.6381M34.6398 27.8675H34.6381M34.6381 27.8675H34.6363M34.6381 27.8675H34.6363M34.6363 27.8675H34.6346M34.6363 27.8675H34.6346M34.6346 27.8675H34.6328M34.6346 27.8675H34.6328M34.6328 27.8675H34.6311M34.6328 27.8675H34.6311M34.6311 27.8675H34.6293H34.6311ZM19.0327 26.692C19.0327 26.692 19.0327 26.692 19.0327 26.692L19.0866 26.7817L19.0327 26.692ZM19.6328 27.6201L19.6372 27.6175L19.733 27.5603C19.7847 27.5295 19.8472 27.4924 19.9134 27.4533L19.6328 27.6201ZM35.5379 27.8698L35.5044 27.8675H35.4708V28.8675L35.5379 27.8698Z" stroke="#333333" stroke-width="2"/>
</svg>
