<svg width="48" height="48" viewBox="0 0 48 48" fill="none" xmlns="http://www.w3.org/2000/svg">
<path fill-rule="evenodd" clip-rule="evenodd" d="M29.6301 18.2451L30.3866 17.6333V14.0204L34.8372 9.7805C34.9669 9.68917 35.0731 9.57337 35.1482 9.44117C35.2234 9.30897 35.2658 9.16355 35.2724 9.01505C35.279 8.86654 35.2497 8.71851 35.1866 8.58128C35.1234 8.44404 35.0279 8.3209 34.9067 8.22042C34.7855 8.11994 34.6416 8.04455 34.4848 7.99949C34.3281 7.95444 34.1624 7.9408 33.9992 7.95953C33.8361 7.97826 33.6794 8.0289 33.5401 8.10794C33.4008 8.18698 33.2822 8.29251 33.1927 8.41718L28.1085 13.2161V16.7198L28.0571 16.7624C27.3057 14.8866 25.9406 13.7184 24.9223 13.2238L24.6687 4.68166C24.6687 4.50087 24.5892 4.32749 24.4477 4.19965C24.3063 4.07182 24.1144 4 23.9143 4C23.7143 4 23.5224 4.07182 23.3809 4.19965C23.2395 4.32749 23.16 4.50087 23.16 4.68166L22.8615 13.3362C21.8518 13.8954 20.5885 15.0661 19.8979 16.8774L19.6749 16.6926V13.2161L14.651 8.37628C14.44 8.2277 14.1775 8.15151 13.9101 8.16125C13.6428 8.17098 13.3879 8.26601 13.1907 8.42946C12.9936 8.59291 12.8669 8.81421 12.8332 9.05406C12.7995 9.29391 12.8609 9.5368 13.0066 9.7396L17.5326 13.9796V17.5924L18.3456 18.2499C16.9613 18.5241 15.4259 18.8726 13.9712 19.2816C12.7058 19.6374 11.4491 20.0535 10.3886 20.5277C9.42032 20.9607 8.27162 21.5865 7.59066 22.5144L7.48502 22.6583L7.40655 22.8187C6.83392 23.9892 6.69078 25.8576 8.18607 27.3413C9.29507 28.4416 11.0472 29.0415 13.4122 29.2076L12.8105 32.3708L9.17454 34.9202C8.98968 35.0513 8.85458 35.2312 8.78798 35.4348C8.72138 35.6385 8.72659 35.8558 8.80289 36.0566C8.87918 36.2574 9.02277 36.4318 9.21374 36.5556C9.4047 36.6793 9.63355 36.7462 9.86853 36.7471C10.1209 36.7495 10.3663 36.6723 10.5625 36.529L14.8623 33.5569L15.7014 29.1704C15.8778 29.1457 16.0649 29.1166 16.2606 29.0828L16.9744 33.0798L14.0928 42.7185C14.0517 42.8474 14.0394 42.9824 14.0567 43.1157C14.074 43.2489 14.1206 43.3777 14.1936 43.4945C14.2667 43.6113 14.3648 43.7137 14.4822 43.7959C14.5996 43.878 14.7339 43.9381 14.8773 43.9727H15.1791C15.4258 43.9719 15.6656 43.8982 15.8617 43.7628C16.0578 43.6274 16.1995 43.4378 16.2653 43.2229L19.2827 33.0934L18.4692 28.5658C18.5139 28.5525 18.5586 28.5389 18.6034 28.5252C18.9638 28.4144 19.3433 28.2851 19.7287 28.1341C19.8006 28.4878 19.8858 28.846 19.986 29.2016C20.4095 30.7049 21.2395 32.6663 22.9639 33.7107L24 34.3382L25.0361 33.7107C26.7605 32.6663 27.5905 30.7049 28.014 29.2016C28.1142 28.846 28.1994 28.4878 28.2713 28.1341C28.6035 28.2643 28.9314 28.3783 29.2465 28.4783L28.4404 33.1207L31.4577 43.2502C31.5235 43.4651 31.6653 43.6547 31.8614 43.7901C32.0575 43.9254 32.2972 43.9992 32.544 44H32.8457C32.9891 43.9654 33.1235 43.9052 33.2409 43.8231C33.3583 43.741 33.4564 43.6385 33.5294 43.5217C33.6025 43.405 33.649 43.2762 33.6663 43.1429C33.6836 43.0097 33.6714 42.8746 33.6302 42.7457L30.8241 33.0116L31.5323 29.0458C31.7325 29.0827 31.9248 29.1148 32.1074 29.1425L32.9664 33.5569L37.2963 36.5971C37.4926 36.7405 37.738 36.8176 37.9903 36.8153C38.2435 36.8312 38.4953 36.7696 38.7052 36.6406C38.915 36.5116 39.0708 36.3225 39.1474 36.1038C39.224 35.8851 39.217 35.6495 39.1276 35.4348C39.0381 35.2202 38.8713 35.0389 38.6541 34.9202L35.0182 32.3572L34.4212 29.2186C36.8706 29.0692 38.679 28.4673 39.8139 27.3413C41.3092 25.8576 41.1661 23.9892 40.5935 22.8187L40.515 22.6583L40.4093 22.5144C39.7284 21.5865 38.5797 20.9607 37.6114 20.5277C36.5509 20.0535 35.2942 19.6374 34.0288 19.2816C32.5656 18.8702 31.0207 18.52 29.6301 18.2451ZM21.3888 19.7442C17.9071 20.2713 10.5957 21.8 9.20306 23.6977C8.62279 24.8837 8.94194 27.2558 14.8607 27.2558C15.8672 27.1644 17.7814 26.8192 19.4407 26.0883C20.173 25.7657 20.8557 25.368 21.3888 24.8837C21.3888 25.4871 21.4446 26.3216 21.5929 27.2158C21.8979 29.0559 22.5942 31.1486 24 32C25.4058 31.1486 26.1021 29.0558 26.4071 27.2158C26.5554 26.3216 26.6112 25.4871 26.6112 24.8837C27.1443 25.368 27.827 25.7657 28.5593 26.0883C30.2186 26.8192 32.1328 27.1644 33.1393 27.2558C39.0581 27.2558 39.3772 24.8837 38.7969 23.6977C37.4043 21.8 30.0929 20.2713 26.6112 19.7442C26.6112 16.8977 24.8704 15.3954 24 15C23.1296 15.3954 21.3888 16.8977 21.3888 19.7442Z" fill="#333333"/>
</svg>
