<svg width="48" height="48" viewBox="0 0 48 48" fill="none" xmlns="http://www.w3.org/2000/svg">
<path d="M17.7071 19.0502C17.3166 18.6597 17.3166 18.0266 17.7071 17.636C18.0976 17.2455 18.7308 17.2455 19.1213 17.636L24.2069 22.7216L29.2929 17.6357C29.6834 17.2451 30.3166 17.2451 30.7071 17.6357C31.0976 18.0262 31.0976 18.6594 30.7071 19.0499L25.6211 24.1358L30.435 28.9497C30.8256 29.3403 30.8256 29.9734 30.435 30.364C30.0445 30.7545 29.4113 30.7545 29.0208 30.364L24.2069 25.5501L19.3934 30.3636C19.0029 30.7541 18.3697 30.7541 17.9792 30.3636C17.5887 29.9731 17.5887 29.3399 17.9792 28.9494L22.7927 24.1358L17.7071 19.0502Z" fill="#333333"/>
<path fill-rule="evenodd" clip-rule="evenodd" d="M24 42C33.9411 42 42 33.9411 42 24C42 14.0589 33.9411 6 24 6C14.0589 6 6 14.0589 6 24C6 33.9411 14.0589 42 24 42ZM24 40C32.8366 40 40 32.8366 40 24C40 15.1634 32.8366 8 24 8C15.1634 8 8 15.1634 8 24C8 32.8366 15.1634 40 24 40Z" fill="#333333"/>
</svg>
