<svg width="48" height="48" viewBox="0 0 48 48" fill="none" xmlns="http://www.w3.org/2000/svg">
<path d="M42 7C37.4038 7 32.8525 7.90529 28.6061 9.66421C24.3597 11.4231 20.5013 14.0012 17.2513 17.2513C14.0012 20.5013 11.4231 24.3597 9.66422 28.6061C7.9053 32.8525 7 37.4037 7 42C7 42.5523 6.55228 43 6 43C5.44772 43 5 42.5523 5 42C5 37.1411 5.95704 32.3298 7.81646 27.8407C9.67589 23.3517 12.4013 19.2728 15.8371 15.837C19.2728 12.4013 23.3517 9.67587 27.8407 7.81645C32.3298 5.95703 37.1411 5 42 5C42.5523 5 43 5.44772 43 6C43 6.55229 42.5523 7 42 7Z" fill="#333333"/>
<path d="M39.2329 14.1187C39.3071 14.666 38.9235 15.1698 38.3762 15.2439C37.6311 15.3448 36.8929 15.4764 36.1633 15.638C35.6241 15.7574 35.0901 15.417 34.9708 14.8778C34.8514 14.3385 35.1917 13.8046 35.731 13.6853C36.5146 13.5118 37.3075 13.3704 38.1078 13.262C38.6551 13.1878 39.1588 13.5714 39.2329 14.1187Z" fill="#333333"/>
<path d="M32.4259 15.6683C32.633 16.1802 32.3859 16.7632 31.874 16.9703C30.4837 17.5328 29.1426 18.2102 27.8648 18.9953C27.3942 19.2844 26.7784 19.1373 26.4893 18.6668C26.2001 18.1962 26.3472 17.5804 26.8178 17.2913C28.1902 16.448 29.6306 15.7204 31.1239 15.1163C31.6358 14.9092 32.2188 15.1563 32.4259 15.6683Z" fill="#333333"/>
<path d="M24.3427 20.2459C24.7059 20.662 24.6629 21.2937 24.2468 21.6568C23.6838 22.1482 23.1398 22.6642 22.6163 23.204C22.0929 23.7438 21.5939 24.3035 21.1201 24.8814C20.7699 25.3085 20.1399 25.3708 19.7128 25.0207C19.2857 24.6705 19.2233 24.0404 19.5735 23.6133C20.0823 22.9927 20.6183 22.3915 21.1805 21.8117C21.7427 21.232 22.327 20.6777 22.9318 20.15C23.3479 19.7868 23.9796 19.8298 24.3427 20.2459Z" fill="#333333"/>
<path d="M18.2005 27.2148C18.6798 27.4893 18.8457 28.1003 18.5712 28.5796C17.8258 29.881 17.1901 31.2423 16.6707 32.6492C16.4794 33.1673 15.9044 33.4323 15.3863 33.241C14.8682 33.0497 14.6032 32.4747 14.7945 31.9566C15.3523 30.4454 16.0352 28.9833 16.8358 27.5855C17.1103 27.1063 17.7213 26.9403 18.2005 27.2148Z" fill="#333333"/>
<path d="M14.6745 35.809C15.2172 35.9117 15.5738 36.4349 15.4711 36.9775C15.3321 37.7117 15.2233 38.4537 15.1453 39.2015C15.0881 39.7508 14.5964 40.1497 14.0471 40.0925C13.4978 40.0353 13.0989 39.5436 13.1561 38.9943C13.2398 38.191 13.3567 37.3942 13.506 36.6055C13.6087 36.0629 14.1319 35.7063 14.6745 35.809Z" fill="#333333"/>
<path d="M42 23C39.5049 23 37.0342 23.4914 34.729 24.4463C32.4238 25.4011 30.3293 26.8007 28.565 28.565C26.8007 30.3293 25.4011 32.4238 24.4463 34.729C23.4915 37.0342 23 39.5049 23 42C23 42.5523 23.4477 43 24 43C24.5523 43 25 42.5523 25 42C25 39.7675 25.4397 37.5569 26.2941 35.4944C27.1484 33.4318 28.4006 31.5578 29.9792 29.9792C31.5578 28.4006 33.4319 27.1484 35.4944 26.294C37.5569 25.4397 39.7675 25 42 25C42.5523 25 43 24.5523 43 24C43 23.4477 42.5523 23 42 23Z" fill="#333333"/>
</svg>
