<svg width="48" height="48" viewBox="0 0 48 48" fill="none" xmlns="http://www.w3.org/2000/svg">
<path d="M6 42C6 37.2724 6.93117 32.5911 8.74034 28.2234C10.5495 23.8557 13.2013 19.8871 16.5442 16.5441C19.8871 13.2012 23.8557 10.5495 28.2234 8.74033C32.5911 6.93116 37.2724 6 42 6" stroke="#333333" stroke-width="2" stroke-linecap="round"/>
<path d="M38.242 14.2529C32.023 15.0952 26.2672 18.0024 21.8985 22.5079C17.5297 27.0133 14.8011 32.8559 14.1508 39.0979" stroke="#333333" stroke-linecap="round" stroke-dasharray="4 4"/>
<path d="M42 24C39.6362 24 37.2956 24.4656 35.1117 25.3702C32.9278 26.2747 30.9435 27.6006 29.2721 29.2721C27.6006 30.9435 26.2748 32.9278 25.3702 35.1117C24.4656 37.2956 24 39.6362 24 42" stroke="#333333" stroke-width="2" stroke-linecap="round"/>
</svg>
