<svg width="48" height="48" viewBox="0 0 48 48" fill="none" xmlns="http://www.w3.org/2000/svg">
<path d="M26.5 35.5C26.5 36.8807 25.3807 38 24 38C22.6193 38 21.5 36.8807 21.5 35.5C21.5 34.1193 22.6193 33 24 33C25.3807 33 26.5 34.1193 26.5 35.5Z" fill="#333333"/>
<path d="M17.5671 16.0362C17.2038 16.7589 17.0827 17.1651 17.0124 18.0362C16.9395 18.9393 17.1023 19.6963 17.9538 20.0596C18.2761 20.1971 18.6057 20.2294 19.0124 20.0831C19.5952 19.8734 19.8397 19.498 19.9851 18.9776C20.0163 18.7704 20.0107 18.6133 20.0055 18.4669C20.0003 18.3206 19.9954 18.185 20.028 18.0206C20.2352 16.9761 20.9821 16.4874 21.9538 16.2198C23.3083 15.8467 25.4556 16.101 25.9538 16.3292C26.9964 16.7043 27.9538 17.2844 28.0046 19.0245C28.0478 20.5062 27.6661 21.2263 25.9538 22.2667C25.7468 22.4089 25.5359 22.5392 25.3222 22.6712C24.7496 23.0247 24.1563 23.3911 23.5606 24.0362C22.9964 24.6779 22.6211 25.3086 22.5391 26V27.0117C22.5391 27.4217 22.5343 27.832 22.5296 28.232C22.5224 28.8561 22.5154 29.455 22.5273 29.9883C22.5469 30.8633 23.3621 31.0078 24 31.0078C24.7014 31.0078 25.3906 30.7305 25.3906 30.0234C25.3906 29.5123 25.3916 29.0292 25.3926 28.5417C25.3935 28.0451 25.3945 27.544 25.3945 27.0039C25.3945 26.5168 25.5696 26.3057 25.775 26.0579C25.7887 26.0414 25.8025 26.0247 25.8164 26.0078C26.2627 25.5876 26.7841 25.2714 27.3492 24.9287C27.5459 24.8094 27.7479 24.6869 27.9538 24.5557C28.9655 23.9112 29.5554 23.3057 29.946 22.7589C30.5241 22.0167 30.8453 21.1565 30.9577 20.0362C31.0788 18.8292 30.9968 17.3956 30.2234 16.0362C29.1242 14.177 27.2194 13.3253 24.9421 13.0831C23.778 12.9815 23.1062 13.0284 21.9538 13.1634C21.1432 13.3225 20.6821 13.4212 19.9538 13.7667C18.9538 14.2784 18.1804 14.8604 17.5671 16.0362Z" fill="#333333"/>
<path fill-rule="evenodd" clip-rule="evenodd" d="M24 44C35.0457 44 44 35.0457 44 24C44 12.9543 35.0457 4 24 4C12.9543 4 4 12.9543 4 24C4 35.0457 12.9543 44 24 44ZM24 42C33.9411 42 42 33.9411 42 24C42 14.0589 33.9411 6 24 6C14.0589 6 6 14.0589 6 24C6 33.9411 14.0589 42 24 42Z" fill="#333333"/>
</svg>
