<svg width="48" height="48" viewBox="0 0 48 48" fill="none" xmlns="http://www.w3.org/2000/svg">
<path d="M20.6906 8.90252C22.165 6.36583 25.8569 6.36583 27.3313 8.90252L42.5017 35.0025C43.9731 37.5341 41.9863 41 39.0355 41H8.83339C5.93492 41 4.02218 37.5799 5.52025 35.0025L20.6906 8.90252Z" stroke="#333333" stroke-width="2"/>
<path d="M25.802 35.2178C25.802 36.213 24.9952 37.0198 24 37.0198C23.0047 37.0198 22.1979 36.213 22.1979 35.2178C22.1979 34.2226 23.0047 33.4158 24 33.4158C24.9952 33.4158 25.802 34.2226 25.802 35.2178Z" fill="#333333"/>
<path d="M18.9632 22.6296C19.0139 22.0017 19.1012 21.7088 19.363 21.1879C19.8051 20.3404 20.3626 19.9209 21.0834 19.552C21.6083 19.303 21.9407 19.2319 22.5251 19.1172C23.3557 19.0199 23.84 18.9861 24.6791 19.0593C26.3206 19.2339 27.6936 19.8478 28.4859 21.1879C29.0434 22.1678 29.1025 23.2012 29.0152 24.0712C28.9342 24.8787 28.7027 25.4987 28.2859 26.0337C28.0044 26.4279 27.5792 26.8644 26.8499 27.3289C26.275 27.6952 25.7429 27.9674 25.3093 28.3756C25.1487 28.571 25.0052 28.7191 25.0052 29.0936C25.0052 29.8651 25.0024 30.5265 25.0024 31.2702C25.0024 31.7798 24.5055 31.9797 24 31.9797C23.5402 31.9797 22.9525 31.8755 22.9385 31.2448C22.9244 30.6141 22.9469 29.8559 22.9469 29.0993V28.37C23.006 27.8716 23.2766 27.417 23.6833 26.9545C24.273 26.3159 24.8593 26.0563 25.4083 25.679C26.6426 24.9291 26.9177 24.41 26.8865 23.3419C26.8499 22.0877 26.1598 21.6695 25.4083 21.3991C25.0492 21.2347 23.5014 21.0514 22.5251 21.3203C21.8246 21.5132 21.2862 21.8655 21.1369 22.6183C21.0899 22.8555 21.151 23.0097 21.106 23.3081C21.0012 23.6832 20.8249 23.9538 20.4049 24.105C20.1117 24.2105 19.8741 24.1872 19.6418 24.0881C19.028 23.8262 18.9107 23.2805 18.9632 22.6296Z" fill="#333333"/>
</svg>
