<svg width="48" height="48" viewBox="0 0 48 48" fill="none" xmlns="http://www.w3.org/2000/svg">
<path d="M25.802 35.2177C25.802 36.213 24.9952 37.0198 24 37.0198C23.0048 37.0198 22.198 36.213 22.198 35.2177C22.198 34.2225 23.0048 33.4157 24 33.4157C24.9952 33.4157 25.802 34.2225 25.802 35.2177Z" fill="#333333"/>
<path d="M19.3631 21.1879C19.1012 21.7088 19.0139 22.0017 18.9632 22.6296C18.9107 23.2805 19.028 23.8262 19.6418 24.0881C19.8741 24.1872 20.1117 24.2105 20.4049 24.105C20.825 23.9538 21.0012 23.6832 21.106 23.3081C21.1285 23.1588 21.1245 23.0456 21.1207 22.94C21.1169 22.8346 21.1135 22.7368 21.137 22.6183C21.2863 21.8655 21.8246 21.5132 22.5251 21.3203C23.5014 21.0514 25.0492 21.2346 25.4083 21.3991C26.1599 21.6695 26.85 22.0877 26.8866 23.3419C26.9177 24.41 26.6426 24.9291 25.4083 25.6789C25.2591 25.7815 25.1071 25.8754 24.953 25.9705C24.5403 26.2254 24.1127 26.4894 23.6833 26.9544C23.2766 27.417 23.0061 27.8716 22.9469 28.37V29.0992C22.9469 29.3948 22.9435 29.6905 22.9402 29.9788C22.9349 30.4287 22.9299 30.8604 22.9385 31.2448C22.9526 31.8755 23.5402 31.9797 24 31.9797C24.5056 31.9797 25.0024 31.7798 25.0024 31.2701C25.0024 30.9017 25.0031 30.5535 25.0038 30.2021C25.0045 29.8441 25.0052 29.4829 25.0052 29.0936C25.0052 28.7425 25.1314 28.5903 25.2794 28.4117C25.2893 28.3998 25.2993 28.3878 25.3093 28.3756C25.631 28.0727 26.0068 27.8448 26.4142 27.5978C26.5559 27.5118 26.7015 27.4235 26.85 27.3289C27.5792 26.8643 28.0044 26.4279 28.286 26.0337C28.7027 25.4987 28.9342 24.8787 29.0152 24.0712C29.1025 23.2011 29.0434 22.1678 28.4859 21.1879C27.6936 19.8478 26.3206 19.2338 24.6791 19.0593C23.84 18.9861 23.3557 19.0198 22.5251 19.1172C21.9408 19.2319 21.6084 19.303 21.0835 19.552C20.3626 19.9209 19.8051 20.3404 19.3631 21.1879Z" fill="#333333"/>
<path fill-rule="evenodd" clip-rule="evenodd" d="M28.1959 8.4C26.3359 5.2 21.686 5.2 19.826 8.4L4.65568 34.5C2.79571 37.7 5.11346 42 8.83339 42H39.0355C42.7554 42 45.2262 37.7 43.3662 34.5L28.1959 8.4ZM41.6371 35.5051L26.4667 9.40504C25.3779 7.53165 22.644 7.53166 21.5552 9.40504L6.38481 35.505C5.24865 37.4598 6.75638 40 8.83339 40H39.0355C41.2172 40 42.7201 37.3683 41.6371 35.5051Z" fill="#333333"/>
</svg>
