<svg width="48" height="48" viewBox="0 0 48 48" fill="none" xmlns="http://www.w3.org/2000/svg">
<path d="M40 23C40 25.7625 37.7625 28 35 28C32.2375 28 30 25.7625 30 23C30 20.2375 32.2375 18 35 18C37.7625 18 40 20.2375 40 23Z" stroke="#333333" stroke-width="2"/>
<path d="M26 35.3333C26 34.7898 26.2477 34.2549 26.7947 33.7164C27.3505 33.1692 28.1648 32.6735 29.1414 32.2562C31.0989 31.4198 33.4651 31 35 31C36.5349 31 38.9011 31.4198 40.8586 32.2562C41.8352 32.6735 42.6495 33.1692 43.2053 33.7164C43.7523 34.2549 44 34.7898 44 35.3333V40H26V35.3333Z" stroke="#333333" stroke-width="2"/>
<path d="M27 40H14V32" stroke="#333333" stroke-width="2"/>
<path d="M9 36L14 31L19 36" stroke="#333333" stroke-width="2"/>
<path fill-rule="evenodd" clip-rule="evenodd" d="M7 6H8H20H21V7V10H24H25V11V28V29H24H18H16H12H10H4H3V28V11V10H4H7V7V6ZM7 12H5V14H7V12ZM7 16H5V27H10V23V21H12H16H18V23V27H23V16H21V19V20H20H8H7V19V16ZM21 14H23V12H21V14ZM16 27V23H12V27H16ZM9 8V18H19V8H9ZM13 12V9H15V12H18V14H15V17H13V14H10V12H13Z" fill="#333333"/>
</svg>
