<svg width="48" height="48" viewBox="0 0 48 48" fill="none" xmlns="http://www.w3.org/2000/svg">
<path d="M13 9V12H10V14H13V17H15V14H18V12H15V9H13Z" fill="#333333"/>
<path fill-rule="evenodd" clip-rule="evenodd" d="M7 6V10H3V29H25V10H21V6H7ZM5 12H7V14H5V12ZM5 16H7V20H21V16H23V27H18V21H10V27H5V16ZM23 14H21V12H23V14ZM16 23V27H12V23H16ZM9 18V8H19V18H9Z" fill="#333333"/>
<path fill-rule="evenodd" clip-rule="evenodd" d="M29 23C29 19.6852 31.6852 17 35 17C38.3148 17 41 19.6852 41 23C41 26.3148 38.3148 29 35 29C31.6852 29 29 26.3148 29 23ZM35 19C32.7898 19 31 20.7898 31 23C31 25.2102 32.7898 27 35 27C37.2102 27 39 25.2102 39 23C39 20.7898 37.2102 19 35 19Z" fill="#333333"/>
<path fill-rule="evenodd" clip-rule="evenodd" d="M45 41V35.3333C45 31.7867 38.3375 30 35 30C31.6625 30 25 31.7867 25 35.3333V39H15V33.4143L18.2928 36.7071L19.7071 35.2929L14 29.5858L8.29285 35.2929L9.70706 36.7071L13 33.4142V41H45ZM27.4963 34.429C27.0789 34.8399 27 35.1329 27 35.3333V39H43V35.3333C43 35.1329 42.9211 34.8399 42.5037 34.429C42.0689 34.0009 41.3774 33.5654 40.4657 33.1758C38.6335 32.3929 36.401 32 35 32C33.599 32 31.3665 32.3929 29.5343 33.1758C28.6226 33.5654 27.9311 34.0009 27.4963 34.429Z" fill="#333333"/>
</svg>
