<svg width="48" height="48" viewBox="0 0 48 48" fill="none" xmlns="http://www.w3.org/2000/svg">
<path fill-rule="evenodd" clip-rule="evenodd" d="M26.9237 4C27.8914 4 28.7899 4.21665 29.5913 4.67461C30.276 5.06587 31.0533 5.60468 31.6279 6.40924L31.6156 6.41807L31.6269 6.43319L33.9585 9.45545L34.7795 10.5501C37.3104 13.8928 37.31 18.5471 34.778 21.8892L30.2716 27.7066L38.832 38.6603L31.2676 44.3909L24.2093 35.3917L17.1514 44.3906L9.58698 38.6599L18.1522 27.7001L13.6468 21.9878L13.6409 21.98C11.109 18.6379 11.1085 13.9837 13.6394 10.641L13.6409 10.639L14.4522 9.55709L16.7886 6.52845C16.8241 6.4809 16.8603 6.43373 16.8974 6.38697C18.0073 4.84975 19.8516 4 21.6761 4H26.9237ZM28.599 6.4111C29.1501 6.726 29.6182 7.07086 29.9466 7.49896L29.932 7.51045L30.032 7.64017C31.076 9.05028 31.0686 11.0297 30.0098 12.4317C29.0758 11.862 27.965 11.5093 26.8333 11.5093H21.5857C20.4633 11.5093 19.3185 11.8099 18.3446 12.4333C17.8617 11.7462 17.6094 10.8772 17.6094 10.0667C17.6094 9.25167 17.8657 8.43472 18.3831 7.73584L18.4982 7.5867L18.5089 7.57171C19.2104 6.58966 20.4332 6 21.6761 6H26.9237C27.5847 6 28.1338 6.14525 28.599 6.4111ZM19.574 14.0266L24.1743 19.9687L28.7743 14.0271C28.1756 13.7019 27.4959 13.5093 26.8333 13.5093H21.5857C20.8665 13.5093 20.1664 13.6876 19.574 14.0266ZM28.9963 26.0871L25.4437 21.5961L31.5098 13.7607C32.1353 12.9766 32.535 12.0671 32.709 11.1228L33.1838 11.7559C35.1741 14.3831 35.1752 18.049 33.1869 20.6773L28.9963 26.0871ZM19.4269 29.3171L12.413 38.2918L16.7914 41.6087L22.9374 33.7727L19.4269 29.3171ZM16.909 13.8515C16.2872 13.0717 15.8931 12.14 15.717 11.2043L15.238 11.8429L15.2351 11.8467C13.2457 14.4728 13.2437 18.1367 15.2294 20.7648L24.9963 33.1543L31.6275 41.6091L36.0059 38.2921L28.2204 28.3299L28.2168 28.3253L23.4251 22.2681L16.909 13.8515Z" fill="#333333"/>
</svg>
