<svg width="48" height="48" viewBox="0 0 48 48" fill="none" xmlns="http://www.w3.org/2000/svg">
<path d="M17.6952 6.99048L15.2523 10.1571L14.438 11.2429C12.1761 14.2286 12.1761 18.3905 14.438 21.3762L19.5047 27.8L24.2095 33.7714L31.4475 43L37.419 38.4762L29.0047 27.7095L24.2095 21.6476L17.6952 13.2333C16.9714 12.3286 16.6095 11.1524 16.6095 10.0667C16.6095 8.98095 16.9714 7.89524 17.6952 6.99048ZM17.6952 6.99048C18.5999 5.72381 20.138 5 21.6761 5H26.9237C27.738 5 28.4618 5.18095 29.0952 5.54286C29.7285 5.90476 30.3618 6.35714 30.8142 6.99048" stroke="#333333" stroke-width="2" stroke-miterlimit="10"/>
<path d="M19.4143 27.7092L11 38.4759L16.9714 42.9997L24.2095 33.7711" stroke="#333333" stroke-width="2" stroke-miterlimit="10"/>
<path d="M29.0047 27.7092L33.9809 21.2854C36.2428 18.2997 36.2428 14.1378 33.9809 11.152L33.1666 10.0663L30.7238 6.89966C32.1714 8.70918 32.1714 11.333 30.7238 13.1425L24.2095 21.5568" stroke="#333333" stroke-width="2" stroke-miterlimit="10"/>
<path d="M18.1476 13.8664C19.0524 12.9617 20.319 12.5093 21.5857 12.5093H26.8333C28.1 12.5093 29.3667 13.0521 30.2714 13.8664" stroke="#333333" stroke-width="2" stroke-miterlimit="10"/>
</svg>
