<svg width="48" height="48" viewBox="0 0 48 48" fill="none" xmlns="http://www.w3.org/2000/svg">
<path d="M15 25C15 26.6577 13.6577 28 12 28C10.3423 28 9 26.6577 9 25C9 23.3423 10.3423 22 12 22C13.6577 22 15 23.3423 15 25Z" stroke="#333333" stroke-width="2"/>
<path d="M10.5722 31.6943L10.8678 32.0043L11.2962 32.0041C11.658 32.004 11.8319 32.004 12.0092 32.004C12.1803 32.004 12.3547 32.0041 12.7044 32.004L13.1323 32.0038L13.4277 31.6942C13.5331 31.5836 13.6856 31.3912 13.822 31.2193C13.8398 31.1967 13.8574 31.1745 13.8746 31.1529C14.0452 30.9382 14.2354 30.7009 14.4266 30.4823C14.5672 30.3215 14.6918 30.1902 14.7951 30.0935C15.6276 30.4225 16.4071 30.8711 16.9881 31.4169C17.6409 32.0302 18 32.7191 18 33.4963V34.6876C18 34.8601 17.8601 35.0001 17.6875 35.0001H6.3125C6.13991 35.0001 6 34.8601 6 34.6876V33.4963C6 32.7191 6.35908 32.0302 7.01189 31.4169C7.59292 30.8711 8.37236 30.4225 9.2049 30.0935C9.30816 30.1902 9.43273 30.3215 9.57331 30.4823C9.76455 30.7009 9.95468 30.9382 10.1253 31.1529C10.1425 31.1746 10.1601 31.1968 10.178 31.2194C10.3143 31.3913 10.4667 31.5837 10.5722 31.6943Z" stroke="#333333" stroke-width="2"/>
<path d="M39 25C39 26.6577 37.6577 28 36 28C34.3423 28 33 26.6577 33 25C33 23.3423 34.3423 22 36 22C37.6577 22 39 23.3423 39 25Z" stroke="#333333" stroke-width="2"/>
<path d="M31.0119 31.4169C31.566 30.8963 32.3007 30.4641 33.0897 30.1398L34.5722 31.6942L34.8678 32.0042L35.2962 32.0041C35.658 32.0039 35.8319 32.004 36.0092 32.004C36.1803 32.004 36.3547 32.004 36.7044 32.0039L37.1323 32.0038L37.4277 31.6941L38.9103 30.1398C39.6993 30.4641 40.4339 30.8963 40.9881 31.4169C41.6409 32.0302 42 32.719 42 33.4962V34.6875C42 34.8601 41.8601 35 41.6875 35H30.3125C30.1399 35 30 34.8601 30 34.6875V33.4962C30 32.719 30.3591 32.0302 31.0119 31.4169Z" stroke="#333333" stroke-width="2"/>
<path d="M9.00006 14H39.0001" stroke="#333333" stroke-width="2"/>
<path d="M11.0001 11L8.87874 13.1213C8.48822 13.5118 8.48822 14.145 8.87874 14.5355L11.0001 16.6569" stroke="#333333" stroke-width="2" stroke-linecap="round"/>
<path d="M37.0001 17L39.1214 14.8787C39.5119 14.4882 39.5119 13.855 39.1214 13.4645L37.0001 11.3431" stroke="#333333" stroke-width="2" stroke-linecap="round"/>
</svg>
