<svg width="48" height="48" viewBox="0 0 48 48" fill="none" xmlns="http://www.w3.org/2000/svg">
<path d="M11.7072 10.2929C12.0977 10.6834 12.0977 11.3166 11.7072 11.7071L10.4143 13H37.2427L36.293 12.0503C35.9024 11.6597 35.9024 11.0266 36.293 10.636C36.6835 10.2455 37.3166 10.2455 37.7072 10.636L39.8285 12.7574C40.6095 13.5384 40.6095 14.8047 39.8285 15.5858L37.7072 17.7071C37.3166 18.0976 36.6835 18.0976 36.293 17.7071C35.9024 17.3166 35.9024 16.6834 36.293 16.2929L37.5858 15H10.7574L11.7072 15.9497C12.0977 16.3403 12.0977 16.9734 11.7072 17.364C11.3166 17.7545 10.6835 17.7545 10.293 17.364L8.17163 15.2426C7.39059 14.4616 7.39059 13.1953 8.17163 12.4142L10.293 10.2929C10.6835 9.90237 11.3166 9.90237 11.7072 10.2929Z" fill="#333333"/>
<path fill-rule="evenodd" clip-rule="evenodd" d="M16 25C16 27.21 14.21 29 12 29C9.79 29 8 27.21 8 25C8 22.79 9.79 21 12 21C14.21 21 16 22.79 16 25ZM12 27C13.1054 27 14 26.1054 14 25C14 23.8946 13.1054 23 12 23C10.8946 23 10 23.8946 10 25C10 26.1054 10.8946 27 12 27Z" fill="#333333"/>
<path fill-rule="evenodd" clip-rule="evenodd" d="M11.2958 31.0041C11.2246 30.9294 11.1045 30.778 10.9556 30.5905C10.4471 29.9499 9.60348 28.8871 9.23058 29.0172C7.12896 29.7507 5 31.2463 5 33.4962V34.6875C5 35.4124 5.58763 36 6.3125 36H17.6875C18.4124 36 19 35.4124 19 34.6875V33.4962C19 31.2463 16.871 29.7507 14.7694 29.0172C14.3966 28.8871 13.5529 29.9498 13.0443 30.5904C12.8954 30.7779 12.7753 30.9292 12.7041 31.0039L11.2958 31.0041ZM15.0443 31.2982C14.9144 31.4529 14.7842 31.6156 14.6576 31.7749L14.6135 31.8304L14.6128 31.8313L14.6121 31.8321L14.6112 31.8333C14.5449 31.9168 14.4769 32.0025 14.4173 32.076C14.3535 32.1548 14.2531 32.2776 14.1513 32.3843L13.5605 33.0036L10.4398 33.0043L9.84855 32.3844C9.74673 32.2776 9.64636 32.1548 9.58252 32.076C9.5224 32.0018 9.45364 31.9152 9.3868 31.831L9.34229 31.7749C9.21573 31.6156 9.08551 31.4529 8.95559 31.2983C8.4627 31.5449 8.02969 31.8327 7.69659 32.1457C7.18592 32.6254 7 33.0668 7 33.4962V34H17V33.4962C17 33.0668 16.8141 32.6254 16.3034 32.1457C15.9703 31.8327 15.5373 31.5449 15.0443 31.2982ZM8.46798 30.776C8.46371 30.7729 8.4613 30.771 8.46081 30.7706C8.46025 30.77 8.46213 30.7713 8.46649 30.7748L8.46798 30.776ZM15.5334 30.7749C15.5417 30.7683 15.541 30.7695 15.5319 30.7761L15.5334 30.7749Z" fill="#333333"/>
<path fill-rule="evenodd" clip-rule="evenodd" d="M36 29C38.21 29 40 27.21 40 25C40 22.79 38.21 21 36 21C33.79 21 32 22.79 32 25C32 27.21 33.79 29 36 29ZM38 25C38 26.1054 37.1054 27 36 27C34.8946 27 34 26.1054 34 25C34 23.8946 34.8946 23 36 23C37.1054 23 38 23.8946 38 25Z" fill="#333333"/>
<path fill-rule="evenodd" clip-rule="evenodd" d="M33.7154 29.347C33.6266 29.0886 33.4261 28.949 33.2306 29.0172C31.129 29.7507 29 31.2463 29 33.4962V34.6875C29 35.4124 29.5876 36 30.3125 36H41.6875C42.4124 36 43 35.4124 43 34.6875V33.4962C43 31.2463 40.871 29.7507 38.7694 29.0172C38.5739 28.949 38.3734 29.0886 38.2846 29.347L36.7041 31.0039L35.2958 31.0041L33.7154 29.347ZM32.8594 31.3473C32.4064 31.5828 32.0079 31.8533 31.6966 32.1457C31.1859 32.6255 31 33.0668 31 33.4962V34H41V33.4962C41 33.0668 40.8141 32.6255 40.3034 32.1457C39.9921 31.8533 39.5936 31.5827 39.1405 31.3473L37.5605 33.0036L34.4398 33.0043L32.8594 31.3473Z" fill="#333333"/>
</svg>
