<svg width="48" height="48" viewBox="0 0 48 48" fill="none" xmlns="http://www.w3.org/2000/svg">
<path d="M29.4506 27.6404V23.4157V21.2584V16.6742C29.4506 15.6854 28.6377 14.8764 27.6443 14.8764C26.6508 14.8764 25.8379 15.6854 25.8379 16.6742V24.8539V23.4157V13.7978C25.8379 12.809 25.0251 12 24.0316 12C23.0381 12 22.2253 12.809 22.2253 13.7978V15.236V24.764V23.3258V15.1461C22.2253 14.1573 21.4124 13.3483 20.419 13.3483C19.4255 13.3483 18.6126 14.1573 18.6126 15.1461V19.3708V24.6742V23.236V17.9326C18.6126 16.9438 17.7998 16.1348 16.8063 16.1348C15.8128 16.1348 15 16.9438 15 17.9326V23.3258V26.1124V30.3371C15 33.4831 17.5289 36 20.6899 36H26.0186C28.0958 36 29.9022 34.9213 30.986 33.1236L34.6889 26.7416C35.3211 25.7528 34.9599 24.4045 33.8761 23.8652C32.8826 23.236 31.5278 23.5955 30.986 24.6742L29.4506 27.6404Z" stroke="#333333" stroke-width="2" stroke-linecap="round"/>
<path d="M24 44C12.9543 44 4 35.0457 4 24C4 12.9543 12.9543 4 24 4C35.0457 4 44 12.9543 44 24C44 35.0457 35.0457 44 24 44Z" stroke="#333333" stroke-width="2" stroke-linecap="round"/>
</svg>
