<svg width="48" height="48" viewBox="0 0 48 48" fill="none" xmlns="http://www.w3.org/2000/svg">
<path fill-rule="evenodd" clip-rule="evenodd" d="M24.0317 11C22.9298 11 21.9692 11.6399 21.511 12.5695C21.1748 12.4271 20.8056 12.3483 20.419 12.3483C18.8777 12.3483 17.6127 13.6005 17.6127 15.1461V15.2529C17.357 15.1761 17.0862 15.1348 16.8064 15.1348C15.2651 15.1348 14.0001 16.3871 14.0001 17.9326V30.3371C14.0001 34.0399 16.9811 37 20.69 37H26.0186C28.4681 37 30.5891 35.7188 31.8424 33.6399L31.8467 33.6327L35.5442 27.2602C36.4712 25.7851 35.9391 23.8078 34.3673 22.9931C33.0699 22.202 31.3892 22.5164 30.4506 23.6706V16.6742C30.4506 15.1286 29.1856 13.8764 27.6443 13.8764C27.3645 13.8764 27.0937 13.9177 26.838 13.9945V13.7978C26.838 12.2522 25.5729 11 24.0317 11ZM24.838 13.7978C24.838 13.3658 24.4773 13 24.0317 13C23.586 13 23.2253 13.3658 23.2253 13.7978V24.764H21.2253V15.1461C21.2253 14.7141 20.8647 14.3483 20.419 14.3483C19.9733 14.3483 19.6127 14.7141 19.6127 15.1461V24.6742H17.6127V17.9326C17.6127 17.5006 17.2521 17.1348 16.8064 17.1348C16.3607 17.1348 16.0001 17.5006 16.0001 17.9326V30.3371C16.0001 32.9264 18.0767 35 20.69 35H26.0186C27.7211 35 29.2108 34.1266 30.1254 32.6142L33.8348 26.2211L33.8465 26.2029C34.1573 25.7167 33.9838 25.0357 33.4306 24.7604L33.3845 24.7375L33.3411 24.71C32.8443 24.3954 32.1545 24.5759 31.8796 25.1231L30.3387 28.1001L28.4506 27.6404V16.6742C28.4506 16.2422 28.09 15.8764 27.6443 15.8764C27.1986 15.8764 26.838 16.2422 26.838 16.6742V24.8539H24.838V13.7978Z" fill="#333333"/>
<path fill-rule="evenodd" clip-rule="evenodd" d="M24 3C35.598 3 45 12.402 45 24C45 35.598 35.598 45 24 45C12.402 45 3 35.598 3 24C3 12.402 12.402 3 24 3ZM43 24C43 13.5066 34.4934 5 24 5C13.5066 5 5 13.5066 5 24C5 34.4934 13.5066 43 24 43C34.4934 43 43 34.4934 43 24Z" fill="#333333"/>
</svg>
