<svg width="48" height="48" viewBox="0 0 48 48" fill="none" xmlns="http://www.w3.org/2000/svg">
<path d="M6 41.9997C6 37.2721 6.93117 32.5908 8.74034 28.2231C10.5495 23.8554 13.2013 19.8868 16.5442 16.5439C17.781 15.3071 19.1034 14.1649 20.5 13.125" stroke="#333333" stroke-width="2" stroke-linecap="round"/>
<path d="M21.8985 22.5078C17.5297 27.0133 14.8011 32.8558 14.1508 39.0978" stroke="#333333" stroke-linecap="round" stroke-dasharray="4 4"/>
<path d="M24 42C24 39.6362 24.4656 37.2956 25.3702 35.1117C26.2748 32.9278 27.6006 30.9435 29.2721 29.2721C30.1221 28.422 31.0531 27.6613 32.0501 27" stroke="#333333" stroke-width="2" stroke-linecap="round"/>
<circle cx="40.5" cy="7.5" r="1.5" fill="#333333"/>
<circle cx="40.5" cy="12.5" r="1.5" fill="#333333"/>
<circle cx="40.5" cy="17.5" r="1.5" fill="#333333"/>
<circle cx="40.5" cy="21.3496" r="1" fill="#333333"/>
<circle cx="35.2016" cy="8.13231" r="1.5" transform="rotate(-8.05919 35.2016 8.13231)" fill="#333333"/>
<circle cx="35.9028" cy="13.0835" r="1.5" transform="rotate(-8.05919 35.9028 13.0835)" fill="#333333"/>
<circle cx="36.6037" cy="18.0337" r="1.5" transform="rotate(-8.05919 36.6037 18.0337)" fill="#333333"/>
<circle cx="37.3049" cy="22.9839" r="1.5" transform="rotate(-8.05919 37.3049 22.9839)" fill="#333333"/>
<circle cx="28.6767" cy="10.2455" r="1.5" transform="rotate(-24.1995 28.6767 10.2455)" fill="#333333"/>
<circle cx="30.7265" cy="14.806" r="1.5" transform="rotate(-24.1995 30.7265 14.806)" fill="#333333"/>
<circle cx="32.776" cy="19.3666" r="1.5" transform="rotate(-24.1995 32.776 19.3666)" fill="#333333"/>
<circle cx="34.1646" cy="22.676" r="1" transform="rotate(-24.1995 34.1646 22.676)" fill="#333333"/>
<circle cx="21.8851" cy="12.885" r="1.5" transform="rotate(-40.5309 21.8851 12.885)" fill="#333333"/>
<circle cx="25.5084" cy="17.6565" r="1.5" transform="rotate(-40.5309 25.5084 17.6565)" fill="#333333"/>
<circle cx="28.7577" cy="21.4563" r="1.5" transform="rotate(-40.5309 28.7577 21.4563)" fill="#333333"/>
<circle cx="32.007" cy="26.2571" r="1.5" transform="rotate(-40.5309 32.007 26.2571)" fill="#333333"/>
<circle cx="26.6935" cy="13.6913" r="0.868073" fill="#333333"/>
<circle cx="29.2865" cy="18.0341" r="0.868073" fill="#333333"/>
<circle cx="33.7106" cy="15.9208" r="0.868073" fill="#333333"/>
<circle cx="38.4662" cy="15.1317" r="0.868073" fill="#333333"/>
<circle cx="32.7096" cy="11.3603" r="0.868073" fill="#333333"/>
<circle cx="38.132" cy="10.1317" r="0.868073" fill="#333333"/>
</svg>
