<svg width="48" height="48" viewBox="0 0 48 48" fill="none" xmlns="http://www.w3.org/2000/svg">
<path d="M42 7.5C42 8.32843 41.3284 9 40.5 9C39.6716 9 39 8.32843 39 7.5C39 6.67157 39.6716 6 40.5 6C41.3284 6 42 6.67157 42 7.5Z" fill="#333333"/>
<path d="M17.2513 17.2513C18.4062 16.0963 19.6379 15.0263 20.9366 14.0477C21.4879 14.4987 22.2995 14.5046 22.8599 14.0255C23.4896 13.4871 23.5636 12.5403 23.0252 11.9106C22.4869 11.281 21.54 11.2069 20.9103 11.7453C20.7789 11.8577 20.6717 11.9879 20.5892 12.1293C20.3528 12.108 20.1081 12.1703 19.9028 12.3232C18.4674 13.392 17.1082 14.5659 15.8371 15.837C12.4013 19.2728 9.67589 23.3517 7.81646 27.8407C5.95704 32.3298 5 37.1411 5 42C5 42.5523 5.44772 43 6 43C6.55228 43 7 42.5523 7 42C7 37.4037 7.9053 32.8525 9.66422 28.6061C11.4231 24.3597 14.0012 20.5013 17.2513 17.2513Z" fill="#333333"/>
<path d="M22.5945 21.79C22.991 22.1744 23.0008 22.8075 22.6163 23.204C22.0929 23.7438 21.5939 24.3035 21.1201 24.8814C20.7699 25.3085 20.1399 25.3708 19.7128 25.0207C19.2857 24.6705 19.2233 24.0404 19.5735 23.6134C20.0823 22.9927 20.6183 22.3915 21.1805 21.8117C21.565 21.4152 22.1981 21.4055 22.5945 21.79Z" fill="#333333"/>
<path d="M18.2005 27.2148C18.6798 27.4893 18.8457 28.1004 18.5712 28.5796C17.8258 29.881 17.1901 31.2423 16.6707 32.6492C16.4794 33.1673 15.9044 33.4323 15.3863 33.241C14.8682 33.0497 14.6032 32.4747 14.7945 31.9566C15.3523 30.4454 16.0352 28.9833 16.8358 27.5855C17.1103 27.1063 17.7213 26.9403 18.2005 27.2148Z" fill="#333333"/>
<path d="M14.6745 35.809C15.2172 35.9117 15.5738 36.4349 15.4711 36.9775C15.3321 37.7118 15.2233 38.4537 15.1453 39.2015C15.0881 39.7509 14.5964 40.1498 14.0471 40.0925C13.4978 40.0353 13.0989 39.5436 13.1561 38.9943C13.2398 38.191 13.3567 37.3942 13.506 36.6056C13.6087 36.0629 14.1319 35.7063 14.6745 35.809Z" fill="#333333"/>
<path d="M32.9599 27.4155C32.8849 27.58 32.7646 27.7261 32.6029 27.8333C31.6613 28.4579 30.782 29.1764 29.9792 29.9792C28.4006 31.5578 27.1484 33.4319 26.2941 35.4944C25.4397 37.5569 25 39.7675 25 42C25 42.5523 24.5523 43 24 43C23.4477 43 23 42.5523 23 42C23 39.5049 23.4915 37.0342 24.4463 34.729C25.4011 32.4238 26.8007 30.3293 28.565 28.565C29.204 27.9259 29.8864 27.3348 30.6064 26.7952C30.3849 26.2189 30.5361 25.5412 31.0322 25.117C31.6618 24.5786 32.6087 24.6527 33.147 25.2823C33.6854 25.912 33.6114 26.8588 32.9817 27.3972L32.9599 27.4155Z" fill="#333333"/>
<path d="M40.5 14C41.3284 14 42 13.3284 42 12.5C42 11.6716 41.3284 11 40.5 11C39.6716 11 39 11.6716 39 12.5C39 13.3284 39.6716 14 40.5 14Z" fill="#333333"/>
<path d="M42 17.5C42 18.3284 41.3284 19 40.5 19C39.6716 19 39 18.3284 39 17.5C39 16.6716 39.6716 16 40.5 16C41.3284 16 42 16.6716 42 17.5Z" fill="#333333"/>
<path d="M40.5 22.3496C41.0523 22.3496 41.5 21.9019 41.5 21.3496C41.5 20.7973 41.0523 20.3496 40.5 20.3496C39.9477 20.3496 39.5 20.7973 39.5 21.3496C39.5 21.9019 39.9477 22.3496 40.5 22.3496Z" fill="#333333"/>
<path d="M36.6868 7.92226C36.8029 8.74251 36.2321 9.5016 35.4119 9.61774C34.5916 9.73389 33.8325 9.1631 33.7164 8.34285C33.6003 7.52261 34.171 6.76351 34.9913 6.64737C35.8115 6.53123 36.5706 7.10202 36.6868 7.92226Z" fill="#333333"/>
<path d="M36.113 14.5683C36.9333 14.4522 37.5041 13.6931 37.3879 12.8728C37.2718 12.0526 36.5127 11.4818 35.6925 11.5979C34.8722 11.7141 34.3014 12.4732 34.4176 13.2934C34.5337 14.1137 35.2928 14.6844 36.113 14.5683Z" fill="#333333"/>
<path d="M38.0889 17.8235C38.205 18.6438 37.6342 19.4028 36.814 19.519C35.9937 19.6351 35.2346 19.0643 35.1185 18.2441C35.0024 17.4239 35.5731 16.6648 36.3934 16.5486C37.2136 16.4325 37.9727 17.0033 38.0889 17.8235Z" fill="#333333"/>
<path d="M37.5151 24.4695C38.3354 24.3534 38.9062 23.5943 38.79 22.7741C38.6739 21.9538 37.9148 21.383 37.0946 21.4992C36.2743 21.6153 35.7035 22.3744 35.8197 23.1947C35.9358 24.0149 36.6949 24.5857 37.5151 24.4695Z" fill="#333333"/>
<path d="M30.0448 9.63063C30.3844 10.3863 30.0472 11.2741 29.2915 11.6137C28.5359 11.9533 27.6481 11.616 27.3085 10.8604C26.9689 10.1047 27.3062 9.2169 28.0618 8.87731C28.8174 8.53773 29.7053 8.875 30.0448 9.63063Z" fill="#333333"/>
<path d="M31.3413 16.1742C32.097 15.8346 32.4342 14.9468 32.0947 14.1912C31.7551 13.4355 30.8672 13.0983 30.1116 13.4379C29.356 13.7774 29.0187 14.6653 29.3583 15.4209C29.6979 16.1765 30.5857 16.5138 31.3413 16.1742Z" fill="#333333"/>
<path d="M34.1442 18.7517C34.4838 19.5073 34.1465 20.3952 33.3909 20.7348C32.6353 21.0744 31.7474 20.7371 31.4078 19.9815C31.0683 19.2258 31.4055 18.338 32.1612 17.9984C32.9168 17.6588 33.8046 17.9961 34.1442 18.7517Z" fill="#333333"/>
<path d="M34.5745 23.5883C35.0782 23.3619 35.3031 22.77 35.0767 22.2662C34.8503 21.7625 34.2584 21.5376 33.7547 21.764C33.2509 21.9904 33.0261 22.5823 33.2524 23.0861C33.4788 23.5898 34.0707 23.8147 34.5745 23.5883Z" fill="#333333"/>
<path d="M26.4832 18.7966C27.1129 18.2582 27.1869 17.3114 26.6485 16.6817C26.1101 16.0521 25.1633 15.9781 24.5336 16.5164C23.904 17.0548 23.83 18.0016 24.3683 18.6313C24.9067 19.2609 25.8536 19.335 26.4832 18.7966Z" fill="#333333"/>
<path d="M29.8978 20.482C30.4361 21.1117 30.3621 22.0585 29.7325 22.5969C29.1028 23.1352 28.156 23.0612 27.6176 22.4316C27.0792 21.8019 27.1533 20.8551 27.7829 20.3167C28.4126 19.7784 29.3594 19.8524 29.8978 20.482Z" fill="#333333"/>
<path d="M27.5616 13.6911C27.5616 14.1705 27.1729 14.5591 26.6935 14.5591C26.2141 14.5591 25.8254 14.1705 25.8254 13.6911C25.8254 13.2116 26.2141 12.823 26.6935 12.823C27.1729 12.823 27.5616 13.2116 27.5616 13.6911Z" fill="#333333"/>
<path d="M29.2865 18.9019C29.766 18.9019 30.1546 18.5133 30.1546 18.0338C30.1546 17.5544 29.766 17.1658 29.2865 17.1658C28.8071 17.1658 28.4185 17.5544 28.4185 18.0338C28.4185 18.5133 28.8071 18.9019 29.2865 18.9019Z" fill="#333333"/>
<path d="M34.5787 15.9211C34.5787 16.4005 34.19 16.7891 33.7106 16.7891C33.2312 16.7891 32.8425 16.4005 32.8425 15.9211C32.8425 15.4416 33.2312 15.053 33.7106 15.053C34.19 15.053 34.5787 15.4416 34.5787 15.9211Z" fill="#333333"/>
<path d="M38.4662 16.0002C38.9456 16.0002 39.3343 15.6115 39.3343 15.1321C39.3343 14.6527 38.9456 14.264 38.4662 14.264C37.9868 14.264 37.5981 14.6527 37.5981 15.1321C37.5981 15.6115 37.9868 16.0002 38.4662 16.0002Z" fill="#333333"/>
<path d="M33.5777 11.3605C33.5777 11.8399 33.189 12.2286 32.7096 12.2286C32.2302 12.2286 31.8416 11.8399 31.8416 11.3605C31.8416 10.8811 32.2302 10.4924 32.7096 10.4924C33.189 10.4924 33.5777 10.8811 33.5777 11.3605Z" fill="#333333"/>
<path d="M38.132 10.9999C38.6114 10.9999 39.0001 10.6113 39.0001 10.1319C39.0001 9.65244 38.6114 9.26379 38.132 9.26379C37.6526 9.26379 37.2639 9.65244 37.2639 10.1319C37.2639 10.6113 37.6526 10.9999 38.132 10.9999Z" fill="#333333"/>
</svg>
