<svg width="48" height="48" viewBox="0 0 48 48" fill="none" xmlns="http://www.w3.org/2000/svg">
<path d="M18 21.5C18 20.9477 17.5523 20.5 17 20.5C16.4477 20.5 16 20.9477 16 21.5V26.5C16 27.0523 16.4477 27.5 17 27.5C17.5523 27.5 18 27.0523 18 26.5V25H20V26.5C20 27.0523 20.4477 27.5 21 27.5C21.5523 27.5 22 27.0523 22 26.5V21.5C22 20.9477 21.5523 20.5 21 20.5C20.4477 20.5 20 20.9477 20 21.5V23H18V21.5Z" fill="#333333"/>
<path d="M24.5 20.5C25.0523 20.5 25.5 20.9477 25.5 21.5V26.5C25.5 27.0523 25.0523 27.5 24.5 27.5C23.9477 27.5 23.5 27.0523 23.5 26.5V21.5C23.5 20.9477 23.9477 20.5 24.5 20.5Z" fill="#333333"/>
<path d="M28.4285 21.1286C28.2234 20.6158 27.6414 20.3664 27.1286 20.5715C26.6158 20.7767 26.3664 21.3586 26.5715 21.8714L28.5715 26.8714C28.7234 27.2511 29.0911 27.5 29.5 27.5C29.9089 27.5 30.2766 27.2511 30.4285 26.8714L32.4285 21.8714C32.6336 21.3586 32.3842 20.7767 31.8714 20.5715C31.3586 20.3664 30.7767 20.6158 30.5715 21.1286L29.5 23.8074L28.4285 21.1286Z" fill="#333333"/>
<path fill-rule="evenodd" clip-rule="evenodd" d="M22 4C21.4477 4 21 4.44772 21 5C21 5.55228 21.4477 6 22 6H23V9.0328C19.6102 9.25592 16.5281 10.6051 14.124 12.7097L11.9792 10.565L12.6863 9.85787C13.0768 9.46734 13.0768 8.83418 12.6863 8.44365C12.2958 8.05313 11.6626 8.05313 11.2721 8.44365L8.44368 11.2721C8.05315 11.6626 8.05315 12.2958 8.44368 12.6863C8.8342 13.0768 9.46737 13.0768 9.85789 12.6863L10.565 11.9792L12.7098 14.1239C10.605 16.5281 9.25584 19.6104 9.03278 23.0003H6V22.0003C6 21.448 5.55228 21.0003 5 21.0003C4.44772 21.0003 4 21.448 4 22.0003V26.0003C4 26.5526 4.44772 27.0003 5 27.0003C5.55228 27.0003 6 26.5526 6 26.0003V25.0003H9.03282C9.256 28.3899 10.6051 31.472 12.7097 33.876L10.5649 36.0208L9.85781 35.3137C9.46728 34.9232 8.83412 34.9232 8.44359 35.3137C8.05307 35.7042 8.05307 36.3374 8.44359 36.7279L11.272 39.5563C11.6625 39.9468 12.2957 39.9468 12.6862 39.5563C13.0768 39.1658 13.0768 38.5326 12.6862 38.1421L11.9791 37.435L14.1239 35.2902C16.528 37.3949 19.6102 38.7441 23 38.9672V42H22C21.4477 42 21 42.4477 21 43C21 43.5523 21.4477 44 22 44H26C26.5523 44 27 43.5523 27 43C27 42.4477 26.5523 42 26 42H25V38.9672C28.3898 38.7441 31.472 37.3949 33.8761 35.2902L36.0208 37.435L35.3137 38.1421C34.9232 38.5326 34.9232 39.1658 35.3137 39.5563C35.7042 39.9469 36.3374 39.9469 36.7279 39.5563L39.5564 36.7279C39.9469 36.3374 39.9469 35.7042 39.5564 35.3137C39.1658 34.9232 38.5327 34.9232 38.1421 35.3137L37.435 36.0208L35.2903 33.876C37.3949 31.472 38.744 28.3899 38.9672 25.0003H42V26.0003C42 26.5526 42.4477 27.0003 43 27.0003C43.5523 27.0003 44 26.5526 44 26.0003V22.0003C44 21.448 43.5523 21.0003 43 21.0003C42.4477 21.0003 42 21.448 42 22.0003V23.0003H38.9672C38.7442 19.6104 37.395 16.5281 35.2902 14.1239L37.4349 11.9792L38.1421 12.6863C38.5326 13.0768 39.1657 13.0768 39.5563 12.6863C39.9468 12.2958 39.9468 11.6626 39.5563 11.2721L36.7278 8.44365C36.3373 8.05312 35.7042 8.05312 35.3136 8.44365C34.9231 8.83417 34.9231 9.46733 35.3136 9.85786L36.0207 10.565L33.876 12.7097C31.4719 10.6051 28.3897 9.25592 25 9.0328V6H26C26.5523 6 27 5.55228 27 5C27 4.44772 26.5523 4 26 4H22ZM36 23.0003H36.9621C36.7463 20.162 35.619 17.5785 33.8724 15.5417L33.1923 16.2218C32.8018 16.6123 32.1686 16.6123 31.7781 16.2218C31.3876 15.8313 31.3876 15.1981 31.7781 14.8076L32.4582 14.1275C30.4215 12.381 27.8381 11.2538 25 11.0379V12C25 12.5523 24.5523 13 24 13C23.4477 13 23 12.5523 23 12V11.0379C20.1619 11.2538 17.5785 12.381 15.5418 14.1276L16.2219 14.8076C16.6124 15.1981 16.6124 15.8313 16.2219 16.2218C15.8313 16.6124 15.1982 16.6124 14.8076 16.2218L14.1276 15.5418C12.3809 17.5785 11.2537 20.1621 11.0379 23.0003H12C12.5523 23.0003 13 23.448 13 24.0003C13 24.5526 12.5523 25.0003 12 25.0003H11.0379C11.2539 27.8383 12.3811 30.4216 14.1275 32.4582L14.8076 31.7781C15.1981 31.3876 15.8312 31.3876 16.2218 31.7781C16.6123 32.1687 16.6123 32.8018 16.2218 33.1924L15.5417 33.8724C17.5784 35.619 20.1619 36.7462 23 36.9621V36C23 35.4477 23.4477 35 24 35C24.5523 35 25 35.4477 25 36V36.9621C27.8381 36.7462 30.4215 35.619 32.4582 33.8724L31.7782 33.1924C31.3877 32.8018 31.3877 32.1687 31.7782 31.7782C32.1687 31.3876 32.8019 31.3876 33.1924 31.7782L33.8724 32.4582C35.6189 30.4216 36.7461 27.8383 36.9621 25.0003H36C35.4477 25.0003 35 24.5526 35 24.0003C35 23.448 35.4477 23.0003 36 23.0003Z" fill="#333333"/>
</svg>
