<svg width="48" height="48" viewBox="0 0 48 48" fill="none" xmlns="http://www.w3.org/2000/svg">
<circle cx="24" cy="24" r="14" stroke="#333333" stroke-width="2" stroke-linejoin="round"/>
<path d="M24 5V12M24 5H26M24 5H22" stroke="#333333" stroke-width="2" stroke-linecap="round" stroke-linejoin="round"/>
<path d="M24 36V43M24 43H26M24 43H22" stroke="#333333" stroke-width="2" stroke-linecap="round" stroke-linejoin="round"/>
<path d="M10.5649 37.4349L15.5147 32.4852M10.5649 37.4349L9.1507 36.0207M10.5649 37.4349L11.9791 38.8491" stroke="#333333" stroke-width="2" stroke-linecap="round" stroke-linejoin="round"/>
<path d="M32.4852 15.5145L37.4349 10.5648M37.4349 10.5648L36.0207 9.15054M37.4349 10.5648L38.8492 11.979" stroke="#333333" stroke-width="2" stroke-linecap="round" stroke-linejoin="round"/>
<path d="M10.565 10.565L15.5147 15.5148M10.565 10.565L11.9792 9.15082M10.565 10.565L9.15076 11.9792" stroke="#333333" stroke-width="2" stroke-linecap="round" stroke-linejoin="round"/>
<path d="M32.4853 32.4854L37.435 37.4352M37.435 37.4352L38.8492 36.021M37.435 37.4352L36.0208 38.8494" stroke="#333333" stroke-width="2" stroke-linecap="round" stroke-linejoin="round"/>
<path d="M5 24.0002H12M5 24.0002V22.0002M5 24.0002V26.0002" stroke="#333333" stroke-width="2" stroke-linecap="round" stroke-linejoin="round"/>
<path d="M36 24.0002H43M43 24.0002V22.0002M43 24.0002V26.0002" stroke="#333333" stroke-width="2" stroke-linecap="round" stroke-linejoin="round"/>
<path d="M17 21.5V24M17 26.5V24M17 24H21M21 24V21.5M21 24V26.5" stroke="#333333" stroke-width="2" stroke-linecap="round" stroke-linejoin="round"/>
<path d="M24.5 21.5V24V26.5" stroke="#333333" stroke-width="2" stroke-linecap="round" stroke-linejoin="round"/>
<path d="M27.5 21.5L29.5 26.5L31.5 21.5" stroke="#333333" stroke-width="2" stroke-linecap="round" stroke-linejoin="round"/>
</svg>
