<svg width="48" height="48" viewBox="0 0 48 48" fill="none" xmlns="http://www.w3.org/2000/svg">
<path d="M14.1005 14.1008C19.5678 8.63347 28.4321 8.63347 33.8994 14.1008C36.6217 16.823 37.9883 20.3853 37.9999 23.9544L37.9999 23.956L37.9999 27.5857L34.7071 24.2929L33.2928 25.7071L39 31.4142L44.7071 25.7071L43.2928 24.2929L39.9999 27.5858L39.9999 23.9529L39.9999 23.9497C39.9871 19.8734 38.4248 15.7977 35.3137 12.6866C29.0653 6.43821 18.9346 6.43821 12.6862 12.6866L14.1005 14.1008Z" fill="#333333"/>
<path d="M33.8994 33.8998C28.4321 39.3671 19.5678 39.3671 14.1005 33.8998C11.3674 31.1667 10.0007 27.5868 9.99996 24.0033V20.4142L13.2928 23.7071L14.7071 22.2929L8.99995 16.5858L3.29285 22.2929L4.70706 23.7071L7.99995 20.4142V24.0033C8.00078 28.0955 9.56307 32.1908 12.6862 35.314C18.9346 41.5624 29.0653 41.5624 35.3137 35.314L33.8994 33.8998Z" fill="#333333"/>
<path fill-rule="evenodd" clip-rule="evenodd" d="M18 26.8182C18 23.0371 20.9318 18.7675 22.6966 16.5398C23.4565 15.5806 24 15 24 15C24 15 24.5435 15.5806 25.3034 16.5398C27.0682 18.7675 30 23.0371 30 26.8182C30 30.2323 27.3137 33 24 33C20.6863 33 18 30.2323 18 26.8182ZM28 26.8182C28 29.1844 26.1533 31 24 31C21.8467 31 20 29.1844 20 26.8182C20 24.7373 21.2057 22.2053 22.6705 19.9804C23.1287 19.2844 23.5885 18.6537 24 18.1198C24.4115 18.6537 24.8713 19.2844 25.3295 19.9804C26.7943 22.2053 28 24.7373 28 26.8182Z" fill="#333333"/>
</svg>
