<svg width="48" height="48" viewBox="0 0 48 48" fill="none" xmlns="http://www.w3.org/2000/svg">
<path d="M32.807 17.5905C33.1332 17.1448 33.0362 16.5191 32.5905 16.193C32.1448 15.8668 31.5191 15.9638 31.193 16.4095L21.8916 29.1211L16.7167 23.8026C16.3316 23.4068 15.6985 23.3981 15.3026 23.7833C14.9068 24.1684 14.8981 24.8015 15.2833 25.1974L20.8707 30.9398C21.5181 31.6051 22.6082 31.5287 23.1564 30.7796L32.807 17.5905Z" fill="#333333"/>
<path fill-rule="evenodd" clip-rule="evenodd" d="M44 24C44 35.0457 35.0457 44 24 44C12.9543 44 4 35.0457 4 24C4 12.9543 12.9543 4 24 4C35.0457 4 44 12.9543 44 24ZM42 24C42 33.9411 33.9411 42 24 42C14.0589 42 6 33.9411 6 24C6 14.0589 14.0589 6 24 6C33.9411 6 42 14.0589 42 24Z" fill="#333333"/>
</svg>
