<svg width="48" height="48" viewBox="0 0 48 48" fill="none" xmlns="http://www.w3.org/2000/svg">
<g clip-path="url(#clip0)">
<path fill-rule="evenodd" clip-rule="evenodd" d="M48 0.326172H0V48.3262H48V0.326172ZM11.7469 7.33848C14.4518 5.98363 19.0249 4.32617 24.0433 4.32617C28.9687 4.32617 33.4307 5.9228 36.1239 7.2629C36.1692 7.28541 36.2139 7.30785 36.2581 7.3302C36.9838 7.69696 37.5736 8.04187 38 8.32617L35.09 12.5802L33.4451 13.4336C27.7825 16.2907 20.1889 16.2907 14.5263 13.4336L13.0777 12.8569L10 8.32617C10.2852 8.13873 10.642 7.92495 11.0622 7.69593C11.2746 7.58019 11.5031 7.46056 11.7469 7.33848ZM13.662 8.64566C14.6893 8.96903 15.7776 9.25088 16.8852 9.45524C19.2829 9.89765 21.6987 9.96344 23.7654 9.36556C26.3919 8.60572 29.1492 7.99002 31.733 7.62527C29.5282 6.89942 26.8626 6.32617 24.0433 6.32617C19.9743 6.32617 16.1968 7.52011 13.662 8.64566ZM34.3461 15.2192L34.6185 15.0818C43.9033 25.0023 53.8737 44.0347 24.0433 44.323C-5.80757 44.6115 4.00908 25.3566 13.3664 15.0885L13.6254 15.2192C19.8546 18.3621 28.1168 18.3621 34.3461 15.2192ZM22.2887 22.3262H25.7113V23.9262H29.1339V27.1262H22.2887L22.1347 27.139C21.9374 27.1723 21.7589 27.2695 21.6304 27.4134C21.5019 27.5572 21.4314 27.7387 21.4314 27.9262C21.4314 28.1136 21.5019 28.2951 21.6304 28.439C21.7589 28.5829 21.9374 28.68 22.1347 28.7134L22.2887 28.7262H25.7113L25.9919 28.7342C27.1019 28.7999 28.1409 29.2671 28.8887 30.0368C29.6364 30.8065 30.0342 31.8182 29.9977 32.8575C29.9612 33.8967 29.4933 34.8819 28.6932 35.604C27.8929 36.3263 26.8235 36.7287 25.7113 36.7262V38.3262H22.2887V36.7262H18.8661V33.5262H25.7113L25.8653 33.5134C26.0626 33.48 26.2411 33.3829 26.3696 33.239C26.4981 33.0951 26.5686 32.9136 26.5686 32.7262C26.5686 32.5387 26.4981 32.3572 26.3696 32.2134C26.2411 32.0695 26.0626 31.9723 25.8653 31.939L25.7113 31.9262H22.2887L22.0081 31.9182C20.8981 31.8525 19.8591 31.3853 19.1113 30.6156C18.3636 29.8459 17.9658 28.8342 18.0023 27.7949C18.0388 26.7556 18.5067 25.7705 19.3068 25.0483C20.1071 24.3261 21.1765 23.9236 22.2887 23.9262V22.3262Z" fill="#333333"/>
</g>
<defs>
<clipPath id="clip0">
<rect width="48" height="48" fill="white"/>
</clipPath>
</defs>
</svg>
