<svg width="49" height="48" viewBox="0 0 49 48" fill="none" xmlns="http://www.w3.org/2000/svg">
<path fill-rule="evenodd" clip-rule="evenodd" d="M42.4407 7.45665L41.4531 7.2997L41.1941 6.33384L42.6826 5.93457L42.4407 7.45665ZM29.2204 21.2871C28.3688 21.8114 28.3687 21.8111 28.3685 21.8109L28.3672 21.8088L28.3643 21.804L28.3546 21.7881L28.3205 21.7313C28.2916 21.6826 28.2505 21.6128 28.1997 21.5239C28.098 21.3464 27.9569 21.0926 27.7952 20.7809C27.4732 20.1603 27.0629 19.298 26.7212 18.3457C26.3825 17.4019 26.0931 16.3208 26.0483 15.2746C26.0037 14.2327 26.1988 13.1017 26.9735 12.2159C27.6709 11.4185 28.9852 10.6864 30.3655 10.0515C31.7972 9.39301 33.4809 8.76105 35.0761 8.21382C36.6748 7.66536 38.2028 7.19587 39.3297 6.86378C39.8937 6.6976 40.3583 6.5655 40.6826 6.47479C40.8447 6.42942 40.9718 6.39439 41.0588 6.3706L41.1585 6.34345L41.1941 6.33384C41.1942 6.33379 41.1941 6.33384 41.4531 7.2997C42.4407 7.45665 42.4408 7.4565 42.4407 7.45665L42.4348 7.49397L42.4177 7.5997C42.4026 7.69206 42.3804 7.82727 42.3516 7.99977C42.294 8.34473 42.2099 8.83901 42.1036 9.43806C41.891 10.6354 41.5891 12.2549 41.2323 13.9389C40.8762 15.6193 40.4619 17.3807 40.0232 18.8558C39.8041 19.5926 39.5741 20.2745 39.3363 20.8465C39.108 21.3956 38.8379 21.9305 38.5102 22.3053C37.8078 23.1084 36.7145 23.3592 35.7604 23.4231C34.7638 23.4898 33.6609 23.3685 32.667 23.1938C31.664 23.0174 30.7242 22.7778 30.0387 22.5837C29.6948 22.4864 29.4121 22.3997 29.2141 22.337C29.1151 22.3056 29.0371 22.2802 28.9831 22.2623L28.9203 22.2413L28.903 22.2355L28.8981 22.2338L28.8965 22.2332C28.8963 22.2332 28.8956 22.2329 29.2204 21.2871ZM29.2204 21.2871L28.3685 21.8109L28.5567 22.1165L28.8965 22.2332L29.2204 21.2871ZM29.8917 20.4536C30.0675 20.5086 30.3032 20.58 30.5834 20.6593C31.2283 20.8419 32.0984 21.0631 33.0133 21.224C33.9374 21.3865 34.8607 21.4788 35.6269 21.4275C36.4357 21.3734 36.842 21.1747 37.0047 20.9887C37.1094 20.8689 37.2792 20.5847 37.4895 20.0787C37.6903 19.5956 37.8977 18.9866 38.1062 18.2857C38.5227 16.8852 38.9242 15.1833 39.2757 13.5242C39.6266 11.8687 39.9242 10.2722 40.1343 9.08852C40.1589 8.95035 40.1822 8.81785 40.2043 8.6916C40.105 8.72052 40.0019 8.75074 39.8951 8.78222C38.7861 9.10899 37.2878 9.56951 35.7251 10.1056C34.1588 10.6429 32.546 11.25 31.2012 11.8686C29.8049 12.5107 28.8628 13.0936 28.479 13.5325C28.1724 13.883 28.0136 14.4218 28.0465 15.1891C28.0791 15.9522 28.2984 16.8198 28.6036 17.6702C28.9057 18.512 29.2744 19.2893 29.5705 19.8598C29.6954 20.1005 29.8061 20.3021 29.8917 20.4536ZM10.7631 9.97441L10.504 10.9403L9.5164 11.0972L9.2745 9.57514L10.7631 9.97441ZM20.4445 22.3067C21.2961 22.8309 21.2962 22.8307 21.2963 22.8304L21.2975 22.8285L21.3001 22.8243L21.3083 22.8108L21.3367 22.7634C21.3608 22.723 21.3947 22.6653 21.4366 22.5922C21.5202 22.446 21.6362 22.2374 21.7689 21.9816C22.0331 21.4726 22.3704 20.7639 22.6518 19.9797C22.9301 19.204 23.1719 18.3054 23.2094 17.4288C23.2467 16.5564 23.0848 15.5819 22.4114 14.8119C21.8153 14.1303 20.7124 13.5214 19.5923 13.0062C18.4207 12.4673 17.0458 11.9515 15.7469 11.5058C14.4443 11.059 13.2 10.6767 12.2825 10.4063C11.8233 10.271 11.4449 10.1634 11.1806 10.0895C11.0485 10.0525 10.9449 10.0239 10.8739 10.0045L10.7924 9.98234L10.7631 9.97441C10.7629 9.97437 10.7631 9.97441 10.504 10.9403C9.5164 11.0972 9.51638 11.0971 9.5164 11.0972L9.52131 11.1279L9.53527 11.2141C9.54752 11.2894 9.56559 11.3996 9.58905 11.54C9.63595 11.8209 9.70442 12.2232 9.79095 12.7107C9.96388 13.6849 10.2096 15.0031 10.5001 16.3742C10.79 17.7418 11.1278 19.1786 11.4864 20.3843C11.6654 20.9864 11.8544 21.5473 12.0512 22.0205C12.2383 22.4707 12.4672 22.929 12.7545 23.2574C13.3758 23.9678 14.3285 24.1765 15.1174 24.2293C15.9489 24.285 16.862 24.1837 17.6762 24.0406C18.4995 23.8958 19.2697 23.6993 19.8306 23.5406C20.1122 23.4609 20.3438 23.3899 20.5062 23.3384C20.5875 23.3127 20.6516 23.2917 20.6962 23.277L20.7483 23.2596L20.7628 23.2547L20.7685 23.2527C20.7686 23.2527 20.7693 23.2524 20.4445 22.3067ZM20.4445 22.3067L21.2963 22.8304L21.1082 23.136L20.7685 23.2527L20.4445 22.3067ZM19.7721 21.4725C19.8346 21.3604 19.9102 21.2213 19.9937 21.0604C20.2318 20.6016 20.5275 19.9779 20.7693 19.3041C21.0142 18.6219 21.1858 17.9369 21.2112 17.3433C21.2368 16.7455 21.1112 16.3632 20.9059 16.1285C20.6234 15.8055 19.8927 15.3458 18.7566 14.8232C17.6719 14.3244 16.368 13.8333 15.0979 13.3976C13.8494 12.9693 12.6512 12.6004 11.7557 12.3361C11.7572 12.3444 11.7587 12.3528 11.7602 12.3611C11.9307 13.3218 12.1722 14.6169 12.4567 15.9596C12.742 17.3058 13.067 18.6831 13.4034 19.8142C13.5718 20.3804 13.7382 20.8685 13.8979 21.2527C14.0672 21.6598 14.1957 21.8673 14.2599 21.9408C14.3415 22.0341 14.6074 22.1907 15.251 22.2338C15.8521 22.274 16.5855 22.2017 17.3299 22.0708C18.0651 21.9415 18.7657 21.7634 19.2859 21.6162C19.4759 21.5624 19.6405 21.5131 19.7721 21.4725ZM17.5817 31.0066C17.3282 31.0211 17.2036 31.0572 17.1728 31.0711C16.7194 31.276 15.3432 31.7556 14.1553 32.1612C13.545 32.3695 12.96 32.5665 12.5278 32.7113C12.5185 32.7144 12.5092 32.7176 12.5 32.7206V38.1235C12.6759 38.1165 12.8646 38.1092 13.0583 38.1022C13.8861 38.0721 14.8715 38.0428 15.2983 38.0598C17.0905 38.1314 18.4358 38.5555 19.6821 38.9484L19.7086 38.9568C20.8767 39.325 21.9587 39.6633 23.3761 39.7698C23.7765 39.7999 24.1646 39.8385 24.5277 39.8747L24.5325 39.8752C25.9273 40.0142 26.8451 40.0851 27.5556 39.827C28.1094 39.6259 30.1337 38.6874 32.1761 37.6601C33.1856 37.1523 34.1758 36.6347 34.9634 36.1916C35.3579 35.9697 35.6926 35.7715 35.9498 35.6061C36.0784 35.5234 36.1809 35.4532 36.2585 35.3958C36.2969 35.3673 36.3261 35.3443 36.3473 35.3266C36.3693 35.3082 36.3772 35.3001 36.3757 35.3017C36.4751 35.2006 36.5815 34.8494 36.4102 34.5179C36.3412 34.3844 36.2269 34.2613 36.0335 34.1777C35.8334 34.0913 35.4931 34.0244 34.9527 34.1131C33.7346 34.3129 32.2803 34.899 30.8274 35.4902L30.8063 35.4987C30.0926 35.7891 29.3768 36.0804 28.7421 36.292C28.1323 36.4952 27.4547 36.6767 26.8651 36.6414C26.0546 36.5929 24.6336 36.3815 23.462 36.1922C22.866 36.0959 22.3179 36.0025 21.9189 35.9332C21.7194 35.8986 21.5568 35.8699 21.444 35.8499L21.3137 35.8266L21.2681 35.8184L21.4571 33.8343L26.0287 33.8891C26.0309 33.889 26.0338 33.8887 26.0375 33.8884C26.061 33.8863 26.1155 33.8797 26.1958 33.859C26.3541 33.8183 26.6249 33.72 26.9655 33.4788C27.0712 33.4039 27.2091 33.2659 27.3376 33.0806C27.3909 33.0038 27.4365 32.9277 27.4741 32.8555C26.8582 32.8207 26.2686 32.7179 25.8184 32.6205C25.5378 32.5597 25.3015 32.4989 25.1338 32.4528C25.0498 32.4297 24.9825 32.4102 24.935 32.3961C24.9222 32.3922 24.9108 32.3888 24.9009 32.3858L19.3038 31.1405C19.2922 31.1385 19.2744 31.1354 19.251 31.1315C19.2027 31.1234 19.1309 31.112 19.0417 31.0991C18.8621 31.0732 18.6172 31.0424 18.3525 31.0221C18.0848 31.0016 17.8154 30.9932 17.5817 31.0066ZM19.5007 30.1599L19.6825 29.1766L19.7003 29.1798L25.4177 30.4519L25.4601 30.4653L25.4679 30.4678L25.506 30.4793C25.541 30.4897 25.5946 30.5053 25.6639 30.5243C25.8028 30.5625 26.0029 30.6141 26.2414 30.6657C26.7274 30.7709 27.3346 30.8678 27.897 30.8678C28.4602 30.8678 29.0718 31.0771 29.4017 31.6763C29.6837 32.1883 29.6142 32.7421 29.5151 33.1075C29.432 33.4137 29.2901 33.7294 29.1078 34.0264C29.4121 33.9067 29.7345 33.7757 30.0736 33.6377L30.1362 33.6122C31.5135 33.0518 33.1654 32.3796 34.6289 32.1395C36.3285 31.8607 37.6038 32.4708 38.1871 33.5999C38.7008 34.5942 38.5863 35.906 37.8018 36.7039C37.6053 36.9037 37.3128 37.1074 37.0317 37.2882C36.7283 37.4834 36.3559 37.703 35.944 37.9348C35.1187 38.399 34.0981 38.932 33.0748 39.4468C31.0517 40.4644 28.922 41.4586 28.2384 41.7069C27.0522 42.1378 25.68 42.0002 24.4608 41.878C24.4184 41.8738 24.3762 41.8695 24.3341 41.8654C23.9662 41.8287 23.6003 41.7923 23.2262 41.7641C21.5662 41.6394 20.2937 41.2383 19.1316 40.8719L19.1073 40.8643C17.8565 40.4699 16.7308 40.1186 15.2185 40.0582C14.8865 40.045 13.9927 40.0695 13.131 40.1009C12.7113 40.1161 12.3148 40.1323 12.023 40.1448C11.8772 40.151 11.7578 40.1562 11.6748 40.1599L11.5464 40.1657L10.5 40.2138V31.2781L11.3774 30.987C11.5006 30.946 11.6776 30.8869 11.8925 30.8149C12.3224 30.6709 12.9035 30.4752 13.509 30.2685C14.7527 29.8438 16.0069 29.4033 16.349 29.2487C16.7158 29.0828 17.1326 29.029 17.4673 29.0098C17.822 28.9895 18.1878 29.0036 18.5056 29.028C18.8265 29.0526 19.1174 29.0893 19.3272 29.1196C19.4327 29.1348 19.5191 29.1486 19.5802 29.1588C19.6107 29.1639 19.635 29.1681 19.6523 29.1711L19.673 29.1748L19.6792 29.1759L19.6812 29.1763L19.6825 29.1766C19.6827 29.1766 19.6825 29.1766 19.5007 30.1599Z" fill="#333333"/>
<path fill-rule="evenodd" clip-rule="evenodd" d="M35.6508 13.2408C36.0701 13.6002 36.1187 14.2315 35.7593 14.6509C32.779 18.1279 29.0682 23.2251 27.4299 27.3678C27.2268 27.8814 26.6458 28.1331 26.1323 27.93C25.6187 27.7269 25.367 27.1459 25.5701 26.6323C27.3334 22.1734 31.221 16.8723 34.2407 13.3493C34.6002 12.9299 35.2315 12.8814 35.6508 13.2408Z" fill="#333333"/>
<path fill-rule="evenodd" clip-rule="evenodd" d="M15.8809 16.4484C15.4472 16.7903 15.3728 17.4191 15.7147 17.8528C17.9574 20.6975 20.4044 24.3393 21.5667 27.3593C21.7651 27.8747 22.3438 28.1317 22.8592 27.9333C23.3746 27.7349 23.6316 27.1563 23.4333 26.6409C22.1615 23.3365 19.5648 19.506 17.2853 16.6146C16.9434 16.1809 16.3146 16.1065 15.8809 16.4484Z" fill="#333333"/>
<path d="M6.5 29.0001H12.5V42.0001H6.5V29.0001Z" fill="#333333"/>
</svg>
