<svg width="48" height="48" viewBox="0 0 48 48" fill="none" xmlns="http://www.w3.org/2000/svg">
<path fill-rule="evenodd" clip-rule="evenodd" d="M34.9779 14.9512L34.9753 14.9535L34.9629 14.9642L34.9103 15.0105C34.8631 15.0523 34.7921 15.1156 34.7001 15.1992C34.5162 15.3665 34.2487 15.6147 33.9196 15.9338C33.2609 16.5726 32.3588 17.4924 31.3892 18.6125C29.4351 20.87 27.2706 23.8688 26.2195 26.9751C26.0425 27.4983 25.4749 27.7788 24.9518 27.6018C24.4286 27.4248 24.148 26.8572 24.325 26.3341C25.4992 22.864 27.8611 19.6325 29.877 17.3036C30.8925 16.1305 31.8363 15.1682 32.5273 14.4981C32.8731 14.1628 33.1563 13.8999 33.3545 13.7197C33.4536 13.6295 33.5315 13.56 33.5853 13.5124C33.6123 13.4885 33.6332 13.4702 33.6478 13.4574L33.6649 13.4426L33.6698 13.4383L33.6713 13.437C33.6713 13.437 33.6722 13.4363 34.325 14.1937L33.6722 13.4363C34.0905 13.0757 34.7219 13.1225 35.0825 13.5409C35.443 13.9592 35.396 14.5906 34.9779 14.9512Z" fill="#333333"/>
<path fill-rule="evenodd" clip-rule="evenodd" d="M29.7583 13.83C28.4313 14.4403 27.6418 14.9512 27.3648 15.2678C27.2039 15.4519 27.0635 15.7986 27.0914 16.4495C27.1189 17.0941 27.3073 17.8569 27.5871 18.6365C27.8623 19.4035 28.2001 20.1162 28.4733 20.6427C28.5416 20.7743 28.6052 20.8931 28.662 20.9969C28.7874 21.0348 28.9321 21.0774 29.0927 21.1228C29.6923 21.2926 30.4973 21.497 31.3396 21.6451C32.1956 21.7957 33.0205 21.8751 33.6826 21.8308C34.0105 21.8089 34.2516 21.7593 34.416 21.7007C34.5779 21.6429 34.6155 21.5948 34.6085 21.6028C34.6085 21.6028 34.6115 21.5994 34.6181 21.5907C34.6246 21.582 34.6337 21.5695 34.645 21.5525C34.6681 21.5179 34.6974 21.4702 34.7322 21.4068C34.8027 21.2785 34.8838 21.1083 34.9735 20.8925C35.1535 20.4595 35.3437 19.9028 35.5382 19.2487C35.9265 17.9427 36.3033 16.3471 36.6351 14.7815C36.9182 13.4453 37.1648 12.1491 37.3544 11.1025C36.391 11.3923 35.2118 11.7622 33.9919 12.1807C32.5163 12.6869 31.0081 13.2551 29.7583 13.83ZM37.6434 9.452C34.5268 10.3654 27.7964 12.4959 26.2357 14.2804C24.1874 16.6226 27.6511 22.2494 27.6511 22.2494C27.6511 22.2494 34.0989 24.464 35.7376 22.5903C36.9948 21.1528 38.3834 13.9222 38.9619 10.6333C39.1374 9.63512 39.2383 9 39.2383 9C39.2383 9 38.6173 9.16657 37.6434 9.452ZM12.9681 15.124C13.4329 17.7363 14.4045 22.6584 15.2886 23.6799C16.5048 25.0852 21.2903 23.4243 21.2903 23.4243C21.2903 23.4243 23.861 19.2041 22.3407 17.4475C21.2473 16.184 16.7345 14.6893 14.2867 13.9496C13.3312 13.6609 12.6904 13.4872 12.6904 13.4872C12.6904 13.4872 12.7935 14.1426 12.9681 15.124ZM14.5807 15.6094C14.7014 16.2611 14.8438 16.9966 15.0015 17.7487C15.2469 18.9191 15.5243 20.105 15.8085 21.071C15.951 21.555 16.088 21.9593 16.215 22.2678C16.3034 22.4827 16.3679 22.6035 16.4005 22.6599C16.4517 22.679 16.5811 22.7187 16.8406 22.7362C17.2857 22.7663 17.8618 22.7126 18.4831 22.6022C19.0906 22.4943 19.6741 22.3446 20.111 22.2197C20.1671 22.2036 20.2205 22.1881 20.271 22.1731C20.2912 22.1348 20.3122 22.0944 20.3338 22.0522C20.5318 21.6666 20.775 21.1477 20.9721 20.5926C21.1736 20.025 21.301 19.4916 21.3193 19.059C21.3379 18.6189 21.2393 18.467 21.2065 18.4291C21.0606 18.2605 20.5463 17.9066 19.5593 17.4479C18.6489 17.0247 17.5436 16.6035 16.4542 16.2259C15.7972 15.9981 15.1559 15.7896 14.5807 15.6094Z" fill="#333333"/>
<path fill-rule="evenodd" clip-rule="evenodd" d="M16.137 17.3854C16.4924 16.9627 17.1232 16.9081 17.5459 17.2635L16.9024 18.029C17.5459 17.2635 17.5459 17.2635 17.5459 17.2635L17.5481 17.2653L17.5518 17.2685L17.5642 17.279L17.6075 17.3163C17.6445 17.3483 17.6973 17.3944 17.7639 17.454C17.8972 17.573 18.0864 17.7459 18.3162 17.9666C18.7752 18.4072 19.3996 19.0415 20.066 19.8204C21.3838 21.3608 22.9317 23.5427 23.6277 25.9634C23.7803 26.4942 23.4738 27.0482 22.943 27.2008C22.4122 27.3534 21.8582 27.0468 21.7056 26.516C21.1259 24.4997 19.7917 22.5763 18.5463 21.1205C17.931 20.4014 17.3536 19.8149 16.9311 19.4093C16.7202 19.2068 16.5487 19.0502 16.4316 18.9456C16.373 18.8933 16.3281 18.854 16.2987 18.8285L16.2664 18.8008L16.2595 18.7949L16.2586 18.7941M16.137 17.3854C15.7816 17.8081 15.8361 18.4387 16.2586 18.7941L16.137 17.3854Z" fill="#333333"/>
<path fill-rule="evenodd" clip-rule="evenodd" d="M19.3215 27.1761C19.3215 27.1761 19.3217 27.1761 19.1417 28.1598L19.3215 27.1761L19.3393 27.1793L25.1166 28.4511L25.1576 28.464L25.1586 28.4643L25.1667 28.4668L25.2054 28.4784C25.2409 28.4888 25.2952 28.5045 25.3653 28.5235C25.506 28.5618 25.7085 28.6134 25.9501 28.6651C26.4419 28.7704 27.0572 28.8677 27.6277 28.8677C28.1896 28.8677 28.8037 29.0735 29.137 29.6723C29.4232 30.1865 29.3526 30.7434 29.2521 31.11C29.1677 31.418 29.0234 31.7351 28.8382 32.0329C29.152 31.911 29.4847 31.7772 29.8351 31.6362L29.8972 31.6112C31.29 31.0504 32.958 30.3788 34.435 30.1391C36.1428 29.8619 37.4266 30.4666 38.0163 31.596C38.5372 32.5936 38.4199 33.9097 37.627 34.7075C37.429 34.9068 37.1341 35.11 36.8502 35.2907C36.5438 35.4857 36.1677 35.7052 35.7515 35.9369C34.9176 36.401 33.8864 36.9339 32.8523 37.4486C30.8073 38.4663 28.6557 39.46 27.966 39.7079C26.7714 40.1372 25.389 40.0002 24.1553 39.8779C24.113 39.8737 24.0709 39.8695 24.0289 39.8654C23.6571 39.8287 23.287 39.7922 22.9086 39.7641C21.2332 39.6396 19.9489 39.2389 18.7742 38.8725L18.7502 38.8651C17.4861 38.4708 16.3461 38.1187 14.8146 38.0582C14.6373 38.0511 14.2992 38.0547 13.8889 38.0644V40H7V27H13.8889V28.026C14.7962 27.7011 15.6565 27.3846 15.9643 27.2469C16.3322 27.0824 16.7506 27.0288 17.0878 27.0097C17.445 26.9895 17.8137 27.0035 18.1344 27.0278C18.4581 27.0524 18.7516 27.089 18.9634 27.1193C19.0699 27.1345 19.157 27.1482 19.2186 27.1584C19.2494 27.1635 19.2739 27.1677 19.2914 27.1707L19.3121 27.1744L19.3183 27.1755L19.3215 27.1761ZM11.8889 29H9V38H11.8889V36.1274L12.8545 36.0942C13.6308 36.0675 14.4975 36.0441 14.8936 36.0597C16.7022 36.1312 18.0596 36.5546 19.3195 36.9476L19.3457 36.9558C20.5263 37.324 21.6217 37.6629 23.0569 37.7696C23.4613 37.7997 23.8531 37.8383 24.2201 37.8745L24.2252 37.875C25.6335 38.0139 26.5663 38.0857 27.2895 37.8258C27.8504 37.6242 29.8971 36.6853 31.9611 35.658C32.9815 35.1502 33.9825 34.6325 34.7788 34.1893C35.1777 33.9673 35.5162 33.769 35.7765 33.6034C35.9065 33.5206 36.0104 33.4502 36.089 33.3926C36.128 33.3641 36.1576 33.341 36.1792 33.3232C36.2015 33.3047 36.2084 33.2978 36.2084 33.2978C36.3088 33.1968 36.4148 32.8498 36.2434 32.5216C36.1408 32.325 35.8167 31.941 34.7554 32.1133C33.5217 32.3135 32.0497 32.9006 30.582 33.4915L30.5612 33.4998C29.8395 33.7904 29.1164 34.0815 28.4755 34.2928C27.859 34.4962 27.1775 34.6764 26.5861 34.6414C25.7681 34.5929 24.3331 34.3817 23.1487 34.1923C22.5465 34.0961 21.9926 34.0027 21.5894 33.9334C21.3877 33.8988 21.2235 33.8701 21.1095 33.8501L20.9777 33.8268L20.9317 33.8186L21.1188 31.8342L25.74 31.889C25.7425 31.8889 25.7459 31.8886 25.7502 31.8882C25.7751 31.886 25.8313 31.8792 25.9135 31.8583C26.0757 31.817 26.3512 31.7179 26.6965 31.4758C26.8045 31.4002 26.9442 31.2615 27.074 31.0764C27.1268 31.0011 27.172 30.9266 27.2095 30.8559C26.5857 30.8216 25.9878 30.7185 25.5314 30.6208C25.2481 30.5602 25.0096 30.4994 24.8404 30.4534C24.7557 30.4304 24.6878 30.4109 24.6399 30.3968C24.6267 30.3929 24.615 30.3894 24.6049 30.3863L18.9468 29.1408C18.935 29.1388 18.9168 29.1356 18.8929 29.1317C18.8438 29.1236 18.7712 29.1121 18.6808 29.0992C18.499 29.0732 18.251 29.0424 17.9829 29.0221C17.7118 29.0015 17.4384 28.993 17.2011 29.0065C16.9437 29.0211 16.815 29.0574 16.7809 29.0726C16.2223 29.3225 14.4112 29.9666 13.2203 30.3849L11.8889 30.8525V29Z" fill="#333333"/>
</svg>
