<svg width="48" height="48" viewBox="0 0 48 48" fill="none" xmlns="http://www.w3.org/2000/svg">
<path fill-rule="evenodd" clip-rule="evenodd" d="M29.7583 13.8301C28.4313 14.4404 27.6418 14.9513 27.3648 15.268C27.2039 15.452 27.0635 15.7988 27.0914 16.4496C27.1189 17.0943 27.3073 17.857 27.5871 18.6367C27.8623 19.4036 28.2001 20.1163 28.4733 20.6429C28.5416 20.7745 28.6052 20.8932 28.662 20.997C28.7874 21.0349 28.9321 21.0775 29.0927 21.123C29.6923 21.2927 30.4973 21.4972 31.3396 21.6453C32.1956 21.7958 33.0205 21.8753 33.6826 21.831C34.0105 21.809 34.2516 21.7594 34.416 21.7008C34.5779 21.6431 34.6155 21.595 34.6085 21.6029C34.6082 21.6033 34.6115 21.5996 34.6181 21.5908C34.6246 21.5822 34.6337 21.5696 34.645 21.5526C34.6681 21.5181 34.6974 21.4703 34.7322 21.4069C34.8027 21.2786 34.8838 21.1084 34.9735 20.8926C35.1535 20.4597 35.3437 19.9029 35.5382 19.2489C35.9265 17.9429 36.3033 16.3473 36.6351 14.7817C36.9182 13.4455 37.1648 12.1493 37.3544 11.1027C36.391 11.3925 35.2118 11.7623 33.9919 12.1808C32.5163 12.6871 31.0081 13.2553 29.7583 13.8301ZM37.6434 9.45214C34.5268 10.3655 27.7964 12.496 26.2357 14.2805C24.1874 16.6227 27.6511 22.2495 27.6511 22.2495C27.6511 22.2495 34.0989 24.4641 35.7376 22.5904C36.9948 21.1529 38.3834 13.9224 38.9619 10.6334C39.1374 9.63526 39.2383 9.00014 39.2383 9.00014C39.2383 9.00014 38.6173 9.16671 37.6434 9.45214Z" fill="#333333"/>
<path fill-rule="evenodd" clip-rule="evenodd" d="M24.9518 27.6019C24.4286 27.4249 24.148 26.8573 24.325 26.3341C25.4992 22.8641 27.8611 19.6325 29.877 17.3036C30.8925 16.1306 31.8363 15.1682 32.5273 14.4981C32.8731 14.1628 33.1563 13.8999 33.3545 13.7197C33.4536 13.6296 33.5315 13.5601 33.5853 13.5124C33.6123 13.4886 33.6332 13.4702 33.6478 13.4575L33.6649 13.4426L33.6698 13.4384L33.6713 13.4371C33.6715 13.4369 33.6722 13.4363 34.325 14.1938L33.6722 13.4363C34.0905 13.0758 34.7219 13.1226 35.0825 13.5409C35.443 13.9592 35.3962 14.5905 34.9781 14.9511C34.9781 14.9511 34.9781 14.9511 34.9781 14.9511M34.9781 14.9511L34.9753 14.9536L34.963 14.9643L34.9103 15.0106C34.8631 15.0523 34.7921 15.1157 34.7002 15.1993C34.5162 15.3666 34.2487 15.6148 33.9196 15.9339C33.2609 16.5727 32.3588 17.4925 31.3892 18.6126C29.4351 20.87 27.2706 23.8689 26.2195 26.9752C26.0425 27.4983 25.4749 27.7789 24.9518 27.6019" fill="#333333"/>
<path fill-rule="evenodd" clip-rule="evenodd" d="M19.561 17.448C20.5481 17.9068 21.0619 18.2605 21.2073 18.4285C21.2394 18.4656 21.3381 18.6167 21.3194 19.057C21.3011 19.4896 21.1738 20.0231 20.9722 20.5909C20.775 21.146 20.5318 21.665 20.3338 22.0507C20.3119 22.0933 20.2908 22.134 20.2704 22.1727C20.2196 22.1877 20.1658 22.2034 20.1093 22.2195C19.6723 22.3445 19.0888 22.4942 18.4812 22.6021C17.8598 22.7125 17.2836 22.7663 16.8386 22.7362C16.5803 22.7187 16.451 22.6794 16.3995 22.6602C16.3669 22.6036 16.3026 22.4831 16.2147 22.2693C16.0878 21.961 15.9508 21.5568 15.8083 21.0728C15.5241 20.1069 15.2468 18.921 15.0013 17.7507C14.8434 16.9976 14.7008 16.2612 14.5801 15.6088C15.1559 15.7891 15.7981 15.998 16.456 16.226C17.5454 16.6037 18.6507 17.0249 19.561 17.448ZM14.2862 13.9496C16.7339 14.6892 21.2472 16.184 22.3407 17.4476C23.861 19.2042 21.2903 23.4243 21.2903 23.4243C21.2903 23.4243 16.5048 25.0853 15.2886 23.68C14.4045 22.6584 13.4328 17.7358 12.968 15.1236C12.7935 14.1425 12.6904 13.4873 12.6904 13.4873C12.6904 13.4873 13.331 13.6609 14.2862 13.9496ZM20.0082 22.644C20.0081 22.6442 20.0081 22.6442 20.0082 22.644L20.0082 22.644Z" fill="#333333"/>
<path fill-rule="evenodd" clip-rule="evenodd" d="M16.2654 18.802C16.2656 18.8022 16.2653 18.8019 16.2654 18.802C15.8438 18.4471 15.7866 17.8133 16.1382 17.3866C16.49 16.9597 17.1173 16.9013 17.5394 17.2561L16.2654 18.802Z" fill="#333333"/>
<path fill-rule="evenodd" clip-rule="evenodd" d="M19.3215 27.1761C19.3216 27.1761 19.3217 27.1761 19.1417 28.1598L19.3215 27.1761L19.3393 27.1793L25.1166 28.4511L25.1576 28.464L25.1586 28.4643L25.1667 28.4668L25.2054 28.4784C25.2409 28.4888 25.2952 28.5045 25.3653 28.5235C25.506 28.5618 25.7085 28.6134 25.9501 28.6652C26.4419 28.7705 27.0572 28.8677 27.6277 28.8677C28.1896 28.8677 28.8037 29.0735 29.137 29.6723C29.4232 30.1865 29.3526 30.7434 29.2521 31.11C29.1677 31.418 29.0234 31.7351 28.8382 32.033C29.152 31.9111 29.4847 31.7772 29.8351 31.6362L29.8972 31.6112C31.29 31.0504 32.958 30.3788 34.435 30.1391C36.1428 29.8619 37.4266 30.4667 38.0163 31.596C38.5372 32.5936 38.4199 33.9097 37.627 34.7076C37.429 34.9068 37.1341 35.11 36.8502 35.2907C36.5438 35.4857 36.1677 35.7052 35.7515 35.9369C34.9176 36.401 33.8864 36.9339 32.8523 37.4486C30.8073 38.4663 28.6557 39.46 27.966 39.7079C26.7714 40.1373 25.389 40.0002 24.1553 39.8779C24.113 39.8737 24.0709 39.8695 24.0289 39.8654C23.6571 39.8287 23.287 39.7922 22.9086 39.7641C21.2332 39.6396 19.9489 39.239 18.7742 38.8725L18.7502 38.8651C17.4861 38.4708 16.3461 38.1187 14.8146 38.0582C14.6373 38.0512 14.2992 38.0547 13.8889 38.0644V40H7V27H13.8889V28.026C14.7962 27.7011 15.6565 27.3846 15.9643 27.2469C16.3322 27.0824 16.7506 27.0288 17.0878 27.0097C17.445 26.9895 17.8137 27.0035 18.1344 27.0278C18.4581 27.0524 18.7516 27.089 18.9634 27.1193C19.0699 27.1345 19.157 27.1482 19.2186 27.1584C19.2494 27.1635 19.2739 27.1677 19.2914 27.1707L19.3121 27.1744L19.3183 27.1755L19.3215 27.1761ZM11.8889 29H9V38H11.8889V36.1275L12.8545 36.0942C13.6308 36.0675 14.4975 36.0441 14.8936 36.0597C16.7022 36.1312 18.0596 36.5546 19.3195 36.9476L19.3457 36.9558C20.5263 37.324 21.6217 37.6629 23.0569 37.7696C23.4613 37.7997 23.8531 37.8383 24.2201 37.8745L24.2252 37.875C25.6335 38.0139 26.5663 38.0857 27.2895 37.8258C27.8504 37.6242 29.8971 36.6853 31.9611 35.6581C32.9815 35.1502 33.9825 34.6325 34.7788 34.1893C35.1777 33.9673 35.5162 33.769 35.7765 33.6034C35.9065 33.5206 36.0104 33.4502 36.089 33.3927C36.128 33.3641 36.1576 33.341 36.1792 33.3232C36.2015 33.3047 36.2097 33.2964 36.2084 33.2978C36.3088 33.1968 36.4148 32.8499 36.2434 32.5216C36.1408 32.3251 35.8167 31.941 34.7554 32.1133C33.5217 32.3135 32.0497 32.9006 30.582 33.4915L30.5612 33.4999C29.8395 33.7904 29.1164 34.0815 28.4755 34.2929C27.859 34.4962 27.1775 34.6764 26.5861 34.6414C25.7681 34.5929 24.3331 34.3817 23.1487 34.1924C22.5465 34.0961 21.9926 34.0027 21.5894 33.9334C21.3877 33.8988 21.2235 33.8701 21.1095 33.8501L20.9777 33.8268L20.9317 33.8186L21.1188 31.8342L25.74 31.889C25.7425 31.8889 25.7459 31.8886 25.7502 31.8882C25.7751 31.8861 25.8313 31.8792 25.9135 31.8583C26.0757 31.817 26.3512 31.7179 26.6965 31.4759C26.8045 31.4002 26.9442 31.2615 27.074 31.0764C27.1268 31.0011 27.172 30.9266 27.2095 30.8559C26.5857 30.8216 25.9878 30.7185 25.5314 30.6208C25.2481 30.5602 25.0096 30.4995 24.8404 30.4534C24.7557 30.4304 24.6878 30.4109 24.6399 30.3968C24.6267 30.3929 24.615 30.3894 24.6049 30.3863L18.9468 29.1408C18.935 29.1388 18.9168 29.1357 18.8929 29.1317C18.8438 29.1236 18.7712 29.1121 18.6808 29.0992C18.499 29.0733 18.251 29.0425 17.9829 29.0221C17.7118 29.0015 17.4384 28.993 17.2011 29.0065C16.9437 29.0211 16.815 29.0574 16.7809 29.0727C16.2223 29.3225 14.4112 29.9666 13.2203 30.3849L11.8889 30.8525V29Z" fill="#333333"/>
</svg>
