<svg width="48" height="48" viewBox="0 0 48 48" fill="none" xmlns="http://www.w3.org/2000/svg">
<path fill-rule="evenodd" clip-rule="evenodd" d="M31.934 16.4814V15.3429C32.9018 15.145 33.7717 14.6189 34.3964 13.8536C35.0211 13.0883 35.3624 12.1308 35.3625 11.1429V6H33.6482V12H31.934V6H30.2197V12H28.5054V6H26.7911V11.1429C26.7912 12.1308 27.1325 13.0883 27.7572 13.8536C28.3819 14.6189 29.2518 15.145 30.2197 15.3429V16.4814H22.304C23.7998 15.8162 24.848 14.3148 24.848 12.5777C24.848 10.2274 22.9292 8.30859 20.5788 8.30859C18.2285 8.30859 16.3097 10.2274 16.3097 12.5777C16.3097 14.3148 17.3579 15.8162 18.8537 16.4814H15.6751C15.2132 16.4814 14.7007 16.6681 14.257 16.9009C13.7821 17.1501 13.269 17.5134 12.7936 17.9883C11.8378 18.9432 11 20.3889 11 22.2919C11 24.633 11.7764 26.3434 12.7365 27.4798C13.2116 28.0422 13.7299 28.462 14.2165 28.7467C14.3637 28.8328 14.5178 28.9122 14.6751 28.9804V40.3655C14.6751 41.8168 15.8584 43.0001 17.3097 43.0001C18.761 43.0001 19.9442 41.8168 19.9442 40.3655V33.1926H21.2134V40.3655C21.2134 41.8168 22.3967 43.0001 23.848 43.0001C25.2993 43.0001 26.4825 41.8168 26.4825 40.3655V21.7506H30.2197V41.1773H31.934V21.7506H33.6554C35.1067 21.7506 36.29 20.5673 36.29 19.116C36.29 17.6647 35.1067 16.4814 33.6554 16.4814H31.934ZM30.2197 18.4814H15.6751C15.6751 18.4814 15.6752 18.4817 15.6705 18.4827C15.6398 18.4887 15.4726 18.5217 15.1862 18.672C14.8876 18.8286 14.5382 19.0724 14.2072 19.4032C13.5502 20.0595 13 21.019 13 22.2919C13 24.1645 13.6116 25.4166 14.2643 26.1891C14.4007 26.3506 14.5392 26.4915 14.6751 26.6132V20.7506H16.6751V40.3655C16.6751 40.7122 16.9629 41.0001 17.3097 41.0001C17.6564 41.0001 17.9442 40.7122 17.9442 40.3655V31.1926H23.2134V40.3655C23.2134 40.7122 23.5012 41.0001 23.848 41.0001C24.1947 41.0001 24.4825 40.7122 24.4825 40.3655V19.7506H30.2197V18.4814ZM31.934 19.7506V18.4814H33.6554C34.0021 18.4814 34.29 18.7693 34.29 19.116C34.29 19.4628 34.0021 19.7506 33.6554 19.7506H31.934ZM20.5788 10.3086C19.3331 10.3086 18.3097 11.332 18.3097 12.5777C18.3097 13.8235 19.3331 14.8469 20.5788 14.8469C21.8246 14.8469 22.848 13.8235 22.848 12.5777C22.848 11.332 21.8246 10.3086 20.5788 10.3086Z" fill="#333333"/>
</svg>
