<svg width="48" height="48" viewBox="0 0 48 48" fill="none" xmlns="http://www.w3.org/2000/svg">
<path d="M38.896 31.0997H36.8422L33.4486 27.7016C32.9091 26.8367 32.157 26.1244 31.2641 25.6325C30.3711 25.1405 29.3672 24.8855 28.3477 24.8917H21.8246L23.4706 37.3077H28.0327C28.8608 37.307 29.6803 37.14 30.4427 36.8166C31.205 36.4931 31.8945 36.0199 32.4704 35.4249L33.4276 36.3821C33.7204 36.6836 34.0724 36.9211 34.4616 37.08C34.8506 37.2387 35.2684 37.3152 35.6885 37.3047C35.7245 37.3047 35.756 37.3137 35.792 37.3137H38.896C39.7193 37.3137 40.5088 36.9867 41.0909 36.4046C41.673 35.8225 42 35.0331 42 34.2097C42 33.3865 41.673 32.5969 41.0909 32.0148C40.5088 31.4327 39.7193 31.1057 38.896 31.1057V31.0997Z" fill="#333333"/>
<path fill-rule="evenodd" clip-rule="evenodd" d="M35.792 25.5128C39.2206 25.5128 42 22.7334 42 19.3047C42 15.8762 39.2206 13.0967 35.792 13.0967C32.3634 13.0967 29.5839 15.8762 29.5839 19.3047C29.5839 22.7334 32.3634 25.5128 35.792 25.5128ZM40 19.3047C40 21.6288 38.1161 23.5128 35.792 23.5128C33.468 23.5128 31.5839 21.6288 31.5839 19.3047C31.5839 16.9808 33.468 15.0967 35.792 15.0967C38.116 15.0967 40 16.9807 40 19.3047Z" fill="#333333"/>
<path fill-rule="evenodd" clip-rule="evenodd" d="M16.8023 27.3226C17.0712 27.2111 17.354 27.1387 17.6422 27.1069C17.754 27.0946 17.8666 27.0884 17.9795 27.0884C18.3835 27.0884 18.7836 27.1679 19.1569 27.3226C19.5302 27.4772 19.8692 27.7038 20.1549 27.9894C20.4405 28.2751 20.6672 28.6143 20.8217 28.9875C20.9764 29.3608 21.0559 29.7608 21.0559 30.1648C21.0559 30.5688 20.9764 30.9689 20.8217 31.3422C20.6672 31.7153 20.4405 32.0545 20.1549 32.3402L16.1207 36.3758C15.8278 36.6771 15.4757 36.9146 15.0867 37.0733C14.6976 37.232 14.2799 37.3087 13.8598 37.2985C13.842 37.2985 13.8253 37.3007 13.8084 37.3029C13.7912 37.3052 13.7737 37.3075 13.7548 37.3075H9.10402C8.28083 37.3075 7.49125 36.9804 6.90915 36.3983C6.32705 35.8162 6 35.0268 6 34.2035C6 33.3803 6.32705 32.5907 6.90915 32.0086C7.49125 31.4265 8.28083 31.0995 9.10402 31.0995H12.7046L15.8086 27.9954L15.8041 27.9894C16.0108 27.7828 16.2454 27.6071 16.5007 27.4672L16.5182 27.4577L16.5449 27.4434C16.6287 27.3993 16.7145 27.3589 16.8023 27.3226ZM17.3127 29.3198C17.3902 29.2587 17.476 29.2083 17.5679 29.1702C17.6982 29.1162 17.838 29.0884 17.9795 29.0884C18.1211 29.0884 18.2611 29.1163 18.3913 29.1702C18.5221 29.2244 18.6408 29.3038 18.7407 29.4036C18.8407 29.5036 18.9199 29.6223 18.9738 29.7526C19.0278 29.8829 19.0559 30.0233 19.0559 30.1648C19.0559 30.3064 19.0281 30.4463 18.9741 30.5765C18.9201 30.7068 18.8407 30.8259 18.7407 30.9259L14.6964 34.9718L14.6866 34.9818C14.5861 35.0851 14.4651 35.1668 14.3314 35.2214C14.1971 35.2762 14.0531 35.3026 13.9084 35.2991L13.8841 35.2985H13.8598C13.7792 35.2985 13.7105 35.3029 13.6591 35.3075H9.10402C8.81127 35.3075 8.53039 35.1912 8.32337 34.9841C8.1163 34.7771 8 34.4963 8 34.2035C8 33.9107 8.11634 33.6298 8.32337 33.4228C8.5304 33.2158 8.81127 33.0995 9.10402 33.0995H13.5331L17.3127 29.3198Z" fill="#333333"/>
</svg>
