<svg width="48" height="48" viewBox="0 0 48 48" fill="none" xmlns="http://www.w3.org/2000/svg">
<path d="M22.5 33C21.5967 33.6594 20.4444 35.3242 20.4444 36.5457C20.4444 37.7094 21.3333 38.5992 21.3333 39.7274C21.3333 40.9825 20.3384 42 19.1111 42C16.6975 42 16 38.364 16 36.5457C16 33.8691 17.2569 31.4926 19.2 30M25.5 33C26.4033 33.6594 27.5556 35.3242 27.5556 36.5457C27.5556 37.6894 26.6667 38.6268 26.6667 39.7274C26.6667 40.9825 27.6616 42 28.8889 42C31.2346 42 32 38.1777 32 36.5457C32 33.8691 30.7431 31.4926 28.8 30" stroke="#333333" stroke-width="2"/>
<circle cx="24" cy="11" r="5" stroke="#333333" stroke-width="2"/>
<path d="M13.4061 17.5721L13.4004 17.5598L13.3944 17.5478C13.2933 17.3457 13.1626 16.9322 13.1746 16.4709C13.186 16.0331 13.3221 15.587 13.707 15.2021C14.1449 14.7642 14.5442 14.6285 14.8862 14.6075C15.2551 14.5849 15.6524 14.6913 16.0563 14.8913C16.2123 14.9685 16.4597 15.1999 16.9053 15.7317C16.9923 15.8356 17.0851 15.9485 17.1835 16.0682C17.5295 16.4891 17.9432 16.9925 18.4079 17.4705C19.6375 18.7353 21.3796 19.995 23.9999 19.995C26.6203 19.995 28.3624 18.7353 29.5919 17.4705C30.0567 16.9925 30.4704 16.4892 30.8164 16.0682C30.9147 15.9486 31.0076 15.8356 31.0946 15.7317C31.5402 15.1999 31.7876 14.9685 31.9435 14.8913C32.3475 14.6913 32.7448 14.5849 33.1136 14.6075C33.4557 14.6285 33.8549 14.7642 34.2928 15.2021C34.6777 15.587 34.8139 16.0331 34.8253 16.4709C34.8373 16.9322 34.7065 17.3457 34.6055 17.5478L34.5995 17.5598L34.5938 17.5721C33.2127 20.5315 31.568 22.2282 29.6014 23.0829L28.9999 23.3442V24V29C28.9999 29.7379 28.3746 31.3264 26.6076 32.0802C26.4378 32.1526 26.2468 32.2435 26.0645 32.3302C26.027 32.348 25.9898 32.3657 25.9533 32.383C25.7279 32.4897 25.5008 32.5949 25.268 32.6894C24.7899 32.8834 24.3628 33 23.9999 33C23.637 33 23.21 32.8834 22.7319 32.6894C22.4991 32.5949 22.272 32.4897 22.0466 32.383C22.0101 32.3657 21.9729 32.348 21.9354 32.3301C21.7531 32.2435 21.5621 32.1526 21.3923 32.0802C19.6253 31.3264 18.9999 29.7379 18.9999 29V24V23.3442L18.3985 23.0829C16.4319 22.2282 14.7872 20.5315 13.4061 17.5721Z" stroke="#333333" stroke-width="2"/>
<path d="M18.5 27H29.5" stroke="#333333" stroke-width="2"/>
</svg>
