<svg width="48" height="48" viewBox="0 0 48 48" fill="none" xmlns="http://www.w3.org/2000/svg">
<path d="M41 19.3047C41 22.1811 38.6683 24.5127 35.7919 24.5127C32.9157 24.5127 30.5839 22.181 30.5839 19.3047C30.5839 16.4284 32.9157 14.0966 35.7919 14.0966C38.6683 14.0966 41 16.4284 41 19.3047Z" stroke="#333333" stroke-width="2"/>
<path d="M36.4276 32.0997L36.1346 31.8063L32.741 28.4083L32.6605 28.3276L32.6001 28.2309C32.151 27.5109 31.525 26.9179 30.7816 26.5084C30.0382 26.0988 29.2024 25.8865 28.3538 25.8916L28.3477 25.8917V25.8917H22.966L24.3468 36.3077H28.0318C28.7261 36.3071 29.413 36.1671 30.0521 35.896C30.6912 35.6248 31.2691 35.2282 31.7519 34.7294L32.4588 33.9991L33.1775 34.7178L34.1347 35.675L34.1399 35.6801L34.145 35.6854C34.3416 35.8878 34.5779 36.0473 34.8394 36.1541L36.4276 32.0997ZM36.4276 32.0997H36.8422M36.4276 32.0997H36.8422M36.8422 32.0997H37.896V32.1057H38.896C39.4541 32.1057 39.9892 32.3274 40.3838 32.722C40.7783 33.1165 41 33.6517 41 34.2097C41 34.7678 40.7784 35.3029 40.3838 35.6975C39.9892 36.0921 39.4541 36.3137 38.896 36.3137H35.8386C35.8306 36.3128 35.8218 36.3118 35.8127 36.3109C35.7817 36.3079 35.739 36.3047 35.6885 36.3047H35.676M36.8422 32.0997L35.676 36.3047M35.676 36.3047L35.6635 36.305M35.676 36.3047L35.6635 36.305M35.6635 36.305C35.3813 36.3121 35.1007 36.2607 34.8395 36.1542L35.6635 36.305Z" stroke="#333333" stroke-width="2"/>
<path d="M16.6405 28.5777L16.5158 28.7025L13.4117 31.8065L13.1188 32.0994H12.7046H9.10402C8.54605 32.0994 8.01082 32.3211 7.61626 32.7156L6.90915 32.0085L7.61626 32.7156C7.2217 33.1102 7 33.6454 7 34.2034C7 34.7615 7.22168 35.2966 7.61626 35.6911L6.91921 36.3882L7.61626 35.6911C8.01082 36.0857 8.54605 36.3074 9.10402 36.3074H13.7097C13.7177 36.3065 13.7266 36.3055 13.7359 36.3046C13.7666 36.3016 13.8093 36.2984 13.8598 36.2984H13.872L13.8841 36.2987C14.1665 36.3056 14.4472 36.254 14.7089 36.1473L16.6405 28.5777ZM16.6405 28.5777C16.8035 28.4402 16.9871 28.3283 17.1851 28.2463C17.4369 28.142 17.7067 28.0883 17.9795 28.0883C18.2523 28.0883 18.5223 28.142 18.7741 28.2463C19.0262 28.3508 19.255 28.5037 19.4478 28.6964C19.6406 28.8893 19.7936 29.1182 19.8978 29.37L19.8979 29.3703C20.0023 29.6221 20.0559 29.8919 20.0559 30.1647C20.0559 30.4375 20.0022 30.7075 19.8979 30.9593L19.8978 30.9595C19.7936 31.2112 19.6406 31.4401 19.4478 31.633L19.4476 31.6331L15.4135 35.6688L15.4134 35.6687L15.4037 35.6787C15.207 35.881 14.9704 36.0406 14.7091 36.1473L16.6405 28.5777Z" stroke="#333333" stroke-width="2"/>
<path d="M38.1175 9.66705L38.8426 9.3217V10.0124L38.1175 9.66705Z" stroke="#333333" stroke-width="2"/>
<path d="M32.7413 9.3217L33.4664 9.66705L32.7413 10.0124V9.3217Z" stroke="#333333" stroke-width="2"/>
</svg>
