<svg width="48" height="48" viewBox="0 0 48 48" fill="none" xmlns="http://www.w3.org/2000/svg">
<path d="M41 19.3047C41 22.1811 38.6684 24.5128 35.792 24.5128C32.9157 24.5128 30.5839 22.1811 30.5839 19.3047C30.5839 16.4285 32.9157 14.0967 35.792 14.0967C38.6683 14.0967 41 16.4285 41 19.3047Z" stroke="#333333" stroke-width="2"/>
<path d="M36.4276 32.0997L36.1346 31.8064L32.741 28.4083L32.6605 28.3277L32.6001 28.2309C32.151 27.511 31.525 26.918 30.7816 26.5084C30.0382 26.0989 29.2024 25.8866 28.3538 25.8917L28.3477 25.8917V25.8917H22.966L24.3468 36.3078H28.0318C28.7261 36.3072 29.413 36.1672 30.0521 35.896C30.6912 35.6249 31.2691 35.2282 31.7519 34.7295L32.4588 33.9992L33.1775 34.7179L34.1347 35.675L34.1399 35.6802L34.145 35.6855C34.3416 35.8879 34.5779 36.0474 34.8394 36.1542L36.4276 32.0997ZM36.4276 32.0997H36.8422M36.4276 32.0997H36.8422M36.8422 32.0997H37.896V32.1058H38.896C39.4541 32.1058 39.9892 32.3274 40.3838 32.722C40.7783 33.1166 41 33.6518 41 34.2098C41 34.7679 40.7784 35.3029 40.3838 35.6975C39.9892 36.0921 39.4541 36.3138 38.896 36.3138H35.8386C35.8306 36.3129 35.8218 36.3119 35.8127 36.311C35.7817 36.308 35.739 36.3048 35.6885 36.3048H35.676M36.8422 32.0997L35.676 36.3048M35.676 36.3048L35.6635 36.3051M35.676 36.3048L35.6635 36.3051M35.6635 36.3051C35.3813 36.3122 35.1007 36.2608 34.8395 36.1542L35.6635 36.3051Z" stroke="#333333" stroke-width="2"/>
<path d="M16.6405 28.5773L16.5158 28.7021L13.4117 31.8061L13.1188 32.099H12.7046H9.10402C8.54605 32.099 8.01082 32.3207 7.61626 32.7152L6.90915 32.0081L7.61626 32.7152C7.2217 33.1098 7 33.645 7 34.203C7 34.7611 7.22168 35.2962 7.61626 35.6907L6.91921 36.3878L7.61626 35.6907C8.01082 36.0853 8.54605 36.307 9.10402 36.307H13.7097C13.7177 36.3061 13.7266 36.3051 13.7359 36.3042C13.7666 36.3012 13.8093 36.298 13.8598 36.298H13.872L13.8841 36.2983C14.1665 36.3052 14.4472 36.2536 14.7089 36.1469L16.6405 28.5773ZM16.6405 28.5773C16.8035 28.4398 16.9871 28.3279 17.1851 28.2459C17.4369 28.1416 17.7067 28.0879 17.9795 28.0879C18.2523 28.0879 18.5223 28.1416 18.7741 28.2459C19.0262 28.3504 19.255 28.5033 19.4478 28.696C19.6406 28.8889 19.7936 29.1178 19.8978 29.3696L19.8979 29.3699C20.0023 29.6217 20.0559 29.8915 20.0559 30.1643C20.0559 30.4371 20.0022 30.7071 19.8979 30.9589L19.8978 30.9591C19.7936 31.2108 19.6406 31.4397 19.4478 31.6326L19.4476 31.6327L15.4135 35.6684L15.4134 35.6683L15.4037 35.6783C15.207 35.8806 14.9704 36.0402 14.7091 36.1469L16.6405 28.5773Z" stroke="#333333" stroke-width="2"/>
<path d="M38.1175 9.66705L38.8426 9.3217V10.0124L38.1175 9.66705Z" stroke="#333333" stroke-width="2"/>
<path d="M32.7413 9.3217L33.4664 9.66705L32.7413 10.0124V9.3217Z" stroke="#333333" stroke-width="2"/>
</svg>
