<svg width="48" height="48" viewBox="0 0 48 48" fill="none" xmlns="http://www.w3.org/2000/svg">
<path fill-rule="evenodd" clip-rule="evenodd" d="M30 11C30 14.3137 27.3137 17 24 17C20.6863 17 18 14.3137 18 11C18 7.68629 20.6863 5 24 5C27.3137 5 30 7.68629 30 11ZM28 11C28 13.2091 26.2091 15 24 15C21.7909 15 20 13.2091 20 11C20 8.79086 21.7909 7 24 7C26.2091 7 28 8.79086 28 11Z" fill="#333333"/>
<path fill-rule="evenodd" clip-rule="evenodd" d="M15 36.5457C15 33.7932 16.1887 31.3185 18.0754 29.634C18.0244 29.4046 17.9999 29.1903 17.9999 29V24C15.7431 23.0192 13.9489 21.0998 12.4999 17.995C12.1666 17.3283 11.7999 15.695 12.9999 14.495C14.1999 13.295 15.4999 13.5001 16.4999 13.995C16.9616 14.2235 17.4232 14.785 17.9724 15.4528C19.2074 16.9549 20.8849 18.995 23.9999 18.995C27.115 18.995 28.7925 16.9549 30.0275 15.4528C30.5766 14.785 31.0383 14.2235 31.4999 13.995C32.4999 13.5001 33.7999 13.295 34.9999 14.495C36.1999 15.695 35.8333 17.3283 35.4999 17.995C34.051 21.0998 32.2568 23.0192 29.9999 24V29C29.9999 29.1902 29.9755 29.4046 29.9245 29.6339C31.8113 31.3184 33 33.7932 33 36.5457C33 37.4721 32.7902 38.9699 32.2468 40.2704C31.7286 41.5103 30.7076 42.9999 28.8889 42.9999C27.0883 42.9999 25.6667 41.5135 25.6667 39.7273C25.6667 38.971 25.9589 38.2966 26.1635 37.8246L26.193 37.7564C26.4281 37.2117 26.5556 36.8783 26.5556 36.5457C26.5556 36.2057 26.3766 35.6737 26.015 35.0863C25.6833 34.5475 25.2814 34.0976 24.9683 33.8516C24.6489 33.9418 24.322 34 23.9999 34C23.6779 34 23.351 33.9418 23.0317 33.8516C22.7186 34.0976 22.3167 34.5475 21.985 35.0863C21.6234 35.6737 21.4444 36.2057 21.4444 36.5457C21.4444 36.887 21.5714 37.214 21.8053 37.7497L21.833 37.8129C22.0394 38.2839 22.3333 38.9546 22.3333 39.7273C22.3333 41.5135 20.9117 42.9999 19.1111 42.9999C17.286 42.9999 16.2551 41.5989 15.7281 40.3411C15.1874 39.0506 15 37.5479 15 36.5457ZM17 36.5457C17 34.5813 17.7676 32.8055 19.0085 31.5109C19.4817 32.0943 20.1358 32.6314 20.9999 33L21.034 33.0147C20.7604 33.3281 20.5034 33.678 20.2819 34.0378C19.8416 34.753 19.4444 35.6642 19.4444 36.5457C19.4444 37.3428 19.7427 38.0247 19.9528 38.505L19.9724 38.55C20.2103 39.0947 20.3333 39.4071 20.3333 39.7273C20.3333 40.4514 19.7651 40.9999 19.1111 40.9999C18.5227 40.9999 17.9979 40.583 17.5728 39.5682C17.1613 38.5862 17 37.3617 17 36.5457ZM26.9999 33C27.8641 32.6314 28.5182 32.0943 28.9915 31.5109C30.2324 32.8054 31 34.5813 31 36.5457C31 37.2512 30.8271 38.4805 30.4014 39.4992C29.9504 40.5784 29.4159 40.9999 28.8889 40.9999C28.2349 40.9999 27.6667 40.4514 27.6667 39.7273C27.6667 39.4203 27.7894 39.1047 28.0292 38.549L28.0491 38.5031C28.258 38.0199 28.5556 37.3316 28.5556 36.5457C28.5556 35.6642 28.1584 34.753 27.7181 34.0378C27.4966 33.678 27.2396 33.328 26.966 33.0146L26.9999 33ZM14.3009 17.1247L14.3123 17.1492C15.6255 19.9632 17.1206 21.4372 18.7971 22.1657L19.9999 22.6885V26H27.9999V22.6885L29.2028 22.1657C30.8792 21.4372 32.3744 19.9632 33.6876 17.1492L33.699 17.1247L33.7111 17.1005C33.7465 17.0298 33.8329 16.7778 33.8256 16.4969C33.8195 16.2629 33.7555 16.079 33.5857 15.9092C33.4356 15.7591 33.32 15.6896 33.2472 15.6559C33.176 15.623 33.1143 15.6094 33.0523 15.6056C32.9152 15.5972 32.697 15.6348 32.3913 15.7854C32.3983 15.782 32.4022 15.7802 32.4026 15.7809C32.4033 15.7818 32.3968 15.788 32.382 15.8022C32.3294 15.8525 32.1719 16.003 31.8611 16.3739C31.7839 16.4661 31.6981 16.5706 31.6047 16.6842C31.2575 17.1069 30.8064 17.6559 30.309 18.1676C28.9748 19.5399 26.9906 20.995 23.9999 20.995C21.0093 20.995 19.0251 19.5399 17.6909 18.1676C17.1935 17.6559 16.7424 17.1069 16.3952 16.6842C16.3019 16.5707 16.2159 16.466 16.1387 16.3739C15.828 16.003 15.6705 15.8525 15.6178 15.8022C15.603 15.788 15.5965 15.7818 15.5972 15.7809C15.5977 15.7802 15.601 15.7817 15.607 15.7847C15.3022 15.6347 15.0845 15.5972 14.9476 15.6056C14.8856 15.6094 14.8239 15.623 14.7527 15.6559C14.6799 15.6896 14.5643 15.7591 14.4141 15.9092C14.2443 16.079 14.1803 16.2629 14.1743 16.4969C14.167 16.7778 14.2534 17.0298 14.2888 17.1005L14.3009 17.1247ZM27.9999 28H19.9999V29C19.9999 29.1189 20.0679 29.5184 20.3735 29.9917C20.6578 30.4318 21.1082 30.8718 21.7847 31.1604C21.9752 31.2417 22.1895 31.3436 22.3711 31.43L22.4746 31.4792C22.6968 31.5844 22.9028 31.6795 23.108 31.7628C23.5434 31.9395 23.8288 32 23.9999 32C24.1711 32 24.4565 31.9395 24.8919 31.7628C25.0971 31.6795 25.3031 31.5844 25.5253 31.4792L25.6286 31.4301C25.8102 31.3437 26.0247 31.2417 26.2152 31.1604C26.8917 30.8718 27.3421 30.4318 27.6263 29.9917C27.932 29.5184 27.9999 29.1189 27.9999 29V28Z" fill="#333333"/>
</svg>
