<svg width="48" height="48" viewBox="0 0 48 48" fill="none" xmlns="http://www.w3.org/2000/svg">
<path d="M19.7521 20.4179L20.5841 20.9726L20.5841 20.9726L19.7521 20.4179ZM15.7521 26.4179L16.5841 26.9726H16.5841L15.7521 26.4179ZM18.2482 28.0821L19.0803 28.6368H19.0803L18.2482 28.0821ZM19.5002 26.2042H20.5002V22.9014L18.6681 25.6495L19.5002 26.2042ZM22.5002 30.25V29.25H21.5002V30.25H22.5002ZM25.5002 30.25H26.5002V29.25H25.5002V30.25ZM28.5002 26.2042L29.3322 25.6495L27.5002 22.9014V26.2042H28.5002ZM29.7521 28.0821L28.92 28.6368L29.7521 28.0821ZM32.2482 26.4179L33.0803 25.8632L32.2482 26.4179ZM28.2482 20.4179L27.4162 20.9726L27.4162 20.9726L28.2482 20.4179ZM26.5002 14.75C26.5002 16.1307 25.3809 17.25 24.0002 17.25V19.25C26.4854 19.25 28.5002 17.2353 28.5002 14.75H26.5002ZM24.0002 12.25C25.3809 12.25 26.5002 13.3693 26.5002 14.75H28.5002C28.5002 12.2647 26.4854 10.25 24.0002 10.25V12.25ZM21.5002 14.75C21.5002 13.3693 22.6194 12.25 24.0002 12.25V10.25C21.5149 10.25 19.5002 12.2647 19.5002 14.75H21.5002ZM24.0002 17.25C22.6194 17.25 21.5002 16.1307 21.5002 14.75H19.5002C19.5002 17.2353 21.5149 19.25 24.0002 19.25V17.25ZM20.5841 20.9726C20.6769 20.8336 20.833 20.75 21.0002 20.75V18.75C20.1643 18.75 19.3837 19.1678 18.92 19.8633L20.5841 20.9726ZM16.5841 26.9726L20.5841 20.9726L18.92 19.8632L14.92 25.8632L16.5841 26.9726ZM16.7228 27.666C16.493 27.5128 16.431 27.2024 16.5841 26.9726L14.92 25.8632C14.1542 27.0121 14.4646 28.5642 15.6134 29.3301L16.7228 27.666ZM17.4162 27.5273C17.263 27.7571 16.9526 27.8192 16.7228 27.666L15.6134 29.3301C16.7622 30.096 18.3144 29.7856 19.0803 28.6368L17.4162 27.5273ZM18.6681 25.6495L17.4162 27.5273L19.0803 28.6368L20.3322 26.7589L18.6681 25.6495ZM20.5002 35.25V26.2042H18.5002V35.25H20.5002ZM21.0002 35.75C20.724 35.75 20.5002 35.5261 20.5002 35.25H18.5002C18.5002 36.6307 19.6194 37.75 21.0002 37.75V35.75ZM21.5002 35.25C21.5002 35.5261 21.2763 35.75 21.0002 35.75V37.75C22.3809 37.75 23.5002 36.6307 23.5002 35.25H21.5002ZM21.5002 30.25V35.25H23.5002V30.25H21.5002ZM25.5002 29.25H22.5002V31.25H25.5002V29.25ZM26.5002 35.25V30.25H24.5002V35.25H26.5002ZM27.0002 35.75C26.724 35.75 26.5002 35.5261 26.5002 35.25H24.5002C24.5002 36.6307 25.6195 37.75 27.0002 37.75V35.75ZM27.5002 35.25C27.5002 35.5261 27.2763 35.75 27.0002 35.75V37.75C28.3809 37.75 29.5002 36.6307 29.5002 35.25H27.5002ZM27.5002 26.2042V35.25H29.5002V26.2042H27.5002ZM30.5841 27.5273L29.3322 25.6495L27.6681 26.7589L28.92 28.6368L30.5841 27.5273ZM31.2775 27.666C31.0477 27.8192 30.7373 27.7571 30.5841 27.5273L28.92 28.6368C29.6859 29.7856 31.2381 30.096 32.3869 29.3301L31.2775 27.666ZM31.4162 26.9726C31.5694 27.2024 31.5073 27.5128 31.2775 27.666L32.3869 29.3301C33.5357 28.5642 33.8462 27.0121 33.0803 25.8632L31.4162 26.9726ZM27.4162 20.9726L31.4162 26.9726L33.0803 25.8632L29.0803 19.8632L27.4162 20.9726ZM27.0002 20.75C27.1673 20.75 27.3235 20.8336 27.4162 20.9726L29.0803 19.8633C28.6166 19.1678 27.836 18.75 27.0002 18.75V20.75ZM21.0002 20.75H27.0002V18.75H21.0002V20.75Z" fill="#333333"/>
</svg>
