<svg width="48" height="48" viewBox="0 0 48 48" fill="none" xmlns="http://www.w3.org/2000/svg">
<path d="M20.6431 16.5L20.6345 17.5H20.6431V16.5ZM15.4778 22.0381L16.2447 22.6799L16.2518 22.6714L16.2587 22.6628L15.4778 22.0381ZM15.2829 22.3379L16.1798 22.78L16.1806 22.7785L15.2829 22.3379ZM15.1293 22.9766L16.1292 22.9929L16.1292 22.9915L15.1293 22.9766ZM15.2629 23.6198L16.1739 23.2074L16.1732 23.2058L15.2629 23.6198ZM15.4483 23.9255L16.2483 23.3255L16.2417 23.3166L16.2349 23.308L15.4483 23.9255ZM19.1292 28.4144H20.1292V27.7066L19.4616 27.4713L19.1292 28.4144ZM22.1292 31V30H21.1292V31H22.1292ZM25.1292 31H26.1292V30H25.1292V31ZM28.1292 28.4144L27.7968 27.4713L27.1292 27.7066V28.4144H28.1292ZM31.8101 23.9254L31.0236 23.3079L31.0167 23.3166L31.0101 23.3254L31.8101 23.9254ZM31.9955 23.6198L31.0852 23.2058L31.0845 23.2074L31.9955 23.6198ZM32.1291 22.9766L31.1292 22.9915V22.9929L32.1291 22.9766ZM31.9755 22.3379L31.0778 22.7785L31.0786 22.78L31.9755 22.3379ZM31.7806 22.0381L30.9997 22.6628L31.0066 22.6714L31.0137 22.6799L31.7806 22.0381ZM27.8092 17.0738L27.023 17.6918L27.0283 17.6985L27.8092 17.0738ZM27.7605 17.015L27.0058 17.6711L27.0066 17.672L27.7605 17.015ZM27.2791 16.6477L26.8453 17.5487L26.8466 17.5493L27.2791 16.6477ZM26.6917 16.5013L26.6496 17.5004H26.6508L26.6917 16.5013ZM26.6153 16.5V17.5H26.6239L26.6153 16.5ZM28.732 23.0296L29.532 23.6296L29.9968 23.0099L29.5128 22.4049L28.732 23.0296ZM28.1292 22.2762L28.9101 21.6515L27.1292 19.4254V22.2762H28.1292ZM28.1292 23.8333H27.1292V26.8333L28.9292 24.4333L28.1292 23.8333ZM18.5264 23.0296L17.7456 22.4049L17.2616 23.0099L17.7264 23.6296L18.5264 23.0296ZM19.1292 23.8334L18.3292 24.4334L20.1292 26.8334V23.8334H19.1292ZM19.1292 22.2761H20.1292V19.4254L18.3484 21.6514L19.1292 22.2761ZM26.6292 11C26.6292 12.6568 25.2861 14 23.6292 14V16C26.3906 16 28.6292 13.7614 28.6292 11H26.6292ZM23.6292 8C25.2861 8 26.6292 9.34315 26.6292 11H28.6292C28.6292 8.23858 26.3906 6 23.6292 6V8ZM20.6292 11C20.6292 9.34315 21.9724 8 23.6292 8V6C20.8678 6 18.6292 8.23858 18.6292 11H20.6292ZM23.6292 14C21.9724 14 20.6292 12.6568 20.6292 11H18.6292C18.6292 13.7614 20.8678 16 23.6292 16V14ZM20.2388 17.6877C20.3382 17.5634 20.4837 17.4987 20.6345 17.5L20.6517 15.5C19.9137 15.4937 19.1759 15.8146 18.677 16.4383L20.2388 17.6877ZM16.2587 22.6628L20.2388 17.6877L18.677 16.4383L14.6969 21.4134L16.2587 22.6628ZM16.1806 22.7785C16.1978 22.7434 16.2192 22.7103 16.2447 22.6799L14.7109 21.3963C14.581 21.5516 14.4722 21.7201 14.3852 21.8973L16.1806 22.7785ZM16.1292 22.9915C16.1303 22.9182 16.1472 22.8462 16.1798 22.78L14.386 21.8957C14.2191 22.2342 14.1348 22.599 14.1294 22.9617L16.1292 22.9915ZM16.1732 23.2058C16.1427 23.1387 16.128 23.0662 16.1292 22.9929L14.1295 22.9602C14.1235 23.3229 14.1963 23.6901 14.3526 24.0337L16.1732 23.2058ZM16.2349 23.308C16.2103 23.2767 16.19 23.243 16.1739 23.2074L14.3519 24.0321C14.4332 24.2119 14.5367 24.3837 14.6618 24.543L16.2349 23.308ZM19.2292 27.3L16.2483 23.3255L14.6483 24.5255L17.6292 28.5L19.2292 27.3ZM19.4616 27.4713C19.3723 27.4398 19.2916 27.3832 19.2292 27.3L17.6292 28.5C17.9359 28.909 18.3464 29.1988 18.7968 29.3575L19.4616 27.4713ZM20.1292 39V28.4144H18.1292V39H20.1292ZM20.6292 39.5C20.3531 39.5 20.1292 39.2761 20.1292 39H18.1292C18.1292 40.3807 19.2485 41.5 20.6292 41.5V39.5ZM21.1292 39C21.1292 39.2761 20.9054 39.5 20.6292 39.5V41.5C22.0099 41.5 23.1292 40.3807 23.1292 39H21.1292ZM21.1292 31V39H23.1292V31H21.1292ZM25.1292 30H22.1292V32H25.1292V30ZM26.1292 39V31H24.1292V39H26.1292ZM26.6292 39.5C26.3531 39.5 26.1292 39.2761 26.1292 39H24.1292C24.1292 40.3807 25.2485 41.5 26.6292 41.5V39.5ZM27.1292 39C27.1292 39.2761 26.9054 39.5 26.6292 39.5V41.5C28.01 41.5 29.1292 40.3807 29.1292 39H27.1292ZM27.1292 28.4144V39H29.1292V28.4144H27.1292ZM28.4617 29.3575C28.912 29.1987 29.3225 28.9089 29.6292 28.5L28.0292 27.3C27.9668 27.3832 27.8861 27.4398 27.7968 27.4713L28.4617 29.3575ZM29.6292 28.5L32.6101 24.5254L31.0101 23.3254L28.0292 27.3L29.6292 28.5ZM31.0845 23.2074C31.0684 23.243 31.0481 23.2767 31.0236 23.3079L32.5967 24.5429C32.7217 24.3837 32.8252 24.2119 32.9066 24.0321L31.0845 23.2074ZM32.9058 24.0337C33.0621 23.6901 33.1349 23.3229 33.129 22.9602L31.1292 22.9929C31.1304 23.0662 31.1157 23.1387 31.0852 23.2058L32.9058 24.0337ZM31.0786 22.78C31.1112 22.8461 31.1281 22.9182 31.1292 22.9915L33.129 22.9617C33.1236 22.599 33.0393 22.2342 32.8724 21.8957L31.0786 22.78ZM32.8732 21.8973C32.7862 21.7201 32.6775 21.5516 32.5475 21.3963L31.0137 22.6799C31.0392 22.7103 31.0606 22.7434 31.0778 22.7785L32.8732 21.8973ZM27.0283 17.6985L30.9997 22.6628L32.5615 21.4134L28.5901 16.4491L27.0283 17.6985ZM27.0066 17.672C27.0122 17.6784 27.0177 17.685 27.023 17.6918L28.5954 16.4559C28.5692 16.4226 28.5422 16.3899 28.5144 16.358L27.0066 17.672ZM26.8466 17.5493C26.9052 17.5775 26.9594 17.6177 27.0058 17.6711L28.5151 16.3588C28.286 16.0953 28.0112 15.8898 27.7117 15.7461L26.8466 17.5493ZM26.6508 17.5004C26.7215 17.5033 26.7867 17.5205 26.8453 17.5487L27.713 15.7467C27.4137 15.6026 27.0815 15.5164 26.7326 15.5021L26.6508 17.5004ZM26.6239 17.5C26.6325 17.4999 26.6411 17.5 26.6496 17.5004L26.7338 15.5022C26.6915 15.5004 26.6491 15.4997 26.6068 15.5L26.6239 17.5ZM20.6431 17.5H26.6153V15.5H20.6431V17.5ZM29.5128 22.4049L28.9101 21.6515L27.3484 22.9009L27.9511 23.6543L29.5128 22.4049ZM27.1292 22.2762V23.8333H29.1292V22.2762H27.1292ZM27.932 22.4296L27.3292 23.2333L28.9292 24.4333L29.532 23.6296L27.932 22.4296ZM17.7264 23.6296L18.3292 24.4334L19.9292 23.2334L19.3264 22.4296L17.7264 23.6296ZM18.3484 21.6514L17.7456 22.4049L19.3073 23.6543L19.9101 22.9008L18.3484 21.6514ZM20.1292 23.8334V22.2761H18.1292V23.8334H20.1292Z" fill="#333333"/>
<path fill-rule="evenodd" clip-rule="evenodd" d="M19.6291 16C19.6291 15.4477 20.0768 15 20.6291 15V13C18.9723 13 17.6291 14.3432 17.6291 16V18H19.6291V16ZM20.6291 21.8918V16H22.6292V21.8918C22.6292 22.9259 22.0965 23.8871 21.2198 24.4354L20.9518 24.603L21.6251 25.5006C22.4535 26.6052 22.2296 28.1722 21.1251 29.0006C20.0205 29.8291 18.4535 29.6052 17.6251 28.5006L15 25.0006H17.5L19.2251 27.3006C19.3907 27.5216 19.7041 27.5663 19.9251 27.4006C20.146 27.235 20.1907 26.9216 20.0251 26.7006L18.75 25.0006H19.3898L18.5898 23.7211L19.6251 23.0738V22.834L19.7475 22.9972L20.1593 22.7398C20.4516 22.5569 20.6291 22.2364 20.6291 21.8918ZM24.6292 21.9139V16H26.6292V21.9139C26.6292 22.2527 26.8006 22.5683 27.0846 22.7526L27.4919 23.017L27.6291 22.834V23.1061L28.6181 23.7481L27.8051 25.0006H28.5042L27.2291 26.7006C27.0635 26.9216 27.1082 27.235 27.3291 27.4006C27.5501 27.5663 27.8636 27.521 28.0292 27.3L29.7542 25.0006H32.2542L29.6292 28.5C28.8008 29.6046 27.2337 29.8291 26.1291 29.0006C25.0246 28.1722 24.8007 26.6052 25.6291 25.5006L26.289 24.6207L25.9956 24.4302C25.1434 23.8769 24.6292 22.9299 24.6292 21.9139ZM26.6291 15C27.1814 15 27.6291 15.4477 27.6291 16V18H29.6291V16C29.6291 14.3432 28.286 13 26.6291 13V15Z" fill="#333333"/>
</svg>
