<svg width="48" height="48" viewBox="0 0 48 48" fill="none" xmlns="http://www.w3.org/2000/svg">
<path fill-rule="evenodd" clip-rule="evenodd" d="M20.6292 21.8918V16H22.6292V21.8918C22.6292 22.9259 22.0965 23.8871 21.2197 24.4354L19.6502 25.4169L18.5898 23.7212L20.1594 22.7397C20.4516 22.5569 20.6292 22.2365 20.6292 21.8918Z" fill="#333333"/>
<path fill-rule="evenodd" clip-rule="evenodd" d="M26.6292 21.9139V16H24.6292V21.9139C24.6292 22.9299 25.1434 23.8769 25.9956 24.4301L27.529 25.4257L28.6181 23.7482L27.0847 22.7527C26.8006 22.5682 26.6292 22.2526 26.6292 21.9139Z" fill="#333333"/>
<path fill-rule="evenodd" clip-rule="evenodd" d="M23.6292 8C21.9724 8 20.6292 9.34315 20.6292 11C20.6292 12.6569 21.9724 14 23.6292 14C25.2861 14 26.6292 12.6569 26.6292 11C26.6292 9.34315 25.2861 8 23.6292 8ZM18.6292 11C18.6292 8.23858 20.8678 6 23.6292 6C26.3906 6 28.6292 8.23858 28.6292 11C28.6292 12.9791 27.4794 14.6896 25.8113 15.5H26.6117C26.652 15.4997 26.6923 15.5004 26.7326 15.5021M18.6292 11C18.6292 12.9791 19.7791 14.6896 21.4471 15.5L18.6292 11ZM21.4471 15.5H20.6468C19.9104 15.4951 19.1748 15.816 18.677 16.4383L14.703 21.4059C14.5767 21.5583 14.4707 21.7232 14.3856 21.8965C14.2192 22.2344 14.1351 22.5983 14.1295 22.9602M33.129 22.9602C33.129 22.9607 33.129 22.9612 33.129 22.9617L32.1291 22.9766L33.129 22.9602ZM33.129 22.9602C33.1234 22.5986 33.0394 22.2349 32.8732 21.8973C32.788 21.7237 32.6819 21.5585 32.5555 21.4059L28.5924 16.4521C28.5674 16.4204 28.5416 16.3893 28.5151 16.3588M26.6496 17.5004C26.6411 17.5 26.6325 17.4999 26.6239 17.5L26.6153 17.5L20.6345 17.5C20.4837 17.4987 20.3382 17.5634 20.2388 17.6877L16.2518 22.6714L16.2447 22.6799C16.2192 22.7103 16.1978 22.7434 16.1806 22.7785L16.1798 22.78C16.1472 22.8462 16.1303 22.9182 16.1292 22.9915L16.1292 22.9929C16.128 23.0662 16.1427 23.1387 16.1732 23.2058L16.1739 23.2074C16.19 23.243 16.2104 23.2767 16.2349 23.308L16.2417 23.3166L19.2292 27.3C19.2916 27.3832 19.3723 27.4398 19.4617 27.4713L20.1292 27.7066V39C20.1292 39.2761 20.3531 39.5 20.6292 39.5C20.9054 39.5 21.1292 39.2761 21.1292 39V30H26.1292V39C26.1292 39.2761 26.3531 39.5 26.6292 39.5C26.9054 39.5 27.1292 39.2761 27.1292 39V27.7066L27.7968 27.4713C27.8861 27.4398 27.9668 27.3832 28.0292 27.3L31.0167 23.3166L31.0236 23.3079C31.0481 23.2767 31.0684 23.243 31.0845 23.2074L31.0852 23.2058C31.1157 23.1387 31.1304 23.0662 31.1292 22.9929L31.1292 22.9915C31.1281 22.9182 31.1112 22.8461 31.0786 22.78L31.0778 22.7785C31.0606 22.7434 31.0392 22.7103 31.0137 22.6799L31.0066 22.6714L27.023 17.6918C27.0177 17.685 27.0122 17.6784 27.0066 17.672L27.0058 17.6711C26.9594 17.6177 26.9052 17.5775 26.8466 17.5493L26.8453 17.5487C26.7867 17.5205 26.7215 17.5033 26.6508 17.5004L26.6496 17.5004ZM20.1292 19.4254V26.8334L17.2616 23.0099L20.1292 19.4254ZM27.1292 19.4254L29.9968 23.0099L27.1292 26.8333V19.4254Z" fill="#333333"/>
<path fill-rule="evenodd" clip-rule="evenodd" d="M27.6291 22.834L25.6291 25.5006C24.8007 26.6052 25.0246 28.1722 26.1291 29.0006C27.2337 29.8291 28.8007 29.6052 29.6291 28.5006L32.2542 25.0006H29.7542L28.0291 27.3006C27.8635 27.5216 27.5501 27.5663 27.3291 27.4006C27.1082 27.235 27.0635 26.9216 27.2291 26.7006L28.5042 25.0006H27.6291V22.834Z" fill="#333333"/>
<path fill-rule="evenodd" clip-rule="evenodd" d="M19.6251 22.834L21.6251 25.5006C22.4535 26.6052 22.2296 28.1722 21.1251 29.0006C20.0205 29.8291 18.4535 29.6052 17.6251 28.5006L15 25.0006H17.5L19.2251 27.3006C19.3908 27.5216 19.7042 27.5663 19.9251 27.4006C20.146 27.235 20.1908 26.9216 20.0251 26.7006L18.75 25.0006H19.6251V22.834Z" fill="#333333"/>
<path fill-rule="evenodd" clip-rule="evenodd" d="M20.6291 15C20.0768 15 19.6291 15.4477 19.6291 16V18H17.6291V16C17.6291 14.3431 18.9723 13 20.6291 13V15Z" fill="#333333"/>
<path fill-rule="evenodd" clip-rule="evenodd" d="M26.6291 15C27.1814 15 27.6291 15.4477 27.6291 16V18H29.6291V16C29.6291 14.3431 28.286 13 26.6291 13V15Z" fill="#333333"/>
</svg>
