<svg width="48" height="48" viewBox="0 0 48 48" fill="none" xmlns="http://www.w3.org/2000/svg">
<path fill-rule="evenodd" clip-rule="evenodd" d="M31.7208 11C33.93 11 35.7208 9.20918 35.7208 7C35.7208 4.79091 33.93 3 31.7208 3C29.5117 3 27.7208 4.79091 27.7208 7C27.7208 9.20918 29.5117 11 31.7208 11ZM33.7208 7C33.7208 8.10461 32.8254 9 31.7208 9C30.6163 9 29.7208 8.10458 29.7208 7C29.7208 5.89548 30.6163 5 31.7208 5C32.8254 5 33.7208 5.89545 33.7208 7Z" fill="#333333"/>
<path fill-rule="evenodd" clip-rule="evenodd" d="M13.6734 14.3028H15.9722L17.7156 12.5495C18.6308 11.6291 20.1187 11.6249 21.039 12.54C21.9594 13.4552 21.9636 14.9431 21.0485 15.8634L19.4866 17.4786C18.5446 18.4527 17.2476 19.0028 15.8924 19.0028H13.6734C12.3755 19.0028 11.3234 17.9507 11.3234 16.6528C11.3234 15.3549 12.3755 14.3028 13.6734 14.3028ZM19.6303 14.4532L19.6107 14.4731L18.0489 16.0883C17.4836 16.6728 16.7054 17.0028 15.8924 17.0028H13.6734C13.4801 17.0028 13.3234 16.8461 13.3234 16.6528C13.3234 16.4595 13.4801 16.3028 13.6734 16.3028H15.9722C16.5046 16.3028 17.0151 16.0905 17.3905 15.713L19.1339 13.9597C19.2702 13.8226 19.4918 13.822 19.6288 13.9583C19.7659 14.0946 19.7665 14.3162 19.6303 14.4532Z" fill="#333333"/>
<path fill-rule="evenodd" clip-rule="evenodd" d="M23 12C23 11.4477 23.4477 11 24 11H26.3432C27.6692 11 28.941 11.5268 29.8787 12.4645L31.4142 14H32.5C33.8807 14 35 15.1193 35 16.5C35 17.8807 33.8807 19 32.5 19H30.6667C30.0176 19 29.386 18.7895 28.8667 18.4L28 17.75L27.1333 18.4C26.614 18.7895 25.9825 19 25.3333 19H24C23.4477 19 23 18.5523 23 18V12ZM25 13V17H25.3333C25.5497 17 25.7602 16.9298 25.9333 16.8L27.4 15.7C27.7556 15.4333 28.2444 15.4333 28.6 15.7L30.0667 16.8C30.2398 16.9298 30.4503 17 30.6667 17H32.5C32.7761 17 33 16.7761 33 16.5C33 16.2239 32.7761 16 32.5 16H31C30.7348 16 30.4804 15.8946 30.2929 15.7071L28.4645 13.8787C27.9019 13.3161 27.1388 13 26.3432 13H25Z" fill="#333333"/>
<path fill-rule="evenodd" clip-rule="evenodd" d="M6.96954 17.0881C5.84438 17.0617 4.7156 17.7484 4.35017 18.8122C4.25891 19.0779 4.20691 19.4322 4.17028 19.7667C4.13074 20.1278 4.09999 20.5621 4.07608 21.0379C4.02818 21.991 4.00576 23.1516 4.00099 24.3067C3.99155 26.5909 4.05079 28.9602 4.13317 29.6885C4.27584 30.9498 5.00963 32.1294 5.66446 33.182L5.73154 33.2899C5.92873 33.6073 6.12493 33.9231 6.31737 34.2501C7.16938 35.6981 8.09625 36.6732 8.94401 37.5652L8.96129 37.5833C9.36428 38.0073 9.74487 38.4086 10.1081 38.8405V45.1119H23.1081V38.1119H20.9445C20.7985 36.8822 20.6316 35.4033 20.6147 34.949C20.5998 34.5463 20.463 34.1473 20.3311 33.8363C20.1915 33.5069 20.016 33.1824 19.8524 32.9055C19.6873 32.6259 19.5248 32.3788 19.4041 32.2022C19.3434 32.1134 19.2926 32.0413 19.2562 31.9906C19.2452 31.9752 19.2355 31.9617 19.2273 31.9504C19.2219 31.9429 19.2171 31.9364 19.213 31.9307L19.2006 31.9137L19.1968 31.9086L19.1956 31.907L19.1949 31.9061L19.1841 31.8915L15.4905 27.2707L15.4608 27.2396L15.4601 27.2389L15.4543 27.2327L15.4268 27.2031C15.4018 27.1759 15.3638 27.1341 15.3156 27.0796C15.2192 26.9703 15.0833 26.8114 14.9302 26.6176C14.6185 26.2229 14.2593 25.7139 14.0072 25.2021C13.759 24.698 13.303 24.2381 12.6186 24.2037C12.0308 24.1741 11.5625 24.4836 11.278 24.7357C10.8448 25.1196 10.4719 25.693 10.26 26.2801C10.2553 25.8573 10.2622 25.39 10.2699 24.8843L10.2714 24.7873C10.296 23.185 10.3267 21.1871 9.85888 19.6572C9.35294 18.0026 8.24317 17.1181 6.96954 17.0881ZM18.3919 32.502L19.1949 31.9061C19.1949 31.906 19.1948 31.9059 18.3919 32.502ZM12.624 33.5123L14.2221 32.3519L12.1309 28.2305L12.1271 28.221C12.1181 28.1977 12.0994 28.1443 12.0819 28.0613C12.0472 27.8975 12.0144 27.6066 12.079 27.1899C12.0991 27.0596 12.1618 26.873 12.2705 26.6748C12.3147 26.5941 12.3616 26.5206 12.4085 26.4558C12.7148 27.0002 13.0715 27.4911 13.3608 27.8573C13.5404 28.0846 13.7002 28.2717 13.8163 28.4032C13.8744 28.4691 13.9219 28.5213 13.9557 28.558L13.9806 28.5849L17.5979 33.1103L17.63 33.1547C17.6589 33.1951 17.7013 33.2552 17.7528 33.3305C17.8564 33.4822 17.9936 33.6911 18.1303 33.9225C18.2686 34.1567 18.397 34.3981 18.4898 34.6171C18.5904 34.8543 18.6147 34.9859 18.6161 35.0232C18.6413 35.7032 18.9163 38.0131 19.065 39.2329L19.1721 40.1119H21.1081V43.1119H12.1081V40.1119H13.5032L12.3983 38.5374C11.7515 37.6159 11.0662 36.8949 10.4277 36.2231L10.411 36.2055C9.55903 35.3092 8.77094 34.4762 8.04109 33.2359C7.83547 32.8864 7.62769 32.552 7.43308 32.2388L7.43032 32.2344C6.68348 31.0324 6.20687 30.2273 6.12049 29.4637C6.05351 28.8715 5.99144 26.6205 6.00097 24.315C6.00568 23.1752 6.02782 22.0485 6.07356 21.1383C6.09647 20.6824 6.12481 20.2911 6.15839 19.9844C6.17518 19.8312 6.19243 19.7069 6.20935 19.611C6.21774 19.5634 6.22538 19.5266 6.23184 19.4994L8.28102 23.3403C8.28479 23.8338 8.27796 24.3423 8.27017 24.8539L8.26977 24.8802C8.25801 25.6515 8.24615 26.4292 8.28569 27.0961C8.32315 27.7281 8.4123 28.4516 8.72063 28.9942C9.16383 29.774 10.1846 30.9357 11.0074 31.8266C11.4354 32.2901 11.8387 32.7106 12.1346 33.015C12.2828 33.1673 12.4045 33.291 12.4894 33.3769L12.588 33.4763L12.6143 33.5026L12.624 33.5123ZM8.28069 23.2996L13.3303 32.8044L8.28102 23.3403L8.28069 23.2996ZM8.28069 23.2996L6.24175 19.4618C6.28818 19.327 6.55249 19.0789 6.92249 19.0876C7.14419 19.0928 7.6319 19.2138 7.9463 20.242C8.20045 21.0731 8.27046 22.1441 8.28069 23.2996Z" fill="#333333"/>
<path fill-rule="evenodd" clip-rule="evenodd" d="M41.1205 17.0881C42.2457 17.0617 43.3744 17.7484 43.7399 18.8122C43.8311 19.0779 43.8831 19.4322 43.9198 19.7667C43.9593 20.1278 43.9901 20.5621 44.014 21.0379C44.0619 21.991 44.0843 23.1516 44.0891 24.3067C44.0985 26.5909 44.0393 28.9602 43.9569 29.6885C43.8142 30.9498 43.0804 32.1294 42.4256 33.182L42.3585 33.2899C42.1613 33.6073 41.9651 33.9231 41.7727 34.2501C40.9207 35.6981 39.9938 36.6732 39.146 37.5652L39.1287 37.5833C38.7258 38.0073 38.3452 38.4086 37.9819 38.8405V45.1119H24.9819V38.1119H27.1455C27.2916 36.8822 27.4585 35.4033 27.4753 34.949C27.4903 34.5463 27.6271 34.1473 27.7589 33.8363C27.8986 33.5069 28.0741 33.1824 28.2376 32.9055C28.4027 32.6259 28.5652 32.3788 28.6859 32.2022C28.7466 32.1134 28.7975 32.0413 28.8338 31.9906C28.852 31.9652 28.8666 31.945 28.877 31.9307L28.8895 31.9137L28.8932 31.9086L28.8951 31.9061L29.6982 32.502C28.8953 31.9059 28.8952 31.906 28.8951 31.9061L28.9059 31.8915L32.5995 27.2707L32.6292 27.2396L32.6299 27.2389L32.6357 27.2327L32.6632 27.2031C32.6883 27.1759 32.7263 27.1341 32.7744 27.0796C32.8709 26.9703 33.0067 26.8114 33.1598 26.6176C33.4716 26.2229 33.8307 25.7139 34.0828 25.2021C34.3311 24.698 34.787 24.2381 35.4715 24.2037C36.0592 24.1741 36.5276 24.4836 36.8121 24.7357C37.2452 25.1196 37.6182 25.693 37.8301 26.2801C37.8347 25.8573 37.8278 25.39 37.8201 24.8843L37.8186 24.7873C37.794 23.185 37.7633 21.1871 38.2312 19.6572C38.7371 18.0026 39.8469 17.1181 41.1205 17.0881ZM35.466 33.5123L33.868 32.3519L35.9591 28.2305L35.9629 28.221C35.9719 28.1977 35.9906 28.1443 36.0082 28.0613C36.0428 27.8975 36.0756 27.6066 36.0111 27.1899C35.9909 27.0596 35.9283 26.873 35.8196 26.6748C35.7753 26.5941 35.7284 26.5206 35.6816 26.4558C35.3752 27.0002 35.0185 27.4911 34.7292 27.8573C34.5496 28.0846 34.3898 28.2717 34.2738 28.4032C34.2156 28.4691 34.1682 28.5213 34.1343 28.558L34.1095 28.5849L30.4921 33.1103L30.4601 33.1547C30.4312 33.1951 30.3887 33.2552 30.3372 33.3305C30.2336 33.4822 30.0964 33.6911 29.9597 33.9225C29.8214 34.1567 29.6931 34.3981 29.6002 34.6171C29.4996 34.8543 29.4753 34.9859 29.4739 35.0232C29.4487 35.7032 29.1737 38.0131 29.025 39.2329L28.9179 40.1119H26.9819V43.1119H35.9819V40.1119H34.5868L35.6918 38.5374C36.3385 37.6159 37.0238 36.895 37.6622 36.2233L37.6791 36.2055C38.531 35.3092 39.3191 34.4762 40.049 33.2359C40.2545 32.8865 40.4623 32.5522 40.6568 32.239L40.6597 32.2344C41.4066 31.0324 41.8832 30.2273 41.9695 29.4637C42.0365 28.8715 42.0986 26.6205 42.0891 24.315C42.0844 23.1752 42.0622 22.0485 42.0165 21.1383C41.9936 20.6824 41.9652 20.2911 41.9316 19.9844C41.9149 19.8312 41.8976 19.7069 41.8807 19.611C41.8723 19.5634 41.8647 19.5266 41.8582 19.4994L39.809 23.3403L39.8093 23.2996L41.8483 19.4618C41.8019 19.327 41.5375 19.0789 41.1675 19.0876C40.9459 19.0928 40.4581 19.2138 40.1437 20.242C39.8896 21.0731 39.8196 22.1441 39.8093 23.2996L34.7598 32.8044L39.809 23.3403C39.8052 23.8338 39.8121 24.3423 39.8199 24.8539L39.8203 24.8802C39.832 25.6514 39.8439 26.4292 39.8044 27.0961C39.7669 27.7281 39.6777 28.4516 39.3694 28.9942C38.9262 29.774 37.9055 30.9357 37.0827 31.8266C36.6547 32.2901 36.2514 32.7106 35.9554 33.015C35.8072 33.1673 35.6856 33.291 35.6007 33.3769L35.502 33.4763L35.4757 33.5026L35.466 33.5123Z" fill="#333333"/>
</svg>
