<svg width="48" height="48" viewBox="0 0 48 48" fill="none" xmlns="http://www.w3.org/2000/svg">
<g clip-path="url(#clip0)">
<path fill-rule="evenodd" clip-rule="evenodd" d="M19.6107 14.4731L19.6302 14.4532C19.7665 14.3162 19.7659 14.0945 19.6288 13.9583C19.4917 13.822 19.2701 13.8226 19.1338 13.9597L17.3904 15.713C17.015 16.0905 16.5046 16.3028 15.9722 16.3028H13.6734C13.4801 16.3028 13.3234 16.4595 13.3234 16.6528C13.3234 16.8461 13.4801 17.0028 13.6734 17.0028H15.8924C16.7054 17.0028 17.4836 16.6728 18.0489 16.0883L19.6107 14.4731ZM15.9722 14.3028H13.6734C12.3755 14.3028 11.3234 15.3549 11.3234 16.6528C11.3234 17.9507 12.3755 19.0028 13.6734 19.0028H15.8924C17.2475 19.0028 18.5446 18.4527 19.4866 17.4786L21.0484 15.8634C21.9636 14.9431 21.9593 13.4552 21.039 12.54C20.1187 11.6249 18.6307 11.6291 17.7156 12.5495L15.9722 14.3028Z" fill="#333333"/>
<path fill-rule="evenodd" clip-rule="evenodd" d="M31.7208 9C32.8254 9 33.7208 8.10461 33.7208 7C33.7208 5.89545 32.8254 5 31.7208 5C30.6163 5 29.7208 5.89548 29.7208 7C29.7208 8.10458 30.6162 9 31.7208 9ZM35.7208 7C35.7208 9.20918 33.93 11 31.7208 11C29.5117 11 27.7208 9.20918 27.7208 7C27.7208 4.79091 29.5117 3 31.7208 3C33.93 3 35.7208 4.79091 35.7208 7Z" fill="#333333"/>
<path fill-rule="evenodd" clip-rule="evenodd" d="M30.8222 16.2529L27.914 13.2848C27.5379 12.9009 27.023 12.6846 26.4855 12.6846H24.3668L24.5825 16.998H25.4192C25.7055 16.9975 25.9887 16.9395 26.2519 16.8275M25.421 18.998H22.6801L22.2642 10.6846H26.4855C27.5605 10.6846 28.5902 11.1173 29.3426 11.8851L31.6626 14.2529H33.4019C34.7115 14.2529 35.7731 15.3145 35.7731 16.6241C35.7731 17.9324 34.7137 18.9935 33.4054 18.9952C32.2549 18.9966 31.0321 18.998 30.6164 18.998C30.6043 18.998 30.593 18.9965 30.5817 18.995C30.5704 18.9935 30.5591 18.992 30.5471 18.992C30.2659 18.9993 29.9861 18.9483 29.7256 18.8421C29.5698 18.7786 29.4228 18.6963 29.2879 18.5971C29.1972 18.5305 29.112 18.4563 29.0332 18.3752L28.3923 17.7333C28.3563 17.7708 28.3195 17.8074 28.2821 17.8434C27.9203 18.1913 27.4978 18.4707 27.0352 18.6677C26.5247 18.8849 25.9758 18.9972 25.421 18.998ZM30.4805 16.9901C30.4753 16.988 30.471 16.985 30.4677 16.9815L30.4582 16.9718L28.3677 14.878L26.9528 16.3449C26.754 16.551 26.5155 16.7152 26.2519 16.8275M30.4805 16.9901C30.4852 16.992 30.4901 16.9928 30.4949 16.9927L30.521 16.992H30.5471C30.609 16.992 30.6635 16.9947 30.708 16.998C31.1903 16.9979 32.3271 16.9965 33.4029 16.9952C33.6072 16.9949 33.7731 16.8292 33.7731 16.6241C33.7731 16.4191 33.6069 16.2529 33.4019 16.2529H30.8222" fill="#333333"/>
<path fill-rule="evenodd" clip-rule="evenodd" d="M23.0181 38.112L20.8545 38.112C20.7084 36.8822 20.5415 35.4032 20.5247 34.949C20.5097 34.5463 20.3729 34.1473 20.2411 33.8363C20.1014 33.5069 19.9259 33.1824 19.7624 32.9055C19.5973 32.6259 19.4347 32.3788 19.3141 32.2021C19.2534 32.1134 19.2025 32.0413 19.1662 31.9905C19.148 31.9651 19.1334 31.945 19.123 31.9307L19.1105 31.9137L19.1068 31.9086L19.1049 31.9061C19.1048 31.9059 19.1047 31.9058 18.3018 32.5019L19.1049 31.9061L19.0941 31.8915L15.4005 27.2707L15.3708 27.2396L15.3701 27.2388L15.3643 27.2327L15.3368 27.2031C15.3117 27.1759 15.2737 27.1341 15.2256 27.0796C15.1291 26.9703 14.9933 26.8114 14.8402 26.6175C14.5284 26.2229 14.1693 25.7139 13.9172 25.202C13.6689 24.698 13.213 24.238 12.5285 24.2036C11.9407 24.1741 11.4724 24.4835 11.1879 24.7357C10.9489 24.9475 10.7282 25.217 10.5428 25.5147C10.5135 25.1793 10.4866 24.8217 10.4583 24.4451L10.4533 24.3784C10.341 22.8811 10.2064 21.0881 9.76884 19.6571C9.26289 18.0025 8.15312 17.1181 6.8795 17.0881C5.75434 17.0616 4.62556 17.7484 4.26013 18.8122C4.16887 19.0778 4.11686 19.4322 4.08023 19.7667C4.04069 20.1277 4.00994 20.5621 3.98603 21.0379C3.93813 21.991 3.91572 23.1515 3.91094 24.3067C3.9015 26.5909 3.96074 28.9601 4.04312 29.6884C4.18579 30.9497 4.91958 32.1293 5.57441 33.182C5.59687 33.2181 5.61924 33.254 5.64149 33.2899C5.83869 33.6072 6.03488 33.9231 6.22732 34.2501C7.07933 35.698 8.0062 36.6732 8.85397 37.5651L8.87124 37.5833C9.27423 38.0073 9.65483 38.4086 10.0181 38.8404L10.0181 45.112L23.0181 45.112L23.0181 38.112ZM12.0181 40.112L12.0181 43.112L21.0181 43.112L21.0181 40.112L19.0821 40.112L18.975 39.233C18.8263 38.0133 18.5513 35.7032 18.5261 35.0232C18.5247 34.9858 18.5003 34.8543 18.3997 34.617C18.3069 34.3981 18.1786 34.1566 18.0403 33.9225C17.9036 33.691 17.7664 33.4821 17.6628 33.3305C17.6113 33.2551 17.5688 33.195 17.5399 33.1546C17.5258 33.1349 17.5149 33.12 17.5079 33.1103L13.8905 28.5848C13.8833 28.5771 13.875 28.5681 13.8656 28.558C13.8318 28.5213 13.7844 28.469 13.7262 28.4032C13.6102 28.2717 13.4503 28.0846 13.2708 27.8573C12.9815 27.491 12.6248 27.0002 12.3184 26.4557C12.2715 26.5206 12.2247 26.5941 12.1804 26.6747C12.0717 26.8729 12.0091 27.0595 11.9889 27.1898C11.9244 27.6066 11.9572 27.8975 11.9918 28.0612C12.0094 28.1442 12.0281 28.1977 12.0371 28.221C12.0387 28.225 12.04 28.2282 12.0409 28.2304L14.132 32.3519L12.435 33.3973L13.2402 32.8043" fill="#333333"/>
<path fill-rule="evenodd" clip-rule="evenodd" d="M24.9819 38.112L27.1455 38.112C27.2916 36.8822 27.4585 35.4032 27.4753 34.949C27.4903 34.5463 27.6271 34.1473 27.7589 33.8363C27.8986 33.5069 28.0741 33.1824 28.2376 32.9055C28.4027 32.6259 28.5653 32.3788 28.6859 32.2021C28.7466 32.1134 28.7975 32.0413 28.8338 31.9905C28.852 31.9651 28.8666 31.945 28.877 31.9307L28.8895 31.9137L28.8932 31.9086L28.8951 31.9061C28.8952 31.9059 28.8953 31.9058 29.6982 32.5019L28.8951 31.9061L28.9059 31.8915L32.5995 27.2707L32.6292 27.2396L32.6299 27.2388L32.6357 27.2327L32.6632 27.2031C32.6883 27.1759 32.7263 27.1341 32.7744 27.0796C32.8709 26.9703 33.0067 26.8114 33.1598 26.6175C33.4716 26.2229 33.8307 25.7139 34.0828 25.202C34.3311 24.698 34.787 24.238 35.4715 24.2036C36.0593 24.1741 36.5276 24.4835 36.8121 24.7357C37.0511 24.9475 37.2718 25.217 37.4572 25.5147C37.4865 25.1793 37.5134 24.8217 37.5417 24.4451L37.5467 24.3784C37.659 22.8811 37.7936 21.0881 38.2312 19.6571C38.7371 18.0025 39.8469 17.1181 41.1205 17.0881C42.2457 17.0616 43.3744 17.7484 43.7399 18.8122C43.8311 19.0778 43.8831 19.4322 43.9198 19.7667C43.9593 20.1277 43.9901 20.5621 44.014 21.0379C44.0619 21.991 44.0843 23.1515 44.0891 24.3067C44.0985 26.5909 44.0393 28.9601 43.9569 29.6884C43.8142 30.9497 43.0804 32.1293 42.4256 33.182C42.4031 33.2181 42.3808 33.254 42.3585 33.2899C42.1613 33.6072 41.9651 33.9231 41.7727 34.2501C40.9207 35.698 39.9938 36.6732 39.146 37.5651L39.1288 37.5833C38.7258 38.0073 38.3452 38.4086 37.9819 38.8404L37.9819 45.112L24.9819 45.112L24.9819 38.112ZM35.9819 40.112L35.9819 43.112L26.9819 43.112L26.9819 40.112L28.9179 40.112L29.025 39.233C29.1737 38.0133 29.4487 35.7032 29.4739 35.0232C29.4753 34.9858 29.4997 34.8543 29.6003 34.617C29.6931 34.3981 29.8214 34.1566 29.9597 33.9225C30.0964 33.691 30.2336 33.4821 30.3372 33.3305C30.3887 33.2551 30.4312 33.195 30.4601 33.1546C30.4742 33.1349 30.4851 33.12 30.4921 33.1103L34.1095 28.5848C34.1167 28.5771 34.125 28.5681 34.1344 28.558C34.1682 28.5213 34.2156 28.469 34.2738 28.4032C34.3898 28.2717 34.5497 28.0846 34.7292 27.8573C35.0185 27.491 35.3752 27.0002 35.6816 26.4557C35.7285 26.5206 35.7753 26.5941 35.8196 26.6747C35.9283 26.8729 35.9909 27.0595 36.0111 27.1898C36.0756 27.6066 36.0428 27.8975 36.0082 28.0612C35.9906 28.1442 35.9719 28.1977 35.9629 28.221C35.9613 28.225 35.96 28.2282 35.9591 28.2304L33.868 32.3519L35.565 33.3973L34.7598 32.8043" fill="#333333"/>
</g>
<defs>
<clipPath id="clip0">
<rect width="48" height="48" fill="white"/>
</clipPath>
</defs>
</svg>
