<svg width="48" height="48" viewBox="0 0 48 48" fill="none" xmlns="http://www.w3.org/2000/svg">
<path fill-rule="evenodd" clip-rule="evenodd" d="M34.5224 5.15778C34.2462 5.15778 34.0224 5.38163 34.0224 5.65778V7H35.0224V5.65778C35.0224 5.38163 34.7985 5.15778 34.5224 5.15778ZM35.0224 9H34.0224V10.4998V10.9994L33.623 11.2994C33.2564 11.5747 33.0224 12.0099 33.0224 12.5C33.0224 13.3284 33.694 14 34.5224 14C35.3508 14 36.0224 13.3284 36.0224 12.5C36.0224 12.0099 35.7884 11.5747 35.4218 11.2994L35.0224 10.9994V10.4998V9ZM32.0224 5.65778C32.0224 4.27706 33.1417 3.15778 34.5224 3.15778C35.9031 3.15778 37.0224 4.27706 37.0224 5.65778V10.0506C37.6399 10.681 38.0224 11.5459 38.0224 12.5C38.0224 14.433 36.4554 16 34.5224 16C32.5894 16 31.0224 14.433 31.0224 12.5C31.0224 11.5459 31.4049 10.681 32.0224 10.0506V5.65778ZM21.4246 9C21.4246 7.34315 22.7678 6 24.4246 6C26.0815 6 27.4246 7.34315 27.4246 9C27.4246 10.6569 26.0815 12 24.4246 12C22.7678 12 21.4246 10.6569 21.4246 9ZM24.4246 4C21.6632 4 19.4246 6.23858 19.4246 9C19.4246 10.9791 20.5745 12.6896 22.2426 13.5H22.0805C20.0688 13.5 18.253 14.7056 17.4723 16.5597L15.0435 22.3282C14.5589 23.4792 14.8194 24.809 15.7024 25.692C16.3587 26.3483 17.2602 26.6596 18.1506 26.5793V26.6102V26.6464V26.6828V26.7193V26.7558V26.7925V26.8292V26.866V26.903V26.94V26.9771V27.0143V27.0516V27.089V27.1265V27.1641V27.2017V27.2395V27.2773V27.3152V27.3532V27.3913V27.4295V27.4677V27.5061V27.5445V27.583V27.6215V27.6602V27.6989V27.7377V27.7766V27.8156V27.8546V27.8937V27.9329V27.9721V28.0114V28.0508V28.0903V28.1298V28.1694V28.2091V28.2488V28.2886V28.3285V28.3684V28.4084V28.4485V28.4886V28.5288V28.569V28.6093V28.6497V28.6901V28.7306V28.7711V28.8117V28.8523V28.893V28.9338V28.9746V29.0154V29.0564V29.0973V29.1383V29.1794V29.2205V29.2617V29.3029V29.3441V29.3854V29.4268V29.4682V29.5096V29.5511V29.5926V29.6341V29.6757V29.7174V29.759V29.8007V29.8425V29.8843V29.9261V29.968V30.0098V30.0518V30.0937V30.1357V30.1777V30.2198V30.2619V30.304V30.3461V30.3883V30.4305V30.4727V30.5149V30.5572V30.5995V30.6418V30.6841V30.7265V30.7688V30.8112V30.8536V30.8961V30.9385V30.981V31.0235V31.066V31.1085V31.151V31.1935V31.2361V31.2786V31.3212V31.3638V31.4064V31.449V31.4916V31.5342V31.5768V31.6194V31.6621V31.7047V31.7473V31.79V31.8326V31.8752V31.9179V31.9605V32.0031V32.0458V32.0884V32.131V32.1736V32.2163V32.2589V32.3015V32.3441V32.3866V32.4292V32.4718V32.5143V32.5569V32.5994V32.6419V32.6844V32.7269V32.7694V32.8118V32.8543V32.8967V32.9391V32.9815V33.0238V33.0662V33.1085V33.1508V33.1931V33.2353V33.2776V33.3198V33.3619V33.4041V33.4462V33.4883V33.5304V33.5724V33.6144V33.6564V33.6983V33.7402V33.7821V33.8239V33.8657V33.9075V33.9492V33.9909V34.0326V34.0742V34.1158V34.1573V34.1988V34.2402V34.2816V34.323V34.3643V34.4056V34.4468V34.488V34.5291V34.5702V34.6113V34.6522V34.6932V34.7341V34.7749V34.8157V34.8564V34.8971V34.9377V34.9783V35.0188V35.0592V35.0996V35.1399V35.1802V35.2204V35.2605V35.3006V35.3407V35.3806V35.4205V35.4603V35.5001V35.5398V35.5794V35.619V35.6585V35.6979V35.7373V35.7765V35.8158V35.8549V35.894V35.9329V35.9719V36.0107V36.0495V36.0881V36.1268V36.1653V36.2037V36.2421V36.2804V36.3186V36.3567V36.3948V36.4327V36.4706V36.5084V36.5461V36.5837V36.6212V36.6586V36.696V36.7332V36.7704V36.8075V36.8444V36.8813V36.9181V36.9548V36.9914V37.0279V37.0643V37.1006V37.1368V37.173V37.209V37.2449V37.2807V37.3164V37.352V37.3875V37.4229V37.4582V37.4934V37.5284V37.5634V37.5983V37.633V37.6677V37.7022V37.7366V37.7709V37.8051V37.8392V37.8731V37.907V37.9407V37.9743V38.0078V38.0412V38.0745V38.1076V38.1406V38.1735V38.2063V38.2389V38.2715V38.3039V38.3362V38.3683V38.4003V38.4322V38.464V38.4956V38.5271V38.5585V38.5898V38.6209V38.6519V38.6827V38.7134V38.744V38.7744V38.8048V38.8349V38.8649V38.8948V38.9246V38.9542V38.9837V39.013V39.0422V39.0712V39.1001V39.1289V39.1575V39.1859V39.2142V39.2424V39.2704V39.2983V39.326V39.3535V39.381V39.4082V39.4353V39.4623V39.4891V39.5157V39.5422V39.5685V39.5947V39.6207V39.6465V39.6722V39.6977V39.7231V39.7483V39.7733V39.7982V39.8229V39.8474V39.8718V39.896V39.9201V39.9439V39.9676V39.9912V40.0145V40.0377V40.0607V40.0836V40.1062V40.1287V40.151V40.1732V40.1951V40.2169V40.2385V40.2599V40.2812V40.3023V40.3231V40.3438V40.3644V40.3847V40.4048V40.4248V40.4446V40.4642V40.4836V40.5028V40.5218V40.5406V40.5593V40.5777V40.596V40.614V40.6319V40.6496V40.6671V40.6843V40.7014V40.7183V40.735V40.7515V40.7678V40.7839V40.7998V40.8154V40.8309V40.8462V40.8613V40.8761V40.8908V40.9053V40.9195V40.9335V40.9474V40.961V40.9744V40.9876V41.0006V41.0133V41.0259V41.0382V41.0504V41.0623V41.074V41.0854V41.0967V41.1077V41.1185V41.1291V41.1395V41.1497V41.1596V41.1693V41.1788V41.188V41.1971V41.2059V41.2145V41.2228V41.2309V41.2388V41.2465V41.2539V41.2611V41.268V41.2748V41.2813V41.2875V41.2935V41.2993V41.3049V41.3102V41.3153V41.3201V41.3247V41.329V41.3331V41.337V41.3406V41.344V41.3471V41.35V41.3526V41.355V41.3572V41.359V41.3607V41.3621V41.3632V41.3641V41.3647V41.3651C18.1506 41.3652 18.1506 41.3653 19.1506 41.3653H18.1506C18.1506 42.8166 19.3338 43.9998 20.7851 43.9998C22.2364 43.9998 23.4197 42.8166 23.4197 41.3653V31.1924H25.4295V41.3653C25.4295 42.8166 26.6128 43.9998 28.0641 43.9998C29.5154 43.9998 30.6987 42.8166 30.6987 41.3653H29.6987C30.6987 41.3653 30.6987 41.3652 30.6987 41.3651V41.3648V41.3642V41.3634V41.3624V41.3612V41.3597V41.358V41.3561V41.3539V41.3516V41.349V41.3462V41.3432V41.3399V41.3364V41.3328V41.3289V41.3247V41.3204V41.3158V41.3111V41.3061V41.3009V41.2955V41.2899V41.284V41.278V41.2717V41.2653V41.2586V41.2517V41.2446V41.2373V41.2298V41.222V41.2141V41.206V41.1976V41.1891V41.1803V41.1714V41.1622V41.1529V41.1433V41.1336V41.1236V41.1134V41.1031V41.0925V41.0818V41.0708V41.0597V41.0483V41.0368V41.025V41.0131V41.001V40.9887V40.9761V40.9634V40.9506V40.9375V40.9242V40.9107V40.8971V40.8832V40.8692V40.855V40.8406V40.826V40.8112V40.7963V40.7811V40.7658V40.7503V40.7346V40.7187V40.7027V40.6864V40.67V40.6534V40.6367V40.6197V40.6026V40.5853V40.5678V40.5501V40.5323V40.5143V40.4961V40.4778V40.4593V40.4406V40.4217V40.4027V40.3834V40.3641V40.3445V40.3248V40.3049V40.2849V40.2647V40.2443V40.2237V40.203V40.1821V40.1611V40.1399V40.1185V40.097V40.0753V40.0535V40.0315V40.0093V39.987V39.9645V39.9418V39.9191V39.8961V39.873V39.8497V39.8263V39.8027V39.779V39.7551V39.7311V39.7069V39.6826V39.6581V39.6335V39.6087V39.5838V39.5587V39.5335V39.5081V39.4826V39.4569V39.4311V39.4052V39.3791V39.3528V39.3265V39.2999V39.2733V39.2465V39.2195V39.1925V39.1652V39.1379V39.1104V39.0828V39.055V39.0271V38.999V38.9709V38.9426V38.9141V38.8856V38.8569V38.828V38.7991V38.77V38.7407V38.7114V38.6819V38.6523V38.6226V38.5927V38.5627V38.5326V38.5023V38.472V38.4415V38.4109V38.3802V38.3493V38.3183V38.2872V38.256V38.2247V38.1932V38.1617V38.13V38.0982V38.0662V38.0342V38.0021V37.9698V37.9374V37.9049V37.8723V37.8396V37.8068V37.7738V37.7408V37.7076V37.6744V37.641V37.6075V37.5739V37.5402V37.5064V37.4725V37.4385V37.4044V37.3702V37.3358V37.3014V37.2669V37.2323V37.1975V37.1627V37.1278V37.0927V37.0576V37.0224V36.9871V36.9517V36.9162V36.8805V36.8448V36.8091V36.7732V36.7372V36.7011V36.665V36.6287V36.5924V36.5559V36.5194V36.4828V36.4461V36.4093V36.3724V36.3355V36.2985V36.2613V36.2241V36.1868V36.1494V36.112V36.0744V36.0368V35.9991V35.9613V35.9235V35.8855V35.8475V35.8094V35.7713V35.733V35.6947V35.6563V35.6178V35.5793V35.5406V35.5019V35.4632V35.4244V35.3854V35.3465V35.3074V35.2683V35.2291V35.1899V35.1506V35.1112V35.0717V35.0322V34.9926V34.953V34.9133V34.8735V34.8337V34.7938V34.7538V34.7138V34.6737V34.6336V34.5934V34.5532V34.5128V34.4725V34.4321V34.3916V34.351V34.3105V34.2698V34.2291V34.1884V34.1476V34.1067V34.0658V34.0249V33.9839V33.9428V33.9017V33.8606V33.8194V33.7782V33.7369V33.6956V33.6542V33.6128V33.5713V33.5298V33.4883V33.4467V33.405V33.3634V33.3217V33.2799V33.2381V33.1963V33.1544V33.1125V33.0706V33.0286V32.9866V32.9446V32.9025V32.8604V32.8183V32.7761V32.7339V32.6917V32.6494V32.6071V32.5648V32.5224V32.4801V32.4376V32.3952V32.3528V32.3103V32.2678V32.2252V32.1827V32.1401V32.0975V32.0549V32.0122V31.9696V31.9269V31.8842V31.8415V31.7987V31.756V31.7132V31.6704V31.6276V31.5848V31.542V31.4991V31.4563V31.4134V31.3705V31.3276V31.2847V31.2418V31.1988V31.1559V31.113V31.07V31.0271V30.9841V30.9411V30.8981V30.8552V30.8122V30.7692V30.7262V30.6832V30.6402V30.5972V30.5542V30.5112V30.4682V30.4252V30.3822V30.3393V30.2963V30.2533V30.2103V30.1673V30.1244V30.0814V30.0385V29.9955V29.9526V29.9096V29.8667V29.8238V29.7809V29.738V29.6951V29.6523V29.6094V29.5666V29.5238V29.4809V29.4382V29.3954V29.3526V29.3099V29.2671V29.2244V29.1817V29.1391V29.0964V29.0538V29.0112V28.9686V28.926V28.8835V28.841V28.7985V28.756V28.7136V28.6712V28.6288V28.5864V28.5441V28.5018V28.4595V28.4173V28.3751V28.3329V28.2907V28.2486V28.2065V28.1645V28.1224V28.0805V28.0385V27.9966V27.9547V27.9129V27.8711V27.8293V27.7876V27.7459V27.7043V27.6627V27.6211V27.5796V27.5381V27.4967V27.4553V27.414V27.3727V27.3314V27.2902V27.249V27.2079V27.1668V27.1258V27.0849V27.0439V27.0031V26.9623V26.9215V26.8808V26.8401V26.7995V26.759V26.7185V26.678V26.6376V26.5973V26.5921C31.5878 26.6668 32.4855 26.3533 33.1399 25.6989C34.0271 24.8117 34.2889 23.4756 33.802 22.3192L31.3769 16.5597C30.5962 14.7056 28.7804 13.5 26.7687 13.5H26.6067C28.2748 12.6896 29.4246 10.9791 29.4246 9C29.4246 6.23858 27.186 4 24.4246 4ZM29.6987 41.3653H28.6987C28.6987 41.712 28.4108 41.9998 28.0641 41.9998C27.7174 41.9998 27.4295 41.712 27.4295 41.3653V30.1924V29.1924H26.4295H22.4197H21.4197V30.1924V41.3653C21.4197 41.712 21.1319 41.9998 20.7851 41.9998C20.4384 41.9998 20.1506 41.712 20.1506 41.3653H19.1506C20.1506 41.3653 20.1506 41.3652 20.1506 41.3651V41.3647V41.3641V41.3632V41.3621V41.3607V41.359V41.3572V41.355V41.3526V41.35V41.3471V41.344V41.3406V41.337V41.3331V41.329V41.3247V41.3201V41.3153V41.3102V41.3049V41.2993V41.2935V41.2875V41.2813V41.2748V41.268V41.2611V41.2539V41.2465V41.2388V41.2309V41.2228V41.2145V41.2059V41.1971V41.188V41.1788V41.1693V41.1596V41.1497V41.1395V41.1291V41.1185V41.1077V41.0967V41.0854V41.074V41.0623V41.0504V41.0382V41.0259V41.0133V41.0006V40.9876V40.9744V40.961V40.9474V40.9335V40.9195V40.9053V40.8908V40.8761V40.8613V40.8462V40.8309V40.8154V40.7998V40.7839V40.7678V40.7515V40.735V40.7183V40.7014V40.6843V40.6671V40.6496V40.6319V40.614V40.596V40.5777V40.5593V40.5406V40.5218V40.5028V40.4836V40.4642V40.4446V40.4248V40.4048V40.3847V40.3644V40.3438V40.3231V40.3023V40.2812V40.2599V40.2385V40.2169V40.1951V40.1732V40.151V40.1287V40.1062V40.0836V40.0607V40.0377V40.0145V39.9912V39.9676V39.9439V39.9201V39.896V39.8718V39.8474V39.8229V39.7982V39.7733V39.7483V39.7231V39.6977V39.6722V39.6465V39.6207V39.5947V39.5685V39.5422V39.5157V39.4891V39.4623V39.4353V39.4082V39.381V39.3535V39.326V39.2983V39.2704V39.2424V39.2142V39.1859V39.1575V39.1289V39.1001V39.0712V39.0422V39.013V38.9837V38.9542V38.9246V38.8948V38.8649V38.8349V38.8048V38.7744V38.744V38.7134V38.6827V38.6519V38.6209V38.5898V38.5585V38.5271V38.4956V38.464V38.4322V38.4003V38.3683V38.3362V38.3039V38.2715V38.2389V38.2063V38.1735V38.1406V38.1076V38.0745V38.0412V38.0078V37.9743V37.9407V37.907V37.8731V37.8392V37.8051V37.7709V37.7366V37.7022V37.6677V37.633V37.5983V37.5634V37.5284V37.4934V37.4582V37.4229V37.3875V37.352V37.3164V37.2807V37.2449V37.209V37.173V37.1368V37.1006V37.0643V37.0279V36.9914V36.9548V36.9181V36.8813V36.8444V36.8075V36.7704V36.7332V36.696V36.6586V36.6212V36.5837V36.5461V36.5084V36.4706V36.4327V36.3948V36.3567V36.3186V36.2804V36.2421V36.2037V36.1653V36.1268V36.0881V36.0495V36.0107V35.9719V35.9329V35.894V35.8549V35.8158V35.7765V35.7373V35.6979V35.6585V35.619V35.5794V35.5398V35.5001V35.4603V35.4205V35.3806V35.3407V35.3006V35.2605V35.2204V35.1802V35.1399V35.0996V35.0592V35.0188V34.9783V34.9377V34.8971V34.8564V34.8157V34.7749V34.7341V34.6932V34.6522V34.6113V34.5702V34.5291V34.488V34.4468V34.4056V34.3643V34.323V34.2816V34.2402V34.1988V34.1573V34.1158V34.0742V34.0326V33.9909V33.9492V33.9075V33.8657V33.8239V33.7821V33.7402V33.6983V33.6564V33.6144V33.5724V33.5304V33.4883V33.4462V33.4041V33.3619V33.3198V33.2776V33.2353V33.1931V33.1508V33.1085V33.0662V33.0238V32.9815V32.9391V32.8967V32.8543V32.8118V32.7694V32.7269V32.6844V32.6419V32.5994V32.5569V32.5143V32.4718V32.4292V32.3866V32.3441V32.3015V32.2589V32.2163V32.1736V32.131V32.0884V32.0458V32.0031V31.9605V31.9179V31.8752V31.8326V31.79V31.7473V31.7047V31.6621V31.6194V31.5768V31.5342V31.4916V31.449V31.4064V31.3638V31.3212V31.2786V31.2361V31.1935V31.151V31.1085V31.066V31.0235V30.981V30.9385V30.8961V30.8536V30.8112V30.7688V30.7265V30.6841V30.6418V30.5995V30.5572V30.5149V30.4727V30.4305V30.3883V30.3461V30.304V30.2619V30.2198V30.1777V30.1357V30.0937V30.0518V30.0098V29.968V29.9261V29.8843V29.8425V29.8007V29.759V29.7174V29.6757V29.6341V29.5926V29.5511V29.5096V29.4682V29.4268V29.3854V29.3441V29.3029V29.2617V29.2205V29.1794V29.1383V29.0973V29.0564V29.0154V28.9746V28.9338V28.893V28.8523V28.8117V28.7711V28.7306V28.6901V28.6497V28.6093V28.569V28.5288V28.4886V28.4485V28.4084V28.3684V28.3285V28.2886V28.2488V28.2091V28.1694V28.1298V28.0903V28.0508V28.0114V27.9721V27.9329V27.8937V27.8546V27.8156V27.7766V27.7377V27.6989V27.6602V27.6215V27.583V27.5445V27.5061V27.4677V27.4295V27.3913V27.3532V27.3152V27.2773V27.2395V27.2017V27.1641V27.1265V27.089V27.0516V27.0143V26.9771V26.94V26.903V26.866V26.8292V26.7925V26.7558V26.7193V26.6828V26.6464V26.6102V26.574V26.5379V26.502V26.4661V26.4303V26.3947V26.3591V26.3237V26.2883V26.2531V26.218V26.1829V26.148V26.1132V26.0785V26.0439V26.0095V25.9751V25.9408V25.9067V25.8727V25.8594L24.3104 23.9686L28.6987 25.8953V25.921V25.9602V25.9996V26.039V26.0785V26.118V26.1576V26.1973V26.237V26.2768V26.3166V26.3566V26.3965V26.4366V26.4767V26.5168V26.557V26.5973V26.6376V26.678V26.7185V26.759V26.7995V26.8401V26.8808V26.9215V26.9623V27.0031V27.0439V27.0849V27.1258V27.1668V27.2079V27.249V27.2902V27.3314V27.3727V27.414V27.4553V27.4967V27.5381V27.5796V27.6211V27.6627V27.7043V27.7459V27.7876V27.8293V27.8711V27.9129V27.9547V27.9966V28.0385V28.0805V28.1224V28.1645V28.2065V28.2486V28.2907V28.3329V28.3751V28.4173V28.4595V28.5018V28.5441V28.5864V28.6288V28.6712V28.7136V28.756V28.7985V28.841V28.8835V28.926V28.9686V29.0112V29.0538V29.0964V29.1391V29.1817V29.2244V29.2671V29.3099V29.3526V29.3954V29.4382V29.4809V29.5238V29.5666V29.6094V29.6523V29.6951V29.738V29.7809V29.8238V29.8667V29.9096V29.9526V29.9955V30.0385V30.0814V30.1244V30.1673V30.2103V30.2533V30.2963V30.3393V30.3822V30.4252V30.4682V30.5112V30.5542V30.5972V30.6402V30.6832V30.7262V30.7692V30.8122V30.8552V30.8981V30.9411V30.9841V31.0271V31.07V31.113V31.1559V31.1988V31.2418V31.2847V31.3276V31.3705V31.4134V31.4563V31.4991V31.542V31.5848V31.6276V31.6704V31.7132V31.756V31.7987V31.8415V31.8842V31.9269V31.9696V32.0122V32.0549V32.0975V32.1401V32.1827V32.2252V32.2678V32.3103V32.3528V32.3952V32.4376V32.4801V32.5224V32.5648V32.6071V32.6494V32.6917V32.7339V32.7761V32.8183V32.8604V32.9025V32.9446V32.9866V33.0286V33.0706V33.1125V33.1544V33.1963V33.2381V33.2799V33.3217V33.3634V33.405V33.4467V33.4883V33.5298V33.5713V33.6128V33.6542V33.6956V33.7369V33.7782V33.8194V33.8606V33.9017V33.9428V33.9839V34.0249V34.0658V34.1067V34.1476V34.1884V34.2291V34.2698V34.3105V34.351V34.3916V34.4321V34.4725V34.5128V34.5532V34.5934V34.6336V34.6737V34.7138V34.7538V34.7938V34.8337V34.8735V34.9133V34.953V34.9926V35.0322V35.0717V35.1112V35.1506V35.1899V35.2291V35.2683V35.3074V35.3465V35.3854V35.4244V35.4632V35.5019V35.5406V35.5793V35.6178V35.6563V35.6947V35.733V35.7713V35.8094V35.8475V35.8855V35.9235V35.9613V35.9991V36.0368V36.0744V36.112V36.1494V36.1868V36.2241V36.2613V36.2985V36.3355V36.3724V36.4093V36.4461V36.4828V36.5194V36.5559V36.5924V36.6287V36.665V36.7011V36.7372V36.7732V36.8091V36.8448V36.8805V36.9162V36.9517V36.9871V37.0224V37.0576V37.0927V37.1278V37.1627V37.1975V37.2323V37.2669V37.3014V37.3358V37.3702V37.4044V37.4385V37.4725V37.5064V37.5402V37.5739V37.6075V37.641V37.6744V37.7076V37.7408V37.7738V37.8068V37.8396V37.8723V37.9049V37.9374V37.9698V38.0021V38.0342V38.0662V38.0982V38.13V38.1617V38.1932V38.2247V38.256V38.2872V38.3183V38.3493V38.3802V38.4109V38.4415V38.472V38.5023V38.5326V38.5627V38.5927V38.6226V38.6523V38.6819V38.7114V38.7407V38.77V38.7991V38.828V38.8569V38.8856V38.9141V38.9426V38.9709V38.999V39.0271V39.055V39.0828V39.1104V39.1379V39.1652V39.1925V39.2195V39.2465V39.2733V39.2999V39.3265V39.3528V39.3791V39.4052V39.4311V39.4569V39.4826V39.5081V39.5335V39.5587V39.5838V39.6087V39.6335V39.6581V39.6826V39.7069V39.7311V39.7551V39.779V39.8027V39.8263V39.8497V39.873V39.8961V39.9191V39.9418V39.9645V39.987V40.0093V40.0315V40.0535V40.0753V40.097V40.1185V40.1399V40.1611V40.1821V40.203V40.2237V40.2443V40.2647V40.2849V40.3049V40.3248V40.3445V40.3641V40.3834V40.4027V40.4217V40.4406V40.4593V40.4778V40.4961V40.5143V40.5323V40.5501V40.5678V40.5853V40.6026V40.6197V40.6367V40.6534V40.67V40.6864V40.7027V40.7187V40.7346V40.7503V40.7658V40.7811V40.7963V40.8112V40.826V40.8406V40.855V40.8692V40.8832V40.8971V40.9107V40.9242V40.9375V40.9506V40.9634V40.9761V40.9887V41.001V41.0131V41.025V41.0368V41.0483V41.0597V41.0708V41.0818V41.0925V41.1031V41.1134V41.1236V41.1336V41.1433V41.1529V41.1622V41.1714V41.1803V41.1891V41.1976V41.206V41.2141V41.222V41.2298V41.2373V41.2446V41.2517V41.2586V41.2653V41.2717V41.278V41.284V41.2899V41.2955V41.3009V41.3061V41.3111V41.3158V41.3204V41.3247V41.3289V41.3328V41.3364V41.3399V41.3432V41.3462V41.349V41.3516V41.3539V41.3561V41.358V41.3597V41.3612V41.3624V41.3634V41.3642V41.3648V41.3651C28.6987 41.3652 28.6987 41.3653 29.6987 41.3653ZM36.9635 18.9531C39.4747 21.4643 39.4747 25.5358 36.9635 28.0471L38.3777 29.4613C41.67 26.169 41.67 20.8311 38.3777 17.5388L36.9635 18.9531ZM11.8818 28.043C9.37273 25.5339 9.37273 21.4659 11.8818 18.9568L10.4676 17.5426C7.17747 20.8327 7.17747 26.1671 10.4676 29.4572L11.8818 28.043ZM13.9888 21.064C12.6434 22.4094 12.6434 24.5907 13.9888 25.9361L12.5746 27.3503C10.4481 25.2238 10.4481 21.7762 12.5746 19.6498L13.9888 21.064ZM34.8525 21.064C36.1979 22.4094 36.1979 24.5907 34.8525 25.9361L36.2667 27.3503C38.3932 25.2238 38.3932 21.7762 36.2667 19.6498L34.8525 21.064ZM22.0805 15.5C20.8735 15.5 19.784 16.2234 19.3156 17.3358L16.8868 23.1043C16.7177 23.5058 16.8086 23.9697 17.1166 24.2778C17.4325 24.5936 17.9111 24.6804 18.3177 24.4956L26.0117 20.9983C26.5486 20.7543 26.7595 20.1015 26.4669 19.5895C26.2091 19.1384 25.6492 18.9593 25.1774 19.177L20.3437 21.408L19.5056 19.592L24.3393 17.3611C25.753 16.7086 27.4309 17.2454 28.2034 18.5972C29.0802 20.1317 28.4482 22.0878 26.8393 22.8191L26.7548 22.8575L30.5212 24.5112C30.931 24.6911 31.4092 24.6012 31.7257 24.2847C32.0379 23.9725 32.13 23.5023 31.9587 23.0953L29.5336 17.3358C29.0652 16.2234 27.9757 15.5 26.7687 15.5H22.0805Z" fill="#333333"/>
</svg>
