<svg width="48" height="48" viewBox="0 0 48 48" fill="none" xmlns="http://www.w3.org/2000/svg">
<path fill-rule="evenodd" clip-rule="evenodd" d="M24 4C21.2386 4 19 6.23858 19 9C19 10.9791 20.1499 12.6896 21.8179 13.5H21.6559C19.6442 13.5 17.8284 14.7056 17.0477 16.5597L14.6189 22.3282C14.1343 23.4792 14.3948 24.809 15.2778 25.692C15.9341 26.3483 16.8356 26.6596 17.726 26.5793V41.3647C17.726 41.3648 17.726 41.3653 18.726 41.3653L17.726 41.3647C17.726 42.816 18.9092 43.9998 20.3605 43.9998C21.8118 43.9998 22.9951 42.8166 22.9951 41.3653V31.1924H25.0049V41.3653C25.0049 42.8166 26.1882 43.9998 27.6395 43.9998C29.0908 43.9998 30.2741 42.8166 30.2741 41.3653H29.2741C30.2741 41.3653 30.2741 41.3653 30.2741 41.3653V26.5921C31.1632 26.6668 32.0609 26.3533 32.7153 25.6989C33.6025 24.8117 33.8642 23.4756 33.3773 22.3192L30.9523 16.5597C30.1716 14.7056 28.3558 13.5 26.3441 13.5H26.1821C27.8501 12.6896 29 10.9791 29 9C29 6.23858 26.7614 4 24 4ZM21 9C21 7.34315 22.3431 6 24 6C25.6569 6 27 7.34315 27 9C27 10.6569 25.6569 12 24 12C22.3431 12 21 10.6569 21 9ZM28.2741 25.8953V41.3648C28.2741 41.3649 28.2741 41.3653 29.2741 41.3653L28.2741 41.3648C28.2741 41.7115 27.9862 41.9998 27.6395 41.9998C27.2927 41.9998 27.0049 41.712 27.0049 41.3653V29.1924H20.9951V41.3653C20.9951 41.712 20.7073 41.9998 20.3605 41.9998C20.0138 41.9998 19.726 41.712 19.726 41.3653H18.726C19.726 41.3653 19.726 41.3653 19.726 41.3653V25.8594L23.8858 23.9686L28.2741 25.8953ZM21.6559 15.5C20.4489 15.5 19.3594 16.2234 18.891 17.3358L16.4622 23.1043C16.2931 23.5058 16.384 23.9697 16.692 24.2778C17.0078 24.5936 17.4865 24.6804 17.8931 24.4956L25.5871 20.9983C26.1239 20.7543 26.3348 20.1015 26.0422 19.5895C25.7845 19.1384 25.2246 18.9593 24.7528 19.177L19.9191 21.408L19.0809 19.592L23.9147 17.3611C25.3284 16.7086 27.0063 17.2454 27.7787 18.5972C28.6556 20.1317 28.0235 22.0878 26.4147 22.8191L26.3301 22.8575L30.0965 24.5112C30.5063 24.6911 30.9846 24.6012 31.3011 24.2847C31.6133 23.9725 31.7054 23.5023 31.5341 23.0953L29.109 17.3358C28.6406 16.2234 27.5511 15.5 26.3441 15.5H21.6559Z" fill="#333333"/>
<path d="M36.5389 18.9531C39.0501 21.4643 39.0501 25.5358 36.5389 28.0471L37.9531 29.4613C41.2454 26.169 41.2454 20.8311 37.9531 17.5388L36.5389 18.9531Z" fill="#333333"/>
<path d="M11.4572 28.043C8.94811 25.5339 8.94811 21.4659 11.4572 18.9568L10.043 17.5426C6.75285 20.8327 6.75285 26.1671 10.043 29.4572L11.4572 28.043Z" fill="#333333"/>
<path d="M13.5641 21.064C12.2188 22.4094 12.2188 24.5907 13.5641 25.9361L12.1499 27.3503C10.0235 25.2238 10.0235 21.7762 12.1499 19.6498L13.5641 21.064Z" fill="#333333"/>
<path d="M34.4279 21.064C35.7733 22.4094 35.7733 24.5907 34.4279 25.9361L35.8421 27.3503C37.9685 25.2238 37.9685 21.7762 35.8421 19.6498L34.4279 21.064Z" fill="#333333"/>
</svg>
