<svg width="48" height="48" viewBox="0 0 48 48" fill="none" xmlns="http://www.w3.org/2000/svg">
<path fill-rule="evenodd" clip-rule="evenodd" d="M15 16.5C15 11.8038 18.8038 8 23.5 8C28.1962 8 32 11.8038 32 16.5C32 21.1962 28.1962 25 23.5 25C18.8038 25 15 21.1962 15 16.5ZM23.5 10C19.9084 10 17 12.9084 17 16.5C17 20.0916 19.9084 23 23.5 23C27.0916 23 30 20.0916 30 16.5C30 12.9084 27.0916 10 23.5 10Z" fill="#333333"/>
<path fill-rule="evenodd" clip-rule="evenodd" d="M21.5817 37.7235L18.7606 28.7196L18.7268 28.6508C18.4224 28.0313 17.7304 27.6932 17.0515 27.8588C14.6199 28.4519 12.1418 29.3595 10.2591 30.5958C8.38654 31.8254 7 33.4531 7 35.5V44H40V35.5C40 33.4531 38.6135 31.8254 36.7409 30.5958C34.8581 29.3595 32.3802 28.4519 29.9486 27.8588C29.2697 27.6932 28.5776 28.0313 28.2732 28.6508L28.2394 28.7196L25.7236 36.7492L24.7368 30.5H25.5L26.5 27.5H20.5L21.5 30.5H22.3421L21.5817 37.7235ZM17.0421 29.924C14.9033 30.4841 12.8634 31.2783 11.3569 32.2676C9.70414 33.3528 9 34.4539 9 35.5V42H20.8258L17.0421 29.924ZM26.1743 42H38V35.5C38 34.4539 37.2959 33.3528 35.6431 32.2676C34.1366 31.2784 32.0967 30.4841 29.9579 29.924L26.1743 42Z" fill="#333333"/>
</svg>
