<svg width="48" height="48" viewBox="0 0 48 48" fill="none" xmlns="http://www.w3.org/2000/svg">
<path fill-rule="evenodd" clip-rule="evenodd" d="M29 11.5L24 14L29 16.5L31.5 24L34 16.5L39 14L34 11.5L31.5 3L29 11.5ZM30.6731 12.8995L28.4721 14L30.6354 15.0816L31.5 17.6754L32.3646 15.0816L34.5279 14L32.3269 12.8995L31.5 10.088L30.6731 12.8995Z" fill="#333333"/>
<path d="M19 18L16 17L19 16L20 12L21 16L24 17L21 18L20 22L19 18Z" fill="#333333"/>
<path fill-rule="evenodd" clip-rule="evenodd" d="M6 25C5.44772 25 5 25.4477 5 26V39.5C5 40.0523 5.44772 40.5 6 40.5H12C12.5523 40.5 13 40.0523 13 39.5V38.1301C13.6042 38.1141 14.1169 38.1069 14.3723 38.117C16.2849 38.1926 17.7093 38.6334 19.2611 39.1174L19.2855 39.125C20.7282 39.5751 22.2837 40.0602 24.3138 40.2111C24.7814 40.2459 25.2382 40.2909 25.6941 40.3359L25.8283 40.3491C27.3598 40.5007 29.0102 40.6641 30.4268 40.155C31.2586 39.856 33.8873 38.6426 36.3992 37.3925C37.6668 36.7616 38.929 36.1093 39.9481 35.5421C40.457 35.2589 40.9143 34.9919 41.2851 34.7559C41.6333 34.5343 41.9758 34.2966 42.1992 34.0718C43.0936 33.1718 43.2363 31.6668 42.6367 30.5184C41.9684 29.2384 40.5019 28.5213 38.4793 28.8496C36.6919 29.1397 34.6644 29.956 32.9461 30.6478L32.8824 30.6734C32.1784 30.9568 31.5271 31.2188 30.9394 31.4315C31.3658 30.9365 31.7055 30.331 31.8629 29.7568C31.9798 29.3301 32.051 28.7177 31.7423 28.1629C31.3864 27.5235 30.7266 27.2922 30.0886 27.2922C29.3658 27.2922 28.5931 27.1694 27.9821 27.0386C27.6809 26.9741 27.4282 26.9097 27.2523 26.8618C27.1646 26.838 27.0964 26.8184 27.0514 26.8051L27.0019 26.7903L26.9911 26.787L26.9894 26.7864C26.9616 26.7777 26.9335 26.7702 26.9051 26.764L19.8889 25.2195C19.8773 25.2169 19.8654 25.2145 19.8536 25.2124L19.8502 25.2118L19.843 25.2105L19.8185 25.2062C19.7978 25.2025 19.7684 25.1975 19.7312 25.1914C19.6571 25.1791 19.5518 25.1625 19.423 25.1441C19.1665 25.1075 18.8114 25.0632 18.4204 25.0335C18.0325 25.0041 17.5909 24.9875 17.1661 25.0116C16.7613 25.0345 16.2807 25.0983 15.8672 25.2833C15.4474 25.471 14.2215 25.919 13 26.3545V26C13 25.4477 12.5523 25 12 25H6ZM19.6739 26.1961L19.8536 25.2124C19.8536 25.2124 19.8539 25.2125 19.6739 26.1961ZM21.9096 32.9171L22.0857 31.9328C21.9096 32.9171 21.9107 32.9173 21.9107 32.9173L21.9669 32.9273L22.1283 32.9558C22.2679 32.9803 22.4691 33.0155 22.7164 33.0579C23.2106 33.1429 23.8895 33.2573 24.6275 33.3753C26.0833 33.6081 27.8331 33.8653 28.8236 33.9239C29.5025 33.9641 30.3026 33.7563 31.0578 33.5072C31.8374 33.2501 32.7192 32.8951 33.6081 32.5373L33.6293 32.5287C35.4236 31.8064 37.2555 31.0744 38.7998 30.8238C40.1757 30.6004 40.6825 31.0969 40.8638 31.4441C41.1138 31.923 40.9825 32.4589 40.7805 32.662C40.7299 32.713 40.5585 32.8477 40.2113 33.0686C39.8866 33.2752 39.4669 33.521 38.9754 33.7946C37.9939 34.3409 36.7619 34.978 35.5081 35.602C32.9771 36.8616 30.4533 38.0202 29.7504 38.2728C28.8046 38.6127 27.6025 38.5144 25.8904 38.3455L25.8854 38.345C25.4344 38.3005 24.9555 38.2533 24.4621 38.2166C22.6721 38.0836 21.3055 37.6601 19.8566 37.2082L19.8299 37.1998C18.2828 36.7173 16.6409 36.2051 14.4513 36.1186C13.9756 36.0998 12.9216 36.1281 11.9656 36.161C11.427 36.1795 11 36.6215 11 37.1604V38.5H7V27H11V27.769C11 28.0932 11.1572 28.3974 11.4218 28.5849C11.6864 28.7724 12.0255 28.8199 12.3314 28.7125C13.7988 28.197 16.0092 27.4107 16.6837 27.109C16.7635 27.0733 16.9545 27.0268 17.2793 27.0084C17.5843 26.9911 17.9306 27.0021 18.269 27.0278C18.6043 27.0532 18.9138 27.0917 19.1404 27.124C19.2531 27.1401 19.3439 27.1545 19.4055 27.1647C19.4363 27.1698 19.4596 27.1738 19.4747 27.1764L19.4788 27.1771L26.436 28.7086L26.486 28.7235C26.5433 28.7404 26.6251 28.7639 26.7274 28.7917C26.9319 28.8473 27.2204 28.9208 27.5633 28.9942C28.1979 29.1301 29.0518 29.2731 29.9153 29.2904C29.8566 29.4701 29.7475 29.6887 29.5951 29.9061C29.4243 30.1496 29.2351 30.3406 29.0761 30.4519C28.629 30.7653 28.2656 30.8982 28.0408 30.9554C27.9274 30.9843 27.8463 30.9946 27.8043 30.9983C27.7895 30.9996 27.7795 31.0001 27.7746 31.0003L27.7618 31.0001L22.0976 30.9328C21.5773 30.9267 21.1393 31.3205 21.0902 31.8385C21.0411 32.3564 21.3975 32.8255 21.9096 32.9171Z" fill="#333333"/>
</svg>
