<svg width="48" height="48" viewBox="0 0 48 48" fill="none" xmlns="http://www.w3.org/2000/svg">
<path d="M19.3162 16.9487L19.837 16.7751L19.9701 16.2425L20 16.1231L20.0299 16.2425L20.163 16.7751L20.6838 16.9487L20.8377 17L20.6838 17.0513L20.163 17.2249L20.0299 17.7575L20 17.8769L19.9701 17.7575L19.837 17.2249L19.3162 17.0513L19.1623 17L19.3162 16.9487Z" stroke="#333333" stroke-width="2"/>
<path d="M29.4472 12.3944L29.8365 12.1998L29.9594 11.7822L31.5 6.54401L33.0406 11.7822L33.1635 12.1998L33.5528 12.3944L36.7639 14L33.5528 15.6056L33.1823 15.7908L33.0513 16.1838L31.5 20.8377L29.9487 16.1838L29.8177 15.7908L29.4472 15.6056L26.2361 14L29.4472 12.3944Z" stroke="#333333" stroke-width="2"/>
<path d="M6 26V25C5.44772 25 5 25.4477 5 26H6ZM12 26H13C13 25.4477 12.5523 25 12 25V26ZM6 39.5H5C5 40.0523 5.44772 40.5 6 40.5V39.5ZM12 39.5V40.5C12.5523 40.5 13 40.0523 13 39.5H12ZM12 37.1604L11.9656 36.161C11.427 36.1795 11 36.6215 11 37.1604H12ZM14.4118 37.1178L14.4513 36.1186L14.4118 37.1178ZM19.5589 38.1628L19.2611 39.1174H19.2611L19.5589 38.1628ZM24.3879 39.2139L24.3138 40.2111L24.3879 39.2139ZM25.7923 39.3407L25.8904 38.3455L25.7923 39.3407ZM30.0886 39.2139L29.7504 38.2728H29.7504L30.0886 39.2139ZM41.4899 33.3669L42.1992 34.0718L41.4899 33.3669ZM38.6396 29.8367L38.7998 30.8238L38.6396 29.8367ZM33.2559 31.6011L33.6293 32.5287H33.6293L33.2559 31.6011ZM28.8827 32.9256L28.9418 31.9274L28.8827 32.9256ZM22.0857 31.9328L22.0976 30.9328C21.5773 30.9267 21.1393 31.3205 21.0902 31.8385C21.0411 32.3564 21.3975 32.8255 21.9096 32.9171L22.0857 31.9328ZM27.75 32L27.802 31.0014C27.7886 31.0007 27.7752 31.0002 27.7618 31.0001L27.75 32ZM26.6901 27.7406L26.9901 26.7867C26.9621 26.7779 26.9338 26.7703 26.9051 26.764L26.6901 27.7406ZM19.6739 26.1961L19.8889 25.2195C19.8773 25.2169 19.8656 25.2146 19.8539 25.2125L19.6739 26.1961ZM16.2755 26.1961L15.8672 25.2833V25.2833L16.2755 26.1961ZM12 27.769H11C11 28.0932 11.1572 28.3974 11.4218 28.5849C11.6864 28.7724 12.0255 28.8199 12.3314 28.7125L12 27.769ZM6 27H12V25H6V27ZM7 39.5V26H5V39.5H7ZM12 38.5H6V40.5H12V38.5ZM11 37.1604V39.5H13V37.1604H11ZM12.0344 38.1598C13.02 38.1259 13.9877 38.1018 14.3723 38.117L14.4513 36.1186C13.9756 36.0998 12.9216 36.1281 11.9656 36.161L12.0344 38.1598ZM14.3723 38.117C16.2849 38.1926 17.7093 38.6334 19.2611 39.1174L19.8566 37.2082C18.3017 36.7232 16.6535 36.2056 14.4513 36.1186L14.3723 38.117ZM19.2611 39.1174C20.7107 39.5696 22.2722 40.0594 24.3138 40.2111L24.4621 38.2166C22.6721 38.0836 21.3055 37.6601 19.8566 37.2082L19.2611 39.1174ZM24.3138 40.2111C24.7814 40.2459 25.2382 40.2909 25.6941 40.3359L25.8904 38.3455C25.4378 38.3009 24.9575 38.2535 24.4621 38.2166L24.3138 40.2111ZM25.6941 40.3359C27.2629 40.4906 28.9687 40.679 30.4268 40.155L29.7504 38.2728C28.8046 38.6127 27.6025 38.5144 25.8904 38.3455L25.6941 40.3359ZM30.4268 40.155C31.2586 39.856 33.8873 38.6426 36.3992 37.3925C37.6668 36.7616 38.929 36.1093 39.9481 35.5421C40.457 35.2589 40.9143 34.9919 41.2851 34.7559C41.6333 34.5343 41.9758 34.2966 42.1992 34.0718L40.7805 32.662C40.7299 32.713 40.5585 32.8477 40.2113 33.0686C39.8866 33.2752 39.4669 33.521 38.9754 33.7946C37.9938 34.3409 36.7619 34.978 35.5081 35.602C32.9771 36.8616 30.4533 38.0202 29.7504 38.2728L30.4268 40.155ZM42.1992 34.0718C43.0936 33.1718 43.2363 31.6668 42.6367 30.5184C41.9684 29.2384 40.5019 28.5213 38.4793 28.8496L38.7998 30.8238C40.1757 30.6004 40.6825 31.0969 40.8638 31.4441C41.1138 31.923 40.9825 32.4589 40.7805 32.662L42.1992 34.0718ZM38.4793 28.8496C36.6698 29.1433 34.6141 29.9763 32.8824 30.6734L33.6293 32.5287C35.4236 31.8064 37.2555 31.0744 38.7998 30.8238L38.4793 28.8496ZM32.8824 30.6734C31.9687 31.0413 31.1437 31.3729 30.4314 31.6079C29.6885 31.8529 29.207 31.9431 28.9418 31.9274L28.8236 33.9239C29.5025 33.9641 30.3026 33.7563 31.0578 33.5072C31.8436 33.2481 32.7332 32.8895 33.6293 32.5287L32.8824 30.6734ZM28.9418 31.9274C28.0686 31.8757 26.4199 31.6365 24.9432 31.4004C24.2149 31.2839 23.544 31.1708 23.055 31.0868C22.8106 31.0448 22.6119 31.0102 22.4745 30.986C22.4058 30.9739 22.3524 30.9645 22.3163 30.9581C22.2982 30.9549 22.2845 30.9524 22.2754 30.9508C22.2708 30.95 22.2674 30.9494 22.2651 30.949C22.264 30.9488 22.2631 30.9486 22.2626 30.9485C22.2623 30.9485 22.2621 30.9484 22.262 30.9484C22.2619 30.9484 22.2619 30.9484 22.2619 30.9484C22.2618 30.9484 22.2618 30.9484 22.0857 31.9328C21.9096 32.9171 21.9097 32.9171 21.9097 32.9172C21.9098 32.9172 21.9099 32.9172 21.91 32.9172C21.9101 32.9172 21.9104 32.9173 21.9107 32.9173C21.9114 32.9174 21.9123 32.9176 21.9136 32.9178C21.9161 32.9183 21.9197 32.9189 21.9245 32.9198C21.9342 32.9215 21.9484 32.924 21.9669 32.9273C22.004 32.9339 22.0584 32.9435 22.1283 32.9558C22.2679 32.9803 22.4691 33.0155 22.7164 33.0579C23.2106 33.1429 23.8895 33.2573 24.6275 33.3753C26.0833 33.6081 27.8331 33.8653 28.8236 33.9239L28.9418 31.9274ZM22.0739 32.9327L27.7381 32.9999L27.7618 31.0001L22.0976 30.9328L22.0739 32.9327ZM27.75 32C27.6979 32.9986 27.6984 32.9987 27.6989 32.9987C27.6991 32.9987 27.6996 32.9987 27.7 32.9987C27.7007 32.9988 27.7014 32.9988 27.7021 32.9989C27.7036 32.9989 27.7051 32.999 27.7066 32.9991C27.7097 32.9992 27.713 32.9993 27.7165 32.9995C27.7236 32.9997 27.7314 32.9999 27.7401 33.0001C27.7574 33.0004 27.778 33.0005 27.8017 33.0002C27.8491 32.9994 27.9089 32.9969 27.9801 32.9906C28.1225 32.978 28.3102 32.9506 28.5343 32.8936C28.9846 32.7789 29.5713 32.5472 30.224 32.0898L29.0761 30.4519C28.629 30.7653 28.2656 30.8982 28.0408 30.9554C27.9274 30.9843 27.8463 30.9946 27.8043 30.9983C27.7833 31.0002 27.772 31.0004 27.7713 31.0004C27.771 31.0004 27.7733 31.0004 27.7784 31.0005C27.7809 31.0005 27.7841 31.0006 27.7881 31.0007C27.79 31.0008 27.7922 31.0009 27.7945 31.001C27.7957 31.001 27.7969 31.0011 27.7981 31.0012C27.7988 31.0012 27.7994 31.0012 27.8001 31.0013C27.8004 31.0013 27.8009 31.0013 27.801 31.0013C27.8015 31.0013 27.802 31.0014 27.75 32ZM30.224 32.0898C30.9671 31.569 31.6243 30.6271 31.8629 29.7568C31.9798 29.3301 32.051 28.7177 31.7423 28.1629C31.3864 27.5235 30.7266 27.2922 30.0886 27.2922V29.2922C30.2728 29.2922 30.1067 29.3369 29.9947 29.1355C29.9297 29.0188 29.9948 29.0065 29.934 29.2281C29.8819 29.4182 29.7657 29.6629 29.5951 29.9061C29.4243 30.1496 29.2351 30.3406 29.0761 30.4519L30.224 32.0898ZM30.0886 27.2922C29.3658 27.2922 28.5931 27.1694 27.9821 27.0386C27.6809 26.9741 27.4282 26.9097 27.2523 26.8618C27.1646 26.838 27.0964 26.8184 27.0514 26.8051C27.0289 26.7985 27.0123 26.7934 27.0019 26.7903C26.9967 26.7887 26.9931 26.7876 26.9911 26.787C26.9901 26.7867 26.9895 26.7865 26.9894 26.7864C26.9893 26.7864 26.9893 26.7864 26.9894 26.7864C26.9895 26.7865 26.9896 26.7865 26.9897 26.7865C26.9897 26.7865 26.9898 26.7866 26.9899 26.7866C26.99 26.7866 26.9901 26.7867 26.6901 27.7406C26.3901 28.6945 26.3903 28.6946 26.3904 28.6946C26.3905 28.6946 26.3906 28.6947 26.3907 28.6947C26.3909 28.6948 26.3912 28.6949 26.3915 28.695C26.392 28.6951 26.3927 28.6953 26.3934 28.6956C26.3949 28.6961 26.3969 28.6967 26.3993 28.6974C26.404 28.6989 26.4105 28.7009 26.4185 28.7033C26.4347 28.7082 26.4573 28.7151 26.486 28.7235C26.5433 28.7404 26.6251 28.7639 26.7274 28.7917C26.9319 28.8473 27.2204 28.9208 27.5633 28.9942C28.2404 29.1392 29.167 29.2922 30.0886 29.2922V27.2922ZM26.9051 26.764L19.8889 25.2195L19.4589 27.1727L26.4751 28.7172L26.9051 26.764ZM19.6739 26.1961C19.8539 25.2125 19.8538 25.2124 19.8536 25.2124C19.8536 25.2124 19.8534 25.2124 19.8533 25.2123C19.8531 25.2123 19.8528 25.2123 19.8525 25.2122C19.8519 25.2121 19.8511 25.2119 19.8502 25.2118C19.8484 25.2115 19.846 25.211 19.843 25.2105C19.8371 25.2094 19.8289 25.208 19.8185 25.2062C19.7978 25.2025 19.7684 25.1975 19.7312 25.1914C19.6571 25.1791 19.5518 25.1625 19.423 25.1441C19.1665 25.1075 18.8114 25.0632 18.4204 25.0335C18.0325 25.0041 17.5909 24.9875 17.1661 25.0116C16.7613 25.0345 16.2807 25.0983 15.8672 25.2833L16.6837 27.109C16.7635 27.0733 16.9545 27.0268 17.2793 27.0084C17.5843 26.9911 17.9306 27.0021 18.269 27.0278C18.6043 27.0532 18.9138 27.0917 19.1404 27.124C19.2531 27.1401 19.3439 27.1545 19.4055 27.1647C19.4363 27.1698 19.4596 27.1738 19.4747 27.1764C19.4822 27.1777 19.4877 27.1787 19.4909 27.1793C19.4926 27.1795 19.4936 27.1797 19.4941 27.1798C19.4944 27.1799 19.4945 27.1799 19.4945 27.1799C19.4945 27.1799 19.4944 27.1799 19.4943 27.1799C19.4943 27.1799 19.4942 27.1798 19.4942 27.1798C19.4941 27.1798 19.494 27.1798 19.6739 26.1961ZM15.8672 25.2833C15.2897 25.5415 13.1871 26.2921 11.6686 26.8255L12.3314 28.7125C13.7988 28.197 16.0092 27.4107 16.6837 27.109L15.8672 25.2833ZM11 26V27.769H13V26H11Z" fill="#333333"/>
</svg>
