<svg width="48" height="48" viewBox="0 0 48 48" fill="none" xmlns="http://www.w3.org/2000/svg">
<path d="M15.1809 14C14.2584 11.1847 16.8313 5 23.6364 5C30.6587 5 33.8502 10.7358 32.8062 14" stroke="#333333" stroke-width="2" stroke-linecap="round"/>
<line x1="19" y1="7" x2="19" y2="11" stroke="#333333" stroke-width="2" stroke-linecap="round"/>
<line x1="24" y1="5" x2="24" y2="9" stroke="#333333" stroke-width="2" stroke-linecap="round"/>
<path fill-rule="evenodd" clip-rule="evenodd" d="M18.1254 29.6282C17.8971 29.1604 17.3814 28.9076 16.8786 29.0312C11.4745 30.3592 6 33.0671 6 37.1407V42V44H8H40H42V42V37.1407C42 33.0671 36.5255 30.3592 31.1214 29.0312C30.6186 28.9076 30.1029 29.1604 29.8746 29.6282L25.8105 29.6282C24.9218 29.6284 24.4693 29.6284 24.0248 29.6284C23.5637 29.6283 23.1112 29.6283 22.1893 29.6285L18.1254 29.6282ZM25.8109 31.6282C25.8107 31.6282 25.8106 31.6282 25.8105 31.6282C24.9162 31.6284 24.466 31.6284 24.024 31.6284C23.5658 31.6283 23.1162 31.6283 22.1898 31.6285L22.1892 31.6285L18.1252 31.6282L16.8758 31.6281L16.6456 31.1564C14.3233 31.7829 12.1328 32.655 10.5162 33.7244C8.69262 34.9307 8 36.0995 8 37.1407V42H40V37.1407C40 36.0995 39.3074 34.9307 37.4838 33.7244C35.8672 32.655 33.6767 31.7829 31.3544 31.1564L31.1242 31.6282L29.8746 31.6282L25.8109 31.6282Z" fill="#333333"/>
<rect x="16" y="34" width="2" height="9" rx="1" fill="#333333"/>
<rect x="30" y="34" width="2" height="9" rx="1" fill="#333333"/>
<line x1="29" y1="7" x2="29" y2="11" stroke="#333333" stroke-width="2" stroke-linecap="round"/>
<path d="M15 13C6.00002 21 42 21 33 13" stroke="#333333" stroke-width="2"/>
<path d="M32 18C32 22.4183 28.4183 26 24 26C19.5817 26 16 22.4183 16 18" stroke="#333333" stroke-width="2"/>
</svg>
