<svg width="48" height="48" viewBox="0 0 48 48" fill="none" xmlns="http://www.w3.org/2000/svg">
<path fill-rule="evenodd" clip-rule="evenodd" d="M15.7017 7.85662C14.6354 9.32474 14.0469 11.0459 14.0021 12.5639C13.0001 13.5487 12.4082 14.6256 12.5684 15.7642C12.7439 17.0126 13.7572 17.8475 14.8284 18.3916C14.8888 18.4222 14.9502 18.4524 15.0127 18.4822C15.2633 23.2286 19.1912 27 24 27C28.8088 27 32.7367 23.2286 32.9873 18.4822C33.0498 18.4524 33.1112 18.4222 33.1716 18.3916C34.2428 17.8475 35.2561 17.0126 35.4317 15.7642C35.5917 14.6263 35.0006 13.55 33.9997 12.5656C33.9666 10.9097 33.2579 9.1181 32.0123 7.63324C30.3517 5.65362 27.6882 4.13915 24.1353 4.00907C24.091 4.00309 24.0459 4 24 4C23.9739 4 23.948 4.001 23.9224 4.00297C23.8277 4.00099 23.7324 4 23.6364 4C19.8935 4 17.2562 5.71624 15.7017 7.85662ZM17.3199 9.03191C16.0703 10.7525 15.7978 12.6711 16.1312 13.6886C16.3032 14.2134 16.0172 14.7783 15.4923 14.9503C15.2187 15.0399 14.9342 15.0051 14.7002 14.8769C14.5486 15.1645 14.532 15.3657 14.5489 15.4857C14.5843 15.7374 14.8366 16.1525 15.7341 16.6084C17.4886 17.4996 20.6705 18 24 18C27.3295 18 30.5114 17.4996 32.2659 16.6084C33.1635 16.1525 33.4158 15.7374 33.4512 15.4857C33.4682 15.365 33.4512 15.1619 33.2969 14.8714C33.0631 15.0029 32.7773 15.0406 32.5016 14.9525C31.9756 14.7842 31.6855 14.2214 31.8538 13.6954C32.2437 12.4761 31.8697 10.5752 30.48 8.91861C30.3312 8.74114 30.1712 8.56739 30 8.39868V11C30 11.5523 29.5523 12 29 12C28.4477 12 28 11.5523 28 11V7C28 6.9905 28.0001 6.98104 28.0004 6.97161C27.1414 6.5394 26.1418 6.2234 25 6.08214V9C25 9.55228 24.5523 10 24 10C23.4477 10 23 9.55228 23 9V6.02038C21.8381 6.09587 20.8345 6.37696 19.9789 6.79456C19.9927 6.86087 20 6.92958 20 7V11C20 11.5523 19.5523 12 19 12C18.4477 12 18 11.5523 18 11V8.22492C17.7487 8.48251 17.5223 8.75325 17.3199 9.03191ZM30.8935 19.2229C28.8768 19.7536 26.402 20 24 20C21.598 20 19.1233 19.7536 17.1065 19.2229C17.6849 22.5059 20.5512 25 24 25C27.4488 25 30.3151 22.5059 30.8935 19.2229Z" fill="#333333"/>
<path fill-rule="evenodd" clip-rule="evenodd" d="M18.1254 29.6282C17.8971 29.1604 17.3814 28.9076 16.8786 29.0312C11.4745 30.3592 6 33.0671 6 37.1407V44H42V37.1407C42 33.0671 36.5255 30.3592 31.1214 29.0312C30.6186 28.9076 30.1029 29.1604 29.8746 29.6282L25.8105 29.6282C24.9267 29.6284 24.4744 29.6284 24.0322 29.6284H24.012C23.5553 29.6283 23.1027 29.6283 22.1893 29.6285L18.1254 29.6282ZM25.8105 31.6282C24.9211 31.6284 24.471 31.6284 24.0313 31.6284H24.024C23.5658 31.6283 23.1162 31.6283 22.1898 31.6285L16.8758 31.6281L16.6456 31.1564C14.3233 31.7829 12.1328 32.655 10.5162 33.7244C8.69262 34.9307 8 36.0995 8 37.1407V42H16V35C16 34.4477 16.4477 34 17 34C17.5523 34 18 34.4477 18 35V42H30V35C30 34.4477 30.4477 34 31 34C31.5523 34 32 34.4477 32 35V42H40V37.1407C40 36.0995 39.3074 34.9307 37.4838 33.7244C35.8672 32.655 33.6767 31.7829 31.3544 31.1564L31.1242 31.6282L25.8105 31.6282Z" fill="#333333"/>
</svg>
