<svg width="48" height="48" viewBox="0 0 48 48" fill="none" xmlns="http://www.w3.org/2000/svg">
<path d="M27.296 19.656C27.6157 19.6518 27.9209 19.5218 28.1455 19.2942C28.3701 19.0667 28.496 18.7598 28.496 18.44C28.4618 18.1436 28.3198 17.8701 28.0971 17.6715C27.8743 17.473 27.5863 17.3633 27.288 17.3633C26.9896 17.3633 26.7016 17.473 26.4788 17.6715C26.2561 17.8701 26.1141 18.1436 26.08 18.44C26.0841 18.7612 26.2135 19.0681 26.4407 19.2953C26.6678 19.5224 26.9747 19.6519 27.296 19.656Z" fill="#333333"/>
<path d="M33.0719 16.312C32.7522 16.3162 32.447 16.4462 32.2224 16.6738C31.9978 16.9014 31.8719 17.2083 31.8719 17.528C31.8719 17.8463 31.9984 18.1515 32.2234 18.3765C32.4485 18.6016 32.7537 18.728 33.0719 18.728C33.3917 18.728 33.6986 18.6021 33.9262 18.3775C34.1538 18.1529 34.2837 17.8477 34.2879 17.528C34.2838 17.2068 34.1544 16.8999 33.9272 16.6727C33.7001 16.4456 33.3932 16.3161 33.0719 16.312Z" fill="#333333"/>
<path d="M39.344 13.08C39.5079 13.0781 39.6697 13.043 39.8197 12.977C39.9697 12.911 40.1047 12.8153 40.2168 12.6958C40.3289 12.5762 40.4157 12.4352 40.4719 12.2813C40.5281 12.1274 40.5527 11.9636 40.544 11.8C40.5462 11.6418 40.5166 11.4848 40.4571 11.3382C40.3975 11.1917 40.3092 11.0585 40.1973 10.9467C40.0855 10.8348 39.9523 10.7465 39.8058 10.687C39.6592 10.6274 39.5022 10.5978 39.344 10.6C39.1737 10.5804 39.0012 10.597 38.8377 10.6487C38.6743 10.7005 38.5236 10.7862 38.3957 10.9003C38.2677 11.0143 38.1653 11.1542 38.0951 11.3106C38.025 11.4671 37.9888 11.6366 37.9888 11.808C37.9888 11.9794 38.025 12.1489 38.0951 12.3054C38.1653 12.4618 38.2677 12.6017 38.3957 12.7157C38.5236 12.8298 38.6743 12.9155 38.8377 12.9673C39.0012 13.019 39.1737 13.0356 39.344 13.016V13.08Z" fill="#333333"/>
<path d="M40.096 16.76C40.0991 16.5189 40.0305 16.2822 39.8988 16.0801C39.7672 15.8781 39.5784 15.7197 39.3565 15.6252C39.1346 15.5307 38.8896 15.5044 38.6527 15.5495C38.4158 15.5946 38.1976 15.7091 38.0259 15.8785C37.8543 16.0479 37.7369 16.2645 37.6886 16.5008C37.6404 16.7371 37.6635 16.9825 37.7551 17.2056C37.8466 17.4287 38.0024 17.6196 38.2028 17.7539C38.4031 17.8883 38.6388 17.96 38.88 17.96C39.1997 17.96 39.5066 17.8341 39.7342 17.6095C39.9618 17.3849 40.0917 17.0797 40.096 16.76Z" fill="#333333"/>
<path d="M44.304 8.344C44.0748 8.28261 43.8326 8.29053 43.6079 8.36674C43.3833 8.44296 43.1863 8.58405 43.0418 8.7722C42.8973 8.96035 42.8118 9.1871 42.7961 9.42382C42.7804 9.66053 42.8352 9.89658 42.9537 10.1021C43.0721 10.3077 43.2488 10.4736 43.4614 10.5787C43.6741 10.6839 43.9131 10.7237 44.1483 10.6931C44.3836 10.6625 44.6045 10.5628 44.7831 10.4067C44.9617 10.2506 45.0901 10.045 45.1519 9.816C45.1931 9.66366 45.2038 9.50471 45.1834 9.34824C45.163 9.19176 45.112 9.04084 45.0332 8.90412C44.9545 8.76739 44.8495 8.64754 44.7244 8.55143C44.5992 8.45531 44.4564 8.38483 44.304 8.344Z" fill="#333333"/>
<path d="M31.2479 20.216C31.0955 20.1726 30.936 20.1603 30.7788 20.1796C30.6216 20.199 30.4699 20.2497 30.3326 20.3288C30.1953 20.4079 30.0753 20.5137 29.9797 20.64C29.8841 20.7663 29.8148 20.9105 29.7759 21.064C29.7347 21.2163 29.724 21.3753 29.7444 21.5318C29.7648 21.6882 29.8158 21.8392 29.8946 21.9759C29.9733 22.1126 30.0783 22.2325 30.2034 22.3286C30.3286 22.4247 30.4715 22.4952 30.6239 22.536C30.9336 22.6195 31.2638 22.5773 31.5425 22.4184C31.8212 22.2596 32.0259 21.9971 32.1119 21.688C32.1528 21.5346 32.1628 21.3746 32.1414 21.2173C32.12 21.06 32.0676 20.9085 31.9872 20.7716C31.9069 20.6347 31.8001 20.5151 31.6732 20.4197C31.5463 20.3244 31.4017 20.2551 31.2479 20.216Z" fill="#333333"/>
<path d="M36.6719 20.456C36.5196 20.4149 36.3606 20.4042 36.2042 20.4245C36.0477 20.4449 35.8968 20.4959 35.76 20.5747C35.6233 20.6535 35.5035 20.7584 35.4073 20.8836C35.3112 21.0087 35.2407 21.1516 35.1999 21.304C35.1172 21.6117 35.16 21.9396 35.3191 22.2156C35.4781 22.4917 35.7403 22.6933 36.0479 22.776C36.3556 22.8588 36.6835 22.8159 36.9595 22.6569C37.2356 22.4978 37.4372 22.2357 37.5199 21.928C37.5611 21.7757 37.5718 21.6167 37.5514 21.4602C37.531 21.3038 37.48 21.1529 37.4012 21.0161C37.3225 20.8794 37.2175 20.7595 37.0924 20.6634C36.9672 20.5673 36.8243 20.4968 36.6719 20.456Z" fill="#333333"/>
<path d="M43.8719 18.584C43.6398 18.5194 43.3938 18.5252 43.165 18.6006C42.9362 18.6761 42.7349 18.8178 42.5868 19.0079C42.4387 19.1979 42.3503 19.4276 42.333 19.6679C42.3156 19.9082 42.3701 20.1482 42.4894 20.3575C42.6086 20.5669 42.7874 20.736 43.003 20.8436C43.2186 20.9511 43.4613 20.9922 43.7002 20.9616C43.9392 20.931 44.1637 20.8301 44.3453 20.6717C44.5268 20.5134 44.6572 20.3046 44.7199 20.072C44.7635 19.9186 44.776 19.7581 44.7568 19.5998C44.7376 19.4415 44.6871 19.2886 44.6081 19.1501C44.5292 19.0115 44.4234 18.8901 44.297 18.7929C44.1706 18.6957 44.0261 18.6247 43.8719 18.584Z" fill="#333333"/>
<path d="M40.512 23.512C40.2023 23.5983 39.9386 23.8022 39.7772 24.0802C39.6158 24.3582 39.5694 24.6883 39.648 25C39.734 25.309 39.9387 25.5716 40.2174 25.7304C40.4961 25.8892 40.8262 25.9315 41.136 25.848C41.2884 25.8072 41.4313 25.7367 41.5564 25.6406C41.6816 25.5445 41.7865 25.4246 41.8653 25.2879C41.944 25.1512 41.9951 25.0002 42.0154 24.8438C42.0358 24.6873 42.0251 24.5283 41.984 24.376C41.9012 24.0675 41.7005 23.804 41.425 23.6423C41.1496 23.4807 40.8216 23.4339 40.512 23.512Z" fill="#333333"/>
<path d="M29.5679 15.896C29.8476 15.7879 30.0776 15.5803 30.2135 15.313C30.3494 15.0457 30.3818 14.7376 30.3044 14.4479C30.2271 14.1582 30.0453 13.9073 29.7942 13.7434C29.5431 13.5795 29.2403 13.5142 28.9439 13.56C28.6355 13.6428 28.3719 13.8435 28.2103 14.119C28.0486 14.3944 28.0018 14.7224 28.0799 15.032C28.1189 15.1876 28.1887 15.3338 28.2851 15.462C28.3815 15.5902 28.5027 15.6978 28.6414 15.7783C28.7802 15.8589 28.9336 15.9108 29.0928 15.931C29.2519 15.9512 29.4135 15.9393 29.5679 15.896Z" fill="#333333"/>
<path d="M19.5679 17.8962C19.8476 17.7881 20.0776 17.5805 20.2135 17.3132C20.3494 17.0459 20.3818 16.7378 20.3044 16.4481C20.2271 16.1584 20.0453 15.9075 19.7942 15.7436C19.5431 15.5797 19.2403 15.5144 18.9439 15.5602C18.6355 15.6429 18.3719 15.8437 18.2103 16.1191C18.0486 16.3945 18.0018 16.7225 18.0799 17.0322C18.1189 17.1878 18.1887 17.334 18.2851 17.4622C18.3815 17.5904 18.5027 17.6979 18.6414 17.7785C18.7802 17.859 18.9336 17.9109 19.0928 17.9311C19.2519 17.9514 19.4135 17.9395 19.5679 17.8962Z" fill="#333333"/>
<path d="M16.5679 19.8962C16.8476 19.7881 17.0776 19.5805 17.2135 19.3132C17.3494 19.0459 17.3818 18.7378 17.3044 18.4481C17.2271 18.1584 17.0453 17.9075 16.7942 17.7436C16.5431 17.5797 16.2403 17.5144 15.9439 17.5602C15.6355 17.6429 15.3719 17.8437 15.2103 18.1191C15.0486 18.3945 15.0018 18.7225 15.0799 19.0322C15.1189 19.1878 15.1887 19.334 15.2851 19.4622C15.3815 19.5904 15.5027 19.6979 15.6414 19.7785C15.7802 19.859 15.9336 19.9109 16.0928 19.9311C16.2519 19.9514 16.4135 19.9395 16.5679 19.8962Z" fill="#333333"/>
<path d="M35.6479 12.328C35.5617 12.0183 35.3578 11.7546 35.0798 11.5932C34.8018 11.4318 34.4717 11.3854 34.1599 11.464C33.8509 11.55 33.5884 11.7547 33.4295 12.0334C33.2707 12.3121 33.2284 12.6423 33.3119 12.952C33.3528 13.1044 33.4233 13.2473 33.5194 13.3724C33.6155 13.4976 33.7353 13.6025 33.8721 13.6813C34.0088 13.7601 34.1597 13.8111 34.3162 13.8315C34.4727 13.8518 34.6316 13.8411 34.7839 13.8C35.0924 13.7173 35.3559 13.5165 35.5176 13.2411C35.6793 12.9656 35.7261 12.6377 35.6479 12.328Z" fill="#333333"/>
<path d="M35.664 8.6C35.9823 8.51726 36.2546 8.31147 36.4211 8.02791C36.5877 7.74436 36.6348 7.40626 36.552 7.088C36.4693 6.76974 36.2635 6.49739 35.9799 6.33086C35.6964 6.16433 35.3583 6.11726 35.04 6.2C34.7315 6.28274 34.468 6.48352 34.3063 6.75894C34.1447 7.03437 34.0979 7.36234 34.176 7.672C34.2077 7.83337 34.2722 7.9865 34.3655 8.12189C34.4588 8.25729 34.579 8.37206 34.7185 8.45907C34.858 8.54609 35.014 8.60351 35.1766 8.62775C35.3393 8.65199 35.5052 8.64255 35.664 8.6Z" fill="#333333"/>
<path d="M18.696 21.848C18.696 22.4003 19.1437 22.848 19.696 22.848H23.0612C23.9158 22.8671 24.7582 23.055 25.5401 23.4008C26.325 23.7479 27.0333 24.2473 27.6238 24.8701C28.2143 25.4929 28.6755 26.2267 28.9804 27.0289C29.2854 27.8312 29.4282 28.6859 29.4005 29.5437C29.4001 29.5545 29.4 29.5652 29.4 29.576V42.8H3.27197V28.5493C3.31434 27.0224 3.95084 25.5722 5.04633 24.5072C6.14476 23.4395 7.61742 22.8439 9.14931 22.848H9.15197H12.096C12.6483 22.848 13.096 22.4003 13.096 21.848V16.952C13.096 16.644 12.9541 16.3532 12.7113 16.1637C11.7086 15.381 10.9754 14.3046 10.6143 13.085C10.2531 11.8653 10.2821 10.5632 10.697 9.3608C11.1119 8.15836 11.8922 7.11559 12.9287 6.37822C13.9644 5.64141 15.2042 5.24631 16.4752 5.248C17.791 5.25879 19.0692 5.68904 20.1237 6.47623C21.1735 7.25988 21.9472 8.35655 22.3334 9.60798C22.3842 9.81047 22.4511 10.263 22.5096 10.735C22.5378 10.9627 22.5617 11.1745 22.5786 11.3297C22.587 11.4071 22.5937 11.4701 22.5982 11.5135L22.6033 11.5632L22.6046 11.5758L22.6049 11.5788L22.6049 11.5794L22.6049 11.5795C22.6049 11.5795 22.6049 11.5795 22.6049 11.5795C22.6135 11.6647 22.6329 11.7485 22.6627 11.8287C22.9237 12.5301 23.2002 13.2131 23.4705 13.881L23.4712 13.8828L23.8534 14.8541C23.8683 14.892 23.8855 14.9289 23.9049 14.9646C23.9458 15.0402 23.9808 15.1187 24.0095 15.1994C23.9794 15.2019 23.9494 15.2042 23.9203 15.206C23.9116 15.2066 23.9033 15.2071 23.8953 15.2075C23.8066 15.1818 23.7129 15.168 23.616 15.168C23.0637 15.168 22.616 15.6157 22.616 16.168V18.0047C22.6126 18.4837 22.4202 18.942 22.0805 19.2798C21.7402 19.6181 21.2798 19.808 20.8 19.808H19.696C19.1437 19.808 18.696 20.2557 18.696 20.808V21.848Z" stroke="#333333" stroke-width="2" stroke-linejoin="round"/>
<path d="M24.2422 40.0561C24.3453 39.992 24.4313 39.9039 24.493 39.7994C25.261 38.6314 25.485 34.8874 24.557 31.7514C23.709 28.9034 21.117 26.1034 19.325 26.1034C19.1984 26.097 19.0721 26.1197 18.9556 26.1696C18.8392 26.2195 18.7357 26.2954 18.653 26.3914C18.189 26.9034 18.333 27.9914 18.333 29.1434V29.7834C18.237 29.7034 18.237 29.9914 18.237 30.3594V30.3594C18.1661 30.3149 18.1015 30.2611 18.045 30.1994C17.1718 28.8001 16.7786 27.1543 16.925 25.5114V25.0634V23.6234C16.9385 23.5308 16.9334 23.4365 16.91 23.3459C16.8866 23.2553 16.8454 23.1703 16.7888 23.0958C16.7322 23.0213 16.6614 22.9589 16.5803 22.9121C16.4993 22.8653 16.4098 22.8352 16.317 22.8234H16.157C16.104 22.8152 16.05 22.8152 15.997 22.8234C15.8082 22.8511 15.6381 22.9526 15.5241 23.1056C15.4101 23.2586 15.3615 23.4506 15.389 23.6394C15.469 23.9754 15.469 24.4554 15.469 25.0314V25.5594C15.5812 27.1929 15.1662 28.8193 14.285 30.1994L14.205 30.4234C14.205 30.0394 14.109 29.7514 14.109 29.8314V29.1914C14.173 28.0394 14.253 26.9514 13.789 26.4394C13.7048 26.3452 13.601 26.2706 13.4849 26.2208C13.3688 26.171 13.2432 26.1473 13.117 26.1514C11.325 26.1514 8.73297 28.9514 7.88497 31.7994C6.90897 34.9994 7.10097 38.6794 7.88497 39.7994C7.94083 39.8973 8.0194 39.9804 8.11407 40.0417C8.20874 40.1029 8.31674 40.1406 8.42897 40.1514C8.73077 40.1404 9.01696 40.0144 9.22897 39.7994L9.54897 39.4154C10.0502 39.0888 10.587 38.8204 11.149 38.6154C12.269 38.1194 13.341 37.6874 13.341 36.5194V35.9754V34.9674C13.3801 34.4656 13.4604 33.968 13.581 33.4794C13.7015 33.0117 13.787 32.5357 13.837 32.0554C14.3313 31.9233 14.7798 31.6576 15.133 31.2874C15.527 30.8707 15.8366 30.3817 16.045 29.8474C16.2533 30.3817 16.563 30.8707 16.957 31.2874C17.3135 31.6615 17.7682 31.9276 18.269 32.0554C18.3202 32.5345 18.4003 33.01 18.509 33.4794C18.6332 33.9679 18.7188 34.4654 18.765 34.9674C18.7846 35.3031 18.7846 35.6397 18.765 35.9754V36.5194C18.765 37.6825 19.828 38.1316 20.9586 38.6093L20.973 38.6154C21.5354 38.8193 22.0723 39.0878 22.573 39.4154L23.101 39.7994C23.2019 39.9123 23.3251 40.0033 23.4627 40.0666C23.6003 40.1299 23.7495 40.1642 23.901 40.1674C24.022 40.1584 24.1391 40.1202 24.2422 40.0561Z" fill="#333333"/>
</svg>
