<svg width="48" height="48" viewBox="0 0 48 48" fill="none" xmlns="http://www.w3.org/2000/svg">
<path fill-rule="evenodd" clip-rule="evenodd" d="M24.0236 21.9288C23.9881 21.9235 23.9526 21.9185 23.917 21.9137L24.3988 24.0506C23.9601 23.9275 23.5069 23.8592 23.0495 23.8481H19.696C18.5914 23.8481 17.696 22.9526 17.696 21.8481V20.8081C17.696 19.7035 18.5914 18.8081 19.696 18.8081H20.8C21.0156 18.8081 21.2225 18.7227 21.3754 18.5707C21.5273 18.4196 21.6137 18.2149 21.616 18.0007V16.1681C21.616 15.5745 21.8746 15.0413 22.2852 14.675L23.3175 19.2539C23.3458 19.1975 23.3721 19.1401 23.3966 19.0819L24.0236 21.9288ZM23.6401 21.8815C23.4515 21.8632 23.262 21.852 23.072 21.8481H19.696V20.8081H20.8C21.544 20.808 22.2579 20.5136 22.7855 19.9889C22.8314 19.9434 22.8755 19.8964 22.9178 19.8481C23.0768 19.6667 23.2107 19.4669 23.3175 19.2539L23.917 21.9137C23.825 21.9012 23.7326 21.8905 23.6401 21.8815Z" fill="#333333"/>
<path fill-rule="evenodd" clip-rule="evenodd" d="M24.4971 24.0792C24.4644 24.0693 24.4316 24.0598 24.3988 24.0506L28.4 41.8001H4.27197V28.5639C4.31041 27.3023 4.83785 26.1046 5.74336 25.2243C6.65447 24.3387 7.876 23.8447 9.14665 23.8481H12.096C13.2005 23.8481 14.096 22.9526 14.096 21.8481V16.9521C14.096 16.3361 13.8121 15.7545 13.3266 15.3755C12.4881 14.721 11.8751 13.821 11.5731 12.8011C11.2711 11.7812 11.2953 10.6925 11.6423 9.68707C11.9893 8.68162 12.6417 7.80968 13.5084 7.19311C14.3734 6.57768 15.4089 6.24735 16.4704 6.24805C17.5723 6.25782 18.6424 6.61843 19.5255 7.27763C20.3967 7.92799 21.0411 8.83552 21.3681 9.87149L22.0783 13.0963C21.9594 12.7944 21.841 12.4879 21.7255 12.1775L21.7169 12.154L21.6099 11.6792C21.6261 11.8413 21.6621 12.0007 21.7169 12.154L22.2852 14.675C22.3236 14.6407 22.3634 14.608 22.4043 14.5767L23.3966 19.0819C23.513 18.8046 23.585 18.5086 23.608 18.2049C23.6129 18.1396 23.6156 18.0739 23.616 18.0081V16.1681C23.616 16.2444 24.0716 16.1993 24.2902 16.1776C24.3462 16.1721 24.3869 16.1681 24.4 16.1681C24.5949 16.1367 24.7714 16.0344 24.8954 15.8809C25.0195 15.7273 25.0824 15.5332 25.072 15.3361C25.031 15.0788 24.9524 14.8293 24.839 14.5953L24.8313 14.5795C24.8161 14.5488 24.8003 14.5183 24.784 14.4881L24.4 13.5121C24.128 12.8401 23.856 12.168 23.6 11.4801C23.6 11.4801 23.44 9.88006 23.296 9.33606C22.8497 7.87273 21.9479 6.59009 20.7219 5.67493C19.4959 4.75977 18.0098 4.25988 16.48 4.24806C14.9996 4.24537 13.5553 4.70525 12.349 5.56343C11.1427 6.42161 10.2346 7.63521 9.7517 9.03464C9.26877 10.4341 9.23511 11.9494 9.65541 13.3689C10.0757 14.7884 10.929 16.0412 12.096 16.9521V21.8481H9.15197C7.35885 21.8433 5.63505 22.5404 4.3493 23.7903C3.06355 25.0401 2.31794 26.7435 2.27197 28.5361V43.8001H30.4V29.5761C30.4319 28.586 30.2671 27.5995 29.9152 26.6736C29.5632 25.7477 29.031 24.9009 28.3494 24.1821C27.6679 23.4633 26.8505 22.8869 25.9446 22.4863C25.3307 22.2148 24.6845 22.0277 24.0236 21.9288L24.4971 24.0792ZM22.4043 14.5767L22.0783 13.0963C22.2332 13.4894 22.3891 13.8746 22.5411 14.2502L22.5424 14.2535L22.6145 14.4365C22.5414 14.4789 22.4712 14.5257 22.4043 14.5767ZM24.4971 24.0792L28.4 41.8001V29.5761C28.4 29.5545 28.4003 29.533 28.401 29.5115C28.4244 28.7859 28.3037 28.0629 28.0457 27.3843C27.7877 26.7057 27.3977 26.085 26.8982 25.5583C26.3986 25.0315 25.7996 24.609 25.1356 24.3154C24.9275 24.2233 24.7142 24.1445 24.4971 24.0792Z" fill="#333333"/>
<path d="M36.4212 8.02797C36.2546 8.31152 35.9823 8.51731 35.664 8.60006C35.5052 8.6426 35.3393 8.65205 35.1766 8.6278C35.014 8.60356 34.858 8.54615 34.7185 8.45913C34.579 8.37211 34.4588 8.25734 34.3655 8.12195C34.2722 7.98655 34.2077 7.83342 34.176 7.67206C34.0979 7.3624 34.1447 7.03442 34.3063 6.759C34.468 6.48357 34.7315 6.2828 35.04 6.20006C35.3583 6.11731 35.6964 6.16438 35.9799 6.33091C36.2635 6.49744 36.4693 6.7698 36.552 7.08806C36.6348 7.40632 36.5877 7.74441 36.4212 8.02797Z" fill="#333333"/>
<path d="M44.304 8.34409C44.0749 8.28271 43.8327 8.29062 43.608 8.36684C43.3833 8.44305 43.1863 8.58415 43.0418 8.77229C42.8973 8.96044 42.8118 9.1872 42.7961 9.42391C42.7805 9.66062 42.8353 9.89667 42.9537 10.1022C43.0721 10.3078 43.2488 10.4736 43.4615 10.5788C43.6741 10.684 43.9132 10.7238 44.1484 10.6932C44.3837 10.6626 44.6045 10.5629 44.7832 10.4068C44.9618 10.2507 45.0902 10.0451 45.152 9.81609C45.1931 9.66375 45.2038 9.5048 45.1835 9.34833C45.1631 9.19185 45.1121 9.04094 45.0333 8.90421C44.9545 8.76748 44.8496 8.64763 44.7244 8.55152C44.5993 8.4554 44.4564 8.38492 44.304 8.34409Z" fill="#333333"/>
<path d="M39.344 13.08C39.5078 13.0781 39.6696 13.0431 39.8196 12.9771C39.9696 12.911 40.1047 12.8154 40.2168 12.6958C40.3289 12.5762 40.4156 12.4353 40.4718 12.2813C40.5281 12.1274 40.5526 11.9637 40.544 11.8C40.5461 11.6419 40.5165 11.4848 40.457 11.3383C40.3975 11.1917 40.3092 11.0586 40.1973 10.9467C40.0854 10.8349 39.9523 10.7465 39.8057 10.687C39.6592 10.6275 39.5021 10.5979 39.344 10.6C39.1737 10.5804 39.0011 10.597 38.8377 10.6488C38.6742 10.7005 38.5236 10.7862 38.3956 10.9003C38.2676 11.0144 38.1652 11.1542 38.0951 11.3107C38.025 11.4671 37.9887 11.6366 37.9887 11.808C37.9887 11.9795 38.025 12.149 38.0951 12.3054C38.1652 12.4619 38.2676 12.6017 38.3956 12.7158C38.5236 12.8299 38.6742 12.9156 38.8377 12.9673C39.0011 13.0191 39.1737 13.0357 39.344 13.016V13.08Z" fill="#333333"/>
<path d="M32.2224 16.6738C32.447 16.4462 32.7522 16.3162 33.0719 16.312C33.3932 16.3162 33.7001 16.4456 33.9272 16.6728C34.1544 16.8999 34.2838 17.2068 34.2879 17.528C34.2837 17.8477 34.1538 18.1529 33.9262 18.3775C33.6986 18.6021 33.3917 18.728 33.0719 18.728C32.7537 18.728 32.4485 18.6016 32.2234 18.3765C31.9984 18.1515 31.8719 17.8463 31.8719 17.528C31.8719 17.2083 31.9978 16.9014 32.2224 16.6738Z" fill="#333333"/>
<path d="M28.1455 19.2943C27.9209 19.5218 27.6157 19.6518 27.296 19.656C26.9747 19.6519 26.6679 19.5224 26.4407 19.2953C26.2135 19.0681 26.0841 18.7612 26.08 18.44C26.1141 18.1436 26.2561 17.8701 26.4788 17.6715C26.7016 17.473 26.9896 17.3633 27.288 17.3633C27.5863 17.3633 27.8743 17.473 28.0971 17.6715C28.3198 17.8701 28.4618 18.1436 28.496 18.44C28.496 18.7598 28.3701 19.0667 28.1455 19.2943Z" fill="#333333"/>
<path d="M39.8988 16.0802C40.0305 16.2823 40.0991 16.5189 40.096 16.7601C40.0918 17.0798 39.9618 17.385 39.7342 17.6096C39.5066 17.8342 39.1997 17.9601 38.88 17.9601C38.6388 17.9601 38.4031 17.8883 38.2028 17.754C38.0024 17.6196 37.8466 17.4288 37.7551 17.2056C37.6635 16.9825 37.6404 16.7372 37.6886 16.5009C37.7369 16.2646 37.8543 16.048 38.0259 15.8786C38.1976 15.7092 38.4158 15.5946 38.6527 15.5495C38.8896 15.5044 39.1346 15.5308 39.3565 15.6253C39.5784 15.7198 39.7672 15.8781 39.8988 16.0802Z" fill="#333333"/>
<path d="M30.7789 20.1795C30.9361 20.1602 31.0956 20.1725 31.2479 20.2159C31.4018 20.255 31.5464 20.3243 31.6733 20.4196C31.8002 20.515 31.9069 20.6346 31.9873 20.7715C32.0677 20.9084 32.1201 21.0599 32.1414 21.2172C32.1628 21.3745 32.1528 21.5345 32.1119 21.6879C32.0259 21.997 31.8213 22.2595 31.5426 22.4183C31.2639 22.5772 30.9337 22.6194 30.6239 22.5359C30.4715 22.4951 30.3287 22.4246 30.2035 22.3285C30.0784 22.2324 29.9734 22.1125 29.8946 21.9758C29.8159 21.8391 29.7648 21.6882 29.7445 21.5317C29.7241 21.3752 29.7348 21.2163 29.7759 21.0639C29.8148 20.9104 29.8842 20.7662 29.9798 20.6399C30.0754 20.5136 30.1954 20.4078 30.3327 20.3287C30.4699 20.2496 30.6217 20.1989 30.7789 20.1795Z" fill="#333333"/>
<path d="M36.672 20.4561C36.5196 20.4149 36.3607 20.4042 36.2042 20.4246C36.0477 20.445 35.8968 20.496 35.7601 20.5748C35.6234 20.6535 35.5035 20.7585 35.4074 20.8836C35.3113 21.0088 35.2408 21.1516 35.2 21.3041C35.1172 21.6117 35.1601 21.9396 35.3191 22.2157C35.4781 22.4917 35.7403 22.6933 36.048 22.7761C36.3556 22.8588 36.6836 22.8159 36.9596 22.6569C37.2357 22.4979 37.4372 22.2357 37.52 21.9281C37.5611 21.7757 37.5718 21.6168 37.5514 21.4603C37.5311 21.3038 37.4801 21.1529 37.4013 21.0162C37.3225 20.8794 37.2176 20.7596 37.0924 20.6635C36.9673 20.5674 36.8244 20.4969 36.672 20.4561Z" fill="#333333"/>
<path d="M43.165 18.6007C43.3938 18.5253 43.6399 18.5195 43.872 18.5841C44.0261 18.6248 44.1707 18.6958 44.2971 18.793C44.4235 18.8902 44.5292 19.0116 44.6082 19.1502C44.6871 19.2887 44.7377 19.4416 44.7569 19.5999C44.7761 19.7582 44.7635 19.9187 44.72 20.0721C44.6573 20.3047 44.5269 20.5134 44.3453 20.6718C44.1638 20.8302 43.9393 20.9311 43.7003 20.9617C43.4613 20.9923 43.2187 20.9512 43.0031 20.8437C42.7875 20.7361 42.6087 20.5669 42.4894 20.3576C42.3701 20.1483 42.3157 19.9083 42.3331 19.668C42.3504 19.4277 42.4387 19.198 42.5869 19.0079C42.735 18.8179 42.9362 18.6762 43.165 18.6007Z" fill="#333333"/>
<path d="M40.512 23.5121C40.2023 23.5983 39.9386 23.8022 39.7772 24.0802C39.6158 24.3582 39.5694 24.6883 39.648 25.0001C39.734 25.3091 39.9387 25.5716 40.2174 25.7305C40.4961 25.8893 40.8262 25.9316 41.136 25.8481C41.2884 25.8072 41.4313 25.7367 41.5564 25.6406C41.6815 25.5445 41.7865 25.4247 41.8653 25.2879C41.944 25.1512 41.9951 25.0003 42.0154 24.8438C42.0358 24.6873 42.0251 24.5284 41.984 24.3761C41.9012 24.0676 41.7005 23.8041 41.425 23.6424C41.1496 23.4807 40.8216 23.4339 40.512 23.5121Z" fill="#333333"/>
<path d="M30.2135 15.3129C30.0776 15.5802 29.8476 15.7878 29.5679 15.8959C29.4135 15.9392 29.2519 15.9511 29.0928 15.9309C28.9336 15.9107 28.7802 15.8588 28.6414 15.7782C28.5027 15.6977 28.3815 15.5901 28.2851 15.4619C28.1887 15.3338 28.1189 15.1875 28.0799 15.0319C28.0018 14.7223 28.0486 14.3943 28.2103 14.1189C28.3719 13.8434 28.6355 13.6427 28.9439 13.5599C29.2403 13.5141 29.5431 13.5794 29.7942 13.7433C30.0453 13.9072 30.2271 14.1581 30.3044 14.4478C30.3818 14.7375 30.3494 15.0456 30.2135 15.3129Z" fill="#333333"/>
<path d="M19.5679 17.8962C19.8476 17.7881 20.0776 17.5805 20.2135 17.3132C20.3494 17.0459 20.3818 16.7378 20.3044 16.4481C20.2271 16.1584 20.0453 15.9075 19.7942 15.7436C19.5431 15.5797 19.2403 15.5144 18.9439 15.5602C18.6355 15.6429 18.3719 15.8437 18.2103 16.1191C18.0486 16.3945 18.0018 16.7225 18.0799 17.0322C18.1189 17.1878 18.1887 17.334 18.2851 17.4622C18.3815 17.5904 18.5027 17.6979 18.6414 17.7785C18.7802 17.859 18.9336 17.9109 19.0928 17.9311C19.2519 17.9514 19.4135 17.9395 19.5679 17.8962Z" fill="#333333"/>
<path d="M17.2135 19.3132C17.0776 19.5805 16.8476 19.7881 16.5679 19.8962C16.4135 19.9395 16.2519 19.9514 16.0928 19.9311C15.9336 19.9109 15.7802 19.859 15.6414 19.7785C15.5027 19.6979 15.3815 19.5904 15.2851 19.4622C15.1887 19.334 15.1189 19.1878 15.0799 19.0322C15.0018 18.7225 15.0486 18.3945 15.2103 18.1191C15.3719 17.8437 15.6355 17.6429 15.9439 17.5602C16.2403 17.5144 16.5431 17.5797 16.7942 17.7436C17.0454 17.9075 17.2271 18.1584 17.3044 18.4481C17.3818 18.7378 17.3494 19.0459 17.2135 19.3132Z" fill="#333333"/>
<path d="M35.648 12.3279C35.5617 12.0182 35.3578 11.7545 35.0798 11.5931C34.8018 11.4317 34.4717 11.3853 34.16 11.4639C33.851 11.5499 33.5884 11.7546 33.4296 12.0333C33.2708 12.312 33.2285 12.6422 33.312 12.9519C33.3528 13.1043 33.4233 13.2472 33.5194 13.3723C33.6155 13.4975 33.7354 13.6024 33.8721 13.6812C34.0089 13.76 34.1598 13.811 34.3162 13.8314C34.4727 13.8517 34.6317 13.841 34.784 13.7999C35.0925 13.7172 35.356 13.5164 35.5177 13.241C35.6793 12.9655 35.7261 12.6376 35.648 12.3279Z" fill="#333333"/>
<path d="M24.493 39.7995C24.4314 39.904 24.3453 39.9921 24.2422 40.0562C24.1392 40.1203 24.0221 40.1585 23.901 40.1675C23.7496 40.1643 23.6004 40.13 23.4628 40.0667C23.3251 40.0034 23.202 39.9124 23.101 39.7995L22.573 39.4155C22.0724 39.0879 21.5355 38.8194 20.973 38.6155L20.9587 38.6094C19.828 38.1317 18.765 37.6826 18.765 36.5195V35.9755C18.7846 35.6398 18.7846 35.3032 18.765 34.9675C18.7189 34.4655 18.6333 33.968 18.509 33.4795C18.4004 33.0101 18.3202 32.5346 18.269 32.0555C17.7683 31.9277 17.3136 31.6616 16.957 31.2875C16.563 30.8708 16.2534 30.3818 16.045 29.8475C15.8367 30.3818 15.527 30.8708 15.133 31.2875C14.7798 31.6577 14.3314 31.9234 13.837 32.0555C13.7871 32.5358 13.7015 33.0118 13.581 33.4795C13.4605 33.9681 13.3802 34.4657 13.341 34.9675V36.5195C13.341 37.6475 12.3411 38.0891 11.2637 38.5648C11.2256 38.5816 11.1873 38.5985 11.149 38.6155C10.587 38.8205 10.0502 39.0889 9.54904 39.4155L9.22904 39.7995C9.01702 40.0145 8.73084 40.1405 8.42904 40.1515C8.3168 40.1407 8.2088 40.103 8.11413 40.0418C8.01946 39.9805 7.94089 39.8974 7.88504 39.7995C7.10104 38.6795 6.90904 34.9995 7.88504 31.7995C8.73304 28.9515 11.325 26.1515 13.117 26.1515C13.2433 26.1474 13.3689 26.1711 13.485 26.2209C13.6011 26.2707 13.7049 26.3453 13.789 26.4395C14.2359 26.9326 14.1782 27.96 14.1162 29.0643C14.1138 29.1066 14.1114 29.149 14.109 29.1915V29.8315C14.109 29.7515 14.205 30.0395 14.205 30.4235L14.285 30.1995C15.1662 28.8194 15.5812 27.193 15.469 25.5595V25.0315C15.469 24.4555 15.469 23.9755 15.389 23.6395C15.3616 23.4507 15.4102 23.2587 15.5242 23.1057C15.6382 22.9527 15.8083 22.8512 15.997 22.8235C16.0501 22.8154 16.104 22.8154 16.157 22.8235H16.317C16.4098 22.8353 16.4994 22.8654 16.5804 22.9122C16.6614 22.959 16.7323 23.0214 16.7889 23.0959C16.8455 23.1704 16.8867 23.2554 16.9101 23.346C16.9335 23.4366 16.9385 23.5309 16.925 23.6235V25.5115C16.7787 27.1544 17.1719 28.8002 18.045 30.1995C18.1015 30.2612 18.1661 30.315 18.237 30.3595C18.237 29.9915 18.237 29.7035 18.333 29.7835V29.1435C18.333 28.9166 18.3274 28.6922 18.322 28.4742C18.2999 27.5853 18.2804 26.8026 18.653 26.3915C18.7357 26.2955 18.8392 26.2196 18.9557 26.1697C19.0722 26.1198 19.1985 26.0971 19.325 26.1035C21.117 26.1035 23.709 28.9035 24.557 31.7515C25.485 34.8875 25.261 38.6315 24.493 39.7995Z" fill="#333333"/>
</svg>
