<svg width="48" height="48" viewBox="0 0 48 48" fill="none" xmlns="http://www.w3.org/2000/svg">
<path fill-rule="evenodd" clip-rule="evenodd" d="M31.0188 12.8312C31.5848 13.4221 32.3135 13.8315 33.1126 14.0077C33.6404 14.1259 34.1863 14.139 34.7191 14.0462C35.252 13.9534 35.7613 13.7565 36.2181 13.4668C36.6748 13.1771 37.07 12.8003 37.381 12.3578C37.6921 11.9153 37.9129 11.4159 38.0309 10.8881C38.2121 10.0902 38.1523 9.25642 37.859 8.49255C37.5658 7.72868 37.0523 7.06909 36.3838 6.5974C35.7152 6.12571 34.9216 5.86316 34.1036 5.84305C33.2857 5.82293 32.4801 6.04615 31.7892 6.48441C31.0983 6.92267 30.553 7.55623 30.2226 8.30476C29.8921 9.05329 29.7914 9.88308 29.9332 10.6889C30.0749 11.4948 30.4528 12.2404 31.0188 12.8312ZM36.079 10.4518C36.0184 10.7232 35.9048 10.9801 35.7449 11.2076C35.5849 11.4352 35.3817 11.629 35.1468 11.7779C34.9119 11.9269 34.65 12.0282 34.376 12.0759C34.102 12.1236 33.8212 12.1169 33.5498 12.0561L33.1126 14.0077L33.5432 12.0546C33.131 11.9637 32.755 11.7525 32.463 11.4476C32.171 11.1428 31.976 10.7582 31.9029 10.3424C31.8298 9.9267 31.8818 9.49861 32.0522 9.11244C32.2227 8.72627 32.504 8.39942 32.8605 8.17332C33.2169 7.94722 33.6325 7.83206 34.0545 7.84244C34.4765 7.85282 34.8859 7.98827 35.2308 8.23161C35.5757 8.47496 35.8406 8.81524 35.9919 9.20932C36.1432 9.6034 36.174 10.0335 36.0805 10.4452L36.079 10.4518Z" fill="#333333"/>
<path fill-rule="evenodd" clip-rule="evenodd" d="M33.4772 24.4804C33.7603 24.9381 33.8985 25.4706 33.8737 26.0083L35.0822 36.6178C35.1403 36.9359 35.1336 37.2625 35.0625 37.5779C34.9914 37.8934 34.8574 38.1912 34.6684 38.4536C34.4795 38.716 34.2395 38.9376 33.9629 39.1051C33.6863 39.2726 33.3787 39.3825 33.0587 39.4283C32.3856 39.4916 30.7145 39.2887 30.1892 38.8632C29.6638 38.4377 29.326 37.8234 29.2482 37.1518L28.2926 27.8211L16.9524 25.2776C16.2562 25.1282 15.6427 24.7201 15.2358 24.1359C14.8289 23.5516 14.6589 22.8346 14.7602 22.1299C14.9265 21.256 15.2251 20.4125 15.6455 19.6286C15.6455 19.6286 19.004 12.8553 22.489 10.5648C23.7333 9.5842 25.3123 9.13018 26.8874 9.30009C27.3021 9.30199 27.7046 9.44076 28.0324 9.69486C28.3602 9.94895 28.5949 10.3042 28.7001 10.7053V10.8318L31.0351 15.9727L37.2884 18.3616C37.7014 18.5204 38.0459 18.8186 38.2622 19.2046C38.4786 19.5906 38.5532 20.0401 38.4731 20.4753C38.3931 20.9105 37.1635 22.304 36.8239 22.5878C36.4844 22.8715 36.0564 23.0277 35.6139 23.0292C35.3833 23.0281 35.1547 22.9853 34.9394 22.9027L27.7024 20.0923C27.447 19.9952 27.2163 19.8439 27.0259 19.6495C26.9925 19.6154 26.9603 19.5799 26.9295 19.5432C26.9094 19.5193 26.89 19.495 26.8712 19.4702C26.6964 19.2398 26.5767 18.9719 26.522 18.687L26.1848 16.9867C25.8623 17.6293 25.5203 18.2618 25.1592 18.8831L25.1162 18.9569L25.1103 18.9671C24.98 19.1899 24.8472 19.4112 24.712 19.6311C24.506 19.9663 24.2942 20.2981 24.0769 20.6263L32.2717 23.4367C32.7679 23.6526 33.1867 24.0141 33.4728 24.4733L33.4772 24.4804ZM31.522 25.294L23.4281 22.5181C22.8424 22.3172 22.3828 21.8564 22.1834 21.2702C21.9841 20.6839 22.0675 20.0384 22.4093 19.5221C23.1399 18.4187 23.8037 17.2726 24.3972 16.0898C24.7804 15.326 25.6065 14.8901 26.4532 15.0048C27.3 15.1195 27.9803 15.7595 28.1466 16.5976L28.4736 18.2462L35.5857 21.0082C35.6203 20.9734 35.6737 20.9186 35.7464 20.8401C35.8841 20.6914 36.0459 20.507 36.2002 20.3191C36.251 20.2572 36.2987 20.1977 36.3429 20.1413L30.3214 17.841C29.8297 17.6531 29.4318 17.279 29.2141 16.7997L26.8792 11.6589C26.826 11.5418 26.7844 11.4201 26.7547 11.2957C26.7274 11.2939 26.7001 11.2915 26.6729 11.2886C25.6179 11.1748 24.5604 11.4788 23.727 12.1356C23.6819 12.1711 23.6354 12.2046 23.5875 12.2361C22.228 13.1297 20.7093 15.071 19.4417 17.0387C18.8351 17.9804 18.3301 18.8573 17.9768 19.4991C17.8005 19.8191 17.6632 20.0786 17.571 20.2558C17.525 20.3444 17.4903 20.4123 17.4677 20.4567L17.4431 20.5055L17.4373 20.517C17.4279 20.536 17.418 20.5552 17.408 20.5739C17.0925 21.1622 16.8659 21.794 16.7357 22.4485C16.7164 22.6407 16.7663 22.8338 16.877 22.9929C16.9944 23.1614 17.1713 23.279 17.3721 23.3221L17.3901 23.3261L28.7303 25.8696C29.5696 26.0578 30.1946 26.7616 30.2822 27.6173L31.2359 36.93C31.2507 37.043 31.298 37.1485 31.3711 37.2341L31.3793 37.2368C31.5024 37.2765 31.6822 37.3199 31.902 37.3571C32.1173 37.3935 32.3374 37.4183 32.5292 37.4307C32.6242 37.4368 32.7052 37.4395 32.7694 37.4396C32.7892 37.4397 32.8064 37.4395 32.821 37.4392C32.8583 37.4294 32.894 37.4143 32.927 37.3943C32.9734 37.3662 33.0137 37.329 33.0454 37.285C33.077 37.241 33.0995 37.1911 33.1114 37.1382C33.1234 37.0853 33.1245 37.0305 33.1147 36.9772C33.1067 36.9331 33.1001 36.8887 33.095 36.8442L31.8865 26.2347C31.8745 26.1289 31.8709 26.0223 31.8758 25.916C31.8821 25.7803 31.847 25.646 31.7752 25.5308C31.7129 25.4307 31.6254 25.3492 31.522 25.294Z" fill="#333333"/>
<path fill-rule="evenodd" clip-rule="evenodd" d="M16.3663 35.0755C17.1477 35.0326 17.9217 34.99 18.5939 35.0024C19.7671 35.0242 20.9481 35.2008 22.0175 35.8845C22.5803 36.2444 22.9909 36.7131 23.0967 37.3358C23.1824 37.8406 23.0236 38.2984 22.9524 38.5036L22.9384 38.5445C22.931 38.5662 22.9245 38.5858 22.9188 38.6036C22.9503 38.6216 22.9892 38.6422 23.0371 38.6651C23.2935 38.7881 23.7678 39.0519 23.9404 39.5824C24.1694 40.2861 23.716 40.7859 23.4797 40.9775C23.2264 41.1831 22.9094 41.3224 22.6322 41.4214C22.3365 41.5269 21.999 41.6165 21.6465 41.6911C20.2739 41.9815 18.3287 42.1146 17.0229 41.879C15.7638 41.6519 15.0723 41.1981 14.4369 40.781C14.3875 40.7486 14.3383 40.7163 14.2893 40.6844C13.6777 40.2865 12.9674 39.8559 11.4277 39.5053L11.0557 39.4207C10.3718 39.2652 9.761 39.1264 9.25876 39.003C8.69042 38.8634 8.17662 38.7243 7.84047 38.5792C7.75077 38.5404 7.64327 38.4886 7.53878 38.4202C7.45301 38.3639 7.26799 38.2327 7.13782 38.0007C6.96591 37.6942 6.93888 37.2907 7.14788 36.9359C7.30351 36.6717 7.53014 36.5426 7.62828 36.4917C7.84517 36.3791 8.10313 36.3186 8.30946 36.2783C8.54094 36.2332 8.82422 36.1929 9.15445 36.1553C11.0126 35.9188 12.8565 35.5898 14.6789 35.1696L14.776 35.1472L14.8757 35.1444C15.3589 35.1309 15.8643 35.1031 16.3663 35.0755ZM15.0314 37.1407C14.1539 37.3414 13.2717 37.5218 12.3854 37.6816C13.8794 38.0782 14.7005 38.566 15.3799 39.008L15.5205 39.0998C16.1243 39.4947 16.5251 39.757 17.378 39.9108C18.3412 40.0846 19.9974 39.9929 21.2127 39.7385C21.0862 39.5717 20.9883 39.3812 20.9303 39.1623C20.7901 38.6338 20.9612 38.1417 21.0313 37.9399L21.0439 37.9032C21.0792 37.799 21.0986 37.7339 21.1092 37.6954C21.078 37.6664 21.0255 37.6241 20.9402 37.5696C20.3208 37.1736 19.5708 37.0209 18.5569 37.0021C17.9301 36.9905 17.3094 37.026 16.6109 37.0659C16.1305 37.0933 15.6125 37.1229 15.0314 37.1407ZM22.2512 40.513C22.252 40.5128 22.2455 40.5076 22.2288 40.4979C22.242 40.5084 22.2503 40.5132 22.2512 40.513ZM21.1502 37.7415C21.1506 37.7415 21.1489 37.7382 21.1438 37.7318C21.1473 37.7383 21.1498 37.7415 21.1502 37.7415Z" fill="#333333"/>
<path d="M19.4677 29.1139L19.47 29.1094C19.5114 29.028 19.5361 28.9391 19.5428 28.848C19.5496 28.7552 19.5376 28.662 19.5074 28.5741C19.4771 28.4861 19.4294 28.4051 19.3671 28.3361C19.3047 28.267 19.229 28.2113 19.1445 28.1724C18.9748 28.0894 18.7792 28.0769 18.6003 28.1374C18.4334 28.1938 18.2936 28.3096 18.2069 28.4619C18.2007 28.473 18.1947 28.4842 18.189 28.4956L16.2497 32.5427L16.2475 32.5472C16.2081 32.6289 16.1849 32.7176 16.1792 32.8082C16.1734 32.9005 16.1858 32.993 16.2159 33.0805C16.2459 33.168 16.2929 33.2487 16.3542 33.3179C16.4154 33.3872 16.4898 33.4437 16.5729 33.4842C16.6681 33.534 16.7747 33.5583 16.8821 33.5544C17.0158 33.5557 17.1472 33.5195 17.2615 33.45C17.3732 33.3819 17.4642 33.2847 17.5245 33.1687L17.5285 33.161L19.4677 29.1139Z" fill="#333333"/>
<path d="M17.1627 27.4218C17.155 27.4477 17.1458 27.4732 17.1351 27.4981L14.6618 33.119C14.6545 33.1358 14.6466 33.1523 14.638 33.1683C14.6333 33.1772 14.6284 33.186 14.6233 33.1946C14.5685 33.2876 14.4928 33.3671 14.4017 33.4265C14.2868 33.5014 14.1526 33.5411 14.0154 33.5406C13.9229 33.5617 13.8269 33.5617 13.7344 33.5406C13.6481 33.5055 13.5697 33.4532 13.5042 33.387C13.4387 33.3207 13.3872 33.2418 13.3531 33.1551C13.3189 33.0684 13.3027 32.9757 13.3055 32.8825C13.3082 32.7894 13.3298 32.6977 13.369 32.6132L15.8282 26.9922C15.8334 26.9761 15.8392 26.9601 15.8456 26.9444L15.8504 26.9328C15.8796 26.8644 15.9198 26.801 15.9695 26.7452C16.0333 26.6735 16.1114 26.6161 16.1987 26.5764C16.286 26.5367 16.3807 26.5157 16.4766 26.5147C16.5725 26.5137 16.6675 26.5328 16.7556 26.5707C16.842 26.606 16.9204 26.6582 16.9863 26.7241C17.0523 26.7901 17.1044 26.8685 17.1397 26.9549C17.1751 27.0412 17.1928 27.1337 17.192 27.227C17.1915 27.2931 17.1816 27.3587 17.1627 27.4218Z" fill="#333333"/>
</svg>
