<svg width="48" height="48" viewBox="0 0 48 48" fill="none" xmlns="http://www.w3.org/2000/svg">
<path d="M33.3279 13.0311L33.3279 13.0311C32.7223 12.8976 32.1699 12.5873 31.7409 12.1394C31.3119 11.6916 31.0255 11.1265 30.9181 10.5157C30.8106 9.90489 30.887 9.27595 31.1374 8.7086C31.3879 8.14125 31.8011 7.66105 32.3248 7.32887M33.3279 13.0311L32.3248 7.32887M33.3279 13.0311L33.3312 13.0319C33.7308 13.1214 34.1441 13.1313 34.5476 13.0611L34.7152 14.0234L34.5476 13.061C34.951 12.9908 35.3366 12.8417 35.6825 12.6224C36.0283 12.403 36.3275 12.1177 36.563 11.7827C36.7985 11.4477 36.9657 11.0696 37.055 10.6699L37.055 10.6699L37.0557 10.6666C37.1931 10.0618 37.1477 9.42991 36.9255 8.85094C36.7032 8.27196 36.314 7.77203 35.8073 7.41451C35.3006 7.05699 34.6991 6.85799 34.0791 6.84274C33.4591 6.8275 32.8485 6.99669 32.3248 7.32887M33.3279 13.0311L31.7892 6.48441L32.3248 7.32887" stroke="#333333" stroke-width="2"/>
<mask id="path-2-inside-1" fill="white">
<path d="M14.7603 22.1294C14.9265 21.2555 15.2251 20.412 15.6455 19.6281C15.6455 19.6281 19.0041 12.8548 22.489 10.5643C23.7333 9.58371 25.3123 9.12969 26.8874 9.2996C27.3021 9.3015 27.7046 9.44028 28.0324 9.69437C28.3602 9.94847 28.5949 10.3037 28.7002 10.7048C28.7002 10.7048 28.7002 10.7891 28.7002 10.8313L31.0351 15.9722L37.2884 18.3611C37.7014 18.5199 38.0459 18.8181 38.2622 19.2041C38.4786 19.5901 38.5532 20.0396 38.4732 20.4748C38.3931 20.91 37.1635 22.3035 36.824 22.5873C36.4844 22.8711 36.0564 23.0272 35.6139 23.0287C35.3833 23.0276 35.1548 22.9848 34.9394 22.9023L27.7024 20.0918C27.4022 19.9777 27.1361 19.7887 26.9295 19.5427C26.7229 19.2968 26.5826 19.002 26.5221 18.6866L26.1848 16.9862C25.5555 18.2404 24.8516 19.4558 24.0769 20.6258L32.2717 23.4362C32.7679 23.6521 33.1867 24.0136 33.4728 24.4728C33.7589 24.932 33.8987 25.4674 33.8737 26.0078L35.0822 36.6173C35.1403 36.9354 35.1336 37.262 35.0625 37.5774C34.9914 37.8929 34.8574 38.1907 34.6684 38.4531C34.4795 38.7155 34.2395 38.9371 33.9629 39.1046C33.6863 39.2721 33.3788 39.382 33.0587 39.4278C32.3856 39.4911 30.7145 39.2882 30.1892 38.8627C29.6638 38.4372 29.3261 37.8229 29.2482 37.1513L28.2926 27.8206L16.9524 25.2771C16.2563 25.1277 15.6428 24.7196 15.2358 24.1354C14.8289 23.5511 14.659 22.8341 14.7603 22.1294Z"/>
</mask>
<path d="M14.7603 22.1294L12.7806 21.8449C12.7849 21.815 12.7899 21.7852 12.7955 21.7555L14.7603 22.1294ZM15.6455 19.6281L17.4374 20.5165C17.4279 20.5356 17.4181 20.5546 17.408 20.5734L15.6455 19.6281ZM22.489 10.5643L23.727 12.1351C23.6819 12.1706 23.6354 12.2041 23.5875 12.2356L22.489 10.5643ZM26.8874 9.2996L26.8782 11.2996C26.8096 11.2993 26.7411 11.2954 26.6729 11.2881L26.8874 9.2996ZM28.7002 10.7048L30.6347 10.1974C30.6782 10.363 30.7002 10.5336 30.7002 10.7048H28.7002ZM28.7002 10.8313L26.8792 11.6584C26.7612 11.3986 26.7002 11.1166 26.7002 10.8313H28.7002ZM31.0351 15.9722L30.3214 17.8405C29.8297 17.6526 29.4318 17.2785 29.2142 16.7993L31.0351 15.9722ZM37.2884 18.3611L38.0022 16.4928L38.0064 16.4944L37.2884 18.3611ZM35.6139 23.0287L35.6208 25.0287C35.6153 25.0287 35.6098 25.0287 35.6043 25.0287L35.6139 23.0287ZM34.9394 22.9023L34.2239 24.7699L34.2154 24.7666L34.9394 22.9023ZM27.7024 20.0918L28.4129 18.2222C28.4174 18.2239 28.4219 18.2257 28.4265 18.2274L27.7024 20.0918ZM26.5221 18.6866L28.4839 18.2974L28.4862 18.3095L26.5221 18.6866ZM26.1848 16.9862L24.3972 16.0893C24.7804 15.3256 25.6065 14.8896 26.4532 15.0043C27.3 15.119 27.9803 15.759 28.1466 16.5971L26.1848 16.9862ZM24.0769 20.6258L23.4281 22.5176C22.8424 22.3167 22.3828 21.8559 22.1834 21.2697C21.9841 20.6834 22.0675 20.0379 22.4094 19.5216L24.0769 20.6258ZM32.2717 23.4362L32.9206 21.5444C32.971 21.5617 33.0207 21.581 33.0696 21.6023L32.2717 23.4362ZM33.8737 26.0078L31.8866 26.2342C31.8745 26.1284 31.8709 26.0218 31.8758 25.9155L33.8737 26.0078ZM35.0822 36.6173L33.1148 36.9767C33.1067 36.9326 33.1001 36.8882 33.0951 36.8437L35.0822 36.6173ZM33.0587 39.4278L33.3419 41.4076C33.31 41.4122 33.278 41.416 33.2459 41.419L33.0587 39.4278ZM29.2482 37.1513L27.2615 37.3817C27.2605 37.3728 27.2595 37.364 27.2586 37.3551L29.2482 37.1513ZM28.2926 27.8206L28.7303 25.8691C29.5697 26.0573 30.1946 26.7611 30.2822 27.6168L28.2926 27.8206ZM16.9524 25.2771L17.3721 23.3216C17.3781 23.3229 17.3841 23.3242 17.3901 23.3256L16.9524 25.2771ZM12.7955 21.7555C12.9998 20.6819 13.3665 19.6458 13.8831 18.6828L17.408 20.5734C17.0836 21.1782 16.8533 21.829 16.725 22.5033L12.7955 21.7555ZM15.6455 19.6281C13.8537 18.7396 13.8539 18.7393 13.854 18.739C13.8541 18.7389 13.8542 18.7386 13.8544 18.7383C13.8546 18.7378 13.8549 18.7371 13.8553 18.7364C13.8561 18.7349 13.857 18.733 13.8581 18.7307C13.8604 18.7261 13.8635 18.7199 13.8674 18.7121C13.8753 18.6965 13.8863 18.6746 13.9005 18.6466C13.9288 18.5908 13.9697 18.5109 14.0223 18.4098C14.1274 18.2077 14.2797 17.9201 14.4728 17.5694C14.8581 16.8695 15.4105 15.91 16.0791 14.872C17.362 12.8805 19.2651 10.29 21.3905 8.89299L23.5875 12.2356C22.228 13.1292 20.7093 15.0706 19.4418 17.0382C18.8351 17.9799 18.3301 18.8569 17.9768 19.4986C17.8006 19.8186 17.6632 20.0781 17.5711 20.2553C17.525 20.3439 17.4903 20.4118 17.4677 20.4562C17.4565 20.4785 17.4482 20.4949 17.4431 20.505C17.4406 20.5101 17.4388 20.5136 17.4379 20.5156C17.4374 20.5165 17.4371 20.5171 17.437 20.5173C17.437 20.5173 17.437 20.5173 17.437 20.5172C17.4371 20.5171 17.4371 20.517 17.4372 20.517C17.4373 20.5168 17.4374 20.5165 15.6455 19.6281ZM21.2511 8.99348C22.9063 7.68907 25.0067 7.08512 27.1019 7.31114L26.6729 11.2881C25.6179 11.1743 24.5604 11.4784 23.727 12.1351L21.2511 8.99348ZM26.8966 7.29962C27.7518 7.30355 28.5818 7.58971 29.2578 8.11369L26.8071 11.2751C26.8275 11.2908 26.8525 11.2995 26.8782 11.2996L26.8966 7.29962ZM29.2578 8.11369C29.9337 8.63767 30.4177 9.37014 30.6347 10.1974L26.7656 11.2123C26.7721 11.2372 26.7867 11.2593 26.8071 11.2751L29.2578 8.11369ZM28.7002 10.7048C30.7002 10.7048 30.7002 10.7048 30.7002 10.7048C30.7002 10.7048 30.7002 10.7048 30.7002 10.7048C30.7002 10.7048 30.7002 10.7048 30.7002 10.7048C30.7002 10.7048 30.7002 10.7048 30.7002 10.7048C30.7002 10.7049 30.7002 10.7049 30.7002 10.7049C30.7002 10.7049 30.7002 10.7049 30.7002 10.7049C30.7002 10.7049 30.7002 10.7049 30.7002 10.7049C30.7002 10.7049 30.7002 10.7049 30.7002 10.7049C30.7002 10.7049 30.7002 10.7049 30.7002 10.7049C30.7002 10.7049 30.7002 10.7049 30.7002 10.7049C30.7002 10.7049 30.7002 10.7049 30.7002 10.7049C30.7002 10.705 30.7002 10.705 30.7002 10.705C30.7002 10.705 30.7002 10.705 30.7002 10.705C30.7002 10.705 30.7002 10.705 30.7002 10.705C30.7002 10.705 30.7002 10.705 30.7002 10.705C30.7002 10.7051 30.7002 10.7051 30.7002 10.7051C30.7002 10.7051 30.7002 10.7051 30.7002 10.7051C30.7002 10.7051 30.7002 10.7051 30.7002 10.7051C30.7002 10.7052 30.7002 10.7052 30.7002 10.7052C30.7002 10.7052 30.7002 10.7052 30.7002 10.7052C30.7002 10.7052 30.7002 10.7052 30.7002 10.7053C30.7002 10.7053 30.7002 10.7053 30.7002 10.7053C30.7002 10.7053 30.7002 10.7053 30.7002 10.7053C30.7002 10.7053 30.7002 10.7054 30.7002 10.7054C30.7002 10.7054 30.7002 10.7054 30.7002 10.7054C30.7002 10.7054 30.7002 10.7055 30.7002 10.7055C30.7002 10.7055 30.7002 10.7055 30.7002 10.7055C30.7002 10.7055 30.7002 10.7056 30.7002 10.7056C30.7002 10.7056 30.7002 10.7056 30.7002 10.7056C30.7002 10.7056 30.7002 10.7057 30.7002 10.7057C30.7002 10.7057 30.7002 10.7057 30.7002 10.7057C30.7002 10.7058 30.7002 10.7058 30.7002 10.7058C30.7002 10.7058 30.7002 10.7058 30.7002 10.7059C30.7002 10.7059 30.7002 10.7059 30.7002 10.7059C30.7002 10.7059 30.7002 10.706 30.7002 10.706C30.7002 10.706 30.7002 10.706 30.7002 10.706C30.7002 10.7061 30.7002 10.7061 30.7002 10.7061C30.7002 10.7061 30.7002 10.7062 30.7002 10.7062C30.7002 10.7062 30.7002 10.7062 30.7002 10.7062C30.7002 10.7063 30.7002 10.7063 30.7002 10.7063C30.7002 10.7063 30.7002 10.7064 30.7002 10.7064C30.7002 10.7064 30.7002 10.7064 30.7002 10.7065C30.7002 10.7065 30.7002 10.7065 30.7002 10.7065C30.7002 10.7066 30.7002 10.7066 30.7002 10.7066C30.7002 10.7066 30.7002 10.7067 30.7002 10.7067C30.7002 10.7067 30.7002 10.7068 30.7002 10.7068C30.7002 10.7068 30.7002 10.7068 30.7002 10.7069C30.7002 10.7069 30.7002 10.7069 30.7002 10.707C30.7002 10.707 30.7002 10.707 30.7002 10.707C30.7002 10.7071 30.7002 10.7071 30.7002 10.7071C30.7002 10.7072 30.7002 10.7072 30.7002 10.7072C30.7002 10.7072 30.7002 10.7073 30.7002 10.7073C30.7002 10.7073 30.7002 10.7074 30.7002 10.7074C30.7002 10.7074 30.7002 10.7075 30.7002 10.7075C30.7002 10.7075 30.7002 10.7076 30.7002 10.7076C30.7002 10.7076 30.7002 10.7077 30.7002 10.7077C30.7002 10.7077 30.7002 10.7078 30.7002 10.7078C30.7002 10.7078 30.7002 10.7079 30.7002 10.7079C30.7002 10.7079 30.7002 10.708 30.7002 10.708C30.7002 10.708 30.7002 10.7081 30.7002 10.7081C30.7002 10.7081 30.7002 10.7082 30.7002 10.7082C30.7002 10.7082 30.7002 10.7083 30.7002 10.7083C30.7002 10.7084 30.7002 10.7084 30.7002 10.7084C30.7002 10.7085 30.7002 10.7085 30.7002 10.7085C30.7002 10.7086 30.7002 10.7086 30.7002 10.7087C30.7002 10.7087 30.7002 10.7087 30.7002 10.7088C30.7002 10.7088 30.7002 10.7088 30.7002 10.7089C30.7002 10.7089 30.7002 10.709 30.7002 10.709C30.7002 10.709 30.7002 10.7091 30.7002 10.7091C30.7002 10.7092 30.7002 10.7092 30.7002 10.7092C30.7002 10.7093 30.7002 10.7093 30.7002 10.7094C30.7002 10.7094 30.7002 10.7094 30.7002 10.7095C30.7002 10.7095 30.7002 10.7096 30.7002 10.7096C30.7002 10.7097 30.7002 10.7097 30.7002 10.7097C30.7002 10.7098 30.7002 10.7098 30.7002 10.7099C30.7002 10.7099 30.7002 10.71 30.7002 10.71C30.7002 10.71 30.7002 10.7101 30.7002 10.7101C30.7002 10.7102 30.7002 10.7102 30.7002 10.7103C30.7002 10.7103 30.7002 10.7103 30.7002 10.7104C30.7002 10.7104 30.7002 10.7105 30.7002 10.7105C30.7002 10.7106 30.7002 10.7106 30.7002 10.7107C30.7002 10.7107 30.7002 10.7108 30.7002 10.7108C30.7002 10.7108 30.7002 10.7109 30.7002 10.7109C30.7002 10.711 30.7002 10.711 30.7002 10.7111C30.7002 10.7111 30.7002 10.7112 30.7002 10.7112C30.7002 10.7113 30.7002 10.7113 30.7002 10.7114C30.7002 10.7114 30.7002 10.7115 30.7002 10.7115C30.7002 10.7116 30.7002 10.7116 30.7002 10.7117C30.7002 10.7117 30.7002 10.7118 30.7002 10.7118C30.7002 10.7119 30.7002 10.7119 30.7002 10.712C30.7002 10.712 30.7002 10.7121 30.7002 10.7121C30.7002 10.7122 30.7002 10.7122 30.7002 10.7123C30.7002 10.7123 30.7002 10.7124 30.7002 10.7124C30.7002 10.7125 30.7002 10.7125 30.7002 10.7126C30.7002 10.7126 30.7002 10.7127 30.7002 10.7127C30.7002 10.7128 30.7002 10.7128 30.7002 10.7129C30.7002 10.7129 30.7002 10.713 30.7002 10.7131C30.7002 10.7131 30.7002 10.7132 30.7002 10.7132C30.7002 10.7133 30.7002 10.7133 30.7002 10.7134C30.7002 10.7134 30.7002 10.7135 30.7002 10.7135C30.7002 10.7136 30.7002 10.7137 30.7002 10.7137C30.7002 10.7138 30.7002 10.7138 30.7002 10.7139C30.7002 10.7139 30.7002 10.714 30.7002 10.714C30.7002 10.7141 30.7002 10.7142 30.7002 10.7142C30.7002 10.7143 30.7002 10.7143 30.7002 10.7144C30.7002 10.7144 30.7002 10.7145 30.7002 10.7146C30.7002 10.7146 30.7002 10.7147 30.7002 10.7147C30.7002 10.7148 30.7002 10.7148 30.7002 10.7149C30.7002 10.715 30.7002 10.715 30.7002 10.7151C30.7002 10.7151 30.7002 10.7152 30.7002 10.7153C30.7002 10.7153 30.7002 10.7154 30.7002 10.7154C30.7002 10.7155 30.7002 10.7156 30.7002 10.7156C30.7002 10.7157 30.7002 10.7157 30.7002 10.7158C30.7002 10.7159 30.7002 10.7159 30.7002 10.716C30.7002 10.716 30.7002 10.7161 30.7002 10.7162C30.7002 10.7162 30.7002 10.7163 30.7002 10.7163C30.7002 10.7164 30.7002 10.7165 30.7002 10.7165C30.7002 10.7166 30.7002 10.7167 30.7002 10.7167C30.7002 10.7168 30.7002 10.7168 30.7002 10.7169C30.7002 10.717 30.7002 10.717 30.7002 10.7171C30.7002 10.7172 30.7002 10.7172 30.7002 10.7173C30.7002 10.7174 30.7002 10.7174 30.7002 10.7175C30.7002 10.7175 30.7002 10.7176 30.7002 10.7177C30.7002 10.7177 30.7002 10.7178 30.7002 10.7179C30.7002 10.7179 30.7002 10.718 30.7002 10.7181C30.7002 10.7181 30.7002 10.7182 30.7002 10.7183C30.7002 10.7183 30.7002 10.7184 30.7002 10.7185C30.7002 10.7185 30.7002 10.7186 30.7002 10.7187C30.7002 10.7187 30.7002 10.7188 30.7002 10.7189C30.7002 10.7189 30.7002 10.719 30.7002 10.7191C30.7002 10.7191 30.7002 10.7192 30.7002 10.7193C30.7002 10.7193 30.7002 10.7194 30.7002 10.7195C30.7002 10.7195 30.7002 10.7196 30.7002 10.7197C30.7002 10.7198 30.7002 10.7198 30.7002 10.7199C30.7002 10.72 30.7002 10.72 30.7002 10.7201C30.7002 10.7202 30.7002 10.7202 30.7002 10.7203C30.7002 10.7204 30.7002 10.7205 30.7002 10.7205C30.7002 10.7206 30.7002 10.7207 30.7002 10.7207C30.7002 10.7208 30.7002 10.7209 30.7002 10.7209C30.7002 10.721 30.7002 10.7211 30.7002 10.7212C30.7002 10.7212 30.7002 10.7213 30.7002 10.7214C30.7002 10.7214 30.7002 10.7215 30.7002 10.7216C30.7002 10.7217 30.7002 10.7217 30.7002 10.7218C30.7002 10.7219 30.7002 10.722 30.7002 10.722C30.7002 10.7221 30.7002 10.7222 30.7002 10.7222C30.7002 10.7223 30.7002 10.7224 30.7002 10.7225C30.7002 10.7225 30.7002 10.7226 30.7002 10.7227C30.7002 10.7228 30.7002 10.7228 30.7002 10.7229C30.7002 10.723 30.7002 10.7231 30.7002 10.7231C30.7002 10.7232 30.7002 10.7233 30.7002 10.7234C30.7002 10.7234 30.7002 10.7235 30.7002 10.7236C30.7002 10.7237 30.7002 10.7237 30.7002 10.7238C30.7002 10.7239 30.7002 10.724 30.7002 10.724C30.7002 10.7241 30.7002 10.7242 30.7002 10.7243C30.7002 10.7244 30.7002 10.7244 30.7002 10.7245C30.7002 10.7246 30.7002 10.7247 30.7002 10.7247C30.7002 10.7248 30.7002 10.7249 30.7002 10.725C30.7002 10.725 30.7002 10.7251 30.7002 10.7252C30.7002 10.7253 30.7002 10.7254 30.7002 10.7254C30.7002 10.7255 30.7002 10.7256 30.7002 10.7257C30.7002 10.7258 30.7002 10.7258 30.7002 10.7259C30.7002 10.726 30.7002 10.7261 30.7002 10.7262C30.7002 10.7262 30.7002 10.7263 30.7002 10.7264C30.7002 10.7265 30.7002 10.7265 30.7002 10.7266C30.7002 10.7267 30.7002 10.7268 30.7002 10.7269C30.7002 10.727 30.7002 10.727 30.7002 10.7271C30.7002 10.7272 30.7002 10.7273 30.7002 10.7274C30.7002 10.7274 30.7002 10.7275 30.7002 10.7276C30.7002 10.7277 30.7002 10.7278 30.7002 10.7278C30.7002 10.7279 30.7002 10.728 30.7002 10.7281C30.7002 10.7282 30.7002 10.7283 30.7002 10.7283C30.7002 10.7284 30.7002 10.7285 30.7002 10.7286C30.7002 10.7287 30.7002 10.7288 30.7002 10.7288C30.7002 10.7289 30.7002 10.729 30.7002 10.7291C30.7002 10.7292 30.7002 10.7293 30.7002 10.7293C30.7002 10.7294 30.7002 10.7295 30.7002 10.7296C30.7002 10.7297 30.7002 10.7298 30.7002 10.7298C30.7002 10.7299 30.7002 10.73 30.7002 10.7301C30.7002 10.7302 30.7002 10.7303 30.7002 10.7303C30.7002 10.7304 30.7002 10.7305 30.7002 10.7306C30.7002 10.7307 30.7002 10.7308 30.7002 10.7309C30.7002 10.7309 30.7002 10.731 30.7002 10.7311C30.7002 10.7312 30.7002 10.7313 30.7002 10.7314C30.7002 10.7315 30.7002 10.7315 30.7002 10.7316C30.7002 10.7317 30.7002 10.7318 30.7002 10.7319C30.7002 10.732 30.7002 10.7321 30.7002 10.7322C30.7002 10.7322 30.7002 10.7323 30.7002 10.7324C30.7002 10.7325 30.7002 10.7326 30.7002 10.7327C30.7002 10.7328 30.7002 10.7329 30.7002 10.7329C30.7002 10.733 30.7002 10.7331 30.7002 10.7332C30.7002 10.7333 30.7002 10.7334 30.7002 10.7335C30.7002 10.7336 30.7002 10.7336 30.7002 10.7337C30.7002 10.7338 30.7002 10.7339 30.7002 10.734C30.7002 10.7341 30.7002 10.7342 30.7002 10.7343C30.7002 10.7344 30.7002 10.7344 30.7002 10.7345C30.7002 10.7346 30.7002 10.7347 30.7002 10.7348C30.7002 10.7349 30.7002 10.735 30.7002 10.7351C30.7002 10.7352 30.7002 10.7353 30.7002 10.7353C30.7002 10.7354 30.7002 10.7355 30.7002 10.7356C30.7002 10.7357 30.7002 10.7358 30.7002 10.7359C30.7002 10.736 30.7002 10.7361 30.7002 10.7362C30.7002 10.7363 30.7002 10.7363 30.7002 10.7364C30.7002 10.7365 30.7002 10.7366 30.7002 10.7367C30.7002 10.7368 30.7002 10.7369 30.7002 10.737C30.7002 10.7371 30.7002 10.7372 30.7002 10.7373C30.7002 10.7374 30.7002 10.7375 30.7002 10.7375C30.7002 10.7376 30.7002 10.7377 30.7002 10.7378C30.7002 10.7379 30.7002 10.738 30.7002 10.7381C30.7002 10.7382 30.7002 10.7383 30.7002 10.7384C30.7002 10.7385 30.7002 10.7386 30.7002 10.7387C30.7002 10.7388 30.7002 10.7388 30.7002 10.7389C30.7002 10.739 30.7002 10.7391 30.7002 10.7392C30.7002 10.7393 30.7002 10.7394 30.7002 10.7395C30.7002 10.7396 30.7002 10.7397 30.7002 10.7398C30.7002 10.7399 30.7002 10.74 30.7002 10.7401C30.7002 10.7402 30.7002 10.7403 30.7002 10.7404C30.7002 10.7405 30.7002 10.7405 30.7002 10.7406C30.7002 10.7407 30.7002 10.7408 30.7002 10.7409C30.7002 10.741 30.7002 10.7411 30.7002 10.7412C30.7002 10.7413 30.7002 10.7414 30.7002 10.7415C30.7002 10.7416 30.7002 10.7417 30.7002 10.7418C30.7002 10.7419 30.7002 10.742 30.7002 10.7421C30.7002 10.7422 30.7002 10.7423 30.7002 10.7424C30.7002 10.7425 30.7002 10.7426 30.7002 10.7427C30.7002 10.7428 30.7002 10.7429 30.7002 10.7429C30.7002 10.743 30.7002 10.7431 30.7002 10.7432C30.7002 10.7433 30.7002 10.7434 30.7002 10.7435C30.7002 10.7436 30.7002 10.7437 30.7002 10.7438C30.7002 10.7439 30.7002 10.744 30.7002 10.7441C30.7002 10.7442 30.7002 10.7443 30.7002 10.7444C30.7002 10.7445 30.7002 10.7446 30.7002 10.7447C30.7002 10.7448 30.7002 10.7449 30.7002 10.745C30.7002 10.7451 30.7002 10.7452 30.7002 10.7453C30.7002 10.7454 30.7002 10.7455 30.7002 10.7456C30.7002 10.7457 30.7002 10.7458 30.7002 10.7459C30.7002 10.746 30.7002 10.7461 30.7002 10.7462C30.7002 10.7463 30.7002 10.7464 30.7002 10.7465C30.7002 10.7466 30.7002 10.7467 30.7002 10.7468C30.7002 10.7469 30.7002 10.747 30.7002 10.7471C30.7002 10.7472 30.7002 10.7473 30.7002 10.7474C30.7002 10.7475 30.7002 10.7476 30.7002 10.7477C30.7002 10.7478 30.7002 10.7479 30.7002 10.748C30.7002 10.7481 30.7002 10.7482 30.7002 10.7483C30.7002 10.7484 30.7002 10.7485 30.7002 10.7486C30.7002 10.7487 30.7002 10.7488 30.7002 10.7489C30.7002 10.749 30.7002 10.7491 30.7002 10.7492C30.7002 10.7493 30.7002 10.7494 30.7002 10.7495C30.7002 10.7496 30.7002 10.7497 30.7002 10.7498C30.7002 10.7499 30.7002 10.75 30.7002 10.7501C30.7002 10.7502 30.7002 10.7503 30.7002 10.7504C30.7002 10.7505 30.7002 10.7506 30.7002 10.7507C30.7002 10.7508 30.7002 10.7509 30.7002 10.751C30.7002 10.7511 30.7002 10.7512 30.7002 10.7513C30.7002 10.7514 30.7002 10.7515 30.7002 10.7516C30.7002 10.7517 30.7002 10.7518 30.7002 10.752C30.7002 10.7521 30.7002 10.7522 30.7002 10.7523C30.7002 10.7524 30.7002 10.7525 30.7002 10.7526C30.7002 10.7527 30.7002 10.7528 30.7002 10.7529C30.7002 10.753 30.7002 10.7531 30.7002 10.7532C30.7002 10.7533 30.7002 10.7534 30.7002 10.7535C30.7002 10.7536 30.7002 10.7537 30.7002 10.7538C30.7002 10.7539 30.7002 10.754 30.7002 10.7541C30.7002 10.7542 30.7002 10.7543 30.7002 10.7544C30.7002 10.7545 30.7002 10.7546 30.7002 10.7547C30.7002 10.7549 30.7002 10.755 30.7002 10.7551C30.7002 10.7552 30.7002 10.7553 30.7002 10.7554C30.7002 10.7555 30.7002 10.7556 30.7002 10.7557C30.7002 10.7558 30.7002 10.7559 30.7002 10.756C30.7002 10.7561 30.7002 10.7562 30.7002 10.7563C30.7002 10.7564 30.7002 10.7565 30.7002 10.7566C30.7002 10.7567 30.7002 10.7568 30.7002 10.7569C30.7002 10.757 30.7002 10.7572 30.7002 10.7573C30.7002 10.7574 30.7002 10.7575 30.7002 10.7576C30.7002 10.7577 30.7002 10.7578 30.7002 10.7579C30.7002 10.758 30.7002 10.7581 30.7002 10.7582C30.7002 10.7583 30.7002 10.7584 30.7002 10.7585C30.7002 10.7586 30.7002 10.7587 30.7002 10.7588C30.7002 10.7589 30.7002 10.7591 30.7002 10.7592C30.7002 10.7593 30.7002 10.7594 30.7002 10.7595C30.7002 10.7596 30.7002 10.7597 30.7002 10.7598C30.7002 10.7599 30.7002 10.76 30.7002 10.7601C30.7002 10.7602 30.7002 10.7603 30.7002 10.7604C30.7002 10.7605 30.7002 10.7606 30.7002 10.7608C30.7002 10.7609 30.7002 10.761 30.7002 10.7611C30.7002 10.7612 30.7002 10.7613 30.7002 10.7614C30.7002 10.7615 30.7002 10.7616 30.7002 10.7617C30.7002 10.7618 30.7002 10.7619 30.7002 10.762C30.7002 10.7621 30.7002 10.7623 30.7002 10.7624C30.7002 10.7625 30.7002 10.7626 30.7002 10.7627C30.7002 10.7628 30.7002 10.7629 30.7002 10.763C30.7002 10.7631 30.7002 10.7632 30.7002 10.7633C30.7002 10.7634 30.7002 10.7635 30.7002 10.7636C30.7002 10.7638 30.7002 10.7639 30.7002 10.764C30.7002 10.7641 30.7002 10.7642 30.7002 10.7643C30.7002 10.7644 30.7002 10.7645 30.7002 10.7646C30.7002 10.7647 30.7002 10.7648 30.7002 10.7649C30.7002 10.765 30.7002 10.7652 30.7002 10.7653C30.7002 10.7654 30.7002 10.7655 30.7002 10.7656C30.7002 10.7657 30.7002 10.7658 30.7002 10.7659C30.7002 10.766 30.7002 10.7661 30.7002 10.7662C30.7002 10.7663 30.7002 10.7664 30.7002 10.7666C30.7002 10.7667 30.7002 10.7668 30.7002 10.7669C30.7002 10.767 30.7002 10.7671 30.7002 10.7672C30.7002 10.7673 30.7002 10.7674 30.7002 10.7675C30.7002 10.7676 30.7002 10.7678 30.7002 10.7679C30.7002 10.768 30.7002 10.7681 30.7002 10.7682C30.7002 10.7683 30.7002 10.7684 30.7002 10.7685C30.7002 10.7686 30.7002 10.7687 30.7002 10.7688C30.7002 10.7689 30.7002 10.7691 30.7002 10.7692C30.7002 10.7693 30.7002 10.7694 30.7002 10.7695C30.7002 10.7696 30.7002 10.7697 30.7002 10.7698C30.7002 10.7699 30.7002 10.77 30.7002 10.7701C30.7002 10.7703 30.7002 10.7704 30.7002 10.7705C30.7002 10.7706 30.7002 10.7707 30.7002 10.7708C30.7002 10.7709 30.7002 10.771 30.7002 10.7711C30.7002 10.7712 30.7002 10.7713 30.7002 10.7715C30.7002 10.7716 30.7002 10.7717 30.7002 10.7718C30.7002 10.7719 30.7002 10.772 30.7002 10.7721C30.7002 10.7722 30.7002 10.7723 30.7002 10.7724C30.7002 10.7725 30.7002 10.7727 30.7002 10.7728C30.7002 10.7729 30.7002 10.773 30.7002 10.7731C30.7002 10.7732 30.7002 10.7733 30.7002 10.7734C30.7002 10.7735 30.7002 10.7736 30.7002 10.7737C30.7002 10.7739 30.7002 10.774 30.7002 10.7741C30.7002 10.7742 30.7002 10.7743 30.7002 10.7744C30.7002 10.7745 30.7002 10.7746 30.7002 10.7747C30.7002 10.7748 30.7002 10.775 30.7002 10.7751C30.7002 10.7752 30.7002 10.7753 30.7002 10.7754C30.7002 10.7755 30.7002 10.7756 30.7002 10.7757C30.7002 10.7758 30.7002 10.7759 30.7002 10.776C30.7002 10.7762 30.7002 10.7763 30.7002 10.7764C30.7002 10.7765 30.7002 10.7766 30.7002 10.7767C30.7002 10.7768 30.7002 10.7769 30.7002 10.777C30.7002 10.7771 30.7002 10.7773 30.7002 10.7774C30.7002 10.7775 30.7002 10.7776 30.7002 10.7777C30.7002 10.7778 30.7002 10.7779 30.7002 10.778C30.7002 10.7781 30.7002 10.7782 30.7002 10.7784C30.7002 10.7785 30.7002 10.7786 30.7002 10.7787C30.7002 10.7788 30.7002 10.7789 30.7002 10.779C30.7002 10.7791 30.7002 10.7792 30.7002 10.7793C30.7002 10.7795 30.7002 10.7796 30.7002 10.7797C30.7002 10.7798 30.7002 10.7799 30.7002 10.78C30.7002 10.7801 30.7002 10.7802 30.7002 10.7803C30.7002 10.7804 30.7002 10.7805 30.7002 10.7807C30.7002 10.7808 30.7002 10.7809 30.7002 10.781C30.7002 10.7811 30.7002 10.7812 30.7002 10.7813C30.7002 10.7814 30.7002 10.7815 30.7002 10.7816C30.7002 10.7818 30.7002 10.7819 30.7002 10.782C30.7002 10.7821 30.7002 10.7822 30.7002 10.7823C30.7002 10.7824 30.7002 10.7825 30.7002 10.7826C30.7002 10.7827 30.7002 10.7829 30.7002 10.783C30.7002 10.7831 30.7002 10.7832 30.7002 10.7833C30.7002 10.7834 30.7002 10.7835 30.7002 10.7836C30.7002 10.7837 30.7002 10.7838 30.7002 10.7839C30.7002 10.7841 30.7002 10.7842 30.7002 10.7843C30.7002 10.7844 30.7002 10.7845 30.7002 10.7846C30.7002 10.7847 30.7002 10.7848 30.7002 10.7849C30.7002 10.785 30.7002 10.7852 30.7002 10.7853C30.7002 10.7854 30.7002 10.7855 30.7002 10.7856C30.7002 10.7857 30.7002 10.7858 30.7002 10.7859C30.7002 10.786 30.7002 10.7861 30.7002 10.7863C30.7002 10.7864 30.7002 10.7865 30.7002 10.7866C30.7002 10.7867 30.7002 10.7868 30.7002 10.7869C30.7002 10.787 30.7002 10.7871 30.7002 10.7872C30.7002 10.7873 30.7002 10.7875 30.7002 10.7876C30.7002 10.7877 30.7002 10.7878 30.7002 10.7879C30.7002 10.788 30.7002 10.7881 30.7002 10.7882C30.7002 10.7883 30.7002 10.7884 30.7002 10.7885C30.7002 10.7887 30.7002 10.7888 30.7002 10.7889C30.7002 10.789 30.7002 10.7891 30.7002 10.7892C30.7002 10.7893 30.7002 10.7894 30.7002 10.7895C30.7002 10.7896 30.7002 10.7897 30.7002 10.7899C30.7002 10.79 30.7002 10.7901 30.7002 10.7902C30.7002 10.7903 30.7002 10.7904 30.7002 10.7905C30.7002 10.7906 30.7002 10.7907 30.7002 10.7908C30.7002 10.7909 30.7002 10.791 30.7002 10.7912C30.7002 10.7913 30.7002 10.7914 30.7002 10.7915C30.7002 10.7916 30.7002 10.7917 30.7002 10.7918C30.7002 10.7919 30.7002 10.792 30.7002 10.7921C30.7002 10.7922 30.7002 10.7924 30.7002 10.7925C30.7002 10.7926 30.7002 10.7927 30.7002 10.7928C30.7002 10.7929 30.7002 10.793 30.7002 10.7931C30.7002 10.7932 30.7002 10.7933 30.7002 10.7934C30.7002 10.7935 30.7002 10.7937 30.7002 10.7938C30.7002 10.7939 30.7002 10.794 30.7002 10.7941C30.7002 10.7942 30.7002 10.7943 30.7002 10.7944C30.7002 10.7945 30.7002 10.7946 30.7002 10.7947C30.7002 10.7948 30.7002 10.7949 30.7002 10.7951C30.7002 10.7952 30.7002 10.7953 30.7002 10.7954C30.7002 10.7955 30.7002 10.7956 30.7002 10.7957C30.7002 10.7958 30.7002 10.7959 30.7002 10.796C30.7002 10.7961 30.7002 10.7962 30.7002 10.7963C30.7002 10.7965 30.7002 10.7966 30.7002 10.7967C30.7002 10.7968 30.7002 10.7969 30.7002 10.797C30.7002 10.7971 30.7002 10.7972 30.7002 10.7973C30.7002 10.7974 30.7002 10.7975 30.7002 10.7976C30.7002 10.7977 30.7002 10.7978 30.7002 10.798C30.7002 10.7981 30.7002 10.7982 30.7002 10.7983C30.7002 10.7984 30.7002 10.7985 30.7002 10.7986C30.7002 10.7987 30.7002 10.7988 30.7002 10.7989C30.7002 10.799 30.7002 10.7991 30.7002 10.7992C30.7002 10.7993 30.7002 10.7994 30.7002 10.7996C30.7002 10.7997 30.7002 10.7998 30.7002 10.7999C30.7002 10.8 30.7002 10.8001 30.7002 10.8002C30.7002 10.8003 30.7002 10.8004 30.7002 10.8005C30.7002 10.8006 30.7002 10.8007 30.7002 10.8008C30.7002 10.8009 30.7002 10.801 30.7002 10.8011C30.7002 10.8012 30.7002 10.8014 30.7002 10.8015C30.7002 10.8016 30.7002 10.8017 30.7002 10.8018C30.7002 10.8019 30.7002 10.802 30.7002 10.8021C30.7002 10.8022 30.7002 10.8023 30.7002 10.8024C30.7002 10.8025 30.7002 10.8026 30.7002 10.8027C30.7002 10.8028 30.7002 10.8029 30.7002 10.803C30.7002 10.8031 30.7002 10.8032 30.7002 10.8034C30.7002 10.8035 30.7002 10.8036 30.7002 10.8037C30.7002 10.8038 30.7002 10.8039 30.7002 10.804C30.7002 10.8041 30.7002 10.8042 30.7002 10.8043C30.7002 10.8044 30.7002 10.8045 30.7002 10.8046C30.7002 10.8047 30.7002 10.8048 30.7002 10.8049C30.7002 10.805 30.7002 10.8051 30.7002 10.8052C30.7002 10.8053 30.7002 10.8054 30.7002 10.8055C30.7002 10.8056 30.7002 10.8057 30.7002 10.8059C30.7002 10.806 30.7002 10.8061 30.7002 10.8062C30.7002 10.8063 30.7002 10.8064 30.7002 10.8065C30.7002 10.8066 30.7002 10.8067 30.7002 10.8068C30.7002 10.8069 30.7002 10.807 30.7002 10.8071C30.7002 10.8072 30.7002 10.8073 30.7002 10.8074C30.7002 10.8075 30.7002 10.8076 30.7002 10.8077C30.7002 10.8078 30.7002 10.8079 30.7002 10.808C30.7002 10.8081 30.7002 10.8082 30.7002 10.8083C30.7002 10.8084 30.7002 10.8085 30.7002 10.8086C30.7002 10.8087 30.7002 10.8088 30.7002 10.8089C30.7002 10.809 30.7002 10.8091 30.7002 10.8092C30.7002 10.8093 30.7002 10.8094 30.7002 10.8096C30.7002 10.8097 30.7002 10.8098 30.7002 10.8099C30.7002 10.81 30.7002 10.8101 30.7002 10.8102C30.7002 10.8103 30.7002 10.8104 30.7002 10.8105C30.7002 10.8106 30.7002 10.8107 30.7002 10.8108C30.7002 10.8109 30.7002 10.811 30.7002 10.8111C30.7002 10.8112 30.7002 10.8113 30.7002 10.8114C30.7002 10.8115 30.7002 10.8116 30.7002 10.8117C30.7002 10.8118 30.7002 10.8119 30.7002 10.812C30.7002 10.8121 30.7002 10.8122 30.7002 10.8123C30.7002 10.8124 30.7002 10.8125 30.7002 10.8126C30.7002 10.8127 30.7002 10.8128 30.7002 10.8129C30.7002 10.813 30.7002 10.8131 30.7002 10.8132C30.7002 10.8133 30.7002 10.8134 30.7002 10.8135C30.7002 10.8136 30.7002 10.8137 30.7002 10.8138C30.7002 10.8139 30.7002 10.814 30.7002 10.8141C30.7002 10.8142 30.7002 10.8143 30.7002 10.8144C30.7002 10.8145 30.7002 10.8146 30.7002 10.8147C30.7002 10.8148 30.7002 10.8149 30.7002 10.815C30.7002 10.815 30.7002 10.8151 30.7002 10.8152C30.7002 10.8153 30.7002 10.8154 30.7002 10.8155C30.7002 10.8156 30.7002 10.8157 30.7002 10.8158C30.7002 10.8159 30.7002 10.816 30.7002 10.8161C30.7002 10.8162 30.7002 10.8163 30.7002 10.8164C30.7002 10.8165 30.7002 10.8166 30.7002 10.8167C30.7002 10.8168 30.7002 10.8169 30.7002 10.817C30.7002 10.8171 30.7002 10.8172 30.7002 10.8173C30.7002 10.8174 30.7002 10.8175 30.7002 10.8176C30.7002 10.8177 30.7002 10.8178 30.7002 10.8179C30.7002 10.818 30.7002 10.8181 30.7002 10.8182C30.7002 10.8182 30.7002 10.8183 30.7002 10.8184C30.7002 10.8185 30.7002 10.8186 30.7002 10.8187C30.7002 10.8188 30.7002 10.8189 30.7002 10.819C30.7002 10.8191 30.7002 10.8192 30.7002 10.8193C30.7002 10.8194 30.7002 10.8195 30.7002 10.8196C30.7002 10.8197 30.7002 10.8198 30.7002 10.8199C30.7002 10.82 30.7002 10.8201 30.7002 10.8201C30.7002 10.8202 30.7002 10.8203 30.7002 10.8204C30.7002 10.8205 30.7002 10.8206 30.7002 10.8207C30.7002 10.8208 30.7002 10.8209 30.7002 10.821C30.7002 10.8211 30.7002 10.8212 30.7002 10.8213C30.7002 10.8214 30.7002 10.8215 30.7002 10.8216C30.7002 10.8216 30.7002 10.8217 30.7002 10.8218C30.7002 10.8219 30.7002 10.822 30.7002 10.8221C30.7002 10.8222 30.7002 10.8223 30.7002 10.8224C30.7002 10.8225 30.7002 10.8226 30.7002 10.8227C30.7002 10.8228 30.7002 10.8228 30.7002 10.8229C30.7002 10.823 30.7002 10.8231 30.7002 10.8232C30.7002 10.8233 30.7002 10.8234 30.7002 10.8235C30.7002 10.8236 30.7002 10.8237 30.7002 10.8238C30.7002 10.8239 30.7002 10.8239 30.7002 10.824C30.7002 10.8241 30.7002 10.8242 30.7002 10.8243C30.7002 10.8244 30.7002 10.8245 30.7002 10.8246C30.7002 10.8247 30.7002 10.8248 30.7002 10.8248C30.7002 10.8249 30.7002 10.825 30.7002 10.8251C30.7002 10.8252 30.7002 10.8253 30.7002 10.8254C30.7002 10.8255 30.7002 10.8256 30.7002 10.8256C30.7002 10.8257 30.7002 10.8258 30.7002 10.8259C30.7002 10.826 30.7002 10.8261 30.7002 10.8262C30.7002 10.8263 30.7002 10.8264 30.7002 10.8264C30.7002 10.8265 30.7002 10.8266 30.7002 10.8267C30.7002 10.8268 30.7002 10.8269 30.7002 10.827C30.7002 10.8271 30.7002 10.8271 30.7002 10.8272C30.7002 10.8273 30.7002 10.8274 30.7002 10.8275C30.7002 10.8276 30.7002 10.8277 30.7002 10.8278C30.7002 10.8278 30.7002 10.8279 30.7002 10.828C30.7002 10.8281 30.7002 10.8282 30.7002 10.8283C30.7002 10.8284 30.7002 10.8284 30.7002 10.8285C30.7002 10.8286 30.7002 10.8287 30.7002 10.8288C30.7002 10.8289 30.7002 10.829 30.7002 10.829C30.7002 10.8291 30.7002 10.8292 30.7002 10.8293C30.7002 10.8294 30.7002 10.8295 30.7002 10.8296C30.7002 10.8296 30.7002 10.8297 30.7002 10.8298C30.7002 10.8299 30.7002 10.83 30.7002 10.8301C30.7002 10.8301 30.7002 10.8302 30.7002 10.8303C30.7002 10.8304 30.7002 10.8305 30.7002 10.8306C30.7002 10.8306 30.7002 10.8307 30.7002 10.8308C30.7002 10.8309 30.7002 10.831 30.7002 10.8311C30.7002 10.8311 30.7002 10.8312 30.7002 10.8313H26.7002C26.7002 10.8312 26.7002 10.8311 26.7002 10.8311C26.7002 10.831 26.7002 10.8309 26.7002 10.8308C26.7002 10.8307 26.7002 10.8306 26.7002 10.8306C26.7002 10.8305 26.7002 10.8304 26.7002 10.8303C26.7002 10.8302 26.7002 10.8301 26.7002 10.8301C26.7002 10.83 26.7002 10.8299 26.7002 10.8298C26.7002 10.8297 26.7002 10.8296 26.7002 10.8296C26.7002 10.8295 26.7002 10.8294 26.7002 10.8293C26.7002 10.8292 26.7002 10.8291 26.7002 10.829C26.7002 10.829 26.7002 10.8289 26.7002 10.8288C26.7002 10.8287 26.7002 10.8286 26.7002 10.8285C26.7002 10.8284 26.7002 10.8284 26.7002 10.8283C26.7002 10.8282 26.7002 10.8281 26.7002 10.828C26.7002 10.8279 26.7002 10.8278 26.7002 10.8278C26.7002 10.8277 26.7002 10.8276 26.7002 10.8275C26.7002 10.8274 26.7002 10.8273 26.7002 10.8272C26.7002 10.8271 26.7002 10.8271 26.7002 10.827C26.7002 10.8269 26.7002 10.8268 26.7002 10.8267C26.7002 10.8266 26.7002 10.8265 26.7002 10.8264C26.7002 10.8264 26.7002 10.8263 26.7002 10.8262C26.7002 10.8261 26.7002 10.826 26.7002 10.8259C26.7002 10.8258 26.7002 10.8257 26.7002 10.8256C26.7002 10.8256 26.7002 10.8255 26.7002 10.8254C26.7002 10.8253 26.7002 10.8252 26.7002 10.8251C26.7002 10.825 26.7002 10.8249 26.7002 10.8248C26.7002 10.8248 26.7002 10.8247 26.7002 10.8246C26.7002 10.8245 26.7002 10.8244 26.7002 10.8243C26.7002 10.8242 26.7002 10.8241 26.7002 10.824C26.7002 10.8239 26.7002 10.8239 26.7002 10.8238C26.7002 10.8237 26.7002 10.8236 26.7002 10.8235C26.7002 10.8234 26.7002 10.8233 26.7002 10.8232C26.7002 10.8231 26.7002 10.823 26.7002 10.8229C26.7002 10.8228 26.7002 10.8228 26.7002 10.8227C26.7002 10.8226 26.7002 10.8225 26.7002 10.8224C26.7002 10.8223 26.7002 10.8222 26.7002 10.8221C26.7002 10.822 26.7002 10.8219 26.7002 10.8218C26.7002 10.8217 26.7002 10.8216 26.7002 10.8216C26.7002 10.8215 26.7002 10.8214 26.7002 10.8213C26.7002 10.8212 26.7002 10.8211 26.7002 10.821C26.7002 10.8209 26.7002 10.8208 26.7002 10.8207C26.7002 10.8206 26.7002 10.8205 26.7002 10.8204C26.7002 10.8203 26.7002 10.8202 26.7002 10.8201C26.7002 10.8201 26.7002 10.82 26.7002 10.8199C26.7002 10.8198 26.7002 10.8197 26.7002 10.8196C26.7002 10.8195 26.7002 10.8194 26.7002 10.8193C26.7002 10.8192 26.7002 10.8191 26.7002 10.819C26.7002 10.8189 26.7002 10.8188 26.7002 10.8187C26.7002 10.8186 26.7002 10.8185 26.7002 10.8184C26.7002 10.8183 26.7002 10.8182 26.7002 10.8182C26.7002 10.8181 26.7002 10.818 26.7002 10.8179C26.7002 10.8178 26.7002 10.8177 26.7002 10.8176C26.7002 10.8175 26.7002 10.8174 26.7002 10.8173C26.7002 10.8172 26.7002 10.8171 26.7002 10.817C26.7002 10.8169 26.7002 10.8168 26.7002 10.8167C26.7002 10.8166 26.7002 10.8165 26.7002 10.8164C26.7002 10.8163 26.7002 10.8162 26.7002 10.8161C26.7002 10.816 26.7002 10.8159 26.7002 10.8158C26.7002 10.8157 26.7002 10.8156 26.7002 10.8155C26.7002 10.8154 26.7002 10.8153 26.7002 10.8152C26.7002 10.8151 26.7002 10.815 26.7002 10.815C26.7002 10.8149 26.7002 10.8148 26.7002 10.8147C26.7002 10.8146 26.7002 10.8145 26.7002 10.8144C26.7002 10.8143 26.7002 10.8142 26.7002 10.8141C26.7002 10.814 26.7002 10.8139 26.7002 10.8138C26.7002 10.8137 26.7002 10.8136 26.7002 10.8135C26.7002 10.8134 26.7002 10.8133 26.7002 10.8132C26.7002 10.8131 26.7002 10.813 26.7002 10.8129C26.7002 10.8128 26.7002 10.8127 26.7002 10.8126C26.7002 10.8125 26.7002 10.8124 26.7002 10.8123C26.7002 10.8122 26.7002 10.8121 26.7002 10.812C26.7002 10.8119 26.7002 10.8118 26.7002 10.8117C26.7002 10.8116 26.7002 10.8115 26.7002 10.8114C26.7002 10.8113 26.7002 10.8112 26.7002 10.8111C26.7002 10.811 26.7002 10.8109 26.7002 10.8108C26.7002 10.8107 26.7002 10.8106 26.7002 10.8105C26.7002 10.8104 26.7002 10.8103 26.7002 10.8102C26.7002 10.8101 26.7002 10.81 26.7002 10.8099C26.7002 10.8098 26.7002 10.8097 26.7002 10.8096C26.7002 10.8094 26.7002 10.8093 26.7002 10.8092C26.7002 10.8091 26.7002 10.809 26.7002 10.8089C26.7002 10.8088 26.7002 10.8087 26.7002 10.8086C26.7002 10.8085 26.7002 10.8084 26.7002 10.8083C26.7002 10.8082 26.7002 10.8081 26.7002 10.808C26.7002 10.8079 26.7002 10.8078 26.7002 10.8077C26.7002 10.8076 26.7002 10.8075 26.7002 10.8074C26.7002 10.8073 26.7002 10.8072 26.7002 10.8071C26.7002 10.807 26.7002 10.8069 26.7002 10.8068C26.7002 10.8067 26.7002 10.8066 26.7002 10.8065C26.7002 10.8064 26.7002 10.8063 26.7002 10.8062C26.7002 10.8061 26.7002 10.806 26.7002 10.8059C26.7002 10.8057 26.7002 10.8056 26.7002 10.8055C26.7002 10.8054 26.7002 10.8053 26.7002 10.8052C26.7002 10.8051 26.7002 10.805 26.7002 10.8049C26.7002 10.8048 26.7002 10.8047 26.7002 10.8046C26.7002 10.8045 26.7002 10.8044 26.7002 10.8043C26.7002 10.8042 26.7002 10.8041 26.7002 10.804C26.7002 10.8039 26.7002 10.8038 26.7002 10.8037C26.7002 10.8036 26.7002 10.8035 26.7002 10.8034C26.7002 10.8032 26.7002 10.8031 26.7002 10.803C26.7002 10.8029 26.7002 10.8028 26.7002 10.8027C26.7002 10.8026 26.7002 10.8025 26.7002 10.8024C26.7002 10.8023 26.7002 10.8022 26.7002 10.8021C26.7002 10.802 26.7002 10.8019 26.7002 10.8018C26.7002 10.8017 26.7002 10.8016 26.7002 10.8015C26.7002 10.8014 26.7002 10.8012 26.7002 10.8011C26.7002 10.801 26.7002 10.8009 26.7002 10.8008C26.7002 10.8007 26.7002 10.8006 26.7002 10.8005C26.7002 10.8004 26.7002 10.8003 26.7002 10.8002C26.7002 10.8001 26.7002 10.8 26.7002 10.7999C26.7002 10.7998 26.7002 10.7997 26.7002 10.7996C26.7002 10.7994 26.7002 10.7993 26.7002 10.7992C26.7002 10.7991 26.7002 10.799 26.7002 10.7989C26.7002 10.7988 26.7002 10.7987 26.7002 10.7986C26.7002 10.7985 26.7002 10.7984 26.7002 10.7983C26.7002 10.7982 26.7002 10.7981 26.7002 10.798C26.7002 10.7978 26.7002 10.7977 26.7002 10.7976C26.7002 10.7975 26.7002 10.7974 26.7002 10.7973C26.7002 10.7972 26.7002 10.7971 26.7002 10.797C26.7002 10.7969 26.7002 10.7968 26.7002 10.7967C26.7002 10.7966 26.7002 10.7965 26.7002 10.7963C26.7002 10.7962 26.7002 10.7961 26.7002 10.796C26.7002 10.7959 26.7002 10.7958 26.7002 10.7957C26.7002 10.7956 26.7002 10.7955 26.7002 10.7954C26.7002 10.7953 26.7002 10.7952 26.7002 10.7951C26.7002 10.7949 26.7002 10.7948 26.7002 10.7947C26.7002 10.7946 26.7002 10.7945 26.7002 10.7944C26.7002 10.7943 26.7002 10.7942 26.7002 10.7941C26.7002 10.794 26.7002 10.7939 26.7002 10.7938C26.7002 10.7937 26.7002 10.7935 26.7002 10.7934C26.7002 10.7933 26.7002 10.7932 26.7002 10.7931C26.7002 10.793 26.7002 10.7929 26.7002 10.7928C26.7002 10.7927 26.7002 10.7926 26.7002 10.7925C26.7002 10.7924 26.7002 10.7922 26.7002 10.7921C26.7002 10.792 26.7002 10.7919 26.7002 10.7918C26.7002 10.7917 26.7002 10.7916 26.7002 10.7915C26.7002 10.7914 26.7002 10.7913 26.7002 10.7912C26.7002 10.791 26.7002 10.7909 26.7002 10.7908C26.7002 10.7907 26.7002 10.7906 26.7002 10.7905C26.7002 10.7904 26.7002 10.7903 26.7002 10.7902C26.7002 10.7901 26.7002 10.79 26.7002 10.7899C26.7002 10.7897 26.7002 10.7896 26.7002 10.7895C26.7002 10.7894 26.7002 10.7893 26.7002 10.7892C26.7002 10.7891 26.7002 10.789 26.7002 10.7889C26.7002 10.7888 26.7002 10.7887 26.7002 10.7885C26.7002 10.7884 26.7002 10.7883 26.7002 10.7882C26.7002 10.7881 26.7002 10.788 26.7002 10.7879C26.7002 10.7878 26.7002 10.7877 26.7002 10.7876C26.7002 10.7875 26.7002 10.7873 26.7002 10.7872C26.7002 10.7871 26.7002 10.787 26.7002 10.7869C26.7002 10.7868 26.7002 10.7867 26.7002 10.7866C26.7002 10.7865 26.7002 10.7864 26.7002 10.7863C26.7002 10.7861 26.7002 10.786 26.7002 10.7859C26.7002 10.7858 26.7002 10.7857 26.7002 10.7856C26.7002 10.7855 26.7002 10.7854 26.7002 10.7853C26.7002 10.7852 26.7002 10.785 26.7002 10.7849C26.7002 10.7848 26.7002 10.7847 26.7002 10.7846C26.7002 10.7845 26.7002 10.7844 26.7002 10.7843C26.7002 10.7842 26.7002 10.7841 26.7002 10.7839C26.7002 10.7838 26.7002 10.7837 26.7002 10.7836C26.7002 10.7835 26.7002 10.7834 26.7002 10.7833C26.7002 10.7832 26.7002 10.7831 26.7002 10.783C26.7002 10.7829 26.7002 10.7827 26.7002 10.7826C26.7002 10.7825 26.7002 10.7824 26.7002 10.7823C26.7002 10.7822 26.7002 10.7821 26.7002 10.782C26.7002 10.7819 26.7002 10.7818 26.7002 10.7816C26.7002 10.7815 26.7002 10.7814 26.7002 10.7813C26.7002 10.7812 26.7002 10.7811 26.7002 10.781C26.7002 10.7809 26.7002 10.7808 26.7002 10.7807C26.7002 10.7805 26.7002 10.7804 26.7002 10.7803C26.7002 10.7802 26.7002 10.7801 26.7002 10.78C26.7002 10.7799 26.7002 10.7798 26.7002 10.7797C26.7002 10.7796 26.7002 10.7795 26.7002 10.7793C26.7002 10.7792 26.7002 10.7791 26.7002 10.779C26.7002 10.7789 26.7002 10.7788 26.7002 10.7787C26.7002 10.7786 26.7002 10.7785 26.7002 10.7784C26.7002 10.7782 26.7002 10.7781 26.7002 10.778C26.7002 10.7779 26.7002 10.7778 26.7002 10.7777C26.7002 10.7776 26.7002 10.7775 26.7002 10.7774C26.7002 10.7773 26.7002 10.7771 26.7002 10.777C26.7002 10.7769 26.7002 10.7768 26.7002 10.7767C26.7002 10.7766 26.7002 10.7765 26.7002 10.7764C26.7002 10.7763 26.7002 10.7762 26.7002 10.776C26.7002 10.7759 26.7002 10.7758 26.7002 10.7757C26.7002 10.7756 26.7002 10.7755 26.7002 10.7754C26.7002 10.7753 26.7002 10.7752 26.7002 10.7751C26.7002 10.775 26.7002 10.7748 26.7002 10.7747C26.7002 10.7746 26.7002 10.7745 26.7002 10.7744C26.7002 10.7743 26.7002 10.7742 26.7002 10.7741C26.7002 10.774 26.7002 10.7739 26.7002 10.7737C26.7002 10.7736 26.7002 10.7735 26.7002 10.7734C26.7002 10.7733 26.7002 10.7732 26.7002 10.7731C26.7002 10.773 26.7002 10.7729 26.7002 10.7728C26.7002 10.7727 26.7002 10.7725 26.7002 10.7724C26.7002 10.7723 26.7002 10.7722 26.7002 10.7721C26.7002 10.772 26.7002 10.7719 26.7002 10.7718C26.7002 10.7717 26.7002 10.7716 26.7002 10.7715C26.7002 10.7713 26.7002 10.7712 26.7002 10.7711C26.7002 10.771 26.7002 10.7709 26.7002 10.7708C26.7002 10.7707 26.7002 10.7706 26.7002 10.7705C26.7002 10.7704 26.7002 10.7703 26.7002 10.7701C26.7002 10.77 26.7002 10.7699 26.7002 10.7698C26.7002 10.7697 26.7002 10.7696 26.7002 10.7695C26.7002 10.7694 26.7002 10.7693 26.7002 10.7692C26.7002 10.7691 26.7002 10.7689 26.7002 10.7688C26.7002 10.7687 26.7002 10.7686 26.7002 10.7685C26.7002 10.7684 26.7002 10.7683 26.7002 10.7682C26.7002 10.7681 26.7002 10.768 26.7002 10.7679C26.7002 10.7678 26.7002 10.7676 26.7002 10.7675C26.7002 10.7674 26.7002 10.7673 26.7002 10.7672C26.7002 10.7671 26.7002 10.767 26.7002 10.7669C26.7002 10.7668 26.7002 10.7667 26.7002 10.7666C26.7002 10.7664 26.7002 10.7663 26.7002 10.7662C26.7002 10.7661 26.7002 10.766 26.7002 10.7659C26.7002 10.7658 26.7002 10.7657 26.7002 10.7656C26.7002 10.7655 26.7002 10.7654 26.7002 10.7653C26.7002 10.7652 26.7002 10.765 26.7002 10.7649C26.7002 10.7648 26.7002 10.7647 26.7002 10.7646C26.7002 10.7645 26.7002 10.7644 26.7002 10.7643C26.7002 10.7642 26.7002 10.7641 26.7002 10.764C26.7002 10.7639 26.7002 10.7638 26.7002 10.7636C26.7002 10.7635 26.7002 10.7634 26.7002 10.7633C26.7002 10.7632 26.7002 10.7631 26.7002 10.763C26.7002 10.7629 26.7002 10.7628 26.7002 10.7627C26.7002 10.7626 26.7002 10.7625 26.7002 10.7624C26.7002 10.7623 26.7002 10.7621 26.7002 10.762C26.7002 10.7619 26.7002 10.7618 26.7002 10.7617C26.7002 10.7616 26.7002 10.7615 26.7002 10.7614C26.7002 10.7613 26.7002 10.7612 26.7002 10.7611C26.7002 10.761 26.7002 10.7609 26.7002 10.7608C26.7002 10.7606 26.7002 10.7605 26.7002 10.7604C26.7002 10.7603 26.7002 10.7602 26.7002 10.7601C26.7002 10.76 26.7002 10.7599 26.7002 10.7598C26.7002 10.7597 26.7002 10.7596 26.7002 10.7595C26.7002 10.7594 26.7002 10.7593 26.7002 10.7592C26.7002 10.7591 26.7002 10.7589 26.7002 10.7588C26.7002 10.7587 26.7002 10.7586 26.7002 10.7585C26.7002 10.7584 26.7002 10.7583 26.7002 10.7582C26.7002 10.7581 26.7002 10.758 26.7002 10.7579C26.7002 10.7578 26.7002 10.7577 26.7002 10.7576C26.7002 10.7575 26.7002 10.7574 26.7002 10.7573C26.7002 10.7572 26.7002 10.757 26.7002 10.7569C26.7002 10.7568 26.7002 10.7567 26.7002 10.7566C26.7002 10.7565 26.7002 10.7564 26.7002 10.7563C26.7002 10.7562 26.7002 10.7561 26.7002 10.756C26.7002 10.7559 26.7002 10.7558 26.7002 10.7557C26.7002 10.7556 26.7002 10.7555 26.7002 10.7554C26.7002 10.7553 26.7002 10.7552 26.7002 10.7551C26.7002 10.755 26.7002 10.7549 26.7002 10.7547C26.7002 10.7546 26.7002 10.7545 26.7002 10.7544C26.7002 10.7543 26.7002 10.7542 26.7002 10.7541C26.7002 10.754 26.7002 10.7539 26.7002 10.7538C26.7002 10.7537 26.7002 10.7536 26.7002 10.7535C26.7002 10.7534 26.7002 10.7533 26.7002 10.7532C26.7002 10.7531 26.7002 10.753 26.7002 10.7529C26.7002 10.7528 26.7002 10.7527 26.7002 10.7526C26.7002 10.7525 26.7002 10.7524 26.7002 10.7523C26.7002 10.7522 26.7002 10.7521 26.7002 10.752C26.7002 10.7518 26.7002 10.7517 26.7002 10.7516C26.7002 10.7515 26.7002 10.7514 26.7002 10.7513C26.7002 10.7512 26.7002 10.7511 26.7002 10.751C26.7002 10.7509 26.7002 10.7508 26.7002 10.7507C26.7002 10.7506 26.7002 10.7505 26.7002 10.7504C26.7002 10.7503 26.7002 10.7502 26.7002 10.7501C26.7002 10.75 26.7002 10.7499 26.7002 10.7498C26.7002 10.7497 26.7002 10.7496 26.7002 10.7495C26.7002 10.7494 26.7002 10.7493 26.7002 10.7492C26.7002 10.7491 26.7002 10.749 26.7002 10.7489C26.7002 10.7488 26.7002 10.7487 26.7002 10.7486C26.7002 10.7485 26.7002 10.7484 26.7002 10.7483C26.7002 10.7482 26.7002 10.7481 26.7002 10.748C26.7002 10.7479 26.7002 10.7478 26.7002 10.7477C26.7002 10.7476 26.7002 10.7475 26.7002 10.7474C26.7002 10.7473 26.7002 10.7472 26.7002 10.7471C26.7002 10.747 26.7002 10.7469 26.7002 10.7468C26.7002 10.7467 26.7002 10.7466 26.7002 10.7465C26.7002 10.7464 26.7002 10.7463 26.7002 10.7462C26.7002 10.7461 26.7002 10.746 26.7002 10.7459C26.7002 10.7458 26.7002 10.7457 26.7002 10.7456C26.7002 10.7455 26.7002 10.7454 26.7002 10.7453C26.7002 10.7452 26.7002 10.7451 26.7002 10.745C26.7002 10.7449 26.7002 10.7448 26.7002 10.7447C26.7002 10.7446 26.7002 10.7445 26.7002 10.7444C26.7002 10.7443 26.7002 10.7442 26.7002 10.7441C26.7002 10.744 26.7002 10.7439 26.7002 10.7438C26.7002 10.7437 26.7002 10.7436 26.7002 10.7435C26.7002 10.7434 26.7002 10.7433 26.7002 10.7432C26.7002 10.7431 26.7002 10.743 26.7002 10.7429C26.7002 10.7429 26.7002 10.7428 26.7002 10.7427C26.7002 10.7426 26.7002 10.7425 26.7002 10.7424C26.7002 10.7423 26.7002 10.7422 26.7002 10.7421C26.7002 10.742 26.7002 10.7419 26.7002 10.7418C26.7002 10.7417 26.7002 10.7416 26.7002 10.7415C26.7002 10.7414 26.7002 10.7413 26.7002 10.7412C26.7002 10.7411 26.7002 10.741 26.7002 10.7409C26.7002 10.7408 26.7002 10.7407 26.7002 10.7406C26.7002 10.7405 26.7002 10.7405 26.7002 10.7404C26.7002 10.7403 26.7002 10.7402 26.7002 10.7401C26.7002 10.74 26.7002 10.7399 26.7002 10.7398C26.7002 10.7397 26.7002 10.7396 26.7002 10.7395C26.7002 10.7394 26.7002 10.7393 26.7002 10.7392C26.7002 10.7391 26.7002 10.739 26.7002 10.7389C26.7002 10.7388 26.7002 10.7388 26.7002 10.7387C26.7002 10.7386 26.7002 10.7385 26.7002 10.7384C26.7002 10.7383 26.7002 10.7382 26.7002 10.7381C26.7002 10.738 26.7002 10.7379 26.7002 10.7378C26.7002 10.7377 26.7002 10.7376 26.7002 10.7375C26.7002 10.7375 26.7002 10.7374 26.7002 10.7373C26.7002 10.7372 26.7002 10.7371 26.7002 10.737C26.7002 10.7369 26.7002 10.7368 26.7002 10.7367C26.7002 10.7366 26.7002 10.7365 26.7002 10.7364C26.7002 10.7363 26.7002 10.7363 26.7002 10.7362C26.7002 10.7361 26.7002 10.736 26.7002 10.7359C26.7002 10.7358 26.7002 10.7357 26.7002 10.7356C26.7002 10.7355 26.7002 10.7354 26.7002 10.7353C26.7002 10.7353 26.7002 10.7352 26.7002 10.7351C26.7002 10.735 26.7002 10.7349 26.7002 10.7348C26.7002 10.7347 26.7002 10.7346 26.7002 10.7345C26.7002 10.7344 26.7002 10.7344 26.7002 10.7343C26.7002 10.7342 26.7002 10.7341 26.7002 10.734C26.7002 10.7339 26.7002 10.7338 26.7002 10.7337C26.7002 10.7336 26.7002 10.7336 26.7002 10.7335C26.7002 10.7334 26.7002 10.7333 26.7002 10.7332C26.7002 10.7331 26.7002 10.733 26.7002 10.7329C26.7002 10.7329 26.7002 10.7328 26.7002 10.7327C26.7002 10.7326 26.7002 10.7325 26.7002 10.7324C26.7002 10.7323 26.7002 10.7322 26.7002 10.7322C26.7002 10.7321 26.7002 10.732 26.7002 10.7319C26.7002 10.7318 26.7002 10.7317 26.7002 10.7316C26.7002 10.7315 26.7002 10.7315 26.7002 10.7314C26.7002 10.7313 26.7002 10.7312 26.7002 10.7311C26.7002 10.731 26.7002 10.7309 26.7002 10.7309C26.7002 10.7308 26.7002 10.7307 26.7002 10.7306C26.7002 10.7305 26.7002 10.7304 26.7002 10.7303C26.7002 10.7303 26.7002 10.7302 26.7002 10.7301C26.7002 10.73 26.7002 10.7299 26.7002 10.7298C26.7002 10.7298 26.7002 10.7297 26.7002 10.7296C26.7002 10.7295 26.7002 10.7294 26.7002 10.7293C26.7002 10.7293 26.7002 10.7292 26.7002 10.7291C26.7002 10.729 26.7002 10.7289 26.7002 10.7288C26.7002 10.7288 26.7002 10.7287 26.7002 10.7286C26.7002 10.7285 26.7002 10.7284 26.7002 10.7283C26.7002 10.7283 26.7002 10.7282 26.7002 10.7281C26.7002 10.728 26.7002 10.7279 26.7002 10.7278C26.7002 10.7278 26.7002 10.7277 26.7002 10.7276C26.7002 10.7275 26.7002 10.7274 26.7002 10.7274C26.7002 10.7273 26.7002 10.7272 26.7002 10.7271C26.7002 10.727 26.7002 10.727 26.7002 10.7269C26.7002 10.7268 26.7002 10.7267 26.7002 10.7266C26.7002 10.7265 26.7002 10.7265 26.7002 10.7264C26.7002 10.7263 26.7002 10.7262 26.7002 10.7262C26.7002 10.7261 26.7002 10.726 26.7002 10.7259C26.7002 10.7258 26.7002 10.7258 26.7002 10.7257C26.7002 10.7256 26.7002 10.7255 26.7002 10.7254C26.7002 10.7254 26.7002 10.7253 26.7002 10.7252C26.7002 10.7251 26.7002 10.725 26.7002 10.725C26.7002 10.7249 26.7002 10.7248 26.7002 10.7247C26.7002 10.7247 26.7002 10.7246 26.7002 10.7245C26.7002 10.7244 26.7002 10.7244 26.7002 10.7243C26.7002 10.7242 26.7002 10.7241 26.7002 10.724C26.7002 10.724 26.7002 10.7239 26.7002 10.7238C26.7002 10.7237 26.7002 10.7237 26.7002 10.7236C26.7002 10.7235 26.7002 10.7234 26.7002 10.7234C26.7002 10.7233 26.7002 10.7232 26.7002 10.7231C26.7002 10.7231 26.7002 10.723 26.7002 10.7229C26.7002 10.7228 26.7002 10.7228 26.7002 10.7227C26.7002 10.7226 26.7002 10.7225 26.7002 10.7225C26.7002 10.7224 26.7002 10.7223 26.7002 10.7222C26.7002 10.7222 26.7002 10.7221 26.7002 10.722C26.7002 10.722 26.7002 10.7219 26.7002 10.7218C26.7002 10.7217 26.7002 10.7217 26.7002 10.7216C26.7002 10.7215 26.7002 10.7214 26.7002 10.7214C26.7002 10.7213 26.7002 10.7212 26.7002 10.7212C26.7002 10.7211 26.7002 10.721 26.7002 10.7209C26.7002 10.7209 26.7002 10.7208 26.7002 10.7207C26.7002 10.7207 26.7002 10.7206 26.7002 10.7205C26.7002 10.7205 26.7002 10.7204 26.7002 10.7203C26.7002 10.7202 26.7002 10.7202 26.7002 10.7201C26.7002 10.72 26.7002 10.72 26.7002 10.7199C26.7002 10.7198 26.7002 10.7198 26.7002 10.7197C26.7002 10.7196 26.7002 10.7195 26.7002 10.7195C26.7002 10.7194 26.7002 10.7193 26.7002 10.7193C26.7002 10.7192 26.7002 10.7191 26.7002 10.7191C26.7002 10.719 26.7002 10.7189 26.7002 10.7189C26.7002 10.7188 26.7002 10.7187 26.7002 10.7187C26.7002 10.7186 26.7002 10.7185 26.7002 10.7185C26.7002 10.7184 26.7002 10.7183 26.7002 10.7183C26.7002 10.7182 26.7002 10.7181 26.7002 10.7181C26.7002 10.718 26.7002 10.7179 26.7002 10.7179C26.7002 10.7178 26.7002 10.7177 26.7002 10.7177C26.7002 10.7176 26.7002 10.7175 26.7002 10.7175C26.7002 10.7174 26.7002 10.7174 26.7002 10.7173C26.7002 10.7172 26.7002 10.7172 26.7002 10.7171C26.7002 10.717 26.7002 10.717 26.7002 10.7169C26.7002 10.7168 26.7002 10.7168 26.7002 10.7167C26.7002 10.7167 26.7002 10.7166 26.7002 10.7165C26.7002 10.7165 26.7002 10.7164 26.7002 10.7163C26.7002 10.7163 26.7002 10.7162 26.7002 10.7162C26.7002 10.7161 26.7002 10.716 26.7002 10.716C26.7002 10.7159 26.7002 10.7159 26.7002 10.7158C26.7002 10.7157 26.7002 10.7157 26.7002 10.7156C26.7002 10.7156 26.7002 10.7155 26.7002 10.7154C26.7002 10.7154 26.7002 10.7153 26.7002 10.7153C26.7002 10.7152 26.7002 10.7151 26.7002 10.7151C26.7002 10.715 26.7002 10.715 26.7002 10.7149C26.7002 10.7148 26.7002 10.7148 26.7002 10.7147C26.7002 10.7147 26.7002 10.7146 26.7002 10.7146C26.7002 10.7145 26.7002 10.7144 26.7002 10.7144C26.7002 10.7143 26.7002 10.7143 26.7002 10.7142C26.7002 10.7142 26.7002 10.7141 26.7002 10.714C26.7002 10.714 26.7002 10.7139 26.7002 10.7139C26.7002 10.7138 26.7002 10.7138 26.7002 10.7137C26.7002 10.7137 26.7002 10.7136 26.7002 10.7135C26.7002 10.7135 26.7002 10.7134 26.7002 10.7134C26.7002 10.7133 26.7002 10.7133 26.7002 10.7132C26.7002 10.7132 26.7002 10.7131 26.7002 10.7131C26.7002 10.713 26.7002 10.7129 26.7002 10.7129C26.7002 10.7128 26.7002 10.7128 26.7002 10.7127C26.7002 10.7127 26.7002 10.7126 26.7002 10.7126C26.7002 10.7125 26.7002 10.7125 26.7002 10.7124C26.7002 10.7124 26.7002 10.7123 26.7002 10.7123C26.7002 10.7122 26.7002 10.7122 26.7002 10.7121C26.7002 10.7121 26.7002 10.712 26.7002 10.712C26.7002 10.7119 26.7002 10.7119 26.7002 10.7118C26.7002 10.7118 26.7002 10.7117 26.7002 10.7117C26.7002 10.7116 26.7002 10.7116 26.7002 10.7115C26.7002 10.7115 26.7002 10.7114 26.7002 10.7114C26.7002 10.7113 26.7002 10.7113 26.7002 10.7112C26.7002 10.7112 26.7002 10.7111 26.7002 10.7111C26.7002 10.711 26.7002 10.711 26.7002 10.7109C26.7002 10.7109 26.7002 10.7108 26.7002 10.7108C26.7002 10.7108 26.7002 10.7107 26.7002 10.7107C26.7002 10.7106 26.7002 10.7106 26.7002 10.7105C26.7002 10.7105 26.7002 10.7104 26.7002 10.7104C26.7002 10.7103 26.7002 10.7103 26.7002 10.7103C26.7002 10.7102 26.7002 10.7102 26.7002 10.7101C26.7002 10.7101 26.7002 10.71 26.7002 10.71C26.7002 10.71 26.7002 10.7099 26.7002 10.7099C26.7002 10.7098 26.7002 10.7098 26.7002 10.7097C26.7002 10.7097 26.7002 10.7097 26.7002 10.7096C26.7002 10.7096 26.7002 10.7095 26.7002 10.7095C26.7002 10.7094 26.7002 10.7094 26.7002 10.7094C26.7002 10.7093 26.7002 10.7093 26.7002 10.7092C26.7002 10.7092 26.7002 10.7092 26.7002 10.7091C26.7002 10.7091 26.7002 10.709 26.7002 10.709C26.7002 10.709 26.7002 10.7089 26.7002 10.7089C26.7002 10.7088 26.7002 10.7088 26.7002 10.7088C26.7002 10.7087 26.7002 10.7087 26.7002 10.7087C26.7002 10.7086 26.7002 10.7086 26.7002 10.7085C26.7002 10.7085 26.7002 10.7085 26.7002 10.7084C26.7002 10.7084 26.7002 10.7084 26.7002 10.7083C26.7002 10.7083 26.7002 10.7082 26.7002 10.7082C26.7002 10.7082 26.7002 10.7081 26.7002 10.7081C26.7002 10.7081 26.7002 10.708 26.7002 10.708C26.7002 10.708 26.7002 10.7079 26.7002 10.7079C26.7002 10.7079 26.7002 10.7078 26.7002 10.7078C26.7002 10.7078 26.7002 10.7077 26.7002 10.7077C26.7002 10.7077 26.7002 10.7076 26.7002 10.7076C26.7002 10.7076 26.7002 10.7075 26.7002 10.7075C26.7002 10.7075 26.7002 10.7074 26.7002 10.7074C26.7002 10.7074 26.7002 10.7073 26.7002 10.7073C26.7002 10.7073 26.7002 10.7072 26.7002 10.7072C26.7002 10.7072 26.7002 10.7072 26.7002 10.7071C26.7002 10.7071 26.7002 10.7071 26.7002 10.707C26.7002 10.707 26.7002 10.707 26.7002 10.707C26.7002 10.7069 26.7002 10.7069 26.7002 10.7069C26.7002 10.7068 26.7002 10.7068 26.7002 10.7068C26.7002 10.7068 26.7002 10.7067 26.7002 10.7067C26.7002 10.7067 26.7002 10.7066 26.7002 10.7066C26.7002 10.7066 26.7002 10.7066 26.7002 10.7065C26.7002 10.7065 26.7002 10.7065 26.7002 10.7065C26.7002 10.7064 26.7002 10.7064 26.7002 10.7064C26.7002 10.7064 26.7002 10.7063 26.7002 10.7063C26.7002 10.7063 26.7002 10.7063 26.7002 10.7062C26.7002 10.7062 26.7002 10.7062 26.7002 10.7062C26.7002 10.7062 26.7002 10.7061 26.7002 10.7061C26.7002 10.7061 26.7002 10.7061 26.7002 10.706C26.7002 10.706 26.7002 10.706 26.7002 10.706C26.7002 10.706 26.7002 10.7059 26.7002 10.7059C26.7002 10.7059 26.7002 10.7059 26.7002 10.7059C26.7002 10.7058 26.7002 10.7058 26.7002 10.7058C26.7002 10.7058 26.7002 10.7058 26.7002 10.7057C26.7002 10.7057 26.7002 10.7057 26.7002 10.7057C26.7002 10.7057 26.7002 10.7056 26.7002 10.7056C26.7002 10.7056 26.7002 10.7056 26.7002 10.7056C26.7002 10.7056 26.7002 10.7055 26.7002 10.7055C26.7002 10.7055 26.7002 10.7055 26.7002 10.7055C26.7002 10.7055 26.7002 10.7054 26.7002 10.7054C26.7002 10.7054 26.7002 10.7054 26.7002 10.7054C26.7002 10.7054 26.7002 10.7053 26.7002 10.7053C26.7002 10.7053 26.7002 10.7053 26.7002 10.7053C26.7002 10.7053 26.7002 10.7053 26.7002 10.7053C26.7002 10.7052 26.7002 10.7052 26.7002 10.7052C26.7002 10.7052 26.7002 10.7052 26.7002 10.7052C26.7002 10.7052 26.7002 10.7052 26.7002 10.7051C26.7002 10.7051 26.7002 10.7051 26.7002 10.7051C26.7002 10.7051 26.7002 10.7051 26.7002 10.7051C26.7002 10.7051 26.7002 10.7051 26.7002 10.705C26.7002 10.705 26.7002 10.705 26.7002 10.705C26.7002 10.705 26.7002 10.705 26.7002 10.705C26.7002 10.705 26.7002 10.705 26.7002 10.705C26.7002 10.705 26.7002 10.705 26.7002 10.7049C26.7002 10.7049 26.7002 10.7049 26.7002 10.7049C26.7002 10.7049 26.7002 10.7049 26.7002 10.7049C26.7002 10.7049 26.7002 10.7049 26.7002 10.7049C26.7002 10.7049 26.7002 10.7049 26.7002 10.7049C26.7002 10.7049 26.7002 10.7049 26.7002 10.7049C26.7002 10.7049 26.7002 10.7049 26.7002 10.7049C26.7002 10.7049 26.7002 10.7049 26.7002 10.7048C26.7002 10.7048 26.7002 10.7048 26.7002 10.7048C26.7002 10.7048 26.7002 10.7048 26.7002 10.7048C26.7002 10.7048 26.7002 10.7048 26.7002 10.7048C26.7002 10.7048 26.7002 10.7048 28.7002 10.7048ZM30.5211 10.0042L32.8561 15.1451L29.2142 16.7993L26.8792 11.6584L30.5211 10.0042ZM31.7489 14.1039L38.0022 16.4928L36.5747 20.2294L30.3214 17.8405L31.7489 14.1039ZM38.0064 16.4944C38.8548 16.8207 39.5624 17.4333 40.0069 18.2263L36.5176 20.182C36.5293 20.203 36.548 20.2191 36.5704 20.2278L38.0064 16.4944ZM40.0069 18.2263C40.4513 19.0192 40.6046 19.9426 40.4402 20.8366L36.5061 20.1131C36.5018 20.1367 36.5059 20.1611 36.5176 20.182L40.0069 18.2263ZM40.4402 20.8366C40.3756 21.1876 40.2373 21.4682 40.166 21.6048C40.0784 21.7726 39.9796 21.9299 39.8897 22.0638C39.7088 22.333 39.4935 22.6111 39.2916 22.857C38.9205 23.3089 38.4292 23.8522 38.1065 24.1219L35.5414 21.0527C35.5207 21.0699 35.5874 21.0112 35.7464 20.8396C35.8841 20.6909 36.0459 20.5065 36.2002 20.3186C36.3581 20.1263 36.4864 19.9567 36.5692 19.8334C36.6112 19.771 36.6242 19.7458 36.6205 19.753C36.6181 19.7576 36.6035 19.7857 36.5847 19.8331C36.5681 19.8753 36.5318 19.9737 36.5061 20.1131L40.4402 20.8366ZM38.1065 24.1219C37.4091 24.7048 36.5298 25.0256 35.6208 25.0287L35.607 21.0287C35.583 21.0288 35.5598 21.0373 35.5414 21.0527L38.1065 24.1219ZM35.6043 25.0287C35.1323 25.0264 34.6646 24.9387 34.2239 24.7699L35.6549 21.0346C35.6449 21.0308 35.6343 21.0288 35.6236 21.0288L35.6043 25.0287ZM34.2154 24.7666L26.9784 21.9561L28.4265 18.2274L35.6634 21.0379L34.2154 24.7666ZM26.992 21.9614C26.3728 21.7261 25.8241 21.3363 25.3981 20.8291L28.4609 18.2563C28.448 18.241 28.4315 18.2293 28.4129 18.2222L26.992 21.9614ZM25.3981 20.8291C24.972 20.3219 24.6828 19.7141 24.5579 19.0636L28.4862 18.3095C28.4824 18.2899 28.4737 18.2716 28.4609 18.2563L25.3981 20.8291ZM24.5603 19.0757L24.223 17.3753L28.1466 16.5971L28.4838 18.2974L24.5603 19.0757ZM27.9724 17.8832C27.3073 19.2088 26.5633 20.4933 25.7445 21.7299L22.4094 19.5216C23.1399 18.4183 23.8037 17.2721 24.3972 16.0893L27.9724 17.8832ZM24.7258 18.7339L32.9206 21.5444L31.6229 25.3281L23.4281 22.5176L24.7258 18.7339ZM33.0696 21.6023C33.9374 21.9798 34.67 22.6121 35.1704 23.4153L31.7752 25.5303C31.7035 25.4151 31.5984 25.3244 31.4739 25.2702L33.0696 21.6023ZM35.1704 23.4153C35.6707 24.2185 35.9153 25.1549 35.8716 26.1002L31.8758 25.9155C31.8821 25.7799 31.847 25.6455 31.7752 25.5303L35.1704 23.4153ZM35.8609 25.7815L37.0694 36.391L33.0951 36.8437L31.8866 26.2342L35.8609 25.7815ZM37.0497 36.258C37.1561 36.8408 37.1438 37.4392 37.0136 38.0172L33.1115 37.1377C33.1234 37.0848 33.1245 37.03 33.1148 36.9767L37.0497 36.258ZM37.0136 38.0172C36.8833 38.5952 36.6377 39.1409 36.2915 39.6217L33.0454 37.2845C33.0771 37.2405 33.0995 37.1906 33.1115 37.1377L37.0136 38.0172ZM36.2915 39.6217C35.9453 40.1026 35.5056 40.5086 34.9988 40.8154L32.9271 37.3938C32.9734 37.3657 33.0137 37.3285 33.0454 37.2845L36.2915 39.6217ZM34.9988 40.8154C34.492 41.1223 33.9284 41.3237 33.3419 41.4076L32.7754 37.448C32.8291 37.4403 32.8807 37.4219 32.9271 37.3938L34.9988 40.8154ZM33.2459 41.419C32.6695 41.4732 31.8937 41.412 31.235 41.3006C30.8873 41.2418 30.5088 41.1586 30.1497 41.0426C29.8329 40.9403 29.3499 40.7567 28.9303 40.4169L31.448 37.3086C31.3967 37.267 31.3556 37.2406 31.3323 37.2265C31.3083 37.2121 31.2941 37.2053 31.2928 37.2048C31.2926 37.2047 31.3189 37.2168 31.3793 37.2363C31.5024 37.276 31.6822 37.3194 31.902 37.3566C32.1173 37.393 32.3374 37.4178 32.5292 37.4302C32.6242 37.4364 32.7053 37.439 32.7695 37.4392C32.8012 37.4392 32.8263 37.4387 32.8449 37.438C32.8639 37.4373 32.8723 37.4365 32.8715 37.4366L33.2459 41.419ZM28.9303 40.4169C27.9987 39.6622 27.3996 38.5727 27.2615 37.3817L31.2349 36.921C31.2525 37.0731 31.329 37.2122 31.448 37.3086L28.9303 40.4169ZM27.2586 37.3551L26.3031 28.0243L30.2822 27.6168L31.2378 36.9476L27.2586 37.3551ZM27.8549 29.7721L16.5147 27.2286L17.3901 23.3256L28.7303 25.8691L27.8549 29.7721ZM16.5328 27.2326C15.3412 26.9769 14.2911 26.2784 13.5946 25.2784L16.8771 22.9924C16.9944 23.1609 17.1713 23.2785 17.3721 23.3216L16.5328 27.2326ZM13.5946 25.2784C12.8982 24.2783 12.6072 23.0512 12.7806 21.8449L16.7399 22.4139C16.7107 22.6171 16.7597 22.8239 16.8771 22.9924L13.5946 25.2784Z" fill="#333333" mask="url(#path-2-inside-1)"/>
<path d="M9.27409 37.1481C11.1675 36.9074 13.0466 36.5722 14.9036 36.1439C17.617 36.0684 19.79 35.6472 21.4789 36.727C23.1678 37.8068 20.7808 38.6922 22.6048 39.5668C24.4288 40.4414 19.4748 41.3052 17.2005 40.8949C14.9261 40.4846 15.0162 39.2968 11.6497 38.5302C8.28329 37.7636 6.70703 37.4396 9.27409 37.1481Z" stroke="#333333" stroke-width="2"/>
<path d="M18.8356 28.8047L18.8347 28.805L18.8356 28.8047ZM18.8356 28.8047L18.8561 28.7976M18.8356 28.8047L18.8561 28.7976M18.8561 28.7976L18.8561 28.7976L18.8561 28.7976Z" stroke="#333333" stroke-width="2"/>
<mask id="path-6-inside-2" fill="white">
<path d="M16.7557 26.5707C16.842 26.606 16.9204 26.6582 16.9864 26.7241C17.0523 26.7901 17.1045 26.8685 17.1398 26.9549C17.1751 27.0412 17.1929 27.1337 17.1921 27.227C17.1912 27.3202 17.1719 27.4124 17.1351 27.4981L14.6619 33.119C14.607 33.2447 14.5166 33.3516 14.4017 33.4265C14.2869 33.5014 14.1526 33.5411 14.0155 33.5406C13.923 33.5617 13.8269 33.5617 13.7344 33.5406C13.6481 33.5055 13.5698 33.4532 13.5042 33.387C13.4387 33.3207 13.3873 33.2418 13.3531 33.1551C13.3189 33.0684 13.3027 32.9757 13.3055 32.8825C13.3082 32.7894 13.3299 32.6977 13.3691 32.6132L15.8282 26.9922C15.8576 26.9009 15.9057 26.8168 15.9695 26.7452C16.0333 26.6735 16.1114 26.6161 16.1987 26.5764C16.286 26.5367 16.3807 26.5157 16.4766 26.5147C16.5725 26.5137 16.6676 26.5328 16.7557 26.5707Z"/>
</mask>
<path d="M16.7557 26.5707L15.9979 28.4216L15.9817 28.4149L15.9656 28.408L16.7557 26.5707ZM17.1351 27.4981L18.9728 28.2872L18.9693 28.2954L18.9657 28.3036L17.1351 27.4981ZM14.6619 33.119L12.8288 32.319L12.8312 32.3136L14.6619 33.119ZM14.0155 33.5406L13.571 31.5906L13.7939 31.5398L14.0224 31.5406L14.0155 33.5406ZM13.7344 33.5406L13.29 35.4906L13.1316 35.4545L12.9811 35.3933L13.7344 33.5406ZM13.3691 32.6132L15.2014 33.4148L15.1927 33.4347L15.1836 33.4543L13.3691 32.6132ZM15.8282 26.9922L17.732 27.6051L17.701 27.7013L17.6605 27.7939L15.8282 26.9922ZM17.5134 24.7198C17.8455 24.8557 18.1471 25.0564 18.4007 25.3101L15.572 28.1382C15.6937 28.26 15.8385 28.3563 15.9979 28.4216L17.5134 24.7198ZM18.4007 25.3101C18.6544 25.5638 18.855 25.8655 18.9909 26.1976L15.2887 27.7121C15.3539 27.8715 15.4502 28.0164 15.572 28.1382L18.4007 25.3101ZM18.9909 26.1976C19.1267 26.5297 19.1951 26.8855 19.192 27.2442L15.1921 27.2097C15.1906 27.3819 15.2235 27.5527 15.2887 27.7121L18.9909 26.1976ZM19.192 27.2442C19.1889 27.603 19.1144 27.9575 18.9728 28.2872L15.2973 26.709C15.2294 26.8673 15.1936 27.0375 15.1921 27.2097L19.192 27.2442ZM18.9657 28.3036L16.4925 33.9245L12.8312 32.3136L15.3044 26.6926L18.9657 28.3036ZM16.4949 33.919C16.2839 34.4024 15.9361 34.8136 15.4943 35.1017L13.3092 31.7513C13.0971 31.8896 12.9301 32.087 12.8288 32.3191L16.4949 33.919ZM15.4943 35.1017C15.0524 35.3899 14.536 35.5424 14.0085 35.5406L14.0224 31.5406C13.7692 31.5397 13.5213 31.613 13.3092 31.7513L15.4943 35.1017ZM14.4599 35.4906C14.0749 35.5784 13.675 35.5784 13.29 35.4906L14.1789 31.5906C13.9788 31.545 13.7711 31.545 13.571 31.5906L14.4599 35.4906ZM12.9811 35.3933C12.644 35.2563 12.3382 35.0522 12.0823 34.7935L14.9261 31.9805C14.8013 31.8543 14.6522 31.7548 14.4877 31.6879L12.9811 35.3933ZM12.0823 34.7935C11.8264 34.5348 11.6257 34.2268 11.4923 33.8882L15.2139 32.4221C15.1488 32.2569 15.0509 32.1067 14.9261 31.9805L12.0823 34.7935ZM11.4923 33.8882C11.3589 33.5496 11.2957 33.1875 11.3064 32.8237L15.3046 32.9413C15.3098 32.7639 15.279 32.5872 15.2139 32.4221L11.4923 33.8882ZM11.3064 32.8237C11.3171 32.46 11.4015 32.1022 11.5545 31.772L15.1836 33.4543C15.2582 33.2933 15.2994 33.1187 15.3046 32.9413L11.3064 32.8237ZM11.5367 31.8115L13.9959 26.1906L17.6605 27.7939L15.2014 33.4148L11.5367 31.8115ZM13.9244 26.3794C14.0392 26.0229 14.2271 25.6943 14.4763 25.4147L17.4628 28.0756C17.5843 27.9392 17.676 27.779 17.732 27.6051L13.9244 26.3794ZM14.4763 25.4147C14.7254 25.1351 15.0302 24.9106 15.3711 24.7556L17.0263 28.3971C17.1926 28.3215 17.3413 28.212 17.4628 28.0756L14.4763 25.4147ZM15.3711 24.7556C15.712 24.6007 16.0816 24.5186 16.4561 24.5148L16.4971 28.5146C16.6798 28.5127 16.86 28.4727 17.0263 28.3971L15.3711 24.7556ZM16.4561 24.5148C16.8306 24.5109 17.2017 24.5854 17.5457 24.7333L15.9656 28.408C16.1334 28.4801 16.3144 28.5165 16.4971 28.5146L16.4561 24.5148Z" fill="#333333" mask="url(#path-6-inside-2)"/>
</svg>
