<svg width="48" height="48" viewBox="0 0 48 48" fill="none" xmlns="http://www.w3.org/2000/svg">
<path d="M33.3279 13.0311L33.3279 13.0311C32.7223 12.8976 32.1699 12.5873 31.7409 12.1394C31.3119 11.6916 31.0255 11.1265 30.918 10.5157C30.8106 9.90489 30.8869 9.27595 31.1374 8.7086C31.3878 8.14125 31.8011 7.66105 32.3248 7.32887M33.3279 13.0311L32.3248 7.32887M33.3279 13.0311L33.3312 13.0319C33.7308 13.1214 34.1441 13.1313 34.5476 13.0611L34.7152 14.0234L34.5476 13.061C34.951 12.9908 35.3366 12.8417 35.6824 12.6224C36.0282 12.403 36.3274 12.1177 36.563 11.7827C36.7985 11.4477 36.9657 11.0696 37.055 10.6699L37.055 10.6699L37.0557 10.6666C37.1931 10.0618 37.1477 9.42991 36.9255 8.85094C36.7032 8.27196 36.314 7.77203 35.8073 7.41451C35.3005 7.05699 34.699 6.85799 34.0791 6.84274C33.4591 6.8275 32.8485 6.99669 32.3248 7.32887M33.3279 13.0311L31.7892 6.48441L32.3248 7.32887" stroke="#333333" stroke-width="2"/>
<mask id="path-2-inside-1" fill="white">
<path d="M14.7602 22.1298C14.9265 21.2559 15.2251 20.4124 15.6455 19.6285C15.6455 19.6285 19.004 12.8553 22.489 10.5647C23.7333 9.58414 25.3123 9.13012 26.8874 9.30003C27.3021 9.30193 27.7046 9.4407 28.0324 9.6948C28.3602 9.94889 28.5949 10.3041 28.7001 10.7053C28.7001 10.7053 28.7001 10.7896 28.7001 10.8317L31.0351 15.9726L37.2884 18.3615C37.7014 18.5204 38.0459 18.8186 38.2622 19.2046C38.4786 19.5906 38.5532 20.04 38.4731 20.4752C38.3931 20.9104 37.1635 22.304 36.8239 22.5877C36.4844 22.8715 36.0564 23.0276 35.6139 23.0292C35.3833 23.028 35.1547 22.9852 34.9394 22.9027L27.7024 20.0922C27.4022 19.9781 27.1361 19.7891 26.9295 19.5431C26.7228 19.2972 26.5826 19.0024 26.522 18.687L26.1848 16.9867C25.5555 18.2408 24.8516 19.4562 24.0769 20.6262L32.2717 23.4367C32.7679 23.6525 33.1867 24.014 33.4728 24.4732C33.7589 24.9325 33.8987 25.4678 33.8737 26.0083L35.0822 36.6178C35.1403 36.9359 35.1336 37.2624 35.0625 37.5779C34.9914 37.8933 34.8574 38.1911 34.6684 38.4536C34.4795 38.716 34.2395 38.9376 33.9629 39.105C33.6863 39.2725 33.3788 39.3824 33.0587 39.4282C32.3856 39.4915 30.7145 39.2887 30.1892 38.8632C29.6638 38.4376 29.326 37.8233 29.2482 37.1518L28.2926 27.821L16.9524 25.2775C16.2562 25.1281 15.6427 24.7201 15.2358 24.1358C14.8289 23.5515 14.6589 22.8346 14.7602 22.1298Z"/>
</mask>
<path d="M14.7602 22.1298L12.7806 21.8453C12.7849 21.8154 12.7898 21.7856 12.7955 21.7559L14.7602 22.1298ZM15.6455 19.6285L17.4373 20.517C17.4279 20.5361 17.4181 20.555 17.408 20.5738L15.6455 19.6285ZM22.489 10.5647L23.727 12.1356C23.6819 12.171 23.6354 12.2046 23.5875 12.2361L22.489 10.5647ZM26.8874 9.30003L26.8782 11.3C26.8096 11.2997 26.7411 11.2958 26.6729 11.2885L26.8874 9.30003ZM28.7001 10.7053L30.6347 10.1978C30.6782 10.3635 30.7001 10.534 30.7001 10.7053H28.7001ZM28.7001 10.8317L26.8792 11.6588C26.7612 11.399 26.7001 11.117 26.7001 10.8317H28.7001ZM31.0351 15.9726L30.3214 17.8409C29.8297 17.6531 29.4318 17.2789 29.2141 16.7997L31.0351 15.9726ZM37.2884 18.3615L38.0021 16.4932L38.0064 16.4948L37.2884 18.3615ZM35.6139 23.0292L35.6208 25.0291C35.6153 25.0292 35.6098 25.0292 35.6042 25.0291L35.6139 23.0292ZM34.9394 22.9027L34.2238 24.7703L34.2154 24.767L34.9394 22.9027ZM27.7024 20.0922L28.4128 18.2226C28.4174 18.2244 28.4219 18.2261 28.4264 18.2279L27.7024 20.0922ZM26.522 18.687L28.4839 18.2979L28.4862 18.3099L26.522 18.687ZM26.1848 16.9867L24.3972 16.0897C24.7804 15.326 25.6065 14.8901 26.4532 15.0048C27.3 15.1194 27.9803 15.7594 28.1466 16.5975L26.1848 16.9867ZM24.0769 20.6262L23.4281 22.518C22.8424 22.3172 22.3828 21.8563 22.1834 21.2701C21.9841 20.6839 22.0675 20.0384 22.4093 19.5221L24.0769 20.6262ZM32.2717 23.4367L32.9205 21.5448C32.971 21.5621 33.0207 21.5814 33.0696 21.6027L32.2717 23.4367ZM33.8737 26.0083L31.8865 26.2346C31.8745 26.1288 31.8709 26.0223 31.8758 25.9159L33.8737 26.0083ZM35.0822 36.6178L33.1147 36.9771C33.1067 36.933 33.1001 36.8887 33.095 36.8441L35.0822 36.6178ZM33.0587 39.4282L33.3419 41.4081C33.31 41.4126 33.278 41.4164 33.2459 41.4195L33.0587 39.4282ZM29.2482 37.1518L27.2615 37.3821C27.2605 37.3732 27.2595 37.3644 27.2586 37.3555L29.2482 37.1518ZM28.2926 27.821L28.7303 25.8695C29.5696 26.0577 30.1946 26.7616 30.2822 27.6173L28.2926 27.821ZM16.9524 25.2775L17.3721 23.3221C17.3781 23.3233 17.3841 23.3247 17.3901 23.326L16.9524 25.2775ZM12.7955 21.7559C12.9998 20.6824 13.3665 19.6462 13.883 18.6832L17.408 20.5738C17.0836 21.1787 16.8533 21.8294 16.725 22.5037L12.7955 21.7559ZM15.6455 19.6285C13.8537 18.74 13.8538 18.7398 13.854 18.7395C13.8541 18.7393 13.8542 18.739 13.8543 18.7387C13.8546 18.7382 13.8549 18.7376 13.8553 18.7368C13.856 18.7353 13.857 18.7335 13.8581 18.7312C13.8604 18.7266 13.8635 18.7203 13.8674 18.7125C13.8753 18.6969 13.8863 18.675 13.9005 18.6471C13.9288 18.5912 13.9697 18.5113 14.0222 18.4102C14.1274 18.2081 14.2796 17.9205 14.4727 17.5698C14.8581 16.8699 15.4104 15.9104 16.0791 14.8725C17.362 12.8809 19.2651 10.2904 21.3905 8.89342L23.5875 12.2361C22.228 13.1296 20.7093 15.071 19.4417 17.0387C18.8351 17.9803 18.3301 18.8573 17.9768 19.499C17.8006 19.819 17.6632 20.0785 17.5711 20.2557C17.525 20.3443 17.4903 20.4122 17.4677 20.4567C17.4564 20.4789 17.4482 20.4953 17.4431 20.5054C17.4406 20.5105 17.4388 20.5141 17.4378 20.516C17.4374 20.517 17.4371 20.5175 17.437 20.5177C17.4369 20.5178 17.437 20.5178 17.437 20.5176C17.437 20.5176 17.4371 20.5174 17.4371 20.5174C17.4372 20.5172 17.4373 20.517 15.6455 19.6285ZM21.2511 8.99391C22.9063 7.68949 25.0067 7.08555 27.1019 7.31156L26.6729 11.2885C25.6179 11.1747 24.5604 11.4788 23.727 12.1356L21.2511 8.99391ZM26.8966 7.30005C27.7518 7.30398 28.5818 7.59014 29.2577 8.11412L26.8071 11.2755C26.8274 11.2913 26.8524 11.2999 26.8782 11.3L26.8966 7.30005ZM29.2577 8.11412C29.9337 8.63809 30.4177 9.37056 30.6347 10.1978L26.7656 11.2127C26.7721 11.2376 26.7867 11.2597 26.8071 11.2755L29.2577 8.11412ZM28.7001 10.7053C30.7001 10.7053 30.7001 10.7053 30.7001 10.7053C30.7001 10.7053 30.7001 10.7053 30.7001 10.7053C30.7001 10.7053 30.7001 10.7053 30.7001 10.7053C30.7001 10.7053 30.7001 10.7053 30.7001 10.7053C30.7001 10.7053 30.7001 10.7053 30.7001 10.7053C30.7001 10.7053 30.7001 10.7053 30.7001 10.7053C30.7001 10.7053 30.7001 10.7053 30.7001 10.7053C30.7001 10.7053 30.7001 10.7053 30.7001 10.7053C30.7001 10.7053 30.7001 10.7053 30.7001 10.7053C30.7001 10.7053 30.7001 10.7054 30.7001 10.7054C30.7001 10.7054 30.7001 10.7054 30.7001 10.7054C30.7001 10.7054 30.7001 10.7054 30.7001 10.7054C30.7001 10.7054 30.7001 10.7054 30.7001 10.7054C30.7001 10.7054 30.7001 10.7054 30.7001 10.7054C30.7001 10.7055 30.7001 10.7055 30.7001 10.7055C30.7001 10.7055 30.7001 10.7055 30.7001 10.7055C30.7001 10.7055 30.7001 10.7055 30.7001 10.7055C30.7001 10.7055 30.7001 10.7056 30.7001 10.7056C30.7001 10.7056 30.7001 10.7056 30.7001 10.7056C30.7001 10.7056 30.7001 10.7056 30.7001 10.7056C30.7001 10.7057 30.7001 10.7057 30.7001 10.7057C30.7001 10.7057 30.7001 10.7057 30.7001 10.7057C30.7001 10.7057 30.7001 10.7057 30.7001 10.7058C30.7001 10.7058 30.7001 10.7058 30.7001 10.7058C30.7001 10.7058 30.7001 10.7058 30.7001 10.7058C30.7001 10.7059 30.7001 10.7059 30.7001 10.7059C30.7001 10.7059 30.7001 10.7059 30.7001 10.7059C30.7001 10.706 30.7001 10.706 30.7001 10.706C30.7001 10.706 30.7001 10.706 30.7001 10.706C30.7001 10.7061 30.7001 10.7061 30.7001 10.7061C30.7001 10.7061 30.7001 10.7061 30.7001 10.7062C30.7001 10.7062 30.7001 10.7062 30.7001 10.7062C30.7001 10.7062 30.7001 10.7063 30.7001 10.7063C30.7001 10.7063 30.7001 10.7063 30.7001 10.7063C30.7001 10.7064 30.7001 10.7064 30.7001 10.7064C30.7001 10.7064 30.7001 10.7064 30.7001 10.7065C30.7001 10.7065 30.7001 10.7065 30.7001 10.7065C30.7001 10.7066 30.7001 10.7066 30.7001 10.7066C30.7001 10.7066 30.7001 10.7066 30.7001 10.7067C30.7001 10.7067 30.7001 10.7067 30.7001 10.7067C30.7001 10.7068 30.7001 10.7068 30.7001 10.7068C30.7001 10.7068 30.7001 10.7069 30.7001 10.7069C30.7001 10.7069 30.7001 10.7069 30.7001 10.707C30.7001 10.707 30.7001 10.707 30.7001 10.707C30.7001 10.7071 30.7001 10.7071 30.7001 10.7071C30.7001 10.7072 30.7001 10.7072 30.7001 10.7072C30.7001 10.7072 30.7001 10.7073 30.7001 10.7073C30.7001 10.7073 30.7001 10.7074 30.7001 10.7074C30.7001 10.7074 30.7001 10.7074 30.7001 10.7075C30.7001 10.7075 30.7001 10.7075 30.7001 10.7076C30.7001 10.7076 30.7001 10.7076 30.7001 10.7076C30.7001 10.7077 30.7001 10.7077 30.7001 10.7077C30.7001 10.7078 30.7001 10.7078 30.7001 10.7078C30.7001 10.7079 30.7001 10.7079 30.7001 10.7079C30.7001 10.708 30.7001 10.708 30.7001 10.708C30.7001 10.7081 30.7001 10.7081 30.7001 10.7081C30.7001 10.7082 30.7001 10.7082 30.7001 10.7082C30.7001 10.7083 30.7001 10.7083 30.7001 10.7083C30.7001 10.7084 30.7001 10.7084 30.7001 10.7084C30.7001 10.7085 30.7001 10.7085 30.7001 10.7085C30.7001 10.7086 30.7001 10.7086 30.7001 10.7086C30.7001 10.7087 30.7001 10.7087 30.7001 10.7087C30.7001 10.7088 30.7001 10.7088 30.7001 10.7089C30.7001 10.7089 30.7001 10.7089 30.7001 10.709C30.7001 10.709 30.7001 10.709 30.7001 10.7091C30.7001 10.7091 30.7001 10.7092 30.7001 10.7092C30.7001 10.7092 30.7001 10.7093 30.7001 10.7093C30.7001 10.7093 30.7001 10.7094 30.7001 10.7094C30.7001 10.7095 30.7001 10.7095 30.7001 10.7095C30.7001 10.7096 30.7001 10.7096 30.7001 10.7097C30.7001 10.7097 30.7001 10.7097 30.7001 10.7098C30.7001 10.7098 30.7001 10.7099 30.7001 10.7099C30.7001 10.71 30.7001 10.71 30.7001 10.71C30.7001 10.7101 30.7001 10.7101 30.7001 10.7102C30.7001 10.7102 30.7001 10.7102 30.7001 10.7103C30.7001 10.7103 30.7001 10.7104 30.7001 10.7104C30.7001 10.7105 30.7001 10.7105 30.7001 10.7106C30.7001 10.7106 30.7001 10.7106 30.7001 10.7107C30.7001 10.7107 30.7001 10.7108 30.7001 10.7108C30.7001 10.7109 30.7001 10.7109 30.7001 10.711C30.7001 10.711 30.7001 10.711 30.7001 10.7111C30.7001 10.7111 30.7001 10.7112 30.7001 10.7112C30.7001 10.7113 30.7001 10.7113 30.7001 10.7114C30.7001 10.7114 30.7001 10.7115 30.7001 10.7115C30.7001 10.7116 30.7001 10.7116 30.7001 10.7117C30.7001 10.7117 30.7001 10.7117 30.7001 10.7118C30.7001 10.7118 30.7001 10.7119 30.7001 10.7119C30.7001 10.712 30.7001 10.712 30.7001 10.7121C30.7001 10.7121 30.7001 10.7122 30.7001 10.7122C30.7001 10.7123 30.7001 10.7123 30.7001 10.7124C30.7001 10.7124 30.7001 10.7125 30.7001 10.7125C30.7001 10.7126 30.7001 10.7126 30.7001 10.7127C30.7001 10.7127 30.7001 10.7128 30.7001 10.7128C30.7001 10.7129 30.7001 10.713 30.7001 10.713C30.7001 10.7131 30.7001 10.7131 30.7001 10.7132C30.7001 10.7132 30.7001 10.7133 30.7001 10.7133C30.7001 10.7134 30.7001 10.7134 30.7001 10.7135C30.7001 10.7135 30.7001 10.7136 30.7001 10.7136C30.7001 10.7137 30.7001 10.7137 30.7001 10.7138C30.7001 10.7139 30.7001 10.7139 30.7001 10.714C30.7001 10.714 30.7001 10.7141 30.7001 10.7141C30.7001 10.7142 30.7001 10.7142 30.7001 10.7143C30.7001 10.7144 30.7001 10.7144 30.7001 10.7145C30.7001 10.7145 30.7001 10.7146 30.7001 10.7146C30.7001 10.7147 30.7001 10.7148 30.7001 10.7148C30.7001 10.7149 30.7001 10.7149 30.7001 10.715C30.7001 10.715 30.7001 10.7151 30.7001 10.7152C30.7001 10.7152 30.7001 10.7153 30.7001 10.7153C30.7001 10.7154 30.7001 10.7154 30.7001 10.7155C30.7001 10.7156 30.7001 10.7156 30.7001 10.7157C30.7001 10.7157 30.7001 10.7158 30.7001 10.7159C30.7001 10.7159 30.7001 10.716 30.7001 10.716C30.7001 10.7161 30.7001 10.7162 30.7001 10.7162C30.7001 10.7163 30.7001 10.7163 30.7001 10.7164C30.7001 10.7165 30.7001 10.7165 30.7001 10.7166C30.7001 10.7167 30.7001 10.7167 30.7001 10.7168C30.7001 10.7168 30.7001 10.7169 30.7001 10.717C30.7001 10.717 30.7001 10.7171 30.7001 10.7171C30.7001 10.7172 30.7001 10.7173 30.7001 10.7173C30.7001 10.7174 30.7001 10.7175 30.7001 10.7175C30.7001 10.7176 30.7001 10.7177 30.7001 10.7177C30.7001 10.7178 30.7001 10.7178 30.7001 10.7179C30.7001 10.718 30.7001 10.718 30.7001 10.7181C30.7001 10.7182 30.7001 10.7182 30.7001 10.7183C30.7001 10.7184 30.7001 10.7184 30.7001 10.7185C30.7001 10.7186 30.7001 10.7186 30.7001 10.7187C30.7001 10.7188 30.7001 10.7188 30.7001 10.7189C30.7001 10.719 30.7001 10.719 30.7001 10.7191C30.7001 10.7192 30.7001 10.7192 30.7001 10.7193C30.7001 10.7194 30.7001 10.7194 30.7001 10.7195C30.7001 10.7196 30.7001 10.7196 30.7001 10.7197C30.7001 10.7198 30.7001 10.7198 30.7001 10.7199C30.7001 10.72 30.7001 10.72 30.7001 10.7201C30.7001 10.7202 30.7001 10.7203 30.7001 10.7203C30.7001 10.7204 30.7001 10.7205 30.7001 10.7205C30.7001 10.7206 30.7001 10.7207 30.7001 10.7207C30.7001 10.7208 30.7001 10.7209 30.7001 10.7209C30.7001 10.721 30.7001 10.7211 30.7001 10.7212C30.7001 10.7212 30.7001 10.7213 30.7001 10.7214C30.7001 10.7214 30.7001 10.7215 30.7001 10.7216C30.7001 10.7217 30.7001 10.7217 30.7001 10.7218C30.7001 10.7219 30.7001 10.7219 30.7001 10.722C30.7001 10.7221 30.7001 10.7222 30.7001 10.7222C30.7001 10.7223 30.7001 10.7224 30.7001 10.7225C30.7001 10.7225 30.7001 10.7226 30.7001 10.7227C30.7001 10.7227 30.7001 10.7228 30.7001 10.7229C30.7001 10.723 30.7001 10.723 30.7001 10.7231C30.7001 10.7232 30.7001 10.7233 30.7001 10.7233C30.7001 10.7234 30.7001 10.7235 30.7001 10.7236C30.7001 10.7236 30.7001 10.7237 30.7001 10.7238C30.7001 10.7239 30.7001 10.7239 30.7001 10.724C30.7001 10.7241 30.7001 10.7242 30.7001 10.7242C30.7001 10.7243 30.7001 10.7244 30.7001 10.7245C30.7001 10.7246 30.7001 10.7246 30.7001 10.7247C30.7001 10.7248 30.7001 10.7249 30.7001 10.7249C30.7001 10.725 30.7001 10.7251 30.7001 10.7252C30.7001 10.7252 30.7001 10.7253 30.7001 10.7254C30.7001 10.7255 30.7001 10.7256 30.7001 10.7256C30.7001 10.7257 30.7001 10.7258 30.7001 10.7259C30.7001 10.7259 30.7001 10.726 30.7001 10.7261C30.7001 10.7262 30.7001 10.7263 30.7001 10.7263C30.7001 10.7264 30.7001 10.7265 30.7001 10.7266C30.7001 10.7267 30.7001 10.7267 30.7001 10.7268C30.7001 10.7269 30.7001 10.727 30.7001 10.7271C30.7001 10.7271 30.7001 10.7272 30.7001 10.7273C30.7001 10.7274 30.7001 10.7275 30.7001 10.7275C30.7001 10.7276 30.7001 10.7277 30.7001 10.7278C30.7001 10.7279 30.7001 10.7279 30.7001 10.728C30.7001 10.7281 30.7001 10.7282 30.7001 10.7283C30.7001 10.7284 30.7001 10.7284 30.7001 10.7285C30.7001 10.7286 30.7001 10.7287 30.7001 10.7288C30.7001 10.7288 30.7001 10.7289 30.7001 10.729C30.7001 10.7291 30.7001 10.7292 30.7001 10.7293C30.7001 10.7293 30.7001 10.7294 30.7001 10.7295C30.7001 10.7296 30.7001 10.7297 30.7001 10.7298C30.7001 10.7298 30.7001 10.7299 30.7001 10.73C30.7001 10.7301 30.7001 10.7302 30.7001 10.7303C30.7001 10.7303 30.7001 10.7304 30.7001 10.7305C30.7001 10.7306 30.7001 10.7307 30.7001 10.7308C30.7001 10.7309 30.7001 10.7309 30.7001 10.731C30.7001 10.7311 30.7001 10.7312 30.7001 10.7313C30.7001 10.7314 30.7001 10.7315 30.7001 10.7315C30.7001 10.7316 30.7001 10.7317 30.7001 10.7318C30.7001 10.7319 30.7001 10.732 30.7001 10.7321C30.7001 10.7321 30.7001 10.7322 30.7001 10.7323C30.7001 10.7324 30.7001 10.7325 30.7001 10.7326C30.7001 10.7327 30.7001 10.7328 30.7001 10.7328C30.7001 10.7329 30.7001 10.733 30.7001 10.7331C30.7001 10.7332 30.7001 10.7333 30.7001 10.7334C30.7001 10.7335 30.7001 10.7335 30.7001 10.7336C30.7001 10.7337 30.7001 10.7338 30.7001 10.7339C30.7001 10.734 30.7001 10.7341 30.7001 10.7342C30.7001 10.7343 30.7001 10.7343 30.7001 10.7344C30.7001 10.7345 30.7001 10.7346 30.7001 10.7347C30.7001 10.7348 30.7001 10.7349 30.7001 10.735C30.7001 10.7351 30.7001 10.7351 30.7001 10.7352C30.7001 10.7353 30.7001 10.7354 30.7001 10.7355C30.7001 10.7356 30.7001 10.7357 30.7001 10.7358C30.7001 10.7359 30.7001 10.736 30.7001 10.736C30.7001 10.7361 30.7001 10.7362 30.7001 10.7363C30.7001 10.7364 30.7001 10.7365 30.7001 10.7366C30.7001 10.7367 30.7001 10.7368 30.7001 10.7369C30.7001 10.737 30.7001 10.737 30.7001 10.7371C30.7001 10.7372 30.7001 10.7373 30.7001 10.7374C30.7001 10.7375 30.7001 10.7376 30.7001 10.7377C30.7001 10.7378 30.7001 10.7379 30.7001 10.738C30.7001 10.7381 30.7001 10.7382 30.7001 10.7382C30.7001 10.7383 30.7001 10.7384 30.7001 10.7385C30.7001 10.7386 30.7001 10.7387 30.7001 10.7388C30.7001 10.7389 30.7001 10.739 30.7001 10.7391C30.7001 10.7392 30.7001 10.7393 30.7001 10.7394C30.7001 10.7395 30.7001 10.7396 30.7001 10.7396C30.7001 10.7397 30.7001 10.7398 30.7001 10.7399C30.7001 10.74 30.7001 10.7401 30.7001 10.7402C30.7001 10.7403 30.7001 10.7404 30.7001 10.7405C30.7001 10.7406 30.7001 10.7407 30.7001 10.7408C30.7001 10.7409 30.7001 10.741 30.7001 10.7411C30.7001 10.7412 30.7001 10.7413 30.7001 10.7414C30.7001 10.7415 30.7001 10.7415 30.7001 10.7416C30.7001 10.7417 30.7001 10.7418 30.7001 10.7419C30.7001 10.742 30.7001 10.7421 30.7001 10.7422C30.7001 10.7423 30.7001 10.7424 30.7001 10.7425C30.7001 10.7426 30.7001 10.7427 30.7001 10.7428C30.7001 10.7429 30.7001 10.743 30.7001 10.7431C30.7001 10.7432 30.7001 10.7433 30.7001 10.7434C30.7001 10.7435 30.7001 10.7436 30.7001 10.7437C30.7001 10.7438 30.7001 10.7439 30.7001 10.744C30.7001 10.7441 30.7001 10.7442 30.7001 10.7443C30.7001 10.7443 30.7001 10.7444 30.7001 10.7445C30.7001 10.7446 30.7001 10.7447 30.7001 10.7448C30.7001 10.7449 30.7001 10.745 30.7001 10.7451C30.7001 10.7452 30.7001 10.7453 30.7001 10.7454C30.7001 10.7455 30.7001 10.7456 30.7001 10.7457C30.7001 10.7458 30.7001 10.7459 30.7001 10.746C30.7001 10.7461 30.7001 10.7462 30.7001 10.7463C30.7001 10.7464 30.7001 10.7465 30.7001 10.7466C30.7001 10.7467 30.7001 10.7468 30.7001 10.7469C30.7001 10.747 30.7001 10.7471 30.7001 10.7472C30.7001 10.7473 30.7001 10.7474 30.7001 10.7475C30.7001 10.7476 30.7001 10.7477 30.7001 10.7478C30.7001 10.7479 30.7001 10.748 30.7001 10.7481C30.7001 10.7482 30.7001 10.7483 30.7001 10.7484C30.7001 10.7485 30.7001 10.7486 30.7001 10.7487C30.7001 10.7488 30.7001 10.7489 30.7001 10.749C30.7001 10.7491 30.7001 10.7492 30.7001 10.7493C30.7001 10.7494 30.7001 10.7495 30.7001 10.7496C30.7001 10.7497 30.7001 10.7498 30.7001 10.7499C30.7001 10.75 30.7001 10.7501 30.7001 10.7502C30.7001 10.7503 30.7001 10.7504 30.7001 10.7505C30.7001 10.7506 30.7001 10.7507 30.7001 10.7508C30.7001 10.7509 30.7001 10.751 30.7001 10.7512C30.7001 10.7513 30.7001 10.7514 30.7001 10.7515C30.7001 10.7516 30.7001 10.7517 30.7001 10.7518C30.7001 10.7519 30.7001 10.752 30.7001 10.7521C30.7001 10.7522 30.7001 10.7523 30.7001 10.7524C30.7001 10.7525 30.7001 10.7526 30.7001 10.7527C30.7001 10.7528 30.7001 10.7529 30.7001 10.753C30.7001 10.7531 30.7001 10.7532 30.7001 10.7533C30.7001 10.7534 30.7001 10.7535 30.7001 10.7536C30.7001 10.7537 30.7001 10.7538 30.7001 10.7539C30.7001 10.754 30.7001 10.7541 30.7001 10.7542C30.7001 10.7543 30.7001 10.7544 30.7001 10.7545C30.7001 10.7547 30.7001 10.7548 30.7001 10.7549C30.7001 10.755 30.7001 10.7551 30.7001 10.7552C30.7001 10.7553 30.7001 10.7554 30.7001 10.7555C30.7001 10.7556 30.7001 10.7557 30.7001 10.7558C30.7001 10.7559 30.7001 10.756 30.7001 10.7561C30.7001 10.7562 30.7001 10.7563 30.7001 10.7564C30.7001 10.7565 30.7001 10.7566 30.7001 10.7567C30.7001 10.7568 30.7001 10.757 30.7001 10.7571C30.7001 10.7572 30.7001 10.7573 30.7001 10.7574C30.7001 10.7575 30.7001 10.7576 30.7001 10.7577C30.7001 10.7578 30.7001 10.7579 30.7001 10.758C30.7001 10.7581 30.7001 10.7582 30.7001 10.7583C30.7001 10.7584 30.7001 10.7585 30.7001 10.7586C30.7001 10.7587 30.7001 10.7588 30.7001 10.759C30.7001 10.7591 30.7001 10.7592 30.7001 10.7593C30.7001 10.7594 30.7001 10.7595 30.7001 10.7596C30.7001 10.7597 30.7001 10.7598 30.7001 10.7599C30.7001 10.76 30.7001 10.7601 30.7001 10.7602C30.7001 10.7603 30.7001 10.7604 30.7001 10.7605C30.7001 10.7606 30.7001 10.7608 30.7001 10.7609C30.7001 10.761 30.7001 10.7611 30.7001 10.7612C30.7001 10.7613 30.7001 10.7614 30.7001 10.7615C30.7001 10.7616 30.7001 10.7617 30.7001 10.7618C30.7001 10.7619 30.7001 10.762 30.7001 10.7621C30.7001 10.7622 30.7001 10.7624 30.7001 10.7625C30.7001 10.7626 30.7001 10.7627 30.7001 10.7628C30.7001 10.7629 30.7001 10.763 30.7001 10.7631C30.7001 10.7632 30.7001 10.7633 30.7001 10.7634C30.7001 10.7635 30.7001 10.7636 30.7001 10.7637C30.7001 10.7639 30.7001 10.764 30.7001 10.7641C30.7001 10.7642 30.7001 10.7643 30.7001 10.7644C30.7001 10.7645 30.7001 10.7646 30.7001 10.7647C30.7001 10.7648 30.7001 10.7649 30.7001 10.765C30.7001 10.7651 30.7001 10.7653 30.7001 10.7654C30.7001 10.7655 30.7001 10.7656 30.7001 10.7657C30.7001 10.7658 30.7001 10.7659 30.7001 10.766C30.7001 10.7661 30.7001 10.7662 30.7001 10.7663C30.7001 10.7664 30.7001 10.7666 30.7001 10.7667C30.7001 10.7668 30.7001 10.7669 30.7001 10.767C30.7001 10.7671 30.7001 10.7672 30.7001 10.7673C30.7001 10.7674 30.7001 10.7675 30.7001 10.7676C30.7001 10.7677 30.7001 10.7679 30.7001 10.768C30.7001 10.7681 30.7001 10.7682 30.7001 10.7683C30.7001 10.7684 30.7001 10.7685 30.7001 10.7686C30.7001 10.7687 30.7001 10.7688 30.7001 10.7689C30.7001 10.769 30.7001 10.7692 30.7001 10.7693C30.7001 10.7694 30.7001 10.7695 30.7001 10.7696C30.7001 10.7697 30.7001 10.7698 30.7001 10.7699C30.7001 10.77 30.7001 10.7701 30.7001 10.7702C30.7001 10.7704 30.7001 10.7705 30.7001 10.7706C30.7001 10.7707 30.7001 10.7708 30.7001 10.7709C30.7001 10.771 30.7001 10.7711 30.7001 10.7712C30.7001 10.7713 30.7001 10.7714 30.7001 10.7716C30.7001 10.7717 30.7001 10.7718 30.7001 10.7719C30.7001 10.772 30.7001 10.7721 30.7001 10.7722C30.7001 10.7723 30.7001 10.7724 30.7001 10.7725C30.7001 10.7726 30.7001 10.7728 30.7001 10.7729C30.7001 10.773 30.7001 10.7731 30.7001 10.7732C30.7001 10.7733 30.7001 10.7734 30.7001 10.7735C30.7001 10.7736 30.7001 10.7737 30.7001 10.7738C30.7001 10.774 30.7001 10.7741 30.7001 10.7742C30.7001 10.7743 30.7001 10.7744 30.7001 10.7745C30.7001 10.7746 30.7001 10.7747 30.7001 10.7748C30.7001 10.7749 30.7001 10.7751 30.7001 10.7752C30.7001 10.7753 30.7001 10.7754 30.7001 10.7755C30.7001 10.7756 30.7001 10.7757 30.7001 10.7758C30.7001 10.7759 30.7001 10.776 30.7001 10.7761C30.7001 10.7763 30.7001 10.7764 30.7001 10.7765C30.7001 10.7766 30.7001 10.7767 30.7001 10.7768C30.7001 10.7769 30.7001 10.777 30.7001 10.7771C30.7001 10.7772 30.7001 10.7774 30.7001 10.7775C30.7001 10.7776 30.7001 10.7777 30.7001 10.7778C30.7001 10.7779 30.7001 10.778 30.7001 10.7781C30.7001 10.7782 30.7001 10.7783 30.7001 10.7785C30.7001 10.7786 30.7001 10.7787 30.7001 10.7788C30.7001 10.7789 30.7001 10.779 30.7001 10.7791C30.7001 10.7792 30.7001 10.7793 30.7001 10.7794C30.7001 10.7795 30.7001 10.7797 30.7001 10.7798C30.7001 10.7799 30.7001 10.78 30.7001 10.7801C30.7001 10.7802 30.7001 10.7803 30.7001 10.7804C30.7001 10.7805 30.7001 10.7806 30.7001 10.7808C30.7001 10.7809 30.7001 10.781 30.7001 10.7811C30.7001 10.7812 30.7001 10.7813 30.7001 10.7814C30.7001 10.7815 30.7001 10.7816 30.7001 10.7817C30.7001 10.7819 30.7001 10.782 30.7001 10.7821C30.7001 10.7822 30.7001 10.7823 30.7001 10.7824C30.7001 10.7825 30.7001 10.7826 30.7001 10.7827C30.7001 10.7828 30.7001 10.783 30.7001 10.7831C30.7001 10.7832 30.7001 10.7833 30.7001 10.7834C30.7001 10.7835 30.7001 10.7836 30.7001 10.7837C30.7001 10.7838 30.7001 10.7839 30.7001 10.784C30.7001 10.7842 30.7001 10.7843 30.7001 10.7844C30.7001 10.7845 30.7001 10.7846 30.7001 10.7847C30.7001 10.7848 30.7001 10.7849 30.7001 10.785C30.7001 10.7851 30.7001 10.7853 30.7001 10.7854C30.7001 10.7855 30.7001 10.7856 30.7001 10.7857C30.7001 10.7858 30.7001 10.7859 30.7001 10.786C30.7001 10.7861 30.7001 10.7862 30.7001 10.7863C30.7001 10.7865 30.7001 10.7866 30.7001 10.7867C30.7001 10.7868 30.7001 10.7869 30.7001 10.787C30.7001 10.7871 30.7001 10.7872 30.7001 10.7873C30.7001 10.7874 30.7001 10.7876 30.7001 10.7877C30.7001 10.7878 30.7001 10.7879 30.7001 10.788C30.7001 10.7881 30.7001 10.7882 30.7001 10.7883C30.7001 10.7884 30.7001 10.7885 30.7001 10.7886C30.7001 10.7888 30.7001 10.7889 30.7001 10.789C30.7001 10.7891 30.7001 10.7892 30.7001 10.7893C30.7001 10.7894 30.7001 10.7895 30.7001 10.7896C30.7001 10.7897 30.7001 10.7898 30.7001 10.79C30.7001 10.7901 30.7001 10.7902 30.7001 10.7903C30.7001 10.7904 30.7001 10.7905 30.7001 10.7906C30.7001 10.7907 30.7001 10.7908 30.7001 10.7909C30.7001 10.791 30.7001 10.7912 30.7001 10.7913C30.7001 10.7914 30.7001 10.7915 30.7001 10.7916C30.7001 10.7917 30.7001 10.7918 30.7001 10.7919C30.7001 10.792 30.7001 10.7921 30.7001 10.7922C30.7001 10.7923 30.7001 10.7925 30.7001 10.7926C30.7001 10.7927 30.7001 10.7928 30.7001 10.7929C30.7001 10.793 30.7001 10.7931 30.7001 10.7932C30.7001 10.7933 30.7001 10.7934 30.7001 10.7935C30.7001 10.7936 30.7001 10.7938 30.7001 10.7939C30.7001 10.794 30.7001 10.7941 30.7001 10.7942C30.7001 10.7943 30.7001 10.7944 30.7001 10.7945C30.7001 10.7946 30.7001 10.7947 30.7001 10.7948C30.7001 10.7949 30.7001 10.7951 30.7001 10.7952C30.7001 10.7953 30.7001 10.7954 30.7001 10.7955C30.7001 10.7956 30.7001 10.7957 30.7001 10.7958C30.7001 10.7959 30.7001 10.796 30.7001 10.7961C30.7001 10.7962 30.7001 10.7963 30.7001 10.7964C30.7001 10.7966 30.7001 10.7967 30.7001 10.7968C30.7001 10.7969 30.7001 10.797 30.7001 10.7971C30.7001 10.7972 30.7001 10.7973 30.7001 10.7974C30.7001 10.7975 30.7001 10.7976 30.7001 10.7977C30.7001 10.7978 30.7001 10.798 30.7001 10.7981C30.7001 10.7982 30.7001 10.7983 30.7001 10.7984C30.7001 10.7985 30.7001 10.7986 30.7001 10.7987C30.7001 10.7988 30.7001 10.7989 30.7001 10.799C30.7001 10.7991 30.7001 10.7992 30.7001 10.7993C30.7001 10.7994 30.7001 10.7996 30.7001 10.7997C30.7001 10.7998 30.7001 10.7999 30.7001 10.8C30.7001 10.8001 30.7001 10.8002 30.7001 10.8003C30.7001 10.8004 30.7001 10.8005 30.7001 10.8006C30.7001 10.8007 30.7001 10.8008 30.7001 10.8009C30.7001 10.801 30.7001 10.8011 30.7001 10.8013C30.7001 10.8014 30.7001 10.8015 30.7001 10.8016C30.7001 10.8017 30.7001 10.8018 30.7001 10.8019C30.7001 10.802 30.7001 10.8021 30.7001 10.8022C30.7001 10.8023 30.7001 10.8024 30.7001 10.8025C30.7001 10.8026 30.7001 10.8027 30.7001 10.8028C30.7001 10.8029 30.7001 10.803 30.7001 10.8031C30.7001 10.8033 30.7001 10.8034 30.7001 10.8035C30.7001 10.8036 30.7001 10.8037 30.7001 10.8038C30.7001 10.8039 30.7001 10.804 30.7001 10.8041C30.7001 10.8042 30.7001 10.8043 30.7001 10.8044C30.7001 10.8045 30.7001 10.8046 30.7001 10.8047C30.7001 10.8048 30.7001 10.8049 30.7001 10.805C30.7001 10.8051 30.7001 10.8052 30.7001 10.8053C30.7001 10.8054 30.7001 10.8056 30.7001 10.8057C30.7001 10.8058 30.7001 10.8059 30.7001 10.806C30.7001 10.8061 30.7001 10.8062 30.7001 10.8063C30.7001 10.8064 30.7001 10.8065 30.7001 10.8066C30.7001 10.8067 30.7001 10.8068 30.7001 10.8069C30.7001 10.807 30.7001 10.8071 30.7001 10.8072C30.7001 10.8073 30.7001 10.8074 30.7001 10.8075C30.7001 10.8076 30.7001 10.8077 30.7001 10.8078C30.7001 10.8079 30.7001 10.808 30.7001 10.8081C30.7001 10.8082 30.7001 10.8083 30.7001 10.8084C30.7001 10.8085 30.7001 10.8087 30.7001 10.8088C30.7001 10.8089 30.7001 10.809 30.7001 10.8091C30.7001 10.8092 30.7001 10.8093 30.7001 10.8094C30.7001 10.8095 30.7001 10.8096 30.7001 10.8097C30.7001 10.8098 30.7001 10.8099 30.7001 10.81C30.7001 10.8101 30.7001 10.8102 30.7001 10.8103C30.7001 10.8104 30.7001 10.8105 30.7001 10.8106C30.7001 10.8107 30.7001 10.8108 30.7001 10.8109C30.7001 10.811 30.7001 10.8111 30.7001 10.8112C30.7001 10.8113 30.7001 10.8114 30.7001 10.8115C30.7001 10.8116 30.7001 10.8117 30.7001 10.8118C30.7001 10.8119 30.7001 10.812 30.7001 10.8121C30.7001 10.8122 30.7001 10.8123 30.7001 10.8124C30.7001 10.8125 30.7001 10.8126 30.7001 10.8127C30.7001 10.8128 30.7001 10.8129 30.7001 10.813C30.7001 10.8131 30.7001 10.8132 30.7001 10.8133C30.7001 10.8134 30.7001 10.8135 30.7001 10.8136C30.7001 10.8137 30.7001 10.8138 30.7001 10.8139C30.7001 10.814 30.7001 10.8141 30.7001 10.8142C30.7001 10.8143 30.7001 10.8144 30.7001 10.8145C30.7001 10.8146 30.7001 10.8147 30.7001 10.8148C30.7001 10.8149 30.7001 10.815 30.7001 10.8151C30.7001 10.8152 30.7001 10.8153 30.7001 10.8154C30.7001 10.8155 30.7001 10.8156 30.7001 10.8157C30.7001 10.8158 30.7001 10.8159 30.7001 10.816C30.7001 10.8161 30.7001 10.8162 30.7001 10.8163C30.7001 10.8164 30.7001 10.8165 30.7001 10.8166C30.7001 10.8166 30.7001 10.8167 30.7001 10.8168C30.7001 10.8169 30.7001 10.817 30.7001 10.8171C30.7001 10.8172 30.7001 10.8173 30.7001 10.8174C30.7001 10.8175 30.7001 10.8176 30.7001 10.8177C30.7001 10.8178 30.7001 10.8179 30.7001 10.818C30.7001 10.8181 30.7001 10.8182 30.7001 10.8183C30.7001 10.8184 30.7001 10.8185 30.7001 10.8186C30.7001 10.8187 30.7001 10.8188 30.7001 10.8189C30.7001 10.819 30.7001 10.8191 30.7001 10.8192C30.7001 10.8193 30.7001 10.8193 30.7001 10.8194C30.7001 10.8195 30.7001 10.8196 30.7001 10.8197C30.7001 10.8198 30.7001 10.8199 30.7001 10.82C30.7001 10.8201 30.7001 10.8202 30.7001 10.8203C30.7001 10.8204 30.7001 10.8205 30.7001 10.8206C30.7001 10.8207 30.7001 10.8208 30.7001 10.8209C30.7001 10.821 30.7001 10.821 30.7001 10.8211C30.7001 10.8212 30.7001 10.8213 30.7001 10.8214C30.7001 10.8215 30.7001 10.8216 30.7001 10.8217C30.7001 10.8218 30.7001 10.8219 30.7001 10.822C30.7001 10.8221 30.7001 10.8222 30.7001 10.8223C30.7001 10.8224 30.7001 10.8224 30.7001 10.8225C30.7001 10.8226 30.7001 10.8227 30.7001 10.8228C30.7001 10.8229 30.7001 10.823 30.7001 10.8231C30.7001 10.8232 30.7001 10.8233 30.7001 10.8234C30.7001 10.8235 30.7001 10.8235 30.7001 10.8236C30.7001 10.8237 30.7001 10.8238 30.7001 10.8239C30.7001 10.824 30.7001 10.8241 30.7001 10.8242C30.7001 10.8243 30.7001 10.8244 30.7001 10.8245C30.7001 10.8245 30.7001 10.8246 30.7001 10.8247C30.7001 10.8248 30.7001 10.8249 30.7001 10.825C30.7001 10.8251 30.7001 10.8252 30.7001 10.8253C30.7001 10.8254 30.7001 10.8254 30.7001 10.8255C30.7001 10.8256 30.7001 10.8257 30.7001 10.8258C30.7001 10.8259 30.7001 10.826 30.7001 10.8261C30.7001 10.8262 30.7001 10.8263 30.7001 10.8263C30.7001 10.8264 30.7001 10.8265 30.7001 10.8266C30.7001 10.8267 30.7001 10.8268 30.7001 10.8269C30.7001 10.827 30.7001 10.827 30.7001 10.8271C30.7001 10.8272 30.7001 10.8273 30.7001 10.8274C30.7001 10.8275 30.7001 10.8276 30.7001 10.8277C30.7001 10.8277 30.7001 10.8278 30.7001 10.8279C30.7001 10.828 30.7001 10.8281 30.7001 10.8282C30.7001 10.8283 30.7001 10.8284 30.7001 10.8284C30.7001 10.8285 30.7001 10.8286 30.7001 10.8287C30.7001 10.8288 30.7001 10.8289 30.7001 10.829C30.7001 10.829 30.7001 10.8291 30.7001 10.8292C30.7001 10.8293 30.7001 10.8294 30.7001 10.8295C30.7001 10.8296 30.7001 10.8296 30.7001 10.8297C30.7001 10.8298 30.7001 10.8299 30.7001 10.83C30.7001 10.8301 30.7001 10.8301 30.7001 10.8302C30.7001 10.8303 30.7001 10.8304 30.7001 10.8305C30.7001 10.8306 30.7001 10.8307 30.7001 10.8307C30.7001 10.8308 30.7001 10.8309 30.7001 10.831C30.7001 10.8311 30.7001 10.8312 30.7001 10.8312C30.7001 10.8313 30.7001 10.8314 30.7001 10.8315C30.7001 10.8316 30.7001 10.8317 30.7001 10.8317H26.7001C26.7001 10.8317 26.7001 10.8316 26.7001 10.8315C26.7001 10.8314 26.7001 10.8313 26.7001 10.8312C26.7001 10.8312 26.7001 10.8311 26.7001 10.831C26.7001 10.8309 26.7001 10.8308 26.7001 10.8307C26.7001 10.8307 26.7001 10.8306 26.7001 10.8305C26.7001 10.8304 26.7001 10.8303 26.7001 10.8302C26.7001 10.8301 26.7001 10.8301 26.7001 10.83C26.7001 10.8299 26.7001 10.8298 26.7001 10.8297C26.7001 10.8296 26.7001 10.8296 26.7001 10.8295C26.7001 10.8294 26.7001 10.8293 26.7001 10.8292C26.7001 10.8291 26.7001 10.829 26.7001 10.829C26.7001 10.8289 26.7001 10.8288 26.7001 10.8287C26.7001 10.8286 26.7001 10.8285 26.7001 10.8284C26.7001 10.8284 26.7001 10.8283 26.7001 10.8282C26.7001 10.8281 26.7001 10.828 26.7001 10.8279C26.7001 10.8278 26.7001 10.8277 26.7001 10.8277C26.7001 10.8276 26.7001 10.8275 26.7001 10.8274C26.7001 10.8273 26.7001 10.8272 26.7001 10.8271C26.7001 10.827 26.7001 10.827 26.7001 10.8269C26.7001 10.8268 26.7001 10.8267 26.7001 10.8266C26.7001 10.8265 26.7001 10.8264 26.7001 10.8263C26.7001 10.8263 26.7001 10.8262 26.7001 10.8261C26.7001 10.826 26.7001 10.8259 26.7001 10.8258C26.7001 10.8257 26.7001 10.8256 26.7001 10.8255C26.7001 10.8254 26.7001 10.8254 26.7001 10.8253C26.7001 10.8252 26.7001 10.8251 26.7001 10.825C26.7001 10.8249 26.7001 10.8248 26.7001 10.8247C26.7001 10.8246 26.7001 10.8245 26.7001 10.8245C26.7001 10.8244 26.7001 10.8243 26.7001 10.8242C26.7001 10.8241 26.7001 10.824 26.7001 10.8239C26.7001 10.8238 26.7001 10.8237 26.7001 10.8236C26.7001 10.8235 26.7001 10.8235 26.7001 10.8234C26.7001 10.8233 26.7001 10.8232 26.7001 10.8231C26.7001 10.823 26.7001 10.8229 26.7001 10.8228C26.7001 10.8227 26.7001 10.8226 26.7001 10.8225C26.7001 10.8224 26.7001 10.8224 26.7001 10.8223C26.7001 10.8222 26.7001 10.8221 26.7001 10.822C26.7001 10.8219 26.7001 10.8218 26.7001 10.8217C26.7001 10.8216 26.7001 10.8215 26.7001 10.8214C26.7001 10.8213 26.7001 10.8212 26.7001 10.8211C26.7001 10.821 26.7001 10.821 26.7001 10.8209C26.7001 10.8208 26.7001 10.8207 26.7001 10.8206C26.7001 10.8205 26.7001 10.8204 26.7001 10.8203C26.7001 10.8202 26.7001 10.8201 26.7001 10.82C26.7001 10.8199 26.7001 10.8198 26.7001 10.8197C26.7001 10.8196 26.7001 10.8195 26.7001 10.8194C26.7001 10.8193 26.7001 10.8193 26.7001 10.8192C26.7001 10.8191 26.7001 10.819 26.7001 10.8189C26.7001 10.8188 26.7001 10.8187 26.7001 10.8186C26.7001 10.8185 26.7001 10.8184 26.7001 10.8183C26.7001 10.8182 26.7001 10.8181 26.7001 10.818C26.7001 10.8179 26.7001 10.8178 26.7001 10.8177C26.7001 10.8176 26.7001 10.8175 26.7001 10.8174C26.7001 10.8173 26.7001 10.8172 26.7001 10.8171C26.7001 10.817 26.7001 10.8169 26.7001 10.8168C26.7001 10.8167 26.7001 10.8166 26.7001 10.8166C26.7001 10.8165 26.7001 10.8164 26.7001 10.8163C26.7001 10.8162 26.7001 10.8161 26.7001 10.816C26.7001 10.8159 26.7001 10.8158 26.7001 10.8157C26.7001 10.8156 26.7001 10.8155 26.7001 10.8154C26.7001 10.8153 26.7001 10.8152 26.7001 10.8151C26.7001 10.815 26.7001 10.8149 26.7001 10.8148C26.7001 10.8147 26.7001 10.8146 26.7001 10.8145C26.7001 10.8144 26.7001 10.8143 26.7001 10.8142C26.7001 10.8141 26.7001 10.814 26.7001 10.8139C26.7001 10.8138 26.7001 10.8137 26.7001 10.8136C26.7001 10.8135 26.7001 10.8134 26.7001 10.8133C26.7001 10.8132 26.7001 10.8131 26.7001 10.813C26.7001 10.8129 26.7001 10.8128 26.7001 10.8127C26.7001 10.8126 26.7001 10.8125 26.7001 10.8124C26.7001 10.8123 26.7001 10.8122 26.7001 10.8121C26.7001 10.812 26.7001 10.8119 26.7001 10.8118C26.7001 10.8117 26.7001 10.8116 26.7001 10.8115C26.7001 10.8114 26.7001 10.8113 26.7001 10.8112C26.7001 10.8111 26.7001 10.811 26.7001 10.8109C26.7001 10.8108 26.7001 10.8107 26.7001 10.8106C26.7001 10.8105 26.7001 10.8104 26.7001 10.8103C26.7001 10.8102 26.7001 10.8101 26.7001 10.81C26.7001 10.8099 26.7001 10.8098 26.7001 10.8097C26.7001 10.8096 26.7001 10.8095 26.7001 10.8094C26.7001 10.8093 26.7001 10.8092 26.7001 10.8091C26.7001 10.809 26.7001 10.8089 26.7001 10.8088C26.7001 10.8087 26.7001 10.8085 26.7001 10.8084C26.7001 10.8083 26.7001 10.8082 26.7001 10.8081C26.7001 10.808 26.7001 10.8079 26.7001 10.8078C26.7001 10.8077 26.7001 10.8076 26.7001 10.8075C26.7001 10.8074 26.7001 10.8073 26.7001 10.8072C26.7001 10.8071 26.7001 10.807 26.7001 10.8069C26.7001 10.8068 26.7001 10.8067 26.7001 10.8066C26.7001 10.8065 26.7001 10.8064 26.7001 10.8063C26.7001 10.8062 26.7001 10.8061 26.7001 10.806C26.7001 10.8059 26.7001 10.8058 26.7001 10.8057C26.7001 10.8056 26.7001 10.8054 26.7001 10.8053C26.7001 10.8052 26.7001 10.8051 26.7001 10.805C26.7001 10.8049 26.7001 10.8048 26.7001 10.8047C26.7001 10.8046 26.7001 10.8045 26.7001 10.8044C26.7001 10.8043 26.7001 10.8042 26.7001 10.8041C26.7001 10.804 26.7001 10.8039 26.7001 10.8038C26.7001 10.8037 26.7001 10.8036 26.7001 10.8035C26.7001 10.8034 26.7001 10.8033 26.7001 10.8031C26.7001 10.803 26.7001 10.8029 26.7001 10.8028C26.7001 10.8027 26.7001 10.8026 26.7001 10.8025C26.7001 10.8024 26.7001 10.8023 26.7001 10.8022C26.7001 10.8021 26.7001 10.802 26.7001 10.8019C26.7001 10.8018 26.7001 10.8017 26.7001 10.8016C26.7001 10.8015 26.7001 10.8014 26.7001 10.8013C26.7001 10.8011 26.7001 10.801 26.7001 10.8009C26.7001 10.8008 26.7001 10.8007 26.7001 10.8006C26.7001 10.8005 26.7001 10.8004 26.7001 10.8003C26.7001 10.8002 26.7001 10.8001 26.7001 10.8C26.7001 10.7999 26.7001 10.7998 26.7001 10.7997C26.7001 10.7996 26.7001 10.7994 26.7001 10.7993C26.7001 10.7992 26.7001 10.7991 26.7001 10.799C26.7001 10.7989 26.7001 10.7988 26.7001 10.7987C26.7001 10.7986 26.7001 10.7985 26.7001 10.7984C26.7001 10.7983 26.7001 10.7982 26.7001 10.7981C26.7001 10.798 26.7001 10.7978 26.7001 10.7977C26.7001 10.7976 26.7001 10.7975 26.7001 10.7974C26.7001 10.7973 26.7001 10.7972 26.7001 10.7971C26.7001 10.797 26.7001 10.7969 26.7001 10.7968C26.7001 10.7967 26.7001 10.7966 26.7001 10.7964C26.7001 10.7963 26.7001 10.7962 26.7001 10.7961C26.7001 10.796 26.7001 10.7959 26.7001 10.7958C26.7001 10.7957 26.7001 10.7956 26.7001 10.7955C26.7001 10.7954 26.7001 10.7953 26.7001 10.7952C26.7001 10.7951 26.7001 10.7949 26.7001 10.7948C26.7001 10.7947 26.7001 10.7946 26.7001 10.7945C26.7001 10.7944 26.7001 10.7943 26.7001 10.7942C26.7001 10.7941 26.7001 10.794 26.7001 10.7939C26.7001 10.7938 26.7001 10.7936 26.7001 10.7935C26.7001 10.7934 26.7001 10.7933 26.7001 10.7932C26.7001 10.7931 26.7001 10.793 26.7001 10.7929C26.7001 10.7928 26.7001 10.7927 26.7001 10.7926C26.7001 10.7925 26.7001 10.7923 26.7001 10.7922C26.7001 10.7921 26.7001 10.792 26.7001 10.7919C26.7001 10.7918 26.7001 10.7917 26.7001 10.7916C26.7001 10.7915 26.7001 10.7914 26.7001 10.7913C26.7001 10.7912 26.7001 10.791 26.7001 10.7909C26.7001 10.7908 26.7001 10.7907 26.7001 10.7906C26.7001 10.7905 26.7001 10.7904 26.7001 10.7903C26.7001 10.7902 26.7001 10.7901 26.7001 10.79C26.7001 10.7898 26.7001 10.7897 26.7001 10.7896C26.7001 10.7895 26.7001 10.7894 26.7001 10.7893C26.7001 10.7892 26.7001 10.7891 26.7001 10.789C26.7001 10.7889 26.7001 10.7888 26.7001 10.7886C26.7001 10.7885 26.7001 10.7884 26.7001 10.7883C26.7001 10.7882 26.7001 10.7881 26.7001 10.788C26.7001 10.7879 26.7001 10.7878 26.7001 10.7877C26.7001 10.7876 26.7001 10.7874 26.7001 10.7873C26.7001 10.7872 26.7001 10.7871 26.7001 10.787C26.7001 10.7869 26.7001 10.7868 26.7001 10.7867C26.7001 10.7866 26.7001 10.7865 26.7001 10.7863C26.7001 10.7862 26.7001 10.7861 26.7001 10.786C26.7001 10.7859 26.7001 10.7858 26.7001 10.7857C26.7001 10.7856 26.7001 10.7855 26.7001 10.7854C26.7001 10.7853 26.7001 10.7851 26.7001 10.785C26.7001 10.7849 26.7001 10.7848 26.7001 10.7847C26.7001 10.7846 26.7001 10.7845 26.7001 10.7844C26.7001 10.7843 26.7001 10.7842 26.7001 10.784C26.7001 10.7839 26.7001 10.7838 26.7001 10.7837C26.7001 10.7836 26.7001 10.7835 26.7001 10.7834C26.7001 10.7833 26.7001 10.7832 26.7001 10.7831C26.7001 10.783 26.7001 10.7828 26.7001 10.7827C26.7001 10.7826 26.7001 10.7825 26.7001 10.7824C26.7001 10.7823 26.7001 10.7822 26.7001 10.7821C26.7001 10.782 26.7001 10.7819 26.7001 10.7817C26.7001 10.7816 26.7001 10.7815 26.7001 10.7814C26.7001 10.7813 26.7001 10.7812 26.7001 10.7811C26.7001 10.781 26.7001 10.7809 26.7001 10.7808C26.7001 10.7806 26.7001 10.7805 26.7001 10.7804C26.7001 10.7803 26.7001 10.7802 26.7001 10.7801C26.7001 10.78 26.7001 10.7799 26.7001 10.7798C26.7001 10.7797 26.7001 10.7795 26.7001 10.7794C26.7001 10.7793 26.7001 10.7792 26.7001 10.7791C26.7001 10.779 26.7001 10.7789 26.7001 10.7788C26.7001 10.7787 26.7001 10.7786 26.7001 10.7785C26.7001 10.7783 26.7001 10.7782 26.7001 10.7781C26.7001 10.778 26.7001 10.7779 26.7001 10.7778C26.7001 10.7777 26.7001 10.7776 26.7001 10.7775C26.7001 10.7774 26.7001 10.7772 26.7001 10.7771C26.7001 10.777 26.7001 10.7769 26.7001 10.7768C26.7001 10.7767 26.7001 10.7766 26.7001 10.7765C26.7001 10.7764 26.7001 10.7763 26.7001 10.7761C26.7001 10.776 26.7001 10.7759 26.7001 10.7758C26.7001 10.7757 26.7001 10.7756 26.7001 10.7755C26.7001 10.7754 26.7001 10.7753 26.7001 10.7752C26.7001 10.7751 26.7001 10.7749 26.7001 10.7748C26.7001 10.7747 26.7001 10.7746 26.7001 10.7745C26.7001 10.7744 26.7001 10.7743 26.7001 10.7742C26.7001 10.7741 26.7001 10.774 26.7001 10.7738C26.7001 10.7737 26.7001 10.7736 26.7001 10.7735C26.7001 10.7734 26.7001 10.7733 26.7001 10.7732C26.7001 10.7731 26.7001 10.773 26.7001 10.7729C26.7001 10.7728 26.7001 10.7726 26.7001 10.7725C26.7001 10.7724 26.7001 10.7723 26.7001 10.7722C26.7001 10.7721 26.7001 10.772 26.7001 10.7719C26.7001 10.7718 26.7001 10.7717 26.7001 10.7716C26.7001 10.7714 26.7001 10.7713 26.7001 10.7712C26.7001 10.7711 26.7001 10.771 26.7001 10.7709C26.7001 10.7708 26.7001 10.7707 26.7001 10.7706C26.7001 10.7705 26.7001 10.7704 26.7001 10.7702C26.7001 10.7701 26.7001 10.77 26.7001 10.7699C26.7001 10.7698 26.7001 10.7697 26.7001 10.7696C26.7001 10.7695 26.7001 10.7694 26.7001 10.7693C26.7001 10.7692 26.7001 10.769 26.7001 10.7689C26.7001 10.7688 26.7001 10.7687 26.7001 10.7686C26.7001 10.7685 26.7001 10.7684 26.7001 10.7683C26.7001 10.7682 26.7001 10.7681 26.7001 10.768C26.7001 10.7679 26.7001 10.7677 26.7001 10.7676C26.7001 10.7675 26.7001 10.7674 26.7001 10.7673C26.7001 10.7672 26.7001 10.7671 26.7001 10.767C26.7001 10.7669 26.7001 10.7668 26.7001 10.7667C26.7001 10.7666 26.7001 10.7664 26.7001 10.7663C26.7001 10.7662 26.7001 10.7661 26.7001 10.766C26.7001 10.7659 26.7001 10.7658 26.7001 10.7657C26.7001 10.7656 26.7001 10.7655 26.7001 10.7654C26.7001 10.7653 26.7001 10.7651 26.7001 10.765C26.7001 10.7649 26.7001 10.7648 26.7001 10.7647C26.7001 10.7646 26.7001 10.7645 26.7001 10.7644C26.7001 10.7643 26.7001 10.7642 26.7001 10.7641C26.7001 10.764 26.7001 10.7639 26.7001 10.7637C26.7001 10.7636 26.7001 10.7635 26.7001 10.7634C26.7001 10.7633 26.7001 10.7632 26.7001 10.7631C26.7001 10.763 26.7001 10.7629 26.7001 10.7628C26.7001 10.7627 26.7001 10.7626 26.7001 10.7625C26.7001 10.7624 26.7001 10.7622 26.7001 10.7621C26.7001 10.762 26.7001 10.7619 26.7001 10.7618C26.7001 10.7617 26.7001 10.7616 26.7001 10.7615C26.7001 10.7614 26.7001 10.7613 26.7001 10.7612C26.7001 10.7611 26.7001 10.761 26.7001 10.7609C26.7001 10.7608 26.7001 10.7606 26.7001 10.7605C26.7001 10.7604 26.7001 10.7603 26.7001 10.7602C26.7001 10.7601 26.7001 10.76 26.7001 10.7599C26.7001 10.7598 26.7001 10.7597 26.7001 10.7596C26.7001 10.7595 26.7001 10.7594 26.7001 10.7593C26.7001 10.7592 26.7001 10.7591 26.7001 10.759C26.7001 10.7588 26.7001 10.7587 26.7001 10.7586C26.7001 10.7585 26.7001 10.7584 26.7001 10.7583C26.7001 10.7582 26.7001 10.7581 26.7001 10.758C26.7001 10.7579 26.7001 10.7578 26.7001 10.7577C26.7001 10.7576 26.7001 10.7575 26.7001 10.7574C26.7001 10.7573 26.7001 10.7572 26.7001 10.7571C26.7001 10.757 26.7001 10.7568 26.7001 10.7567C26.7001 10.7566 26.7001 10.7565 26.7001 10.7564C26.7001 10.7563 26.7001 10.7562 26.7001 10.7561C26.7001 10.756 26.7001 10.7559 26.7001 10.7558C26.7001 10.7557 26.7001 10.7556 26.7001 10.7555C26.7001 10.7554 26.7001 10.7553 26.7001 10.7552C26.7001 10.7551 26.7001 10.755 26.7001 10.7549C26.7001 10.7548 26.7001 10.7547 26.7001 10.7545C26.7001 10.7544 26.7001 10.7543 26.7001 10.7542C26.7001 10.7541 26.7001 10.754 26.7001 10.7539C26.7001 10.7538 26.7001 10.7537 26.7001 10.7536C26.7001 10.7535 26.7001 10.7534 26.7001 10.7533C26.7001 10.7532 26.7001 10.7531 26.7001 10.753C26.7001 10.7529 26.7001 10.7528 26.7001 10.7527C26.7001 10.7526 26.7001 10.7525 26.7001 10.7524C26.7001 10.7523 26.7001 10.7522 26.7001 10.7521C26.7001 10.752 26.7001 10.7519 26.7001 10.7518C26.7001 10.7517 26.7001 10.7516 26.7001 10.7515C26.7001 10.7514 26.7001 10.7513 26.7001 10.7512C26.7001 10.751 26.7001 10.7509 26.7001 10.7508C26.7001 10.7507 26.7001 10.7506 26.7001 10.7505C26.7001 10.7504 26.7001 10.7503 26.7001 10.7502C26.7001 10.7501 26.7001 10.75 26.7001 10.7499C26.7001 10.7498 26.7001 10.7497 26.7001 10.7496C26.7001 10.7495 26.7001 10.7494 26.7001 10.7493C26.7001 10.7492 26.7001 10.7491 26.7001 10.749C26.7001 10.7489 26.7001 10.7488 26.7001 10.7487C26.7001 10.7486 26.7001 10.7485 26.7001 10.7484C26.7001 10.7483 26.7001 10.7482 26.7001 10.7481C26.7001 10.748 26.7001 10.7479 26.7001 10.7478C26.7001 10.7477 26.7001 10.7476 26.7001 10.7475C26.7001 10.7474 26.7001 10.7473 26.7001 10.7472C26.7001 10.7471 26.7001 10.747 26.7001 10.7469C26.7001 10.7468 26.7001 10.7467 26.7001 10.7466C26.7001 10.7465 26.7001 10.7464 26.7001 10.7463C26.7001 10.7462 26.7001 10.7461 26.7001 10.746C26.7001 10.7459 26.7001 10.7458 26.7001 10.7457C26.7001 10.7456 26.7001 10.7455 26.7001 10.7454C26.7001 10.7453 26.7001 10.7452 26.7001 10.7451C26.7001 10.745 26.7001 10.7449 26.7001 10.7448C26.7001 10.7447 26.7001 10.7446 26.7001 10.7445C26.7001 10.7444 26.7001 10.7443 26.7001 10.7443C26.7001 10.7442 26.7001 10.7441 26.7001 10.744C26.7001 10.7439 26.7001 10.7438 26.7001 10.7437C26.7001 10.7436 26.7001 10.7435 26.7001 10.7434C26.7001 10.7433 26.7001 10.7432 26.7001 10.7431C26.7001 10.743 26.7001 10.7429 26.7001 10.7428C26.7001 10.7427 26.7001 10.7426 26.7001 10.7425C26.7001 10.7424 26.7001 10.7423 26.7001 10.7422C26.7001 10.7421 26.7001 10.742 26.7001 10.7419C26.7001 10.7418 26.7001 10.7417 26.7001 10.7416C26.7001 10.7415 26.7001 10.7415 26.7001 10.7414C26.7001 10.7413 26.7001 10.7412 26.7001 10.7411C26.7001 10.741 26.7001 10.7409 26.7001 10.7408C26.7001 10.7407 26.7001 10.7406 26.7001 10.7405C26.7001 10.7404 26.7001 10.7403 26.7001 10.7402C26.7001 10.7401 26.7001 10.74 26.7001 10.7399C26.7001 10.7398 26.7001 10.7397 26.7001 10.7396C26.7001 10.7396 26.7001 10.7395 26.7001 10.7394C26.7001 10.7393 26.7001 10.7392 26.7001 10.7391C26.7001 10.739 26.7001 10.7389 26.7001 10.7388C26.7001 10.7387 26.7001 10.7386 26.7001 10.7385C26.7001 10.7384 26.7001 10.7383 26.7001 10.7382C26.7001 10.7382 26.7001 10.7381 26.7001 10.738C26.7001 10.7379 26.7001 10.7378 26.7001 10.7377C26.7001 10.7376 26.7001 10.7375 26.7001 10.7374C26.7001 10.7373 26.7001 10.7372 26.7001 10.7371C26.7001 10.737 26.7001 10.737 26.7001 10.7369C26.7001 10.7368 26.7001 10.7367 26.7001 10.7366C26.7001 10.7365 26.7001 10.7364 26.7001 10.7363C26.7001 10.7362 26.7001 10.7361 26.7001 10.736C26.7001 10.736 26.7001 10.7359 26.7001 10.7358C26.7001 10.7357 26.7001 10.7356 26.7001 10.7355C26.7001 10.7354 26.7001 10.7353 26.7001 10.7352C26.7001 10.7351 26.7001 10.7351 26.7001 10.735C26.7001 10.7349 26.7001 10.7348 26.7001 10.7347C26.7001 10.7346 26.7001 10.7345 26.7001 10.7344C26.7001 10.7343 26.7001 10.7343 26.7001 10.7342C26.7001 10.7341 26.7001 10.734 26.7001 10.7339C26.7001 10.7338 26.7001 10.7337 26.7001 10.7336C26.7001 10.7335 26.7001 10.7335 26.7001 10.7334C26.7001 10.7333 26.7001 10.7332 26.7001 10.7331C26.7001 10.733 26.7001 10.7329 26.7001 10.7328C26.7001 10.7328 26.7001 10.7327 26.7001 10.7326C26.7001 10.7325 26.7001 10.7324 26.7001 10.7323C26.7001 10.7322 26.7001 10.7321 26.7001 10.7321C26.7001 10.732 26.7001 10.7319 26.7001 10.7318C26.7001 10.7317 26.7001 10.7316 26.7001 10.7315C26.7001 10.7315 26.7001 10.7314 26.7001 10.7313C26.7001 10.7312 26.7001 10.7311 26.7001 10.731C26.7001 10.7309 26.7001 10.7309 26.7001 10.7308C26.7001 10.7307 26.7001 10.7306 26.7001 10.7305C26.7001 10.7304 26.7001 10.7303 26.7001 10.7303C26.7001 10.7302 26.7001 10.7301 26.7001 10.73C26.7001 10.7299 26.7001 10.7298 26.7001 10.7298C26.7001 10.7297 26.7001 10.7296 26.7001 10.7295C26.7001 10.7294 26.7001 10.7293 26.7001 10.7293C26.7001 10.7292 26.7001 10.7291 26.7001 10.729C26.7001 10.7289 26.7001 10.7288 26.7001 10.7288C26.7001 10.7287 26.7001 10.7286 26.7001 10.7285C26.7001 10.7284 26.7001 10.7284 26.7001 10.7283C26.7001 10.7282 26.7001 10.7281 26.7001 10.728C26.7001 10.7279 26.7001 10.7279 26.7001 10.7278C26.7001 10.7277 26.7001 10.7276 26.7001 10.7275C26.7001 10.7275 26.7001 10.7274 26.7001 10.7273C26.7001 10.7272 26.7001 10.7271 26.7001 10.7271C26.7001 10.727 26.7001 10.7269 26.7001 10.7268C26.7001 10.7267 26.7001 10.7267 26.7001 10.7266C26.7001 10.7265 26.7001 10.7264 26.7001 10.7263C26.7001 10.7263 26.7001 10.7262 26.7001 10.7261C26.7001 10.726 26.7001 10.7259 26.7001 10.7259C26.7001 10.7258 26.7001 10.7257 26.7001 10.7256C26.7001 10.7256 26.7001 10.7255 26.7001 10.7254C26.7001 10.7253 26.7001 10.7252 26.7001 10.7252C26.7001 10.7251 26.7001 10.725 26.7001 10.7249C26.7001 10.7249 26.7001 10.7248 26.7001 10.7247C26.7001 10.7246 26.7001 10.7246 26.7001 10.7245C26.7001 10.7244 26.7001 10.7243 26.7001 10.7242C26.7001 10.7242 26.7001 10.7241 26.7001 10.724C26.7001 10.7239 26.7001 10.7239 26.7001 10.7238C26.7001 10.7237 26.7001 10.7236 26.7001 10.7236C26.7001 10.7235 26.7001 10.7234 26.7001 10.7233C26.7001 10.7233 26.7001 10.7232 26.7001 10.7231C26.7001 10.723 26.7001 10.723 26.7001 10.7229C26.7001 10.7228 26.7001 10.7227 26.7001 10.7227C26.7001 10.7226 26.7001 10.7225 26.7001 10.7225C26.7001 10.7224 26.7001 10.7223 26.7001 10.7222C26.7001 10.7222 26.7001 10.7221 26.7001 10.722C26.7001 10.7219 26.7001 10.7219 26.7001 10.7218C26.7001 10.7217 26.7001 10.7217 26.7001 10.7216C26.7001 10.7215 26.7001 10.7214 26.7001 10.7214C26.7001 10.7213 26.7001 10.7212 26.7001 10.7212C26.7001 10.7211 26.7001 10.721 26.7001 10.7209C26.7001 10.7209 26.7001 10.7208 26.7001 10.7207C26.7001 10.7207 26.7001 10.7206 26.7001 10.7205C26.7001 10.7205 26.7001 10.7204 26.7001 10.7203C26.7001 10.7203 26.7001 10.7202 26.7001 10.7201C26.7001 10.72 26.7001 10.72 26.7001 10.7199C26.7001 10.7198 26.7001 10.7198 26.7001 10.7197C26.7001 10.7196 26.7001 10.7196 26.7001 10.7195C26.7001 10.7194 26.7001 10.7194 26.7001 10.7193C26.7001 10.7192 26.7001 10.7192 26.7001 10.7191C26.7001 10.719 26.7001 10.719 26.7001 10.7189C26.7001 10.7188 26.7001 10.7188 26.7001 10.7187C26.7001 10.7186 26.7001 10.7186 26.7001 10.7185C26.7001 10.7184 26.7001 10.7184 26.7001 10.7183C26.7001 10.7182 26.7001 10.7182 26.7001 10.7181C26.7001 10.718 26.7001 10.718 26.7001 10.7179C26.7001 10.7178 26.7001 10.7178 26.7001 10.7177C26.7001 10.7177 26.7001 10.7176 26.7001 10.7175C26.7001 10.7175 26.7001 10.7174 26.7001 10.7173C26.7001 10.7173 26.7001 10.7172 26.7001 10.7171C26.7001 10.7171 26.7001 10.717 26.7001 10.717C26.7001 10.7169 26.7001 10.7168 26.7001 10.7168C26.7001 10.7167 26.7001 10.7167 26.7001 10.7166C26.7001 10.7165 26.7001 10.7165 26.7001 10.7164C26.7001 10.7163 26.7001 10.7163 26.7001 10.7162C26.7001 10.7162 26.7001 10.7161 26.7001 10.716C26.7001 10.716 26.7001 10.7159 26.7001 10.7159C26.7001 10.7158 26.7001 10.7157 26.7001 10.7157C26.7001 10.7156 26.7001 10.7156 26.7001 10.7155C26.7001 10.7154 26.7001 10.7154 26.7001 10.7153C26.7001 10.7153 26.7001 10.7152 26.7001 10.7152C26.7001 10.7151 26.7001 10.715 26.7001 10.715C26.7001 10.7149 26.7001 10.7149 26.7001 10.7148C26.7001 10.7148 26.7001 10.7147 26.7001 10.7146C26.7001 10.7146 26.7001 10.7145 26.7001 10.7145C26.7001 10.7144 26.7001 10.7144 26.7001 10.7143C26.7001 10.7142 26.7001 10.7142 26.7001 10.7141C26.7001 10.7141 26.7001 10.714 26.7001 10.714C26.7001 10.7139 26.7001 10.7139 26.7001 10.7138C26.7001 10.7137 26.7001 10.7137 26.7001 10.7136C26.7001 10.7136 26.7001 10.7135 26.7001 10.7135C26.7001 10.7134 26.7001 10.7134 26.7001 10.7133C26.7001 10.7133 26.7001 10.7132 26.7001 10.7132C26.7001 10.7131 26.7001 10.7131 26.7001 10.713C26.7001 10.713 26.7001 10.7129 26.7001 10.7128C26.7001 10.7128 26.7001 10.7127 26.7001 10.7127C26.7001 10.7126 26.7001 10.7126 26.7001 10.7125C26.7001 10.7125 26.7001 10.7124 26.7001 10.7124C26.7001 10.7123 26.7001 10.7123 26.7001 10.7122C26.7001 10.7122 26.7001 10.7121 26.7001 10.7121C26.7001 10.712 26.7001 10.712 26.7001 10.7119C26.7001 10.7119 26.7001 10.7118 26.7001 10.7118C26.7001 10.7117 26.7001 10.7117 26.7001 10.7117C26.7001 10.7116 26.7001 10.7116 26.7001 10.7115C26.7001 10.7115 26.7001 10.7114 26.7001 10.7114C26.7001 10.7113 26.7001 10.7113 26.7001 10.7112C26.7001 10.7112 26.7001 10.7111 26.7001 10.7111C26.7001 10.711 26.7001 10.711 26.7001 10.711C26.7001 10.7109 26.7001 10.7109 26.7001 10.7108C26.7001 10.7108 26.7001 10.7107 26.7001 10.7107C26.7001 10.7106 26.7001 10.7106 26.7001 10.7106C26.7001 10.7105 26.7001 10.7105 26.7001 10.7104C26.7001 10.7104 26.7001 10.7103 26.7001 10.7103C26.7001 10.7102 26.7001 10.7102 26.7001 10.7102C26.7001 10.7101 26.7001 10.7101 26.7001 10.71C26.7001 10.71 26.7001 10.71 26.7001 10.7099C26.7001 10.7099 26.7001 10.7098 26.7001 10.7098C26.7001 10.7097 26.7001 10.7097 26.7001 10.7097C26.7001 10.7096 26.7001 10.7096 26.7001 10.7095C26.7001 10.7095 26.7001 10.7095 26.7001 10.7094C26.7001 10.7094 26.7001 10.7093 26.7001 10.7093C26.7001 10.7093 26.7001 10.7092 26.7001 10.7092C26.7001 10.7092 26.7001 10.7091 26.7001 10.7091C26.7001 10.709 26.7001 10.709 26.7001 10.709C26.7001 10.7089 26.7001 10.7089 26.7001 10.7089C26.7001 10.7088 26.7001 10.7088 26.7001 10.7087C26.7001 10.7087 26.7001 10.7087 26.7001 10.7086C26.7001 10.7086 26.7001 10.7086 26.7001 10.7085C26.7001 10.7085 26.7001 10.7085 26.7001 10.7084C26.7001 10.7084 26.7001 10.7084 26.7001 10.7083C26.7001 10.7083 26.7001 10.7083 26.7001 10.7082C26.7001 10.7082 26.7001 10.7082 26.7001 10.7081C26.7001 10.7081 26.7001 10.7081 26.7001 10.708C26.7001 10.708 26.7001 10.708 26.7001 10.7079C26.7001 10.7079 26.7001 10.7079 26.7001 10.7078C26.7001 10.7078 26.7001 10.7078 26.7001 10.7077C26.7001 10.7077 26.7001 10.7077 26.7001 10.7076C26.7001 10.7076 26.7001 10.7076 26.7001 10.7076C26.7001 10.7075 26.7001 10.7075 26.7001 10.7075C26.7001 10.7074 26.7001 10.7074 26.7001 10.7074C26.7001 10.7074 26.7001 10.7073 26.7001 10.7073C26.7001 10.7073 26.7001 10.7072 26.7001 10.7072C26.7001 10.7072 26.7001 10.7072 26.7001 10.7071C26.7001 10.7071 26.7001 10.7071 26.7001 10.707C26.7001 10.707 26.7001 10.707 26.7001 10.707C26.7001 10.7069 26.7001 10.7069 26.7001 10.7069C26.7001 10.7069 26.7001 10.7068 26.7001 10.7068C26.7001 10.7068 26.7001 10.7068 26.7001 10.7067C26.7001 10.7067 26.7001 10.7067 26.7001 10.7067C26.7001 10.7066 26.7001 10.7066 26.7001 10.7066C26.7001 10.7066 26.7001 10.7066 26.7001 10.7065C26.7001 10.7065 26.7001 10.7065 26.7001 10.7065C26.7001 10.7064 26.7001 10.7064 26.7001 10.7064C26.7001 10.7064 26.7001 10.7064 26.7001 10.7063C26.7001 10.7063 26.7001 10.7063 26.7001 10.7063C26.7001 10.7063 26.7001 10.7062 26.7001 10.7062C26.7001 10.7062 26.7001 10.7062 26.7001 10.7062C26.7001 10.7061 26.7001 10.7061 26.7001 10.7061C26.7001 10.7061 26.7001 10.7061 26.7001 10.706C26.7001 10.706 26.7001 10.706 26.7001 10.706C26.7001 10.706 26.7001 10.706 26.7001 10.7059C26.7001 10.7059 26.7001 10.7059 26.7001 10.7059C26.7001 10.7059 26.7001 10.7059 26.7001 10.7058C26.7001 10.7058 26.7001 10.7058 26.7001 10.7058C26.7001 10.7058 26.7001 10.7058 26.7001 10.7058C26.7001 10.7057 26.7001 10.7057 26.7001 10.7057C26.7001 10.7057 26.7001 10.7057 26.7001 10.7057C26.7001 10.7057 26.7001 10.7057 26.7001 10.7056C26.7001 10.7056 26.7001 10.7056 26.7001 10.7056C26.7001 10.7056 26.7001 10.7056 26.7001 10.7056C26.7001 10.7056 26.7001 10.7055 26.7001 10.7055C26.7001 10.7055 26.7001 10.7055 26.7001 10.7055C26.7001 10.7055 26.7001 10.7055 26.7001 10.7055C26.7001 10.7055 26.7001 10.7055 26.7001 10.7054C26.7001 10.7054 26.7001 10.7054 26.7001 10.7054C26.7001 10.7054 26.7001 10.7054 26.7001 10.7054C26.7001 10.7054 26.7001 10.7054 26.7001 10.7054C26.7001 10.7054 26.7001 10.7054 26.7001 10.7054C26.7001 10.7054 26.7001 10.7053 26.7001 10.7053C26.7001 10.7053 26.7001 10.7053 26.7001 10.7053C26.7001 10.7053 26.7001 10.7053 26.7001 10.7053C26.7001 10.7053 26.7001 10.7053 26.7001 10.7053C26.7001 10.7053 26.7001 10.7053 26.7001 10.7053C26.7001 10.7053 26.7001 10.7053 26.7001 10.7053C26.7001 10.7053 26.7001 10.7053 26.7001 10.7053C26.7001 10.7053 26.7001 10.7053 26.7001 10.7053C26.7001 10.7053 26.7001 10.7053 26.7001 10.7053C26.7001 10.7053 26.7001 10.7053 28.7001 10.7053ZM30.5211 10.0047L32.8561 15.1455L29.2141 16.7997L26.8792 11.6588L30.5211 10.0047ZM31.7489 14.1043L38.0021 16.4932L36.5747 20.2298L30.3214 17.8409L31.7489 14.1043ZM38.0064 16.4948C38.8548 16.8211 39.5624 17.4338 40.0069 18.2267L36.5176 20.1824C36.5293 20.2034 36.548 20.2196 36.5704 20.2282L38.0064 16.4948ZM40.0069 18.2267C40.4513 19.0196 40.6046 19.943 40.4402 20.837L36.5061 20.1135C36.5018 20.1371 36.5058 20.1615 36.5176 20.1824L40.0069 18.2267ZM40.4402 20.837C40.3756 21.1881 40.2373 21.4687 40.166 21.6053C40.0784 21.773 39.9796 21.9304 39.8897 22.0642C39.7088 22.3334 39.4934 22.6116 39.2915 22.8575C38.9205 23.3094 38.4291 23.8527 38.1065 24.1223L35.5414 21.0531C35.5207 21.0704 35.5874 21.0116 35.7464 20.84C35.8841 20.6914 36.0459 20.5069 36.2002 20.3191C36.3581 20.1267 36.4864 19.9571 36.5692 19.8338C36.6111 19.7714 36.6242 19.7463 36.6205 19.7534C36.618 19.758 36.6034 19.7861 36.5847 19.8336C36.5681 19.8757 36.5318 19.9741 36.5061 20.1135L40.4402 20.837ZM38.1065 24.1223C37.4091 24.7052 36.5298 25.026 35.6208 25.0291L35.607 21.0292C35.583 21.0293 35.5598 21.0377 35.5414 21.0531L38.1065 24.1223ZM35.6042 25.0291C35.1323 25.0269 34.6646 24.9392 34.2239 24.7703L35.6549 21.0351C35.6449 21.0312 35.6343 21.0292 35.6235 21.0292L35.6042 25.0291ZM34.2154 24.767L26.9784 21.9566L28.4264 18.2279L35.6634 21.0383L34.2154 24.767ZM26.992 21.9618C26.3728 21.7265 25.8241 21.3367 25.398 20.8295L28.4609 18.2568C28.448 18.2415 28.4315 18.2297 28.4128 18.2226L26.992 21.9618ZM25.398 20.8295C24.972 20.3223 24.6828 19.7146 24.5579 19.064L28.4862 18.3099C28.4824 18.2903 28.4737 18.272 28.4609 18.2568L25.398 20.8295ZM24.5603 19.0761L24.223 17.3758L28.1466 16.5975L28.4838 18.2979L24.5603 19.0761ZM27.9724 17.8836C27.3072 19.2092 26.5633 20.4937 25.7445 21.7303L22.4093 19.5221C23.1399 18.4187 23.8037 17.2725 24.3972 16.0897L27.9724 17.8836ZM24.7257 18.7344L32.9205 21.5448L31.6229 25.3285L23.4281 22.518L24.7257 18.7344ZM33.0696 21.6027C33.9374 21.9802 34.67 22.6125 35.1703 23.4157L31.7752 25.5307C31.7034 25.4155 31.5983 25.3248 31.4739 25.2706L33.0696 21.6027ZM35.1703 23.4157C35.6707 24.219 35.9153 25.1553 35.8716 26.1006L31.8758 25.9159C31.8821 25.7803 31.847 25.646 31.7752 25.5307L35.1703 23.4157ZM35.8608 25.7819L37.0693 36.3914L33.095 36.8441L31.8865 26.2346L35.8608 25.7819ZM37.0496 36.2584C37.1561 36.8413 37.1438 37.4396 37.0135 38.0176L33.1114 37.1381C33.1234 37.0852 33.1245 37.0305 33.1147 36.9771L37.0496 36.2584ZM37.0135 38.0176C36.8833 38.5956 36.6377 39.1413 36.2915 39.6222L33.0454 37.2849C33.077 37.2409 33.0995 37.191 33.1114 37.1381L37.0135 38.0176ZM36.2915 39.6222C35.9453 40.103 35.5056 40.509 34.9988 40.8159L32.927 37.3942C32.9734 37.3661 33.0137 37.329 33.0454 37.2849L36.2915 39.6222ZM34.9988 40.8159C34.492 41.1227 33.9284 41.3242 33.3419 41.4081L32.7754 37.4484C32.8291 37.4407 32.8807 37.4223 32.927 37.3942L34.9988 40.8159ZM33.2459 41.4195C32.6695 41.4736 31.8936 41.4124 31.235 41.301C30.8873 41.2422 30.5087 41.159 30.1497 41.043C29.8329 40.9407 29.3499 40.7571 28.9303 40.4173L31.448 37.309C31.3967 37.2675 31.3556 37.241 31.3322 37.2269C31.3083 37.2125 31.294 37.2058 31.2928 37.2052C31.2926 37.2051 31.3189 37.2172 31.3793 37.2367C31.5024 37.2765 31.6822 37.3198 31.902 37.357C32.1173 37.3934 32.3374 37.4182 32.5292 37.4306C32.6242 37.4368 32.7052 37.4394 32.7694 37.4396C32.8012 37.4397 32.8263 37.4392 32.8449 37.4385C32.8639 37.4377 32.8723 37.4369 32.8714 37.437L33.2459 41.4195ZM28.9303 40.4173C27.9986 39.6626 27.3996 38.5731 27.2615 37.3821L31.2349 36.9214C31.2525 37.0735 31.329 37.2127 31.448 37.309L28.9303 40.4173ZM27.2586 37.3555L26.303 28.0248L30.2822 27.6173L31.2378 36.948L27.2586 37.3555ZM27.8549 29.7725L16.5147 27.229L17.3901 23.326L28.7303 25.8695L27.8549 29.7725ZM16.5327 27.233C15.3412 26.9773 14.2911 26.2789 13.5946 25.2788L16.877 22.9928C16.9944 23.1613 17.1713 23.279 17.3721 23.3221L16.5327 27.233ZM13.5946 25.2788C12.8981 24.2787 12.6072 23.0516 12.7806 21.8453L16.7399 22.4143C16.7107 22.6176 16.7597 22.8243 16.877 22.9928L13.5946 25.2788Z" fill="#333333" mask="url(#path-2-inside-1)"/>
<path d="M9.27409 37.1481C11.1675 36.9074 13.0466 36.5722 14.9036 36.1439C17.617 36.0684 19.79 35.6472 21.4789 36.727C23.1678 37.8068 20.7808 38.6922 22.6048 39.5668C24.4288 40.4414 19.4748 41.3052 17.2005 40.8949C14.9261 40.4846 15.0162 39.2968 11.6497 38.5302C8.28329 37.7636 6.70703 37.4396 9.27409 37.1481Z" stroke="#333333" stroke-width="2"/>
<path d="M18.8356 28.8048L18.8347 28.8051L18.8356 28.8048ZM18.8356 28.8048L18.8561 28.7977M18.8356 28.8048L18.8561 28.7977M18.8561 28.7977L18.8561 28.7977L18.8561 28.7977Z" stroke="#333333" stroke-width="2"/>
<mask id="path-6-inside-2" fill="white">
<path d="M16.7556 26.5706C16.842 26.6059 16.9204 26.6581 16.9863 26.7241C17.0523 26.79 17.1044 26.8685 17.1397 26.9548C17.1751 27.0411 17.1928 27.1336 17.192 27.2269C17.1912 27.3201 17.1719 27.4123 17.1351 27.498L14.6618 33.119C14.607 33.2446 14.5166 33.3515 14.4017 33.4264C14.2868 33.5014 14.1526 33.541 14.0154 33.5405C13.9229 33.5616 13.8269 33.5616 13.7344 33.5405C13.6481 33.5054 13.5697 33.4532 13.5042 33.3869C13.4387 33.3206 13.3872 33.2418 13.3531 33.1551C13.3189 33.0683 13.3027 32.9756 13.3055 32.8824C13.3082 32.7893 13.3298 32.6976 13.369 32.6131L15.8282 26.9921C15.8576 26.9009 15.9057 26.8167 15.9695 26.7451C16.0333 26.6735 16.1114 26.616 16.1987 26.5763C16.286 26.5366 16.3807 26.5156 16.4766 26.5146C16.5725 26.5136 16.6675 26.5327 16.7556 26.5706Z"/>
</mask>
<path d="M16.7556 26.5706L15.9979 28.4215L15.9817 28.4148L15.9656 28.4079L16.7556 26.5706ZM17.1351 27.498L18.9728 28.2871L18.9693 28.2953L18.9657 28.3035L17.1351 27.498ZM14.6618 33.119L12.8288 32.319L12.8312 32.3135L14.6618 33.119ZM14.0154 33.5405L13.571 31.5905L13.7938 31.5398L14.0224 31.5405L14.0154 33.5405ZM13.7344 33.5405L13.2899 35.4905L13.1316 35.4544L12.9811 35.3933L13.7344 33.5405ZM13.369 32.6131L15.2013 33.4147L15.1927 33.4346L15.1835 33.4542L13.369 32.6131ZM15.8282 26.9921L17.732 27.605L17.701 27.7012L17.6605 27.7938L15.8282 26.9921ZM17.5134 24.7197C17.8454 24.8556 18.1471 25.0563 18.4007 25.31L15.5719 28.1381C15.6937 28.2599 15.8385 28.3562 15.9979 28.4215L17.5134 24.7197ZM18.4007 25.31C18.6544 25.5638 18.855 25.8655 18.9908 26.1975L15.2887 27.712C15.3539 27.8715 15.4502 28.0163 15.5719 28.1381L18.4007 25.31ZM18.9908 26.1975C19.1267 26.5296 19.1951 26.8854 19.192 27.2441L15.1921 27.2096C15.1906 27.3818 15.2234 27.5526 15.2887 27.712L18.9908 26.1975ZM19.192 27.2441C19.1889 27.6029 19.1144 27.9575 18.9728 28.2871L15.2973 26.7089C15.2294 26.8672 15.1936 27.0374 15.1921 27.2096L19.192 27.2441ZM18.9657 28.3035L16.4925 33.9244L12.8312 32.3135L15.3044 26.6926L18.9657 28.3035ZM16.4949 33.919C16.2839 34.4024 15.9361 34.8135 15.4942 35.1017L13.3092 31.7512C13.0971 31.8896 12.9301 32.0869 12.8288 32.319L16.4949 33.919ZM15.4942 35.1017C15.0524 35.3898 14.5359 35.5424 14.0085 35.5405L14.0224 31.5405C13.7692 31.5397 13.5213 31.6129 13.3092 31.7512L15.4942 35.1017ZM14.4599 35.4905C14.0748 35.5783 13.675 35.5783 13.2899 35.4905L14.1788 31.5905C13.9788 31.5449 13.771 31.5449 13.571 31.5905L14.4599 35.4905ZM12.9811 35.3933C12.644 35.2562 12.3382 35.0521 12.0823 34.7934L14.9261 31.9804C14.8013 31.8542 14.6521 31.7547 14.4877 31.6878L12.9811 35.3933ZM12.0823 34.7934C11.8264 34.5347 11.6257 34.2267 11.4923 33.8881L15.2139 32.422C15.1488 32.2568 15.0509 32.1066 14.9261 31.9804L12.0823 34.7934ZM11.4923 33.8881C11.3589 33.5495 11.2956 33.1874 11.3063 32.8236L15.3046 32.9412C15.3098 32.7638 15.279 32.5872 15.2139 32.422L11.4923 33.8881ZM11.3063 32.8236C11.317 32.4599 11.4015 32.1021 11.5545 31.7719L15.1835 33.4542C15.2582 33.2932 15.2994 33.1187 15.3046 32.9412L11.3063 32.8236ZM11.5367 31.8114L13.9959 26.1905L17.6605 27.7938L15.2013 33.4147L11.5367 31.8114ZM13.9244 26.3793C14.0391 26.0228 14.2271 25.6942 14.4762 25.4146L17.4628 28.0755C17.5843 27.9392 17.676 27.7789 17.732 27.605L13.9244 26.3793ZM14.4762 25.4146C14.7254 25.135 15.0302 24.9105 15.3711 24.7556L17.0263 28.397C17.1926 28.3214 17.3413 28.2119 17.4628 28.0755L14.4762 25.4146ZM15.3711 24.7556C15.712 24.6006 16.0816 24.5186 16.4561 24.5147L16.4971 28.5145C16.6798 28.5126 16.86 28.4726 17.0263 28.397L15.3711 24.7556ZM16.4561 24.5147C16.8305 24.5109 17.2017 24.5853 17.5457 24.7333L15.9656 28.4079C16.1334 28.4801 16.3144 28.5164 16.4971 28.5145L16.4561 24.5147Z" fill="#333333" mask="url(#path-6-inside-2)"/>
</svg>
