<svg width="48" height="48" viewBox="0 0 48 48" fill="none" xmlns="http://www.w3.org/2000/svg">
<path fill-rule="evenodd" clip-rule="evenodd" d="M16.6139 7.45047C16.6234 7.40706 16.6336 7.35846 16.6455 7.30183C16.6604 7.23105 16.6779 7.14772 16.7001 7.04627C16.8036 6.57247 16.9736 5.87993 17.3256 5.20856C17.6836 4.52572 18.2504 3.82618 19.1573 3.39922C20.063 2.97285 21.1863 2.87562 22.551 3.16758C22.8638 3.2345 23.2807 3.30199 23.7694 3.3811C25.2713 3.62423 27.452 3.97725 29.3789 4.76169C32.0293 5.84061 34.5566 7.85483 34.8312 11.7402C35.0461 14.7816 35.0587 16.4423 34.8521 17.6094C34.6753 18.6077 34.3261 19.2568 33.9503 19.9553C33.867 20.1102 33.7823 20.2676 33.6979 20.4317C33.632 20.56 33.4201 20.9004 32.9595 20.9836C32.5118 21.0645 32.2001 20.8329 32.1013 20.7491C31.9086 20.5857 31.8031 20.3747 31.7694 20.3073L31.7672 20.3029C31.6666 20.1021 31.5676 19.8291 31.4772 19.5566C31.2888 18.988 31.0676 18.2009 30.8596 17.4203C30.6503 16.6344 30.4493 15.8352 30.3008 15.2337L30.2565 15.0536L30.1747 15.0559C29.5602 15.0707 28.6884 15.0449 27.6245 14.8877C25.5597 14.5825 22.7769 13.783 19.7563 11.8352C19.5007 11.9045 19.1619 12.1366 18.749 12.7109C18.2373 13.4227 17.7809 14.4375 17.3979 15.5301C17.0197 16.6093 16.7341 17.7026 16.5425 18.5317C16.4471 18.9447 16.3758 19.2887 16.3285 19.5282C16.3049 19.6478 16.2874 19.7412 16.2759 19.8038L16.2632 19.8741L16.2602 19.8908L16.2596 19.8944L15.8022 22.5541L14.416 20.2389L15.274 19.7252C14.416 20.2389 14.4158 20.2385 14.4155 20.238L14.4148 20.2369L14.4133 20.2343L14.4091 20.2272L14.3965 20.2057C14.3864 20.1881 14.3727 20.1641 14.356 20.1339C14.3225 20.0735 14.2767 19.9883 14.2221 19.8804C14.113 19.6647 13.9681 19.3569 13.8164 18.9734C13.5142 18.2097 13.1778 17.1284 13.0515 15.8676C12.7999 13.3542 13.3963 10.1599 16.6139 7.45047ZM15.1019 16.1404C15.078 15.9866 15.0577 15.8291 15.0416 15.6684C14.8408 13.6625 15.2883 11.1243 18.0096 8.89099C18.2637 8.71764 18.3741 8.47942 18.4002 8.42318L18.4023 8.41862C18.4617 8.29136 18.4983 8.16165 18.5205 8.07644C18.5512 7.95819 18.5849 7.79882 18.6164 7.64924C18.6294 7.58772 18.6421 7.52776 18.654 7.4731C18.7493 7.03706 18.8745 6.56148 19.0969 6.13732C19.3133 5.72464 19.6003 5.40124 20.0092 5.20874C20.4193 5.01565 21.0742 4.89689 22.1326 5.12332C22.588 5.22075 23.1104 5.30543 23.6779 5.3974C25.1529 5.63648 26.9316 5.92476 28.6248 6.61408C30.8732 7.52935 32.6351 9.03612 32.8361 11.8812C33.0519 14.9342 33.0403 16.3592 32.8847 17.2494C32.8539 17.136 32.8231 17.0212 32.7923 16.9056C32.5873 16.1359 32.3894 15.3496 32.2425 14.7544C32.1692 14.4572 32.1087 14.2083 32.0666 14.0339L32.018 13.8316L32.0013 13.7619C32.0013 13.7618 32.0011 13.7609 31.303 13.9266L32.0011 13.7609L31.7864 12.8565L30.8725 13.0041L30.8692 13.0045L30.8416 13.0083C30.8139 13.0119 30.768 13.0174 30.7048 13.0235C30.5784 13.0357 30.383 13.0502 30.1264 13.0564C29.613 13.0689 28.8561 13.048 27.9169 12.9092C26.0415 12.632 23.4331 11.884 20.5761 9.9813L20.3507 9.83119L20.0804 9.81532C18.7552 9.73753 17.7773 10.6363 17.1251 11.5435C16.4482 12.4851 15.9166 13.7099 15.5105 14.8686C15.3601 15.2977 15.2239 15.7265 15.1019 16.1404ZM33.5554 19.4072C33.5696 19.4355 33.5699 19.4305 33.5549 19.4061L33.5554 19.4072Z" fill="#333333"/>
<path fill-rule="evenodd" clip-rule="evenodd" d="M18.1254 28.6282C17.8971 28.1604 17.3814 27.9076 16.8786 28.0312C11.4745 29.3592 6 32.0671 6 36.1407V43H42V36.1407C42 32.0671 36.5255 29.3592 31.1214 28.0312C30.6186 27.9076 30.1029 28.1604 29.8746 28.6282L25.8105 28.6282C24.9267 28.6284 24.4744 28.6284 24.0322 28.6284H24.0153C23.5575 28.6283 23.1049 28.6283 22.1893 28.6285L18.1254 28.6282ZM25.8105 30.6282C24.9211 30.6284 24.471 30.6284 24.0313 30.6284H24.024C23.5658 30.6283 23.1162 30.6283 22.1898 30.6285L16.8758 30.6281L16.6456 30.1564C16.26 30.2604 15.8781 30.3712 15.5018 30.4885C15.4936 30.9058 15.5575 31.3658 15.715 31.8728C15.8088 31.8639 15.9039 31.8594 16 31.8594C17.6569 31.8594 19 33.2125 19 34.8816C19 36.5507 17.6569 37.9038 16 37.9038C14.3431 37.9038 13 36.5507 13 34.8816C13 34.04 13.3415 33.2787 13.8925 32.7307C13.7077 32.2028 13.5892 31.6868 13.5351 31.1852C12.4097 31.6369 11.3809 32.1524 10.5162 32.7244C8.69262 33.9307 8 35.0995 8 36.1407V41H40V36.1407C40 35.0995 39.3074 33.9307 37.4838 32.7244C36.6836 32.1951 35.7429 31.7141 34.7151 31.2873C34.7085 31.5208 34.69 31.7584 34.6597 32H34.9412C35.1715 32 35.3947 32.0795 35.5732 32.225L37.632 33.904C37.8649 34.094 38 34.3785 38 34.679V39.0444C38 39.5967 37.5523 40.0444 37 40.0444H34.9412V38.0444H36V35.1539L34.5851 34H32.4149L31 35.1539V38.0444H32.0588V40.0444H30C29.4477 40.0444 29 39.5967 29 39.0444V34.679C29 34.3785 29.1351 34.094 29.368 33.904L31.4268 32.225C31.6053 32.0795 31.8285 32 32.0588 32H32.6386C32.728 31.4706 32.7389 30.9881 32.6867 30.548C32.2497 30.4085 31.8045 30.2778 31.3544 30.1564L31.1242 30.6282L25.8105 30.6282ZM17 34.8816C17 35.4601 16.5384 35.9038 16 35.9038C15.4616 35.9038 15 35.4601 15 34.8816C15 34.3031 15.4616 33.8594 16 33.8594C16.5384 33.8594 17 34.3031 17 34.8816Z" fill="#333333"/>
</svg>
