<svg width="48" height="48" viewBox="0 0 48 48" fill="none" xmlns="http://www.w3.org/2000/svg">
<path d="M31.0281 13.992C31.0281 13.992 32.5622 20.4539 32.8086 19.9746C33.8337 17.9804 34.2653 17.9181 33.8337 11.8108C33.358 5.08032 25.2552 4.76882 22.3418 4.14553C17.4956 3.10877 17.8098 7.94691 17.4321 8.07164C11.2815 13.0573 15.274 19.7253 15.274 19.7253C15.274 19.7253 16.8386 10.6268 20.0218 10.8137C26.0105 14.8022 31.0281 13.992 31.0281 13.992Z" stroke="#333333" stroke-width="2"/>
<path fill-rule="evenodd" clip-rule="evenodd" d="M18.1254 28.6282C17.8971 28.1604 17.3814 27.9076 16.8786 28.0312C11.4745 29.3592 6 32.0671 6 36.1407V41V43H8H40H42V41V36.1407C42 32.0671 36.5255 29.3592 31.1214 28.0312C30.6186 27.9076 30.1029 28.1604 29.8746 28.6282L25.8105 28.6282C24.9218 28.6284 24.4693 28.6284 24.0248 28.6284C23.5637 28.6283 23.1112 28.6283 22.1893 28.6285L18.1254 28.6282ZM25.8109 30.6282C25.8107 30.6282 25.8106 30.6282 25.8105 30.6282C24.9162 30.6284 24.466 30.6284 24.024 30.6284C23.5658 30.6283 23.1162 30.6283 22.1898 30.6285L22.1892 30.6285L18.1252 30.6282L16.8758 30.6281L16.6456 30.1564C14.3233 30.7829 12.1328 31.655 10.5162 32.7244C8.69262 33.9307 8 35.0995 8 36.1407V41H40V36.1407C40 35.0995 39.3074 33.9307 37.4838 32.7244C35.8672 31.655 33.6767 30.7829 31.3544 30.1564L31.1242 30.6282L29.8746 30.6282L25.8109 30.6282Z" fill="#333333"/>
<path fill-rule="evenodd" clip-rule="evenodd" d="M16 35.9038C16.5384 35.9038 17 35.4601 17 34.8816C17 34.3031 16.5384 33.8594 16 33.8594C15.4616 33.8594 15 34.3031 15 34.8816C15 35.4601 15.4616 35.9038 16 35.9038ZM16 37.9038C17.6569 37.9038 19 36.5507 19 34.8816C19 33.2125 17.6569 31.8594 16 31.8594C14.3431 31.8594 13 33.2125 13 34.8816C13 36.5507 14.3431 37.9038 16 37.9038Z" fill="#333333"/>
<path d="M15.6354 29.6122C15.4178 30.3466 15.4391 31.2505 15.8901 32.3611L14.0371 33.1136C13.5935 32.0213 13.4293 30.9768 13.5293 30.0004C13.5627 29.6737 13.6258 29.3546 13.7178 29.0439L15.6354 29.6122Z" fill="#333333"/>
<path d="M32.5348 32.4965L34.476 32.9782C34.7266 31.9684 34.7789 31.0193 34.65 30.14L32.4114 29.4789C32.743 30.2844 32.8379 31.2752 32.5348 32.4965Z" fill="#333333"/>
<path fill-rule="evenodd" clip-rule="evenodd" d="M31.4268 32.225C31.6053 32.0795 31.8285 32 32.0588 32H34.9412C35.1715 32 35.3947 32.0795 35.5732 32.225L37.632 33.904C37.8649 34.094 38 34.3785 38 34.679V39.0444C38 39.5967 37.5523 40.0444 37 40.0444H34.9412V38.0444H36V35.1539L34.5851 34H32.4149L31 35.1539V38.0444H32.0588V40.0444H30C29.4477 40.0444 29 39.5967 29 39.0444V34.679C29 34.3785 29.1351 34.094 29.368 33.904L31.4268 32.225Z" fill="#333333"/>
</svg>
