<svg width="48" height="48" viewBox="0 0 48 48" fill="none" xmlns="http://www.w3.org/2000/svg">
<path fill-rule="evenodd" clip-rule="evenodd" d="M32.3437 8.46302C30.431 5.45734 27.8806 4.13677 25.466 3.76169C23.0954 3.39345 20.8865 3.93858 19.5528 4.60543C17.3225 5.72056 15.446 7.76763 14.0096 10.2488C12.5679 12.739 11.5311 15.7303 11.0136 18.8355C11.0046 18.8898 11 18.9448 11 18.9999C11 22.0215 12.5837 23.9449 14.4951 25.063C16.3556 26.1514 18.5431 26.4999 20 26.4999C20.3924 26.4999 20.7485 26.2704 20.9106 25.9131C21.0728 25.5558 21.011 25.1367 20.7526 24.8414C19.4449 23.347 18.7826 21.9926 18.4873 20.7018C18.1934 19.4174 18.2465 18.1262 18.478 16.7147C18.8178 15.4934 19.3019 14.6746 19.8634 14.1132C20.4291 13.5474 21.1309 13.1853 21.9925 12.9699C23.6683 12.551 25.7818 12.7129 28.3443 12.9443C30.5392 17.8282 28.5241 22.9436 27.1721 24.939C26.9645 25.2454 26.9431 25.6414 27.1166 25.9684C27.29 26.2954 27.6299 26.4999 28 26.4999C33.6829 26.4999 35.768 23.1428 35.9939 21.1102C36.2196 19.0787 35.6131 16.5263 34.8471 14.2663C34.0691 11.9707 33.0712 9.82079 32.3823 8.52929C32.3703 8.50672 32.3574 8.48461 32.3437 8.46302ZM20.4472 6.39429C21.4468 5.89448 23.2379 5.43957 25.159 5.73799C27.0281 6.02833 29.0516 7.03368 30.6359 9.50475C31.28 10.7174 32.2212 12.7493 32.9529 14.9083C33.7036 17.1232 34.1804 19.3208 34.0061 20.8893C33.9137 21.7215 33.0267 23.793 29.7792 24.3565C31.1706 21.3825 32.3573 16.3786 29.8907 11.5452C29.7346 11.2394 29.4325 11.035 29.0905 11.0039L28.7408 10.972C26.1753 10.7372 23.6143 10.5029 21.5075 11.0296C20.3691 11.3142 19.3209 11.8272 18.4491 12.6989C17.5805 13.5676 16.9449 14.7347 16.5352 16.2367C16.5264 16.2692 16.5191 16.3022 16.5136 16.3354C16.2521 17.9042 16.1601 19.4976 16.5377 21.1479C16.7729 22.1759 17.1839 23.1986 17.8174 24.2335C17.0393 24.05 16.2309 23.7614 15.5049 23.3367C14.1005 22.5152 13.0269 21.2111 13.0005 19.0805C13.4875 16.2161 14.4448 13.4888 15.7404 11.2509C17.054 8.98204 18.6775 7.27916 20.4472 6.39429Z" fill="#333333"/>
<path fill-rule="evenodd" clip-rule="evenodd" d="M18.1254 28.6282C17.8971 28.1604 17.3814 27.9076 16.8786 28.0312C11.4745 29.3592 6 32.0671 6 36.1407V43H42V36.1407C42 32.0671 36.5255 29.3592 31.1214 28.0312C30.6186 27.9076 30.1029 28.1604 29.8746 28.6282L25.8105 28.6282C24.9219 28.6284 24.4694 28.6284 24.025 28.6284C23.5639 28.6283 23.1112 28.6283 22.1893 28.6285L18.1254 28.6282ZM25.8105 30.6282C24.9168 30.6284 24.4666 30.6284 24.0249 30.6284H24.0198C23.563 30.6283 23.1134 30.6283 22.1898 30.6285L16.8758 30.6281L16.6456 30.1564C16.26 30.2604 15.8781 30.3712 15.5018 30.4885C15.4936 30.9058 15.5575 31.3658 15.715 31.8728C15.8088 31.8639 15.9039 31.8594 16 31.8594C17.6569 31.8594 19 33.2125 19 34.8816C19 36.5507 17.6569 37.9038 16 37.9038C14.3431 37.9038 13 36.5507 13 34.8816C13 34.04 13.3415 33.2787 13.8925 32.7307C13.7077 32.2028 13.5892 31.6868 13.5351 31.1852C12.4097 31.6369 11.3809 32.1524 10.5162 32.7244C8.69262 33.9307 8 35.0995 8 36.1407V41H40V36.1407C40 35.0995 39.3074 33.9307 37.4838 32.7244C36.6836 32.1951 35.7429 31.7141 34.7151 31.2873C34.7085 31.5208 34.69 31.7584 34.6597 32H34.9412C35.1715 32 35.3947 32.0795 35.5732 32.225L37.632 33.904C37.8649 34.094 38 34.3785 38 34.679V39.0444C38 39.5967 37.5523 40.0444 37 40.0444H34.9412V38.0444H36V35.1539L34.5851 34H32.4149L31 35.1539V38.0444H32.0588V40.0444H30C29.4477 40.0444 29 39.5967 29 39.0444V34.679C29 34.3785 29.1351 34.094 29.368 33.904L31.4268 32.225C31.6053 32.0795 31.8285 32 32.0588 32H32.6386C32.728 31.4706 32.7389 30.9881 32.6867 30.548C32.2497 30.4085 31.8045 30.2778 31.3544 30.1564L31.1242 30.6282L25.8105 30.6282ZM16 35.9038C16.5384 35.9038 17 35.4601 17 34.8816C17 34.3031 16.5384 33.8594 16 33.8594C15.4616 33.8594 15 34.3031 15 34.8816C15 35.4601 15.4616 35.9038 16 35.9038Z" fill="#333333"/>
</svg>
