<svg width="48" height="48" viewBox="0 0 48 48" fill="none" xmlns="http://www.w3.org/2000/svg">
<path fill-rule="evenodd" clip-rule="evenodd" d="M33.2 16.0667C33.2 21.076 29.1427 25.1333 24.1333 25.1333C19.124 25.1333 15.0667 21.076 15.0667 16.0667C15.0667 11.0573 19.124 7 24.1333 7C29.1427 7 33.2 11.0573 33.2 16.0667ZM24.1333 23.1333C28.0381 23.1333 31.2 19.9714 31.2 16.0667C31.2 12.1619 28.0381 9 24.1333 9C20.2286 9 17.0667 12.1619 17.0667 16.0667C17.0667 19.9714 20.2286 23.1333 24.1333 23.1333Z" fill="#333333"/>
<path fill-rule="evenodd" clip-rule="evenodd" d="M18.1254 28.6282C17.8971 28.1604 17.3814 27.9076 16.8786 28.0312C11.4745 29.3592 6 32.0671 6 36.1407V43H42V36.1407C42 32.0671 36.5255 29.3592 31.1214 28.0312C30.6186 27.9076 30.1029 28.1604 29.8746 28.6282L25.8105 28.6282C24.9267 28.6284 24.4744 28.6284 24.0322 28.6284H24.0153C23.5575 28.6283 23.1049 28.6283 22.1893 28.6285L18.1254 28.6282ZM24.0313 30.6284H24.024C23.5658 30.6283 23.1162 30.6283 22.1898 30.6285L16.8758 30.6281L16.6456 30.1564C16.26 30.2604 15.8781 30.3712 15.5018 30.4885C15.4936 30.9058 15.5575 31.3658 15.715 31.8728C15.8088 31.8639 15.9039 31.8594 16 31.8594C17.6569 31.8594 19 33.2125 19 34.8816C19 36.5507 17.6569 37.9038 16 37.9038C14.3431 37.9038 13 36.5507 13 34.8816C13 34.04 13.3415 33.2787 13.8925 32.7307C13.7077 32.2028 13.5892 31.6868 13.5351 31.1852C12.4097 31.6369 11.3809 32.1524 10.5162 32.7244C8.69262 33.9307 8 35.0995 8 36.1407V41H40V36.1407C40 35.0995 39.3074 33.9307 37.4838 32.7244C36.6836 32.1951 35.7429 31.7141 34.7151 31.2873C34.7085 31.5208 34.69 31.7584 34.6597 32H34.9412C35.1715 32 35.3947 32.0795 35.5732 32.225L37.632 33.904C37.8649 34.094 38 34.3785 38 34.679V39.0444C38 39.5967 37.5523 40.0444 37 40.0444H34.9412V38.0444H36V35.1539L34.5851 34H32.4149L31 35.1539V38.0444H32.0588V40.0444H30C29.4477 40.0444 29 39.5967 29 39.0444V34.679C29 34.3785 29.1351 34.094 29.368 33.904L31.4268 32.225C31.6053 32.0795 31.8285 32 32.0588 32H32.6386C32.728 31.4706 32.7389 30.9881 32.6867 30.548C32.2497 30.4085 31.8045 30.2778 31.3544 30.1564L31.1242 30.6282L25.8105 30.6282C24.9211 30.6284 24.471 30.6284 24.0313 30.6284ZM17 34.8816C17 35.4601 16.5384 35.9038 16 35.9038C15.4616 35.9038 15 35.4601 15 34.8816C15 34.3031 15.4616 33.8594 16 33.8594C16.5384 33.8594 17 34.3031 17 34.8816Z" fill="#333333"/>
</svg>
