<svg width="48" height="48" viewBox="0 0 48 48" fill="none" xmlns="http://www.w3.org/2000/svg">
<path fill-rule="evenodd" clip-rule="evenodd" d="M17.4825 9.33976L17.4815 9.34197L17.4807 9.34372M15.7124 8.40862C15.7323 8.36978 15.7594 8.31882 15.7939 8.25738C15.8673 8.12675 15.9746 7.94802 16.1193 7.73735C16.4081 7.31696 16.8497 6.7631 17.4719 6.21016C18.7281 5.09377 20.7024 4 23.5572 4C26.4004 4 28.5513 5.08421 29.9798 6.15839C30.6929 6.69467 31.2307 7.23151 31.5931 7.63809C31.7747 7.84178 31.9133 8.014 32.009 8.13885C32.0568 8.20132 32.094 8.25206 32.1206 8.2891C32.1338 8.30763 32.1444 8.32274 32.1524 8.3342L32.1623 8.34862L32.1658 8.35372L32.1677 8.3566C32.168 8.357 32.1682 8.35738 31.3383 8.91525C32.1983 8.40486 32.1984 8.40504 32.1985 8.40524L32.1996 8.40722L32.2024 8.41182L32.2117 8.42771L32.2454 8.48563C32.2742 8.53563 32.3157 8.60816 32.368 8.70144C32.4725 8.88794 32.6204 9.15769 32.7971 9.49646C33.1501 10.1733 33.6204 11.1294 34.0912 12.2506C35.0217 14.4665 36 17.433 36 20.1864C36 23.3674 33.545 25.0695 31.4961 25.9286C30.4431 26.3701 29.4018 26.6348 28.6315 26.7895C28.2442 26.8673 27.9201 26.9182 27.6903 26.95C27.5752 26.9659 27.4835 26.9771 27.4189 26.9844C27.3866 26.9881 27.3611 26.9908 27.3428 26.9926L27.3208 26.9948L27.314 26.9955L27.3116 26.9957C27.3113 26.9957 27.31 26.9958 27.2189 26L27.31 26.9958C26.8841 27.0348 26.4806 26.7987 26.306 26.4083C26.1317 26.0185 26.2241 25.5612 26.5358 25.2696C26.5361 25.2694 26.5364 25.2691 26.5367 25.2688L26.545 25.2609C26.5536 25.2526 26.5682 25.2384 26.5882 25.2186C26.6281 25.1788 26.6895 25.1164 26.7677 25.0326C26.9243 24.8649 27.1475 24.6124 27.4021 24.285C27.9135 23.6274 28.5393 22.683 29.0108 21.5286C29.9211 19.3001 30.273 16.2751 28.0228 12.8919C27.8623 12.8921 27.6207 12.9147 27.2903 12.9734C26.5084 13.1125 25.4476 13.413 24.2773 13.8077C21.9388 14.5965 19.3338 15.7027 17.9671 16.4395C17.8406 16.5078 17.6006 16.7428 17.7246 17.7148C17.84 18.6193 18.2392 19.7695 18.7642 20.9524C19.2817 22.1187 19.8895 23.2468 20.3717 24.0885C20.6119 24.5079 20.8192 24.853 20.9658 25.0924C21.039 25.212 21.097 25.305 21.1363 25.3675L21.1807 25.4378L21.1915 25.4548L21.194 25.4586C21.194 25.4586 21.1939 25.4585 21.194 25.4586C21.4055 25.7876 21.4062 26.2105 21.195 26.5398C20.9838 26.8692 20.6 27.0451 20.2126 26.9901L20.3532 26C20.2126 26.9901 20.2129 26.9901 20.2126 26.9901L20.209 26.9895L20.2023 26.9886L20.18 26.9853C20.1612 26.9824 20.1347 26.9783 20.101 26.9729C20.0335 26.9621 19.937 26.9459 19.8156 26.9239C19.5731 26.8798 19.2301 26.8121 18.8199 26.7159C18.0032 26.5246 16.9019 26.2165 15.7902 25.7507C14.6875 25.2887 13.5165 24.6476 12.6079 23.7636C11.6843 22.8651 11 21.6792 11 20.1864C11 17.6155 12.2474 14.6127 13.3981 12.3607C13.9854 11.2112 14.5717 10.2121 15.011 9.50044C15.2309 9.14413 15.4147 8.85869 15.5444 8.66112C15.6092 8.56231 15.6606 8.4854 15.6962 8.43251L15.7124 8.40862ZM18.3186 24.5186C17.8798 23.7258 17.3797 22.7634 16.9361 21.7637C16.3883 20.5292 15.8935 19.1657 15.7407 17.9679C15.5965 16.8377 15.7142 15.3821 17.018 14.6791C18.512 13.8736 21.2278 12.7256 23.6381 11.9126C24.8422 11.5065 26.0127 11.1693 26.9401 11.0043C27.3964 10.9232 27.8512 10.8729 28.2437 10.8988C28.44 10.9118 28.6717 10.9467 28.8972 11.0392C29.1122 11.1274 29.3716 11.2903 29.5498 11.5799C32.3878 15.696 31.9907 19.5226 30.8623 22.2849C30.5269 23.106 30.1285 23.8315 29.7359 24.4445C30.0588 24.3423 30.3916 24.223 30.7228 24.0841C32.5645 23.3119 34 22.1072 34 20.1864C34 17.8381 33.1475 15.1691 32.2471 13.0249C31.8025 11.9659 31.3573 11.0608 31.0238 10.4214C30.8573 10.1021 30.719 9.85001 30.6233 9.67919C30.5754 9.59381 30.5383 9.52881 30.5135 9.48594L30.4955 9.45494M18.3186 24.5186C17.7679 24.3596 17.1635 24.1577 16.5631 23.9061C15.5775 23.4931 14.6602 22.97 14.0025 22.3301C13.3598 21.7048 13 21.0072 13 20.1864C13 18.1302 14.0412 15.4975 15.179 13.2707C15.736 12.1808 16.294 11.2296 16.7129 10.5509C16.9221 10.2121 17.0958 9.94229 17.2165 9.75844C17.2768 9.66654 17.3238 9.59619 17.3552 9.54949L17.3904 9.49747L17.3988 9.48528L17.4005 9.48273C17.4005 9.48279 17.4006 9.48266 17.4005 9.48273M31.3383 8.91525L32.1985 8.40524C32.1889 8.38913 32.1782 8.37214 32.1677 8.3566L31.3383 8.91525Z" fill="#333333"/>
<path fill-rule="evenodd" clip-rule="evenodd" d="M18.1254 28.6282C17.8971 28.1604 17.3814 27.9076 16.8786 28.0312C11.4745 29.3592 6 32.0671 6 36.1407V41V43H8H40H42V41V36.1407C42 32.0671 36.5255 29.3592 31.1214 28.0312C30.6186 27.9076 30.1029 28.1604 29.8746 28.6282L25.8105 28.6282C24.9218 28.6284 24.4693 28.6284 24.0248 28.6284C23.5637 28.6283 23.1112 28.6283 22.1893 28.6285L18.1254 28.6282ZM25.8109 30.6282C25.8107 30.6282 25.8106 30.6282 25.8105 30.6282C24.9162 30.6284 24.466 30.6284 24.024 30.6284C23.5658 30.6283 23.1162 30.6283 22.1898 30.6285L22.1892 30.6285L18.1252 30.6282L16.8758 30.6281L16.6456 30.1564C14.3233 30.7829 12.1328 31.655 10.5162 32.7244C8.69262 33.9307 8 35.0995 8 36.1407V41H40V36.1407C40 35.0995 39.3074 33.9307 37.4838 32.7244C35.8672 31.655 33.6767 30.7829 31.3544 30.1564L31.1242 30.6282L29.8746 30.6282L25.8109 30.6282Z" fill="#333333"/>
<path fill-rule="evenodd" clip-rule="evenodd" d="M16 35.9038C16.5384 35.9038 17 35.4601 17 34.8816C17 34.3031 16.5384 33.8594 16 33.8594C15.4616 33.8594 15 34.3031 15 34.8816C15 35.4601 15.4616 35.9038 16 35.9038ZM16 37.9038C17.6569 37.9038 19 36.5507 19 34.8816C19 33.2125 17.6569 31.8594 16 31.8594C14.3431 31.8594 13 33.2125 13 34.8816C13 36.5507 14.3431 37.9038 16 37.9038Z" fill="#333333"/>
<path d="M15.6354 29.6117C15.4178 30.3461 15.4391 31.25 15.8901 32.3606L14.0371 33.1131C13.5935 32.0208 13.4293 30.9763 13.5293 29.9999C13.5627 29.6732 13.6258 29.3541 13.7178 29.0435L15.6354 29.6117Z" fill="#333333"/>
<path d="M32.5348 32.496L34.476 32.9777C34.7266 31.9679 34.7789 31.0189 34.65 30.1395L32.4114 29.4784C32.743 30.284 32.8379 31.2747 32.5348 32.496Z" fill="#333333"/>
<path fill-rule="evenodd" clip-rule="evenodd" d="M31.4268 32.225C31.6053 32.0795 31.8285 32 32.0588 32H34.9412C35.1715 32 35.3947 32.0795 35.5732 32.225L37.632 33.904C37.8649 34.094 38 34.3785 38 34.679V39.0444C38 39.5967 37.5523 40.0444 37 40.0444H34.9412V38.0444H36V35.1539L34.5851 34H32.4149L31 35.1539V38.0444H32.0588V40.0444H30C29.4477 40.0444 29 39.5967 29 39.0444V34.679C29 34.3785 29.1351 34.094 29.368 33.904L31.4268 32.225Z" fill="#333333"/>
</svg>
