<svg width="48" height="48" viewBox="0 0 48 48" fill="none" xmlns="http://www.w3.org/2000/svg">
<path fill-rule="evenodd" clip-rule="evenodd" d="M14.1997 8.93087C14.1997 6.17752 16.532 4 19.2989 4C22.0657 4 24.398 6.17752 24.398 8.93087C24.398 11.6842 22.0657 13.8617 19.2989 13.8617C16.532 13.8617 14.1997 11.6842 14.1997 8.93087ZM19.2989 6C17.5567 6 16.1997 7.36026 16.1997 8.93087C16.1997 10.5015 17.5567 11.8617 19.2989 11.8617C21.041 11.8617 22.398 10.5015 22.398 8.93087C22.398 7.36026 21.041 6 19.2989 6Z" fill="#333333"/>
<path fill-rule="evenodd" clip-rule="evenodd" d="M32 30V19.758H26.4475V42.3432C26.4475 44.0156 25.0375 45.3087 23.3979 45.3087C21.7583 45.3087 20.3484 44.0156 20.3484 42.3432V33.5161H18.2492V42.3432C18.2492 44.0156 16.8393 45.3087 15.1997 45.3087C13.56 45.3087 12.1501 44.0156 12.1501 42.3432V28.5288C11.9194 28.4421 11.6883 28.3321 11.4652 28.2069C10.8815 27.8794 10.2526 27.3924 9.67298 26.7344C8.5028 25.4062 7.54199 23.3908 7.54199 20.6113C7.54199 18.367 8.5739 16.7108 9.74815 15.636C10.3316 15.102 10.9576 14.7032 11.5294 14.4346C12.076 14.1779 12.6589 14 13.1501 14H32V10C32 9.44772 32.4477 9 33 9C33.5523 9 34 9.44772 34 10V14H35.6953C37.2075 14 38.7449 15.0057 38.7449 16.7926C38.7449 18.4649 37.3349 19.758 35.6953 19.758H34V30C34 30.0334 33.9984 30.0665 33.9952 30.099C35.6087 30.4249 36.9406 31.5276 37.584 33C37.8516 33.6125 38 34.2889 38 35H28C28 34.2889 28.1484 33.6125 28.416 33C29.0594 31.5276 30.3913 30.4249 32.0048 30.099C32.0016 30.0665 32 30.0334 32 30ZM11.0985 17.1113C10.2505 17.8875 9.54199 19.0369 9.54199 20.6113C9.54199 22.8985 10.3216 24.4452 11.1737 25.4123C11.4997 25.7824 11.8378 26.0692 12.1501 26.2808V18.758H14.1501V42.3432C14.1501 42.8328 14.5848 43.3087 15.1997 43.3087C15.8146 43.3087 16.2492 42.8328 16.2492 42.3432V31.5161H22.3484V42.3432C22.3484 42.8328 22.783 43.3087 23.3979 43.3087C24.0128 43.3087 24.4475 42.8328 24.4475 42.3432V17.758H32V16H23V30H16V16H13.1501C13.0777 16 12.8028 16.0461 12.3796 16.2449C11.9818 16.4318 11.5262 16.7198 11.0985 17.1113ZM35.6953 16H34V17.758H35.6953C36.3102 17.758 36.7449 17.2822 36.7449 16.7926C36.7449 16.4175 36.4376 16 35.6953 16ZM21 19V16H18V19H21ZM30.7639 33C31.3132 32.3863 32.1115 32 33 32C33.8885 32 34.6868 32.3863 35.2361 33H30.7639Z" fill="#333333"/>
</svg>
