<svg width="48" height="48" viewBox="0 0 48 48" fill="none" xmlns="http://www.w3.org/2000/svg">
<path d="M19.2989 5C21.5534 5 23.398 6.76889 23.398 8.93087C23.398 11.0928 21.5534 12.8617 19.2989 12.8617C17.0443 12.8617 15.1997 11.0928 15.1997 8.93087C15.1997 6.76889 17.0443 5 19.2989 5Z" stroke="#333333" stroke-width="2"/>
<path d="M35.6953 18.758H25.4475V42.3432C25.4475 43.4242 24.5252 44.3087 23.3979 44.3087C22.2707 44.3087 21.3484 43.4242 21.3484 42.3432V32.5161H17.2492V42.3432C17.2492 43.4242 16.3269 44.3087 15.1997 44.3087C14.0724 44.3087 13.1501 43.4242 13.1501 42.3432V18.758V27.7355C12.0229 27.7355 8.54199 25.6779 8.54199 20.6113C8.54199 16.7926 12.0229 15 13.1501 15H35.6953C36.8225 15 37.7449 15.7116 37.7449 16.7926C37.7449 17.8736 36.8225 18.758 35.6953 18.758Z" stroke="#333333" stroke-width="2"/>
<rect x="16" y="19" width="7" height="11" fill="#333333"/>
<rect width="2" height="4" transform="matrix(1 0 0 -1 16 19)" fill="#333333"/>
<rect width="2" height="4" transform="matrix(1 0 0 -1 21 19)" fill="#333333"/>
<rect x="32" y="9" width="2" height="22" rx="1" fill="#333333"/>
<path d="M36.874 34H29.126C29.5701 32.2748 31.1362 31 33 31C34.8638 31 36.4299 32.2748 36.874 34Z" stroke="#333333" stroke-width="2"/>
</svg>
