<svg width="48" height="48" viewBox="0 0 48 48" fill="none" xmlns="http://www.w3.org/2000/svg">
<path fill-rule="evenodd" clip-rule="evenodd" d="M14.1033 5C14.1033 5.32064 14.053 5.62953 13.9598 5.91922C15.2371 6.82546 16.0705 8.31641 16.0705 10.0018C16.0705 10.5259 15.9899 11.0311 15.8404 11.5059H15.969C17.3474 11.5059 18.5974 12.3149 19.162 13.5723L23.384 22.976C23.8803 24.0815 23.5076 25.3564 22.5574 26.0342C23.9988 26.253 25.1033 27.4975 25.1033 29V43C25.1033 43.5523 24.6556 44 24.1033 44C23.551 44 23.1033 43.5523 23.1033 43V29C23.1033 28.4477 22.6556 28 22.1033 28C21.551 28 21.1033 28.4477 21.1033 29V29.6667C21.1033 30.219 20.6556 30.6667 20.1033 30.6667C19.7204 30.6667 19.3878 30.4515 19.2197 30.1355L20.4101 35.215H17.4825V42.868C17.4825 44.3193 16.2993 45.5026 14.848 45.5026C13.3967 45.5026 12.2134 44.3193 12.2134 42.868V35.216H9.94423V42.868C9.94423 44.3193 8.76096 45.5026 7.30966 45.5026C5.85835 45.5026 4.67508 44.3193 4.67508 42.868V35.215H1.83499L4.48324 23.9145C4.38876 23.8675 4.29594 23.8169 4.2056 23.7637C3.71986 23.4777 3.20295 23.0573 2.72943 22.4949C1.7725 21.3583 1 19.6506 1 17.3153C1 15.4124 1.83781 13.9666 2.79364 13.0117C3.26898 12.5368 3.78215 12.1735 4.257 11.9244C4.70074 11.6916 5.21315 11.5049 5.67508 11.5049H6.30003C6.15078 11.0304 6.07031 10.5255 6.07031 10.0018C6.07031 8.29281 6.92722 6.78374 8.23486 5.88149C8.14931 5.60277 8.10327 5.30676 8.10327 5C8.10327 3.34315 9.44642 2 11.1033 2C12.7601 2 14.1033 3.34315 14.1033 5ZM10.1033 5C10.1033 4.44772 10.551 4 11.1033 4C11.6556 4 12.1033 4.44772 12.1033 5C12.1033 5.0357 12.1014 5.07095 12.0978 5.10568C11.7662 5.03642 11.4225 5 11.0704 5C10.741 5 10.4191 5.03186 10.1075 5.09265C10.1047 5.06215 10.1033 5.03124 10.1033 5ZM8.07031 10.0018C8.07031 8.34355 9.4139 7 11.0704 7C12.7269 7 14.0705 8.34355 14.0705 10.0018C14.0705 10.6366 13.8735 11.2254 13.5375 11.7102L13.4041 11.8738C12.8584 12.5428 12.0308 12.9672 11.1033 12.9672C10.1754 12.9672 9.34752 12.5425 8.80182 11.873L8.50171 11.5049H8.47291C8.21689 11.0629 8.07031 10.5495 8.07031 10.0018ZM7.5014 13.5049H5.67508C5.67671 13.5049 5.67518 13.5052 5.67056 13.5061C5.63982 13.5122 5.4726 13.5452 5.18616 13.6954C4.88765 13.852 4.53823 14.0959 4.20718 14.4266C3.55023 15.0829 3 16.0424 3 17.3153C3 19.1833 3.60865 20.4339 4.25939 21.2068C4.48164 21.4707 4.70987 21.6803 4.92285 21.8406L4.92285 17.0195H6.92285V22.2519L6.92705 22.2519L6.92285 22.2699V22.2787H6.92077L4.35788 33.215H6.67508V42.868C6.67508 43.2147 6.96293 43.5026 7.30966 43.5026C7.65639 43.5026 7.94423 43.2147 7.94423 42.868V33.216H14.2134V42.868C14.2134 43.2147 14.5012 43.5026 14.848 43.5026C15.1947 43.5026 15.4825 43.2147 15.4825 42.868V33.215H17.8872L15.4825 22.9537V17.3704L17.3948 16.9608L20.6471 24.2048C20.7602 24.4567 21.0561 24.5692 21.3081 24.4561C21.56 24.343 21.6725 24.0471 21.5594 23.7952L17.3374 14.3915C17.0955 13.8526 16.5597 13.5059 15.969 13.5059H14.6384C13.7312 14.4302 12.4678 15.0036 11.0704 15.0036C9.67245 15.0036 8.40868 14.4298 7.5014 13.5049ZM20.5437 26.4367C19.8072 26.267 19.156 25.7666 18.8226 25.024L17.4825 22.0392V22.7225L19.1033 29.6385V29C19.1033 27.9143 19.68 26.9634 20.5437 26.4367Z" fill="#333333"/>
<path fill-rule="evenodd" clip-rule="evenodd" d="M28.042 10.0018C28.042 7.23979 30.2802 5 33.0421 5C35.8039 5 38.0421 7.23979 38.0421 10.0018C38.0421 10.5259 37.9616 11.0311 37.8121 11.5059H37.906C39.3946 11.5059 40.7202 12.4474 41.2106 13.8528L44.4637 23.1764C44.8315 24.2305 44.4521 25.3642 43.6042 26.0001C45.2474 26.0161 46.5744 27.3531 46.5744 29V43C46.5744 43.5523 46.1267 44 45.5744 44C45.0222 44 44.5744 43.5523 44.5744 43V29C44.5744 28.4477 44.1267 28 43.5744 28C43.0222 28 42.5744 28.4477 42.5744 29V29.6667C42.5744 30.219 42.1267 30.6667 41.5744 30.6667C41.0222 30.6667 40.5744 30.219 40.5744 29.6667V29C40.5744 27.9528 41.111 27.0309 41.9243 26.4942C40.9595 26.4245 40.0817 25.7949 39.7428 24.8236L39.5018 24.1327V42.868C39.5018 44.3193 38.3185 45.5026 36.8672 45.5026L36.8635 45.5025H36.8516L36.848 45.5026C35.3967 45.5026 34.2134 44.3193 34.2134 42.868V32.216H31.9635V42.868C31.9635 44.3193 30.7802 45.5026 29.3289 45.5026L29.3252 45.5025H29.3133L29.3097 45.5026C27.8584 45.5026 26.6751 44.3193 26.6751 42.868V24.0038C26.5178 23.9357 26.3637 23.8562 26.2165 23.7701C25.7299 23.4854 25.2116 23.0656 24.7365 22.5033C23.7764 21.3668 23 19.6565 23 17.3153C23 15.4124 23.8378 13.9666 24.7936 13.0117C25.269 12.5368 25.7821 12.1735 26.257 11.9244C26.7007 11.6916 27.2132 11.5049 27.6751 11.5049H28.2717C28.1225 11.0304 28.042 10.5255 28.042 10.0018ZM33.0421 7C31.3856 7 30.042 8.34355 30.042 10.0018C30.042 11.6601 31.3856 13.0036 33.0421 13.0036C34.6986 13.0036 36.0421 11.6601 36.0421 10.0018C36.0421 8.34355 34.6986 7 33.0421 7ZM29.4731 13.5049H27.6751C27.6767 13.5049 27.6752 13.5052 27.6706 13.5061C27.6398 13.5122 27.4726 13.5452 27.1862 13.6954C26.8876 13.852 26.5382 14.0959 26.2072 14.4266C25.5502 15.0829 25 16.0424 25 17.3153C25 19.1879 25.6116 20.4401 26.2643 21.2126C26.3997 21.3728 26.5372 21.5129 26.6721 21.634V17H28.6721V22.2402H28.6751V42.868C28.6751 43.2147 28.9629 43.5026 29.3097 43.5026L29.3133 43.5025L29.3252 43.5025L29.3289 43.5026C29.6756 43.5026 29.9635 43.2147 29.9635 42.868V30.216H36.2134V42.868C36.2134 43.2147 36.5012 43.5026 36.848 43.5026L36.8516 43.5025L36.8635 43.5025L36.8672 43.5026C37.2139 43.5026 37.5018 43.2147 37.5018 42.868V18.2311L39.4459 17.9017L41.6312 24.1647C41.7222 24.4254 42.0073 24.5631 42.268 24.4721C42.5287 24.3811 42.6663 24.096 42.5754 23.8353L39.3223 14.5117C39.1121 13.9094 38.5439 13.5059 37.906 13.5059H36.6101C35.7029 14.4302 34.4395 15.0036 33.0421 15.0036C31.6441 15.0036 30.3804 14.4298 29.4731 13.5049Z" fill="#333333"/>
</svg>
