<svg width="48" height="48" viewBox="0 0 48 48" fill="none" xmlns="http://www.w3.org/2000/svg">
<path d="M24 42C27.0013 42 29.8311 41.2654 32.3193 39.9663L33.0913 41.8191C30.3637 43.2135 27.2737 44 24 44C12.9543 44 4 35.0457 4 24C4 12.9543 12.9543 4 24 4C35.0457 4 44 12.9543 44 24C44 26.539 43.5269 28.9675 42.664 31.2022L40.6883 30.7581C41.5342 28.6714 42 26.3901 42 24C42 14.0589 33.9411 6 24 6C14.0589 6 6 14.0589 6 24C6 33.9411 14.0589 42 24 42Z" fill="#333333"/>
<path d="M32 34C32.5523 34 33 33.5523 33 33C33 32.4477 32.5523 32 32 32C31.4477 32 31 32.4477 31 33C31 33.5523 31.4477 34 32 34Z" fill="#333333"/>
<path d="M45 34C45 34.5523 44.5523 35 44 35C43.4477 35 43 34.5523 43 34C43 33.4477 43.4477 33 44 33C44.5523 33 45 33.4477 45 34Z" fill="#333333"/>
<path d="M43 37C43 37.5523 42.5523 38 42 38C41.4477 38 41 37.5523 41 37C41 36.4477 41.4477 36 42 36C42.5523 36 43 36.4477 43 37Z" fill="#333333"/>
<path d="M40 41C40.5523 41 41 40.5523 41 40C41 39.4477 40.5523 39 40 39C39.4477 39 39 39.4477 39 40C39 40.5523 39.4477 41 40 41Z" fill="#333333"/>
<path d="M38 45C38.5523 45 39 44.5523 39 44C39 43.4477 38.5523 43 38 43C37.4477 43 37 43.4477 37 44C37 44.5523 37.4477 45 38 45Z" fill="#333333"/>
<path d="M44 42C44.5523 42 45 41.5523 45 41C45 40.4477 44.5523 40 44 40C43.4477 40 43 40.4477 43 41C43 41.5523 43.4477 42 44 42Z" fill="#333333"/>
<path d="M35 37C35 37.5523 34.5523 38 34 38C33.4477 38 33 37.5523 33 37C33 36.4477 33.4477 36 34 36C34.5523 36 35 36.4477 35 37Z" fill="#333333"/>
<path d="M36 34C36.5523 34 37 33.5523 37 33C37 32.4477 36.5523 32 36 32C35.4477 32 35 32.4477 35 33C35 33.5523 35.4477 34 36 34Z" fill="#333333"/>
<path d="M41 34C41 34.5523 40.5523 35 40 35C39.4477 35 39 34.5523 39 34C39 33.4477 39.4477 33 40 33C40.5523 33 41 33.4477 41 34Z" fill="#333333"/>
<path d="M38 38C38.5523 38 39 37.5523 39 37C39 36.4477 38.5523 36 38 36C37.4477 36 37 36.4477 37 37C37 37.5523 37.4477 38 38 38Z" fill="#333333"/>
<path d="M37 41C37 41.5523 36.5523 42 36 42C35.4477 42 35 41.5523 35 41C35 40.4477 35.4477 40 36 40C36.5523 40 37 40.4477 37 41Z" fill="#333333"/>
<path d="M12.1055 18.5528C12.3525 18.0588 12.9532 17.8586 13.4472 18.1055L17.4472 20.1055C17.786 20.2749 18 20.6212 18 21C18 21.3787 17.786 21.725 17.4472 21.8944L13.4472 23.8944C12.9532 24.1414 12.3525 23.9412 12.1055 23.4472C11.8586 22.9532 12.0588 22.3525 12.5528 22.1055L14.7639 21L12.5528 19.8944C12.0588 19.6474 11.8586 19.0467 12.1055 18.5528Z" fill="#333333"/>
<path d="M34.5528 18.1055C35.0468 17.8586 35.6475 18.0588 35.8945 18.5528C36.1414 19.0467 35.9412 19.6474 35.4472 19.8944L33.2361 21L35.4472 22.1055C35.9412 22.3525 36.1414 22.9532 35.8945 23.4472C35.6475 23.9412 35.0468 24.1414 34.5528 23.8944L30.5528 21.8944C30.214 21.725 30 21.3787 30 21C30 20.6212 30.214 20.2749 30.5528 20.1055L34.5528 18.1055Z" fill="#333333"/>
<path d="M28 31C28 33.2091 26.433 35 24.5 35C22.567 35 21 33.2091 21 31C21 28.7909 22.567 27 24.5 27C26.433 27 28 28.7909 28 31Z" fill="#333333"/>
<path d="M17.7413 28.3288C17.3705 27.9194 16.7382 27.8881 16.3288 28.2588C15.9194 28.6295 15.8881 29.2619 16.2588 29.6712C16.5275 29.9681 16.8745 30.5414 16.9728 31.2083C17.0642 31.828 16.9507 32.5646 16.2588 33.3288C15.8881 33.7382 15.9194 34.3705 16.3288 34.7413C16.7382 35.112 17.3705 35.0806 17.7413 34.6712C18.8604 33.4354 19.1242 32.0887 18.9515 30.9167C18.7857 29.792 18.2271 28.8653 17.7413 28.3288Z" fill="#333333"/>
</svg>
