<svg width="48" height="48" viewBox="0 0 48 48" fill="none" xmlns="http://www.w3.org/2000/svg">
<path fill-rule="evenodd" clip-rule="evenodd" d="M32.3193 39.9663C29.8311 41.2654 27.0013 42 24 42C14.0589 42 6 33.9411 6 24C6 14.0589 14.0589 6 24 6C33.9411 6 42 14.0589 42 24C42 26.3901 41.5342 28.6714 40.6883 30.7581L42.664 31.2022C43.5269 28.9675 44 26.539 44 24C44 12.9543 35.0457 4 24 4C12.9543 4 4 12.9543 4 24C4 35.0457 12.9543 44 24 44C27.2737 44 30.3637 43.2135 33.0913 41.8191L32.3193 39.9663Z" fill="#333333"/>
<path fill-rule="evenodd" clip-rule="evenodd" d="M33 33C33 33.5523 32.5523 34 32 34C31.4477 34 31 33.5523 31 33C31 32.4477 31.4477 32 32 32C32.5523 32 33 32.4477 33 33ZM44 35C44.5523 35 45 34.5523 45 34C45 33.4477 44.5523 33 44 33C43.4477 33 43 33.4477 43 34C43 34.5523 43.4477 35 44 35ZM42 38C42.5523 38 43 37.5523 43 37C43 36.4477 42.5523 36 42 36C41.4477 36 41 36.4477 41 37C41 37.5523 41.4477 38 42 38ZM41 40C41 40.5523 40.5523 41 40 41C39.4477 41 39 40.5523 39 40C39 39.4477 39.4477 39 40 39C40.5523 39 41 39.4477 41 40ZM39 44C39 44.5523 38.5523 45 38 45C37.4477 45 37 44.5523 37 44C37 43.4477 37.4477 43 38 43C38.5523 43 39 43.4477 39 44ZM45 41C45 41.5523 44.5523 42 44 42C43.4477 42 43 41.5523 43 41C43 40.4477 43.4477 40 44 40C44.5523 40 45 40.4477 45 41ZM34 38C34.5523 38 35 37.5523 35 37C35 36.4477 34.5523 36 34 36C33.4477 36 33 36.4477 33 37C33 37.5523 33.4477 38 34 38ZM37 33C37 33.5523 36.5523 34 36 34C35.4477 34 35 33.5523 35 33C35 32.4477 35.4477 32 36 32C36.5523 32 37 32.4477 37 33ZM40 35C40.5523 35 41 34.5523 41 34C41 33.4477 40.5523 33 40 33C39.4477 33 39 33.4477 39 34C39 34.5523 39.4477 35 40 35ZM39 37C39 37.5523 38.5523 38 38 38C37.4477 38 37 37.5523 37 37C37 36.4477 37.4477 36 38 36C38.5523 36 39 36.4477 39 37ZM36 42C36.5523 42 37 41.5523 37 41C37 40.4477 36.5523 40 36 40C35.4477 40 35 40.4477 35 41C35 41.5523 35.4477 42 36 42Z" fill="#333333"/>
<path d="M13 19L17 21L13 23" stroke="#333333" stroke-width="2" stroke-linecap="round" stroke-linejoin="round"/>
<path d="M35 19L31 21L35 23" stroke="#333333" stroke-width="2" stroke-linecap="round" stroke-linejoin="round"/>
<ellipse cx="24.5" cy="31" rx="3.5" ry="4" fill="#333333"/>
<path d="M17 29C17.7546 29.8333 18.8111 32 17 34" stroke="#333333" stroke-width="2" stroke-linecap="round"/>
</svg>
