<svg width="48" height="48" viewBox="0 0 48 48" fill="none" xmlns="http://www.w3.org/2000/svg">
<path fill-rule="evenodd" clip-rule="evenodd" d="M12.7781 30.6282C12.5752 30.1604 12.1168 29.9076 11.6699 30.0312C6.8662 31.3592 2 34.0671 2 38.1407V43V45H4H32H34V43V38.1407C34 34.0671 29.1338 31.3592 24.3301 30.0312C23.8832 29.9076 23.4248 30.1604 23.2219 30.6282L19.6093 30.6282C18.8193 30.6284 18.4171 30.6284 18.022 30.6284C17.6122 30.6283 17.2099 30.6283 16.3905 30.6285L12.7781 30.6282ZM19.6098 32.6282C19.6096 32.6282 19.6095 32.6282 19.6093 32.6282C18.8132 32.6284 18.4136 32.6284 18.0213 32.6284C17.6146 32.6283 17.2158 32.6283 16.391 32.6285L16.3903 32.6285L12.7779 32.6282L11.4655 32.6281L11.2922 32.2286C9.36506 32.8386 7.56698 33.6641 6.22757 34.6608C4.67071 35.8194 4 36.991 4 38.1407V43H32V38.1407C32 36.991 31.3293 35.8194 29.7724 34.6608C28.433 33.6641 26.6349 32.8386 24.7078 32.2286L24.5345 32.6282L23.2219 32.6282L19.6098 32.6282Z" fill="#333333"/>
<rect x="11" y="35" width="2" height="9" rx="1" fill="#333333"/>
<rect x="23" y="35" width="2" height="9" rx="1" fill="#333333"/>
<path d="M9.56732 17.091C8.68514 14.5316 11.1455 8.90918 17.6532 8.90918C24.3685 8.90918 27.4206 14.1235 26.4223 17.091" stroke="#333333" stroke-width="2" stroke-linecap="round"/>
<line x1="13.2622" y1="10.8184" x2="13.2622" y2="14.2729" stroke="#333333" stroke-width="2" stroke-linecap="round"/>
<line x1="18.0437" y1="9" x2="18.0437" y2="12.4545" stroke="#333333" stroke-width="2" stroke-linecap="round"/>
<line x1="22.8252" y1="10.8184" x2="22.8252" y2="14.2729" stroke="#333333" stroke-width="2" stroke-linecap="round"/>
<path d="M9.39337 16.1818C0.786739 23.4546 35.2133 23.4546 26.6066 16.1818" stroke="#333333" stroke-width="2"/>
<path d="M25.6503 20.7275C25.6503 24.7442 22.2251 28.0003 17.9999 28.0003C13.7748 28.0003 10.3496 24.7442 10.3496 20.7275" stroke="#333333" stroke-width="2"/>
<path d="M32 19V5H35V12L40 8V12L45 8V12V19H32Z" stroke="#333333" stroke-width="2" stroke-linejoin="round"/>
<rect x="35" y="14" width="2" height="2" rx="0.4" fill="#333333"/>
<rect x="40" y="14" width="2" height="2" rx="0.4" fill="#333333"/>
</svg>
