<svg width="48" height="48" viewBox="0 0 48 48" fill="none" xmlns="http://www.w3.org/2000/svg">
<path d="M35 14.4C35 14.1791 35.1791 14 35.4 14H36.6C36.8209 14 37 14.1791 37 14.4V15.6C37 15.8209 36.8209 16 36.6 16H35.4C35.1791 16 35 15.8209 35 15.6V14.4Z" fill="#333333"/>
<path d="M40.4 14C40.1791 14 40 14.1791 40 14.4V15.6C40 15.8209 40.1791 16 40.4 16H41.6C41.8209 16 42 15.8209 42 15.6V14.4C42 14.1791 41.8209 14 41.6 14H40.4Z" fill="#333333"/>
<path fill-rule="evenodd" clip-rule="evenodd" d="M32 4C31.4477 4 31 4.44772 31 5V19C31 19.5523 31.4477 20 32 20H45C45.5523 20 46 19.5523 46 19V8C46 7.61559 45.7797 7.26522 45.4332 7.0987C45.0867 6.93218 44.6755 6.979 44.3753 7.21913L41 9.91938V8C41 7.61559 40.7797 7.26522 40.4332 7.0987C40.0867 6.93218 39.6755 6.979 39.3753 7.21913L36 9.91937V5C36 4.44772 35.5523 4 35 4H32ZM33 18V6H34V12C34 12.3844 34.2203 12.7348 34.5668 12.9013C34.9133 13.0678 35.3245 13.021 35.6247 12.7809L39 10.0806V12C39 12.3844 39.2203 12.7348 39.5668 12.9013C39.9133 13.0678 40.3245 13.021 40.6247 12.7809L44 10.0806V18H33Z" fill="#333333"/>
<path fill-rule="evenodd" clip-rule="evenodd" d="M8.39808 15.73C8.45414 14.3293 9.02963 12.7616 10.0445 11.4332C11.5473 9.46626 14.0801 7.90918 17.6533 7.90918C21.2847 7.90918 24.0043 9.32631 25.6803 11.2256C26.8669 12.5704 27.5601 14.2054 27.6063 15.7341C28.5477 16.6241 29.1352 17.6266 28.9743 18.7145C28.7971 19.9123 27.7855 20.6841 26.7725 21.1732C26.7271 21.1952 26.681 21.2168 26.6343 21.2383C26.3577 25.6104 22.5534 29.0003 18.0001 29.0003C13.4468 29.0003 9.64244 25.6104 9.36584 21.2383C9.31911 21.2169 9.27299 21.1952 9.2275 21.1732C8.21456 20.6841 7.20291 19.9123 7.02573 18.7145C6.86456 17.6249 7.45413 16.621 8.39808 15.73ZM10.5128 16.7651C10.2133 15.8961 10.4499 14.197 11.6338 12.6474C11.8208 12.4027 12.03 12.1641 12.2622 11.9365V14.2729C12.2622 14.8252 12.7099 15.2729 13.2622 15.2729C13.8145 15.2729 14.2622 14.8252 14.2622 14.2729V10.8184C14.2622 10.7413 14.2535 10.6663 14.237 10.5942C15.0349 10.2359 15.9673 9.99425 17.0437 9.92774V12.4545C17.0437 13.0068 17.4914 13.4545 18.0437 13.4545C18.596 13.4545 19.0437 13.0068 19.0437 12.4545V9.9943C20.1013 10.1276 21.0279 10.4102 21.8255 10.7919C21.8253 10.8007 21.8252 10.8095 21.8252 10.8184V14.2729C21.8252 14.8252 22.2729 15.2729 22.8252 15.2729C23.3775 15.2729 23.8252 14.8252 23.8252 14.2729V12.1757C23.9504 12.2977 24.0689 12.4223 24.1806 12.5489C25.4981 14.042 25.8272 15.7238 25.4745 16.7721C25.2984 17.2956 25.58 17.8627 26.1035 18.0388C26.3706 18.1287 26.6491 18.0993 26.8812 17.9795C27.0004 18.2064 27.0061 18.3524 26.9958 18.4218C26.9713 18.5877 26.7726 18.9522 25.9029 19.3722C24.2279 20.181 21.1854 20.6363 18 20.6363C14.8146 20.6363 11.7722 20.181 10.0972 19.3722C9.2274 18.9522 9.02874 18.5877 9.0042 18.4218C8.994 18.3528 8.9995 18.2082 9.11667 17.9837C9.34934 18.1011 9.62741 18.1281 9.89328 18.0364C10.4154 17.8564 10.6928 17.2873 10.5128 16.7651ZM18 22.6363C20.269 22.6363 22.6069 22.4178 24.524 21.9467C23.9253 24.7978 21.2682 27.0003 18.0001 27.0003C14.732 27.0003 12.0748 24.7978 11.4762 21.9467C13.3932 22.4178 15.731 22.6363 18 22.6363Z" fill="#333333"/>
<path fill-rule="evenodd" clip-rule="evenodd" d="M11.6699 30.0312C12.1168 29.9076 12.5752 30.1604 12.7781 30.6282L16.3905 30.6285C17.1992 30.6283 17.6016 30.6283 18.0059 30.6284H18.0287C18.4217 30.6284 18.8238 30.6284 19.6093 30.6282L23.2219 30.6282C23.4248 30.1604 23.8832 29.9076 24.3301 30.0312C29.1338 31.3592 34 34.0671 34 38.1407V45H2V38.1407C2 34.0671 6.8662 31.3592 11.6699 30.0312ZM19.6098 32.6282L24.5345 32.6282L24.7078 32.2286C26.6349 32.8386 28.433 33.6641 29.7724 34.6608C31.3293 35.8194 32 36.991 32 38.1407V43H25V36C25 35.4477 24.5523 35 24 35C23.4477 35 23 35.4477 23 36V43H13V36C13 35.4477 12.5523 35 12 35C11.4477 35 11 35.4477 11 36V43H4V38.1407C4 36.991 4.67071 35.8194 6.22757 34.6608C7.56698 33.6641 9.36506 32.8386 11.2922 32.2286L11.4655 32.6281L16.3903 32.6285C17.2118 32.6283 17.6114 32.6283 18.0165 32.6284H18.0213C18.4136 32.6284 18.8136 32.6284 19.6098 32.6282Z" fill="#333333"/>
</svg>
