<svg width="48" height="48" viewBox="0 0 48 48" fill="none" xmlns="http://www.w3.org/2000/svg">
<path fill-rule="evenodd" clip-rule="evenodd" d="M11 13C13.2091 13 15 11.2091 15 9C15 6.79086 13.2091 5 11 5C8.79086 5 7 6.79086 7 9C7 11.2091 8.79086 13 11 13ZM11 11C12.1046 11 13 10.1046 13 9C13 7.89543 12.1046 7 11 7C9.89543 7 9 7.89543 9 9C9 10.1046 9.89543 11 11 11Z" fill="#333333"/>
<path fill-rule="evenodd" clip-rule="evenodd" d="M6.99989 32H6.54127C4.68745 32 3.27732 30.3354 3.58209 28.5068L5.58209 16.5068C5.82318 15.0602 7.07475 14 8.54127 14H13.4585C14.925 14 16.1766 15.0602 16.4177 16.5068L18.4177 28.5068C18.7225 30.3354 17.3123 32 15.4585 32H14.9999L14.1527 42.1661C14.0663 43.2027 13.1998 44 12.1596 44H9.84015C8.79998 44 7.93344 43.2027 7.84706 42.1661L6.99989 32ZM13.1596 30H15.4585C16.0764 30 16.5465 29.4451 16.4449 28.8356L14.4449 16.8356C14.3645 16.3534 13.9473 16 13.4585 16H8.54127C8.05243 16 7.63524 16.3534 7.55488 16.8356L5.55488 28.8356C5.45329 29.4451 5.92333 30 6.54127 30H8.84015L9.84015 42H12.1596L13.1596 30Z" fill="#333333"/>
<path fill-rule="evenodd" clip-rule="evenodd" d="M31 23V21H30C27.7909 21 26 19.2091 26 17H28C28 18.1046 28.8954 19 30 19H31V15H30C27.7909 15 26 13.2091 26 11C26 8.79086 27.7909 7 30 7H31V5H33V7H34C36.2091 7 38 8.79086 38 11H36C36 9.89543 35.1046 9 34 9H33V13H34C36.2091 13 38 14.7909 38 17C38 19.2091 36.2091 21 34 21H33V23H31ZM34 19H33V15H34C35.1046 15 36 15.8954 36 17C36 18.1046 35.1046 19 34 19ZM30 9H31V13H30C28.8954 13 28 12.1046 28 11C28 9.89543 28.8954 9 30 9Z" fill="#333333"/>
<path fill-rule="evenodd" clip-rule="evenodd" d="M23 33C21.3431 33 20 34.3431 20 36V44H22V41H42V44H44V36C44 34.3431 42.6569 33 41 33V27H39V28L25 28V27H23V33ZM36 30H39V33H36V30ZM30 30L34 30V33H30V30ZM25 30H28V33H25V30ZM22 36C22 35.4477 22.4477 35 23 35H41C41.5523 35 42 35.4477 42 36V39H22V36Z" fill="#333333"/>
</svg>
