<svg width="48" height="48" viewBox="0 0 48 48" fill="none" xmlns="http://www.w3.org/2000/svg">
<path d="M32.0763 19.6097H33.0763C33.0763 19.133 32.7397 18.7225 32.2722 18.6291C31.8047 18.5357 31.3363 18.7853 31.1531 19.2254L32.0763 19.6097ZM29.3847 26.0764L28.4615 25.6921L29.3847 26.0764ZM34.766 29.6806V28.6806C34.2137 28.6806 33.766 29.1283 33.766 29.6806H34.766ZM37.3102 29.6806H38.3102C38.3102 29.1283 37.8625 28.6806 37.3102 28.6806V29.6806ZM39.9999 20.057L40.9171 19.6585C40.7283 19.2239 40.2603 18.9815 39.7964 19.0779C39.3325 19.1743 38.9999 19.5831 38.9999 20.057H39.9999ZM42.6241 26.0977L41.7069 26.4961L41.7069 26.4961L42.6241 26.0977ZM44.5976 26.8758L44.1991 25.9586L44.1991 25.9586L44.5976 26.8758ZM45.3757 24.9023L44.4585 25.3008L45.3757 24.9023ZM42.1273 17.4249L43.0445 17.0264V17.0264L42.1273 17.4249ZM29.7222 17.4585L30.6454 17.8427V17.8427L29.7222 17.4585ZM26.6151 24.9236L27.5383 25.3079V25.3079L26.6151 24.9236ZM27.4235 26.8848L27.8078 25.9616H27.8078L27.4235 26.8848ZM8.00004 19.8342H9.00004C9.00004 19.3713 8.68235 18.9689 8.23209 18.8615C7.78184 18.7541 7.31671 18.9697 7.10774 19.3828L8.00004 19.8342ZM5.33853 25.0948L6.23083 25.5463L5.33853 25.0948ZM8.00004 24.3122V25.3122C8.55232 25.3122 9.00004 24.8645 9.00004 24.3122H8.00004ZM7.99997 24.3122V23.3122C7.58752 23.3122 7.21738 23.5655 7.06793 23.9499L7.99997 24.3122ZM5.44179 30.8923L4.50975 30.53H4.50975L5.44179 30.8923ZM8.00004 32.4746H9.00004C9.00004 31.9223 8.55232 31.4746 8.00004 31.4746V32.4746ZM10.7421 32.4746V31.4746C10.1898 31.4746 9.74211 31.9223 9.74211 32.4746H10.7421ZM13.2555 32.4746H14.2555C14.2555 31.9223 13.8078 31.4746 13.2555 31.4746V32.4746ZM15.9976 32.4746V31.4746C15.4453 31.4746 14.9976 31.9223 14.9976 32.4746H15.9976ZM18.82 30.8534L19.7383 30.4575L18.82 30.8534ZM16 24.3122L16.9183 23.9163C16.7602 23.5497 16.3992 23.3122 16 23.3122V24.3122ZM15.9976 24.3122H14.9976C14.9976 24.8645 15.4453 25.3122 15.9976 25.3122V24.3122ZM15.9976 19.8292L16.8899 19.3778C16.6809 18.9647 16.2158 18.7491 15.7655 18.8565C15.3153 18.9639 14.9976 19.3663 14.9976 19.8292H15.9976ZM18.6616 25.0948L19.5539 24.6434L18.6616 25.0948ZM20.6772 25.7561L21.1287 26.6484H21.1287L20.6772 25.7561ZM21.3385 23.7405L22.2308 23.2891L21.3385 23.7405ZM18.1609 17.4597L17.2686 17.9111V17.9111L18.1609 17.4597ZM5.83929 17.4597L4.94699 17.0082L5.83929 17.4597ZM2.66163 23.7405L3.55393 24.192H3.55393L2.66163 23.7405ZM3.32292 25.7561L2.87148 26.6484H2.87148L3.32292 25.7561ZM38.2499 11.2514C38.2499 12.4952 37.2421 13.5028 35.9999 13.5028V15.5028C38.3475 15.5028 40.2499 13.599 40.2499 11.2514H38.2499ZM35.9999 9C37.2421 9 38.2499 10.0076 38.2499 11.2514H40.2499C40.2499 8.90383 38.3475 7 35.9999 7V9ZM33.7499 11.2514C33.7499 10.0076 34.7577 9 35.9999 9V7C33.6523 7 31.7499 8.90383 31.7499 11.2514H33.7499ZM35.9999 13.5028C34.7577 13.5028 33.7499 12.4952 33.7499 11.2514H31.7499C31.7499 13.599 33.6523 15.5028 35.9999 15.5028V13.5028ZM31.1531 19.2254L28.4615 25.6921L30.308 26.4607L32.9995 19.994L31.1531 19.2254ZM33.0763 21.8354V19.6097H31.0763V21.8354H33.0763ZM33.0763 29.6806V21.8354H31.0763V29.6806H33.0763ZM33.0763 38.6808V29.6806H31.0763V38.6808H33.0763ZM33.4211 39.0002C33.2156 39.0002 33.0763 38.8362 33.0763 38.6808H31.0763C31.0763 39.9767 32.1473 41.0002 33.4211 41.0002V39.0002ZM33.766 38.6808C33.766 38.8362 33.6267 39.0002 33.4211 39.0002V41.0002C34.6949 41.0002 35.766 39.9767 35.766 38.6808H33.766ZM33.766 29.6806V38.6808H35.766V29.6806H33.766ZM37.3102 28.6806H34.766V30.6806H37.3102V28.6806ZM38.3102 38.6808V29.6806H36.3102V38.6808H38.3102ZM38.655 39.0002C38.4495 39.0002 38.3102 38.8362 38.3102 38.6808H36.3102C36.3102 39.9767 37.3813 41.0002 38.655 41.0002V39.0002ZM38.9999 38.6808C38.9999 38.8362 38.8606 39.0002 38.655 39.0002V41.0002C39.9288 41.0002 40.9999 39.9767 40.9999 38.6808H38.9999ZM38.9999 29.6806V38.6808H40.9999V29.6806H38.9999ZM38.9999 21.8354V29.6806H40.9999V21.8354H38.9999ZM38.9999 20.057V21.8354H40.9999V20.057H38.9999ZM43.5413 25.6992L40.9171 19.6585L39.0827 20.4554L41.7069 26.4961L43.5413 25.6992ZM44.1991 25.9586C43.9459 26.0686 43.6513 25.9525 43.5413 25.6992L41.7069 26.4961C42.2571 27.7625 43.7297 28.3431 44.996 27.793L44.1991 25.9586ZM44.4585 25.3008C44.5685 25.5541 44.4524 25.8486 44.1991 25.9586L44.996 27.793C46.2624 27.2428 46.843 25.7702 46.2929 24.5039L44.4585 25.3008ZM41.2101 17.8233L44.4585 25.3008L46.2929 24.5039L43.0445 17.0264L41.2101 17.8233ZM39.9548 17C40.4998 17 40.9929 17.3234 41.2101 17.8233L43.0445 17.0264C42.5099 15.796 41.2963 15 39.9548 15V17ZM35.1769 17H39.9548V15H35.1769V17ZM33.1198 17H35.1769V15H33.1198V17ZM31.909 17H33.1198V15H31.909V17ZM30.6454 17.8427C30.8578 17.3325 31.3563 17 31.909 17V15C30.5486 15 29.3217 15.8183 28.799 17.0742L30.6454 17.8427ZM27.5383 25.3079L30.6454 17.8427L28.799 17.0742L25.6918 24.5393L27.5383 25.3079ZM27.8078 25.9616C27.5528 25.8555 27.4322 25.5628 27.5383 25.3079L25.6918 24.5393C25.1613 25.8141 25.7645 27.2775 27.0392 27.8081L27.8078 25.9616ZM28.4615 25.6921C28.3554 25.9471 28.0627 26.0677 27.8078 25.9616L27.0392 27.8081C28.314 28.3386 29.7774 27.7354 30.308 26.4607L28.4615 25.6921ZM7.10774 19.3828L4.44623 24.6434L6.23083 25.5463L8.89234 20.2856L7.10774 19.3828ZM9.00004 24.3122V19.8342H7.00004V24.3122H9.00004ZM7.99997 25.3122H8.00004V23.3122H7.99997V25.3122ZM6.37383 31.2547L8.93201 24.6746L7.06793 23.9499L4.50975 30.53L6.37383 31.2547ZM6.52431 31.4746C6.41076 31.4746 6.33269 31.3605 6.37383 31.2547L4.50975 30.53C3.95891 31.9469 5.00412 33.4746 6.52431 33.4746V31.4746ZM8.00004 31.4746H6.52431V33.4746H8.00004V31.4746ZM9.00004 38.6142V32.4746H7.00004V38.6142H9.00004ZM9.37107 39.0384C9.20475 39.0384 9.00004 38.8814 9.00004 38.6142H7.00004C7.00004 39.9137 8.02926 41.0384 9.37107 41.0384V39.0384ZM9.74211 38.6142C9.74211 38.8814 9.5374 39.0384 9.37107 39.0384V41.0384C10.7129 41.0384 11.7421 39.9137 11.7421 38.6142H9.74211ZM9.74211 32.4746V38.6142H11.7421V32.4746H9.74211ZM13.2555 31.4746H10.7421V33.4746H13.2555V31.4746ZM14.2555 38.6142V32.4746H12.2555V38.6142H14.2555ZM14.6266 39.0384C14.4602 39.0384 14.2555 38.8814 14.2555 38.6142H12.2555C12.2555 39.9137 13.2848 41.0384 14.6266 41.0384V39.0384ZM14.9976 38.6142C14.9976 38.8814 14.7929 39.0384 14.6266 39.0384V41.0384C15.9684 41.0384 16.9976 39.9136 16.9976 38.6142H14.9976ZM14.9976 32.4746V38.6142H16.9976V32.4746H14.9976ZM17.7534 31.4746H15.9976V33.4746H17.7534V31.4746ZM17.9017 31.2493C17.9476 31.3558 17.8695 31.4746 17.7534 31.4746V33.4746C19.3072 33.4746 20.3534 31.8843 19.7383 30.4575L17.9017 31.2493ZM15.0817 24.7081L17.9017 31.2493L19.7383 30.4575L16.9183 23.9163L15.0817 24.7081ZM15.9976 25.3122H16V23.3122H15.9976V25.3122ZM14.9976 19.8292V24.3122H16.9976V19.8292H14.9976ZM19.5539 24.6434L16.8899 19.3778L15.1053 20.2807L17.7693 25.5463L19.5539 24.6434ZM20.2258 24.8638C19.9794 24.9885 19.6786 24.8898 19.5539 24.6434L17.7693 25.5463C18.3926 26.7783 19.8967 27.2717 21.1287 26.6484L20.2258 24.8638ZM20.4462 24.192C20.5709 24.4384 20.4722 24.7392 20.2258 24.8638L21.1287 26.6484C22.3607 26.0251 22.8541 24.5211 22.2308 23.2891L20.4462 24.192ZM17.2686 17.9111L20.4462 24.192L22.2308 23.2891L19.0532 17.0082L17.2686 17.9111ZM15.7861 16.9997C16.4125 16.9997 16.9858 17.3521 17.2686 17.9111L19.0532 17.0082C18.4299 15.7763 17.1667 14.9997 15.7861 14.9997V16.9997ZM11.3365 16.9997H15.7861V14.9997H11.3365V16.9997ZM9.2369 16.9997H11.3365V14.9997H9.2369V16.9997ZM8.2141 16.9997H9.2369V14.9997H8.2141V16.9997ZM6.73159 17.9111C7.01441 17.3521 7.58762 16.9997 8.2141 16.9997V14.9997C6.83349 14.9997 5.57025 15.7763 4.94699 17.0082L6.73159 17.9111ZM3.55393 24.192L6.73159 17.9111L4.94699 17.0082L1.76933 23.2891L3.55393 24.192ZM3.77436 24.8638C3.52796 24.7392 3.42927 24.4384 3.55393 24.192L1.76933 23.2891C1.14602 24.5211 1.63947 26.0251 2.87148 26.6484L3.77436 24.8638ZM4.44623 24.6434C4.32157 24.8898 4.02076 24.9885 3.77436 24.8638L2.87148 26.6484C4.10349 27.2717 5.60752 26.7783 6.23083 25.5463L4.44623 24.6434ZM14.25 11.2514C14.25 12.4952 13.2422 13.5028 12 13.5028V15.5028C14.3476 15.5028 16.25 13.599 16.25 11.2514H14.25ZM12 9C13.2422 9 14.25 10.0076 14.25 11.2514H16.25C16.25 8.90383 14.3476 7 12 7V9ZM9.75 11.2514C9.75 10.0076 10.7578 9 12 9V7C9.65238 7 7.75 8.90383 7.75 11.2514H9.75ZM12 13.5028C10.7578 13.5028 9.75 12.4952 9.75 11.2514H7.75C7.75 13.599 9.65238 15.5028 12 15.5028V13.5028Z" fill="#333333"/>
</svg>
