<svg width="48" height="48" viewBox="0 0 48 48" fill="none" xmlns="http://www.w3.org/2000/svg">
<path d="M37 11V11C37 9.34315 35.6569 8 34 8H30C28.3431 8 27 9.34315 27 11V11C27 12.6569 28.3431 14 30 14H34C35.6569 14 37 15.3431 37 17V17C37 18.6569 35.6569 20 34 20H30C28.3431 20 27 18.6569 27 17V17" stroke="#333333" stroke-width="2"/>
<path d="M32 5L32 23" stroke="#333333" stroke-width="2"/>
<path d="M21 36C21 34.8954 21.8954 34 23 34H41C42.1046 34 43 34.8954 43 36V40H21V36Z" stroke="#333333" stroke-width="2"/>
<path d="M21 40L21 44" stroke="#333333" stroke-width="2"/>
<path d="M43 40L43 44" stroke="#333333" stroke-width="2"/>
<path d="M40 27L40 33" stroke="#333333" stroke-width="2"/>
<path d="M29 29L29 33" stroke="#333333" stroke-width="2"/>
<path d="M35 29L35 33" stroke="#333333" stroke-width="2"/>
<path d="M24 27L24 33" stroke="#333333" stroke-width="2"/>
<path d="M24 29L40 29" stroke="#333333" stroke-width="2"/>
<path fill-rule="evenodd" clip-rule="evenodd" d="M13 9C13 10.1046 12.1046 11 11 11C9.89543 11 9 10.1046 9 9C9 7.89543 9.89543 7 11 7C12.1046 7 13 7.89543 13 9ZM15 9C15 11.2091 13.2091 13 11 13C8.79086 13 7 11.2091 7 9C7 6.79086 8.79086 5 11 5C13.2091 5 15 6.79086 15 9ZM15.4585 30H13.1596L12.1596 42H9.84015L8.84015 30H6.54127C5.92333 30 5.45329 29.4451 5.55488 28.8356L7.55488 16.8356C7.63524 16.3534 8.05243 16 8.54127 16H13.4585C13.9473 16 14.3645 16.3534 14.4449 16.8356L16.4449 28.8356C16.5465 29.4451 16.0764 30 15.4585 30ZM6.54127 32H6.99989L7.84706 42.1661C7.93344 43.2027 8.79998 44 9.84015 44H12.1596C13.1998 44 14.0663 43.2027 14.1527 42.1661L14.9999 32H15.4585C17.3123 32 18.7225 30.3354 18.4177 28.5068L16.4177 16.5068C16.1766 15.0602 14.925 14 13.4585 14H8.54127C7.07475 14 5.82318 15.0602 5.58209 16.5068L3.58209 28.5068C3.27732 30.3354 4.68745 32 6.54127 32Z" fill="#333333"/>
</svg>
