<svg width="48" height="48" viewBox="0 0 48 48" fill="none" xmlns="http://www.w3.org/2000/svg">
<path fill-rule="evenodd" clip-rule="evenodd" d="M42 3C42.5523 3 43 3.44772 43 4V6C43 6.55228 42.5523 7 42 7C41.4477 7 41 6.55228 41 6V4C41 3.44772 41.4477 3 42 3ZM41.0161 29.8846C38.578 36.936 31.8804 42 24 42C14.0589 42 6 33.9411 6 24C6 14.0589 14.0589 6 24 6C30.2609 6 35.7752 9.19649 38.9999 14.0465V21.3727C37.9128 22.2695 37.2222 23.6114 37.2222 25.1111C37.2222 27.7936 39.4316 29.9714 42.1682 29.9997L42.1136 30C41.7369 30 41.3697 29.9602 41.0161 29.8846ZM24 4C29.9778 4 35.343 6.62254 39.0079 10.7798C39.1206 9.22578 40.4171 8 41.9999 8C43.6568 8 44.9999 9.34315 44.9999 11V21.0455C46.3399 21.9225 47.2222 23.4161 47.2222 25.1111C47.2222 27.5155 45.447 29.5145 43.1083 29.9235C40.5835 38.0772 32.9834 44 24 44C12.9543 44 4 35.0457 4 24C4 12.9543 12.9543 4 24 4ZM42.9999 14.5186V11C42.9999 10.4477 42.5522 10 41.9999 10C41.4477 10 40.9999 10.4477 40.9999 11V14.5186H42.9999ZM15.6286 34.9285C16.1386 35.1325 16.717 34.8869 16.9251 34.3797L16.9303 34.368C16.9371 34.353 16.9503 34.3249 16.9706 34.2855C17.0111 34.2066 17.0798 34.0832 17.1821 33.9297C17.3867 33.6227 17.7245 33.198 18.2402 32.7682C18.5903 32.4765 19.0303 32.1757 19.5783 31.9069L19.5939 31.9138L19.6021 31.8953C20.6419 31.3899 22.0671 31 24 31C26.9723 31 28.7443 31.9219 29.7598 32.7682C30.2756 33.198 30.6133 33.6227 30.818 33.9297C30.9203 34.0832 30.9889 34.2066 31.0295 34.2855C31.0497 34.3249 31.0629 34.353 31.0697 34.368L31.0749 34.3798C31.283 34.8869 31.8614 35.1325 32.3714 34.9285C32.8842 34.7234 33.1336 34.1414 32.9285 33.6286L32 34C32.9285 33.6286 32.9282 33.628 32.928 33.6273L32.9274 33.6259L32.9262 33.6229L32.9232 33.6156L32.9153 33.5968L32.9056 33.5744L32.8913 33.5422C32.8715 33.4986 32.844 33.4408 32.8081 33.3708C32.7361 33.2309 32.6298 33.0418 32.4821 32.8203C32.1867 32.3773 31.7245 31.802 31.0402 31.2318C29.6558 30.0781 27.4278 29 24 29C22.2277 29 20.7761 29.2882 19.596 29.7261L13.0589 26.8207C12.93 25.8036 12.0424 25.0361 10.9985 25.076C9.89478 25.1181 9.0342 26.0471 9.07638 27.1509C9.11857 28.2546 10.0475 29.1152 11.1513 29.073C11.579 29.0567 11.9701 28.9072 12.2864 28.666L17.3581 30.9201C17.2182 31.0229 17.0855 31.127 16.9598 31.2318C16.2756 31.802 15.8133 32.3773 15.518 32.8203C15.3703 33.0418 15.2639 33.2309 15.192 33.3708C15.156 33.4408 15.1285 33.4986 15.1088 33.5422C15.0989 33.564 15.0909 33.5823 15.0847 33.5968L15.0768 33.6156L15.0739 33.6229L15.0726 33.6259L15.0721 33.6273C15.0718 33.628 15.0715 33.6286 15.9972 33.9989L15.0715 33.6286C14.8664 34.1414 15.1158 34.7234 15.6286 34.9285ZM18.5547 19.8322C19.0143 19.5258 19.1384 18.9049 18.8321 18.4454C18.5257 17.9859 17.9049 17.8617 17.4453 18.1681C16.0091 19.1255 15.0887 19.5831 13.6838 20.0514C13.1599 20.2261 12.8767 20.7924 13.0513 21.3163C13.226 21.8403 13.7923 22.1234 14.3163 21.9488C15.9114 21.4171 16.9909 20.8747 18.5547 19.8322ZM29.1679 18.4454C28.8616 18.9049 28.9857 19.5258 29.4453 19.8322C31.0091 20.8747 32.0886 21.4171 33.6837 21.9488C34.2077 22.1234 34.774 21.8403 34.9487 21.3163C35.1233 20.7924 34.8401 20.2261 34.3162 20.0514C32.9113 19.5831 31.9909 19.1255 30.5547 18.1681C30.0951 17.8617 29.4743 17.9859 29.1679 18.4454ZM38.7071 5.29289C38.3166 4.90237 37.6834 4.90237 37.2929 5.29289C36.9024 5.68342 36.9024 6.31658 37.2929 6.70711L38.2929 7.70711C38.6834 8.09763 39.3166 8.09763 39.7071 7.70711C40.0976 7.31658 40.0976 6.68342 39.7071 6.29289L38.7071 5.29289ZM45.2929 5.29289C45.6834 4.90237 46.3166 4.90237 46.7071 5.29289C47.0976 5.68342 47.0976 6.31658 46.7071 6.70711L45.7071 7.70711C45.3166 8.09763 44.6834 8.09763 44.2929 7.70711C43.9024 7.31658 43.9024 6.68342 44.2929 6.29289L45.2929 5.29289Z" fill="#333333"/>
</svg>
