<svg width="48" height="48" viewBox="0 0 48 48" fill="none" xmlns="http://www.w3.org/2000/svg">
<path fill-rule="evenodd" clip-rule="evenodd" d="M6.085 32.9451C6.51332 32.91 7.04508 32.8523 7.63696 32.7576C9.39738 32.4761 11.6896 31.8675 13.3741 30.5519C15.6411 31.4754 18.2389 32 21 32C21.2035 32 21.4061 31.9972 21.6077 31.9915C23.9107 34.5317 27.7955 36.2001 32.2 36.2001C34.4089 36.2001 36.4871 35.7805 38.3007 35.0417C39.4838 35.9656 41.0417 36.4537 42.3574 36.7115C42.9428 36.8262 43.4803 36.8953 43.9154 36.9369C44.3407 36.9776 44.5944 36.4798 44.3571 36.1246C44.1384 35.7973 43.8807 35.383 43.6115 34.8901C43.2283 34.1881 42.8218 33.3266 42.4716 32.3293C44.0599 30.7302 45 28.7475 45 26.6001C45 22.4806 41.5403 18.9671 36.6813 17.6049C35.2013 12.1251 28.743 8 21 8C12.1634 8 5 13.3726 5 20C5 22.6842 6.17509 25.1626 8.16049 27.1616C7.62822 28.6774 6.99192 29.9423 6.43023 30.9028C6.14301 31.394 5.87529 31.8056 5.65098 32.1304C5.40822 32.4819 5.65926 32.9801 6.085 32.9451ZM10.359 26.9372C10.4225 26.7564 10.377 26.5551 10.242 26.4192L9.5795 25.7522C7.89945 24.0606 7 22.0684 7 20C7 17.4569 8.36971 15.0022 10.8863 13.1147C13.4035 11.2268 16.9726 10 21 10C25.0274 10 28.5965 11.2268 31.1137 13.1147C33.6303 15.0022 35 17.4569 35 20C35 22.5431 33.6303 24.9978 31.1137 26.8853C28.5965 28.7732 25.0274 30 21 30C18.4898 30 16.149 29.5228 14.1287 28.6997L13.3242 28.372C13.1583 28.3044 12.969 28.3307 12.8278 28.441L12.1431 28.9757C11.2749 29.6537 10.1248 30.1237 8.94869 30.4389C9.32807 29.6686 9.70721 28.7933 10.0475 27.8242L10.359 26.9372ZM36.9979 19.8021C36.9993 19.8679 37 19.9339 37 20C37 25.7809 31.5496 30.6071 24.2926 31.7457C24.3113 31.7599 24.3301 31.7741 24.349 31.7883C26.2871 33.2419 29.0563 34.2001 32.2 34.2001C34.1579 34.2001 35.9792 33.8278 37.5461 33.1894L38.3506 32.8617C38.5165 32.7941 38.7059 32.8205 38.847 32.9307L39.5317 33.4654C39.9679 33.806 40.5092 34.0802 41.0972 34.2973C40.9197 33.8895 40.7467 33.4538 40.5846 32.992L40.2731 32.105C40.2096 31.9241 40.2551 31.7229 40.3901 31.587L41.0526 30.9199C42.3356 29.6282 43 28.1316 43 26.6001C43 24.7198 41.9885 22.865 40.051 21.4119C39.1854 20.7627 38.1542 20.2124 36.9979 19.8021Z" fill="#333333"/>
</svg>
