<svg width="48" height="48" viewBox="0 0 48 48" fill="none" xmlns="http://www.w3.org/2000/svg">
<path fill-rule="evenodd" clip-rule="evenodd" d="M10.242 26.4192C10.377 26.5551 10.4225 26.7564 10.359 26.9372L10.0475 27.8242C9.70721 28.7933 9.32807 29.6686 8.94869 30.4389C10.1248 30.1237 11.2749 29.6537 12.1431 28.9757L12.8278 28.441C12.969 28.3307 13.1583 28.3044 13.3242 28.372L14.1287 28.6997C16.149 29.5228 18.4898 30 21 30C25.0274 30 28.5965 28.7732 31.1137 26.8853C33.6303 24.9978 35 22.5431 35 20C35 17.4569 33.6303 15.0022 31.1137 13.1147C28.5965 11.2268 25.0274 10 21 10C16.9726 10 13.4035 11.2268 10.8863 13.1147C8.36971 15.0022 7 17.4569 7 20C7 22.0684 7.89945 24.0606 9.5795 25.7522L10.242 26.4192ZM7.63696 32.7576C7.04508 32.8523 6.51332 32.91 6.085 32.9451C5.65926 32.9801 5.40822 32.4819 5.65098 32.1304C5.87529 31.8056 6.14301 31.394 6.43023 30.9028C6.99192 29.9423 7.62822 28.6774 8.16049 27.1616C6.17509 25.1626 5 22.6842 5 20C5 13.3726 12.1634 8 21 8C29.8366 8 37 13.3726 37 20C37 26.6274 29.8366 32 21 32C18.2389 32 15.6411 31.4754 13.3741 30.5519C11.6896 31.8675 9.39738 32.4761 7.63696 32.7576Z" fill="#333333"/>
<path fill-rule="evenodd" clip-rule="evenodd" d="M23.2988 30.8712C22.5494 30.9558 21.7817 30.9996 21 30.9996C20.9399 30.9996 20.88 30.9994 20.8201 30.9988C22.9473 34.0879 27.2448 36.1996 32.2 36.1996C34.4089 36.1996 36.4871 35.78 38.3007 35.0412C39.4838 35.9651 41.0417 36.4532 42.3574 36.711C42.9428 36.8257 43.4803 36.8948 43.9154 36.9364C44.3407 36.9771 44.5944 36.4793 44.3571 36.1241C44.1384 35.7968 43.8807 35.3825 43.6115 34.8896C43.2283 34.1876 42.8218 33.3261 42.4716 32.3289C44.0599 30.7297 45 28.747 45 26.5996C45 22.1687 40.9975 18.4389 35.5562 17.333C35.792 18.0273 35.9377 18.7476 35.984 19.487C37.5555 19.9075 38.9398 20.578 40.051 21.4114C41.9885 22.8645 43 24.7193 43 26.5996C43 28.1311 42.3356 29.6277 41.0526 30.9195L40.3901 31.5865C40.2551 31.7224 40.2096 31.9236 40.2731 32.1045L40.5846 32.9915C40.7467 33.4533 40.9197 33.889 41.0972 34.2968C40.5092 34.0798 39.9679 33.8055 39.5317 33.4649L38.847 32.9302C38.7059 32.82 38.5165 32.7937 38.3506 32.8612L37.5461 33.189C35.9792 33.8273 34.1579 34.1996 32.2 34.1996C29.0563 34.1996 26.2871 33.2414 24.349 31.7878C23.9617 31.4974 23.6114 31.1908 23.2988 30.8712Z" fill="#333333"/>
</svg>
