<svg width="48" height="48" viewBox="0 0 48 48" fill="none" xmlns="http://www.w3.org/2000/svg">
<path fill-rule="evenodd" clip-rule="evenodd" d="M10.242 26.4192C10.377 26.5551 10.4225 26.7564 10.359 26.9372L10.0475 27.8242C9.70721 28.7933 9.32807 29.6686 8.94869 30.4389C10.1248 30.1237 11.2749 29.6537 12.1431 28.9757L12.8278 28.441C12.969 28.3307 13.1583 28.3044 13.3242 28.372L14.1287 28.6997C16.149 29.5228 18.4898 30 21 30C25.0274 30 28.5965 28.7732 31.1137 26.8853C33.6303 24.9978 35 22.5431 35 20C35 17.4569 33.6303 15.0022 31.1137 13.1147C28.5965 11.2268 25.0274 10 21 10C16.9726 10 13.4035 11.2268 10.8863 13.1147C8.36971 15.0022 7 17.4569 7 20C7 22.0684 7.89945 24.0606 9.5795 25.7522L10.242 26.4192ZM7.63696 32.7576C7.04508 32.8523 6.51332 32.91 6.085 32.9451C5.65926 32.9801 5.40822 32.4819 5.65098 32.1304C5.87529 31.8056 6.14301 31.394 6.43023 30.9028C6.99192 29.9423 7.62822 28.6774 8.16049 27.1616C6.17509 25.1626 5 22.6842 5 20C5 13.3726 12.1634 8 21 8C29.8366 8 37 13.3726 37 20C37 26.6274 29.8366 32 21 32C18.2389 32 15.6411 31.4754 13.3741 30.5519C11.6896 31.8675 9.39738 32.4761 7.63696 32.7576Z" fill="#333333"/>
<path fill-rule="evenodd" clip-rule="evenodd" d="M23.2988 30.8716C22.5494 30.9561 21.7817 31 21 31C20.9399 31 20.88 30.9997 20.8201 30.9992C22.9473 34.0882 27.2448 36.2 32.2 36.2C34.4089 36.2 36.4871 35.7803 38.3007 35.0415C39.4838 35.9655 41.0417 36.4535 42.3574 36.7113C42.9428 36.826 43.4803 36.8952 43.9154 36.9368C44.3407 36.9775 44.5944 36.4796 44.3571 36.1245C44.1384 35.7972 43.8807 35.3829 43.6115 34.89C43.2283 34.188 42.8218 33.3265 42.4716 32.3292C44.0599 30.7301 45 28.7474 45 26.6C45 22.1691 40.9975 18.4393 35.5562 17.3334C35.792 18.0276 35.9377 18.748 35.984 19.4874C37.5555 19.9078 38.9398 20.5784 40.051 21.4118C41.9885 22.8649 43 24.7197 43 26.6C43 28.1315 42.3356 29.6281 41.0526 30.9198L40.3901 31.5868C40.2551 31.7228 40.2096 31.924 40.2731 32.1048L40.5846 32.9918C40.7467 33.4537 40.9197 33.8894 41.0972 34.2972C40.5092 34.0801 39.9679 33.8059 39.5317 33.4653L38.847 32.9306C38.7059 32.8203 38.5165 32.794 38.3506 32.8616L37.5461 33.1893C35.9792 33.8277 34.1579 34.2 32.2 34.2C29.0563 34.2 26.2871 33.2418 24.349 31.7882C23.9617 31.4977 23.6114 31.1912 23.2988 30.8716Z" fill="#333333"/>
</svg>
