<svg width="48" height="48" viewBox="0 0 48 48" fill="none" xmlns="http://www.w3.org/2000/svg">
<path fill-rule="evenodd" clip-rule="evenodd" d="M20.6355 9.0399C20.3406 8.91179 20 9.1078 20 9.40545V11.5945C20 11.8923 20.3406 12.0881 20.6355 11.9602L24 10.5L27.3644 11.9602C27.6594 12.0881 28 11.8923 28 11.5945V9.40545C28 9.1078 27.6594 8.91179 27.3644 9.0399L24 10.5L20.6355 9.0399ZM21.5001 16.75C21.5001 15.3693 22.6194 14.25 24.0001 14.25C25.3809 14.25 26.5001 15.3693 26.5001 16.75C26.5001 18.1307 25.3809 19.25 24.0001 19.25C22.6194 19.25 21.5001 18.1307 21.5001 16.75ZM24.0001 12.25C21.5149 12.25 19.5001 14.2647 19.5001 16.75C19.5001 18.4915 20.4894 20.0019 21.9365 20.75H21.5001C20.6643 20.75 19.8837 21.1678 19.42 21.8633L15.42 27.8633C14.6541 29.0121 14.9646 30.5642 16.1134 31.3301C16.7018 31.7224 17.396 31.8323 18.0362 31.6919L16.3821 35H19.0001V37.25C19.0001 38.6307 20.1194 39.75 21.5001 39.75C22.8809 39.75 24.0001 38.6307 24.0001 37.25C24.0001 38.6307 25.1194 39.75 26.5001 39.75C27.8809 39.75 29.0001 38.6307 29.0001 37.25V35H31.6182L29.9641 31.6919C30.6043 31.8323 31.2985 31.7224 31.8869 31.3301C33.0357 30.5642 33.3461 29.0121 32.5803 27.8633L28.5803 21.8633C28.1166 21.1678 27.336 20.75 26.5001 20.75H26.0637C27.5109 20.0019 28.5001 18.4915 28.5001 16.75C28.5001 14.2647 26.4854 12.25 24.0001 12.25ZM19.6182 33L21.0001 30.2361V24.9014L17.9162 29.5273C17.763 29.7571 17.4526 29.8192 17.2228 29.666C16.993 29.5128 16.9309 29.2024 17.0841 28.9726L21.0841 22.9726C21.1769 22.8336 21.333 22.75 21.5001 22.75H26.5001C26.6673 22.75 26.8234 22.8336 26.9162 22.9726L30.9162 28.9726C31.0693 29.2024 31.0073 29.5128 30.7775 29.666C30.5477 29.8192 30.2373 29.7571 30.0841 29.5273L27.0001 24.9014V30.2361L28.3821 33H27.0001V37.25C27.0001 37.5261 26.7763 37.75 26.5001 37.75C26.224 37.75 26.0001 37.5261 26.0001 37.25V33H22.0001V37.25C22.0001 37.5261 21.7763 37.75 21.5001 37.75C21.224 37.75 21.0001 37.5261 21.0001 37.25V33H19.6182Z" fill="#333333"/>
</svg>
