<svg width="48" height="48" viewBox="0 0 48 48" fill="none" xmlns="http://www.w3.org/2000/svg">
<path fill-rule="evenodd" clip-rule="evenodd" d="M20.5 17C19.9477 17 19.5 17.4477 19.5 18V20H17.5V18C17.5 16.3431 18.8431 15 20.5 15V17Z" fill="#333333"/>
<path fill-rule="evenodd" clip-rule="evenodd" d="M26.5 17C27.0523 17 27.5 17.4477 27.5 18V20H29.5V18C29.5 16.3431 28.1568 15 26.5 15V17Z" fill="#333333"/>
<path fill-rule="evenodd" clip-rule="evenodd" d="M27.5 24.834L25.5 27.5006C24.6716 28.6052 24.8954 30.1722 26 31.0006C27.1046 31.8291 28.6716 31.6052 29.5 30.5006L32.1251 27.0006H29.6251L27.9 29.3006C27.7343 29.5216 27.4209 29.5663 27.2 29.4006C26.9791 29.235 26.9343 28.9216 27.1 28.7006L28.3751 27.0006H27.5V24.834Z" fill="#333333"/>
<path fill-rule="evenodd" clip-rule="evenodd" d="M19.496 24.834L21.4959 27.5006C22.3244 28.6052 22.1005 30.1722 20.9959 31.0006C19.8914 31.8291 18.3244 31.6052 17.4959 30.5006L14.8709 27.0006H17.3709L19.0959 29.3006C19.2616 29.5216 19.575 29.5663 19.7959 29.4006C20.0169 29.235 20.0616 28.9216 19.8959 28.7006L18.6209 27.0006H19.496V24.834Z" fill="#333333"/>
<path fill-rule="evenodd" clip-rule="evenodd" d="M20.5 23.8918V18H22.5V23.8918C22.5 24.9259 21.9674 25.8871 21.0907 26.4354L19.521 27.4169L18.4607 25.7211L20.0301 24.7398V24.7398C20.3224 24.5569 20.5 24.2364 20.5 23.8918Z" fill="#333333"/>
<path fill-rule="evenodd" clip-rule="evenodd" d="M24.5 23.9139V18H26.5V23.9139C26.5 24.2526 26.6715 24.5682 26.9555 24.7526L28.4889 25.7482L27.3999 27.4256L25.8665 26.4302V26.4302C25.0144 25.877 24.5 24.93 24.5 23.9139Z" fill="#333333"/>
<path d="M20.514 18.5L20.5054 19.5H20.514V18.5ZM15.3487 24.0381L16.1156 24.6799L16.1226 24.6714L16.1295 24.6628L15.3487 24.0381ZM15.1538 24.3379L16.0507 24.78L16.0515 24.7785L15.1538 24.3379ZM15.0002 24.9766L16.0001 24.9929L16.0001 24.9915L15.0002 24.9766ZM15.1338 25.6198L16.0448 25.2074L16.0441 25.2058L15.1338 25.6198ZM15.3192 25.9255L16.1192 25.3255L16.1126 25.3166L16.1058 25.308L15.3192 25.9255ZM18.249 29.8319L19.2152 30.0896L19.3404 29.6204L19.049 29.2319L18.249 29.8319ZM16.8709 35L15.9046 34.7423L15.5692 36H16.8709V35ZM19.0001 35H20.0001V34H19.0001V35ZM22.0001 35V34H21.0001V35H22.0001ZM25.0001 35H26.0001V34H25.0001V35ZM28.0001 35V34H27.0001V35H28.0001ZM29.8708 35V36H31.3479L30.7993 34.6286L29.8708 35ZM28.0319 30.4027L27.6783 29.4674L26.7249 29.8278L27.1034 30.7741L28.0319 30.4027ZM31.681 25.9254L30.8944 25.3079L30.8876 25.3166L30.881 25.3254L31.681 25.9254ZM31.8664 25.6198L30.9561 25.2058L30.9554 25.2074L31.8664 25.6198ZM32 24.9766L31.0001 24.9915V24.9929L32 24.9766ZM31.8464 24.3379L30.9487 24.7785L30.9494 24.78L31.8464 24.3379ZM31.6515 24.0381L30.8706 24.6628L30.8775 24.6714L30.8846 24.6799L31.6515 24.0381ZM27.6801 19.0738L26.8938 19.6918L26.8992 19.6985L27.6801 19.0738ZM27.6313 19.015L26.8767 19.6711L26.8774 19.672L27.6313 19.015ZM27.15 18.6477L26.7162 19.5487L26.7174 19.5493L27.15 18.6477ZM26.5625 18.5013L26.5205 19.5004H26.5216L26.5625 18.5013ZM26.4862 18.5V19.5H26.4948L26.4862 18.5ZM28.6028 25.0296L29.4028 25.6296L29.8677 25.0099L29.3837 24.4049L28.6028 25.0296ZM28.0001 24.2762L28.781 23.6515L27.0001 21.4254V24.2762H28.0001ZM28.0001 25.8333H27.0001V28.8333L28.8001 26.4333L28.0001 25.8333ZM18.3973 25.0296L17.6164 24.4049L17.1325 25.0099L17.5973 25.6296L18.3973 25.0296ZM19.0001 25.8334L18.2001 26.4334L20.0001 28.8334V25.8334H19.0001ZM19.0001 24.2761H20.0001V21.4254L18.2193 23.6514L19.0001 24.2761ZM26.5001 13C26.5001 14.6568 25.1569 16 23.5001 16V18C26.2615 18 28.5001 15.7614 28.5001 13H26.5001ZM23.5001 10C25.1569 10 26.5001 11.3432 26.5001 13H28.5001C28.5001 10.2386 26.2615 8 23.5001 8V10ZM20.5001 13C20.5001 11.3432 21.8432 10 23.5001 10V8C20.7387 8 18.5001 10.2386 18.5001 13H20.5001ZM23.5001 16C21.8432 16 20.5001 14.6568 20.5001 13H18.5001C18.5001 15.7614 20.7387 18 23.5001 18V16ZM20.1097 19.6877C20.2091 19.5634 20.3546 19.4987 20.5054 19.5L20.5225 17.5C19.7846 17.4937 19.0468 17.8146 18.5479 18.4383L20.1097 19.6877ZM16.1295 24.6628L20.1097 19.6877L18.5479 18.4383L14.5678 23.4134L16.1295 24.6628ZM16.0515 24.7785C16.0687 24.7434 16.0901 24.7103 16.1156 24.6799L14.5818 23.3963C14.4518 23.5516 14.343 23.7201 14.2561 23.8973L16.0515 24.7785ZM16.0001 24.9915C16.0012 24.9182 16.0181 24.8462 16.0507 24.78L14.2569 23.8957C14.09 24.2342 14.0057 24.599 14.0003 24.9617L16.0001 24.9915ZM16.0441 25.2058C16.0136 25.1387 15.9989 25.0662 16.0001 24.9929L14.0003 24.9602C13.9944 25.3229 14.0672 25.6901 14.2235 26.0337L16.0441 25.2058ZM16.1058 25.308C16.0812 25.2767 16.0609 25.243 16.0448 25.2074L14.2227 26.0321C14.3041 26.2119 14.4076 26.3837 14.5326 26.543L16.1058 25.308ZM19.049 29.2319L16.1192 25.3255L14.5192 26.5255L17.449 30.4319L19.049 29.2319ZM17.8371 35.2577L19.2152 30.0896L17.2828 29.5742L15.9046 34.7423L17.8371 35.2577ZM19.0001 34H16.8709V36H19.0001V34ZM20.0001 41V35H18.0001V41H20.0001ZM20.5001 41.5C20.224 41.5 20.0001 41.2761 20.0001 41H18.0001C18.0001 42.3807 19.1194 43.5 20.5001 43.5V41.5ZM21.0001 41C21.0001 41.2761 20.7763 41.5 20.5001 41.5V43.5C21.8808 43.5 23.0001 42.3807 23.0001 41H21.0001ZM21.0001 35V41H23.0001V35H21.0001ZM25.0001 34H22.0001V36H25.0001V34ZM26.0001 41V35H24.0001V41H26.0001ZM26.5001 41.5C26.224 41.5 26.0001 41.2761 26.0001 41H24.0001C24.0001 42.3807 25.1194 43.5 26.5001 43.5V41.5ZM27.0001 41C27.0001 41.2761 26.7762 41.5 26.5001 41.5V43.5C27.8808 43.5 29.0001 42.3807 29.0001 41H27.0001ZM27.0001 35V41H29.0001V35H27.0001ZM29.8708 34H28.0001V36H29.8708V34ZM27.1034 30.7741L28.9423 35.3714L30.7993 34.6286L28.9604 30.0314L27.1034 30.7741ZM28.3856 31.3381C28.8152 31.1757 29.2055 30.8933 29.5 30.5006L27.9 29.3006C27.84 29.3806 27.7632 29.4353 27.6783 29.4674L28.3856 31.3381ZM29.5 30.5006L32.481 26.5254L30.881 25.3254L27.9 29.3006L29.5 30.5006ZM30.9554 25.2074C30.9393 25.243 30.9189 25.2767 30.8944 25.3079L32.4676 26.5429C32.5926 26.3837 32.696 26.2119 32.7774 26.0321L30.9554 25.2074ZM32.7767 26.0337C32.9329 25.6901 33.0057 25.3229 32.9998 24.9602L31.0001 24.9929C31.0013 25.0662 30.9866 25.1387 30.9561 25.2058L32.7767 26.0337ZM30.9494 24.78C30.982 24.8461 30.999 24.9182 31.0001 24.9915L32.9998 24.9617C32.9944 24.599 32.9102 24.2342 32.7433 23.8957L30.9494 24.78ZM32.7441 23.8973C32.6571 23.7201 32.5483 23.5516 32.4183 23.3963L30.8846 24.6799C30.9101 24.7103 30.9315 24.7434 30.9487 24.7785L32.7441 23.8973ZM26.8992 19.6985L30.8706 24.6628L32.4323 23.4134L28.4609 18.4491L26.8992 19.6985ZM26.8774 19.672C26.8831 19.6784 26.8885 19.685 26.8938 19.6918L28.4663 18.4559C28.4401 18.4226 28.4131 18.3899 28.3852 18.358L26.8774 19.672ZM26.7174 19.5493C26.7761 19.5775 26.8303 19.6177 26.8767 19.6711L28.386 18.3588C28.1569 18.0953 27.8821 17.8898 27.5825 17.7461L26.7174 19.5493ZM26.5216 19.5004C26.5923 19.5033 26.6576 19.5205 26.7162 19.5487L27.5838 17.7467C27.2845 17.6026 26.9524 17.5164 26.6035 17.5021L26.5216 19.5004ZM26.4948 19.5C26.5033 19.4999 26.5119 19.5 26.5205 19.5004L26.6046 17.5022C26.5623 17.5004 26.52 17.4997 26.4776 17.5L26.4948 19.5ZM20.514 19.5H26.4862V17.5H20.514V19.5ZM29.3837 24.4049L28.781 23.6515L27.2192 24.9009L27.822 25.6543L29.3837 24.4049ZM27.0001 24.2762V25.8333H29.0001V24.2762H27.0001ZM27.8028 24.4296L27.2001 25.2333L28.8001 26.4333L29.4028 25.6296L27.8028 24.4296ZM17.5973 25.6296L18.2001 26.4334L19.8001 25.2334L19.1973 24.4296L17.5973 25.6296ZM18.2193 23.6514L17.6164 24.4049L19.1782 25.6543L19.781 24.9008L18.2193 23.6514ZM20.0001 25.8334V24.2761H18.0001V25.8334H20.0001Z" fill="#333333"/>
<path d="M27.4979 5.40545C27.4979 5.1078 27.1573 4.91179 26.8623 5.0399L23.4979 6.49996L26.8623 7.96016C27.1573 8.08813 27.4979 7.89226 27.4979 7.59447V5.40545Z" fill="#333333"/>
<path d="M20.1335 5.0399C19.8385 4.91179 19.4979 5.1078 19.4979 5.40545V7.59447C19.4979 7.89226 19.8385 8.08813 20.1335 7.96016L23.4979 6.49996L20.1335 5.0399Z" fill="#333333"/>
</svg>
