<svg width="48" height="48" viewBox="0 0 48 48" fill="none" xmlns="http://www.w3.org/2000/svg">
<path fill-rule="evenodd" clip-rule="evenodd" d="M21.002 23.8918V18H23.002V23.8918C23.002 24.9259 22.4694 25.8871 21.5926 26.4354L20.023 27.4169L18.9626 25.7212L20.5322 24.7397C20.8245 24.5569 21.002 24.2365 21.002 23.8918Z" fill="#333333"/>
<path fill-rule="evenodd" clip-rule="evenodd" d="M27.002 23.9139V18H25.002V23.9139C25.002 24.9299 25.5163 25.8769 26.3685 26.4301L27.9019 27.4257L28.991 25.7482L27.4575 24.7527C27.1735 24.5682 27.002 24.2526 27.002 23.9139Z" fill="#333333"/>
<path fill-rule="evenodd" clip-rule="evenodd" d="M24.0021 10C22.3452 10 21.0021 11.3431 21.0021 13C21.0021 14.6569 22.3452 16 24.0021 16C25.6589 16 27.0021 14.6569 27.0021 13C27.0021 11.3431 25.6589 10 24.0021 10ZM19.0021 13C19.0021 10.2386 21.2407 8 24.0021 8C26.7635 8 29.0021 10.2386 29.0021 13C29.0021 14.9791 27.8522 16.6896 26.1841 17.5H26.9845C27.0249 17.4997 27.0652 17.5004 27.1055 17.5021M19.0021 13C19.0021 14.9791 20.1519 16.6896 21.82 17.5L19.0021 13ZM21.82 17.5H21.0196C20.2833 17.4951 19.5477 17.816 19.0499 18.4383L15.0758 23.4059C14.9496 23.5583 14.8436 23.7232 14.7585 23.8965C14.592 24.2344 14.5079 24.5983 14.5023 24.9602M33.5018 24.9602C33.5018 24.9607 33.5018 24.9612 33.5019 24.9617L32.502 24.9766L33.5018 24.9602ZM33.5018 24.9602C33.4962 24.5986 33.4123 24.2349 33.2461 23.8973C33.1609 23.7237 33.0548 23.5585 32.9283 23.4059L28.9653 18.4521C28.9403 18.4204 28.9145 18.3893 28.888 18.3588M20.5021 21.4254V28.8334L17.6345 25.0099L20.5021 21.4254ZM27.5021 21.4254L30.3697 25.0099L27.5021 28.8333V21.4254Z" fill="#333333"/>
<path fill-rule="evenodd" clip-rule="evenodd" d="M28.002 24.834L26.002 27.5006C25.1736 28.6052 25.3974 30.1722 26.502 31.0006C27.6065 31.8291 29.1736 31.6052 30.002 30.5006L32.627 27.0006H30.127L28.402 29.3006C28.2363 29.5216 27.9229 29.5663 27.702 29.4006C27.4811 29.235 27.4363 28.9216 27.602 28.7006L28.877 27.0006H28.002V24.834Z" fill="#333333"/>
<path fill-rule="evenodd" clip-rule="evenodd" d="M19.9979 24.834L21.9979 27.5006C22.8263 28.6052 22.6025 30.1722 21.4979 31.0006C20.3933 31.8291 18.8263 31.6052 17.9979 30.5006L15.3728 27.0006H17.8728L19.5979 29.3006C19.7636 29.5216 20.077 29.5663 20.2979 29.4006C20.5188 29.235 20.5636 28.9216 20.3979 28.7006L19.1228 27.0006H19.9979V24.834Z" fill="#333333"/>
<path fill-rule="evenodd" clip-rule="evenodd" d="M21.0021 17C20.4498 17 20.0021 17.4477 20.0021 18V20H18.0021V18C18.0021 16.3431 19.3452 15 21.0021 15V17Z" fill="#333333"/>
<path fill-rule="evenodd" clip-rule="evenodd" d="M27.0021 17C27.5544 17 28.0021 17.4477 28.0021 18V20H30.0021V18C30.0021 16.3431 28.6589 15 27.0021 15V17Z" fill="#333333"/>
<path d="M28 5.40545C28 5.1078 27.6594 4.91179 27.3644 5.0399L24 6.49996L27.3644 7.96016C27.6594 8.08813 28 7.89226 28 7.59447V5.40545Z" fill="#333333"/>
<path d="M20.6356 5.0399C20.3406 4.91179 20 5.1078 20 5.40545V7.59447C20 7.89226 20.3406 8.08813 20.6356 7.96016L24 6.49996L20.6356 5.0399Z" fill="#333333"/>
</svg>
