<svg width="48" height="48" viewBox="0 0 48 48" fill="none" xmlns="http://www.w3.org/2000/svg">
<path fill-rule="evenodd" clip-rule="evenodd" d="M10.4358 17.2183C9.96019 17.4951 9.56158 17.7681 9.24747 18.0028C8.90527 18.2585 8.38924 18.04 8.40668 17.6132C8.42518 17.1604 8.47325 16.6045 8.58312 16.0217C8.75788 15.0946 9.089 14.0994 9.70623 13.3428C9.251 12.4661 9.00003 11.5062 9.00003 10.5C9.00003 6.35786 13.2533 3 18.5 3C23.0063 3 26.7797 5.47696 27.755 8.80037C28.8571 8.2913 30.136 8 31.5 8C35.6422 8 39 10.6863 39 14C39 14.8463 38.781 15.6517 38.3858 16.3819C38.2976 16.5448 38.2965 16.7414 38.3774 16.908C38.4727 17.1042 38.5521 17.309 38.6183 17.5163C38.7989 18.0816 38.8807 18.6659 38.9155 19.147C38.9462 19.5731 38.4302 19.7965 38.0801 19.5518C37.7598 19.3279 37.3539 19.0749 36.8715 18.8352C36.7774 18.7885 36.6804 18.7423 36.5805 18.6968C36.4269 18.627 36.2492 18.6463 36.106 18.7356C34.8349 19.528 33.2363 20 31.5 20C28.3653 20 25.6798 18.4615 24.5589 16.2769C22.9144 17.3531 20.8029 18 18.5 18C16.196 18 14.0836 17.3525 12.4387 16.2753C11.6712 16.5569 10.9994 16.8903 10.4358 17.2183ZM26.1539 14.9435C26.4921 15.9606 27.3647 16.8259 28.5433 17.3735C29.3555 17.7602 30.3479 18 31.5 18C34.5275 18 36.9837 16.221 36.9999 14.0219L37 14L37 13.9914C36.9959 12.5774 35.983 11.3356 34.4568 10.6266C33.6447 10.2398 32.6522 10 31.5 10C30.3479 10 29.3555 10.2398 28.5434 10.6265C28.3486 10.717 28.1622 10.8162 27.9852 10.9233C27.8794 12.4235 27.2152 13.8061 26.1539 14.9435ZM11.9357 13.2965C12.0276 13.4736 12.0055 13.6884 11.8794 13.843L11.2777 14.5805C11.4313 14.5179 11.5888 14.4568 11.7499 14.3977L12.4576 14.1381C12.606 14.0836 12.7715 14.1026 12.9037 14.1892L13.5344 14.6022C14.8365 15.4549 16.5643 16 18.5 16C23.1086 16 26 13.1228 26 10.5C26 7.87724 23.1086 5 18.5 5C13.8914 5 11 7.87724 11 10.5C11 11.1661 11.1647 11.8116 11.4812 12.4212L11.9357 13.2965Z" fill="#333333"/>
<path fill-rule="evenodd" clip-rule="evenodd" d="M18 27C18 29.7625 15.7625 32 13 32C10.2375 32 8 29.7625 8 27C8 24.2375 10.2375 22 13 22C15.7625 22 18 24.2375 18 27ZM16 27C16 28.6579 14.6579 30 13 30C11.3421 30 10 28.6579 10 27C10 25.3421 11.3421 24 13 24C14.6579 24 16 25.3421 16 27Z" fill="#333333"/>
<path fill-rule="evenodd" clip-rule="evenodd" d="M3 39.3333C3 35.7867 9.6625 34 13 34C16.3375 34 23 35.7867 23 39.3333V42H3V39.3333ZM5 39.3333C5 39.1329 5.07892 38.8399 5.49627 38.429C5.93106 38.0009 6.6226 37.5654 7.53431 37.1758C9.36649 36.3929 11.599 36 13 36C14.401 36 16.6335 36.3929 18.4657 37.1758C19.3774 37.5654 20.0689 38.0009 20.5037 38.429C20.9211 38.8399 21 39.1329 21 39.3333V40H5V39.3333Z" fill="#333333"/>
<path fill-rule="evenodd" clip-rule="evenodd" d="M35 32C37.7625 32 40 29.7625 40 27C40 24.2375 37.7625 22 35 22C32.2375 22 30 24.2375 30 27C30 29.7625 32.2375 32 35 32ZM35 30C36.6579 30 38 28.6579 38 27C38 25.3421 36.6579 24 35 24C33.3421 24 32 25.3421 32 27C32 28.6579 33.3421 30 35 30Z" fill="#333333"/>
<path fill-rule="evenodd" clip-rule="evenodd" d="M25 39.3333C25 35.7867 31.6625 34 35 34C38.3375 34 45 35.7867 45 39.3333V42H25V39.3333ZM27 39.3333C27 39.1329 27.0789 38.8399 27.4963 38.429C27.9311 38.0009 28.6226 37.5654 29.5343 37.1758C31.3665 36.3929 33.599 36 35 36C36.401 36 38.6335 36.3929 40.4657 37.1758C41.3774 37.5654 42.0689 38.0009 42.5037 38.429C42.9211 38.8399 43 39.1329 43 39.3333V40H27V39.3333Z" fill="#333333"/>
</svg>
