<svg width="48" height="48" viewBox="0 0 48 48" fill="none" xmlns="http://www.w3.org/2000/svg">
<path d="M17 27C17 29.2102 15.2102 31 13 31C10.7898 31 9 29.2102 9 27C9 24.7898 10.7898 23 13 23C15.2102 23 17 24.7898 17 27Z" stroke="#333333" stroke-width="2"/>
<path d="M4 39.3333C4 38.7898 4.24766 38.2549 4.79472 37.7164C5.35049 37.1692 6.16482 36.6735 7.14137 36.2562C9.09887 35.4198 11.4651 35 13 35C14.5349 35 16.9011 35.4198 18.8586 36.2562C19.8352 36.6735 20.6495 37.1692 21.2053 37.7164C21.7523 38.2549 22 38.7898 22 39.3333V41H4V39.3333Z" stroke="#333333" stroke-width="2"/>
<path d="M39 27C39 29.2102 37.2102 31 35 31C32.7898 31 31 29.2102 31 27C31 24.7898 32.7898 23 35 23C37.2102 23 39 24.7898 39 27Z" stroke="#333333" stroke-width="2"/>
<path d="M26 39.3333C26 38.7898 26.2477 38.2549 26.7947 37.7164C27.3505 37.1692 28.1648 36.6735 29.1414 36.2562C31.0989 35.4198 33.4651 35 35 35C36.5349 35 38.9011 35.4198 40.8586 36.2562C41.8352 36.6735 42.6495 37.1692 43.2053 37.7164C43.7523 38.2549 44 38.7898 44 39.3333V41H26V39.3333Z" stroke="#333333" stroke-width="2"/>
<path fill-rule="evenodd" clip-rule="evenodd" d="M10.4359 17.2183C9.96019 17.4951 9.56158 17.7681 9.24747 18.0028C8.90528 18.2585 8.38924 18.04 8.40668 17.6132C8.42519 17.1604 8.47326 16.6045 8.58312 16.0217C8.75788 15.0946 9.08901 14.0994 9.70623 13.3428C9.251 12.4661 9.00003 11.5062 9.00003 10.5C9.00003 6.35786 13.2533 3 18.5 3C23.7467 3 28 6.35786 28 10.5C28 14.6421 23.7467 18 18.5 18C16.196 18 14.0836 17.3525 12.4387 16.2753C11.6712 16.5569 10.9994 16.8903 10.4359 17.2183ZM11.9357 13.2965C12.0276 13.4736 12.0055 13.6884 11.8794 13.843L11.2777 14.5805C11.4313 14.5179 11.5888 14.4568 11.7499 14.3977L12.4576 14.1381C12.606 14.0836 12.7715 14.1026 12.9037 14.1892L13.5344 14.6022C14.8365 15.4549 16.5643 16 18.5 16C23.1086 16 26 13.1228 26 10.5C26 7.87724 23.1086 5 18.5 5C13.8914 5 11 7.87724 11 10.5C11 11.1661 11.1647 11.8116 11.4812 12.4212L11.9357 13.2965Z" fill="#333333"/>
<path fill-rule="evenodd" clip-rule="evenodd" d="M31.5 10C30.3479 10 29.3555 10.2398 28.5434 10.6265C27.8321 10.9569 27.2322 11.4031 26.7941 11.9284C26.9288 11.4688 27 10.9907 27 10.5C27 10.0866 26.9495 9.68216 26.853 9.29016C28.1307 8.48226 29.7449 8 31.5 8C35.6421 8 39 10.6863 39 14C39 14.8463 38.7809 15.6517 38.3857 16.3819C38.2976 16.5448 38.2964 16.7414 38.3773 16.908C38.4726 17.1042 38.5521 17.309 38.6183 17.5163C38.7988 18.0816 38.8806 18.6659 38.9154 19.147C38.9462 19.5731 38.4301 19.7965 38.08 19.5518C37.7598 19.3279 37.3538 19.0749 36.8714 18.8352C36.7773 18.7885 36.6803 18.7423 36.5805 18.6968C36.4269 18.627 36.2491 18.6463 36.1059 18.7356C34.8348 19.528 33.2363 20 31.5 20C27.93 20 24.9427 18.0046 24.1854 15.332C24.9386 14.8134 25.5699 14.1933 26.0425 13.4999C26.0144 13.6637 26 13.8306 26 14C26 15.4176 27.014 16.663 28.5433 17.3735C29.3554 17.7602 30.3479 18 31.5 18C34.5275 18 36.9836 16.221 36.9999 14.0219C36.9999 14.0146 37 14.0073 37 14C37 13.9971 37 13.9943 36.9999 13.9914C36.9959 12.5774 35.9829 11.3356 34.4568 10.6266C33.6446 10.2398 32.6521 10 31.5 10Z" fill="#333333"/>
</svg>
