<svg width="48" height="48" viewBox="0 0 48 48" fill="none" xmlns="http://www.w3.org/2000/svg">
<path fill-rule="evenodd" clip-rule="evenodd" d="M11.0392 17.2183C10.5636 17.4951 10.165 17.7681 9.85086 18.0028C9.50867 18.2585 8.99263 18.04 9.01008 17.6132C9.02858 17.1604 9.07665 16.6045 9.18652 16.0217C9.36128 15.0946 9.6924 14.0994 10.3096 13.3428C9.8544 12.4661 9.60342 11.5062 9.60342 10.5C9.60342 6.35786 13.8567 3 19.1034 3C24.3501 3 28.6034 6.35786 28.6034 10.5C28.6034 14.6421 24.3501 18 19.1034 18C16.7994 18 14.6869 17.3525 13.0421 16.2753C12.2746 16.5569 11.6028 16.8903 11.0392 17.2183ZM12.5391 13.2965C12.631 13.4736 12.6089 13.6884 12.4828 13.843L11.8811 14.5805C12.0347 14.5179 12.1922 14.4568 12.3533 14.3977L13.061 14.1381C13.2094 14.0836 13.3749 14.1026 13.5071 14.1892L14.1378 14.6022C15.4399 15.4549 17.1677 16 19.1034 16C23.712 16 26.6034 13.1228 26.6034 10.5C26.6034 7.87724 23.712 5 19.1034 5C14.4948 5 11.6034 7.87724 11.6034 10.5C11.6034 11.1661 11.7681 11.8116 12.0846 12.4212L12.5391 13.2965Z" fill="#333333"/>
<path fill-rule="evenodd" clip-rule="evenodd" d="M32.1035 10C30.9514 10 29.959 10.2398 29.1469 10.6265C28.4356 10.9569 27.8357 11.4031 27.3976 11.9284C27.5324 11.4688 27.6035 10.9907 27.6035 10.5C27.6035 10.0866 27.553 9.68216 27.4565 9.29016C28.7342 8.48226 30.3484 8 32.1035 8C36.2456 8 39.6035 10.6863 39.6035 14C39.6035 14.8463 39.3844 15.6517 38.9892 16.3819C38.9011 16.5448 38.8999 16.7414 38.9808 16.908C39.0761 17.1042 39.1556 17.309 39.2218 17.5163C39.4023 18.0816 39.4842 18.6659 39.5189 19.147C39.5497 19.5731 39.0336 19.7965 38.6835 19.5518C38.3633 19.3279 37.9573 19.0749 37.4749 18.8352C37.3808 18.7885 37.2838 18.7423 37.184 18.6968C37.0304 18.627 36.8526 18.6463 36.7095 18.7356C35.4383 19.528 33.8398 20 32.1035 20C28.5336 20 25.5462 18.0046 24.7889 15.332C25.5421 14.8134 26.1735 14.1933 26.646 13.4999C26.6179 13.6637 26.6035 13.8306 26.6035 14C26.6035 15.4176 27.6175 16.663 29.1468 17.3735C29.9589 17.7602 30.9514 18 32.1035 18C35.131 18 37.5872 16.221 37.6034 14.0219C37.6034 14.0146 37.6035 14.0073 37.6035 14C37.6035 13.9971 37.6035 13.9943 37.6035 13.9914C37.5994 12.5774 36.5864 11.3356 35.0603 10.6266C34.2482 10.2398 33.2556 10 32.1035 10Z" fill="#333333"/>
<path d="M17 28C17 30.2102 15.2102 32 13 32C10.7898 32 9 30.2102 9 28C9 25.7898 10.7898 24 13 24C15.2102 24 17 25.7898 17 28Z" stroke="#333333" stroke-width="2"/>
<path d="M4 40C4 39.3375 4.29678 38.7033 4.912 38.0839C5.53634 37.4553 6.44435 36.8918 7.52373 36.4201C9.68786 35.4743 12.3015 35 14 35C15.6985 35 18.3121 35.4743 20.4763 36.4201C21.5557 36.8918 22.4637 37.4553 23.088 38.0839C23.7032 38.7033 24 39.3375 24 40V42H4V40Z" stroke="#333333" stroke-width="2"/>
<path d="M39 28C39 30.2102 37.2102 32 35 32C32.7898 32 31 30.2102 31 28C31 25.7898 32.7898 24 35 24C37.2102 24 39 25.7898 39 28Z" stroke="#333333" stroke-width="2"/>
<path d="M27 27C27 28.6577 25.6577 30 24 30C22.3423 30 21 28.6577 21 27C21 25.3423 22.3423 24 24 24C25.6577 24 27 25.3423 27 27Z" stroke="#333333" stroke-width="2"/>
<path d="M24 40C24 39.3375 24.2968 38.7033 24.912 38.0839C25.5363 37.4553 26.4444 36.8918 27.5237 36.4201C29.6879 35.4743 32.3015 35 34 35C35.6985 35 38.3121 35.4743 40.4763 36.4201C41.5557 36.8918 42.4637 37.4553 43.088 38.0839C43.7032 38.7033 44 39.3375 44 40V42H24V40Z" stroke="#333333" stroke-width="2"/>
<path d="M17 35.5C17.8333 34.6667 20.4 33 24 33C27.6 33 30.1667 34.6667 31 35.5" stroke="#333333" stroke-width="2"/>
</svg>
