<svg width="48" height="48" viewBox="0 0 48 48" fill="none" xmlns="http://www.w3.org/2000/svg">
<path fill-rule="evenodd" clip-rule="evenodd" d="M9.85086 18.0028C10.165 17.7681 10.5636 17.4951 11.0392 17.2183C11.6028 16.8903 12.2746 16.5569 13.0421 16.2753C14.6869 17.3525 16.7994 18 19.1034 18C21.4063 18 23.5179 17.3531 25.1623 16.2769C26.2832 18.4615 28.9688 20 32.1035 20C33.8398 20 35.4383 19.528 36.7095 18.7356C36.8526 18.6463 37.0304 18.627 37.184 18.6968C37.2838 18.7423 37.3808 18.7885 37.4749 18.8352C37.9573 19.0749 38.3633 19.3279 38.6835 19.5518C39.0336 19.7965 39.5497 19.5731 39.5189 19.147C39.4842 18.6659 39.4023 18.0816 39.2218 17.5163C39.1556 17.309 39.0761 17.1042 38.9808 16.908C38.8999 16.7414 38.9011 16.5448 38.9892 16.3819C39.3844 15.6517 39.6035 14.8463 39.6035 14C39.6035 10.6863 36.2456 8 32.1035 8C30.7394 8 29.4605 8.29131 28.3584 8.80039C27.3831 5.47697 23.6097 3 19.1034 3C13.8567 3 9.60342 6.35786 9.60342 10.5C9.60342 11.5062 9.85439 12.4661 10.3096 13.3428C9.6924 14.0994 9.36128 15.0946 9.18651 16.0217C9.07665 16.6045 9.02858 17.1604 9.01007 17.6132C8.99263 18.04 9.50867 18.2585 9.85086 18.0028ZM28.5885 10.9233C28.4828 12.4235 27.8186 13.8061 26.7574 14.9435C27.0955 15.9606 27.9681 16.8259 29.1468 17.3735C29.9589 17.7602 30.9514 18 32.1035 18C35.131 18 37.5872 16.221 37.6034 14.0219L37.6035 14L37.6035 13.9914C37.5994 12.5774 36.5864 11.3356 35.0603 10.6266C34.2482 10.2398 33.2556 10 32.1035 10C30.9514 10 29.959 10.2398 29.1469 10.6265C28.9521 10.717 28.7656 10.8162 28.5885 10.9233ZM12.4828 13.843C12.6089 13.6884 12.631 13.4736 12.5391 13.2965L12.0846 12.4212C11.7681 11.8116 11.6034 11.1661 11.6034 10.5C11.6034 7.87724 14.4948 5 19.1034 5C23.712 5 26.6034 7.87724 26.6034 10.5C26.6034 13.1228 23.712 16 19.1034 16C17.1677 16 15.4399 15.4549 14.1378 14.6022L13.5071 14.1892C13.3749 14.1026 13.2094 14.0836 13.061 14.1381L12.3533 14.3977C12.1922 14.4568 12.0347 14.5179 11.8811 14.5805L12.4828 13.843Z" fill="#333333"/>
<path fill-rule="evenodd" clip-rule="evenodd" d="M13 33C15.7625 33 18 30.7625 18 28C18 25.2375 15.7625 23 13 23C10.2375 23 8 25.2375 8 28C8 30.7625 10.2375 33 13 33ZM13 31C14.6579 31 16 29.6579 16 28C16 26.3421 14.6579 25 13 25C11.3421 25 10 26.3421 10 28C10 29.6579 11.3421 31 13 31Z" fill="#333333"/>
<path fill-rule="evenodd" clip-rule="evenodd" d="M16.8646 34.2967C15.8097 34.099 14.8148 34 14 34C10.3288 34 3 36.01 3 40V43H45V40C45 36.01 37.6712 34 34 34C33.1852 34 32.1903 34.099 31.1353 34.2967C29.8352 33.2932 27.3062 32 24 32C20.6937 32 18.1647 33.2932 16.8646 34.2967ZM5 40C5 39.6725 5.13552 39.2779 5.62151 38.7886C6.12576 38.2809 6.91097 37.7792 7.92418 37.3364C9.96135 36.4461 12.4385 36 14 36C15.5615 36 18.0387 36.4461 20.0758 37.3364C21.089 37.7792 21.8742 38.2809 22.3785 38.7886C22.8645 39.2779 23 39.6725 23 40V41H5V40ZM19.5536 34.9948C21.3256 35.5928 22.9887 36.4597 24 37.5942C25.0113 36.4597 26.6743 35.5928 28.4464 34.9949C27.3363 34.4653 25.8175 34 24 34C22.1824 34 20.6637 34.4653 19.5536 34.9948ZM43 40V41H25V40C25 39.6725 25.1355 39.2779 25.6215 38.7886C26.1258 38.2809 26.911 37.7792 27.9242 37.3364C29.9613 36.4461 32.4385 36 34 36C35.5615 36 38.0387 36.4461 40.0758 37.3364C41.089 37.7792 41.8742 38.2809 42.3785 38.7886C42.8645 39.2779 43 39.6725 43 40Z" fill="#333333"/>
<path fill-rule="evenodd" clip-rule="evenodd" d="M35 33C37.7625 33 40 30.7625 40 28C40 25.2375 37.7625 23 35 23C32.2375 23 30 25.2375 30 28C30 30.7625 32.2375 33 35 33ZM35 31C36.6579 31 38 29.6579 38 28C38 26.3421 36.6579 25 35 25C33.3421 25 32 26.3421 32 28C32 29.6579 33.3421 31 35 31Z" fill="#333333"/>
<path fill-rule="evenodd" clip-rule="evenodd" d="M28 27C28 29.21 26.21 31 24 31C21.79 31 20 29.21 20 27C20 24.79 21.79 23 24 23C26.21 23 28 24.79 28 27ZM26 27C26 28.1054 25.1054 29 24 29C22.8946 29 22 28.1054 22 27C22 25.8946 22.8946 25 24 25C25.1054 25 26 25.8946 26 27Z" fill="#333333"/>
</svg>
