<svg width="48" height="48" viewBox="0 0 48 48" fill="none" xmlns="http://www.w3.org/2000/svg">
<path d="M16.4453 19.5718C16.7812 19.3478 17.2188 19.3478 17.5547 19.5718L19.4453 20.8322C19.9048 21.1385 20.5257 21.0143 20.832 20.5548C21.1384 20.0953 21.0142 19.4744 20.5547 19.1681L18.6641 17.9077C17.6564 17.2359 16.3436 17.2359 15.3359 17.9077L13.4453 19.1681C12.9858 19.4744 12.8616 20.0953 13.1679 20.5548C13.4743 21.0143 14.0952 21.1385 14.5547 20.8322L16.4453 19.5718Z" fill="#333333"/>
<path d="M30.4453 19.5718C30.7812 19.3478 31.2188 19.3478 31.5547 19.5718L33.4453 20.8322C33.9048 21.1385 34.5257 21.0143 34.832 20.5548C35.1384 20.0953 35.0142 19.4744 34.5547 19.1681L32.6641 17.9077C31.6564 17.2359 30.3436 17.2359 29.3359 17.9077L27.4453 19.1681C26.9858 19.4744 26.8616 20.0953 27.1679 20.5548C27.4743 21.0143 28.0952 21.1385 28.5547 20.8322L30.4453 19.5718Z" fill="#333333"/>
<path fill-rule="evenodd" clip-rule="evenodd" d="M14.1464 27.4791C14.328 27.1815 14.6514 27 15 27H33C33.3486 27 33.672 27.1815 33.8536 27.4791C34.0352 27.7767 34.0487 28.1473 33.8893 28.4573L33.8499 28.534C32.6705 30.8287 30.0128 36 24 36C17.9872 36 15.3295 30.8287 14.1501 28.534L14.1107 28.4573C13.9513 28.1473 13.9648 27.7767 14.1464 27.4791ZM16.6742 29C18.0055 31.3031 20.1463 34 24 34C27.8537 34 29.9945 31.3031 31.3258 29H16.6742Z" fill="#333333"/>
<path fill-rule="evenodd" clip-rule="evenodd" d="M44 24C44 35.0457 35.0457 44 24 44C12.9543 44 4 35.0457 4 24C4 12.9543 12.9543 4 24 4C35.0457 4 44 12.9543 44 24ZM42 24C42 33.9411 33.9411 42 24 42C14.0589 42 6 33.9411 6 24C6 14.0589 14.0589 6 24 6C33.9411 6 42 14.0589 42 24Z" fill="#333333"/>
</svg>
