<svg width="48" height="48" viewBox="0 0 48 48" fill="none" xmlns="http://www.w3.org/2000/svg">
<path d="M19.0001 2.23633L20.0001 5.23633L21.0001 2.23633H19.0001Z" fill="#333333"/>
<path d="M15.0001 8.23633L18.0001 7.23633L15.0001 6.23633V8.23633Z" fill="#333333"/>
<path d="M18.8285 6.0646L16.0001 4.65039L17.4143 3.23618L18.8285 6.0646Z" fill="#333333"/>
<path fill-rule="evenodd" clip-rule="evenodd" d="M19.3183 6.38648C20.34 5.45772 21.9211 5.53301 22.8499 6.55466C23.7786 7.5763 23.7033 9.15742 22.6817 10.0862L19.0088 13.4252L20.6245 15.2471H21.438C21.4798 15.2458 21.5218 15.2452 21.5639 15.2452H29.3906C29.8525 15.2452 30.3649 15.4319 30.8087 15.6647C31.2835 15.9138 31.7967 16.2771 32.2721 16.752C33.2279 17.7069 34.0657 19.1527 34.0657 21.0557C34.0657 23.3968 33.2893 25.1071 32.3292 26.2436C31.8541 26.8059 31.3357 27.2257 30.8491 27.5104C30.702 27.5965 30.5479 27.676 30.3906 27.7441V43.1292C30.3906 44.5805 29.2073 45.7638 27.756 45.7638C26.3047 45.7638 25.1215 44.5805 25.1215 43.1292V32.9564H22.8523V43.1292C22.8523 44.5805 21.669 45.7638 20.2177 45.7638C18.7664 45.7638 17.5832 44.5805 17.5832 43.1292V19.3535L13.6295 14.895C12.7215 13.871 12.8056 12.3071 13.8183 11.3865L19.3183 6.38648ZM21.37 7.9C21.1842 7.69567 20.868 7.68061 20.6637 7.86636L15.1637 12.8664C14.9611 13.0505 14.9443 13.3632 15.1259 13.5681L19.1259 18.0789C19.1483 18.1041 19.1729 18.1267 19.1992 18.1466L19.6476 18.4842L19.593 19.0428C19.5865 19.1091 19.5832 19.1766 19.5832 19.2452V43.1292C19.5832 43.476 19.871 43.7638 20.2177 43.7638C20.5645 43.7638 20.8523 43.476 20.8523 43.1292V30.9564H27.1215V43.1292C27.1215 43.4759 27.4093 43.7638 27.756 43.7638C28.1028 43.7638 28.3906 43.476 28.3906 43.1292V25.9805H28.3931V19.2198H30.3931V25.3748C30.5281 25.2536 30.6658 25.1133 30.8014 24.9529C31.454 24.1804 32.0657 22.9282 32.0657 21.0557C32.0657 19.7827 31.5155 18.8232 30.8585 18.1669C30.5275 17.8362 30.178 17.5924 29.8795 17.4357C29.5931 17.2855 29.4259 17.2525 29.3951 17.2464C29.3905 17.2455 29.3906 17.2452 29.3906 17.2452H21.5639C21.5392 17.2452 21.5147 17.2456 21.4904 17.2465L21.4725 17.2471H19.7249L16.2018 13.2741L21.3364 8.60631C21.5407 8.42055 21.5557 8.10433 21.37 7.9Z" fill="#333333"/>
<path d="M27 11.0001C27 12.6569 25.6568 14.0001 24 14.0001C22.3431 14.0001 21 12.6569 21 11.0001C21 10.8378 21.0129 10.6785 21.0377 10.5233C20.8443 10.7108 20.6588 10.873 20.5 11.0001L19.1769 12.3231C19.757 14.4425 21.6966 16.0001 24 16.0001C26.7614 16.0001 29 13.7615 29 11.0001C29 8.23864 26.7614 6.00006 24 6.00006C23.1503 6.00006 22.3501 6.21201 21.6494 6.58593C22.0205 6.74253 22.3414 7.02441 22.5 7.50006C22.5948 7.78453 22.5791 8.09334 22.4889 8.40786C22.9326 8.14862 23.449 8.00006 24 8.00006C25.6568 8.00006 27 9.34321 27 11.0001Z" fill="#333333"/>
</svg>
