<svg width="48" height="48" viewBox="0 0 48 48" fill="none" xmlns="http://www.w3.org/2000/svg">
<path d="M32 16.0667C32 20.5307 28.4133 24.1333 24 24.1333C19.5867 24.1333 16 20.5307 16 16.0667C16 11.6026 19.5867 8 24 8C28.4133 8 32 11.6026 32 16.0667Z" stroke="#333333" stroke-width="2"/>
<path d="M17.1172 29.328L16.8786 28.3569L17.1172 29.328ZM17.1172 29.328C17.1441 29.3214 17.1963 29.3302 17.2266 29.3924L17.3342 29.6128L17.5314 29.7584L21.5954 32.7587L21.8603 32.9543L22.1895 32.9542C23.1137 32.954 23.5647 32.954 24.0243 32.954C24.4676 32.9541 24.919 32.9541 25.8107 32.9539L26.1397 32.9538L26.4044 32.7585L30.4685 29.7584L30.6658 29.6128L30.7734 29.3924C30.8037 29.3302 30.8559 29.3214 30.8827 29.328L30.8827 29.328C33.5249 29.9773 36.1231 30.951 38.0355 32.2161C39.9694 33.4953 41 34.9274 41 36.4664V41.9997H7V36.4664C7 34.9274 8.03062 33.4953 9.96447 32.2161C11.8769 30.951 14.4751 29.9773 17.1172 29.328Z" stroke="#333333" stroke-width="2"/>
<path fill-rule="evenodd" clip-rule="evenodd" d="M33 32H31V35H28V37H31V40H33V37H36V35H33V32Z" fill="#333333"/>
</svg>
