<svg width="48" height="48" viewBox="0 0 48 48" fill="none" xmlns="http://www.w3.org/2000/svg">
<path d="M32 16.0667C32 20.5307 28.4133 24.1333 24 24.1333C19.5867 24.1333 16 20.5307 16 16.0667C16 11.6026 19.5867 8 24 8C28.4133 8 32 11.6026 32 16.0667Z" stroke="#333333" stroke-width="2"/>
<path d="M17.1172 29.3285L16.8786 28.3573L17.1172 29.3285ZM17.1172 29.3285C17.1441 29.3219 17.1963 29.3307 17.2266 29.3929L17.3342 29.6133L17.5314 29.7589L21.5954 32.7592L21.8603 32.9548L22.1895 32.9547C23.1137 32.9545 23.5647 32.9545 24.0243 32.9545C24.4676 32.9546 24.919 32.9546 25.8107 32.9544L26.1397 32.9543L26.4044 32.7589L30.4685 29.7589L30.6658 29.6133L30.7734 29.3929C30.8037 29.3307 30.8559 29.3219 30.8827 29.3285L30.8827 29.3285C33.5249 29.9778 36.1231 30.9515 38.0355 32.2166C39.9694 33.4958 41 34.9279 41 36.4669V42.0002H7V36.4669C7 34.9279 8.03062 33.4958 9.96447 32.2166C11.8769 30.9515 14.4751 29.9777 17.1172 29.3285Z" stroke="#333333" stroke-width="2"/>
<path fill-rule="evenodd" clip-rule="evenodd" d="M33 32H31V35H28V37H31V40H33V37H36V35H33V32Z" fill="#333333"/>
</svg>
