<svg width="48" height="48" viewBox="0 0 48 48" fill="none" xmlns="http://www.w3.org/2000/svg">
<path fill-rule="evenodd" clip-rule="evenodd" d="M18 18C18 20.7625 15.7625 23 13 23C10.2375 23 8 20.7625 8 18C8 15.2375 10.2375 13 13 13C15.7625 13 18 15.2375 18 18ZM16 18C16 19.6579 14.6579 21 13 21C11.3421 21 10 19.6579 10 18C10 16.3421 11.3421 15 13 15C14.6579 15 16 16.3421 16 18Z" fill="#333333"/>
<path fill-rule="evenodd" clip-rule="evenodd" d="M16.8647 24.2967C15.8097 24.099 14.8148 24 14 24C10.3287 24 3 26.01 3 30V35H45V30C45 26.01 37.6712 24 34 24C33.1852 24 32.1903 24.099 31.1354 24.2967C29.8353 23.2932 27.3063 22 24 22C20.6937 22 18.1648 23.2932 16.8647 24.2967ZM5 30C5 29.6725 5.13552 29.2779 5.62151 28.7886C6.12576 28.2809 6.91097 27.7792 7.92418 27.3364C9.96135 26.4461 12.4385 26 14 26C15.5615 26 18.0387 26.4461 20.0758 27.3364C21.089 27.7792 21.8742 28.2809 22.3785 28.7886C22.8645 29.2779 23 29.6725 23 30V33H5V30ZM19.5536 24.9949C21.3257 25.5928 22.9887 26.4597 24 27.5942C25.0113 26.4597 26.6743 25.5928 28.4464 24.9949C27.3363 24.4653 25.8175 24 24 24C22.1825 24 20.6637 24.4653 19.5536 24.9949ZM43 30V33H25V30C25 29.6725 25.1355 29.2779 25.6215 28.7886C26.1258 28.2809 26.911 27.7792 27.9242 27.3364C29.9613 26.4461 32.4385 26 34 26C35.5615 26 38.0387 26.4461 40.0758 27.3364C41.089 27.7792 41.8742 28.2809 42.3785 28.7886C42.8645 29.2779 43 29.6725 43 30Z" fill="#333333"/>
<path fill-rule="evenodd" clip-rule="evenodd" d="M35 23C37.7625 23 40 20.7625 40 18C40 15.2375 37.7625 13 35 13C32.2375 13 30 15.2375 30 18C30 20.7625 32.2375 23 35 23ZM35 21C36.6579 21 38 19.6579 38 18C38 16.3421 36.6579 15 35 15C33.3421 15 32 16.3421 32 18C32 19.6579 33.3421 21 35 21Z" fill="#333333"/>
<path fill-rule="evenodd" clip-rule="evenodd" d="M28 17C28 19.21 26.21 21 24 21C21.79 21 20 19.21 20 17C20 14.79 21.79 13 24 13C26.21 13 28 14.79 28 17ZM26 17C26 18.1054 25.1054 19 24 19C22.8946 19 22 18.1054 22 17C22 15.8946 22.8946 15 24 15C25.1054 15 26 15.8946 26 17Z" fill="#333333"/>
</svg>
