<svg width="48" height="48" viewBox="0 0 48 48" fill="none" xmlns="http://www.w3.org/2000/svg">
<path d="M17 18C17 20.2102 15.2102 22 13 22C10.7898 22 9 20.2102 9 18C9 15.7898 10.7898 14 13 14C15.2102 14 17 15.7898 17 18Z" stroke="#333333" stroke-width="2"/>
<path d="M4 30C4 29.3375 4.29678 28.7033 4.912 28.0839C5.53634 27.4553 6.44435 26.8918 7.52373 26.4201C9.68786 25.4743 12.3015 25 14 25C15.6985 25 18.3121 25.4743 20.4763 26.4201C21.5557 26.8918 22.4637 27.4553 23.088 28.0839C23.7032 28.7033 24 29.3375 24 30V34H4V30Z" stroke="#333333" stroke-width="2"/>
<path d="M39 18C39 20.2102 37.2102 22 35 22C32.7898 22 31 20.2102 31 18C31 15.7898 32.7898 14 35 14C37.2102 14 39 15.7898 39 18Z" stroke="#333333" stroke-width="2"/>
<path d="M27 17C27 18.6577 25.6577 20 24 20C22.3423 20 21 18.6577 21 17C21 15.3423 22.3423 14 24 14C25.6577 14 27 15.3423 27 17Z" stroke="#333333" stroke-width="2"/>
<path d="M24 30C24 29.3375 24.2968 28.7033 24.912 28.0839C25.5363 27.4553 26.4444 26.8918 27.5237 26.4201C29.6879 25.4743 32.3015 25 34 25C35.6985 25 38.3121 25.4743 40.4763 26.4201C41.5557 26.8918 42.4637 27.4553 43.088 28.0839C43.7032 28.7033 44 29.3375 44 30V34H24V30Z" stroke="#333333" stroke-width="2"/>
<path d="M17 25.5C17.8333 24.6667 20.4 23 24 23C27.6 23 30.1667 24.6667 31 25.5" stroke="#333333" stroke-width="2"/>
</svg>
