<svg width="48" height="48" viewBox="0 0 48 48" fill="none" xmlns="http://www.w3.org/2000/svg">
<path d="M4 4H37V9H35V6H6V29H29V31H4V4Z" fill="#333333"/>
<path fill-rule="evenodd" clip-rule="evenodd" d="M36 10C33.7909 10 32 11.7909 32 14C32 16.2091 33.7909 18 36 18C38.2091 18 40 16.2091 40 14C40 11.7909 38.2091 10 36 10ZM34 14C34 12.8954 34.8954 12 36 12C37.1046 12 38 12.8954 38 14C38 15.1046 37.1046 16 36 16C34.8954 16 34 15.1046 34 14Z" fill="#333333"/>
<path fill-rule="evenodd" clip-rule="evenodd" d="M33.9133 18.0088C33.8712 18.0088 33.8293 18.0094 33.7876 18.0107H32C31.2405 18.0107 30.5223 18.356 30.0478 18.949L26.7984 23.0107H22C20.6193 23.0107 19.5 24.13 19.5 25.5107C19.5 26.8915 20.6193 28.0107 22 28.0107H28C28.7595 28.0107 29.4777 27.6655 29.9522 27.0725L30.0831 26.9088V41.8928C30.0831 43.3441 31.2664 44.5274 32.7177 44.5274C34.169 44.5274 35.3523 43.3441 35.3523 41.8928V34.72H36.6214V41.8928C36.6214 43.3441 37.8047 44.5274 39.256 44.5274C40.7073 44.5274 41.8906 43.3441 41.8906 41.8928V30.5077C42.0479 30.4396 42.202 30.3601 42.3491 30.274C42.8357 29.9893 43.3541 29.5695 43.8291 29.0072C44.7893 27.8707 45.5656 26.1604 45.5656 23.8193C45.5656 21.9163 44.7278 20.4705 43.772 19.5156C43.2967 19.0407 42.7835 18.6774 42.3086 18.4283C41.8649 18.1955 41.3525 18.0088 40.8906 18.0088H33.9133ZM33.8402 20.0101C33.8643 20.0092 33.8886 20.0088 33.9133 20.0088H40.8906C40.8898 20.0088 40.8899 20.0086 40.8906 20.0088L40.8951 20.01C40.9258 20.0161 41.093 20.0491 41.3795 20.1993C41.678 20.356 42.0274 20.5998 42.3585 20.9305C43.0154 21.5868 43.5656 22.5463 43.5656 23.8193C43.5656 25.6918 42.954 26.944 42.3013 27.7165C42.1635 27.8797 42.0234 28.022 41.8861 28.1446V22.0176H39.8861V29.625H39.8906V41.8928C39.8906 42.2396 39.6027 42.5274 39.256 42.5274C38.9093 42.5274 38.6214 42.2396 38.6214 41.8928V32.72H33.3523V41.8928C33.3523 42.2396 33.0644 42.5274 32.7177 42.5274C32.371 42.5274 32.0831 42.2396 32.0831 41.8928V21.2072L28.3904 25.8231C28.2955 25.9417 28.1519 26.0107 28 26.0107H22C21.7239 26.0107 21.5 25.7869 21.5 25.5107C21.5 25.2346 21.7239 25.0107 22 25.0107H27.7597L31.6096 20.1984C31.7045 20.0798 31.8481 20.0107 32 20.0107H33.8222L33.8402 20.0101Z" fill="#333333"/>
</svg>
