<svg width="48" height="48" viewBox="0 0 48 48" fill="none" xmlns="http://www.w3.org/2000/svg">
<circle cx="36" cy="14" r="3" stroke="#333333" stroke-width="2"/>
<path d="M33.8043 19.0107V20.0107H33.8222L33.8402 20.0101L33.8043 19.0107ZM40.8906 29.7442V28.7442H39.8906V29.7442H40.8906ZM37.6214 33.72H38.6214V32.72H37.6214V33.72ZM34.3523 33.72V32.72H33.3523V33.72H34.3523ZM31.0831 24.058H32.0831V21.2072L30.3022 23.4333L31.0831 24.058ZM29.1713 26.4478L28.3904 25.8231L28.3904 25.8231L29.1713 26.4478ZM27.2791 24.0107V25.0107H27.7597L28.0599 24.6354L27.2791 24.0107ZM30.8287 19.5737L30.0478 18.949V18.949L30.8287 19.5737ZM33.9133 18.0088C33.8648 18.0088 33.8165 18.0097 33.7683 18.0114L33.8402 20.0101C33.8643 20.0092 33.8886 20.0088 33.9133 20.0088V18.0088ZM40.8906 18.0088H33.9133V20.0088H40.8906V18.0088ZM45.5656 23.8193C45.5656 21.9163 44.7278 20.4705 43.772 19.5156C43.2967 19.0407 42.7835 18.6774 42.3086 18.4283C41.8649 18.1955 41.3525 18.0088 40.8906 18.0088V20.0088C40.8781 20.0088 41.0499 20.0264 41.3795 20.1993C41.678 20.356 42.0274 20.5998 42.3585 20.9305C43.0154 21.5868 43.5656 22.5463 43.5656 23.8193H45.5656ZM40.8906 30.7442C41.3695 30.7442 41.8927 30.5411 42.3491 30.274C42.8357 29.9893 43.3541 29.5695 43.8291 29.0072C44.7893 27.8707 45.5656 26.1604 45.5656 23.8193H43.5656C43.5656 25.6918 42.954 26.944 42.3013 27.7165C41.97 28.1087 41.6258 28.38 41.339 28.5478C41.0221 28.7333 40.8612 28.7442 40.8906 28.7442V30.7442ZM41.8906 41.8928V29.7442H39.8906V41.8928H41.8906ZM39.256 44.5274C40.7073 44.5274 41.8906 43.3441 41.8906 41.8928H39.8906C39.8906 42.2396 39.6027 42.5274 39.256 42.5274V44.5274ZM36.6214 41.8928C36.6214 43.3441 37.8047 44.5274 39.256 44.5274V42.5274C38.9093 42.5274 38.6214 42.2396 38.6214 41.8928H36.6214ZM36.6214 33.72V41.8928H38.6214V33.72H36.6214ZM34.3523 34.72H37.6214V32.72H34.3523V34.72ZM35.3523 41.8928V33.72H33.3523V41.8928H35.3523ZM32.7177 44.5274C34.169 44.5274 35.3523 43.3441 35.3523 41.8928H33.3523C33.3523 42.2396 33.0644 42.5274 32.7177 42.5274V44.5274ZM30.0831 41.8928C30.0831 43.3441 31.2664 44.5274 32.7177 44.5274V42.5274C32.371 42.5274 32.0831 42.2396 32.0831 41.8928H30.0831ZM30.0831 24.058V41.8928H32.0831V24.058H30.0831ZM29.9522 27.0725L31.864 24.6827L30.3022 23.4333L28.3904 25.8231L29.9522 27.0725ZM28 28.0107C28.7595 28.0107 29.4777 27.6655 29.9522 27.0725L28.3904 25.8231C28.2955 25.9417 28.1519 26.0107 28 26.0107V28.0107ZM22 28.0107H28V26.0107H22V28.0107ZM19.5 25.5107C19.5 26.8915 20.6193 28.0107 22 28.0107V26.0107C21.7239 26.0107 21.5 25.7869 21.5 25.5107H19.5ZM22 23.0107C20.6193 23.0107 19.5 24.13 19.5 25.5107H21.5C21.5 25.2346 21.7239 25.0107 22 25.0107V23.0107ZM27.2791 23.0107H22V25.0107H27.2791V23.0107ZM30.0478 18.949L26.4982 23.386L28.0599 24.6354L31.6096 20.1984L30.0478 18.949ZM32 18.0107C31.2405 18.0107 30.5223 18.356 30.0478 18.949L31.6096 20.1984C31.7045 20.0798 31.8481 20.0107 32 20.0107V18.0107ZM33.8043 18.0107H32V20.0107H33.8043V18.0107Z" fill="#333333"/>
<path d="M29 30H5V5H36V9" stroke="#333333" stroke-width="2"/>
<path d="M40.8861 22.0176L40.8861 29.625" stroke="#333333" stroke-width="2"/>
</svg>
