<svg width="48" height="48" viewBox="0 0 48 48" fill="none" xmlns="http://www.w3.org/2000/svg">
<path fill-rule="evenodd" clip-rule="evenodd" d="M24 6C22.8954 6 22 6.89543 22 8C22 8.0964 22.0068 8.1912 22.02 8.28396C22.6478 8.09916 23.3123 8 24 8C24.6877 8 25.3522 8.09916 25.98 8.28396C25.9932 8.1912 26 8.0964 26 8C26 6.89543 25.1046 6 24 6ZM27.8344 9.14266C27.9422 8.7806 28 8.39706 28 8C28 5.79086 26.2092 4 24 4C21.7909 4 20 5.79086 20 8C20 8.39706 20.0579 8.7806 20.1656 9.14266C18.2591 10.3933 17 12.5496 17 15C17 18.866 20.134 22 24 22C27.866 22 31 18.866 31 15C31 12.5496 29.7409 10.3933 27.8344 9.14266ZM19 15C19 12.2386 21.2386 10 24 10C26.7614 10 29 12.2386 29 15C29 17.7614 26.7614 20 24 20C21.2386 20 19 17.7614 19 15ZM29.9319 35.1107L31.0962 33.4807L29.4688 32.3182L28.3044 33.9482L29.9319 35.1107ZM15.1863 33.0812L18.1658 37.2526L19.7933 36.0901L16.8137 31.9188L15.1863 33.0812Z" fill="#333333"/>
</svg>
