<svg width="48" height="48" viewBox="0 0 48 48" fill="none" xmlns="http://www.w3.org/2000/svg">
<path fill-rule="evenodd" clip-rule="evenodd" d="M22 8C22 6.89543 22.8954 6 24 6C25.1046 6 26 6.89543 26 8C26 8.09659 25.9932 8.19139 25.9801 8.28399C25.3523 8.09917 24.6877 8 24 8C23.3123 8 22.6478 8.09917 22.0199 8.28399C22.0068 8.19135 22 8.09655 22 8ZM20.1658 9.14251C20.0579 8.78011 20 8.39646 20 8C20 5.79086 21.7909 4 24 4C26.2092 4 28 5.79086 28 8C28 8.3963 27.9421 8.77998 27.8342 9.14251C29.7408 10.3931 31 12.5495 31 15C31 17.412 29.7801 19.5391 27.9236 20.7979L29.4246 20.5477C30.9402 20.2951 32.4433 21.0605 33.1305 22.4348L37.1305 30.4348C37.7103 31.5944 37.6016 32.9795 36.8481 34.0344L31.8481 41.0344C30.7245 42.6074 28.5386 42.9717 26.9657 41.8481C25.3927 40.7246 25.0284 38.5387 26.1519 36.9657L28.2357 34.0484L22 32.3189V29C22 28.4477 21.5523 28 21 28C20.4477 28 20 28.4477 20 29V33C20 33.4304 20.2754 33.8126 20.6838 33.9487L22.7658 34.6427L19.8731 36.3506L21.8403 38.9549L21.8481 38.9657C22.9716 40.5387 22.6073 42.7246 21.0343 43.8481C19.4614 44.9717 17.2755 44.6074 16.1519 43.0344L11.1519 36.0344C10.3984 34.9795 10.2897 33.5944 10.8695 32.4348L14.6418 24.8903C15.2856 23.6026 16.5068 22.7007 17.9269 22.464L22.1664 21.7574C19.1898 20.9516 17 18.2315 17 15C17 12.5495 18.2592 10.3931 20.1658 9.14251ZM18.2526 34.2051C18.0893 33.8331 18 33.4244 18 33V29C18 27.3431 19.3432 26 21 26C22.6569 26 24 27.3431 24 29V30.7981L25.3175 31.1635C25.1126 30.6489 25 30.0876 25 29.5C25 27.0147 27.0147 25 29.5 25C30.9331 25 32.2097 25.6699 33.0338 26.7136L31.3416 23.3293C31.0471 22.7403 30.4029 22.4122 29.7534 22.5205L18.2557 24.4368C17.4667 24.5683 16.7883 25.0693 16.4306 25.7847L12.6584 33.3293C12.4099 33.8262 12.4565 34.4198 12.7794 34.8719L17.7794 41.8719C18.2609 42.5461 19.1977 42.7022 19.8719 42.2207C20.5428 41.7414 20.7006 40.8111 20.2273 40.1377L15.202 33.4848L16.7979 32.2793L18.2526 34.2051ZM27.7925 38.1099C27.795 38.1066 27.7975 38.1033 27.8 38.1L31.0924 33.7101C32.7918 33.0671 34 31.4246 34 29.5C34 29.1021 33.9484 28.7163 33.8514 28.3488L35.3416 31.3293C35.5901 31.8262 35.5435 32.4198 35.2206 32.8719L30.2206 39.8719C29.7391 40.5461 28.8023 40.7022 28.1281 40.2207C27.454 39.7392 27.2979 38.8023 27.7794 38.1282L27.7925 38.1099ZM19 15C19 12.2386 21.2386 10 24 10C26.7614 10 29 12.2386 29 15C29 17.7614 26.7614 20 24 20C21.2386 20 19 17.7614 19 15ZM29.5 27C28.1193 27 27 28.1193 27 29.5C27 30.8807 28.1193 32 29.5 32C30.8807 32 32 30.8807 32 29.5C32 28.1193 30.8807 27 29.5 27Z" fill="#333333"/>
</svg>
