<svg width="48" height="48" viewBox="0 0 48 48" fill="none" xmlns="http://www.w3.org/2000/svg">
<path d="M8.07629 19.6097H9.07629C9.07629 19.133 8.73974 18.7225 8.27222 18.6291C7.80471 18.5357 7.33627 18.7853 7.15307 19.2254L8.07629 19.6097ZM5.38474 26.0764L4.46152 25.6921H4.46152L5.38474 26.0764ZM10.766 29.6806V28.6806C10.2137 28.6806 9.76597 29.1283 9.76597 29.6806H10.766ZM13.3102 29.6806H14.3102C14.3102 29.1283 13.8625 28.6806 13.3102 28.6806V29.6806ZM15.9999 38.6808H14.9999H15.9999ZM15.9999 29.6806H16.9999H15.9999ZM15.9999 20.057L16.9171 19.6585C16.7283 19.2239 16.2603 18.9815 15.7964 19.0779C15.3325 19.1743 14.9999 19.5831 14.9999 20.057H15.9999ZM18.6241 26.0977L17.7069 26.4961L17.7069 26.4961L18.6241 26.0977ZM21.3757 24.9023L20.4585 25.3008L21.3757 24.9023ZM18.1273 17.4249L19.0445 17.0264V17.0264L18.1273 17.4249ZM5.72219 17.4585L4.79897 17.0742L5.72219 17.4585ZM2.61507 24.9236L3.53829 25.3079L3.53829 25.3079L2.61507 24.9236ZM3.42351 26.8848L3.80777 25.9616H3.80777L3.42351 26.8848ZM32 19.8342H33C33 19.3713 32.6824 18.9689 32.2321 18.8615C31.7818 18.7541 31.3167 18.9697 31.1077 19.3828L32 19.8342ZM29.3385 25.0948L28.4462 24.6434L29.3385 25.0948ZM32 24.3122V25.3122C32.5523 25.3122 33 24.8645 33 24.3122H32ZM32 24.3122V23.3122C31.5875 23.3122 31.2174 23.5655 31.0679 23.9499L32 24.3122ZM29.4418 30.8923L28.5098 30.53L29.4418 30.8923ZM32 32.4746H33C33 31.9223 32.5523 31.4746 32 31.4746V32.4746ZM34.7421 32.4746V31.4746C34.1898 31.4746 33.7421 31.9223 33.7421 32.4746H34.7421ZM37.2555 32.4746H38.2555C38.2555 31.9223 37.8078 31.4746 37.2555 31.4746V32.4746ZM39.9976 32.4746V31.4746C39.4453 31.4746 38.9976 31.9223 38.9976 32.4746H39.9976ZM42.82 30.8534L41.9017 31.2493V31.2493L42.82 30.8534ZM40 24.3122L40.9183 23.9163C40.7602 23.5497 40.3992 23.3122 40 23.3122V24.3122ZM39.9976 24.3122H38.9976C38.9976 24.8645 39.4453 25.3122 39.9976 25.3122V24.3122ZM39.9976 19.8292L40.8899 19.3778C40.6809 18.9647 40.2158 18.7491 39.7655 18.8565C39.3153 18.9639 38.9976 19.3663 38.9976 19.8292H39.9976ZM42.6616 25.0948L43.5539 24.6434L42.6616 25.0948ZM45.3385 23.7405L46.2308 23.2891L45.3385 23.7405ZM42.1609 17.4597L41.2686 17.9111V17.9111L42.1609 17.4597ZM29.8393 17.4597L28.947 17.0082V17.0082L29.8393 17.4597ZM26.6616 23.7405L25.7693 23.2891L26.6616 23.7405ZM14.2499 11.2514C14.2499 12.4952 13.2421 13.5028 11.9999 13.5028V15.5028C14.3475 15.5028 16.2499 13.599 16.2499 11.2514H14.2499ZM11.9999 9C13.2421 9 14.2499 10.0076 14.2499 11.2514H16.2499C16.2499 8.90383 14.3475 7 11.9999 7V9ZM9.7499 11.2514C9.7499 10.0076 10.7577 9 11.9999 9V7C9.65229 7 7.7499 8.90383 7.7499 11.2514H9.7499ZM11.9999 13.5028C10.7577 13.5028 9.7499 12.4952 9.7499 11.2514H7.7499C7.7499 13.599 9.65229 15.5028 11.9999 15.5028V13.5028ZM7.15307 19.2254L4.46152 25.6921L6.30796 26.4607L8.99952 19.994L7.15307 19.2254ZM9.07629 21.8354V19.6097H7.07629V21.8354H9.07629ZM9.07629 29.6806V21.8354H7.07629V29.6806H9.07629ZM9.07629 38.6808V29.6806H7.07629V38.6808H9.07629ZM9.42113 39.0002C9.2156 39.0002 9.07629 38.8362 9.07629 38.6808H7.07629C7.07629 39.9767 8.14735 41.0002 9.42113 41.0002V39.0002ZM9.76597 38.6808C9.76597 38.8362 9.62667 39.0002 9.42113 39.0002V41.0002C10.6949 41.0002 11.766 39.9767 11.766 38.6808H9.76597ZM9.76597 29.6806V38.6808H11.766V29.6806H9.76597ZM13.3102 28.6806H10.766V30.6806H13.3102V28.6806ZM14.3102 38.6808V29.6806H12.3102V38.6808H14.3102ZM14.655 39.0002C14.4495 39.0002 14.3102 38.8362 14.3102 38.6808H12.3102C12.3102 39.9767 13.3813 41.0002 14.655 41.0002V39.0002ZM14.9999 38.6808C14.9999 38.8362 14.8606 39.0002 14.655 39.0002V41.0002C15.9288 41.0002 16.9999 39.9767 16.9999 38.6808H14.9999ZM14.9999 29.6806L14.9999 38.6808H16.9999L16.9999 29.6806H14.9999ZM14.9999 21.8354V29.6806H16.9999V21.8354H14.9999ZM14.9999 20.057V21.8354H16.9999V20.057H14.9999ZM19.5413 25.6992L16.9171 19.6585L15.0827 20.4554L17.7069 26.4961L19.5413 25.6992ZM20.1991 25.9586C19.9459 26.0686 19.6513 25.9525 19.5413 25.6992L17.7069 26.4961C18.2571 27.7625 19.7297 28.3431 20.996 27.793L20.1991 25.9586ZM20.4585 25.3008C20.5685 25.5541 20.4524 25.8486 20.1991 25.9586L20.996 27.793C22.2624 27.2428 22.843 25.7702 22.2929 24.5039L20.4585 25.3008ZM17.2101 17.8233L20.4585 25.3008L22.2929 24.5039L19.0445 17.0264L17.2101 17.8233ZM15.9548 17C16.4998 17 16.9929 17.3234 17.2101 17.8233L19.0445 17.0264C18.5099 15.796 17.2963 15 15.9548 15V17ZM11.1769 17H15.9548V15H11.1769V17ZM9.11978 17H11.1769V15H9.11978V17ZM7.909 17H9.11978V15H7.909V17ZM6.64542 17.8427C6.85781 17.3325 7.35628 17 7.909 17V15C6.5486 15 5.32172 15.8183 4.79897 17.0742L6.64542 17.8427ZM3.53829 25.3079L6.64542 17.8427L4.79897 17.0742L1.69184 24.5393L3.53829 25.3079ZM3.80777 25.9616C3.55283 25.8555 3.43218 25.5628 3.53829 25.3079L1.69184 24.5393C1.16129 25.8141 1.76454 27.2775 3.03925 27.8081L3.80777 25.9616ZM4.46152 25.6921C4.3554 25.9471 4.06271 26.0677 3.80777 25.9616L3.03924 27.8081C4.31395 28.3386 5.77741 27.7354 6.30796 26.4607L4.46152 25.6921ZM31.1077 19.3828L28.4462 24.6434L30.2308 25.5463L32.8923 20.2856L31.1077 19.3828ZM33 24.3122V19.8342H31V24.3122H33ZM32 25.3122H32V23.3122H32V25.3122ZM30.3738 31.2547L32.932 24.6746L31.0679 23.9499L28.5098 30.53L30.3738 31.2547ZM30.5243 31.4746C30.4108 31.4746 30.3327 31.3605 30.3738 31.2547L28.5098 30.53C27.9589 31.9469 29.0041 33.4746 30.5243 33.4746V31.4746ZM32 31.4746H30.5243V33.4746H32V31.4746ZM33 38.6142V32.4746H31V38.6142H33ZM33.3711 39.0384C33.2048 39.0384 33 38.8814 33 38.6142H31C31 39.9137 32.0293 41.0384 33.3711 41.0384V39.0384ZM33.7421 38.6142C33.7421 38.8814 33.5374 39.0384 33.3711 39.0384V41.0384C34.7129 41.0384 35.7421 39.9137 35.7421 38.6142H33.7421ZM33.7421 32.4746V38.6142H35.7421V32.4746H33.7421ZM37.2555 31.4746H34.7421V33.4746H37.2555V31.4746ZM38.2555 38.6142V32.4746H36.2555V38.6142H38.2555ZM38.6266 39.0384C38.4602 39.0384 38.2555 38.8814 38.2555 38.6142H36.2555C36.2555 39.9137 37.2848 41.0384 38.6266 41.0384V39.0384ZM38.9976 38.6142C38.9976 38.8814 38.7929 39.0384 38.6266 39.0384V41.0384C39.9684 41.0384 40.9976 39.9136 40.9976 38.6142H38.9976ZM38.9976 32.4746V38.6142H40.9976V32.4746H38.9976ZM41.7534 31.4746H39.9976V33.4746H41.7534V31.4746ZM41.9017 31.2493C41.9476 31.3558 41.8695 31.4746 41.7534 31.4746V33.4746C43.3072 33.4746 44.3534 31.8843 43.7383 30.4575L41.9017 31.2493ZM39.0817 24.7081L41.9017 31.2493L43.7383 30.4575L40.9183 23.9163L39.0817 24.7081ZM39.9976 25.3122H40V23.3122H39.9976V25.3122ZM38.9976 19.8292V24.3122H40.9976V19.8292H38.9976ZM43.5539 24.6434L40.8899 19.3778L39.1053 20.2807L41.7693 25.5463L43.5539 24.6434ZM44.2258 24.8638C43.9794 24.9885 43.6786 24.8898 43.5539 24.6434L41.7693 25.5463C42.3926 26.7783 43.8967 27.2717 45.1287 26.6484L44.2258 24.8638ZM44.4462 24.192C44.5709 24.4384 44.4722 24.7392 44.2258 24.8638L45.1287 26.6484C46.3607 26.0251 46.8541 24.5211 46.2308 23.2891L44.4462 24.192ZM41.2686 17.9111L44.4462 24.192L46.2308 23.2891L43.0532 17.0082L41.2686 17.9111ZM39.7861 16.9997C40.4125 16.9997 40.9858 17.3521 41.2686 17.9111L43.0532 17.0082C42.4299 15.7763 41.1667 14.9997 39.7861 14.9997V16.9997ZM35.3365 16.9997H39.7861V14.9997H35.3365V16.9997ZM33.2369 16.9997H35.3365V14.9997H33.2369V16.9997ZM32.2141 16.9997H33.2369V14.9997H32.2141V16.9997ZM30.7316 17.9111C31.0144 17.3521 31.5876 16.9997 32.2141 16.9997V14.9997C30.8335 14.9997 29.5703 15.7763 28.947 17.0082L30.7316 17.9111ZM27.5539 24.192L30.7316 17.9111L28.947 17.0082L25.7693 23.2891L27.5539 24.192ZM27.7744 24.8638C27.528 24.7392 27.4293 24.4384 27.5539 24.192L25.7693 23.2891C25.146 24.5211 25.6395 26.0251 26.8715 26.6484L27.7744 24.8638ZM28.4462 24.6434C28.3216 24.8898 28.0208 24.9885 27.7744 24.8638L26.8715 26.6484C28.1035 27.2717 29.6075 26.7783 30.2308 25.5463L28.4462 24.6434ZM38.25 11.2514C38.25 12.4952 37.2422 13.5028 36 13.5028V15.5028C38.3476 15.5028 40.25 13.599 40.25 11.2514H38.25ZM36 9C37.2422 9 38.25 10.0076 38.25 11.2514H40.25C40.25 8.90383 38.3476 7 36 7V9ZM33.75 11.2514C33.75 10.0076 34.7578 9 36 9V7C33.6524 7 31.75 8.90383 31.75 11.2514H33.75ZM36 13.5028C34.7578 13.5028 33.75 12.4952 33.75 11.2514H31.75C31.75 13.599 33.6524 15.5028 36 15.5028V13.5028Z" fill="#333333"/>
</svg>
