<svg width="48" height="48" viewBox="0 0 48 48" fill="none" xmlns="http://www.w3.org/2000/svg">
<path d="M28.8994 18.8578L31.5989 26.4381C31.9231 27.3486 32.9241 27.8239 33.8346 27.4996C34.7451 27.1754 35.2203 26.1744 34.8961 25.264L31.5356 15.8274C31.1454 14.7317 30.1081 14 28.945 14H18.8835C17.7043 14 16.6564 14.7518 16.2785 15.8688L13.0928 25.2863C12.7831 26.2019 13.2742 27.1951 14.1897 27.5048C15.1052 27.8145 16.0985 27.3234 16.4082 26.4079L19.0977 18.4573V42.3515C19.0977 43.2578 19.8536 43.9993 20.7774 43.9993C21.7012 43.9993 22.4571 43.2578 22.4571 42.3515V30.6052H25.5401V42.3515C25.5401 43.2578 26.2959 43.9993 27.2198 43.9993C28.1436 43.9993 28.8994 43.2578 28.8994 42.3515V18.8578Z" stroke="#333333" stroke-width="2" stroke-linejoin="round"/>
<path d="M28.0003 8.00181C28.0003 10.2119 26.2094 12.0036 24.0002 12.0036C21.791 12.0036 20.0001 10.2119 20.0001 8.00181C20.0001 5.79167 21.791 4 24.0002 4C26.2094 4 28.0003 5.79167 28.0003 8.00181Z" stroke="#333333" stroke-width="2" stroke-linejoin="round"/>
</svg>
