<svg width="48" height="48" viewBox="0 0 48 48" fill="none" xmlns="http://www.w3.org/2000/svg">
<path d="M28.8993 18.8578L31.5988 26.4381C31.923 27.3486 32.924 27.8239 33.8345 27.4996C34.7449 27.1754 35.2202 26.1744 34.896 25.264L31.5355 15.8274C31.1453 14.7317 30.108 14 28.9449 14H18.8834C17.7042 14 16.6562 14.7518 16.2784 15.8688L13.0926 25.2863C12.7829 26.2019 13.274 27.1951 14.1896 27.5048C15.1051 27.8145 16.0984 27.3234 16.4081 26.4079L19.0976 18.4573V42.3515C19.0976 43.2578 19.8535 43.9993 20.7773 43.9993C21.7011 43.9993 22.457 43.2578 22.457 42.3515V30.6052H25.5399V42.3515C25.5399 43.2578 26.2958 43.9993 27.2196 43.9993C28.1435 43.9993 28.8993 43.2578 28.8993 42.3515V18.8578Z" stroke="#333333" stroke-width="2" stroke-linejoin="round"/>
<path d="M28.0001 8.00181C28.0001 10.2119 26.2092 12.0036 24.0001 12.0036C21.7909 12.0036 20 10.2119 20 8.00181C20 5.79167 21.7909 4 24.0001 4C26.2092 4 28.0001 5.79167 28.0001 8.00181Z" stroke="#333333" stroke-width="2" stroke-linejoin="round"/>
</svg>
