<svg width="48" height="48" viewBox="0 0 48 48" fill="none" xmlns="http://www.w3.org/2000/svg">
<path d="M43 4C43 3.44772 42.5523 3 42 3C41.4477 3 41 3.44772 41 4V6C41 6.55228 41.4477 7 42 7C42.5523 7 43 6.55228 43 6V4Z" fill="#333333"/>
<path d="M37.2929 5.29289C37.6834 4.90237 38.3166 4.90237 38.7071 5.29289L39.7071 6.29289C40.0976 6.68342 40.0976 7.31658 39.7071 7.70711C39.3166 8.09763 38.6834 8.09763 38.2929 7.70711L37.2929 6.70711C36.9024 6.31658 36.9024 5.68342 37.2929 5.29289Z" fill="#333333"/>
<path d="M16.9251 34.3797C16.717 34.8869 16.1386 35.1325 15.6286 34.9285C15.1158 34.7234 14.8664 34.1414 15.0715 33.6286L15.9972 33.9989C15.0715 33.6286 15.0721 33.6273 15.0721 33.6273L15.0726 33.6259L15.0739 33.6229L15.0768 33.6156L15.0847 33.5968C15.0909 33.5823 15.0989 33.564 15.1088 33.5422C15.1285 33.4986 15.156 33.4408 15.192 33.3708C15.2639 33.2309 15.3703 33.0418 15.518 32.8203C15.8133 32.3773 16.2756 31.802 16.9598 31.2318C18.3443 30.0781 20.5723 29 24 29C27.4278 29 29.6558 30.0781 31.0402 31.2318C31.7245 31.802 32.1867 32.3773 32.4821 32.8203C32.6298 33.0418 32.7361 33.2309 32.8081 33.3708C32.844 33.4408 32.8715 33.4986 32.8913 33.5422L32.9056 33.5744L32.9153 33.5968L32.9232 33.6156L32.9262 33.6229L32.9274 33.6259L32.928 33.6273C32.928 33.6273 32.9285 33.6286 32 34L32.9285 33.6286C33.1336 34.1414 32.8842 34.7234 32.3714 34.9285C31.8614 35.1325 31.283 34.8869 31.0749 34.3798L31.0697 34.368C31.0629 34.353 31.0497 34.3249 31.0295 34.2855C30.9889 34.2066 30.9203 34.0832 30.818 33.9297C30.6133 33.6227 30.2756 33.198 29.7598 32.7682C28.7443 31.9219 26.9723 31 24 31C21.0278 31 19.2558 31.9219 18.2402 32.7682C17.7245 33.198 17.3867 33.6227 17.1821 33.9297C17.0798 34.0832 17.0111 34.2066 16.9706 34.2855C16.9503 34.3249 16.9371 34.353 16.9303 34.368L16.9251 34.3797Z" fill="#333333"/>
<path d="M18.5547 19.8322C19.0143 19.5258 19.1384 18.9049 18.8321 18.4454C18.5257 17.9859 17.9049 17.8617 17.4453 18.1681C16.0091 19.1255 15.0887 19.5831 13.6838 20.0514C13.1599 20.2261 12.8767 20.7924 13.0513 21.3163C13.226 21.8403 13.7923 22.1234 14.3163 21.9488C15.9114 21.4171 16.9909 20.8747 18.5547 19.8322Z" fill="#333333"/>
<path d="M29.1679 18.4454C28.8616 18.9049 28.9857 19.5258 29.4453 19.8322C31.0091 20.8747 32.0886 21.4171 33.6837 21.9488C34.2077 22.1234 34.774 21.8403 34.9487 21.3163C35.1233 20.7924 34.8401 20.2261 34.3162 20.0514C32.9113 19.5831 31.9909 19.1255 30.5547 18.1681C30.0951 17.8617 29.4743 17.9859 29.1679 18.4454Z" fill="#333333"/>
<path d="M10 30C10.5523 30 11 29.5523 11 29C11 28.4477 10.5523 28 10 28C9.44772 28 9 28.4477 9 29C9 29.5523 9.44772 30 10 30Z" fill="#333333"/>
<path d="M14 26C14 26.5523 13.5523 27 13 27C12.4477 27 12 26.5523 12 26C12 25.4477 12.4477 25 13 25C13.5523 25 14 25.4477 14 26Z" fill="#333333"/>
<path d="M22 15C22.5523 15 23 14.5523 23 14C23 13.4477 22.5523 13 22 13C21.4477 13 21 13.4477 21 14C21 14.5523 21.4477 15 22 15Z" fill="#333333"/>
<path d="M27 12C27 12.5523 26.5523 13 26 13C25.4477 13 25 12.5523 25 12C25 11.4477 25.4477 11 26 11C26.5523 11 27 11.4477 27 12Z" fill="#333333"/>
<path d="M30 14C30.5523 14 31 13.5523 31 13C31 12.4477 30.5523 12 30 12C29.4477 12 29 12.4477 29 13C29 13.5523 29.4477 14 30 14Z" fill="#333333"/>
<path d="M35 12C35 12.5523 34.5523 13 34 13C33.4477 13 33 12.5523 33 12C33 11.4477 33.4477 11 34 11C34.5523 11 35 11.4477 35 12Z" fill="#333333"/>
<path d="M20 10C20.5523 10 21 9.55228 21 9C21 8.44772 20.5523 8 20 8C19.4477 8 19 8.44772 19 9C19 9.55228 19.4477 10 20 10Z" fill="#333333"/>
<path d="M14 13C14 13.5523 13.5523 14 13 14C12.4477 14 12 13.5523 12 13C12 12.4477 12.4477 12 13 12C13.5523 12 14 12.4477 14 13Z" fill="#333333"/>
<path d="M29 10C29.5523 10 30 9.55228 30 9C30 8.44772 29.5523 8 29 8C28.4477 8 28 8.44772 28 9C28 9.55228 28.4477 10 29 10Z" fill="#333333"/>
<path d="M13 32C13 32.5523 12.5523 33 12 33C11.4477 33 11 32.5523 11 32C11 31.4477 11.4477 31 12 31C12.5523 31 13 31.4477 13 32Z" fill="#333333"/>
<path d="M36 18C36.5523 18 37 17.5523 37 17C37 16.4477 36.5523 16 36 16C35.4477 16 35 16.4477 35 17C35 17.5523 35.4477 18 36 18Z" fill="#333333"/>
<path d="M19 12C19 12.5523 18.5523 13 18 13C17.4477 13 17 12.5523 17 12C17 11.4477 17.4477 11 18 11C18.5523 11 19 11.4477 19 12Z" fill="#333333"/>
<path d="M24 10C24.5523 10 25 9.55228 25 9C25 8.44772 24.5523 8 24 8C23.4477 8 23 8.44772 23 9C23 9.55228 23.4477 10 24 10Z" fill="#333333"/>
<path d="M36 28C36 28.5523 35.5523 29 35 29C34.4477 29 34 28.5523 34 28C34 27.4477 34.4477 27 35 27C35.5523 27 36 27.4477 36 28Z" fill="#333333"/>
<path d="M9 25C9.55228 25 10 24.5523 10 24C10 23.4477 9.55228 23 9 23C8.44772 23 8 23.4477 8 24C8 24.5523 8.44772 25 9 25Z" fill="#333333"/>
<path d="M39 31C39 31.5523 38.5523 32 38 32C37.4477 32 37 31.5523 37 31C37 30.4477 37.4477 30 38 30C38.5523 30 39 30.4477 39 31Z" fill="#333333"/>
<path fill-rule="evenodd" clip-rule="evenodd" d="M38.81 10.5587C39.0234 9.11106 40.2709 8 41.7778 8C43.4346 8 44.7778 9.34315 44.7778 11V21.0455C46.1178 21.9225 47 23.4161 47 25.1111C47 27.4337 45.3436 29.378 43.1228 29.8762C40.6128 38.0543 33.0007 44 24 44C12.9543 44 4 35.0457 4 24C4 12.9543 12.9543 4 24 4C29.871 4 35.1512 6.52975 38.81 10.5587ZM42.7778 11V14.5186H40.7778V11C40.7778 10.4477 41.2255 10 41.7778 10C42.3301 10 42.7778 10.4477 42.7778 11ZM38.7778 13.7202C35.5255 9.05362 30.1194 6 24 6C14.0589 6 6 14.0589 6 24C6 33.9411 14.0589 42 24 42C31.8731 42 38.5656 36.9453 41.0094 29.9041C38.7225 29.4546 37 27.4796 37 25.1111C37 23.6114 37.6906 22.2695 38.7778 21.3727V13.7202Z" fill="#333333"/>
<path d="M46.7071 5.29289C46.3166 4.90237 45.6834 4.90237 45.2929 5.29289L44.2929 6.29289C43.9024 6.68342 43.9024 7.31658 44.2929 7.70711C44.6834 8.09763 45.3166 8.09763 45.7071 7.70711L46.7071 6.70711C47.0976 6.31658 47.0976 5.68342 46.7071 5.29289Z" fill="#333333"/>
</svg>
