<svg width="47" height="48" viewBox="0 0 47 48" fill="none" xmlns="http://www.w3.org/2000/svg">
<path d="M26.2191 19.8935C26.9939 19.8935 27.7508 19.6641 28.3907 19.2353C29.0405 19.6633 29.8073 19.8877 30.5897 19.8788L33.0753 18.991C33.7757 18.4243 34.2565 17.6387 34.4373 16.7656C34.6181 15.8926 34.4878 14.9851 34.0684 14.195C33.649 13.4049 32.9657 12.7802 32.1331 12.4254C31.943 11.5801 31.4642 10.8241 30.776 10.2828L28.3498 9.44937H28.0766C27.537 8.67651 26.7268 8.12522 25.8001 7.90031L20.5983 7.61328C19.7337 7.6838 18.9184 8.03777 18.2836 8.61824C17.9836 8.54883 17.6766 8.51285 17.3685 8.51099C16.6223 8.5125 15.8925 8.72595 15.2672 9.12558C14.6419 9.52521 14.1478 10.0939 13.8446 10.7631L11.8682 12.1373C11.3764 12.7913 11.1116 13.5831 11.1129 14.396C11.1081 14.7359 11.1541 15.0746 11.2495 15.4014C10.731 16.0618 10.4522 16.8733 10.4573 17.7071C10.4561 18.6741 10.8325 19.6048 11.509 20.3077C11.5636 21.0001 11.8101 21.6645 12.2218 22.2292C12.6334 22.794 13.1946 23.2374 13.8446 23.5116C14.5935 23.9725 15.2277 24.5922 15.7004 25.3253C16.1732 26.0584 16.4724 26.8862 16.5763 27.7477H20.264V23.7261C20.2631 23.0121 20.4661 22.312 20.8499 21.7055C21.2338 21.0989 21.7831 20.61 22.4357 20.2943C23.0472 20.0647 23.5981 19.7027 24.0474 19.2353C24.6873 19.6641 25.4442 19.8935 26.2191 19.8935Z" fill="#333333"/>
<path d="M20.264 32.748H16.6992V30.8444H20.264V32.748Z" fill="#333333"/>
<path d="M16.6992 36.85H20.264V34.9599H16.6992V36.85Z" fill="#333333"/>
<path d="M16.6992 40.9789H20.264V39.0753H16.6992V40.9789Z" fill="#333333"/>
<path d="M32.5 25C33.3284 25 34 24.3284 34 23.5C34 22.6716 33.3284 22 32.5 22C31.6716 22 31 22.6716 31 23.5C31 24.3284 31.6716 25 32.5 25Z" fill="#333333"/>
<path fill-rule="evenodd" clip-rule="evenodd" d="M38.8783 24.8972C38.8783 24.8972 41.4744 27.3053 41.1321 29.2373C40.7897 31.1693 37.4091 31.7013 37.4091 31.7013C37.4091 39.5071 30.18 39.5869 26.5713 39.1405C25.3711 38.992 24.5713 38.7853 24.5713 38.7853V42.2993C24.5713 42.2993 23.7155 45.0993 18.8656 45.0993C17.5881 45.2036 16.3086 44.9214 15.1993 44.2907C14.09 43.66 13.2041 42.711 12.6607 41.5713V32.8773C9.00907 30.0633 5.172 24.2252 5.172 19.3112C5.172 15.2269 6.82511 11.3098 9.76768 8.42172C12.7102 5.53365 16.7012 3.91115 20.8626 3.91115C24.0404 3.90761 27.1806 4.58612 30.0631 5.89916C32.3347 6.83803 34.3235 8.33216 35.8401 10.2392C37.225 12.2425 37.9926 14.595 38.051 17.0152C38.0634 17.5609 38.0563 18.127 38.0491 18.7034C38.0232 20.7889 37.9955 23.0108 38.8783 24.8972ZM37.2322 26.0983L37.0669 25.7449C36.3407 24.1933 36.1289 22.5482 36.0654 21.085C36.0334 20.3479 36.0382 19.6189 36.046 18.948L36.0493 18.6754C36.0565 18.0963 36.063 17.5694 36.0516 17.0619C36.0028 15.0565 35.3731 13.1035 34.2326 11.4314C32.9349 9.81788 31.2385 8.54908 29.2991 7.7475L29.2663 7.73394L29.234 7.71922C26.6134 6.52548 23.7568 5.90792 20.8649 5.91115L20.8626 5.91115C17.2197 5.91115 13.7334 7.33184 11.1686 9.84909C8.60514 12.3651 7.172 15.7695 7.172 19.3112C7.172 21.2884 7.96098 23.6235 9.27429 25.8736C10.5786 28.1081 12.2875 30.0647 13.8815 31.2931L14.6607 31.8936V41.0715C15.0286 41.6791 15.5523 42.1908 16.1878 42.5521C16.946 42.9832 17.824 43.1777 18.7029 43.106L18.7841 43.0993H18.8656C20.8778 43.0993 21.826 42.5304 22.2388 42.178C22.3946 42.0451 22.5012 41.92 22.5713 41.823V36.2027L25.0683 36.848L25.0694 36.8483L25.0718 36.8489L25.0848 36.8521C25.1009 36.8561 25.1283 36.8627 25.1665 36.8715C25.2428 36.8892 25.3615 36.9156 25.5163 36.9466C25.8267 37.0089 26.2781 37.0891 26.8222 37.1563C27.9265 37.2926 29.3368 37.3652 30.7 37.1652C32.0745 36.9636 33.2261 36.5117 34.0205 35.7515C34.7621 35.0418 35.4091 33.8573 35.4091 31.7013V29.9914L37.0907 29.7268L37.1008 29.725L37.1237 29.7209C37.1358 29.7187 37.1509 29.7158 37.1689 29.7123C37.2343 29.6994 37.3353 29.6781 37.4605 29.647C37.7168 29.5833 38.0448 29.486 38.365 29.351C38.6971 29.2109 38.9391 29.0642 39.084 28.9365C39.1237 28.9015 39.1482 28.8753 39.1627 28.8579C39.1602 28.8052 39.1443 28.683 39.0626 28.4748C38.9489 28.1851 38.7556 27.8523 38.5095 27.51C38.2689 27.1751 38.0131 26.8797 37.8141 26.6657C37.7161 26.5603 37.6354 26.4785 37.5821 26.4258L37.5448 26.3892L37.5249 26.37L37.5182 26.3636L37.2322 26.0983Z" fill="#333333"/>
</svg>
