<svg width="47" height="48" viewBox="0 0 47 48" fill="none" xmlns="http://www.w3.org/2000/svg">
<path d="M38.0552 25.4978L37.9725 25.3211C37.3277 23.9433 37.1255 22.4504 37.0643 21.0416C37.0336 20.3344 37.038 19.6296 37.0458 18.9596C37.0469 18.8688 37.048 18.7787 37.0491 18.6895C37.0563 18.1114 37.0631 17.5648 37.0511 17.0379L38.0552 25.4978ZM38.0552 25.4978L38.1973 25.6296M38.0552 25.4978L38.1973 25.6296M38.1973 25.6296L38.1973 25.6296M38.1973 25.6296L38.1973 25.6296M38.1973 25.6296L38.1976 25.6299M38.1973 25.6296L38.1976 25.6299M38.1976 25.6299L38.1979 25.6301M38.1976 25.6299L38.1979 25.6301M38.1979 25.6301L38.1982 25.6304M38.1979 25.6301L38.1982 25.6304M38.1982 25.6304L38.2001 25.6323L38.216 25.6474C38.2311 25.6618 38.2547 25.6846 38.2855 25.7151C38.3473 25.7763 38.4377 25.868 38.5462 25.9847C38.7648 26.2197 39.0496 26.5481 39.3214 26.9264C39.596 27.3084 39.8389 27.7158 39.9934 28.1094C40.15 28.5085 40.1893 28.8255 40.1473 29.0628C40.074 29.4765 39.612 29.9103 38.7535 30.2724C38.3714 30.4335 37.9908 30.5456 37.7015 30.6175C37.5583 30.653 37.4411 30.6779 37.3619 30.6935C37.3223 30.7012 37.2925 30.7067 37.2739 30.7099L37.2546 30.7132L37.2535 30.7134L37.2531 30.7135L37.2527 30.7136L37.2521 30.7137L37.2518 30.7137L36.409 30.8463V31.7013C36.409 34.0796 35.6843 35.5433 34.7117 36.474C33.7128 37.4299 32.3346 37.9361 30.845 38.1546C29.361 38.3723 27.8535 38.2911 26.6996 38.1487C26.1267 38.078 25.6502 37.9934 25.3195 37.9271C25.1543 37.894 25.0261 37.8655 24.9409 37.8458C24.8983 37.8359 24.8665 37.8283 24.8464 37.8233L24.8249 37.818L24.8214 37.8171L24.8209 37.817L24.8206 37.8169L23.5712 37.494V38.7853V42.0998C23.5536 42.135 23.5308 42.1776 23.5021 42.2259C23.3947 42.4065 23.2043 42.6686 22.8879 42.9387C22.2714 43.4649 21.084 44.0993 18.8655 44.0993H18.8248L18.7842 44.1026C17.7059 44.1907 16.6272 43.9523 15.6934 43.4214C14.8238 42.927 14.1201 42.2017 13.6606 41.3345V32.8773V32.3854L13.271 32.0852C11.5611 30.7675 9.77051 28.7077 8.41052 26.3777C7.046 24.0399 6.17188 21.5283 6.17188 19.3112C6.17188 15.4982 7.715 11.8374 10.468 9.13541C13.2217 6.43275 16.9603 4.91115 20.8625 4.91115L20.8636 4.91115C23.8985 4.90777 26.8969 5.5558 29.6484 6.80919L29.6645 6.81655L29.681 6.82333C31.7865 7.69358 33.6291 9.07506 35.0363 10.8353C36.2988 12.6729 36.9974 14.8253 37.0511 17.0378L38.1982 25.6304Z" stroke="#333333" stroke-width="2"/>
<path d="M16.6992 40.9789H20.264V39.0753H16.6992V40.9789Z" fill="#333333"/>
<path d="M16.6992 36.85H20.264V34.9599H16.6992V36.85Z" fill="#333333"/>
<path d="M16.6992 32.748H20.264V30.8444H16.6992V31.2734V32.748Z" fill="#333333"/>
<path d="M26.2191 19.8935C26.9939 19.8935 27.7508 19.6641 28.3907 19.2353C29.0405 19.6633 29.8073 19.8877 30.5897 19.8788L33.0753 18.991C33.7757 18.4243 34.2565 17.6387 34.4373 16.7656C34.6181 15.8926 34.4878 14.9851 34.0684 14.195C33.649 13.4049 32.9657 12.7802 32.1331 12.4254C31.943 11.5801 31.4642 10.8241 30.776 10.2828L28.3498 9.44937H28.0766C27.537 8.67651 26.7268 8.12522 25.8001 7.90031L20.5983 7.61328C19.7337 7.6838 18.9184 8.03777 18.2836 8.61824C17.9836 8.54883 17.6766 8.51285 17.3685 8.51099C16.6223 8.5125 15.8925 8.72595 15.2672 9.12558C14.6419 9.52521 14.1478 10.0939 13.8446 10.7631L11.8682 12.1373C11.3764 12.7913 11.1116 13.5831 11.1129 14.396C11.1081 14.7359 11.1541 15.0746 11.2495 15.4014C10.731 16.0618 10.4522 16.8733 10.4573 17.7071C10.4561 18.6741 10.8325 19.6048 11.509 20.3077C11.5636 21.0001 11.8101 21.6645 12.2218 22.2292C12.6334 22.794 13.1946 23.2374 13.8446 23.5116C14.5935 23.9725 15.2277 24.5922 15.7004 25.3253C16.1732 26.0584 16.4724 26.8862 16.5763 27.7477H20.264V23.7261C20.2631 23.0121 20.4661 22.312 20.8499 21.7055C21.2338 21.0989 21.7831 20.61 22.4357 20.2943C23.0472 20.0647 23.5981 19.7027 24.0474 19.2353C24.6873 19.6641 25.4442 19.8935 26.2191 19.8935Z" fill="#333333"/>
<circle cx="32.5" cy="23.5" r="1.5" fill="#333333"/>
</svg>
