<svg width="48" height="48" viewBox="0 0 48 48" fill="none" xmlns="http://www.w3.org/2000/svg">
<path d="M33.6554 20.7505H25.4825V40.3654C25.4825 41.2644 24.747 42 23.848 42C22.9489 42 22.2134 41.2644 22.2134 40.3654V32.1926H18.9442V40.3654C18.9442 41.2644 18.2087 42 17.3097 42C16.4106 42 15.6751 41.2644 15.6751 40.3654V20.7505V28.2167C14.7761 28.2167 12 26.5056 12 22.2918C12 19.116 14.7761 17.4814 15.6751 17.4814H33.6554C34.5544 17.4814 35.29 18.2169 35.29 19.116C35.29 20.015 34.5544 20.7505 33.6554 20.7505Z" stroke="#333333" stroke-width="2"/>
<path d="M34 11V41H32V11C32.9104 11 32.9104 11.0003 34 11Z" fill="#333333"/>
<path d="M26 15C26 13.3431 29.134 12 33 12C36.866 12 40 13.3431 40 15C35 13.5 31.5 13.5 26 15Z" fill="#333333"/>
<path fill-rule="evenodd" clip-rule="evenodd" d="M26 11H24.5448C24.7403 11.4885 24.848 12.021 24.848 12.5777C24.848 14.9281 22.9292 16.8469 20.5788 16.8469C18.2285 16.8469 16.3097 14.9281 16.3097 12.5777C16.3097 12.021 16.4173 11.4885 16.6129 11H15C15 8.23858 17.4624 6 20.5 6C23.5376 6 26 8.23858 26 11ZM22.2042 11H18.9535C18.5558 11.4095 18.3097 11.9669 18.3097 12.5777C18.3097 13.8235 19.3331 14.8469 20.5788 14.8469C21.8246 14.8469 22.848 13.8235 22.848 12.5777C22.848 11.9669 22.6019 11.4095 22.2042 11ZM20.5 10C21.3284 10 22 9.32843 22 8.5C22 7.67157 21.3284 7 20.5 7C19.6716 7 19 7.67157 19 8.5C19 9.32843 19.6716 10 20.5 10Z" fill="#333333"/>
</svg>
