<svg width="48" height="48" viewBox="0 0 48 48" fill="none" xmlns="http://www.w3.org/2000/svg">
<path fill-rule="evenodd" clip-rule="evenodd" d="M24.5448 11H26C26 8.23858 23.5376 6 20.5 6C17.4624 6 15 8.23858 15 11H16.6129C16.4173 11.4885 16.3097 12.021 16.3097 12.5777C16.3097 14.3148 17.3579 15.8162 18.8537 16.4814H15.6751C15.2132 16.4814 14.7007 16.6681 14.257 16.9009C13.7821 17.1501 13.269 17.5134 12.7936 17.9883C11.8378 18.9432 11 20.3889 11 22.2919C11 24.633 11.7764 26.3434 12.7365 27.4798C13.2116 28.0422 13.7299 28.462 14.2165 28.7467C14.3637 28.8328 14.5178 28.9122 14.6751 28.9804V40.3655C14.6751 41.8168 15.8584 43.0001 17.3097 43.0001C18.761 43.0001 19.9442 41.8168 19.9442 40.3655V33.1926H21.2134V40.3655C21.2134 41.8168 22.3967 43.0001 23.848 43.0001C25.2993 43.0001 26.4825 41.8168 26.4825 40.3655V21.7506H32V41H34V21.7281C35.2894 21.5585 36.29 20.4506 36.29 19.116C36.29 17.7815 35.2894 16.6736 34 16.5039V13.8923C35.9083 13.9739 37.8103 14.3431 40 15C40 13.4887 37.3923 12.2383 34 12.0304V11C33.3427 11.0002 33.0819 11.0001 32.7786 11.0001L32 11V12.0304C28.6077 12.2383 26 13.4887 26 15C28.256 14.3847 30.1755 14.0218 32 13.9113V16.4814H22.304C23.7998 15.8162 24.848 14.3148 24.848 12.5777C24.848 12.021 24.7403 11.4885 24.5448 11ZM18.9535 11H22.2042C22.6019 11.4095 22.848 11.9669 22.848 12.5777C22.848 13.8235 21.8246 14.8469 20.5788 14.8469C19.3331 14.8469 18.3097 13.8235 18.3097 12.5777C18.3097 11.9669 18.5558 11.4095 18.9535 11ZM22 8.5C22 9.32843 21.3284 10 20.5 10C19.6716 10 19 9.32843 19 8.5C19 7.67157 19.6716 7 20.5 7C21.3284 7 22 7.67157 22 8.5ZM32 18.4814H15.6751C15.6767 18.4814 15.6752 18.4817 15.6705 18.4827C15.6398 18.4887 15.4726 18.5217 15.1862 18.672C14.8876 18.8286 14.5382 19.0724 14.2072 19.4032C13.5502 20.0595 13 21.019 13 22.2919C13 24.1645 13.6116 25.4166 14.2643 26.1891C14.4007 26.3506 14.5392 26.4915 14.6751 26.6132V20.7506H16.6751V40.3655C16.6751 40.7122 16.9629 41.0001 17.3097 41.0001C17.6564 41.0001 17.9442 40.7122 17.9442 40.3655V31.1926H23.2134V40.3655C23.2134 40.7122 23.5012 41.0001 23.848 41.0001C24.1947 41.0001 24.4825 40.7122 24.4825 40.3655V19.7506H32V18.4814ZM34 18.5851C34.1737 18.6991 34.29 18.8957 34.29 19.116C34.29 19.3364 34.1737 19.5329 34 19.6469V18.5851Z" fill="#333333"/>
</svg>
