<svg width="48" height="48" viewBox="0 0 48 48" fill="none" xmlns="http://www.w3.org/2000/svg">
<path fill-rule="evenodd" clip-rule="evenodd" d="M17.5833 21.326V43.3726C17.5833 44.8239 18.7665 46.0072 20.2178 46.0072C21.6691 46.0072 22.8524 44.8239 22.8524 43.3726V31.7207H25.1216V43.3726C25.1216 44.8239 26.3048 46.0072 27.7561 46.0072C29.2074 46.0072 30.3907 44.8239 30.3907 43.3726V24.5084C30.548 24.4403 30.7021 24.3609 30.8493 24.2748C31.3359 23.99 31.8542 23.5702 32.3293 23.0079C33.2894 21.8714 34.0658 20.1611 34.0658 17.82C34.0658 15.917 33.228 14.4713 32.2722 13.5163C31.7968 13.0414 31.2837 12.6781 30.8088 12.429C30.3651 12.1962 29.8526 12.0095 29.3907 12.0095H26.9878C28.2092 11.0979 29 9.64129 29 8C29 5.23858 26.7615 3 24 3C21.2386 3 19 5.23858 19 8C19 9.42096 19.5928 10.7035 20.5445 11.6138L20.2714 12.011H19.5001C18.3288 12.011 17.3145 12.8242 17.0599 13.9675L16.06 18.4567C15.7997 19.6252 16.4043 20.8143 17.502 21.2923C17.529 21.3041 17.5561 21.3153 17.5833 21.326ZM24 5C22.3432 5 21 6.34315 21 8C21 8.7347 21.2641 9.40772 21.7026 9.9293L21.94 9.58391C22.7223 8.44615 24.2787 8.15792 25.4165 8.94013C25.8028 9.20574 26.0912 9.56061 26.273 9.95806C26.7261 9.43258 27 8.74828 27 8C27 6.34315 25.6569 5 24 5ZM24.9651 14.0095L20.5603 20.4166C20.3058 20.7867 19.9662 21.0697 19.5833 21.2535V43.3726C19.5833 43.7193 19.8711 44.0072 20.2178 44.0072C20.5646 44.0072 20.8524 43.7193 20.8524 43.3726V29.7207H27.1216V43.3726C27.1216 43.7193 27.4094 44.0072 27.7561 44.0072C28.1029 44.0072 28.3907 43.7193 28.3907 43.3726V24.7345H25.5C24.1193 24.7345 23 23.6153 23 22.2345C23 20.8538 24.1193 19.7345 25.5 19.7345H30V21.7345H25.5C25.2239 21.7345 25 21.9584 25 22.2345C25 22.5107 25.2239 22.7345 25.5 22.7345H29.4258C29.4895 22.7171 29.6305 22.6707 29.8392 22.5486C30.126 22.3808 30.4702 22.1094 30.8015 21.7172C31.4542 20.9447 32.0658 19.6925 32.0658 17.82C32.0658 16.547 31.5156 15.5876 30.8586 14.9312C30.5276 14.6005 30.1782 14.3567 29.8796 14.2001C29.5932 14.0498 29.426 14.0168 29.3953 14.0107C29.3906 14.0098 29.3907 14.0095 29.3907 14.0095H24.9651ZM24.2834 10.5882C24.0559 10.4318 23.7446 10.4894 23.5881 10.717L21.3235 14.011H19.5001C19.2658 14.011 19.063 14.1737 19.0121 14.4023L18.0121 18.8915C17.9601 19.1252 18.081 19.363 18.3005 19.4586C18.52 19.5543 18.7765 19.4808 18.9122 19.2835L24.4122 11.2835C24.5686 11.0559 24.511 10.7447 24.2834 10.5882Z" fill="#333333"/>
</svg>
