<svg width="48" height="48" viewBox="0 0 48 48" fill="none" xmlns="http://www.w3.org/2000/svg">
<path fill-rule="evenodd" clip-rule="evenodd" d="M11.7869 11.0939C12.2154 10.2242 12.9136 9.48499 13.7973 8.96558C14.6809 8.44617 15.7122 8.16874 16.7667 8.16679C17.2022 8.1692 17.636 8.21596 18.0599 8.30617C18.957 7.55172 20.1092 7.09165 21.3311 7L28.682 7.37306C29.9916 7.66539 31.1365 8.38192 31.8991 9.38643H32.2852L35.7138 10.4696C36.6863 11.1732 37.3631 12.1558 37.6317 13.2544C38.8083 13.7156 39.7738 14.5276 40.3666 15.5545C40.9593 16.5814 41.1433 17.7609 40.8879 18.8956C40.6324 20.0304 39.9529 21.0515 38.9631 21.788L35.4506 22.9419C34.3449 22.9535 33.2613 22.6619 32.3431 22.1056C31.4387 22.6629 30.3691 22.961 29.2741 22.961C28.4462 22.961 28.2045 22.7906 27.7449 22.4666C27.5967 22.3621 27.4257 22.2414 27.2052 22.1056C26.9513 22.3485 26.8343 22.5695 26.7301 22.7663C26.5738 23.0618 26.4462 23.3029 25.9276 23.482C25.0054 23.8923 24.229 24.5277 23.6866 25.3161C23.1441 26.1045 22.8573 27.0143 22.8586 27.9424V33.1695H15.6472C15.5005 32.0497 15.0775 30.9738 14.4095 30.021C13.7414 29.0681 12.8453 28.2626 11.7869 27.6636C10.8684 27.3072 10.0753 26.7309 9.49354 25.9969C8.91178 25.2629 8.56348 24.3993 8.48632 23.4994C7.53023 22.5858 6.99836 21.3761 7.0001 20.1193C6.99279 19.0356 7.38681 17.9808 8.11959 17.1224C7.98474 16.6977 7.9197 16.2575 7.92658 15.8157C7.92474 14.7592 8.29887 13.7301 8.99387 12.88L11.7869 11.0939ZM9.92657 15.8122L9.9266 15.8295L9.92633 15.8468C9.92285 16.0709 9.95569 16.2963 10.0258 16.5171L10.362 17.576L9.64071 18.4209C9.2059 18.9303 8.99613 19.5241 9.00005 20.1057L9.00011 20.1139L9.0001 20.122C8.99916 20.8005 9.28441 21.4957 9.86808 22.0535L10.4144 22.5756L10.479 23.3285C10.5213 23.8221 10.7135 24.3161 11.0609 24.7545C11.4101 25.195 11.9055 25.5644 12.5104 25.799L12.6457 25.8515L12.772 25.923C14.0772 26.6617 15.2005 27.6654 16.0471 28.8727C16.547 29.5858 16.942 30.3582 17.2209 31.1694H17.659V24.4039L15.6311 22.6013L14.2525 23.9799C13.862 24.3704 13.2288 24.3704 12.8383 23.9799C12.4477 23.5894 12.4477 22.9562 12.8383 22.5657L14.5132 20.8907L14.0145 18.1481L11.7345 17.0081C11.2405 16.7611 11.0403 16.1604 11.2873 15.6665C11.5343 15.1725 12.135 14.9723 12.629 15.2192L14.85 16.3298L17.5412 14.6172L16.7 12.3739C16.5061 11.8567 16.7681 11.2803 17.2852 11.0864C17.8023 10.8925 18.3787 11.1545 18.5726 11.6716L19.48 14.0912H20.4274L20.8877 13.1706L20.1263 11.3939C19.9087 10.8863 20.1439 10.2984 20.6515 10.0809C21.1591 9.86331 21.747 10.0985 21.9646 10.6061L22.6173 12.1292L25.2016 12.599L26.898 11.2419C27.3293 10.8969 27.9586 10.9668 28.3036 11.398C28.6486 11.8293 28.5787 12.4586 28.1474 12.8036L27.0495 13.6819L28.2272 15.196L28.6737 14.3028C28.8431 13.964 29.1894 13.75 29.5682 13.75H31.6136C32.1659 13.75 32.6136 14.1977 32.6136 14.75C32.6136 15.3023 32.1659 15.75 31.6136 15.75H30.1862L29.9784 16.1655L31.4897 16.5014C31.5695 16.5191 31.6468 16.5466 31.7199 16.5831L33.0836 17.2649C33.5776 17.5119 33.7778 18.1126 33.5308 18.6066C33.2838 19.1006 32.6831 19.3008 32.1891 19.0538L30.9356 18.427L27.9876 17.7719C27.7605 17.7214 27.558 17.5933 27.4152 17.4097L25.2634 14.6431L22.6845 14.1742C22.6542 14.1978 22.6223 14.2199 22.5889 14.2402L22.0454 15.3273V15.7955H23.0909C23.2461 15.7955 23.3992 15.8316 23.5381 15.9011L26.2654 17.2647C26.7593 17.5117 26.9596 18.1124 26.7126 18.6063C26.4656 19.1003 25.8649 19.3005 25.3709 19.0536L22.8548 17.7955H22.0454V19.1821C22.0454 19.7344 21.5977 20.1821 21.0454 20.1821C20.4931 20.1821 20.0454 19.7344 20.0454 19.1821V16.0912H18.9502L16.0132 17.9602L16.513 20.7093L19.3234 23.2074C19.5369 23.3972 19.659 23.6692 19.659 23.9549V31.1694H20.8586V27.9438L22.5 24L25.0343 21.6909C25.1738 21.4424 25.4365 21.0297 25.8226 20.6603L26.9391 19.5923L28.2545 20.4029C28.5285 20.5717 28.7421 20.7224 28.8913 20.8277L28.9084 20.8397C28.9872 20.8952 29.034 20.9279 29.0733 20.9539C29.1115 20.9573 29.1756 20.961 29.2741 20.961C30.0106 20.961 30.7149 20.7596 31.2938 20.4029L32.3342 19.7617L33.3794 20.395C33.895 20.7073 34.5069 20.8976 35.1505 20.9353L37.9939 20.0012C38.4945 19.5591 38.8108 19.0152 38.9367 18.4563C39.0795 17.8221 38.9814 17.1553 38.6344 16.5542C38.2839 15.947 37.6862 15.4239 36.9019 15.1165L35.9355 14.7377L35.6889 13.7295C35.5594 13.1997 35.25 12.685 34.7664 12.2677L31.9768 11.3864H30.9064L30.3062 10.5957C29.8745 10.0271 29.2074 9.57529 28.3943 9.36099L21.3679 9.00439C20.5888 9.0848 19.8822 9.38682 19.3472 9.83678L18.5993 10.4657L17.6436 10.2623C17.356 10.2011 17.0605 10.1689 16.763 10.1668C16.0556 10.1693 15.3772 10.3568 14.8107 10.6897C14.2435 11.0232 13.8268 11.4788 13.581 11.9778L13.3344 12.4783C11.6019 12.4609 10.3406 14.6936 9.92657 15.8122Z" fill="#333333"/>
<path d="M22.8586 37.6685H15.8209V35.1943H22.8586V37.6685Z" fill="#333333"/>
<path d="M22.8586 42.0001H15.8209V39.5433H22.8586V42.0001Z" fill="#333333"/>
</svg>
