<svg width="48" height="48" viewBox="0 0 48 48" fill="none" xmlns="http://www.w3.org/2000/svg">
<path d="M32.3386 20.9337L32.8612 21.2503C33.5749 21.6827 34.4192 21.9249 35.2923 21.9413L38.4886 20.8913C39.2308 20.2983 39.7229 19.5171 39.9123 18.676C40.1114 17.7915 39.9703 16.8684 39.5005 16.0544C39.0289 15.2373 38.2473 14.5697 37.2668 14.1855L36.7836 13.9961L36.6603 13.492C36.4627 12.6836 35.9755 11.9362 35.2504 11.372L32.131 10.3864H31.8991H31.4028L31.1027 9.9911C30.5072 9.20681 29.6037 8.62214 28.5429 8.36729L21.346 8.00205C20.3461 8.08902 19.4182 8.47046 18.7035 9.0715L18.3296 9.38597L17.8517 9.28427C17.496 9.20856 17.1313 9.16908 16.7649 9.16679C15.8839 9.16907 15.029 9.40151 14.304 9.82768C13.5786 10.2541 13.0211 10.8515 12.6839 11.5359L12.5606 11.7861L12.3256 11.9364L9.67478 13.6315C9.18099 14.2846 8.92524 15.0454 8.92657 15.8139L8.92659 15.8226L8.92645 15.8312C8.92128 16.1642 8.97021 16.4971 9.0727 16.8198L9.24081 17.3492L8.88015 17.7717C8.29636 18.4556 7.99446 19.2799 8.00008 20.1125L8.00013 20.1207H8.0001C7.99876 21.0883 8.40732 22.0408 9.1772 22.7765L9.45038 23.0375L9.48267 23.414C9.54241 24.1107 9.81262 24.7895 10.2772 25.3757C10.7427 25.963 11.3869 26.4358 12.1486 26.7314L12.2163 26.7576L12.2794 26.7934C13.4612 27.4622 14.471 28.3668 15.2283 29.4469C15.8129 30.2807 16.2349 31.202 16.4745 32.1695H21.8586L21.8586 27.9438C21.8586 27.9436 21.8586 27.9434 21.8586 27.9431V27.9424H22.8586C22.8573 27.0143 23.1441 26.1045 23.6866 25.3161C24.229 24.5277 25.0054 23.8923 25.9276 23.482L32.3386 20.9337ZM32.3386 20.9337L31.8184 21.2542C31.0768 21.7113 30.1899 21.961 29.2741 21.961C28.8323 21.961 28.7193 21.9034 28.6429 21.8622C28.571 21.8234 28.4922 21.7699 28.3322 21.6571L28.3177 21.6469C28.1694 21.5422 27.9771 21.4066 27.7298 21.2542L27.0721 20.8489L26.5139 21.383C26.1267 21.7534 25.9224 22.1482 25.8254 22.3356C25.8086 22.3682 25.795 22.3944 25.7842 22.4133C25.7637 22.4491 25.7525 22.4647 25.748 22.4703L32.3386 20.9337ZM25.7457 22.4728C25.7457 22.4727 25.7464 22.4718 25.7478 22.4705C25.7464 22.4723 25.7457 22.4729 25.7457 22.4728ZM25.7488 22.4696C25.7501 22.4686 25.7501 22.4687 25.7484 22.47L25.7488 22.4696ZM21.8586 40.5433V41H16.8209V40.5433H21.8586ZM21.8586 36.1943V36.6684H16.8209V36.1943H21.8586Z" stroke="#333333" stroke-width="2"/>
<path d="M18.6591 31.7502V23.9548L15.591 21.2275L14.9091 17.4775L18.6591 15.0911H21.0455M21.0455 15.0911V19.182M21.0455 15.0911L22.0683 13.0456L25.8183 13.7274L28.2046 16.7956L31.2728 17.4775L32.6365 18.1593" stroke="#333333" stroke-width="2" stroke-linecap="round" stroke-linejoin="round"/>
<path d="M27.5228 12.0227L25.8183 13.3864M31.6138 14.75H29.5683L28.5456 16.7955M17.6364 12.0227L18.6592 14.75M21.0455 11L22.0683 13.3864M12.1819 16.1137L14.9092 17.4773M25.8183 18.1591L23.091 16.7955H21.0455M13.5455 23.2728L15.591 21.2273" stroke="#333333" stroke-width="2" stroke-linecap="round" stroke-linejoin="round"/>
</svg>
