<svg width="48" height="48" viewBox="0 0 48 48" fill="none" xmlns="http://www.w3.org/2000/svg">
<path d="M17 22C18.1046 22 19 21.1046 19 20C19 18.8954 18.1046 18 17 18C15.8954 18 15 18.8954 15 20C15 21.1046 15.8954 22 17 22Z" fill="#333333"/>
<path d="M33 20C33 21.1046 32.1046 22 31 22C29.8954 22 29 21.1046 29 20C29 18.8954 29.8954 18 31 18C32.1046 18 33 18.8954 33 20Z" fill="#333333"/>
<path d="M17 30C16.4477 30 16 30.4477 16 31C16 31.5523 16.4477 32 17 32L31 32C31.5523 32 32 31.5523 32 31C32 30.4477 31.5523 30 31 30L17 30Z" fill="#333333"/>
<path fill-rule="evenodd" clip-rule="evenodd" d="M44 24C44 35.0457 35.0457 44 24 44C12.9543 44 4 35.0457 4 24C4 12.9543 12.9543 4 24 4C35.0457 4 44 12.9543 44 24ZM42 24C42 33.9411 33.9411 42 24 42C14.0589 42 6 33.9411 6 24C6 14.0589 14.0589 6 24 6C33.9411 6 42 14.0589 42 24Z" fill="#333333"/>
</svg>
