<svg width="48" height="48" viewBox="0 0 48 48" fill="none" xmlns="http://www.w3.org/2000/svg">
<path d="M17 22C18.1046 22 19 21.1046 19 20C19 18.8954 18.1046 18 17 18C15.8954 18 15 18.8954 15 20C15 21.1046 15.8954 22 17 22Z" fill="#333333"/>
<path d="M33 20C33 21.1046 32.1046 22 31 22C29.8954 22 29 21.1046 29 20C29 18.8954 29.8954 18 31 18C32.1046 18 33 18.8954 33 20Z" fill="#333333"/>
<path d="M18.5691 33.8223L18.5673 33.8235C18.1125 34.1365 17.4897 34.022 17.1765 33.5673C16.8631 33.1125 16.9779 32.4898 17.4327 32.1765L18 33C17.4327 32.1765 17.4334 32.176 17.4336 32.1758L17.4348 32.175L17.438 32.1728L17.4476 32.1663L17.4795 32.1449C17.5062 32.1272 17.5438 32.1025 17.5916 32.0718C17.6873 32.0106 17.8243 31.9254 17.9971 31.8243C18.3421 31.6225 18.8338 31.3552 19.4289 31.0878C20.6045 30.5597 22.2523 30 24 30C25.7476 30 27.3955 30.5597 28.5711 31.0878C29.1662 31.3552 29.6578 31.6225 30.0028 31.8243C30.1757 31.9254 30.3126 32.0106 30.4083 32.0718C30.4562 32.1025 30.4938 32.1272 30.5205 32.1449L30.5523 32.1663L30.5619 32.1728L30.5651 32.175L30.5673 32.1765L30.088 32.8723C30.3239 32.5297 30.4438 32.3559 30.5046 32.2676C30.5674 32.1766 30.5674 32.1766 30.5673 32.1765C31.0221 32.4898 31.1368 33.1125 30.8235 33.5673C30.5104 34.0217 29.8885 34.1366 29.4338 33.8243L29.4327 33.8235L29.4308 33.8223L29.4127 33.8101C29.3954 33.7986 29.3676 33.7803 29.33 33.7563C29.2549 33.7082 29.1408 33.6371 28.9931 33.5507C28.6969 33.3775 28.2693 33.1448 27.7514 32.9122C26.7012 32.4403 25.3491 32 24 32C22.6508 32 21.2987 32.4403 20.2485 32.9122C19.7307 33.1448 19.303 33.3775 19.0069 33.5507C18.8591 33.6371 18.7451 33.7082 18.6699 33.7563C18.6323 33.7803 18.6045 33.7986 18.5872 33.8101L18.5691 33.8223Z" fill="#333333"/>
<path fill-rule="evenodd" clip-rule="evenodd" d="M44 24C44 35.0457 35.0457 44 24 44C12.9543 44 4 35.0457 4 24C4 12.9543 12.9543 4 24 4C35.0457 4 44 12.9543 44 24ZM42 24C42 33.9411 33.9411 42 24 42C14.0589 42 6 33.9411 6 24C6 14.0589 14.0589 6 24 6C33.9411 6 42 14.0589 42 24Z" fill="#333333"/>
</svg>
