<svg width="48" height="48" viewBox="0 0 48 48" fill="none" xmlns="http://www.w3.org/2000/svg">
<path d="M17.1172 29.3289L16.8786 28.3578L17.1172 29.3289ZM17.1172 29.3289C17.1795 29.3136 17.4834 29.3239 18.1248 29.7162C18.7076 30.0726 19.3718 30.6216 20.0499 31.2601C21.1067 32.2552 22.0935 33.3653 22.7669 34.1228C22.9598 34.3398 23.127 34.5279 23.2627 34.676L23.9764 35.4549L24.715 34.6996C24.9286 34.4811 25.1973 34.1876 25.5095 33.8464C26.1734 33.1211 27.0344 32.1803 27.984 31.2863C28.6665 30.6438 29.3327 30.0884 29.9138 29.726C30.2038 29.5451 30.4427 29.4314 30.628 29.3728C30.8106 29.3151 30.883 29.3291 30.8831 29.329C30.8831 29.329 30.883 29.3289 30.8829 29.3289C33.525 29.9782 36.1232 30.952 38.0355 32.217C39.9694 33.4962 41 34.9283 41 36.4673V42.0007H7V36.4673C7 34.9283 8.03062 33.4962 9.96447 32.217C11.8769 30.9519 14.4751 29.9782 17.1172 29.3289Z" stroke="#333333" stroke-width="2"/>
<rect x="30" y="35" width="6" height="2" fill="#333333"/>
<rect x="32" y="39" width="6" height="2" transform="rotate(-90 32 39)" fill="#333333"/>
<path d="M24 4C21.5958 4 18.6807 4.78145 16.8328 5.36741C15.8028 5.69401 15.2858 6.80969 15.6454 7.82862L18 14.5C22 13 26 13 30 14.5L32.3546 7.82862C32.7142 6.80969 32.1972 5.69401 31.1672 5.36741C29.3193 4.78145 26.4042 4 24 4Z" stroke="#333333" stroke-width="2" stroke-linecap="round" stroke-linejoin="round"/>
<rect x="21" y="8" width="6" height="2" fill="#333333"/>
<rect x="23" y="12" width="6" height="2" transform="rotate(-90 23 12)" fill="#333333"/>
<path d="M30 13.708C31.2447 15.1183 32 16.9708 32 18.9997C32 23.4179 28.4183 26.9997 24 26.9997C19.5817 26.9997 16 23.4179 16 18.9997C16 16.9708 16.7553 15.1183 18 13.708" stroke="#333333" stroke-width="2" stroke-linejoin="round"/>
</svg>
