<svg width="48" height="48" viewBox="0 0 48 48" fill="none" xmlns="http://www.w3.org/2000/svg">
<path d="M17.1172 29.3284L16.8786 28.3573L17.1172 29.3284ZM17.1172 29.3284C17.1795 29.3131 17.4834 29.3234 18.1248 29.7157C18.7076 30.0721 19.3718 30.6212 20.0499 31.2597C21.1067 32.2548 22.0935 33.3649 22.7669 34.1224C22.9598 34.3394 23.127 34.5274 23.2627 34.6756L23.9764 35.4545L24.715 34.6991C24.9286 34.4806 25.1973 34.1871 25.5095 33.8459C26.1734 33.1207 27.0344 32.1799 27.984 31.2859C28.6665 30.6433 29.3327 30.088 29.9138 29.7255C30.2038 29.5447 30.4427 29.431 30.628 29.3724C30.8106 29.3147 30.883 29.3287 30.8831 29.3285C30.8831 29.3285 30.883 29.3285 30.8829 29.3285C33.525 29.9778 36.1232 30.9515 38.0355 32.2165C39.9694 33.4958 41 34.9279 41 36.4669V42.0002H7V36.4669C7 34.9279 8.03062 33.4958 9.96447 32.2165C11.8769 30.9515 14.4751 29.9777 17.1172 29.3284Z" stroke="#333333" stroke-width="2"/>
<rect x="30" y="35" width="6" height="2" fill="#333333"/>
<rect x="32" y="39" width="6" height="2" transform="rotate(-90 32 39)" fill="#333333"/>
<path d="M24 4C21.5958 4 18.6807 4.78145 16.8328 5.36741C15.8028 5.69401 15.2858 6.80969 15.6454 7.82862L18 14.5C22 13 26 13 30 14.5L32.3546 7.82862C32.7142 6.80969 32.1972 5.69401 31.1672 5.36741C29.3193 4.78145 26.4042 4 24 4Z" stroke="#333333" stroke-width="2" stroke-linecap="round" stroke-linejoin="round"/>
<rect x="21" y="8" width="6" height="2" fill="#333333"/>
<rect x="23" y="12" width="6" height="2" transform="rotate(-90 23 12)" fill="#333333"/>
<path d="M30 13.7084C31.2447 15.1186 32 16.9711 32 19C32 23.4183 28.4183 27 24 27C19.5817 27 16 23.4183 16 19C16 16.9711 16.7553 15.1186 18 13.7084" stroke="#333333" stroke-width="2" stroke-linejoin="round"/>
</svg>
