<svg width="48" height="48" viewBox="0 0 48 48" fill="none" xmlns="http://www.w3.org/2000/svg">
<path fill-rule="evenodd" clip-rule="evenodd" d="M18.1254 29.6279C18.1254 29.6279 17.3814 28.9073 16.8786 29.0308C11.4745 30.3589 6 33.0668 6 37.1404V41.9997V43.9997H8H40H42V41.9997V37.1404C42 33.0668 36.5255 30.3589 31.1214 29.0308C30.6186 28.9073 29.8746 29.6279 29.8746 29.6279C29.8746 29.6279 24.2271 32.9997 23.5474 32.9996C23.5329 32.9996 18.1254 29.6279 18.1254 29.6279ZM30.6539 30.9331L29.8746 29.6279C30.2628 30.2781 30.504 30.6821 30.6539 30.9331L30.6539 30.9331ZM30.6539 30.9332L30.6539 30.9332C30.6641 30.9502 30.6738 30.9665 30.6831 30.9821C30.6832 30.9821 30.6832 30.9821 30.6832 30.9821L30.6539 30.9332ZM30.6836 30.9828C30.6836 30.9828 30.6835 30.9828 30.6835 30.9828C30.8998 31.3451 30.8998 31.3452 30.8997 31.3452L30.8995 31.3454L30.8985 31.3459L30.8951 31.348L30.8822 31.3557L30.8333 31.3848L30.6494 31.4938C30.4913 31.5875 30.2651 31.7209 29.9919 31.8808C29.4461 32.2002 28.7087 32.6277 27.9473 33.0565C27.1905 33.4826 26.3904 33.9213 25.7254 34.2576C25.396 34.4242 25.0717 34.58 24.789 34.6987C24.649 34.7575 24.4903 34.8195 24.3292 34.8701C24.2179 34.905 23.9117 34.9997 23.5472 34.9996C23.2899 34.983 22.9436 34.9064 22.8517 34.8748C22.805 34.8568 22.7308 34.8254 22.7032 34.8128C22.6541 34.7899 22.6166 34.77 22.605 34.7638C22.5755 34.7481 22.5524 34.7348 22.5456 34.7309C22.5272 34.7203 22.511 34.7106 22.5031 34.7059C22.4843 34.6946 22.4624 34.6813 22.441 34.6682C22.3964 34.641 22.3344 34.6028 22.2591 34.5563C22.1078 34.4628 21.8937 34.3301 21.6389 34.1718C21.1289 33.8551 20.4508 33.4331 19.7738 33.0115C19.0966 32.5899 18.42 32.1682 17.9127 31.8521L17.2997 31.47L17.128 31.3629L17.0827 31.3347L17.0711 31.3275L17.0682 31.3256L17.0674 31.3252L17.0672 31.325L17.2741 30.9933C17.274 30.9933 17.274 30.9933 17.274 30.9933L17.0672 31.325L16.8867 31.2125L16.7889 31.1178C14.4136 31.7468 12.166 32.6327 10.5162 33.7241C8.69262 34.9304 8 36.0992 8 37.1404V41.9997H40V37.1404C40 36.0992 39.3074 34.9304 37.4838 33.7241C35.834 32.6327 33.5864 31.7468 31.2111 31.1178L31.0993 31.2261L30.8999 31.3451L30.6836 30.9828ZM17.2757 30.9906C17.2757 30.9905 17.2758 30.9905 17.2758 30.9905L17.3363 30.8935L17.3363 30.8934L17.2757 30.9906ZM17.3363 30.8933L18.1254 29.6279L17.3363 30.8934L17.3363 30.8933Z" fill="#333333"/>
<rect x="12" y="36.9997" width="7" height="2" rx="1" fill="#333333"/>
<path d="M32.3964 37.0711C32.6418 36.9947 32.8508 36.8421 33 36.6444C33.1493 36.8421 33.3583 36.9948 33.6037 37.0711C33.4314 37.2926 33.3435 37.565 33.3472 37.8392C33.1209 37.7708 32.8791 37.7708 32.6528 37.8392C32.6565 37.5652 32.5688 37.2927 32.3964 37.0711Z" fill="white" stroke="#333333" stroke-width="2"/>
<path d="M32 15V17C32 21.4183 28.4183 25 24 25C19.5817 25 16 21.4183 16 17V15" stroke="#333333" stroke-width="2" stroke-linejoin="round"/>
<path d="M32.9999 13C32.9999 13 34.4999 11 34.9999 8.09677C35.3941 5.80789 23.9999 4 23.9999 4C23.9999 4 12.6623 5.79886 12.9999 8.09677C13.4265 11 14.9999 13 14.9999 13M32.9999 13H14.9999M32.9999 13C32.9999 13 33.727 17 23.9999 17C14.2729 17 14.9999 13 14.9999 13" stroke="#333333" stroke-width="2"/>
<path d="M26.5 7.33333C26.5 7.33333 24.6667 6.66667 24 6C23.3333 6.66667 21.5 7.33333 21.5 7.33333C21.5 7.33333 22 11 24 11C26 11 26.5 7.33333 26.5 7.33333Z" fill="#333333"/>
</svg>
