<svg width="48" height="48" viewBox="0 0 48 48" fill="none" xmlns="http://www.w3.org/2000/svg">
<path fill-rule="evenodd" clip-rule="evenodd" d="M23 14C23 17.8675 19.8675 21 16 21C12.1325 21 9 17.8675 9 14C9 10.1325 12.1325 7 16 7C19.8675 7 23 10.1325 23 14ZM21 14C21 16.7629 18.7629 19 16 19C13.2371 19 11 16.7629 11 14C11 11.2371 13.2371 9 16 9C18.7629 9 21 11.2371 21 14Z" fill="#333333"/>
<path fill-rule="evenodd" clip-rule="evenodd" d="M3 29.4C3 25.144 11.6612 23 16 23C19.3409 23 25.2448 24.2712 27.7836 26.7991C30.0079 25.6014 33.0636 25 35 25C38.3375 25 45 26.7867 45 30.3333V35H3V29.4ZM5 29.4C5 29.0826 5.14556 28.6486 5.76618 28.0846C6.39908 27.5095 7.37322 26.9511 8.60682 26.4645C11.076 25.4906 14.0766 25 16 25C17.9234 25 20.924 25.4906 23.3932 26.4645C24.6268 26.9511 25.6009 27.5095 26.2338 28.0846C26.8544 28.6486 27 29.0826 27 29.4V33H5V29.4ZM29 33H43V30.3333C43 30.1329 42.9211 29.8399 42.5037 29.429C42.0689 29.0009 41.3774 28.5654 40.4657 28.1758C38.6335 27.3929 36.401 27 35 27C33.5989 27 31.3665 27.3929 29.5343 28.1758C29.2953 28.2779 29.0714 28.3832 28.8632 28.4908C28.9527 28.7823 29 29.0854 29 29.4V33Z" fill="#333333"/>
<path fill-rule="evenodd" clip-rule="evenodd" d="M35 23C37.7625 23 40 20.7625 40 18C40 15.2375 37.7625 13 35 13C32.2375 13 30 15.2375 30 18C30 20.7625 32.2375 23 35 23ZM35 21C36.6579 21 38 19.6579 38 18C38 16.3421 36.6579 15 35 15C33.3421 15 32 16.3421 32 18C32 19.6579 33.3421 21 35 21Z" fill="#333333"/>
</svg>
