<svg width="48" height="48" viewBox="0 0 48 48" fill="none" xmlns="http://www.w3.org/2000/svg">
<path d="M22 14C22 17.3152 19.3152 20 16 20C12.6848 20 10 17.3152 10 14C10 10.6848 12.6848 8 16 8C19.3152 8 22 10.6848 22 14Z" stroke="#333333" stroke-width="2"/>
<path d="M4 29.4C4 28.7093 4.34344 28.0263 5.09365 27.3446C5.84999 26.6572 6.94618 26.0445 8.23989 25.5343C10.8283 24.5133 13.9536 24 16 24C18.0464 24 21.1717 24.5133 23.7601 25.5343C25.0538 26.0445 26.15 26.6572 26.9064 27.3446C27.6566 28.0263 28 28.7093 28 29.4V34H4V29.4Z" stroke="#333333" stroke-width="2"/>
<path d="M39 18C39 20.2102 37.2102 22 35 22C32.7898 22 31 20.2102 31 18C31 15.7898 32.7898 14 35 14C37.2102 14 39 15.7898 39 18Z" stroke="#333333" stroke-width="2"/>
<path fill-rule="evenodd" clip-rule="evenodd" d="M28 33H43V30.3333C43 30.1329 42.9211 29.8399 42.5037 29.429C42.0689 29.0009 41.3774 28.5654 40.4657 28.1758C38.6335 27.3929 36.401 27 35 27C33.5989 27 31.3665 27.3929 29.5343 28.1758C28.8492 28.4686 28.2884 28.7873 27.8674 29.1093C27.672 28.4546 27.2808 27.8736 26.8304 27.389C29.0493 25.799 32.7681 25 35 25C38.3375 25 45 26.7867 45 30.3333V33V35H43H28V33Z" fill="#333333"/>
</svg>
