<svg width="49" height="49" viewBox="0 0 49 49" fill="none" xmlns="http://www.w3.org/2000/svg">
<path fill-rule="evenodd" clip-rule="evenodd" d="M24.5 25.98C29.4725 25.98 33.5 21.9227 33.5 16.9133C33.5 11.904 29.4725 7.84668 24.5 7.84668C19.5275 7.84668 15.5 11.904 15.5 16.9133C15.5 21.9227 19.5275 25.98 24.5 25.98ZM31.5 16.9133C31.5 20.832 28.354 23.98 24.5 23.98C20.646 23.98 17.5 20.832 17.5 16.9133C17.5 12.9946 20.646 9.84668 24.5 9.84668C28.354 9.84668 31.5 12.9946 31.5 16.9133Z" fill="#333333"/>
<path fill-rule="evenodd" clip-rule="evenodd" d="M17.3786 29.2021C17.8814 29.0785 18.3971 29.3313 18.6254 29.7991L22.6893 32.7994C23.603 32.7992 24.0557 32.7992 24.5125 32.7993H24.5248C24.9693 32.7993 25.4218 32.7993 26.3105 32.7991L30.3746 29.7991C30.6029 29.3313 31.1186 29.0785 31.6214 29.2021C37.0255 30.5301 42.5 33.238 42.5 37.3116V39.845C42.5 40.9495 41.6046 41.845 40.5 41.845H8.5C7.39543 41.845 6.5 40.9495 6.5 39.845V37.3116C6.5 33.238 11.9745 30.5301 17.3786 29.2021ZM26.9689 34.799L31.7205 31.2915C34.0924 31.9204 36.3361 32.8054 37.9838 33.8953C39.8074 35.1016 40.5 36.2704 40.5 37.3116V39.845H8.5V37.3116C8.5 36.2704 9.19262 35.1016 11.0162 33.8953C12.6639 32.8054 14.9077 31.9204 17.2795 31.2915L22.0312 34.7996L22.6898 34.7994C23.6163 34.7992 24.0658 34.7992 24.524 34.7993H24.5314C24.9711 34.7993 25.4213 34.7993 26.3109 34.7991L26.9689 34.799Z" fill="#333333"/>
</svg>
