<svg width="49" height="49" viewBox="0 0 49 49" fill="none" xmlns="http://www.w3.org/2000/svg">
<path d="M32.5 16.9132C32.5 21.3772 28.9133 24.9799 24.5 24.9799C20.0867 24.9799 16.5 21.3772 16.5 16.9132C16.5 12.4492 20.0867 8.84656 24.5 8.84656C28.9133 8.84656 32.5 12.4492 32.5 16.9132Z" stroke="#333333" stroke-width="2"/>
<path d="M17.6172 30.1731L17.3786 29.2019L17.6172 30.1731ZM17.6172 30.1731C17.6441 30.1665 17.6963 30.1753 17.7266 30.2375L17.8342 30.4579L18.0314 30.6035L22.0954 33.6038L22.3603 33.7994L22.6895 33.7993C23.6137 33.7991 24.0647 33.7991 24.5243 33.7991C24.9676 33.7992 25.419 33.7992 26.3107 33.799L26.6397 33.7989L26.9044 33.6036L30.9685 30.6035L31.1658 30.4579L31.2734 30.2375C31.3037 30.1753 31.3559 30.1665 31.3827 30.1731L31.3827 30.1731C34.0249 30.8224 36.6231 31.7961 38.5355 33.0612C40.4694 34.3404 41.5 35.7725 41.5 37.3115V39.8448C41.5 40.3971 41.0523 40.8448 40.5 40.8448H8.5C7.94772 40.8448 7.5 40.3971 7.5 39.8448V37.3115C7.5 35.7725 8.53062 34.3404 10.4645 33.0612C12.3769 31.7961 14.9751 30.8224 17.6172 30.1731Z" stroke="#333333" stroke-width="2"/>
</svg>
