<svg width="48" height="48" viewBox="0 0 48 48" fill="none" xmlns="http://www.w3.org/2000/svg">
<path fill-rule="evenodd" clip-rule="evenodd" d="M19.5 5C17.8431 5 16.5 6.34315 16.5 8C16.5 9.65685 17.8431 11 19.5 11C21.1569 11 22.5 9.65685 22.5 8C22.5 6.34315 21.1569 5 19.5 5ZM14.5 8C14.5 5.23858 16.7386 3 19.5 3C22.2614 3 24.5 5.23858 24.5 8C24.5 9.98624 23.3418 11.702 21.664 12.5087H24.8905C25.3525 12.5087 25.8649 12.6954 26.3086 12.9282C26.7835 13.1774 27.2966 13.5407 27.772 14.0156C28.7278 14.9705 29.5656 16.4162 29.5656 18.3192C29.5656 20.6603 28.7892 22.3707 27.8291 23.5071C27.354 24.0695 26.8357 24.4893 26.3491 24.774C26.2019 24.8601 26.0478 24.9395 25.8905 25.0077V42.3928C25.8905 43.8441 24.7073 45.0273 23.256 45.0273C21.8047 45.0273 20.6214 43.8441 20.6214 42.3928V31.2199H18.3522V42.3928C18.3522 43.8441 17.169 45.0273 15.7177 45.0273C14.2664 45.0273 13.0831 43.8441 13.0831 42.3928V17.5107H8.14288V34.8348C9.11076 35.0327 9.98061 35.5588 10.6053 36.3241C11.2301 37.0894 11.5713 38.0469 11.5715 39.0349V44.1777H9.85717V38.1777H8.14288V44.1777H6.42859V38.1777H4.71429V44.1777H3V39.0349C3.00012 38.0469 3.3414 37.0894 3.96613 36.3241C4.59086 35.5588 5.4607 35.0327 6.42859 34.8348V17.5107H5.5C4.11929 17.5107 3 16.3914 3 15.0107C3 13.63 4.11929 12.5107 5.5 12.5107H6.42859V9.00046H8.14288V12.5107H14.9999H16.9379C16.9798 12.5094 17.0217 12.5087 17.0638 12.5087H17.336C15.6582 11.702 14.5 9.98624 14.5 8ZM14.0831 15.5107H8.14288V14.5107H14.9999H16.9546H16.9725L16.9904 14.51C17.0147 14.5092 17.0391 14.5087 17.0638 14.5087H24.8905C24.8898 14.5087 24.8897 14.5088 24.8903 14.509L24.8951 14.51C24.9258 14.516 25.093 14.549 25.3795 14.6993C25.678 14.8559 26.0274 15.0997 26.3584 15.4305C27.0154 16.0868 27.5656 17.0463 27.5656 18.3192C27.5656 20.1918 26.954 21.4439 26.3013 22.2164C26.1652 22.3775 26.027 22.5182 25.8914 22.6397V17H23.8914V23.2441H23.8905V24.2441V42.3928C23.8905 42.7395 23.6027 43.0273 23.256 43.0273C22.9092 43.0273 22.6214 42.7395 22.6214 42.3928V30.2199V29.2199H21.6214H17.3522H16.3522V30.2199V42.3928C16.3522 42.7395 16.0644 43.0273 15.7177 43.0273C15.3709 43.0273 15.0831 42.7395 15.0831 42.3928V16.5107V15.5107H14.0831ZM5.5 14.5107H6.42859V15.5107H5.5C5.22386 15.5107 5 15.2868 5 15.0107C5 14.7345 5.22386 14.5107 5.5 14.5107Z" fill="#333333"/>
<path d="M37 21V43.9999" stroke="#333333" stroke-width="2" stroke-linecap="round" stroke-linejoin="round"/>
<path d="M39.5981 37.2676C40.8175 36.5636 43.1962 37.4996 43.1962 37.4996C43.1962 37.4996 42.8175 40.0277 41.5981 40.7317C40.3787 41.4357 38 40.4996 38 40.4996C38 40.4996 38.3787 37.9716 39.5981 37.2676Z" stroke="#333333" stroke-width="2" stroke-linecap="round" stroke-linejoin="round"/>
<path d="M34.5981 37.2676C35.8175 37.9716 36.1962 40.4996 36.1962 40.4996C36.1962 40.4996 33.8175 41.4357 32.5981 40.7317C31.3787 40.0277 31 37.4996 31 37.4996C31 37.4996 33.3787 36.5636 34.5981 37.2676Z" stroke="#333333" stroke-width="2" stroke-linecap="round" stroke-linejoin="round"/>
<path d="M39.5981 30.2676C40.8175 29.5636 43.1962 30.4996 43.1962 30.4996C43.1962 30.4996 42.8175 33.0277 41.5981 33.7317C40.3787 34.4357 38 33.4996 38 33.4996C38 33.4996 38.3787 30.9716 39.5981 30.2676Z" stroke="#333333" stroke-width="2" stroke-linecap="round" stroke-linejoin="round"/>
<path d="M35 18C35 16.5919 37 15 37 15C37 15 39 16.5919 39 18C39 19.4081 37 21 37 21C37 21 35 19.4081 35 18Z" stroke="#333333" stroke-width="2" stroke-linecap="round" stroke-linejoin="round"/>
<path d="M34.5981 30.2676C35.8175 30.9716 36.1962 33.4996 36.1962 33.4996C36.1962 33.4996 33.8175 34.4357 32.5981 33.7317C31.3787 33.0277 31 30.4996 31 30.4996C31 30.4996 33.3787 29.5636 34.5981 30.2676Z" stroke="#333333" stroke-width="2" stroke-linecap="round" stroke-linejoin="round"/>
<path d="M39.5981 23.2676C40.8175 22.5636 43.1962 23.4996 43.1962 23.4996C43.1962 23.4996 42.8175 26.0277 41.5981 26.7317C40.3787 27.4357 38 26.4996 38 26.4996C38 26.4996 38.3787 23.9716 39.5981 23.2676Z" stroke="#333333" stroke-width="2" stroke-linecap="round" stroke-linejoin="round"/>
<path d="M34.5981 23.2676C35.8175 23.9716 36.1962 26.4996 36.1962 26.4996C36.1962 26.4996 33.8175 27.4357 32.5981 26.7317C31.3787 26.0277 31 23.4996 31 23.4996C31 23.4996 33.3787 22.5636 34.5981 23.2676Z" stroke="#333333" stroke-width="2" stroke-linecap="round" stroke-linejoin="round"/>
</svg>
