<svg width="48" height="48" viewBox="0 0 48 48" fill="none" xmlns="http://www.w3.org/2000/svg">
<path fill-rule="evenodd" clip-rule="evenodd" d="M19.5 3C16.7386 3 14.5 5.23858 14.5 8C14.5 9.98624 15.6582 11.702 17.336 12.5087H17.0638C17.0217 12.5087 16.9798 12.5094 16.9379 12.5107H8.14288V9.00046H6.42859V12.5107H5.5C4.11929 12.5107 3 13.63 3 15.0107C3 16.3914 4.11929 17.5107 5.5 17.5107H6.42859V34.8348C5.4607 35.0327 4.59086 35.5588 3.96613 36.3241C3.3414 37.0894 3.00012 38.0469 3 39.0349V44.1777H4.71429V38.1777H6.42859V44.1777H8.14288V38.1777H9.85717V44.1777H11.5715V39.0349C11.5713 38.0469 11.2301 37.0894 10.6053 36.3241C9.98061 35.5588 9.11076 35.0327 8.14288 34.8348V17.5107H13.0831V42.3928C13.0831 43.8441 14.2664 45.0273 15.7177 45.0273C17.169 45.0273 18.3522 43.8441 18.3522 42.3928V31.2199H20.6214V42.3928C20.6214 43.8441 21.8047 45.0273 23.256 45.0273C24.7073 45.0273 25.8905 43.8441 25.8905 42.3928V25.0077C26.0478 24.9395 26.2019 24.8601 26.3491 24.774C26.8357 24.4893 27.354 24.0695 27.8291 23.5071C28.7892 22.3707 29.5656 20.6603 29.5656 18.3192C29.5656 16.4162 28.7278 14.9705 27.772 14.0156C27.2966 13.5407 26.7835 13.1774 26.3086 12.9282C25.8649 12.6954 25.3525 12.5087 24.8905 12.5087H21.664C23.3418 11.702 24.5 9.98624 24.5 8C24.5 5.23858 22.2614 3 19.5 3ZM8.14288 15.5107H15.0831V42.3928C15.0831 42.7395 15.3709 43.0273 15.7177 43.0273C16.0644 43.0273 16.3522 42.7395 16.3522 42.3928V29.2199H22.6214V42.3928C22.6214 42.7395 22.9092 43.0273 23.256 43.0273C23.6027 43.0273 23.8905 42.7395 23.8905 42.3928L23.8914 17H25.8914V22.6397C26.027 22.5182 26.1652 22.3775 26.3013 22.2164C26.954 21.4439 27.5656 20.1918 27.5656 18.3192C27.5656 17.0463 27.0154 16.0868 26.3584 15.4305C26.0274 15.0997 25.678 14.8559 25.3795 14.6993C25.093 14.549 24.9258 14.516 24.8951 14.51L24.8903 14.509C24.8897 14.5088 24.8896 14.509 24.8903 14.509L17.0638 14.5087C17.0391 14.5087 17.0147 14.5092 16.9904 14.51L16.9725 14.5107H8.14288V15.5107ZM6.42859 14.5107H5.5C5.22386 14.5107 5 14.7345 5 15.0107C5 15.2868 5.22386 15.5107 5.5 15.5107H6.42859V14.5107ZM16.5 8C16.5 6.34315 17.8431 5 19.5 5C21.1569 5 22.5 6.34315 22.5 8C22.5 9.65685 21.1569 11 19.5 11C17.8431 11 16.5 9.65685 16.5 8Z" fill="#333333"/>
<path fill-rule="evenodd" clip-rule="evenodd" d="M37.6235 14.2182C37.259 13.9281 36.7414 13.9278 36.3769 14.2179L36.3755 14.219L36.3731 14.2209L36.3661 14.2266L36.3437 14.2448C36.3252 14.26 36.2997 14.2811 36.2681 14.3079C36.205 14.3613 36.1173 14.4373 36.0131 14.5324C35.8062 14.7214 35.5276 14.9919 35.246 15.3152C34.9669 15.6355 34.6669 16.0281 34.4326 16.4622C34.2022 16.8888 34 17.4201 34 18C34 18.58 34.2022 19.1113 34.4326 19.5379C34.6669 19.972 34.9669 20.3646 35.246 20.6849C35.5217 21.0014 35.7945 21.2673 36 21.4557V23.2294C35.7686 22.9189 35.4733 22.6181 35.0981 22.4015C34.5958 22.1115 34.0346 22.021 33.5499 22.0071C33.0568 21.9931 32.5668 22.0566 32.1499 22.1381C31.7291 22.2203 31.3556 22.3263 31.0884 22.411C30.954 22.4537 30.8443 22.4916 30.7665 22.5196C30.7275 22.5336 30.6964 22.5451 30.674 22.5535L30.6471 22.5638L30.6387 22.5671L30.6347 22.5686C30.2012 22.7392 29.942 23.1869 30.011 23.6477C30.011 23.6474 30.011 23.6477 31 23.4995L30.011 23.6477L30.0113 23.6498L30.0118 23.6529L30.0132 23.6618L30.0178 23.6903C30.0216 23.7139 30.0272 23.7466 30.0346 23.7873C30.0493 23.8687 30.0712 23.9826 30.1015 24.1204C30.1618 24.3941 30.2567 24.7706 30.3959 25.1761C30.5338 25.5779 30.7238 26.034 30.9825 26.454C31.2368 26.8669 31.5958 27.3076 32.0981 27.5976C32.6003 27.8876 33.1615 27.9781 33.6462 27.9919C34.1393 28.006 34.6293 27.9425 35.0462 27.861C35.4131 27.7893 35.7441 27.6995 36 27.6215V30.2294C35.7686 29.9189 35.4733 29.6181 35.0981 29.4015C34.5958 29.1115 34.0346 29.021 33.5499 29.0071C33.0568 28.9931 32.5668 29.0566 32.1499 29.1381C31.7291 29.2203 31.3556 29.3263 31.0884 29.411C30.954 29.4537 30.8443 29.4916 30.7665 29.5196C30.7275 29.5336 30.6964 29.5451 30.674 29.5535L30.6471 29.5638L30.6387 29.5671L30.6347 29.5686C30.2012 29.7392 29.942 30.1869 30.011 30.6477C30.011 30.6474 30.011 30.6477 31 30.4995L30.011 30.6477L30.0113 30.6498L30.0118 30.6529L30.0132 30.6618L30.0178 30.6903C30.0216 30.7139 30.0272 30.7466 30.0346 30.7873C30.0493 30.8687 30.0712 30.9826 30.1015 31.1204C30.1618 31.3941 30.2567 31.7706 30.3959 32.1761C30.5338 32.578 30.7238 33.034 30.9825 33.454C31.2368 33.8669 31.5958 34.3076 32.0981 34.5976C32.6003 34.8876 33.1615 34.9781 33.6462 34.9919C34.1393 35.006 34.6293 34.9425 35.0462 34.861C35.4131 34.7893 35.7441 34.6995 36 34.6215V37.2294C35.7686 36.9189 35.4733 36.6181 35.0981 36.4015C34.5958 36.1115 34.0346 36.021 33.5499 36.0071C33.0568 35.9931 32.5668 36.0566 32.1499 36.1381C31.7291 36.2203 31.3556 36.3263 31.0884 36.411C30.954 36.4537 30.8443 36.4916 30.7665 36.5196C30.7275 36.5336 30.6964 36.5451 30.674 36.5535L30.6471 36.5638L30.6387 36.5671L30.6358 36.5682L30.6347 36.5686C30.2012 36.7392 29.942 37.1869 30.011 37.6477L30.0113 37.6498L30.0118 37.6529L30.0132 37.6618L30.0178 37.6903C30.0216 37.7139 30.0272 37.7466 30.0346 37.7873C30.0493 37.8687 30.0712 37.9826 30.1015 38.1204C30.1618 38.3941 30.2567 38.7706 30.3959 39.1761C30.5338 39.5779 30.7238 40.034 30.9825 40.454C31.2368 40.8669 31.5958 41.3076 32.0981 41.5976C32.6003 41.8876 33.1615 41.9781 33.6462 41.9919C34.1393 42.006 34.6293 41.9425 35.0462 41.861C35.4131 41.7893 35.7441 41.6995 36 41.6215V43.9999C36 44.5522 36.4477 44.9999 37 44.9999C37.5523 44.9999 38 44.5522 38 43.9999V41.5596C38.0281 41.5688 38.0576 41.5783 38.0884 41.5881C38.3556 41.6728 38.7291 41.7788 39.1499 41.8611C39.5668 41.9425 40.0568 42.006 40.5499 41.992C41.0346 41.9782 41.5958 41.8876 42.0981 41.5977C42.6003 41.3077 42.9593 40.8669 43.2136 40.4541C43.4723 40.0341 43.6623 39.578 43.8002 39.1762C43.9394 38.7706 44.0343 38.3941 44.0946 38.1204C44.1249 37.9827 44.1469 37.8687 44.1615 37.7874C44.1689 37.7466 44.1745 37.7139 44.1783 37.6903L44.1829 37.6618L44.1843 37.6529L44.1848 37.6499L44.185 37.6487C44.254 37.1879 43.9954 36.7395 43.5619 36.5689L43.5603 36.5683L43.5574 36.5671L43.549 36.5639L43.5221 36.5536C43.4997 36.5452 43.4686 36.5336 43.4296 36.5196C43.3518 36.4917 43.2421 36.4537 43.1077 36.4111C42.8405 36.3264 42.467 36.2204 42.0462 36.1381C41.6293 36.0566 41.1393 35.9931 40.6462 36.0072C40.1615 36.021 39.6003 36.1115 39.0981 36.4015C38.6072 36.6849 38.2532 37.1123 38 37.5169V34.5596C38.0281 34.5688 38.0576 34.5783 38.0884 34.5881C38.3556 34.6728 38.7291 34.7788 39.1499 34.8611C39.5668 34.9425 40.0568 35.006 40.5499 34.992C41.0346 34.9782 41.5958 34.8876 42.0981 34.5977C42.6003 34.3077 42.9593 33.8669 43.2136 33.4541C43.4723 33.0341 43.6623 32.578 43.8002 32.1762C43.9394 31.7706 44.0343 31.3941 44.0946 31.1204C44.1249 30.9827 44.1469 30.8687 44.1615 30.7874C44.1689 30.7466 44.1745 30.7139 44.1783 30.6903L44.1829 30.6618L44.1843 30.6529L44.1848 30.6499L44.185 30.6487C44.254 30.1879 43.9954 29.7395 43.5619 29.5689L43.5574 29.5671L43.549 29.5639L43.5221 29.5536C43.4997 29.5452 43.4686 29.5336 43.4296 29.5196C43.3518 29.4917 43.2421 29.4537 43.1077 29.4111C42.8405 29.3264 42.467 29.2204 42.0462 29.1381C41.6293 29.0566 41.1393 28.9931 40.6462 29.0072C40.1615 29.021 39.6003 29.1116 39.0981 29.4015C38.6072 29.6849 38.2532 30.1123 38 30.5169V27.5596C38.0126 27.5637 38.0254 27.5679 38.0385 27.5721C38.0547 27.5773 38.0714 27.5827 38.0884 27.5881C38.3556 27.6728 38.7291 27.7788 39.1499 27.8611C39.5668 27.9425 40.0568 28.006 40.5499 27.992C41.0346 27.9782 41.5958 27.8876 42.0981 27.5977C42.6003 27.3077 42.9593 26.8669 43.2136 26.4541C43.4723 26.0341 43.6623 25.578 43.8002 25.1762C43.9394 24.7706 44.0343 24.3941 44.0946 24.1204C44.1249 23.9827 44.1469 23.8687 44.1615 23.7874C44.1689 23.7466 44.1745 23.7139 44.1783 23.6903L44.1829 23.6618L44.1843 23.6529L44.1848 23.6499L44.185 23.6487C44.254 23.1879 43.9954 22.7395 43.5619 22.5689L43.5574 22.5671L43.549 22.5639L43.5221 22.5536C43.5126 22.55 43.5016 22.5459 43.4892 22.5413C43.472 22.535 43.4521 22.5277 43.4296 22.5196C43.3518 22.4917 43.2421 22.4537 43.1077 22.4111C42.8405 22.3264 42.467 22.2204 42.0462 22.1381C41.6293 22.0566 41.1393 21.9931 40.6462 22.0072C40.1615 22.021 39.6003 22.1116 39.0981 22.4015C38.6072 22.6849 38.2532 23.1123 38 23.5169V21.4557C38.2055 21.2673 38.4783 21.0014 38.754 20.6849C39.0331 20.3646 39.333 19.972 39.5674 19.5379C39.7978 19.1113 40 18.58 40 18C40 17.4201 39.7978 16.8888 39.5674 16.4622C39.333 16.0281 39.0331 15.6355 38.754 15.3152C38.4724 14.9919 38.1938 14.7214 37.9869 14.5324C37.8827 14.4373 37.795 14.3613 37.7319 14.3079C37.7003 14.2811 37.6748 14.26 37.6563 14.2448L37.6339 14.2266L37.6269 14.2209L37.6245 14.219L37.6235 14.2182ZM37.246 19.3712C37.1634 19.466 37.0804 19.5558 37 19.6391C36.9196 19.5558 36.8366 19.466 36.754 19.3712C36.5331 19.1176 36.333 18.8481 36.1924 18.5877C36.0478 18.3198 36 18.1242 36 18C36 17.8759 36.0478 17.6803 36.1924 17.4124C36.333 17.152 36.5331 16.8825 36.754 16.6289C36.8366 16.5341 36.9196 16.4443 37 16.361C37.0804 16.4443 37.1634 16.5341 37.246 16.6289C37.4669 16.8825 37.6669 17.152 37.8076 17.4124C37.9522 17.6803 38 17.8759 38 18C38 18.1242 37.9522 18.3198 37.8076 18.5877C37.6669 18.8481 37.4669 19.1176 37.246 19.3712ZM37 15C36.3772 14.2176 36.377 14.2178 36.3769 14.2179L37 15ZM44.185 23.6487C44.185 23.6484 44.1851 23.6477 43.1961 23.4996L44.185 23.6487ZM43.1961 23.4996C43.5623 22.569 43.5621 22.569 43.5619 22.5689L43.1961 23.4996ZM37.6235 14.2182C37.6233 14.2181 37.6228 14.2176 37 15L37.6235 14.2182ZM43.5619 29.5689L43.1961 30.4996C43.5623 29.569 43.5621 29.569 43.5619 29.5689ZM44.185 30.6487C44.185 30.6484 44.1851 30.6477 43.1961 30.4996L44.185 30.6487ZM43.1961 37.4996L44.185 37.6487C44.185 37.6484 44.1851 37.6477 43.1961 37.4996ZM43.1961 37.4996C43.5623 36.569 43.5621 36.569 43.5619 36.5689L43.1961 37.4996ZM30.6347 36.5686C30.6345 36.5687 30.6338 36.569 31 37.4995L30.6347 36.5686ZM30.6347 29.5686C30.6345 29.5687 30.6338 29.569 31 30.4995L30.6347 29.5686ZM30.6347 22.5686C30.6345 22.5687 30.6338 22.569 31 23.4995L30.6347 22.5686ZM39.1786 39.8191C39.2909 39.8471 39.4102 39.8741 39.5336 39.8982C39.8637 39.9627 40.1971 40.0012 40.4929 39.9928C40.7972 39.9841 40.9906 39.9277 41.0981 39.8656C41.2055 39.8036 41.3511 39.6643 41.5108 39.4051C41.666 39.1531 41.7993 38.8452 41.9085 38.527C41.9493 38.4081 41.9855 38.2913 42.0175 38.1801C41.9052 38.1521 41.7859 38.1251 41.6626 38.101C41.3324 38.0364 40.999 37.9979 40.7032 38.0064C40.3989 38.0151 40.2055 38.0715 40.0981 38.1336C39.9906 38.1956 39.845 38.3348 39.6853 38.594C39.5301 38.846 39.3968 39.154 39.2876 39.4722C39.2468 39.5911 39.2106 39.7078 39.1786 39.8191ZM32.2876 38.5269C32.2468 38.4081 32.2106 38.2913 32.1786 38.18C32.2909 38.152 32.4102 38.125 32.5336 38.1009C32.8637 38.0364 33.1971 37.9979 33.4929 38.0063C33.7972 38.015 33.9906 38.0714 34.0981 38.1335C34.2055 38.1956 34.3511 38.3348 34.5108 38.594C34.666 38.846 34.7993 39.1539 34.9085 39.4721C34.9493 39.591 34.9856 39.7078 35.0175 39.819C34.9052 39.847 34.7859 39.874 34.6626 39.8981C34.3324 39.9627 33.999 40.0012 33.7032 39.9927C33.3989 39.9841 33.2055 39.9276 33.0981 39.8656C32.9906 39.8035 32.845 39.6643 32.6853 39.4051C32.5301 39.1531 32.3968 38.8451 32.2876 38.5269ZM39.1786 32.8191C39.2909 32.8471 39.4102 32.8741 39.5336 32.8982C39.8637 32.9627 40.1971 33.0012 40.4929 32.9928C40.7972 32.9841 40.9906 32.9277 41.0981 32.8656C41.2055 32.8036 41.3511 32.6643 41.5108 32.4051C41.666 32.1531 41.7993 31.8452 41.9085 31.527C41.9493 31.4081 41.9855 31.2913 42.0175 31.1801C41.9052 31.1521 41.7859 31.1251 41.6626 31.101C41.3324 31.0365 40.999 30.9979 40.7032 31.0064C40.3989 31.0151 40.2055 31.0715 40.0981 31.1336C39.9906 31.1956 39.845 31.3348 39.6853 31.594C39.5301 31.846 39.3968 32.154 39.2876 32.4722C39.2468 32.5911 39.2106 32.7078 39.1786 32.8191ZM32.1786 31.18C32.2106 31.2913 32.2468 31.4081 32.2876 31.5269C32.3968 31.8452 32.5301 32.1531 32.6853 32.4051C32.845 32.6643 32.9906 32.8035 33.0981 32.8656C33.2055 32.9276 33.3989 32.9841 33.7032 32.9927C33.999 33.0012 34.3324 32.9627 34.6626 32.8981C34.7859 32.874 34.9052 32.847 35.0175 32.819C34.9856 32.7078 34.9493 32.591 34.9085 32.4721C34.7993 32.1539 34.666 31.846 34.5108 31.594C34.3511 31.3348 34.2055 31.1956 34.0981 31.1335C33.9906 31.0715 33.7972 31.015 33.4929 31.0063C33.1971 30.9979 32.8637 31.0364 32.5336 31.1009C32.4102 31.125 32.2909 31.152 32.1786 31.18ZM39.5336 25.8982C39.4102 25.8741 39.2909 25.8471 39.1786 25.8191C39.2106 25.7078 39.2468 25.5911 39.2876 25.4722C39.3968 25.154 39.5301 24.846 39.6853 24.594C39.845 24.3348 39.9906 24.1956 40.0981 24.1336C40.2055 24.0715 40.3989 24.0151 40.7032 24.0064C40.999 23.9979 41.3324 24.0365 41.6626 24.101C41.7859 24.1251 41.9052 24.1521 42.0175 24.1801C41.9855 24.2913 41.9493 24.4081 41.9085 24.527C41.7993 24.8452 41.666 25.1531 41.5108 25.4051C41.3511 25.6643 41.2055 25.8036 41.0981 25.8656C40.9906 25.9277 40.7972 25.9841 40.4929 25.9928C40.1971 26.0012 39.8637 25.9627 39.5336 25.8982ZM32.1786 24.18C32.2106 24.2913 32.2468 24.4081 32.2876 24.5269C32.3968 24.8452 32.5301 25.1531 32.6853 25.4051C32.845 25.6643 32.9906 25.8035 33.0981 25.8656C33.2055 25.9276 33.3989 25.9841 33.7032 25.9927C33.999 26.0012 34.3324 25.9627 34.6626 25.8981C34.7859 25.874 34.9052 25.847 35.0175 25.819C34.9856 25.7078 34.9493 25.591 34.9085 25.4721C34.7993 25.1539 34.666 24.846 34.5108 24.594C34.3511 24.3348 34.2055 24.1956 34.0981 24.1335C33.9906 24.0715 33.7972 24.015 33.4929 24.0063C33.1971 23.9979 32.8637 24.0364 32.5336 24.1009C32.4102 24.125 32.2909 24.152 32.1786 24.18Z" fill="#333333"/>
</svg>
