<svg width="48" height="48" viewBox="0 0 48 48" fill="none" xmlns="http://www.w3.org/2000/svg">
<path fill-rule="evenodd" clip-rule="evenodd" d="M23.2384 5.54341C23.0528 6.03796 22.9742 6.56387 23.0074 7.08878C22.9995 8.11605 23.4145 9.10448 24.1614 9.83757C24.9083 10.5707 25.9264 10.9887 26.9926 11C28.0601 10.9887 29.0797 10.5711 29.829 9.83845C30.5783 9.10577 30.9966 8.11737 30.9926 7.08878C31.0258 6.56387 30.9472 6.03796 30.7616 5.54341C30.576 5.04887 30.2873 4.59615 29.9133 4.21313C29.5393 3.83011 29.0879 3.52489 28.5869 3.31626C28.0859 3.10763 27.5458 3 27 3C26.4542 3 25.9141 3.10763 25.4131 3.31626C24.9121 3.52489 24.4607 3.83011 24.0867 4.21313C23.7127 4.59615 23.424 5.04887 23.2384 5.54341ZM28.4307 8.40846C28.0622 8.76883 27.5475 8.98854 26.9926 8.99978C26.4403 8.98856 25.9282 8.76933 25.5623 8.41018C25.1942 8.04889 25.0037 7.57785 25.0074 7.10423L25.0079 7.03319L25.0034 6.96229C24.9881 6.72067 25.0241 6.4773 25.1108 6.24615C25.1977 6.01479 25.3347 5.79777 25.5176 5.61041C25.7008 5.42285 25.9261 5.26912 26.1819 5.16258C26.4379 5.05599 26.7165 5 27 5C27.2835 5 27.5621 5.05599 27.8181 5.16258C28.0739 5.26912 28.2992 5.42285 28.4824 5.61041C28.6653 5.79778 28.8023 6.0148 28.8892 6.24615C28.9759 6.4773 29.0119 6.72067 28.9966 6.96229L28.9923 7.02935L28.9926 7.09654C28.9944 7.57285 28.8015 8.04591 28.4307 8.40846Z" fill="#333333"/>
<path fill-rule="evenodd" clip-rule="evenodd" d="M21.5949 10.2424C22.9602 9.97129 24.3747 10.2202 25.5693 10.9394L25.6232 10.9718L25.6726 11.0107C27.3154 12.3055 28.7171 13.8877 29.8126 15.6824C31.1487 17.383 32.055 18.7068 33.0358 20.7023L33.0373 20.7054L33.3013 21.2334C34.1019 22.6593 34.5332 24.2679 34.556 25.9084L34.5565 25.9433L34.5545 25.9782C34.5077 26.8147 34.313 27.6361 33.9794 28.403L33.9717 28.4208L33.9632 28.4383C33.5667 29.2611 33.0426 30.0144 32.4103 30.669L32.4025 30.6771L32.3945 30.685C32.2497 30.8283 32.0844 30.9665 31.9525 31.0769L31.922 31.1024C31.7715 31.2284 31.6512 31.3308 31.5479 31.4342C31.3344 31.6477 31.3199 31.7424 31.3183 31.7724C31.3114 31.9065 31.3289 32.4199 31.3695 33.2095C31.4085 33.9661 31.4644 34.9068 31.5217 35.837C31.557 36.4089 31.5935 36.986 31.627 37.5151L31.6271 37.5163C31.7 38.6686 31.7585 39.5932 31.7585 39.741V40.741H26.8523L26.6979 43.6553C26.6903 44.2745 26.4457 44.8701 26.0101 45.3139C25.5669 45.7654 24.9618 46.0226 24.3268 46.0226C23.6917 46.0226 23.0866 45.7654 22.6434 45.3139C22.2072 44.8694 21.9625 44.2728 21.9555 43.6528L21.8106 40.6572H16.0547L16.444 39.3681C16.4587 39.3197 16.6848 38.6623 17.0331 37.65C17.5012 36.2893 18.1901 34.287 18.8823 32.2604C19.725 29.7937 20.5667 27.3077 21.0618 25.7911C20.7603 25.7049 20.4774 25.5588 20.2304 25.3602L20.224 25.3549L15.2728 21.2352C14.8179 20.8488 14.5255 20.3061 14.4478 19.7165C14.3701 19.1271 14.5117 18.5276 14.8481 18.036L14.8552 18.0257L17.5969 14.2265C17.7345 14.0236 17.8722 13.8036 18.027 13.5562C18.0904 13.4548 18.1569 13.3485 18.2272 13.2373C18.4624 12.8653 18.7294 12.4565 19.0296 12.0691C19.6122 11.3173 20.43 10.498 21.5752 10.2465L21.5851 10.2444L21.5949 10.2424ZM21.9952 12.202C21.5526 12.3026 21.1046 12.6565 20.6106 13.2941C20.3708 13.6036 20.1449 13.9467 19.9177 14.3061C19.8606 14.3965 19.8021 14.4899 19.743 14.5844C19.5774 14.8491 19.4062 15.1227 19.2429 15.3627L19.2351 15.3742L16.4939 19.1727C16.441 19.2537 16.4173 19.3543 16.4306 19.4551C16.4441 19.5575 16.4939 19.6471 16.565 19.7086L21.4259 23.7533C21.4946 23.8324 21.5959 23.8825 21.7088 23.8825C21.718 23.8825 21.7271 23.8821 21.736 23.8815C21.7684 23.8804 21.7899 23.8764 21.8047 23.8724C21.8155 23.8695 21.8288 23.865 21.8456 23.8567C21.9847 23.8021 22.0831 23.6666 22.0831 23.5082C22.0831 23.3539 21.9898 23.2215 21.8566 23.1642L17.279 19.4099L22.1489 13.7393L22.563 15.7281C22.6738 16.2601 22.7895 16.7734 22.9085 17.3007C22.9954 17.686 23.084 18.0789 23.1735 18.4919C23.5239 19.812 23.7122 21.171 23.7344 22.5379C23.698 23.6224 23.4657 24.7293 23.2978 25.3511C23.2946 25.3629 23.2918 25.3746 23.2893 25.3861C22.8861 26.6979 21.8048 29.8921 20.775 32.9069C20.1661 34.6894 19.5658 36.4359 19.1145 37.7478L18.8016 38.6572H23.7162L23.9554 43.6012V43.6254C23.9554 43.7367 23.999 43.8398 24.0707 43.9129C24.1419 43.9854 24.2344 44.0226 24.3268 44.0226C24.4192 44.0226 24.5116 43.9854 24.5828 43.9129C24.6545 43.8398 24.6981 43.7367 24.6981 43.6254V43.5989L24.9554 38.741H29.7002L29.6399 37.7832C29.6045 37.224 29.5647 36.5949 29.5255 35.9602C29.4681 35.0286 29.4117 34.0795 29.3722 33.3123C29.3344 32.578 29.3073 31.9334 29.321 31.6693C29.3606 30.9028 29.7918 30.3618 30.1337 30.02C30.308 29.8456 30.4929 29.6904 30.6381 29.5689L30.6405 29.5668C30.7938 29.4385 30.8979 29.3513 30.9801 29.2709C31.4553 28.7771 31.8513 28.2091 32.153 27.5877C32.3827 27.0541 32.519 26.4831 32.5556 25.9007C32.5317 24.5975 32.1844 23.3224 31.5472 22.1945L31.5347 22.1724L31.2422 21.5874C30.3315 19.7337 29.5035 18.5232 28.2036 16.8719L28.1658 16.8237L28.1341 16.7714C27.1688 15.1775 25.9332 13.7728 24.4861 12.6223C23.7302 12.184 22.8473 12.0355 21.9952 12.202ZM21.5235 20.3044C21.4475 19.8605 21.3512 19.42 21.235 18.9844L21.2288 18.9614L21.2238 18.9381C21.1644 18.6637 21.102 18.3839 21.0387 18.1019L20.1292 19.1608L21.5235 20.3044Z" fill="#333333"/>
</svg>
