<svg width="48" height="48" viewBox="0 0 48 48" fill="none" xmlns="http://www.w3.org/2000/svg">
<path d="M15.6286 34.9285C16.1386 35.1325 16.717 34.8869 16.9251 34.3797L16.9303 34.368C16.9371 34.353 16.9503 34.3249 16.9706 34.2855C17.0111 34.2066 17.0798 34.0832 17.1821 33.9297C17.3867 33.6227 17.7245 33.198 18.2402 32.7682C19.2558 31.9219 21.0278 31 24 31C26.9723 31 28.7443 31.9219 29.7598 32.7682C30.2756 33.198 30.6133 33.6227 30.818 33.9297C30.9203 34.0832 30.9889 34.2066 31.0295 34.2855C31.0497 34.3249 31.0629 34.353 31.0697 34.368L31.0749 34.3798C31.283 34.8869 31.8614 35.1325 32.3714 34.9285C32.8842 34.7234 33.1336 34.1414 32.9285 33.6286L32 34C32.9285 33.6286 32.928 33.6273 32.928 33.6273L32.9274 33.6259L32.9262 33.6229L32.9232 33.6156L32.9153 33.5968C32.9091 33.5823 32.9012 33.564 32.8913 33.5422C32.8715 33.4986 32.844 33.4408 32.8081 33.3708C32.7361 33.2309 32.6298 33.0418 32.4821 32.8203C32.1867 32.3773 31.7245 31.802 31.0402 31.2318C29.6558 30.0781 27.4278 29 24 29C20.5723 29 18.3443 30.0781 16.9598 31.2318C16.2756 31.802 15.8133 32.3773 15.518 32.8203C15.3703 33.0418 15.2639 33.2309 15.192 33.3708C15.156 33.4408 15.1285 33.4986 15.1088 33.5422C15.0989 33.564 15.0909 33.5823 15.0847 33.5968L15.0768 33.6156L15.0739 33.6229L15.0726 33.6259L15.0721 33.6273C15.0721 33.6273 15.0715 33.6286 15.9972 33.9989L15.0715 33.6286C14.8664 34.1414 15.1158 34.7234 15.6286 34.9285Z" fill="#333333"/>
<path d="M18.8321 19.4454C19.1384 19.9049 19.0143 20.5258 18.5547 20.8322C16.9909 21.8747 15.9114 22.4171 14.3163 22.9488C13.7923 23.1234 13.226 22.8403 13.0513 22.3163C12.8767 21.7924 13.1599 21.2261 13.6838 21.0514C15.0887 20.5831 16.0091 20.1255 17.4453 19.1681C17.9049 18.8617 18.5257 18.9859 18.8321 19.4454Z" fill="#333333"/>
<path d="M29.4453 20.8322C28.9857 20.5258 28.8616 19.9049 29.1679 19.4454C29.4743 18.9859 30.0951 18.8617 30.5547 19.1681C31.9909 20.1255 32.9113 20.5831 34.3162 21.0514C34.8401 21.2261 35.1233 21.7924 34.9487 22.3163C34.774 22.8403 34.2077 23.1234 33.6837 22.9488C32.0886 22.4171 31.0091 21.8747 29.4453 20.8322Z" fill="#333333"/>
<path fill-rule="evenodd" clip-rule="evenodd" d="M44 24C44 35.0457 35.0457 44 24 44C12.9543 44 4 35.0457 4 24C4 12.9543 12.9543 4 24 4C35.0457 4 44 12.9543 44 24ZM42 24C42 33.9411 33.9411 42 24 42C14.0589 42 6 33.9411 6 24C6 14.0589 14.0589 6 24 6C33.9411 6 42 14.0589 42 24Z" fill="#333333"/>
</svg>
