<svg width="48" height="48" viewBox="0 0 48 48" fill="none" xmlns="http://www.w3.org/2000/svg">
<path fill-rule="evenodd" clip-rule="evenodd" d="M10.5235 8.01851C9.74267 8.02782 8.50279 8.0371 6.49976 8.0371V6.0371C8.49673 6.0371 9.72846 6.02785 10.4996 6.01865C10.9091 6.01376 11.1996 6.00866 11.4057 6.00505C11.5766 6.00204 11.6896 6.00006 11.7643 6.00006C18.5962 6.00006 24.234 11.2429 24.234 17.8295V18.9258L26.5174 22.1597C27.8288 24.0171 26.3431 26.3255 24.234 26.3267V26.9928C24.234 28.0585 23.3364 28.8258 22.3517 28.8258H21.6709L22.7073 29.5254C23.5423 29.6839 24.234 30.3895 24.234 31.3249V32.824C24.234 34.421 23.3338 35.7906 22.0418 36.5356C21.165 37.0412 20.2489 37.0908 19.5128 36.9993C18.7962 36.9102 18.1386 36.6744 17.6506 36.4769L15.4112 35.5708V40.167C15.4112 41.2327 14.5136 42.0001 13.5289 42.0001H11.4998V40.0001H13.4112V34.0873C13.4112 33.7548 13.5765 33.444 13.8522 33.2582C14.1279 33.0723 14.478 33.0356 14.7863 33.1604L18.4008 34.623C18.8369 34.7995 19.3031 34.9578 19.7596 35.0146C20.2185 35.0716 20.6584 35.0247 21.0428 34.803C21.7759 34.3802 22.234 33.6389 22.234 32.824V31.4849C22.0763 31.4663 21.9247 31.4102 21.7922 31.3207L19.0767 29.4877C18.8013 29.3018 18.6362 28.9912 18.6362 28.6589C18.6362 28.2734 18.728 27.8663 19.0008 27.5208C19.2705 27.1793 19.6247 27.0155 19.9203 26.9336C20.2068 26.8542 20.502 26.8339 20.7433 26.827C20.9088 26.8223 21.0967 26.8236 21.2667 26.8248C21.3384 26.8253 21.407 26.8258 21.4694 26.8258H22.234V25.3267C22.234 24.7745 22.6817 24.3267 23.234 24.3267H24.2323C24.5679 24.3267 24.8026 24.1574 24.9181 23.9537C25.0305 23.7554 25.0344 23.5269 24.8836 23.3133L22.4171 19.8201C22.2979 19.6514 22.234 19.4499 22.234 19.2433V17.8295C22.234 12.4542 17.6015 8.00006 11.7643 8.00006C11.6971 8.00006 11.6067 8.0017 11.4616 8.00433C11.2694 8.00782 10.9812 8.01305 10.5235 8.01851Z" fill="#333333"/>
<path d="M20.9998 19.5001C20.9998 20.3285 20.3282 21.0001 19.4998 21.0001C18.6714 21.0001 17.9998 20.3285 17.9998 19.5001C17.9998 18.6716 18.6714 18.0001 19.4998 18.0001C20.3282 18.0001 20.9998 18.6716 20.9998 19.5001Z" fill="#333333"/>
<path fill-rule="evenodd" clip-rule="evenodd" d="M28.4953 32.0835C29.2049 31.6689 29.684 30.8925 29.684 29.9996C29.684 29.1066 29.2049 28.3303 28.4953 27.9157L29.5043 26.1889C30.8083 26.9508 31.684 28.3737 31.684 29.9996C31.684 31.6255 30.8083 33.0484 29.5043 33.8103L28.4953 32.0835Z" fill="#333333"/>
<path fill-rule="evenodd" clip-rule="evenodd" d="M31.7821 34.6634C32.995 33.7859 33.8945 32.0672 33.8945 30C33.8945 27.9328 32.995 26.2141 31.7821 25.3366L32.9543 23.7161C34.7619 25.0238 35.8945 27.3893 35.8945 30C35.8945 32.6106 34.7619 34.9761 32.9544 36.2838L31.7821 34.6634Z" fill="#333333"/>
<path fill-rule="evenodd" clip-rule="evenodd" d="M38.1049 30C38.1049 26.8186 36.8408 24.1521 35.1152 22.7836L36.3579 21.2165C38.6595 23.0418 40.1049 26.3445 40.1049 30C40.1049 33.6554 38.6595 36.9582 36.3579 38.7834L35.1152 37.2164C36.8408 35.8479 38.1049 33.1814 38.1049 30Z" fill="#333333"/>
</svg>
