<svg width="48" height="48" viewBox="0 0 48 48" fill="none" xmlns="http://www.w3.org/2000/svg">
<path fill-rule="evenodd" clip-rule="evenodd" d="M19.4671 7.49839C19.4671 4.73637 21.7053 2.49658 24.4672 2.49658C27.2291 2.49658 29.4673 4.73637 29.4673 7.49839C29.4673 9.13801 28.6785 10.5936 27.4597 11.5059H29.8578C30.3198 11.5059 30.8322 11.6926 31.2759 11.9254C31.7508 12.1745 32.264 12.5378 32.7393 13.0127C33.6951 13.9676 34.5329 15.4134 34.5329 17.3163C34.5329 19.6575 33.7565 21.3678 32.7964 22.5043C32.3214 23.0666 31.803 23.4864 31.3164 23.7711C31.1692 23.8572 31.0152 23.9367 30.8578 24.0048V42.869C30.8578 44.3203 29.6746 45.5035 28.2233 45.5035C26.772 45.5035 25.5887 44.3203 25.5887 42.869V32.8501C25.2426 32.9477 24.8774 33 24.5 33C24.0891 33 23.6927 32.938 23.3196 32.823V42.869C23.3196 44.3203 22.1363 45.5035 20.685 45.5035C19.2337 45.5035 18.0504 44.3203 18.0504 42.869V26.7651L14.5795 22.6C13.9455 21.8392 13.8204 20.776 14.2603 19.8889L17.7275 12.8967C18.143 12.0588 18.9908 11.524 19.9235 11.5077L19.9235 11.5059H21.4747C20.2559 10.5936 19.4671 9.13801 19.4671 7.49839ZM24.4672 4.49658C22.8107 4.49658 21.4671 5.84013 21.4671 7.49839C21.4671 9.15665 22.8107 10.5002 24.4672 10.5002C26.1237 10.5002 27.4673 9.15665 27.4673 7.49839C27.4673 5.84013 26.1237 4.49658 24.4672 4.49658ZM21.3196 31.4262C20.8615 30.8267 20.5692 30.0938 20.5108 29.2961C20.3502 29.227 20.1957 29.1406 20.0504 29.0371V42.869C20.0504 43.2157 20.3383 43.5035 20.685 43.5035C21.0317 43.5035 21.3196 43.2157 21.3196 42.869V31.4262ZM22.5199 29.2827C22.7244 29.1913 22.9199 29.0705 23.1005 28.9201C23.6759 28.4406 23.9813 27.7574 23.9993 27.0632C24.1593 27.0219 24.3271 27 24.5 27C25.6046 27 26.5 27.8954 26.5 29C26.5 30.1046 25.6046 31 24.5 31C23.4914 31 22.6572 30.2534 22.5199 29.2827ZM23.2532 25.1982L19.0464 20.15L17.5099 21.4303L21.8841 26.6794C22.0609 26.8916 22.0323 27.2068 21.8201 27.3836C21.608 27.5604 21.2927 27.5317 21.1159 27.3196L16.1159 21.3196C15.9891 21.1675 15.9641 20.9548 16.0521 20.7774L19.5193 13.7852C19.6037 13.615 19.7773 13.5073 19.9673 13.5073V13.5059H29.8578C29.8569 13.5056 29.857 13.5059 29.8578 13.5059C29.8587 13.5061 29.8603 13.5067 29.8624 13.5071C29.8931 13.5131 30.0603 13.5461 30.3468 13.6964C30.6453 13.853 30.9947 14.0968 31.3258 14.4276C31.9827 15.0839 32.5329 16.0434 32.5329 17.3163C32.5329 19.1889 31.9213 20.441 31.2686 21.2136C31.1323 21.375 30.9937 21.516 30.8578 21.6376V15.775H28.8578V42.869C28.8578 43.2157 28.57 43.5035 28.2233 43.5035C27.8766 43.5035 27.5887 43.2157 27.5887 42.869V31.5419C28.1581 30.8508 28.5 29.9653 28.5 29C28.5 26.7909 26.7092 25 24.5 25C24.0647 25 23.6455 25.0696 23.2532 25.1982Z" fill="#333333"/>
</svg>
