<svg width="48" height="48" viewBox="0 0 48 48" fill="none" xmlns="http://www.w3.org/2000/svg">
<path d="M19.9673 12.5073C19.3974 12.5073 18.8766 12.8303 18.6234 13.3409L15.1562 20.3331C14.8923 20.8654 14.9674 21.5033 15.3477 21.9598L20.3478 27.9598C20.8781 28.5962 21.8239 28.6822 22.4604 28.1518C23.0968 27.6215 23.1828 26.6756 22.6524 26.0392L18.2782 20.7901" stroke="#333333" stroke-width="2" stroke-linejoin="round"/>
<path d="M20 12.5058C20 12.5058 18.3952 12.5058 29.8579 12.5058C30.7569 12.5058 33.533 14.1404 33.533 17.3163C33.533 21.53 30.7569 23.2412 29.8579 23.2412V15.775V42.8689C29.8579 43.768 29.1223 44.5035 28.2233 44.5035C27.3243 44.5035 26.5887 43.768 26.5887 42.8689V31.217M22.3196 31.217V42.8689C22.3196 43.768 21.584 44.5035 20.685 44.5035C19.786 44.5035 19.0504 43.768 19.0504 42.8689V26.5" stroke="#333333" stroke-width="2"/>
<ellipse cx="24.4672" cy="7.49839" rx="4.00008" ry="4.00181" stroke="#333333" stroke-width="2"/>
<path fill-rule="evenodd" clip-rule="evenodd" d="M21.4999 28C22.3284 28 22.9999 27.3284 22.9999 26.5C22.9999 26.1059 22.8479 25.7472 22.5993 25.4795C23.1647 25.1737 23.8121 25 24.5 25C26.7091 25 28.5 26.7909 28.5 29C28.5 31.2091 26.7091 33 24.5 33C22.2909 33 20.5 31.2091 20.5 29C20.5 28.5692 20.5681 28.1542 20.6942 27.7654C20.9269 27.9139 21.2034 28 21.4999 28ZM26.5 29C26.5 30.1046 25.6046 31 24.5 31C23.3954 31 22.5 30.1046 22.5 29C22.5 27.8954 23.3954 27 24.5 27C25.6046 27 26.5 27.8954 26.5 29Z" fill="#333333"/>
</svg>
