<svg width="48" height="48" viewBox="0 0 48 48" fill="none" xmlns="http://www.w3.org/2000/svg">
<path fill-rule="evenodd" clip-rule="evenodd" d="M24.0001 3C23.4751 3 22.969 3.08091 22.4936 3.23095C21.5536 2.52929 20.2187 2.56798 19.3183 3.38649L13.8183 8.38648C12.8056 9.30713 12.7215 10.871 13.6295 11.895L17.5832 16.3536V42.1292C17.5832 43.5805 18.7664 44.7638 20.2177 44.7638C21.669 44.7638 22.8523 43.5805 22.8523 42.1292V30.9564H25.1215V42.1292C25.1215 43.5805 26.3047 44.7638 27.756 44.7638C29.2073 44.7638 30.3906 43.5805 30.3906 42.1292V24.7441C30.5479 24.676 30.702 24.5965 30.8491 24.5104C31.3357 24.2257 31.8541 23.8059 32.3292 23.2436C33.2893 22.1071 34.0657 20.3968 34.0657 18.0557C34.0657 16.1527 33.2279 14.707 32.2721 13.752C31.7967 13.2771 31.2835 12.9138 30.8087 12.6647C30.3649 12.4319 29.8525 12.2452 29.3906 12.2452H26.643C27.4968 11.7125 28.1783 10.9294 28.5847 9.99856C29.9262 9.95312 31 8.83152 31 7.45455C31 6.3867 30.4253 5.31886 29.8271 4.49648L29.7954 4.45326C29.1557 3.58414 28.5 3 28.5 3C28.5 3 27.932 3.50601 27.3375 4.27685C26.4524 3.48292 25.2827 3 24.0001 3ZM26.2889 6.06053C25.7386 5.41176 24.9174 5 24.0001 5C23.8271 5 23.6576 5.01464 23.4926 5.04274C23.5498 5.78563 23.2757 6.54618 22.6817 7.0862L21.0535 8.56641C21.3183 9.95245 22.5369 11 24.0001 11C25.2108 11 26.254 10.2828 26.728 9.25013C26.2781 8.78983 26 8.15525 26 7.45455C26 6.98282 26.1121 6.5111 26.2889 6.06053ZM19.4334 10.0392C19.8422 10.9533 20.5174 11.7222 21.3603 12.2471H20.6245L19.0088 10.4252L19.4334 10.0392ZM20.6637 4.86637C20.868 4.68062 21.1842 4.69568 21.37 4.90001C21.5557 5.10434 21.5407 5.42056 21.3364 5.60632L16.2018 10.2741L19.7249 14.2471H21.4725L21.4904 14.2465C21.5147 14.2456 21.5392 14.2452 21.5639 14.2452H29.3906C29.3906 14.2452 29.3905 14.2455 29.3951 14.2464C29.4259 14.2525 29.5931 14.2855 29.8795 14.4358C30.178 14.5924 30.5275 14.8362 30.8585 15.1669C31.5155 15.8232 32.0657 16.7827 32.0657 18.0557C32.0657 19.9282 31.4541 21.1804 30.8014 21.9529C30.6658 22.1134 30.5281 22.2536 30.3931 22.3748V16.2199H28.3931V22.9806H28.3906V42.1292C28.3906 42.476 28.1028 42.7638 27.756 42.7638C27.4093 42.7638 27.1215 42.476 27.1215 42.1292V28.9564H20.8523V42.1292C20.8523 42.476 20.5645 42.7638 20.2177 42.7638C19.871 42.7638 19.5832 42.476 19.5832 42.1292V16.2452C19.5832 16.1766 19.5865 16.1091 19.593 16.0428L19.6476 15.4842L19.1992 15.1466C19.1729 15.1267 19.1483 15.1041 19.1259 15.0789L15.1259 10.5681C14.9443 10.3633 14.9611 10.0505 15.1637 9.86636L20.6637 4.86637ZM29 7.45455C29 7.78992 28.7423 8 28.5 8C28.2577 8 28 7.78992 28 7.45455C28 7.1169 28.1695 6.64445 28.5 6.10554C28.8305 6.64445 29 7.1169 29 7.45455Z" fill="#333333"/>
</svg>
