<svg width="48" height="48" viewBox="0 0 48 48" fill="none" xmlns="http://www.w3.org/2000/svg">
<path fill-rule="evenodd" clip-rule="evenodd" d="M24.4443 4C21.826 4 19.6568 6.1046 19.6568 8.71967C19.6568 10.7117 20.9155 12.4075 22.6726 13.1025H16.7576C16.04 12.4193 15.069 12 14 12C12.931 12 11.96 12.4193 11.2424 13.1025H8.89375C7.31702 13.1025 6 14.3702 6 15.9623C6 17.5545 7.31702 18.8221 8.89375 18.8221H11.1653C11.8897 19.5497 12.8922 20 14 20C15.1078 20 16.1103 19.5497 16.8347 18.8221H18.3352L12.1318 39.9967V40.1402C12.1318 41.7323 13.4488 43 15.0255 43C16.2873 43 17.2222 42.0524 17.8643 41.1311C18.5455 40.1536 19.13 38.8715 19.6257 37.5887C19.7206 37.3433 19.813 37.0957 19.9029 36.8477C20.2515 36.9469 20.6196 37 21 37C23.2091 37 25 35.2091 25 33C25 32.597 24.9404 32.2078 24.8295 31.841H26.4625C26.6038 32.2566 26.77 32.789 26.9654 33.4151L27.0831 33.7919C27.4421 34.9397 27.8743 36.295 28.3743 37.5887C28.87 38.8715 29.4545 40.1536 30.1357 41.1311C30.7778 42.0524 31.7127 43 32.9745 43C34.5512 43 35.8683 41.7323 35.8683 40.1402V39.9967L32.1669 27.3628C33.2699 26.6506 34 25.4106 34 24C34 21.794 32.2143 20.0051 30.0095 20L29.6648 18.8221H39.1062C40.683 18.8221 42 17.5545 42 15.9623C42 14.3702 40.683 13.1025 39.1062 13.1025H26.2161C27.9732 12.4075 29.2318 10.7117 29.2318 8.71967C29.2318 6.10461 27.0626 4 24.4443 4ZM23.454 29.841H27.8211L28.079 30.4523C28.3006 30.9776 28.5706 31.8438 28.8694 32.8024L28.9919 33.1948C29.3505 34.3412 29.7658 35.6411 30.2398 36.8678C30.7181 38.1055 31.2341 39.2093 31.7765 39.9876C32.358 40.8219 32.7699 41 32.9745 41C33.4376 41 33.8012 40.6603 33.8599 40.2552L30.267 27.9912C30.1787 27.997 30.0897 28 30 28C27.7909 28 26 26.2091 26 24C26 22.4904 26.8363 21.1761 28.0708 20.4951L26.9948 16.8221H39.1062C39.6126 16.8221 40 16.416 40 15.9623C40 15.5087 39.6126 15.1025 39.1062 15.1025H17.8989C17.9651 15.391 18 15.6914 18 16C18 16.2818 17.9709 16.5568 17.9154 16.8221H21.0052L14.1401 40.2552C14.1988 40.6603 14.5624 41 15.0255 41C15.2301 41 15.642 40.8219 16.2235 39.9876C16.7659 39.2093 17.2819 38.1055 17.7602 36.8678C17.8952 36.5186 18.0253 36.1634 18.1508 35.8075C17.4392 35.0854 17 34.094 17 33C17 30.7909 18.7909 29 21 29C21.9249 29 22.7765 29.3139 23.454 29.841ZM10.0846 16.8221C10.0291 16.5568 10 16.2818 10 16C10 15.6914 10.0349 15.391 10.1011 15.1025H8.89375C8.38736 15.1025 8 15.5087 8 15.9623C8 16.416 8.38736 16.8221 8.89375 16.8221H10.0846ZM21.6568 8.71967C21.6568 7.2431 22.8964 6 24.4443 6C25.9923 6 27.2318 7.2431 27.2318 8.71967C27.2318 10.1962 25.9923 11.4393 24.4443 11.4393C22.8964 11.4393 21.6568 10.1962 21.6568 8.71967ZM16 16C16 17.1046 15.1046 18 14 18C12.8954 18 12 17.1046 12 16C12 14.8954 12.8954 14 14 14C15.1046 14 16 14.8954 16 16ZM30 26C31.1046 26 32 25.1046 32 24C32 22.8954 31.1046 22 30 22C28.8954 22 28 22.8954 28 24C28 25.1046 28.8954 26 30 26ZM23 33C23 34.1046 22.1046 35 21 35C19.8954 35 19 34.1046 19 33C19 31.8954 19.8954 31 21 31C22.1046 31 23 31.8954 23 33Z" fill="#333333"/>
<path d="M10.9517 12.1026C13.0377 9.60753 15.826 7.71984 19.0127 6.74341C19.3803 5.76034 20.0137 4.90717 20.8223 4.26465C15.6985 5.12736 11.271 8.04097 8.41314 12.1321C8.57095 12.1126 8.73138 12.1026 8.89375 12.1026H10.9517Z" fill="#333333"/>
<path d="M7.35899 19.5082C6.6598 19.2093 6.06122 18.7124 5.64197 18.0846C5.22323 19.6525 5 21.3002 5 23.0001C5 28.8499 7.64365 34.0822 11.8014 37.5676L12.4223 35.4483C9.08653 32.3445 7 27.9159 7 23.0001C7 21.8032 7.12369 20.6352 7.35899 19.5082Z" fill="#333333"/>
<path d="M19.4132 39.3741L18.8904 40.6132C18.8628 40.8377 18.8158 41.0557 18.7513 41.2658C20.4183 41.744 22.1793 42.0001 24 42.0001C25.8207 42.0001 27.5817 41.744 29.2487 41.2658C29.1842 41.0557 29.1372 40.8377 29.1096 40.6132L28.5868 39.3741C27.1277 39.782 25.5893 40.0001 24 40.0001C22.4107 40.0001 20.8723 39.782 19.4132 39.3741Z" fill="#333333"/>
<path d="M35.5777 35.4483L36.1986 37.5676C40.3563 34.0822 43 28.8499 43 23.0001C43 21.3002 42.7768 19.6525 42.358 18.0846C41.9388 18.7124 41.3402 19.2093 40.641 19.5082C40.8763 20.6352 41 21.8032 41 23.0001C41 27.9159 38.9135 32.3445 35.5777 35.4483Z" fill="#333333"/>
<path d="M37.0483 12.1026H39.1062C39.2686 12.1026 39.429 12.1126 39.5869 12.1321C36.948 8.35445 32.9708 5.58079 28.3429 4.4987C29.1073 5.18768 29.6869 6.07685 29.9917 7.08608C32.76 8.12888 35.1845 9.8733 37.0483 12.1026Z" fill="#333333"/>
</svg>
