<svg width="48" height="48" viewBox="0 0 48 48" fill="none" xmlns="http://www.w3.org/2000/svg">
<path d="M31.855 17.8859C31.855 18.6696 31.2197 19.3049 30.4359 19.3049C29.6522 19.3049 29.0168 18.6696 29.0168 17.8859C29.0168 17.1021 29.6522 16.4668 30.4359 16.4668C31.2197 16.4668 31.855 17.1021 31.855 17.8859Z" fill="#333333"/>
<path d="M31.6433 27.4171C31.6433 28.2009 31.008 28.8362 30.2243 28.8362C29.4405 28.8362 28.8052 28.2009 28.8052 27.4171C28.8052 26.6334 29.4405 25.998 30.2243 25.998C31.008 25.998 31.6433 26.6334 31.6433 27.4171Z" fill="#333333"/>
<path d="M35.6433 27.4171C35.6433 28.2009 35.008 28.8362 34.2243 28.8362C33.4405 28.8362 32.8052 28.2009 32.8052 27.4171C32.8052 26.6334 33.4405 25.998 34.2243 25.998C35.008 25.998 35.6433 26.6334 35.6433 27.4171Z" fill="#333333"/>
<path d="M34.1633 22.7874C34.1633 24.0355 33.1515 25.0474 31.9033 25.0474C30.6552 25.0474 29.6433 24.0355 29.6433 22.7874C29.6433 21.5392 30.6552 20.5273 31.9033 20.5273C33.1515 20.5273 34.1633 21.5392 34.1633 22.7874Z" fill="#333333"/>
<path fill-rule="evenodd" clip-rule="evenodd" d="M21.9539 18.789C21.7279 17.8462 21.4193 16.9728 21 16.2397C20.4566 15.2898 19.7272 14.5753 18.75 14.25C14.25 12.75 9 20.25 9 31.5C9 34.5 9 36 9.75 36.75C10.5 37.5 12 37.5 15 37.5C21 37.5 22.5 33 22.5 28.5C22.5 28.1801 22.5085 27.7838 22.5184 27.3291C22.5382 26.4087 22.5632 25.2489 22.533 24C22.5297 23.8635 22.5257 23.7259 22.521 23.5875L23.2028 22.5H24.8253L25.4805 23.589C25.4758 23.7269 25.4719 23.864 25.4686 24C25.4383 25.2497 25.4633 26.4101 25.4832 27.3304C25.493 27.7848 25.5015 28.1807 25.5015 28.5C25.5015 33 27.0015 37.5 33.0015 37.5C38.7765 37.5 38.994 37.5 39.0015 32.154V31.5C39.0015 20.25 33.7515 12.75 29.2515 14.25C28.2734 14.5763 27.5435 15.2919 27 16.2431C26.5786 16.9806 26.2692 17.8598 26.043 18.8091C25.9292 19.2867 25.8364 19.782 25.761 20.286L25.5 20.2172V9H22.5V20.1861L22.2405 20.2845C22.1641 19.7741 22.0699 19.2724 21.9539 18.789ZM18.2763 15.6732C18.8491 15.8639 19.3599 16.3233 19.801 17.1738C20.249 18.0374 20.5595 19.187 20.757 20.5065L21 22.1299V24H21.0326C21.0636 25.22 21.0397 26.3134 21.0197 27.2274C21.0093 27.7024 21 28.1294 21 28.5C21 30.6307 20.6363 32.5289 19.7519 33.8554C18.9391 35.0746 17.563 36 15 36C13.4634 36 12.438 35.9978 11.6969 35.9154C10.9515 35.8326 10.8163 35.6951 10.8108 35.6895C10.8051 35.6839 10.6674 35.5485 10.5846 34.8031C10.5022 34.062 10.5 33.0367 10.5 31.5C10.5 26.0865 11.7667 21.6822 13.4703 18.8712C15.2525 15.9306 17.0833 15.2756 18.2763 15.6732ZM26.9818 27.2288C26.9618 26.3148 26.9379 25.2208 26.969 24H27V22.1423L27.2445 20.5079C27.442 19.1877 27.7525 18.0381 28.2005 17.1746C28.6415 16.3243 29.1523 15.8644 29.7258 15.673C30.9188 15.2754 32.749 15.9306 34.5312 18.8712C36.2348 21.6822 37.5015 26.0865 37.5015 31.5L37.5015 32.1519L37.5015 32.1533C37.4996 33.5161 37.4817 34.402 37.3892 35.0242C37.345 35.3223 37.2918 35.4943 37.2491 35.5917C37.2139 35.6717 37.1909 35.6907 37.1868 35.694C37.1611 35.7161 36.9832 35.8478 36.2245 35.924C35.4845 35.9982 34.4775 36 33.0015 36C30.4385 36 29.0624 35.0746 28.2496 33.8554C27.3652 32.5289 27.0015 30.6307 27.0015 28.5C27.0015 28.1299 26.9922 27.7035 26.9818 27.2288Z" fill="#333333"/>
</svg>
