<svg width="48" height="48" viewBox="0 0 48 48" fill="none" xmlns="http://www.w3.org/2000/svg">
<path d="M18.5128 14.9615L18.5131 14.9616C19.3291 15.2332 19.9684 15.8677 20.4668 16.8285C20.9686 17.7957 21.2954 19.0367 21.4988 20.3955L21.6365 21.3155L21.75 21.2725V22.5V23.25H21.8474L21.7636 23.3836L21.7714 23.613C21.8185 24.9983 21.791 26.265 21.769 27.2777C21.7589 27.7432 21.75 28.155 21.75 28.5C21.75 30.6904 21.3806 32.7645 20.376 34.2715C19.4071 35.7248 17.7815 36.75 15 36.75C13.4817 36.75 12.4065 36.7489 11.6141 36.6608C10.8161 36.5722 10.4695 36.4088 10.2803 36.2197C10.0912 36.0305 9.92783 35.6839 9.83916 34.8859C9.75111 34.0935 9.75 33.0183 9.75 31.5C9.75 25.9808 11.0396 21.4349 12.8289 18.4825C14.6575 15.4653 16.7913 14.3877 18.5128 14.9615ZM26.2376 23.3926L26.1518 23.25H26.25V22.5V21.1905L26.379 21.2245L26.5027 20.397C26.7061 19.0375 27.033 17.7965 27.5347 16.8292C28.033 15.8686 28.6724 15.2338 29.4887 14.9615C31.2102 14.3877 33.344 15.4653 35.1726 18.4825C36.9619 21.4349 38.2515 25.9808 38.2515 31.5V32.1529C38.2496 33.503 38.2332 34.4473 38.1311 35.1345C38.03 35.8147 37.8632 36.1015 37.6753 36.2631C37.4682 36.4412 37.095 36.5904 36.2994 36.6702C35.5131 36.7491 34.4614 36.75 33.0015 36.75C30.22 36.75 28.5944 35.7248 27.6255 34.2715C26.6209 32.7645 26.2515 30.6904 26.2515 28.5C26.2515 28.1556 26.2426 27.7442 26.2325 27.2792C26.2105 26.2669 26.183 25 26.2301 23.6145L26.2376 23.3926ZM24.75 9.75V19.244L24.675 19.2242L24.0158 19.0505L23.8085 19.6133L23.7283 19.5045L23.3908 19.0465L23.25 19.0998V9.75H24.75Z" stroke="#333333" stroke-width="1.5"/>
<circle cx="30.4359" cy="17.8859" r="1.41907" fill="#333333"/>
<circle cx="30.2243" cy="27.4171" r="1.41907" fill="#333333"/>
<circle cx="34.2243" cy="27.4171" r="1.41907" fill="#333333"/>
<circle cx="31.9033" cy="22.7874" r="2.26001" fill="#333333"/>
</svg>
