<svg width="48" height="48" viewBox="0 0 48 48" fill="none" xmlns="http://www.w3.org/2000/svg">
<path d="M22.8584 8C21.0604 8 19.5893 9.47112 19.5893 11.2691C19.5893 13.0672 21.0604 14.5383 22.8584 14.5383C24.6564 14.5383 26.1276 13.0672 26.1276 11.2691C26.1276 9.47112 24.6564 8 22.8584 8Z" stroke="#333333" stroke-width="2"/>
<path d="M17.9547 24V39.0579C17.9547 39.9569 18.6903 40.6924 19.5893 40.6924C20.4883 40.6924 21.2238 39.9569 21.2238 39.0579V30.885H24.493V39.0579C24.493 39.9569 25.2286 40.6924 26.1276 40.6924C27.0266 40.6924 27.7621 39.9569 27.7621 39.0579C27.7621 31.4491 27.7621 29.0642 27.7621 21.5M27.7621 26.9092V21.5M17.9547 16H28.6472L34.6214 22.7708C35.4567 23.7174 35.3446 25.1671 34.3737 25.9741V25.9741C33.4209 26.7661 32.0061 26.6337 31.2167 25.6788L27.7621 21.5M27.7621 21.5V21.3464C27.7621 21.3978 27.7621 21.449 27.7621 21.5Z" stroke="#333333" stroke-width="2" stroke-linejoin="round"/>
<path d="M19.1772 19.152C18.7088 18.8593 18.0919 19.0017 17.7992 19.47C17.5064 19.9383 17.6488 20.5553 18.1171 20.848L19.1772 19.152ZM18.1171 20.848L24.4189 24.7867L25.4789 23.0907L19.1772 19.152L18.1171 20.848ZM23.1246 26.8137L16.5717 22.5401L15.4792 24.2153L22.0321 28.4889L23.1246 26.8137ZM18.223 17.0002L23.1472 17.0006L23.1474 15.0006L18.2232 15.0002L18.223 17.0002ZM15.4864 18.7704C15.9747 17.696 17.0501 17.0001 18.223 17.0002L18.2232 15.0002C16.2587 15 14.4755 16.161 13.6656 17.9429L15.4864 18.7704ZM16.5717 22.5401C15.3345 21.7332 14.8709 20.1246 15.4864 18.7704L13.6656 17.9429C12.6456 20.1871 13.4055 22.863 15.4792 24.2153L16.5717 22.5401ZM24.8571 26.3441C24.5358 26.9868 23.7264 27.2061 23.1246 26.8137L22.0321 28.4889C23.6348 29.5341 25.7904 28.9499 26.646 27.2385L24.8571 26.3441ZM24.4189 24.7867C24.9446 25.1152 25.1344 25.7896 24.8571 26.3441L26.646 27.2385C27.3843 25.7618 26.879 23.9657 25.4789 23.0907L24.4189 24.7867Z" fill="#333333"/>
<path d="M26.1472 16L20.1472 25.5" stroke="#333333" stroke-width="2"/>
<path d="M34.1472 41C34.1472 41.5523 34.5949 42 35.1472 42C35.6994 42 36.1472 41.5523 36.1472 41H34.1472ZM30.1472 30.5C30.1472 31.0523 30.5949 31.5 31.1472 31.5C31.6994 31.5 32.1472 31.0523 32.1472 30.5H30.1472ZM36.1472 41V30H34.1472V41H36.1472ZM30.1472 30V30.5H32.1472V30H30.1472ZM33.1472 27C31.4903 27 30.1472 28.3431 30.1472 30H32.1472C32.1472 29.4477 32.5949 29 33.1472 29V27ZM36.1472 30C36.1472 28.3431 34.804 27 33.1472 27V29C33.6994 29 34.1472 29.4477 34.1472 30H36.1472Z" fill="#333333"/>
</svg>
