<svg width="48" height="48" viewBox="0 0 48 48" fill="none" xmlns="http://www.w3.org/2000/svg">
<path fill-rule="evenodd" clip-rule="evenodd" d="M31.7112 7C34.0615 7 35.9803 8.91883 35.9803 11.2691C35.9803 13.0071 34.9311 14.5091 33.4341 15.1738H36.615C37.0769 15.1738 37.5893 15.3605 38.033 15.5933C38.5079 15.8424 39.0211 16.2058 39.4964 16.6807C40.4522 17.6356 41.29 19.0813 41.29 20.9843C41.29 23.3254 40.5136 25.0357 39.5535 26.1722C39.0785 26.7345 38.5601 27.1543 38.0735 27.4391C37.9264 27.5252 37.7723 27.6046 37.615 27.6728V39.0579C37.615 40.5092 36.4317 41.6924 34.9804 41.6924C33.5291 41.6924 32.3458 40.5092 32.3458 39.0579V31.885H31.0767V39.0579C31.0767 40.5092 29.8934 41.6924 28.4421 41.6924C26.9908 41.6924 25.8075 40.5092 25.8075 39.0579V20.443H18.6346C17.1833 20.443 16.0001 19.2597 16.0001 17.8084C16.0001 16.3571 17.1833 15.1738 18.6346 15.1738H29.9883C28.4913 14.5091 27.4421 13.0071 27.4421 11.2691C27.4421 8.91883 29.3609 7 31.7112 7ZM33.9803 11.2691C33.9803 10.0234 32.9569 9 31.7112 9C30.4655 9 29.4421 10.0234 29.4421 11.2691C29.4421 12.5149 30.4655 13.5383 31.7112 13.5383C32.9569 13.5383 33.9803 12.5149 33.9803 11.2691ZM39.29 20.9843C39.29 19.7114 38.7398 18.7519 38.0829 18.0955C37.7518 17.7648 37.4024 17.521 37.1039 17.3644C36.8174 17.2141 36.6502 17.1811 36.6195 17.175C36.6149 17.1741 36.6133 17.1738 36.615 17.1738H18.6346C18.2879 17.1738 18.0001 17.4617 18.0001 17.8084C18.0001 18.1551 18.2879 18.443 18.6346 18.443H27.8075V39.0579C27.8075 39.4046 28.0954 39.6924 28.4421 39.6924C28.7888 39.6924 29.0767 39.4046 29.0767 39.0579V29.885H34.3458V39.0579C34.3458 39.4046 34.6336 39.6924 34.9804 39.6924C35.3271 39.6924 35.615 39.4046 35.615 39.0579V19.443H37.615V25.3056C37.7508 25.1839 37.8894 25.043 38.0257 24.8815C38.6784 24.109 39.29 22.8569 39.29 20.9843Z" fill="#333333"/>
<path fill-rule="evenodd" clip-rule="evenodd" d="M7 32.5C7 30.8431 8.34315 29.5 10 29.5H12V28C12 26.8954 12.8954 26 14 26H17C18.1046 26 19 26.8954 19 28V29.5H21C22.6569 29.5 24 30.8431 24 32.5V38.5C24 40.1569 22.6569 41.5 21 41.5H10C8.34315 41.5 7 40.1569 7 38.5V32.5ZM17 29.5V28H14V29.5H17ZM10 31.5C9.44772 31.5 9 31.9477 9 32.5V38.5C9 39.0523 9.44772 39.5 10 39.5H11V31.5H10ZM13 31.5V39.5H18V31.5H13ZM21 39.5H20V31.5H21C21.5523 31.5 22 31.9477 22 32.5V38.5C22 39.0523 21.5523 39.5 21 39.5Z" fill="#333333"/>
</svg>
