<svg width="48" height="48" viewBox="0 0 48 48" fill="none" xmlns="http://www.w3.org/2000/svg">
<path d="M21 7C20.4477 7 20 7.44772 20 8C20 8.55228 20.4477 9 21 9H27C27.5523 9 28 8.55228 28 8C28 7.44772 27.5523 7 27 7H21Z" fill="#333333"/>
<path fill-rule="evenodd" clip-rule="evenodd" d="M13.9878 12.2059C13.9685 12.1635 13.9475 12.1164 13.9253 12.0648C13.8174 11.8142 13.6787 11.455 13.5417 10.9953C13.2676 10.0758 13 8.75356 13 7.09678C13 6.07581 13.6321 5.27356 14.3391 4.70015C15.0635 4.1127 16.0284 3.62723 17.0687 3.24019C19.1546 2.46411 21.7729 2 24 2C26.2272 2 28.8454 2.46411 30.9313 3.24019C31.9716 3.62723 32.9366 4.1127 33.6609 4.70015C34.3679 5.27356 35 6.07581 35 7.09677C35 8.75371 34.7325 10.076 34.4584 10.9955C34.3213 11.4551 34.1826 11.8143 34.0747 12.0649C34.0525 12.1165 34.0316 12.1635 34.0122 12.2059C34.011 12.3756 33.9934 12.5932 33.9376 12.8431C33.8243 13.3499 33.5589 13.963 33 14.5593V17C33 21.9706 28.9706 26 24 26C19.0295 26 15 21.9706 15 17V14.5592C14.4412 13.963 14.1758 13.3499 14.0625 12.8431C14.0066 12.5932 13.9891 12.3756 13.9878 12.2059ZM15.599 6.25348C15.0904 6.66596 15 6.95645 15 7.09677C15 8.53676 15.2325 9.66613 15.4584 10.424C15.5256 10.6495 15.5922 10.8421 15.6519 11H32.3482C32.4079 10.8421 32.4745 10.6496 32.5417 10.4241C32.7676 9.66629 33 8.53693 33 7.09678C33 6.95645 32.9097 6.66596 32.4011 6.25348C31.9098 5.85504 31.1661 5.46148 30.2339 5.11465C28.3749 4.42299 25.9931 4 24 4C22.0069 4 19.6252 4.42299 17.7661 5.11465C16.8339 5.46148 16.0902 5.85504 15.599 6.25348ZM16.2985 13C16.3656 13.09 16.4474 13.1843 16.5475 13.2811C17.3021 14.0108 19.2284 15 24 15C28.7716 15 30.698 14.0108 31.4525 13.2811C31.5526 13.1843 31.6345 13.09 31.7015 13H16.2985ZM24 17C27.255 17 29.4824 16.5639 31 15.9046V17C31 20.866 27.866 24 24 24C20.134 24 17 20.866 17 17V15.9046C18.5177 16.5639 20.745 17 24 17Z" fill="#333333"/>
<path fill-rule="evenodd" clip-rule="evenodd" d="M15.3538 42.5077C15.8131 42.1307 16.165 41.6142 16.337 41H21.1707C21.5826 42.1652 22.6938 43 24 43C25.3062 43 26.4175 42.1652 26.8293 41H31.6629C31.8348 41.6144 32.1868 42.1312 32.6461 42.5083C32.4426 43.2114 32.1556 43.8787 31.7966 44.4993L33.5278 45.5007C33.9454 44.7788 34.2833 44.005 34.5296 43.1916C34.7931 43.1934 35.0613 43.1603 35.3282 43.0887L37.2601 42.5711C38.8605 42.1423 39.8102 40.4973 39.3814 38.8969L38.3461 35.0332C37.9173 33.4328 36.2723 32.483 34.6719 32.9118L32.8091 33.411C30.8027 30.733 27.6038 29 24 29C20.3966 29 17.1978 30.7327 15.1915 33.4104L13.3282 32.9111C11.7278 32.4823 10.0828 33.432 9.65399 35.0324L8.61871 38.8961C8.18989 40.4965 9.13964 42.1415 10.74 42.5704L12.6719 43.088C12.9387 43.1595 13.2068 43.1927 13.4703 43.1909C13.7165 44.0045 14.0545 44.7786 14.4723 45.5007L16.2035 44.4993C15.8444 43.8786 15.5573 43.211 15.3538 42.5077ZM21.1707 39C21.472 38.1476 22.1476 37.472 23 37.1707V31.0549C20.5086 31.3303 18.3237 32.6227 16.8696 34.5077C17.4127 35.2213 17.6315 36.1697 17.3814 37.103L16.8731 39H21.1707ZM25 37.1707C25.8524 37.472 26.528 38.1476 26.8293 39H31.1268L30.6187 37.1037C30.3686 36.1703 30.5874 35.2217 31.1308 34.5081C29.6767 32.6229 27.4916 31.3304 25 31.0549V37.1707ZM11.5858 35.5501C11.7288 35.0166 12.2771 34.7 12.8106 34.843L14.7424 35.3606C15.2759 35.5035 15.5925 36.0519 15.4495 36.5853L14.4143 40.449C14.2713 40.9825 13.723 41.2991 13.1895 41.1561L11.2577 40.6385C10.7242 40.4956 10.4076 39.9472 10.5506 39.4138L11.5858 35.5501ZM33.2577 35.3613C32.7242 35.5043 32.4076 36.0526 32.5506 36.5861L33.5858 40.4498C33.7288 40.9832 34.2771 41.2998 34.8106 41.1569L36.7424 40.6392C37.2759 40.4963 37.5925 39.948 37.4495 39.4145L36.4143 35.5508C36.2713 35.0173 35.723 34.7007 35.1895 34.8437L33.2577 35.3613Z" fill="#333333"/>
</svg>
