<svg width="48" height="48" viewBox="0 0 48 48" fill="none" xmlns="http://www.w3.org/2000/svg">
<path d="M27.555 18.4573L30.1539 26.4381C30.4782 27.3486 31.4791 27.8239 32.3896 27.4996C33.3001 27.1754 33.7753 26.1744 33.4511 25.264L30.0906 15.8274C29.7004 14.7317 28.6631 14 27.5 14H20.3835C19.2043 14 18.1563 14.7518 17.7785 15.8688L14.5927 25.2863C14.283 26.2019 14.2741 27.1951 15.1896 27.5048C16.1051 27.8145 17.5984 27.3234 17.9082 26.4079L20.5 18.4573L21.9999 26L19.5 29V42.3515C19.5 43.2578 20.2559 43.9993 21.1797 43.9993C22.1035 43.9993 22.8594 43.2578 22.8594 42.3515V30.6052H25.1406V42.3515C25.1406 43.2578 25.7959 43.9993 26.7198 43.9993C27.6436 43.9993 28.5 43.2578 28.5 42.3515V29L25.9999 26L27.555 18.4573Z" stroke="#333333" stroke-width="2" stroke-linejoin="round"/>
<path d="M28.0002 8.00181C28.0002 10.2119 26.2093 12.0036 24.0001 12.0036C21.7909 12.0036 20 10.2119 20 8.00181C20 5.79167 21.7909 4 24.0001 4C26.2093 4 28.0002 5.79167 28.0002 8.00181Z" stroke="#333333" stroke-width="2" stroke-linejoin="round"/>
</svg>
