<svg width="48" height="48" viewBox="0 0 48 48" fill="none" xmlns="http://www.w3.org/2000/svg">
<path d="M27.867 15.5421C28.0912 15.3775 28.2807 15.1703 28.4248 14.9324L28.4284 14.9266C28.6483 14.5663 28.7562 14.1488 28.7386 13.727C28.7209 13.3053 28.5784 12.8983 28.3292 12.5576C28.0799 12.2169 27.7351 11.958 27.3384 11.8135C26.9418 11.669 26.5112 11.6456 26.1013 11.7462C25.6913 11.8468 25.3204 12.0668 25.0357 12.3784C24.7509 12.69 24.5651 13.0792 24.5018 13.4965C24.4385 13.9139 24.5005 14.3406 24.68 14.7226C24.8595 15.1047 25.1485 15.4248 25.5102 15.6425L24.479 17.3561C23.7779 16.9343 23.2179 16.3137 22.8699 15.5732C22.5219 14.8327 22.4017 14.0055 22.5244 13.1965C22.6471 12.3876 23.0073 11.6333 23.5593 11.0292C24.1112 10.4252 24.8301 9.99873 25.6248 9.80378C26.4194 9.60884 27.2541 9.65425 28.0229 9.93426C28.7917 10.2143 29.46 10.7163 29.9432 11.3766C30.4264 12.0369 30.7026 12.8258 30.7368 13.6433C30.7711 14.4608 30.5618 15.2701 30.1355 15.9685C29.8553 16.4311 29.4867 16.834 29.0508 17.1542C28.6148 17.4743 28.12 17.7054 27.5947 17.8342C27.0695 17.9631 26.5239 17.9872 25.9893 17.9052C25.4547 17.8231 24.9415 17.6366 24.479 17.3561L25.516 15.646C25.7538 15.7902 26.0177 15.8861 26.2926 15.9283C26.5676 15.9705 26.8481 15.9581 27.1182 15.8918C27.3884 15.8256 27.6428 15.7067 27.867 15.5421Z" fill="#333333"/>
<path fill-rule="evenodd" clip-rule="evenodd" d="M21.372 28.9725C21.5671 28.4709 21.606 27.9221 21.4837 27.398L21.4818 27.3898C21.3571 26.8633 21.0755 26.3871 20.6741 26.0243L13.8041 20.7464C14.1147 20.5047 14.4212 20.2578 14.7234 20.0059C14.9217 19.8406 15.1182 19.6732 15.3127 19.5036L15.3216 19.4958L15.3859 19.4396C15.9264 18.9659 16.4523 18.4756 16.9628 17.9695L16.7401 19.6885C16.701 19.976 16.7289 20.2681 16.8211 20.5422C16.831 20.5717 16.8417 20.6009 16.8531 20.6299C16.8706 20.6746 16.8898 20.7184 16.9105 20.7614C17.029 21.0065 17.1994 21.2234 17.4105 21.3969L23.3728 26.3692C23.5506 26.5161 23.7535 26.6296 23.9717 26.7042C24.3915 26.844 24.847 26.8325 25.2593 26.6719C25.6716 26.5112 27.2816 25.5828 27.4963 25.1959C27.711 24.809 27.7836 24.3592 27.7017 23.9243C27.6198 23.4895 27.3885 23.0969 27.0477 22.8146L21.8833 18.5557L21.3103 12.9386L21.3506 12.8187C21.3789 12.4049 21.2697 11.9934 21.0401 11.648C20.8105 11.3026 20.4733 11.0427 20.0809 10.9086C18.6422 10.2451 17.0009 10.1717 15.5088 10.7041C11.4752 11.7632 6.13148 17.1112 6.13148 17.1112C5.48289 17.72 4.93089 18.4242 4.4945 19.1994C4.44981 19.2879 4.39442 19.3928 4.33271 19.5097C3.9513 20.2323 3.32852 21.4121 3.49999 22.0004C3.52177 22.0751 3.54335 22.1521 3.56532 22.2305C3.74439 22.8694 3.94926 23.6004 4.4945 23.9243L14.4308 29.9525L13.4333 38.0582C13.2929 38.7195 13.4171 39.4095 13.7792 39.9804C14.1413 40.5513 15.6604 41.2766 16.3185 41.4313C16.6365 41.4901 16.963 41.484 17.2786 41.4135C17.5942 41.343 17.8923 41.2096 18.1551 41.0211C18.4179 40.8327 18.6399 40.5932 18.8079 40.3169C18.9759 40.0406 19.0865 39.7333 19.1329 39.4132L21.372 28.9725ZM12.5856 22.3324L19.3711 27.5453C19.4515 27.6306 19.5084 27.7358 19.5356 27.8505C19.5668 27.9826 19.5572 28.1211 19.508 28.2477C19.4694 28.3469 19.4388 28.449 19.4165 28.5531L17.1773 38.9938C17.1679 39.0377 17.16 39.0818 17.1536 39.1262C17.1458 39.1798 17.1273 39.2314 17.0991 39.2777C17.0709 39.324 17.0337 39.3642 16.9896 39.3958C16.9455 39.4274 16.8956 39.4498 16.8426 39.4616C16.8049 39.47 16.7662 39.473 16.7278 39.4704C16.7138 39.466 16.6975 39.4607 16.6788 39.4543C16.618 39.4337 16.542 39.4053 16.4539 39.3692C16.2761 39.2963 16.0754 39.2025 15.883 39.0993C15.6865 38.994 15.5299 38.8955 15.426 38.8186L15.4191 38.8134C15.3761 38.7063 15.3654 38.5881 15.3897 38.4737C15.4017 38.4171 15.4113 38.36 15.4184 38.3025L16.4159 30.1968C16.512 29.4157 16.1411 28.6508 15.4682 28.2426L5.68656 22.3082L5.68607 22.3071C5.65292 22.2283 5.61602 22.1215 5.5703 21.9678C5.54799 21.8928 5.52598 21.815 5.50112 21.7264C5.52888 21.6412 5.57221 21.5265 5.63552 21.3813C5.77329 21.0653 5.91599 20.7954 6.06203 20.5193C6.12641 20.3975 6.19179 20.2739 6.25734 20.1452C6.59084 19.561 7.00978 19.0298 7.50033 18.5693C7.51576 18.5548 7.53128 18.5398 7.54625 18.5248L7.55539 18.5157L7.59427 18.4774C7.62985 18.4424 7.68439 18.3891 7.7563 18.3199C7.90019 18.1813 8.11312 17.9792 8.38222 17.7321C8.92178 17.2366 9.6802 16.5666 10.5555 15.8677C12.3846 14.4072 14.4432 13.0517 16.0168 12.6385C16.0722 12.624 16.127 12.607 16.181 12.5878C17.1804 12.2312 18.2797 12.2803 19.2432 12.7247C19.2681 12.7362 19.2932 12.7472 19.3185 12.7576C19.3069 12.885 19.3075 13.0135 19.3206 13.1415L19.8936 18.7587C19.947 19.2823 20.2047 19.7638 20.6108 20.0987L25.5838 24.1998C25.524 24.2391 25.4598 24.2803 25.3919 24.3228C25.1857 24.4516 24.9735 24.5748 24.7956 24.6717C24.7017 24.7229 24.6336 24.7579 24.5897 24.7798L18.7302 19.8933L18.9463 18.2265C19.0561 17.3791 18.6154 16.5556 17.8495 16.1767C17.0836 15.7979 16.1616 15.9476 15.5548 16.5491C14.615 17.4808 13.6202 18.3553 12.5758 19.168C12.0872 19.5483 11.8022 20.1334 11.8041 20.7526C11.806 21.3718 12.0946 21.9552 12.5856 22.3324Z" fill="#333333"/>
<path fill-rule="evenodd" clip-rule="evenodd" d="M26.1006 36.6158C27.6484 36.2288 29.7337 36.0001 32 36.0001C34.2663 36.0001 36.3516 36.2288 37.8994 36.6158C38.6656 36.8073 39.3566 37.0513 39.8801 37.3608C40.3367 37.6306 41 38.1521 41 39.0001C41 39.8481 40.3367 40.3696 39.8801 40.6395C39.3566 40.9489 38.6656 41.1929 37.8994 41.3845C36.3516 41.7714 34.2663 42.0001 32 42.0001C29.7337 42.0001 27.6484 41.7714 26.1006 41.3845C25.3344 41.1929 24.6434 40.9489 24.1198 40.6395C23.6632 40.3696 23 39.8481 23 39.0001C23 38.1521 23.6632 37.6306 24.1198 37.3608C24.6434 37.0513 25.3344 36.8073 26.1006 36.6158ZM24.9349 39.2316C24.9344 39.2315 24.9372 39.2275 24.9449 39.2196C24.9393 39.2277 24.9354 39.2316 24.9349 39.2316ZM25.2897 39.0001C25.5825 38.854 26.0132 38.6992 26.5857 38.556C27.9333 38.2191 29.848 38.0001 32 38.0001C34.152 38.0001 36.0667 38.2191 37.4143 38.556C37.9868 38.6992 38.4175 38.854 38.7102 39.0001C38.4175 39.1462 37.9868 39.3011 37.4143 39.4442C36.0667 39.7811 34.152 40.0001 32 40.0001C29.848 40.0001 27.9333 39.7811 26.5857 39.4442C26.0132 39.3011 25.5825 39.1462 25.2897 39.0001ZM39.0651 39.2316C39.0645 39.2316 39.0607 39.2277 39.0551 39.2196C39.0628 39.2275 39.0656 39.2315 39.0651 39.2316ZM39.0551 38.7806C39.0607 38.7725 39.0645 38.7686 39.0651 38.7687C39.0656 38.7687 39.0628 38.7728 39.0551 38.7806ZM24.9449 38.7806C24.9372 38.7728 24.9344 38.7687 24.9349 38.7687C24.9354 38.7686 24.9393 38.7725 24.9449 38.7806Z" fill="#333333"/>
<path d="M29 21.0001C29.5523 21.0001 30 20.5524 30 20.0001C30 19.4478 29.5523 19.0001 29 19.0001C28.4477 19.0001 28 19.4478 28 20.0001C28 20.5524 28.4477 21.0001 29 21.0001Z" fill="#333333"/>
<path d="M32 26.5001C32 27.3285 31.3284 28.0001 30.5 28.0001C29.6716 28.0001 29 27.3285 29 26.5001C29 25.6717 29.6716 25.0001 30.5 25.0001C31.3284 25.0001 32 25.6717 32 26.5001Z" fill="#333333"/>
<path d="M34 30.0001C34.5523 30.0001 35 29.5524 35 29.0001C35 28.4478 34.5523 28.0001 34 28.0001C33.4477 28.0001 33 28.4478 33 29.0001C33 29.5524 33.4477 30.0001 34 30.0001Z" fill="#333333"/>
<path d="M31 33.0001C31 33.5524 30.5523 34.0001 30 34.0001C29.4477 34.0001 29 33.5524 29 33.0001C29 32.4478 29.4477 32.0001 30 32.0001C30.5523 32.0001 31 32.4478 31 33.0001Z" fill="#333333"/>
<path d="M35.5 34.0001C36.3284 34.0001 37 33.3285 37 32.5001C37 31.6717 36.3284 31.0001 35.5 31.0001C34.6716 31.0001 34 31.6717 34 32.5001C34 33.3285 34.6716 34.0001 35.5 34.0001Z" fill="#333333"/>
</svg>
