<svg width="48" height="48" viewBox="0 0 48 48" fill="none" xmlns="http://www.w3.org/2000/svg">
<path fill-rule="evenodd" clip-rule="evenodd" d="M5 24.9999H13V26.3544C14.2215 25.9189 15.4474 25.4709 15.8672 25.2832C16.2807 25.0982 16.7613 25.0344 17.1661 25.0115C17.5909 24.9874 18.0325 25.004 18.4204 25.0334C18.8114 25.0631 19.1665 25.1074 19.423 25.144C19.5518 25.1624 19.6571 25.1791 19.7312 25.1913C19.7683 25.1974 19.7977 25.2025 19.8185 25.2061L19.843 25.2104L19.8502 25.2117L19.8536 25.2123C19.8538 25.2123 19.8539 25.2124 19.6739 26.196L19.8536 25.2123L19.8715 25.2156L26.9481 26.7734L26.9893 26.7863L26.9911 26.7869L27.0019 26.7902L27.0514 26.805C27.0964 26.8183 27.1645 26.8379 27.2523 26.8618C27.4282 26.9096 27.6809 26.974 27.982 27.0385C28.5931 27.1693 29.3658 27.2921 30.0886 27.2921C30.7266 27.2921 31.3864 27.5234 31.7422 28.1628C32.051 28.7176 31.9798 29.3301 31.8629 29.7567C31.7055 30.331 31.3658 30.9364 30.9394 31.4315C31.5271 31.2187 32.1784 30.9568 32.8824 30.6733L32.9461 30.6477C34.6643 29.9559 36.6919 29.1396 38.4793 28.8495C40.5018 28.5213 41.9684 29.2384 42.6367 30.5183C43.2362 31.6667 43.0936 33.1717 42.1992 34.0717C41.9758 34.2965 41.6333 34.5342 41.285 34.7558C40.9142 34.9918 40.4569 35.2588 39.9481 35.5421C38.929 36.1093 37.6668 36.7615 36.3992 37.3924C33.8873 38.6426 31.2586 39.8559 30.4268 40.1549C29.0101 40.664 27.3598 40.5006 25.8283 40.3491C25.7835 40.3446 25.7387 40.3402 25.6941 40.3358C25.2382 40.2908 24.7814 40.2458 24.3138 40.2111C22.2836 40.0601 20.7282 39.575 19.2855 39.125L19.2611 39.1174C17.7093 38.6334 16.2848 38.1925 14.3723 38.1169C14.1169 38.1069 13.6042 38.1141 13 38.13V40.4999H5V24.9999ZM22.0857 31.9327L21.9096 32.9171L22.0976 30.9328L27.7763 31.0002C27.7816 30.9999 27.791 30.9994 27.8043 30.9983C27.8463 30.9946 27.9273 30.9842 28.0408 30.9553C28.2655 30.8981 28.6289 30.7653 29.0761 30.4519C29.2351 30.3405 29.4243 30.1495 29.5951 29.906C29.7475 29.6886 29.8566 29.47 29.9152 29.2904C29.0518 29.273 28.1979 29.13 27.5633 28.9942C27.2204 28.9207 26.9318 28.8473 26.7274 28.7917C26.625 28.7638 26.5433 28.7403 26.486 28.7234C26.4664 28.7177 26.4497 28.7127 26.4359 28.7085L19.4788 27.177L19.4747 27.1763C19.4596 27.1737 19.4363 27.1697 19.4055 27.1646C19.3439 27.1544 19.2531 27.14 19.1403 27.124C18.9138 27.0916 18.6042 27.0532 18.269 27.0277C17.9306 27.002 17.5843 26.991 17.2793 27.0083C16.9544 27.0267 16.7635 27.0732 16.6837 27.1089C16.0092 27.4106 13.7988 28.197 12.3314 28.7124L11 29.18V26.9999H7V38.4999H11V36.1941L11.9656 36.1609C12.9216 36.128 13.9756 36.0997 14.4513 36.1185C16.6409 36.205 18.2828 36.7172 19.8299 37.1998L19.8566 37.2081C21.3055 37.66 22.6721 38.0835 24.4621 38.2166C24.9556 38.2533 25.4343 38.3005 25.8854 38.3449L25.8904 38.3454C27.6025 38.5143 28.8046 38.6127 29.7503 38.2727C30.4533 38.0201 32.9771 36.8616 35.5081 35.6019C36.7619 34.9779 37.9938 34.3408 38.9754 33.7945C39.4669 33.521 39.8866 33.2751 40.2113 33.0685C40.5584 32.8476 40.7299 32.713 40.7805 32.662C40.9824 32.4588 41.1138 31.9229 40.8638 31.444C40.6825 31.0968 40.1757 30.6004 38.7998 30.8237C37.2555 31.0743 35.4236 31.8063 33.6293 32.5287L33.6081 32.5372C32.7192 32.895 31.8374 33.25 31.0578 33.5071C30.3026 33.7562 29.5025 33.964 28.8236 33.9238C27.8331 33.8652 26.0833 33.608 24.6274 33.3752C23.8894 33.2572 23.2106 33.1428 22.7163 33.0579C22.4691 33.0154 22.2679 32.9803 22.1282 32.9557L21.9669 32.9272L21.9107 32.9172C21.9106 32.9172 21.9096 32.9171 22.0857 31.9327Z" fill="#333333"/>
<path fill-rule="evenodd" clip-rule="evenodd" d="M24.288 13.3843L23.5 13.9999L22.7216 13.3722L23.5124 12.3915L24.288 13.3843ZM23.4905 15.6813C23.36 15.8661 23.2225 16.0662 23.0854 16.2745C22.7852 16.7309 22.4992 17.2082 22.2919 17.6395C22.0678 18.1056 22 18.389 22 18.4999C22 19.3476 22.6523 19.9999 23.5 19.9999C24.3477 19.9999 25 19.3476 25 18.4999C25 18.4218 24.9391 18.1574 24.7098 17.6851C24.5009 17.2547 24.213 16.7716 23.9113 16.307C23.7687 16.0874 23.6257 15.8761 23.4905 15.6813ZM23.5 13.9999C22.7216 13.3722 22.7217 13.3721 22.7216 13.3722L22.7187 13.3758L22.7122 13.3839L22.689 13.413C22.6691 13.4381 22.6405 13.4742 22.6046 13.5202C22.5327 13.6122 22.431 13.744 22.3094 13.9062C22.0669 14.2295 21.7416 14.6782 21.4146 15.1753C21.0898 15.669 20.7508 16.2291 20.4894 16.7729C20.2447 17.2817 20 17.9109 20 18.4999C20 20.4522 21.5477 21.9999 23.5 21.9999C25.4523 21.9999 27 20.4522 27 18.4999C27 17.928 26.7484 17.3049 26.509 16.8117C26.2491 16.2764 25.912 15.7157 25.5887 15.2178C25.2631 14.7164 24.9392 14.2598 24.6977 13.9297C24.5765 13.7642 24.4753 13.6294 24.4039 13.5353C24.3681 13.4882 24.3398 13.4512 24.3201 13.4257L24.2971 13.396L24.2908 13.3878L24.288 13.3843C24.2879 13.3842 24.288 13.3843 23.5 13.9999Z" fill="#333333"/>
<path fill-rule="evenodd" clip-rule="evenodd" d="M35.3 6.39992L34.5 6.99992L33.7 6.39992L34.5 5.33325L35.3 6.39992ZM34.5 8.71617C34.1012 9.28939 33.5998 10.034 33.0996 10.8398C32.5478 11.7289 32.0088 12.6744 31.6111 13.5362C31.1959 14.4358 31 15.1088 31 15.4999C31 17.4476 32.5523 18.9999 34.5 18.9999C36.4477 18.9999 38 17.4476 38 15.4999C38 15.1088 37.8041 14.4358 37.3889 13.5362C36.9912 12.6744 36.4522 11.7289 35.9004 10.8398C35.4002 10.034 34.8988 9.28939 34.5 8.71617ZM34.5 6.99992C33.7 6.39992 33.7001 6.39979 33.7 6.39992L33.6958 6.40554L33.6852 6.41978L33.6455 6.47321C33.6112 6.51963 33.5614 6.5873 33.4983 6.67389C33.3722 6.84701 33.1929 7.09603 32.9781 7.40231C32.5492 8.01393 31.9756 8.85827 31.4004 9.78506C30.8272 10.7085 30.2412 11.7316 29.7952 12.698C29.3666 13.6265 29 14.6411 29 15.4999C29 18.5522 31.4477 20.9999 34.5 20.9999C37.5523 20.9999 40 18.5522 40 15.4999C40 14.6411 39.6334 13.6265 39.2048 12.698C38.7588 11.7316 38.1728 10.7085 37.5996 9.78506C37.0244 8.85827 36.4508 8.01393 36.0219 7.40231C35.8071 7.09603 35.6278 6.84701 35.5017 6.67389C35.4386 6.5873 35.3888 6.51963 35.3545 6.47321L35.3148 6.41978L35.3042 6.40554L35.3 6.39992C35.2999 6.39979 35.3 6.39992 34.5 6.99992Z" fill="#333333"/>
</svg>
