<svg width="48" height="48" viewBox="0 0 48 48" fill="none" xmlns="http://www.w3.org/2000/svg">
<path fill-rule="evenodd" clip-rule="evenodd" d="M43 5V11H21V7C21 5.89543 21.8954 5 23 5H43ZM23 7H41V9H23V7Z" fill="#333333"/>
<path fill-rule="evenodd" clip-rule="evenodd" d="M5 28H13V29.3545C14.2215 28.919 15.4474 28.471 15.8672 28.2833C16.2807 28.0983 16.7613 28.0345 17.1661 28.0116C17.5909 27.9875 18.0325 28.0041 18.4204 28.0335C18.8114 28.0632 19.1665 28.1075 19.423 28.1441C19.5518 28.1625 19.6571 28.1791 19.7312 28.1914C19.7683 28.1975 19.7977 28.2025 19.8185 28.2062L19.843 28.2105L19.8502 28.2118L19.8536 28.2124C19.8538 28.2124 19.8539 28.2125 19.6739 29.1961L19.8536 28.2124L19.8715 28.2157L26.9481 29.7735L26.9893 29.7864L26.9911 29.787L27.0019 29.7903L27.0514 29.8051C27.0964 29.8184 27.1645 29.838 27.2523 29.8618C27.4282 29.9097 27.6809 29.9741 27.982 30.0386C28.5931 30.1694 29.3658 30.2922 30.0886 30.2922C30.7266 30.2922 31.3864 30.5235 31.7422 31.1629C32.051 31.7177 31.9798 32.3301 31.8629 32.7568C31.7055 33.331 31.3658 33.9365 30.9394 34.4315C31.5271 34.2188 32.1784 33.9568 32.8824 33.6734L32.9461 33.6478C34.6643 32.956 36.6919 32.1397 38.4793 31.8496C40.5018 31.5213 41.9684 32.2384 42.6367 33.5184C43.2362 34.6668 43.0936 36.1718 42.1992 37.0718C41.9758 37.2966 41.6333 37.5343 41.285 37.7559C40.9142 37.9919 40.4569 38.2589 39.9481 38.5421C38.929 39.1093 37.6668 39.7616 36.3992 40.3925C33.8873 41.6426 31.2586 42.856 30.4268 43.155C29.0101 43.6641 27.3598 43.5007 25.8283 43.3491L25.6941 43.3359C25.2382 43.2909 24.7814 43.2459 24.3138 43.2111C22.2836 43.0602 20.7282 42.5751 19.2855 42.125L19.2611 42.1174C17.7093 41.6334 16.2848 41.1926 14.3723 41.117C14.1169 41.1069 13.6042 41.1141 13 41.1301V43.5H5V28ZM21.9096 35.9171L22.0976 33.9328L27.7763 34.0002C27.7816 34 27.791 33.9995 27.8043 33.9983C27.8463 33.9946 27.9273 33.9843 28.0408 33.9554C28.2655 33.8982 28.6289 33.7653 29.0761 33.4519C29.2351 33.3406 29.4243 33.1496 29.5951 32.9061C29.7475 32.6887 29.8566 32.4701 29.9152 32.2904C29.0518 32.2731 28.1979 32.1301 27.5633 31.9942C27.2204 31.9208 26.9318 31.8473 26.7274 31.7917C26.625 31.7639 26.5433 31.7404 26.486 31.7235L26.4359 31.7086L19.4788 30.1771L19.4747 30.1764C19.4596 30.1738 19.4363 30.1698 19.4055 30.1647C19.3439 30.1545 19.2531 30.1401 19.1403 30.124C18.9138 30.0917 18.6042 30.0532 18.269 30.0278C17.9306 30.0021 17.5843 29.9911 17.2793 30.0084C16.9544 30.0268 16.7635 30.0733 16.6837 30.109C16.0092 30.4107 13.7988 31.197 12.3314 31.7125L11 32.1801V30H7V41.5H11V39.1942L11.9656 39.161C12.9216 39.1281 13.9756 39.0998 14.4513 39.1186C16.6409 39.2051 18.2828 39.7173 19.8299 40.1998L19.8566 40.2082C21.3055 40.6601 22.6721 41.0836 24.4621 41.2166C24.9554 41.2533 25.4338 41.3005 25.8847 41.345L25.8904 41.3455C27.6025 41.5144 28.8046 41.6127 29.7503 41.2728C30.4533 41.0202 32.9771 39.8616 35.5081 38.602C36.7619 37.978 37.9938 37.3409 38.9754 36.7946C39.4669 36.521 39.8866 36.2752 40.2113 36.0686C40.5584 35.8477 40.7299 35.713 40.7805 35.662C40.9824 35.4589 41.1138 34.923 40.8638 34.4441C40.6825 34.0969 40.1757 33.6004 38.7998 33.8238C37.2555 34.0744 35.4236 34.8064 33.6293 35.5287L33.6081 35.5373C32.7192 35.8951 31.8374 36.2501 31.0578 36.5072C30.3026 36.7563 29.5025 36.9641 28.8236 36.9239C27.8331 36.8653 26.0833 36.6081 24.6274 36.3753C23.8894 36.2573 23.2106 36.1429 22.7163 36.0579C22.4691 36.0155 22.2679 35.9803 22.1282 35.9558L21.9669 35.9273L21.9107 35.9173L22.0857 34.9328L21.9096 35.9171Z" fill="#333333"/>
<path d="M22 13C21.4477 13 21 13.4477 21 14C21 14.5523 21.4477 15 22 15H28C28.5523 15 29 14.5523 29 14C29 13.4477 28.5523 13 28 13H22Z" fill="#333333"/>
<path d="M25 17.1719C25.5523 17.1719 26 17.6196 26 18.1719V20.1719C26 20.7242 25.5523 21.1719 25 21.1719C24.4477 21.1719 24 20.7242 24 20.1719V18.1719C24 17.6196 24.4477 17.1719 25 17.1719Z" fill="#333333"/>
<path d="M29.1213 17.2928C28.7308 16.9023 28.0976 16.9023 27.7071 17.2928C27.3166 17.6833 27.3166 18.3165 27.7071 18.707L29.1213 20.1212C29.5118 20.5118 30.145 20.5118 30.5355 20.1212C30.9261 19.7307 30.9261 19.0975 30.5355 18.707L29.1213 17.2928Z" fill="#333333"/>
<path d="M19.2929 20.2928C18.9024 19.9023 18.9024 19.2691 19.2929 18.8786L20.7071 17.4644C21.0976 17.0738 21.7308 17.0738 22.1213 17.4644C22.5118 17.8549 22.5118 18.4881 22.1213 18.8786L20.7071 20.2928C20.3166 20.6833 19.6834 20.6833 19.2929 20.2928Z" fill="#333333"/>
<path d="M26 23.1719C26 22.6196 25.5523 22.1719 25 22.1719C24.4477 22.1719 24 22.6196 24 23.1719V25.1719C24 25.7242 24.4477 26.1719 25 26.1719C25.5523 26.1719 26 25.7242 26 25.1719V23.1719Z" fill="#333333"/>
<path d="M31.2071 20.7928C31.5976 20.4023 32.2308 20.4023 32.6213 20.7928L34.0355 22.207C34.4261 22.5975 34.4261 23.2307 34.0355 23.6212C33.645 24.0118 33.0118 24.0118 32.6213 23.6212L31.2071 22.207C30.8166 21.8165 30.8166 21.1833 31.2071 20.7928Z" fill="#333333"/>
<path d="M15.7929 22.1286C15.4024 22.5191 15.4024 23.1523 15.7929 23.5428C16.1834 23.9333 16.8166 23.9333 17.2071 23.5428L18.6213 22.1286C19.0118 21.7381 19.0118 21.1049 18.6213 20.7144C18.2308 20.3238 17.5976 20.3238 17.2071 20.7144L15.7929 22.1286Z" fill="#333333"/>
</svg>
