<svg width="48" height="48" viewBox="0 0 48 48" fill="none" xmlns="http://www.w3.org/2000/svg">
<path fill-rule="evenodd" clip-rule="evenodd" d="M24.032 28C31.2117 28 37.032 22.1797 37.032 15C37.032 7.8203 31.2117 2 24.032 2C16.8523 2 11.032 7.8203 11.032 15C11.032 22.1797 16.8523 28 24.032 28ZM34.9871 16H33.0057C32.9316 17.4079 32.7022 18.7531 32.3422 20H33.8325C34.4558 18.7807 34.8583 17.4298 34.9871 16ZM32.5176 22H31.6171C31.339 22.6275 31.0246 23.2182 30.6781 23.7659C31.3574 23.2501 31.975 22.6571 32.5176 22ZM30.2482 20C30.6518 18.7895 30.9178 17.4411 31.0027 16H25.032V20H30.2482ZM25.032 22H29.3934C29.1934 22.3737 28.9788 22.7257 28.7515 23.054C27.6544 24.6387 26.3495 25.5702 25.032 25.8819V22ZM23.032 20V16H17.0613C17.1461 17.4411 17.4121 18.7895 17.8157 20H23.032ZM18.6705 22H23.032V25.8819C21.7144 25.5702 20.4095 24.6387 19.3124 23.054C19.0851 22.7257 18.8705 22.3737 18.6705 22ZM15.7217 20C15.3617 18.7531 15.1323 17.4079 15.0582 16H13.0768C13.2056 17.4298 13.6081 18.7807 14.2314 20H15.7217ZM15.5463 22H16.4468C16.7249 22.6275 17.0393 23.2182 17.3858 23.7659C16.7065 23.2501 16.089 22.6571 15.5463 22ZM33.0057 14C32.9316 12.5921 32.7022 11.2469 32.3422 10H33.8325C34.4558 11.2193 34.8583 12.5702 34.9871 14H33.0057ZM32.5176 8H31.6171C31.339 7.3725 31.0246 6.78179 30.6781 6.23406C31.3574 6.74991 31.975 7.3429 32.5176 8ZM25.032 8L29.3934 8C29.1934 7.62634 28.9788 7.2743 28.7515 6.94603C27.6544 5.36132 26.3495 4.42981 25.032 4.11811V8ZM30.2482 10L25.032 10V14H31.0027C30.9178 12.5589 30.6518 11.2105 30.2482 10ZM23.032 4.11811V8L18.6705 8C18.8705 7.62634 19.0851 7.2743 19.3124 6.94603C20.4095 5.36132 21.7144 4.42981 23.032 4.11811ZM23.032 10L17.8157 10C17.4121 11.2105 17.1461 12.5589 17.0613 14H23.032V10ZM17.3858 6.23407C17.0393 6.7818 16.7249 7.3725 16.4468 8H15.5463C16.089 7.3429 16.7065 6.74991 17.3858 6.23407ZM15.7217 10H14.2314C13.6081 11.2193 13.2056 12.5702 13.0768 14H15.0582C15.1323 12.5921 15.3617 11.2469 15.7217 10Z" fill="#333333"/>
<path fill-rule="evenodd" clip-rule="evenodd" d="M4.35017 18.7094C4.7156 17.6456 5.84438 16.9589 6.96954 16.9854C8.24317 17.0153 9.35293 17.8998 9.85888 19.5544C10.2965 20.9853 10.431 22.7783 10.5433 24.2756L10.5484 24.3424C10.5766 24.719 10.6036 25.0766 10.6329 25.412C10.8183 25.1143 11.039 24.8447 11.278 24.6329C11.5625 24.3808 12.0308 24.0713 12.6186 24.1009C13.303 24.1353 13.7589 24.5952 14.0072 25.0993C14.2593 25.6111 14.6185 26.1201 14.9302 26.5148C15.0833 26.7086 15.2192 26.8675 15.3156 26.9768C15.3638 27.0313 15.4018 27.0731 15.4268 27.1003L15.4543 27.1299L15.4601 27.1361L15.4608 27.1368L15.4905 27.1679L19.1841 31.7888L19.1949 31.8033C19.1949 31.8032 19.1948 31.8031 18.3919 32.3992L19.1949 31.8033L19.1968 31.8059L19.2006 31.8109L19.213 31.8279L19.2249 31.8443L19.2562 31.8878C19.2926 31.9385 19.3434 32.0106 19.4041 32.0994C19.5248 32.276 19.6873 32.5232 19.8524 32.8027C20.016 33.0796 20.1914 33.4042 20.3311 33.7335C20.463 34.0445 20.5998 34.4435 20.6147 34.8462C20.6316 35.3005 20.7985 36.7795 20.9445 38.0093H23.1081V45.0093H10.1081V38.7377C9.74487 38.3058 9.36428 37.9046 8.96129 37.4806L8.94401 37.4624C8.09624 36.5705 7.16937 35.5953 6.31736 34.1474C6.12492 33.8203 5.92873 33.5045 5.73154 33.1871L5.66446 33.0792C5.00963 32.0266 4.27584 30.847 4.13316 29.5857C4.05078 28.8574 3.99155 26.4881 4.00099 24.2039C4.00576 23.0488 4.02818 21.8883 4.07608 20.9351C4.09999 20.4594 4.13074 20.025 4.17028 19.6639C4.20691 19.3294 4.25891 18.9751 4.35017 18.7094ZM14.2221 32.2491L12.525 33.2945L12.4968 33.2561L12.4177 33.1482C12.3494 33.0548 12.2511 32.9202 12.1309 32.7545C11.8906 32.4234 11.5621 31.9678 11.2096 31.4701C10.5165 30.4913 9.69287 29.2972 9.28803 28.5849C8.99527 28.0697 8.85581 27.3788 8.76581 26.7359C8.67225 26.0675 8.61389 25.2902 8.55564 24.5144L8.55397 24.4921C8.53215 24.2016 8.51016 23.9109 8.48651 23.6226L13.3303 32.7016L8.48277 23.5773C8.37846 22.3164 8.24095 21.1028 7.9463 20.1392C7.6319 19.111 7.14418 18.99 6.92249 18.9848C6.55242 18.9761 6.28809 19.2244 6.24172 19.3591L8.48277 23.5773L8.48651 23.6226L6.23184 19.3966C6.22538 19.4238 6.21774 19.4606 6.20935 19.5082C6.19243 19.6042 6.17518 19.7284 6.15839 19.8817C6.12481 20.1883 6.09647 20.5796 6.07356 21.0355C6.02781 21.9457 6.00568 23.0725 6.00097 24.2122C5.99144 26.5177 6.05351 28.7687 6.12049 29.3609C6.20687 30.1245 6.68348 30.9296 7.43032 32.1316L7.43293 32.1358C7.62755 32.449 7.83546 32.7836 8.04108 33.1331C8.77094 34.3734 9.55902 35.2064 10.411 36.1027L10.4277 36.1203C11.0662 36.7921 11.7516 37.5132 12.3984 38.4348L13.5033 40.0093H12.1081V43.0093H21.1081V40.0093H19.1722L19.065 39.1303C18.9163 37.9105 18.6413 35.6004 18.6161 34.9204C18.6147 34.8831 18.5904 34.7515 18.4898 34.5143C18.397 34.2954 18.2686 34.0539 18.1303 33.8198C17.9936 33.5883 17.8564 33.3794 17.7528 33.2278C17.7013 33.1524 17.6589 33.0923 17.63 33.0519L17.5979 33.0076L13.9806 28.4821L13.9557 28.4552C13.9219 28.4185 13.8744 28.3663 13.8163 28.3004C13.7002 28.169 13.5404 27.9819 13.3608 27.7546C13.0715 27.3883 12.7148 26.8974 12.4085 26.353C12.3616 26.4178 12.3147 26.4913 12.2705 26.572C12.1618 26.7702 12.0991 26.9568 12.079 27.0871C12.0144 27.5038 12.0472 27.7947 12.0819 27.9585C12.0994 28.0415 12.1181 28.095 12.1271 28.1182L12.1309 28.1277L14.2221 32.2491Z" fill="#333333"/>
<path fill-rule="evenodd" clip-rule="evenodd" d="M43.7717 18.7094C43.4063 17.6456 42.2775 16.9589 41.1524 16.9854C39.8787 17.0153 38.769 17.8998 38.263 19.5544C37.8255 20.9853 37.6909 22.7783 37.5786 24.2756L37.5735 24.3424C37.5453 24.719 37.5183 25.0766 37.489 25.412C37.3036 25.1143 37.0829 24.8447 36.8439 24.6329C36.5595 24.3808 36.0911 24.0713 35.5033 24.1009C34.8189 24.1353 34.363 24.5952 34.1147 25.0993C33.8626 25.6111 33.5034 26.1201 33.1917 26.5148C33.0386 26.7086 32.9027 26.8675 32.8063 26.9768C32.7581 27.0313 32.7201 27.0731 32.6951 27.1003L32.6676 27.1299L32.6618 27.1361L32.6611 27.1368L32.6314 27.1679L28.9378 31.7888L28.927 31.8033L28.9251 31.8059L28.9213 31.8109L28.9089 31.8279C28.8984 31.8422 28.8838 31.8624 28.8657 31.8878C28.8293 31.9385 28.7785 32.0106 28.7178 32.0994C28.5971 32.276 28.4346 32.5232 28.2695 32.8027C28.1059 33.0796 27.9305 33.4042 27.7908 33.7335C27.6589 34.0445 27.5221 34.4435 27.5072 34.8462C27.4903 35.3005 27.3234 36.7795 27.1774 38.0093H25.0138V45.0093H38.0138V38.7377C38.377 38.3058 38.7576 37.9046 39.1606 37.4806L39.1779 37.4624C40.0257 36.5705 40.9525 35.5953 41.8045 34.1474C41.997 33.8203 42.1932 33.5045 42.3904 33.1871L42.4574 33.0792C43.1123 32.0266 43.8461 30.847 43.9887 29.5857C44.0711 28.8574 44.1304 26.4881 44.1209 24.2039C44.1161 23.0488 44.0937 21.8883 44.0458 20.9351C44.0219 20.4594 43.9912 20.025 43.9516 19.6639C43.915 19.3294 43.863 18.9751 43.7717 18.7094ZM29.73 32.3992C28.9271 31.8031 28.927 31.8032 28.927 31.8033L29.73 32.3992ZM33.8998 32.2491L35.5969 33.2945L35.6251 33.2561L35.7042 33.1482C35.7725 33.0548 35.8708 32.9202 35.991 32.7545C36.2313 32.4234 36.5598 31.9678 36.9123 31.4701C37.6054 30.4913 38.429 29.2972 38.8339 28.5849C39.1266 28.0697 39.2661 27.3788 39.3561 26.7359C39.4497 26.0675 39.508 25.2902 39.5663 24.5144L39.5679 24.4921C39.5897 24.2016 39.6117 23.9109 39.6354 23.6227L41.8901 19.3966C41.8965 19.4238 41.9042 19.4606 41.9126 19.5082C41.9295 19.6042 41.9467 19.7284 41.9635 19.8817C41.9971 20.1883 42.0254 20.5796 42.0483 21.0355C42.0941 21.9457 42.1162 23.0725 42.1209 24.2122C42.1305 26.5177 42.0684 28.7687 42.0014 29.3609C41.915 30.1245 41.4384 30.9296 40.6916 32.1316L40.689 32.1358C40.4943 32.4491 40.2865 32.7836 40.0808 33.1331C39.351 34.3734 38.5629 35.2064 37.711 36.1027L37.6942 36.1203C37.0557 36.7921 36.3703 37.5132 35.7235 38.4348L34.6186 40.0093H36.0138V43.0093H27.0138V40.0093H28.9497L29.0569 39.1303C29.2056 37.9105 29.4806 35.6004 29.5058 34.9204C29.5072 34.8831 29.5315 34.7515 29.6321 34.5143C29.7249 34.2954 29.8533 34.0539 29.9916 33.8198C30.1283 33.5883 30.2655 33.3794 30.3691 33.2278C30.4206 33.1524 30.463 33.0923 30.492 33.0519L30.524 33.0076L34.1413 28.4821L34.1662 28.4552C34.2 28.4185 34.2475 28.3663 34.3056 28.3004C34.4217 28.169 34.5815 27.9819 34.7611 27.7546C35.0504 27.3883 35.4071 26.8974 35.7134 26.353C35.7603 26.4178 35.8072 26.4913 35.8514 26.572C35.9601 26.7702 36.0228 26.9568 36.0429 27.0871C36.1075 27.5038 36.0747 27.7947 36.04 27.9585C36.0225 28.0415 36.0038 28.095 35.9948 28.1182L35.991 28.1277L33.8998 32.2491ZM39.6391 23.5773L39.6354 23.6227L34.7916 32.7016L39.6391 23.5773ZM39.6391 23.5773C39.7434 22.3164 39.881 21.1028 40.1756 20.1392C40.49 19.111 40.9777 18.99 41.1994 18.9848C41.5695 18.9761 41.8338 19.2244 41.8802 19.3591L39.6391 23.5773Z" fill="#333333"/>
</svg>
