<svg width="48" height="48" viewBox="0 0 48 48" fill="none" xmlns="http://www.w3.org/2000/svg">
<g clip-path="url(#clip0)">
<path d="M21.9832 44.0094L22.9832 44.0094L22.9832 45.0094L21.9832 45.0094L21.9832 44.0094ZM21.9832 39.0094L21.9832 38.0094L22.9832 38.0094L22.9832 39.0094L21.9832 39.0094ZM10.9832 44.0094L10.9832 45.0094L9.98318 45.0094L9.98318 44.0094L10.9832 44.0094ZM10.9832 39.0094L9.98318 39.0094L9.98318 38.0094L10.9832 38.0094L10.9832 39.0094ZM11.4549 39.0094L12.2734 38.4349L13.3783 40.0094L11.4549 40.0094L11.4549 39.0094ZM9.56117 36.7917L10.286 36.1028L10.286 36.1028L9.56117 36.7917ZM7.05427 33.6403L7.91614 33.1332L7.91614 33.1332L7.05427 33.6403ZM6.45598 32.6595L7.30537 32.1317L7.30537 32.1317L6.45598 32.6595ZM5.00188 29.4734L5.99554 29.361L5.00188 29.4734ZM5.17098 19.0344L4.22522 18.7095L4.22522 18.7095L5.17098 19.0344ZM8.77764 19.8469L7.82135 20.1393L8.77764 19.8469ZM9.42621 24.4174L8.42902 24.4923L9.42621 24.4174ZM10.0325 28.0909L10.9019 27.5968L10.0325 28.0909ZM13.2053 32.7017L14.0971 32.2493L12.4001 33.2946L13.2053 32.7017ZM11.1169 28.5856L11.9898 28.0976L11.9996 28.1152L12.0087 28.1331L11.1169 28.5856ZM10.9658 26.9342L9.97757 26.7812L10.9658 26.9342ZM14.6119 27.8268L15.3352 27.1362L15.3656 27.168L15.3931 27.2024L14.6119 27.8268ZM18.2669 32.3993L19.048 31.7749L19.0592 31.7889L19.0698 31.8032L18.2669 32.3993ZM19.4905 34.8834L18.4911 34.9205L18.4911 34.9205L19.4905 34.8834ZM19.9327 39.0094L19.9327 40.0094L19.0472 40.0094L18.9401 39.1304L19.9327 39.0094ZM20.9832 44.0094L20.9832 39.0094L22.9832 39.0094L22.9832 44.0094L20.9832 44.0094ZM10.9832 43.0094L21.9832 43.0094L21.9832 45.0094L10.9832 45.0094L10.9832 43.0094ZM11.9832 39.0094L11.9832 44.0094L9.98318 44.0094L9.98318 39.0094L11.9832 39.0094ZM11.4549 40.0094L10.9832 40.0094L10.9832 38.0094L11.4549 38.0094L11.4549 40.0094ZM10.6363 39.5838C10.0806 38.792 9.48773 38.166 8.83634 37.4807L10.286 36.1028C10.9293 36.7796 11.621 37.5052 12.2734 38.4349L10.6363 39.5838ZM8.83634 37.4807C7.9839 36.5838 7.05022 35.6053 6.19241 34.1475L7.91614 33.1332C8.64599 34.3735 9.43407 35.2065 10.286 36.1028L8.83634 37.4807ZM6.19241 34.1475C5.99997 33.8204 5.80378 33.5046 5.60659 33.1872L7.30537 32.1317C7.50078 32.4462 7.70955 32.7821 7.91614 33.1332L6.19241 34.1475ZM5.60659 33.1872C4.93571 32.1075 4.15579 30.8904 4.00822 29.5858L5.99554 29.361C6.08192 30.1246 6.55853 30.9297 7.30537 32.1317L5.60659 33.1872ZM4.00822 29.5858C3.92584 28.8575 3.8666 26.4882 3.87604 24.204C3.88081 23.0489 3.90323 21.8884 3.95113 20.9352C3.97504 20.4595 4.00579 20.0251 4.04533 19.6641C4.08196 19.3296 4.13396 18.9752 4.22522 18.7095L6.11674 19.3593C6.11737 19.3575 6.11358 19.3684 6.10689 19.3967C6.10043 19.4239 6.09279 19.4607 6.0844 19.5083C6.06748 19.6043 6.05023 19.7285 6.03344 19.8818C5.99986 20.1884 5.97152 20.5797 5.94861 21.0356C5.90286 21.9459 5.88073 23.0726 5.87602 24.2123C5.86649 26.5179 5.92856 28.7688 5.99554 29.361L4.00822 29.5858ZM4.22522 18.7095C4.59065 17.6457 5.71943 16.959 6.84459 16.9855C8.11822 17.0154 9.22798 17.8999 9.73393 19.5545L7.82135 20.1393C7.50695 19.1112 7.01923 18.9901 6.79754 18.9849C6.42738 18.9762 6.16301 19.2246 6.11674 19.3593L4.22522 18.7095ZM9.73393 19.5545C10.178 21.0068 10.31 22.832 10.4234 24.3425L8.42902 24.4923C8.31055 22.9145 8.18683 21.3345 7.82135 20.1393L9.73393 19.5545ZM10.4234 24.3425C10.4836 25.1446 10.5378 25.8606 10.6216 26.4587C10.7098 27.0888 10.8139 27.442 10.9019 27.5968L9.16308 28.585C8.87032 28.0699 8.73086 27.3789 8.64087 26.736C8.5464 26.0612 8.48783 25.2754 8.42902 24.4923L10.4234 24.3425ZM10.9019 27.5968C11.2487 28.207 12.0115 29.3184 12.7168 30.3143C13.0636 30.804 13.3874 31.2531 13.6246 31.5799C13.7431 31.7432 13.8399 31.8758 13.9069 31.9674C13.9404 32.0132 13.9665 32.0487 13.9841 32.0727C13.9929 32.0847 13.9996 32.0938 14.004 32.0999C14.0063 32.1029 14.0079 32.1052 14.009 32.1067C14.0096 32.1074 14.01 32.108 14.0103 32.1083C14.0104 32.1085 14.0105 32.1086 14.0105 32.1087C14.0106 32.1088 14.0106 32.1088 14.0106 32.1088C14.0106 32.1088 14.0106 32.1088 13.2053 32.7017C12.4001 33.2946 12.4001 33.2946 12.4 33.2946C12.4 33.2945 12.4 33.2945 12.3999 33.2944C12.3998 33.2943 12.3997 33.2941 12.3995 33.2939C12.3992 33.2935 12.3987 33.2928 12.3981 33.292C12.3969 33.2903 12.3951 33.2878 12.3927 33.2846C12.3879 33.2782 12.381 33.2686 12.3718 33.2562C12.3536 33.2314 12.3269 33.195 12.2928 33.1483C12.2244 33.0549 12.1262 32.9203 12.006 32.7546C11.7657 32.4236 11.4372 31.9679 11.0847 31.4702C10.3915 30.4914 9.56792 29.2973 9.16308 28.585L10.9019 27.5968ZM12.3136 33.1542L10.2251 29.0381L12.0087 28.1331L14.0971 32.2493L12.3136 33.1542ZM11.1169 28.5856C10.244 29.0735 10.2438 29.0731 10.2435 29.0727C10.2435 29.0725 10.2432 29.0721 10.243 29.0718C10.2427 29.0712 10.2424 29.0705 10.242 29.0699C10.2413 29.0687 10.2406 29.0674 10.2399 29.066C10.2384 29.0634 10.2369 29.0606 10.2353 29.0576C10.2321 29.0516 10.2286 29.0451 10.2249 29.0379C10.2175 29.0235 10.209 29.0066 10.1998 28.9872C10.1815 28.9484 10.16 28.8996 10.1373 28.841C10.0918 28.7236 10.0413 28.567 10.0002 28.3723C9.91739 27.9808 9.87464 27.446 9.97757 26.7812L11.954 27.0872C11.8895 27.504 11.9223 27.7948 11.9569 27.9586C11.9745 28.0416 11.9932 28.0951 12.0022 28.1184C12.0067 28.13 12.0089 28.1342 12.0072 28.1308C12.0064 28.1291 12.0047 28.1255 12.0018 28.12C12.0004 28.1172 11.9987 28.114 11.9967 28.1103C11.9957 28.1084 11.9946 28.1064 11.9935 28.1043C11.9929 28.1033 11.9923 28.1022 11.9917 28.1011C11.9914 28.1005 11.9911 28.1 11.9907 28.0994C11.9906 28.0991 11.9903 28.0987 11.9903 28.0985C11.99 28.0981 11.9898 28.0976 11.1169 28.5856ZM9.97757 26.7812C10.0974 26.0074 10.5709 25.149 11.153 24.633C11.4375 24.3809 11.9058 24.0715 12.4936 24.101C13.1781 24.1354 13.634 24.5953 13.8823 25.0994L12.0881 25.9831C12.0614 25.929 12.0622 25.9547 12.1191 25.9992C12.1861 26.0517 12.2844 26.093 12.3933 26.0985C12.5731 26.1075 12.605 26.0186 12.4795 26.1298C12.3787 26.2192 12.2541 26.3741 12.1455 26.5721C12.0368 26.7703 11.9742 26.9569 11.954 27.0872L9.97757 26.7812ZM13.8823 25.0994C14.1344 25.6112 14.4935 26.1203 14.8053 26.5149C14.9584 26.7087 15.0942 26.8677 15.1907 26.9769C15.2388 27.0314 15.2768 27.0732 15.3019 27.1005C15.3144 27.1141 15.3237 27.124 15.3294 27.13C15.3322 27.1331 15.3341 27.1351 15.3351 27.1361C15.3356 27.1367 15.3358 27.1369 15.3359 27.1369C15.3359 27.1369 15.3358 27.1369 15.3357 27.1368C15.3356 27.1367 15.3356 27.1366 15.3355 27.1365C15.3354 27.1365 15.3353 27.1364 15.3353 27.1364C15.3352 27.1363 15.3352 27.1362 14.6119 27.8268C13.8887 28.5174 13.8886 28.5173 13.8885 28.5172C13.8885 28.5172 13.8884 28.5171 13.8883 28.517C13.8882 28.5168 13.888 28.5167 13.8878 28.5165C13.8874 28.5161 13.887 28.5156 13.8865 28.5151C13.8855 28.5141 13.8843 28.5128 13.8828 28.5112C13.8798 28.5081 13.8759 28.5039 13.871 28.4987C13.8612 28.4882 13.8477 28.4737 13.8307 28.4554C13.7969 28.4186 13.7495 28.3664 13.6913 28.3005C13.5753 28.1691 13.4154 27.982 13.2359 27.7547C12.8823 27.3071 12.428 26.6733 12.0881 25.9831L13.8823 25.0994ZM15.3931 27.2024L19.048 31.7749L17.4858 33.0237L13.8308 28.4512L15.3931 27.2024ZM18.2669 32.3993C19.0698 31.8032 19.0699 31.8033 19.07 31.8034C19.07 31.8035 19.0701 31.8036 19.0702 31.8037C19.0703 31.8039 19.0705 31.8041 19.0706 31.8043C19.071 31.8047 19.0714 31.8053 19.0719 31.806C19.0728 31.8073 19.0741 31.809 19.0756 31.8111C19.0787 31.8152 19.0829 31.8209 19.0881 31.8281C19.0985 31.8423 19.1131 31.8625 19.1313 31.8879C19.1676 31.9386 19.2185 32.0107 19.2791 32.0995C19.3998 32.2761 19.5624 32.5233 19.7275 32.8028C19.891 33.0797 20.0665 33.4043 20.2062 33.7336C20.338 34.0447 20.4748 34.4437 20.4898 34.8464L18.4911 34.9205C18.4898 34.8832 18.4654 34.7517 18.3648 34.5144C18.272 34.2955 18.1437 34.054 18.0054 33.8199C17.8687 33.5884 17.7315 33.3795 17.6278 33.2279C17.5764 33.1525 17.5339 33.0924 17.505 33.052C17.4906 33.0318 17.4795 33.0166 17.4725 33.007C17.469 33.0022 17.4665 32.9988 17.465 32.9968C17.4643 32.9958 17.4639 32.9952 17.4637 32.995C17.4636 32.9949 17.4636 32.9948 17.4636 32.9949C17.4637 32.9949 17.4637 32.995 17.4638 32.9951C17.4638 32.9951 17.4639 32.9952 17.4639 32.9952C17.4639 32.9953 17.464 32.9954 18.2669 32.3993ZM20.4898 34.8464C20.511 35.4176 20.7695 37.6096 20.9254 38.8884L18.9401 39.1304C18.7914 37.9106 18.5164 35.6005 18.4911 34.9205L20.4898 34.8464ZM21.9832 40.0094L19.9327 40.0094L19.9327 38.0094L21.9832 38.0094L21.9832 40.0094Z" fill="#333333"/>
<path d="M26.0139 44.0094L25.0139 44.0094L25.0139 45.0094L26.0139 45.0094L26.0139 44.0094ZM26.0139 39.0094L26.0139 38.0094L25.0139 38.0094L25.0139 39.0094L26.0139 39.0094ZM37.0139 44.0094L37.0139 45.0094L38.0139 45.0094L38.0139 44.0094L37.0139 44.0094ZM37.0139 39.0094L38.0139 39.0094L38.0139 38.0094L37.0139 38.0094L37.0139 39.0094ZM36.5422 39.0094L35.7236 38.4349L34.6187 40.0094L36.5422 40.0094L36.5422 39.0094ZM38.4359 36.7917L37.7111 36.1028L37.7111 36.1028L38.4359 36.7917ZM40.9428 33.6403L40.0809 33.1332L40.0809 33.1332L40.9428 33.6403ZM41.5411 32.6595L40.6917 32.1317L40.6917 32.1317L41.5411 32.6595ZM42.9952 29.4734L42.0015 29.361L42.9952 29.4734ZM42.8261 19.0344L43.7718 18.7095L43.7718 18.7095L42.8261 19.0344ZM39.2194 19.8469L40.1757 20.1393L39.2194 19.8469ZM38.5709 24.4174L39.568 24.4923L38.5709 24.4174ZM37.9646 28.0909L37.0952 27.5968L37.9646 28.0909ZM34.7917 32.7017L33.9 32.2493L35.597 33.2946L34.7917 32.7017ZM36.8802 28.5856L36.0073 28.0976L35.9975 28.1152L35.9884 28.1331L36.8802 28.5856ZM37.0313 26.9342L38.0195 26.7812L37.0313 26.9342ZM33.3851 27.8268L32.6619 27.1362L32.6315 27.168L32.604 27.2024L33.3851 27.8268ZM29.7302 32.3993L28.949 31.7749L28.9379 31.7889L28.9272 31.8032L29.7302 32.3993ZM28.5066 34.8834L29.5059 34.9205L29.5059 34.9205L28.5066 34.8834ZM28.0644 39.0094L28.0644 40.0094L28.9499 40.0094L29.057 39.1304L28.0644 39.0094ZM27.0139 44.0094L27.0139 39.0094L25.0139 39.0094L25.0139 44.0094L27.0139 44.0094ZM37.0139 43.0094L26.0139 43.0094L26.0139 45.0094L37.0139 45.0094L37.0139 43.0094ZM36.0139 39.0094L36.0139 44.0094L38.0139 44.0094L38.0139 39.0094L36.0139 39.0094ZM36.5422 40.0094L37.0139 40.0094L37.0139 38.0094L36.5422 38.0094L36.5422 40.0094ZM37.3607 39.5838C37.9165 38.792 38.5093 38.166 39.1607 37.4807L37.7111 36.1028C37.0678 36.7796 36.3761 37.5052 35.7236 38.4349L37.3607 39.5838ZM39.1607 37.4807C40.0132 36.5838 40.9469 35.6053 41.8047 34.1475L40.0809 33.1332C39.3511 34.3735 38.563 35.2065 37.7111 36.1028L39.1607 37.4807ZM41.8047 34.1475C41.9971 33.8204 42.1933 33.5046 42.3905 33.1872L40.6917 32.1317C40.4963 32.4462 40.2875 32.7821 40.0809 33.1332L41.8047 34.1475ZM42.3905 33.1872C43.0614 32.1075 43.8413 30.8904 43.9889 29.5858L42.0015 29.361C41.9152 30.1246 41.4385 30.9297 40.6917 32.1317L42.3905 33.1872ZM43.9889 29.5858C44.0712 28.8575 44.1305 26.4882 44.121 24.204C44.1163 23.0489 44.0938 21.8884 44.0459 20.9352C44.022 20.4595 43.9913 20.0251 43.9517 19.6641C43.9151 19.3296 43.8631 18.9752 43.7718 18.7095L41.8803 19.3593C41.8797 19.3575 41.8835 19.3684 41.8902 19.3967C41.8966 19.4239 41.9043 19.4607 41.9127 19.5083C41.9296 19.6043 41.9468 19.7285 41.9636 19.8818C41.9972 20.1884 42.0256 20.5797 42.0485 21.0356C42.0942 21.9459 42.1163 23.0726 42.121 24.2123C42.1306 26.5179 42.0685 28.7688 42.0015 29.361L43.9889 29.5858ZM43.7718 18.7095C43.4064 17.6457 42.2776 16.959 41.1525 16.9855C39.8789 17.0154 38.7691 17.8999 38.2631 19.5545L40.1757 20.1393C40.4901 19.1112 40.9778 18.9901 41.1995 18.9849C41.5697 18.9762 41.8341 19.2246 41.8803 19.3593L43.7718 18.7095ZM38.2631 19.5545C37.819 21.0068 37.6871 22.832 37.5737 24.3425L39.568 24.4923C39.6865 22.9145 39.8102 21.3345 40.1757 20.1393L38.2631 19.5545ZM37.5737 24.3425C37.5134 25.1446 37.4592 25.8606 37.3755 26.4587C37.2873 27.0888 37.1832 27.442 37.0952 27.5968L38.834 28.585C39.1267 28.0699 39.2662 27.3789 39.3562 26.736C39.4507 26.0612 39.5092 25.2754 39.568 24.4923L37.5737 24.3425ZM37.0952 27.5968C36.7484 28.207 35.9856 29.3184 35.2802 30.3143C34.9334 30.804 34.6097 31.2531 34.3725 31.5799C34.254 31.7432 34.1572 31.8758 34.0902 31.9674C34.0567 32.0132 34.0306 32.0487 34.013 32.0727C34.0042 32.0847 33.9975 32.0938 33.993 32.0999C33.9908 32.1029 33.9891 32.1052 33.988 32.1067C33.9875 32.1074 33.9871 32.108 33.9868 32.1083C33.9867 32.1085 33.9866 32.1086 33.9865 32.1087C33.9865 32.1088 33.9865 32.1088 33.9865 32.1088C33.9865 32.1088 33.9865 32.1088 34.7917 32.7017C35.597 33.2946 35.597 33.2946 35.597 33.2946C35.5971 33.2945 35.5971 33.2945 35.5972 33.2944C35.5972 33.2943 35.5974 33.2941 35.5975 33.2939C35.5979 33.2935 35.5983 33.2928 35.599 33.292C35.6002 33.2903 35.602 33.2878 35.6044 33.2846C35.6091 33.2782 35.6161 33.2686 35.6252 33.2562C35.6434 33.2314 35.6701 33.195 35.7043 33.1483C35.7726 33.0549 35.8709 32.9203 35.9911 32.7546C36.2314 32.4236 36.5599 31.9679 36.9124 31.4702C37.6056 30.4914 38.4292 29.2973 38.834 28.585L37.0952 27.5968ZM35.6835 33.1542L37.7719 29.0381L35.9884 28.1331L33.9 32.2493L35.6835 33.1542ZM36.8802 28.5856C37.753 29.0735 37.7533 29.0731 37.7535 29.0727C37.7536 29.0725 37.7539 29.0721 37.754 29.0718C37.7544 29.0712 37.7547 29.0705 37.7551 29.0699C37.7558 29.0687 37.7565 29.0674 37.7572 29.066C37.7587 29.0634 37.7602 29.0606 37.7618 29.0576C37.765 29.0516 37.7685 29.0451 37.7722 29.0379C37.7796 29.0235 37.788 29.0066 37.7972 28.9872C37.8156 28.9484 37.8371 28.8996 37.8598 28.841C37.9052 28.7236 37.9557 28.567 37.9969 28.3723C38.0797 27.9808 38.1224 27.446 38.0195 26.7812L36.0431 27.0872C36.1076 27.504 36.0748 27.7948 36.0402 27.9586C36.0226 28.0416 36.0039 28.0951 35.9949 28.1184C35.9904 28.13 35.9882 28.1342 35.9898 28.1308C35.9906 28.1291 35.9924 28.1255 35.9952 28.12C35.9967 28.1172 35.9984 28.114 36.0004 28.1103C36.0014 28.1084 36.0024 28.1064 36.0036 28.1043C36.0042 28.1033 36.0048 28.1022 36.0054 28.1011C36.0057 28.1005 36.006 28.1 36.0063 28.0994C36.0065 28.0991 36.0067 28.0987 36.0068 28.0985C36.007 28.0981 36.0073 28.0976 36.8802 28.5856ZM38.0195 26.7812C37.8997 26.0074 37.4262 25.149 36.8441 24.633C36.5596 24.3809 36.0912 24.0715 35.5034 24.101C34.819 24.1354 34.3631 24.5953 34.1148 25.0994L35.909 25.9831C35.9356 25.929 35.9349 25.9547 35.878 25.9992C35.811 26.0517 35.7127 26.093 35.6038 26.0985C35.424 26.1075 35.3921 26.0186 35.5175 26.1298C35.6184 26.2192 35.743 26.3741 35.8515 26.5721C35.9602 26.7703 36.0229 26.9569 36.0431 27.0872L38.0195 26.7812ZM34.1148 25.0994C33.8627 25.6112 33.5036 26.1203 33.1918 26.5149C33.0387 26.7087 32.9028 26.8677 32.8064 26.9769C32.7583 27.0314 32.7203 27.0732 32.6952 27.1005C32.6827 27.1141 32.6734 27.124 32.6677 27.13C32.6649 27.1331 32.6629 27.1351 32.662 27.1361C32.6615 27.1367 32.6612 27.1369 32.6612 27.1369C32.6612 27.1369 32.6613 27.1369 32.6614 27.1368C32.6614 27.1367 32.6615 27.1366 32.6616 27.1365C32.6616 27.1365 32.6617 27.1364 32.6618 27.1364C32.6618 27.1363 32.6619 27.1362 33.3851 27.8268C34.1084 28.5174 34.1085 28.5173 34.1085 28.5172C34.1086 28.5172 34.1087 28.5171 34.1088 28.517C34.1089 28.5168 34.1091 28.5167 34.1093 28.5165C34.1096 28.5161 34.1101 28.5156 34.1106 28.5151C34.1116 28.5141 34.1128 28.5128 34.1143 28.5112C34.1173 28.5081 34.1212 28.5039 34.1261 28.4987C34.1359 28.4882 34.1494 28.4737 34.1663 28.4554C34.2001 28.4186 34.2476 28.3664 34.3057 28.3005C34.4218 28.1691 34.5816 27.982 34.7612 27.7547C35.1148 27.3071 35.569 26.6733 35.909 25.9831L34.1148 25.0994ZM32.604 27.2024L28.949 31.7749L30.5113 33.0237L34.1663 28.4512L32.604 27.2024ZM29.7302 32.3993C28.9272 31.8032 28.9272 31.8033 28.9271 31.8034C28.9271 31.8035 28.927 31.8036 28.9269 31.8037C28.9268 31.8039 28.9266 31.8041 28.9264 31.8043C28.9261 31.8047 28.9257 31.8053 28.9252 31.806C28.9242 31.8073 28.923 31.809 28.9214 31.8111C28.9184 31.8152 28.9142 31.8209 28.909 31.8281C28.8986 31.8423 28.884 31.8625 28.8658 31.8879C28.8294 31.9386 28.7786 32.0107 28.7179 32.0995C28.5972 32.2761 28.4347 32.5233 28.2696 32.8028C28.1061 33.0797 27.9306 33.4043 27.7909 33.7336C27.659 34.0447 27.5222 34.4437 27.5073 34.8464L29.5059 34.9205C29.5073 34.8832 29.5316 34.7517 29.6322 34.5144C29.7251 34.2955 29.8534 34.054 29.9917 33.8199C30.1284 33.5884 30.2656 33.3795 30.3692 33.2279C30.4207 33.1525 30.4631 33.0924 30.4921 33.052C30.5065 33.0318 30.5175 33.0166 30.5246 33.007C30.5281 33.0022 30.5306 32.9988 30.532 32.9968C30.5328 32.9958 30.5332 32.9952 30.5334 32.995C30.5335 32.9949 30.5335 32.9948 30.5334 32.9949C30.5334 32.9949 30.5334 32.995 30.5333 32.9951C30.5333 32.9951 30.5332 32.9952 30.5332 32.9952C30.5331 32.9953 30.5331 32.9954 29.7302 32.3993ZM27.5073 34.8464C27.4861 35.4176 27.2276 37.6096 27.0717 38.8884L29.057 39.1304C29.2057 37.9106 29.4807 35.6005 29.5059 34.9205L27.5073 34.8464ZM26.0139 40.0094L28.0644 40.0094L28.0644 38.0094L26.0139 38.0094L26.0139 40.0094Z" fill="#333333"/>
<circle cx="24.032" cy="15" r="12" stroke="#333333" stroke-width="2"/>
<path d="M32.032 15C32.032 18.4122 31.0728 21.4579 29.5738 23.6232C28.072 25.7924 26.0964 27 24.032 27C21.9676 27 19.992 25.7924 18.4902 23.6232C16.9911 21.4579 16.032 18.4122 16.032 15C16.032 11.5878 16.9911 8.54214 18.4902 6.37682C19.992 4.20759 21.9676 3 24.032 3C26.0964 3 28.072 4.20759 29.5738 6.37682C31.0728 8.54214 32.032 11.5878 32.032 15Z" stroke="#333333" stroke-width="2"/>
<path d="M24.032 3V27" stroke="#333333" stroke-width="2"/>
<path d="M36.032 15L12.032 15" stroke="#333333" stroke-width="2"/>
<path d="M34.032 9L14.032 9" stroke="#333333" stroke-width="2"/>
<path d="M34.032 21L14.032 21" stroke="#333333" stroke-width="2"/>
</g>
<defs>
<clipPath id="clip0">
<rect width="48" height="48" fill="white"/>
</clipPath>
</defs>
</svg>
