<svg width="48" height="48" viewBox="0 0 48 48" fill="none" xmlns="http://www.w3.org/2000/svg">
<g clip-path="url(#clip0)">
<path fill-rule="evenodd" clip-rule="evenodd" d="M22.9831 38.0095L20.8195 38.0095C20.6735 36.7797 20.5066 35.3007 20.4897 34.8464C20.4748 34.4437 20.338 34.0447 20.2061 33.7337C20.0665 33.4044 19.891 33.0798 19.7274 32.8029C19.5623 32.5234 19.3998 32.2762 19.2791 32.0996C19.2184 32.0108 19.1676 31.9387 19.1313 31.888C19.1131 31.8626 19.0985 31.8424 19.088 31.8281L19.0756 31.8111L19.0718 31.806L19.0699 31.8035C19.0699 31.8034 19.0698 31.8033 18.2669 32.3994L19.0699 31.8035L19.0591 31.789L15.3655 27.1681L15.3358 27.137L15.3351 27.1363L15.3293 27.1301L15.3019 27.1005C15.2768 27.0733 15.2388 27.0315 15.1907 26.977C15.0942 26.8677 14.9584 26.7088 14.8052 26.515C14.4935 26.1203 14.1343 25.6113 13.8822 25.0995C13.634 24.5954 13.178 24.1355 12.4936 24.1011C11.9058 24.0715 11.4375 24.381 11.153 24.6331C10.914 24.8449 10.6933 25.1145 10.5079 25.4122C10.4786 25.0768 10.4516 24.7192 10.4234 24.3426L10.4184 24.2758C10.306 22.7786 10.1715 20.9855 9.73389 19.5546C9.22794 17.9 8.11818 17.0155 6.84455 16.9856C5.71939 16.9591 4.59061 17.6458 4.22518 18.7096C4.13392 18.9753 4.08192 19.3296 4.04529 19.6641C4.00575 20.0252 3.975 20.4596 3.95109 20.9353C3.90319 21.8885 3.88077 23.049 3.876 24.2041C3.86656 26.4883 3.9258 28.8576 4.00818 29.5859C4.15085 30.8472 4.88464 32.0268 5.53947 33.0794C5.56193 33.1155 5.5843 33.1515 5.60655 33.1873C5.80374 33.5047 5.99994 33.8205 6.19238 34.1476C7.04439 35.5955 7.97126 36.5707 8.81903 37.4626L8.8363 37.4808C9.23929 37.9048 9.61989 38.306 9.98315 38.7379L9.98315 45.0095L22.9831 45.0095L22.9831 38.0095ZM11.9831 40.0095L11.9831 43.0095L20.9831 43.0095L20.9831 40.0095L19.0472 40.0095L18.94 39.1305C18.7913 37.9107 18.5163 35.6006 18.4911 34.9206C18.4897 34.8833 18.4654 34.7517 18.3648 34.5145C18.272 34.2956 18.1436 34.0541 18.0053 33.82C17.8686 33.5885 17.7314 33.3796 17.6278 33.228C17.5763 33.1526 17.5339 33.0925 17.505 33.0521C17.4908 33.0324 17.48 33.0174 17.473 33.0078L13.8556 28.4823C13.8484 28.4745 13.84 28.4656 13.8307 28.4554C13.7969 28.4187 13.7494 28.3665 13.6913 28.3006C13.5752 28.1692 13.4154 27.9821 13.2358 27.7548C12.9465 27.3885 12.5898 26.8976 12.2835 26.3532C12.2366 26.418 12.1897 26.4915 12.1455 26.5722C12.0368 26.7704 11.9742 26.957 11.954 27.0873C11.8895 27.504 11.9223 27.7949 11.9569 27.9587C11.9744 28.0417 11.9931 28.0951 12.0022 28.1184C12.0037 28.1225 12.005 28.1257 12.006 28.1279L14.0971 32.2493L12.4 33.2947L13.2053 32.7018" fill="#333333"/>
<path fill-rule="evenodd" clip-rule="evenodd" d="M25.0138 38.0095L27.1774 38.0095C27.3235 36.7797 27.4904 35.3007 27.5072 34.8464C27.5222 34.4437 27.659 34.0447 27.7908 33.7337C27.9305 33.4044 28.106 33.0798 28.2695 32.8029C28.4346 32.5234 28.5971 32.2762 28.7178 32.0996C28.7785 32.0108 28.8294 31.9387 28.8657 31.888C28.8839 31.8626 28.8985 31.8424 28.9089 31.8281L28.9214 31.8111L28.9251 31.806L28.927 31.8035C28.9271 31.8034 28.9272 31.8033 29.7301 32.3994L28.927 31.8035L28.9378 31.789L32.6314 27.1681L32.6611 27.137L32.6618 27.1363L32.6676 27.1301L32.6951 27.1005C32.7202 27.0733 32.7582 27.0315 32.8063 26.977C32.9028 26.8677 33.0386 26.7088 33.1917 26.515C33.5035 26.1203 33.8626 25.6113 34.1147 25.0995C34.363 24.5954 34.8189 24.1355 35.5034 24.1011C36.0911 24.0715 36.5595 24.381 36.844 24.6331C37.083 24.8449 37.3036 25.1145 37.4891 25.4122C37.5184 25.0768 37.5453 24.7192 37.5736 24.3426L37.5786 24.2758C37.6909 22.7786 37.8255 20.9855 38.2631 19.5546C38.769 17.9 39.8788 17.0155 41.1524 16.9856C42.2776 16.9591 43.4063 17.6458 43.7718 18.7096C43.863 18.9753 43.915 19.3296 43.9517 19.6641C43.9912 20.0252 44.0219 20.4596 44.0459 20.9353C44.0938 21.8885 44.1162 23.049 44.1209 24.2041C44.1304 26.4883 44.0712 28.8576 43.9888 29.5859C43.8461 30.8472 43.1123 32.0268 42.4575 33.0794C42.435 33.1155 42.4126 33.1515 42.3904 33.1873C42.1932 33.5047 41.997 33.8205 41.8046 34.1476C40.9526 35.5955 40.0257 36.5707 39.1779 37.4626L39.1606 37.4808C38.7577 37.9048 38.3771 38.306 38.0138 38.7379L38.0138 45.0095L25.0138 45.0095L25.0138 38.0095ZM36.0138 40.0095L36.0138 43.0095L27.0138 43.0095L27.0138 40.0095L28.9498 40.0095L29.0569 39.1305C29.2056 37.9107 29.4806 35.6006 29.5058 34.9206C29.5072 34.8833 29.5315 34.7517 29.6321 34.5145C29.725 34.2956 29.8533 34.0541 29.9916 33.82C30.1283 33.5885 30.2655 33.3796 30.3691 33.228C30.4206 33.1526 30.4631 33.0925 30.492 33.0521C30.5061 33.0324 30.5169 33.0174 30.524 33.0078L34.1414 28.4823C34.1486 28.4745 34.1569 28.4656 34.1662 28.4554C34.2001 28.4187 34.2475 28.3665 34.3057 28.3006C34.4217 28.1692 34.5815 27.9821 34.7611 27.7548C35.0504 27.3885 35.4071 26.8976 35.7135 26.3532C35.7603 26.418 35.8072 26.4915 35.8515 26.5722C35.9602 26.7704 36.0228 26.957 36.043 27.0873C36.1075 27.504 36.0747 27.7949 36.0401 27.9587C36.0225 28.0417 36.0038 28.0951 35.9948 28.1184C35.9932 28.1225 35.9919 28.1257 35.991 28.1279L33.8999 32.2493L35.5969 33.2947L34.7917 32.7018" fill="#333333"/>
<path fill-rule="evenodd" clip-rule="evenodd" d="M24.032 26C30.1071 26 35.032 21.0751 35.032 15C35.032 8.92487 30.1071 4 24.032 4C17.9569 4 13.032 8.92487 13.032 15C13.032 21.0751 17.9569 26 24.032 26ZM24.032 28C31.2117 28 37.032 22.1797 37.032 15C37.032 7.8203 31.2117 2 24.032 2C16.8523 2 11.032 7.8203 11.032 15C11.032 22.1797 16.8523 28 24.032 28Z" fill="#333333"/>
<path fill-rule="evenodd" clip-rule="evenodd" d="M28.7516 23.054C30.121 21.0759 31.032 18.2345 31.032 15C31.032 11.7655 30.121 8.92413 28.7516 6.94603C27.3767 4.9601 25.6754 4 24.032 4C22.3885 4 20.6873 4.9601 19.3124 6.94603C17.943 8.92413 17.032 11.7655 17.032 15C17.032 18.2345 17.943 21.0759 19.3124 23.054C20.6873 25.0399 22.3885 26 24.032 26C25.6754 26 27.3767 25.0399 28.7516 23.054ZM24.032 28C29.0025 28 33.032 22.1797 33.032 15C33.032 7.8203 29.0025 2 24.032 2C19.0614 2 15.032 7.8203 15.032 15C15.032 22.1797 19.0614 28 24.032 28Z" fill="#333333"/>
<path fill-rule="evenodd" clip-rule="evenodd" d="M23.032 27V3H25.032V27H23.032Z" fill="#333333"/>
<path fill-rule="evenodd" clip-rule="evenodd" d="M12.032 14L36.032 14L36.032 16L12.032 16L12.032 14Z" fill="#333333"/>
<path fill-rule="evenodd" clip-rule="evenodd" d="M14.032 8L34.032 8L34.032 10L14.032 10L14.032 8Z" fill="#333333"/>
<path fill-rule="evenodd" clip-rule="evenodd" d="M14.032 20L34.032 20L34.032 22L14.032 22L14.032 20Z" fill="#333333"/>
</g>
<defs>
<clipPath id="clip0">
<rect width="48" height="48" fill="white"/>
</clipPath>
</defs>
</svg>
