<svg width="48" height="48" viewBox="0 0 48 48" fill="none" xmlns="http://www.w3.org/2000/svg">
<path fill-rule="evenodd" clip-rule="evenodd" d="M10.6292 23.8918V18H12.6292V23.8918C12.6292 24.9259 12.0965 25.8871 11.2197 26.4354L9.65017 27.4169L8.58978 25.7212L10.1594 24.7397C10.4516 24.5569 10.6292 24.2365 10.6292 23.8918Z" fill="#333333"/>
<path fill-rule="evenodd" clip-rule="evenodd" d="M16.6292 23.9139V18H14.6292V23.9139C14.6292 24.9299 15.1434 25.8769 15.9956 26.4301L17.529 27.4257L18.6181 25.7482L17.0847 24.7527C16.8006 24.5682 16.6292 24.2526 16.6292 23.9139Z" fill="#333333"/>
<path fill-rule="evenodd" clip-rule="evenodd" d="M13.6292 10C11.9724 10 10.6292 11.3431 10.6292 13C10.6292 14.6569 11.9724 16 13.6292 16C15.2861 16 16.6292 14.6569 16.6292 13C16.6292 11.3431 15.2861 10 13.6292 10ZM8.62921 13C8.62921 10.2386 10.8678 8 13.6292 8C16.3906 8 18.6292 10.2386 18.6292 13C18.6292 14.9791 17.4794 16.6896 15.8113 17.5H16.6117C16.652 17.4997 16.6923 17.5004 16.7326 17.5021M8.62921 13C8.62921 14.9791 9.77906 16.6896 11.4471 17.5L8.62921 13ZM11.4471 17.5H10.6468C9.91044 17.4951 9.17484 17.816 8.67704 18.4383L4.70295 23.4059C4.5767 23.5583 4.47071 23.7232 4.38559 23.8965C4.21916 24.2344 4.13506 24.5983 4.12946 24.9602M23.129 24.9602C23.129 24.9607 23.129 24.9612 23.129 24.9617L22.1291 24.9766L23.129 24.9602ZM23.129 24.9602C23.1234 24.5986 23.0394 24.2349 22.8732 23.8973C22.788 23.7237 22.6819 23.5585 22.5555 23.4059L18.5924 18.4521C18.5674 18.4204 18.5416 18.3893 18.5151 18.3588M16.6496 19.5004C16.6411 19.5 16.6325 19.4999 16.6239 19.5L16.6153 19.5L10.6345 19.5C10.4837 19.4987 10.3382 19.5634 10.2388 19.6877L6.25177 24.6714L6.24468 24.6799C6.21921 24.7103 6.19782 24.7434 6.18061 24.7785L6.17983 24.78C6.14724 24.8462 6.1303 24.9182 6.12921 24.9915L6.12919 24.9929C6.12799 25.0662 6.14267 25.1387 6.17318 25.2058L6.17391 25.2074C6.19001 25.243 6.21036 25.2767 6.23487 25.308L6.24169 25.3166L9.22921 29.3C9.29158 29.3832 9.37235 29.4398 9.46165 29.4713L10.1292 29.7066V41C10.1292 41.2761 10.3531 41.5 10.6292 41.5C10.9054 41.5 11.1292 41.2761 11.1292 41V32H16.1292V41C16.1292 41.2761 16.3531 41.5 16.6292 41.5C16.9054 41.5 17.1292 41.2761 17.1292 41V29.7066L17.7968 29.4713C17.8861 29.4398 17.9668 29.3832 18.0292 29.3L21.0167 25.3166L21.0236 25.3079C21.0481 25.2767 21.0684 25.243 21.0845 25.2074L21.0852 25.2058C21.1157 25.1387 21.1304 25.0662 21.1292 24.9929L21.1292 24.9915C21.1281 24.9182 21.1112 24.8461 21.0786 24.78L21.0778 24.7785C21.0606 24.7434 21.0392 24.7103 21.0137 24.6799L21.0066 24.6714L17.023 19.6918C17.0177 19.685 17.0122 19.6784 17.0066 19.672L17.0058 19.6711C16.9594 19.6177 16.9052 19.5775 16.8466 19.5493L16.8453 19.5487C16.7867 19.5205 16.7215 19.5033 16.6508 19.5004L16.6496 19.5004ZM10.1292 21.4254V28.8334L7.26162 25.0099L10.1292 21.4254ZM17.1292 21.4254L19.9968 25.0099L17.1292 28.8333V21.4254Z" fill="#333333"/>
<path fill-rule="evenodd" clip-rule="evenodd" d="M17.6291 24.834L15.6291 27.5006C14.8007 28.6052 15.0246 30.1722 16.1291 31.0006C17.2337 31.8291 18.8007 31.6052 19.6291 30.5006L22.2542 27.0006H19.7542L18.0291 29.3006C17.8635 29.5216 17.5501 29.5663 17.3291 29.4006C17.1082 29.235 17.0635 28.9216 17.2291 28.7006L18.5042 27.0006H17.6291V24.834Z" fill="#333333"/>
<path fill-rule="evenodd" clip-rule="evenodd" d="M9.62507 24.834L11.6251 27.5006C12.4535 28.6052 12.2296 30.1722 11.1251 31.0006C10.0205 31.8291 8.45349 31.6052 7.62507 30.5006L5 27.0006H7.5L9.22507 29.3006C9.39075 29.5216 9.70415 29.5663 9.92507 29.4006C10.146 29.235 10.1908 28.9216 10.0251 28.7006L8.75 27.0006H9.62507V24.834Z" fill="#333333"/>
<path fill-rule="evenodd" clip-rule="evenodd" d="M10.6291 17C10.0768 17 9.62912 17.4477 9.62912 18V20H7.62912V18C7.62912 16.3431 8.97227 15 10.6291 15V17Z" fill="#333333"/>
<path fill-rule="evenodd" clip-rule="evenodd" d="M16.6291 17C17.1814 17 17.6291 17.4477 17.6291 18V20H19.6291V18C19.6291 16.3431 18.286 15 16.6291 15V17Z" fill="#333333"/>
<path fill-rule="evenodd" clip-rule="evenodd" d="M31.6292 23.8918V18H33.6292V23.8918C33.6292 24.9259 33.0965 25.8871 32.2197 26.4354L30.6502 27.4169L29.5898 25.7212L31.1594 24.7397C31.4516 24.5569 31.6292 24.2365 31.6292 23.8918Z" fill="#333333"/>
<path fill-rule="evenodd" clip-rule="evenodd" d="M37.6292 23.9139V18H35.6292V23.9139C35.6292 24.9299 36.1434 25.8769 36.9956 26.4301L38.529 27.4257L39.6181 25.7482L38.0847 24.7527C37.8006 24.5682 37.6292 24.2526 37.6292 23.9139Z" fill="#333333"/>
<path fill-rule="evenodd" clip-rule="evenodd" d="M34.6292 10C32.9724 10 31.6292 11.3431 31.6292 13C31.6292 14.6569 32.9724 16 34.6292 16C36.2861 16 37.6292 14.6569 37.6292 13C37.6292 11.3431 36.2861 10 34.6292 10ZM29.6292 13C29.6292 10.2386 31.8678 8 34.6292 8C37.3906 8 39.6292 10.2386 39.6292 13C39.6292 14.9791 38.4794 16.6896 36.8113 17.5H37.6117C37.652 17.4997 37.6923 17.5004 37.7326 17.5021M29.6292 13C29.6292 14.9791 30.7791 16.6896 32.4471 17.5L29.6292 13ZM32.4471 17.5H31.6468C30.9104 17.4951 30.1748 17.816 29.677 18.4383L25.703 23.4059C25.5767 23.5583 25.4707 23.7232 25.3856 23.8965C25.2192 24.2344 25.1351 24.5983 25.1295 24.9602M44.129 24.9602C44.129 24.9607 44.129 24.9612 44.129 24.9617L43.1291 24.9766L44.129 24.9602ZM44.129 24.9602C44.1234 24.5986 44.0394 24.2349 43.8732 23.8973C43.788 23.7237 43.6819 23.5585 43.5555 23.4059L39.5924 18.4521C39.5674 18.4204 39.5416 18.3893 39.5151 18.3588M31.1292 21.4254V28.8334L28.2616 25.0099L31.1292 21.4254ZM38.1292 21.4254L40.9968 25.0099L38.1292 28.8333V21.4254Z" fill="#333333"/>
<path fill-rule="evenodd" clip-rule="evenodd" d="M38.6291 24.834L36.6291 27.5006C35.8007 28.6052 36.0246 30.1722 37.1291 31.0006C38.2337 31.8291 39.8007 31.6052 40.6291 30.5006L43.2542 27.0006H40.7542L39.0291 29.3006C38.8635 29.5216 38.5501 29.5663 38.3291 29.4006C38.1082 29.235 38.0635 28.9216 38.2291 28.7006L39.5042 27.0006H38.6291V24.834Z" fill="#333333"/>
<path fill-rule="evenodd" clip-rule="evenodd" d="M30.6251 24.834L32.6251 27.5006C33.4535 28.6052 33.2296 30.1722 32.1251 31.0006C31.0205 31.8291 29.4535 31.6052 28.6251 30.5006L26 27.0006H28.5L30.2251 29.3006C30.3908 29.5216 30.7042 29.5663 30.9251 29.4006C31.146 29.235 31.1908 28.9216 31.0251 28.7006L29.75 27.0006H30.6251V24.834Z" fill="#333333"/>
<path fill-rule="evenodd" clip-rule="evenodd" d="M31.6292 17C31.0769 17 30.6292 17.4477 30.6292 18V20H28.6292V18C28.6292 16.3431 29.9723 15 31.6292 15V17Z" fill="#333333"/>
<path fill-rule="evenodd" clip-rule="evenodd" d="M37.6292 17C38.1815 17 38.6292 17.4477 38.6292 18V20H40.6292V18C40.6292 16.3431 39.286 15 37.6292 15V17Z" fill="#333333"/>
<path d="M38.6271 5.40545C38.6271 5.1078 38.2865 4.91179 37.9915 5.0399L34.6271 6.49996L37.9915 7.96016C38.2865 8.08813 38.6271 7.89226 38.6271 7.59447V5.40545Z" fill="#333333"/>
<path d="M31.2627 5.0399C30.9677 4.91179 30.6271 5.1078 30.6271 5.40545V7.59447C30.6271 7.89226 30.9677 8.08813 31.2627 7.96016L34.6271 6.49996L31.2627 5.0399Z" fill="#333333"/>
</svg>
