<svg width="48" height="48" viewBox="0 0 48 48" fill="none" xmlns="http://www.w3.org/2000/svg">
<path d="M10.514 18.5L10.5054 19.5H10.514V18.5ZM5.34867 24.0381L6.11556 24.6799L6.12265 24.6714L6.12954 24.6628L5.34867 24.0381ZM5.15378 24.3379L6.05071 24.78L6.05148 24.7785L5.15378 24.3379ZM5.0002 24.9766L6.00007 24.9929L6.00009 24.9915L5.0002 24.9766ZM5.13376 25.6198L6.04478 25.2074L6.04406 25.2058L5.13376 25.6198ZM5.31919 25.9255L6.11919 25.3255L6.11257 25.3166L6.10575 25.308L5.31919 25.9255ZM9.00012 30.4144H10.0001V29.7066L9.33253 29.4713L9.00012 30.4144ZM12.0001 33V32H11.0001V33H12.0001ZM15.0001 33H16.0001V32H15.0001V33ZM18.0001 30.4144L17.6677 29.4713L17.0001 29.7066V30.4144H18.0001ZM21.681 25.9254L20.8945 25.3079L20.8876 25.3166L20.881 25.3254L21.681 25.9254ZM21.8664 25.6198L20.9561 25.2058L20.9554 25.2074L21.8664 25.6198ZM22 24.9766L21.0001 24.9915V24.9929L22 24.9766ZM21.8464 24.3379L20.9487 24.7785L20.9495 24.78L21.8464 24.3379ZM21.6515 24.0381L20.8706 24.6628L20.8775 24.6714L20.8846 24.6799L21.6515 24.0381ZM17.6801 19.0738L16.8939 19.6918L16.8992 19.6985L17.6801 19.0738ZM17.6314 19.015L16.8767 19.6711L16.8775 19.672L17.6314 19.015ZM17.15 18.6477L16.7162 19.5487L16.7175 19.5493L17.15 18.6477ZM16.5626 18.5013L16.5205 19.5004H16.5217L16.5626 18.5013ZM16.4862 18.5V19.5H16.4948L16.4862 18.5ZM18.6029 25.0296L19.4029 25.6296L19.8677 25.0099L19.3837 24.4049L18.6029 25.0296ZM18.0001 24.2762L18.781 23.6515L17.0001 21.4254V24.2762H18.0001ZM18.0001 25.8333H17.0001V28.8333L18.8001 26.4333L18.0001 25.8333ZM8.39732 25.0296L7.61645 24.4049L7.1325 25.0099L7.59732 25.6296L8.39732 25.0296ZM9.00012 25.8334L8.20012 26.4334L10.0001 28.8334V25.8334H9.00012ZM9.00012 24.2761H10.0001V21.4254L8.21925 23.6514L9.00012 24.2761ZM16.5001 13C16.5001 14.6568 15.157 16 13.5001 16V18C16.2615 18 18.5001 15.7614 18.5001 13H16.5001ZM13.5001 10C15.157 10 16.5001 11.3432 16.5001 13H18.5001C18.5001 10.2386 16.2615 8 13.5001 8V10ZM10.5001 13C10.5001 11.3432 11.8432 10 13.5001 10V8C10.7387 8 8.50009 10.2386 8.50009 13H10.5001ZM13.5001 16C11.8432 16 10.5001 14.6568 10.5001 13H8.50009C8.50009 15.7614 10.7387 18 13.5001 18V16ZM10.1096 19.6877C10.209 19.5634 10.3546 19.4987 10.5054 19.5L10.5225 17.5C9.78458 17.4937 9.04682 17.8146 8.54792 18.4383L10.1096 19.6877ZM6.12954 24.6628L10.1096 19.6877L8.54792 18.4383L4.5678 23.4134L6.12954 24.6628ZM6.05148 24.7785C6.0687 24.7434 6.09009 24.7103 6.11556 24.6799L4.58179 23.3963C4.45183 23.5516 4.34305 23.7201 4.25608 23.8973L6.05148 24.7785ZM6.00009 24.9915C6.00118 24.9182 6.01812 24.8462 6.05071 24.78L4.25686 23.8957C4.08995 24.2342 4.00572 24.599 4.00031 24.9617L6.00009 24.9915ZM6.04406 25.2058C6.01355 25.1387 5.99887 25.0662 6.00007 24.9929L4.00033 24.9602C3.99441 25.3229 4.06721 25.6901 4.22346 26.0337L6.04406 25.2058ZM6.10575 25.308C6.08123 25.2767 6.06089 25.243 6.04478 25.2074L4.22273 26.0321C4.30413 26.2119 4.4076 26.3837 4.53264 26.543L6.10575 25.308ZM9.10009 29.3L6.11919 25.3255L4.51919 26.5255L7.50009 30.5L9.10009 29.3ZM9.33253 29.4713C9.24323 29.4398 9.16246 29.3832 9.10009 29.3L7.50009 30.5C7.80682 30.909 8.21732 31.1988 8.66771 31.3575L9.33253 29.4713ZM10.0001 41V30.4144H8.00012V41H10.0001ZM10.5001 41.5C10.224 41.5 10.0001 41.2761 10.0001 41H8.00012C8.00012 42.3807 9.11941 43.5 10.5001 43.5V41.5ZM11.0001 41C11.0001 41.2761 10.7763 41.5 10.5001 41.5V43.5C11.8808 43.5 13.0001 42.3807 13.0001 41H11.0001ZM11.0001 33V41H13.0001V33H11.0001ZM15.0001 32H12.0001V34H15.0001V32ZM16.0001 41V33H14.0001V41H16.0001ZM16.5001 41.5C16.224 41.5 16.0001 41.2761 16.0001 41H14.0001C14.0001 42.3807 15.1194 43.5 16.5001 43.5V41.5ZM17.0001 41C17.0001 41.2761 16.7763 41.5 16.5001 41.5V43.5C17.8809 43.5 19.0001 42.3807 19.0001 41H17.0001ZM17.0001 30.4144V41H19.0001V30.4144H17.0001ZM18.3326 31.3575C18.7829 31.1987 19.1934 30.9089 19.5001 30.5L17.9001 29.3C17.8377 29.3832 17.757 29.4398 17.6677 29.4713L18.3326 31.3575ZM19.5001 30.5L22.481 26.5254L20.881 25.3254L17.9001 29.3L19.5001 30.5ZM20.9554 25.2074C20.9393 25.243 20.919 25.2767 20.8945 25.3079L22.4676 26.5429C22.5926 26.3837 22.6961 26.2119 22.7775 26.0321L20.9554 25.2074ZM22.7767 26.0337C22.933 25.6901 23.0058 25.3229 22.9999 24.9602L21.0001 24.9929C21.0013 25.0662 20.9866 25.1387 20.9561 25.2058L22.7767 26.0337ZM20.9495 24.78C20.9821 24.8461 20.999 24.9182 21.0001 24.9915L22.9999 24.9617C22.9945 24.599 22.9102 24.2342 22.7433 23.8957L20.9495 24.78ZM22.7441 23.8973C22.6571 23.7201 22.5484 23.5516 22.4184 23.3963L20.8846 24.6799C20.9101 24.7103 20.9315 24.7434 20.9487 24.7785L22.7441 23.8973ZM16.8992 19.6985L20.8706 24.6628L22.4324 23.4134L18.461 18.4491L16.8992 19.6985ZM16.8775 19.672C16.8831 19.6784 16.8886 19.685 16.8939 19.6918L18.4663 18.4559C18.4401 18.4226 18.4131 18.3899 18.3853 18.358L16.8775 19.672ZM16.7175 19.5493C16.7761 19.5775 16.8303 19.6177 16.8767 19.6711L18.386 18.3588C18.1569 18.0953 17.8821 17.8898 17.5826 17.7461L16.7175 19.5493ZM16.5217 19.5004C16.5924 19.5033 16.6576 19.5205 16.7162 19.5487L17.5839 17.7467C17.2846 17.6026 16.9524 17.5164 16.6035 17.5021L16.5217 19.5004ZM16.4948 19.5C16.5034 19.4999 16.512 19.5 16.5205 19.5004L16.6047 17.5022C16.5624 17.5004 16.52 17.4997 16.4777 17.5L16.4948 19.5ZM10.514 19.5H16.4862V17.5H10.514V19.5ZM19.3837 24.4049L18.781 23.6515L17.2193 24.9009L17.822 25.6543L19.3837 24.4049ZM17.0001 24.2762V25.8333H19.0001V24.2762H17.0001ZM17.8029 24.4296L17.2001 25.2333L18.8001 26.4333L19.4029 25.6296L17.8029 24.4296ZM7.59732 25.6296L8.20012 26.4334L9.80012 25.2334L9.19732 24.4296L7.59732 25.6296ZM8.21925 23.6514L7.61645 24.4049L9.17818 25.6543L9.78099 24.9008L8.21925 23.6514ZM10.0001 25.8334V24.2761H8.00012V25.8334H10.0001Z" fill="#333333"/>
<path fill-rule="evenodd" clip-rule="evenodd" d="M9.5 18C9.5 17.4477 9.94772 17 10.5 17V15C8.84315 15 7.5 16.3432 7.5 18V20H9.5V18ZM10.5 23.8918V18H12.5V23.8918C12.5 24.9259 11.9674 25.8871 11.0907 26.4354L10.8227 26.603L11.4959 27.5006C12.3244 28.6052 12.1005 30.1722 10.9959 31.0006C9.89138 31.8291 8.32437 31.6052 7.49595 30.5006L4.87088 27.0006H7.37088L9.09595 29.3006C9.26163 29.5216 9.57503 29.5663 9.79595 29.4006C10.0169 29.235 10.0616 28.9216 9.89595 28.7006L8.62088 27.0006H9.26071L8.46069 25.7211L9.49595 25.0738V24.834L9.6184 24.9972L10.0301 24.7398C10.3224 24.5569 10.5 24.2364 10.5 23.8918ZM14.5001 23.9139V18H16.5001V23.9139C16.5001 24.2527 16.6715 24.5683 16.9555 24.7526L17.3628 25.017L17.5 24.834V25.1061L18.489 25.7481L17.676 27.0006H18.3751L17.1 28.7006C16.9344 28.9216 16.9791 29.235 17.2 29.4006C17.421 29.5663 17.7345 29.521 17.9001 29.3L19.6251 27.0006H22.1251L19.5001 30.5C18.6717 31.6046 17.1046 31.8291 16 31.0006C14.8955 30.1722 14.6716 28.6052 15.5 27.5006L16.1599 26.6207L15.8665 26.4302C15.0143 25.8769 14.5001 24.9299 14.5001 23.9139ZM16.5 17C17.0523 17 17.5 17.4477 17.5 18V20H19.5V18C19.5 16.3432 18.1569 15 16.5 15V17Z" fill="#333333"/>
<path fill-rule="evenodd" clip-rule="evenodd" d="M31.5 17C30.9477 17 30.5 17.4477 30.5 18V20H28.5V18C28.5 16.3431 29.8431 15 31.5 15V17Z" fill="#333333"/>
<path fill-rule="evenodd" clip-rule="evenodd" d="M37.5 17C38.0523 17 38.5 17.4477 38.5 18V20H40.5V18C40.5 16.3431 39.1568 15 37.5 15V17Z" fill="#333333"/>
<path fill-rule="evenodd" clip-rule="evenodd" d="M38.5 24.834L36.5 27.5006C35.6716 28.6052 35.8954 30.1722 37 31.0006C38.1046 31.8291 39.6716 31.6052 40.5 30.5006L43.1251 27.0006H40.6251L38.9 29.3006C38.7343 29.5216 38.4209 29.5663 38.2 29.4006C37.9791 29.235 37.9343 28.9216 38.1 28.7006L39.3751 27.0006H38.5V24.834Z" fill="#333333"/>
<path fill-rule="evenodd" clip-rule="evenodd" d="M30.496 24.834L32.4959 27.5006C33.3244 28.6052 33.1005 30.1722 31.9959 31.0006C30.8914 31.8291 29.3244 31.6052 28.4959 30.5006L25.8709 27.0006H28.3709L30.0959 29.3006C30.2616 29.5216 30.575 29.5663 30.7959 29.4006C31.0169 29.235 31.0616 28.9216 30.8959 28.7006L29.6209 27.0006H30.496V24.834Z" fill="#333333"/>
<path fill-rule="evenodd" clip-rule="evenodd" d="M31.5 23.8918V18H33.5V23.8918C33.5 24.9259 32.9674 25.8871 32.0907 26.4354L30.521 27.4169L29.4607 25.7211L31.0301 24.7398C31.3224 24.5569 31.5 24.2364 31.5 23.8918Z" fill="#333333"/>
<path fill-rule="evenodd" clip-rule="evenodd" d="M35.5 23.9139V18H37.5V23.9139C37.5 24.2526 37.6715 24.5682 37.9555 24.7526L39.4889 25.7482L38.3999 27.4256L36.8665 26.4302C36.0144 25.877 35.5 24.93 35.5 23.9139Z" fill="#333333"/>
<path d="M31.514 18.5L31.5054 19.5H31.514V18.5ZM26.3487 24.0381L27.1156 24.6799L27.1226 24.6714L27.1295 24.6628L26.3487 24.0381ZM26.1538 24.3379L27.0507 24.78L27.0515 24.7785L26.1538 24.3379ZM26.0002 24.9766L27.0001 24.9929L27.0001 24.9915L26.0002 24.9766ZM26.1338 25.6198L27.0448 25.2074L27.0441 25.2058L26.1338 25.6198ZM26.3192 25.9255L27.1192 25.3255L27.1126 25.3166L27.1058 25.308L26.3192 25.9255ZM29.249 29.8319L30.2152 30.0896L30.3404 29.6204L30.049 29.2319L29.249 29.8319ZM27.8709 35L26.9046 34.7423L26.5692 36H27.8709V35ZM30.0001 35H31.0001V34H30.0001V35ZM33.0001 35V34H32.0001V35H33.0001ZM36.0001 35H37.0001V34H36.0001V35ZM39.0001 35V34H38.0001V35H39.0001ZM40.8708 35V36H42.3479L41.7993 34.6286L40.8708 35ZM39.0319 30.4027L38.6783 29.4674L37.7249 29.8278L38.1034 30.7741L39.0319 30.4027ZM42.681 25.9254L41.8944 25.3079L41.8876 25.3166L41.881 25.3254L42.681 25.9254ZM42.8664 25.6198L41.9561 25.2058L41.9554 25.2074L42.8664 25.6198ZM43 24.9766L42.0001 24.9915V24.9929L43 24.9766ZM42.8464 24.3379L41.9487 24.7785L41.9494 24.78L42.8464 24.3379ZM42.6515 24.0381L41.8706 24.6628L41.8775 24.6714L41.8846 24.6799L42.6515 24.0381ZM38.6801 19.0738L37.8938 19.6918L37.8992 19.6985L38.6801 19.0738ZM38.6313 19.015L37.8767 19.6711L37.8774 19.672L38.6313 19.015ZM38.15 18.6477L37.7162 19.5487L37.7174 19.5493L38.15 18.6477ZM37.5625 18.5013L37.5205 19.5004H37.5216L37.5625 18.5013ZM37.4862 18.5V19.5H37.4948L37.4862 18.5ZM39.6028 25.0296L40.4028 25.6296L40.8677 25.0099L40.3837 24.4049L39.6028 25.0296ZM39.0001 24.2762L39.781 23.6515L38.0001 21.4254V24.2762H39.0001ZM39.0001 25.8333H38.0001V28.8333L39.8001 26.4333L39.0001 25.8333ZM29.3973 25.0296L28.6164 24.4049L28.1325 25.0099L28.5973 25.6296L29.3973 25.0296ZM30.0001 25.8334L29.2001 26.4334L31.0001 28.8334V25.8334H30.0001ZM30.0001 24.2761H31.0001V21.4254L29.2193 23.6514L30.0001 24.2761ZM37.5001 13C37.5001 14.6568 36.1569 16 34.5001 16V18C37.2615 18 39.5001 15.7614 39.5001 13H37.5001ZM34.5001 10C36.1569 10 37.5001 11.3432 37.5001 13H39.5001C39.5001 10.2386 37.2615 8 34.5001 8V10ZM31.5001 13C31.5001 11.3432 32.8432 10 34.5001 10V8C31.7387 8 29.5001 10.2386 29.5001 13H31.5001ZM34.5001 16C32.8432 16 31.5001 14.6568 31.5001 13H29.5001C29.5001 15.7614 31.7387 18 34.5001 18V16ZM31.1097 19.6877C31.2091 19.5634 31.3546 19.4987 31.5054 19.5L31.5225 17.5C30.7846 17.4937 30.0468 17.8146 29.5479 18.4383L31.1097 19.6877ZM27.1295 24.6628L31.1097 19.6877L29.5479 18.4383L25.5678 23.4134L27.1295 24.6628ZM27.0515 24.7785C27.0687 24.7434 27.0901 24.7103 27.1156 24.6799L25.5818 23.3963C25.4518 23.5516 25.343 23.7201 25.2561 23.8973L27.0515 24.7785ZM27.0001 24.9915C27.0012 24.9182 27.0181 24.8462 27.0507 24.78L25.2569 23.8957C25.09 24.2342 25.0057 24.599 25.0003 24.9617L27.0001 24.9915ZM27.0441 25.2058C27.0136 25.1387 26.9989 25.0662 27.0001 24.9929L25.0003 24.9602C24.9944 25.3229 25.0672 25.6901 25.2235 26.0337L27.0441 25.2058ZM27.1058 25.308C27.0812 25.2767 27.0609 25.243 27.0448 25.2074L25.2227 26.0321C25.3041 26.2119 25.4076 26.3837 25.5326 26.543L27.1058 25.308ZM30.049 29.2319L27.1192 25.3255L25.5192 26.5255L28.449 30.4319L30.049 29.2319ZM28.8371 35.2577L30.2152 30.0896L28.2828 29.5742L26.9046 34.7423L28.8371 35.2577ZM30.0001 34H27.8709V36H30.0001V34ZM31.0001 41V35H29.0001V41H31.0001ZM31.5001 41.5C31.224 41.5 31.0001 41.2761 31.0001 41H29.0001C29.0001 42.3807 30.1194 43.5 31.5001 43.5V41.5ZM32.0001 41C32.0001 41.2761 31.7763 41.5 31.5001 41.5V43.5C32.8808 43.5 34.0001 42.3807 34.0001 41H32.0001ZM32.0001 35V41H34.0001V35H32.0001ZM36.0001 34H33.0001V36H36.0001V34ZM37.0001 41V35H35.0001V41H37.0001ZM37.5001 41.5C37.224 41.5 37.0001 41.2761 37.0001 41H35.0001C35.0001 42.3807 36.1194 43.5 37.5001 43.5V41.5ZM38.0001 41C38.0001 41.2761 37.7762 41.5 37.5001 41.5V43.5C38.8808 43.5 40.0001 42.3807 40.0001 41H38.0001ZM38.0001 35V41H40.0001V35H38.0001ZM40.8708 34H39.0001V36H40.8708V34ZM38.1034 30.7741L39.9423 35.3714L41.7993 34.6286L39.9604 30.0314L38.1034 30.7741ZM39.3856 31.3381C39.8152 31.1757 40.2055 30.8933 40.5 30.5006L38.9 29.3006C38.84 29.3806 38.7632 29.4353 38.6783 29.4674L39.3856 31.3381ZM40.5 30.5006L43.481 26.5254L41.881 25.3254L38.9 29.3006L40.5 30.5006ZM41.9554 25.2074C41.9393 25.243 41.9189 25.2767 41.8944 25.3079L43.4676 26.5429C43.5926 26.3837 43.696 26.2119 43.7774 26.0321L41.9554 25.2074ZM43.7767 26.0337C43.9329 25.6901 44.0057 25.3229 43.9998 24.9602L42.0001 24.9929C42.0013 25.0662 41.9866 25.1387 41.9561 25.2058L43.7767 26.0337ZM41.9494 24.78C41.982 24.8461 41.999 24.9182 42.0001 24.9915L43.9998 24.9617C43.9944 24.599 43.9102 24.2342 43.7433 23.8957L41.9494 24.78ZM43.7441 23.8973C43.6571 23.7201 43.5483 23.5516 43.4183 23.3963L41.8846 24.6799C41.9101 24.7103 41.9315 24.7434 41.9487 24.7785L43.7441 23.8973ZM37.8992 19.6985L41.8706 24.6628L43.4323 23.4134L39.4609 18.4491L37.8992 19.6985ZM37.8774 19.672C37.8831 19.6784 37.8885 19.685 37.8938 19.6918L39.4663 18.4559C39.4401 18.4226 39.4131 18.3899 39.3852 18.358L37.8774 19.672ZM37.7174 19.5493C37.7761 19.5775 37.8303 19.6177 37.8767 19.6711L39.386 18.3588C39.1569 18.0953 38.8821 17.8898 38.5825 17.7461L37.7174 19.5493ZM37.5216 19.5004C37.5923 19.5033 37.6576 19.5205 37.7162 19.5487L38.5838 17.7467C38.2845 17.6026 37.9524 17.5164 37.6035 17.5021L37.5216 19.5004ZM37.4948 19.5C37.5033 19.4999 37.5119 19.5 37.5205 19.5004L37.6046 17.5022C37.5623 17.5004 37.52 17.4997 37.4776 17.5L37.4948 19.5ZM31.514 19.5H37.4862V17.5H31.514V19.5ZM40.3837 24.4049L39.781 23.6515L38.2192 24.9009L38.822 25.6543L40.3837 24.4049ZM38.0001 24.2762V25.8333H40.0001V24.2762H38.0001ZM38.8028 24.4296L38.2001 25.2333L39.8001 26.4333L40.4028 25.6296L38.8028 24.4296ZM28.5973 25.6296L29.2001 26.4334L30.8001 25.2334L30.1973 24.4296L28.5973 25.6296ZM29.2193 23.6514L28.6164 24.4049L30.1782 25.6543L30.781 24.9008L29.2193 23.6514ZM31.0001 25.8334V24.2761H29.0001V25.8334H31.0001Z" fill="#333333"/>
<path d="M38.4979 5.40545C38.4979 5.1078 38.1573 4.91179 37.8623 5.0399L34.4979 6.49996L37.8623 7.96016C38.1573 8.08813 38.4979 7.89226 38.4979 7.59447V5.40545Z" fill="#333333"/>
<path d="M31.1335 5.0399C30.8385 4.91179 30.4979 5.1078 30.4979 5.40545V7.59447C30.4979 7.89226 30.8385 8.08813 31.1335 7.96016L34.4979 6.49996L31.1335 5.0399Z" fill="#333333"/>
</svg>
